<svg xmlns="http://www.w3.org/2000/svg" viewBox="0 0 1879 748" xml:space="preserve"><path fill="#fafafa" d="M548.071 59.499c-9.133.094-18.267.247-27.4.272-22.94.062-45.878.066-69.41-.185-5.73.336-10.85 1.238-16.003 1.513-15.97.852-31.96 1.317-47.921 2.266-4.481.267-9.15 1.038-13.291 2.688-14.223 5.664-26.058 15.04-36.716 25.776-10.227 10.303-19.844 21.208-29.827 31.756-15.132 15.99-30.341 31.904-45.53 47.84-14.156 14.852-28.329 29.69-42.493 44.535-15.269 16.004-30.527 32.02-45.807 48.015-15.33 16.05-30.678 32.083-46.023 48.119-16.019 16.74-32.031 33.485-48.076 50.2-3.342 3.481-6.775 6.88-10.24 10.24-2.357 2.283-2.526 4.41-.19 6.852 14.302 14.953 28.567 29.941 42.832 44.928 9.32 9.791 19.89 18.083 30.326 26.637 9.042 7.412 19.518 11.235 29.828 15.15 7.222 2.743 15.794 2.102 23.786 2.607 21.115 1.334 42.333-2.13 63.446 1.984 10.817 2.108 19.406 7.963 28.061 13.873 3.746 2.558 6.64 6.355 9.963 9.544 2.513 2.41 5.186 4.66 7.621 7.144 2.872 2.93 5.378 6.238 8.378 9.02 5.636 5.23 11.724 9.983 17.218 15.35 3.726 3.64 6.555 8.181 10.148 11.977 6.031 6.371 12.349 12.472 18.55 18.682 6.912 6.923 13.776 13.895 20.781 20.722 1.71 1.666 4.144 2.6 5.81 4.297 8.056 8.213 15.964 16.57 23.924 24.878 6.967 6.752 14.012 13.425 20.885 20.272 21.345 21.26 42.624 42.587 63.932 63.886 6.256 6.254 9.005 6.187 15.278.134 5.193-5.01 10.6-9.797 16.402-15.043.944-.987 1.4-1.615 1.855-2.243 0 0-.158-.137.23-.134.836-.634 1.285-1.272 1.734-1.91 0 0-.127-.138.246-.107.82-.626 1.269-1.282 1.716-1.937 0 0-.094-.097.264-.066.8-.643 1.242-1.317 1.685-1.99 0 0-.043-.041.315-.043 2.012-2.068 3.668-4.133 5.323-6.198 0 0 .112.008.454.014 3.855-4.262 7.37-8.53 10.883-12.797 0 0-.018-.017.308-.01.738-.694 1.15-1.394 1.56-2.095 0 0 .068.068.375.056.704-.718 1.1-1.424 1.497-2.13 0 0 .086.02.413.027.713-.685 1.1-1.378 1.487-2.07 0 0 .12-.008.463-.015 11.933-11.678 23.52-23.353 35.121-35.013 1.862-1.872 3.902-3.578 5.667-5.534a1427 1427 0 0 0 15.702-17.728c6.381-7.316 14.617-10.307 24.057-9.988 3.333.113 6.616 1.797 9.946 1.893 5.375.155 9.292 2.532 12.933 6.182 29.631 29.707 59.347 59.329 88.997 89.017 10.81 10.824 21.511 21.757 32.203 32.58.986-.59 1.465-.762 1.792-1.088 19.652-19.602 39.29-39.217 58.935-58.827 1.058-1.056 2.12-2.11 3.232-3.11 4.467-4.018 8.953-8.013 13.433-12.016 0 0-.137-.146.274-.107 26.093-24.945 51.769-49.935 77.46-74.91 24.502-23.82 49.095-47.547 73.502-71.465 15.453-15.142 30.633-30.563 45.952-45.842 1.17-1.166 2.377-2.338 3.734-3.263 8.914-6.072 19.553-7.23 29.62-8.45 12.825-1.553 25.887-.486 38.893-2.19 14.156-1.855 28.576-1.676 42.877-2.444a5.34 5.34 0 0 0 2.719-.975c8.14-5.964 16.74-11.43 24.195-18.16 7.642-6.9 16.68-10.333 26.153-10.385 10.775-.058 21.564 2.58 32.347 4.053.158.021.3.143.46.184 7.767 2.042 15.48 4.333 23.321 6.035 6.033 1.31 12.226 1.877 18.478 3.132 3.737.757 7.345 1.157 10.952 1.556 0 0-.071.08-.134.314.665.502 1.391.769 2.556 1.136 3.405.009 6.372-.082 9.34-.173.225.21.454.416.896 1.17 5.584 1.569 10.956 2.603 16.337 3.59 1.29.236 2.632.211 3.912.484 5.977 1.274 11.936 2.625 17.91 3.91 1.12.24 2.301.203 3.415.46 5.328 1.232 10.608 2.696 15.971 3.74 5.095.992 10.285 1.477 15.406 2.352 3.811.65 7.58 1.557 11.363 2.37 5.823 1.249 11.62 2.643 17.471 3.737 5.42 1.014 10.91 1.646 16.345 2.58a171 171 0 0 1 10.905 2.267c5 1.197 9.92 2.779 14.96 3.756 5.246 1.017 10.606 1.433 15.893 2.261 3.83.6 7.659 1.297 11.423 2.217 4.841 1.184 9.563 2.904 14.437 3.9 5.382 1.1 10.889 1.578 16.321 2.45 3.991.641 7.976 1.367 11.914 2.269 3.127.715 7.542.86 8.885 2.901 1.362 2.072-.341 6.16-.842 9.595-.055 1.091.032 1.95.117 2.81-.05.684-.1 1.367-.447 2.553-.725 2.816-1.154 5.13-1.582 7.443-.034.39-.068.778-.424 1.622-1.677.485-3.103.803-4.376.493-4.372-1.064-8.632-2.664-13.043-3.469-5.753-1.05-11.627-1.415-17.414-2.304-3.99-.613-7.935-1.558-11.877-2.455-5.326-1.211-10.596-2.691-15.952-3.737-5.093-.994-10.296-1.424-15.398-2.381-6.635-1.244-13.214-2.79-19.827-4.156-4.278-.884-8.594-1.59-12.856-2.54-5.339-1.188-10.604-2.727-15.967-3.775-5.098-.995-10.296-1.464-15.42-2.332-3.814-.646-7.59-1.52-11.367-2.362-5.809-1.294-11.582-2.758-17.413-3.94-4.768-.965-9.62-1.51-14.394-2.445-6.155-1.205-12.247-2.742-18.412-3.892-5.105-.953-10.339-1.264-15.403-2.374-8.476-1.857-16.794-4.48-25.305-6.125-9.552-1.846-19.245-2.96-28.873-4.412-.803-.121-1.577-.425-2.373-.605-5.336-1.211-10.68-2.389-16.01-3.622-5.003-1.158-9.939-2.865-15.004-3.421-5.153-.567-10.963-1.385-15.506.401-4.927 1.937-8.57 6.957-13.05 10.257-5.738 4.226-11.757 8.07-17.648 12.09-5.102 3.481-10.816 3.952-16.84 4.426-7.513.593-14.857 3.387-22.37 3.937-15.776 1.156-31.681-1.278-47.462 2.072-5.42 1.151-11.295.062-16.954.247-1.867.062-3.732.838-5.556 1.42-4.26 1.358-7.146 4.167-10.075 7.645-3.94 4.677-9.46 7.979-13.926 12.263a13825 13825 0 0 0-64.4 62.212c-27.68 26.897-55.26 53.896-82.927 80.807-26.599 25.875-53.292 51.653-79.862 77.557-9.77 9.526-19.582 19.036-28.831 29.055-4.69 5.081-10.747 6.794-16.677 8.687-3.232 1.031-7.684.871-10.673-.602-4.298-2.12-8.064-5.623-11.537-9.061-20.707-20.497-41.269-41.142-61.872-61.744-18.72-18.719-37.421-37.456-56.15-56.165-4.064-4.06-10.801-3.656-13.263.607-1.211 2.097-2.51 4.24-4.188 5.953-8.706 8.891-17.673 17.529-26.295 26.498-5.785 6.018-11.018 12.564-16.727 18.658-12.98 13.858-26.123 27.564-39.147 41.381-2.327 2.468-4.402 5.173-6.593 7.769-6.431 5.575-12.862 11.15-19.85 16.659-1.134.373-1.71.813-2.288 1.252-.497.351-.995.702-1.925.889-1.84.336-3.247.837-4.654 1.339 0 0-.208.15-.658.123-3.182-.15-6.002.111-8.626-.486-4.47-1.016-8.818-2.572-13.321-4.215-19.631-19.856-39.153-39.404-58.687-58.94-51.195-51.198-102.371-102.417-153.662-153.52-2.823-2.812-6.394-5.127-10.011-6.84-9.364-4.434-19.414-6.258-29.747-6.449-4.998-.091-10.01-.215-14.995.045-4.378.228-8.718 1.107-13.095 1.448-3.786.295-7.617.503-11.396.253-3.019-.2-5.963-1.355-8.985-1.72-7.435-.9-14.896-1.58-22.344-2.376-.476-.051-.936-.314-1.389-.513-6.394-2.803-13.217-4.919-19.081-8.574-10.057-6.27-20.586-12.393-29.009-20.549C93.12 441.251 73.856 420.388 54.131 400c-2.663-2.752-5.784-5.144-8.04-8.187-3.472-4.677-6.688-9.47-7.13-15.78-.625-8.95 4.845-14.92 9.978-20.57 14.114-15.533 28.846-30.506 43.349-45.687 15.429-16.15 30.876-32.285 46.313-48.428 15.2-15.894 30.425-31.763 45.587-47.692 12.776-13.423 25.454-26.939 38.218-40.373 14.365-15.12 28.612-30.356 43.21-45.247 18.72-19.095 37.64-37.995 56.681-56.769 6.321-6.232 12.986-12.205 20.046-17.569 5.268-4.001 11.08-7.844 17.265-9.948 9.116-3.1 18.69-5.234 28.238-6.571 8.39-1.175 16.954-1.16 25.451-1.959 24.027-2.257 48.183.22 72.432-2.017 33.627-3.101 67.544.865 101.42-2.215 32.98-2.999 66.218.936 99.44-2.097 32.972-3.01 66.218.6 99.444-2.025 28.982-2.29 58.288-.434 87.45-.571 1.892-.01 3.777-1.408 5.664-2.16 0 0 .35-.213.962-.188 30.502.059 60.392.118 90.282.054 1.546-.004 3.089-1.066 4.633-1.635 4.646-.162 9.292-.448 13.938-.463 17.322-.056 34.644-.023 52.872 0 16.047-.884 31.17-.335 46.399-1.521 33.998-2.648 68.22.75 102.39-2.352 29.17-2.648 58.534.566 87.937-1.954 36.307-3.11 72.905 1.059 109.436-2.185 22.984-2.041 46.297-.307 69.462-.412 10.328-.047 19.134 2.397 24.001 12.62 1.313 2.757 2.88 5.393 4.33 8.084 0 0 .149-.135.2.346 3.234 13.948.559 26.37-8.297 36.76-5.281 6.194-12.03 11.19-18.397 16.387-3.751 3.063-8.078 5.414-12.084 8.174-4.96 3.416-9.874 6.902-14.776 10.4-5.828 4.159-11.581 8.421-17.443 12.53-6.112 4.287-12.417 8.303-18.45 12.696-6.454 4.699-12.75 9.622-19.001 14.59-7.69 6.11-15.424 12.186-22.802 18.66-2.617 2.298-5.044 5.446-6.158 8.686-2.145 6.239-3.376 12.802-4.825 19.266-.92 4.107-1.294 8.346-2.365 12.407-1.843 6.99-4.042 13.888-6.086 20.827-.73 2.474-1.487 4.94-2.15 7.432-1.28 4.814-2.569 9.627-3.73 14.47-1.018 4.247-2.283 8.502-2.61 12.817-.16 2.11.931 5.28 2.545 6.393 7.877 5.438 15.8 10.978 24.307 15.3 15.379 7.815 31.22 14.713 46.8 22.138 13.307 6.342 25.874 14.143 40.65 17.42 4.505 1 8.869 3.805 13.885 4.392.721.474 1.393.693 2.44 1.013 1.396.022 2.415-.057 3.435-.137.356.321.711.642 1.505 1.48 2.004.604 3.57.69 5.136.775.144.163.288.326.813 1.066 2.683.681 4.985.785 7.287.888 0 0 .39.29.72.834 6.984.749 13.64.954 20.296 1.16.279.164.555.332 1.034 1.05 1.887 1.009 3.58 1.9 5.25 1.863 7.002-.157 13.997-.591 20.995-.924 1.11.026 2.22.053 3.865.407 2.785 1.119 5.013 2.506 7.291 2.594 7.488.29 15-.095 22.49.142 39.97 1.264 80.031-2.758 119.935 2.09 5.644.687 11.396.961 16.89 2.287 5.283 1.274 10.424 3.388 15.39 5.653 4.119 1.88 7.644 5.255 11.867 6.675 11.76 3.953 19.03 13.796 28.256 20.962 10.137 7.874 19.097 17.27 28.524 26.05 11.62 10.823 23.283 21.601 34.753 32.58 7.692 7.365 15.003 15.126 22.655 22.534 2.192 2.124 5.864 3.103 7.323 5.53 4.305 7.159 10.132 13.29 12.137 22.06 2.082 9.107 2.798 17.667-1.092 26.235-.858 1.891-2.353 3.566-3.812 5.097-2.892 3.035-5.726 6.213-9.038 8.736-2.556 1.948-5.805 2.987-8.746 4.43-5.554.059-11.11.118-17.46-.051-8.956-.939-17.21-1.117-25.254-2.505-8.693-1.5-17.16-4.263-25.781-6.225a370 370 0 0 0-21.37-4.22c-9.593-1.595-19.235-2.89-28.857-4.312-.492-.072-1.003-.067-1.48-.193-4.974-1.319-9.893-2.909-14.928-3.921-5.403-1.087-10.931-1.533-16.373-2.452-4.146-.7-8.25-1.671-12.36-2.577-5.496-1.212-10.957-2.605-16.48-3.68-4.93-.96-9.934-1.536-14.888-2.388-3.659-.629-7.322-1.295-10.923-2.186-4.992-1.235-9.873-2.97-14.903-3.986-5.246-1.059-10.627-1.438-15.925-2.266-3.833-.6-7.679-1.252-11.429-2.228-6.66-1.733-5.912-1.634-7.872 5.078-1.012 3.466.122 8.354-4.587 10.553-6.597 3.082-11.731-.735-17.195-3.209-.04-.883-.082-1.766.19-3.163.798-2.918 1.284-5.322 1.77-7.727.06-.688.12-1.375.47-2.667.702-2.853 1.113-5.1 1.524-7.348.092-.382.184-.763.521-1.73.686-2.149 1.209-3.695 1.549-5.28.91-4.234 1.74-8.485 2.602-12.73.041-.989.083-1.977.48-3.415.628-1.2.902-1.949 1.177-2.699.168-2.637.335-5.275.988-8.31 4.323.241 8.14 1.148 12.005 1.458 7.515.603 8.746 2.351 5.93 9.233-1.58 3.864-.538 5.534 3.551 5.81 1.299.087 2.6.296 3.873.576 5.646 1.243 11.249 2.71 16.93 3.754 5.43.998 10.95 1.491 16.406 2.365 3.659.586 7.276 1.435 10.907 2.19 6.303 1.31 12.602 2.64 18.904 3.957 4.91 1.026 9.821 2.047 14.887 3.413a156 156 0 0 0 13.31 3.169c6.84 1.315 13.705 2.506 20.987 3.838 2.743.001 5.059-.087 7.375-.174.237.2.468.408.898 1.191 9.732 2.288 19.259 4.012 28.788 5.719 1.447.259 2.928.348 4.36.666 5.501 1.22 10.963 2.638 16.49 3.721 4.926.966 9.942 1.468 14.877 2.391a547 547 0 0 1 19.422 4.008c5.016 1.128 9.914 3.018 14.978 3.627 5.016.602 10.554 2.639 15.207-1.98.67-.318 1.11-.69 1.55-1.062.88-.823 1.76-1.646 3.201-2.692.496-1.403.43-2.582.253-4.159-2.037-4.43-3.154-9.214-6.056-12.338-5.686-6.12-12.444-11.233-18.62-16.913-10.825-9.953-21.55-20.014-32.308-30.041-10.76-10.029-21.555-20.02-32.237-30.131-4.835-4.576-9.404-9.433-14.15-14.105-3.077-3.03-5.834-6.686-9.472-8.782-7.967-4.59-16.219-8.81-24.71-12.325-6.046-2.503-12.623-4.89-19.046-5.133-44.63-1.686-89.357 2.357-133.96-2.278-12.599-1.31-25.31 1.459-38.01-1.895-7.45-1.968-15.503-.282-23.463-1.933-7.384-1.531-14.983-2.118-22.31-4.51-8.116-2.649-16.545-4.344-24.65-7.025-7.362-2.435-14.613-5.324-21.66-8.564-12.701-5.843-25.2-12.128-37.811-18.169-8.382-4.015-16.813-7.927-25.322-12.201-.785-1.04-1.343-1.998-2.175-2.45-9.713-5.28-19.387-10.642-29.238-15.653-7.587-3.86-11.886-10.766-12.842-18.166-1.378-10.661-1.1-21.705 1.845-32.356.901-3.258 1.95-6.487 2.636-9.79 1.173-5.653 2.113-11.354 3.15-17.034 0 0 .092-.15.229-.16.136-.01.347-.116.668-.212.681-1.512 1.042-2.929 1.506-4.755.06-1.523.02-2.638-.022-3.752 0 0 .289-.255.773-.395.992-2.462 1.383-4.816 2.03-7.098 1.972-6.957 5.13-13.778 5.825-20.85 1.104-11.241 7.307-19.458 14.172-27.15 8.419-9.43 17.656-18.043 28.584-24.881 9.214-5.766 17.427-13.11 26.277-19.487 9.098-6.555 18.444-12.765 27.653-19.167 3.343-2.324 6.59-4.788 9.904-7.152 6.61-4.715 13.28-9.35 19.833-14.142 1.863-1.362 3.2-4.15 5.14-4.557 4.703-.986 5.712-4.922 7.195-8.09 3.652-7.802-.2-13.421-8.722-13.378-7.348.038-14.66 1.353-21.871 1.802-32.885 2.046-65.828-1.033-98.863 2.183-32.602 3.174-65.522-.89-98.394 2.14-32.63 3.008-65.534-.927-98.409 2.109-32.456 2.997-65.177-.724-97.885 2.07-34.13 2.916-68.532-.57-102.888 2.147-30.963 2.449-62.165-.064-93.311 2.194-35.028 2.538-70.222-.825-105.423 1.986-27.147 2.167-54.607.377-81.926.536-2.188.013-4.367 1.497-6.979 2.268-3.069-.451-5.701-.937-8.355-1.22-.354-.037-.818.961-1.231 1.48-4.477.122-8.954.342-13.431.35-23.446.046-46.892.037-71.078-.167-1.633.541-2.525 1.297-3.417 2.053"/></svg>