<svg xmlns="http://www.w3.org/2000/svg" viewBox="0 0 1889 1088" xml:space="preserve"><path fill="#fff" d="M503.162 1026.976c-4.577-1.997-8.693-4.11-12.938-5.922-9.485-4.047-18.997-8.036-28.568-11.874a916 916 0 0 0-26.424-10.141c-5.831-2.132-11.767-3.993-17.71-5.797-2.91-.883-5.922-1.489-8.926-1.988-5.112-.85-10.234-1.922-15.387-2.18-11.911-.594-23.845-.722-35.768-1.108-8.258-.267-16.51-.741-24.768-.96-16.46-.438-32.928-.625-49.384-1.183-10.662-.362-21.332-.945-31.955-1.906-7.743-.701-15.416-2.18-23.119-3.315-1.286-.19-2.59-.665-3.848-.562-8.342.682-15.815-2.545-23.44-5.073-7.88-2.612-15.787-5.164-23.558-8.073-2.69-1.006-5.031-2.969-7.496-4.551-18.124-11.637-36.832-22.39-53.005-36.89-14.752-13.227-29.885-26.028-44.878-38.983-12.936-11.179-26.388-21.816-38.684-33.657-6.935-6.679-12.804-14.484-12.593-25.682.17-9.044 2.788-17.023 5.817-25.169 4.558-12.263 8.964-24.582 13.45-36.871 4.53-12.41 9.025-24.834 13.635-37.214 3.735-10.033 7.404-20.1 11.491-29.992 4.56-11.034 9.882-21.76 14.253-32.863 3.083-7.83 5.212-16.042 7.621-24.126 1.964-6.59 3.935-13.191 5.495-19.883 1.753-7.517 3.274-15.105 4.486-22.727 1.531-9.633 3.346-19.301 3.784-29.01.667-14.814.264-29.675.304-44.516.011-4.333.164-8.676-.07-12.998-.54-10.002-1.32-19.991-1.909-29.992a77 77 0 0 1-.025-8.958c.773-13.341-3.538-25.298-9.549-36.907-6.54-12.629-12.802-25.4-19.15-38.129-4.92-9.865-9.975-19.67-14.62-29.665-4.82-10.372-9.089-21-13.837-31.407-5.297-11.61-11.24-22.937-16.205-34.681-4.978-11.776-10.06-23.666-13.251-35.983-2.083-8.04-.483-16.667 4.984-24.109 7.566-10.3 14.867-20.757 24.473-29.344 7.32-6.544 14.783-12.954 21.75-19.86 5.896-5.845 11.05-12.429 16.753-18.48 6.475-6.872 13.313-13.403 19.78-20.283 10.404-11.068 20.587-22.344 30.958-33.443 4.308-4.61 8.897-8.956 13.293-13.484 6.262-6.45 12.292-13.136 18.748-19.384 4.96-4.8 10.149-9.465 15.74-13.49 6.346-4.568 13.01-8.839 19.983-12.35 6.961-3.507 14.402-6.122 21.772-8.735 5.412-1.92 11.019-3.326 16.597-4.73 3.753-.945 7.587-1.643 11.423-2.172 6.126-.845 12.298-1.35 18.424-2.196 6.418-.886 12.8-2.03 19.205-3.014 10.897-1.673 21.803-3.284 32.698-4.97 9.293-1.438 18.576-2.94 27.861-4.427.8-.128 1.578-.502 2.373-.525 24.17-.695 48.337-1.654 72.51-1.846 7.016-.056 14.055 2.065 21.074 3.245 10.856 1.826 21.838 3.15 32.509 5.747 7.375 1.795 14.286 5.457 21.455 8.15 18.341 6.894 33.667 19.109 50.57 28.54 10.66 5.947 21.016 12.54 32.043 17.704 13.715 6.42 27.859 11.99 42.047 17.313 11.166 4.189 22.552 7.94 34.08 10.974 10.24 2.696 20.803 4.18 31.239 6.119a2501 2501 0 0 0 31.419 5.658c5.281.912 10.607 1.567 15.91 2.361 9.943 1.49 19.878 3.038 29.828 4.482 6.276.911 12.58 1.635 18.86 2.52 8.498 1.196 16.985 2.467 25.478 3.707.65.095 1.298.25 1.952.28 14.658.679 29.314 1.462 43.978 1.965 7.824.268 15.703.537 23.488-.074a313 313 0 0 0 29.944-3.836c15.396-2.722 30.708-5.932 46.023-9.092 8.806-1.816 17.51-4.132 26.332-5.859 5.399-1.057 10.943-1.351 16.403-2.126 3.827-.544 7.65-1.19 11.426-2.018 9.901-2.171 19.727-4.713 29.674-6.641 9.05-1.754 18.247-2.75 27.329-4.363 5.2-.923 10.287-2.474 15.452-3.618 3.93-.871 7.893-1.612 11.86-2.298 13.709-2.37 27.448-4.57 41.132-7.075 8.99-1.645 17.904-3.702 27.521-5.714l5.435 22.411c-5.056 1.126-9.96 2.394-14.932 3.29-13.507 2.433-27.07 4.56-40.555 7.102-8.832 1.664-17.531 4.027-26.357 5.734-10.006 1.936-20.104 3.397-30.131 5.234-9.022 1.653-17.985 3.627-27.005 5.292-9.05 1.67-18.16 3.018-27.201 4.726-7.111 1.344-14.136 3.141-21.241 4.52-8.245 1.602-16.576 2.77-24.794 4.49-7.835 1.64-15.527 3.97-23.365 5.595-8.216 1.702-16.505 3.103-24.809 4.312-10.325 1.504-20.671 3.431-31.058 3.803-13.227.475-26.51-.252-39.755-.799-7.523-.31-15.043-1.1-22.52-2.025-11.765-1.455-23.484-3.28-35.24-4.806-6.617-.859-13.286-1.312-19.904-2.164-6.586-.849-13.145-1.92-19.7-2.984-5.732-.931-11.436-2.026-17.164-2.982-9.598-1.601-19.194-3.214-28.81-4.696-5.78-.89-11.625-1.37-17.386-2.351-5.85-.997-11.649-2.312-17.44-3.618-6.085-1.371-12.266-2.495-18.169-4.443-10.642-3.513-21.172-7.395-31.629-11.434-8.285-3.2-16.371-6.91-24.58-10.31-13.744-5.693-27.174-11.933-39.82-19.895-14.909-9.386-29.941-18.62-45.331-27.181-8.559-4.761-17.85-8.288-27.023-11.824-3.842-1.481-8.215-1.652-12.372-2.233-12.2-1.705-24.375-3.727-36.632-4.804-6.819-.599-13.78.562-20.68.704-7.66.156-15.326.113-22.988.053-15.13-.12-30.123.841-45.018 3.871-7.008 1.425-14.315 1.313-21.447 2.21-5.93.746-11.801 1.96-17.701 2.947-7.979 1.336-15.989 2.504-23.934 4.014-12.536 2.383-25.059 4.85-37.529 7.55-9.12 1.976-18.27 4.32-25.902 9.957-9.66 7.137-19.384 14.298-28.265 22.35-10.64 9.646-20.528 20.137-30.53 30.468-5.983 6.18-11.524 12.786-17.332 19.14-4.624 5.057-9.28 10.09-14.046 15.013-13.088 13.524-26.157 27.068-39.403 40.436-6.557 6.618-13.828 12.55-20.15 19.373-6.64 7.166-12.821 14.815-18.57 22.714-1.674 2.301-2.382 6.593-1.47 9.268 4.02 11.773 8.659 23.344 13.338 34.88 3.926 9.681 8.02 19.304 12.4 28.787 5.026 10.886 10.438 21.595 15.703 32.371 9.742 19.939 19.48 39.879 29.26 59.798 3.447 7.019 7.552 13.77 10.358 21.03 2.299 5.944 4.017 12.404 4.42 18.736 1.157 18.146 1.447 36.346 2.207 54.52.55 13.184 1.98 26.37 1.757 39.534-.171 10.186-2.324 20.335-3.524 30.509-.251 2.133-.3 4.306-.243 6.455.23 8.739-2.006 16.964-4.545 25.24-2.012 6.56-2.905 13.456-4.501 20.153-1.338 5.615-2.607 11.29-4.55 16.708a1157 1157 0 0 1-14.45 38.22c-5.361 13.433-11.369 26.611-16.594 40.094-5.44 14.032-10.2 28.326-15.412 42.448-3.86 10.46-8.326 20.71-11.852 31.278-2.566 7.69-4.615 15.67-5.66 23.681-.331 2.536 2.82 6.148 5.232 8.313 11.347 10.185 23.03 19.993 34.515 30.024 7.312 6.386 14.372 13.065 21.755 19.366 11.728 10.008 23.312 20.23 35.554 29.579 11.665 8.908 23.975 16.997 36.236 25.09 6.377 4.208 13.206 7.58 20.941 9.085 4.478.87 8.559 3.675 13.026 4.73 7.372 1.74 14.895 2.873 22.386 4.065 7.859 1.25 15.755 2.267 23.634 3.39 1.448.205 2.89.58 4.341.616 15.588.38 31.177.746 46.767 1.041 19.423.367 38.853.498 58.27 1.053 11.67.334 23.514.207 34.933 2.236 12.876 2.288 25.38 6.705 38.013 10.31 7.058 2.014 14.163 3.952 21.035 6.495 5.495 2.034 10.578 5.155 16.007 7.398a2416 2416 0 0 0 41.216 16.576c10.477 4.104 20.918 8.383 31.632 11.768 9.428 2.98 19.317 4.474 28.816 7.258 13.72 4.02 27.7 5.263 41.892 6.107 11.76.699 23.398 3.273 35.132 4.654 8.62 1.014 17.329 1.255 25.962 2.177 10.373 1.108 20.695 2.689 31.063 3.84 5.556.616 11.162.784 16.747 1.115 17.094 1.013 34.184 2.07 51.282 2.994 19.755 1.067 39.51 2.206 59.279 2.913 7.569.27 15.254-.01 22.748-1.039 10.358-1.421 20.58-3.821 30.871-5.74 9.376-1.747 18.781-3.341 28.15-5.13 9.492-1.813 18.933-3.901 28.438-5.638 5.58-1.019 11.243-1.565 16.863-2.365 4.483-.637 8.983-1.196 13.429-2.035 11.744-2.215 23.416-4.848 35.205-6.777 10.743-1.758 21.62-2.681 32.403-4.223 6.7-.958 13.316-2.482 20-3.566a337 337 0 0 1 17.37-2.373 2839 2839 0 0 1 38.54-3.951c5.407-.516 10.84-.775 16.267-1.038 14.677-.71 29.357-1.372 44.037-2.031 15.156-.68 30.404-.509 45.451-2.167 33.828-3.729 67.7-.98 101.54-1.691 8.99-.19 18.003 1.351 27.021 1.792 6.152.301 12.368-.362 18.487.179 10.219.903 20.382 2.43 30.57 3.681 3.406.418 6.816.807 10.226 1.196 11.816 1.345 23.634 2.666 35.447 4.032 11.326 1.31 22.639 2.745 33.974 3.976 13.142 1.427 26.33 2.46 39.443 4.101 10.134 1.269 20.163 3.345 30.276 4.807 6.466.936 13.006 1.343 19.5 2.102 10.839 1.265 21.666 2.624 32.5 3.93.657.08 1.329.04 1.994.056 27.506.668 55.01 1.67 82.52 1.867 14.507.104 29.054-.825 43.53-1.965 15.453-1.218 30.856-3.117 46.254-4.944 9.19-1.09 18.35-2.49 27.467-4.081 1.295-.226 3.267-2.352 3.23-3.547-.427-14.02-1.594-28.025-1.735-42.042-.156-15.583.49-31.175.9-46.76.181-6.926.468-13.858 1.014-20.763 1.214-15.356 2.695-30.69 3.925-46.045.813-10.156 1.242-20.343 2.104-30.494.634-7.47 1.573-14.921 2.589-22.352 1.338-9.786 2.639-19.59 4.42-29.3 1.45-7.893 3.575-15.662 5.418-23.483.81-3.442 1.705-6.864 2.49-10.312 3.006-13.188 6.018-26.375 8.957-39.578 2.097-9.422 3.361-19.1 6.284-28.251 4.17-13.056 5.853-26.284 5.804-39.861-.027-7.376-2.754-14.04-7.166-19.507-13.597-16.843-27.798-33.198-41.587-49.889-11.422-13.825-22.722-27.755-33.826-41.835-7.065-8.958-14.456-17.815-20.208-27.594-3.786-6.436-5.905-14.287-7.02-21.765-2.071-13.898-2.954-27.978-4.133-42-.362-4.303.24-8.69-.146-12.989-1.152-12.865-2.646-25.699-3.856-38.559-.54-5.739-.481-11.538-1.118-17.263-1.041-9.366-2.422-18.694-3.673-28.037-.75-5.599-1.45-11.206-2.313-16.787-.587-3.788-.934-7.713-2.228-11.272-4.612-12.694-9.602-25.25-14.413-37.873-3.476-9.121-6.8-18.301-10.364-27.387-4.805-12.248-9.893-24.385-14.644-36.653-5.247-13.55-10.09-27.258-15.408-40.78-5.088-12.937-10.66-25.683-15.838-38.585a6640 6640 0 0 1-22.893-57.85c-2.934-7.512-5.383-15.213-8.328-22.72-2.293-5.845-13.656-12.161-20.337-11.807-2.991.159-6.035-.278-8.99.082-9.001 1.099-17.972 2.44-26.95 3.712-9.922 1.406-19.87 2.662-29.75 4.322-6.974 1.172-13.826 3.053-20.782 4.354-8.917 1.667-17.902 2.969-26.823 4.616-8.25 1.523-16.45 3.324-24.681 4.949-10.292 2.031-20.612 3.925-30.888 6.032-8.693 1.783-17.315 3.919-26.02 5.64-5.24 1.036-10.607 1.421-15.864 2.386-4.886.897-9.702 2.176-14.55 3.283-3.885.888-7.747 1.904-11.662 2.628-13.04 2.41-26.102 4.708-39.153 7.063-7.304 1.318-14.638 2.501-21.898 4.035-11.772 2.487-23.451 5.43-35.25 7.78-13.171 2.623-26.45 4.706-39.647 7.213-5.816 1.104-11.543 2.673-17.518 4.08l3.943 18.563c-5.814 1.397-11.701 2.889-17.641 4.127-.632.132-2.123-1.102-2.29-1.896-3.09-14.748-6.046-29.524-9.019-44.297-.99-4.921-1.947-9.849-3.057-15.473l18.62-4.353 4.786 20.458c8.961-2.09 17.65-4.293 26.42-6.097 5.079-1.044 10.299-1.387 15.439-2.157a213 213 0 0 0 11.423-2.014c11.043-2.278 22.048-4.747 33.11-6.93 10.909-2.15 21.906-3.857 32.795-6.098 11.805-2.43 23.483-5.482 35.302-7.836 13.163-2.622 26.448-4.628 39.63-7.161 8.68-1.668 17.236-3.967 25.908-5.676 12.99-2.561 26.053-4.758 39.05-7.291 9.016-1.758 17.945-3.963 26.966-5.691 5.404-1.036 10.915-1.5 16.367-2.294 4.15-.605 8.3-1.233 12.42-2.01 13.964-2.636 27.893-5.458 41.878-7.974 7.018-1.262 14.134-1.975 21.194-3.02 3.84-.569 7.63-1.622 11.483-1.921 11.67-.905 21.597 3.733 31.441 9.49 10.268 6.006 14.296 16.02 18.481 25.95 8.229 19.522 16.104 39.195 23.964 58.87 4.575 11.455 8.792 23.053 13.252 34.554 5.875 15.15 11.81 30.278 17.757 45.4 4.721 12.005 9.555 23.966 14.234 35.988 3.444 8.85 6.524 17.844 10.114 26.633 5.382 13.172 11.612 26.025 16.431 39.392 3.13 8.68 4.516 18.008 6.45 27.096 1.244 5.852 1.994 11.808 3.092 17.695 1.241 6.655 3.23 13.231 3.814 19.936 1.117 12.792 1.21 25.672 2.212 38.478.98 12.521 2.598 24.992 3.852 37.494.231 2.31-.06 4.67.094 6.994.756 11.301 1.762 22.59 2.335 33.899.719 14.164 8.836 24.641 17.118 34.97 10.928 13.63 22.117 27.053 33.315 40.463 7.903 9.463 16.207 18.597 23.973 28.169 9.579 11.808 19.478 23.456 27.9 36.067 5.338 7.991 9.356 17.167 8.416 27.643-1.041 11.62-.897 23.362-2.31 34.924-.767 6.261-3.927 12.196-5.6 18.387-1.955 7.234-3.472 14.585-5.167 21.889-1.627 7.013-3.276 14.022-4.849 21.047-2.743 12.254-5.443 24.518-8.146 36.78-1.9 8.618-3.942 17.21-5.6 25.874-1.098 5.74-1.763 11.576-2.388 17.395a3160 3160 0 0 0-3.972 39.456c-.496 5.242-.727 10.51-1.035 15.77q-1.024 17.511-2.007 35.027c-1.015 18.097-2.534 36.185-2.848 54.294-.225 12.995 1.346 26.011 1.784 39.03.308 9.148.639 18.363-.104 27.46-.754 9.249-10.786 18.033-20.606 19.302-13.572 1.754-27.255 2.629-40.86 4.153-16.337 1.83-32.64 3.955-48.961 5.928-.987.119-1.999.015-2.998.035-17.087.329-34.175.604-51.26 1.02-7.092.172-14.216 1.278-21.258.846-14.38-.883-28.714-2.547-43.071-3.836-8.159-.732-16.35-1.16-24.485-2.084-9.337-1.06-18.618-2.606-27.945-3.77-6.965-.87-13.97-1.406-20.944-2.202-10.677-1.218-21.334-2.612-32.016-3.772-5.36-.581-10.773-.662-16.134-1.23-11.668-1.237-23.346-2.434-34.968-4.032-12.342-1.696-24.624-3.836-36.932-5.782-.325-.052-.648-.127-.975-.149-10.153-.677-20.455-.492-30.427-2.216-16.491-2.85-32.999-1.318-49.49-1.805-24.344-.719-48.688-1.442-73.036-1.897-4.333-.08-8.673 1.352-13.04 1.687-4.294.33-8.627.18-12.943.192-9 .025-18.007-.22-26.997.079-13.841.458-27.683 1.09-41.503 1.994-17.356 1.133-34.709 2.41-52.025 4.03-9.034.845-17.98 2.62-26.98 3.866-7.907 1.094-15.853 1.916-23.749 3.081-7.194 1.062-14.342 2.437-21.515 3.648-4.47.755-8.935 1.566-13.427 2.164-6.132.816-12.303 1.342-18.429 2.198-5.43.759-10.825 1.77-16.227 2.718-9.868 1.732-19.728 3.509-29.595 5.247-6.698 1.18-13.406 2.297-20.101 3.493-10.155 1.814-20.314 3.609-30.45 5.529-8.713 1.65-17.365 3.646-26.102 5.153-8.647 1.49-17.35 2.684-26.058 3.773a266 266 0 0 1-18.582 1.651c-5.096.276-10.218.198-15.325.091-5.778-.12-11.566-.266-17.325-.722-15.527-1.227-31.035-2.689-46.561-3.923-6.57-.523-13.172-.641-19.751-1.063-14.918-.957-29.845-1.809-44.74-3.042-13.014-1.077-26.009-2.452-38.976-3.996-15.18-1.807-30.311-4.038-45.487-5.896-9.73-1.192-19.545-1.751-29.243-3.148-6.495-.936-12.856-2.822-19.268-4.323-5.117-1.198-10.309-2.174-15.308-3.753-7.889-2.49-15.66-5.362-23.452-8.152-7.933-2.841-15.832-5.778-24.148-8.694"/></svg>