<svg version="1.1" id="Layer_1" xmlns="http://www.w3.org/2000/svg" xmlns:xlink="http://www.w3.org/1999/xlink" x="0px" y="0px"
	 width="100%" viewBox="0 0 1887 972" enable-background="new 0 0 1887 972" xml:space="preserve">
<path fill="#FFFFFF" opacity="1.000000" stroke="none" 
	d="
M539.821899,874.986938 
	C534.557495,874.296631 529.330933,874.568604 524.985718,872.742981 
	C512.985413,867.700867 503.901215,873.291199 494.847687,879.686523 
	C483.982239,887.361694 472.988678,894.880920 462.448669,902.985291 
	C447.857697,914.204773 430.638245,920.370850 414.583771,928.768127 
	C404.668915,933.954102 394.767059,939.226685 384.540863,943.738464 
	C374.244232,948.281372 363.722595,952.478882 352.980682,955.794739 
	C344.708832,958.348145 335.980194,960.362061 327.386230,960.663147 
	C319.052338,960.955078 310.598114,958.957947 302.257874,957.592773 
	C294.463501,956.316895 286.810699,954.023682 278.986786,953.113953 
	C264.169647,951.391174 249.275040,950.333496 234.410934,949.018372 
	C233.418518,948.930603 232.408188,949.058044 231.412689,948.990173 
	C212.054398,947.670471 192.698456,946.315918 173.337967,945.029480 
	C170.682983,944.853088 167.996552,945.150757 165.341507,944.974915 
	C145.824326,943.682190 126.230797,943.002808 106.831848,940.696045 
	C97.417709,939.576721 88.373482,935.361755 79.156532,932.565552 
	C63.596359,927.845093 52.301365,917.382141 43.976776,904.155273 
	C36.278885,891.924133 34.808216,878.388062 39.309734,864.076294 
	C43.637615,850.316711 48.792183,836.956604 55.021690,823.997253 
	C59.755081,814.150330 64.497162,804.281372 69.831223,794.755859 
	C76.569183,782.723450 83.230949,770.551270 91.140152,759.292664 
	C106.279884,737.741333 122.150177,716.697144 137.964310,695.627991 
	C148.225677,681.956848 158.853210,668.557861 169.445343,655.138489 
	C182.512497,638.583374 195.793076,622.196594 208.824829,605.613953 
	C216.041351,596.431091 222.938004,586.996887 230.073837,577.550171 
	C225.140213,573.805481 220.378296,570.191040 215.093948,566.180115 
	C218.826126,561.234680 222.473587,556.401489 226.432022,551.156189 
	C243.398087,563.324890 260.099335,575.303589 277.153015,587.535095 
	C272.842529,593.241333 268.968811,598.369324 264.910278,603.742004 
	C259.728546,599.896362 254.850769,596.276306 249.927567,592.622559 
	C240.447113,604.498535 231.135727,616.018677 221.983627,627.663940 
	C210.539902,642.225159 199.205505,656.872620 187.863541,671.513489 
	C175.181519,687.884155 162.584564,704.320923 149.871033,720.667114 
	C142.670227,729.925415 135.030029,738.854187 128.094788,748.303589 
	C120.091003,759.208923 111.847672,770.067810 105.154434,781.773682 
	C96.286476,797.282959 85.902901,811.987671 79.701164,829.024841 
	C75.731651,839.929932 69.999352,850.192444 66.014122,861.092834 
	C63.275864,868.582520 60.453381,876.237305 62.617863,884.845703 
	C64.861496,893.768982 70.623711,899.479126 77.618134,904.375977 
	C86.393387,910.519531 96.369141,913.735779 106.886116,915.194702 
	C117.580139,916.678101 128.284286,918.279297 139.039749,919.085815 
	C156.841415,920.420776 174.689255,921.134033 192.514771,922.159241 
	C203.226929,922.775330 213.947617,923.316589 224.639252,924.197449 
	C238.232742,925.317261 251.793274,926.833069 265.382874,928.006348 
	C272.134460,928.589355 278.965057,928.422119 285.676514,929.261292 
	C292.928650,930.168274 300.401154,930.963318 307.211304,933.393677 
	C319.491486,937.776184 331.504333,936.577026 343.419556,933.236511 
	C351.757080,930.899109 359.956207,927.721619 367.798981,924.030823 
	C391.390167,912.928650 415.374359,902.452454 438.048615,889.678955 
	C455.331482,879.942627 470.668365,866.802795 487.244690,855.736938 
	C494.020935,851.213196 501.031738,847.219360 510.072510,846.842224 
	C525.348022,846.205078 539.541870,851.112488 554.260193,853.194397 
	C567.701782,855.095764 581.179016,857.103577 594.709839,857.930298 
	C614.224304,859.122681 633.797668,859.567810 653.352600,859.826904 
	C680.736023,860.189819 708.127930,859.899170 735.512085,860.229187 
	C777.920044,860.740173 820.325073,861.508545 862.730103,862.237122 
	C873.673584,862.425171 884.610596,862.996765 895.554138,863.174683 
	C920.494568,863.580261 945.438049,863.801514 970.378723,864.194275 
	C986.321838,864.445374 1002.262390,864.860474 1018.203735,865.217773 
	C1031.643921,865.518982 1045.082275,865.917236 1058.523560,866.140320 
	C1081.802368,866.526733 1105.083130,866.784912 1128.362427,867.145691 
	C1148.965454,867.465088 1169.567017,867.866943 1190.169800,868.203064 
	C1211.118286,868.544861 1232.068237,868.808777 1253.016113,869.186584 
	C1267.789185,869.453064 1282.558350,869.940918 1297.331787,870.173645 
	C1322.775757,870.574585 1348.222778,870.791443 1373.666748,871.198730 
	C1410.886353,871.794617 1448.105591,872.422546 1485.322388,873.166687 
	C1511.421997,873.688477 1537.522095,875.051392 1563.612671,874.846558 
	C1580.699341,874.712463 1597.825195,872.936157 1614.829346,870.987000 
	C1628.767456,869.389221 1642.770874,867.311768 1656.342041,863.860779 
	C1669.555664,860.500732 1682.298462,855.241150 1695.170044,850.599609 
	C1705.382568,846.916931 1715.600586,843.198792 1725.591064,838.965332 
	C1736.448242,834.364685 1747.260620,829.559753 1757.689819,824.077576 
	C1766.497070,819.448120 1774.782104,813.806641 1783.180054,808.428467 
	C1785.531128,806.922791 1787.623413,804.915710 1789.563110,802.880188 
	C1801.937012,789.895264 1815.443359,777.820557 1824.966064,762.435181 
	C1830.901367,752.846191 1835.609741,742.506226 1841.121948,732.644897 
	C1847.171509,721.822449 1847.588623,709.881287 1848.014160,698.060852 
	C1848.347046,688.821838 1848.410034,679.382935 1846.900146,670.314697 
	C1844.902222,658.315491 1841.166626,646.539490 1832.103149,637.630127 
	C1828.410645,634.000488 1824.166992,630.649963 1819.612915,628.227234 
	C1799.776978,617.674500 1779.847168,607.284119 1759.738647,597.261963 
	C1734.840454,584.852600 1709.650513,573.028809 1684.735596,560.652588 
	C1656.780884,546.766602 1629.029907,532.471069 1601.116333,518.501526 
	C1586.375488,511.124451 1571.390747,504.233459 1556.672363,496.812988 
	C1539.201050,488.004517 1521.910156,478.838593 1504.517700,469.872894 
	C1490.234375,462.509827 1475.901611,455.242706 1461.618408,447.879303 
	C1442.902588,438.230804 1424.280029,428.398865 1405.494751,418.888123 
	C1387.243286,409.647705 1369.383179,399.288696 1350.364380,391.993988 
	C1324.781006,382.181396 1300.827148,387.976715 1279.766357,405.481384 
	C1272.020874,411.919006 1263.989502,418.017883 1259.039673,427.186707 
	C1254.027466,436.471069 1249.945679,445.983734 1247.712524,456.411713 
	C1244.905151,469.521606 1244.137817,482.710968 1243.721558,496.042389 
	C1243.070801,516.887024 1241.818359,537.713135 1240.793701,558.545776 
	C1240.192261,570.768616 1239.484619,582.986328 1238.921509,595.210876 
	C1238.167114,611.593567 1237.561401,627.983093 1236.786011,644.364685 
	C1236.254883,655.585022 1235.314575,666.789551 1234.960693,678.013855 
	C1234.258667,700.265564 1219.076660,721.792236 1199.311279,728.101013 
	C1189.417358,731.258911 1179.432007,733.309448 1168.889404,733.045044 
	C1151.566528,732.610474 1134.223145,733.053955 1116.895264,732.742920 
	C1089.845093,732.257385 1062.799927,731.476440 1035.754028,730.771912 
	C1012.038757,730.154175 988.325195,729.471863 964.611023,728.813599 
	C940.225037,728.136719 915.831543,727.645752 891.456848,726.682068 
	C881.448486,726.286438 871.378418,725.433960 861.540100,723.659851 
	C857.011047,722.843140 852.889160,719.449097 848.725342,716.982788 
	C832.848511,707.578857 825.761108,693.031128 824.009155,675.149658 
	C822.355347,658.270386 828.221924,644.529663 839.399597,632.103577 
	C851.931213,618.172302 863.608521,603.473389 875.682312,589.129333 
	C884.365540,578.813416 893.127319,568.563538 901.780396,558.222534 
	C906.629761,552.427307 911.911499,546.874084 915.916565,540.528931 
	C919.288818,535.186340 924.624817,532.187622 928.481079,527.465332 
	C942.635437,510.132202 957.227051,493.155029 971.720154,476.100037 
	C981.862488,464.164825 992.168823,452.368866 1002.300964,440.425110 
	C1016.621826,423.543610 1030.797363,406.538666 1045.134521,389.671112 
	C1055.645508,377.305084 1066.385132,365.133514 1076.898804,352.769775 
	C1090.700684,336.539093 1104.362793,320.189636 1118.119019,303.919952 
	C1128.167114,292.035858 1138.296631,280.220490 1148.340332,268.332733 
	C1156.942017,258.151703 1165.804077,248.165863 1173.931519,237.616455 
	C1180.382935,229.242630 1181.393921,219.409332 1177.001953,209.809036 
	C1175.411377,206.332153 1171.885742,203.094482 1168.440918,201.228302 
	C1156.198730,194.596161 1143.634399,188.554642 1131.146484,182.381729 
	C1121.431030,177.579300 1111.649658,172.910019 1101.893921,168.189133 
	C1085.122070,160.072983 1068.326172,152.006027 1051.579102,143.838928 
	C1030.557983,133.587479 1009.601379,123.203781 988.569580,112.974686 
	C969.824341,103.857681 950.986511,94.931137 932.241333,85.813927 
	C914.663330,77.264366 897.192322,68.494423 879.601562,59.971615 
	C864.264465,52.540730 849.047241,44.788254 833.334717,38.239143 
	C825.973206,35.170788 817.631287,34.174068 809.621033,33.020306 
	C801.350952,31.829117 792.951721,31.462236 784.595642,30.954924 
	C765.003296,29.765440 746.022400,32.930496 727.765320,39.947186 
	C709.289551,47.047894 689.996460,52.641186 673.297241,63.456211 
	C658.865784,72.802597 647.598145,85.945282 636.987610,99.468857 
	C626.012329,113.457329 614.957275,127.383392 604.015015,141.397614 
	C594.233887,153.924850 584.627808,166.588989 574.819153,179.094467 
	C563.022766,194.134323 551.052063,209.037399 539.235840,224.061874 
	C530.013123,235.788696 520.987122,247.670532 511.738037,259.376251 
	C497.197174,277.779266 482.436646,296.009308 467.966431,314.467285 
	C454.691162,331.400970 441.777618,348.618103 428.517700,365.564026 
	C416.577026,380.823944 404.324341,395.839294 392.318512,411.048737 
	C382.421173,423.587067 372.722229,436.281799 362.865021,448.852020 
	C352.152527,462.512970 341.317200,476.077576 330.611694,489.743958 
	C319.253387,504.243774 308.023010,518.843811 296.659515,533.339539 
	C291.574860,539.825806 286.301819,546.164429 280.917694,552.812744 
	C274.391907,548.280701 267.846893,543.735291 260.896973,538.908691 
	C266.906250,531.118286 272.741943,523.428711 278.711426,515.844482 
	C286.708099,505.684753 294.830719,495.624237 302.859467,485.489563 
	C319.062408,465.036804 335.218964,444.547272 351.431885,424.102417 
	C364.575745,407.527710 377.884399,391.082367 390.910919,374.416260 
	C400.252289,362.465057 409.112823,350.138458 418.433380,338.170532 
	C429.892181,323.456940 441.664764,308.988159 453.194153,294.328979 
	C465.019958,279.293030 476.656769,264.108337 488.493591,249.081116 
	C494.387726,241.598267 500.693390,234.438232 506.546295,226.924515 
	C514.885803,216.218582 522.877747,205.242035 531.208618,194.529266 
	C539.217529,184.230576 547.551819,174.185364 555.595337,163.913071 
	C569.610596,146.014435 583.099365,127.685471 597.577698,110.172546 
	C612.073975,92.637962 624.615234,73.444244 641.542480,57.938057 
	C652.162109,48.209988 663.524414,39.388794 676.819275,33.890472 
	C694.228638,26.690517 712.105774,20.626356 729.743347,13.971973 
	C744.765564,8.304285 760.445312,7.055442 776.265076,7.077586 
	C787.852600,7.093806 799.490112,7.126380 811.008484,8.195701 
	C818.622253,8.902530 826.067627,11.445037 833.582825,13.189480 
	C852.294495,17.532845 868.539856,27.709234 885.760010,35.526470 
	C901.388672,42.621235 916.519897,50.807968 931.910156,58.433037 
	C946.395081,65.609528 960.925171,72.694931 975.447754,79.795204 
	C989.645447,86.736626 1003.837036,93.691101 1018.071350,100.556839 
	C1031.630371,107.096870 1045.296997,113.415543 1058.815063,120.038307 
	C1075.926514,128.421570 1092.865356,137.158783 1110.012085,145.467834 
	C1122.600586,151.567993 1135.533813,156.962173 1148.074219,163.155350 
	C1160.121094,169.104828 1172.052612,175.348297 1183.647949,182.124619 
	C1188.907959,185.198578 1194.888184,188.970917 1197.632568,194.010590 
	C1203.080566,204.015030 1204.869141,215.284760 1203.606201,226.988281 
	C1201.784668,243.867844 1191.495850,255.689514 1180.967773,267.638824 
	C1172.868774,276.831146 1165.365234,286.545807 1157.492432,295.940613 
	C1152.958862,301.350494 1148.178345,306.552551 1143.577148,311.906708 
	C1131.468262,325.997223 1119.390991,340.114838 1107.312012,354.231079 
	C1097.683105,365.484009 1088.005371,376.696014 1078.466431,388.024841 
	C1065.194092,403.787628 1052.097046,419.698273 1038.800049,435.440094 
	C1028.348633,447.812958 1017.646912,459.974030 1007.167725,472.323730 
	C994.814331,486.882324 982.629822,501.584320 970.278625,516.144836 
	C961.853760,526.076660 953.193237,535.808533 944.774475,545.745483 
	C934.582275,557.775757 924.583069,569.969421 914.407837,582.014221 
	C906.351135,591.551270 898.109375,600.931885 890.031128,610.450989 
	C877.391663,625.344849 864.524963,640.060791 852.341064,655.320374 
	C845.881592,663.410339 847.143127,673.108276 850.139526,682.302307 
	C853.018433,691.136047 859.903931,696.363953 868.073853,700.004883 
	C869.641357,700.703430 871.517517,700.938538 873.260925,700.979492 
	C904.115906,701.704651 934.974182,702.295593 965.827942,703.066467 
	C987.516052,703.608398 1009.199280,704.353027 1030.883301,705.050659 
	C1050.568237,705.683899 1070.249146,706.449829 1089.935791,707.018494 
	C1105.524536,707.468811 1121.125000,707.551941 1136.709717,708.098511 
	C1146.735229,708.450134 1156.735840,709.678528 1166.759277,709.859863 
	C1171.909058,709.953003 1177.232422,709.154358 1182.214478,707.795288 
	C1189.874268,705.705750 1198.017456,703.560486 1202.985352,696.879028 
	C1206.213623,692.537292 1209.216309,687.062988 1209.721924,681.844421 
	C1211.185059,666.741638 1211.355835,651.512634 1211.994141,636.331421 
	C1212.695435,619.656006 1213.315674,602.977112 1214.040649,586.302734 
	C1214.650024,572.288269 1215.292603,558.274719 1216.041382,544.267151 
	C1216.973267,526.828857 1217.982300,509.394318 1219.051758,491.963928 
	C1219.595215,483.107117 1219.640137,474.137665 1221.185669,465.445892 
	C1222.973755,455.390167 1226.665527,445.680450 1228.601685,435.641327 
	C1230.453369,426.041321 1235.730103,418.155182 1240.656494,410.344360 
	C1244.960083,403.520599 1251.301758,397.801910 1257.417603,392.352081 
	C1263.557983,386.880310 1270.209717,381.818542 1277.216919,377.521820 
	C1287.610840,371.148285 1298.745361,367.019104 1311.027954,364.497223 
	C1322.996216,362.039886 1334.202759,363.834320 1345.555298,365.261871 
	C1356.539062,366.643036 1366.623291,371.514618 1376.428101,376.834320 
	C1391.576782,385.053467 1406.975342,392.812927 1422.292847,400.719238 
	C1434.812622,407.181549 1447.341797,413.627106 1459.916260,419.982117 
	C1472.849731,426.518616 1485.919556,432.788300 1498.793457,439.438507 
	C1522.015991,451.434326 1545.053223,463.790985 1568.328003,475.683319 
	C1585.978882,484.702026 1603.870728,493.249573 1621.669434,501.977966 
	C1642.972534,512.424805 1664.327515,522.766968 1685.592041,533.291626 
	C1706.113159,543.448120 1726.540039,553.794983 1747.022949,564.028809 
	C1766.450439,573.735291 1785.981201,583.239990 1805.303955,593.150269 
	C1816.843140,599.068542 1828.146240,605.462708 1839.411011,611.895874 
	C1847.197388,616.342529 1852.233643,623.498535 1857.352051,630.678589 
	C1864.786987,641.108398 1866.928955,653.186340 1870.461670,665.092346 
	C1874.630737,679.142944 1873.170898,693.070740 1872.610840,706.863159 
	C1871.796875,726.905212 1863.627075,745.122498 1853.234009,762.141113 
	C1847.429565,771.645874 1841.207275,780.905701 1834.899170,790.087585 
	C1832.403564,793.720215 1829.291260,796.962769 1826.238403,800.172363 
	C1818.197266,808.626587 1810.228760,817.167114 1801.823120,825.248657 
	C1798.550415,828.395081 1794.259521,830.530334 1790.299927,832.905334 
	C1780.808716,838.598083 1771.432861,844.530762 1761.638550,849.655457 
	C1754.007202,853.648438 1745.851440,856.658142 1737.864502,859.948914 
	C1724.132202,865.606812 1710.430176,871.353333 1696.558105,876.650940 
	C1688.347656,879.786377 1679.905762,882.380737 1671.440430,884.766113 
	C1661.994141,887.428040 1652.495239,890.090576 1642.851440,891.813477 
	C1631.989624,893.754028 1620.882690,894.292969 1609.985718,896.073303 
	C1590.476685,899.260559 1570.812866,898.793640 1551.205811,898.853821 
	C1519.781738,898.950317 1488.353882,898.407349 1456.930176,897.965698 
	C1415.911621,897.389282 1374.893433,896.736694 1333.879517,895.907715 
	C1325.026855,895.728760 1316.197998,894.564758 1307.347046,894.041626 
	C1303.204346,893.796814 1299.035278,893.997314 1294.878174,893.996399 
	C1270.712402,893.991028 1246.543945,894.191467 1222.381836,893.891541 
	C1210.699707,893.746460 1199.031250,892.617554 1187.351929,892.028809 
	C1183.869507,891.853271 1180.370728,891.998779 1176.879517,891.997437 
	C1154.213623,891.988831 1131.545044,892.203979 1108.882568,891.922546 
	C1069.030151,891.427673 1029.181274,890.651733 989.331665,889.945618 
	C975.256470,889.696228 961.184143,889.295227 947.110046,888.983887 
	C931.185791,888.631592 915.261719,888.256165 899.336182,887.974487 
	C878.609070,887.607910 857.880249,887.340210 837.152649,886.999023 
	C817.227295,886.671082 797.303162,886.273132 777.377563,885.961853 
	C753.951721,885.595947 730.524048,885.340515 707.098877,884.938599 
	C694.171326,884.716736 681.249023,884.191772 668.321411,883.981689 
	C644.063293,883.587585 619.791199,883.670715 595.549316,882.842529 
	C585.036987,882.483337 574.566772,880.485779 564.111572,878.993469 
	C556.133789,877.854675 548.209839,876.339661 539.821899,874.986938 
z"/>
</svg>