<svg xmlns="http://www.w3.org/2000/svg" viewBox="0 0 1972 991" xml:space="preserve"><path fill="#fff" d="M1575.008 894.72c3.212-10.896 2.356-21.507 1.146-32.16-.576-5.068-.822-10.175-1.108-15.27-1.017-18.12-2.295-36.23-2.89-54.363-.61-18.612 15.272-30.132 31.816-26.008 16.312 4.066 32.844 7.244 49.162 11.286 12.97 3.213 25.732 7.255 38.643 10.718 11.347 3.044 22.77 5.808 34.165 8.673 15.304 3.848 30.578 7.826 45.937 11.444 7.24 1.706 14.62 3.612 21.982 3.823 13.282.381 24.202-5.703 32.993-15.39 6.932-7.639 11.466-16.749 15.234-26.32 4.116-10.454 8.713-20.717 12.975-31.115 5.406-13.188 10.483-26.515 16.084-39.618 4.78-11.18 9.669-22.354 15.294-33.12 6.426-12.3 13.389-24.354 20.749-36.12 5.227-8.355 11.363-16.161 17.367-24.002 2.56-3.342 1.825-5.068-1.593-6.866-4.963-2.61-9.739-5.574-14.64-8.304a6209 6209 0 0 0-32.72-18.103c-9.589-5.265-19.22-10.451-28.824-15.688-8.768-4.78-17.495-9.635-26.293-14.358-11.873-6.374-23.844-12.565-35.684-18.997-12.913-7.015-25.683-14.291-38.59-21.316-13.42-7.304-26.976-14.357-40.38-21.686-8.2-4.485-16.055-9.627-24.384-13.844-8.116-4.11-16.557-7.622-25.004-11.026-9.96-4.014-19.982-7.915-30.16-11.324-7.786-2.608-15.745-5.077-23.826-6.348-11.154-1.755-22.515-3.362-33.751-3.147-15.073.29-30.106 2.44-45.166 3.679-9.68.796-19.38 1.338-29.064 2.083-16.703 1.285-33.396 2.709-50.103 3.933-7.25.53-14.547.477-21.786 1.1-13.23 1.138-26.435 2.573-39.648 3.903-6.678.672-13.337 1.648-20.03 2.012-8.451.46-16.037 3.41-23.394 7.19-14.39 7.396-24.935 19.277-35.982 30.656-16.955 17.463-33.244 35.808-54.457 48.4-10.534 6.252-21.541 11.588-34.163 12.947-13.763 1.483-27.409 4.022-41.153 5.72-8.646 1.069-17.371 1.577-26.076 2.09-18.937 1.117-37.89 1.952-56.823 3.147-11.307.714-22.574 2.45-33.88 2.668-7.964.153-15.983-1.309-23.94-2.346-10.146-1.322-20.282-2.773-30.366-4.501-5.562-.953-11.014-2.56-16.504-3.92-6.657-1.648-13.333-3.234-19.943-5.056-5.432-1.496-10.84-3.13-16.151-5.005-7.089-2.503-14.15-5.118-21.085-8.015-9.16-3.825-18.498-7.393-27.203-12.1-16.871-9.127-33.48-18.76-49.926-28.637-5.46-3.278-10.254-7.753-15.055-12.016-11.026-9.79-22.365-19.303-32.637-29.844-8.932-9.166-16.984-19.281-24.692-29.527-12.293-16.342-24.296-32.925-35.76-49.854-4.464-6.591-7.206-14.364-10.596-21.663-2.97-6.393-5.998-12.778-8.55-19.34-4.056-10.43-7.587-21.06-11.622-31.498-3.403-8.804-7.28-17.423-10.813-26.178-4.406-10.917-8.204-22.106-13.127-32.78-5.775-12.523-12.112-24.825-18.877-36.846-7.27-12.92-14.476-26.03-23.303-37.87-6.826-9.155-15.391-17.405-24.445-24.432-20.551-15.951-41.698-31.16-62.949-46.179-18.122-12.807-36.74-24.915-55.118-37.36-16.904-11.449-35.031-20.644-54.598-26.213-10.902-3.103-22.084-6.295-34.091-3.89-8.206 1.644-16.871 1.19-25.336 1.303-13.466.181-26.571 2.344-39.5 6.023-16.973 4.831-31.752 14.027-45.973 23.909-9.57 6.648-17.76 15.249-26.844 22.635-14.67 11.929-28.38 25.3-46.8 31.77-15.24 5.352-30.923 8.375-46.989 9.766-8.287.718-16.625 1.48-24.737 3.187-2.204.464-4.551 4.182-5.308 6.84-2.073 7.283-3.118 14.85-4.968 22.204-2.552 10.144-5.168 20.291-8.32 30.259-2.709 8.563-6.113 16.913-9.38 25.29-4.424 11.342-8.89 22.67-13.56 33.913-5.788 13.937-11.966 27.714-17.674 41.683-5.525 13.522-11.056 27.066-15.844 40.857-3.159 9.1-5.144 18.622-7.415 28.013-3.756 15.533-7.682 31.039-10.855 46.694-2.867 14.14-4.743 28.48-7.204 42.707-2.093 12.103-4.495 24.119-4.033 36.546.367 9.856 4.296 18.193 9.932 25.778 11.323 15.234 26.949 25.978 40.962 38.4 14.488 12.84 29.079 25.566 43.495 38.488 14.702 13.178 29.386 26.385 43.795 39.88 6.198 5.805 10.846 12.381 13.263 21.24 3.736 13.694.074 25.52-6.683 36.388-11.231 18.07-23.813 35.294-35.564 53.047-5.367 8.108-10.48 16.434-14.995 25.036-2.627 5.005-1.274 7.778 3.673 10.501 8.222 4.526 16.999 7.448 26.268 9.193 6.648 1.252 13.114 3.46 19.671 5.204 10.898 2.9 21.778 5.872 32.711 8.629 10.463 2.638 20.948 5.209 31.49 7.507 12.332 2.69 24.743 5.02 37.107 7.573 4.43.915 8.804 2.11 13.235 3.027 11.389 2.359 22.724 5.115 34.213 6.814 12.783 1.89 25.717 2.739 38.575 4.133 14.956 1.622 29.888 3.474 44.856 4.975 9.163.919 18.363 1.612 27.564 1.975 21.19.835 42.389 1.474 63.588 2.05 8.018.217 16.05-.068 24.07.084 4.6.087 9.195.909 13.785.85 15.431-.197 30.88-.269 46.28-1.13 9.248-.516 18.385-3.002 27.632-3.527 9.74-.554 19.556.084 29.333.396 3.079.098 6.13 1.128 9.208 1.21 14.58.387 27.824 5.099 40.675 11.634 21.591 10.98 36.245 28.608 48.781 48.712 6.814 10.925 11.888 22.387 15.597 34.629 1.957 6.457 6.457 9.06 14.919 9.056 5.098-.002 10.194-.83 15.293-.86 20-.119 40.003.147 59.999-.166 11.357-.177 22.695-1.413 34.055-1.776 10.334-.33 20.686-.142 31.03-.15 26.334-.016 52.67.23 79-.1 20.036-.25 40.064-1.227 60.096-1.867 1.659-.053 3.32-.008 5.343-.008v24.56c-6.18.444-12.393 1.244-18.61 1.277-28.666.154-57.336-.144-86 .169-40.182.44-80.363 1.176-120.54 1.985-21.522.433-43.031 1.478-64.553 1.881-14.542.273-29.722-12.401-33.549-26.33-3.476-12.652-9.192-24.373-17.31-34.843-3.059-3.943-5.537-8.335-8.594-12.28-9.458-12.204-21.828-20.282-36.242-25.61-11.316-4.184-22.843-7.148-34.937-6.799-11.677.338-23.44.509-34.983 2.082-25.186 3.43-50.452 2.774-75.722 2.833-9.833.023-19.676.29-29.498-.048-24.443-.842-48.892-1.713-73.31-3.078-14.036-.784-28.054-2.25-42.013-3.958-16.117-1.974-32.147-4.639-48.24-6.827-6.779-.922-13.648-1.188-20.422-2.139-5.08-.712-10.078-2.022-15.104-3.104a2312 2312 0 0 1-17.47-3.835c-5.45-1.217-10.878-2.523-16.335-3.701-5.359-1.157-10.767-2.095-16.106-3.332-4.65-1.077-9.218-2.511-13.855-3.65-3.439-.846-6.93-1.472-10.4-2.195-8.196-1.707-16.443-3.209-24.576-5.179-8.647-2.094-17.196-4.602-25.772-6.984-10.639-2.956-21.308-5.816-31.878-9.003-9.513-2.869-19.174-5.711-26.888-12.367-7.868-6.788-14.04-15.018-11.962-26.013 1.225-6.483 4.264-12.81 7.442-18.692 4.276-7.914 9.366-15.402 14.302-22.944 6.752-10.317 13.73-20.485 20.531-30.77 5.82-8.802 11.854-17.487 17.15-26.598 2.95-5.074-.879-16.701-5.96-21.258-8.236-7.384-16.488-14.75-24.672-22.19-13.087-11.896-25.944-24.053-39.234-35.717-12.585-11.045-25.853-21.317-38.348-32.46-9.603-8.564-19.605-17.087-27.35-27.218-7.847-10.265-14.927-21.7-15.218-35.666-.066-3.17-1.536-6.29-1.84-9.482-1.023-10.752 2.978-20.859 4.322-31.316.807-6.28 1.569-12.574 2.653-18.809 1.294-7.45 2.981-14.83 4.371-22.265 1.604-8.577 2.838-17.23 4.661-25.759 1.706-7.976 3.951-15.838 6.002-23.74.917-3.532 1.971-7.03 2.903-10.558 1.623-6.15 3.226-12.305 4.786-18.47 1.456-5.754 2.443-11.664 4.372-17.25 2.076-6.012 5.063-11.705 7.553-17.579 4.153-9.797 8.204-19.637 12.344-29.44 1.735-4.106 3.665-8.13 5.362-12.252 1.319-3.202 2.325-6.533 3.628-9.743 1.874-4.613 3.988-9.129 5.826-13.755 3.45-8.689 6.749-17.437 10.163-26.14 2.39-6.089 5.088-12.066 7.243-18.235 2.474-7.08 4.591-14.29 6.697-21.492s4.16-14.426 5.935-21.713a85 85 0 0 0 2.082-12.827c.822-9.63 10.756-22.464 19.983-25.107a61.3 61.3 0 0 1 10.42-2.036c7.977-.84 16.028-1.077 23.967-2.16 8.306-1.134 16.622-2.556 24.738-4.623 7.404-1.885 15.303-3.586 21.634-7.534 10.954-6.83 20.947-15.226 31.19-23.163 11.725-9.085 20.9-21.242 34.315-28.325 12.53-6.615 24.522-14.492 37.568-19.808 10.683-4.353 22.455-6.44 33.943-8.32 22.92-3.75 46.122-3.59 69.266-2.992 5.234.135 10.582 1.58 15.596 3.262 9.394 3.15 18.676 6.692 27.828 10.495 7.06 2.935 14.015 6.215 20.73 9.869 22.568 12.282 43.37 27.286 64.28 42.126 17.283 12.263 34.977 23.955 52.076 36.463 9.592 7.016 18.427 15.085 27.452 22.856 5.548 4.776 11.207 9.528 16.084 14.949 4.59 5.103 8.47 10.909 12.22 16.691 6.899 10.634 13.74 21.322 20.08 32.291 3.74 6.47 6.418 13.546 9.669 20.304 2.247 4.67 4.849 9.178 6.95 13.91 3.81 8.582 7.4 17.262 11.016 25.928 3.356 8.039 6.693 16.085 9.918 24.177 3.43 8.61 6.754 17.265 10.057 25.927 1.764 4.626 3.188 9.391 5.117 13.944 3.44 8.12 7.72 15.924 10.619 24.22 5.653 16.186 15.743 29.629 25.632 43.18 10.37 14.209 21.152 28.126 32.035 41.948 3.013 3.826 6.965 6.933 10.6 10.246 12.787 11.654 25.223 23.742 38.595 34.685 7.647 6.257 16.663 10.95 25.39 15.75 12.387 6.812 24.868 13.528 37.708 19.415 9.087 4.165 18.82 6.929 28.291 10.244 8.445 2.957 16.783 6.373 25.426 8.575 11.673 2.974 23.546 5.246 35.42 7.326 11.497 2.014 23.061 3.892 34.677 4.89 7.343.63 14.835-.463 22.26-.786 15.667-.682 31.35-1.125 46.997-2.114 16.36-1.033 32.693-2.522 49.026-3.946 9.78-.852 19.577-1.677 29.297-3.015 19.828-2.73 38.17-9.037 52.9-23.401 11.984-11.684 23.84-23.505 36.02-34.981 9.93-9.357 19.957-18.658 30.502-27.301 8.742-7.165 19.156-11.683 29.964-14.94 4.31-1.3 8.899-1.816 13.402-2.296 13.497-1.439 27.013-2.691 40.524-3.998 3.755-.363 7.513-.726 11.277-.982 10.495-.715 21.002-1.259 31.488-2.082 15.51-1.219 31.002-2.682 46.511-3.915 6.412-.51 12.864-.526 19.272-1.066 14.52-1.222 29.004-3.322 43.542-3.757 12.984-.39 26.038.728 39.027 1.662 7.599.547 15.205 1.67 22.67 3.209 6.833 1.409 13.528 3.571 20.194 5.686 7 2.22 14.042 4.423 20.797 7.271 11.268 4.752 22.53 9.605 33.42 15.149 18.955 9.65 37.718 19.69 56.393 29.877 20.171 11.002 40.134 22.386 60.216 33.555 18.64 10.366 37.287 20.72 55.983 30.984 21.95 12.05 43.974 23.966 65.926 36.012 5.524 3.03 11.364 5.753 16.23 9.652 7.2 5.768 12.4 14.872 7.978 24.746-4.445 9.93-11.576 17.694-17.372 26.512-7.355 11.19-14.655 22.425-21.677 33.827-9.643 15.658-15.056 33.242-22.264 50.01-5.864 13.638-11.963 27.178-17.641 40.892-4.133 9.981-6.795 20.69-11.865 30.132-5.082 9.463-11.617 18.42-18.88 26.35-5.475 5.979-12.71 10.71-19.902 14.638-5.44 2.97-11.95 4.564-18.166 5.372-6.902.896-14.052.678-21.015.056-5.644-.503-11.182-2.271-16.746-3.57-7.338-1.712-14.676-3.433-21.976-5.3-7.083-1.814-14.104-3.87-21.179-5.72-4.529-1.182-9.113-2.15-13.659-3.27-9.917-2.446-19.82-4.951-29.74-7.388-7.77-1.908-15.574-3.682-23.332-5.64-7.015-1.77-13.987-3.71-20.98-5.57-10.528-2.8-21.004-5.828-31.61-8.296-5.338-1.242-7.426.737-7.22 6.807.313 9.194 1.217 18.367 1.877 27.548.672 9.347 1.322 18.696 2.038 28.04.626 8.166 1.967 16.34 1.803 24.486-.138 6.892-1.321 13.942-3.255 20.568-1.86 6.376-5.042 12.416-8.064 18.392-4.627 9.15-13.078 14.538-21.109 20.188-13.606 9.572-29.312 11.546-45.367 11.836-9.664.175-19.341-.202-28.998.112-12.028.391-24.036 1.385-36.063 1.836-7.83.293-15.677.093-23.516.094-30.167.007-60.334-.106-90.5.05-18.428.094-36.853.68-55.281.898-34.422.408-68.844.768-103.267 1.033-17.562.136-35.126.024-53.037.024v17.806h-19.977v-57.508h19.31v17.019c6.153-.44 11.687-1.095 17.23-1.176 12.165-.179 24.335.052 36.5-.1 20.597-.258 41.191-.768 61.789-1.019 32.117-.39 64.237-.601 96.354-.99 19.092-.231 38.18-.755 57.27-.974 35.592-.408 71.186-.562 106.775-1.104 10.36-.158 20.787-.685 31.029-2.132 8.754-1.238 16.061-6.196 23.057-11.684 5.8-4.55 8.32-10.838 11.347-17.417"/></svg>