<svg viewBox="0 0 1930 993" xml:space="preserve" xmlns="http://www.w3.org/2000/svg"><path d="M372.418 7.213c-12.982.953-25.929 2.813-38.781 4.94-6.369 1.053-12.704 3.076-18.678 5.564-8.88 3.698-17.763 7.63-26.033 12.5-10.062 5.925-19.88 12.422-29.088 19.594-10.446 8.135-19.936 17.486-30.143 25.945-10.022 8.306-20.26 16.435-33.367 19.558-9.389 2.238-18.683 5.23-28.203 6.454-8.35 1.072-16.96-.022-25.447.173-5.74.133-11.48.714-17.194 1.336-4.267.465-7.464 3.261-8.912 6.897-2.64 6.627-4.457 13.583-6.566 20.418-1.647 5.335-3.423 10.642-4.756 16.056-1.157 4.7-1.436 9.624-2.709 14.284-1.891 6.923-4.237 13.729-6.535 20.535-2.453 7.265-4.879 14.55-7.684 21.681-2.5 6.356-5.787 12.407-8.217 18.786-4.02 10.557-7.234 21.433-11.523 31.873-4.712 11.47-11.223 22.273-15.152 33.97-3.64 10.838-10.108 20.459-12.024 32.09-1.724 10.468-5.53 20.593-8.424 30.867-.903 3.207-1.9 6.39-2.728 9.616-2.118 8.241-4.392 16.45-6.176 24.765-1.762 8.213-2.917 16.555-4.492 24.81-1.417 7.426-3.196 14.782-4.527 22.221-1.143 6.384-1.896 12.839-2.79 19.266-1.429 10.288-3.072 20.555-4.097 30.883-.304 3.062 1.712 6.299 1.732 9.46.09 14.084 7.406 25.547 15.096 35.905 7.67 10.332 18.011 18.798 27.74 27.453 12.136 10.796 25.025 20.742 37.256 31.436 13.532 11.83 26.736 24.039 39.986 36.187 7.74 7.097 15.053 14.678 23.016 21.506 5.12 4.391 8.172 8.964 8.217 16.053.038 6.16-2.635 10.932-5.643 15.56-8.174 12.578-16.857 24.824-25.129 37.34-9.322 14.106-20.31 27.143-26.521 43.242-3.478 9.015-4.262 17.318 1.082 25.854 6.868 10.97 17.662 15.953 29.246 19.635 8.685 2.76 17.595 4.812 26.363 7.32 12.251 3.504 24.396 7.4 36.717 10.627 8.245 2.16 16.72 3.436 25.086 5.143 3.442.702 6.886 1.416 10.293 2.27 4.632 1.16 9.201 2.588 13.852 3.665 5.34 1.237 10.749 2.177 16.113 3.319 5.62 1.195 11.222 2.473 16.83 3.724 5.66 1.263 11.316 2.548 16.978 3.805 4.86 1.078 9.683 2.436 14.598 3.12 6.939.968 13.978 1.21 20.922 2.15 16.093 2.177 32.12 4.868 48.238 6.818 14.286 1.728 28.634 3.133 42.996 3.972 23.084 1.35 46.196 2.29 69.307 3.055 12.153.403 24.347.455 36.494-.021 18.813-.738 37.595 1.31 56.496-1.573 16.694-2.546 33.816-3.16 50.737-3.025 10.704.086 21.921 1.603 31.949 5.174 15.05 5.36 28.975 13.504 38.761 26.96 2.94 4.042 5.489 8.376 8.573 12.298 8.203 10.43 13.826 22.2 17.334 34.836 3.875 13.955 18.993 26.632 33.521 26.36 21.521-.4 43.03-1.456 64.551-1.88 41.176-.812 82.356-1.487 123.537-1.998 24.492-.304 48.99-.184 73.484-.254 1.032-1.502 2.16-2.059 3.415-1.975-1.152-.063-2.173.515-2.98 2.063 2.49.029 4.548-.03 6.509-.447-.854-.637-1.688-1.13-2.477-1.397.887.275 1.83.785 2.842 1.47 1.206.382 1.949.332 2.691.282 1.206-.275 2.41-.55 3.803-.76-1.28.205-2.43.508-3.402.85 2.152-.203 3.904-.496 5.418-1.076q-.441.029-.867.074.63-.073 1.322-.123c3.598.239 6.504.238 9.594.238v-22.967a46 46 0 0 1-3.368-.95c1.147.368 2.274.562 3.432.544a11.4 11.4 0 0 0-4.853-1.08c.33.145.657.266.982.383-.434-.149-.829-.257-1.305-.447-.841-.367-1.274-.325-1.707-.282-.835.133-1.841.199-2.693.325.763-.136 1.565-.258 2.26-.414-3.16.22-5.888.53-8.35 1.14.09-.004.167-.02.256-.025-.231.016-.388.062-.625.076a15.7 15.7 0 0 0-2.863-.344c-.558.11-1.177.199-1.891.256.657-.058 1.245-.235 1.774-.568-1.05-.104-1.981.104-2.737.576.174.014.336.01.5.01-.317.014-.575.049-.965.039-15.38.102-30.117.587-44.857.7-26.606.206-53.212.187-79.818.263-.32.218-.64.436-1.038.623.322-.191.575-.438.73-.711-.763.206-1.233.496-1.562 1.01a6 6 0 0 1-.347.08c-.911-.222-1.349-.256-1.787-.288-.654-.053-1.309-.106-2.366-.517-1.144-.317-1.887-.274-2.629-.233-2.284.411-4.633.8-7.462 1.024a38.4 38.4 0 0 0 7.039-1.111c-2.817.224-5.209.536-7.344 1.142-.171.013-.301.04-.477.05-5.069-.18-9.417-.114-13.765-.048a.74.74 0 0 1-.307.38c.098-.12.114-.266.047-.452-.41.195-.606.448-.613.683a6 6 0 0 1-.457.104 1552 1552 0 0 1-15.672.195c-.129.05-.257.098-.444.125.11-.043.18-.112.188-.197-.406-.015-.579.035-.654.217a5 5 0 0 1-.473-.041c-9.58-.164-18.597-.116-27.615-.069-.943.084-1.885.166-2.928.207a23 23 0 0 0 2.506-.298c-2.054-.025-3.721.033-5.135.302a36 36 0 0 1-.65-.029c-14.085-.246-27.436-.188-40.787-.13a.75.75 0 0 1-.311.386c.1-.123.117-.274.049-.465-.417.194-.62.452-.627.693a6 6 0 0 1-.457.1c-4.692.055-8.687.058-12.682.059-6.847 0-11.026-3.271-12.998-9.967-1.344-4.564-2.445-9.267-4.392-13.574-7.573-16.752-17.518-32.108-29.684-45.823-13.534-15.255-30.615-24.909-50.178-30.972-9.855-3.055-19.775-3.472-29.728-4.71-2.976-.004-5.952-.008-9.057-.134 3.02.08 5.979-.001 8.85-.246-4.662-.38-9.125-.392-13.479-.037l-.597-.053c-1.223-.403-1.966-.355-2.71-.309-1.609 1.576-3.349 2.01-5.183 2.01 1.72-.019 3.326-.502 4.729-2.1-4.496.23-8.536.55-12.293 1.172 2.41.085 4.822.835 7.058.92-2.345-.099-4.841-.818-7.457-.88-1.743-.194-2.805-.124-3.867-.055a.77.77 0 0 1-.318.367c.1-.118.12-.261.06-.443-.407.187-.608.433-.625.662a6 6 0 0 1-.455.1c-13.67.79-26.653 1.528-39.635 2.265-.895.127-1.98.187-2.892.309.824-.132 1.691-.248 2.45-.399-3.463.218-6.489.528-9.251 1.127-.206.012-.34.048-.55.059-7.752-.203-14.765-.15-21.778-.096-3.374.088-6.747.176-10.233.219a391 391 0 0 0 9.772-.315c-6.492-.03-12.565.027-18.338.305q-.666-.011-1.342-.025c-5.14-.363-9.495-.404-13.85-.444-3.372.006-6.744.012-10.267-.101 3.423.066 6.785-.028 10.059-.28-5.319-.364-10.437-.36-15.442.008q-.371-.025-.746-.055c-18.07-1.177-35.571.386-53.098-2.29-15.478-2.364-31.292-1.371-46.843-4.856-12.353-2.768-25.278-4.032-37.95-4.035-13.474-.003-26.133-4.094-39.287-5.381-4.305-.421-8.516-1.765-12.783-2.621-5.7-1.143-11.42-2.18-17.117-3.34-5.975-1.216-11.973-2.35-17.885-3.828-10.317-2.581-20.534-5.572-30.87-8.065-8.466-2.04-17.11-3.35-25.558-5.45-9.062-2.255-17.994-5.034-26.972-7.624-13.856-3.995-27.857-7.566-41.494-12.205-8.692-2.957-9.928-7.345-5.559-15.412 2.835-5.234 6.352-10.103 9.637-15.088 9.515-14.439 18.462-29.304 28.787-43.14 9.09-12.182 16.163-24.87 18.332-40.01.438-3.054 1.378-6.296.795-9.19-1.99-9.867-6.993-18.253-14.412-25.048-14.232-13.036-28.517-26.016-42.899-38.885-14.93-13.36-30.035-26.524-45-39.846-12.47-11.1-25.188-21.955-37.138-33.594-6.994-6.81-11.75-15.776-13.084-25.441-1.624-11.762.131-23.648 2.287-35.338 2.084-11.301 4.316-22.575 6.44-33.87 1.584-8.428 3.007-16.888 4.673-25.3 1.313-6.629 2.889-13.206 4.346-19.807 1.07-4.845 1.955-9.74 3.248-14.525 1.755-6.496 3.86-12.899 5.744-19.361 2.523-8.653 4.483-17.506 7.592-25.94 3.636-9.865 8.305-19.347 12.424-29.039 5.287-12.444 10.58-24.888 15.666-37.416 3.31-8.154 6.132-16.505 9.4-24.678 3.384-8.461 7.19-16.755 10.527-25.234a155 155 0 0 0 5.3-16.033c1.774-6.522 2.97-13.2 4.655-19.748 3.128-12.158 6.43-24.271 9.914-37.362l9.54-.457c7.155-.207 14.31-.415 22.195-.365 9.803-.41 18.788-1.221 27.469-4.51 7.938-3.007 17.164-3.661 24.09-8.074 13.7-8.73 26.372-19.124 39.132-29.256 6.591-5.233 11.833-12.33 18.787-16.91a453 453 0 0 1 41.272-24.158c7.31-3.774 15.644-6.16 23.793-7.559 9.67-1.66 19.637-1.559 29.472-2.267 3.763-.271 7.515-.68 11.274-1.004 3.067-.265 6.158-.843 9.203-.668 5.545.319 11.076 1 16.59 1.705 5.634.721 11.455.968 16.814 2.64 10.204 3.186 20.57 6.378 30.078 11.141 13.302 6.663 25.881 14.765 38.77 22.252 1.835 1.058 3.67 2.116 5.527 3.258a107 107 0 0 0-5.383-2.935c3.36 2.212 6.6 4.163 9.811 5.828q.6.419 1.207.859c12.813 9.42 25.313 18.39 38.14 26.861 18.48 12.204 37.223 24.01 55.807 36.057 12.13 7.862 24.249 15.74 36.24 23.809 11.249 7.567 22.12 15.71 33.56 22.968 5.528 3.508 3.776 7.689 1.712 11.051-6.688 10.893-10.008 22.84-12.578 35.125.015.332-.098.612-.608 1.43-.23 7.267-.19 13.946-.15 20.625.425 2.125.85 4.25 1.232 6.476-.402-2.118-.85-4.14-1.322-6.048.588 4.165 1.255 7.964 2.123 11.49q.073.612.139 1.24c.626 4.802 1.563 8.866 2.498 12.93.26.514.521 1.147.781 1.68-.246-.47-.495-.947-.732-1.32.71 1.79 1.371 3.22 2.055 4.245-.153-.402-.309-.711-.463-1.074.162.37.324.64.486 1.045 0 .329-.05.395-.063.406l-.001.002h-.002c.36.738.72 1.475 1.084 2.316q-.537-1.129-1.065-1.943c.63 1.658 1.245 3 1.87 4.002q.097.278.196.574c.077 1.143.135 1.565.194 1.987a72 72 0 0 1 1.527 3.027 22 22 0 0 0-1.611-2.674c.82 1.983 1.711 3.665 2.62 5.014q.138.345.274.709c5.945 10.236 11.602 19.884 17.852 29.13 9.176 13.576 18.749 26.885 28.205 40.27 9.825 13.907 19.543 27.894 29.627 41.611 7.776 10.577 15.92 20.89 24.143 31.125 4.62 5.752 9.454 11.39 14.691 16.575 6.594 6.528 13.636 12.613 20.605 18.752 4.154 3.658 8.541 7.053 12.823 10.566.326-.228.862-.669 1.03-.736-.167.071-.691.549-.925 1.054 3.836 3.626 7.566 6.933 11.455 9.885-3.374-3.898-6.903-7.447-10.48-10.945 3.577 3.498 7.107 7.047 10.68 11.066.038.477.492.373.492.373 1.25.403 2.497.806 3.99 1.698.243.489.701.558.701.558.515.233 1.029.467 1.563.783a5.2 5.2 0 0 0-1.442-.472c.972.721 1.84 1.183 2.664 1.347q.151.128.305.27c.325.888.602 1.043.96 1.05.324.01.593.136 1.253.721 8.26 5.182 15.756 10.659 23.953 14.723 14.44 7.16 29.227 13.649 44.031 20.043 8.924 3.854 18.002 7.499 27.285 10.338 12.107 3.703 24.46 6.618 36.758 9.67 6.866 1.704 13.791 3.271 20.77 4.402 6.432 1.042 12.958 1.623 19.466 2.043 11.821.764 23.66 1.257 35.49 1.863.75-.134 1.658-.201 2.423-.33-.676.138-1.389.261-1.996.418 2.825-.226 5.224-.54 7.365-1.148-.051.003-.094.012-.145.016.177-.014.293-.053.473-.065 1.024.194 1.462.141 1.898.088.613-.08 1.225-.163 1.924-.203a8 8 0 0 0-1.53.295c1.408.023 2.452-.039 3.28-.301q.243.012.504.031c1.689.24 2.753.188 3.818.135a.72.72 0 0 1 .305-.39c-.1.122-.116.273-.045.468.419-.192.622-.45.625-.695q.194-.05.455-.094c18.345-1.119 35.994-2.19 53.643-3.26 2.512-.434 5.024-.869 8.256-1.058 18.732-1.464 36.744-3.174 54.757-4.883 1.467-.446 2.933-.892 4.526-1.295a38 38 0 0 0-4.123 1.377c2.755-.554 5.125-1.187 7.277-2.07q.281-.053.568-.102c4.02-.511 7.39-1.245 10.76-1.978a.82.82 0 0 1 .322-.399c-.108.125-.13.276-.06.467.418-.206.613-.47.611-.707q.165-.05.375-.1c8.731-3.754 17.467-6.495 24.826-11.33 10.8-7.096 21.188-15.07 30.688-23.824 9.201-8.48 16.883-18.584 25.549-27.672 11.501-12.062 24.34-22.438 39.681-29.367.794-.277 1.723-.554 2.551-.83-.8.291-1.537.59-2.174.912 2.155-.57 3.932-1.223 5.301-1.899-.697.19-1.283.39-1.896.586.637-.202 1.161-.405 1.867-.607.331 0 .395.05.406.063l.002.001c.77-1.734 1.858-2.218 3.12-2.261-1.15.051-2.113.542-2.696 2.242 2.966-.644 5.557-1.27 7.754-1.908q.403-.045.805-.15c1.877-.07 2.915-.131 3.953-.192.53-.62 1.006-1.648 1.578-1.955-.565.31-.997 1.348-1.168 2.043 1.826-.235 3.23-.62 4.658-.87 5.664-.987 11.336-1.93 16.744-3.195a288 288 0 0 0-19.982 1.938 308 308 0 0 1 20.441-1.994c7.94-.094 15.175-.261 22.377-.834 5.148-.41 10.251-1.365 15.375-2.076 2.703-.611 5.385-1.61 8.113-1.76-2.728.15-5.41 1.15-7.65 1.842 10.929-.643 21.413-1.363 31.592-2.32l1.086.007c4.122.262 7.476.204 10.83.147 1.673-.448 3.347-.895 5.164-1.293a48 48 0 0 0-4.762 1.382c3.104-.531 5.817-1.15 8.291-2.046q.29-.045.586-.088c8.05-.137 15.39-.52 22.729-.9 2.284-.415 4.631-.807 7.459-1.034a38.5 38.5 0 0 0-7.036 1.121c2.817-.229 5.21-.544 7.344-1.152.17-.013.298-.04.47-.051 17.063-.808 33.41-1.863 49.755-2.918.94-.263 1.883-.527 2.98-.738-.99.209-1.869.501-2.593.83 1.812-.213 3.239-.517 4.445-1.102q-.176.015-.348.034.39-.05.807-.088c4.694.255 8.71.284 12.724.314.978.043 1.957.085 3.448.516 7.505 1.071 14.576 1.32 21.47 2.552 7.906 1.414 15.905 3.014 23.422 5.748 16.502 6.004 33.04 12.09 48.973 19.424 15.515 7.142 30.312 15.849 45.39 23.932 14.104 7.56 28.164 15.206 42.243 22.814.854.283 1.715.605 2.588.98-.858-.36-1.685-.588-2.448-.665 1.392.786 2.643 1.256 3.844 1.357-.215-.127-.427-.229-.639-.338.22.109.434.182.657.307.058.295.018.362.007.375l-.001.002c1.979.765 3.958 1.53 5.998 2.627.053.29.012.359.002.371l-.002.002v.002c1.166.563 2.332 1.125 3.525 1.777a34 34 0 0 0-3.393-1.45c2.148 1.32 4.186 2.378 6.186 3.144q.409.272.824.57c1.127.953 2.136 1.053 2.953 1.504 8.656 4.77 17.232 9.69 25.926 14.387 13.267 7.167 26.63 14.156 39.914 21.29 9.019 4.844 18.106 9.58 26.922 14.772 11.512 6.78 22.786 13.963 34.162 20.973.282.19.564.38.945.787.088.189.044.234.032.242l-.002.002c1.511 1.521 2.183 3.11 2.347 4.754-.18-1.538-.85-2.994-2.324-4.326.09 4.47.158 8.514.604 12.443l-.075.219c-.45.333-.505.789-.505.789a60 60 0 0 1-1.01 3.967c.38-1.318.609-2.599.676-3.801-.803 2.06-1.27 3.955-1.354 5.795.142-.351.258-.698.377-1.045-.118.357-.2.706-.338 1.068-.324.073-.38.003-.387-.006-.014.335-.148.61-.714 1.268-.628 1.208-.943 1.975-1.258 2.742.008.33-.107.61-.62 1.291-.313.892-.351 1.334-.39 1.776-.301 1.097-.64 2.2-1.033 3.314.38-1.1.624-2.17.703-3.174-.786 1.707-1.243 3.273-1.357 4.803.136-.289.249-.575.365-.861-.116.293-.198.582-.33.879-.269.047-.337.005-.35-.006l-.002-.002a33 33 0 0 1-.826 2.547c.299-.85.474-1.661.496-2.41-.705 1.408-1.082 2.68-1.111 3.863.072-.142.126-.278.191-.418-.096.219-.15.406-.262.636-.417.307-.474.764-.474.764-1.188 3.023-2.376 6.046-3.735 9.21a115 115 0 0 0 3.4-9.06c-2.025 4.402-3.72 8.654-5.081 12.836l-.184.397c-2.125 4.181-3.766 7.944-5.365 11.726a25749 25749 0 0 0-15.92 37.745c-2.357 5.6-4.73 11.196-7.004 16.83-3.321 8.227-6.436 16.54-9.871 24.718-3.22 7.667-7.122 15.063-10.045 22.834-4.458 11.855-8.678 23.815-16.182 34.15-7.035 9.691-15.81 17.229-27.955 19.876-.18.367-.366 1.006-.543 1.195.168-.19.297-.841.12-1.28-3.781.25-7.136.805-10.497.848-2.934.038-5.875-.445-8.71-.382l-.715-.065c-5.996-1.786-11.463-3.122-16.932-4.453-4.218-1.027-8.438-2.048-12.656-3.072-1.231-.247-2.587-.637-3.838-.906 1.233.222 2.467.442 3.654.566-3.423-1.023-6.663-1.707-9.83-2.025-.128-.038-.23-.046-.36-.084-.823-.489-1.256-.528-1.689-.569-.654-.134-1.309-.268-1.994-.674-.025-.22.005-.284.018-.3l.002-.002.002-.002c-.33.009-.605-.11-1.352-.63-1.894-.305-3.264-.334-4.633-.364-1.4-.22-2.8-.44-4.306-.778 1.435.28 2.817.422 4.136.43-2.372-.705-4.58-1.078-6.685-1.1l-.485-.15c-3.8-1.55-7.098-2.754-10.488-3.58-8.363-2.038-16.768-3.902-25.156-5.836-8.79-.07-16.933-2.8-25.342-6.49-.822-.449-1.246-.472-1.672-.496-.984-.196-1.983-.493-2.97-.711.954.167 1.903.31 2.81.355-2.4-.796-4.639-1.237-6.846-1.355.426.141.84.215 1.262.336-.428-.12-.844-.168-1.275-.305-.041-.256-.006-.32.004-.332l.002-.002c-1.14-.152-2.312-.431-3.457-.606 1.102.125 2.208.243 3.279.264-2.705-.783-5.232-1.225-7.76-1.668-.189.014-.378.028-.758.434.517.146 1.059.212 1.586.332-.629-.133-1.233-.164-1.869-.326-.094-.386-.106-.764-.428-1.032-.757-.306-1.193-.345-1.629-.384-1.482.238-3.064.895-4.468.808 1.401.082 2.965-.616 4.3-1.172-1.41-.622-2.658-.865-3.896-1.146-6.641-1.507-13.28-3.021-19.856-4.154.284.554.494 1.016.745 1.26-.251-.243-.465-.698-.76-1.227-.071-.303-.034-.375-.024-.389v-.002c-1.563-.21-3.126-.422-4.79-.744 1.593.262 3.135.394 4.613.398-2.679-.694-5.189-1.062-7.592-1.082a41 41 0 0 1-.578-.158c-7.762-1.122-15.363-3.298-22.24-1.904-8.31 1.685-15.708 6.21-17.522 20.428.044.345-.06.641-.584 1.4-.236 1.571-.197 2.627-.158 3.682.088 2.376.174 4.751.215 7.244-.062-2.38-.174-4.649-.315-6.787-.034 4.624.024 8.829.305 12.73q-.011.484-.025.977c-.263 3.795-.21 6.815-.159 9.836a.75.75 0 0 1 .4.318c-.124-.106-.28-.126-.48-.055.197.43.46.638.711.64q.05.19.094.44c.671 6.367 1.29 12.051 1.91 17.735.53 1.702 1.297 3.381 1.736 5.092-.437-1.686-1.193-3.278-1.683-4.631.784 11.81 1.516 23.159 2.6 34.42.492-.442.96-.848 1.164-1.227-.204.406-.684.9-1.233 1.688-.419 3.203-.468 5.86-.406 8.513.47 20.162-9.93 33.109-27.47 41.217-7.159 3.309-14.903 2.998-22.55 3.09-.698.244-1.396.49-2.216.691a7.6 7.6 0 0 0 1.847-.777c-1.466.214-2.568.513-3.467 1.082q-.219.03-.453.055c-5.053.108-9.457.686-13.867.732-38.954.406-77.909.718-116.863 1.065-.661.005-1.32.102-1.98.156-.564.467-1.129 1.265-1.692 1.547.55-.286 1.04-1.098 1.228-1.64-2.915-.098-5.374-.202-7.822-.085-4.925.235-9.844.59-14.478 1.201 7.086.44 13.885.621 20.683.625-6.798-.004-13.597-.185-21.148-.576-46.264.08-91.778.417-137.29.762-.828.006-1.654.102-2.482.156-.75.512-1.5 1.407-2.252 1.625.745-.22 1.444-1.124 1.79-1.717-6.837.214-13.21.52-19.3 1.135 5.92.443 11.554.653 17.188.63-5.634.023-11.267-.186-17.648-.58-5.085-.278-9.423-.3-13.76-.321-.183.01-.365.022-1.285.05-21.385.017-42.032.018-63.074.018v-19.861h-18.975v65.605h19.285v-21.793c18.789 0 37.2.023 55.61-.006 28.79-.044 57.581-.123 86.372-.187.665-.484 1.327-1.302 1.993-1.594-.652.295-1.242 1.126-1.532 1.68 5.506-.212 10.551-.51 15.311-1.118-4.63-.458-8.975-.701-13.318-.67 4.343-.031 8.688.213 13.78.62 6.76.197 12.771.134 18.782.072a.87.87 0 0 1 .33-.371c-.099.12-.122.262-.064.435.404-.2.606-.45.629-.672q.194-.057.459-.113c43.344-.072 85.997-.073 128.65-.08 7.673-.001 15.356.204 23.018-.096 11.189-.438 22.356-1.536 33.546-1.82 13.158-.333 26.338.14 39.495-.219 5.65-.154 11.361-1.13 16.88-2.433 10.141-2.394 19.634-6.466 27.313-13.744 5.54-5.252 12.748-8.894 15.78-16.645 2.32-5.933 5.806-11.486 7.529-17.56 1.884-6.647 3.102-13.685 3.22-20.577.146-8.484-1.159-16.99-1.812-25.49a7317 7317 0 0 1-2.032-27.039c-.671-9.18-1.57-18.354-1.872-27.547-.2-6.03 1.905-7.894 7.294-6.756 10.049 2.123 20.026 4.598 29.99 7.094 5.731 1.436 11.35 3.317 17.073 4.785 5.915 1.517 11.922 2.67 17.84 4.178 5.883 1.499 11.681 3.322 17.556 4.854 6.035 1.573 12.162 2.81 18.168 4.48 7.238 2.012 14.345 4.502 21.596 6.459 7.879 2.126 15.88 3.793 23.79 5.814 9.089 2.324 18.035 6.259 27.224 6.897 13.77.956 27.694 2.944 41.396-3.35 12.696-5.831 22.642-14.26 31.174-24.886 10.813-13.467 15.82-29.868 22.709-45.29 6.311-14.126 12.096-28.492 18.004-42.796 8.423-20.395 16.726-40.838 25.123-61.245 3.465-8.42 7.165-16.745 10.531-25.205 4.929-12.385 11.632-24.503 9.29-38.482-.9-5.368-2.73-11.058-5.753-15.502-9.053-13.314-24.102-18.878-37.27-26.69-11.912-7.067-24.495-13-36.702-19.58-10.015-5.398-19.861-11.108-29.875-16.507-13.955-7.525-27.997-14.888-42-22.323-11.785-6.257-23.6-12.456-35.34-18.794-10.06-5.432-19.992-11.108-30.06-16.524-12.093-6.504-24.068-13.278-36.473-19.133-11.333-5.348-23.169-9.631-34.787-14.373-11.3-4.611-22.716-8.715-34.997-10.012-7.095-.749-14.092-2.546-21.193-3.08-12.32-.925-24.712-2.007-37.027-1.605-14.386.47-28.716 2.53-43.082 3.754-6.243.532-12.526.574-18.774 1.062-16.002 1.25-31.991 2.668-47.992 3.936-9.656.765-19.325 1.36-28.986 2.066-4.257.312-8.518.61-12.758 1.086a3873 3873 0 0 0-33.01 3.867c-5.813.703-11.807.837-17.375 2.432-9.646 2.764-18.977 6.32-27.918 11.256-14.003 7.73-25.976 17.598-36.916 29.143-12.014 12.679-24.63 24.79-37.004 37.126-9.345 9.318-21.172 14.543-33.281 18.688-7.54 2.581-15.806 3.109-23.781 4.328-4.047.619-8.182.628-12.258 1.086-11.19 1.257-22.354 2.76-33.559 3.87-9.144.904-18.326 1.49-27.502 2.02-18.756 1.084-37.51 2.342-56.283 2.948-15.89.513-31.62-1.462-47.18-4.838-8.67-1.881-17.435-3.323-26.138-5.059-2.481-.494-4.883-1.369-7.342-1.99-4.2-1.06-8.494-1.816-12.605-3.144-5.32-1.719-10.482-3.924-15.743-5.83-9.436-3.42-19.19-6.134-28.277-10.309-12.836-5.898-25.312-12.625-37.7-19.44-8.588-4.724-17.504-9.308-24.978-15.515-15.15-12.582-29.766-25.868-43.914-39.574-7.164-6.94-13.014-15.287-19.13-23.248-10.098-13.142-20.117-26.352-29.813-39.791-7.583-10.51-14.647-21.397-21.904-32.141-13.189-19.523-29.284-37.193-38.625-59.156-3.25-7.639-6.838-15.484-5.559-24.309.187-1.288.384-2.955-.242-3.912-2.53-3.863-1.804-7.754-.768-11.777 2.081-8.077 3.26-16.51 6.36-24.168 3.412-8.43 9.326-15.863 9.039-25.614-.165-5.579.695-11.603-3.791-15.867-6.324-6.01-12.64-12.236-19.82-17.095-18.842-12.75-38.158-24.798-57.27-37.149a6864 6864 0 0 1-30.985-20.133c-10.956-7.163-21.998-14.206-32.785-21.617-13.922-9.565-27.275-20.007-41.537-29.02-12.439-7.86-24.78-15.901-38.097-22.49-12.515-6.191-25.323-11.374-38.573-15.257-9.724-2.85-19.977-4.427-30.101-5.237-10.93-.874-22.03-.83-32.971-.027zM167.734 125.75c-6.918.563-14.123.82-21.54.695 6.943-.588 14.098-.795 21.54-.695zm490.973 106.248c-.329.393-.4.7-.277.88.436-.354.548-.634.277-.88zm898.412 205.186q-.526.024-1.002.185c1.062.361 1.988.391 2.858.11-.648-.222-1.272-.322-1.856-.295zm-222.271 16.634c1.23.082 2.586.419 3.955.352-1.334.128-2.72-.26-3.955-.352zm-504.36 43.155c1.356.74 2.446 1.285 3.51 1.422a10.6 10.6 0 0 0-3.51-1.422zm8.813 5.17q-.14 0-.276.128c.366.345.672.427.86.315-.216-.29-.405-.443-.584-.443zm905.777 12.226c2.056 1.117 3.97 1.908 5.838 2.334-2.023-1.13-4.002-1.895-5.838-2.334zm-616.314 45.399a38.6 38.6 0 0 0-7.373 1.101c2.827-.21 5.23-.51 7.373-1.101zm759.336 34.49a.3.3 0 0 0-.086.015c.356.443.651.625.865.559-.317-.384-.573-.579-.78-.574zm-1.424 20.719c-.351.39-.438.704-.332.884.447-.351.581-.626.332-.884zm-1.963 4.023c-.329.395-.404.7-.285.877.432-.358.546-.636.285-.877zm-258.447 159.383q-.15 0-.293.056c.003.189.014.565.299.56.473-.02.662-.034.742-.298-.29-.218-.528-.316-.748-.318zm17.793 5.16c8.097 3.617 16.24 6.347 24.847 6.076-3.569-1.345-6.92-2.493-10.351-3.318a154 154 0 0 0-14.496-2.758zm-92.36 5.443c-.326.41-.395.726-.258.914.457-.368.56-.663.258-.914zm165.617 12.381a.35.35 0 0 0-.207.053c.344.44.62.557.873.29-.262-.228-.49-.337-.666-.343zm1.172.813a1.8 1.8 0 0 0-.44.066c.672.434 1.326.568 1.878.406-.525-.324-.992-.482-1.438-.472zm-546.652 128.517c-.321-.022-.57.132-.61.3.456.005.638-.006.75-.278a1 1 0 0 0-.14-.022zm-270.162 3.653q-.341.015-.66.15c.691.335 1.347.387 1.892.14-.447-.212-.852-.307-1.232-.29z" style="stroke:#fff;stroke-opacity:1;fill:#fff;fill-opacity:1"/></svg>