<svg xmlns="http://www.w3.org/2000/svg" viewBox="0 0 1890 777" xml:space="preserve"><path fill="#fff" d="M622.561 487.656c-12.553 1.36-24.656 2.641-36.746 4.04-11.58 1.338-23.222 2.37-34.692 4.365-7.137 1.24-14.158 3.62-20.967 6.188-18.258 6.885-34.35 17.271-47.642 31.622-9.6 10.364-16.19 22.35-18.65 36.536-2.514 14.505-3.539 29.076-4.337 43.766-1.162 21.386-3.774 42.69-5.582 64.046-.935 11.041-1.765 22.108-2.11 33.18-.398 12.8-2.421 25.105-9.397 36.07-3.64 5.72-9.288 8.54-16 9.488-17.48 2.47-27.129-8.386-35.681-20.94-6.99-10.26-14.095-20.476-20.445-31.132-9.328-15.652-18.121-31.626-26.974-47.556-13.536-24.358-26.933-48.793-40.38-73.2a109176 109176 0 0 1-34.532-62.727c-1.438-2.612-2.82-5.255-4.547-8.483l21.652-13.782c3.96 7.382 7.679 14.514 11.58 21.544 9.306 16.765 18.763 33.446 28.038 50.227 11.746 21.25 23.252 42.631 35.086 63.83 10.128 18.143 20.414 36.202 30.934 54.119 6.98 11.886 14.488 23.463 21.787 35.161.602.965 1.263 1.994 2.147 2.663 2.045 1.55 4.243 2.897 6.38 4.326 1.217-2.583 3.246-5.085 3.513-7.764 1.278-12.797 1.963-25.653 3.08-38.469 1.187-13.602 2.84-27.166 3.89-40.777.977-12.691 1.502-25.42 2.091-38.138.684-14.762 3.087-29.22 5.718-43.774 3.737-20.668 14.646-36.893 28.905-50.875 13.187-12.93 28.46-23.588 46.064-30.053 10.923-4.011 21.935-8.093 33.244-10.651 10.98-2.484 22.386-3.102 33.614-4.466 12.071-1.468 24.153-2.852 36.23-4.27 7.494-.88 14.994-1.71 22.48-2.644 7.14-.892 14.267-1.888 21.4-2.84 7.957-1.063 15.89-2.414 23.88-3.13 14.578-1.305 27.278-6.5 37.927-16.691 7.091-6.786 14.559-13.18 21.598-20.018 5.111-4.965 9.336-10.928 14.797-15.425 5.936-4.889 10.445-11.88 18.486-13.94 8.139-2.084 16.241-5.08 24.51-5.713 12.758-.977 25.65-.06 38.474-.388 6.584-.168 13.272-.716 19.68-2.138 7.006-1.554 11.47-7.07 15.472-12.705 3.898-5.488 7.907-10.914 11.484-16.608 4.463-7.105 8.205-14.675 12.838-21.66 12.905-19.458 30.307-33.609 52.123-41.96 6.155-2.355 12.996-2.86 19.287-4.932 14.019-4.616 28.634-4.507 42.922-4.39 17.325.14 33.943 3.897 48.053 15.997 15.588 13.367 28.99 28.645 42.652 43.795 11.207 12.426 22.977 24.343 34.412 36.565 6.176 6.602 13.721 6.726 21.792 5.156 19.231-3.74 37.333-10.732 54.77-19.428 12.34-6.152 24.154-13.38 36.618-19.246 8.074-3.8 16.619-5.533 26.134-3.816 8.619 1.554 16.836 3.448 24.682 7.285 13.222 6.466 23.436 16.29 29.798 29.305 4.652 9.517 8.356 19.683 8.91 30.617.39 7.683 4.485 11.146 12.339 12.329 10.294 1.55 20.473 3.844 30.737 5.611 5.802 1 11.676 1.578 17.517 2.356 6 .799 12.033 1.419 17.993 2.457a1454 1454 0 0 1 35.153 6.548c8.446 1.687 16.812 3.769 25.232 5.589 7.15 1.546 14.329 2.96 21.492 4.45 4.613.96 9.179 2.36 13.84 2.837 9.43.964 17.357-3.54 25.24-7.851 22.062-12.066 44.123-24.135 66.151-36.262 21.784-11.991 43.513-24.083 65.294-36.08 21.275-11.717 42.66-23.237 63.86-35.088 18.17-10.158 36.187-20.59 54.192-31.039a1341 1341 0 0 0 32.585-19.52c4.782-2.96 9.22-6.475 13.814-9.738l-.194-1.619c-3.839-.643-7.655-1.545-11.521-1.882-13.146-1.143-26.3-2.216-39.466-3.075-17.488-1.14-34.996-1.968-52.485-3.091-18.935-1.217-37.883-2.338-56.779-4.02-17.813-1.585-35.577-3.765-53.345-5.834-13.202-1.537-26.395-3.176-39.557-5.024-12.622-1.772-25.175-4.045-37.803-5.776-11.858-1.626-23.787-2.73-35.66-4.262-6.315-.814-12.576-2.048-18.863-3.088-11.928-1.973-23.866-3.89-35.782-5.931-9.328-1.597-18.624-3.379-27.945-5.013-5.936-1.04-11.9-1.92-17.84-2.944-6.273-1.081-12.526-2.28-18.798-3.369-10.948-1.899-21.922-3.656-32.852-5.655-9.613-1.758-19.172-3.813-28.771-5.653-11.343-2.173-22.726-4.14-34.048-6.414-9.432-1.894-18.782-4.195-28.202-6.148-14.501-3.007-29.054-5.769-43.544-8.827-11.94-2.52-23.832-5.283-35.729-8.01-9.928-2.275-19.866-4.517-29.737-7.023-12.426-3.155-24.765-6.655-37.186-9.834-9.749-2.496-19.594-4.615-29.344-7.107-12.08-3.088-24.084-6.477-36.165-9.566-7.673-1.962-15.458-3.485-23.134-5.435-11.81-3-23.579-6.17-35.35-9.32-11.91-3.186-23.866-6.222-35.685-9.718-12.737-3.767-25.31-8.08-38.01-11.98-6.272-1.927-12.706-3.322-18.993-5.204-8.342-2.497-16.604-5.262-24.914-7.865-11.392-3.569-22.754-7.245-34.21-10.594-11.073-3.237-22.272-6.04-33.374-9.178-9.011-2.546-17.902-5.533-26.955-7.906-10-2.621-20.124-4.765-31.9-7.516 1.288 5.432 2.19 9.702 3.322 13.91 2.701 10.039 5.506 20.051 8.281 30.071 2.454 8.86 5.114 17.669 7.34 26.585 2.722 10.906 5.164 21.883 7.58 32.862a1162 1162 0 0 1 5.711 27.668c.937 4.815 1.67 9.678 2.291 14.545 1.08 8.459 1.559 17.019 3.096 25.389 2.187 11.912-.441 22.266-8.97 30.707-2.946 2.916-6.996 5.024-10.905 6.6-10.276 4.141-20.239 2.122-29.947-2.454-16.024-7.552-32.441-14.363-48-22.767-7.605-4.107-13.588-11.194-15.993-20.194-3.832-14.343-1.755-28.822-1.168-43.32.274-6.76-1.21-13.659-2.46-20.39-1.03-5.555-2.627-11.044-4.434-16.407-3.1-9.198-6.457-18.314-9.9-27.39-2.572-6.78-8.304-10.434-14.313-13.767-6.27-3.477-12.402-7.208-18.736-10.56-1.613-.853-3.763-.69-6.802-1.176 1.059 8.339 2.065 15.929 2.978 23.53 1.565 13.04 2.997 26.095 4.627 39.126 1.056 8.436 2.387 16.838 3.549 25.261.827 5.997 1.727 11.99 2.336 18.01 1.41 13.952 2.612 27.926 4 41.88.903 9.087 2.106 18.145 2.952 27.236.916 9.831-2.728 18.517-6.323 27.496-8.57 21.403-24.776 36.557-41.043 51.535-8.46 7.79-18.045 14.78-29.755 17.355-6.213 1.366-12.564 2.548-18.898 2.841-20.527.952-41.082 1.315-61.615 2.177-14.655.615-27.485-4.914-39.925-11.496-20.274-10.727-37.055-25.96-51.915-43.126-9.419-10.88-15.939-23.706-19.132-37.984-1.87-8.366-4.14-16.649-5.782-25.056-1.717-8.786-2.657-17.725-4.38-26.51-1.721-8.78-3.826-17.494-6.062-26.16-2.713-10.514-5.89-20.91-8.59-31.427-3.222-12.547-6.008-25.207-9.254-37.747-2.506-9.683-4.763-19.518-8.373-28.802-3.02-7.767-10.293-11.468-18.423-11.571-23.661-.3-47.332-.333-70.993-.02-32.938.436-65.871 1.275-98.806 1.956-13.432.278-26.865.545-40.295.914-10.148.28-20.292.689-30.436 1.087-6.536.257-9.87 6.202-6.794 11.679 7.68 13.678 15.215 27.438 22.833 41.152 8.671 15.612 17.387 31.199 26.049 46.816a20554 20554 0 0 1 24.932 45.126c11.376 20.634 22.732 41.279 34.103 61.916 11.896 21.592 23.776 43.193 35.705 64.767 9.491 17.167 19.084 34.278 28.56 51.453 8.278 15.003 16.454 30.062 24.68 45.093.69 1.259 1.426 2.492 2.257 3.94l17.024-9.314 9.858 17.63-56.178 30.164-8.168-17.437 14.675-8.45c-14.175-26.062-28.117-51.863-42.229-77.572-7.083-12.905-14.61-25.568-21.693-38.474-9.205-16.771-18.096-33.715-27.26-50.51-7.21-13.216-14.645-26.31-21.951-39.474-9.678-17.439-19.293-34.912-28.998-52.335-11.756-21.106-23.617-42.154-35.356-63.269-7.79-14.011-16.582-27.611-22.857-42.28-6.712-15.687-4.571-30.81 13.122-41.099 5.48-3.187 12.486-4.678 18.917-5.11 11.946-.805 23.99-.036 35.981-.344 11.236-.289 22.452-1.424 33.687-1.647 17.058-.338 34.127-.117 51.19-.305 17.792-.197 35.583-.603 53.374-.907 21.443-.365 42.885-.955 64.328-1.004 17.258-.04 30.894 7.576 39.807 22.245 3.605 5.933 5.393 13.063 7.46 19.817 2.955 9.66 5.457 19.461 8.06 29.227 1.755 6.589 3.305 13.231 5.032 19.828 1.605 6.136 3.38 12.228 4.977 18.366 2.674 10.267 5.494 20.505 7.82 30.852 1.756 7.805 2.801 15.768 4.227 23.649 2.007 11.096 3.58 22.302 6.245 33.241 3.125 12.835 6.992 25.572 15.593 36.08 10.895 13.312 23.385 24.986 38.288 33.637 8.523 4.948 17.757 8.675 26.714 12.86.83.387 1.974.15 2.97.132 14.788-.281 29.578-.498 44.363-.894 8.445-.226 16.905-.483 25.318-1.202 10.949-.935 20.549-5.782 28.18-13.267 10.392-10.192 20.307-20.967 29.495-32.251 6.225-7.645 9-17.078 9.291-27.263.42-14.688-1.59-29.052-3.962-43.467-1.548-9.401-2.06-18.97-3.159-28.449-1.27-10.947-2.64-21.883-4.03-32.815-1.866-14.672-3.828-29.33-5.68-44.004-1.152-9.125-2.519-18.242-3.159-27.407-.57-8.165 8.888-20.005 16.554-22.981 12.38-4.807 23.097-1.272 33.642 5.187 5.813 3.56 12.126 6.317 17.876 9.967 8.839 5.612 16.765 12.122 20.522 22.577 3.68 10.238 8.4 20.122 11.717 30.465 4.991 15.562 9.507 31.182 7.47 48.08-1.208 10.023-1.014 20.39.108 30.428.411 3.676 4.658 8.127 8.3 10.013 11.068 5.73 22.704 10.359 34.098 15.463 3.72 1.666 7.242 3.923 11.104 5.068 2.827.837 7.201 1.538 8.82.05 1.931-1.773 2.543-6.053 2.186-9.063-1.605-13.518-3.433-27.03-5.811-40.43-2.054-11.571-4.96-22.99-7.486-34.478-1.788-8.131-3.46-16.29-5.388-24.387-1.466-6.156-3.212-12.247-4.908-18.346-2.617-9.414-5.316-18.805-7.946-28.216-1.792-6.414-4.09-12.754-5.13-19.292-1.101-6.91-2.767-14.527-.939-20.904 2.257-7.87 8.848-14.087 18.09-13.794 8.813.279 17.688 1.46 26.342 3.206 9.552 1.927 18.903 4.877 28.305 7.51 13.77 3.855 27.51 7.815 41.258 11.749 13.11 3.751 26.257 7.383 39.306 11.337 11.047 3.347 21.923 7.255 32.971 10.598 15.107 4.57 30.337 8.733 45.452 13.277 10.195 3.064 20.204 6.761 30.44 9.669 9.734 2.765 19.674 4.803 29.49 7.289 9.746 2.467 19.43 5.18 29.18 7.63 12.663 3.183 25.372 6.182 38.048 9.317 10.436 2.582 20.84 5.288 31.277 7.866 15.197 3.754 30.423 7.389 45.611 11.177 12.76 3.182 25.42 6.798 38.244 9.695 12.453 2.813 25.08 4.842 37.587 7.431 8.471 1.755 16.832 4.041 25.3 5.807 11.998 2.5 24.065 4.668 36.075 7.11 15.857 3.224 31.63 6.883 47.543 9.79 18.683 3.415 37.497 6.11 56.217 9.33 13.88 2.388 27.67 5.297 41.555 7.648 19.237 3.256 38.52 6.234 57.793 9.278 16.852 2.662 33.69 5.428 50.58 7.819 16.25 2.3 32.576 4.049 48.834 6.28 12.688 1.743 25.318 3.898 37.989 5.772 3.426.506 6.9.72 10.36.959 10.392.718 20.795 1.281 31.179 2.09 15.955 1.242 31.896 2.651 47.847 3.95 1.822.15 3.671-.044 5.497.082 18.949 1.305 37.894 2.665 56.844 3.964 10.888.746 21.78 1.43 32.673 2.104 10.678.66 20.889 3.32 30.693 7.45 4.558 1.92 8.958 12.979 8.808 18.016-.441 14.702-10.332 22.44-20.76 30.197-17.933 13.34-37.73 23.478-57.228 34.168-13.316 7.3-26.45 14.933-39.69 22.373-15.836 8.897-31.67 17.796-47.554 26.606-18.73 10.388-37.476 20.748-56.28 31-24.51 13.361-49.077 26.618-73.634 39.892-10.128 5.475-20.172 11.123-30.473 16.252-14.304 7.123-28.981 5.204-43.745 1.222-8.179-2.207-16.537-3.748-24.818-5.575-8.419-1.856-16.805-3.884-25.272-5.489-9.171-1.738-18.423-3.047-27.632-4.594-7.759-1.304-15.5-2.718-23.26-4.011-5.971-.995-11.972-1.811-17.938-2.827-6.756-1.15-13.517-2.303-20.223-3.702-6.204-1.294-12.369-2.803-18.498-4.417-11.656-3.07-18.453-11.228-20.49-23.1-1.94-11.307-3.214-22.85-9.541-32.97-8.236-13.173-21.06-18.84-35.516-20.395-5.114-.55-10.987 2.605-15.996 5.106-11.766 5.876-23.068 12.682-34.836 18.553-16.922 8.443-34.737 14.595-53.216 18.636-5.436 1.188-11.068 1.59-16.634 2.058-13.963 1.175-24.008-6.583-32.96-15.633-12.262-12.395-23.87-25.436-35.792-38.17-10.536-11.252-20.924-22.652-31.738-33.63-9.008-9.146-19.684-14.947-33.127-14.494-9.784.329-19.59-.035-29.377.237-3.027.084-6.077 1.06-9.024 1.936-10.851 3.224-21.93 5.345-31.927 11.53-16.895 10.452-27.637 25.457-37.049 42.498-6.634 12.012-15.609 22.906-24.607 33.381-7.197 8.38-17.705 10.8-28.548 12.78-17.394 3.177-34.79.617-52.11 1.906-6.539.487-13.372 1.585-19.307 4.162-4.662 2.025-8.314 6.584-12.13 10.31-17.004 16.602-32.603 34.825-53.268 47.23-7.59 4.557-16.09 7.04-24.946 8.21-5.608.742-11.142 2.044-16.747 2.812-10.59 1.45-21.22 2.619-31.812 4.054-8.63 1.169-17.229 2.555-26.298 3.874"/></svg>