<svg xmlns="http://www.w3.org/2000/svg" viewBox="0 0 1883 691" xml:space="preserve"><path fill="#fff" d="M727.759 635.837c21.84-12.2 38.118-29.598 51.909-49.702 7.581-11.052 12.514-23.345 16.056-35.973 3.016-10.754 3.447-22.21 5.492-33.268 2.402-12.995-.335-25.473-3.04-37.979-2.533-11.707-5.362-23.35-7.976-35.04-3.085-13.792-5.956-27.634-9.151-41.402-2.446-10.539-5.428-20.955-7.847-31.5-2.58-11.244-4.75-22.582-7.156-33.866-1.587-7.441-3.925-14.786-4.78-22.305-1.526-13.396-2.412-26.88-3.142-40.349-.758-13.987 3.274-27.037 8.97-39.619 7.193-15.892 17.88-29.18 32.937-37.83 10.956-6.292 22.521-11.404 35.698-13.232 24.06-3.34 48.068-.862 72.08-1.488 14.25-.372 28.532.68 42.803.838 38.438.427 76.878.668 115.317 1.086 17.126.186 34.248.723 51.374.922 35.267.41 70.537.657 105.804 1.059 21.444.244 42.884.692 64.327.98 27.935.373 55.87.684 83.806 1.01 28.61.335 57.222.622 85.832.992 21.602.28 43.228.13 64.796 1.165 16.223.779 32.457 2.549 48.526 4.949 16.235 2.424 31.335 9.08 45.199 17.506 8.87 5.391 17.16 12.656 23.747 20.691 12.762 15.572 21.22 33.504 25.87 53.411 2.267 9.703 4.357 19.18 3.636 29.09-.996 13.692-3.442 27.02-9.187 39.713-5.316 11.745-12.413 22.328-20.819 31.836-9.501 10.746-20.287 19.865-34.087 25.573-21.984 9.092-44.758 11.02-67.93 9.577-12.83-.8-25.51-3.807-38.298-5.518-12.173-1.629-24.41-2.777-36.597-4.308-7.937-.997-15.83-2.337-23.752-3.459-8.43-1.194-16.871-2.305-25.306-3.466-7.776-1.07-15.552-2.138-23.323-3.24-6.3-.894-12.592-1.836-18.888-2.757-8.708-1.273-17.403-2.65-26.128-3.79-9.104-1.19-18.26-1.988-27.352-3.25-12.951-1.798-25.844-4.025-38.802-5.766-12.005-1.612-24.07-2.771-36.095-4.237-7.466-.91-14.909-2.017-22.362-3.037-9.57-1.311-19.148-2.578-28.711-3.947-13.272-1.9-26.515-4.018-39.805-5.78-12.017-1.594-24.091-2.76-36.121-4.264-6.477-.81-12.892-2.141-19.376-2.87-8.003-.899-16.037-1.715-24.079-2.04-21.072-.852-38.601 7.487-53.874 21.404-11.773 10.727-21.363 23.36-27.452 37.853-6.13 14.592-9.473 30.004-6.84 46.416 2.3 14.341 6.628 27.923 13.858 40.177 7.086 12.01 17 21.845 30.408 27.38 8.029 3.315 15.647 8.202 23.97 10.075 10.06 2.263 20.659 2.228 31.043 2.926 11.343.763 22.706 1.234 34.062 1.815 1.33.068 2.666.035 4 .036 31.331.03 62.664-.058 93.996.132 18.938.115 37.874.671 56.81 1.01 17.442.314 34.883.605 52.324.898 1.627.028 3.255.004 5.13.004v26.056c-4.737-.344-9.258-.677-13.78-.999-1.155-.082-2.313-.173-3.47-.184-37.434-.352-74.868-.641-112.3-1.06-19.102-.213-38.202-.672-57.303-.988-21.613-.358-43.245-.265-64.834-1.195-10.532-.454-20.992-2.73-31.47-4.285-16.225-2.408-29.869-10.83-43.062-19.658-14.57-9.75-24.75-23.293-32.22-39.364-5.78-12.439-9.939-25.321-11.974-38.566-1.78-11.589-2.316-23.663 1.051-35.421 2.047-7.146 2.826-14.703 5.343-21.652 2.225-6.14 5.625-11.993 9.297-17.441 6.119-9.08 11.985-18.598 19.567-26.36 10.54-10.789 22.814-19.616 36.818-25.995 10.455-4.762 21.504-6.905 32.542-8.548 7.507-1.117 15.46.294 23.162 1.071 8.93.901 17.807 2.347 26.706 3.554 9.373 1.272 18.742 2.574 28.12 3.8 8.437 1.102 16.903 2 25.325 3.198 12.913 1.838 25.792 3.907 38.701 5.774 5.983.865 12.002 1.484 18.004 2.215 8.436 1.027 16.883 1.972 25.304 3.107 6.292.848 12.542 1.997 18.826 2.91 11.308 1.644 22.616 3.296 33.946 4.78 6.826.896 13.704 1.392 20.538 2.232 7.77.955 15.52 2.09 23.276 3.152 6.937.951 13.872 1.917 20.81 2.866 7.764 1.063 15.537 2.065 23.293 3.186 8.229 1.19 16.43 2.573 24.665 3.717 8.259 1.149 16.546 2.101 24.819 3.152 7.602.965 15.208 1.902 22.8 2.936 6.616.9 13.208 1.968 19.823 2.87 8.099 1.107 16.216 2.074 24.314 3.182 9.874 1.35 19.702 3.152 29.613 4.088 11.956 1.13 23.88 1.632 35.922-.675 10.271-1.969 20.021-5.034 29.372-9.497 2.866-1.369 5.778-3.115 7.95-5.378 6.545-6.82 13.082-13.703 18.979-21.076 7.186-8.984 12.08-19.182 13.364-30.852.552-5.016 1.407-10 1.934-15.018 1.407-13.39-2.665-25.879-7.227-38.055-4.537-12.108-11.193-23.116-20.693-32.216-10.53-10.086-23.118-16.879-36.756-21.126-12.717-3.96-26.04-5.876-39.446-6.398a2443 2443 0 0 0-32.425-1.029c-14.748-.377-29.498-.795-44.249-.967-35.101-.41-70.205-.628-105.306-1.042-14.1-.166-28.195-.79-42.295-.945-37.932-.418-75.867-.641-113.8-1.052-19.266-.208-38.529-.753-57.795-.968-36.101-.404-72.205-.623-108.306-1.03-18.764-.21-37.525-.735-56.29-.983-28.933-.383-57.868-.703-86.804-.943-15.192-.125-30.418-.661-45.57.12-24.86 1.284-43.861 13.23-55.521 35.147-4.628 8.698-7.368 18.623-6.717 29.02.876 14.007 1.066 28.067 2.283 42.04.584 6.702 2.815 13.265 4.363 19.876 3.466 14.807 6.914 29.618 10.484 44.4 1.779 7.363 3.965 14.629 5.693 22.003 2.548 10.875 4.778 21.824 7.283 32.71 1.882 8.178 4.19 16.263 5.93 24.47 1.908 8.997 3.63 18.05 4.979 27.146 1.638 11.054 3.992 22.027 1.318 33.41-1.56 6.641-1.311 13.69-2.271 20.499a80.4 80.4 0 0 1-3.043 13.21c-3.135 9.801-5.967 19.776-10.099 29.162-3.674 8.346-8.186 16.554-13.637 23.843-14.679 19.629-30.99 37.841-52.81 49.888-9.062 5.003-18.622 9.26-28.298 12.956-9.428 3.602-19.221 6.333-29 8.885-4.233 1.104-8.83 1.002-13.269 1.1-15.188.33-30.53 1.232-45.293-3.033-11.586-3.347-22.653-8.464-34.193-12.007-14.048-4.314-24.956-13.636-35.846-22.49-10.463-8.508-19.408-18.997-26.132-30.962-5.546-9.87-11.416-19.634-15.988-29.956-4.793-10.82-7.72-22.457-12.362-33.354-5.027-11.799-2.481-24.538-5.627-36.528-.614-2.34 1.798-5.34 1.604-7.944-.978-13.12 3.656-25.075 7.468-37.136 5.674-17.953 13.373-35.078 22.75-51.422 12.406-21.623 24.845-43.227 37.27-64.839 5.673-9.865 9.27-19.981 4.752-31.454-3.62-9.189-9.978-14.618-19.7-16.93-20.056-4.769-40.294-4.901-60.748-4.37-20.56.534-41.158-.231-61.737-.56-11.1-.178-22.195-.783-33.295-.936-30.284-.417-60.57-.598-90.853-1.056-36.699-.555-73.394-1.274-110.09-1.97-14.432-.274-28.861-.669-43.291-1.024-11.936-.293-24.036.494-35.756-1.258-9.7-1.45-19.381-5.002-28.31-9.23-17.6-8.335-30.283-22.673-41.237-38.273-4.464-6.357-7.078-14.115-9.935-21.469a130.5 130.5 0 0 1-5.82-19.303c-1.045-4.78-.883-9.823-1.287-14.746-1.232-15.044 3.132-29.012 7.976-42.954 5.981-17.218 16.173-31.922 28.38-44.946 6.658-7.102 15.493-12.386 23.933-17.527 7.698-4.689 16.093-8.292 24.372-11.94 3.636-1.602 7.71-2.304 11.649-3.097 4.451-.897 8.97-1.466 13.467-2.127 15.82-2.329 31.6-5.033 47.481-6.841 16.158-1.84 32.426-2.68 48.627-4.166 12.232-1.123 24.418-2.77 36.655-3.827 11.166-.964 22.386-1.305 33.562-2.181 14.742-1.156 29.459-2.618 44.196-3.84 6.092-.506 12.215-.635 18.312-1.098 16.564-1.258 33.122-2.608 49.684-3.904 1.16-.09 2.333-.024 3.498-.063 20.199-.683 40.4-1.29 60.595-2.087 13.036-.515 26.058-1.377 39.092-1.961 22.963-1.029 45.925-2.522 68.9-2.777 22.189-.246 44.394.747 66.588 1.359 8.654.238 17.293.984 25.944 1.373 3.84.173 7.695-.014 11.541.049 21.432.347 42.864.703 64.295 1.092 15.77.286 31.54.589 47.307.953 27.866.643 55.731 1.329 83.596 2.017q40.054.991 80.106 2.021c25.37.653 50.74 1.315 76.11 2.003 10.439.283 20.875.676 31.314.966 13.43.374 26.862.713 40.295 1.034 14.605.348 29.215.53 43.816 1.02 14.873.5 29.748 1.099 44.601 1.993 18.903 1.137 37.79 2.546 56.673 3.964 16.554 1.242 33.115 2.442 49.633 4.067 12.857 1.265 25.639 3.267 38.478 4.738 13.19 1.512 26.42 2.695 39.614 4.18 8.428.95 16.826 2.174 25.234 3.3 6.461.866 12.917 1.78 19.377 2.659 9.543 1.297 19.08 2.647 28.634 3.851 8.94 1.126 17.909 2.028 26.85 3.146 7.623.953 15.225 2.078 22.837 3.116 7.103.97 14.212 1.893 21.31 2.894 8.525 1.202 17.023 2.614 25.567 3.647 5.883.711 11.834.846 17.74 1.389 13.892 1.278 27.791 2.502 41.658 4.015 16.91 1.846 33.85 3.564 50.667 6.075 17.635 2.633 34.275 8.857 50.607 15.888 17.792 7.66 34.346 17.082 48.022 31.192 5.27 5.438 12.038 9.417 17.352 14.82 6.552 6.66 12.48 13.967 18.36 21.251 14.688 18.196 23.551 39.56 31.798 61.07 2.913 7.598 4.036 16.182 4.43 24.39 1.148 23.841 1.548 47.719 2.174 71.584.387 14.77.6 29.545.98 44.315.627 24.372 1.25 48.745 2.02 73.113.519 16.374.984 32.76 2.044 49.103.888 13.697-1.21 26.794-6.362 39.367-1.686 4.114-4.44 7.868-7.114 11.485-9.285 12.563-23.328 18.144-37.02 23.633-6.63 2.659-14.38 2.979-21.679 3.412-12.586.748-25.216 1.015-37.827 1.006-13.263-.009-26.523-.673-39.787-.88-25.765-.404-51.535-.554-77.298-1.074-13.859-.28-27.703-1.498-41.56-1.614-36.543-.308-73.09-.165-109.634-.372-13.432-.075-26.86-.658-40.292-.954-15.931-.35-31.864-.645-47.797-.942-.633-.012-1.27.196-2.144.34v18.348h-20.132v-61.25h19.887v17.422c1.456.115 2.267.23 3.078.236 43.44.376 86.88.692 130.32 1.137 15.439.157 30.874.726 46.313.926 31.437.408 62.877.637 94.314 1.05 16.278.214 32.551.725 48.828.99 22.771.37 45.56 1.253 68.31.68 11.038-.278 22.08-2.743 32.117-8.513 5.602-3.221 11.083-6.63 13.878-12.296 2.731-5.535 5.153-11.823 5.395-17.873.7-17.471.47-34.993.174-52.488-.477-28.289-1.267-56.573-1.982-84.858-.625-24.71-1.324-49.418-2.001-74.127-.287-10.445-.034-20.945-1.045-31.321-1.39-14.265-4.264-28.316-10.82-41.281-5.202-10.288-9.684-21.108-16.159-30.544-9.538-13.901-20.37-26.808-33.919-37.41-9.079-7.103-16.897-15.938-27.437-21.019-11.895-5.734-24.162-10.689-36.15-16.237-9.845-4.558-20.588-5.3-30.942-7.611-5.576-1.245-11.523-.718-17.254-1.401-15.451-1.843-30.86-4.049-46.32-5.824-8.661-.995-17.407-1.242-26.081-2.152-10.079-1.057-20.118-2.483-30.178-3.724-6.35-.783-12.71-1.475-19.056-2.285-11.512-1.47-23.013-3.03-34.527-4.491-12.037-1.528-24.089-2.934-36.122-4.49-8.265-1.068-16.513-2.278-24.763-3.465-5.327-.767-10.63-1.72-15.97-2.384-6.677-.83-13.384-1.41-20.07-2.169a6374 6374 0 0 1-36.665-4.253c-6.986-.834-13.948-1.889-20.941-2.654-12.892-1.41-25.787-2.809-38.703-3.964-10.016-.896-20.068-1.374-30.1-2.108-17.74-1.296-35.472-2.699-53.215-3.946-7.094-.498-14.206-.81-21.315-1.016-15.273-.443-30.55-.753-45.825-1.133-13.037-.324-26.079-.538-39.109-1.048-10.218-.401-20.415-1.452-30.634-1.723-12.189-.323-24.394.049-36.587-.183-30.879-.586-61.756-1.305-92.632-2.04-25.213-.602-50.423-1.319-75.635-1.955-27.406-.692-54.814-1.351-82.22-2.021-27.706-.677-55.413-1.33-83.118-2.03-25.044-.634-50.089-1.253-75.129-2-17.882-.535-35.757-1.771-53.635-1.775-16.543-.003-33.089 1.159-49.628 1.915-12.543.574-25.08 1.28-37.616 1.995-16.486.942-32.968 1.94-49.45 2.94-4.937.3-9.869.7-14.804 1.032-19.415 1.308-38.832 2.602-58.247 3.912-10.208.689-20.425 1.285-30.62 2.127-18.696 1.545-37.374 3.3-56.07 4.85-9.855.818-19.74 1.288-29.597 2.09a4285 4285 0 0 0-45.189 3.932c-9.966.917-19.975 1.621-29.859 3.123-14.826 2.253-29.494 5.605-44.348 7.598-16.218 2.177-28.612 11.465-41.004 20.69-8.722 6.494-14.52 15.713-20.258 24.902-6.265 10.032-9.438 21.012-12.353 32.33-5.045 19.59 1.415 36.922 9.378 53.99 4.792 10.269 12.158 18.562 20.974 25.906 6.038 5.03 12.413 9.149 19.6 11.707 5.88 2.092 12.256 3.736 18.445 3.852 37.096.696 74.203.843 111.305 1.286 11.442.137 22.879.729 34.321.927 23.603.41 47.208.66 70.811 1.041 17.11.276 34.219.647 51.327.99 15.77.316 31.54.703 47.31.968 23.112.388 46.24.297 69.332 1.176 15.258.581 30.58 1.741 45.665 4.024 18.8 2.845 32.647 13.87 40.169 31.119 3.991 9.153 6.508 19.655 4.27 29.827-1.65 7.499-4.775 14.9-8.46 21.683-10.586 19.483-21.826 38.61-32.736 57.918-5.574 9.863-11.47 19.585-16.36 29.784-6.07 12.655-11.515 25.671-14.186 39.56-1.658 8.621-3.82 17.387-3.675 26.053.186 11.133 2.21 22.157 5.122 33.15 5.834 22.028 16.704 41.585 29.163 59.979 11.622 17.157 27.895 30.103 47.742 37.588 9.215 3.475 18.49 6.852 27.92 9.667 4.967 1.483 10.336 2.382 15.5 2.288 12.185-.224 24.545-.104 36.486-2.154 14.452-2.481 28.29-7.757 41.635-14.967"/></svg>