<svg xmlns="http://www.w3.org/2000/svg" viewBox="0 0 1876 709" xml:space="preserve"><path fill="#fff" d="M1221 554.07c37.705.651 74.91 1.295 112.627 1.949v24.94c-1.454 0-3.225.016-4.996-.002-34.601-.362-69.202-.709-103.803-1.1-25.464-.288-50.928-.58-76.39-.981-13.434-.212-26.865-.664-40.297-1.003-11.94-.3-23.905-.215-35.81-1.03-7.57-.516-15.017-3.117-22.579-3.455-15.008-.67-26.73-9.437-38.891-16.074-11.439-6.243-22.11-15.056-28.674-27.073-5.988-10.962-12.376-21.928-16.513-33.626-6.033-17.056-8.093-35.353-5.179-53.096 3.513-21.387 12.146-40.96 26.273-58.233 8.249-10.085 16.813-19.84 27.258-27.073 11.838-8.197 25.106-14.27 39.662-17.251 13.687-2.803 27.07-1.884 40.667-.004 14.604 2.02 29.319 3.234 43.937 5.165 12.43 1.642 24.78 3.891 37.192 5.7 6.475.943 13.013 1.453 19.509 2.27 8.594 1.083 17.177 2.264 25.761 3.423 8.582 1.16 17.164 2.316 25.738 3.525 6.785.957 13.562 1.974 20.337 2.997 6.436.971 12.847 2.128 19.3 2.953 13.804 1.763 27.646 3.225 41.438 5.073 12.922 1.732 25.794 3.837 38.698 5.708 5.818.844 11.66 1.535 17.494 2.267 8.273 1.038 16.558 1.989 24.822 3.09 9.225 1.23 18.435 2.573 27.647 3.891 8.238 1.18 16.47 2.408 24.708 3.588 5.815.832 11.63 1.68 17.459 2.411 8.594 1.077 17.212 1.966 25.798 3.105 6.299.837 12.529 2.35 18.846 2.849 12.499.985 25.034 1.534 37.56 2.157 14.822.737 28.712-3.027 42.125-8.979 12.3-5.457 20.276-15.582 28.346-25.756 5.941-7.49 9.921-15.866 13.073-24.74 4.27-12.023 5.678-24.803 3.518-36.967-3.555-20.028-10.945-39.163-25.074-54.335-9.805-10.529-22.351-17.69-36.118-22.49-16.181-5.643-32.962-7.236-49.896-7.986-8.77-.389-17.543-.83-26.319-.961-28.431-.423-56.865-.714-85.297-1.056-27.607-.333-55.215-.616-82.821-1.021-14.436-.213-28.867-.783-43.303-.946-35.438-.4-70.878-.603-106.316-.997-21.273-.236-42.542-.766-63.815-1.013-33.438-.39-66.878-.59-100.315-.992-17.44-.21-34.876-.834-52.316-.994-43.628-.4-87.263-1.14-130.884-.664-14.477.158-27.41 6.737-38.678 16.426-9.371 8.059-14.978 18.293-19.06 29.478-1.694 4.643-2.485 9.903-2.387 14.858.296 15.025.54 30.112 2.147 45.03 1.102 10.239 4.442 20.236 6.78 30.342 2.664 11.515 5.215 23.057 8.016 34.539 3.493 14.315 7.386 28.534 10.75 42.878 3.92 16.718 7.709 33.476 11.061 50.314 2.164 10.868 4.71 21.903 4.794 32.881.104 13.513-.482 27.221-4.601 40.437-1.532 4.915-1.69 10.252-3.145 15.2-1.701 5.79-3.993 11.42-6.278 17.018-4.93 12.075-11.258 23.409-19.402 33.598-15.731 19.68-32.714 38.095-56.068 48.974-11.367 5.295-22.88 10.542-34.801 14.304-11.595 3.659-23.667 6.097-36.102 5.456-10.775-.555-21.606-.31-32.344-1.225-5.557-.473-11.099-2.322-16.413-4.21-8.493-3.017-16.666-6.96-25.209-9.812-8.433-2.815-15.396-7.826-22.701-12.593-18.707-12.209-32.261-28.862-43.436-47.826-8.78-14.898-16.536-30.336-21.589-46.84-3.54-11.564-6.111-23.33-7.004-35.736-1-13.899.043-27.401 2.938-40.586 2.57-11.698 8.388-22.642 12.037-34.152 5.073-16.003 14.343-29.785 22.362-44.224 10.836-19.511 22.066-38.804 33.038-58.24 7.733-13.696 5.241-28.765-4.598-37.88-6.739-6.24-15.34-7.427-23.826-8.645-31.408-4.506-63.016-.936-94.512-2.126-11.099-.419-22.203-.789-33.308-.963-26.1-.41-52.203-.64-78.304-1.039-15.454-.235-30.906-.633-46.359-.991-12.935-.3-25.868-.759-38.804-.952-27.938-.417-55.878-.655-83.816-1.076-12.267-.186-24.532-.963-36.795-.896-18.096.099-34.89-4.397-50.047-14.06-11.079-7.062-20.401-16.232-28.659-26.573-8.248-10.33-13.315-22.304-17.423-34.45-3.223-9.53-3.71-19.99-5.35-30.047-1.838-11.277 2.069-21.69 4.723-32.35 3.655-14.68 10.751-27.599 19.172-39.922C62.051 100.825 75.36 89.73 90.841 81.097c10.605-5.913 21.308-11.461 33.598-13.212 9.493-1.351 18.904-3.262 28.368-4.824 6.91-1.14 13.842-2.136 20.77-3.159 6.62-.977 13.222-2.164 19.875-2.808 18.328-1.775 36.668-3.435 55.023-4.9 11.677-.933 23.405-1.24 35.081-2.187 13.235-1.073 26.427-2.668 39.658-3.8 7.245-.621 14.537-.658 21.797-1.127 20.075-1.295 40.142-2.694 60.215-4.023 10.373-.686 20.745-1.426 31.127-1.935 16.032-.786 32.074-1.358 48.109-2.088 13.538-.617 27.07-1.346 40.607-1.997 20.47-.986 40.931-2.457 61.41-2.776 20.428-.317 40.878.391 61.31.936 8.377.224 16.727 1.603 25.101 1.747 17.854.307 35.72-.075 53.575.235 26.541.461 53.078 1.254 79.615 1.949 24.373.638 48.744 1.33 73.116 2.005 24.057.666 48.115 1.327 72.17 2.022 8.443.244 16.881.65 25.324.863 16.432.418 32.866.764 49.3 1.117 15.94.342 31.88.628 47.819.987 29.038.655 58.078 1.248 87.112 2.063 14.878.418 29.754 1.078 44.611 1.958 19.576 1.159 39.139 2.556 58.694 4.02 10.65.797 21.27 1.985 31.909 2.925 15.561 1.375 31.16 2.398 46.684 4.11 14.276 1.574 28.45 4.049 42.712 5.78 13.34 1.618 26.769 2.511 40.096 4.213 15.387 1.964 30.682 4.64 46.06 6.676 12.495 1.654 25.066 2.723 37.58 4.242 7.451.904 14.851 2.23 22.288 3.269 9.071 1.268 18.146 2.518 27.238 3.623a2179 2179 0 0 0 33.688 3.823c8.003.846 16.043 1.352 24.037 2.262 10.053 1.145 20.069 2.612 30.116 3.814 6.996.836 14.035 1.329 21.025 2.21 12.02 1.513 23.905 4.244 33.877 11.2 5.053 3.524 8.67 9.375 12.304 14.612 7.206 10.383 13.556 21.375 21.025 31.555 9.84 13.415 21.93 24.343 37.745 30.656 12.693 5.068 25.697 9.651 37.705 16.058 12.845 6.853 22.807 16.689 28.108 31.38 6.784 18.803 9.333 37.935 9.517 57.672.225 24.1.565 48.199 1.085 72.293.5 23.21 1.238 46.414 1.976 69.618.584 18.374 1.318 36.744 2.002 55.115.272 7.276.355 14.57.94 21.821 1.015 12.568-2.499 24.109-6.296 35.913-3.675 11.423-12.237 18.82-20.832 24.64-9.464 6.41-20.358 12.131-32.516 13.24-11.436 1.041-22.866 2.582-34.324 2.856-13.242.317-26.51-.633-39.77-.818-30.126-.42-60.255-.657-90.38-1.076-13.438-.187-26.87-.755-40.308-.94-29.932-.41-59.866-.651-89.798-1.032-21.495-.274-42.986-.766-64.48-.97-17.067-.16-34.137-.032-51.646-.032v13.871h-18.904v-56.37h18.712v16.765c13.077 0 25.636-.078 38.194.014 40.605.298 81.211.604 121.816 1.026 12.602.132 25.198.792 37.8.955 31.44.406 62.882.604 94.322 1.01 13.777.178 27.55.721 41.326.987 18.937.365 37.899 1.31 56.806.68 11.911-.397 24.113-2.06 34.406-9.252 4.914-3.433 10.699-6.629 13.772-11.419 3.432-5.349 5.5-12.301 5.92-18.703.87-13.276.376-26.65.216-39.982-.15-12.513-.563-25.022-.914-37.532-.315-11.268-.727-22.533-1.05-33.802a5454 5454 0 0 1-.932-35.83c-.695-31.54-1.28-63.083-2.102-94.62a64.3 64.3 0 0 0-2.047-14.505c-2.159-8.234-4.945-16.303-7.457-24.445-3.028-9.818-10.975-14.77-19.448-18.677-14.806-6.826-30.101-12.612-44.778-19.69-10.28-4.959-18.578-12.828-26.22-21.397-8.518-9.55-15.368-20.114-21.775-31.142-3.926-6.758-8.575-13.55-14.394-18.606-4.4-3.823-10.984-5.98-16.92-7.012-12.076-2.099-24.381-2.854-36.574-4.311-15.921-1.903-31.814-4.046-47.742-5.891-8.005-.927-16.08-1.248-24.087-2.159-11.062-1.258-22.089-2.822-33.133-4.24-6.97-.896-13.946-1.74-20.914-2.65-7.946-1.038-15.883-2.144-23.828-3.182a4088 4088 0 0 0-22.36-2.844c-8.943-1.12-17.897-2.164-26.833-3.344-8.59-1.135-17.156-2.453-25.745-3.595-10.047-1.334-20.1-2.626-30.164-3.82-7.164-.848-14.361-1.419-21.526-2.263-9.746-1.15-19.467-2.509-29.214-3.645-4.907-.572-9.844-.896-14.773-1.253a27666 27666 0 0 0-57.714-4.118c-10.033-.705-20.075-1.275-30.103-2.038-16.239-1.235-32.45-3.02-48.709-3.745-14.638-.653-29.331.012-43.993-.273-26.206-.51-52.407-1.272-78.61-1.979-9.774-.263-19.542-.763-29.317-.987-17.77-.407-35.544-.585-53.311-1.048-21.214-.553-42.421-1.338-63.633-1.958-13.273-.387-26.554-.539-39.824-1.008-13.876-.49-27.74-1.317-41.616-1.828-6.184-.227-12.386.055-18.576-.063-16.768-.32-33.534-.773-50.303-1.093-19.959-.382-39.921-.598-59.88-1.035-26.543-.582-53.087-1.22-79.626-2.007-14.892-.442-29.784-1.908-44.658-1.696-17.82.254-35.623 1.793-53.431 2.801-5.27.299-10.53.775-15.801 1.012-16.038.723-32.084 1.299-48.12 2.07-11.21.54-22.41 1.32-33.615 1.97-17.147.995-34.305 1.82-51.44 2.998-16.578 1.14-33.141 2.537-49.694 4.005-12.91 1.145-25.783 2.724-38.697 3.827-10.848.927-21.74 1.325-32.596 2.176-15.083 1.182-30.156 2.508-45.222 3.888-9.967.913-19.936 1.858-29.864 3.109-7.426.936-14.788 2.379-22.177 3.603-8.815 1.46-17.775 2.361-26.396 4.576-6.475 1.664-12.924 4.338-18.653 7.78-8.87 5.331-17.872 10.889-25.394 17.882-6.193 5.758-10.516 13.608-15.313 20.768-6.584 9.826-9.451 21.012-12.13 32.445-2.257 9.627-2.186 18.822.28 28.134 3.757 14.195 8.057 28.22 18.589 39.178 5.807 6.042 11.276 12.73 18.077 17.416 8.613 5.934 18.533 10.069 29.337 10.308 23.763.525 47.533.738 71.3 1.094 20.61.308 41.225.49 61.83 1.01 13.206.333 26.395 1.554 39.6 1.717 26.202.323 52.412-.018 78.614.293 42.21.5 84.418 1.275 126.625 2.002 11.472.197 22.98.155 34.394 1.132 8.378.718 16.586 3.832 24.948 4.229 10.45.495 17.479 7.075 24.76 12.566 8.028 6.052 12.13 15.4 14.98 25.212 4.664 16.058 1.119 30.687-6.695 44.742-12.493 22.474-24.507 45.242-37.797 67.236-8.184 13.545-15.117 27.519-20.428 42.302-3.939 10.962-8.004 22.069-8.075 33.921-.064 10.788.05 21.638 1.174 32.347.62 5.907 3.208 11.684 5.39 17.333 3.59 9.293 6.897 18.79 11.528 27.566 10.412 19.733 21.905 38.49 41.128 51.653 12.719 8.709 26.604 13.64 40.713 19.015 17.43 6.641 35.325 6.85 52.996 5.152 12.46-1.196 24.619-6.402 36.7-10.451 18.052-6.051 32.649-17.519 45.791-30.941 11.023-11.26 21.081-23.367 27.667-37.785 5.556-12.161 10.087-24.775 12.024-38.145 1.284-8.865 2.772-17.704 3.847-26.594.326-2.697-.31-5.54-.703-8.288-.994-6.947-1.983-13.898-3.198-20.809-.984-5.598-2.265-11.146-3.464-16.705-1.813-8.401-3.543-16.822-5.544-25.178-1.692-7.064-3.896-14.005-5.557-21.075-2.6-11.067-4.917-22.2-7.388-33.297a2256 2256 0 0 0-4.43-19.389c-2.856-12.317-5.72-24.634-8.607-36.944-4.371-18.637-6.042-37.558-5.96-56.66.058-13.611 3.865-26.384 9.818-38.397 3.67-7.405 7.81-14.925 13.282-21.003 7.5-8.33 16.187-15.706 26.997-19.888a115 115 0 0 0 9.208-4.062c10.783-5.299 22.48-6.48 34.14-6.779 18.32-.468 36.664-.21 54.996-.027 15.103.15 30.2.767 45.303.946 34.605.41 69.212.627 103.816 1.022 20.962.24 41.92.733 62.881.99 32.601.398 65.204.662 97.805 1.042 24.441.284 48.882.654 73.323 1 22.103.313 44.206.68 66.31.961 28.654.364 57.31.655 85.965.998 27.29.326 54.598.174 81.86 1.208 16.545.627 33.13 2.397 49.495 4.945 17.215 2.68 33.396 9.281 47.826 19.005 20.44 13.771 34.757 32.7 42.752 56.104 3.348 9.8 6.924 19.678 8.673 29.817 1.295 7.506.103 15.517-.546 23.255a80.3 80.3 0 0 1-2.943 15.835c-2.12 7.218-4.281 14.559-7.611 21.257-6.452 12.978-15.095 24.486-25.365 34.835-12.34 12.433-27.444 19.795-43.953 24.305-16.832 4.598-34.233 5.33-51.515 3.994-12.482-.966-24.809-3.815-37.242-5.562-9.237-1.297-18.543-2.092-27.8-3.253-15.423-1.934-30.848-3.863-46.24-6.02-12.755-1.787-25.438-4.095-38.202-5.811-12.175-1.637-24.434-2.64-36.614-4.237-9.542-1.25-19-3.136-28.533-4.46-11.676-1.623-23.405-2.863-35.088-4.444-7.257-.981-14.462-2.34-21.705-3.43-6.136-.923-12.295-1.693-18.44-2.547-16.521-2.296-33.024-4.732-49.566-6.86-12.342-1.589-24.743-2.706-37.1-4.182-7.139-.853-14.24-2.014-21.361-3.014-9.384-1.319-18.753-2.766-28.16-3.89-15.14-1.807-30.276-4.14-45.474-4.756-7.368-.299-15.27 1.793-22.236 4.556-16.489 6.543-30.581 16.556-40.342 31.914-4.956 7.8-10.652 15.145-15.336 23.095-2.15 3.648-3.104 8.184-3.832 12.449-1.423 8.342-3.125 16.767-3.235 25.176-.193 14.859 4.49 28.702 10.705 42.13 3.752 8.106 8.493 15.436 14.792 21.629 7.861 7.728 17.338 13.072 27.21 17.969 15.29 7.584 31.505 8.918 48.132 9.021 21.47.134 42.937.686 64.406.996 23.388.338 46.777.604 70.665.909"/></svg>