<svg xmlns="http://www.w3.org/2000/svg" viewBox="0 0 1885 833" xml:space="preserve"><path fill="#fff" d="M484.21 589.703c11.112-4.64 21.79-9.51 32.622-14.016 9.536-3.967 19.02-8.097 28.509-12.138 8.77-3.734 17.59-7.62 26.186-11.92 6.686-3.345 14.104-5.705 21.107-8.695 9.204-3.93 18.004-8.919 27.4-12.267 12.724-4.534 24.603-10.908 37.074-15.985 10.506-4.277 20.884-9.196 31.219-13.996 8.733-4.056 17.749-7.772 26.646-11.63 14.08-6.108 28.295-11.852 42.202-18.411 11.617-5.479 23.588-10.334 35.42-15.422 14.252-6.127 28.314-12.717 42.626-18.637 14.088-5.828 28.116-11.852 42.058-17.965 13.37-5.862 26.628-12.172 40.015-17.954 14.774-6.38 29.5-12.944 44.407-19.06 15.91-6.53 31.534-13.752 47.314-20.6 16.252-7.053 32.673-13.73 48.78-21.1 18.394-8.418 37.042-16.27 55.577-24.339 12.361-5.382 24.913-10.52 37.302-15.856 15.416-6.639 30.813-13.371 46.193-20.118 15.648-6.864 31.28-13.763 46.96-20.553 14.11-6.111 28.202-12.277 42.303-18.395 15.213-6.6 30.511-13.041 45.715-19.678 9.48-4.138 18.9-8.51 28.444-12.402 13.762-5.613 27.225-11.88 40.922-17.62 15.706-6.581 31.054-14.036 46.862-20.348 11.108-4.435 22.087-9.223 33.054-13.922 13.64-5.844 27.287-11.764 40.784-17.987 10.664-4.917 21.667-9.093 32.47-13.712 11.897-5.086 23.737-10.303 35.602-15.461 10.356-4.502 20.649-9.16 31.095-13.441 6.315-2.589 12.104-6.46 18.998-7.689 3.063-.546 3.073-2.472 1.773-4.977-4.6-8.865-9.03-17.82-13.605-26.698-1.082-2.098-1.39-3.52 1.298-4.677 3.994-1.722 7.82-3.834 11.734-5.745 1.564-.764 3.32-1.96 3.788 1.132.043.28.437.489.587.774 4.93 9.365 4.932 9.376 14.654 5.805 13.278-4.877 26.948-8.41 40.606-12 8.259-2.17 16.37-5.147 24.75-6.524 5.267-.865 10.61-1.615 15.92-2.42 7.698-1.169 15.443-2.054 23.099-3.44 1.63-.296 3.231-.549 4.85-.555 12.712-.052 25.443.378 38.13-.195 9.227-.416 17.609 2.991 26.38 4.505 3.115.537 5.752 4.015 8.64 6.106 10.374 7.508 18.592 17.098 23.822 28.767 3.941 8.796 2.85 18.38 1.975 27.73-.75 8.01-4.606 15-9.327 20.98-6.066 7.68-14.268 13.1-24.48 13.958-14.74 1.237-28.69-2.405-42.832-6.295-14.11-3.88-27.644-9.493-41.908-12.827-5.892-1.378-11.656-3.584-17.195-6.05-2.402-1.07-4.825-.91-7.124-1.326-10.349-1.873-20.461-5.448-31.089-5.32-3.835.047-7.662.019-11.476-.167-6.296-.306-12.022 2.02-17.95 3.458-6.568 1.594-13.276 2.711-19.713 4.71-6.12 1.9-12.173 4.267-17.896 7.144-10.97 5.513-22.605 9.428-33.689 14.653-12.172 5.739-24.72 10.627-36.88 16.44-10.056 4.808-20.888 7.997-30.925 12.84-8.815 4.252-17.846 8.03-26.83 11.777-12.705 5.3-25.064 11.398-37.99 16.228-7.015 2.62-13.71 6.202-20.69 9.087-14.354 5.932-28.528 12.31-42.682 18.714-13.85 6.267-27.838 12.252-41.836 18.13-11.02 4.628-21.908 9.615-32.978 14.149-8.942 3.662-17.82 7.666-26.68 11.617-15.388 6.863-31.041 13.142-46.35 20.173-6.968 3.201-14.073 6.207-21.104 9.12-14.464 5.992-28.543 12.823-42.99 18.83-12.4 5.156-24.426 11.22-36.857 16.29-15.333 6.255-30.534 12.793-45.638 19.568-14.119 6.332-28.485 12.102-42.646 18.34-13.84 6.096-27.911 11.847-41.842 17.825-10.723 4.602-21.364 9.438-32.01 14.218-13.443 6.034-27.083 11.68-40.57 17.654-10.852 4.805-21.701 9.62-32.537 14.45-8.408 3.747-17.194 6.812-25.534 10.741-17.293 8.146-35.117 15.06-52.438 23.166-10.413 4.873-21.189 9.174-31.793 13.74-20.151 8.68-40.02 18.024-60.251 26.506-18.82 7.89-37.382 16.347-56.103 24.451-11.005 4.764-21.883 9.865-32.94 14.45-15.625 6.478-30.908 13.743-46.743 19.77-12.222 4.652-23.877 10.778-35.849 16.105-9.773 4.349-19.665 8.43-29.46 12.728-14.5 6.363-28.844 13.1-43.476 19.138-11.824 4.88-23.2 10.668-34.748 16.098-13.354 6.278-26.47 13.056-39.744 19.508-18.785 9.13-37.65 18.099-56.423 27.256-12.69 6.19-25.237 12.676-37.926 18.87-20.006 9.768-40.103 19.347-60.111 29.108-21.602 10.538-43.115 21.256-64.723 31.782-20.142 9.812-40.526 19.144-60.493 29.298-18.957 9.64-38.393 18.293-57.147 28.357-13.011 6.981-27.233 8.956-41.862 7.49-12.756-1.277-21.674-12.102-19.778-24.85 1.096-7.367 5.944-12.676 12.83-16.02 13.034-6.331 26.712-10.686 40.679-14.446 7.385-1.988 14.232-5.92 21.582-8.098 14.581-4.32 27.165-12.73 40.781-19.001 17.982-8.281 35.534-17.466 53.405-25.924 21.42-10.138 42.65-20.668 64.086-30.772 24.982-11.776 49.815-23.88 74.638-35.983 19.336-9.427 38.731-18.753 57.972-28.384 14.63-7.324 29.374-14.426 44.021-21.714 11.974-5.96 23.975-12.072 36.294-17.228 25.996-10.881 51.632-22.55 77.428-33.869 11.16-4.897 22.186-10.133 33.347-14.958 13.559-5.861 27.131-11.722 40.669-17.647 9.217-4.034 18.241-8.596 27.491-12.456 11.681-4.873 23.24-9.998 34.765-15.203 13.979-6.315 28.237-11.985 42-18.813 8.725-4.328 17.994-7.541 26.917-11.485 18.42-8.14 36.65-16.727 55.193-24.57 13.29-5.62 26.453-11.5 39.606-17.417 12.36-5.56 24.541-11.613 37.197-16.404 12.704-4.809 24.734-11.074 37.345-16.086 8.406-3.34 16.63-7.41 24.921-11.173 13.307-6.04 26.64-12.047 40.025-17.89 16.084-7.019 32.173-14.02 48.234-21.098 11.507-5.07 23.053-10.14 34.701-14.863 14.114-5.723 27.739-12.54 42.045-17.854 10.521-3.908 20.201-10.077 30.715-14.013 13.986-5.238 27.294-11.928 41.031-17.673 9.244-3.866 18.401-7.94 27.59-11.937 16.619-7.23 33.181-14.631 49.879-21.629 22.275-9.334 44.004-19.905 66.562-28.61 14.12-5.448 27.478-12.849 41.523-18.516 11.306-4.561 22.07-10.365 33.437-14.59 12.87-4.782 25.11-10.944 37.84-16.02 10.659-4.251 21.213-9.005 31.677-13.85 8.677-4.016 17.963-6.844 26.41-11.148 10.14-5.164 20.802-9.014 30.99-14 9.17-4.488 18.95-7.707 28.31-11.83 11.536-5.08 22.936-10.474 34.345-15.84 2.315-1.088 5.065-.84 7.155-2.834.763-.728 2.625-.596 3.445 1.447 1.795 4.474 3.952 8.805 6.04 13.157.828 1.725 1.161 2.31-1.33 3.367-11.71 4.972-23.487 9.87-35.014 15.167-10.274 4.723-20.869 8.752-30.985 13.905-10.328 5.26-21.38 9.084-32.016 13.763-14.002 6.16-28.194 11.867-42.044 18.4-10.64 5.019-21.797 8.929-32.587 13.646-13.424 5.87-26.652 12.19-40.073 18.065-6.961 3.047-14.112 5.639-21.052 8.781-12.638 5.723-25.463 11.03-38.189 16.56-14.146 6.148-28.268 12.35-42.4 18.532-14.457 6.324-28.908 12.662-43.37 18.975-13.01 5.68-26.025 11.348-39.05 16.995-12.726 5.518-25.476 10.98-38.198 16.51-13.36 5.809-26.676 11.715-40.049 17.493-17.087 7.382-34.076 15.01-51.166 22.353-12.512 5.377-25.02 10.878-37.714 15.908-10.046 3.98-19.847 8.718-29.778 13.071-9.461 4.147-18.845 8.47-28.282 12.671-15.279 6.802-30.544 13.636-45.872 20.327-10.743 4.689-21.638 9.031-32.36 13.767-11.937 5.273-23.72 10.894-35.636 16.217-10.465 4.675-21.045 9.093-31.53 13.727-12.186 5.385-24.268 11.01-36.498 16.29-10.356 4.471-20.86 8.568-30.98 13.608-10.102 5.032-20.581 9.323-30.927 13.789-11.928 5.149-23.827 10.422-35.841 15.405a1199 1199 0 0 0-49.849 21.987c-13.52 6.342-27.282 12.153-40.876 18.31-14.393 6.52-28.686 13.364-43.333 19.276-9.713 3.92-18.864 9.006-28.54 12.81-14.782 5.812-28.95 12.91-43.505 19.146-6.209 2.66-12.403 5.227-18.333 8.91-18.037 8.035-35.3 17.234-52.995 25.524-22.874 10.716-45.3 22.354-68.152 33.106-14.13 6.648-28.186 13.463-42.19 20.35-18.797 9.243-37.747 18.167-56.53 27.439-36.113 17.825-72.468 35.153-108.684 52.768-19.609 9.537-38.916 19.81-59.755 26.553-12.508 4.047-25.19 7.556-37.513 12.181-2.029.762-4.107 1.394-5.932 2.603-.813.539-1.933 1.023-1.793 2.16.153 1.237 1.39 1.328 2.355 1.368 3.157.134 6.378.528 9.438-.447 5.073-1.616 10.204-3.084 15.007-5.474 40.705-20.262 81.756-39.815 122.639-59.714 31.564-15.363 62.954-31.083 94.624-46.229 21.887-10.467 43.674-21.144 65.493-31.754 20.466-9.952 40.726-20.339 61.304-30.043 19.517-9.204 38.78-18.916 58.218-28.274 1.413-.68 2.954-.454 4.71-.957"/><path fill="#2a2a2a" d="M1816.4 50.042c15.839 4.343 25.557 14.68 31.828 28.937 1.374 3.12 1.795 6.53.797 9.19-1.64 4.368-1.903 9.046-4.647 13.285-5.917 9.137-14.07 11.462-23.265 9.474-18.638-4.029-36.985-9.275-54.904-16.005-10.751-4.038-21.701-7.921-32.895-10.323-20.019-4.295-40.346-6.78-60.934-5.29-1.617.117-3.349.341-4.781 1.03-4.465 2.145-6.26-.133-7.418-4.518 50.592-16.779 101.575-30.94 156.219-25.78M484.422 589.556c-11.098 5.623-22.42 10.887-33.58 16.476-7.825 3.918-15.626 7.847-23.626 11.419-7.816 3.489-15.288 7.737-22.986 11.5-12.548 6.135-25.171 12.114-37.735 18.217-12.83 6.233-25.565 12.667-38.458 18.769-11.385 5.388-22.42 11.499-33.795 16.841-16.237 7.626-32.31 15.533-48.368 23.517-13.07 6.5-26.12 13.096-39.333 19.292-11.83 5.549-23.294 11.931-35.254 17.005-11.391 4.832-22.34 10.583-33.466 15.831-16.987 8.013-34.028 16.026-50.73 24.66-7.815 4.039-15.745 7.667-24.086 10.365-4.167 1.347-8.56.401-12.847.473-1.533.026-2.15-1.25-2.17-2.783-.015-1.298.495-1.606 1.74-2.27 7.672-4.09 15.957-6.35 24.171-8.928 22.157-6.951 44.14-14.463 64.754-25.295 14.255-7.49 28.993-13.942 43.38-21.136 12.244-6.123 24.817-11.63 36.986-17.816 13.327-6.774 26.938-13 40.184-19.971a622 622 0 0 1 31.153-15.284c10.364-4.735 20.542-9.779 30.762-14.792 11.721-5.75 23.437-11.539 35.22-17.14 12.968-6.165 25.797-12.589 38.725-18.81 17.434-8.389 34.831-16.853 52.276-25.213 8.894-4.262 17.636-8.874 26.685-12.767 2.787-1.2 5.61-3.384 9.492-2.755.523.1.637.238.906.595"/></svg>