<svg xmlns="http://www.w3.org/2000/svg" viewBox="0 0 2115 1500" xml:space="preserve"><path fill="#fff" d="M1229.724 1443.793c-389.3 0-778.127.034-1166.955-.13-14.6-.006-27.867-5.093-36.854-17.443-2.558-3.515-4.122-8.349-4.525-12.726-1.33-14.442 1.372-27.51 12.037-38.786 16.36-17.298 31.792-35.477 47.574-53.321 9.49-10.73 19.57-21.027 28.154-32.444 8.812-11.718 9.046-21.014 2.973-34.434-3.63-8.02-5.935-16.633-8.96-24.935-5.731-15.734-11.615-31.413-17.315-47.158-4.344-12.003-7.783-24.392-12.947-36.022-5.06-11.394-7.997-23.211-10.17-35.28-1.915-10.643-3.487-21.388-4.429-32.156-1.486-16.999.617-33.747 3.615-50.56 3.02-16.939 4.123-34.213 6.346-51.305 1.138-8.753 3.054-17.402 4.318-26.142 1.387-9.585 2.343-19.232 3.644-28.83 1.365-10.067 2.967-20.101 4.37-30.163 1.269-9.097 2.391-18.214 3.611-27.318 1.83-13.652 3.725-27.296 5.522-40.953 1.22-9.275 2.251-18.574 3.496-27.846 1.024-7.635 2.248-15.244 3.366-22.867 1.878-12.805 3.775-25.607 5.603-38.419a5018 5018 0 0 0 5.15-37.043c1.34-9.916 2.477-19.86 3.889-29.766 1.317-9.24 2.98-18.432 4.306-27.671 1.654-11.531 3.072-23.096 4.678-34.635 1.355-9.738 2.874-19.453 4.242-29.189 1.301-9.259 2.49-18.534 3.747-27.8a7034 7034 0 0 1 3.345-24.378c1.875-13.477 3.722-26.958 5.666-40.425 1.71-11.843 3.61-23.658 5.29-35.505 1.337-9.423 2.374-18.89 3.723-28.311 1.393-9.73 3.062-19.419 4.499-29.142 1.558-10.546 2.997-21.11 4.472-31.669 1.497-10.712 3.024-21.42 4.446-32.142 1.252-9.44 2.258-18.913 3.586-28.341 1.667-11.843 3.635-23.644 5.317-35.485 1.339-9.422 2.372-18.886 3.673-28.314 1.367-9.906 2.93-19.785 4.334-29.685 1.267-8.932 2.382-17.886 3.662-26.816 1.07-7.462 2.325-14.898 3.41-22.358.427-2.93.028-6.108 1.01-8.808 5.394-14.826 13.777-27.4 27.44-36.09 12.689-8.07 26.48-10.783 41.253-9.803 2.82.187 5.684.244 8.495-.007 20.078-1.79 37.279 5.914 53.888 15.923 20.314 12.241 40.667 24.42 61.175 36.33 11.473 6.664 22.901 13.65 35.054 18.84 16.287 6.955 33.174 7.64 49.833-.055 6.524-3.014 13.552-4.97 19.97-8.171 10.098-5.037 19.96-10.567 29.766-16.162a2976 2976 0 0 0 44.3-25.814c10.838-6.436 21.471-13.217 32.277-19.71 11.848-7.118 23.796-14.07 35.687-21.118 7.766-4.602 15.434-9.377 23.283-13.832a1051 1051 0 0 1 28.095-15.356c5.94-3.136 11.88-6.426 18.155-8.733 9.032-3.32 18.346-5.885 27.582-8.632 10.186-3.03 20.336-6.246 30.662-8.714 6.498-1.554 13.267-2.174 19.955-2.696 11.529-.9 23.109-2.149 34.631-1.852 11.284.291 22.546 2.154 33.774 3.656 8.277 1.108 16.611 2.235 24.69 4.268 11.415 2.872 22.608 6.62 33.912 9.935 14.565 4.27 28.269 10.482 41.044 18.623 9.207 5.867 18.39 11.83 27.13 18.36 11.599 8.67 22.537 18.228 34.194 26.814 5.781 4.259 11.565 10.283 19.89 7.877 5.874-1.698 11.781-3.909 17.046-6.97 15.066-8.76 29.908-17.916 44.649-27.216 10.177-6.42 21.427-8.78 33.092-9.492 14.755-.902 27.678 4.953 40.19 11.906 16.8 9.336 33.822 18.307 50.297 28.19 10.34 6.201 19.846 13.808 24.785 25.503.618 1.464.996 3.197.899 4.77-.55 8.874.06 18.116-2.308 26.503-2.58 9.136-6.795 18.389-12.549 25.855-4.108 5.33-11.618 8.517-18.168 11.388-12.837 5.626-23.315 14.37-33.984 23.088-18.954 15.488-33.824 34.585-47.928 54.23-11.116 15.482-22.066 31.306-29.124 49.167-5.075 12.844-14.715 22.22-22.978 32.565-3.83 4.794-10.073 7.929-15.686 10.957-6.259 3.378-11.992 8.343-19.542 8.702-13.61.648-27.152 2.735-40.366-3.905-11.129-5.593-20.442-13.248-29.744-21.188-9.409-8.032-19.125-15.704-28.515-23.757-7.411-6.357-14.259-13.389-21.841-19.523-12.792-10.348-25.854-20.375-39.108-30.122-1.868-1.375-5.733-1.227-8.203-.392-13.36 4.516-26.418 9.971-39.888 14.096-8.853 2.71-18.234 3.682-27.364 5.504-5.935 1.185-11.812 2.69-17.774 3.712-9.2 1.576-18.41 3.256-27.687 4.182-16.394 1.636-32.836 2.801-49.268 4.034-6.927.52-13.875.884-20.82 1.008-9.543.17-19.093.076-28.64.039-11.424-.044-22.711.88-33.559 4.786-7.823 2.817-16.303 4.615-23.247 8.887-12.027 7.4-18.317 19.13-18.544 33.414-.124 7.79-1.796 15.966 2.917 23.174 1.19 1.82 2.498 4.077 4.31 4.889 11.806 5.287 23.661 10.498 35.708 15.205 10.022 3.917 20.29 7.225 30.523 10.578 5.274 1.728 10.837 2.612 16.04 4.509a295 295 0 0 1 22.69 9.337c14.911 6.889 25.34 19.094 34.567 31.933 6.542 9.102 10.936 19.765 16.137 29.81 9.945 19.208 7.225 40.054 6.668 60.325-.352 12.81-4.011 25.519-6 38.302-1.386 8.915-2.643 17.86-3.612 26.829-.92 8.511-2.346 17.125-1.87 25.6 1.258 22.425 7.683 42.895 23.01 60.379 10.039 11.45 22.285 19.809 34.191 28.763 10.79 8.116 21.832 15.898 32.749 23.846 12.644 9.207 25.3 18.4 37.9 27.664 12.602 9.264 25.112 18.654 37.721 27.909 10.984 8.061 22.072 15.981 33.078 24.014 22.208 16.211 44.386 32.464 66.589 48.683 11.683 8.535 23.557 16.82 35.027 25.632 6.884 5.288 14.125 10.606 19.44 17.31 5.77 7.281 10.968 15.68 9.136 26.07-.2 1.132-.127 2.34-.012 3.494 1.461 14.671-6.5 25.141-16.915 33.177-12.722 9.815-27.902 14.988-43.994 16.385-10.224.888-20.563 1.38-30.801.928-9.97-.44-19.87-2.36-29.811-3.532-7.189-.847-14.407-1.448-21.593-2.314-9.935-1.198-19.84-2.658-29.782-3.792-10.461-1.194-20.962-2.042-31.427-3.213-11.747-1.314-23.47-2.835-35.207-4.238-7.83-.937-15.671-1.79-23.5-2.745-10.428-1.272-20.84-2.693-31.276-3.889-9.964-1.142-19.966-1.95-29.925-3.135-12.706-1.512-25.372-3.354-38.079-4.864-9.962-1.184-19.972-1.963-29.936-3.139-9.61-1.133-19.17-2.676-28.781-3.799-10.295-1.202-20.635-2.018-30.934-3.194-11.578-1.322-23.127-2.891-34.697-4.283-5.389-.648-10.808-1.042-16.194-1.707-12.212-1.509-24.396-3.275-36.624-4.636-11.776-1.311-23.58-2.478-35.4-3.26-7.135-.47-14.361.36-21.487-.18-14.219-1.077-26.833 3.806-39.2 9.728-11.25 5.387-21.691 12.07-29.76 21.76-6.744 8.1-13.046 16.566-19.566 24.853-11.917 15.144-23.892 30.243-35.716 45.46-1.223 1.575-1.584 3.819-2.344 5.752 1.9.651 3.765 1.717 5.708 1.89 19.689 1.755 39.39 3.364 59.089 5.01.497.041.997.039 1.496.053 11.274.335 22.57.341 33.816 1.082 15.28 1.006 30.517 2.622 45.781 3.88 9.371.773 18.763 1.297 28.135 2.055 15.598 1.261 31.183 2.68 46.783 3.91 6.593.52 13.207.852 19.817 1.048 14.105.419 28.215.658 42.32 1.032 173.03 4.585 346.093.767 519.136 1.97 69.98.486 139.96.704 209.94 1.015 15.178.067 30.36-.118 45.537.05 12.316.136 24.629.923 36.942.888 17.15-.049 34.3-.54 51.446-.954 7.313-.177 15.071.834 21.844-1.246 22.832-7.01 33.776-15.298 38.16-41.23 2.545-15.062 1.23-30.802 1.32-46.239.039-6.583-.004-13.338-1.389-19.715-1.726-7.95-4.804-15.614-7.427-23.358-3.936-11.62-6.64-23.916-12.317-34.625-7.444-14.041-16.444-27.468-26.261-39.993-16.158-20.616-36.524-37.048-58.324-51.254-11.768-7.669-25.193-12.901-38.146-18.608-9.884-4.354-20.03-8.292-30.364-11.403-15.617-4.701-31.572-8.27-47.24-12.81-9.104-2.639-17.983-6.093-26.866-9.436-11.597-4.363-23.246-8.642-34.576-13.63-5.655-2.489-10.754-6.322-15.923-9.816-8.861-5.99-18.051-11.626-26.23-18.457-8.532-7.125-16.34-15.2-23.915-23.37-13.236-14.28-22.375-31.408-31.569-48.335-5.93-10.917-10.866-22.465-15.26-34.102-5.743-15.206-8.964-31.038-9.21-47.438-.1-6.716-2.342-13.525-1.699-20.105 1.947-19.898 1.803-39.922 7.066-59.633 4.552-17.048 12.693-32.332 19.23-48.387 7.017-17.23 14.861-34.122 22.392-51.141 5.497-12.424 11.151-24.779 16.589-37.228 6.231-14.267 12.044-28.722 18.515-42.877 6.17-13.498 13.492-26.486 19.312-40.124 5.477-12.834 14.711-22.459 24.764-31.258 16.447-14.395 33.579-27.935 54.67-35.366 13.51-4.761 27.056-9.042 41.574-8.729 2.228.048 4.606.546 6.628 1.465 10.76 4.894 21.824 9.31 31.985 15.255 6.58 3.85 12.244 9.62 17.515 15.277 8.21 8.813 16.646 17.65 23.344 27.583 10.086 14.958 18.63 30.947 28.068 46.352 6.539 10.672 13.63 21.004 20.197 31.66 6.725 10.915 13.061 22.07 19.663 33.061 4.242 7.062 8.699 13.994 12.982 21.031 5.275 8.665 10.402 17.42 15.715 26.062 6.56 10.67 13.298 21.228 19.862 31.894 9.12 14.82 18.103 29.724 27.227 44.541 14.346 23.298 28.784 46.54 43.137 69.834a18164 18164 0 0 1 33.877 55.232c17.436 28.525 34.803 57.092 52.268 85.599 9.383 15.314 18.974 30.5 28.355 45.816 13.996 22.852 27.86 45.785 41.839 68.648 9.633 15.755 19.381 31.44 29.05 47.175a19056 19056 0 0 1 27.647 45.124c13.255 21.704 26.508 43.41 39.711 65.146 8.6 14.159 17.003 28.439 25.687 42.545 9.764 15.86 19.904 31.49 29.593 47.395 12.25 20.11 24.153 40.433 36.322 60.594 6.433 10.658 13.117 21.164 19.676 31.745 9.88 15.938 19.799 31.852 29.612 47.83 11.905 19.384 23.679 38.848 35.583 58.232 8.188 13.334 16.347 26.69 24.802 39.854 8.147 12.687 13.663 26.007 14.058 41.431.364 14.18-4.646 25.406-16.45 32.93-11.92 7.6-24.314 14.48-36.672 21.367-16.915 9.427-33.96 18.624-51.01 27.807-12.608 6.791-25.675 12.295-40.256 13.038-7.138.364-14.279.948-21.419.962-201.77.383-403.541.706-605.312 1.05-1.298.002-2.596.14-4.67.26v35.773h-30.603l2.934-104.727h29.573v33.19c12.129 0 24.344-.06 36.558.042 3.101.026 6.199.827 9.298.828 133.998.044 267.996.038 401.994.038 9.047 0 18.095.05 27.141-.009 48.14-.315 96.287-.313 144.416-1.234 12.025-.23 23.713-3.981 34.298-10.674 9.06-5.729 18.73-10.496 28.15-15.652 14.845-8.125 29.744-16.151 44.535-24.374 3.83-2.129 7.463-4.673 10.914-7.375.895-.7 1.11-2.735 1.041-4.127-.554-11.074-7.5-19.368-12.715-28.361-6.662-11.49-13.658-22.786-20.564-34.132-4.002-6.576-8.142-13.068-12.166-19.63-7.388-12.052-14.658-24.175-22.122-36.179-8.483-13.642-17.215-27.129-25.66-40.793-4.472-7.236-8.446-14.778-12.852-22.057-7.23-11.943-14.643-23.774-21.949-35.672-5.156-8.396-10.24-16.835-15.393-25.233a72245 72245 0 0 0-38.432-62.558c-8.629-14.032-17.275-28.052-25.92-42.073-8.54-13.85-17.132-27.668-25.623-41.548-8.756-14.314-17.33-28.74-26.142-43.02-12.659-20.514-25.547-40.887-38.174-61.42-10.687-17.38-21.113-34.918-31.706-52.355-8.432-13.88-17.006-27.673-25.395-41.577-7.305-12.106-14.295-24.404-21.695-36.452-6.725-10.948-13.94-21.594-20.711-32.515-8.514-13.732-16.712-27.659-25.198-41.408-10.558-17.106-21.442-34.014-31.876-51.195-12.882-21.215-25.307-42.708-38.198-63.918-8.532-14.038-17.65-27.72-26.295-41.69-9.629-15.562-18.944-31.317-28.53-46.906-13.805-22.453-27.784-44.8-41.587-67.256-8.7-14.154-17.195-28.434-25.813-42.639-11.245-18.536-21.568-37.731-34.107-55.348-8.824-12.396-20.044-23.345-31.45-33.535-5.698-5.09-14.016-7.602-21.534-10.138-3.417-1.152-7.923-.091-11.672.93-18.101 4.934-34.488 13.196-48.414 25.993-7.224 6.638-15.625 12.352-21.479 20.022-6.022 7.89-9.673 17.613-14.2 26.615-2.206 4.384-4.047 8.951-6.047 13.438-5.732 12.862-11.49 25.712-17.182 38.591-7.241 16.385-14.474 32.774-21.619 49.2-4.713 10.838-9.155 21.794-13.916 32.61-7.323 16.637-15.202 33.041-22.06 49.864-3.05 7.483-5.057 15.644-5.995 23.677-1.683 14.406-3.104 28.96-2.918 43.43.15 11.55 3.205 23.033 4.32 34.608 1.168 12.126 6.251 22.833 11.502 33.368 6.075 12.188 12.663 24.204 20.071 35.618 6.702 10.326 14.356 20.135 22.471 29.4 4.472 5.107 10.625 8.812 16.26 12.811 7.246 5.143 14.47 10.416 22.197 14.755 6.559 3.683 13.764 6.254 20.78 9.077 11.437 4.601 22.783 9.529 34.487 13.338 10.07 3.277 20.632 5.006 30.886 7.76 6.776 1.82 13.437 4.11 20.068 6.424 12.83 4.474 25.665 8.946 38.382 13.727 16.812 6.32 32.885 14.231 47.332 24.96 13.881 10.309 28.198 20.283 40.705 32.116 11.562 10.94 21.69 23.628 31.136 36.51 8.838 12.05 16.739 24.96 23.559 38.259 4.83 9.417 7.244 20.085 10.602 30.24 2.825 8.545 5.698 17.089 8.089 25.76 1.688 6.127 3.533 12.442 3.694 18.714.482 18.82.466 37.669.024 56.491-.169 7.15-.713 14.812-3.423 21.258-4.154 9.878-10.396 18.869-15.628 28.304-5.267 9.496-14.597 13.91-23.287 19.268-8.722 5.377-18.176 8.839-27.867 11.806-1.691.517-3.553.67-5.336.67-168.33.03-336.662.149-504.992-.015-112.94-.11-225.879-.55-338.817-1.04-16.384-.072-32.763-1.244-49.143-1.924-7.441-.31-14.88-.678-22.322-.99-16.213-.68-32.443-1.083-48.637-2.078-16.446-1.01-32.858-2.58-49.283-3.934-11.821-.974-23.635-2.034-35.458-2.983-17.089-1.372-34.18-2.728-51.276-3.992-10.372-.768-20.755-1.388-31.137-2.007-11.877-.709-23.894-.478-35.587-2.321-7.551-1.19-15.833-.94-22.572-5.652-2.362-1.652-4.467-3.743-6.448-5.86-10.05-10.742-10.313-23.935-6.605-36.606 2.204-7.534 8.133-14.15 13.042-20.688 10.88-14.485 22.095-28.722 33.32-42.945 10.735-13.604 21.067-27.646 34.491-38.787 5.538-4.596 11.93-8.28 18.279-11.75 7.267-3.973 14.632-8.15 22.466-10.609 11.335-3.56 22.589-7.954 34.936-7.465 10.65.42 21.37-.505 31.985.24 12.756.895 25.427 2.97 38.144 4.453 7.516.878 15.062 1.498 22.573 2.413 18.575 2.263 37.123 4.762 55.711 6.904 11.117 1.28 22.315 1.857 33.432 3.136 11.562 1.33 23.064 3.177 34.605 4.7 8.796 1.16 17.61 2.181 26.42 3.236 8.645 1.035 17.296 2.029 25.943 3.049 8.314.98 16.63 1.95 24.94 2.96 10.262 1.248 20.513 2.589 30.782 3.78 7.19.833 14.406 1.44 21.603 2.226 9.799 1.07 19.593 2.192 29.385 3.332 7.339.854 14.668 1.788 22.007 2.65 3.264.383 6.54.657 9.809 1.01 15.358 1.661 30.733 3.179 46.065 5.05 11.22 1.37 22.345 3.59 33.583 4.747 13.938 1.436 27.986 3.295 41.917 2.839 10.899-.357 22.294-2.432 31.677-8.913 8.248-5.698 8.83-11.722.995-18.136-10.17-8.326-21.23-15.56-31.858-23.334-17.815-13.03-35.58-26.13-53.386-39.171-11.02-8.07-22.12-16.033-33.112-24.141-16.822-12.408-33.541-24.956-50.38-37.343-21.085-15.511-42.348-30.78-63.343-46.412-18.219-13.565-36.546-27.034-54.044-41.491-6.424-5.308-10.627-13.312-15.798-20.121-1.393-1.834-2.527-3.866-3.936-5.686-8.367-10.804-10.643-23.82-14.2-36.564-3.506-12.556-4.055-25.111-3.537-37.798.402-9.828 1.958-19.613 3.128-29.401a559 559 0 0 1 2.762-19.986c1.01-6.464 1.96-12.958 3.425-19.327 3.5-15.212 4.066-30.851 2.072-45.945-1.978-14.975-9.774-28.495-19.628-40.252-4.22-5.033-8.612-10.41-14.062-13.805-7.482-4.66-15.82-8.242-24.193-11.114-15.6-5.349-31.722-9.215-47.188-14.894-14.203-5.215-28.513-10.837-41.499-18.456-11.042-6.478-19.23-16.408-21.206-30.502-1.118-7.975-3.512-15.782-2.709-23.939.869-8.826 1.883-17.645 3.165-26.42.314-2.148 1.971-4.083 2.92-6.158 7.108-15.537 17.87-28.243 32.614-36.49 8.655-4.84 18.971-6.72 28.555-9.887 3.883-1.282 7.733-2.842 11.726-3.57 6.118-1.115 12.332-2.074 18.533-2.281 10.821-.362 21.68.284 32.492-.204 12.006-.542 23.969-2.008 35.968-2.813 5.31-.356 10.711.384 15.986-.173 14.035-1.482 28.04-3.286 42.026-5.189 7.29-.992 14.524-2.41 21.766-3.736 5.956-1.09 11.96-2.038 17.808-3.564 8.841-2.306 17.674-4.748 26.307-7.723 6.893-2.375 13.271-6.397 20.254-8.331 13.21-3.66 26.016-4.124 38.828 3.612 12.169 7.347 22.452 16.736 33.239 25.655 13.603 11.246 27.262 22.426 40.768 33.79 9.942 8.365 19.628 17.033 29.515 25.464 10.741 9.16 22.432 13.787 36.33 7.133 7.39-3.537 12.95-8.94 18.244-15.227 8.129-9.656 11.559-21.556 17.493-32.221a303 303 0 0 1 12.531-20.582c5.742-8.622 11.6-17.196 17.916-25.399 6.944-9.017 14.332-17.707 21.777-26.322 6.454-7.47 12.914-14.997 20.021-21.821 5.436-5.22 11.991-9.253 17.861-14.044 9.845-8.036 20.568-14.496 32.153-19.75 4.087-1.855 7.483-5.366 8.192-10.442a5.3 5.3 0 0 1 .62-1.853c5.21-9.157 2.673-11.968-6.688-17.796-16.409-10.214-33.439-19.445-50.352-28.828-7.05-3.911-14.51-7.66-22.9-6.02-5.981 1.169-12.236 2.636-17.48 5.563-14.574 8.135-28.683 17.103-42.978 25.739-3.358 2.028-6.57 4.38-10.113 6.007-13.989 6.426-28.903 8.392-43.38 3.695-8.289-2.69-15.547-9.003-22.8-14.324-11.286-8.278-22.06-17.25-33.267-25.642-8.162-6.112-16.159-12.76-25.152-17.371-12.043-6.175-24.726-11.377-37.59-15.611-17.367-5.716-35.273-9.43-53.386-12.464-14.789-2.476-29.48-1.775-44.164-1.483-13.04.259-25.867 3.032-38.602 6.567-21.701 6.025-43.245 12.313-62.95 23.414-15.478 8.719-30.5 18.242-45.775 27.324-17.91 10.651-35.9 21.168-53.806 31.828-11.416 6.796-22.64 13.921-34.135 20.58a1123 1123 0 0 1-36.24 20.12c-10.41 5.529-20.865 11.06-31.666 15.75-17.684 7.679-36.275 12.765-55.605 9.872-11.358-1.7-22.85-5.192-33.231-10.097-14.939-7.06-28.973-16.051-43.298-24.383-12.19-7.09-24.226-14.444-36.363-21.626-9.764-5.78-19.336-11.95-29.428-17.092-12.968-6.608-26.942-5.39-40.746-3.185-5.165.825-10.27 1.678-14.53 5.79-5.244 5.058-8.298 11.01-9.325 17.878-1.987 13.303-3.27 26.71-5.162 40.028-1.588 11.182-3.687 22.29-5.438 33.451-.966 6.157-1.673 12.355-2.51 18.533-1.146 8.45-2.337 16.895-3.447 25.35-.897 6.835-1.642 13.69-2.569 20.52-1.058 7.797-2.257 15.575-3.371 23.365-1.88 13.141-3.71 26.29-5.623 39.426-1.628 11.188-3.386 22.358-5.007 33.547-1.386 9.573-2.651 19.164-3.984 28.745-1.513 10.875-3.085 21.741-4.55 32.622-1.533 11.385-2.91 22.791-4.466 34.173-1.333 9.745-2.866 19.462-4.235 29.201-1.3 9.257-2.494 18.528-3.75 27.79a5478 5478 0 0 1-3.012 21.933c-1.316 9.416-2.572 18.842-4.003 28.242-2.588 17.006-5.516 33.964-7.872 51.001-2.316 16.743-3.894 33.588-6.185 50.336-1.485 10.858-3.749 21.607-5.506 32.431-.973 5.99-1.672 12.028-2.408 18.054-1.155 9.455-2.128 18.932-3.377 28.374-1.784 13.488-3.704 26.96-5.647 40.426-1.71 11.843-3.616 23.658-5.272 35.508-1.363 9.75-2.397 19.546-3.74 29.298-1.32 9.575-2.919 19.112-4.263 28.683-1.643 11.695-3.028 23.427-4.747 35.11-1.621 11.015-3.61 21.976-5.286 32.984-1.038 6.814-1.791 13.671-2.68 20.508-1.163 8.945-2.354 17.887-3.497 26.835-1.85 14.48-4.397 28.921-5.222 43.46-.476 8.383 1.394 17.015 3.031 25.374 2.134 10.892 4.72 21.729 7.797 32.392 2.525 8.755 5.993 17.243 9.147 25.811 4.532 12.315 9.144 24.602 13.75 36.89 4.978 13.276 10.183 26.472 14.919 39.834 3.424 9.662 6.684 19.426 9.21 29.35 2.406 9.456.94 19.05-1.966 28.228-1.93 6.09-4.134 12.298-7.46 17.685-3.515 5.697-8.351 10.624-12.881 15.643-13.795 15.283-27.865 30.32-41.546 45.704-9.386 10.553-18.379 21.46-27.394 32.335-4.504 5.432-3.262 8.803 3.487 10.08 1.775.336 3.652.168 5.483.168q579.742.008 1159.483.006h6.727c0 10.975.081 21.583-.158 32.184-.02.827-2.285 1.603-3.978 2.402"/></svg>