<svg xmlns="http://www.w3.org/2000/svg" viewBox="0 0 2198 1500" xml:space="preserve"><path fill="#fff" d="M2061.693 1394.703c12.024-6.6 23.815-12.884 35.538-19.294 16.438-8.988 32.835-18.05 49.224-27.126 4.001-2.216 5.581-6.528 3.052-12.109-3.66-8.076-8.079-15.833-12.531-23.519-7.485-12.922-15.165-25.732-22.934-38.486-3.855-6.328-8.253-12.325-12.12-18.646-11.69-19.106-23.258-38.285-34.838-57.458-12.704-21.036-25.23-42.181-38.092-63.12-10.777-17.546-22.032-34.796-32.872-52.302-9.184-14.829-17.948-29.917-27.133-44.745-10.844-17.504-22.082-34.765-32.884-52.295-8.184-13.28-15.814-26.9-23.938-40.218-10.556-17.305-21.382-34.446-32.046-51.686a50781 50781 0 0 1-45.204-73.23c-7.483-12.141-14.96-24.287-22.35-36.484-17.354-28.637-34.647-57.31-51.98-85.96-7.575-12.517-15.091-25.072-22.808-37.501-12.257-19.74-24.73-39.346-36.979-59.091-8.605-13.872-16.96-27.898-25.48-41.823-6.257-10.226-12.678-20.353-18.883-30.611-6.215-10.274-12.155-20.715-18.396-30.974-7.195-11.825-14.62-23.51-21.886-35.294-12.877-20.878-25.667-41.81-38.572-62.672-11.44-18.494-23.104-36.85-34.456-55.399-10.548-17.235-20.695-34.717-31.244-51.953-8.767-14.326-17.07-29.038-27.035-42.501-9.852-13.311-20.403-26.488-34.827-35.377-5.491-3.384-11.837-5.46-17.95-7.704-1.613-.592-3.83.305-5.735.692-14.84 3.021-28.878 8.286-41.126 17.2-10.246 7.46-20.319 15.35-29.409 24.145-7.537 7.293-12.989 16.46-17.055 26.372-5.232 12.754-11.071 25.257-16.478 37.942-4.645 10.897-8.898 21.962-13.604 32.831-4.876 11.26-10.135 22.352-15.141 33.555a6713 6713 0 0 0-19.752 44.59c-6.053 13.815-11.985 27.682-17.98 41.522-5.87 13.545-8.466 27.745-9.065 42.452-.376 9.21-1.843 18.38-2.145 27.589-.185 5.668.706 11.405 1.464 17.064 1.085 8.093 1.835 16.32 3.932 24.166 2.39 8.945 5.718 17.7 9.357 26.232 3.325 7.794 7.093 15.502 11.585 22.672 7.934 12.66 16.084 25.249 25.09 37.15 5.287 6.986 11.838 13.333 18.83 18.633 10.08 7.641 20.849 14.462 31.776 20.861 6.12 3.585 13.133 5.66 19.776 8.333 8.45 3.402 16.893 6.83 25.42 10.033a180 180 0 0 0 15.35 4.99c9.754 2.696 19.735 4.66 29.335 7.804 18.835 6.169 37.65 12.483 56.127 19.629 10.978 4.245 21.82 9.355 31.793 15.57 14.717 9.17 28.908 19.27 42.763 29.718 13.641 10.286 25.15 23 35.997 36.108 13.555 16.38 26.018 33.748 34.597 53.27 5.763 13.115 9.536 27.115 14.003 40.784 2.592 7.93 4.8 15.986 7.168 23.99.323 1.09.806 2.2.823 3.306.378 24.273 1.288 48.562.696 72.813-.19 7.804-2.22 15.933-6.13 23.478-5.416 10.447-10.978 20.81-19.099 29.218-5.042 5.22-11.641 9.158-18.043 12.787-7.762 4.4-15.936 8.15-24.175 11.598-3.208 1.343-7.076 1.477-10.65 1.513-15.331.153-30.666-.026-45.998.083-39.18.28-78.36.975-117.538.92-115.774-.16-231.547-.612-347.32-.936-122.274-.342-244.547-.604-366.82-1.085-14.883-.058-29.762-1.27-44.644-1.913-8.605-.37-17.226-.483-25.818-1.048-12.33-.812-24.635-2.016-36.964-2.873-4.312-.3-8.685.216-12.99-.142-9.171-.761-18.307-1.958-27.476-2.754-3.97-.345-8.01.11-11.98-.238-9.004-.79-17.973-1.97-26.976-2.765-6.585-.581-13.211-.68-19.802-1.208-15.6-1.25-31.185-2.678-46.785-3.924-6.26-.5-12.545-.694-18.817-1.055-17.32-.995-34.654-1.817-51.95-3.133-4.641-.354-9.204-2.106-13.738-3.436-7.134-2.091-10.096-8.506-13.988-13.917-10.492-14.583-4.113-35.898 4.76-47.435 8.732-11.355 17.388-22.77 26.208-34.057 7.916-10.13 15.729-20.362 24.103-30.105 8.208-9.55 16.391-19.322 25.861-27.522 7.166-6.205 16.225-10.299 24.66-14.934 5.457-3 11.109-5.934 17.026-7.746 11.393-3.49 22.624-7.826 34.962-7.399 11.652.404 23.337-.168 34.994.18 7.383.22 14.745 1.29 22.108 2.066 8.497.896 16.988 1.854 25.474 2.85 10.271 1.205 20.531 2.504 30.802 3.712 6.86.806 13.734 1.482 20.594 2.288 10.1 1.188 20.192 2.453 30.29 3.66 6.69.8 13.384 1.56 20.078 2.33 11.09 1.274 22.18 2.55 33.272 3.81 9.474 1.075 18.975 1.943 28.42 3.236 12.981 1.778 25.9 4.016 38.885 5.774 7.498 1.015 15.084 1.36 22.609 2.209 9.947 1.122 19.872 2.452 29.809 3.674 6.36.783 12.723 1.53 19.085 2.298 16.136 1.951 32.267 3.94 48.408 5.847 9.47 1.118 18.963 2.047 28.433 3.166 16.302 1.927 32.584 4.037 48.896 5.874 10.788 1.215 21.616 2.077 32.425 3.117 6.715.646 13.455 2.09 20.132 1.833 12.922-.498 25.714-2.35 37.655-7.91 8.146-3.792 9.239-12.584 1.995-17.865-11.7-8.532-23.608-16.776-35.3-25.32-15.825-11.563-31.475-23.367-47.3-34.933-13.828-10.107-27.924-19.85-41.667-30.07-17.97-13.365-35.58-27.213-53.577-40.538-21.836-16.167-44.042-31.836-65.847-48.044-16.258-12.084-32.883-23.85-47.897-37.366-8.765-7.889-14.554-19.04-21.916-28.542-9.716-12.541-11.857-27.945-15.68-42.528-2.551-9.738-2.802-20.19-3.137-30.355-.202-6.146 1.39-12.354 2.202-18.53.856-6.508 1.692-13.019 2.625-19.515 1.677-11.68 3.017-23.426 5.228-35.005 3.475-18.199 5.05-36.556.455-54.504-3.25-12.698-10.313-24.083-18.795-34.336-7.055-8.527-15.522-15.299-25.724-19.471-9.324-3.814-18.68-7.442-28.966-8.667-7.325-.872-14.47-3.772-21.525-6.253-9.102-3.203-18.278-6.374-26.978-10.495-11.92-5.645-24.372-10.32-34.77-18.948-17.39-14.43-35.324-28.213-52.557-42.827-14.217-12.057-27.78-24.89-41.58-37.437-15.515-14.107-31.014-28.233-46.436-42.442-10.571-9.74-20.914-19.73-31.513-29.439-11.71-10.728-23.6-21.262-35.407-31.885-4.883-4.393-9.791-8.759-14.626-13.205-16.835-15.484-33.683-30.955-50.445-46.519-7.859-7.298-15.543-14.785-23.285-22.208-8.736-8.376-17.407-16.82-26.207-25.126a17.7 17.7 0 0 0-5.374-3.448c-5.336-2.168-10.285 1.296-10.961 6.936-1.443 12.036-3.328 24.019-4.79 36.053-1.23 10.119-1.942 20.302-3.204 30.416-1.217 9.755-2.927 19.446-4.273 29.186-1.64 11.86-3.026 23.756-4.706 35.611-1.541 10.87-3.359 21.701-4.996 32.558a2694 2694 0 0 0-3.965 27.242 7560 7560 0 0 0-5.297 38.489c-1.275 9.428-2.371 18.882-3.74 28.296-1.697 11.672-3.708 23.298-5.37 34.975-1.363 9.586-2.341 19.227-3.622 28.826-1.388 10.395-2.96 20.765-4.391 31.154-1.567 11.374-3.002 22.765-4.607 34.133-1.671 11.847-3.528 23.668-5.206 35.515-1.335 9.418-2.504 18.86-3.782 28.287a6763 6763 0 0 1-4.232 30.69c-1.23 8.767-2.52 17.525-3.759 26.29-1.193 8.441-2.398 16.88-3.52 25.33-1.208 9.111-2.213 18.25-3.515 27.347-1.368 9.555-2.99 19.074-4.488 28.61-1.17 7.447-2.377 14.887-3.466 22.346-1.326 9.082-2.615 18.172-3.79 27.275-1.159 8.962-2.08 17.955-3.245 26.916-1.29 9.918-2.74 19.815-4.118 29.722-1.288 9.255-2.511 18.519-3.878 27.762-1.772 11.987-3.698 23.953-5.473 35.94-.578 3.898-.842 7.842-1.336 11.755-1.028 8.142-2.026 16.29-3.197 24.412-1.448 10.049-3.135 20.064-4.578 30.114-1.237 8.61-2.17 17.263-3.435 25.868-.906 6.152-2.297 12.234-3.188 18.387-1.081 7.471-1.845 14.987-2.782 22.48-1.12 8.957-2.223 17.917-3.431 26.863-1.98 14.666-6.143 29.196-4.435 44.121 1.507 13.173 3.793 26.282 6.352 39.298 1.601 8.144 4.053 16.158 6.65 24.057 3.06 9.304 6.643 18.439 10.083 27.615 4.66 12.432 9.433 24.822 14.098 37.252 4.304 11.47 8.974 22.83 12.67 34.496 3.985 12.58 10.929 24.508 9.966 38.324-.802 11.513-2.74 23.018-9.33 32.68-6.732 9.87-14.313 19.226-22.153 28.26-14.277 16.45-29.096 32.43-43.538 48.74-6.89 7.78-13.538 15.785-20.049 23.886-1.352 1.683-1.614 4.242-2.667 7.21 5.814.456 10.371 1.12 14.928 1.125 71.667.065 143.333.148 215 0 33.607-.069 67.214-.632 100.82-.945 6.74-.063 13.48-.03 20.219-.006 95.107.328 190.213.76 285.32.937 28.107.053 56.214-.716 84.322-.879 9.425-.055 18.853.79 28.283.895 14.609.162 29.22.043 43.831.043 6.046 0 12.094.103 18.137-.02 12.942-.265 25.882-.932 38.822-.907 16.084.031 32.169.914 48.252.875 93.314-.226 186.628-.617 279.943-.943 10.097-.035 20.195-.004 30.515-.004v37.6h-5.252c-398.831 0-797.663.037-1196.494-.169-12.604-.006-24.632-4.264-34.378-12.875-6.415-5.668-8.498-13.87-8.791-21.78-.288-7.746.817-15.883 3.145-23.271 1.59-5.044 6.087-9.302 9.71-13.549 7.581-8.89 15.444-17.539 23.19-26.288 12.83-14.49 25.626-29.008 38.504-43.454 4.485-5.03 9.32-9.754 13.727-14.85 6.078-7.028 10.111-15.332 9.163-24.604-.63-6.157-3.803-12.066-5.927-18.055-3.565-10.052-7.138-20.101-10.822-30.11-4.68-12.72-9.565-25.363-14.192-38.102-4.437-12.219-8.625-24.528-12.987-36.775-1.922-5.399-4.511-10.613-5.905-16.136-2.638-10.454-4.492-21.102-6.924-31.611-3.588-15.502-3.27-31.248-2.822-46.94.219-7.656 2.062-15.259 3.061-22.9 1.32-10.09 2.444-20.205 3.816-30.288 1.368-10.064 3.018-20.09 4.4-30.151 1.607-11.705 2.976-23.443 4.6-35.146 1.329-9.572 2.934-19.106 4.316-28.672 1.289-8.926 2.479-17.866 3.65-26.809 1.256-9.596 2.446-19.201 3.653-28.804 1.126-8.957 2.084-17.938 3.386-26.869 2.552-17.511 5.423-34.976 7.907-52.496 1.59-11.214 2.55-22.517 4.117-33.735 1.312-9.392 3.229-18.697 4.626-28.078 1.281-8.606 2.174-17.269 3.332-25.894 1.766-13.166 3.655-26.315 5.412-39.482 1.26-9.438 2.363-18.897 3.584-28.34.968-7.482 1.931-14.966 3.037-22.428 1.585-10.698 3.413-21.361 4.926-32.07 1.79-12.668 3.208-25.389 5.05-38.049 2.525-17.348 5.498-34.632 7.907-51.996 2.277-16.42 3.89-32.93 6.14-49.355 1.645-12.004 4.026-23.905 5.746-35.9 1.33-9.268 2.033-18.624 3.224-27.913.812-6.33 2.026-12.606 2.986-18.917 1.035-6.81 2.043-13.626 2.957-20.453 1.394-10.405 2.646-20.829 4.055-31.232 1.254-9.262 2.602-18.511 3.972-27.757 2.26-15.235 4.71-30.443 6.807-45.7 1.32-9.605 1.952-19.304 3.239-28.915 1.259-9.411 3.081-18.746 4.429-28.147 1.63-11.371 2.846-22.803 4.565-34.16 1.813-11.977 3.818-23.935 6.198-35.809.461-2.3 2.692-4.623 4.7-6.161 4.693-3.597 9.434-7.377 14.72-9.9 10.248-4.89 21.63-7.529 32.538-4.948 7.46 1.765 14.68 6.88 20.677 12.042 15.547 13.38 30.37 27.602 45.463 41.508 10.436 9.616 20.805 19.304 31.27 28.887 13.143 12.035 26.38 23.968 39.528 35.999 10.573 9.675 21.024 19.483 31.614 29.139 17.99 16.403 36.113 32.661 54.051 49.12 11.325 10.391 22.233 21.24 33.655 31.52a3034 3034 0 0 0 51.02 44.894c10.076 8.666 20.15 17.472 31.08 24.967 9.509 6.52 19.912 11.985 30.479 16.65 12.566 5.547 25.621 10.065 38.671 14.409 8.965 2.984 18.447 4.427 27.392 7.46 7.715 2.617 15.189 6.139 22.436 9.902 21.165 10.989 34.126 29.658 45.64 49.621 9.545 16.547 13.53 34.392 13.5 53.409-.023 14.571-1.166 28.912-3.832 43.288-2.838 15.299-4.243 30.863-6.244 46.315-1.02 7.882-2.4 15.751-2.796 23.667-.232 4.664.843 9.474 1.867 14.1 1.692 7.65 2.815 15.663 6.016 22.685 3.97 8.713 9.427 16.841 14.931 24.742 10.268 14.74 25.952 23.35 39.927 33.815 23.597 17.67 47.39 35.08 71.231 52.421 13.176 9.583 26.735 18.638 39.905 28.229 14.915 10.86 29.526 22.137 44.382 33.08 14.043 10.342 28.27 20.432 42.345 30.732 13.295 9.73 26.615 19.432 39.697 29.442 9.16 7.008 18.971 13.59 26.577 22.077 6.674 7.449 12.529 16.579 10.198 28.076-.56 2.762.345 5.795-.016 8.628-2.031 15.941-11.868 26.012-25.289 33.466-15.25 8.47-31.574 12.517-48.955 12.773-17.052.25-33.932-.828-50.794-3.815-11.307-2.002-22.967-1.918-34.408-3.279-13.51-1.607-26.94-3.874-40.432-5.65-9.61-1.266-19.26-2.238-28.901-3.262-7.2-.765-14.422-1.314-21.615-2.124-7.663-.862-15.297-1.967-22.954-2.878a3667 3667 0 0 0-34.27-3.936c-9.971-1.09-19.974-1.904-29.93-3.116-11.879-1.446-23.71-3.283-35.586-4.768-9.627-1.204-19.287-2.134-28.932-3.193-9.477-1.04-18.956-2.06-28.428-3.14-7.994-.914-15.98-1.9-23.97-2.86-9.131-1.096-18.264-2.185-27.392-3.303-7.17-.878-14.331-1.829-21.503-2.688-10.924-1.31-21.849-2.611-32.782-3.83-7.197-.804-14.416-1.403-21.615-2.191-9.308-1.019-18.588-2.353-27.915-3.138-7.256-.61-14.582-.367-21.848-.895-15.518-1.128-29.456 4.16-43.039 10.541-12.05 5.662-23.007 13.088-31.576 23.457-6.923 8.377-13.42 17.104-20.152 25.64-11.842 15.016-23.765 29.968-35.516 45.053-1.341 1.722-1.803 4.128-2.673 6.217 1.792.514 3.56 1.35 5.38 1.49 14.146 1.092 28.301 2.058 42.455 3.046q21.726 1.518 43.456 3.002c14.819 1.01 29.655 1.818 44.456 3.048 17.549 1.459 35.06 3.361 52.604 4.892 6.917.603 13.886.583 20.813 1.09 11.995.879 23.976 1.95 35.965 2.928.828.068 1.665.024 2.497.043 14.608.332 29.291-.168 43.807 1.164 35.869 3.29 71.777 1.665 107.658 1.734 131.332.254 262.665.075 393.998.144 11.815.006 23.63.666 35.447.936 5.198.119 10.4.02 15.6.02 60.167 0 120.334-.05 180.5.046 11.257.018 22.513.847 33.771.882 8.802.028 17.607-.913 26.408-.86 17.939.11 35.874.8 53.813.862 11.94.04 23.882-.55 35.82-.946 7.315-.242 14.998.678 21.86-1.254 14.829-4.175 27.746-11.139 34.57-26.777 4.245-9.726 5.874-19.356 5.761-29.67-.137-12.498-.406-25.014.098-37.494.34-8.442-1.323-16.325-3.839-24.21-4.87-15.264-9.143-30.743-14.685-45.757-2.737-7.415-7.417-14.208-11.811-20.893-5.239-7.969-10.668-15.897-16.822-23.16-8.28-9.772-15.898-20.163-26.508-27.882-11.05-8.039-21.055-17.56-32.337-25.224-14.581-9.905-30.638-17.224-47.312-23.099-13.717-4.833-27.284-10.11-41.082-14.694-6.16-2.047-12.812-2.56-19.084-4.33-12.696-3.579-25.45-7.075-37.871-11.476-11.965-4.238-24.004-8.703-35.17-14.646-14.005-7.455-27.157-16.513-40.67-24.89-16.142-10.004-27.636-24.766-39.03-39.37-7.134-9.143-13.011-19.388-18.541-29.63-6.931-12.839-13.653-25.89-19.087-39.403-3.922-9.757-6.015-20.332-8.136-30.703-1.672-8.171-2.086-16.596-3.17-24.894-.529-4.059-2.038-8.122-1.837-12.12.57-11.343 1.683-22.664 2.793-33.972.866-8.812 1.246-17.785 3.292-26.34 2.506-10.475 5.838-20.879 10.026-30.801 9.969-23.618 20.718-46.905 31.024-70.382 7.23-16.47 14.209-33.05 21.375-49.548 5.726-13.18 11.437-26.37 17.385-39.45 8.484-18.655 15.717-38.049 27.905-54.7 5.793-7.914 13.137-14.848 20.497-21.42 7.974-7.12 16.158-14.41 25.382-19.625 12.913-7.301 26.6-13.47 40.49-18.713 7.81-2.949 16.693-3.05 25.089-4.46 6.723-1.132 12.63 1.735 18.58 3.98 20.06 7.567 36.994 19.44 50.227 36.525 5.622 7.258 12.563 13.565 17.673 21.135 7.811 11.57 14.466 23.913 21.777 35.827 6.978 11.369 14.278 22.54 21.236 33.921 9.271 15.167 18.261 30.505 27.532 45.672 10.312 16.87 20.835 33.61 31.207 50.443 9.97 16.18 19.857 32.412 29.793 48.613 9.887 16.12 19.79 32.23 29.688 48.342 9.042 14.719 18.09 29.434 27.13 44.154 9.016 14.68 18.063 29.343 27.031 44.054 9.49 15.566 18.842 31.215 28.36 46.762 15.147 24.745 30.401 49.425 45.577 74.153 26.068 42.475 52.098 84.974 78.168 127.448 11.424 18.613 22.976 37.148 34.347 55.792 12.623 20.694 25.07 41.496 37.663 62.207a4073 4073 0 0 0 24.102 39.152c6.71 10.76 13.714 21.338 20.335 32.15 5.388 8.799 10.266 17.908 15.614 26.73 6.579 10.853 13.526 21.481 20.107 32.332 10.155 16.743 20.006 33.672 30.229 50.373 9.075 14.824 18.602 29.37 27.705 44.179 7.994 13.004 15.519 26.297 23.53 39.29 16.436 26.657 33.084 53.183 49.586 79.798 4.52 7.289 9.644 14.356 13.006 22.164 3.05 7.086 4.495 14.967 5.849 22.64.834 4.727.788 9.815.054 14.574-1.622 10.506-6.561 19.24-15.913 24.94-8.413 5.128-16.79 10.325-25.366 15.17-12.128 6.854-24.386 13.479-36.655 20.078-13.283 7.145-26.276 15.005-40.094 20.92-9.629 4.12-20.388 5.7-30.738 7.983-4.302.949-8.851 1.039-13.29 1.058-22.542.098-45.084-.045-67.625.091-8.639.052-17.276.942-25.91.888-18.473-.117-36.943-.72-55.417-.871-6.77-.056-13.548.88-20.32.863-7.775-.02-15.546-.735-23.323-.887-8.53-.168-17.066-.039-25.6-.039h-417.457v38.1h-30.433l1.882-110.698h29.732v35.998h4.95c22 0 44-.128 66 .033 26.774.195 53.548.955 80.32.9 57.608-.117 115.215-.667 172.822-.879 11.94-.043 23.882.934 35.821.891 58.763-.213 117.525-.584 176.287-.984 6.443-.044 12.879-.825 19.323-.917 11.045-.16 22.096-.148 33.141 0 5.278.072 10.552.945 15.822.89 11.775-.123 23.638.178 35.295-1.166 10.51-1.212 21.605-1.71 30.737-9.265"/></svg>