<svg xmlns="http://www.w3.org/2000/svg" viewBox="0 0 2166 1500" xml:space="preserve"><path fill="#fff" d="M537 1404.206c126.774-.333 253.047-.796 379.322-.963 126.12-.167 252.242-.037 378.594-.037v34.588h-4.845c-387.833 0-775.665.047-1163.498-.192-14.014-.009-26.948-5.38-35.086-17.822-2.55-3.899-3.933-9.202-4.043-13.905-.169-7.172.155-14.724 2.3-21.468 1.814-5.701 6.086-10.835 10.022-15.6 7.466-9.04 15.454-17.652 23.256-26.414 13.744-15.435 27.57-30.8 41.24-46.3 4.795-5.436 9.945-10.758 13.645-16.906 3.97-6.596 6.099-13.959 2.86-22.039-4.365-10.885-8.117-22.015-12.129-33.042-7.597-20.883-15.141-41.785-22.807-62.642-4.01-10.91-8.86-21.554-12.17-32.664-2.974-9.985-4.243-20.468-6.48-30.685-3.216-14.681-3.598-29.566-2.848-44.441.487-9.647 2.208-19.23 3.345-28.846.868-7.34 1.545-14.706 2.568-22.023 1.085-7.76 2.501-15.473 3.729-23.214a907 907 0 0 0 2.215-14.817c2.001-14.12 4.073-28.23 5.93-42.37 1.816-13.827 3.26-27.704 5.131-41.523 1.781-13.151 4.038-26.238 5.836-39.388 1.556-11.386 2.659-22.833 4.153-34.228 1.215-9.26 2.79-18.472 4.063-27.724 1.386-10.076 2.522-20.186 3.93-30.258 1.246-8.92 2.798-17.798 4.067-26.716 1.71-12.013 3.221-24.054 4.924-36.068 1.403-9.896 3.045-19.757 4.425-29.655 1.292-9.265 2.327-18.564 3.574-27.835 1.027-7.635 2.222-15.247 3.303-22.874 1.91-13.473 3.75-26.955 5.693-40.422 1.709-11.843 3.554-23.667 5.271-35.51 1.295-8.927 2.483-17.871 3.716-26.808 1.434-10.395 2.883-20.788 4.293-31.185 1.588-11.706 3.074-23.426 4.728-35.123 1.377-9.732 3.02-19.428 4.388-29.161 1.302-9.265 2.307-18.572 3.623-27.835 1.013-7.133 2.417-14.21 3.441-21.341.98-6.825 1.641-13.695 2.548-20.53.56-4.217 1.344-8.404 1.98-12.611 2.323-15.393 4.727-30.774 6.898-46.189 1.237-8.78 1.937-17.634 3.138-26.42 1.397-10.221 3.145-20.395 4.62-30.607 1.523-10.554 2.876-21.133 4.35-31.695 1.427-10.224 2.94-20.436 4.362-30.66.611-4.393.71-8.895 1.74-13.18 1.003-4.182 2.343-8.48 4.521-12.141 3.672-6.17 8.085-11.904 12.28-17.754.83-1.155 2.012-2.1 3.156-2.98 9.217-7.099 19.7-11.45 30.773-14.847 12.373-3.797 24.464-1.76 36.878-.416 9.03.978 17.527 3.674 25.447 6.986 14.045 5.875 27.267 13.749 40.725 20.989 11.978 6.445 23.932 12.955 35.651 19.853 5.509 3.242 10.575 7.294 15.607 11.276 9.71 7.683 20.15 13.461 32.817 14.445 3.57.277 7.057 1.582 10.627 1.88 11.479.962 22.249-2.438 32.457-6.935 9.576-4.218 18.58-9.754 27.76-14.85a1452 1452 0 0 0 26.929-15.33c8.65-5.045 17.146-10.355 25.807-15.382 11.47-6.659 23.092-13.056 34.54-19.75 11.745-6.869 23.313-14.038 35.044-20.932 11.179-6.57 22.395-13.084 33.728-19.384 12.158-6.759 24.356-13.465 36.77-19.73 4.922-2.485 10.452-3.786 15.742-5.515 9.286-3.035 18.473-6.515 27.942-8.814 8.728-2.119 17.753-3.074 26.682-4.278 8.785-1.185 17.594-2.56 26.428-2.895 9.427-.357 18.895.468 28.347.664 7.364.153 14.808-.517 22.08.341 10.857 1.281 21.654 3.302 32.364 5.546a202 202 0 0 1 23.62 6.454c6.473 2.205 12.74 5.141 18.857 8.231 9.494 4.797 19.07 9.538 28.085 15.15 10.33 6.431 20.27 13.54 30.041 20.808 10.966 8.157 21.347 17.109 32.41 25.125 4.402 3.19 9.762 5.823 15.038 6.797 4.132.762 9.465-.324 13.124-2.504 12.408-7.391 24.631-15.189 36.332-23.651 19.602-14.178 41.224-21.722 65.227-18.687 8.886 1.123 17.409 6.52 25.677 10.784 10.751 5.545 21.12 11.84 31.586 17.929 10.263 5.97 20.404 12.15 30.668 18.116 8.621 5.013 17.39 9.772 26.008 14.79 8.935 5.203 17.718 10.665 26.655 15.863 12.2 7.097 24.488 14.045 36.73 21.069 7.175 4.116 14.303 8.313 21.512 12.368 6.417 3.61 12.893 7.118 19.383 10.594 10.198 5.462 20.481 10.766 30.631 16.314 7.786 4.256 15.441 8.754 23.112 13.218 1.554.904 3.14 1.934 4.331 3.25 11.736 12.958 23.876 25.596 34.882 39.152 6.177 7.61 10.38 16.811 15.581 25.228 7.776 12.582 15.737 25.05 23.458 37.664 9.86 16.111 19.515 32.347 29.336 48.481 13.692 22.494 27.446 44.949 41.191 67.41 13.622 22.257 27.22 44.53 40.915 66.742 10.724 17.397 21.647 34.672 32.358 52.077 10.609 17.24 21.04 34.589 31.59 51.865 15.383 25.185 30.825 50.334 46.198 75.525 9.596 15.725 19.022 31.556 28.707 47.227 4.324 6.998 9.292 13.599 13.622 20.594 7.163 11.57 14.03 23.323 21.05 34.982 7.042 11.692 14.126 23.36 21.18 35.044 8.505 14.085 16.89 28.244 25.534 42.243 6.577 10.65 13.6 21.025 20.193 31.666 4.947 7.985 9.44 16.25 14.287 24.3 7.631 12.676 15.365 25.29 23.1 37.904 7.67 12.503 15.338 25.006 23.109 37.446 6.693 10.716 13.639 21.275 20.266 32.03 5.09 8.261 9.714 16.809 14.8 25.072 10.796 17.542 21.855 34.922 32.608 52.49 4.721 7.714 8.736 15.86 13.455 23.577 11.825 19.337 23.892 38.526 35.818 57.802a10157 10157 0 0 1 26.355 42.858c8.522 13.93 16.956 27.912 25.484 41.836 8.418 13.745 16.976 27.406 25.335 41.186 4.326 7.131 6.17 15.14 6.854 23.33.446 5.337 1.209 11.056-.183 16.04-2.01 7.194-3.741 15.009-11.086 19.524-9.926 6.1-19.429 12.927-29.565 18.64-18.89 10.649-38.197 20.558-57.157 31.087-12.812 7.114-26.014 13.219-40.505 15.607-7.506 1.237-15.275.858-22.923 1.254-5.61.29-11.215.944-16.822.946-197 .05-394 .042-590.999.042h-6.556v39.026h-30.368l1.91-109.702h29.68v35.874c1.652.073 3.25.206 4.847.206 205.5.009 411 .09 616.499-.18 13.544-.017 25.942-5.711 37.752-12.637 13.491-7.91 27.598-14.766 41.342-22.254 8.48-4.62 16.821-9.502 25.15-14.392 4.502-2.643 9.103-5.236 13.132-8.502 1.48-1.2 2.182-4.347 1.966-6.477-.742-7.337-4.647-13.505-8.348-19.673-8.51-14.179-16.936-28.41-25.648-42.463-8.243-13.298-16.982-26.29-25.175-39.617-7.131-11.6-13.695-23.547-20.71-35.22-6.943-11.55-14.178-22.923-21.212-34.418-8.547-13.966-16.953-28.018-25.54-41.96-8.205-13.321-16.63-26.507-24.84-39.827-11.023-17.882-21.858-35.88-32.908-53.746-10.424-16.853-21.142-33.525-31.508-50.413-8.699-14.173-16.952-28.618-25.63-42.803-9.696-15.846-19.716-31.494-29.472-47.304-9.593-15.547-19.044-31.182-28.534-46.792-9.57-15.743-19.075-31.525-28.678-47.248-9.669-15.83-19.437-31.6-29.133-47.414a9801 9801 0 0 1-22.292-36.524c-10.46-17.229-20.787-34.54-31.35-51.705-8.464-13.755-17.307-27.277-25.77-41.033-6.857-11.147-13.252-22.578-20.12-33.719-6.654-10.797-13.798-21.293-20.449-32.092-5.081-8.252-9.537-16.888-14.611-25.145-8.433-13.722-17.251-27.207-25.703-40.919-10.84-17.587-21.44-35.323-32.218-52.95-6.6-10.792-13.404-21.458-19.998-32.254-9.866-16.154-19.602-32.388-29.442-48.56a8051 8051 0 0 0-24.915-40.687c-7.484-12.139-14.528-24.597-22.751-36.218-6.266-8.853-14.254-16.467-21.153-24.896-9.944-12.15-24.188-17.891-37.244-25.322-11.373-6.472-23.29-11.977-34.819-18.186-9.671-5.208-19.15-10.777-28.674-16.254-10.492-6.034-20.975-12.086-31.398-18.237-17.263-10.187-34.407-20.575-51.729-30.66-15.064-8.771-30.337-17.182-45.453-25.865-8.548-4.91-16.76-10.443-25.5-14.969-7.77-4.023-15.396-7.028-25.235-4.547-12.397 3.126-22.376 9.63-32.687 16.346-12.98 8.455-26.2 16.592-39.74 24.103-3.973 2.204-9.503 1.396-14.11 2.704-8.798 2.497-17.207.812-25.617-1.512-2.617-.723-5.233-1.661-7.634-2.916-11.063-5.78-20.046-14.373-29.825-21.932-12.611-9.75-25.73-18.942-39.251-27.38-11.867-7.407-24.192-14.384-37.046-19.818-12.713-5.375-25.622-11.08-39.81-11.912-17.649-1.036-35.305-2.808-52.95-2.73-12.23.054-24.466 2.578-36.667 4.229-6.805.92-13.6 2.07-20.297 3.573-5.083 1.14-10.043 2.886-14.985 4.574-3.68 1.257-7.283 2.761-10.85 4.314-8.518 3.707-17.168 7.167-25.445 11.358-10.432 5.282-20.657 11.002-30.776 16.868-24.489 14.197-48.862 28.592-73.287 42.9-13.647 7.994-27.308 15.966-40.954 23.963-16.304 9.554-32.373 19.54-48.975 28.546-11.955 6.485-24.82 10.778-38.544 12.518-15.8 2.004-31.169.341-46.596-2.976-13.04-2.805-23.134-10.573-33.49-18.155-5.768-4.225-11.734-8.23-17.884-11.873-15.95-9.445-31.808-19.093-48.18-27.759-10.365-5.486-21.579-9.372-32.436-13.92-.882-.37-1.947-.322-2.93-.432-5.588-.624-11.191-1.13-16.762-1.88-7.992-1.078-24.91 7.741-29.445 14.785-4.853 7.536-5.318 16.08-6.64 24.428-1.845 11.65-3.36 23.353-4.904 35.048-1.46 11.066-2.632 22.17-4.198 33.22-1.331 9.395-3.156 18.719-4.553 28.105-1.28 8.604-2.279 17.249-3.403 25.875-1.165 8.944-2.282 17.894-3.51 26.828-1.787 12.989-3.603 25.975-5.507 38.947-1.498 10.203-3.216 20.373-4.71 30.576-1.19 8.119-2.15 16.27-3.283 24.397-.997 7.143-2.124 14.268-3.136 21.41-.989 6.977-1.884 13.97-2.859 20.95-1.156 8.278-2.414 16.543-3.516 24.829-.91 6.838-1.542 13.714-2.509 20.543-1.167 8.243-2.583 16.451-3.843 24.682a749 749 0 0 0-2.118 14.843c-1.726 13.009-3.414 26.022-5.116 39.034-1.298 9.917-2.47 19.852-3.926 29.746-1.598 10.86-3.516 21.671-5.177 32.522-1.042 6.805-1.827 13.65-2.8 20.467-1.086 7.62-2.292 15.222-3.375 22.842-.924 6.492-1.71 13.004-2.624 19.498-1.053 7.469-2.175 14.928-3.277 22.39-.897 6.072-1.875 12.133-2.7 18.214a6799 6799 0 0 0-5.43 40.955c-1.244 9.602-2.311 19.228-3.607 28.823-1.294 9.583-2.786 19.139-4.167 28.71-.633 4.382-1.174 8.777-1.817 13.156-1.427 9.724-2.926 19.437-4.33 29.164-1.266 8.765-2.338 17.56-3.694 26.311-1.295 8.366-2.994 16.67-4.236 25.042-.83 5.597-.936 11.303-1.788 16.895-1.27 8.332-3.072 16.583-4.336 24.916-.823 5.427-.922 10.96-1.642 16.407-1.76 13.322-4.032 26.587-5.448 39.943-1.211 11.437-5.272 22.632-3.473 34.323 1.518 9.87 3.178 19.73 5.231 29.499 1.842 8.765 3.963 17.503 6.589 26.062 2.615 8.527 6.08 16.791 9.045 25.216 2.807 7.975 5.28 16.071 8.21 24 3.227 8.734 6.895 17.305 10.206 26.01 2.37 6.232 4.427 12.584 6.705 18.853 1.553 4.273 3.484 8.422 4.83 12.756 3.456 11.127 9.203 21.636 8.209 33.946-1.277 15.801-5.587 30.175-16.508 42.228-16.575 18.292-32.862 36.844-49.328 55.237-7.136 7.971-14.95 15.409-21.4 23.891-3.371 4.434-9.184 8.83-5.73 17.592 33.926.372 68.48.122 103.029.166 34.5.044 69 .01 103.5.01z"/></svg>