<svg xmlns="http://www.w3.org/2000/svg" viewBox="0 0 2211 1500" xml:space="preserve"><path fill="#fff" d="M2157.66 1404.638c-22.713 12.357-44.977 24.765-67.551 36.578-10.601 5.548-22.051 8.854-34.028 10.712-24.171 3.75-48.436 1.722-72.633 1.75-195.33.23-390.66.13-585.991.13l-6.544-.001v34.017h-30.36l1.901-104.711h29.657v34.164c4.246 0 8.388-.029 12.53.005q30.403.25 60.807.533c1.488.014 2.976.185 4.464.185 110.665.01 221.33.01 331.995.01 11.025 0 22.05.114 33.074-.024 15.95-.2 31.896-.74 47.846-.854 53.408-.38 106.826-.233 160.22-1.295a60.66 60.66 0 0 0 29.924-8.63c12.385-7.453 25.287-14.047 37.975-20.997 10.466-5.731 20.955-11.42 31.409-17.172 6.59-3.627 13.177-7.266 19.686-11.036 4.034-2.338 4.77-5.649 4.062-10.408-1.439-9.673-7.582-16.837-12.103-24.782-7.886-13.86-16.546-27.283-24.97-40.833-8.09-13.017-16.388-25.906-24.419-38.96-7.26-11.802-14.246-23.772-21.418-35.63-9.105-15.052-18.306-30.046-27.408-45.1-9.237-15.277-18.327-30.643-27.62-45.887-12.305-20.186-24.76-40.282-37.123-60.433-10.152-16.546-20.249-33.125-30.399-49.671-16.1-26.247-32.226-52.478-48.337-78.717-12.482-20.33-24.938-40.676-37.445-60.99-7.778-12.633-15.653-25.207-23.44-37.835a10935 10935 0 0 1-25.02-40.76c-8.23-13.476-16.34-27.026-24.618-40.472-17.33-28.147-34.792-56.213-52.088-84.381-9.081-14.79-17.787-29.81-26.909-44.575-12.818-20.749-26.072-41.23-38.755-62.06-11.629-19.1-22.547-38.631-34.158-57.741-8.7-14.318-18.128-28.19-26.996-42.407-7.33-11.75-14.27-23.744-21.463-35.582a16763 16763 0 0 0-36.062-59.094c-7.926-12.924-16.016-25.748-23.938-38.675-12-19.58-23.907-39.218-35.87-58.82-6.141-10.06-11.872-20.412-18.624-30.045-5.271-7.52-11.779-14.182-17.837-21.139-7.162-8.226-15.484-15.048-25.036-20.373-8.116-4.524-16.826-6.325-25.577-3.278-11.13 3.877-22.229 8.156-32.688 13.532-6.915 3.554-12.946 9.038-18.898 14.206-7.584 6.586-15.634 12.99-21.73 20.834-5.925 7.622-9.923 16.823-14.23 25.595-4.022 8.195-7.367 16.724-10.96 25.128-3.758 8.786-7.387 17.628-11.201 26.39-3.348 7.688-6.93 15.274-10.308 22.95-3.615 8.215-7.085 16.495-10.67 24.724-2.228 5.11-4.528 10.19-6.84 15.264-3.596 7.893-7.251 15.76-10.842 23.655-2.977 6.548-5.953 13.098-8.83 19.69-5.373 12.303-11.697 24.316-15.701 37.055-3.596 11.439-4.829 23.656-6.693 35.593-1.368 8.76-2.755 17.612-2.92 26.445-.284 15.162 3.04 29.973 5.307 44.92 2.32 15.286 8.606 28.79 15.626 41.886 8.608 16.056 18.394 31.575 28.777 46.56 11.07 15.979 26.768 27.102 43.413 36.818 6.378 3.724 12.525 7.98 19.234 10.966 9.122 4.06 18.704 7.076 28.047 10.65 6.56 2.51 12.893 5.756 19.61 7.688 10.033 2.886 20.38 4.662 30.471 7.37 7.572 2.032 15.033 4.56 22.396 7.27 15.235 5.604 30.258 11.804 45.578 17.16 23.082 8.07 43.233 20.992 62.08 36.208 9.471 7.647 19.79 14.551 27.98 23.407 12.722 13.756 25.923 27.291 35.517 43.689 5.238 8.954 11.18 17.512 16.115 26.622 3.227 5.959 5.206 12.592 7.769 18.913 1.283 3.166 2.817 6.245 3.9 9.477a919 919 0 0 1 7.836 24.49c2.174 7.144 4.377 14.299 6.032 21.571.59 2.59-.604 5.534-.62 8.32-.082 13.498-.125 27 0 40.498.048 5.269.665 10.53.86 15.801.782 21.062-7.914 38.616-19.291 55.689-7.539 11.312-18.993 16.451-29.704 22.937-4.803 2.909-10.717 3.926-15.715 6.58-12.392 6.577-25.656 3.74-38.513 3.769-106.665.235-213.33.25-319.995.107-178.105-.238-356.21-.526-534.313-1.101-25.99-.084-51.977-1.822-77.962-2.897-13.053-.54-26.114-1.064-39.138-2.044-13.283-1-26.518-2.626-39.79-3.81-3.803-.34-7.677.139-11.486-.167-10.499-.843-20.973-1.985-31.47-2.844-6.424-.526-12.879-.663-19.308-1.128-17.76-1.286-35.512-2.704-53.274-3.96-6.93-.49-13.897-.48-20.814-1.078-8.011-.693-15.966-2.099-23.982-2.648-7.132-.488-14.406.467-21.45-.472-8.847-1.18-17.776-2.89-26.21-5.733-10.97-3.7-19.199-23.164-17.118-36.043 2.318-14.348 11.058-24.462 19.336-35.15 7.463-9.638 14.778-19.395 22.458-28.857 14.122-17.396 26.433-36.425 43.694-51.033 6.475-5.48 13.992-10.036 21.652-13.736 12.017-5.805 24.414-10.918 36.946-15.517 5.11-1.876 10.974-1.955 16.529-2.3 9.424-.587 18.893-1.24 28.312-.928 9.343.31 18.644 1.807 27.97 2.724 10.968 1.078 21.965 1.906 32.91 3.18 14.012 1.632 27.978 3.653 41.977 5.398 5.39.671 10.834.911 16.224 1.583 12.206 1.52 24.385 3.265 36.593 4.768 9.629 1.185 19.295 2.062 28.927 3.224 15.308 1.846 30.6 3.83 45.902 5.727 8.966 1.112 17.94 2.167 26.91 3.253 16.458 1.994 32.903 4.117 49.38 5.945 11.12 1.233 22.306 1.86 33.422 3.122 8.133.923 16.183 2.558 24.3 3.655 6.842.925 13.726 1.527 20.59 2.28 9.31 1.02 18.623 2.018 27.927 3.082 8.155.932 16.302 1.94 24.452 2.917 8.96 1.075 17.912 2.231 26.884 3.204 6.873.746 13.778 1.193 20.656 1.895 12.26 1.252 24.498 2.727 36.768 3.861 10.517.973 20.719-1.184 30.57-4.54 4.96-1.69 9.855-4.144 14.118-7.181 7.76-5.529 3.857-12.983-1.272-17.019-10.983-8.643-22.635-16.43-33.939-24.669-16.773-12.226-33.469-24.558-50.222-36.812-14.745-10.784-29.592-21.43-44.267-32.31-12.667-9.39-25.066-19.144-37.747-28.516-12.793-9.455-25.8-18.62-38.688-27.944-15.335-11.093-30.84-21.963-45.91-33.404-16.668-12.653-33.618-25.08-49.092-39.1-8.499-7.699-14.212-18.472-21.18-27.86-1.064-1.434-2.428-2.736-3.129-4.33-2.81-6.394-6.149-12.683-7.936-19.373-3.421-12.81-6.04-25.68-6.6-39.208-.592-14.334.508-28.144 3.136-42.127 1.816-9.666 2.004-19.628 3.36-29.396.896-6.46 3.03-12.758 3.792-19.226 1.098-9.316 1.45-18.72 2.127-28.086.6-8.32-.116-16.536-3.072-24.34-4.91-12.96-11.682-24.903-20.591-35.586-7.46-8.946-16.69-15.814-27.399-19.88-9.855-3.743-20.496-5.359-30.595-8.533-12.095-3.802-24.154-7.837-35.913-12.558-11.68-4.69-23.445-9.533-34.295-15.823-11.195-6.49-21.57-14.498-31.863-22.414-9.412-7.24-18.327-15.141-27.296-22.94-11.177-9.72-22.622-19.188-33.18-29.55-27.594-27.084-55.122-54.254-81.954-82.086-12.848-13.326-24.064-28.226-36.013-42.418-9.345-11.1-18.602-22.275-28.04-33.295-12.783-14.926-25.404-30.01-38.697-44.473-5.979-6.505-12.992-12.307-20.358-17.19-4.083-2.706-9.807-3.65-14.887-3.996-10.873-.74-21.805-.558-32.386 2.826-5.943 1.9-10.31 5.372-13.757 10.841-5.719 9.074-5.392 19.333-7.023 29.2-1.762 10.668-2.994 21.423-4.45 32.141-1.544 11.377-2.99 22.768-4.643 34.13-1.7 11.667-3.713 23.29-5.374 34.962-1.364 9.588-2.353 19.229-3.632 28.83-.474 3.56-1.461 7.053-1.938 10.613-1.74 13.007-3.172 26.058-5.077 39.04-2.449 16.686-5.43 33.294-7.813 49.99-1.415 9.92-1.952 19.962-3.203 29.91-.775 6.163-2.254 12.236-3.224 18.38-1.024 6.479-1.847 12.99-2.706 19.495-1.117 8.456-2.162 16.922-3.277 25.38-1.22 9.268-2.406 18.541-3.752 27.792-1.463 10.043-3.225 20.044-4.614 30.098-1.594 11.545-2.85 23.136-4.388 34.689-1.232 9.26-2.645 18.495-4.014 27.736-1.296 8.753-2.678 17.493-3.951 26.25-1.132 7.788-2.15 15.593-3.248 23.386-1.236 8.767-2.552 17.523-3.752 26.296-1.757 12.834-3.37 25.69-5.18 38.516-1.51 10.702-3.24 21.372-4.823 32.063-1.68 11.344-3.418 22.68-4.922 34.048-2.13 16.1-3.913 32.248-6.14 48.335-1.663 12-3.937 23.915-5.668 35.907-1.314 9.101-2.145 18.271-3.297 27.397-.924 7.322-2.002 14.624-3.022 21.933-1.315 9.416-2.554 18.844-3.984 28.243-1.502 9.871-3.36 19.69-4.757 29.575-1.584 11.212-2.712 22.488-4.253 33.706-1.604 11.689-3.487 23.339-5.205 35.012-1.289 8.758-2.456 17.534-3.778 26.287-.904 5.982-3.162 12.022-2.746 17.89.972 13.727 2.808 27.428 5.028 41.02 1.654 10.124 4.308 20.097 6.82 30.061.986 3.914 2.828 7.608 4.232 11.42a4672 4672 0 0 1 7.707 21.117c2.265 6.24 4.396 12.531 6.778 18.726 4.823 12.542 9.928 24.978 14.636 37.562 5.262 14.065 10.94 28.043 14.986 42.465 1.972 7.031.754 14.987.784 22.524.042 10.557-4.139 19.966-9.344 28.69-3.914 6.56-9.123 12.414-14.18 18.211-11.55 13.24-23.324 26.286-35.08 39.345-6.598 7.328-13.484 14.4-19.976 21.82-6.34 7.244-12.55 14.624-18.41 22.256-3.032 3.947-1.508 7.297 3.271 8.057 5.427.863 10.922 1.843 16.387 1.844 403.16.068 806.32.043 1209.48.026h6.05v35.796h-6.945c-335.828 0-671.656-.056-1007.484.045-70.273.022-140.546.845-210.818.76-13.437-.016-26.52-2.965-37.576-12.266-7.648-6.434-9.635-14.84-11.127-23.695-1.152-6.83 1.006-13.358 2.151-20.075 1.755-10.294 8.957-16.363 14.92-23.282 14.912-17.298 30.477-34.032 45.76-51.01 8.636-9.595 17.197-19.258 25.859-28.829 6.148-6.794 10.3-14.639 11.044-23.741.306-3.743-1.063-7.802-2.375-11.465-4.36-12.177-9.13-24.207-13.575-36.354-4.72-12.896-9.2-25.88-13.878-38.791-3.228-8.91-6.642-17.752-9.923-26.642-2.723-7.376-5.343-14.789-8.07-22.162-.898-2.425-2.348-4.695-2.928-7.18-3.081-13.22-7.253-26.359-8.59-39.77-1.64-16.443-4.683-32.951-.804-49.766 2.605-11.293 2.858-23.117 4.374-34.676 1.257-9.582 2.906-19.111 4.226-28.686 1.345-9.751 2.465-19.533 3.751-29.293.943-7.153 1.987-14.293 3.004-21.436 1.316-9.25 2.766-18.48 3.953-27.746 2.418-18.888 4.539-37.815 7.084-56.685 2.035-15.092 4.661-30.105 6.748-45.191 1.328-9.598 1.945-19.294 3.254-28.895 1.481-10.873 3.425-21.682 5.076-32.533.74-4.86 1.165-9.768 1.887-14.631 2.622-17.655 5.367-35.29 7.952-52.95 2.09-14.275 4.017-28.573 6.016-42.861 2-14.283 4.093-28.553 5.972-42.851 2.116-16.103 3.88-32.254 6.097-48.343 1.718-12.472 4.09-24.855 5.816-37.327 1.62-11.709 2.6-23.505 4.18-35.22 1.531-11.364 3.55-22.661 5.199-34.01 1.367-9.411 2.426-18.867 3.771-28.282 1.714-12.003 3.63-23.977 5.361-35.978 1.287-8.926 2.335-17.887 3.648-26.808.858-5.831 2.109-11.604 2.987-17.432 1.1-7.299 1.957-14.633 2.991-21.942 1.86-13.14 3.82-26.264 5.647-39.408 1.198-8.62 2.276-17.258 3.334-25.896 1.098-8.964 2-17.953 3.186-26.905 1.142-8.607 2.5-17.186 3.835-25.767 1.536-9.868 3.315-19.7 4.689-29.59 1.603-11.542 2.26-23.251 4.485-34.662 2.009-10.299.624-21.518 7.647-30.65 3.812-4.957 7.118-10.302 10.86-15.317 4.881-6.542 12.247-9.796 18.918-14.012 10.479-6.62 22.364-7.647 34.086-8.195 11.031-.516 22.27-.142 33.192 1.422 15.58 2.231 28.494 10.414 39.134 21.86 12.915 13.893 25.63 27.978 38.207 42.178 10.295 11.623 20.347 23.464 30.347 35.343 8.074 9.592 15.838 19.445 23.88 29.065 4.408 5.272 9.032 10.368 13.692 15.421 5.73 6.215 11.44 12.463 17.442 18.411 12.642 12.527 25.577 24.759 38.183 37.322 9.417 9.386 18.076 19.568 27.842 28.56 14.827 13.653 30.328 26.573 45.529 39.82 5.735 5 11.093 10.51 17.227 14.954a364 364 0 0 0 28.354 18.6c6.854 4.05 14.197 7.391 21.594 10.373 9.532 3.842 19.285 7.158 29.033 10.43 15.963 5.36 32.35 9.638 47.913 15.963 18.172 7.385 32.094 20.578 43.457 36.577 9.704 13.664 17.677 28.168 22.378 44.26 1.826 6.25 3.11 12.84 3.378 19.328.79 19.18-.17 38.204-4.537 57.11-2.609 11.296-3.012 23.105-4.362 34.688s-3.631 23.167-3.713 34.762c-.101 14.312 2.394 28.737 8.954 41.514 6.73 13.109 15.069 25.482 27.347 34.464 9.026 6.604 17.957 13.34 27 19.92 22.947 16.695 45.95 33.31 68.894 50.008 10.385 7.559 20.705 15.207 31.011 22.872 10.62 7.898 21.1 15.986 31.798 23.777 16.494 12.01 33.201 23.728 49.67 35.772 20.607 15.07 41.111 30.28 61.562 45.56 7.897 5.899 15.675 11.98 23.236 18.302 6.628 5.542 10.003 13.233 13.44 21.028 3.935 8.927 3.894 17.691.74 26.433-4.66 12.915-11.253 24.602-24.808 30.258-9.348 3.9-18.721 7.842-28.353 10.92-5.855 1.873-12.233 3.015-18.36 2.955-15.717-.155-31.47-.632-47.121-1.99-13.863-1.204-27.589-3.917-41.41-5.68-10.112-1.291-20.297-1.996-30.423-3.192-12.378-1.462-24.724-3.2-37.093-4.747-6.528-.817-13.075-1.476-19.612-2.222-14.355-1.636-28.7-3.376-43.067-4.895-11.125-1.176-22.311-1.815-33.41-3.175-12.032-1.474-23.994-3.507-35.987-5.294-1.462-.218-2.92-.467-4.388-.628-17.965-1.967-35.927-3.967-53.9-5.86-10.8-1.138-21.628-2.002-32.423-3.175-10.439-1.134-20.846-2.548-31.276-3.763-9.635-1.122-19.294-2.039-28.92-3.234-12.035-1.495-24.03-3.325-36.074-4.743-10.782-1.268-21.717-1.534-32.387-3.386-16.597-2.882-33.25-2.912-49.967-2.875-13.26.03-25.065 4.806-36.559 10.709-3.788 1.945-7.497 4.052-11.2 6.16-14.653 8.337-24.05 21.854-34.148 34.686-11.814 15.01-23.706 29.96-35.5 44.986-3.707 4.723-7.206 9.609-11.442 15.28 2.466.281 3.836.476 5.213.59 16.257 1.336 32.512 2.686 48.773 3.973 5.433.43 10.875.812 16.32 1.006 11.605.415 23.238.337 34.815 1.117 13.95.94 27.853 2.588 41.78 3.879 7.873.73 15.748 1.467 23.634 2.006 15.813 1.08 31.632 2.058 47.453 3.016 11.877.72 23.758 1.402 35.642 1.993 14.71.73 29.423 1.478 44.142 1.987 22.543.78 45.09 1.8 67.641 1.938 48.164.295 96.332-.04 144.497.128 44.107.154 88.213.74 132.32.9 14.939.055 29.88-.782 44.82-.869 8.439-.05 16.881.884 25.322.888 136.044.06 272.089.043 408.133.043 30.38 0 60.764-.24 91.139.138 9.768.122 17.98-3.4 26.215-7.706 18.943-9.904 24.316-27.378 25.308-46.751.734-14.342.503-28.765-.008-43.126-.253-7.125-1.507-14.354-3.361-21.253-3.43-12.76-6.868-25.618-11.744-37.86-4.456-11.193-10.25-21.97-16.481-32.31-8-13.272-17.603-25.433-28.334-36.733-11.024-11.609-23.353-21.516-35.903-31.404-11.73-9.243-24.521-16.422-37.574-23.075-10.836-5.523-22.738-8.96-34.187-13.267-7.484-2.815-14.907-5.842-22.532-8.216-8.38-2.609-16.967-4.546-25.45-6.832-9.325-2.514-18.83-4.542-27.907-7.764-15.156-5.378-30.326-10.903-44.937-17.576-10.98-5.014-21.301-11.599-31.533-18.088-9.02-5.722-17.608-12.15-26.181-18.542-2.722-2.03-4.748-4.979-7.156-7.444-11.705-11.98-22.155-24.9-30.36-39.582-6.18-11.059-13.003-21.773-18.82-33.012-5.252-10.147-9.92-20.646-14.076-31.29-2.234-5.722-3.39-12.012-4.098-18.154-1.996-17.312-4.4-34.654-4.93-52.036-.415-13.61.318-27.596 3.128-40.867 2.781-13.13 4.794-26.596 10.978-39.085 8.283-16.727 14.983-34.235 22.47-51.36 8.535-19.527 17.246-38.977 25.766-58.51 4.64-10.638 8.903-21.44 13.588-32.056 5.543-12.56 11.207-25.072 17.097-37.473 6.453-13.589 12.365-27.55 20.148-40.354 5.5-9.048 13.115-17.087 20.891-24.4 8.488-7.982 17.903-15.124 27.578-21.648 6.725-4.534 14.34-8.024 21.97-10.879 12.173-4.555 24.48-9.185 37.139-11.845 7.463-1.569 16.26-1.01 23.483 1.451 11.902 4.056 23.521 9.59 34.283 16.113 7.434 4.506 13.51 11.45 19.66 17.819 5.606 5.803 10.867 12.028 15.61 18.553 6.844 9.416 13.304 19.133 19.527 28.974 8.346 13.197 16.286 26.65 24.441 39.967 14.227 23.233 28.507 46.433 42.721 69.674 9.83 16.07 19.532 32.219 29.388 48.272 8.236 13.415 16.708 26.685 24.902 40.125 7.602 12.471 14.821 25.177 22.483 37.612 11.384 18.476 23.053 36.778 34.516 55.207 6.401 10.292 12.605 20.706 18.941 31.039 8.959 14.61 17.957 29.195 26.941 43.79 12.38 20.111 24.817 40.19 37.126 60.345 8.213 13.45 16.128 27.082 24.392 40.499 8.263 13.416 16.973 26.559 25.16 40.02 8.597 14.133 16.666 28.586 25.23 42.739 6.371 10.525 13.223 20.758 19.751 31.19 4.46 7.127 8.722 14.377 13.09 21.562 9.57 15.74 19.211 31.44 28.714 47.22 11.87 19.712 23.558 39.534 35.476 59.217 4.262 7.038 9.016 13.777 13.457 20.709 4.67 7.289 9.317 14.595 13.823 21.986 5.388 8.837 10.568 17.801 15.922 26.66 12.244 20.259 24.493 40.514 36.828 60.718 8.138 13.33 16.546 26.495 24.612 39.868 6.8 11.275 13.061 22.879 19.967 34.086 6.518 10.577 13.786 20.69 20.323 31.256 7.921 12.806 15.245 25.982 23.144 38.803 12.794 20.764 25.951 41.304 38.754 62.063 8.706 14.115 17.636 28.143 25.333 42.806 3.56 6.782 4.557 14.95 6.462 22.553 3.127 12.481.145 24.168-7.035 34.207-3.775 5.279-9.889 9.114-15.467 12.817-7.47 4.961-15.445 9.163-23.527 13.885"/></svg>