<svg xmlns="http://www.w3.org/2000/svg" viewBox="0 0 1892 668" xml:space="preserve"><path fill="#fff" d="M1640.84 457.188c.5-5.707.97-10.989 1.394-15.74 13.148.975 26.028 1.696 38.853 2.963 8.727.863 17.378 2.493 26.063 3.774.493.073.994.086 1.49.141 14.856 1.663 29.696 3.49 44.573 4.935 9.996.97 20.071 1.137 30.062 2.147 8.926.902 17.754 2.993 26.686 3.517 4.435.26 9.14-1.465 13.431-3.069 1.183-.442 1.69-3.645 1.88-5.64 1.415-14.91 2.674-29.835 3.983-44.755.014-.166.048-.33.058-.495.674-10.879 1.27-21.763 2.042-32.635.537-7.556 1.41-15.088 1.96-22.643 1.07-14.65 1.831-29.324 3.074-43.958.987-11.618 2.501-23.191 3.783-34.784.037-.33.119-.657.139-.988.676-11.192 1.286-22.387 2.04-33.574.564-8.387 1.257-16.767 2.006-25.14.3-3.359-.797-4.352-4.36-4.73-9.359-.995-18.625-2.84-27.951-4.19-6.99-1.011-14.036-1.65-21.021-2.69-7.27-1.08-14.5-2.443-21.747-3.678a28 28 0 0 0-1.964-.278c-13.579-1.345-27.17-2.575-40.733-4.057a1007 1007 0 0 1-31.693-3.995c-8.957-1.268-17.845-3.029-26.805-4.276-12.262-1.707-24.583-3.001-36.843-4.73-7.213-1.018-14.356-2.535-21.532-3.824-.327-.058-.66-.087-.99-.113-8.48-.672-16.979-1.169-25.436-2.057-10.5-1.103-20.965-2.53-31.445-3.817-.33-.04-.659-.104-.99-.123-11.511-.675-23.05-1.05-34.527-2.09-14.577-1.323-29.085-3.414-43.662-4.741-11.674-1.063-23.426-1.26-35.108-2.25-11.108-.94-22.171-2.41-33.254-3.654-.492-.055-.973-.23-1.465-.26-11.372-.681-22.764-1.119-34.112-2.085-11.612-.99-23.165-2.66-34.773-3.702-5.5-.494-11.083.013-16.6-.362-4.395-.298-8.726-1.46-13.12-1.86-12.144-1.11-24.32-1.872-36.456-3.056-10.943-1.068-21.85-2.513-32.772-3.79-.495-.058-.99-.129-1.488-.155q-18.814-1.009-37.63-2.012c-1.159-.062-2.34-.015-3.473-.221-5.57-1.012-7.265.68-7.825 6.123-1.14 11.101-2.748 22.155-4.225 33.22-.766 5.736-1.824 11.438-2.468 17.187-.88 7.856-1.289 15.768-2.275 23.61-1.035 8.224-2.517 16.393-3.796 24.588-.077.491-.103.991-.142 1.488-.67 8.54-.942 17.134-2.1 25.606-1.723 12.605-4.09 25.12-6.126 37.683-.2 1.231.365 2.675-.07 3.764-1.641 4.122-3.54 7.532-9.263 7.092-7.417-.57-14.952.353-22.361-.27-8.272-.696-16.458-2.403-24.681-3.67-.329-.052-.652-.15-.982-.176-9.025-.678-18.074-1.126-27.068-2.086-8.954-.956-17.82-3.032-26.785-3.537-15.895-.896-31.754-4.931-47.8-.717-3.569.938-7.566.178-11.36.33-15.85.637-31.702 1.24-47.544 2.025-10.052.498-20.098 1.188-30.128 2.01-4.899.402-9.834.992-14.584 2.175-1.355.337-3.062 3.09-2.997 4.67.356 8.683 1.106 17.355 1.928 26.012.71 7.476-2.94 12.171-10.228 13.591-9.706 1.89-19.291 4.415-29.01 6.226-6.27 1.168-12.716 1.353-19.029 2.33-6.714 1.041-13.346 2.608-20.05 3.737-5.336.9-10.73 1.449-16.09 2.221-4.155.6-8.287 1.363-12.444 1.947-7.536 1.057-15.096 1.942-22.62 3.072-6.141.923-12.245 2.089-18.362 3.165-1.287.227-2.55.593-3.838.796-8.22 1.299-16.438 2.61-24.67 3.836a628 628 0 0 1-16.056 2.161c-6.51.799-13.059 1.321-19.542 2.29a901 901 0 0 0-28.544 4.764c-10.071 1.837-20.07 4.081-30.157 5.82-6.129 1.056-12.364 1.5-18.553 2.204-8.336.948-16.675 1.88-24.73 2.788-4.047-7.161-6.157-13.691-5.542-21.041.834-9.967.578-20.093 2.234-29.907 2.966-17.579 7.14-34.95 10.547-52.46 1.717-8.83 2.69-17.803 4.308-26.654 1.643-8.985 3.776-17.88 5.417-26.864.272-1.491-.552-4.461-1.408-4.685-9.546-2.488-12.973-10.644-16.957-18.09-2.178-4.072-4.939-6.927-8.873-9.377-7.31-4.551-15.829-7.18-21.9-13.745-3.522-3.81-5.309-14.251-3.817-19.328 1.326-4.51 1.697-9.306 2.42-13.986.998-6.462 2.008-12.924 2.857-19.407.389-2.964-3.606-5.558-8.028-6.387-8.077-1.514-16.062-3.515-24.09-5.298q-5.973-1.327-11.959-2.604c-6.329-1.352-12.635-2.842-19.003-3.979a157 157 0 0 0-15.343-1.98 373 373 0 0 0-20.82-1.035c-32.716-.726-65.435-1.307-98.15-2.044-25.886-.583-51.767-1.72-77.653-1.826-14.757-.06-27.98 4.798-40.112 14.048-14.237 10.855-27.481 22.69-40.386 34.994-8.198 7.817-16.29 15.746-24.545 23.502-7.762 7.292-15.797 14.297-23.493 21.657-10.044 9.604-20.673 18.817-27.621 31.068-3.983 7.024-6.819 14.7-10.136 22.099a7017 7017 0 0 0-14.073 31.546c-4.717 10.66-9.303 21.38-14.08 32.012-3.945 8.78-8.217 17.414-12.104 26.218-4.504 10.205-8.713 20.541-13.122 30.789-1.474 3.424-2.865 6.943-4.826 10.087-4.71 7.552-.805 13.109 3.57 18.94 7.36 9.811 14.399 19.863 21.627 29.775 6.274 8.602 12.696 17.098 18.922 25.735 8.747 12.134 17.335 24.382 26.062 36.53 10.994 15.3 22.096 30.522 33.084 45.827 10.826 15.08 21.716 30.117 32.25 45.4 2.948 4.277 4.814 9.395 10.365 10.966 7.371 2.086 14.94 3.13 21.735-1.422 14.754-9.883 29.306-20.067 43.927-30.15 18.32-12.635 36.331-25.756 55.086-37.71 7.51-4.788 16.583-7.196 25.062-10.371 5.878-2.201 11.899-4.083 17.96-5.718 10.851-2.926 21.799-5.496 32.674-8.337 7.423-1.94 14.766-4.186 22.192-6.114 6.74-1.75 13.568-3.162 20.312-4.896 6.977-1.793 13.867-3.931 20.857-5.668 7.715-1.918 15.532-3.427 23.248-5.344 6.918-1.72 13.759-3.752 20.634-5.645 2.793-.77 5.606-1.472 8.375-2.32 6.23-1.907 10.423-6.038 14.019-11.472 4.165-6.293 9.35-11.907 14.03-17.865 8.52-10.847 16.635-22.037 25.62-32.482 5.39-6.266 11.848-11.718 18.363-16.856 2.298-1.813 6.172-1.706 9.36-2.298 7.167-1.33 14.358-2.538 21.535-3.818 3.935-.701 7.842-1.599 11.798-2.138 5.961-.813 11.964-1.317 17.931-2.09 4.208-.544 8.396-1.26 12.576-1.998 7.91-1.397 15.792-2.96 23.716-4.272 6.302-1.043 12.67-1.695 18.972-2.738 6.6-1.093 13.15-2.493 19.739-3.67 4.502-.804 9.016-1.572 13.552-2.147 6.461-.818 12.968-1.293 19.418-2.19 7.268-1.01 14.495-2.323 21.738-3.517.32-.053.61-.29.93-.335 12.08-1.711 24.178-3.304 36.236-5.154 5.968-.916 11.863-2.303 17.792-3.476.803-.159 1.6-.35 2.41-.47 13.212-1.985 26.395-4.2 39.647-5.875 15.532-1.965 31.122-4.132 46.707-.204.317.08.662.05.994.065 15.54.67 31.083 1.27 46.618 2.029q17.074.835 34.128 2.022c7.037.49 14.074 1.123 21.073 1.999 9.073 1.135 18.088 2.746 27.167 3.833 7.845.94 15.757 1.31 23.616 2.15 14.374 1.534 28.731 3.228 43.096 4.857.165.019.328.067.493.078 9.851.68 19.725 1.127 29.547 2.103 9.93.987 19.81 2.498 29.712 3.78.33.043.658.114.99.137 9.538.675 19.097 1.149 28.612 2.07 10.778 1.044 21.506 2.593 32.277 3.718 5.987.625 12.046.59 18.023 1.287 9.02 1.053 17.992 2.532 26.996 3.743 5.858.788 11.726 1.53 17.609 2.1 8.198.794 16.438 1.2 24.615 2.157 8.602 1.008 17.15 2.468 25.723 3.733.328.049.65.155.98.183 8.19.68 16.41 1.12 24.567 2.087 9.77 1.159 19.473 2.886 29.234 4.142 8.516 1.095 17.076 1.839 25.609 2.808 10.924 1.24 21.841 2.55 32.761 3.833.33.039.658.117.989.139 10.313.675 20.652 1.085 30.932 2.095 9.44.927 18.818 2.5 28.223 3.789.33.045.659.097.99.119 10.206.674 20.425 1.204 30.614 2.077 4.722.405 9.367 1.656 14.084 2.206 7.435.866 14.901 1.465 22.575 2.198l1.16-12.659 19.952 1.775-3.943 46.198-19.748-.98c.18-3.859.07-7.377.585-10.801.474-3.154-.743-4.167-3.612-4.39-17.06-1.323-34.14-2.446-51.161-4.158-15.973-1.607-31.866-4.004-47.824-5.78-11.276-1.255-22.618-1.906-33.902-3.1-9.753-1.032-19.46-2.494-29.196-3.68-6.83-.831-13.674-1.541-20.517-2.264-9.777-1.031-19.562-1.978-29.335-3.046-11.734-1.282-23.473-2.536-35.182-4.017-14.618-1.85-29.18-4.162-43.816-5.827-14.679-1.671-29.434-2.656-44.128-4.204-9.424-.994-18.783-2.589-28.198-3.682-8-.928-16.044-1.48-24.06-2.278-12.917-1.285-25.82-2.7-38.74-3.941-11.296-1.085-22.622-1.863-33.907-3.045-10.084-1.055-20.114-2.62-30.196-3.694-8.994-.957-18.039-1.427-27.038-2.336-11.418-1.152-22.808-2.585-34.221-3.792-7.855-.831-15.716-1.684-23.596-2.176-18.147-1.134-36.316-1.933-54.462-3.093-18.087-1.157-36.16-2.536-54.23-3.933-5.886-.454-11.79-2.073-17.603-1.735-9.09.529-18.107 2.284-27.16 3.492-8.275 1.103-16.57 2.064-24.83 3.275-13.082 1.918-26.156 3.895-39.204 6.03-10.587 1.732-21.113 3.83-31.697 5.576-6.115 1.009-12.306 1.542-18.436 2.468-6.763 1.02-13.487 2.298-20.244 3.368-7.752 1.226-15.532 2.28-23.28 3.535-6.586 1.067-13.125 2.424-19.716 3.458-10.312 1.617-20.656 3.032-30.975 4.61-5.633.861-11.244 1.874-16.862 2.833-5.95 1.015-11.878 2.782-17.848 2.928-15.793.385-26.12 9.715-35.162 20.862-11.554 14.243-23.075 28.571-33.595 43.575-9.58 13.664-22.395 21.258-38.16 25.04-11.202 2.689-22.289 5.85-33.478 8.592-18.396 4.506-36.872 8.69-55.237 13.317-8.86 2.232-17.512 5.275-26.313 7.755-12.783 3.603-25.451 7.939-38.47 10.297-15.649 2.834-27.183 12.438-39.577 20.87-18.035 12.27-36.066 24.543-54.057 36.876-9.681 6.637-19.282 13.39-28.905 20.11-4.8 3.353-9.921 4.947-15.957 5.07-10.173.206-19.953-.518-28.807-6.031-2.247-1.4-4.818-2.773-6.296-4.836-11.56-16.14-22.838-32.483-34.313-48.685-6.274-8.859-12.83-17.518-19.138-26.354-9.887-13.847-19.63-27.797-29.509-41.65-13.338-18.7-26.674-37.404-40.157-56-6.953-9.589-14.555-18.721-21.222-28.497-3.967-5.816-4.83-12.807-3.416-19.845 3.025-15.053 10.95-28.143 16.986-41.982 6.69-15.335 13.622-30.564 20.486-45.822 4.874-10.837 9.893-21.61 14.697-32.478 5.666-12.82 11.173-25.71 16.745-38.571 5.668-13.085 14.773-23.605 24.948-33.302 5.875-5.598 11.917-11.02 17.795-16.615 8.962-8.53 17.65-17.36 26.808-25.673 17.721-16.09 33.992-33.844 53.719-47.645 7-4.897 14.014-10.22 21.816-13.395 6.86-2.79 14.203-5.257 22.205-4.88 6.824.322 13.735-1.648 20.594-1.565 36.048.437 72.094 1.109 108.137 1.893 20.715.451 41.427 1.155 62.131 1.975 10.05.398 20.205.57 30.087 2.206 11.805 1.954 23.351 5.444 35.044 8.12 10.108 2.314 20.385 3.978 30.369 6.723 14.861 4.086 22.373 14.361 18.772 30.88-1.246 5.715-1.969 11.543-2.962 17.313-.635 3.687-1.35 7.36-1.991 11.046-.758 4.352.991 6.795 5.108 8.783 7.86 3.794 16.04 7.397 21.822 14.335 2.626 3.152 5.468 6.52 6.763 10.288 1.765 5.136 5.48 7.216 9.802 9.238 5.8 2.712 9.098 6.654 9.801 13.773 1.161 11.765-3.275 22.446-4.675 33.673-1.105 8.872-2.892 17.67-4.627 26.45-2.48 12.56-5.482 25.023-7.716 37.624-2.11 11.898-3.539 23.917-5.217 35.89-.455 3.248-.857 6.514-1.044 9.786-.184 3.207.868 4.565 4.685 3.943 19.34-3.152 38.722-6.055 58.117-8.858 11.172-1.614 22.413-2.754 33.591-4.335 6.26-.885 12.453-2.252 18.681-3.368 4.804-.86 9.598-1.798 14.428-2.477 12.478-1.754 24.996-3.232 37.456-5.106 11.767-1.77 23.458-4.053 35.225-5.825 7.127-1.073 14.365-1.398 21.498-2.439 6.743-.984 13.387-2.633 20.122-3.685 9.84-1.536 19.735-2.723 29.583-4.218 4.105-.622 6.394-2.79 5.807-7.463-.88-7.005-2.091-14.073-1.923-21.084.38-15.862 10.43-26.224 27.06-27.151 16.528-.921 33.082-1.365 49.617-2.167 10.715-.52 21.421-1.26 32.126-1.988 13.47-.918 26.923-2.28 40.407-2.74 6.49-.221 13.036 1.17 19.554 1.858 6.024.635 12.041 1.339 18.067 1.954 16.646 1.698 33.31 3.235 49.936 5.097 9.095 1.018 18.116 2.679 27.207 3.735 1.208.14 3.636-1.425 3.798-2.465 1.28-8.23 2.088-16.532 3.156-24.796 1.048-8.117 2.244-16.216 3.352-24.325a8388 8388 0 0 0 3.548-26.29c1.252-9.382 2.506-18.763 3.712-28.15.814-6.334 1.548-12.678 2.315-19.018.668-5.522 1.395-11.038 1.982-16.568.763-7.182 1.318-14.387 2.138-21.562.724-6.335 4.692-11.112 9.547-14.282 5.75-3.756 12.417-5.117 19.703-3.821 7.909 1.407 16.034 1.582 24.06 2.352 13.575 1.303 27.137 2.752 40.722 3.948 9.684.852 19.41 1.24 29.093 2.104 13.23 1.18 26.429 2.703 39.657 3.902 6.414.58 12.87.68 19.297 1.135 13.63.963 27.27 1.826 40.872 3.085 15.042 1.392 30.035 3.296 45.07 4.755 9.351.907 18.753 1.276 28.111 2.112 13.583 1.212 27.14 2.713 40.722 3.927 9.352.836 18.738 1.285 28.091 2.102 14.074 1.23 28.135 2.598 42.196 3.968 9.645.94 19.3 1.82 28.916 3.019 14.45 1.8 28.859 3.94 43.306 5.779 12.028 1.53 24.093 2.77 36.127 4.265 7.136.887 14.24 2.029 21.36 3.042 6.958.99 13.909 2.032 20.88 2.923 8.785 1.123 17.596 2.047 26.38 3.184 9.08 1.176 18.136 2.54 27.21 3.753 8.277 1.108 16.576 2.048 24.844 3.21 5.48.771 10.903 1.958 16.387 2.684 6.67.882 13.37 1.976 20.07 2.068 8.146.112 15.033 3.607 20.884 8.2 5.718 4.488 6.05 12.246 6.052 19.126.001 6.704-1.14 13.408-1.774 20.112-1.315 13.906-2.75 27.802-3.9 41.722-.884 10.686-1.25 21.414-2.127 32.1-1.167 14.241-2.653 28.457-3.891 42.693-.274 3.145.12 6.347-.143 9.493-1.242 14.908-2.679 29.8-3.89 44.71-.55 6.756-.592 13.553-1.125 20.31-.891 11.31-1.235 22.742-3.272 33.854-1.332 7.263-4.173 15.144-12.5 17.742-7.022 2.19-13.949 5.101-21.893 3.162-6.316-1.542-13.001-1.644-19.538-2.193-9.358-.785-18.75-1.194-28.09-2.136-10.42-1.05-20.785-2.618-31.196-3.768-8.003-.885-16.046-1.396-24.059-2.208-12.41-1.256-24.81-2.615-37.211-3.954-8.98-.97-17.942-2.153-26.94-2.867-2.923-.232-2.727-1.537-2.33-3.898"/></svg>