<svg xmlns="http://www.w3.org/2000/svg" viewBox="0 0 2000 1333" xml:space="preserve"><path fill="#fff" d="M1168.08 256.882c1.446-3.52 3.214-6.562 4.055-9.841 2.55-9.952 4.944-19.955 7.01-30.017 1.776-8.653 3.138-17.397 4.457-26.135 1.004-6.652 1.55-13.373 2.486-20.038 1.277-9.092 2.693-18.166 4.12-27.237 1.626-10.35 2.905-20.778 5.098-31.009 3.496-16.301 8.544-32.07 19.578-45.162 5.426-6.437 11.182-12.619 16.278-19.306 10.865-14.256 26.272-22.453 41.357-30.812 5.778-3.201 13.274-3.154 19.8-5.187 9.898-3.083 20.098-3.506 30.256-3.843 19.429-.645 38.879-1.095 58.314-.922 7.634.068 15.228 2.238 22.882 3.07 13.765 1.496 25.173 9.005 37.442 14.314 1.471.636 2.83 1.737 3.98 2.885 23.147 23.085 46.536 45.938 69.24 69.452 9.593 9.934 17.685 21.311 26.545 31.961 7.707 9.264 15.553 18.413 23.304 27.64 8.277 9.854 16.242 19.985 24.85 29.538 7.414 8.23 15.401 15.962 23.393 23.647 7.161 6.885 14.808 13.263 22 20.118 12.037 11.474 24.257 22.795 35.708 34.838 12.268 12.902 25.261 25.365 32.759 42.076 1.191 2.655 3.831 4.68 4.928 7.353 4.14 10.087 8.731 20.096 11.63 30.556 3.835 13.838 5.938 28.146 9.37 42.109 2.066 8.408 5.35 16.511 7.893 24.81 2.781 9.074 5.244 18.244 8.032 27.315 1.625 5.287 3.587 10.47 5.445 15.684 4.828 13.552 8.731 27.54 14.8 40.513 5.732 12.253 9.933 25.917 20.888 34.97 13.45 11.117 28.03 20.536 44.556 26.703 16.3 6.083 32.41 12.671 48.718 18.729 11.672 4.335 23.493 8.281 35.318 12.187 20.998 6.936 42.104 13.554 63.049 20.645 6.266 2.122 9.342 6.953 11.486 13.667 3.851 12.06-1.468 22.234-4.23 33.015a1796 1796 0 0 1-10.14 37.904c-3.428 12.262-7.282 24.407-10.645 36.686-4.58 16.722-8.48 33.638-13.416 50.25-3.589 12.08-8.474 23.769-12.604 35.693-2.933 8.468-5.445 17.081-8.376 25.55-3.053 8.82-6.52 17.496-9.561 26.32-5.549 16.102-10.841 32.293-16.388 48.396-3.474 10.087-7.308 20.05-10.81 30.128-2.574 7.41-4.689 14.98-7.332 22.364-4.31 12.04-8.986 23.949-13.301 35.987-2.152 6.001-3.74 12.202-5.776 18.247-2.04 6.054-4.384 12.006-6.486 18.041-3.451 9.906-6.765 19.86-10.23 29.761-3.616 10.335-7.415 20.605-11.003 30.95-3.864 11.138-7.46 22.372-11.383 33.49-6.654 18.857-13.56 37.626-20.197 56.49-5.158 14.66-10.126 29.388-15.068 44.122-4.94 14.731-9.38 29.641-14.74 44.215-3.299 8.973-10.193 16.521-18.464 19.96-6.829 2.84-14.904 5.508-23.435 3.416-5.507-1.35-11.603-.439-17.43-.314-11.11.238-22.217.962-33.322.916-49.273-.205-98.545-.57-147.817-.98-9.443-.08-18.883-.926-28.322-.892-12.94.046-25.882.92-38.82.868-44.44-.179-88.88-.61-133.318-.937-4.208-.03-8.42.11-12.624-.028-7.444-.245-14.884-.968-22.322-.912-19.941.148-39.88.781-59.82.868-11.313.049-22.627-.676-33.944-.903-7.376-.148-14.76-.128-22.138-.008q-24.66.403-49.32.997c-10.18.244-20.354.783-30.535.956-24.477.416-48.958.657-73.436 1.04-17.303.269-34.605.652-51.908.988-17.106.33-34.213.66-51.32 1-16.274.326-32.547.646-48.82 1.005-13.808.304-27.612.805-41.42.966-35.939.417-71.88.643-107.818 1.049-18.942.214-37.88.701-56.821.965-27.652.385-55.306.627-82.957 1.036-13.609.202-27.214.684-40.822.968-17.814.373-35.629.714-53.444 1-23.106.372-46.213.688-69.32 1-4.703.064-9.408-.03-14.111.016-32.513.321-65.026.615-97.538 1.01-19.941.243-39.88.704-59.82.971-28.606.383-57.213.847-85.82.915-9.182.022-17.377-2.532-23.893-10.23-4.662-5.508-8.347-10.932-11.06-17.748-1.971-4.952-7.215-9.174-11.927-12.341-9.265-6.228-19.395-11.162-28.737-17.287-5.448-3.572-6.225-10.23-7.554-16.139-3.41-15.162-6.655-30.362-9.937-45.553-3.387-15.68-6.725-31.37-10.113-47.05a2637 2637 0 0 0-5.087-23.01c-2.95-13.082-5.862-26.174-8.926-39.23-4.184-17.828-8.7-35.58-12.69-53.45-3.383-15.159-6.087-30.469-9.343-45.658-2.297-10.711-5.066-21.321-7.53-31.998-1.876-8.124-3.62-16.279-5.393-24.426-1.425-6.547-2.792-13.106-4.21-19.654-3.817-17.628-4.283-35.314-.942-53.066.697-3.701 1.476-7.387 2.195-11.084 1.347-6.927 6.706-11.243 10.78-16.347 9.791-12.266 23.807-17.504 38.041-22.208 13.66-4.514 27.38-8.84 41.094-13.187 2.294-.727 4.689-1.134 7.31-1.754l7.606 26.397c-15.393 4.755-30.547 9.445-45.707 14.117-10.125 3.12-20.319 6.323-27.304 14.915-2.672 3.287-4.441 7.428-6.094 11.4-4.59 11.031-3.297 22.738-2.749 34.155.288 5.987 3.345 11.792 4.632 17.791 1.658 7.725 2.745 15.572 4.206 23.342.256 1.36 1.382 2.547 1.694 3.91 1.42 6.213 2.637 12.473 4.036 18.693 1.795 7.982 3.775 15.924 5.528 23.916 2.48 11.299 4.78 22.637 7.246 33.939 1.064 4.876 2.505 9.673 3.5 14.562 1.81 8.882 3.238 17.845 5.167 26.7 1.208 5.548 3.286 10.904 4.545 16.443 3.478 15.302 6.648 30.674 10.098 45.982 2.77 12.286 6.013 24.468 8.604 36.79 2.88 13.688 4.961 27.547 7.94 41.213 2.742 12.57 5.447 25.255 9.775 37.314 1.536 4.28 7.305 8.096 12.002 9.986 12.585 5.064 22.727 12.888 30.678 23.635 2.015 2.724 3.697 6.09 4.294 9.387 1.392 7.68 7.013 9.182 13.066 9.24 24.83.237 49.665.208 74.496.054 13.153-.082 26.303-.676 39.456-.942 18.972-.384 37.946-.886 56.92-.948 15.625-.052 31.255.822 46.875.643 25.977-.298 51.948-1.088 77.92-1.72 10.98-.266 21.954-.823 32.933-.957 34.439-.418 68.88-.646 103.318-1.051 18.481-.218 36.959-.761 55.44-.956 39.105-.411 78.212-.636 117.317-1.054 13.276-.142 26.548-.637 39.822-.97 13.273-.334 26.545-.737 39.82-.984 21.145-.393 42.291-.704 63.437-1.006 9.066-.13 18.134-.106 27.2-.229 17.046-.23 34.094-.468 51.14-.797 13.136-.253 26.27-.708 39.406-.973 34.713-.699 69.426-1.465 104.142-1.977 36.1-.533 72.206-1.01 108.31-1.131 48.043-.16 96.088-.005 144.131.141 9.775.03 19.547.906 29.321.913 104.197.07 208.394.043 312.592.043 8.509 0 11.034-1.976 13.72-9.764 4.12-11.937 8.658-23.73 12.704-35.69 4.702-13.898 8.827-27.993 13.644-41.85 4.25-12.223 9.218-24.194 13.65-36.357 2.54-6.968 4.569-14.12 6.955-21.145 7.061-20.79 14.077-41.598 21.318-62.327 6.702-19.184 13.818-38.224 20.476-57.423 5.45-15.72 10.366-31.624 15.755-47.366 7.129-20.826 14.439-41.591 21.766-62.349 5.218-14.779 10.69-29.468 15.863-44.262 3.705-10.596 6.982-21.34 10.663-31.945 6.019-17.336 12.736-34.45 18.182-51.96 5.388-17.322 9.439-35.056 14.337-52.535 2.151-7.676 5.204-15.099 7.382-22.768 2.102-7.4 3.52-14.992 5.396-22.46 1.793-7.135 3.798-14.217 5.69-21.328 1.72-6.471 3.414-12.95 5.354-20.32-4.135-1.704-8.524-3.757-13.078-5.338-9.242-3.208-18.595-6.094-27.861-9.236-13.509-4.58-27.006-9.196-40.461-13.93-16.1-5.663-32.137-11.502-48.224-17.2-25.188-8.924-47.601-22.69-68.365-39.28-2.116-1.69-3.549-4.298-5.116-6.603-9.558-14.057-16.822-29.283-22.806-45.147-4.795-12.711-9.893-25.323-14.215-38.194-3.747-11.158-6.498-22.646-9.87-33.935-2.354-7.881-5.28-15.598-7.456-23.525-2.01-7.322-3.317-14.836-5.015-22.246-1.777-7.758-3.271-15.61-5.587-23.206-2.523-8.274-4.966-16.776-9.016-24.336-7.43-13.87-14.942-27.79-26.925-38.685-5.839-5.309-10.445-11.948-15.966-17.64-5.263-5.426-10.94-10.456-16.525-15.56-6.107-5.582-12.428-10.93-18.46-16.59-10.116-9.492-20.362-18.873-30.01-28.826-7.551-7.788-14.335-16.325-21.36-24.614-6.497-7.665-12.867-15.437-19.284-23.17-9.584-11.551-18.933-23.307-28.805-34.607-9.036-10.341-18.625-20.2-27.984-30.258-10.478-11.263-20.584-22.908-31.569-33.653-10.702-10.469-21.316-20.788-36.253-26.292-11.274-4.153-22.537-5.439-34.043-6.368-11.061-.893-22.274-1.723-33.293-.892-14.884 1.123-29.797.71-44.705 4.021-16.383 3.638-30.575 10.492-41.972 22.072-10.2 10.363-19.024 22.168-27.697 33.896-2.975 4.023-3.892 9.674-5.33 14.702a332 332 0 0 0-5.303 21.133c-.91 4.206-1.14 8.556-1.741 12.832a15502 15502 0 0 1-6.005 42.345c-2.325 16.217-4.079 32.546-7.183 48.614-3.643 18.854-10.43 36.561-23.116 51.543-4.355 5.142-7.537 11.444-12.44 15.916-7.226 6.591-15.277 12.37-23.401 17.865-14.462 9.781-29.507 18.713-43.806 28.716-11.846 8.288-23.471 17.042-34.284 26.617-12.74 11.284-17.96 26.667-19.754 43.245-1.467 13.568-2.308 27.217-4.2 40.72-.92 6.559-3.725 12.838-5.48 19.297-5.052 18.585-17.404 33.046-27.866 48.45-8.555 12.595-18.677 24.128-28.134 36.108-6.844 8.67-14.041 17.078-20.545 25.993-13.39 18.355-26.887 36.663-39.453 55.58-9.814 14.772-17.673 30.846-27.522 45.594-11.327 16.963-23.63 33.3-36.07 49.479-3.746 4.872-9.313 8.366-14.134 12.387-6.335 5.285-12.606 10.668-19.18 15.645-8.914 6.751-18.072 13.183-27.157 19.706-14.048 10.087-27.782 20.663-42.286 30.048-13.782 8.918-28.172 16.97-42.7 24.634-8.778 4.632-18.342 7.768-27.527 11.64-4.183 1.764-8.2 3.967-12.468 5.48-13.797 4.891-27.624 9.714-41.557 14.196-3.526 1.134-7.482 1.072-11.255 1.267-14.377.742-28.756 1.68-43.143 1.876-5.819.08-11.755-1.16-17.472-2.504-10.667-2.507-21.347-5.11-31.773-8.45-11.023-3.532-21.708-8.105-32.63-11.971-9.706-3.436-19.615-6.305-29.29-9.824-13.97-5.083-27.773-10.625-41.716-15.787-10.566-3.911-21.293-7.39-31.851-11.32-15.13-5.633-30.161-11.534-45.258-17.26-16.54-6.272-33.01-12.749-49.69-18.626-15.142-5.335-30.377-5.564-45.775.016-11.68 4.232-23.768 7.325-35.63 11.069-9.772 3.085-19.477 6.382-29.727 9.754l8.243 28.772-23.946 6.944-24.254-82.924 23.962-6.959 8.252 27.808c18.29-5.95 36.164-11.793 54.057-17.578 17.361-5.612 34.962-9.566 53.414-7.604 12 1.276 23.056 5.673 34.209 9.906 17.342 6.582 34.84 12.749 52.2 19.283 12.622 4.75 25.06 9.99 37.698 14.692 23.342 8.686 46.755 17.181 70.17 25.67 13.829 5.012 27.623 10.151 41.61 14.69 11.333 3.678 22.933 6.535 34.408 9.78 3.3.932 6.727 1.607 9.828 2.998 5.57 2.5 11.16 2.342 16.968 1.38 2.755-.456 5.627-.482 8.428-.339 14.324.735 28.825.34 42.265-4.296 23.098-7.968 45.991-16.783 68.254-26.829 13.851-6.25 26.582-15.111 39.452-23.367 11.64-7.467 22.9-15.544 34.107-23.655 7.334-5.306 14.177-11.285 21.426-16.714 5.661-4.24 11.9-7.743 17.372-12.2 12.377-10.079 25.304-19.558 34.293-33.273 8.298-12.661 17.627-24.649 25.844-37.359 6.335-9.799 11.2-20.548 17.525-30.353 8.99-13.934 18.618-27.463 28.17-41.027 7.488-10.633 15.033-21.245 22.996-31.522 8.082-10.432 16.914-20.281 25.04-30.68a876 876 0 0 0 24.75-33.262c5.324-7.521 10.918-15.096 14.664-23.423 3.903-8.677 6.383-18.155 8.291-27.525 2.054-10.092 2.714-20.467 3.998-30.716.695-5.54.83-11.236 2.27-16.579 2.334-8.668 5.116-17.271 8.46-25.6 5.672-14.129 16.817-24.024 28.24-33.251 12.548-10.134 25.61-19.685 38.898-28.833 14.65-10.085 29.72-19.575 44.792-29.029 8.106-5.085 12.87-13.011 18.497-20.222 2.521-3.23 4.544-6.85 6.896-10.66"/></svg>