<svg xmlns="http://www.w3.org/2000/svg" viewBox="0 0 1331 818" xml:space="preserve"><path fill="#fff" d="M68.706 619.296c-1.935-10.873-3.665-21.38-5.373-31.89-.132-.814-.138-1.652-.153-2.48-.34-18.94-.63-37.88-1.041-56.818-.079-3.612-.984-7.221-.907-10.82.562-26.214 1.181-52.429 1.98-78.638.465-15.22 1.258-30.429 1.975-45.64.607-12.849 1.318-25.693 1.997-38.82l-10.012-.74v-19.872l42.59 1.86v19.709H87.286c-.491 4.933-1.259 9.797-1.409 14.68-.475 15.435-.604 30.881-1.083 46.316-.534 17.218-1.274 34.429-1.98 51.64-.624 15.215-1.66 30.422-1.884 45.642-.183 12.432.545 24.878.9 37.317.309 10.774-.117 21.642 1.19 32.296 1.67 13.62 3.75 27.351 7.488 40.513 4.478 15.762 9.827 31.475 16.785 46.275 6.194 13.174 14.254 25.708 23.021 37.374 10.895 14.497 22.146 29.15 35.482 41.271 14.284 12.984 30.883 23.533 47.004 34.35 15.57 10.445 33.52 13.017 51.731 11.123 12.67-1.317 25.261-4.388 35.673-12.766 10.141-8.16 20.468-16.102 30.403-24.508 13.245-11.206 26.226-22.725 39.248-34.192 7.083-6.237 13.946-12.723 21.029-18.959 12.901-11.358 25.922-22.582 38.837-33.925 9.196-8.076 18.278-16.282 27.45-24.383 13.882-12.26 27.817-24.459 41.692-36.725 9.297-8.22 18.478-16.571 27.805-24.756 12.67-11.119 25.451-22.11 38.142-33.205 6.228-5.445 12.331-11.033 18.542-16.497 13.527-11.901 27.129-23.717 40.619-35.66 10.035-8.884 19.84-18.03 29.941-26.838 7.703-6.719 15.127-14.046 23.771-19.3 6.352-3.863 14.338-5.647 21.839-6.89 18.854-3.124 33.341 6.093 47.17 17.529 11.88 9.824 20.532 22.298 30.214 33.955 8.853 10.659 17.726 21.302 26.532 31.999 9.856 11.97 19.62 24.018 29.476 35.989 8.807 10.697 17.701 21.322 26.518 32.01 2.516 3.05 4.843 6.255 7.351 9.311 11.096 13.52 25.254 22.307 42.092 26.735 2.49.655 5.42.696 7.922.09 22.098-5.358 44.14-10.948 66.21-16.424 22.239-5.517 44.504-10.922 66.728-16.496 9.84-2.467 19.968-4.325 29.32-8.07 13.7-5.485 26.982-11.871 38.02-22.416 11.448-10.939 23.978-20.739 35.891-31.2a1658 1658 0 0 0 30.252-27.242c15.116-13.946 30.293-27.839 45.036-42.174 5.999-5.832 11.02-12.69 16.318-19.217 6.335-7.803 12.886-15.477 18.602-23.72 4.847-6.989 8.857-14.591 12.851-22.127 7.384-13.931 13.056-28.36 12.194-44.623-.562-10.598-3.67-20.321-9.001-29.4-10.42-17.744-23.929-33.084-37.39-48.505-12.37-14.172-24.146-28.861-36.353-43.177-9.33-10.94-19.015-21.577-28.379-32.488-10.963-12.775-21.688-25.753-32.63-38.545-8.914-10.421-18.062-20.643-26.983-31.057-9.021-10.53-17.324-21.748-27.019-31.604-6.978-7.094-15.519-12.741-23.727-18.515-13.988-9.839-29.694-15.09-46.686-17.271-12.164-1.561-23.893-.233-35.791 1.97-20.018 3.707-38.64 11.298-55.918 21.496-14.837 8.758-28.392 19.686-42.515 29.652-11.843 8.356-23.704 16.685-35.527 25.067-14.503 10.281-28.953 20.638-43.47 30.901-13.44 9.503-26.956 18.903-40.41 28.389-29.337 20.687-58.642 41.418-87.987 62.095-18.98 13.374-38.069 26.595-56.997 40.042-25.913 18.41-51.876 36.755-77.525 55.527-21.927 16.049-43.844 32.164-64.97 49.234-10.35 8.362-19.01 18.85-28.213 28.585-6.704 7.09-13.056 14.516-19.548 21.806-13.423 15.073-26.741 30.24-40.284 45.205-9.45 10.44-19.164 20.644-28.828 30.89-17.533 18.589-35.724 36.603-52.464 55.879-11.046 12.72-24.31 20.285-40.118 24.464-3.16.836-6.182 2.357-9.378 2.862-12.53 1.982-24.844-.443-37.154-2.362-4.032-.629-7.988-1.749-12.02-2.394-12.607-2.016-22.15-9.882-31.62-17.325-11.712-9.205-22.636-19.576-29.912-32.81-7.129-12.966-13.022-26.551-14.214-41.622-.74-9.367-2.238-18.788-1.792-28.108.587-12.25 1.084-24.509 4.16-36.674 4.407-17.424 7.1-35.278 10.639-52.925 2.284-11.39 4.797-22.735 7.165-34.109 3.602-17.3 7.162-34.608 10.748-51.911 2.555-12.33 5.187-24.643 7.666-36.987 2.224-11.071 3.984-22.244 6.52-33.24 1.802-7.815 4.605-15.396 6.87-23.109 4.709-16.04 9.052-32.195 14.118-48.12 5.094-16.016 14.565-28.518 31.35-33.703 7.15-2.209 14.52-4.184 21.925-4.934 6.31-.639 12.816.611 19.233 1.065 2.461.175 4.92.711 7.37.652 18.075-.436 35.817 2.14 53.298 6.337 5.366 1.288 10.378 4.18 15.446 6.562 14.34 6.74 28.594 13.665 42.941 20.39 17.053 7.992 34.194 15.797 51.244 23.796 7.169 3.364 13.968 7.644 21.35 10.396 11.815 4.404 24.802 5.41 35.486-1.029 12.887-7.766 17.433-19.53 11.581-35.896-3.7-10.348-11.658-16.072-20.141-21.544-13.43-8.663-26.833-17.377-40.478-25.691-15.043-9.166-30.37-17.864-45.525-26.845-9.755-5.78-19.192-12.142-29.195-17.443-10.912-5.782-22.29-10.69-33.51-15.885-12.045-5.578-23.92-11.615-36.268-16.429a1050 1050 0 0 0-55.601-19.887c-12.226-3.99-25.002-6.368-37.967-5.054-15.81 1.603-32.051 2.333-45.273 12.914-4.644 3.716-8.774 8.092-13.016 12.29-11.012 10.894-19.42 23.67-25.85 37.65-10.447 22.716-19.731 45.96-25.5 70.316-3.162 13.351-4.363 27.172-6.342 40.797-1.721 11.848-3.382 23.706-4.887 35.583-.622 4.905-.915 9.864-1.097 14.808-.428 11.603-.556 23.219-1.085 34.816-.312 6.83-1.159 13.637-1.785 20.674l-19.04-1.283c.758-19.497.685-38.533 2.44-57.399 2.111-22.69 6.165-45.194 8.673-67.857 3.199-28.89 12.961-55.74 23.47-82.54 6.612-16.864 15.003-32.61 25.769-47.002 9.923-13.265 21.191-25.678 36.237-33.12 8.375-4.144 17.895-6.497 27.167-8.151 9.526-1.7 19.376-1.621 29.09-2.219 11.027-.679 21.623 2.109 31.98 5.131 16.2 4.728 32.248 10.062 48.119 15.805 9.562 3.46 18.677 8.16 27.977 12.34 15.323 6.885 30.796 13.467 45.89 20.827 9.12 4.448 17.663 10.087 26.43 15.25 16.847 9.925 33.78 19.712 50.468 29.9 13.326 8.137 26.33 16.801 39.5 25.196 4.028 2.569 8.037 5.19 12.215 7.497 16.614 9.175 26.183 23.697 29.013 41.865 1.203 7.723-1.439 16.213-3.146 24.18-2.367 11.041-11.185 17.57-19.738 23.14-5.747 3.742-13.363 5.447-20.35 6.233-7.634.86-15.66.434-23.229-.971-6.447-1.197-12.63-4.27-18.683-7.052-20.66-9.497-41.223-19.21-61.803-28.883-18.132-8.523-36.039-17.568-54.448-25.44-7.857-3.359-16.64-5.303-25.176-6.165-16.914-1.707-33.94-2.588-50.94-3.079-10.253-.296-19.815 3.183-27.804 9.733-6.871 5.633-8.511 14.347-11.113 22.223-3.955 11.973-7.441 24.125-10.564 36.346-4.778 18.702-9.143 37.511-13.553 56.306a1316 1316 0 0 0-7.425 33.53c-2.657 12.82-5.019 25.703-7.606 38.54-1.712 8.494-3.663 16.94-5.39 25.432-4.238 20.845-8.384 41.707-12.616 62.553-2.051 10.102-4.723 20.107-6.201 30.289-2.186 15.055-2.452 30.1-.344 45.385 1.544 11.196 5.015 21.522 9.897 31.27 3.514 7.02 8.828 13.397 14.343 19.087 6.644 6.855 14.236 12.819 21.626 18.915 9.334 7.7 21.059 8.597 32.307 10.498 5.504.93 11.19 1.006 16.798 1.057 13.048.12 25.067-3.91 35.584-11.256 6.054-4.229 10.995-10.127 16.148-15.548 6.156-6.476 11.885-13.357 18.008-19.866 13.08-13.903 26.496-27.495 39.401-41.558 13.083-14.255 25.698-28.939 38.552-43.404 6.045-6.802 12.18-13.525 18.26-20.298 11.608-12.932 22.424-26.702 35.018-38.59 13.87-13.092 28.93-25.05 44.254-36.452 29.588-22.014 59.667-43.373 89.656-64.845 23.831-17.063 47.824-33.901 71.76-50.82 28.374-20.056 56.787-40.058 85.139-60.145 23.246-16.47 46.368-33.114 69.657-49.521 18.304-12.896 36.843-25.458 55.16-38.335 16.437-11.554 32.526-23.611 49.126-34.922a132.8 132.8 0 0 1 36.964-17.586c8.156-2.431 15.997-6.263 24.288-7.819 16.274-3.054 32.55-5.774 49.424-2.353 8.862 1.796 17.967 2.781 26.15 6.524 10.358 4.737 20.372 10.323 30.16 16.169 5.897 3.523 11.427 7.862 16.497 12.516 5.68 5.216 10.809 11.066 15.9 16.884 7.06 8.072 13.867 16.368 20.776 24.574 8.714 10.35 17.377 20.742 26.146 31.045 6.639 7.8 13.46 15.443 20.11 23.235 8.997 10.544 17.86 21.202 26.868 31.737 6.875 8.041 13.938 15.922 20.825 23.953 11.498 13.41 23.068 26.763 34.33 40.37 9.246 11.17 18.12 22.649 27.1 34.037 8.098 10.27 13.132 22.163 15.984 34.682 3.037 13.322 2.513 27.042-1.522 40.146-5.694 18.496-13.759 36.081-25.286 51.686-9.79 13.252-19.783 26.54-31.178 38.377-15.466 16.063-32.293 30.821-48.654 46.013-10.675 9.913-21.45 19.724-32.379 29.356-11.645 10.263-23.534 20.248-35.296 30.378-5.26 4.53-9.932 10.037-15.818 13.483-11.578 6.778-23.048 13.902-36.517 16.99-13.213 3.031-26.157 7.218-39.284 10.648-13.617 3.557-27.308 6.83-40.973 10.201-16.513 4.073-33.018 8.18-49.555 12.152-11.432 2.746-22.808 6.088-34.412 7.613-6.676.877-14.32.062-20.543-2.44-13.975-5.618-27.32-13.002-37.643-24.3-8.556-9.365-16.152-19.603-24.223-29.414-8.905-10.826-17.898-21.58-26.792-32.415-7.744-9.435-15.396-18.946-23.101-28.413a18368 18368 0 0 0-25-30.666c-4.909-6.005-9.454-12.375-14.876-17.879-9.188-9.328-18.127-19.523-32.014-21.803-11.235-1.845-21.703 1.022-30.348 8.436-16.936 14.527-33.563 29.414-50.285 44.19-12.025 10.626-23.947 21.369-36.003 31.958-15.472 13.588-31.067 27.036-46.542 40.62-9.451 8.297-18.733 16.785-28.169 25.099-13.268 11.69-26.642 23.262-39.906 34.957-12.161 10.722-24.192 21.593-36.363 32.304-12.904 11.356-25.952 22.55-38.851 33.91-12.289 10.823-24.428 21.815-36.704 32.653-16.357 14.44-32.315 29.388-49.317 43.03-15.54 12.47-33.565 20.061-53.946 20.371-9.684.148-19.511.75-29.033-.576-16.758-2.334-31.435-10.309-45.14-19.938-12.122-8.516-24.233-17.071-35.961-26.113-4.526-3.49-8.186-8.2-11.888-12.646-12.454-14.957-25.91-29.264-36.75-45.326-9.177-13.596-17.4-28.164-22.328-44.25-3.937-12.856-8.916-25.392-13.37-38.091-.7-1.998-1.065-4.114-1.795-6.54"/></svg>