<svg xmlns="http://www.w3.org/2000/svg" viewBox="0 0 1318 815" xml:space="preserve"><path fill="#fff" d="M225.052 618.284c-23.007-7.67-37.495-24.345-49.775-43.76-8.646-13.666-12.433-28.985-16.43-44.277-.862-3.298-1.05-6.834-1.114-10.269-.414-22.264-.98-44.531-.968-66.797.013-24.6.105-49.218 1.075-73.792.84-21.29 1.024-42.724 6.716-63.56 3.558-13.024 6.726-26.153 10.092-39.229 4.666-18.13 9.34-36.258 14.035-54.38 3.674-14.187 6.819-28.542 11.226-42.497 5.022-15.903 14.565-28.276 31.544-33.006 7.028-1.958 14.148-4.29 21.339-4.768 7.627-.508 15.385.992 23.089 1.589 1.491.115 2.992.108 4.49.153 11.099.335 22.29-.083 33.268 1.256 7.806.952 15.654 3.514 22.904 6.684 17.303 7.566 34.252 15.943 51.366 23.944 14.132 6.606 28.327 13.078 42.438 19.729 10.648 5.019 21.147 10.356 31.823 15.315 11.045 5.13 23.189 5.298 33.71.969 14.18-5.835 21.848-20.345 15.102-38.03-3.953-10.362-11.776-16.226-20.317-21.77-13.204-8.568-26.38-17.193-39.826-25.37-15.387-9.356-31.077-18.213-46.595-27.356-9.999-5.892-19.716-12.296-29.94-17.76-9.951-5.319-20.36-9.788-30.616-14.528-11.486-5.309-23.098-10.346-34.523-15.78-20.123-9.573-41.173-16.616-62.577-22.49-13.297-3.65-26.846-5.404-40.931-3.475-10.271 1.406-20.555 2.505-30.002 6.682-12.778 5.65-21.54 16.412-30.277 26.738-15.08 17.825-23.251 39.468-31.482 60.885-4.839 12.59-9.157 25.504-12.202 38.623-3.094 13.333-4.375 27.089-6.375 40.67-1.69 11.485-3.386 22.97-4.853 34.483-.667 5.227-.922 10.518-1.128 15.79-.427 10.929-.646 21.866-1.05 32.797-.225 6.104-.482 12.218-1.128 18.285-.125 1.177-2.057 3-3.252 3.08-5.12.343-10.276.146-15.91.146.362-7.393.67-14.262 1.052-21.127.09-1.627.55-3.235.622-4.861.7-15.698.623-31.473 2.217-47.078 1.79-17.535 5.342-34.883 7.632-52.377 1.91-14.604 4.128-29.1 9.116-43.014 5.336-14.883 10.698-29.76 16.322-44.535 6.158-16.181 15.227-30.81 25.804-44.373 13.58-17.413 29.454-32.07 52.12-36.683 19.982-4.068 39.86-5.072 60.185-.804 24.457 5.135 47.642 13.638 70.405 23.473 21.36 9.228 42.734 18.534 63.5 29 15.639 7.883 30.418 17.502 45.415 26.62 21.162 12.867 42.283 25.811 63.2 39.07 10.784 6.834 21.4 14.018 31.509 21.8 7.199 5.541 10.214 14.132 13.244 22.54 4.835 13.414 2.954 26.595-3.838 38.13-6.352 10.785-16.022 18.99-28.98 22.4-11.83 3.112-23.576 1.411-35.133-.395-6.088-.951-11.723-4.923-17.511-7.64-17.9-8.405-35.764-16.885-53.662-25.293-21.347-10.028-42.533-20.433-64.176-29.777-7.16-3.09-15.457-4.127-23.346-4.816-14.15-1.234-28.444-.91-42.568-2.335-12.792-1.292-24.339 1.241-33.842 9.474-4.172 3.615-7.215 9.489-8.836 14.915-4.888 16.364-8.778 33.023-13.148 49.544-4.413 16.685-9.053 33.311-13.375 50.02-4.32 16.703-8.718 33.4-12.382 50.252-1.63 7.493-1.998 15.35-2.153 23.057-.545 27.095-.637 54.198-1.125 81.295-.297 16.535-1.727 33.08-1.357 49.59.524 23.4 1.526 46.893 12.408 68.516 7.71 15.322 18.22 28.437 32.669 37.601 12.724 8.071 26.7 8.986 41.596 5.178 15.167-3.879 26.398-12.185 36.15-24.036 9.118-11.078 19.453-21.16 29.334-31.604 13.232-13.985 26.734-27.72 39.767-41.887 14.093-15.32 27.803-30.995 41.637-46.554 10.094-11.352 20.444-22.498 30.1-34.214 17.652-21.416 40.258-36.935 62.302-53.08 30.7-22.487 61.693-44.574 92.658-66.695 28.56-20.401 57.23-40.647 85.885-60.914 32.805-23.202 65.645-46.352 98.473-69.521 29.477-20.804 58.97-41.584 88.431-62.412 16.206-11.457 31.793-23.92 48.717-34.187 12.678-7.69 26.923-12.888 40.69-18.67 19.162-8.05 39.475-9.98 59.949-8.931 12.867.659 25.544 3.646 37.457 8.826 15.134 6.58 28.728 15.563 41.423 26.204 9.703 8.133 16.805 18.364 25.083 27.642 7.142 8.004 14.183 16.1 21.15 24.256 8.663 10.143 17.163 20.426 25.81 30.583 6.737 7.915 13.63 15.696 20.382 23.598 9.313 10.897 18.523 21.882 27.843 32.773 6.651 7.772 13.459 15.41 20.11 23.183 9.32 10.89 18.668 21.76 27.802 32.806 8.275 10.008 16.375 20.165 24.379 30.392 9.635 12.312 15.419 26.643 18.73 41.612 1.655 7.484.035 15.797-.696 23.68-1.289 13.899-7.582 26.237-13.357 38.592-5.6 11.979-12.735 23.126-21.17 33.403-7.897 9.62-14.913 20.063-23.538 28.96-12.263 12.65-25.64 24.219-38.55 36.242-5.214 4.856-10.39 9.754-15.682 14.525-16.328 14.72-32.64 29.46-49.087 44.046a1002 1002 0 0 1-27.832 23.76c-2.488 2.048-5.653 3.32-8.599 4.76-10.678 5.22-20.831 11.568-32.605 14.396-17.73 4.258-35.418 8.693-53.082 13.216-17.19 4.401-34.308 9.079-51.493 13.496-10.247 2.634-20.546 5.076-30.854 7.466-9.03 2.095-18.049 5.241-27.175 5.652-10.244.462-20.54-1.982-29.525-7.687-7.44-4.723-15.097-9.231-21.932-14.735-5.17-4.163-9.426-9.556-13.683-14.735-9.288-11.298-18.236-22.874-27.473-34.214-10.572-12.979-21.278-25.848-31.976-38.723-17.047-20.517-33.695-41.391-51.424-61.302-7.032-7.897-15.274-15.095-27.216-16.49-12.384-1.448-22.624 2.125-31.705 9.854-13.193 11.228-26.173 22.708-39.185 34.148-9.273 8.152-18.415 16.454-27.677 24.618-13.463 11.868-27.012 23.637-40.463 35.518-7.064 6.24-13.915 12.722-21.006 18.93-12.161 10.645-24.487 21.102-36.643 31.752-7.286 6.384-14.321 13.052-21.572 19.477-16.896 14.973-33.873 29.856-50.782 44.815-12.126 10.727-24.128 21.593-36.306 32.26-14.856 13.012-29.895 25.816-44.746 38.833-9.91 8.686-19.579 17.648-29.453 26.376-11.957 10.57-24.251 21.005-39.777 25.65-10.388 3.109-21.35 4.607-32.166 5.903-15.909 1.907-31.213-1.59-45.69-7.968-7.588-3.343-14.812-7.736-21.692-12.404-11.5-7.802-22.999-15.71-33.716-24.526-7.418-6.1-13.887-13.49-20.13-20.856-11.033-13.016-22.537-25.8-32.047-39.894-9.735-14.426-18.02-29.946-23.467-46.726-4.427-13.636-9.526-27.073-13.433-40.852-2.389-8.425-3.578-17.283-4.415-26.032-.914-9.542-.845-19.182-1.124-28.781-.694-23.866-1.819-47.732-1.863-71.599-.037-20.365 1.113-40.735 1.882-61.098.53-14.038 1.37-28.065 1.952-42.102.439-10.595.635-21.2 1.064-31.797.09-2.247.722-4.473 1.207-7.305l-12.66-.744v-19.938l42.462 1.927v19.63H84.739c-.486 6.224-1.196 12.265-1.384 18.323-.474 15.262-.596 30.535-1.079 45.796-.528 16.704-1.284 33.402-1.974 50.1-.641 15.535-1.669 31.063-1.888 46.602-.182 12.926.537 25.866.903 38.798.295 10.434-.038 20.948 1.168 31.279 1.492 12.775 3.226 25.704 6.776 38.012 4.828 16.734 10.581 33.34 17.635 49.247 5.209 11.747 12.21 22.997 20.053 33.209 12.432 16.187 25.054 32.57 39.81 46.528 13.228 12.514 29.375 21.966 44.364 32.585 9.41 6.665 20.397 9.915 31.509 11.503 8.39 1.198 17.23.65 25.692-.467 7.504-.99 15.522-2.501 21.959-6.163 10.767-6.127 20.905-13.604 30.493-21.502 14.486-11.931 28.302-24.68 42.346-37.145 9.89-8.778 19.614-17.744 29.544-26.475 12.388-10.89 24.954-21.579 37.363-32.445 9.289-8.134 18.422-16.445 27.677-24.618 13.734-12.13 27.534-24.185 41.268-36.316 9.287-8.203 18.457-16.54 27.771-24.713 12.649-11.098 25.409-22.069 38.074-33.147 6.344-5.548 12.551-11.25 18.88-16.816 13.318-11.713 26.721-23.327 40-35.084 10.241-9.067 20.241-18.408 30.546-27.401 7.524-6.568 14.81-13.685 23.255-18.831 6.325-3.854 14.173-5.869 21.608-7.111 18.918-3.162 33.66 5.777 47.435 17.526 15.302 13.051 26.278 29.733 39.008 44.946a10445 10445 0 0 1 25.929 31.124c9.885 11.908 19.784 23.805 29.603 35.767 8.449 10.294 17.005 20.511 25.126 31.062 8.624 11.205 20.39 17.989 32.605 24.167 8.83 4.466 18.082 3.363 27.322 1.103 17.866-4.37 35.805-8.453 53.622-13.01 18.285-4.677 36.431-9.892 54.693-14.66 14.961-3.905 30.411-6.362 44.89-11.56 13.758-4.94 26.816-11.82 37.86-22.272 13.819-13.076 28.665-25.065 43.024-37.573 6.728-5.86 13.435-11.748 20.01-17.778 16.8-15.408 33.736-30.68 50.158-46.485 5.625-5.414 9.883-12.25 14.767-18.436 6.21-7.866 12.696-15.534 18.54-23.664 4.079-5.676 7.79-11.744 10.755-18.064 4.632-9.87 9.45-19.832 12.414-30.26 3.01-10.592 2.912-21.638-.56-32.585-5.19-16.367-15.284-29.627-25.819-42.608-11.904-14.67-24.173-29.045-36.412-43.44-7.164-8.426-14.656-16.572-21.859-24.966-9.119-10.625-18.04-21.42-27.147-32.056-6.947-8.115-14.086-16.067-21.074-24.149-10.246-11.848-20.488-23.7-30.63-35.638-10.556-12.426-20.532-25.385-31.657-37.272-6.337-6.771-13.966-12.687-21.909-17.512-10.154-6.168-20.777-12.196-31.995-15.815-12.696-4.095-26.083-5.066-39.85-3.773-24.422 2.295-46.421 11.1-67.499 22.506-10.17 5.503-19.226 13.084-28.729 19.804-21.828 15.437-43.574 30.99-65.442 46.368-18.506 13.015-37.21 25.747-55.695 38.792-24.386 17.208-48.599 34.663-72.967 51.898-32.668 23.106-65.425 46.086-98.122 69.151-26.132 18.435-52.42 36.658-78.281 55.465-18.717 13.612-37.344 27.438-55.054 42.308-10.334 8.677-18.845 19.542-28.06 29.53-5.826 6.315-11.435 12.83-17.15 19.249-13.51 15.177-26.935 30.433-40.57 45.497-9.39 10.373-19.035 20.517-28.636 30.696-17.576 18.634-35.82 36.684-52.591 56.014-11.013 12.692-24.582 19.2-39.933 24.419-12.102 4.115-23.763 3.276-35.757 1.589-2.056-.29-4.011-1.296-6.419-1.99"/></svg>