<svg xmlns="http://www.w3.org/2000/svg" viewBox="0 0 1339 771" xml:space="preserve"><path fill="#fff" d="M856.306 694.353c20.095-6.722 39.867-13.167 59.587-19.77 24.597-8.236 49.083-16.689 72.13-28.906 11.152-5.912 23.166-10.19 34.37-16.017 6.362-3.31 11.89-8.235 17.765-12.471 16.828-12.134 33.63-24.304 50.48-36.405 1.541-1.107 3.363-1.823 5.468-2.94l10.348 15.256c-5.474 4.12-10.617 8.155-15.927 11.957-18.21 13.041-36.198 26.421-54.846 38.805-8.743 5.806-18.753 9.73-28.277 14.322-8.63 4.162-17.503 7.83-26.047 12.154-13.082 6.62-26.77 11.508-40.727 15.895-13.446 4.227-26.619 9.316-39.98 13.823-13.204 4.454-26.508 8.612-39.742 12.977-14.164 4.671-28.269 9.522-42.454 14.126-11.366 3.69-23.042 6.541-34.149 10.873-8.05 3.14-16.332 3.36-24.438 3.48-7.715.115-15.559-2.024-23.19-3.832-21.494-5.092-42.978-10.261-64.323-15.937-10.113-2.69-19.84-6.793-29.85-9.916-14.365-4.482-28.762-8.901-43.298-12.773-3.44-.916-7.489.465-11.258.776-18.654 1.536-32.037 11.62-43.936 25.368-8.426 9.736-18.647 17.918-28.06 26.8-2.295 2.166-4.716 4.223-6.817 6.565-6.163 6.876-14.825 10.318-22.965 9.708-10.091-.756-20.751-2.427-29.093-10.308-6.189-5.847-14.053-9.933-20.17-15.84-5.509-5.32-9.944-11.851-14.35-18.196-12.022-17.31-23.945-34.694-35.59-52.26-10.195-15.377-19.89-31.086-29.934-46.566-11.203-17.268-22.197-34.69-33.976-51.562-6.586-9.433-14.546-17.913-21.95-26.77-5.613-6.714-10.774-13.932-17.119-19.879-10.226-9.584-21.21-18.366-31.969-27.373-9.614-8.05-19.495-15.786-28.987-23.975-5.256-4.534-11.261-5.25-17.57-4.556-9.447 1.04-18.843 2.544-28.262 3.845-4.876.674-9.734 1.644-14.633 1.937-10.53.63-19.687-3.453-28.866-8.22a2142 2142 0 0 0-63.345-31.59c-11.128-5.32-21.223-12.178-28.336-21.895-5.755-7.862-9.739-16.872-10.21-27.678-.745-17.062 2.935-33.151 6.747-49.389 3.178-13.54 6.129-27.142 9.71-40.576 3.12-11.707 6.922-23.234 10.528-34.809 3.5-11.24 12.82-15.697 22.823-19.352 8.943-3.267 17.973-6.344 26.742-10.034 12.895-5.425 25.58-11.35 38.38-17.007 10.038-4.437 19.893-9.424 30.23-13.01 10.772-3.736 21.943-6.45 33.087-8.948 14.68-3.29 29.482-6.057 44.273-8.824 17.217-3.22 34.539-5.9 51.702-9.372 14.91-3.016 29.679-6.742 44.48-10.283 8.254-1.975 16.526-3.945 24.648-6.389 16.848-5.069 30.698-15.408 44.601-25.715 20.132-14.925 38.706-31.545 56.363-49.311 15.862-15.96 32.793-30.795 51.032-44.018 5.02-3.64 10.74-6.332 16.216-9.317 7.378-4.021 14.555-8.62 22.335-11.636 6.933-2.687 14.623-3.358 21.886-5.272 11.666-3.074 23.384-5.2 35.543-5.084 6.204.06 12.409-1.51 18.637-1.765 4.583-.188 9.22.427 13.806.922 11.593 1.251 23.272 2.076 34.724 4.142 9.604 1.732 18.926 5.014 28.391 7.54 12.963 3.458 26.009 6.623 38.9 10.328a1479 1479 0 0 1 45.523 13.888c14.826 4.782 29.67 9.584 44.215 15.14 13.78 5.265 27.09 11.742 40.767 17.288 23.366 9.473 44.17 23.491 65.594 36.416 11.428 6.895 23.115 13.455 33.988 21.15 12.494 8.841 24.617 18.31 36.16 28.358 11.271 9.811 21.679 20.624 32.334 31.13 11.697 11.531 23.731 22.776 34.706 34.967 9.146 10.161 19.732 18.419 30.063 27.168 17.73 15.015 38.79 24.301 58.74 35.42 14.422 8.04 30.002 13.975 44.855 21.277 12.67 6.23 24.847 13.48 37.607 19.51 9.943 4.698 20.431 8.25 30.707 12.235 3.942 1.528 7.994 2.772 11.948 4.272 6.544 2.485 12.818 11.487 11.793 18.281-.432 2.868-2.714 6.285-5.174 7.852-5.674 3.612-11.764 6.805-18.063 9.151-11.086 4.13-19.885 11.574-28.978 18.618-11.208 8.684-19.966 19.62-28.65 30.769-7.143 9.17-10.989 19.725-15.229 30.108-8.769 21.473-19.16 42.16-33.703 60.116-9.982 12.325-22.548 22.557-33.97 33.714-1.899 1.855-3.85 3.66-6.154 5.846l7.124 10.17-16.096 11.787-27.539-37.745 16.07-11.853 9.714 12.998c12.625-13.133 25.617-25.114 36.71-38.652 9.63-11.754 17.784-24.837 23.55-39.19 5.16-12.842 9.92-25.966 16.496-38.074 4.968-9.147 12.162-17.197 19.01-25.182 9.951-11.603 21.028-22.134 34.093-30.25 7.592-4.717 15.522-8.89 23.468-13.402-4.363-1.684-9.49-3.338-14.337-5.593-18.646-8.675-37.163-17.627-55.807-26.309-13.401-6.24-27.16-11.756-40.332-18.44-13.39-6.794-26.151-14.813-39.37-21.959-20.951-11.326-39.32-26.12-56.247-42.596-15.661-15.247-30.193-31.646-45.548-47.217-15.41-15.625-32.333-29.524-49.62-43.06-21.276-16.661-45.142-29.094-67.857-43.413-20.898-13.174-43.36-22.944-66.17-31.971-18.874-7.47-37.922-14.604-57.23-20.844-23.034-7.445-46.39-13.905-69.678-20.544-14.151-4.034-28.407-7.716-42.68-11.299-3.795-.953-7.821-1.038-11.753-1.385-8.206-.724-16.412-1.766-24.631-1.913-8.5-.152-17.024.46-25.52 1.005-6.39.41-12.836.801-19.114 1.97-19.972 3.718-38.803 10.004-56.293 21.103-16.298 10.342-31.318 21.906-45.012 35.38-9.35 9.198-18.617 18.495-28.278 27.358-22.284 20.445-45.384 40.032-71.8 54.9-12.19 6.86-25.532 11.839-39.712 14.359-15.122 2.687-29.943 7.02-44.987 10.203-12.001 2.54-24.144 4.403-36.215 6.62-8.852 1.626-17.69 3.332-26.531 5.014-10.448 1.987-20.914 3.884-31.333 6.008-11.063 2.256-22.26 4.128-33.061 7.31-8.159 2.404-15.789 6.602-23.652 10.008-22.172 9.602-44.331 19.238-66.529 28.783-3.761 1.618-7.612 3.124-11.553 4.206-8.187 2.247-12.211 7.428-14.094 15.746-3.28 14.496-7.932 28.677-11.447 43.126-4.33 17.795-8.283 35.687-12.032 53.614-3.657 17.487 7.225 36.438 23.766 43.606 10.944 4.743 21.434 10.532 32.128 15.854 11.428 5.687 22.863 11.362 34.277 17.078 1.614.808 3.176 1.743 4.683 2.74 9.749 6.451 20.198 3.883 30.596 2.514 9.116-1.201 18.24-2.455 27.4-3.18 5.13-.405 10.363-.027 15.51.434 9.394.84 15.42 7.75 22.16 13.127 13.151 10.49 26.082 21.257 39.022 32.008 11.454 9.516 22.12 19.716 31.132 31.759 8.393 11.217 18.112 21.431 26.93 32.343 4.021 4.974 7.372 10.505 10.868 15.886 13.373 20.58 26.589 41.264 40.04 61.793 12.64 19.292 25.465 38.462 38.285 57.635 6.038 9.032 11.66 18.442 18.598 26.737 4.659 5.57 11.285 9.498 17.06 14.125 1.93 1.547 4.196 2.75 5.878 4.519 4.588 4.825 10.97 5.182 16.747 6.348 2.637.532 6.608-1.504 8.825-3.594a1793 1793 0 0 0 40.27-39.154c6.695-6.716 13.825-12.458 22.214-17.122 10.24-5.692 20.86-8.054 32.347-9.232 8.172-.838 15.79.544 23.147 2.745 21.167 6.333 41.989 13.814 63.14 20.208 11.413 3.45 23.236 5.531 34.844 8.354a1626 1626 0 0 1 29.46 7.475c13.033 3.429 25.888 5.424 39.262.786 23.175-8.037 46.576-15.423 69.89-23.055 2.178-.712 4.419-1.228 6.977-2.041"/></svg>