<svg xmlns="http://www.w3.org/2000/svg" viewBox="0 0 1964 1200" xml:space="preserve"><path fill="#fff" d="M1522 1149.142c9.333.006 18.167.083 27 .007 38.937-.336 77.873-.72 116.81-1.074 4.372-.04 8.744.01 13.116-.009 71.28-.307 142.56-.58 213.84-1.018 4.511-.028 9.174-.862 13.444-2.286 1.762-.587 3.351-3.613 3.7-5.746.189-1.157-2.135-3.32-3.767-4.08-8.484-3.952-17.112-7.594-25.686-11.35-16.086-7.047-31.966-14.619-48.304-21.02-22.345-8.754-44.055-18.764-65.097-30.243-16.521-9.013-32.344-19.164-46.062-32.131-15.305-14.467-30.96-28.694-44.947-44.376-8.758-9.818-14.782-22.09-21.924-33.33-8.63-13.581-11.643-29.16-15.27-44.453-1.508-6.353-2.484-12.972-2.595-19.49-.332-19.493-.34-39-.022-58.494.156-9.547 1.254-19.082 2.043-28.612.366-4.428-1.85-6.653-5.914-6.575-11.315.219-22.629.645-33.932 1.214-7.571.38-15.133 1.046-22.682 1.757-13.092 1.232-26.164 2.694-39.26 3.878-9.53.861-19.093 1.371-28.632 2.143-15.433 1.248-30.854 2.624-46.287 3.864-10.03.806-20.08 1.378-30.108 2.215-10.323.863-20.63 1.927-30.947 2.88-.986.09-1.987.012-3.752.012l-2.96-29.26c5.535-.51 10.733-1.05 15.94-1.46 17.363-1.371 34.723-2.76 52.093-4.019 15.27-1.107 30.567-1.882 45.826-3.12 12.902-1.046 25.758-2.634 38.65-3.808 6.246-.57 12.548-.52 18.787-1.135 15.306-1.512 30.56-3.694 45.893-4.766 14.894-1.042 29.92-1.242 43.197 7.52 6.158 4.064 10.076 9.323 12.06 16.933 2.682 10.288 1.528 20.038-.09 30.127-1.013 6.325-1.058 12.835-1.155 19.268a1140 1140 0 0 0-.01 33.998c.118 7.935-.035 15.967 1.16 23.768 1.289 8.416 3.893 16.644 6.125 24.9 4.484 16.588 14.314 30.37 24.18 43.943 4.645 6.39 11.11 11.46 16.786 17.093 7.556 7.5 14.725 15.464 22.83 22.318 9.31 7.871 19.088 15.332 29.346 21.905 12.35 7.913 25.123 15.305 38.26 21.815 13.643 6.76 27.96 12.157 41.947 18.228 13.021 5.652 25.96 11.495 39.006 17.09a1260 1260 0 0 0 31.224 12.891c7.427 2.952 14.275 7.052 18.803 13.468 5.194 7.36 6.604 15.852 4.18 25.016-1.882 7.113-5.102 12.901-10.046 18.456-5.694 6.395-12.443 8.751-20.4 10.042-20.47 3.318-41.06 1.21-61.583 1.888-4.162.138-8.333.007-12.5.023-89.43.336-178.86.622-268.288 1.041-32.932.155-65.862.613-98.792.952-32.595.336-65.188.853-97.783 1.016-83.436.419-166.872.687-250.308 1.008-7.691.03-15.384-.085-23.075.02-19.93.273-39.859.815-59.79.922-80.092.43-160.185.685-240.277 1.107-38.102.2-76.203.631-114.304.948-4.17.034-8.34-.032-12.51.012-31.263.329-62.525.813-93.79.984-73.451.404-146.907 1.043-220.354.576-11.306-.071-22.96-3.215-33.236-10.663-7.602-5.509-11.643-12.918-16.77-19.912-.463-.632-.903-1.465-.917-2.213-.223-11.853-3.041-24.231 3.122-35.16 5.227-9.267 11.35-18.285 18.448-26.181 11.445-12.735 24.12-24.358 36.089-36.632 14.907-15.286 29.55-30.832 44.45-46.126 12.1-12.42 24.454-24.592 36.617-36.951a16121 16121 0 0 0 51.98-53.056c23.065-23.652 46.054-47.379 69.112-71.038 14.86-15.247 29.838-30.38 44.666-45.659 12.909-13.3 25.599-26.814 38.538-40.084 13.096-13.43 26.453-26.606 39.566-40.02 24.476-25.037 49.251-49.8 73.095-75.429 10.136-10.895 12.667-24.672 8.778-39.606-4.21-16.167-14.688-29-21.951-43.526-6.117-12.234-13.139-24.018-19.843-35.954-8.61-15.328-26.534-20.582-42.514-13.273-9.123 4.174-18.65 6.915-29.09 7.13-14.033.29-27.119-2.093-40.057-7.496-10.358-4.325-21.352-7.105-31.979-10.815-12.421-4.337-24.727-9.004-37.125-13.41-13.806-4.908-27.795-9.33-41.455-14.612-15.097-5.837-29.948-12.322-44.837-18.685-12.17-5.201-22.03-13.394-27.94-25.249-3.778-7.577-5.994-15.947-8.742-24.02-2.435-7.152-4.561-14.41-6.965-21.573-1.889-5.628-3.988-11.185-6.002-16.77-4.111-11.397-11.737-19.55-23.14-23.592-17.295-6.129-34.615-12.25-52.172-17.555-16.68-5.04-33.74-8.814-50.522-13.535-18.895-5.315-37.623-11.221-56.506-16.577-13.313-3.776-26.824-6.851-40.136-10.627-13.614-3.861-27.067-8.287-40.642-12.29-8.958-2.642-18.074-4.76-26.993-7.521-5.325-1.649-10.476-3.929-15.581-6.205-11.635-5.187-22.997-10.994-32.594-19.478-12.111-10.707-22.909-22.519-29.585-37.629-8.312-18.81-12.566-38.32-11.105-58.92.488-6.874.95-13.78 2.062-20.566.582-3.55 2.604-6.853 3.884-10.301C42.274 98.681 50.44 86.566 60.153 75.12c8.772-10.337 18.935-18.854 29.923-26.404 8.058-5.538 16.628-10.527 25.482-14.663 13.074-6.106 26.434-11.706 40.012-16.576 6.33-2.27 13.423-2.697 20.23-3.295 14.412-1.266 28.87-2.982 43.299-2.886 19.31.127 37.3 5.726 53.892 16.096 14.253 8.91 24.876 20.995 32.23 35.684 6.674 13.331 11.76 27.45 17.768 41.124 5.224 11.892 10.497 23.775 16.216 35.432 8.411 17.147 19.714 32.417 33.01 45.996 18.56 18.958 37.88 37.173 56.655 55.925 15.563 15.544 30.758 31.457 46.213 47.109 12.044 12.196 24.255 24.226 36.359 36.364 7.687 7.709 16.892 13.448 27.062 16.493 8.459 2.533 17.684 2.659 26.604 3.467 16.09 1.458 29.912-5.42 43.77-12.232 11.007-5.412 22.106-10.656 33.32-15.623 11.576-5.128 23.08-10.679 35.13-14.365 6.09-1.862 13.712-1.385 19.947.426 15.771 4.582 31.177 10.44 46.675 15.938 9.397 3.334 18.658 7.052 28.047 10.411 11.95 4.276 24.007 8.252 35.941 12.571 7.676 2.778 15.151 6.106 22.825 8.89 10.565 3.833 21.273 7.272 31.842 11.093 8.142 2.944 16.13 6.312 24.25 9.318 9.81 3.63 19.675 7.11 29.538 10.595 8.164 2.885 16.421 5.518 24.527 8.558 14.305 5.364 28.655 10.65 42.719 16.599 5.557 2.35 11.19 5.604 15.392 9.833 7.245 7.288 14.061 15.213 19.816 23.711 5.313 7.846 8.388 17.02 9.127 26.68.465 6.09.647 12.202.969 18.303.731 13.892-2.88 26.55-11.708 37.305-6.244 7.609-13.047 14.789-19.946 21.823-7.826 7.98-16.093 15.526-24.07 23.362-22.188 21.795-44.624 43.348-66.383 65.564-16.26 16.601-31.596 34.105-47.39 51.164-5.863 6.335-11.897 12.513-17.782 18.829-13.233 14.2-26.426 28.437-39.627 42.667-8.304 8.95-16.651 17.862-24.871 26.89-8.74 9.596-18.023 18.804-25.8 29.136-5.845 7.766-10.496 16.708-14.194 25.735-3.745 9.14-1.523 21.013 13.364 19.832 17.314-1.375 34.58-3.34 51.886-4.847 7.236-.63 14.54-.496 21.775-1.137 12.729-1.128 25.419-2.689 38.145-3.86 6.403-.589 12.864-.537 19.272-1.091 18.132-1.568 36.242-3.39 54.376-4.93 10.341-.878 20.735-1.167 31.066-2.134 15.319-1.432 30.595-3.316 45.909-4.816 4.13-.404 8.353.172 12.488-.198 12.888-1.156 25.75-2.583 38.63-3.833 4.752-.462 9.53-.66 14.286-1.09 17.967-1.622 35.923-3.369 53.897-4.902 6.907-.59 13.863-.585 20.777-1.106 16.717-1.257 33.423-2.669 50.134-4.01 12.453-1 24.917-1.88 37.36-3.007 17.141-1.552 34.26-3.364 51.401-4.91 10.157-.915 20.34-1.533 31.156-2.332l-2.079-24.626 24.898-2.273 7.107 81.957-24.88 2.255-2.492-27.598c-8.783.502-17.472.899-26.143 1.529-5.732.417-11.435 1.228-17.16 1.758a8196 8196 0 0 1-43.759 3.938c-5.109.445-10.239.643-15.348 1.08-14.923 1.278-29.839 2.632-44.76 3.927-4.604.4-9.219.667-13.823 1.063-15.087 1.298-30.167 2.674-45.258 3.929-9.376.779-18.771 1.322-28.148 2.095-19.37 1.596-38.73 3.316-58.102 4.904-9.703.796-19.434 1.261-29.128 2.148-12.602 1.153-25.169 2.68-37.77 3.84-6.423.593-12.902.566-19.33 1.122-13.763 1.19-27.501 2.66-41.264 3.848-6.588.569-13.225.574-19.812 1.155-13.597 1.199-27.167 2.691-40.763 3.903-6.096.544-12.24.543-18.338 1.07-14.098 1.22-28.175 2.669-42.27 3.902-4.947.433-9.927.479-14.89.752-8.29.456-16.65 1.86-24.855 1.223-12.608-.978-23.835-6.067-31.078-16.974-5.292-7.968-7.87-16.965-6.9-26.852 2.143-21.86 13.983-39.061 27.397-55.014 14.572-17.329 30.564-33.46 45.877-50.17 16.93-18.475 33.705-37.092 50.707-55.5a5005 5005 0 0 1 46.785-49.926c10.868-11.448 21.821-22.827 33.053-33.916 13.108-12.94 26.657-25.431 39.837-38.3 13.42-13.104 26.592-26.462 39.932-39.649 9.882-9.768 10.885-22.003 9.577-34.749-.493-4.805-1.324-9.777-3.139-14.207-5.12-12.503-13.213-23.033-25.786-28.442-14.26-6.135-29.13-10.847-43.722-16.217-10.964-4.034-21.892-8.167-32.86-12.187-14.323-5.25-28.679-10.41-43.006-15.648-15.508-5.668-30.944-11.535-46.511-17.031-17.595-6.212-35.354-11.96-52.943-18.19-12.373-4.383-24.562-9.283-36.867-13.86-8.039-2.99-16.092-5.957-24.226-8.671-6.174-2.06-11.685 1.136-16.974 3.383-14.474 6.148-28.727 12.817-43.03 19.363-9.885 4.525-19.553 9.564-29.593 13.707-18.313 7.558-37.273 7.935-56.62 4.524-14.816-2.612-28.897-7.253-40.739-16.374-10.329-7.956-19.606-17.344-28.935-26.518-16.814-16.536-33.3-33.406-49.961-50.099-12.019-12.04-24.046-24.072-36.17-36.006-7.996-7.872-16.272-15.46-24.243-23.356-15.892-15.743-30.701-32.541-42.213-51.706-8.74-14.549-15.896-30.093-23.14-45.484-7.839-16.65-14.572-33.824-22.533-50.411-5.417-11.287-15.244-18.168-26.31-23.946-12.66-6.612-25.94-8.965-39.783-8.302-10.12.485-20.187 2.268-30.258 3.619-6.3.845-12.705 1.434-18.82 3.055-17.841 4.73-34.414 12.451-49.67 22.844-7.496 5.107-15.556 9.797-21.844 16.172-10.352 10.494-19.952 21.784-25.29 36.061-4.79 12.813-5.872 26.129-4.565 39.328 1.345 13.58 6.138 26.517 13.447 38.231 6.749 10.816 16.11 19.163 26.889 25.694 12.35 7.485 25.468 13.204 39.757 16.365 9.755 2.158 19.12 6.025 28.766 8.746 13.726 3.873 27.568 7.334 41.33 11.088 9.709 2.648 19.378 5.446 29.042 8.256 10.896 3.168 21.752 6.472 32.65 9.63 13.7 3.972 27.395 7.965 41.148 11.743 13.141 3.61 26.403 6.786 39.515 10.494 6.234 1.764 12.215 4.404 18.361 6.5 8.413 2.868 17.157 4.961 25.229 8.572 7.203 3.222 13.928 7.708 20.441 12.244 15.188 10.58 20.44 27.347 25.989 43.703 4.426 13.05 7.815 26.453 12.294 39.484 2.806 8.164 8.92 13.588 16.81 17.473 17.373 8.553 35.683 14.55 53.87 20.952 17.718 6.236 35.285 12.899 52.97 19.232 12.828 4.595 25.722 9.009 38.622 13.402 7.487 2.549 15.124 4.673 22.548 7.387 11.336 4.143 21.821.915 32.309-3.072 9.29-3.532 18.28-8.16 28.766-6.949 16.234 1.875 30.089 7.451 41.434 20.302 11.038 12.502 17.32 27.531 25.738 41.407 7.827 12.903 15.159 26.118 22.332 39.4a71 71 0 0 1 6.194 15.72c1.634 6.271 3.24 12.846 3.05 19.235-.46 15.45-3.633 30.503-13.228 43.109-5.262 6.912-11.713 12.947-17.846 19.163-14.527 14.725-29.285 29.222-43.766 43.992-24.434 24.924-48.723 49.99-73.076 74.993-12.925 13.27-25.895 26.498-38.773 39.815-15.593 16.124-31.028 32.404-46.688 48.464-12.215 12.527-24.76 24.732-36.998 37.236-24.648 25.185-49.18 50.484-73.775 75.721-14.01 14.375-28.101 28.67-42.056 43.096-14.556 15.048-28.976 30.228-43.487 45.318-9.796 10.188-20.088 19.946-29.273 30.655-4.06 4.734-6.596 11.124-8.614 17.167-2.139 6.406 2.265 14.313 9.576 16.929 6.964 2.491 14.392 4.472 21.73 4.956 12.113.8 24.319.302 36.484.196 32.109-.28 64.216-.715 96.324-.954 55.27-.41 110.542-.705 165.813-1.074 44.334-.295 88.668-.619 133.002-.95 43.775-.325 87.55-.752 131.326-.999 70.61-.397 141.222-.66 211.833-1.048 7.445-.04 14.886-.725 22.331-.78 20.05-.145 40.103-.067 60.154-.157 74.103-.335 148.207-.654 222.31-1.082 26.178-.151 52.355-.6 79.033-.911"/></svg>