<svg xmlns="http://www.w3.org/2000/svg" viewBox="0 0 1886 654" xml:space="preserve"><path fill="#fff" d="M714 574.185c37.833 0 75.167-.14 112.5.033 58.76.272 117.52.79 176.28 1.138 54.603.322 109.206.557 163.81.828 1.797.01 3.594.001 5.65.001v25.63h-5.098c-15.667 0-31.334.065-47-.012-62.773-.305-125.547-.691-188.32-.98-80.773-.37-161.547-.63-242.32-1.025-49.94-.244-99.88-.691-149.82-.973-66.44-.375-132.88-.575-199.319-1.104-11.975-.095-23.03-4.126-33.91-9.33-16.681-7.979-24.351-22.914-30.504-38.546-2.373-6.03-2.955-13.323-2.163-20.74 1.615-15.138 1.82-30.543 1.098-45.766-.417-8.77-5.64-16.44-10.87-23.711-6.099-8.483-13.386-15.457-22.775-19.969-11.124-5.346-22.306-10.607-33.686-15.375-16.493-6.91-33.169-13.385-49.797-19.97-22.509-8.915-44.332-19.169-64.216-33.134-9.491-6.666-17.224-15.143-23.735-24.706a1412 1412 0 0 1-15.88-23.882c-8.587-13.179-12.838-27.983-15.673-43.233-1.077-5.795-1.377-11.732-2.074-17.6-.56-4.722-1.407-9.423-1.701-14.16-.18-2.896.458-5.841.706-8.766.667-7.874.624-15.885 2.125-23.596 3.192-16.388 9.272-31.68 17.806-46.214 10.39-17.695 23.476-33.243 37.638-47.673 11.546-11.764 24.755-22.023 39.957-29.321 17.83-8.561 35.291-17.897 53.166-26.362 6.866-3.252 14.295-5.605 21.707-7.355 14.456-3.412 29.076-6.135 43.643-9.067 1.443-.29 2.992-.059 4.492-.059 50.833 0 101.667.126 152.5-.041 40.44-.133 80.88-.682 121.32-.907 7.105-.04 14.216.93 21.32.88 13.276-.097 26.547-.681 39.822-.91 14.993-.26 29.173 3.153 43.147 8.62 16.006 6.262 25.233 18.685 34.579 32.193 7.332 10.597 9.623 22.347 11.926 33.986 1.747 8.83.483 18.565-.993 27.645-1.643 10.109-4.8 20.007-7.814 29.838-1.03 3.36-3.724 6.184-5.487 9.348-7.274 13.056-16.68 24.632-28.33 33.656-12.153 9.414-25.374 17.642-38.821 25.145-18.649 10.404-39.23 13.287-60.447 13.242-78.832-.166-157.665-.072-236.498-.06-13.56.001-24.672 4.879-31.79 16.862-6.69 11.264-6.076 26.157 3.626 36.67 12.466 13.508 28.676 21.637 43.53 31.671 22.91 15.474 46.165 30.442 69.467 45.323 17.098 10.919 34.406 21.52 51.807 31.952 14.304 8.574 28.615 17.214 43.44 24.816 9.115 4.673 19.031 8.036 28.902 10.907 9.535 2.774 19.46 4.228 29.243 6.118 3.052.59 6.194.998 9.296 1.002 45.667.063 91.335-.186 136.998.21 10.97.095 19.868-3.92 28.334-9.848 7.708-5.397 13.826-12.137 15.886-21.724.344-1.602.48-3.278.484-4.92.036-15.334-.855-30.733.304-45.978.897-11.801 3.836-23.536 6.769-35.071 4.605-18.119 17.833-31.342 27.83-46.344 15.431-23.158 31.31-46.021 47.185-68.88 12.308-17.723 24.976-35.194 37.343-52.877 10.569-15.112 20.833-30.439 31.422-45.537 10.279-14.655 21.694-28.435 36.37-38.845 5.78-4.1 12.822-6.74 19.638-8.985 8.942-2.946 18.207-4.94 27.375-7.173 15.087-3.675 30.223-2.609 45.348-.173 8.616 1.388 17.268 2.597 25.826 4.281 3.485.686 6.945 2.075 10.106 3.734 11.205 5.881 22.445 11.73 33.362 18.121 18.187 10.646 36.178 21.634 54.175 32.602 20.104 12.252 40.091 24.693 60.189 36.955 14.854 9.064 29.796 17.983 44.713 26.945a39337 39337 0 0 0 59.978 35.98c13.983 8.368 27.968 16.734 42.01 25.002 17.652 10.394 35.357 20.699 53.053 31.02 14.224 8.296 28.437 16.612 42.71 24.825 18.592 10.7 37.283 21.229 55.844 31.982 11.131 6.45 22.061 13.246 33.145 19.778 11.457 6.751 23.052 13.268 34.47 20.083 8.565 5.113 16.815 10.76 25.438 15.77 12.516 7.273 25.072 14.518 37.945 21.122 7.379 3.785 20.865-1.876 25.147-9.913 4.995-9.376 6.301-18.998 7.372-29.03.38-3.566 2.057-7.132 1.795-10.596-.556-7.337-2.106-14.593-3.053-21.908-2.088-16.118-9.974-30.02-17.71-43.71-6.089-10.774-14.308-20.546-26.288-25.477-12.54-5.161-25.198-10.24-38.189-14.042-18.85-5.516-37.163-12.177-54.92-20.545-11.065-5.214-19.466-13.36-27.07-22.611-7.496-9.12-11.786-19.777-14.973-30.947-3.459-12.12-4.053-24.778-2.287-36.915 2.385-16.39 9.895-30.953 20.25-44.274 7.607-9.785 16.408-17.634 27.46-22.592 6.88-3.086 14.504-4.652 21.92-6.352 5.094-1.167 10.392-1.536 15.622-1.98 2.96-.252 6.09-.447 8.935.22 10.02 2.35 20.036 4.796 29.888 7.759 8.593 2.584 16.947 5.954 25.432 8.907 14.234 4.953 28.466 9.913 42.738 14.755 19.144 6.493 38.367 12.758 57.479 19.345 15.432 5.318 30.741 10.99 46.119 16.467 22.85 8.139 42.572 21.177 58.802 39.064 7.337 8.085 11.541 18.183 14.929 28.767 4.188 13.088 5.503 26.362 5.661 39.87.187 15.878.173 31.761.009 47.64-.182 17.609-.744 35.213-.931 52.822-.163 15.236.088 30.477-.064 45.714-.22 22.105-.327 44.22-1.135 66.305-.291 7.95-3.323 15.8-3.59 23.748-.398 11.774-6.214 21.544-10.546 31.72-6.391 15.016-16.653 27.87-27.496 39.896-10.108 11.211-22.63 20.165-36.665 25.476-10.673 4.038-22.557 6.585-33.945 6.743-67.098.927-134.208 1.047-201.314 1.233-18.273.051-36.547-.674-54.821-.926-28.273-.391-56.546-.843-84.821-.975-35.964-.167-71.93-.04-107.896-.04h-63.976c-.54 4.592-1.204 10.217-1.889 16.028h-17.424V562.12h19.92v13.939c5.322.388 10.38 1.057 15.44 1.076 27 .106 54-.019 80.999.063 99.773.302 199.546.614 299.32 1.024 17.94.074 35.88.659 53.82.947 6.206.1 12.418-.11 18.62.048 8.11.205 16.257 1.307 24.313.81 11.935-.737 24.164-1.212 35.587-4.31 9.172-2.486 17.722-8.104 25.859-13.394 14.52-9.44 23.71-23.91 31.633-38.656 5.283-9.834 8.703-20.738 10.726-32.208 3.79-21.493 2.068-42.998 2.683-64.497.323-11.274.832-22.545.957-33.821.167-15.045-.088-30.094.075-45.139.188-17.442.578-34.882.994-52.32.17-7.112 1.407-14.28.806-21.308-1.118-13.089-.218-26.343-3.873-39.26-4.522-15.98-13.495-28.606-26.946-38.03-12.763-8.942-26.565-16.022-41.317-21.093-22.495-7.735-45.068-15.241-67.578-22.933-12.507-4.274-24.903-8.875-37.439-13.06-15.62-5.216-31.353-10.094-46.997-15.238-9.789-3.218-19.298-7.73-29.319-9.657-7.844-1.509-16.326-.386-24.437.43-4.784.482-9.635 2.128-14.04 4.155-9.564 4.402-16.277 12.025-21.472 21.021-3.26 5.646-7.577 11.041-9.275 17.146-2.59 9.31-4.915 18.661-2.026 29.012 2.01 7.204 2.949 14.846 6.881 21.22 3.563 5.774 8.082 11.146 12.975 15.872 8.531 8.24 19.503 12.074 30.65 15.569 9.764 3.062 19.23 7.065 28.928 10.359 12.362 4.198 25.25 7.129 37.147 12.349 20.261 8.89 36.267 22.964 46.014 43.383 3.723 7.8 8.385 15.22 11.398 23.27 3.252 8.689 5.589 17.812 7.372 26.933 1.63 8.344 2.237 16.921 2.807 25.429.304 4.544.173 9.287-.802 13.712-2.282 10.36-4.309 20.916-8.052 30.78-5.691 14.998-17.279 25.174-32.672 28.693-13.69 3.13-27.41 1.212-40.053-6.717-17.37-10.895-35.355-20.804-52.942-31.36-16.618-9.973-32.948-20.43-49.617-30.315-14.189-8.415-28.722-16.247-43.024-24.474-13.805-7.94-27.49-16.085-41.26-24.087-23.076-13.41-46.237-26.673-69.25-40.19-23.125-13.581-46.1-27.417-69.165-41.102-12.79-7.587-25.699-14.976-38.424-22.669-10.959-6.625-21.682-13.64-32.6-20.333-22.197-13.607-44.443-27.133-66.693-40.653-15.132-9.195-30.318-18.3-45.454-27.487-13.183-8.002-26.027-16.628-39.593-23.91-9.874-5.301-20.33-10.496-31.152-12.824-17.163-3.693-34.968-5.928-52.461-2.282-13.135 2.737-26.928 5.331-37.816 13.603-8.948 6.798-17.105 15.115-24.026 23.995-12.038 15.443-22.876 31.823-34.173 47.841-6.917 9.81-13.827 19.626-20.606 29.532-12.906 18.858-25.612 37.854-38.596 56.658-12.323 17.846-24.982 35.46-37.325 53.293-8.055 11.638-15.75 23.56-18.546 37.752-1.203 6.104-2.118 12.357-2.251 18.563-.32 14.993-.383 30.004-.005 44.994.247 9.74-3.122 18.135-8.113 26.004-8.63 13.608-21.07 23.028-35.58 29.355-5.997 2.614-13.017 3.974-19.584 4.016-50.664.32-101.333.356-151.997-.003-8.415-.06-16.941-1.948-25.19-3.932-10.445-2.513-20.783-5.636-30.932-9.17-7.066-2.459-13.837-5.852-20.557-9.195-6.589-3.277-13.085-6.79-19.38-10.6-15.9-9.624-31.654-19.49-47.486-29.227-16.484-10.137-33.114-20.042-49.446-30.417-11.627-7.385-22.842-15.42-34.287-23.094-14.6-9.79-29.404-19.284-43.796-29.368-5.894-4.13-10.989-9.418-16.364-14.271-8.489-7.665-11.128-18.564-14.432-28.697-1.7-5.217-.027-11.714.8-17.537 1.846-12.987 9.02-23.274 17.368-32.954 7.986-9.26 18.005-15.64 30.036-15.785 63.935-.766 127.877-.902 191.818-1.187 23.208-.103 46.44.625 69.616-.246 15.075-.566 29.81-4.17 42.78-12.748 9.968-6.59 20.549-12.431 29.73-19.977 6.812-5.598 12.171-13.134 17.506-20.306 3.76-5.055 7.138-10.67 9.333-16.54 2.575-6.888 3.815-14.296 5.368-21.535.685-3.19 1.03-6.529.968-9.79-.095-4.976.016-10.125-1.229-14.869-1.545-5.89-3.726-11.827-6.801-17.057-6.179-10.51-13.466-19.439-26.19-23.752-11.317-3.836-22.45-5.6-34.183-5.595-105.832.047-211.665-.075-317.497.189-10.435.026-20.95 1.822-31.271 3.67-10.26 1.838-20.429 4.414-30.433 7.359-7.105 2.09-14.167 4.76-20.73 8.169-19.099 9.917-38.388 19.597-56.726 30.805-13.249 8.097-24.359 19.22-33.624 31.96-5.423 7.454-11.65 14.345-16.795 21.975-9.982 14.805-16.98 31.23-18.425 48.941-1.149 14.076.828 28.409 1.45 42.626.497 11.37 4.151 21.97 9.182 31.925 4.35 8.611 9.867 16.647 15.076 24.805 2.661 4.168 5.63 8.165 8.722 12.028 6.264 7.827 14.311 13.509 22.846 18.608 22.678 13.552 46.989 23.49 71.61 32.819 16.259 6.16 32.48 12.466 48.456 19.316 12.073 5.177 23.138 12.15 33.113 20.91 12.449 10.935 21.016 24.415 26.419 39.778 3.54 10.064 4.36 20.61 2.1 31.404-1.105 5.276-.318 10.952-.342 16.448-.028 6.572-.953 13.313.188 19.68 2.422 13.517 8.427 24.41 22.342 30.357 12.64 5.402 25.19 4.992 38.197 3.783 4.082-.38 8.27.515 12.414.64 5.43.164 10.867.167 16.3.197 5.5.03 11.002-.067 16.5.02 19.108.299 38.214.907 57.321.94 66.87.119 133.74-.018 200.609.092 16.603.027 33.205.62 50.308.954"/></svg>