<svg xmlns="http://www.w3.org/2000/svg" viewBox="0 0 1874 641" xml:space="preserve"><path fill="#fff" d="M687 571.185c26.333 0 52.167-.105 77.999.023 52.273.259 104.546.712 156.82.962 81.983.392 163.967.682 245.95 1.015 1.62.006 3.239 0 4.994 0v26.63h-89.979c-12.113 0-24.228.113-36.34-.025-21.469-.245-42.936-.596-64.403-.993-12.98-.24-25.958-.925-38.937-.938-85.863-.086-171.727.046-257.59-.09-33.107-.053-66.213-.762-99.32-.927-83.773-.417-167.553-.153-251.313-1.392-22.062-.326-41.885-9.257-54.31-29.356-3.869-6.26-7.926-12.751-9.943-19.703-1.85-6.379-1.416-13.523-1.37-20.326.092-14.109.723-28.213.834-42.322.026-3.366-.579-6.957-1.818-10.076-6.23-15.676-15.941-28.172-31.002-36.865-13.89-8.017-28.727-13.372-43.521-19.075-12.97-5-25.916-10.074-38.783-15.334-24.684-10.089-48.904-21.149-70.385-37.238-9.431-7.064-17.23-15.858-23.703-25.738-5.536-8.448-11.49-16.693-16.214-25.583-4.229-7.957-8.033-16.415-10.255-25.105-4.53-17.719-6.913-35.926-6.1-54.24 1.041-23.434 5.396-45.954 17.897-66.65 9.185-15.206 20.024-28.845 31.326-42.427 9.64-11.586 21.05-20.926 32.738-29.899 8.243-6.329 17.954-10.856 27.308-15.6 13.972-7.089 28.097-13.903 42.377-20.344 6.761-3.05 13.955-5.232 21.095-7.324 8.598-2.52 17.302-4.727 26.047-6.68a107.4 107.4 0 0 1 16.067-2.304c8.921-.606 17.875-1.026 26.815-1.032 107.666-.067 215.331-.057 322.996-.026 13.12.004 25.551 3.068 37.895 7.62 17.037 6.283 27.343 18.93 36.56 33.656 9.945 15.89 13.263 33.145 12.119 51.201-.645 10.165-3.63 20.241-6.126 30.216-5.647 22.578-20.326 39.504-37.252 53.978-11.47 9.807-25.287 16.925-38.301 24.84-5.571 3.389-11.609 6.183-17.734 8.428-4.366 1.6-9.24 1.8-13.876 2.677-32.317 6.118-64.957 1.642-97.42 2.965-5.325.217-10.666.06-15.999.026-50.106-.326-100.214-.93-150.318-.754-9.196.033-19.241-.07-27.103 6.75-9.578 8.31-19.777 24.261-10.728 39.588 5.457 9.244 13.187 15.537 21.616 21.309 13.971 9.566 28.12 18.876 42.292 28.144 15.896 10.395 31.823 20.745 47.878 30.89 17.807 11.253 35.658 22.445 53.706 33.304 16.102 9.688 32.293 19.272 48.86 28.123 7.465 3.988 16.06 5.798 23.929 9.107 9.825 4.131 20.062 6.06 30.57 6.911 9.194.745 18.398 1.867 27.601 1.913 41.165.208 82.333-.036 123.498.2 7.967.046 15.25-1.399 21.942-5.542 8.894-5.506 17.347-11.56 21.417-21.789.766-1.926 1.121-4.14 1.133-6.225.09-16.499-.296-33.01.214-49.494.214-6.925 1.951-13.86 3.518-20.671 1.614-7.018 2.98-14.314 6.05-20.724 4.238-8.85 9.675-17.182 15.137-25.378 7.672-11.514 15.889-22.664 23.782-34.032 13.285-19.135 26.5-38.318 39.744-57.48 12.614-18.25 25.168-36.541 37.867-54.73 5.464-7.827 11.203-15.463 16.865-23.15 7.882-10.7 15.376-21.726 23.834-31.953 9.144-11.055 19.15-21.333 33.458-26.059 7.577-2.503 14.753-6.396 22.444-8.336 8.996-2.27 18.318-3.44 27.57-4.424 6.097-.648 12.35-.508 18.479-.03 8.824.686 17.575 2.406 26.402 2.947 12.52.768 23.38 6.258 34.323 11.372 7.451 3.482 14.436 7.994 21.518 12.232a6712 6712 0 0 1 46.814 28.285c19.224 11.718 38.366 23.57 57.598 35.276 22.303 13.575 44.668 27.05 67 40.577 10.544 6.388 21.015 12.901 31.624 19.18 19.506 11.543 39.101 22.937 58.64 34.428 14.585 8.578 29.1 17.278 43.718 25.8 21.093 12.295 42.26 24.462 63.378 36.717 11.958 6.94 23.842 14.012 35.827 20.906 12.504 7.193 25.194 14.069 37.611 21.408 12.597 7.445 24.895 15.393 37.442 22.924 12.438 7.465 25.043 14.652 37.535 22.03 3.969 2.343 7.574 5.458 11.764 7.236 6.253 2.654 12.745 5.117 19.38 6.395 6.52 1.256 7.586-2.804 6.443-9.367-1.252-7.192-4.446-14.047-6.81-21.044-3.705-10.963-7.29-21.968-11.177-32.866-3.297-9.246-7.079-18.317-10.407-27.551-3.334-9.248-6.302-18.627-9.56-27.903-2.324-6.613-4.669-13.23-7.353-19.702-3.728-8.987-11.879-11.985-20.339-14.777-11.138-3.677-22.137-7.788-33.126-11.897-3.455-1.291-6.577-3.48-10.04-4.738-14.624-5.314-25.053-15.844-34.014-27.854-7.128-9.553-10.728-20.666-13.42-32.398-2.482-10.824-1.97-21.54-1.374-32.155.585-10.401 3.894-20.762 9.888-29.513 6.48-9.46 13.471-18.687 21.195-27.144 7.892-8.64 18.145-13.937 29.874-15.933 9.676-1.648 19.304-4.084 29.044-4.676 6.37-.387 13.13 1.17 19.317 3.122 16.236 5.123 32.237 10.992 48.364 16.466 19.074 6.475 38.202 12.79 57.27 19.28 20.386 6.94 40.796 13.818 61.07 21.072 15.377 5.502 30.791 11.022 45.715 17.608 6.298 2.78 11.634 8.025 16.96 12.663 13.11 11.415 22.73 25.377 29.675 41.333 5.693 13.083 8.139 26.511 8.082 40.836-.29 73.165.175 146.333-.39 219.495-.116 15.035-2.104 30.32-9.327 44.213-5.458 10.499-9.603 21.849-16.2 31.55-13.484 19.827-30.729 36.257-53.132 45.508-10.178 4.203-21.715 6.16-32.787 6.918-19.372 1.328-38.86.997-58.302 1.255-9.736.129-19.476.066-29.214.015-61.273-.319-122.546-.66-183.819-.99-4.375-.023-8.751.027-13.127-.007-41.106-.326-82.212-.779-123.32-.961-36.928-.164-73.858-.035-111.466-.035v14.248h-19.713v-56.843h20.083v15.502c1.09.154 2.187.435 3.287.446 36.606.355 73.212.905 109.82.973 78.998.147 157.997 0 236.997.09 12.94.015 25.88.648 38.82.94 4.198.096 8.4-.02 12.6.02 33.773.324 67.558 1.275 101.314.65 11.226-.207 22.813-1.227 33.871-5.117 17.193-6.047 30.486-16.581 41.427-31.072 10.58-14.014 18.253-29.232 22.764-46.056 1.596-5.953 2.907-12.207 2.923-18.327.194-77.498.228-154.998.008-232.496-.03-10.409-4.274-20.042-9.81-28.715-4.547-7.126-9.763-13.927-15.4-20.23-8.958-10.013-20.21-16.363-33.25-20.176-13.431-3.928-26.485-9.139-39.726-13.725-8.921-3.09-17.88-6.072-26.824-9.1-11.773-3.989-23.552-7.959-35.319-11.968-9.764-3.327-19.532-6.644-29.263-10.064a5494 5494 0 0 1-41.004-14.589c-13.901-5.01-28.217-8.553-42.923-6.162-11.391 1.852-21.883 5.822-30.232 15.432-7.433 8.555-14.046 17.152-17.428 27.917-3.084 9.821-4.788 19.861-1.716 30.08 2.102 6.995 3.314 14.506 6.76 20.777 3.32 6.043 8.555 11.274 13.724 16.017 14.148 12.983 32.887 16.78 50.095 23.28 9.314 3.519 19.114 5.63 26.728 12.403 3.317 2.95 5.973 6.738 8.552 10.41 8.239 11.727 10.74 25.935 16.262 38.848 5.48 12.814 8.974 26.468 13.564 39.675 4.506 12.968 9.125 25.902 14.01 38.731 5.036 13.23 8.779 26.687 6.772 40.937-.557 3.952-2.955 7.775-5.056 11.334-1.483 2.511-3.686 4.716-5.932 6.629-3.325 2.832-6.685 5.05-11.631 5.495-19.65 1.769-36.208-5.508-52.289-15.616-14.928-9.383-30.436-17.84-45.579-26.889-11.713-7-23.165-14.438-34.9-21.4-10.163-6.029-20.612-11.572-30.84-17.494-10.244-5.93-20.312-12.164-30.561-18.085-16.889-9.756-33.914-19.277-50.782-29.069-14.206-8.246-28.255-16.762-42.402-25.11-24.534-14.478-49.15-28.82-73.619-43.405-22.424-13.366-44.733-26.926-67.027-40.507-10.101-6.153-19.935-12.749-30.086-18.816-13.56-8.106-27.39-15.761-40.955-23.859-10.68-6.374-21.09-13.198-31.7-19.69-12.704-7.773-25.34-15.677-38.292-23.019-12.147-6.885-24.38-13.769-37.14-19.364-6.882-3.017-14.891-3.808-22.498-4.734-7.7-.938-15.529-.81-23.302-1.134-9.329-.39-18.25 1.631-27.003 4.616-7.39 2.52-15.455 3.93-21.987 7.873-7.766 4.69-14.718 11.073-21.08 17.636-5.654 5.835-10.217 12.78-14.917 19.477-11.42 16.271-22.615 32.702-33.95 49.034-12.959 18.673-25.993 37.294-38.955 55.965a27102 27102 0 0 0-44.597 64.41c-6.324 9.167-13.203 18.05-18.53 27.773-3.584 6.54-5.512 14.196-7.095 21.584-4.501 21.022-.85 42.413-2.298 63.575-.432 6.33-1.866 13.117-4.807 18.65-8.79 16.536-22.752 28.01-39.791 35.3-5.972 2.556-12.924 3.889-19.44 3.931-48.498.32-97.001.462-145.495-.045-11.016-.116-22.07-2.638-32.981-4.712-7.174-1.363-14.122-3.913-21.173-5.924-18.122-5.17-34.513-14.238-50.754-23.376-15.3-8.609-29.938-18.392-44.871-27.652-14.959-9.276-29.97-18.467-44.864-27.847-8.32-5.24-16.455-10.774-24.658-16.2-21.643-14.314-43.596-28.19-64.779-43.156-10.617-7.502-19.47-17.064-23.153-30.521-1.674-6.117-5.37-11.567-4.75-18.42 1.271-13.994 6.506-26.301 14.89-37.415 6.087-8.07 13.713-14.328 23.11-17.923 4.788-1.832 10.124-3.12 15.216-3.13 83.832-.189 167.664-.042 251.496-.284 7.943-.023 15.846-2.671 23.826-3.172 13.244-.831 23.815-8.315 34.501-14.402 11.311-6.443 21.456-15.352 30.977-24.378 6.834-6.479 12.408-14.55 17.371-22.632 2.79-4.543 3.484-10.489 4.608-15.91 1.59-7.67 3.333-15.4 3.802-23.177.306-5.084-1.771-10.27-2.35-15.458-.927-8.295-4.986-15.316-9.685-21.653-5.022-6.771-10.744-13.08-19.083-16.588-12.413-5.22-25.173-6.955-38.54-6.936-105.833.152-211.665-.032-317.496.252-11.427.031-22.932 1.888-34.246 3.81-10.226 1.737-20.43 4.138-30.294 7.328-9.21 2.978-18.078 7.128-26.885 11.218-9.68 4.497-19.05 9.657-28.679 14.273-14.345 6.876-27.141 16.109-38.92 26.57-6.73 5.977-12.203 13.41-17.98 20.404-5.139 6.22-10.2 12.54-14.798 19.16-10.458 15.06-18.038 31.745-19.697 49.889-1.345 14.715.727 29.743 1.284 44.632.406 10.84 4.108 20.987 8.621 30.443 5.066 10.615 12.155 20.272 18.463 30.283 9.598 15.235 24.055 24.723 39.632 32.622 12.972 6.578 26.059 13.015 39.471 18.611 15.659 6.533 31.876 11.723 47.578 18.16 17.615 7.222 35.483 14.068 50.905 25.716 13.204 9.974 22.586 22.913 29.562 37.733 4.983 10.586 6.58 21.832 6.006 33.412-.556 11.22-.935 22.467-2.08 33.632-1.038 10.125 3.18 18.257 8.13 26.363 7.245 11.867 19.053 16.052 31.671 16.703 18.285.943 36.654.241 54.987.241 9.572 0 19.144-.066 28.715.012 37.106.305 74.213.665 111.32.98 7.213.06 14.427-.035 21.64.016 45.11.319 90.221.66 135.832.992"/></svg>