<svg xmlns="http://www.w3.org/2000/svg" viewBox="0 0 1883 644" xml:space="preserve"><path fill="#fff" d="M776.857 572.172c15.944.608 31.404 1.585 46.872 1.724 17.285.155 34.697-1.822 51.829-.315 15.36 1.35 30.628 1.353 45.927 1.333 82.453-.106 164.906-.468 247.359-.74 1.816-.007 3.633-.002 6.22-.002v26.352c-.62.06-1.88.287-3.141.288-28.332.02-56.666.144-84.997-.018-32.94-.189-65.878-.784-98.818-.937-89.436-.418-178.874-.697-268.311-1.026-5.875-.022-11.75.065-17.624-.015-22.273-.304-44.545-.667-66.819-.979-4.708-.066-9.419.005-14.129-.011-94.103-.33-188.208-.544-282.309-1.226-7.64-.055-15.55-2.546-22.823-5.273-13.995-5.248-24.947-14.093-32.587-27.63-5.025-8.905-8.704-17.97-10.1-27.814-.82-5.772.512-11.837.753-17.775.391-9.604.69-19.212 1.011-28.819.651-19.473-9.73-33.12-23.882-44.603-14.936-12.12-33.156-17.703-50.605-24.756-13.686-5.531-27.483-10.788-41.223-16.184-23.898-9.384-47.069-20.442-67.908-35.388-8.95-6.419-16.155-15.703-22.91-24.627-6.807-8.993-12.33-19.006-17.945-28.841-6.417-11.24-10.413-23.477-12.447-36.23-1.704-10.684-2.763-21.47-4.04-32.22-.196-1.643-.2-3.352.005-4.993 1.274-10.253 2.295-20.555 4.097-30.718.99-5.588 2.962-11.094 5.16-16.358 4.275-10.238 8.197-20.761 13.765-30.29 8.224-14.074 18.255-26.752 30.555-37.93 7.589-6.898 14.868-14.097 23.358-19.832 12.025-8.122 24.01-16.402 36.642-23.492 9.338-5.241 19.443-9.423 29.64-12.751 12.36-4.036 25.164-6.727 37.8-9.904 8.72-2.191 17.43-4.472 26.238-6.236 6.57-1.316 13.278-2.492 19.95-2.653 25.266-.608 50.543-.803 75.816-1.096 8.075-.094 16.153-.015 24.23-.015 12.361 0 24.724.12 37.084-.042 7.982-.105 15.958-.887 23.938-.911 34.54-.107 69.082-.124 103.622 0 10.805.038 21.609.876 32.413.88 10.44.005 20.884-.931 31.318-.807 6.873.082 13.81.885 20.58 2.118 12.016 2.19 22.802 7.515 32.767 14.475 9.445 6.597 16.34 15.383 22.448 25.113 7.456 11.875 8.764 24.89 9.215 38.3.48 14.259-.433 28.49-4.234 42.163-2.26 8.133-6.574 15.849-10.854 23.237-9.258 15.982-21.166 29.614-37.335 39.13-13.008 7.654-25.703 15.88-38.991 23.004-5.299 2.84-11.777 3.591-17.794 4.958-18.04 4.1-36.368 1.848-54.55 1.921-71.33.285-142.661.14-213.992.096-13.687-.008-23.101 6.685-29.11 18.454-4.436 8.69-3.928 17.422-.354 26.617 4.573 11.768 13.503 18.483 23.79 24.554 8.351 4.928 16.1 10.882 24.072 16.443 5.32 3.711 10.495 7.632 15.856 11.281 9.463 6.44 18.918 12.9 28.563 19.062 10.167 6.494 20.565 12.626 30.837 18.958 5.236 3.228 10.328 6.7 15.649 9.778 4.95 2.865 10.203 5.204 15.172 8.039 11.798 6.73 23.262 14.089 35.323 20.297 10.76 5.539 21.868 10.68 33.315 14.533 13.707 4.613 28.172 6.976 41.866 11.62 11.168 3.79 22.361 3.729 33.736 3.729 42.665.001 85.333-.275 127.994.173 12.312.13 20.455-5.51 27.303-14.586 1.386-1.836 2.748-3.696 4.224-5.46 4.368-5.216 5.72-11.473 5.783-17.974.158-16.498-.387-33.013.177-49.493.555-16.225 4.105-31.893 13.211-45.708 7.798-11.83 15.918-23.45 24.016-35.08 12.608-18.105 25.369-36.103 37.97-54.213 12.885-18.515 25.67-37.099 38.47-55.672 9.22-13.38 18.192-26.936 27.663-40.136 6.033-8.41 13.415-15.894 19.041-24.542 7.502-11.533 17.715-20.22 27.788-29.114 2.335-2.06 5.75-2.973 8.765-4.174 9.74-3.88 18.83-9.41 29.765-10.152 9.356-.635 18.635-3.185 27.96-3.253 8.902-.066 17.893 1.581 26.71 3.21 8.311 1.535 16.628 3.503 24.604 6.26 6.79 2.346 13.352 5.65 19.57 9.29 19.507 11.418 38.781 23.23 58.188 34.819 10.074 6.015 20.233 11.887 30.363 17.806 6.416 3.75 12.901 7.384 19.26 11.226 4.995 3.017 9.788 6.366 14.769 9.407a15174 15174 0 0 0 51.207 31.088 10661 10661 0 0 0 38.478 23.16c23.895 14.318 47.833 28.565 71.686 42.952 4.532 2.734 8.621 6.201 13.157 8.926 4.463 2.681 9.38 4.607 13.833 7.302 6.02 3.642 11.629 7.97 17.703 11.509 6.751 3.933 14.026 6.98 20.713 11.01 8.911 5.369 17.285 11.636 26.242 16.922 8.83 5.211 18.14 9.604 27.146 14.526 2.378 1.3 4.271 3.472 6.63 4.82 9.019 5.151 18.236 9.96 27.188 15.223 8.035 4.724 15.661 10.15 23.754 14.764 8.835 5.037 18.03 9.439 26.999 14.246 2.56 1.371 4.74 3.476 7.338 4.747 9.66 4.73 19.434 9.222 29.139 13.859 9.846 4.703 19.57 9.677 29.53 14.123 4.897 2.185 10.155 3.633 15.347 5.062 4.172 1.148 8.127-1.676 7.498-5.982-.961-6.575-2.702-13.104-4.777-19.434-4.46-13.61-9.295-27.097-14.076-40.599-3.061-8.643-6.379-17.194-9.44-25.837-3.263-9.217-6.165-18.565-9.587-27.72-3.004-8.035-5.957-16.182-10.04-23.677-1.85-3.395-6.002-6.596-9.756-7.717-21.03-6.278-41.682-13.51-60.89-24.15-8.495-4.704-15.149-11.951-21.433-19.544-6.987-8.44-10.714-18.31-14.229-28.29-1.653-4.694-2.18-9.9-2.498-14.92-.41-6.473-.008-12.995-.119-19.492-.248-14.543 5.492-27.211 12.886-39.104 4.238-6.816 9.62-12.98 14.909-19.07 10.528-12.124 24.87-17.178 39.992-20.241 7.525-1.524 15.304-3.127 22.87-2.744 7.719.39 15.481 2.652 22.933 5.015 16.596 5.262 33.027 11.05 49.493 16.716 15.623 5.376 31.176 10.956 46.813 16.292 17.507 5.973 35.096 11.707 52.606 17.67 12.923 4.4 25.81 8.91 38.65 13.541 10.47 3.775 17.318 11.355 22.609 21.004 5.784 10.551 3.938 21.327 2.52 32.242-.212 1.63-.486 3.256-.594 4.894-1.348 20.42-2.692 40.84-3.976 61.264-.178 2.822.118 5.674-.061 8.496-.942 14.8-2.034 29.59-2.92 44.394-.269 4.483-.389 9.036.127 13.476.193 1.661 2.127 4.026 3.718 4.475 11.613 3.279 23.366 6.057 35.025 9.18 11.779 3.155 17.686 12.17 17.954 23.736.24 10.427-.72 20.875-.837 31.317-.165 14.831.469 29.688-.189 44.492-.634 14.285-2.883 28.493-3.663 42.777-.705 12.92-6.335 24.303-11.906 35.11-5.442 10.56-12.031 21.341-22.73 28.211-1.014.652-2.01 1.392-2.84 2.26-3.854 4.028-7.941 7.882-11.388 12.239-4.759 6.015-10.956 10.095-17.611 13.259-10.14 4.82-20.48 9.344-31.07 13.033-5.276 1.838-11.28 1.826-16.982 2.148-9.927.56-19.877 1.045-29.816 1.012-73.271-.24-146.542-.56-219.813-.975-32.573-.184-65.144-.713-97.717-.958-52.438-.394-104.877-.684-157.315-1.008-.965-.006-1.932.112-3.14.187 0 3.355-.333 6.514.091 9.568.456 3.282-.887 4.235-3.772 4.222-5.323-.025-10.647-.007-16.25-.007v-54.554h19.591v15.742c8.647.34 17.039.97 25.43.954 105.952-.204 211.908-1.031 317.853-.298 19.564.135 39.265.71 58.894 1.354 4.692.154 9.389.147 14.084.164 30.776.107 61.552.285 92.328.19 3.737-.01 7.537-1.29 11.186-2.385 4.021-1.208 8.047-2.586 11.814-4.419 6.827-3.322 13.866-6.459 20.05-10.772 4.788-3.341 8.374-8.391 12.553-12.624 5.68-5.753 12.073-10.95 16.928-17.325 4.14-5.435 6.553-12.189 9.706-18.371 1.311-2.571 3.126-5.05 3.725-7.786 1.412-6.455 1.48-13.274 3.436-19.525 4.942-15.797 1.487-31.945 2.821-47.87.602-7.183-.191-14.472.098-21.694.266-6.644 1.389-13.254 1.654-19.899.196-4.917-.226-9.88-.71-14.79-.137-1.378-1.174-3.35-2.306-3.818-3.055-1.26-6.365-1.937-9.609-2.7-9.74-2.289-19.957-3.401-29.067-7.188-5.124-2.13-9.426-8.082-12.303-13.301-3.423-6.21-5.785-13.195-4.823-20.837 1.027-8.159 1.365-16.402 2.114-24.598.503-5.503 1.416-10.975 1.763-16.485.852-13.542 1.518-27.096 2.192-40.648.403-8.103.476-16.227 1.064-24.315.682-9.368 2.055-18.69 2.607-28.061.707-12.004-2.448-18.245-14.46-22.153-5.988-1.949-11.76-4.556-17.72-6.599-9.689-3.32-19.491-6.308-29.176-9.639-14.66-5.041-29.237-10.325-43.902-15.352-4.106-1.408-8.461-2.08-12.58-3.453-3.16-1.052-6.068-2.846-9.202-3.999-3.94-1.448-8.02-2.507-11.997-3.86-8.357-2.841-16.668-5.82-25.034-8.633-4.626-1.555-9.342-2.835-13.987-4.334-6.618-2.134-13.187-4.422-19.818-6.514-3.999-1.261-8.204-3.55-12.093-3.159-11.21 1.128-22.636 2.316-33.31 5.63-5.59 1.737-10.043 7.723-14.525 12.267-3.913 3.965-7.93 8.19-10.477 13.046-3.034 5.789-5.1 12.248-6.565 18.65-1.4 6.116-2.401 12.604-1.913 18.797.525 6.648 2.739 13.22 4.703 19.677 1.18 3.88 2.76 7.854 5.082 11.132 7.58 10.703 17.01 19.018 30.048 22.894 6.36 1.89 12.257 5.304 18.442 7.836 4.745 1.942 9.508 3.987 14.449 5.269 8.424 2.186 17.103 3.46 23.15 10.815.975 1.186 3.796.967 4.59 2.171 3.246 4.922 6.341 9.996 8.915 15.294 3.052 6.285 5.755 12.769 8.156 19.332 2.221 6.073 3.704 12.413 5.781 18.545 1.437 4.24 3.429 8.288 4.998 12.487 2.517 6.733 4.91 13.512 7.315 20.286 1.109 3.122 2.107 6.284 3.185 9.417 3.31 9.614 6.603 19.233 9.961 28.83 2.885 8.244 6.543 16.299 8.51 24.75 1.124 4.829-.301 10.3-.868 15.45-.294 2.672-.646 5.616-1.978 7.834-2.615 4.355-5.51 8.722-9.115 12.238-2.23 2.175-5.895 3.606-9.064 3.932-5.937.61-11.99.366-17.977.084-2.484-.117-4.917-1.261-7.38-1.909-4.083-1.072-8.35-1.69-12.206-3.297-3.9-1.625-7.342-4.32-11.093-6.346-1.959-1.058-4.198-1.58-6.228-2.523-5.573-2.587-11.15-5.173-16.638-7.932-9.82-4.934-19.654-9.848-29.337-15.04-10.745-5.76-21.385-11.725-31.96-17.795-5.45-3.128-10.588-6.794-15.999-9.994-4.224-2.499-8.77-4.46-12.965-7.003-7.297-4.42-14.292-9.353-21.679-13.61-7.402-4.266-15.248-7.758-22.678-11.978-7.209-4.095-14.083-8.774-21.202-13.033-8.152-4.878-16.483-9.458-24.601-14.39-6.59-4.003-12.86-8.534-19.49-12.464-6.46-3.83-13.251-7.095-19.794-10.791-7.15-4.04-14.197-8.268-21.264-12.456-10.577-6.27-21.115-12.607-31.704-18.859-7.937-4.686-15.933-9.274-23.891-13.924-5.659-3.307-11.402-6.485-16.924-10.006-9.957-6.35-19.665-13.091-29.693-19.32-6.273-3.897-12.99-7.07-19.413-10.737-3.155-1.8-6.067-4.026-9.137-5.982-4.331-2.759-8.623-5.593-13.083-8.131-7.122-4.055-14.519-7.644-21.517-11.895-6.011-3.651-11.495-8.165-17.456-11.907-6.085-3.82-12.493-7.125-18.715-10.733-5.812-3.37-11.571-6.833-17.343-10.273-7.187-4.283-14.377-8.562-21.54-12.885-5.474-3.305-10.892-6.704-16.364-10.012-5.682-3.435-11.373-6.858-17.11-10.2-6.159-3.587-12.128-7.659-18.644-10.422-5.312-2.252-11.312-2.874-17-4.243-4.365-1.05-8.723-2.13-13.077-3.224-.632-.159-1.225-.674-1.839-.678-9.175-.066-18.607-1.446-27.47.211-15.028 2.81-30.449 5.652-42.854 15.835-4.16 3.415-7.987 7.28-11.666 11.22-4.554 4.876-9.075 9.832-13.094 15.145-3.882 5.132-7.043 10.804-10.64 16.159-3.963 5.898-8.076 11.695-12.096 17.555-2.77 4.038-5.434 8.15-8.254 12.15-2.003 2.842-4.298 5.479-6.268 8.341-4.412 6.41-8.69 12.914-13.046 19.364-5.098 7.549-10.073 15.188-15.381 22.587-3.9 5.436-8.414 10.43-12.343 15.846-2.743 3.783-4.723 8.117-7.45 11.913-9.314 12.96-19.068 25.608-28.152 38.723-7.938 11.459-14.824 23.652-22.89 35.013-5.515 7.768-7.93 16.235-10.193 25.285-4.368 17.466-1.685 35.05-2.54 52.551-.133 2.712.838 5.523.457 8.167-1.018 7.056-1.604 14.377-4.057 20.96-2.155 5.781-6.176 11.06-10.16 15.914-4.297 5.232-9.4 9.83-14.364 14.477-2.984 2.796-6.102 5.667-9.661 7.565-3.098 1.652-6.85 2.341-10.4 2.818-5.357.72-10.788 1.22-16.189 1.23-44.998.093-89.997.105-134.995.003-8.123-.019-16.361 1.062-24.123-3.223-2.906-1.605-6.973-.94-10.313-1.957-9.849-3.001-19.568-6.425-29.398-9.489-6.32-1.97-13.048-2.9-19.065-5.514-14.452-6.278-29.133-12.076-42.532-20.675-8.968-5.755-18.771-10.193-28-15.564-6.827-3.974-13.202-8.72-20.011-12.725-7.705-4.532-15.804-8.396-23.475-12.98-5.238-3.129-10.038-6.99-15.031-10.528-2.24-1.587-4.443-3.23-6.718-4.765a1824 1824 0 0 0-14.678-9.785c-7.615-5.032-15.344-9.899-22.833-15.11-6.068-4.223-11.406-9.704-17.871-13.097-9.88-5.185-17.18-13.295-25.603-20.113-5.523-4.47-9.362-10.282-12.035-16.88-1.08-2.663-2.57-5.164-3.57-7.852-.957-2.573-1.85-5.252-2.171-7.956-.371-3.122.151-6.344-.13-9.486-.963-10.785 3.887-19.434 8.755-28.59 2.907-5.466 6.877-9.418 10.642-13.87 5.298-6.263 12.909-8.656 20.048-11.391 4.827-1.85 10.472-2.139 15.752-2.147 84.164-.122 168.327-.127 252.491.012 5.342.009 9.927-1.887 14.776-3.369 2.003-.612 4.189-.705 6.304-.858 5.78-.417 10.381-3.61 15.09-6.437 9.002-5.404 18.36-10.377 26.686-16.693 7.972-6.046 15.889-12.763 21.875-20.666 6.27-8.28 10.3-18.277 15.105-27.63.93-1.812.985-4.099 1.326-6.186.713-4.36 1.733-8.715 1.927-13.104.321-7.228.867-14.592-.15-21.689-.876-6.114-3.396-12.11-5.896-17.852-6.303-14.474-18.79-22.008-32.804-27.033-5.674-2.035-11.933-2.338-18.276-2.138-13.431.423-26.9-.479-40.354-.553-7.454-.04-14.911.747-22.366.726-76.12-.21-152.24-.515-228.36-.773-11.07-.038-22.142-.053-33.21.124-1.894.03-3.735 1.362-5.663 1.618-5.562.739-11.237.83-16.719 1.922-8.186 1.631-16.212 4.048-24.368 5.855-6.884 1.526-14.006 2.142-20.751 4.098a212 212 0 0 0-25.076 9.008c-9.773 4.232-19.453 8.816-28.702 14.076-6.222 3.537-11.223 9.246-17.486 12.679-11.125 6.098-19.594 15.087-28.287 23.868-4.48 4.526-8.517 9.544-12.355 14.64-4.671 6.2-9.279 12.505-13.229 19.17-2.627 4.432-4.184 9.527-5.985 14.412-2.198 5.965-4.491 11.931-6.095 18.066-1.186 4.538-1.531 9.332-1.904 14.039-.747 9.42-1.94 18.881-1.636 28.283.223 6.91 2.384 13.786 3.96 20.613 1.542 6.68 2.883 13.492 5.347 19.846 2.086 5.38 5.436 10.327 8.61 15.217 5.009 7.717 9.931 15.552 15.673 22.71 3.961 4.936 9.047 9.055 14.004 13.078 3.394 2.755 7.37 4.824 11.194 7.01 6.907 3.95 13.809 7.924 20.87 11.582 7.385 3.825 14.854 7.524 22.482 10.825 4.562 1.974 9.574 2.884 14.251 4.626 4.76 1.774 9.305 4.119 14.039 5.971 11.205 4.386 22.623 8.265 33.655 13.041 8.888 3.848 17.519 8.393 25.924 13.221 7.048 4.05 13.703 8.815 20.356 13.512 9.322 6.58 16.06 15.782 21.193 25.52 3.71 7.037 8.293 14.333 7.538 23.424-.532 6.412 1.298 12.985 1.36 19.493.046 4.697-1.463 9.394-1.6 14.11-.254 8.788-1.086 17.774.382 26.324 1.05 6.11 5.283 11.742 8.41 17.414 6.62 12.007 18.427 14.816 30.538 15.593 15.244.977 30.565.876 45.854.958 31.412.17 62.825.042 94.235.293 7.399.058 14.787 1.603 22.184 1.64 14.338.07 28.678-.65 43.018-.658 13.472-.009 26.945.712 40.416.688 17.62-.032 35.237-.673 52.856-.715 46.464-.11 92.929-.037 139.874-.037"/></svg>