<svg xmlns="http://www.w3.org/2000/svg" viewBox="0 0 1878 646" xml:space="preserve"><path fill="#fff" d="M641 573.173c43.5 0 86.5-.078 129.5.045 13.38.039 26.756.69 40.137.897 2.931.046 5.876-.917 8.81-.896 37.108.263 74.214.738 111.321.93 79.94.412 159.88.69 239.82 1.023 1.46.006 2.921 0 4.652 0v25.603c-1.605.078-3.2.223-4.794.222-78.33-.049-156.66-.06-234.99-.244-8.15-.02-16.295-1.154-24.45-1.595-2.223-.12-4.484.626-6.719.578-5.78-.125-11.556-.69-17.335-.696-65.827-.064-131.655-.04-197.483-.072-34.664-.016-69.328-.097-103.992-.138-13.089-.016-26.18.139-39.265-.063-6.393-.099-12.77-1.045-19.165-1.227-6.828-.194-13.67.16-20.503.087-5.346-.057-10.692-.624-16.035-.572-11.117.107-22.23.635-33.347.679-7.614.03-15.23-.67-22.845-.692-31.064-.086-62.134-.403-93.189.123-15.012.254-28.659-4.084-40.56-11.962-7.328-4.85-14.15-11.79-17.865-20.745-2.228-5.37-5.456-10.32-8.063-15.543-.543-1.09-.448-2.557-.45-3.85-.025-20.027-.015-40.054-.02-60.08 0-4.594-1.676-8.643-3.066-12.972-2.235-6.961-6.2-12.709-10.665-17.514-6.045-6.506-13.721-11.694-21.268-16.565-14.051-9.069-30.299-13.237-45.69-19.314-6.041-2.384-11.884-5.266-17.913-7.684-9.514-3.815-19.284-7.04-28.621-11.236-10.08-4.53-19.893-9.694-29.63-14.939-8.76-4.719-17.287-9.874-25.842-14.962-1.433-.852-2.462-2.369-3.72-3.534-4.778-4.43-10.085-8.415-14.226-13.375-4.495-5.385-7.885-11.689-11.808-17.559-3.61-5.404-7.639-10.564-10.835-16.2-3.009-5.304-5.427-10.989-7.634-16.688-2.189-5.653-4.164-11.446-5.539-17.339-1.3-5.579-1.87-11.35-2.456-17.07-.84-8.193-1.858-16.411-1.938-24.627-.062-6.367 1.17-12.75 1.876-19.12.623-5.616.692-11.387 2.118-16.796 2.275-8.63 4.873-17.28 8.451-25.432 3.442-7.84 7.972-15.27 12.65-22.473 3.372-5.194 7.81-9.69 11.68-14.57.964-1.217 1.342-2.923 2.37-4.06 7.385-8.175 14.591-16.54 22.43-24.262 4.248-4.186 10.815-6.354 14.21-10.99 4.81-6.567 12.14-8.463 18.186-12.55 7.53-5.09 15.808-9.157 24.022-13.13 7.685-3.715 16.504-5.577 23.392-10.33 9.775-6.745 20.974-9.155 31.638-13.059 7.805-2.857 16.317-3.838 24.559-5.426 4.994-.962 10.062-1.59 15.12-2.164 2.357-.267 4.79.149 7.153-.094 4.48-.46 8.932-1.698 13.396-1.701 112-.098 223.999-.12 335.998.066 4.795.008 9.58 2.138 14.38 3.234 3.983.91 8.202 1.217 11.924 2.744 6.505 2.67 13.298 5.274 18.881 9.384 6.155 4.53 11.21 10.61 16.475 16.265 1.739 1.867 2.654 4.504 3.928 6.799 2.293 4.128 5.244 8.042 6.697 12.448 2.12 6.425 2.21 13.631 4.936 19.71 2.48 5.528 2.15 10.844 1.916 16.232-.423 9.68-1.18 19.293-5.397 28.439-2.726 5.91-3.797 12.568-5.86 18.808-.803 2.425-2.12 4.734-3.51 6.9a476 476 0 0 1-10.707 15.995c-1.52 2.173-3.17 4.404-5.217 6.034-12.22 9.72-24.159 19.877-37.024 28.671-8.768 5.993-18.865 10.057-28.44 14.839-1.56.78-3.493.82-5.258 1.182-5.816 1.193-11.593 2.676-17.463 3.477-5.85.8-11.79 1.151-17.7 1.271-9.735.199-19.478.101-29.217.017-2.456-.02-4.908-.671-7.363-.68-16.832-.054-33.663-.006-50.495-.009-6.73 0-13.462-.156-20.19-.043-9.846.165-19.689.753-29.531.72-14.616-.047-29.231-.678-43.847-.69-13.846-.01-27.731 1.196-41.526.473-10.554-.552-20.685 1.002-31.024 2.095-13.676 1.444-20.777 9.582-25.148 21.436-1.203 3.263-2.903 6.409-3.589 9.769-.362 1.775 1.322 3.869 1.474 5.865.918 12.06 9.774 18.618 17.907 25.415 5.407 4.518 11.717 7.943 17.536 11.982 7.411 5.143 14.625 10.577 22.13 15.576 6.803 4.533 13.978 8.505 20.813 12.994 6.746 4.43 13.084 9.501 19.939 13.746 9.03 5.59 18.46 10.531 27.583 15.978 6.127 3.658 12.004 7.733 18.022 11.575 6.263 3.997 12.583 7.903 18.835 11.916 3.812 2.447 7.46 5.156 11.328 7.506a664 664 0 0 0 20.121 11.776c5.35 2.998 10.851 5.724 16.287 8.568 5.634 2.947 11.054 6.46 16.956 8.7 8.942 3.396 18.049 6.837 27.399 8.557 11.84 2.178 23.602 5.584 35.98 4.398 5.702-.547 11.546.592 17.323.55 8.53-.06 17.059-.679 25.59-.705 6.86-.021 13.722.742 20.581.703 16.186-.093 32.37-.493 48.556-.696 8.234-.104 16.482-.333 24.703.009 8.998.374 15.861-4.236 22.881-8.728 1.512-.967 3.011-1.972 4.605-2.787 6.774-3.464 8.162-11.103 12.503-16.47 1.95-2.412 1.647-6.965 1.684-10.553.197-19.25-.355-38.527.506-57.742.335-7.488 3.575-14.872 5.694-22.245 2.288-7.962 6.215-15.146 10.95-21.915 9.62-13.753 19.247-27.503 28.794-41.307 8.763-12.671 17.433-25.408 26.13-38.125 4.993-7.303 9.881-14.679 14.96-21.922 4.395-6.27 9.014-12.383 13.493-18.595 6.49-9 13.064-17.944 19.363-27.076 3.443-4.992 6.18-10.471 9.638-15.45 2.421-3.486 5.765-6.322 8.273-9.756 5.469-7.486 10.908-15.014 15.917-22.809 6.918-10.763 15.321-20.26 24.82-28.643 7.989-7.05 17.048-12.56 27.713-15.265 9.45-2.397 18.479-6.862 28.017-8.383 11.703-1.865 23.75-2.225 35.633-2.058 7.194.101 14.56 1.774 21.483 3.924 9.424 2.927 19.13 4.138 28.41 8.84 8.652 4.385 17.109 9.447 26.047 13.45 5.75 2.576 10.515 7.27 15.965 10.617 7.353 4.518 15.038 8.494 22.4 12.998 8.15 4.985 15.998 10.464 24.162 15.425 6.228 3.785 12.828 6.953 19.104 10.663 5.881 3.478 11.476 7.439 17.337 10.954 10.126 6.074 20.428 11.852 30.52 17.98 5.615 3.41 10.831 7.48 16.452 10.88 5.458 3.302 11.296 5.971 16.791 9.217 4.39 2.593 8.455 5.732 12.776 8.45 4.529 2.85 9.254 5.387 13.773 8.251 3.396 2.152 6.488 4.789 9.915 6.884a807 807 0 0 0 22.168 13.06c7.414 4.215 15.036 8.071 22.397 12.374 11.186 6.539 22.17 13.42 33.347 19.976 7.06 4.14 14.44 7.74 21.445 11.965 8.078 4.872 15.763 10.4 23.881 15.196 5.928 3.503 12.457 5.985 18.41 9.452 11.043 6.432 21.784 13.381 32.801 19.86 6.897 4.055 14.123 7.544 21.091 11.482 3.533 1.996 6.696 4.65 10.246 6.61 7.642 4.22 15.584 7.914 23.107 12.328 7.645 4.485 14.814 9.777 22.412 14.347 8.003 4.814 16.318 9.106 24.397 13.796 4.08 2.368 7.855 5.258 11.922 7.648 5.26 3.09 10.77 5.754 15.994 8.899 5.716 3.441 11.038 7.565 16.87 10.779 10.158 5.598 19.318 13.345 30.918 15.931 9.808 2.187 22.549-1.16 26.667-13.036 2.922-8.428 5.44-16.828 5.26-25.946-.09-4.506 1.835-9.051 1.746-13.557-.237-12.043-2.5-23.838-7.063-35-4.325-10.581-8.304-21.498-14.206-31.187-6.661-10.935-16.302-19.653-28.244-24.971-7.907-3.521-16.388-5.748-24.306-9.247-9.197-4.065-18.852-5.974-28.54-8.24-7.47-1.747-14.512-5.435-21.637-8.511-7.745-3.344-15.703-6.4-22.954-10.631-9.304-5.43-16.502-13.42-22.974-22.04-9.523-12.685-13.359-27.457-15.086-42.737-.927-8.199-1.411-16.98.522-24.855 3.704-15.091 8.49-30.072 20.013-41.652 4.821-4.846 8.587-11.024 14.045-14.88 6.544-4.623 14.468-7.25 21.64-11.036 10.504-5.543 22.166-4.134 33.17-4.574 7.605-.305 15.86.395 23.762 4.374 10.181 5.128 21.767 7.45 32.718 11.068 8.28 2.735 16.483 5.7 24.777 8.39 7.387 2.394 14.893 4.426 22.273 6.842 8.827 2.89 17.947 5.248 26.26 9.249 9.07 4.365 18.919 5.926 28.1 9.664 6.785 2.763 13.622 5.422 20.542 7.825 7.246 2.517 14.682 4.49 21.916 7.041 6.519 2.3 13.892 3.79 19.052 7.928 6.823 5.47 15.193 9.899 17.321 20.367 1.696 8.34 4.267 16.446 3.616 25.054-.214 2.821-1.437 5.565-1.667 8.387-.34 4.18-.063 8.408-.3 12.601-.584 10.298-1.11 20.606-2.03 30.877-1.116 12.441-2.699 24.84-3.913 37.272-.825 8.446-1.196 16.938-2.085 25.376-.726 6.899-1.918 13.748-2.907 20.619-.452 3.14 3.65 7.289 6.95 7.502 4.38.284 8.816.608 13.08 1.573 7.08 1.602 14.02 3.817 21.06 5.609 6.218 1.582 8.342 7.272 11.979 11.468 2.51 2.896 2.994 6.19 2.966 9.943-.153 19.999-.184 40-.028 59.999.085 10.942.815 21.88.885 32.821.042 6.77.024 13.652-1.09 20.295-1.897 11.308-4.926 22.302-9.633 32.944-3.636 8.222-6.662 16.54-12.508 23.615-5.785 7.002-10.938 14.522-16.507 21.707-10.23 13.2-23.75 22.353-39.02 28.156-11.031 4.193-22.39 8.88-34.935 7.148-2.83-.39-5.903 1.481-8.865 1.485-64.166.095-128.333.242-192.498-.032-18.933-.081-37.859-1.43-56.79-2.153-1.933-.074-3.879.245-5.82.246-78.666.013-157.332.045-235.998-.079-4.38-.006-8.758-1.315-13.276-2.04v13.89h-20.158V562.33h19.674v13.614c1.8.088 3.25.219 4.7.22 14.5.016 28.999.01 43.499.01 8.382 0 16.765-.027 25.147.004 88.94.326 177.88.607 266.82 1.022 36.915.173 73.83.585 110.745 1 15.442.174 30.88.807 46.321.924 14.196.108 28.453-1.108 41.593-6.49 8.17-3.347 15.766-8.737 22.678-14.366 12.3-10.017 20.886-23.355 27.941-37.272 6.815-13.444 11.101-28.122 11.283-43.364.375-31.368.102-62.745.131-94.117.003-2.66-.717-4.053-3.702-4.801-10.89-2.733-21.68-5.873-32.493-8.912-10.19-2.865-18.712-14.262-18.849-24.752-.218-16.715 1.636-33.237 3.894-49.764 1.181-8.641 1.389-17.412 2.145-26.115 1.27-14.595 2.804-29.17 3.881-43.778a385 385 0 0 0 1.061-28.43c-.004-11.738-8.33-16.044-17.927-19.157-11.945-3.874-23.8-8.026-35.701-12.038-15.815-5.33-31.67-10.542-47.442-15.997-9.572-3.31-18.96-7.152-28.535-10.451-11.605-4-23.338-7.623-34.98-11.517-6.91-2.311-13.628-5.294-20.651-7.147-10.387-2.74-19.925-9.085-31.274-7.806-11.572 1.304-23.84 1.51-33.192 9.253-7.124 5.897-13.259 13.296-18.683 20.853-5.582 7.776-8.536 16.914-8.97 26.73-.524 11.851.66 23.435 5.83 34.201 6.958 14.487 18.018 24.385 33.544 29.434 8.247 2.682 15.973 6.964 24.214 9.67 14.69 4.82 29.77 8.486 44.355 13.585 13.027 4.555 25.018 11.13 35.425 20.7 12.293 11.305 20.358 25.085 26.726 40.18 2.836 6.723 6.722 13.116 8.685 20.068a204 204 0 0 1 6.122 30.248c1.6 12.908.327 25.927-2.04 38.653-1.33 7.139-4.166 14.078-6.96 20.844-4.427 10.725-12.393 18.215-22.56 23.78-12.126 6.636-24.707 5.676-37.442 3.182-10.6-2.076-18.468-9.527-27.453-14.725-17.676-10.226-35.131-20.833-52.661-31.31-9.988-5.97-19.863-12.134-29.934-17.96-18.517-10.711-37.194-21.145-55.705-31.866-19.502-11.295-38.835-22.881-58.338-34.172-18.42-10.664-37.022-21.014-55.437-31.686-11.957-6.93-23.727-14.183-35.575-21.302-17.89-10.751-35.783-21.501-53.662-32.272-16.043-9.664-32.1-19.307-48.095-29.052-12.783-7.789-25.416-15.826-38.232-23.558-19.255-11.617-38.65-23-57.91-34.608-10.265-6.186-20.182-12.968-30.595-18.884-14.391-8.178-29.024-15.944-43.74-23.524-3.086-1.589-6.962-1.707-10.505-2.329-13.694-2.401-27.474-4.182-41.393-3.055a76.4 76.4 0 0 0-16.33 3.162c-8.697 2.696-17.252 5.894-25.733 9.221-8.728 3.424-15.384 10.115-20.779 17.154-13.21 17.238-25.322 35.317-37.86 53.07-17.733 25.11-35.551 50.158-53.143 75.365-14.325 20.526-28.388 41.236-42.532 61.888-5.114 7.466-10.849 14.629-14.974 22.615-3.7 7.16-6.318 15.091-8.113 22.978-4.549 19.99-1.62 40.376-1.987 60.581-.21 11.545-3.802 21.577-10.175 30.778-8.939 12.904-21.436 21.684-35.513 27.902-8.565 3.783-17.914 5.625-27.527 4.221-1.306-.19-2.663-.034-3.997-.034-43.5 0-87-.147-130.499.09-12.64.07-24.835-2.168-37.05-4.836-16.713-3.65-32.57-9.801-47.91-17.14a385 385 0 0 1-33.593-18.188c-19.154-11.633-37.934-23.885-56.899-35.832-12.077-7.608-24.354-14.908-36.277-22.748-19.367-12.736-38.595-25.688-57.727-38.776-8.912-6.098-17.564-12.593-26.142-19.159-6.816-5.216-11.361-12.282-14.095-20.316-2.4-7.058-6.28-13.718-5.472-21.718 1.422-14.051 6.193-26.636 14.835-37.853 5.936-7.704 12.931-14.02 21.924-17.784 3.707-1.552 7.697-2.754 11.668-3.272 5.884-.768 11.865-1.069 17.805-1.079 47.167-.08 94.333-.044 141.5-.044 32.366 0 64.733-.024 97.1.007 24.378.024 45.981-7.737 65.612-22.127 8.547-6.265 17.849-11.58 24.56-19.94 5.558-6.925 11.824-13.788 15.28-21.76 3.76-8.678 4.581-18.619 6.795-27.983 2.513-10.635.27-20.971-2.162-31.2-.849-3.573-3.114-6.865-5.018-10.119-3.86-6.595-6.776-14.218-14.31-17.58-7.388-3.298-14.931-6.676-22.761-8.47-19.802-4.536-40.032-1.997-60.06-2.056-90.666-.27-181.333-.281-271.998.058-13.59.051-27.146 2.866-40.761 3.662-14.565.852-27.95 6.04-40.995 11.403-23.835 9.8-47.218 20.817-68.49 35.667-6.507 4.542-13.342 8.882-18.91 14.434-6.581 6.563-12.35 14.057-17.753 21.658-7.18 10.101-14.533 20.249-20.176 31.219-4.563 8.87-8.17 18.78-9.559 28.602-1.823 12.893-1.985 26.21-1.19 39.244 1.405 23.06 9.217 44.184 23.312 62.635 6.78 8.874 13.6 17.95 21.755 25.467 6.388 5.888 14.696 9.811 22.436 14.091 18.125 10.023 37.321 17.669 56.635 25.066 16.698 6.396 33.265 13.139 49.822 19.894 13.653 5.57 26.34 12.802 37.39 22.704 13.627 12.213 24.08 26.806 27.43 44.82 2.138 11.489.972 23.604 1.15 35.44.097 6.493.725 13.126-.332 19.454-1.76 10.53 3.026 18.476 7.87 26.95 4.433 7.753 11.56 11.128 19.175 13.552 5.205 1.656 10.973 2.079 16.496 2.116 28.666.196 57.333-.003 86 .137 11.774.058 23.545.8 35.32.912 17.202.165 34.407-.053 51.61.062 41.462.274 82.923.647 124.885.98"/></svg>