<?xml version="1.0" encoding="UTF-8" standalone="no"?>
<svg
   viewBox="0 0 1878 646"
   xml:space="preserve"
   version="1.1"
   id="svg3"
   sodipodi:docname="catalunya_1991_1994.svg"
   inkscape:version="1.4.3 (0d15f75, 2025-12-25)"
   xmlns:inkscape="http://www.inkscape.org/namespaces/inkscape"
   xmlns:sodipodi="http://sodipodi.sourceforge.net/DTD/sodipodi-0.dtd"
   xmlns="http://www.w3.org/2000/svg"
   xmlns:svg="http://www.w3.org/2000/svg"><defs
     id="defs3" /><sodipodi:namedview
     id="namedview3"
     pagecolor="#505050"
     bordercolor="#eeeeee"
     borderopacity="1"
     inkscape:showpageshadow="0"
     inkscape:pageopacity="0"
     inkscape:pagecheckerboard="0"
     inkscape:deskcolor="#505050"
     inkscape:zoom="0.9456869"
     inkscape:cx="1194.3699"
     inkscape:cy="407.6402"
     inkscape:window-width="1920"
     inkscape:window-height="1009"
     inkscape:window-x="2853"
     inkscape:window-y="2160"
     inkscape:window-maximized="1"
     inkscape:current-layer="svg3" /><path
     id="path1"
     d="M 282.11719 53.189453 C 267.54144 53.395328 252.97378 54.066578 238.42578 55.955078 C 221.71278 58.125078 205.66236 62.588328 190.06836 68.361328 C 176.98036 73.207328 164.52725 79.868313 152.03125 86.195312 C 139.46825 92.555313 126.60422 98.601438 114.94922 106.39844 C 99.130219 116.98044 86.002891 130.8598 73.962891 145.5918 C 64.218891 157.5128 54.603437 169.68573 48.273438 183.80273 C 43.194437 195.12873 38.633625 206.83016 35.390625 218.78516 C 33.230625 226.74916 32.936453 235.4885 33.314453 243.8125 C 34.028453 259.5605 34.581969 275.4982 37.542969 290.9082 C 40.240969 304.9482 45.248859 318.67933 54.005859 330.61133 C 61.668859 341.05133 68.488875 352.12861 76.421875 362.34961 C 85.867875 374.52161 98.901422 382.57659 112.35742 389.43359 C 128.72542 397.77559 145.54336 405.29062 162.44336 412.51562 C 177.88136 419.11562 193.79883 424.59159 209.29883 431.05859 C 220.15083 435.58659 230.81744 440.63162 241.27344 446.01562 C 255.94344 453.56963 265.49995 465.99931 272.00195 480.82031 C 275.29695 488.33231 275.22031 496.32108 274.32031 504.45508 C 273.62731 510.71508 274.96488 517.24816 273.92188 523.41016 C 270.84087 541.63716 274.14472 558.42967 283.76172 574.01367 C 295.75172 593.44367 314.43348 602.63072 336.14648 603.63672 C 368.53148 605.13672 401.01403 604.65381 433.45703 604.75781 C 483.44803 604.91681 533.44164 604.83164 583.43164 604.93164 C 588.72764 604.94164 594.02141 605.71266 599.31641 605.72266 C 604.62041 605.73266 609.92652 604.96762 615.22852 605.01562 C 623.36352 605.08763 631.49391 605.80108 639.62891 605.83008 C 676.87291 605.96108 714.11537 605.88744 751.35938 606.02344 C 763.37238 606.06844 775.38348 606.70944 787.39648 606.77344 C 860.82448 607.16644 934.25364 607.47378 1007.6816 607.80078 C 1015.2186 607.83378 1022.755 607.80445 1030.293 607.81445 C 1062.1203 607.85579 1093.9474 607.9006 1125.7754 607.94727 C 1127.2724 607.95027 1128.7706 608.02439 1130.2676 608.02539 C 1145.3256 608.03139 1160.3839 608.0293 1175.9609 608.0293 L 1175.9609 584.00195 C 1175.6709 583.92695 1175.4283 583.77597 1174.6543 583.29297 C 1142.0543 583.01197 1110.0337 582.98694 1078.0137 582.96094 C 1077.061 583.07486 1076.0376 583.1635 1074.9141 583.2168 C 1075.9728 583.15094 1076.9486 582.97099 1077.8398 582.63867 C 1077.4066 582.61192 1076.983 582.60652 1076.5723 582.61914 C 1075.3401 582.65702 1074.2135 582.86717 1073.2168 583.23242 C 1073.406 583.24213 1073.5818 583.23494 1073.7656 583.23828 C 1073.4152 583.24083 1073.1397 583.271 1072.75 583.25977 C 1052.314 582.71977 1032.5779 582.28606 1012.8379 582.16406 C 984.22889 581.98606 955.61686 582.03242 927.00586 581.98242 C 925.61386 582.32242 924.22113 582.95503 922.82812 582.95703 C 894.84012 583.01503 866.85128 583.01394 838.86328 582.96094 C 838.71078 582.96056 838.55979 582.95007 838.40625 582.93164 C 838.55889 582.9498 838.71078 582.95873 838.86328 582.95898 C 866.85128 583.01298 894.84013 583.01503 922.82812 582.95703 C 924.22113 582.95503 925.61497 582.32252 926.79297 581.60352 C 896.04597 581.23952 865.51175 581.25544 835.09375 581.64844 C 836.0935 582.17419 837.02781 582.64714 837.94727 582.85156 C 837.00466 582.64327 835.98226 582.15426 834.63477 581.56055 C 803.09377 581.06755 772.12616 581.13833 741.16016 580.98633 C 707.25316 580.81833 673.34645 580.3715 639.43945 580.1875 C 618.63345 580.0765 597.82553 580.23158 577.01953 580.26758 C 577.24622 582.47108 576.58353 583.60597 574.78906 583.93359 C 576.57068 583.60275 577.1721 582.45254 576.62305 580.17188 C 575.14505 580.13888 574.06342 580.20067 572.98242 580.26367 C 572.20676 580.37115 571.43129 580.47887 570.59766 580.53711 C 571.32837 580.45772 571.99949 580.33093 572.57422 580.18555 C 570.86158 580.15973 569.52266 580.2069 568.27734 580.54688 C 568.08729 580.53472 567.89394 580.51942 567.69531 580.5 C 565.79031 580.136 564.38542 580.19777 562.98242 580.25977 C 562.15809 580.74339 561.32474 581.58692 560.50781 581.8418 C 561.3132 581.58413 562.08164 580.72945 562.52344 580.17969 C 557.10315 580.15296 552.13268 580.20572 547.2832 580.61914 C 547.12057 580.59215 546.95866 580.56298 546.79492 580.53516 C 545.15692 580.13116 543.98164 580.19677 542.80664 580.25977 C 542.67322 580.34607 542.53989 580.43113 542.36719 580.47461 C 542.47832 580.4113 542.54875 580.30894 542.56055 580.18945 C 542.45905 580.18395 542.37233 580.18337 542.29883 580.18945 C 542.08902 580.20681 541.984 580.28192 541.92383 580.48633 C 541.84815 580.47439 541.76508 580.45634 541.67578 580.42969 C 541.01978 580.13869 540.68944 580.19989 540.27344 580.71289 C 541.13749 581.84249 542.04499 583.19562 542.98242 583.67773 C 542.03346 583.19402 541.0632 581.82914 539.87695 580.63477 C 537.37595 580.07277 535.18609 580.04077 532.99609 580.00977 C 532.39328 580.12567 531.77634 580.23595 530.96484 580.27734 C 531.68336 580.23998 532.31309 580.05561 532.87305 579.70703 C 532.6133 579.68178 532.36059 579.67575 532.11719 579.6875 C 531.38697 579.72275 530.73439 579.92242 530.18164 580.26367 C 530.44114 580.28454 530.68886 580.28998 530.92773 580.2793 C 530.56587 580.29655 530.17575 580.30396 529.71289 580.28516 C 514.71189 580.03416 500.35695 580.01414 486.00195 579.99414 C 484.94556 580.32732 483.88846 580.94806 482.83008 580.95508 C 483.88779 580.94745 484.94301 580.32761 485.7832 579.61914 C 469.3702 579.24814 453.17666 579.25281 437.09766 579.63281 C 437.73551 580.01848 438.33662 580.37203 438.92383 580.61719 C 438.27221 580.36252 437.55017 579.99041 436.63672 579.54688 C 406.73172 579.05788 377.39922 579.22109 348.07422 578.87109 C 340.64122 578.78309 332.98314 577.91409 325.86914 575.87109 C 317.58014 573.49009 309.85659 569.11258 305.55859 561.01758 C 301.18059 552.77058 296.48305 544.72686 298.62305 534.38086 C 299.91305 528.14086 298.31394 521.35531 299.08594 514.94531 C 301.09894 498.24431 300.93744 481.80809 293.52344 466.37109 C 284.44944 447.47709 270.94805 431.89984 252.24805 422.58984 C 232.13605 412.57784 210.94891 404.70258 190.12891 396.14258 C 178.53891 391.37758 166.63427 387.37583 155.07227 382.54883 C 146.85727 379.11883 138.68758 375.37767 131.01758 370.88867 C 120.69058 364.84567 110.54406 358.38492 100.91406 351.29492 C 91.788063 344.57592 86.85675 334.17625 80.34375 325.15625 C 64.94175 303.82325 58.929953 279.8475 58.876953 253.9375 C 58.849953 240.4675 58.526906 227.00034 63.003906 214.02734 C 64.895906 208.54334 66.419469 202.82719 69.105469 197.74219 C 75.794469 185.07719 83.754672 173.21433 92.888672 162.11133 C 104.08667 148.50133 116.14102 135.71227 131.16602 126.44727 C 144.42602 118.27227 158.29591 111.01041 172.25391 104.06641 C 183.45591 98.492406 194.93748 93.237859 206.77148 89.255859 C 217.15348 85.762859 228.12175 83.780797 238.96875 81.966797 C 250.08375 80.107797 261.34289 78.925422 272.58789 78.107422 C 278.80789 77.653422 285.12839 78.835109 291.40039 78.787109 C 305.87539 78.676109 320.34727 78.042625 334.82227 78.015625 C 389.98227 77.915625 445.14773 77.54 500.30273 78.125 C 536.46773 78.509 572.75958 75.131281 608.76758 80.238281 C 617.17358 81.430281 626.30828 84.359938 632.98828 89.335938 C 644.69528 98.055938 652.18273 110.62216 654.92773 125.28516 C 655.98373 130.92616 655.8238 136.81566 655.9668 142.59766 C 656.0278 145.03066 655.65747 147.53011 655.10547 149.91211 C 653.00047 158.99111 652.03173 168.63583 648.17773 176.92383 C 644.33773 185.18383 637.81742 192.28986 631.98242 199.50586 C 624.03342 209.33786 613.5927 216.45734 602.9707 222.90234 C 591.7547 229.70834 580.5578 236.52517 566.8418 238.57617 C 556.2908 240.15417 545.91688 242.139 535.17188 242.125 C 458.68087 242.02 382.18827 242.03833 305.69727 242.11133 C 298.25727 242.11833 290.79762 242.52884 283.39062 243.21484 C 280.42463 243.48884 277.49555 244.82586 274.68555 246.00586 C 261.58755 251.50286 252.74248 261.61459 246.14648 273.68359 C 241.47648 282.22859 238.41584 291.35211 237.96484 301.41211 C 237.50984 311.52911 242.43859 319.78917 246.43359 328.07617 C 251.55759 338.70517 260.72839 346.35764 270.52539 352.93164 C 283.47839 361.62464 296.4888 370.23563 309.4668 378.89062 C 324.9388 389.20863 340.22406 399.81797 355.91406 409.79297 C 378.24006 423.98597 400.8998 437.65602 423.3418 451.66602 C 440.8518 462.59802 458.6545 473.00364 477.6875 481.05664 A 265 265 0 0 0 504.95703 490.8457 C 512.52003 493.1077 520.36616 494.51648 528.16016 495.89648 C 535.39016 497.17548 542.711 498.71977 550 498.75977 C 596.66 499.01577 643.32242 498.75777 689.98242 499.00977 C 698.39442 499.05577 706.45645 497.50797 713.81445 494.29297 C 729.49945 487.43997 742.69981 477.07403 751.75781 462.20703 C 753.63181 459.13003 754.48264 455.43153 755.80664 452.01953 L 754.80664 451.57812 C 755.14193 451.7193 755.48541 451.83332 755.88867 451.75977 C 755.91767 451.32777 755.86608 451.154 755.58008 451 C 755.10778 451.17935 754.86612 451.34057 754.62695 451.5 L 754.62305 451.49805 C 754.86305 451.33905 755.10637 451.17977 755.73438 450.63477 C 756.73737 448.43877 757.84458 446.64045 757.89258 444.81445 C 758.31558 428.37745 758.56075 411.93609 758.84375 395.49609 C 758.92075 390.99809 758.949 386.49995 759 382.00195 C 759.066 381.35095 759.13055 380.70028 759.56055 379.61328 C 760.28055 376.78428 760.63619 374.39005 760.99219 371.99805 C 761.06419 371.34805 761.13527 370.70044 761.57227 369.64844 C 762.28827 367.82944 762.63828 366.41309 762.98828 364.99609 C 763.05754 364.67404 763.12741 364.35189 763.27148 364.00586 C 763.20214 364.31987 763.20547 364.61747 763.28125 364.88867 C 763.66986 364.25865 763.82169 363.71623 763.73828 363.19727 C 763.82294 363.084 763.9194 362.96632 764.02734 362.8457 C 764.76334 361.4347 764.88295 360.218 765.00195 359 C 765.06711 358.67619 765.13224 358.3529 765.27148 358.00781 C 765.20665 358.32153 765.21259 358.61864 765.29102 358.88867 C 765.66879 358.25816 765.81648 357.71678 765.73047 357.19922 C 765.81347 357.08762 765.90769 356.97183 766.01367 356.85352 C 767.15567 355.50952 767.51647 354.23027 768.23047 353.19727 C 775.99647 341.96727 783.88442 330.8225 791.60742 319.5625 C 802.12142 304.2315 812.46023 288.78094 822.99023 273.46094 C 830.53823 262.47894 838.34611 251.67508 845.91211 240.70508 C 856.14811 225.86608 866.08461 210.81984 876.47461 196.08984 C 888.76761 178.66084 901.01227 161.16831 914.07227 144.32031 C 920.07827 136.57331 927.09647 128.92778 935.23047 123.67578 C 946.88847 116.14678 960.7797 112.87259 974.3457 110.18359 C 989.1477 107.25059 1004.0121 108.91123 1018.6641 112.74023 C 1030.2611 115.77123 1041.988 118.31752 1053.707 120.85352 C 1064.958 123.28752 1076.3027 125.29333 1087.5527 127.73633 C 1102.5847 130.99933 1117.5473 134.57891 1132.5723 137.87891 C 1143.6613 140.31391 1154.7929 142.55641 1165.9199 144.81641 C 1176.2589 146.91541 1186.7075 148.55389 1196.9375 151.08789 C 1204.8715 153.05389 1213.1432 155.01036 1220.1602 158.94336 C 1227.2362 162.90836 1233.0805 169.15987 1239.2285 174.67188 C 1247.9725 182.51087 1252.6105 192.96898 1255.8945 203.83398 C 1260.1775 218.00798 1262.6283 232.79905 1271.6973 245.12305 C 1277.0113 252.34505 1281.2256 260.54839 1289.1016 265.52539 C 1301.4116 273.30439 1313.7317 281.07659 1326.2227 288.55859 C 1341.1847 297.52259 1356.3274 306.1858 1371.3984 314.9668 C 1392.3824 327.1928 1413.3593 339.43014 1434.3633 351.61914 C 1447.6593 359.33514 1461.0285 366.9212 1474.3125 374.6582 C 1488.8475 383.1232 1503.4491 391.48348 1517.7891 400.27148 C 1537.4381 412.31248 1556.8606 424.72503 1576.3926 436.95703 C 1589.0186 444.86503 1601.5789 452.88417 1614.3359 460.57617 C 1624.8409 466.91017 1635.2416 473.59964 1646.3516 478.68164 C 1654.2226 482.28364 1662.5335 485.36564 1672.0625 484.18164 C 1682.9455 482.83064 1692.9739 479.86384 1701.9609 473.83984 C 1710.0219 468.43784 1714.8031 460.09431 1720.3301 452.32031 C 1728.0101 441.51731 1730.7511 429.41888 1730.7461 416.79688 C 1730.7421 406.01987 1729.6068 395.10981 1727.6328 384.50781 C 1725.9648 375.55681 1723.0764 366.66234 1719.4824 358.27734 C 1713.0974 343.37534 1704.678 329.43666 1694.668 316.72266 C 1687.466 307.57466 1679.5365 298.67675 1670.5605 291.34375 C 1662.0475 284.38875 1651.9077 279.32723 1642.1797 273.99023 C 1636.3037 270.76623 1629.9511 268.31192 1623.6211 266.04492 C 1617.4161 263.82192 1610.985 262.22331 1604.625 260.44531 C 1598.077 258.61431 1591.4886 256.92514 1584.9336 255.11914 C 1577.3366 253.02514 1569.5568 251.39333 1562.2168 248.61133 C 1552.4788 244.92133 1542.9066 240.67605 1533.5996 235.99805 C 1523.5186 230.93105 1516.1472 222.86156 1510.8652 212.85156 C 1507.2652 206.02756 1506.2249 198.51852 1504.2129 191.22852 C 1501.6029 181.77452 1503.2428 172.90895 1506.0918 164.37695 C 1508.5608 156.98095 1512.9272 150.16122 1516.8672 143.32422 C 1525.6172 128.13522 1539.6949 121.24409 1556.4199 118.99609 C 1570.7749 117.06709 1584.1803 121.20023 1597.4473 125.99023 C 1606.8233 129.37623 1616.2362 132.66097 1625.6582 135.91797 C 1634.6102 139.01097 1643.6105 141.96759 1652.5645 145.05859 C 1665.8525 149.64759 1679.0964 154.36216 1692.3984 158.91016 C 1706.4584 163.71816 1720.5926 168.31225 1734.6406 173.15625 C 1745.6246 176.94325 1756.551 180.90406 1767.457 184.91406 C 1774.093 187.35306 1781.7763 188.63953 1786.9883 192.89453 C 1796.9683 201.04053 1805.9848 210.5323 1814.4668 220.2793 C 1818.4468 224.8553 1820.736 231.14152 1822.916 236.97852 C 1824.935 242.38352 1826.9566 248.221 1826.9766 253.875 C 1827.2376 329.866 1827.2656 405.85961 1827.0176 481.84961 C 1826.9796 493.53861 1824.3853 504.96731 1820.1953 516.07031 C 1815.2603 529.14031 1807.5935 540.46416 1799.8555 551.91016 C 1791.5755 564.15616 1780.0496 572.4433 1767.3066 578.6543 C 1757.4266 583.4693 1746.3583 585.84344 1735.0293 585.27344 C 1734.549 585.4942 1734.0694 585.71593 1733.4883 585.90234 C 1733.9744 585.70856 1734.3839 585.45852 1734.6895 585.17969 C 1733.5924 585.38377 1732.8195 585.67685 1732.2188 586.20898 C 1732.0565 586.23665 1731.8857 586.26113 1731.707 586.2832 C 1710.375 586.0392 1689.6909 586.01523 1669.0039 585.99023 C 1660.2139 585.99402 1651.4231 585.99647 1642.4883 585.88672 A 771 771 0 0 0 1668.7871 585.61328 A 771 771 0 0 0 1628.1758 585.60156 C 1627.6601 585.58683 1627.1441 585.5725 1626.627 585.55664 C 1619.062 585.09964 1612.0768 585.09094 1605.0918 585.08594 L 1406.0137 584.95312 C 1405.4741 585.05543 1404.8762 585.13849 1404.1895 585.19141 C 1404.8187 585.13086 1405.3811 584.96461 1405.877 584.66016 C 1405.6134 584.63598 1405.3572 584.63091 1405.1113 584.64258 C 1404.3738 584.67758 1403.7202 584.86998 1403.1699 585.20508 C 1403.2923 585.21467 1403.4039 585.20995 1403.5215 585.21289 C 1403.2443 585.21997 1403.0343 585.24948 1402.7031 585.23828 C 1361.3671 584.67828 1320.685 584.33709 1280.002 583.99609 C 1279.0753 584.28834 1278.1478 584.7981 1277.2207 584.92383 C 1278.1449 584.79293 1279.0477 584.24019 1279.7871 583.61719 C 1263.0381 583.24419 1246.5049 583.24891 1230.0879 583.62891 C 1230.7382 584.0173 1231.3516 584.36992 1231.9492 584.61328 C 1231.2892 584.36155 1230.5576 583.99313 1229.6309 583.55078 C 1228.2119 581.89278 1226.6897 580.71552 1226.6387 579.47852 C 1226.3867 573.38852 1226.5234 567.28148 1226.5234 561.14648 L 1206.4961 561.14648 L 1206.4961 626.14648 L 1226.5352 626.14648 L 1226.5352 609.03711 C 1227.7712 608.94911 1228.4204 608.85928 1229.0684 608.86328 C 1281.5004 609.17028 1333.9313 609.42941 1386.3633 609.81641 C 1419.1453 610.05841 1451.9279 610.72192 1484.7109 610.79492 C 1562.3619 610.96792 1640.0131 610.94272 1717.6641 610.88672 C 1728.1001 610.87872 1738.6193 610.91997 1748.9453 609.66797 C 1757.9373 608.57797 1767.0043 606.48175 1775.4863 603.34375 C 1782.0473 600.91575 1787.809 596.2748 1793.832 592.4668 C 1807.067 584.0998 1816.9955 572.33556 1825.7715 559.72656 C 1832.7545 549.69456 1838.596 539.00688 1843.416 527.54688 C 1849.984 511.93387 1852.6237 495.78019 1852.7188 479.36719 C 1853.1418 406.88319 1852.6671 334.39611 1853.0371 261.91211 C 1853.1381 242.03811 1846.4444 224.79833 1836.9414 207.98633 C 1828.3014 192.70133 1815.5199 181.42266 1801.5469 171.72266 C 1789.2909 163.21266 1774.3162 160.13644 1760.3652 155.14844 C 1746.4962 150.18944 1732.4181 145.81972 1718.4941 141.01172 C 1709.4851 137.90072 1700.6308 134.34903 1691.6328 131.20703 C 1682.0628 127.86503 1672.4051 124.77627 1662.7871 121.57227 C 1651.2781 117.73927 1639.7718 113.89341 1628.2598 110.06641 C 1616.8808 106.28341 1605.3301 102.94028 1594.1621 98.613281 C 1584.4221 94.840281 1574.5633 92.682453 1564.1953 93.189453 C 1559.4743 93.420453 1554.7566 94.219703 1550.0996 95.095703 C 1543.1226 96.409703 1535.7366 96.944844 1529.3496 99.714844 C 1514.4816 106.16584 1503.2113 117.32841 1494.2812 130.69141 C 1485.9693 143.12541 1480.3666 156.45195 1478.7266 171.75195 C 1477.3766 184.33995 1478.5963 196.58169 1481.7383 208.30469 C 1484.3073 217.88569 1489.1169 226.92175 1495.4199 235.34375 C 1505.6499 249.01375 1518.6979 257.86978 1534.1309 263.92578 C 1545.0919 268.22578 1556.0323 272.6327 1567.1973 276.3457 C 1577.1873 279.6677 1587.482 282.07036 1597.623 284.94336 C 1605.676 287.22436 1613.8395 289.22031 1621.6895 292.07031 C 1627.1275 294.04431 1632.0835 297.3253 1637.3125 299.9043 C 1649.8405 306.0823 1660.709 314.38617 1669.252 325.45117 C 1674.412 332.13417 1679.3823 339.02366 1683.7793 346.22266 C 1688.6343 354.17266 1693.4591 362.28695 1696.9551 370.87695 C 1700.2271 378.91595 1702.4973 387.55553 1703.8203 396.14453 C 1705.1463 404.74053 1705.2804 413.62294 1704.9004 422.33594 C 1704.7044 426.84594 1703.0019 431.69623 1700.6719 435.61523 C 1697.0259 441.74423 1692.2684 447.21294 1687.9824 452.96094 C 1687.7134 453.20891 1687.443 453.45532 1687.1113 453.68164 C 1687.3609 453.46421 1687.5542 453.2237 1687.6719 452.99023 C 1686.9527 453.33102 1686.5104 453.64349 1686.2207 454.15039 C 1686.0887 454.20197 1685.9483 454.25199 1685.7969 454.29688 C 1678.2569 457.79988 1671.0743 460.48569 1662.9863 458.05469 C 1662.5854 457.99714 1662.1845 457.9397 1661.6895 457.7793 C 1662.1207 457.89626 1662.5247 457.88915 1662.8848 457.75 C 1662.4416 457.51375 1662.0387 457.39622 1661.6602 457.39062 C 1661.433 457.38727 1661.215 457.42425 1661.002 457.5 C 1661.0626 457.53246 1661.1236 457.56364 1661.1836 457.5918 C 1661.0159 457.52163 1660.8364 457.43848 1660.6445 457.3418 C 1656.9665 455.6388 1653.4152 454.81258 1650.4512 453.01758 C 1639.8322 446.58458 1629.4522 439.76308 1618.9082 433.20508 C 1602.8952 423.24608 1586.8053 413.40961 1570.7773 403.47461 C 1558.8473 396.07961 1547.0591 388.45484 1535.0371 381.21484 C 1519.3371 371.76184 1503.4869 362.55873 1487.6699 353.30273 C 1468.5929 342.14173 1449.4646 331.06834 1430.3906 319.90234 C 1407.5956 306.55734 1384.8669 293.09987 1362.0469 279.79688 C 1348.1779 271.70987 1334.0463 264.06214 1320.3203 255.74414 C 1313.1873 251.42314 1305.804 246.91805 1300.082 240.99805 C 1290.203 230.77705 1285.5692 217.43719 1281.9922 203.86719 C 1278.5312 190.73619 1274.3547 178.10122 1265.9688 166.94922 C 1251.8868 148.22422 1235.0397 133.95331 1211.5137 128.94531 C 1201.8387 126.88631 1192.2065 124.62464 1182.5605 122.43164 C 1167.5175 119.01164 1152.4976 115.48987 1137.4316 112.17188 C 1126.9586 109.86487 1116.4058 107.91839 1105.9238 105.65039 C 1093.2198 102.90139 1080.5703 99.898109 1067.8633 97.162109 C 1054.8253 94.352109 1041.7385 91.772672 1028.6895 89.013672 C 1021.3795 87.468672 1014.1165 84.478109 1006.8105 84.412109 C 993.49755 84.291109 979.99664 82.074703 966.80664 86.095703 C 956.59264 89.208703 946.23047 91.854563 936.10547 95.226562 C 930.68747 97.029562 925.06653 99.152609 920.51953 102.47461 C 906.03653 113.05561 894.55859 126.68973 884.18359 141.17773 C 872.22859 157.87273 860.69617 174.87175 848.95117 191.71875 C 831.16217 217.23475 813.28031 242.68877 795.57031 268.25977 C 785.27031 283.13077 775.03286 298.0505 765.13086 313.1875 C 756.32086 326.6525 744.44452 338.37258 740.22852 354.51758 C 737.43952 365.19858 734.1357 375.98467 733.3457 386.88867 C 732.1817 402.96967 733.17189 419.20028 732.96289 435.36328 C 732.91489 439.03728 731.98719 442.77166 730.99219 446.34766 C 728.99419 453.53166 723.44192 458.20797 717.91992 462.41797 C 709.60292 468.75897 700.77287 473.477 689.42188 473.375 C 641.59488 472.941 593.76155 473.40789 545.93555 472.96289 C 536.05455 472.87189 525.80588 471.53431 516.42188 468.57031 C 502.17087 464.06831 488.18866 458.34008 474.72266 451.83008 C 461.61566 445.49308 449.12769 437.80136 436.67969 430.19336 C 417.47069 418.45136 398.49242 406.32967 379.48242 394.26367 A 4574 4574 0 0 1 335.13086 365.73633 C 325.84686 359.69233 316.70519 353.42744 307.49219 347.27344 C 294.86419 338.83944 281.0495 331.74702 271.4375 319.66602 C 267.6925 314.95802 265.29089 308.51177 264.21289 302.50977 C 262.65389 293.83177 267.24703 286.55034 272.45703 279.77734 C 276.56003 274.44234 281.1188 270.00256 287.9668 268.60156 C 288.28031 268.41796 288.59267 268.23531 288.98633 268.08203 C 288.67017 268.24603 288.41867 268.46204 288.25586 268.71289 C 289.01087 268.55839 289.4935 268.30185 289.83398 267.83789 C 289.96013 267.81292 290.09403 267.79034 290.23633 267.77148 C 291.49533 267.89448 292.23656 267.82105 292.97656 267.74805 C 293.43747 267.52619 293.89845 267.30531 294.45117 267.11523 C 293.99299 267.31343 293.60622 267.56065 293.31641 267.83203 C 294.3975 267.61066 295.16218 267.30834 295.75195 266.77734 C 295.91948 266.74691 296.09592 266.71958 296.28125 266.69531 C 382.03125 266.90531 467.13242 266.90013 552.23242 266.82812 C 554.81442 266.82613 557.39652 266.13853 559.97852 265.76953 C 560.46938 265.52326 560.9609 265.27581 561.54102 265.06836 C 561.04482 265.28226 560.62872 265.55392 560.32227 265.85156 C 561.40999 265.61039 562.17235 265.2911 562.75977 264.73438 C 562.88141 264.71049 563.00849 264.6881 563.13867 264.66797 C 564.09367 264.81997 564.5317 264.74397 564.9707 264.66797 C 565.26895 264.47892 565.56839 264.29007 565.94141 264.12891 C 565.64895 264.30084 565.41605 264.5175 565.26562 264.75977 C 566.00831 264.57961 566.48125 264.31596 566.8125 263.85156 C 566.95012 263.82133 567.09833 263.79429 567.25586 263.77148 C 568.86186 263.90048 569.91952 263.82209 570.97852 263.74609 C 571.79187 263.34945 572.6054 262.95326 573.51172 262.5918 C 572.69939 262.96226 571.96408 263.3833 571.33008 263.82617 C 573.03002 263.3027 574.41508 262.70775 575.60938 261.88867 C 575.81007 261.83415 576.01636 261.78265 576.22852 261.73242 C 578.56452 261.89442 580.26961 261.81914 581.97461 261.74414 C 582.3836 261.43727 582.79177 261.13093 583.30078 260.82227 C 582.87505 261.13986 582.54101 261.46926 582.29297 261.82031 C 583.30124 261.32248 584.05289 260.7609 584.53125 260.17969 C 584.6978 260.10509 584.87313 260.02997 585.06055 259.95508 C 597.36355 253.83808 609.30222 248.31219 620.44922 241.49219 C 637.69122 230.94119 651.92266 217.20516 663.47266 200.28516 C 671.79366 188.09516 676.49359 175.02833 678.93359 160.86133 C 679.98759 154.74033 679.80456 148.38503 681.10156 142.33203 C 683.82756 129.61503 679.01016 118.0407 675.66016 106.4707 C 673.59716 99.344703 669.08777 92.667875 664.63477 86.546875 C 655.20277 73.580875 643.55805 63.499578 627.49805 58.892578 C 617.21105 55.942578 606.95359 53.258187 596.30859 53.242188 C 506.15759 53.109187 416.00647 53.070703 325.85547 53.220703 C 311.27747 53.244703 296.69294 52.983578 282.11719 53.189453 z M 577.56445 258.79297 L 576.90625 259.68359 C 576.91088 259.59281 576.92438 259.51229 576.94727 259.43945 C 577.20533 259.27537 577.38613 259.03451 577.56445 258.79297 z M 761.48438 370.01367 C 761.13638 370.69967 761.06406 371.35062 761.28906 371.89062 L 761.29102 371.89062 C 761.64602 371.17962 761.70437 370.57767 761.48438 370.01367 z M 759.47461 380.01172 C 759.13161 380.69972 759.06583 381.35153 759.29883 381.89453 C 759.64883 381.18253 759.70061 380.57872 759.47461 380.01172 z M 439.52344 580.82617 C 439.5397 580.83062 439.55601 580.83757 439.57227 580.8418 C 439.5566 580.83778 439.53916 580.8304 439.52344 580.82617 z M 684.5 583.16797 L 686.50977 584.29492 C 686.38462 584.31746 686.26511 584.33364 686.14844 584.34766 C 685.68196 583.8713 685.09976 583.51049 684.5 583.16797 z M 1175.3125 583.32227 C 1175.2424 583.32328 1175.1774 583.33753 1175.1191 583.36328 C 1175.4291 583.77528 1175.6709 583.92689 1176.0039 583.71289 C 1175.7752 583.43539 1175.5227 583.31922 1175.3125 583.32227 z M 683.79883 584.12305 C 683.99125 584.17346 684.19209 584.21358 684.38867 584.25977 C 684.18825 584.21775 683.99107 584.17331 683.79883 584.12305 z M 1232.5195 584.81055 C 1232.5378 584.81553 1232.5559 584.82342 1232.5742 584.82812 C 1232.5567 584.82367 1232.5372 584.81525 1232.5195 584.81055 z M 1082.4082 586.33789 L 1079.9473 586.98242 C 1079.8035 586.98247 1079.6612 586.98237 1079.5176 586.98242 C 1080.7742 586.76618 1081.591 586.55215 1082.4082 586.33789 z M 1724.7207 589.03711 C 1724.7784 589.05551 1724.8313 589.07337 1724.8828 589.0918 C 1724.5601 589.27642 1724.3765 589.45998 1724.2188 589.64453 L 1724.7207 589.03711 z M 1638.2168 607.05469 C 1638.2069 607.09445 1638.1946 607.13277 1638.1816 607.17188 C 1637.1163 607.31123 1636.296 607.50431 1635.4766 607.69727 L 1636.2363 609.25195 L 1635.4746 607.69727 L 1635.4766 607.69727 L 1638.2168 607.05469 z M 1661.7715 608.99609 L 1672.3652 608.99805 L 1661.7969 608.99805 C 1661.7884 608.99743 1661.7799 608.99671 1661.7715 608.99609 z "
     style="fill:#ffffff;fill-opacity:1" /></svg>
