<svg xmlns="http://www.w3.org/2000/svg" viewBox="0 0 1881 641" xml:space="preserve"><path fill="#fff" d="M1812.967 571.007c-10.745 11.4-23.358 20.087-37.163 26.076-9.515 4.128-20.584 6.335-30.995 6.465-69.433.867-138.876 1.094-208.316 1.21-32.606.055-65.212-.667-97.82-.918-50.94-.392-101.88-.633-152.82-1.05-12.775-.104-25.546-.695-38.321-.94-7.17-.138-14.344-.025-22.008-.025 0 2.988-.1 5.604.02 8.21.269 5.808-.478 6.823-6.258 6.679-4.424-.11-8.837-.71-13.641-1.125v-53.342h19.818v12.535c5.274.488 10.169 1.289 15.07 1.331 18.166.156 36.335-.067 54.5.097 19.941.18 39.88.897 59.82.92 90.232.104 180.464-.009 270.695.09 18.107.02 36.212.747 54.32.92 17.414.165 34.84.41 52.242-.071 17.002-.47 33.18-3.854 47.774-13.806 12.663-8.635 21.223-20.445 29.425-32.84 8.198-12.39 13.347-26.012 16.193-40.48 1.359-6.908 2.541-13.993 2.56-21.002.186-70.333-.114-140.668.303-210.998.084-14.237-3.993-26.733-10.078-39.122-6.471-13.174-16.595-23.284-28.18-31.43-7.59-5.336-17.083-8.107-25.936-11.468-9.326-3.54-18.913-6.384-28.368-9.587-11.226-3.802-22.449-7.617-33.643-11.512-9.835-3.421-19.61-7.016-29.446-10.43-9.301-3.23-18.644-6.336-27.976-9.473-11.036-3.709-22.09-7.365-33.12-11.095-11.623-3.93-23.074-8.494-34.905-11.634-5.61-1.489-12.138-1.302-17.874-.091-7.844 1.655-16.42 1.81-23.02 7.464-5.342 4.577-11.595 8.533-15.628 14.084-4.937 6.794-9.07 14.63-11.525 22.636-2.31 7.537-2.85 15.909-2.591 23.862.28 8.608 2.122 17.358 6.985 24.748 3.748 5.696 8.116 11.096 12.854 16.003 9.144 9.47 21.825 12.583 33.562 17.098 9.72 3.74 19.884 6.357 29.908 9.273 11.715 3.408 23.622 6.208 35.196 10.027 7.493 2.472 14.618 6.135 21.772 9.55 15.739 7.51 29.867 17.35 41.43 30.479 3.57 4.052 6.038 9.06 9.156 13.53 1.725 2.474 4.096 4.54 5.58 7.131 7.324 12.781 15.947 25.088 21.27 38.676 7.06 18.024 10.728 37.28 8.922 56.897-1.38 14.996-7.29 28.308-16.737 40.233-7.45 9.405-16.48 16.783-27.707 20.095-9.067 2.675-18.54 4.002-28.579 1.719-15.075-3.429-27.293-11.675-39.898-19.667-24.527-15.55-49.16-30.935-73.8-46.303-13.471-8.402-26.947-16.805-40.608-24.89-15.7-9.29-31.63-18.186-47.416-27.33-13.674-7.923-27.266-15.987-40.93-23.928-23.07-13.41-46.197-26.724-69.246-40.173-14.756-8.611-29.428-17.366-44.11-26.104a8252 8252 0 0 1-39.623-23.726c-9.57-5.767-19.066-11.656-28.63-17.433-20.908-12.632-41.885-25.152-62.745-37.864-14.122-8.606-28.031-17.561-42.148-26.176-15.638-9.543-31.377-18.922-47.124-28.286-10.231-6.083-20.575-11.977-30.834-18.016-11.888-6.998-25.158-9.361-38.439-11.963-16.19-3.172-32.175-2.693-47.805 2.295-10.604 3.385-21.236 7.128-31.11 12.172-5.246 2.68-9.43 8.065-13.175 12.935-9.803 12.751-19.204 25.816-28.573 38.894-11.508 16.062-22.932 32.187-34.186 48.428-12.03 17.362-23.77 34.925-35.725 52.34-17.051 24.84-34.593 49.358-51.016 74.605-4.56 7.011-6.617 15.947-8.58 24.292-4.7 19.977-1.485 40.369-1.991 60.57-.285 11.361-4.185 21.03-10.604 29.924-8.811 12.206-20.882 20.59-34.241 26.88-5.156 2.428-11.383 3.537-17.136 3.585-37.331.308-74.666.072-111.999.203-13.73.048-27.458.784-41.189.829-4.2.014-8.431-1.09-12.602-1.919-16.685-3.312-32.922-7.863-48.778-14.333-20.976-8.559-40.332-19.808-59.426-31.758-22.156-13.866-44.66-27.179-66.735-41.17-16.478-10.442-32.492-21.615-48.754-32.398-13.452-8.92-27.538-17.002-40.286-26.827-11.92-9.186-21.093-20.725-26.411-35.662-5.353-15.037-1.236-27.984 5.025-40.754 6.518-13.295 16.41-23.907 30.464-29.611 4.443-1.804 9.482-2.86 14.275-2.956 17.357-.345 34.726-.008 52.089-.17 20.541-.19 41.08-.92 61.62-.892 26.274.035 52.547.67 78.821.899 16.876.147 33.757-.16 50.63.095 10.8.162 21.196-1.958 31.774-3.671 19.343-3.132 34.434-14.017 49.922-24.578 13.447-9.169 23.825-21.217 31.074-35.45 4.295-8.432 6.91-18.088 8.387-27.49 1.615-10.285 1.54-20.995-1.825-31.154-1.433-4.322-3.517-8.536-5.952-12.39-2.83-4.483-5.96-8.926-9.679-12.672-12.353-12.443-28.305-14.779-44.832-14.99-10.165-.129-20.333-.023-30.5-.023-97.541 0-195.082-.052-292.624.069-11.408.014-22.801 1.021-33.974 3.733-9.139 2.217-18.651 3.356-27.41 6.575-13.443 4.94-26.612 10.79-39.47 17.12-12.535 6.173-24.895 12.87-36.65 20.402-9.052 5.799-17.604 12.531-24.882 20.718-10.964 12.332-21.664 24.828-30.05 39.123-5.393 9.191-9.184 18.918-12.595 29.098-5.641 16.838-3.762 33.823-3.25 50.638.43 14.095 3.534 28.51 10.68 40.933 10.233 17.788 20.05 36.339 37.59 48.371 9.183 6.3 19.346 11.171 29.08 16.665 17.607 9.936 36.776 16.06 55.612 23.058 13.159 4.888 26.116 10.395 38.877 16.25 10.5 4.817 21.026 9.855 30.708 16.089 8.395 5.404 15.837 12.542 21.075 21.253 5.284 8.785 11.155 17.605 14.216 27.222 2.66 8.355 2.318 17.847 2.289 26.833-.047 13.97-3.022 28.267-.86 41.803 1.822 11.396 8.44 22.288 20.928 27.48 7.73 3.215 15.39 5.088 23.827 5.015 29.164-.254 58.332-.098 87.499-.098 9.413 0 18.826-.06 28.239.01 41.309.31 82.617.761 123.927.968 81.606.408 163.213.661 244.82 1.061 8.974.044 17.944.733 26.92.898 2.93.054 5.878-.923 8.81-.884 16.941.225 33.882.559 50.82.973 7.505.183 15.004.953 22.502.904 13.106-.085 26.21-.919 39.314-.875 63.94.213 127.88.612 191.82.945.817.004 1.633 0 2.822 0v26.264c-1.354.135-2.613.338-3.876.37-2.332.058-4.667.025-7 .015-75.94-.332-151.88-.67-227.82-.998-78.94-.34-157.88-.676-236.82-.994-13.206-.053-26.414.075-39.62-.023-38.94-.29-77.879-.733-116.82-.966-66.94-.4-133.88-.609-200.82-1.09-11.725-.084-22.602-3.719-33.105-9.117-19.962-10.261-28.744-28.065-33.376-48.52-1.2-5.297.205-11.186.435-16.802.034-.824.266-1.642.267-2.463.018-12.876.38-25.768-.184-38.62-.2-4.567-1.915-9.474-4.241-13.467-6.844-11.746-15.39-21.72-27.496-28.995-15.034-9.035-31.547-14.178-47.498-20.8-24.608-10.218-49.815-18.902-73.434-31.581-14.167-7.606-28.148-15.14-39.674-26.492-11.904-11.724-20.159-26.142-29.179-39.994-9.754-14.98-13.412-32.134-17.063-49.15-1.817-8.465-2.853-17.52-1.93-26.06 1.647-15.248 1.05-30.555 6.06-45.778 6.908-20.992 17.472-39.314 31.173-56.166 7.495-9.22 15.112-18.379 23.246-27.027 4.471-4.755 9.98-8.596 15.276-12.501 21.601-15.925 45.853-27.084 70.187-37.89 13.182-5.853 27.078-10.136 40.767-14.79 3.976-1.352 8.328-1.721 12.545-2.22 7.188-.848 14.404-2.028 21.611-2.057 111.273-.459 222.547-.652 333.82-1.19 18.413-.088 35.76 3.311 52.6 10.704 6.79 2.982 10.853 8.548 15.826 13.274 7.394 7.027 13.57 15.11 17.601 24.542 2.286 5.347 3.915 10.99 5.6 16.573.937 3.105 2.034 6.38 1.933 9.542-.38 11.92-.276 23.974-2.122 35.699-2.509 15.931-8.874 30.654-19.52 43.051-7.447 8.67-14.533 18.024-23.41 24.997-11.303 8.878-24.149 15.833-36.542 23.262-4.993 2.994-10.362 5.64-15.896 7.372-6.038 1.891-12.437 2.723-18.73 3.679-5.999.911-12.064 1.96-18.102 1.97-82 .129-164 .117-246 .06-15.382-.01-26.63 6.981-32.89 20.608-5.105 11.115-3.822 21.824 5.583 32.487 10.349 11.732 24.05 18.766 36.717 27.27 16.337 10.967 32.581 22.082 49.103 32.766 17.498 11.316 35.257 22.232 52.936 33.268 14.888 9.294 29.513 19.07 44.83 27.598 14.205 7.908 28.807 15.007 44.186 20.82 14.01 5.295 28.542 6.888 42.757 10.451 1.415.355 2.986.106 4.485.107 46.5.003 93-.157 139.499.122 10.722.065 19.443-4.33 27.487-10.238 7.3-5.361 13.781-11.854 15.65-21.41.316-1.613.424-3.288.428-4.934.03-15.667-.86-31.399.305-46.979.88-11.796 3.554-23.634 6.884-35.03 4.98-17.045 17.137-30.134 26.877-44.511 7.477-11.037 15.098-21.976 22.72-32.914 16.82-24.14 33.728-48.218 50.509-72.385 11.27-16.23 22.202-32.697 33.625-48.818 8.888-12.544 17.517-25.413 27.689-36.87 11.14-12.55 25.059-21.96 41.39-26.967 7.786-2.387 15.856-3.835 23.674-6.126 13.737-4.025 27.726-1.373 41.578-1.727 6.086-.156 12.195 2.583 18.355 2.932 12.408.705 23.112 6.264 33.944 11.25 7.758 3.572 14.929 8.435 22.3 12.826 15.634 9.315 31.261 18.641 46.828 28.069 12.376 7.495 24.622 15.204 36.99 22.713 11.188 6.792 22.511 13.361 33.683 20.179 9.386 5.727 18.568 11.787 27.965 17.494 20.972 12.735 42.028 25.333 63.038 38.007 7.446 4.491 14.796 9.145 22.298 13.54 16.794 9.835 33.69 19.5 50.484 29.336 20.467 11.988 40.817 24.179 61.323 36.1 18.629 10.83 37.43 21.363 56.094 32.133 11.256 6.495 22.511 13.005 33.565 19.835 23.29 14.39 46.423 29.037 69.668 43.502 21.742 13.53 43.44 27.139 65.365 40.369 12.128 7.318 25.195 8.395 36.414-.892 7.428-6.149 13.595-14.375 15.422-24.609.86-4.819 1.698-9.683 1.962-14.558.559-10.308-1.847-20.231-4.769-30.017-8.212-27.507-23.82-50.455-44.553-69.855-5.751-5.382-13.42-8.749-20.32-12.852-3.642-2.166-7.35-4.455-11.33-5.767-10.22-3.367-20.605-6.236-30.932-9.274-6.587-1.937-13.236-3.673-19.773-5.762-9.26-2.959-18.616-5.73-27.62-9.355-14.734-5.93-29.7-11.646-41.44-23.01-11.047-10.691-19.357-23.369-22.823-38.272-3.611-15.525-4.904-31.137-.91-47.354 5.223-21.203 16.835-37.965 32.716-51.578 11.565-9.912 26.178-14.708 41.762-15.37 3.111-.132 6.211-.602 9.31-.977 9.928-1.202 19.308 1.313 28.552 4.387 13.741 4.57 27.402 9.382 41.118 14.03 21.344 7.233 42.742 14.31 64.046 21.66 11.697 4.035 23.203 8.62 34.876 12.726 14.58 5.128 29.309 9.84 43.848 15.08 8.475 3.056 17.486 5.6 24.899 10.448 22.784 14.901 39.028 35.503 47.458 61.51 2.789 8.602 4.367 17.989 4.41 27.026.346 72.998.3 146 .056 218.999-.029 8.803-2.01 17.593-2.96 26.403-1.212 11.216-5.829 21.453-10.49 31.345-4.718 10.014-11.558 19.064-17.818 28.3-3.033 4.474-6.864 8.406-10.452 12.924"/></svg>