<?xml version="1.0" encoding="UTF-8" standalone="no"?>
<svg
   viewBox="0 0 2007 1062"
   xml:space="preserve"
   version="1.1"
   id="svg1"
   sodipodi:docname="charade.svg"
   inkscape:version="1.4.3 (0d15f75, 2025-12-25)"
   xmlns:inkscape="http://www.inkscape.org/namespaces/inkscape"
   xmlns:sodipodi="http://sodipodi.sourceforge.net/DTD/sodipodi-0.dtd"
   xmlns="http://www.w3.org/2000/svg"
   xmlns:svg="http://www.w3.org/2000/svg"><defs
     id="defs1" /><sodipodi:namedview
     id="namedview1"
     pagecolor="#505050"
     bordercolor="#eeeeee"
     borderopacity="1"
     inkscape:showpageshadow="0"
     inkscape:pageopacity="0"
     inkscape:pagecheckerboard="0"
     inkscape:deskcolor="#505050"
     inkscape:zoom="1.0746425"
     inkscape:cx="430.37568"
     inkscape:cy="659.28901"
     inkscape:window-width="1920"
     inkscape:window-height="1009"
     inkscape:window-x="2853"
     inkscape:window-y="2160"
     inkscape:window-maximized="1"
     inkscape:current-layer="svg1" /><path
     fill="#ffffff"
     d="m 403.738,906.246 c -6.014,-6.944 -12.024,-13.426 -15.684,-21.67 -2.94,-6.622 -1.857,-13.114 -0.338,-19.798 1.548,-6.811 6.514,-11.278 10.54,-16.376 1.04,-1.316 2.998,-2.25 4.7,-2.644 9.356,-2.168 18.422,-3.338 28.372,-1.12 7.15,1.595 14.293,2.781 21.166,5.52 6.419,2.559 13.027,4.638 19.528,6.994 12.06,4.37 24.138,8.697 36.141,13.22 6.405,2.414 12.61,5.36 19.012,7.783 13.594,5.146 27.29,10.024 40.883,15.172 8.85,3.353 17.449,7.44 26.435,10.351 6.853,2.22 14.148,3.063 21.229,4.6 15.597,3.384 31.422,1.268 47.12,2.078 10.845,0.56 21.749,1.315 32.445,3.077 12.997,2.14 25.869,5.17 38.676,8.3 12.605,3.08 24.99,7.066 37.619,10.032 4.632,1.087 9.72,0.815 14.535,0.402 7.008,-0.6 14.27,-0.937 20.862,-3.097 11.05,-3.622 21.637,-8.646 32.458,-12.981 10.098,-4.045 20.263,-7.923 30.37,-11.946 13.228,-5.265 19.51,-14.058 20.5,-27.896 0.466,-6.522 -1.399,-13.143 1.863,-19.57 6.002,-11.83 15.12,-18.171 28.558,-18.498 5.723,-0.139 11.446,-1.936 17.127,-1.745 8.012,0.27 15.984,1.69 23.973,2.614 6.37,0.737 12.722,1.792 19.113,2.14 15.864,0.865 31.746,1.858 47.62,1.82 5.142,-0.011 10.31,-2.97 15.409,-4.745 7.012,-2.441 13.954,-5.085 20.957,-7.554 7.182,-2.533 14.273,-5.477 21.638,-7.294 7.928,-1.955 16.084,-3.47 24.217,-4.002 14.223,-0.93 27.18,-5.556 39.889,-11.476 7.17,-3.34 14.24,-7.603 21.825,-9.143 7.407,-1.504 14.864,-3.408 23.254,-1.33 8.757,2.168 18.628,1.491 27.748,0.2 18.293,-2.592 33.84,-12.045 48.865,-22.243 12.783,-8.676 25.896,-16.927 38.172,-26.274 14.634,-11.14 28.716,-23.032 42.698,-34.996 15.147,-12.962 29.553,-26.847 46.344,-37.738 8.134,-5.276 16.49,-10.408 25.292,-14.399 7.65,-3.468 16.066,-5.25 24.149,-7.759 9.45,-2.933 18.86,-6.005 28.372,-8.72 7.015,-2.002 14.186,-3.45 21.251,-5.284 14.066,-3.652 28.14,-7.284 42.147,-11.151 9.955,-2.749 19.763,-6.03 29.72,-8.774 8.13,-2.24 16.3,-5.045 24.607,-5.736 7.747,-0.644 15.734,0.912 23.55,1.98 6.276,0.857 12.437,2.522 18.678,3.668 9.174,1.685 18.35,3.385 27.57,4.778 6.642,1.004 13.372,1.414 20.039,2.277 9.588,1.242 19.127,3.486 28.734,3.788 12.272,0.385 24.603,-0.539 36.883,-1.298 5.804,-0.359 11.623,-1.323 17.304,-2.598 7.273,-1.632 14.43,-3.796 21.606,-5.838 8.078,-2.299 16.22,-4.435 24.14,-7.198 4.217,-1.472 8.057,-4.062 12.013,-6.245 11.898,-6.565 21.006,-16.252 29.723,-26.428 6.35,-7.411 13.29,-14.333 19.391,-21.934 3.766,-4.691 6.497,-10.222 9.615,-15.423 5.887,-9.818 11.934,-19.55 17.525,-29.537 9.671,-17.276 18.943,-34.776 28.584,-52.07 5.188,-9.304 10.76,-18.397 16.225,-27.546 6.125,-10.252 13.274,-20.027 18.202,-30.819 4.119,-9.018 6.725,-19.06 8.076,-28.914 1.346,-9.815 0.667,-19.977 0.185,-29.954 -0.437,-9.016 -1.809,-17.988 -2.762,-26.98 -0.07,-0.658 -0.083,-1.322 -0.128,-1.984 -0.667,-9.856 -0.568,-19.841 -2.198,-29.536 -2.014,-11.981 -5.642,-23.682 -8.237,-35.577 -2.124,-9.733 -6.797,-18.025 -13.718,-24.927 -3.91,-3.899 -8.408,-7.378 -13.117,-10.272 -9.518,-5.849 -19.167,-11.55 -29.119,-16.61 -11.502,-5.848 -23.197,-11.472 -36.379,-12.688 -6.363,-0.588 -12.726,-1.956 -19.069,-1.843 -14.715,0.262 -29.487,0.553 -44.104,2.088 -11.67,1.226 -23.078,4.78 -34.727,6.422 -10.186,1.435 -20.055,3.68 -29.127,8.398 -11.59,6.028 -23.197,12.139 -34.19,19.164 -13.47,8.609 -26.53,17.909 -39.331,27.493 -6.272,4.695 -11.353,10.946 -17.33,16.076 -13.046,11.197 -21.554,25.975 -31.714,39.447 -9.27,12.292 -18.097,24.934 -27.736,36.925 -5.442,6.77 -12.712,11.646 -22.133,9.716 -6.221,-1.275 -12.17,-3.834 -18.358,-5.33 -6.178,-1.493 -12.464,-2.737 -18.775,-3.447 -10.142,-1.14 -19.293,3.084 -28.732,5.909 -15.055,4.505 -30.264,8.893 -46.233,6.841 -3.905,-0.501 -8.378,-2.164 -11.16,-4.8 -9.205,-8.723 -18.475,-17.569 -26.276,-27.501 -4.395,-5.597 -7.437,-12.429 -8.773,-20.363 -1.399,-8.305 -0.154,-15.872 0.444,-23.804 0.525,-6.972 -1.665,-13.4 -5.056,-19.579 -5.9,-10.753 -11.27,-21.796 -17.084,-32.598 -4.724,-8.776 -9.205,-17.767 -14.837,-25.945 -5.686,-8.26 -12.489,-8.658 -20.145,-2.368 -9.457,7.77 -19.945,13.665 -30.426,19.844 -7.88,4.645 -15.638,6.274 -23.989,5.12 -10.488,-1.45 -20.107,-4.023 -28.208,-12.876 -8.212,-8.975 -11.53,-20.23 -18.253,-29.696 -3.213,-4.524 -5.868,-9.446 -9.11,-13.947 -2.764,-3.837 -13.435,-4.293 -18.83,-0.672 -11.9613,8.03413 -23.8252,16.21239 -35.589,24.533 -10.128,7.156 -21.13,12.352 -32.527,17.261 -13.841,5.963 -28.18,5.376 -42.477,6.573 -2.779,0.233 -5.55,0.973 -8.312,0.917 -6.983,-0.14 -13.973,-1.049 -20.935,-0.832 -12.131,0.379 -23.781,-2.049 -34.365,-7.357 -9.365,-4.697 -16.76,-12.62 -19.57,-23 -1.91,-7.057 -2.067,-14.72 -2.102,-22.116 -0.03,-6.35 0.869,-12.774 2.054,-19.033 0.61,-3.22 2.072,-6.798 4.3,-9.1 9.95,-10.281 20.351,-20.121 30.504,-30.207 3.236,-3.214 6.543,-6.447 9.223,-10.108 4.36,-5.956 -0.974,-17.694 -8.359,-17.906 -2.574,-0.074 -6.05,2.213 -7.707,4.46 -5.812,7.875 -10.86,16.308 -16.513,24.307 -2.37,3.353 -5.52,6.156 -8.327,9.199 -6.96,7.544 -13.666,15.345 -20.949,22.564 -12.203,12.098 -26.943,19.667 -43.991,22.125 -11.965,1.725 -24.045,2.642 -36.045,4.147 -3.21,0.403 -6.29,1.762 -9.476,2.472 -14.347,3.197 -28.789,6.01 -43.047,9.56 -13.007,3.24 -26.092,6.251 -38.22,12.483 -9.861,5.068 -20.71,8.357 -30.167,14.027 -7.447,4.464 -13.438,11.356 -20.076,17.17 -6.95,6.086 -13.538,12.657 -20.924,18.157 -15.058,11.213 -30.37,22.11 -45.93,32.614 -8.008,5.406 -16.815,9.62 -25.185,14.5 -5.57,3.25 -10.759,7.256 -16.564,9.97 -7.452,3.483 -15.335,6.055 -23.064,8.934 -5.292,1.97 -10.585,3.966 -15.982,5.609 -2.474,0.753 -5.195,0.904 -7.81,0.948 -8.33,0.141 -16.681,0.457 -24.989,0.029 -7.19,-0.37 -14.348,-1.561 -21.493,-2.574 -8.251,-1.169 -16.464,-2.605 -24.71,-3.806 -7.797,-1.135 -15.634,-2.006 -23.42,-3.2 -7.1,-1.088 -14.156,-2.458 -21.234,-3.688 -0.813,-0.142 -1.646,-0.166 -2.465,-0.281 -11.177,-1.577 -22.346,-3.217 -33.533,-4.718 -6.51,-0.874 -13.067,-1.415 -19.574,-2.311 -6.81,-0.938 -13.581,-2.152 -20.378,-3.192 -8.42112,-1.29296 -16.84786,-2.54897 -25.28,-3.768 -8.916,-1.284 -17.844,-2.495 -26.767,-3.738 -0.655,-0.091 -1.31,-0.19 -1.967,-0.266 -14.332,-1.675 -28.899,-2.278 -42.926,-5.348 -12.001,-2.627 -23.027,-8.698 -30.971,-18.84 -11.335,-14.47 -22.16,-29.365 -34.017,-43.391 -8.45,-9.997 -19.004,-18.39 -30.895,-23.58 -9.145,-3.993 -19.827,-5.592 -30.086,-3.604 -8.537,1.656 -17.397,3.376 -25.126,7.112 -16.071,7.77 -31.149,17.71 -37.729,35.343 -2.573,6.896 -2.134,15.165 -1.92,22.777 0.181,6.466 1.799,12.932 3.177,19.312 1.187,5.491 2.731,10.928 4.475,16.272 3.373,10.334 7.073,20.56 10.5,30.878 4.726,14.232 9.28,28.52 13.99,42.758 5.14,15.53 10.478,30.995 15.53,46.554 3.33,10.26 6.198,20.67 9.472,30.95 3.46,10.86 7.319,21.592 10.7,32.474 3.316,10.675 6.068,21.527 9.407,32.195 3.055,9.76 6.527,19.391 9.88,29.056 6.305,18.173 12.552,36.366 19.027,54.479 4.259,11.915 9.032,23.646 13.283,35.563 4.094,11.477 7.71,23.123 11.736,34.625 2.289,6.538 5.144,12.878 7.447,19.412 2.996,8.502 5.316,17.258 8.62,25.632 4.399,11.144 2.327,22.593 1.528,33.712 -0.829,11.54 -7.012,21.515 -14.43,30.53 -9.739,11.833 -22.041,20.593 -34.466,29.184 -2.4,1.66 -5.694,2.07 -8.618,2.912 -2.162,0.624 -4.392,1.012 -7.274,1.658 l -3.565,-20.538 c 18.527,-6.657 32.05,-19.277 42.735,-35.103 6.303,-9.336 7.105,-20.413 4.587,-30.718 -3.498,-14.314 -9.06,-28.126 -13.793,-42.134 -3.818,-11.303 -7.58,-22.626 -11.626,-33.848 -2.62,-7.268 -5.818,-14.327 -8.549,-21.559 -2.564,-6.792 -4.808,-13.704 -7.276,-20.533 -3.544,-9.807 -7.211,-19.57 -10.736,-29.385 -2.51845,-7.00002 -4.9503,-14.03089 -7.295,-21.091 -3.602,-10.87 -7.009,-21.803 -10.647,-32.66 -4.658,-13.896 -9.64,-27.686 -14.161,-41.626 -6.08,-18.742 -11.905,-37.568 -17.74,-56.388 -3.25,-10.482 -6.135,-21.079 -9.484,-31.528 -4.032,-12.584 -8.465,-25.038 -12.57,-37.6 -3.917,-11.982 -7.631,-24.032 -11.443,-36.049 -2.334,-7.359 -5.023,-14.626 -6.94,-22.091 -2.338,-9.105 -3.866,-18.415 -6.053,-27.562 -2.454,-10.265 -1.344,-20.454 0.123,-30.647 1.649,-11.456 7.895,-21.156 14.655,-29.728 5.696,-7.222 14.433,-12.13 22.08,-17.71 10.8,-7.88 23.214,-12.055 36.158,-14.838 14.554,-3.129 28.918,-2.482 43.37,1.163 13.632,3.439 23.738,12.282 34.4,20.52 15.689,12.119 25.419,29.105 37.051,44.54 6.817,9.046 14.45,17.068 25.468,20.906 3.492,1.217 7.107,2.324 10.755,2.8 9.589,1.255 19.257,1.911 28.838,3.218 12.594,1.718 25.121,3.926 37.704,5.737 8.432,1.215 16.931,1.969 25.365,3.176 12.922,1.85 25.79,4.087 38.726,5.833 12.008,1.621 24.098,2.63 36.105,4.263 7.567,1.03 15.016,2.905 22.57,4.055 13.56,2.063 27.148,3.939 40.743,5.751 8.93,1.191 18.056,1.422 26.798,3.393 8.339,1.88 16.15,0.065 23.78,-1.833 9.147,-2.275 18.175,-5.634 26.688,-9.707 11.5187,-5.50616 22.72474,-11.64382 33.567,-18.385 15.59409,-9.71323 30.90702,-19.87072 45.92,-30.46 8.02,-5.654 15.706,-12.032 22.558,-19.045 15.367,-15.726 32.105,-29.232 52.951,-36.981 13.897,-5.166 27.6,-10.996 41.785,-15.197 13.035,-3.861 26.623,-5.828 39.919,-8.843 8.844,-2.006 17.534,-4.744 26.425,-6.473 5.628,-1.094 11.495,-1.098 17.264,-1.305 16.651,-0.597 31.935,-5.269 45.42,-15.174 2.785,-2.047 5.142,-4.722 7.512,-7.28 5.027,-5.424 9.665,-11.235 14.947,-16.392 9.57,-9.342 17.127,-20.052 24.306,-31.295 3.737,-5.852 9.559,-12.191 15.756,-14.158 6.694,-2.125 15.183,-2.871 22.455,1.82 6.563,4.233 13.468,8.231 16.677,15.62 5.682,13.083 4.64,25.746 -5.44,36.428 -7.84,8.31 -16.5,15.84 -24.633,23.88 -4.229,4.182 -8.43,8.475 -11.999,13.204 -1.724,2.283 -2.538,5.65 -2.747,8.598 -0.411,5.82 -0.214,11.694 -0.086,17.541 0.157,7.174 6.16,15.605 13.226,16.978 11.177,2.173 22.552,4.873 33.808,4.723 15.159,-0.203 30.507,-1.831 45.344,-4.919 9.166,-1.908 18.052,-6.834 26.134,-11.89 12.19,-7.626 23.506,-16.637 35.308,-24.894 11.368,-7.954 23.976,-12.247 37.847,-9.676 6.626,1.228 13.714,2.415 17.807,9.631 6.785,11.963 15.054,23.134 21.227,35.38 7.288,14.457 23.667,16.59 35.395,9.22 8.83,-5.55 16.897,-12.359 25.902,-17.576 9.83,-5.696 20.343,-10.934 32.193,-5.786 8.646,3.757 15,10.331 19.518,18.522 6.613,11.992 12.97,24.125 19.472,36.178 4.75,8.806 10.042,17.362 14.148,26.456 2.222,4.922 3.167,10.703 3.432,16.158 0.376,7.736 -0.874,15.547 -0.55,23.29 0.273,6.537 2.486,12.68 7.317,17.606 6.596,6.725 13,13.637 19.6,20.358 0.8,0.815 2.274,1.206 3.487,1.342 12.388,1.392 23.952,-2.562 35.46,-6.076 12.209,-3.728 24.307,-8.504 37.251,-6.704 10.735,1.492 21.338,4.233 31.827,7.059 4.054,1.093 6.913,1.064 9.52,-2.33 8.102,-10.556 16.321,-21.022 24.383,-31.609 10.02,-13.16 18.897,-27.37 30.119,-39.399 18.777,-20.13 41.553,-35.644 64.441,-50.82 16.064,-10.651 32.836,-20.028 50.931,-26.631 7.717,-2.816 16.116,-3.824 24.256,-5.395 6.393,-1.233 12.863,-2.073 19.3,-3.079 6.452,-1.007 12.879,-2.604 19.362,-2.882 15.928,-0.683 31.887,-0.611 47.825,-1.116 15.74,-0.498 30.47,3.332 44.5,10.034 13.08,6.247 26.421,12.138 38.82,19.568 14.194,8.504 27.615,18.475 35.267,33.943 6.79,13.722 11.674,28.08 13.042,43.485 0.419,4.714 1.476,9.37 1.982,14.08 1.734,16.141 3.34,32.297 5.024,48.443 0.596,5.707 1.92,11.418 1.788,17.102 -0.267,11.577 -0.644,23.222 -2.158,34.684 -2.63,19.923 -13.966,36.199 -23.635,53.16 -11.24,19.719 -21.924,39.754 -33.133,59.49 -6.541,11.519 -13.642,22.72 -20.481,34.07 -6.786,11.261 -13.192,22.775 -20.465,33.713 -5.092,7.657 -11.252,14.622 -17.139,21.727 -6.029,7.276 -11.884,14.775 -18.603,21.375 -5.9045,5.79093 -12.4054,10.94062 -19.394,15.363 -6.643,4.198 -13.955,7.56 -21.34,10.302 -8.933,3.317 -18.226,5.685 -27.41,8.302 -7.948,2.265 -15.925,4.45 -23.957,6.389 -4.746,1.145 -9.6,2.27 -14.447,2.489 -13.59,0.615 -27.244,1.558 -40.793,0.849 -12.506,-0.655 -24.906,-3.288 -37.355,-5.04 -11.165,-1.57 -22.354,-2.988 -33.492,-4.731 -8.359,-1.308 -16.71,-2.774 -24.965,-4.615 -14.977,-3.339 -29.313,-1.396 -43.616,3.704 -8.967,3.197 -18.318,5.318 -27.502,7.904 -12.759,3.592 -25.488,7.292 -38.293,10.71 -9.865,2.633 -19.89,4.676 -29.728,7.4 -9.01,2.495 -17.774,5.89 -26.809,8.273 -10.324,2.724 -20.237,6.404 -29.412,11.755 -6.004,3.501 -11.697,7.633 -17.145,11.966 -11.283,8.974 -22.346,18.225 -33.431,27.444 -12.934,10.756 -25.3,22.269 -38.802,32.248 -20.144,14.886 -40.689,29.31 -61.81,42.758 -11.216,7.14 -23.292,13.803 -36.739,15.985 -14.08,2.285 -28.29,3.983 -42.604,0.654 -7.355,-1.71 -14.15,1.518 -20.822,4.193 -12.429,4.983 -24.695,10.404 -37.272,14.977 -4.963,1.804 -10.553,2.019 -15.895,2.617 -7.82,0.876 -15.756,0.967 -23.482,2.315 -4.983,0.869 -9.674,3.398 -14.504,5.164 -9.674,3.537 -19.334,7.118 -29.04,10.57 -5.151,1.831 -10.3,4.47 -15.602,4.912 -10.66,0.887 -21.427,0.62 -32.149,0.596 -2.733,-0.006 -5.447,-1.077 -8.2,-1.327 -8.68,-0.786 -17.383,-1.337 -26.063,-2.126 -9.956,-0.905 -19.891,-2.65 -29.847,-2.739 -7.563,-0.067 -15.476,0.945 -22.545,3.433 -2.583,0.909 -3.727,7.35 -4.528,11.462 -0.751,3.856 0.086,7.99 -0.24,11.965 -1.14,13.855 -8.21,25.104 -19.694,31.527 -15.006,8.395 -31.378,14.366 -47.23,21.224 -9.765,4.224 -19.563,8.41 -29.54,12.09 -3.721,1.371 -7.98,1.355 -12.014,1.794 -7.347,0.8 -14.697,1.868 -22.068,2.083 -8.676,0.253 -17.057,-1.311 -25.414,-4.27 -9.435,-3.34 -19.39,-5.255 -29.173,-7.558 -9.778,-2.3 -19.575,-4.581 -29.455,-6.364 -7.24,-1.307 -14.61,-1.99 -21.952,-2.6 -10.18,-0.844 -20.38,-1.524 -30.585,-1.96 -7.185,-0.306 -14.394,-0.053 -21.592,-0.115 -10.884,-0.095 -21.188,-2.8 -31.34,-6.591 -12.57,-4.695 -25.356,-8.812 -37.95,-13.449 -14.868,-5.474 -29.618,-11.268 -44.44,-16.867 -19.528,-7.375 -39.126,-14.566 -58.594,-22.095 -9.295,-3.595 -18.61,-6.839 -28.694,-6.876 -2.923,-0.011 -5.881,0.396 -8.763,0.936 -3.04,0.57 -5.448,5.575 -3.729,9.223 2.179,4.626 4.882,9.19 8.205,13.053 7.75,9.01 15.727,17.866 24.138,26.259 8.703,8.684 17.867,16.93 27.172,24.973 2.868,2.48 6.711,4.092 10.366,5.353 11.339,3.914 19.662,11.633 26.468,20.993 5.239,7.205 5.332,15.276 0.89,23.048 -5.277,9.235 -12.63,16.561 -23.888,15.74 -7.544,-0.55 -15.352,-2.443 -20.975,-9.091 -4.717,-5.577 -10.244,-10.479 -15.502,-15.587 -9.112,-8.854 -20.247,-14.567 -32.236,-17.754 -14.71,-3.91 -29.797,-6.455 -44.787,-9.236 -10.723,-1.99 -21.542,-4.53 -32.343,-4.648 -6.692,-0.074 -14.741,2.326 -19.82,6.493 -6.68,5.484 -11.527,13.486 -16.275,20.969 -6.157,9.703 -10.748,20.441 -17.28,29.855 -7.585,10.934 -18.114,18.595 -31.245,22.35 -10.927,3.123 -22.201,4.782 -33.012,1.702 -12.661,-3.608 -24.897,-8.46 -33.949,-19.434 -10.543,-12.782 -16.535,-27.47 -20.108,-43.154 -1.736,-7.617 -1.243,-15.802 -1.277,-23.731 -0.039,-8.923 -3.041,-15.683 -10.79,-20.847 -12.428,-8.281 -25.768,-14.556 -39.26,-20.813 -18.803,-8.719 -37.196,-18.355 -55.495,-28.103 -5.323,-2.836 -10.097,-7.012 -14.472,-11.247 -7.664,-7.42 -15.117,-15.108 -22.085,-23.178 -4.128,-4.78 -3.93,-10.873 -3.59,-17.202 0.823,-15.34 10.842,-22.356 23.298,-26.812 6.017,-2.153 12.797,-2.451 19.281,-2.962 15.626,-1.23 31.294,-1.928 46.922,-3.14 19.164,-1.486 38.3,-3.33 57.458,-4.912 8.06,-0.666 16.144,-1.059 24.418,-1.589 l -1.225,-13.435 19.797,-2.172 5.09,47.942 -19.811,2.228 c -0.56,-4.538 -1.08,-8.767 -1.612,-13.087 -6.204,0.3 -12.108,0.406 -17.978,0.913 -9.17,0.792 -18.31,1.945 -27.477,2.785 -15.238,1.397 -30.486,2.696 -45.736,3.965 -2.483,0.206 -5.007,-0.091 -7.496,0.078 -14.157,0.958 -28.338,1.709 -42.44,3.206 -3.175,0.337 -7.365,2.666 -8.781,5.312 -2.14,4.001 -1.602,8.769 2.648,12.331 10.072,8.442 19.206,18.277 30.144,25.34 11.948,7.717 25.405,13.153 38.377,19.212 20.667,9.654 42.095,18.047 59.737,32.928 4.433,3.739 6.705,10.178 9.598,15.575 5.246,9.785 2.016,20.52 3.136,30.773 1.215,11.122 5.373,21.326 10.2,31.46 5.829,12.237 16.724,18.134 28.131,20.704 13.315,2.999 26.47,-0.18 37.228,-10.742 9.836,-9.656 13.92,-22.455 20.82,-33.687 6.88,-11.196 13.945,-22.526 25.502,-29.096 14.089,-8.01 29.328,-11.846 45.867,-7.288 7.061,1.946 14.567,2.23 21.824,3.53 5.878,1.052 11.686,2.493 17.526,3.761 7.973,1.732 15.77222,3.7167 23.41073,6.50018 8.1675,2.97624 13.31871,5.89525 21.75223,10.75862 9.01373,5.64118 17.08414,10.48301 26.5725,17.86838 3.382,3.598 7.68754,6.11382 11.52954,9.17582 1.986,1.583 4.94,2.148 7.555,2.604 0.637,0.111 2.141,-1.91 2.42,-3.14 0.743,-3.272 0.93151,-3.94977 -1.04501,-7.92499 -7.49113,-6.74806 -11.89347,-9.15054 -18.86982,-12.09319 -9.07198,-5.57594 -15.77636,-9.95045 -22.46936,-16.34245 -11.406,-10.891 -23.30381,-19.93837 -34.19581,-31.36837 -1.498,-1.57 -3.06,-3.078 -4.845,-4.866"
     id="path1"
     sodipodi:nodetypes="cssccccccccscccccccccccccsccscccssccsccscsscccccccccssscccccccccscscscscscscccccsssccccccccccccscccssccccccccscccssccccsccccccsscccccccccccccccccccccccccccccccccccsccccccccccccccccccccccccccccccccccsccccccscccccsccccccccccsccccscccscscccccccssccscscccccssccsccccsscccccccsccssccccscscssccscccscscccsccscscsscccccscccccccccccccccccscssccccccccccccccccccccccccccccscccsccccscscccccsccsccsscccccc" /></svg>
