<svg xmlns="http://www.w3.org/2000/svg" viewBox="0 0 1721 1175" xml:space="preserve"><path fill="#fff" d="M1061.865 915.719c11.467-12.358 22.68-24.46 33.909-36.547 2.03-2.185 4.444-4.087 6.122-6.507 4.999-7.207 13.042-9.331 20.385-12.541 7.928-3.466 16.032-6.533 24.086-9.704 9.141-3.6 18.566-6.601 27.372-10.88 4.951-2.406 9.661-6.25 13.146-10.532 6.949-8.538 15.755-11.7 25.893-9.589 4.418.92 8.493 4.8 12.096 8.036 6.468 5.808 12.462 12.144 19.193 18.792 10.867-13.175 20.998-25.711 31.416-38.004 7.713-9.102 15.857-17.838 23.707-26.825 15.69-17.962 31.36-35.941 46.944-53.994 11.589-13.424 22.986-27.014 34.546-40.462 16.768-19.507 33.609-38.951 50.413-58.427a68207 68207 0 0 0 37.68-43.7c14.367-16.679 28.703-33.382 43.084-50.047 14.98-17.36 30.01-34.676 44.993-52.031 16.696-19.339 33.362-38.704 50.047-58.052 14.652-16.991 29.316-33.973 43.968-50.965 4.076-4.727 8.639-9.134 12.076-14.29 5.386-8.079 9.504-16.864 10.104-26.84.387-6.43.892-12.861.986-19.297.284-19.462-7.964-35.122-22.103-47.914-6.19-5.6-12.291-11.512-19.263-15.989-12.061-7.744-24.633-14.732-37.26-21.539-7.01-3.778-14.5-6.701-21.89-9.73-8.616-3.532-17.402-6.648-26.032-10.146-10.116-4.1-20.597-6.533-31.37-8.206-8.482-1.317-16.807-3.637-25.21-5.473-9.814-2.143-19.647-4.2-29.453-6.379-8.2-1.823-16.344-3.902-24.564-5.625-9.224-1.933-18.503-3.601-27.76-5.37-6.37-1.216-12.7-2.832-19.128-3.522-13.78-1.481-27.543-5.08-41.472-.54-6.799 2.216-9.07 6.22-4.783 12.203 5.418 7.562 11.731 14.549 18.166 21.3 9.737 10.216 19.9 20.027 29.903 29.987 8.026 7.99 16.12 15.912 24.12 23.927 13.559 13.584 26.939 27.348 40.64 40.785 9.496 9.312 19.007 18.685 29.245 27.143 10.083 8.331 14.711 19.768 20.035 30.9 4.344 9.08 2.018 18.834 1.626 28.245-.267 6.404-1.83 12.876-3.664 19.066-3.33 11.248-7.704 21.935-16.846 30.174-5.823 5.25-10.6 11.64-16.11 17.262-6.687 6.825-15.792 9.425-24.25 13.075-9.754 4.209-19.621 8.155-29.401 12.306-17.658 7.493-35.288 15.052-52.925 22.596-.728.312-1.4.753-2.417 1.308l5.998 15.005-18.415 7.603-21.357-51.848 18.329-7.647 5.37 12.247c16.303-7.073 32.328-14.119 48.432-20.981 11.587-4.938 23.004-10.515 34.987-14.22 16.954-5.242 27.948-17.366 37.364-30.866 5.664-8.121 7.662-18.36 8.629-28.555.966-10.188-.854-19.508-6.112-28.208-.826-1.368-1.62-2.845-2.76-3.92-9.56-9.02-19.36-17.792-28.765-26.968-8.6-8.39-16.687-17.302-25.2-25.784-12.765-12.718-25.792-25.175-38.548-37.902-15.34-15.306-30.662-30.638-45.682-46.257-5.325-5.537-10.618-11.455-14.349-18.086-4.635-8.238-7.158-18.462-4-27.033 3.192-8.664 8.733-16.632 20.134-19.588 12.06-3.126 23.843-6.163 36.215-4.932 11.368 1.131 22.688 2.986 33.938 5.028 16.757 3.043 33.453 6.43 50.134 9.87 9.196 1.897 18.27 4.389 27.468 6.279 11.75 2.413 23.577 4.44 35.351 6.738 4.449.868 8.977 1.639 13.235 3.121 19.453 6.773 38.761 13.96 58.24 20.654 16.693 5.737 30.592 16.448 45.69 25.01 8.85 5.02 17.608 10.338 25.777 16.375 5.096 3.766 9.247 8.925 13.405 13.814 5.296 6.228 10.817 12.423 15.016 19.372 3.173 5.253 4.65 11.6 6.46 17.586 1.358 4.49 2.65 9.15 2.905 13.793.465 8.519.45 17.094.068 25.62-.446 9.967-2.922 19.448-6.48 28.903-5.11 13.579-14.399 23.823-23.639 34.382-10.742 12.277-20.983 24.991-31.594 37.384-7.607 8.883-15.535 17.49-23.195 26.328-11.778 13.59-23.408 27.31-35.177 40.908-11.9 13.75-23.961 27.36-35.827 41.138-10.433 12.116-20.645 24.423-31.046 36.566-9.518 11.111-19.183 22.096-28.74 33.175-13.784 15.98-27.518 32.006-41.296 47.993-11.216 13.015-22.5 25.973-33.69 39.01-13.633 15.878-27.124 31.878-40.82 47.702-10.057 11.621-20.476 22.93-30.491 34.586-10.308 11.997-20.245 24.31-30.492 36.36-5.6 6.583-11.55 12.866-17.264 19.354a7629 7629 0 0 0-30.063 34.35c-3.052 3.509-6.742 4.803-11.411 5.586-11.69 1.96-19.636-3.615-26.917-11.388-3.837-4.097-7.715-8.157-11.522-12.281-2.137-2.315-4.076-2.23-6.326-.067-3.748 3.602-7.236 7.721-11.591 10.383-5.729 3.502-12.121 5.97-18.354 8.582-10.093 4.231-20.26 8.29-30.45 12.28-5.705 2.234-11.908 3.499-17.165 6.475-4.326 2.449-7.766 6.606-11.287 10.303-8.713 9.147-17.192 18.517-25.868 27.7-13.534 14.327-27.181 28.547-40.728 42.863-10.123 10.698-20.174 21.464-30.235 32.221-13.947 14.914-27.843 29.876-41.817 44.764-11.549 12.305-23.18 24.531-34.772 36.796-11.467 12.133-22.401 24.831-34.529 36.264-14.89 14.036-29.93 28.193-46.5 40.076-12.863 9.224-28.592 12.674-44.9 8.6-3.453-.863-7.1-1.157-10.397-2.402-5.071-1.914-10.015-4.235-14.83-6.737-4.456-2.316-9.054-4.628-12.904-7.778-6.121-5.009-11.794-10.59-17.434-16.154-7.393-7.291-14.641-14.732-21.821-22.234-8.815-9.209-17.389-18.65-26.26-27.804-10.377-10.71-21.07-21.114-31.425-31.846-9.768-10.125-19.195-20.578-28.923-30.742-6.766-7.07-13.848-13.834-20.677-20.844-6.127-6.29-12.074-12.756-18.148-19.098a5763 5763 0 0 0-24.656-25.589c-12.06-12.437-24.164-24.831-36.23-37.263-10.21-10.52-20.37-21.087-30.59-31.595-13.696-14.08-27.467-28.087-41.13-42.199-6.74-6.962-13.392-14.013-19.908-21.183-2.284-2.513-3.898-3.037-6.79-.625-7.522 6.272-15.355 12.173-23.088 18.19-.607.473-1.398.978-2.117.999-8.22.234-16.714 1.126-24.243-2.711-3.85-1.962-6.812-5.83-9.892-9.103-11.616-12.348-23.082-24.836-34.667-37.213-10.98-11.73-22.16-23.275-33.03-35.106-11.025-12-21.588-24.43-32.702-36.346-11.597-12.436-23.678-24.42-35.42-36.723-9.717-10.18-19.21-20.572-28.879-30.798-3.987-4.218-3.551-9.685-4.27-14.725-2.218-15.532-3.442-31.239-6.433-46.61-1.034-5.317-5.69-10.205-9.43-14.67-13.653-16.304-27.56-32.397-41.488-48.469-8.31-9.59-16.98-18.873-25.231-28.513-12.037-14.062-23.76-28.392-35.77-42.478-13.008-15.255-26.222-30.336-39.29-45.54-9.578-11.146-19.385-22.119-28.434-33.681-3.605-4.605-4.916-10.944-8.204-15.87-5.76-8.628-5.01-18.095-4.832-27.575.102-5.406 2.093-9.814 7.222-12.4 4.834-2.439 9.37-5.778 14.463-7.32 7.512-2.276 15.24-1.026 22.736 1.267 8.649 2.646 17.34 5.15 25.994 7.781 9.114 2.77 18.196 5.647 27.31 8.42 5.247 1.596 10.555 2.996 15.79 4.63 6.366 1.988 9.667-2.41 13.06-6.28 7.906-9.019 15.675-18.158 23.43-27.308 12.456-14.697 24.605-29.664 37.374-44.082 7.606-8.588 15.216-17.697 24.516-24.124 11.026-7.622 23.396-13.8 37.562-14.378 3.707-.151 7.406-1.866 11.06-1.711 7.358.313 14.768.957 22.006 2.286 17.742 3.26 34.17 10.684 51.019 16.774 10.323 3.732 20.762 7.14 31.087 10.869 13.6 4.91 27.157 9.942 40.698 15.014 14 5.243 28.27 9.484 43.206 10.823 11.154 1 18.165-6.306 21.41-15.801 3.385-9.91 6.808-19.807 10.223-29.707 4.25-12.313 8.516-24.62 12.757-36.937 2.62-7.606 5.243-15.21 7.796-22.837 3.433-10.258 6.792-20.54 10.199-30.807 3.202-9.65 6.443-19.289 9.634-28.944 3.492-10.567 6.906-21.16 10.43-31.717 2.299-6.89 4.648-13.765 7.128-20.592 4.079-11.23 8.728-22.276 12.295-33.664 3.068-9.791 10.59-11.678 19.04-12.928 9.06-1.34 16.828 3.25 25.087 5.442 6.19 1.642 12.037 4.541 18.184 6.395 10.788 3.254 21.728 6.002 32.532 9.203 16.691 4.945 33.358 9.978 49.965 15.195 11.244 3.532 22.34 7.536 33.562 11.141 4.454 1.431 9.114 2.208 13.602 3.548 6.781 2.024 13.475 4.34 20.24 6.422 8.473 2.608 17.098 4.775 25.44 7.742a308 308 0 0 1 25.846 10.539c19.755 9.123 33.9 25.446 49.605 39.675 17.052 15.447 33.868 31.18 50.246 47.336 14.182 13.99 28.088 28.325 41.22 43.294 10.641 12.131 20.609 24.989 29.61 38.374 5.638 8.384 8.903 18.357 13.287 27.59 8.127 17.122 4.85 35.098 3.987 52.887-.15 3.103-.673 6.188-.982 9.285-1.011 10.118-1.83 20.258-3.062 30.348-.827 6.782-2.385 13.473-3.32 20.246-.786 5.68-1.516 11.413-1.603 17.133-.128 8.44-.916 17.158.837 25.269 2.706 12.526 10.387 23.065 16.571 34.213 7.233 13.037 19.062 21.398 29.149 31.5 9.36 9.375 20.02 17.461 29.276 26.928 5.844 5.977 13.042 8.691 20.322 11.125 9.17 3.065 18.718 5.132 28.234 6.938 2.928.555 6.332-.99 9.438-1.86q14.702-4.124 29.336-8.484c12.653-3.772 25.332-7.47 37.888-11.54 10.27-3.329 20.33-7.302 30.572-10.723 10.66-3.56 21.472-6.664 32.13-10.227 7.75-2.592 15.36-5.607 23.572-8.633 3.225 7.86 6.528 15.909 10.155 24.744-8.407 3-16.407 5.994-24.5 8.71-10.405 3.491-20.877 6.781-31.334 10.114-5.379 1.715-10.792 3.32-16.182 5.001-8.453 2.636-16.888 5.326-25.35 7.932-8.89 2.738-17.799 5.417-26.707 8.099-8.947 2.694-17.844 5.587-26.874 7.971-7.483 1.976-15.074 4.231-22.718 4.693-6.19.374-12.498-2.148-18.812-2.66-13.125-1.064-24.254-7.846-36.075-12.454-4.744-1.85-8.317-6.844-12.26-10.578-14.735-13.953-28.994-28.44-44.234-41.814-10.62-9.32-16.822-21.52-24.044-32.979-5.815-9.223-9.496-19.794-14.065-29.794-.324-.709-.213-1.64-.213-2.468-.002-14-.317-28.01.174-41.994.209-5.942 2.223-11.807 3.221-17.74 1.294-7.693 2.815-15.383 3.484-23.14 1.302-15.105 1.86-30.275 3.151-45.382.842-9.852-2.345-18.473-5.74-27.468-4.337-11.487-10.971-21.37-18.422-30.754-8.952-11.275-18.245-22.318-27.98-32.92-11.61-12.645-23.563-25.007-35.88-36.964-16.96-16.466-34.328-32.516-51.67-48.585-7.899-7.319-15.788-14.739-24.37-21.197-5.869-4.415-12.651-7.967-19.523-10.613-9.593-3.694-19.656-6.168-29.508-9.194-5.528-1.698-11.026-3.488-16.555-5.18-14.024-4.293-28.078-8.492-42.084-12.844-15.854-4.925-31.632-10.098-47.512-14.935-13.743-4.186-27.632-7.892-41.36-12.121-8.408-2.59-16.618-5.818-24.95-8.662a242 242 0 0 0-13.312-4.15c-3.234-.9-5.556.103-6.719 3.602-3.134 9.432-6.419 18.814-9.677 28.204-5.077 14.627-10.316 29.2-15.231 43.88-4.098 12.238-7.71 24.637-11.755 36.892-5.21 15.786-10.526 31.54-16.017 47.23-3.377 9.648-7.403 19.07-10.717 28.739-5.585 16.296-10.864 32.697-16.215 49.073-2.254 6.9-7.867 10.872-12.744 15.684-11.794 11.638-26.786 11.18-40.713 9.042-15.458-2.372-30.46-8.146-45.436-13.118-19.426-6.448-38.665-13.47-57.918-20.429-14.688-5.308-29.11-11.412-43.966-16.174-9.034-2.896-18.714-5.63-28.027-5.395-15.857.401-30.341 4.986-42.326 17.368-14.702 15.191-28.079 31.399-41.631 47.529-9.306 11.075-19.069 21.766-28.607 32.647-1.62 1.848-3.405 3.626-4.651 5.713-5.249 8.788-13.827 12.435-22.955 15.398-5.113 1.66-9.78.602-14.686-1.178-8.025-2.912-16.242-5.31-24.422-7.78-9.128-2.757-18.313-5.326-27.458-8.028-8.529-2.52-16.993-5.27-25.577-7.579-3.279-.881-5.32 1.822-4.633 4.47 1.265 4.88 2.659 10.206 5.644 14.078 10.666 13.831 21.866 27.262 33.16 40.595 12.956 15.297 26.301 30.265 39.342 45.492 14.897 17.395 29.584 34.97 44.472 52.372 14.679 17.157 29.563 34.138 44.223 51.31 7.972 9.34 16.3 18.485 23.186 28.592 2.933 4.305 2.853 10.805 3.673 16.377 1.617 10.993 4 22.032 4.037 33.059.04 12.104 8.05 18.396 15.006 25.813 11.499 12.263 23.095 24.436 34.596 36.697 8.693 9.267 17.292 18.623 25.95 27.924 13.692 14.71 27.435 29.374 41.09 44.119 15.592 16.838 31.06 33.792 46.694 50.59 4.741 5.095 4.743 4.717 10.145.517 7.188-5.588 14.199-11.718 22.206-15.816 4.81-2.462 11.402-2.16 17.145-1.926 10.1.411 14.953 9 21.087 15.245 15.736 16.023 31.2 32.313 46.815 48.456 12.067 12.476 24.206 24.884 36.299 37.335 21.85 22.5 43.718 44.98 65.52 67.526 9.219 9.534 18.253 19.246 27.437 28.814a22209 22209 0 0 0 54.005 56.088c8.488 8.781 17.191 17.356 25.634 26.18 9.713 10.152 19.078 20.643 28.91 30.676 8.405 8.576 16.628 17.53 26.081 24.825 10.522 8.12 22.835 13.876 36.657 11.975 6.101-.84 12.628-3.492 17.527-7.211 12.832-9.742 25.127-20.243 37.135-31 7.134-6.39 13.386-13.776 19.913-20.828 5.37-5.802 10.486-11.84 15.848-17.65 9.193-9.96 18.474-19.838 27.75-29.72 6.457-6.878 12.99-13.684 19.45-20.557 13.468-14.323 26.832-28.745 40.392-42.98 8.43-8.849 17.25-17.326 25.698-26.16 9.025-9.436 17.816-19.095 26.959-28.918"/></svg>