<svg xmlns="http://www.w3.org/2000/svg" viewBox="0 0 1992 934" xml:space="preserve"><path fill="#fff" d="M1093.778 798.999c-6.266-1.271-12.079-2.644-17.942-3.744-6.57-1.232-13.214-2.064-19.773-3.343-12.908-2.516-25.752-5.362-38.671-7.81-16.947-3.213-33.967-6.045-50.908-9.29-10.352-1.984-20.58-4.614-30.926-6.635-13.245-2.587-26.559-4.82-39.83-7.27-8.786-1.622-17.538-3.428-26.329-5.022-6.015-1.091-9.57-5.525-13.353-9.588-6.14-6.596-13.329-12.63-17.828-20.23-5.605-9.472-10.439-19.655-12.333-30.905-.98-5.818-3.286-7.493-9.03-7.36-25.116.583-50.241.769-75.362 1.184-12.772.21-25.54.676-38.311.893-24.759.42-49.534 1.386-74.273.835-12.27-.274-24.512-3.214-36.702-5.323-8.614-1.49-17.15-3.477-25.664-5.483-14.019-3.303-28.036-6.629-41.97-10.267-14.382-3.754-28.646-7.955-42.993-11.845-11.222-3.042-22.424-6.205-33.758-8.772a581 581 0 0 0-35.807-6.96c-12.728-2.054-25.529-3.775-38.357-5.041-11.31-1.116-22.696-1.5-34.056-2.017-5.352-.244-10.728.106-16.084-.073-11.386-.38-22.428 1.772-33.546 3.834-11.544 2.142-23.263 3.322-34.851 5.247-11.376 1.89-22.636 4.513-34.036 6.22-12.57 1.882-25.112 5.344-37.98 2.648-2.402-.504-4.738-1.892-6.792-3.322-1.884-1.312-3.303-3.275-5-4.873-4.106-3.865-7.242-8.051-8.407-13.936-1.942-9.812-3.226-18.977 3.592-27.865 6.29-8.2 11.434-17.273 17.16-25.91 5.11-7.708 7.148-16.504 7.254-25.38.378-31.495.144-62.997.143-94.496 0-8.885-7.346-16.16-16.396-16.166-25.166-.016-50.348.549-75.491-.21-16.11-.487-26.125-7.284-31.425-22.9-4.67-13.757-7.772-28.039-11.782-42.027-2.356-8.215-5.404-16.238-7.587-24.494-.87-3.289-.247-6.972-.299-10.476C47.801 322.38 64.42 312.199 77.9 308.9c14.9-3.647 29.878-2.518 44.851-2.692 9.264-.108 18.537.784 27.806.768 10.963-.018 21.927-.822 32.888-.77 26.936.128 53.87.696 80.807.792 13.297.048 26.598-.86 39.896-.808 31.296.125 62.592.782 93.888.814 24.951.026 49.903-.696 74.855-.803 11.769-.051 23.54.614 35.311.85 6.03.121 12.066.032 18.098 0 4.797-.026 6.752-2.001 6.762-6.917.03-14 .015-27.999.02-41.998.003-13.051.34-26.114-.128-39.148-.234-6.509 1.424-11.891 5.474-16.754 2.936-3.525 5.493-7.48 8.907-10.452 2.264-1.97 5.713-3.492 8.684-3.589 19.096-.619 38.205-.847 57.311-1.092 31.93-.41 63.864-.587 95.791-1.154 18.708-.333 37.406-1.258 56.11-1.866 11.763-.382 23.529-.7 35.295-.996 14.1-.357 28.2-.75 42.301-.958 10.19-.15 20.385.06 30.576-.037 32.286-.31 64.573-.551 96.856-1.078 29.202-.477 58.402-1.2 87.598-2.008 11.89-.329 23.762-1.297 35.651-1.731 7.837-.287 15.692-.049 23.535-.212 10.627-.22 21.25-.856 31.874-.847 13.098.012 26.193.613 39.292.733 4.937.045 9.895-.405 14.808-.95 1.096-.12 2.697-1.439 2.934-2.467.693-3.008 1-6.14 1.13-9.237.733-17.533 1.315-35.072 2.056-52.605.58-13.708 1.216-27.415 2.022-41.112.405-6.877 1.194-13.733 1.943-20.585.113-1.028.742-2.202 1.499-2.925 4.052-3.871 8.039-7.851 12.43-11.308 1.918-1.509 4.717-2.515 7.167-2.627 11.927-.544 23.871-.882 35.812-.944 7.603-.04 15.208.707 22.815.785 13.562.14 27.127.137 40.689 0 7.807-.078 15.61-.753 23.416-.76 7.312-.007 14.626.798 21.935.745 19.275-.138 38.56-1.073 57.817-.622 9.158.214 18.241 2.981 27.396 4.347 3.749.559 7.703-.02 11.37.794 5.007 1.112 9.756 3.346 14.742 4.595 18.18 4.555 33.782 14.342 49.228 24.31 9.019 5.82 17.574 12.383 26.145 18.867 7.138 5.4 13.678 11.64 21.063 16.652 7.722 5.24 16.094 9.536 24.261 14.101 6.168 3.448 12.302 7.028 18.739 9.907 9.084 4.064 18.187 8.438 27.73 11.032 12.014 3.264 24.403 5.499 36.774 6.992 10.484 1.266 21.17.906 31.77 1.16 29.87.713 59.744 1.237 89.608 2.126 10.182.303 16.836 7.154 23.093 14.226.62.7 1.227 1.74 1.22 2.617-.09 10.625-.285 21.249-.489 31.872-.018.975-.389 1.942-.418 2.918-.369 12.099-.668 24.2-1.057 36.298a16191 16191 0 0 1-2.003 59.115c-.207 5.779-.421 11.57-.994 17.318-.267 2.68-.7 5.82-2.259 7.811-6.674 8.534-13.402 16.816-21.906 24.007-11.773 9.955-25.85 15.481-38.394 23.764-8.403 5.55-16.389 11.8-25.1 16.798-16.828 9.657-33.742 19.258-51.175 27.743-16.103 7.839-32.902 14.257-49.45 21.17-13.655 5.706-27.3 11.458-41.138 16.693-4.93 1.866-10.383 3.012-15.647 3.215-17.589.682-35.2.84-52.803 1.102-27.26.406-54.524.594-81.781 1.16-11.375.235-22.736 1.192-34.101 1.845-3.489.2-4.192 2.454-4.176 5.486.053 10 .146 20.003-.082 29.998-.551 24.197-1.255 48.39-1.939 72.583-.296 10.463-.675 20.923-1.049 31.383-.62 17.375-1.14 34.754-1.986 52.118-.224 4.593 1.707 5.35 5.72 5.643 14.892 1.087 29.75 2.657 44.633 3.886 6.747.557 13.542.543 20.285 1.133 13.243 1.16 26.459 2.633 39.698 3.841 8.848.808 17.719 1.366 26.578 2.063 16.887 1.33 33.771 2.708 50.66 4.01 9.692.746 19.397 1.31 29.086 2.081 15.9 1.265 31.793 2.636 47.69 3.95 4.263.352 8.532.627 12.794.992 15.394 1.318 30.783 2.688 46.179 3.974 5.099.426 10.214.659 15.323.975 11.53.714 23.066 1.368 34.592 2.151 18.889 1.283 37.813 2.232 56.645 4.106 17.218 1.714 34.321 4.565 51.499 6.728 9.756 1.228 19.706 1.35 29.307 3.276 14.185 2.846 29.132 5.618 37.747 18.97 6.385 9.892 13.887 19.485 12.831 32.857-.994 12.59-.15 25.317-.314 37.982-.224 17.274-.49 34.55-1.029 51.817-.261 8.374-.276 16.92-1.999 25.048-3.44 16.227-13.152 27.487-29.577 31.987-11.507 3.152-23.062 6.162-34.698 8.777-2.872.646-6.155-.424-9.232-.83-14.252-1.88-28.489-3.885-42.752-5.682-7.32-.922-14.692-1.412-22.022-2.261-9.905-1.147-19.79-2.464-29.687-3.685-8.94-1.104-17.889-2.137-26.824-3.275-9.397-1.197-18.771-2.572-28.175-3.705-9.937-1.197-19.908-2.116-29.846-3.313-9.406-1.133-18.779-2.536-28.181-3.694-7.158-.881-14.346-1.515-21.51-2.35-12.354-1.438-24.7-2.95-37.049-4.424-7.144-.853-14.292-1.668-21.432-2.544-11.842-1.453-23.678-2.956-35.52-4.41-7.152-.879-14.318-1.662-21.468-2.567-15.557-1.969-31.098-4.075-46.666-5.954-9.775-1.18-19.597-1.963-29.378-3.094-4.362-.504-8.677-1.425-13.594-2.255l2.583-25.614c14.928 2.05 29.26 4.22 43.644 5.941 15.96 1.91 31.994 3.212 47.95 5.155 13.932 1.697 27.78 4.09 41.705 5.847 10.26 1.295 20.597 1.98 30.883 3.094 8.456.916 16.89 2.05 25.329 3.117 7.454.943 14.902 1.938 22.356 2.892 12.164 1.557 24.327 3.123 36.496 4.639 6.664.83 13.345 1.513 20.007 2.35 12.497 1.57 24.976 3.282 37.48 4.784 7.328.88 14.704 1.35 22.033 2.22 9.572 1.137 19.114 2.53 28.68 3.733 8.94 1.124 17.894 2.12 26.837 3.217 10.046 1.23 20.064 3.29 30.132 3.562 11.182.302 22.22 4.916 33.64.719 5.828-2.143 12.273-2.546 18.254-4.351 9.588-2.894 14.582-8.477 14.818-18.524.62-26.429.712-52.87 1.122-79.303.12-7.804.57-15.603.927-23.401.312-6.81-3.652-11.862-6.924-17.212-4.926-8.054-13.756-9.12-21.51-10.32-16.68-2.584-33.598-3.648-50.421-5.301-13.871-1.364-27.739-2.766-41.622-3.998a8024 8024 0 0 0-58.969-4.995c-17.386-1.414-34.787-2.653-52.175-4.058-15.738-1.271-31.462-2.713-47.2-3.986-13.132-1.062-26.28-1.922-39.41-2.99-19.83-1.612-39.65-3.341-59.475-4.994-16.23-1.353-32.463-2.671-48.695-3.997-16.553-1.351-33.108-2.681-49.66-4.043-11.644-.958-23.274-2.11-34.93-2.891-12.68-.851-25.383-1.383-38.077-2.037-6.632-.342-11.942-5.825-11.94-12.464.003-17.5-.126-35.001.153-52.496.105-6.523 1.545-13.019 1.76-19.547.326-9.843.118-19.703.125-29.555.007-9-.208-18.006.087-26.996.144-4.354 1.696-8.665 1.813-13.016.527-19.622.446-39.265 1.256-58.872.378-9.132.525-18.687 6.232-26.611 1.81-2.513 4.33-4.93 7.074-6.245 3.42-1.639 7.365-2.635 11.162-2.944 8.242-.67 16.532-.867 24.808-1.01 25.761-.448 51.525-.737 77.287-1.177 9.972-.17 19.944-.492 29.91-.903 14.194-.586 28.454-.684 42.544-2.259 6.85-.765 13.467-4.187 20.037-6.793 16.463-6.529 33.017-12.877 49.2-20.052 16.317-7.233 32.638-14.643 48.22-23.302 19.249-10.696 37.733-22.767 56.557-34.23 8.997-5.479 18.397-10.398 26.895-16.563 6.041-4.383 11.025-10.29 16.148-15.826 1.248-1.348 1.596-3.896 1.66-5.915.792-24.694 1.38-49.395 2.174-74.089.531-16.54 1.311-33.072 1.962-49.608.065-1.64.009-3.284.009-5.25-1.7-.092-3.138-.233-4.578-.237-13.832-.04-27.671.187-41.497-.145-17.205-.414-34.404-1.199-51.598-1.99-10.54-.484-21.11-.887-31.582-2.071-7.036-.796-13.861-3.354-20.891-4.318-14.9-2.045-28.09-8.499-41.17-15.234-16.22-8.352-32.575-16.511-48.294-25.738-8.441-4.955-15.459-12.272-23.5-17.988-11.944-8.49-24.574-16.045-36.266-24.857-11.416-8.603-24.958-11.981-37.799-17.02-5.314-2.086-11.583-1.611-17.331-2.743-22.992-4.527-46.235-2.765-69.386-2.858-48.496-.194-96.995-.027-145.492-.137-4.012-.01-6.268.553-5.99 5.343.228 3.898-.65 7.847-.782 11.782-.723 21.364-1.175 42.739-2.105 64.093-.631 14.483-1.656 28.96-2.99 43.395-.567 6.13-5.962 9.326-10.17 13.051-5.805 5.14-12.109 6.52-20.155 5.705-10.62-1.075-21.49.514-32.257.64-15.83.186-31.666-.017-47.497.148-14.974.157-29.946.554-44.919.886-15.425.342-30.848.831-46.275 1.08-24.44.394-48.955-.44-73.306 1.205-35.88 2.425-71.746 1.166-107.613 1.77-15.268.258-30.533.673-45.8 1.001-15.436.332-30.873.68-46.31.96a16157 16157 0 0 1-60.308.995c-26.93.388-53.865.563-80.792 1.132-17.059.36-34.109 1.215-51.157 1.972-4.07.18-5.453 2.82-5.444 6.72.065 27.165-.478 54.345.28 81.49.319 11.37-4.906 17.94-12.794 24.848-10.874 9.522-23.117 6.428-35.217 6.326-1.137-.01-2.272-.41-3.408-.414-11.202-.035-22.406-.138-33.606 0-16.138.199-32.274.78-48.411.82-11.976.03-23.952-.774-35.93-.798-48.013-.097-96.027-.034-144.04-.032-8.538 0-17.076-.06-25.613-.003-44.136.294-88.273.524-132.407 1.058-5.063.06-11.095 1.171-12.873 6.815-1.092 3.464.119 7.872.991 11.698 2.519 11.043 5.207 22.056 8.184 32.984 2.151 7.898 4.58 15.75 7.45 23.41 1.588 4.238 5.036 6.28 10.091 6.232 23.497-.222 47.005.253 70.493-.27 8.636-.194 15.86 2.777 23.337 6.076 9.687 4.275 15.251 12.424 19.865 21.212 1.575 3.002 1.463 7.062 1.53 10.65.193 10.33.185 20.666.05 30.997-.067 5.1-.891 10.198-.841 15.292.125 12.639.693 25.273.828 37.911.151 14.16.102 28.52-5.185 41.798-3.319 8.337-8.918 15.788-13.696 23.513-2.73 4.412-5.758 8.652-8.847 12.825-2.308 3.117-2.23 6.72-.61 9.454.951 1.607 4.566 2.578 6.806 2.318 10.353-1.202 20.644-2.943 30.958-4.478 7.584-1.128 15.176-2.205 22.756-3.362 13.062-1.993 26.272-3.339 39.14-6.209 20.42-4.555 41.038-4.162 61.63-3.601 13.407.364 26.778 2.34 40.148 3.753 11.719 1.24 23.435 2.547 35.11 4.138 5.298.722 10.536 2.04 15.728 3.372 10.647 2.73 21.247 5.641 31.861 8.499 6.077 1.636 12.119 3.406 18.218 4.953 13.148 3.333 26.308 6.626 39.492 9.814 13.221 3.197 26.49 6.196 39.716 9.377 8.192 1.97 16.382 3.966 24.5 6.214 19.74 5.465 39.883 6.237 60.187 5.64 7.736-.228 15.492.18 23.225-.087 12.541-.435 25.072-1.191 37.607-1.802.998-.048 2-.013 3-.025 29.267-.358 58.535-.683 87.802-1.11 4.604-.068 9.204-.553 13.8-.928 10.96-.894 18.869 5.299 25.307 12.597 3.322 3.765 3.786 10.096 5.396 15.312.851 2.76 1.158 5.698 2.11 8.415 4.335 12.372 11.165 23.219 21.5 31.34 2.794 2.196 7.199 2.535 10.953 3.27 6.702 1.312 13.487 2.195 20.21 3.407a2159 2159 0 0 1 30.15 5.665c6.363 1.24 12.686 2.68 19.034 3.992 12.868 2.657 25.718 5.412 38.62 7.892 11.483 2.207 23.06 3.926 34.534 6.178 10.164 1.994 20.21 4.58 30.366 6.624 12.757 2.566 25.584 4.78 38.358 7.265 14.004 2.725 27.983 5.583 41.971 8.388 7.648 1.534 15.255 3.353 22.965 4.448 2.264.322 4.91-1.192 7.221-2.223 5.74-2.558 11.159-6.307 17.144-7.704 5.174-1.208 10.955.09 16.458.435 1.765.11 3.488.96 5.25 1.045 9.044.434 14.55 6.582 19.627 12.752 5.429 6.598 12.302 8.294 20.264 9.036 12.017 1.12 23.948 3.14 35.933 4.64 9.259 1.158 18.55 2.052 27.816 3.161 16.393 1.963 32.766 4.104 49.17 5.977 15.96 1.823 31.95 3.388 47.923 5.11 1.735.187 3.44.664 5.613 1.098l1.643-12.323 19.812 2.267-5.98 53.946-19.886-2.244 1.535-15.881c-10.472-1.045-20.74-1.903-30.963-3.14-8.245-1-16.417-2.596-24.655-3.672-9.265-1.211-18.576-2.067-27.852-3.204-10.195-1.248-20.363-2.734-30.564-3.938-7.325-.864-14.702-1.287-22.025-2.172-11.357-1.374-22.685-2.997-34.032-4.466-4.214-.546-8.437-1.104-12.673-1.396-7.636-.527-12.172-5.843-16.232-11.135-4.637-6.044-10.656-9.674-17.71-9.635-4.775.026-9.554 3.178-14.293 5.029-5.978 2.335-11.329 6.729-18.336 5.64a244 244 0 0 1-11.513-2.047c-15.588-3.195-31.164-6.446-46.744-9.677-3.465-.718-6.93-1.44-10.826-2.178"/></svg>