<svg viewBox="0 0 2008 937" xml:space="preserve" xmlns="http://www.w3.org/2000/svg"><path d="M1454.908 42.15c-18.103-.052-36.205-.03-54.308.034-1.207.004-2.412.502-3.618.771 1.1.597 2.151 1.455 3.293 1.832-1.149-.377-2.247-1.235-3.728-1.82-2.466.003-4.497-.007-6.53.408.324 1.144.625 2.563.962 3.076-.344-.52-.68-1.994-1.184-3.414-2.404-.745-4.585-.728-6.768-.71l2.391 4.218c-.93-1.642-1.66-2.932-2.822-4.32-2.497-.028-4.563.045-6.62.486.797 2.833 2.12 3.924 3.688 4.248-1.651-.32-3.11-1.423-4.127-4.336-3.135-.4-5.822-.342-8.51-.285l6.118 4.045c-2.131-1.41-4.125-2.727-6.51-4.143-5.952.182-11.51.66-17.07.686-5.864.027-11.73-.376-17.612-.248-.47 1.477-.922 2.61-1.36 3.705.438-1.095.89-2.228.942-3.791-2.103-.37-3.804-.309-5.506-.248l1.514 4.615c-.652-1.987-1.082-3.301-1.943-4.719-5.158.24-9.886.583-14.606 1.338.689 1.226 1.335 2.754 2.045 3.15-.717-.397-1.414-1.933-2.504-3.222-5.735-.792-11.006-1.414-16.27-1.346-11.753.152-23.502.648-35.253 1.004l-2.397 3.717c-.236-1.01-.471-2.02-1.09-3.444-2.091-.353-3.8-.293-5.51-.232-2.804 2.788-5.556 5.637-8.482 8.291a92 92 0 0 0 8.12-8.363c-3.885 2.306-7.408 4.685-10.782 7.422.818.467 1.824 1.013 2.367 1.025-.55-.007-1.597-.533-2.633-.893-.475-.034-.538.157-.6.346v1.387c0-.612-.037-.989-.325-1.291-1.126 1.012-1.927 1.927-2.405 2.834 1.124-.328 1.924-.647 2.723-.965l.01-.322c.112.465.232.603.352.742q-.18-.206-.358-.414c0 .007.015.033.053.13-.852.182-1.651.5-2.752.843-.263.02-.318-.013-.328-.022-1.371 2.318-2.744 4.635-4.531 7.428-.752 5.523-1.088 10.57-1.424 15.619-.02 3.613-.04 7.227-.182 10.988.095-3.664.027-7.267-.203-10.781-.404 5.638-.437 11.077-.105 16.402l-.055.723c-.79 8.59-1.13 16.629-1.467 24.668-.01 3.312-.016 6.624-.123 10.027a133 133 0 0 0-.256-9.816c-.369 5.692-.405 11.198-.107 16.6q-.059.742-.125 1.494c-.847 8.577-1.127 16.633-1.405 24.69 1.515 4.251 1.915 8.45 1.326 12.696.525-4.17.036-8.335-1.7-12.48a220 220 0 0 0-1.016 21.662q-.094.212-.192.424c-5.8 1.215-11.043 2.507-16.308 2.603-16.003.293-32.012.103-48.02.141-8.018.019-16.036.124-24.055.19-1.148.515-2.28 1.367-3.443 1.619 1.156-.253 2.237-1.116 2.983-1.711-6.166.3-11.87.691-17.573 1.296.001.215.027.642.492.622-1.14 2.394-2.758 3.022-4.482 3.093 1.653-.078 3.136-.71 4.018-3.072 0 0-.027-.428-.438-.717-1.8-.316-3.189-.345-4.578-.373-.88.169-1.763.338-3.287.28-8.587-.132-16.53-.036-24.541.478.68.906 1.384 1.935 2.119 2.4-.754-.468-1.53-1.513-2.506-2.486-13.8-.138-27.279.228-40.758.594-.942.356-1.876.848-2.818 1.213.89-.373 1.704-.897 2.355-1.307-15.151.238-29.84.557-44.529.938-.69.018-1.366.573-1.793 1.168 2.132.562 4.129 1.233 6.076 1.49-1.966-.255-4.036-.921-6.449-1.461-1.373-.279-2.118-.297-2.863-.317a7 7 0 0 1-1.346.247 2 2 0 0 0 1.244-.524c-.706-.092-1.312.093-1.775.512q.267.029.508.014c-.28.02-.587.03-.975.015-25.616-.115-50.624-.026-75.63.063-1.202.78-2.388 2.12-3.602 2.47 1.207-.35 2.342-1.702 3.142-2.572-14.758-.11-29.06-.239-43.357-.08-8.896.099-17.787.618-26.678 1.006-.526.023-1.03.56-1.254 1.158 6.716.183 13.141-.065 19.565-.01 5.052.044 10.101.46 15.152.713 1.714 0 3.428.003 6.035.008 9.554-.004 18.22.107 26.873-.139-8.654.246-17.318.135-26.443.147-1.055 1.56-2.099 2.225-3.172 2.195.918-.02 1.7-.694 2.277-2.2-2.142-.008-3.855-.01-5.496.356-5.124-.618-10.174-1.036-15.226-1.08-6.424-.055-12.85.193-20.034.041-14.435-.205-28.113-.141-41.79-.078-1.24.54-2.47 1.294-3.708 1.865 1.18-.58 2.288-1.37 3.247-1.96-14.415.241-28.369.56-42.32.958-.845.025-1.67.684-2.323 1.438.544.507.993.952 1.414 1.15-.446-.198-.987-.65-1.863-1.187-11.544-.06-22.46.308-33.375.676-.74.755-1.473 2.035-2.215 2.496.73-.464 1.4-1.758 1.81-2.578-9.503-.033-18.601.017-27.718.47-1.273.945-2.508 1.953-3.784 2.254 1.27-.302 2.453-1.318 3.32-2.328-6.458-.41-12.474-.34-18.49-.271.056 3.458-2.45 2.791-4.458 2.65 2.007.141 4.514.806 3.996-2.744-4.227-.08-7.998-.18-11.756-.022-4.272.18-8.534.593-12.512 1.201 4.432.44 8.576.585 13.152.717-1.118.393-2.072.947-2.976 1.358.849-.409 1.695-.967 2.545-1.348-4.144-.144-8.29-.286-13.184-.693-4.778-.286-8.805-.308-12.832-.33-.856.131-1.713.262-2.707.336a10 10 0 0 0 2.567-.666c-1.636-.033-3.141.238-4.413.722a23 23 0 0 1-.615-.014c-4.087-.25-7.46-.197-10.832-.144-.268.428-.538.857-.568 1.523.67.235 1.104.232 1.537.229 3.468.132 6.937.264 11.16.691 9.008.299 17.26.397 25.51.217-8.25.18-16.503.081-25.229.068-3.933-.138-7.394-.267-11.148-.687-.727-.287-1.16-.284-1.916-.281-2.057.329-3.785.92-5.522.943 1.737-.024 3.464-.612 5.284-1.18.355-.665.624-1.095.431-1.615-6.854-.082-13.248-.165-19.638-.023-3.309.073-6.609.545-9.692 1.103.689.277 1.325.488 1.983.682-.766-.202-1.467-.372-2.45-.654-7.03-.178-13.373-.116-19.716-.055-.322.226-.644.452-1.045.648.325-.198.58-.45.734-.73-.768.222-1.236.524-1.559 1.045q-.159.045-.336.084c-1.258.444-2.05 1.064-2.841 1.685a10 10 0 0 1-.838 1.053q.392-.52.5-1.004c-.746.635-1.204 1.23-1.375 1.801q-.164.126-.35.26c-3.616 3.826-6.394 7.68-9.603 11.135-3.255 3.502-4.333 7.414-4.278 12.091.164 13.842.049 27.688.045 41.532-.003 13.626-.138 27.254.088 40.877.057 3.41-.727 6.06-3.166 8.304.406 2.75-.61 3.67-2.23 3.946 1.57-.279 2.473-1.198 1.802-3.92-2.134.072-3.84.121-5.548.17l-.014.984c-.01 1.326-.014 2.075.408 2.826-22.522-.002-44.62-.002-66.719-.002h66.295l.006-2.621c-1.184-.539-2.37-.703-4.252-1.107-11.382-.179-22.066-.117-32.75-.055-.477.573-.954 1.146-1.74 1.746q-.154.001-.307.004c.019-.394.03-.798-.326-1.668-8.476-.654-16.57-.823-24.586-.654 1.377.67 2.674 1.004 4.43 1.334 4.145 0 7.832.006 11.518.01.276.187.552.373 1.388.779 1.96.148 3.664.197 5.285.213-1.673.007-3.323.009-5.164.012a3.7 3.7 0 0 1-.654-.221.2.2 0 0 0 .094.002q-.598-.617-.832-.56c-3.805-.23-7.49-.234-11.899.048-2.69.617-4.659.949-6.627 1.28 1.968-.331 3.935-.664 6.166-1.278-1.033-.616-2.328-.948-4.123-1.693-2.192-.36-3.886-.309-5.58-.256-.504.104-1.01.21-1.578.263.47-.077.884-.208 1.2-.367-1.121-.031-1.885.036-2.593.385a10 10 0 0 1-.511-.049c-3.839-.342-7.178-.3-10.518-.258-.194.477-.388.954-.816 1.559-.59.65-1.046 1.353-1.52 1.953.443-.582.835-1.255 1.285-1.824-4.475-.142-8.95-.285-14.113-.688-1.745-.285-2.803-.31-3.861-.335-.977.116-2.028.208-3.188.263 1.094-.061 2.1-.245 3.02-.592-1.733-.109-3.3.11-4.635.602.27.014.524.009.783.01-.42.008-.77.04-1.248.03-6.716-.16-12.736-.084-18.756-.009-1.658 1.294-3.363 1.819-5.132 1.91 1.653-.12 3.226-.683 4.681-1.994-4.542-.04-8.63.004-12.521.455 1.407.464 2.795.911 4.15 1.21-1.464-.314-2.976-.79-4.549-1.294-21.267-.522-41.937-.554-62.607-.586-.755.111-1.575.198-2.49.252.856-.062 1.634-.237 2.337-.566-1.393-.104-2.635.107-3.666.582.182.011.35.005.524.008-.329.006-.588.036-.965.025-3.015-.253-5.376-.277-7.738-.3-4.816.198-9.633.397-15.166.334-2.423-.288-4.129-.312-5.834-.336-1.009.077-2.266.07-3.323.13 1.076-.108 2.128-.247 3.124-.482-2.745-.117-5.29.116-7.569.637.348.012.656-.023.996-.02-.532.004-.888.067-1.463.057-30.41-.272-60.087-.295-89.765-.318-4.358.339-8.717.678-13.537 1.023-3.619.198-6.774.39-10.213.293-1.028-.292-1.771-.296-2.871.121 1.346 1.004 2.965 2.175 4.619 2.453-1.66-.278-3.32-1.448-4.992-2.449-1.085-.416-2.155-.416-3.625-.414-.137 2.447-1.328 3.001-2.721 3.074 1.347-.077 2.432-.638 2.318-3.07-2.158-.152-4.315-.304-7.218-.71-9.084-.276-17.422-.3-25.76-.325-1.338.264-2.675.685-4.014.873 1.33-.202 2.626-.693 3.787-1.244-9.92-.417-19.612-.502-29.304-.47-1.5.006-3 .557-4.499.854-.002.173-.006.345.471.77a778 778 0 0 0 28.365.191c-9.294.102-18.59.055-28.353.069-.468.755-.468 1.504.002 2.627 20.862.375 41.254.391 61.646.351-20.392.04-40.784.024-61.644.022-1.269-.067-2.367-.235-3.522-.325a23 23 0 0 0 3.051-.05c-.002-1.122-.003-1.87-.014-2.877-.008-.433-.005-.605-.437-.742-2.464.1-4.492.164-6.522.228-.267.726-.536 1.451-.652 2.74.906.246 1.79.405 2.666.526-.903-.096-1.848-.106-2.785-.258-1.749-.39-3.226-.483-5.482-.852-1.036-.214-1.293-.153-1.55-.092l.833 2.182c-.278-.727-.555-1.453-.953-2.224-.409-.165-.669-.13-.932.476.292.412.592.725.895.992-.405-.298-.728-.505-1.311-.998-.831-.107-1.278.205-1.725.518-.31.22-.619.439-1.005.629.307-.197.548-.443.697-.715-.757.22-1.224.52-1.55 1.035a6 6 0 0 1-.384.09c-1.587.176-2.673.546-3.76.916-.453.349-.907.698-1.468 1.05q.738-.532 1.144-1.128c-1.071.54-1.854 1.148-2.328 1.781q-.155.075-.32.15a3.6 3.6 0 0 0-1.043.186c-.028.284-.162.506-.746 1.04-8.438 5.677-15.5 11.619-14.274 22.726-.036.683-.08 1.375-.252 2.212a11 11 0 0 1-.293 1.149c-.423 2.849-.457 5.252-.49 7.656.263.436.527.871.762 1.377a4.8 4.8 0 0 0-.738-1.03c.344 1.07.669 1.818 1.222 2.38q.052.2.098.418c.14 1.642.502 2.734.865 3.826.214.616.437 1.47.652 2.127-.232-.63-.466-1.242-.724-1.744.475 2.045 1.022 3.708 1.672 4.94-.102-.45-.226-.801-.336-1.21.156.545.305.877.465 1.514.125 1.612.222 2.489.32 3.365 1.882.832 2.884 1.377 3.187 2.117-.32-.655-1.34-1.112-3.26-1.767.64 1.796 1.352 3.243 2.385 4.623.494-.822.82-1.447.938-1.953-.11.581-.46 1.303-1.006 2.279-.325.827-.261 1.262-.197 1.697.316.432.63.864.949 1.399-.327-.46-.666-.816-1.031-1.079.502 1.041 1.073 1.81 1.662 2.293q.09.202.182.422c.405 2.42.796 4.195 1.185 5.971.215.3.43.6.617.975a2 2 0 0 0-.693-.666c.225.748.52 1.212 1.021 1.529q.055.197.1.422c.11 1.948.41 3.36.71 4.771 1.667 1.486 3.9 2.615 4.26 4.834-.362-2.196-2.588-3.25-4.238-4.435 1.42 4.469 2.819 8.54 4.55 12.601.477-.585 1.02-1.237 1.238-1.8-.221.586-.779 1.31-1.307 2.124-.344.77-.288 1.205-.23 1.641l5.896 5.356c-2.172-.166-2.859-.219-3.818.076-.202 1.086-.13 1.826-.06 2.566.893.393 2.049.627 2.636 1.234-.59-.527-1.775-.677-2.717-.898.567 1.452 1.217 2.57 2.176 3.654.68-.89.933-1.537.906-2.015.074.55-.158 1.302-.88 2.37.074 1.48.432 2.572.79 3.665.268.391.537.783.766 1.256-.246-.41-.53-.72-.836-.936.323.984.707 1.685 1.248 2.088q.028.113.055.233c-.236.496-.086.794-.086.794 2.118.27 4.086 1.366 5.734 3.147-1.607-1.7-3.527-2.716-5.557-2.842 3.282 3.977 6.386 7.648 9.498 10.934a20 20 0 0 0-1.324-4.098 22 22 0 0 1 1.473 4.422c2.446 1.72 4.753 2.728 7.058 3.738.866.123 1.73.245 3.069.81 1.618.704 2.764.966 3.91 1.227 1.788-.25 3.575-.715 5.363-.718-1.788.003-3.575.467-5.017.955 2.088.48 3.829.934 5.572.937 24.898.048 49.797.019 74.695.069 1.942.004 3.885.45 5.897.251-1.18-.772-2.398-1.588-3.627-1.96 1.246.376 2.527 1.212 3.949 2.058 2.174 1.57 4.094 2.604 6.016 3.639.87.93 1.74 1.858 2.492 3.197-.11.384.027.516.045.531l.002.002c2.121-.858 3.452-.512 4.29.565-.824-1.042-2.116-1.323-4.134-.328.857.842 1.557 1.448 2.652 2.148.606 1.444 1.186 2.834 1.44 4.211-.253-1.353-.826-2.653-1.403-3.744-.377 35.39-.395 70.408-.414 105.426 2.61 7.482.374 12.33-4.404 15.976-1.093 1.191-1.696 2.192-2.297 3.194-.522 2.253-.658 4.742-1.336 6.9.667-2.144.763-4.575 1.13-6.613-2.82 4.348-5.405 8.426-8.05 12.467-2.65 4.048-5.359 8.059-7.722 12.12.693-.116 1.395-.147 1.925-.279-.555.142-1.328.193-2.199.364-.879.74-1.164 1.43-1.45 2.12-.048.782-.117 1.56-.155 2.342a15 15 0 0 0-.147-2.128c-3.954 5.82-7.021 11.555-3.935 18.545.765-.586 1.521-1.119 1.859-1.723-.337.617-1.087 1.214-1.832 2.137-.277 1.8-.207 3.179-.135 4.556 1.209.918 2.394 1.844 2.936 3.063-.554-1.126-1.764-1.963-3.02-2.692.603 2.555 1.29 4.74 2.338 6.782.61-.919.912-1.722.98-2.432-.046.809-.352 1.736-1.013 2.824.34 1.842 1.075 3.148 1.809 4.455.582.45 1.162.902 1.7 1.508.191.214.377.446.555.707-.1.366.02.492.036.506h.002c1.84-.472 3.081-.192 3.859.715-.75-.854-1.947-1.065-3.693-.46 1.617 1.66 3.068 3.066 4.697 4.12-.025-1.389-.252-2.505-.723-3.274.493.8.737 1.942.787 3.374-.106.422.065.557.086.572l.002.002c.38.189.758.378 1.12.65a2.9 2.9 0 0 0-.999-.441c.594.626 1.069 1.046 1.698 1.125l.072.097c-.09.414.075.55.096.565l.002.002c3.5-1.872 4.506.32 5.664 3.662.92.48 1.3.444 1.68.408.095-.674.221-1.864.294-2.156-.069.293-.165 1.497-.023 2.264 1.656.4 3.054.994 4.422.931 5.148-.235 10.288-.68 15.25-1.46l.44.06c1.568.422 2.58.356 3.591.291 1.085-.43 2.17-.863 3.33-1.246a25 25 0 0 0-3.004 1.334c2.072-.527 3.84-1.137 5.555-2.047q.305-.07.619-.13c3.18-.084 5.883-.47 8.586-.856.49-.24.981-.478 1.562-.68-.495.207-.912.47-1.218.758 1.1-.233 1.872-.54 2.465-1.09q.191-.036.396-.066c3.628-.16 6.712-.542 9.797-.924.299-.22.598-.44.97-.631-.292.198-.52.442-.66.707.745-.233 1.204-.536 1.518-1.043q.192-.054.408-.1c3.936-.179 7.35-.555 10.766-.93.304-.225.608-.45.986-.646-.3.202-.534.45-.676.723.748-.236 1.207-.542 1.52-1.059q.176-.052.375-.096c1.269-.1 2.048-.393 2.826-.687.404-.132.807-.263 1.252-.363a6.5 6.5 0 0 0-.941.351c1.088-.078 1.89-.144 2.586-.523q.252.002.527.021c2.88.022 5.21-.38 7.54-.78a7 7 0 0 1 .958-.579 2 2 0 0 0-.654.662c.74-.206 1.207-.488 1.529-.973q.22-.055.475-.1c3.286-.18 5.99-.56 8.697-.94.474-.233.948-.465 1.515-.665a4 4 0 0 0-1.171.743c1.094-.234 1.863-.542 2.453-1.086q.224-.043.468-.078c3.652-.154 6.693-.527 9.737-.899.48-.245.962-.488 1.533-.697-.484.214-.89.483-1.188.775 1.092-.248 1.855-.569 2.44-1.127q.199-.04.414-.074c4.303-.154 8.05-.53 11.799-.904.499-.253.998-.506 1.586-.719-.508.217-.931.494-1.24.797 1.096-.247 1.86-.571 2.445-1.135a9 9 0 0 1 .336-.06c.96-.065 1.433-.352 1.906-.64 1.032-.554 2.062-1.494 3.096-1.831-1.02.337-1.978 1.275-2.63 1.816 12.147-.02 23.835-.29 35.505.05 10.54.305 21.061 1.254 31.525 1.571q.316.18.637.36c3.147.813 5.997.905 8.848.996 2.58-1.596 4.977-1.904 7.412 1.437 3.198.48 5.895.519 8.591.557 2.288.362 4.576.723 7.35 1.504 1.873.452 3.259.486 4.645.52.085-.337.268-.603.775-.913 1-1.534 1.926-2.244 2.809-2.308-.759.11-1.499.807-2.206 2.242 2.146.34 3.912.633 5.61.562.694.76 1.322 1.155 2.385 1.932 1.497.42 2.56.457 3.623.494 1.544-1.794 2.716-1.647 3.818-.87-1.055-.695-2.183-.759-3.637 1.206 2.278.743 4.39 1.181 6.446 1.309q.248.19.51.35c1.79.775 3.332.874 4.872.974 1.31.35 2.62.699 4.405 1.459 2.513.46 4.552.509 6.59.558.387.048.774.096 1.25.239-.414-.098-.8-.079-1.145.062.709.366 1.312.431 1.873.217q-.06-.032-.12-.06.23.095.487.222c1.895.652 3.38.861 4.864 1.07.893.227 1.82.488 2.81.811a18 18 0 0 0-2.549-.637c1.728.718 3.194 1.262 4.508 1.403-.26-.122-.508-.217-.76-.32.373.141.693.23 1.102.408 1.194.45 1.895.411 2.596.37.285-.058.57-.117.869-.126-.24.045-.451.122-.621.215.659.098 1.137.13 1.56-.051q.166.067.34.166c.76.743 1.345.878 1.932 1.013.652.052 1.306.105 2.353.555 2.148.742 3.9 1.083 5.653 1.426.647.08 1.296.161 2.365.603 2.161.703 3.9 1.041 5.64 1.381.39.049.78.099 1.254.243-.414-.1-.802-.082-1.148.058.707.367 1.31.433 1.875.22l-.096-.046q.208.089.44.203c2.477 1.074 4.572 1.715 6.668 2.354a52 52 0 0 1 3.263.814c-1.087-.298-2.139-.47-3.127-.48 1.724.674 3.31 1.014 4.828 1.037-.239-.094-.474-.167-.71-.248.364.117.682.19 1.076.334 1.182.434 1.932.466 2.681.498.68.05 1.368.109 2.2.297.35.079.719.174 1.134.312 2.177.74 3.915 1.084 5.655 1.43.986.366 1.974.732 3.386 1.494 1.488.434 2.55.473 3.612.512 1.027.23 2.094.499 3.218.83-1.07-.301-2.104-.478-3.072-.5 1.726.69 3.307 1.05 4.82 1.088-.2-.081-.395-.141-.593-.213.312.106.584.168.916.295.83.432 1.27.46 1.713.486.233-.326.588-.901.75-1.08-.16.194-.486.821-.573 1.428 5.738 1.683 11.297 3.02 16.803 4.015-1.677-2.116-3.713-3.045-5.879-3.533 2.255.496 4.417 1.44 6.27 3.62 1.507.462 2.572.5 3.636.536 2.509-1.38 4.758-1.334 6.926-.568-2.123-.68-4.33-.638-6.754.926 4.267 1.102 8.371 1.865 12.42 2.297l.535.369c1.788.79 3.326.895 4.866 1 .319.073.638.145.978.293a1.8 1.8 0 0 0-.87-.004c.625.396 1.162.561 1.677.49q.168.131.347.299c1.407.658 2.632.687 3.858.715l1.99-2.479c.662.645 1.322 1.29 2.045 2.258 1 .729 1.94 1.133 3.32 1.955 2.184.751 3.927 1.087 5.67 1.422.65.065 1.298.13 1.98.281a6.4 6.4 0 0 0-1.831.06c1.23.421 2.343.569 3.404.446q.293.127.6.287c2.123.78 3.978.874 5.834.967.64.056 1.282.112 1.958.254a6.4 6.4 0 0 0-1.802.084c1.227.403 2.333.54 3.388.41q.321.135.659.31c2.047.753 3.794.786 5.54.819 2.672-3.605 3.51.467 5.616 1.644 1.863.448 3.247.479 4.633.51 1.644-3.206 3.312-3.267 5.384.414 1.132.478 1.883.504 2.633.53 1.506.026 3.01.053 4.678.206a19.7 19.7 0 0 0-4.496.16c2.392.4 4.601.435 6.715.114q.236.036.478.076c13.908.387 27.257.34 40.606.291.74-.529 1.478-1.459 2.218-1.683-.733.226-1.42 1.164-1.753 1.757 9.339.061 18.214.09 27.087-.01 1.489-.016 2.972-.59 4.165-1.205-9.922-.423-19.551-.595-29.18-.593 9.629-.001 19.258.169 29.514.566 1.065.208 1.503.144 1.943.08.644-.11 1.29-.22 1.998-.28a8.4 8.4 0 0 0-1.6.37c1.423.02 2.478-.042 3.451-.39q.271.015.557.046c3.208.35 5.901.29 8.594.233.777-3.293 2.889-3.412 4.986-3.123-2.048-.276-4.04-.122-4.525 3.214 10.165-.269 19.867-.63 29.457-1.373-.358-.509-.648-.95-.93-1.148.302.2.671.655 1.324 1.22 1.569.402 2.63.352 3.692.301 1.226-2.905 1.226-2.904 8.166-2.716-6.94-.188-6.94-.188-7.733 2.802 2.488.027 4.543-.033 6.653-.396.262-.67.502-1.15.748-1.666-.206.508-.342 1.037-.285 1.74 8.755.312 17.102.246 25.449.18.932-.357 1.855-.851 2.787-1.217-.879.374-1.683.898-2.326 1.307 12.12-.242 23.775-.645 35.435-.832 1.801-.03 3.62.925 5.602 1.076l.06.066c-.109.391-.004.523.01.537.278.185.557.37.819.606a3.5 3.5 0 0 0-.672-.37c.53.681.955 1.189 1.475 1.428q.109.218.205.479c.38 2.902 1.003 5.036 1.627 7.17.634.454 1.269.907 1.949 1.681.843.902 1.972 1.467 2.584 2.196-.611-.719-1.733-1.234-2.54-1.875-.196.267-.393.534-.78 1.238-.13.87-.067 1.303-.006 1.736 1.388 1.907 2.777 3.814 4.464 5.477-.029-1.88-.08-3.66-.545-5.262.47 1.606.558 3.405.846 5.428.016.849.031 1.288.065 2.058.66 1.103 1.3 1.876 1.941 3-.15.906-.302 1.46-.664 2.518.511 1.927 1.234 3.35 1.957 4.773.584.862 1.168 1.723 1.719 2.67a16.4 16.4 0 0 0-1.809-2.332c.821 1.706 1.724 3.105 2.842 4.336q.115.258.227.528c-.13.947-.06 1.385.011 1.822.273.023.486.15 1.006.719 2.83 2.986 5.289 5.634 7.748 8.28 1.56-.135 2.982-.108 3.94.593-.93-.625-2.334-.575-3.852-.276 1.691 1.776 3.293 3.235 4.91 4.276.163-1.258.082-2.193-.183-2.873.319.741.442 1.77.308 3.183 1.86 2.458 3.444 4.41 5.397 5.87 3.02 2.257 6.293 4.178 9.459 6.242.554.028 1.109.056 1.742.173a3.8 3.8 0 0 0-1.606.15c1.031.358 1.933.405 2.78.155q.207.068.43.152c2.833.781 5.242 1.08 7.652 1.38.468-.323.935-.645 1.703-.99.537-.54.774-1.054 1.012-1.57-.238.516-.473 1.031-.38 1.553.773.013 1.214.018 1.622-.277.345.421.682.698 1.101.944-.403-.22-.753-.433-1.068-.643-.441-.005-.883-.012-1.955 0-1.1.339-1.567.662-1.877 1.322 2.064.692 3.97 1.045 5.88 1.112-.011-.668-.03-1.05-.341-1.461 1.437-1.785 2.746-2.324 3.996-2.008 1.116.281 2.185 1.242 3.254 2.64 1.355 1.063 2.649 1.775 4.404 2.895 2.526.754 4.592 1.1 6.657 1.445.308-.212.652-.429 1.048-.65-.398.252-.682.547-.888 1.006 1.695.469 3.233.592 4.72.377l.098.082c.085.409.258.479.28.486h.001c.238.013.476.025.827.094-.3-.034-.503.011-.625.162.613.21 1.034.173 1.216-.02q.128.036.272.08c.69.211.87.168 1.049.125.786-.25 1.572-.499 2.666-1.15-1.13-1.902-2.602-2.995-4.12-3.287 1.597.285 3.154 1.372 4.444 3.27 1.07.412 2.126.44 3.576.47l.397.043c.012.433.032.885.244 1.977 2.397.782 4.587.886 6.779.988 1.087-.335 2.176-.67 3.576-1.352-1.629-.383-3.334-.683-5.076-.941a78 78 0 0 1 5.441.945 9.6 9.6 0 0 0 1.975 1.76c-.742-.473-1.422-.944-2.287-1.414-1.453.33-2.54.666-3.46 1.344 2.402.7 4.634 1.058 6.868 1.203.002-.213-.023-.637-.342-.65.94-1.846 1.887-2.36 2.81-2.256-.843-.082-1.694.449-2.49 2.27 0 0 .024.423.413.712 1.45.321 2.511.354 3.572.387.47-.328.939-.655 1.934-1.184-.818-.53-1.786-1.595-2.791-2.015 1.082.418 2.126 1.47 3.091 1.988.359.323.813.572 1.391.795-.678-.211-1.236-.408-1.914-.594-.771.355-1.242.681-1.531 1.35a41 41 0 0 0 7.836 1.25l-.018-.616c-.786-.32-1.573-.642-3.012-1.005l-.242-.063c1.74-.475 3.185-.946 4.826-1.186a15.8 15.8 0 0 0-4.25 1.249c1.104.363 1.89.684 2.998.959-.32.047-.308.457.092.736 2.468.619 4.536.96 6.606.914-.032-.878-.19-1.543-.44-2.047.33.577.556 1.358.643 2.422 3.125 1.09 6.05 1.42 8.972 1.75.688.068 1.376.136 2.09.271a11.6 11.6 0 0 0-1.783-.068c1.491.431 2.749.707 3.912.691q.345.14.703.317c2.166.845 4.033.94 5.9 1.033 1.958.358 3.916.715 6.352 1.494 1.866.46 3.254.496 4.64.533 2.289.363 4.577.727 7.31 1.51 1.191.45 1.938.48 2.685.51.103-3.646 1.888-3.724 4.353-1.96-2.465-1.764-4.25-1.686-4.166 2.302 2.738.71 5.289 1.077 7.764 1.109a38 38 0 0 0-2.033-2.098c.715.652 1.468 1.373 2.392 2.25 2.193.769 3.95 1.049 5.71 1.329 2.579-1.545 4.974-1.858 7.359 1.474 1.858.483 3.245.523 4.633.563 1.957.362 3.913.722 6.336 1.502 1.53.444 2.598.472 3.664.5 2.287.364 4.575.728 7.304 1.517 1.19.454 1.937.483 2.686.512.478-2.196 1.342-3.283 2.748-2.86-1.396-.404-2.218.761-2.56 3.202 2.736.705 5.286 1.07 7.763 1.103a26 26 0 0 0-1.685-1.66c.65.566 1.202 1.03 2.05 1.82 2.525.776 4.611 1.058 6.698 1.34.755.036 1.51.072 2.35.203a6.5 6.5 0 0 0-2.198.14c1.354.385 2.563.44 3.701.186q.212.059.432.127c1.84.68 3.262.887 4.683 1.092 0 0-.03-.375-.012-.562q.216-.125.43-.223l-.066.041c.803-.003 1.261-.012 1.662-.312 2.01.942 3.962 1.593 6.42 2.73 2.108.476 3.71.465 5.31.455.042-.253.082-.507.16-1.016-.073.517-.09.808 0 1.276 1.851.726 3.54 1.192 5.126 1.299-1.737-1.376-3.371-2.392-5.006-3.408l-.064.453c-.36-.581-.788-.699-1.217-.817q.644.177 1.283.358c-.01-.006-.03-.041-.123-.2 1.755 1.222 3.39 2.239 5.522 3.694 1.836.399 3.176.36 4.515.32 1.185-1.325 2.147-1.487 3.045-1.144-.816-.296-1.69-.084-2.734 1.26 2.472.708 4.634 1.301 6.707 1.552-1.377-.48-2.487-2.09-3.703-2.695 1.303.646 2.5 2.252 4.088 2.773 1.941.675 3.407.93 4.873 1.184.988.053 1.977.106 3.039.242a16.5 16.5 0 0 0-2.72-.025c1.972.416 3.65.63 5.206.49q.269.067.547.144c1.974.76 3.455.966 4.936 1.172 2.226.403 4.451.806 7.117 1.676 1.185.5 1.932.533 2.678.566 2.29.332 4.58.663 7.437 1.46 1.767.436 2.967.408 4.168.38l1.451-2.27c1.613 1.18 3.227 2.36 5.313 3.954 3.195.757 5.918 1.103 8.64 1.447.64.045 1.28.089 2.002.246-.669-.121-1.3-.096-1.869.08 1.05.383 1.968.439 2.828.186q.111.038.225.08c.281.39.752.451.752.451.318-.02.591.082 1.357.584 2.259.316 3.979.35 5.7.385 1.078.235 2.212.517 3.425.871-1.142-.336-2.247-.521-3.279-.54 1.727.694 3.31 1.055 4.834 1.079a16 16 0 0 0-.998-.363c.47.146.895.254 1.416.445 2.175.365 3.876.31 5.576.254 0-1.542.441-2.377 1.363-2.58-.853.185-1.229 1.047-1.029 2.668 1.457-.548 2.58-1.184 3.482-2.09-.986-.485-1.79-.69-2.378-.592.663-.119 1.559.068 2.709.551.983.15 1.417.072 1.851-.006.285-.356.568-.714.92-1.047-.274.336-.49.712-.63 1.1.716-.494 1.186-1.033 1.505-1.762q.21-.125.451-.24c2.948-.859 5.355-1.906 7.762-2.953.475-.397.95-.794 1.5-1.16-.47.373-.87.794-1.18 1.238 1.054-.53 1.825-1.128 2.434-1.934a9 9 0 0 1 .453-.19c1.283-.106 2.052-.418 2.82-.73.272-.246.542-.492.873-.715a2.3 2.3 0 0 0-.562.684c.721-.336 1.167-.642 1.457-1.14a5 5 0 0 1 .39-.128c2.28.239 4.054.276 5.829.313 5.047-2.686 8.907.356 12.427 3.08-3.52-2.724-7.38-5.767-12.265-2.736 6.34.993 11.048 4.4 14.595 9.078 6.534 8.613 14.515 13.677 25.698 12.38.09-.71.18-1.423.027-2.474-6.409.127-12.05-.96-16.692-4.998 4.644 4.034 10.301 5.082 16.832 4.656 2.671.733 4.958 1.47 7.334 2.56 1.692.737 3.296 1.117 5.424 1.932 4.894.783 9.264 1.13 13.633 1.477.812.055 1.624.11 2.473.254a10 10 0 0 0-2.307.098c1.525.412 2.919.547 4.258.402q.362.127.738.289c4.14.796 7.987.878 11.834.961 3.191-1.668 6.182-1.64 9.367 1.488 2.548.392 4.58.35 6.614.31-.876-2.908.688-3.185 2.369-2.736-1.676-.447-3.201-.151-2.016 2.899 3.831.714 7.31 1.266 10.654 1.445-2.72-1.642-5.23-3.114-7.918-4.111 2.688.997 5.198 2.469 8.336 4.195 2.538.419 4.523.382 6.508.344.957-.459 2.024-1.361 2.914-1.553-.88.195-1.894 1.11-2.572 1.64 3.48.69 6.621 1.29 9.668 1.534-1.664-1.005-3.234-1.977-4.858-2.635 1.646.662 3.301 1.649 5.3 2.717 4.57.776 8.604 1.115 12.638 1.453 1.486.03 2.973.061 4.598.213a19.7 19.7 0 0 0-4.412.156c2.382.404 4.583.443 6.687.131l.441.074c2.884.694 5.27.951 7.659 1.207l-1.489-3.816c.821 2.104 1.155 2.96 1.89 3.908 3.854.682 7.306 1.272 10.634 1.457-3.954-1.935-7.785-3.47-12.516-5.363 4.731 1.893 8.56 3.427 12.904 5.453 1.842.451 3.17.41 4.498.367.346-2.806 1.864-3.15 3.49-2.861-1.6-.279-3.036.09-3.13 2.955 4.528.699 8.698 1.303 12.726 1.531-2.595-1.584-4.956-3.078-7.53-3.912 2.574.834 4.935 2.329 7.939 3.996 2.483.448 4.416.437 6.35.426 1.775-2.487 3.532-3.364 5.585.53.787.5 1.23.528 1.674.556.893.039 1.798.086 2.855.26-.96-.149-1.872-.127-2.703.084 1.39.387 2.627.431 3.791.148a9 9 0 0 0-.963-.215c.433.075.887.168 1.387.297 4.21.749 7.922 1.09 11.635 1.43l1.408-.555c-.47.185-.938.371-1.326.832.422.409.762.54 1.305.508.076-.3.09-.55.082-.78.02.29.028.64-.016 1.216-.68 5.169-1.222 9.739-1.79 14.51l19.74 2.538 7.036-51.933-19.725-2.594-2.138 14.432c-7.193-.756-14.193-1.366-21.157-2.256-8.293-1.06-16.537-2.523-24.837-3.512-7.684-.915-15.432-1.287-23.122-2.162-13.381-1.522-26.74-3.23-40.105-4.893-6.844-.851-13.678-1.782-20.518-2.664-11.24-1.448-22.45-3.25-33.73-4.228-12.09-1.05-24.046-1.707-31.648-13.309-1.252-1.91-3.215-3.367-4.909-4.97-.705-.668-1.492-1.496-2.369-1.696-6.39-1.453-12.769-3.099-19.246-3.984-3.317-.453-7.098-.17-10.197 1.016-6.29 2.406-12.195 5.8-18.399 8.459-1.75.75-4.063.774-5.99.423-6.446-1.172-12.81-2.783-19.248-4.011-13.678-2.611-27.397-5.01-41.07-7.643-12.22-2.354-24.39-4.984-36.608-7.353-16.711-3.241-33.462-6.277-50.17-9.538-13.97-2.726-27.884-5.73-41.853-8.46-16.723-3.268-33.478-6.375-50.219-9.551-11.422-2.167-22.862-4.25-34.262-6.532-7.679-1.536-15.566-2.796-19.98-10.644-.7-1.246-2.162-2.047-3.2-3.123-2.296-2.382-5.422-4.428-6.657-7.283-4.292-9.918-8.784-19.892-11.567-30.282-3.027-11.302-10.671-16.726-20.795-19.119-4.93-1.165-10.467.353-15.734.483-28.55.702-57.097 1.635-85.65 1.94-31.547.335-63.105.438-94.645-.122-10.742-.19-21.56-2.125-32.133-4.287-14.72-3.01-29.248-6.962-43.85-10.549-10.344-2.54-20.691-5.08-31.007-7.734-12.984-3.34-25.92-6.86-38.907-10.188-11.574-2.965-23.188-5.78-34.787-8.648-7.32-1.81-14.572-4.018-21.984-5.295-10.83-1.867-21.78-3.026-32.67-4.547-8.124-1.135-16.272-3.58-24.344-3.33-26.473.819-53.063-2.747-79.445 2.643-15.24 3.113-30.765 4.803-46.12 7.388-12.115 2.04-24.136 4.638-36.257 6.643-5.026.831-10.203 1.022-15.31 1.025-4.838.003-7.99-3.79-8.274-8.607-.254-4.309.686-7.917 3.387-11.483 4.168-5.503 7.836-11.401 11.478-17.28 5.008-8.086 10.534-15.962 11.76-25.798.75-6.02 2.27-12.024 2.314-18.043.235-31.664-.06-63.331.233-94.994.07-7.617-1.493-13.829-6.256-20.115-8.512-11.233-19.803-16.198-33.102-16.465-24.156-.485-48.328-.136-72.494-.139-8.588 0-12.13-2.933-14.297-11.336-1.662-6.445-3.652-12.806-5.466-19.212-3.884-13.716-7.838-27.414-11.578-41.168-1.67-6.142.723-11.684 6.394-13.649 4.896-1.696 10.184-3.18 15.3-3.185 143.829-.168 287.657-.174 431.485-.036 8.513.008 15.976-.609 22.824-6.925 5.629-5.192 9.516-9.582 9.317-18.12-.66-28.317-.255-56.657-.244-84.99.002-5.096 3.203-8.878 7.675-9.056 17.186-.684 34.368-1.547 51.561-1.957 22.603-.54 45.217-.674 67.824-1.067 14.277-.248 28.549-.673 42.824-.976 16.941-.36 33.882-.723 50.825-.997 23.478-.38 46.958-.624 70.435-1.035 11.278-.197 22.549-.805 33.826-.949 57.048-.726 114.098-1.362 171.147-2.021 4.376-.051 8.755.09 13.127-.059 17.71-.606 35.417-1.356 53.129-1.912 6.66-.21 13.332.039 19.998-.049 22.608-.298 45.22-.502 67.822-1.057 9.762-.239 16.023-6.848 21.908-13.656.583-.674.794-1.818.86-2.765.714-10.38 1.456-20.76 2.01-31.149.756-14.212 1.458-28.428 1.992-42.65.478-12.77.645-25.552 1.066-38.324.113-3.446.286-6.972 1.15-10.274.414-1.581 2.31-3.514 3.877-3.904 3.477-.866 7.17-1.158 10.776-1.162 56.331-.064 112.663-.047 168.994-.041 4.7 0 9.456-.394 14.092.17 11.229 1.364 22.357 3.668 33.61 4.7 14.143 1.299 27.023 6.585 39.237 12.84 12.224 6.262 23.459 14.541 34.817 22.385 18.074 12.484 34.09 27.744 54.224 37.506 22.248 10.787 43.057 24.273 68.06 29.125 15.235 2.957 30.421 5.266 45.837 6.203 11.087.675 22.212.773 33.322 1.057 14.607.373 29.216.675 43.824 1.014 1.496.034 2.991.114 4.487.166 6.523.223 13.078.934 19.562.525 6.372-.402 7.948.246 7.744 6.465-.552 16.887-1.374 33.765-1.935 50.652-.458 13.771-.693 27.55-1.031 41.324-.016.664 0 1.345-.143 1.987-2.032 9.339-1.461 18.427 3.42 26.787 2.419 4.143 4.155 9.54 10.086 10.03 10.533.867 21.103.247 31.637.494 3.043.071 12.355-.04 11.86 6.034.29 5.637-8.806 4.942-21.415 3.811-8.974-.805-25.028-1.935-40.106 2.87-19.106 6.086-35.182 19.347-52.412 29.648-13.288 7.944-25.753 17.313-39.26 24.834-14.03 7.812-28.76 14.413-43.394 21.082-12.717 5.794-25.707 10.998-38.617 16.361-10.686 4.439-21.416 8.774-32.162 13.064-4.118 1.644-8.266 4.077-12.52 4.362-16.687 1.116-33.418 1.697-50.14 2.14-19.937.53-39.882.707-59.823 1.05-18.941.324-37.889.502-56.822 1.093-5.87.183-11.781 1.144-17.533 2.395-7.749 1.684-8.942 8.909-10.446 14.898-1.585 6.315-1.9 13.027-2.132 19.588-.557 15.767-.73 31.547-1.075 47.322-.322 14.775-.537 29.553-1.033 44.322-.505 15.056-1.495 30.097-1.912 45.155-.538 19.435-.774 38.881-1.01 58.324-.054 4.425 3.996 8.865 8.248 9.172a4360 4360 0 0 0 45.47 3.025c12.209.752 24.452 1.069 36.636 2.1 16.23 1.373 32.407 3.368 48.627 4.88a2686 2686 0 0 0 47.785 4.006c19.254 1.45 38.524 2.7 57.787 4.03 5.604.387 11.222.63 16.813 1.154 12.94 1.212 25.853 2.74 38.806 3.791 11.527.936 23.107 1.207 34.635 2.127 13.949 1.114 27.86 2.707 41.805 3.885 7.085.598 14.226.535 21.312 1.13 18.213 1.531 36.41 3.254 54.611 4.917 7.713.704 15.436 1.322 23.127 2.215 9.782 1.135 19.506 2.826 29.307 3.703 12.784 1.143 25.591 1.975 37.797 6.345 2.528.906 5.29 2.06 7.094 3.924 7.052 7.284 11.774 15.41 11.265 26.356-.68 14.634-.04 29.326-.2 43.99-.199 18.11-.446 36.223-1.056 54.322-.261 7.771-2.517 15.202-9.298 19.924-3.129 2.179-7.115 3.108-10.676 4.686-15.497 6.867-31.58 6.076-47.822 3.855-12.204-1.669-24.434-3.142-36.663-4.621-7.023-.85-14.077-1.456-21.1-2.32-12.218-1.505-24.42-3.121-36.63-4.698-7.164-.925-14.324-1.885-21.49-2.79-8.635-1.092-17.267-2.204-25.914-3.188-7.198-.82-14.437-1.296-21.618-2.23-11.221-1.46-22.387-3.373-33.619-4.737-12.898-1.566-25.852-2.662-38.765-4.111-13.878-1.558-27.739-3.268-41.602-4.951-6.684-.812-13.359-1.703-20.035-2.583-11.069-1.458-22.123-3.042-33.207-4.373-7.517-.902-15.096-1.29-22.61-2.214-8.953-1.103-17.853-2.624-26.798-3.797-10.58-1.387-21.173-2.687-31.787-3.746-1.081-.108-3.183 1.534-3.393 2.634-.967 5.06-1.278 10.24-2.135 15.325-.486 2.886.972 3.962 3.26 4.222 12.874 1.465 25.762 2.815 38.645 4.203 2.288.342 4.577.683 7.38 1.45 2.884.467 5.251.508 7.62.55 3.163-1.396 6.274-2.326 9.363 1.467 3.439.447 6.412.44 9.387.432.738-.473 1.597-1.41 2.242-1.522-.642.116-1.48 1.087-2.049 1.827 3.487.73 6.782 1.157 9.984 1.23-2.61-1.287-5.088-2.377-7.673-3.05 2.585.673 5.063 1.762 8.087 3.13 4.894.774 9.281 1.113 13.668 1.453.77.039 1.579.112 2.453.237-.812-.092-1.588-.068-2.3.107 1.386.397 2.62.45 3.781.178-.025-.007-.049-.01-.074-.018.178.041.311.046.5.096 3.544.74 6.59 1.076 9.637 1.412 1.674.02 3.35.039 5.158.178a26 26 0 0 0-4.963.19c2.705.39 5.219.421 7.633.099q.24.034.486.072c4.894.796 9.284 1.148 13.674 1.5 1.956.36 3.912.72 6.389 1.492 3.215.371 5.91.33 8.605.29 3.375-2.452 6.271-1.51 9.402 1.693 4.201.784 7.91 1.13 11.62 1.474 1.488.027 2.977.054 4.615.203a19.7 19.7 0 0 0-4.432.164c2.385.4 4.587.434 6.695.116q.231.036.467.076c5.21 1.089 9.877 1.854 14.57 2.369 10.079 1.106 20.18 1.998 30.254 3.137 13.95 1.576 27.883 3.3 41.823 4.96.918.027 1.838.054 2.842.174a10 10 0 0 0-2.668.176c1.663.376 3.165.426 4.587.162q.272.065.555.14c4.205.799 7.941 1.084 11.678 1.37 2.288.322 4.574.645 7.428 1.424 3.151.458 5.74.458 8.326.459 1.46-2.922 2.823-2.036 4.537.55.83.472 1.274.502 1.719.532.768.034 1.578.1 2.453.219-.812-.086-1.589-.055-2.301.125 1.387.388 2.623.43 3.785.15.154.035.266.038.428.08 3.88.74 7.26 1.074 10.639 1.408 1.277.032 2.554.063 3.974.217a14.6 14.6 0 0 0-3.799.147c2.055.4 3.935.437 5.725.13l.428.08c4.222.773 7.942 1.115 11.662 1.456 1.14.048 2.283.095 3.469.236a19 19 0 0 0-3.28.127c2.123.414 4.099.544 6.008.379q.499.129 1.016.293c2.466.74 4.576.731 6.687.724.205-1.84.634-2.913 1.444-2.687-.768-.197-1.11.896-1.088 2.783 4.193.696 8.03 1.298 11.746 1.537-1.8-1.083-3.332-2.903-5.157-3.437 1.872.534 3.508 2.382 5.582 3.523 2.858.41 5.169.373 7.479.336.695-.379 1.47-1.055 2.148-1.371-.653.327-1.353 1.032-1.818 1.492 3.481.703 6.632 1.284 9.691 1.512-2.396-1.327-4.644-2.515-7.039-3.154 2.395.639 4.642 1.827 7.448 3.234 1.883.394 3.267.354 4.65.314 1.031-1.362 2.048-2.11 3.096-2.072-.967-.021-1.908.75-2.787 2.156 2.114.322 3.92.56 5.71.426-.789-1.422-1.588-2.221-2.376-2.484.879.262 1.784 1.08 2.742 2.568 1.133.487 1.884.519 2.635.55.735.033 1.469.067 2.289.194a6.5 6.5 0 0 0-2.137.147c1.344.38 2.547.439 3.678.19q.24.067.492.148c4.53.776 8.602 1.053 12.674 1.33 2.579-1.613 4.961-1.855 7.404 1.431 3.198.49 5.894.537 8.59.584.095-.1.183-.263.283-.322-.096.067-.155.28-.078.69 5.717-.34 11.445 3.81 16.85-.68.297-.798.508-1.243.691-1.64-.15.391-.3.929-.264 1.61 2.086.203 3.791.128 5.496.051 1.26-1.391 3.117-2.44 4.916-2.886-1.704.467-3.465 1.536-4.529 2.972 3.145-.633 5.904-1.352 8.658-2.406-.342-.357-.8-.592-1.33-.717.657.124 1.238.382 1.696.793 1.778.047 3.185-.316 4.593-.68.594-5.124 4.35-3.297 7.625-3.536-3.093.328-6.975-1.701-7.25 3.607 3.053-1.193 5.753-2.453 8.112-3.729q.281-.06.552-.152c1.115-.08 1.54-.146 1.965-.213.697-.405 1.394-.81 2.178-1.181-.7.389-1.314.812-1.838 1.255 1.568-.587 2.851-1.238 3.846-2.04q.292-.09.603-.172c1.192-.038 1.71-.333 2.229-.625-.156-5.071 3.341-5.765 7.603-6.012.322.006.393.024.409.031v.002c.29-1.534.418-3.233 1.185-4.36-.69 1.095-.737 2.775-.867 4.262 2.098-1.71 3.877-3.321 5.387-5.072-1.581-.474-2.676-.462-3.44-.133.827-.396 2.019-.462 3.774-.015 3.058-6.226 5.513-12.443 7.966-18.66-.106-.507-1.042-1.03-1.449-1.598.44.504 1.496.997 1.76 1.432.332-1.08.355-1.992.064-2.905-1.412.316-1.946.65-2.012.985 0-.447.505-.924 2.098-1.444.436-6.147.47-11.833.508-17.52-.294-.926-.804-1.853-.932-2.78.133.924.687 1.828 1.313 2.57.397-12.409.414-24.608.055-36.69-.405.648-.778 1.259-1.034 1.854.263-.657.651-1.384 1.108-2.31.752-6.157 1.248-11.738 1.314-17.323.152-12.776-.423-25.584.297-38.322.5-8.838-2.258-16.1-7.096-23.002a18 18 0 0 1-1.086-1.317q.538.638 1.06.989c-.63-1.031-1.236-1.782-1.849-2.229q-.09-.165-.183-.344c0-.935-.08-1.248-.25-1.539-.995-.518-2.514-.618-3.551-1.166 1 .469 2.464.495 3.365.87-1.299-1.947-2.413-3.599-3.67-4.975-.744 1.443-.898 2.4-.697 3.053-.27-.709-.164-1.755.582-3.368-5.7-6.902-11.633-12.895-20.732-13.98-.402-.048-.804-.097-1.295-.246.43.108.835.092 1.195-.057-.707-.365-1.315-.427-1.88-.209q.09.047.177.086a8 8 0 0 1-.506-.226c-1.477-.729-2.586-1.036-3.693-1.344-.65-.071-1.3-.141-2.366-.58-2.153-.727-3.89-1.085-5.626-1.444-1.289-.01-2.578-.022-3.954-.129a19.4 19.4 0 0 0 3.764-.236c-2.291-.36-4.411-.39-6.44-.094q-.337-.059-.685-.128c-4.553-.815-8.625-1.098-12.695-1.381-2.29-.354-4.58-.707-7.365-1.487-2.206-.463-3.916-.5-5.627-.537-.646-.017-1.29-.035-2.047-.166.684.1 1.326.051 1.896-.15-1.06-.336-1.97-.355-2.824-.069q.153.05.305.09-.3-.072-.63-.174c-.828-.415-1.274-.44-1.72-.466-2.387-.254-4.774-.507-7.361-.926 2.468.384 4.876.57 7.185.555-3.396-.703-6.617-1.033-9.748-1.02l.39.08q-.406-.078-.82-.164c-2.558-.47-4.598-.51-6.638-.55-3.797 1.577-7.483 1.97-11.37-1.464-2.89-.472-5.26-.51-7.628-.547-5.737 1.735-11.365 1.696-17.36-1.474-2.901-.47-5.268-.502-7.636-.535-1.477.295-2.981.902-4.436.95 1.452-.053 2.933-.7 4.23-1.317-6.722-.685-13.24-1.005-19.642-.957l-.426-.088c-1.223-.418-1.966-.376-2.709-.336a212 212 0 0 1-6.037-.168c1.95.07 3.833.082 5.602.068-4.032-.337-7.655-.582-11.16-.49l-.7-.08c-1.229-.49-1.981-.522-2.732-.555-1.692-.02-3.384-.039-5.225-.18 1.745.098 3.433.035 5.037-.193-2.71-.391-5.235-.416-7.66-.086l-.498-.072c-3.899-.68-7.26-.918-10.619-1.156l-5.252 3.603c1.751-1.201 3.501-2.401 4.856-3.709-1.485-.047-2.574.012-3.737.367a14 14 0 0 1-1.568 1.46c.482-.413.93-.878 1.25-1.544-2.022-.42-3.801-.461-5.58-.502-1.308-.029-2.616-.058-4.082-.216 1.368.123 2.68.077 3.906-.145-2.063-.397-3.95-.432-5.746-.117l.088.017q-.255-.043-.518-.093c-6.562-.767-12.604-1.108-18.646-1.45-3.793 1.602-7.47 1.935-11.395-1.433-5.23-.486-9.917-.534-14.601-.582-2.753-.239-5.504-.477-8.442-.863 2.824.347 5.584.516 8.245.502-4.064-.696-7.931-1.033-11.702-1.018l-.484-.082c-3.905-.4-7.263-.366-10.621-.332-5.577 3.538-10.686 1.015-16.389-1.684-2.895-.425-5.219-.388-7.543-.35-1.742 1.448-3.812 2.102-5.699 1.952 1.8.13 3.78-.544 5.34-2.035-3.47-.333-6.58-.58-9.53-.623.694 1.336 1.87 2.174 3.231 2.508a5.6 5.6 0 0 1-3.562-2.588c-.944-.31-1.396-.335-1.848-.362-1.706-.024-3.413-.049-5.27-.197a25.6 25.6 0 0 0 5.082-.176c-2.715-.4-5.245-.432-7.673-.107l-.487-.072c-6.574-.782-12.61-1.124-18.648-1.465-1.288-.02-2.575-.04-3.951-.155 1.305.05 2.564-.02 3.761-.21-2.29-.375-4.41-.418-6.435-.137q-.338-.06-.686-.131c-5.888-.812-11.289-1.093-16.69-1.373-2.726-.235-5.454-.47-8.362-.85 2.795.34 5.528.504 8.164.489-4.06-.694-7.92-1.028-11.688-1.012l-.498-.084c-4.569-.48-8.588-.522-12.607-.565-1.055.568-2.211 1.682-3.186 1.82.972-.143 2.103-1.297 2.969-2.185-4.748-.702-9.28-1.04-13.717-1.021 3.503 1.347 6.87 2.556 10.342 3.203-3.473-.647-6.84-1.856-10.79-3.285-3.565-.403-6.59-.368-9.614-.334-.448 1.14-.958 1.759-1.547 1.859.493-.168.89-.804 1.154-1.945-1.462-.102-2.533-.12-3.549.203q-.117-.161-.236-.338c-2.133-.766-3.988-.846-5.842-.928-1.716-.026-3.432-.053-5.31-.205 1.775.112 3.491.057 5.12-.168-2.719-.402-5.249-.438-7.68-.113l-.501-.072c-6.648-.703-12.73-.965-18.813-1.227-1.342-.05-2.683-.1-4.148-.26 1.368.126 2.66.127 3.824.041-2.378-.414-4.434-.608-6.367-.418l-.432-.086c-6.255-.82-11.971-1.164-17.687-1.51-3.49 1.655-6.824 1.8-10.397-1.447-5.227-.481-9.912-.529-14.597-.576-1.671 2.611-3.317 2.786-5.305-.463-.816-.441-1.262-.468-1.707-.496-1.49-.018-2.978-.034-4.621-.174 1.545.1 3.03.036 4.435-.193-2.387-.384-4.592-.404-6.7-.072l-.481-.077c-3.903-.402-7.258-.37-10.613-.337l-4.8 1.734c.163-.484.325-.967.454-2.02-1.248-.665-2.46-.762-3.674-.859-1.71-.026-3.422-.053-5.285-.205 1.766.11 3.474.055 5.096-.168-2.715-.403-5.244-.439-7.67-.117l-.48-.07c-8.742-.498-8.833-.501-8.669-8.483.232-11.273.582-22.543.938-33.812.292-9.266.72-18.527.982-27.793.138-4.856-.044-9.72.082-14.577.189-7.262.523-14.52.795-21.78-.808-.895-2.053-1.703-2.512-2.665.461.955 1.715 1.717 2.6 2.25.012-1.818-.063-3.221-.479-4.726-.897-1.68-1.456-3.257-2.394-5.905.938 2.648 1.497 4.225 2.472 5.444.462-5.71.506-11.059.551-16.409-.24-2.326-.555-4.653-.806-6.98.289 2.298.72 4.57 1.18 6.762a514 514 0 0 0 .94-33.694c-.093.25-.163.489-.25.735.132-.418.182-.733.339-1.194.486-10.018.399-19.46.627-28.894.046-1.926 1.272-3.824 1.953-5.735.879-.548 1.743-1.446 2.63-1.787-.873.342-1.667 1.235-2.17 1.762 4.817-.353 9.171-.682 13.237-1.309-3.678-.428-7.075-.731-10.453-.59 3.378-.141 6.774.163 10.916.567 4.772.198 8.792.122 12.812.047.463-1.385 1.074-2.3 1.94-2.55-.771.266-1.291 1.208-1.57 2.646 1.8-.26 3.234-.614 4.591-1.297-.866-.841-1.611-1.29-2.24-1.4.727.096 1.601.561 2.662 1.47 2.208.354 3.918.307 5.627.26.998-.465 2.003-1.234 2.998-1.567-.973.338-1.89 1.125-2.537 1.653 5.162.027 9.864-.03 14.453-.467a86 86 0 0 0-5.473-.918c1.883.246 3.837.585 5.936.988 8.925.397 17.273.344 25.621.291 1.56-1.725 3.216-2.227 4.975-2.066-1.657-.14-3.198.386-4.526 2.154 3.493.028 6.538-.033 9.477-.465-1.343-.653-2.67-1.244-3.941-1.529 1.36.296 2.78.91 4.267 1.598.87.377 1.307.314 1.744.25.833-.358 1.66-.86 2.492-1.229-.78.376-1.486.909-2.029 1.315a5872 5872 0 0 0 50.008-.975c.858-.02 1.702-.552 2.35-1.133-1.752-.722-3.397-1.63-5-2.011 1.627.38 3.364 1.28 5.468 1.984 9.969.247 19.266.29 28.56.17 1.723-.022 3.436-.692 5.153-1.063.3-.217.599-.436.975-.627a2 2 0 0 0-.666.7c.749-.23 1.212-.527 1.53-1.034a6 6 0 0 1 .419-.103c1.946-.12 3.355-.424 4.764-.73.27-.24.54-.48.873-.698-.25.21-.44.445-.559.674.723-.324 1.169-.629 1.461-1.125q.204-.075.438-.139c4.62-1.529 8.69-3.25 12.761-4.972.416-.31.833-.62 1.352-.934-.437.322-.78.657-1.031 1.016 1.02-.503 1.777-1.072 2.255-1.659q.237-.106.502-.214c1.788-.327 2.87-.633 3.954-.938.273-.251.545-.503.88-.73a2.3 2.3 0 0 0-.568.7c.724-.338 1.168-.65 1.455-1.16q.177-.068.377-.126c1.274-.168 2.05-.533 2.828-.897.303-.224.606-.449.987-.646a2 2 0 0 0-.674.722c.75-.236 1.21-.545 1.525-1.064q.191-.057.406-.106c3.268-.868 6.01-1.916 8.752-2.964a16 16 0 0 1 1.338-.932c-.43.321-.77.655-1.017 1.012 1.015-.502 1.768-1.07 2.244-1.657q.242-.11.513-.22c3.119-1.057 5.523-2.095 7.928-3.133.302-.227.604-.453.98-.652a2.04 2.04 0 0 0-.667.72c.748-.243 1.207-.55 1.52-1.068q.182-.055.388-.102c1.94-.442 3.372-1.072 4.803-1.7a7.4 7.4 0 0 1 .875-.698c-.252.208-.447.44-.567.662.726-.327 1.177-.623 1.47-1.113q.186-.068.395-.125c1.281-.118 2.05-.432 2.819-.746.274-.243.549-.487.885-.705a2.3 2.3 0 0 0-.573.68c.728-.325 1.175-.627 1.469-1.126q.185-.067.393-.125c1.283-.102 2.059-.403 2.834-.705 2.779-2.267 5.056-4.942 8.761-6.039-3.7 1.097-5.935 3.767-8.379 6.008 3.086-1.055 5.855-1.931 8.475-3.135a196 196 0 0 0 14.023-7.144c-.534-.447-1.121-.976-1.537-1.133.43.153 1.076.675 1.844 1.096.879-.057 1.344-.356 1.81-.655 1.32-.784 2.638-1.569 4.028-2.322a54 54 0 0 0-3.656 2.293c2.63-1.272 4.932-2.52 7.047-3.975q.34-.15.69-.298c.968-.085 1.43-.39 1.894-.694.276-.25.552-.5.888-.726a2.3 2.3 0 0 0-.578.691c.729-.34 1.178-.647 1.467-1.15q.166-.063.351-.118c.94-.103 1.405-.404 1.87-.705a7.6 7.6 0 0 1 .888-.728 2.3 2.3 0 0 0-.576.699c.727-.339 1.173-.65 1.461-1.156q.167-.062.354-.117c.941-.095 1.409-.39 1.877-.686.324-.302.648-.605 1.017-.867-.299.26-.55.554-.738.842.79-.386 1.338-.75 1.767-1.383a4 4 0 0 1 .36-.11c.568.3.741.24.914.18.432-.397.862-.794 1.357-1.193-.411.368-.758.723-1.047 1.05 1.168-.817 2.1-1.525 2.745-2.228q.287-.172.607-.346a16 16 0 0 0 3.014-.953c.928-.594 1.858-1.19 2.857-1.756a29 29 0 0 0-2.5 1.721c1.981-.96 3.65-1.89 5.129-3.035q.323-.14.66-.274c5.332-3.037 10.097-6.303 14.861-9.57.713-2.005 1.895-3.267 3.477-4.056-1.498.77-2.583 2.03-3.104 4.017 3.119-1.715 5.863-3.39 8.206-5.08-1.54.043-2.936.229-4.131.645 1.272-.446 2.757-.664 4.435-.745 1.508-.68 2.308-1.273 3.11-1.869.675-.515 1.468-1.03 2.164-1.545-.64.507-1.276 1.014-1.813 1.514 2.123-1.344 3.894-2.657 5.297-3.984-.203.126-.36.254-.557.38.199-.129.34-.259.545-.388.29.005.354.021.368.027v.002c.149-2.228 1.178-3.974 2.74-4.861-1.485.86-2.44 2.606-2.389 4.83 2.461-1.678 4.57-3.324 6.406-5.104-1.24-.426-2.417-.4-3.414-.015 1.071-.424 2.339-.484 3.713-.084 1.363-.56 2.153-1.155 2.944-1.75.106-1.626.63-2.717 1.59-3.367-.87.641-1.306 1.72-1.243 3.326 2.121-1.355 3.895-2.669 5.27-4a10 10 0 0 0-1.87-.04q.989-.106 2.245.003c3.505-1.418 6.236-2.815 8.967-4.213.468-.4.937-.8 1.48-1.168-.466.366-.86.776-1.162 1.193 1.068-.543 1.846-1.11 2.44-1.908q.184-.083.382-.16c.964-.083 1.43-.38 1.897-.676.408-.363.817-.725 1.316-1.092a5.3 5.3 0 0 0-.99 1.059c1.035-.635 1.79-1.24 2.236-1.856q.164-.09.34-.183c.602-.029 1.066-.2 1.066-.2.219-1.84.974-2.93 2.27-3.46-1.222.524-1.906 1.637-1.926 3.539 2.132-1.222 3.92-2.52 5.315-3.836-.878-.097-1.663-.102-2.342.006.754-.13 1.635-.138 2.642-.05 1.156-.32 1.618-.615 2.08-.91.277-.256.552-.513.89-.745-.26.222-.458.471-.577.71.726-.346 1.17-.662 1.455-1.177q.164-.065.346-.121c.94-.1 1.41-.394 1.879-.688.491-.433 1.02-.864 1.601-1.297-.559.428-.993.854-1.275 1.27 1.116-.677 1.905-1.326 2.336-1.99-.132.077-.242.156-.364.234.125-.081.216-.163.35-.244.279.003.341.023.356.031v.002c1.255-.748 2.51-1.495 3.837-2.217a54 54 0 0 0-3.462 2.19c2.577-1.248 4.833-2.472 6.912-3.895q.446-.196.91-.388c2.657-.165 4.713-.546 6.767-.926.365-.245.728-.49 1.19-.711-.378.232-.668.5-.873.789.98-.312 1.682-.692 2.088-1.229q.226-.06.478-.11c3.206-.384 5.674-.949 8.143-1.513.409-.24.817-.48 1.295-.695-.383.21-.705.44-.951.668 1.052-.327 1.798-.628 2.36-1.15q.266-.065.563-.12c11.495.221 22.328.244 33.159.155 1.524-.013 3.044-.572 4.566-.877.628-1.863 1.617-3.162 3.215-3.776.984-.377 2.198-.497 3.705-.32 1.137-.674 1.618-1.267 2.098-1.861.392-.363.783-.726 1.273-1.102-.411.36-.728.716-.953 1.059 1.023-.653 1.763-1.268 2.193-1.89q.192-.115.403-.231c1.402-.934 2.129-1.775 2.855-2.617-.319-1.03-1.16-2.492-1.078-3.192-.08.698.8 2.14 1.389 3.03 2.47-5.167 4.61-10.173.41-15.215-.526.556-1.062 1.188-1.168 1.539.104-.362.646-1.059 1.201-1.95-.236-2.535-.877-4.51-1.518-6.484-2.762.148-3.374-1.282-2.564-4.127.12-.433-.012-.565-.03-.58v-.002c-.534-.222-1.068-.445-1.618-.742.51.226.998.381 1.453.482-1.084-.744-2.034-1.279-2.965-1.504q-.224-.186-.453-.402c-1.353-.875-2.559-1.011-3.764-1.148-.476-.241-1.069-.617-1.562-.877.49.23.97.43 1.424.57-1.415-1.004-2.691-1.7-3.913-2.057.472.347.925.6 1.381.868-.573-.325-1.036-.526-1.7-.956-.82-.462-1.264-.493-1.708-.525-.324-.067-.649-.135-.992-.277.314.067.614.06.887-.018-.627-.385-1.17-.536-1.69-.451a5 5 0 0 1-.328-.275c-1.065-.736-1.97-.86-2.877-.983-1.272.989-3.755.651-8.389-1.49-5.569-.463-10.587-.5-15.603-.535-.38 0-2.566.054-2.886-.057-.37-.04 1.492-.108 1.227-.226-3.71-.783-5.762-1.287-9.228-1.336a8 8 0 0 1-.123-.24c-.075-.628-.254-1.08-.254-1.08-1.792-.757-2.764-1.798-2.844-3.065.1 1.157 1.093 2.09 2.928 2.629.016-2.494-.052-4.553-.502-6.596-1.418 1.173-2.206 2.309-2.39 3.316.182-1.118.992-2.387 2.472-3.773.504-4.826.543-9.18.582-13.535.01-2.95.02-5.9.149-8.998-.083 3-.01 5.938.228 8.787.385-4.663.406-9.122.062-13.469l.06-.67c.812-11.254 1.172-21.946 1.532-32.638-.01-3.756-.01-7.512.1-11.38-.06 3.791.031 7.52.276 11.16.359-5.935.361-11.663 0-17.28l.05-.747c.483-.881.508-1.324.534-1.767 0-3.125 0-6.25.111-9.514a92 92 0 0 0 .272 9.309c.368-4.971.37-9.745.01-14.41q.028-.365.059-.733c.43-2.907.399-5.267.369-7.627-.117-.847-.234-1.694-.293-2.607.079.813.221 1.56.387 2.193.033-1.772-.022-3.152-.395-4.443q.014-.238.035-.485c.094-1.875-.218-3.28-.53-4.685-.444.003-.889.007-1.667.004l-.334-.123c-.01-.973-.028-1.963-.305-3.422-.521-.824-.764-1.142-1.326-1.383-.718.872-1.049 1.593-1.09 2.201-.01-.679.314-1.505 1.06-2.539-3.66-3.095-7.609-5.778-11.558-8.459-7.184.213-14.368.475-21.554.563 7.186-.088 14.37-.348 21.238-.795-7.92-.736-15.522-1.239-23.184-1.305.533.89 1.116 1.835 1.696 2.053-.587-.218-1.224-1.174-2.18-2.133-14.552-.566-28.678-.617-42.805-.668-4.224-.003-8.45-.007-12.816-.129a167 167 0 0 0 12.601-.248c-6.608-.375-13.01-.389-19.3-.039l-.827-.05c-2.578-.49-4.614-.528-6.648-.565-.66-.034-1.318-.068-2.473-.463-10.509-.413-20.522-.464-30.535-.516-3.54 2.084-6.76 1.094-10.367-1.453-2.21-.402-3.916-.375-5.621-.347l-.92 1.418a64 64 0 0 0-1.455-2.083c-.759-.437-1.2-.478-1.64-.52-.649-.076-1.297-.152-2.393-.589-2.833-.715-5.216-1.07-7.6-1.424-.573-.034-1.145-.07-1.803-.199a3.8 3.8 0 0 0 1.672-.13c-1.04-.37-1.954-.421-2.805-.169a11 11 0 0 1-.384-.135c-1.576-.674-2.742-.893-3.907-1.11-2.222-.407-4.444-.813-7.097-1.688-2.16-1.173-3.89-1.874-5.62-2.577-2.31.875-5.069 2.884-5.449-2.525-7.75-3.832-15.15-7.153-22.552-10.473-7.086.029-10.023-1.556-11.407-6.46-.758-.505-1.201-.53-1.644-.555-1.375 1.682-2.045 1.374-2.566.55.499.758 1.133.97 2.421-.867-1.344-.764-2.551-1.23-3.714-1.384a2 2 0 0 0-.127-.12c-.071-.435-.264-.539-.264-.539-.858-.11-1.714-.22-3.008-.753a2 2 0 0 0-.185-.159v.002c.01.02.075.094.138.166a1.6 1.6 0 0 1-.453-.037.9.9 0 0 0 .34-.066c-.234-.225-.374-.363-.692-.248a1 1 0 0 1-.078-.254c.117-.75-.03-.884-.177-1.016-1.786.392-7.363-1.63-10.157-3.469 2.786 1.83 8.32 3.813 9.913 3.243-3.438-2.355-6.63-4.483-10.034-6.344-.554.661-1.3 1.3-1.404 1.594.102-.295.828-.947 1.233-1.707.04-.38-.358-.28-.358-.28-1.411.548-2.694.978-3.656.424.934.52 2.146.04 3.38-.629-2.71-2.401-5.147-4.597-7.577-6.43.85 1.548 2.1 2.729 2.627 4.034-.531-1.306-1.804-2.497-2.86-4.127-.403-.489-.567-.519-.732-.549a10 10 0 0 1-1.063-.799q.525.376 1.018.46c-.632-.709-1.228-1.132-1.795-1.28a9 9 0 0 1-.22-.287c-.398-.745-.694-.912-.99-1.078-2.633-1.689-5.265-3.378-8.25-5.545-1.47-1.147-2.591-1.815-3.712-2.483-.325-.074-.65-.148-.992-.299q.477.114.896 0c-.621-.4-1.165-.56-1.687-.48a5 5 0 0 1-.307-.266c-1.385-1.385-2.623-2.172-3.861-2.959a17 17 0 0 1-1.348-.963c.42.306.848.534 1.252.688-.818-.899-1.54-1.522-2.416-1.8q.078.097.158.189a7 7 0 0 1-.22-.26c.086-.39-.041-.515-.057-.53-.763-.21-1.524-.421-2.354-.966-.055-.272-.038-.341-.029-.358v-.006c-1.174-.315-2.95.432-3.922-.308a1.4 1.4 0 0 1-.129-.112c-.433-.427-.662-1.229-.527-2.7.115-.429-.018-.559-.035-.573-2.154.686-7.909-1.026-9.906-2.846 1.995 1.817 7.73 3.497 9.722 2.575-3.202-2.189-6.219-4.107-9.28-5.723-.356.876-1.042 1.68-1.075 2.176v.101c0-.032-.01-.066 0-.101.032-.5.705-1.337.963-2.479-.982-1.068-1.899-1.532-2.815-1.996-4.941-.335-9.426-1.503-12.97-4.996 3.542 3.487 8.013 4.62 12.838 4.668-7.37-4.446-14.607-8.566-21.809-12.315l-.156-.271c-.468-.68-.798-.743-1.13-.807a10 10 0 0 1-1.177-.3c.344.082.653.113.914.11-.901-.445-1.597-.745-2.21-.76a7 7 0 0 1-.393-.284c-.875-.72-1.515-.76-2.155-.797a32 32 0 0 1-2.482-.959 12 12 0 0 0 2.213.772c-1.358-.726-2.447-1.264-3.469-1.428.286.174.567.323.844.463-.384-.177-.734-.314-1.166-.547-.835-.487-1.279-.517-1.723-.547a51 51 0 0 1-3.287-.848c1.094.314 2.151.497 3.137.522-1.724-.688-3.3-1.05-4.807-1.088.26.105.515.19.772.28-.385-.127-.723-.21-1.14-.366-1.847-.772-3.26-1.136-4.675-1.5-.645-.08-1.29-.157-2.34-.6-2.826-1.365-5.248-2.367-7.67-3.369-2.854 1.384-5.622 2.11-8.394-1.468-3.2-.481-5.898-.515-8.596-.55l-.719 3.36a818 818 0 0 1-5.673-4.85c-1.775-.43-3.064-.418-4.354-.408-3.704 4.675-6.078-.713-9.603-1.638-2.252-.742-3.999-1.31-5.747-1.315zm25.377 8.211c.341-1.596.53-2.478.578-3.677-2.085-.697-4.03-1.075-5.87-1.092 1.674 1.695 3.244 3.029 5.292 4.77m84.705 35.192q.061.06.13.111c.941.712 2.703-.112 3.808.006-1.482-1.245-2.85-2.185-4.403-2.744-.153 1.43.055 2.215.465 2.627m132.108 69.043c.306-.473.613-.945.644-1.532-.775-.332-1.276-.552-1.78-.462.377.87.756 1.432 1.136 1.994m157.248 18.402c.778.003 1.223 0 1.636-.348-.688-1.379-1.345-2.415-2-3.072.011 1.39.02 2.403.364 3.42m43.869 168.227c-1.527.58-2.442 1.885-2.848 3.75 2.464-1.34 4.561-2.652 6.278-3.977-1.379-.209-2.514-.121-3.43.227m-449 326.677c1.6-.577 3.2-1.156 4.406-1.818-1.465-.1-2.537-.114-3.764.12-.318.732-.48 1.215-.642 1.698m-300.166 145.676c-.484.757-.967 1.514-1.274 2.502 2.201.721 4.224 1.21 6.18 1.37-1.68-1.511-3.293-2.692-4.906-3.872m-214.48-40.557c-1.45-.03-2.505-.056-3.883-.068-1.11.266-1.898.515-2.291.87 2.459.471 4.525.839 6.6.872-.007-.78-.019-1.225-.427-1.674m-28.88-8.025c-1.17-.324-2.412.229-3.7 2.04.017.38.033.761.435 1.509 1.444.406 2.504.447 3.564.486.778-.34 1.555-.683 2.614-1.385-.903-1.394-1.88-2.363-2.913-2.65m-59.736-54.316c-.68-.775-1.314-1.23-1.932-1.338.323 1.122.628 1.9 1.16 2.568.424-.375.621-.643.772-1.23m-257.978-23.356c-.664.826-1.327 1.652-1.631 2.565a33 33 0 0 0 2.57.144c.195-.017.39-.035.815-.414-.432-1.006-1.093-1.65-1.754-2.295m-67.77-14.058c-.742-.17-1.442-.16-2.07.033 1.046.388 1.965.446 2.826.195a6 6 0 0 0-.756-.228M184.98 650.482a4.6 4.6 0 0 0-1.745-1.222c.664.915 1.37 1.545 2.24 1.857a6 6 0 0 0-.495-.635m-98.842-232.15c-2.664-2.42-4.28-3.887-5.975-5 .558 1.796 1.194 3.238 2.129 4.705.986.078 1.674.13 3.846.295m-20.393-68.121c.155-.746.132-1.45-.072-2.076-.367 1.055-.409 1.974-.14 2.836q.135-.386.212-.76m110.652-32.229c1.471-.002 2.542-.002 3.983-.006a488 488 0 0 1 2.601.004c1.513-.152 3.026-.305 4.563-1.11-6.17-.41-12.365-.164-18.291.37 2.427.44 4.585.593 7.144.742m6.87.29c3.439.097 6.594-.096 9.408-.293-1.124-.344-1.904-.681-3.014-.983-.767.012-1.207-.012-1.894.246-1.76.435-3.272.587-4.5 1.03m272.959-.43c.428-.605.622-1.083.359-1.662-5.173.187-9.887.478-14.31 1.066 4.766.44 9.24.582 13.95.596m46.033 1.115c.786-.6 1.264-1.172 1.416-1.826-.767-.039-1.21.002-1.66.346-.027.703-.046 1.104.244 1.48m754.357-272.076c.8-1.24 1.598-2.478 2.024-3.799-1.133-.027-1.893.027-2.692.426.196 1.353.433 2.363.668 3.373m204.455-3.326c3.108.836 5.482 6.223 8.99 1.25-3.156-.731-6.116-1.163-8.99-1.25m-12.732 1.675c-.28.042-.56.1-.84.15q.42-.088.84-.15m-163.535.172q.09.075.16.149c-.151.306-.166.615-.17.924 0-.357.01-.716.01-1.073m136.408.034c0 .385-.01.772-.014 1.158q-.091-.075-.16-.149c.165-.335.17-.672.173-1.01zm24.603.65c.861.333 1.724.424 2.588.516l-2.863-.305q.138-.114.275-.211m44.227 1.55c2.33 3.494 5.1 2.767 7.783 1.032-2.728-.699-5.286-1.046-7.783-1.031m-6.23 1.803c.103.102.262.148.423.19l-.6-.156a1 1 0 0 1 .176-.034m22.873 2.909a1.9 1.9 0 0 0-.657.123c.686.359 1.332.438 1.877.215-.44-.23-.843-.34-1.22-.338m-272.073 1.654c-1.719 2.37-3.078 4.692-4.095 6.959 1.712-2.371 3.084-4.69 4.095-6.959m-3.617 15.88c.091 1.278.182 2.173.274 3.07l-.274-2.688zm338.328 16.42a2 2 0 0 0-.242.012c.818.567 1.58.778 2.182.739-.747-.465-1.369-.74-1.94-.75m14.701 10.311c2.554 1.36 5.154 3.052 7.85 5.07-2.537-1.361-5.171-3.05-7.85-5.07m-354.271 14.612.262 3.267v.381c-.088-1.47-.175-2.56-.262-3.648m386.744 9.31a1.3 1.3 0 0 0-.545.098c1.097.746 1.955.857 2.647.697-.805-.468-1.515-.785-2.102-.795m8.479 4.078c1.065 4.805 4.003 6.389 10.949 6.037-3.742-2.354-7.345-4.385-10.95-6.037m33.992 17c.03 5.242 2.789 3.234 4.959 2.043-1.746-1.006-3.353-1.698-4.96-2.043m11.076 5.022a28.8 28.8 0 0 0 6.44 1.388c-2.372-.732-4.442-1.251-6.44-1.388m22.633 4.724a1.9 1.9 0 0 0-.658.125c.688.357 1.335.433 1.88.207-.443-.227-.844-.335-1.222-.332m11.383 2.246c3.188 2.467 6.409 3.456 9.748 1.012-3.412-.694-6.623-1.027-9.748-1.012m41.828 1.807a1.9 1.9 0 0 0-.885.17c.696.308 1.353.342 1.889.086a2.9 2.9 0 0 0-1.004-.256m-518.79 1.086q.088.195.165.4c-.165 1.76-.164 3.352-.164 4.944zm498.852 1.272-1.869.23-.254-.008a47 47 0 0 0 2.123-.223zm110.795 3.595.613.158a1 1 0 0 1-.172.034c-.107-.106-.274-.148-.44-.192m-725.623 26.303c-.733.036-1.39.235-1.943.576 1.063.084 1.945-.084 2.703-.557a5 5 0 0 0-.76-.019m100.973.336h7.54l-.091.021c-2.688-.021-5.068-.021-7.45-.021zm-28.04 1.228q.17.026.321.055c.02.578.295 1.092.572 1.608zm1.813.551q.263.133.5.272c-.158-.093-.333-.181-.5-.272m-111.037 1.265.309.015c-.613.505-.917.994-1.211 1.482zm-103.631 2.22c-1.69.477-2.145.607-2.601.736h-.387c.848-.131 1.31-.262 2.988-.736m-139.289 2.007q.126.042.238.088c-.173.496-.123.946-.074 1.395zm1020.098 34.98c.133.824.264 1.272.713 2.8l-.713-2.426zm28.066 67.321c4.175 2.063 6.658 2.4 7.754 1.067-2.733-.701-5.29-1.058-7.754-1.067m26.447 10.365c-.87 2.766-.256 4.197 2.483 3.707-.78-1.59-1.537-2.84-2.483-3.707m-1702.457 8.184a9 9 0 0 0-.875.002c-4.402.235-8.8.548-13.2.832.78.338 1.562.676 3.148 1.014 5.163-.34 9.52-.679 13.718-1.338-.996-.293-1.908-.467-2.79-.51m121.725.46c-4.59.567-9.406.766-14.514.667 4.569-.543 9.428-.788 14.514-.666m212.955.438c-.576.016-1.081.077-1.53.207 1.417.44 2.602.604 3.796.565.009-.204.013-.61-.315-.703a20 20 0 0 0-1.95-.069m-437.06.122c-2.199.635-4.051 1.352-5.516 2.292 1.864.315 3.34.409 4.937.235.388-.993.657-1.718.579-2.527m-20.93 7.027c-.348.239-.434.54-.33.781.43-.214.562-.436.33-.781M103.7 447.896a3 3 0 0 0-.238.016c1.027.43 1.79.667 2.443.541-.853-.426-1.623-.572-2.205-.557m99.35 7.407c.76 1.252 1.495 2.19 2.408 2.8-.692-1.255-1.563-2.185-2.408-2.8m1387.83 4.687h.406c-1.348.064-2.292.13-3.234.194zm-89.22 1.719c.08.24.215.429.37.598a30 30 0 0 1-.588-.594q.117-.01.217-.004m-70.118 13.218q.057.212.104.409c-.302.77-.462 1.716-.622 2.66zM207.648 567.175c-1.676 5.26-3.006 10.343-3.95 15.517 4.67-3.365 6.906-8.213 3.95-15.517m178.012 76.201c.156.037.311.065.467.11-.156-.045-.311-.074-.467-.11m15.358 2.035c.156.15.361.25.584.326-.28-.083-.558-.178-.836-.27q.132-.034.252-.056m.87.02q.184.045.354.101c-.114-.037-.235-.068-.353-.101m3.4 1.47c-1.018.063-2.072.6-3.13 1.452 2.399.684 4.634 1.018 6.809 1-1.122-1.83-2.372-2.533-3.68-2.452m11.95.637-1.199.281a1 1 0 0 1 .065-.156c.437.039.785-.043 1.134-.125m.926 2.805c2.395.701 4.625 1.056 6.777 1.076-2.366-.699-4.653-1.06-6.777-1.076m12.988.81c-.888.264-1.074.532-.974 1.217 3.07.693 5.957 1.036 8.799 1.082-.673-.693-1.3-1.087-1.928-1.482-1.765-.294-3.529-.588-5.897-.817m23.973 6.166c1.383.673 2.64 1.024 3.852 1.051-1.357-.674-2.667-1.022-3.852-1.05m-260.076.842c-.61-.01-1.363.248-2.297.85 1.752 1.42 3.326 2.573 4.922 3.302-.427-2.336-1.066-4.124-2.625-4.152m38.238.238-.469.34q.01-.082.037-.136c.177-.02.305-.111.432-.204m252.457 5.758a2.1 2.1 0 0 0-.691.123c.719.352 1.376.444 1.965.215-.451-.233-.875-.341-1.274-.338m8.008 2.022q-.345 0-.652.123c.708.367 1.315.43 1.88.217-.43-.225-.845-.34-1.228-.34m982.584 1.187a10.6 10.6 0 0 0-2.31.237c1.663 3.166 3.31 2.99 4.796.035a13 13 0 0 0-2.486-.272m17.725 1.276c3.114 3.161 6.449 3.018 9.744 1-3.406-.693-6.618-1.022-9.744-1m-12.008 1.521q.112.009.21.022c-.04.243.029.525.178.65-.166-.135-.257-.45-.388-.672m.965.225q.118.056.22.115c-.069-.04-.147-.077-.22-.115m25.218 1.64v.078c-.543.08-.917.19-1.29.297zm-.552.752a9 9 0 0 1-.426.287c.149-.094.284-.191.426-.287m16.511 1.574c.495.228 1.137.322 1.78.416l-2.104-.308q.17-.06.324-.108m-997.095.967c1.046.675 1.988 1.038 2.892 1.094-1.023-.673-2.011-1.04-2.892-1.094m1092.902 6.332-1.484.35v-.053a18 18 0 0 0 1.48-.297zm14.51 2.075c.938.143 1.746.144 2.554.144h-2.752q.093-.078.198-.144m51.527.867c5.274 2.62 10.382 5.143 15.55 1.51-5.503-.696-10.597-1.295-15.55-1.51m16.438 3.484a1 1 0 0 1 .064.078 2.9 2.9 0 0 0-.787.356zm37.583.584c3.468 3.28 7.145 2.948 10.743.977-3.742-.689-7.287-1.008-10.743-.977m-1150.27 1.281c-.487.056-.68.073-.714.395 1.423.68 2.685 1.056 3.885 1.107-1-.73-1.941-1.134-3.172-1.502m1141.583.89c-.14.049-.278.103-.418.151l-.254-.004a7 7 0 0 0 .672-.146m12.803 1.267h5.32q-.194.085-.398.162c-1.753-.163-3.338-.162-4.922-.162m-1123.332 3.412c-.534-.006-1.153.432-1.936 1.646 1.815.724 3.462 1.167 5.04 1.278-1.169-.752-1.93-2.91-3.104-2.924m159.677.793-2.736.642q.012-.06.03-.117c1.066-.14 1.886-.333 2.706-.525m-149.023.382c-.812.01-1.593.91-2.32 2.684 1.74.347 3.29.353 4.828-.01-.853-1.8-1.696-2.683-2.508-2.674m1181.555.475q.112.01.209.023c-.037.224.018.479.144.616-.145-.148-.232-.434-.353-.639m.963.225q.118.056.22.115c-.069-.04-.147-.077-.22-.115m37.06.226c5.559 3.089 11.185 3.129 16.727 1.026-5.739-.706-11.281-1.043-16.727-1.026m-1185.525.145-.84.8a2 2 0 0 1-.004-.216c.355-.118.599-.351.844-.584m1172.447 1.267 3.074.52q-.211.057-.41.101c-.772-.302-1.718-.461-2.664-.62m38.065.612c3.45 3.35 7.135 2.957 10.75 1.013-3.734-.7-7.285-1.033-10.75-1.013m-9.825 1.402c0 .026 0 .051-.01.076a9 9 0 0 0-1.28.291l1.286-.367zm-.586.764a10 10 0 0 1-.435.289c.151-.096.29-.193.435-.29m19.18 1.449a.6.6 0 0 1 .115.09c-.043.132.001.264.045.396zm30.223 1.348c2.365.693 4.655 1.045 6.773 1.052-2.398-.695-4.623-1.043-6.773-1.052m10.16 3.52h.156c-.244.106-.384.187-.443.276.06-.1.194-.184.287-.277m23.46 1.247a1.9 1.9 0 0 0-.657.131c.686.351 1.335.423 1.88.193-.442-.224-.844-.33-1.222-.324m-1103.54 4.973c1.23 2.8 2.534 5.235 3.84 7.67.18.005.362.01.795-.325.238-.779.223-1.22-.092-1.826-1.69-2.072-3.079-3.978-4.543-5.52m4.654 7.676c-.452.004-.634-.001-.771.332.345 1.11.647 1.882.949 2.654.448 0 .898.002 1.681-.338-.305-1.112-.946-1.885-1.859-2.648m1.328 2.998c-.476.009-.806.067-1.119.302.364.77.697 1.224 1.281 1.526.402-.707.554-1.26.37-1.826a16 16 0 0 0-.532-.002m5.367 14.115a.57.57 0 0 0-.283.113c.225.332.515.413.752.31-.14-.283-.283-.432-.469-.423m1131.512 13.014v12.433q-.013-.075-.022-.148c.02-4.316.022-8.301.022-12.285M908.662 767.998c-1.118.35-1.896.69-2.498 1.373 2.406.696 4.636 1.05 6.795 1.078-1.366-1.038-2.661-1.749-4.297-2.45m16.514 1.234c-1.126.139-2.228.715-3.184 1.723.569.274 1.138.55 1.725.912-.617-.35-1.266-.62-2.022-.88 1.083-1.037 2.275-1.624 3.48-1.755m37.584 7.498c1.192.125 2.364.148 3.316.54-.897-.313-2.001-.27-3.076-.272-.435.61-.871 1.219-1.584 1.87.712-.652 1.137-1.273 1.344-2.138m25.293 5.43q.113.009.21.022c-.034.21.013.45.124.591-.133-.153-.219-.418-.334-.613m.941.213q.134.061.246.127c-.076-.043-.163-.085-.246-.127m-.83 2.95c2.06.69 3.957 1.042 5.783 1.064-2.03-.69-3.986-1.046-5.783-1.065m11.002 2.03c2.398.702 4.625 1.061 6.772 1.085-2.368-.7-4.656-1.062-6.772-1.084m27.13 3.547c-1.015.059-2.069.587-3.126 1.416 2.393.696 4.624 1.04 6.79 1.032-1.112-1.823-2.357-2.523-3.663-2.448m8.44.463.631.162a1 1 0 0 1-.177.034c-.11-.109-.282-.151-.454-.196m.42 2.975c2.06.696 3.961 1.054 5.79 1.08-2.032-.694-3.99-1.057-5.79-1.08m10.016 2.006c2.396.706 4.62 1.07 6.768 1.092-2.364-.706-4.653-1.07-6.768-1.092m35.404 5.302.023.002h-.037zm.469.313a7.3 7.3 0 0 0-1.74.209c-.364.181-.332.557.039.656 2.842.693 5.312 1.287 7.67 1.485-2.066-1.047-4.017-1.699-5.97-2.35m127.967 7.074 3.058.51q-.21.056-.408.102c-.767-.298-1.709-.455-2.65-.612m-82.51 2.938c2.377.725 4.45 1.246 6.45 1.384-2.303-.784-4.527-1.187-6.45-1.384m9.648 2.367c2.426.695 4.693 1.06 6.836 1.045-2.414-.712-4.704-1.044-6.836-1.045m36.586 4.025.631.162a1 1 0 0 1-.178.034c-.11-.108-.28-.152-.453-.196m-5.43 1.756q-.15-.002-.279.145c.381.308.675.376.85.252-.216-.258-.404-.395-.57-.397m88.55 11.23c-.23 1.054-.32 1.765-.083 2.551 2.627.343 4.926.61 7.225.877 0 0 .01-.425-.064-.994-2.361-1.304-4.65-2.04-7.078-2.433zm7.165 2.79c-.014.213-.024.639.325.799 1.792.384 3.235.607 4.59.48a16.4 16.4 0 0 0-4.915-1.28m15.998.271c.156.15.361.25.583.326-.28-.083-.556-.178-.833-.27q.132-.034.25-.056m17.807 1.84q.073.045.117.09a.5.5 0 0 0 .014.3zm6.277 1.691c-1.29.02-2.605.512-3.921 1.397 3.068.701 5.955 1.047 8.755 1.047-1.55-1.711-3.173-2.468-4.833-2.444m33.122 3.288q.048.004.096.011zm17.58 1.917a1 1 0 0 1-.121.155c-.648-.083-1.185-.033-1.721.017zm-1.149.684q-.286.075-.584.135c.199-.04.39-.09.584-.135m56.918 5.955c-.91-.015-1.799.925-2.64 2.402 1.824.377 3.458.461 5.072.155-.811-1.787-1.63-2.544-2.432-2.557m18.252 2.465q.074.045.117.09a.5.5 0 0 0 .014.3zm92.414 11.285-1.205.281a1 1 0 0 1 .064-.156c.44.039.79-.043 1.14-.125zm17.942 1.733a.6.6 0 0 1-.037.134c-.178.019-.306.111-.434.203zm-15.016 1.086c2.398.68 4.628 1.012 6.777 1.01-2.369-.675-4.658-1.018-6.777-1.01m19.516.474c-1.485-.012-3.006.657-4.49 1.533 3.071.701 5.95 1.048 8.767 1.026-1.344-1.853-2.793-2.547-4.277-2.559m33.796 3.254q.035.037.062.076c-.36.101-.569.228-.779.354zm16.918 2.178c.28.083.558.18.836.271a3 3 0 0 1-.252.057 1.6 1.6 0 0 0-.584-.328m-.636.205c.113.037.234.068.351.101a5 5 0 0 1-.351-.101m18.63 1.793c.283.084.564.18.844.273a3 3 0 0 1-.25.059 1.6 1.6 0 0 0-.593-.332m-.63.209c.114.037.235.068.353.101a4 4 0 0 1-.353-.101m6.392 2.89c2.062.692 3.964 1.05 5.787 1.077-2.034-.69-3.99-1.051-5.787-1.077m18.537.08c-1.089.043-2.197.505-3.318 1.46 3.139.688 5.893 1.284 8.586 1.521-1.687-1.951-3.452-3.05-5.268-2.98m13.688 1.682c-.243.107-.383.188-.442.277.061-.1.195-.182.288-.275zm-.453.299c0 .007-.01.014-.01.021 0-.007.01-.014.01-.021m93.095 10.99c.156.149.36.252.58.328-.278-.083-.553-.178-.83-.27q.132-.035.25-.058m.872.022q.182.045.353.101c-.114-.037-.235-.068-.353-.101m38.886 4.69c-.63-.042-1.246.562-1.845 2.064 1.485.368 2.787.455 4.029.185-.739-1.33-1.47-2.203-2.184-2.25m-17.623.232c2.434.678 4.707 1.026 6.842 1.003-2.426-.69-4.715-1.014-6.842-1.003M1972.617 897c-4.275.238-7.772.935-7.267 5.977 2.791-2.006 5.233-3.985 7.267-5.977m-173.898.031q.087.029.164.057c-.397.228-.582.456-.768.683zm18.523 2.453-.72.432a1 1 0 0 1-.065-.076c.363-.102.574-.23.786-.356zm73.541 8.89.58.151a1 1 0 0 1-.176.034c-.1-.098-.249-.143-.404-.184m6.506 1.52c-1.015.057-2.064.587-3.12 1.446 2.4.68 4.63 1.01 6.798.99-1.127-1.798-2.374-2.508-3.678-2.436m11.535.356q.075.045.12.09a.5.5 0 0 0 .013.304q-.067-.196-.132-.394z" style="fill:#fff;fill-opacity:1"/></svg>