<svg xmlns="http://www.w3.org/2000/svg" viewBox="0 0 1959 708" xml:space="preserve"><path fill="#fff" d="M419.809 646.043c14.078-.321 27.674-.833 41.273-.928 60.093-.423 120.186-.727 180.28-1.072 1.797-.01 3.594-.001 5.573-.001v24.686c-8.931.412-17.775.86-26.624 1.207-3.488.137-6.986.063-10.479.063-68.998.004-137.996-.061-206.994.05-17.915.028-35.83.597-53.744.93-17.905.333-35.81.938-53.716.976-57.998.125-115.997.189-173.994-.078-11.86-.054-22.933-4.08-33.59-9.467-11.056-5.589-20.805-13.01-30.322-20.678-7.894-6.36-14.707-13.926-20.547-22.379-8.402-12.16-13.489-25.693-18.043-39.583-3.164-9.653-6.719-19.106-6.964-29.47-.098-4.164-1.634-8.283-1.832-12.455-.537-11.308 1.873-22.303 4.048-33.322 3.209-16.25 9.327-31.52 16.45-46.291 4.12-8.543 10.438-15.998 15.348-24.193 6.22-10.383 14.682-18.63 23.85-26.253 7.014-5.833 13.714-12.257 21.432-16.985 15.392-9.43 31.064-18.298 48.489-24 19.177-6.274 38.545-10.068 58.69-9.737 7.578.125 15.153.922 22.725.868 17.918-.127 35.835-.523 53.75-.927 8.91-.202 17.92.055 26.688-1.235 6.634-.976 13.006-3.938 19.407-6.256 13.455-4.871 25.14-13.034 37.434-20.11 12.558-7.23 23.693-16.18 34.838-25.297 7.65-6.257 15.91-11.865 24.335-17.055 11.475-7.068 23.117-13.956 35.156-19.985 9.493-4.755 19.642-8.234 29.6-12.014 6.69-2.538 13.434-5.133 20.374-6.76 8.329-1.953 16.848-3.435 25.366-4.156 10.542-.892 21.184-1.306 31.753-.975 9.94.312 20.068.887 29.698 3.13 10.616 2.473 20.793 6.884 31.096 10.628 7.93 2.882 15.91 5.7 23.602 9.141 17.09 7.647 32.4 18.147 47.125 29.675 18.933 14.822 36.998 30.534 53.776 47.781 9.282 9.54 18.803 18.955 29.062 27.398 6.145 5.057 13.735 8.525 21.02 11.983 6.996 3.321 14.359 5.94 21.714 8.414 4.094 1.377 8.465 2.194 12.775 2.62 9.317.918 18.665 1.678 28.018 2.036 14.414.551 28.876 1.413 43.25.73 6.784-.324 13.583-3.514 20.052-6.186 4.943-2.043 9.642-4.954 13.98-8.122 6.91-5.046 13.321-10.769 20.138-15.949 9.511-7.227 19.588-13.426 31.592-15.713 12.015-2.288 23.879-2.684 36.022.07 11.272 2.557 19.469 9.272 27.386 16.845 6.215 5.945 12.16 12.218 18.76 17.698 3.524 2.924 7.985 5.096 12.375 6.516 8.018 2.594 16.292 4.406 24.476 6.471 1.567.396 3.218.644 4.83.645 33.667.036 67.337.362 100.995-.157 11.86-.183 23.764-1.994 35.51-3.91 10.398-1.696 20.855-3.821 30.82-7.15 8.553-2.858 16.538-7.51 24.608-11.69 9.343-4.84 18.686-9.732 27.683-15.174 6.542-3.955 12.52-8.842 18.752-13.309 5.853-4.194 11.94-8.102 17.507-12.646 6.665-5.44 13.254-11.067 19.228-17.241 13.342-13.79 26.693-27.613 39.255-42.104 9.768-11.268 18.627-23.365 27.324-35.5 3.676-5.13 5.733-11.394 8.817-16.982 6.9-12.5 13.817-24.999 21.106-37.273 1.9-3.198 5.018-5.768 7.879-8.283 10.107-8.886 19.942-18.158 30.66-26.251 8.955-6.764 18.858-12.337 28.653-17.888 3.048-1.727 7.094-1.763 10.715-2.389 4.752-.82 9.529-1.501 14.306-2.162 4.832-.67 9.664-1.56 14.521-1.779 6.82-.307 13.665.012 20.496-.108 10.007-.174 19.645 1.858 29.421 3.775 16.338 3.205 31.41 9.442 45.72 17.469 14.74 8.269 29.082 17.273 43.37 26.318 13.85 8.768 27.427 17.969 41.092 27.028 16.954 11.24 34.361 21.874 50.691 33.96 21.702 16.064 43.108 32.747 60.123 54.016 10.801 13.502 20.78 27.673 30.844 41.747 7.114 9.95 12.051 21.057 15.329 32.83 2.52 9.053 5.05 18.132 6.896 27.336 2.376 11.847 5.23 23.778 5.77 35.768.673 14.955-.8 30.008-1.36 45.018-.042 1.15-.42 2.33-.264 3.442 1.183 8.421-2.91 15.77-4.825 23.532-1.717 6.956-3.99 13.787-6.29 20.58a115 115 0 0 1-5.264 12.87c-3.043 6.344-6.788 12.375-9.524 18.84-3.958 9.352-11.064 16.323-17.251 23.945-9.786 12.058-20.858 22.881-33.637 31.839-8.105 5.68-15.913 11.86-24.402 16.894-6.745 4-14.33 6.581-21.523 9.833-5.363 2.424-10.68 4.95-16.047 7.362-6.455 2.9-12.788 6.169-19.45 8.481-9.762 3.389-19.708 6.3-29.697 8.954-4.789 1.273-9.853 1.53-14.802 2.178-7.252.95-14.496 2.016-21.777 2.665-3.021.27-6.127-.621-9.194-.623-75.498-.04-150.996-.065-226.494.01-8.924.009-17.85.897-26.772.86-13.233-.057-26.462-.676-39.695-.87-10.488-.155-20.98-.102-31.47-.019-37.09.295-74.18.643-111.27.967-38.921.34-77.843.63-116.764 1.031-21.584.223-43.166.83-64.751.914-40.498.156-80.998-.023-121.496.11-13.59.044-27.177.793-40.768.91q-73.632.63-147.264 1.024c-24.832.132-49.665.03-74.498.033h-5.43v13.87h-19.504v-52.638h20.008v14.508c1.526.101 2.952.304 4.373.274 13.43-.28 26.857-.661 40.288-.886 7.859-.131 15.721-.004 23.582-.041 75.426-.356 150.853-.725 226.279-1.08 7.705-.036 15.412.083 23.117-.022 19.436-.263 38.87-.658 58.306-.907 9.175-.118 18.354.059 27.53-.04 28.26-.302 56.52-.707 84.78-1.002 10.706-.111 21.415.076 32.119-.067 14.272-.191 28.54-.776 42.81-.831 36-.14 71.999-.035 107.997-.137 5.96-.017 11.918-.851 17.874-.822 7.969.04 15.937.859 23.902.81 26.931-.167 53.861-.827 80.792-.813 30.597.017 61.194.837 91.79.8 43.931-.054 87.864-.378 131.79-1.037 9.167-.137 18.404-1.17 27.28-4.586 6.277-2.415 13.252-2.962 19.65-5.129 9.989-3.383 19.891-7.111 29.573-11.29 9.616-4.15 18.954-8.957 28.344-13.616 16.3-8.09 30.917-18.515 43.051-32.146 8.052-9.046 16.576-17.843 23.36-27.794 5.574-8.176 9.408-17.685 13.082-26.971a363 363 0 0 0 11.74-34.633c1.759-6.22 2.02-12.936 2.371-19.46.386-7.147-.009-14.33.122-21.495.322-17.647-2.397-34.956-6.716-51.93-3.004-11.807-6.749-23.558-11.57-34.726-3.554-8.23-8.678-16.048-14.342-23.044-12.187-15.051-24.607-30-38.028-43.933-9.15-9.5-19.648-17.931-30.441-25.57-23.48-16.621-47.406-32.626-71.396-48.51-20.259-13.414-40.569-26.8-61.412-39.268-16.438-9.833-34.173-17.727-53.185-20.508-12.923-1.89-26.341-.626-39.53-.362-5.678.114-11.322 1.403-17.004 1.92-10.405.946-18.94 6.121-26.968 12.114-9.674 7.22-19.38 14.484-28.36 22.524-9.122 8.166-16.55 17.873-22.25 28.885-11 21.25-21.523 42.572-36.817 61.536-16.687 20.691-34.782 39.884-53.972 58.04-18.178 17.197-37.596 33.194-59.47 45.556-19.669 11.115-39.077 23.011-61.04 29.441-12.277 3.595-24.333 7.964-37.455 8.071-10.017.082-20.073.815-30.028 1.978-31.649 3.695-63.395 1.661-95.086 1.72-23.602.044-46.028-5.664-65.487-19.848-5.268-3.84-9.662-8.87-14.528-13.275-5.15-4.663-9.903-9.991-15.694-13.665-8.56-5.43-18.278-4.647-27.964-2.828-11.316 2.125-20.304 8.544-28.594 15.718-14.678 12.7-30.53 23.395-48.976 29.455-6.693 2.198-14.25 2.527-21.396 2.439-16.36-.203-32.745-.756-49.055-1.999-12.008-.915-24.26-1.89-35.794-5.06-22.795-6.265-43.644-16.315-60.987-33.434-19.995-19.738-40.881-38.619-62.06-57.094-15.414-13.447-32.087-25.468-50.507-34.615-7.766-3.857-16.13-6.53-24.28-9.586-7.37-2.763-14.735-5.593-22.262-7.863-5.08-1.532-10.399-2.464-15.678-3.093-7.982-.951-16.04-2.115-24.034-1.914-14.004.35-27.817 2.027-41.6 5.433-14.99 3.704-28.639 10.156-42.738 15.927-12.657 5.181-24.075 12.197-35.673 19.135-12.672 7.581-23.737 17.11-34.932 26.647-7.952 6.775-17.176 12.221-26.326 17.386-13.314 7.516-26.853 14.715-40.708 21.166-11.863 5.522-24.635 8.217-37.857 8.21-34-.018-68.01-.53-101.99.293-11.342.275-22.806 3.264-33.836 6.36-9.947 2.793-19.631 6.9-28.957 11.41-8.091 3.913-15.795 8.806-23.163 13.985-8.289 5.825-16.75 11.735-23.774 18.937-7.262 7.448-13.086 16.35-19.183 24.87-8.99 12.566-13.763 27.16-18.655 41.567-2.328 6.853-3.269 14.232-4.33 21.447-1.78 12.118-1.102 24.086 1.71 36.133 2.833 12.142 7.369 23.555 12.173 34.947 6.57 15.583 17.824 27.323 31.196 37.025 7.374 5.35 15.482 9.76 23.547 14.051 3.298 1.755 7.347 2.867 11.074 2.922 36.255.534 72.513.856 108.771 1.056 8.76.048 17.522-.828 26.285-.849 46.697-.113 93.395-.09 140.092-.113 9.162-.004 18.323.002 27.965.004"/></svg>