<svg xmlns="http://www.w3.org/2000/svg" viewBox="0 0 1978 845" xml:space="preserve"><path fill="#fff" d="M385 778.007c8.833-.003 17.166-.008 25.499-.01 8.508-.001 17.016.072 25.523-.014 28.593-.291 57.185-.65 85.777-.955 6.013-.064 12.029.059 18.042-.027 21.59-.306 43.178-.691 64.769-.989 7.005-.096 14.016.108 21.02-.051 7.08-.16 14.158-.902 21.232-.831 6.894.069 13.78.844 20.975 1.33v24.282c-1.157.085-2.102.21-3.048.215-58.645.328-117.291.616-175.936 1.002-8.281.055-16.559.82-24.84.858-28.863.135-57.727.017-86.59.138-69.762.29-139.524.664-209.287.995-7.038.033-14.078-.118-21.114.019-18.528.36-34.448-6.948-49.317-16.98-11.591-7.819-22.879-16.206-31.898-26.986-7.165-8.565-13.485-17.695-17.875-28.268-6.225-14.993-11.705-30.145-14.42-46.142-2.39-14.076-1.871-28.194.583-42.29 3.303-18.975 9.416-37.078 18.148-54.095 12.3-23.969 28.29-45.093 51.21-60.205 9.617-6.34 18.661-13.675 28.72-19.18 9.994-5.472 20.763-9.687 31.514-13.561 8.323-3 17.083-4.895 25.76-6.763 5.878-1.265 11.945-2.255 17.934-2.295 32.664-.218 65.332-.354 97.994-.015 21.606.225 40.825-6.665 58.852-17.8 11.86-7.327 23.735-14.64 35.388-22.287 4.89-3.208 9.05-7.51 13.846-10.882 12.583-8.848 25.224-17.624 38.043-26.125 17.562-11.647 37.11-19.41 56.793-26.27 15.234-5.309 30.997-9.887 47.576-9.804 8.587.042 17.196-1.13 25.763-.828 12.557.443 25.157 1.073 37.229 5.348 15.198 5.382 30.8 9.78 45.61 16.061 14.08 5.971 27.606 13.394 39.641 23.139 11.806 9.56 23.998 18.668 35.45 28.63 13.417 11.673 26.262 24.006 39.262 36.152 4.787 4.472 9.482 9.07 13.914 13.89 7.58 8.242 17.367 13 27.221 17.597 12.838 5.988 26.532 8.503 40.53 6.839 9.898-1.177 19.189-4.986 28.102-9.807 16.342-8.838 26.565-22.816 33.337-39.389 2.89-7.071 3.523-15.067 5.164-22.647 4.318-19.942 3.126-40.178 2.886-60.32-.317-26.702-1.75-53.4-1.663-80.095.043-13.223 2.442-26.435 3.718-39.657 1.057-10.951 1.878-21.927 3.089-32.861 1.06-9.564 2.49-19.088 3.804-28.624 1.695-12.296 3.302-24.606 5.199-36.872 1.688-10.918 3.79-21.771 5.577-32.675 1.873-11.418 3.49-22.879 5.398-34.291 2.49-14.894 8.305-28.342 16.701-40.977 10.793-16.242 26.483-24.19 44.388-29.789 15.456-4.833 30.538-2.833 45.646.332 12.101 2.535 23.23 8.225 31.953 16.724 9.269 9.031 16.352 20.116 21.07 32.401 3.117 8.113 6.537 16.157 8.934 24.486 2.86 9.946 4.866 20.143 7.074 30.269 2.756 12.643 5.432 25.305 7.972 37.993 2.488 12.428 4.63 24.926 7.171 37.342 1.881 9.191 4.265 18.278 6.233 27.453 2.653 12.377 5.041 24.81 7.692 37.188 2.713 12.669 5.696 25.28 8.395 37.952 2.632 12.363 4.956 24.792 7.601 37.152 1.758 8.211 4.054 16.31 5.73 24.536 2.596 12.733 4.742 25.557 7.322 38.294 1.768 8.722 3.947 17.36 5.948 26.035 3.016 13.07 6.175 26.11 9.01 39.218 2.161 9.994 8.184 16.087 17.45 20.032 12.284 5.23 24.083 11.625 36.45 16.63 7.28 2.944 15.214 5.515 22.93 5.752 6.647.204 13.681-2.445 20.056-5.034 20.32-8.252 39.567-18.695 58.001-30.548 17.306-11.128 33.197-24.111 48.079-38.314 8.81-8.408 18.042-16.447 26.178-25.47 9.835-10.906 18.831-22.583 27.952-34.114 4.63-5.854 9.208-11.847 12.966-18.27 5.114-8.74 9.597-17.867 14.036-26.98 9.083-18.643 21.074-35.011 37.454-47.852a730 730 0 0 1 31.782-23.564c11.345-7.94 24.233-12.27 37.974-13.309 14.496-1.096 29.087-2.357 43.571-1.813 15.59.585 30.748 4.573 45.374 10.367 24.977 9.894 47.471 23.997 69.515 39.166 23.622 16.255 48.246 31.055 71.86 47.32a681 681 0 0 1 48.872 37.024c25.702 21.359 46.065 47.477 63.362 75.917 7.903 12.995 13.452 27.102 16.204 42.233 1.679 9.234 4.24 18.309 5.882 27.548 1.397 7.855 2.587 15.822 2.902 23.778.48 12.147.222 24.328.103 36.493-.128 12.992-3.398 25.413-7.488 37.62-3.36 10.025-6.346 20.255-10.712 29.84-4.78 10.49-9.905 21.133-16.783 30.278-8.87 11.797-19.33 22.466-29.65 33.09-13.55 13.948-29.772 24.248-47.383 32.366-14.771 6.81-29.328 14.195-44.474 20.045-11.684 4.513-24.09 7.209-36.252 10.42-30.088 7.946-60.848 4.687-91.346 4.898-58.828.406-117.66.09-176.491.168-7.435.01-14.87.912-22.302.864-28.097-.18-56.192-.61-84.288-.885-9.999-.097-20-.135-29.998.02-6.28.096-12.55.754-18.83.856-3.249.053-6.511-.84-9.765-.824-64.763.293-129.525.61-194.286 1.028-28.27.182-56.54.69-84.81.891-59.592.424-119.184.72-178.776 1.113-41.106.27-82.21.636-123.316.91-13.054.086-26.11.013-39.543.013v16.935H696.79v-59.58h19.53v17.736c5.265.287 10.28.826 15.289.784 18.084-.152 36.165-.622 54.25-.741 21.33-.141 42.665.082 63.996-.088 17.092-.135 34.18-.749 51.273-.925 40.422-.417 80.844-.815 121.267-1.004 35.664-.167 71.33.107 106.994-.134 10.837-.074 21.66-1.58 32.501-1.782 17.498-.325 35.007-.123 52.51-.124 80.497-.005 160.993.023 241.49-.047 8.094-.007 16.186-.78 24.282-.842 5.258-.04 10.52.832 15.78.842 39.515.077 79.03.113 118.545-.002 11.727-.034 23.451-.8 35.179-.868 24.514-.141 49.05-.63 73.534.232 10.73.377 21.152-.603 31.495-2.438 11.37-2.018 22.75-4.598 33.689-8.246 10.075-3.36 19.59-8.416 29.311-12.814 8.547-3.867 17.215-7.521 25.512-11.874 11.298-5.927 22.386-12.332 31.637-21.311 8.256-8.014 16.593-15.977 24.361-24.45 9.354-10.204 15.921-22.395 21.488-34.91 3.991-8.975 5.836-18.88 9.427-28.06 8.391-21.45 7.1-43.85 6.63-66.057-.198-9.434-2.84-18.856-4.765-28.203-2.075-10.075-4.264-20.153-7.042-30.05-2.963-10.553-7.515-20.397-14.398-29.179-5.866-7.483-10.504-15.953-16.575-23.247-10.056-12.081-20.154-24.273-31.491-35.103-10.755-10.274-22.893-19.168-34.856-28.087-8.836-6.588-18.397-12.2-27.584-18.322-8.81-5.871-17.482-11.95-26.35-17.732-7.539-4.917-15.34-9.434-22.895-14.328-7.33-4.75-14.328-10.027-21.772-14.58-10.948-6.698-22.017-13.225-33.31-19.314-8.094-4.365-16.576-8.037-25.01-11.731-3.932-1.723-8.072-3.375-12.276-4.002-11.568-1.727-23.281-4.368-34.823-3.891-12.817.529-25.88.86-38.464 5.299-8.186 2.887-15.288 6.923-21.945 12.217-2.284 1.815-5.211 2.866-7.353 4.809-10.146 9.201-20.612 18.13-29.97 28.09-5.363 5.709-9.14 13.023-13.065 19.936-4.553 8.02-8.562 16.354-12.671 24.62-8.486 17.069-20.552 31.574-32.93 45.815-9.294 10.693-18.406 21.657-28.676 31.362-14.329 13.541-29.38 26.367-44.666 38.83-9.542 7.78-19.747 14.889-30.275 21.276-11.625 7.053-23.75 13.383-36.05 19.194-10.533 4.976-21.34 9.95-32.573 12.64-6.39 1.53-13.625 4.763-20.947.759-3.192-1.746-7.579-1.141-11.203-2.295-8.803-2.804-17.681-5.54-26.152-9.18-10.242-4.401-19.953-10.03-30.153-14.542-13.693-6.057-22.138-16.148-25.64-30.606-2.22-9.166-4.555-18.306-6.913-27.438-2.246-8.7-4.94-17.301-6.805-26.08-2.682-12.622-4.697-25.384-7.185-38.049-1.449-7.376-3.318-14.67-4.899-22.021-1.425-6.629-2.628-13.305-4.087-19.926-1.796-8.142-3.834-16.232-5.619-24.377-1.245-5.683-2.166-11.436-3.37-17.13-1.726-8.166-3.608-16.299-5.365-24.459-1.255-5.827-2.383-11.682-3.622-17.512-1.101-5.178-2.322-10.33-3.411-15.509-1.89-8.991-3.69-18.002-5.588-26.992-1.055-4.995-2.312-9.947-3.335-14.947-1.292-6.318-2.43-12.667-3.65-19-1.34-6.966-2.606-13.947-4.068-20.887-2.25-10.68-4.646-21.327-6.965-31.991-2.011-9.247-3.017-18.859-6.24-27.66-4.472-12.213-7.718-24.899-15.137-36.123-6.192-9.368-13.184-16.939-23.859-20.481-4.51-1.497-9.293-2.566-14.02-2.914-6.636-.49-13.46-.946-19.982.045-12.753 1.937-23.498 7.886-31.879 18.11-9.325 11.374-12.526 25.125-15.717 38.826-1.501 6.451-1.29 13.283-2.233 19.888-.911 6.39-2.393 12.697-3.47 19.066-1.243 7.34-2.351 14.703-3.454 22.065-.744 4.967-1.352 9.955-2.065 14.926-1.637 11.411-3.26 22.824-4.967 34.225-1.22 8.158-2.818 16.268-3.787 24.454-1.021 8.624-1.33 17.33-2.24 25.97-3.146 29.866-3.574 59.83-2.846 89.799.375 15.457 2.826 30.904 2.566 46.326-.229 13.623-2.902 27.206-4.528 40.803-.675 5.641-.82 11.44-2.305 16.867-1.929 7.045-4.818 13.844-7.534 20.653-4.907 12.302-13.657 22.136-22.72 31.201-6.489 6.488-15.03 11.334-23.38 15.433-8.254 4.051-17.343 6.497-26.204 9.191-11.843 3.6-23.685 2.358-35.781.284-18.746-3.215-34.945-11.469-50.16-22.272-.928-.66-1.838-1.365-2.665-2.145-14.143-13.337-28.03-26.956-42.47-39.961-14.016-12.622-28.239-25.068-43.026-36.764-15.604-12.343-32.713-22.431-51.518-29.32-10.336-3.786-20.632-7.732-31.137-10.985-5.32-1.647-11.037-2.238-16.626-2.735-10.298-.916-20.63-1.843-30.956-1.935-7.487-.066-15.14.479-22.447 2.033-17.189 3.657-33.573 9.85-49.74 16.783-16.735 7.176-32.584 15.804-47.274 26.472-9.577 6.955-18.452 14.882-28.072 21.773-8.991 6.44-18.483 12.196-27.88 18.05-8.36 5.21-16.69 10.535-25.421 15.06-6.183 3.206-12.978 5.259-19.56 7.659-16.59 6.048-33.857 6.233-51.227 6.096-28.33-.223-56.67-.395-84.992.152-8.1.156-16.233 2.534-24.2 4.506-7.863 1.946-15.677 4.287-23.262 7.123-17.477 6.534-32.495 17-47.127 28.54-9.86 7.775-18.956 16.036-26.045 26.135-6.256 8.913-11.781 18.545-16.174 28.502-4.534 10.279-7.645 21.238-10.722 32.086-1.58 5.572-2.017 11.53-2.437 17.352-.394 5.46-.164 10.971-.067 16.457.21 11.964 3.373 23.188 8.31 34.042 2.561 5.632 4.14 11.714 6.741 17.324 5.923 12.776 14.552 23.56 25.81 32.016 7.248 5.445 14.512 11.18 22.582 15.122 6.112 2.985 12.723 5.377 20.133 5.8 36.24 2.068 72.48.54 108.713.688 44.398.182 88.8-.554 133.699-.893"/></svg>