<svg xmlns="http://www.w3.org/2000/svg" viewBox="0 0 1994 903" xml:space="preserve"><path fill="#fff" d="M639.612 738.518c-18.201 6.65-36.124 12.945-53.948 19.504-23.81 8.762-47.503 17.845-71.328 26.566-15.424 5.646-31.032 10.79-46.491 16.346-16.29 5.855-32.543 11.817-48.713 17.993-4.211 1.608-8.21 3.944-12.02 6.39-4.062 2.609-5.668 11.178-3.65 16.902.812 2.303 1.562 4.63 2.288 6.962 1.935 6.218 3.85 7.538 9.991 5.632 18.327-5.689 36.648-11.412 54.848-17.493 17.076-5.705 33.92-12.106 51.002-17.791 16.953-5.643 34.067-10.803 51.125-16.125 19.248-6.007 38.434-12.229 57.79-17.862 22.163-6.45 44.475-12.388 66.739-18.488 10.828-2.967 21.602-6.23 32.566-8.582 13.419-2.877 27.036-4.813 40.523-7.39 13.451-2.57 26.831-5.516 40.273-8.14a4874 4874 0 0 1 51.542-9.785c16.08-2.96 32.175-5.844 48.296-8.565 11.624-1.962 23.298-3.625 34.956-5.38 13.76-2.07 27.57-3.857 41.27-6.26 5.39-.946 10.814-2.7 15.68-5.157 1.992-1.007 3.518-4.837 3.556-7.408.075-5.029-1.393-10.06-1.593-15.116-.328-8.321-1.29-16.87.186-24.925 1.08-5.891 4.959-11.684 8.802-16.567 7.617-9.676 19.157-10.48 30.355-11.672 11.105-1.184 22.187-2.59 33.286-3.826 9.66-1.076 19.336-2 28.995-3.087 11.089-1.248 22.156-2.7 33.252-3.878 10.985-1.165 22.01-1.968 32.99-3.168 10.283-1.124 20.523-2.644 30.8-3.83 7.529-.87 15.09-1.446 22.631-2.217 13.27-1.357 26.543-2.692 39.799-4.178 6.51-.73 12.967-1.949 19.48-2.644 10.803-1.152 21.649-1.899 32.444-3.109 16.33-1.83 32.63-3.931 48.948-5.877 6.205-.74 12.416-1.448 18.638-2.03 11.663-1.09 23.353-1.915 34.999-3.158 9.296-.993 18.53-2.563 27.817-3.657 8.017-.943 16.08-1.485 24.105-2.369 13.243-1.457 26.466-3.095 39.707-4.564 8.02-.89 16.068-1.515 24.085-2.419 10.443-1.178 20.86-2.583 31.303-3.763 9.992-1.129 20.01-2.032 30.003-3.147 11.095-1.238 22.166-2.696 33.265-3.89 10.65-1.144 21.336-1.954 31.982-3.132 10.279-1.138 20.517-2.646 30.792-3.823 7.692-.881 15.42-1.452 23.123-2.239 13.103-1.338 26.206-2.688 39.298-4.129a918 918 0 0 0 22.982-2.832c15.594-2.115 31.329-3.56 46.728-6.661 25.651-5.168 47.118-18.792 67.371-34.921 15.726-12.524 27.59-27.93 37.682-44.989 6.456-10.914 9.71-22.919 12.076-35.248.769-4.007 1.639-8.044 2.997-11.879 3.56-10.049 2.009-20.429 1.473-30.542-.237-4.463-3.977-9.284-7.24-12.952-17.202-19.336-34.805-38.314-52.178-57.498-14.595-16.117-29.044-32.365-43.597-48.519-10.43-11.577-20.973-23.05-31.376-34.65a8303 8303 0 0 1-39.408-44.258c-16.622-18.803-33.104-37.73-49.766-56.496-9.991-11.254-20.27-22.251-30.307-33.465-6.774-7.569-13.364-15.302-20.011-22.984-6.06-7.005-14.584-9.143-22.966-11.086-14.334-3.322-28.057 1.408-41.383 5.374-8.695 2.588-16.601 8.194-24.487 13.055a942 942 0 0 0-37.345 24.249c-5.079 3.472-9.662 7.776-14.057 12.119-7.332 7.243-14.71 14.498-21.379 22.336-9.398 11.047-21.957 17.76-33.787 25.31-11.882 7.581-24.375 14.458-37.268 20.127-10.49 4.611-21.834 7.53-33.037 10.207-14.6 3.487-29.379 6.313-44.184 8.808-9.711 1.637-19.627 2.017-29.412 3.26-17.418 2.212-34.8 4.703-52.21 6.981-13.178 1.725-26.368 4.6-39.565 4.676-30.054.176-60.12-.943-90.174-1.775-9.896-.274-20.082.01-29.582-2.27-12.537-3.008-25.169-6.556-36.1-14.24-22.93-16.115-46.013-32.011-69.072-47.942-23.928-16.532-47.972-32.896-71.824-49.536-11.814-8.241-23.112-17.227-35.001-25.353-14.147-9.67-28.303-19.44-43.18-27.892-9.37-5.323-19.99-9.698-30.97-9.331-7.517.25-15.314 2.947-22.301 6.078-14.418 6.46-28.728 13.33-42.442 21.154-18.54 10.578-36.98 21.486-54.54 33.59-19.025 13.114-37.292 27.39-55.335 41.851-19.07 15.286-39.135 29.085-60.325 41.088-9.793 5.548-20.838 9.009-31.535 12.795-9.19 3.253-18.602 5.992-28.083 8.257-6.634 1.584-13.542 2.704-20.343 2.787-24.162.292-48.333.263-72.495-.041-33.226-.418-66.448-1.658-99.67-1.607-14.162.022-28.22 2.595-41.675 7.903-9.651 3.808-20.05 5.819-29.504 10.009-16.612 7.362-32.744 15.804-49.1 23.747-22.94 11.14-41.427 28.554-61.615 43.578-20.01 14.89-34.682 34.531-49.404 54.264-13.336 17.874-22.916 37.803-32.537 57.654-9.431 19.458-17.605 39.533-26.094 59.44-5.474 12.836-11.487 25.57-15.427 38.89-2.736 9.255-3.965 19.314-1.33 29.274 4.575 17.29 15.233 29.836 31.248 36.698 10.205 4.373 21.576 6.242 32.58 8.453 7.056 1.417 14.389 1.84 21.611 1.973 28.774.532 57.553.994 86.332 1.054 20.11.041 40.222-.705 60.336-.936 34.952-.402 69.905-.625 104.857-1.031 14.945-.174 29.886-.663 44.83-.935 20.61-.376 41.222-.744 61.834-1.006 29.448-.374 58.897-.65 88.346-.965 1.632-.017 3.264-.002 5.123-.002v26.3c-1.621.102-2.914.246-4.207.257-46.282.401-92.563.746-138.844 1.203-16.457.162-32.91.618-49.366.891-23.773.396-47.547.795-71.321 1.106-26.626.349-53.254.54-79.879.919-14.948.213-29.891.83-44.84.971-15.238.145-30.485.154-45.719-.193-12.906-.295-25.989-.023-38.646-2.11-15.066-2.482-30.433-5.592-44.445-11.39-16.906-6.994-29.983-19.362-38.979-36.183-7.855-14.689-10.103-29.954-8.446-45.87.883-8.477 3.67-16.87 6.458-25.006 4.06-11.843 8.583-23.553 13.478-35.077a1066 1066 0 0 1 19.27-42.677c9.188-19.236 18.289-38.543 28.407-57.29 5.179-9.596 12.188-18.276 18.911-26.95 8.973-11.574 18.033-23.143 27.904-33.938 6.26-6.846 13.895-12.495 21.213-18.302 14.622-11.605 28.812-23.923 44.375-34.125 15.244-9.994 31.83-18.003 48.103-26.344 9.839-5.044 19.994-9.64 30.384-13.397 14.084-5.092 28.345-9.947 42.88-13.46 10.929-2.64 22.386-3.945 33.646-4.198 24.642-.554 49.311-.27 73.965.059 29.068.388 58.137 1 87.195 1.877 17.27.522 33.524-3.545 49.443-9.537 14.61-5.5 29.32-10.874 42.346-19.73 10.563-7.182 21.138-14.382 31.307-22.1 13.45-10.211 26.191-21.373 39.82-31.329 16.87-12.324 33.912-24.519 51.67-35.49 16.57-10.234 34.135-18.864 51.336-28.061 10.504-5.617 21.022-11.24 31.79-16.317 4.643-2.189 9.95-2.948 14.927-4.453 16.073-4.859 30.336 1.413 45.052 6.586 19.204 6.751 34.468 19.811 51.003 30.69 22.564 14.845 44.02 31.369 66.105 46.954 33.484 23.629 67.017 47.191 100.709 70.522 11.42 7.908 23.376 15.247 37.202 18.136 7.045 1.472 14.394 1.827 21.623 2.016 20.774.542 41.561.588 62.335 1.137 11.41.302 22.807 1.728 34.206 1.692 7.499-.023 14.994-1.736 22.487-2.715 10.108-1.321 20.222-2.603 30.317-4.014 13.662-1.908 27.292-4.049 40.968-5.85 9.475-1.247 19.032-1.884 28.501-3.171 8.764-1.191 17.62-2.27 26.15-4.493 14.329-3.735 28.659-7.72 42.546-12.809 8.471-3.103 16.289-8.179 24.085-12.89 8.927-5.395 17.95-10.808 26.093-17.27 6.295-4.995 11.178-11.738 16.908-17.485 6.786-6.806 13.58-13.633 20.772-19.997 17.76-15.715 37.518-28.48 58.749-39.031 5.825-2.895 11.296-6.497 17.1-9.436 2.88-1.459 6.089-2.408 9.252-3.14 9.693-2.244 19.352-5.028 29.188-6.117 6.563-.727 13.576.37 20.079 1.936 7.834 1.886 15.232 5.526 23.02 7.678 7.376 2.038 11.567 7.67 16.171 12.805 11.458 12.78 22.616 25.829 33.949 38.723q22.198 25.26 44.488 50.438c8.514 9.615 17.144 19.127 25.673 28.729 7.245 8.157 14.345 16.445 21.644 24.554 10.403 11.556 20.988 22.948 31.387 34.508 16.887 18.773 33.66 37.648 50.53 56.436 10.036 11.178 20.307 22.148 30.213 33.439 12.07 13.76 23.952 27.688 35.744 41.688 4.906 5.825 6.811 12.724 6.327 20.42a135 135 0 0 0-.01 16.992c.74 11.649-3.693 22.265-6.174 33.271-1.147 5.086-1.924 10.349-3.827 15.152-3.649 9.21-7.083 18.705-12.25 27.067-7.056 11.419-14.658 22.826-23.844 32.515-10.07 10.622-21.876 19.713-33.527 28.69-13.924 10.73-29.783 18.442-46.214 24.305-11.904 4.247-24.561 6.902-37.107 8.723-22.643 3.288-45.444 5.515-68.2 8.001-14.584 1.594-29.216 2.75-43.806 4.305-12.44 1.325-24.848 2.965-37.276 4.417-7.36.86-14.736 1.6-22.1 2.44-11.274 1.285-22.537 2.67-33.817 3.9-10.173 1.107-20.374 1.967-30.543 3.108-10.455 1.173-20.879 2.628-31.332 3.818-7.54.859-15.116 1.396-22.658 2.236-13.744 1.53-27.467 3.251-41.215 4.753-8.2.896-16.443 1.42-24.645 2.303-12.432 1.34-24.85 2.816-37.265 4.296-6.691.797-13.351 1.873-20.052 2.554-10.985 1.117-22.002 1.93-32.99 3.024a8759 8759 0 0 0-59.526 6.124c-21.136 2.251-42.272 4.518-63.386 6.97-15.35 1.784-30.645 4.032-45.997 5.788-11.318 1.293-22.706 1.972-34.031 3.208-10.291 1.123-20.527 2.744-30.811 3.935-14.717 1.704-29.451 3.257-44.186 4.795-10.826 1.13-21.68 2.009-32.494 3.243-5.835.666-11.637 1.711-17.406 2.83-4.626.897-6.481 4.277-6.363 8.668.147 5.455.131 10.985 1.056 16.332 1.751 10.12 1.377 20.102-1.285 29.898-.84 3.09-3.084 6.077-5.375 8.442-8.534 8.812-19.712 12.478-31.342 14.613-13.066 2.4-26.262 4.078-39.379 6.211-10.67 1.736-21.29 3.79-31.965 5.503-12.164 1.953-24.394 3.51-36.541 5.56-11.456 1.933-22.852 4.229-34.254 6.465-19.104 3.747-38.189 7.593-57.289 11.36-15.254 3.01-30.597 5.619-45.761 9.024-21.65 4.86-43.277 9.888-64.718 15.58-21.591 5.731-43.022 12.107-64.38 18.667-22.588 6.938-45.045 14.31-67.49 21.704-24.449 8.055-48.741 16.593-73.247 24.469-18.47 5.935-37.302 10.755-55.698 16.894-7.415 2.474-14.352 2.436-21.534.673-9.067-2.224-15.525-8.034-19.08-16.438-2.724-6.438-4.859-13.258-6.21-20.114-2.196-11.136.68-21.517 5.773-31.612 4.293-8.509 12.646-11.382 19.992-15.048 10.15-5.065 21.175-8.394 31.868-12.354 22.014-8.154 44.021-16.331 66.098-24.314 21.452-7.757 43.028-15.171 64.474-22.943 19.597-7.1 39.078-14.522 58.64-21.723 19.232-7.08 38.709-13.55 57.697-21.232 18.279-7.395 37.462-11.085 56.398-15.89 10.437-2.648 20.698-6.053 31.207-8.349 16.151-3.528 32.414-6.581 48.693-9.486 14.736-2.63 28.809-7.31 42.398-13.36 7.78-3.463 11.48-14.576 9.38-24.569-3.664-17.434-19.775-24.98-35.295-22.96a40 40 0 0 1-4.94.349c-18.332.066-36.669-.123-54.996.21-16.064.29-32.114 1.306-48.178 1.696-6.767.164-13.556-.725-20.33-.671-24.856.198-49.71.592-74.565.91-.786.01-1.571.001-2.902.001v17.977H608.23v-59.684h19.902v14.736c1.702.102 3.138.26 4.573.26 9.833 0 19.667.035 29.499-.066 26.451-.27 52.902-.588 79.353-.916 28.774-.356 57.548-.765 86.323-1.103 7.072-.083 14.213-.595 21.204.173 14.104 1.55 26.021 8.416 34.965 19.004 7.079 8.38 11.536 18.818 11.669 30.1.104 8.887-.934 17.825-2.077 26.66-.316 2.446-2.616 4.778-4.354 6.873-8.297 10.001-18.864 15.934-31.168 20.516-11.832 4.407-23.876 7.389-36.009 10.147-16.075 3.655-32.412 6.142-48.554 9.53-8.11 1.701-16.018 4.356-24.051 6.45-9.614 2.505-19.326 4.654-28.883 7.353-10.933 3.087-21.847 6.309-32.582 10.013-16.12 5.564-32.078 11.598-48.427 17.67"/></svg>