<svg xmlns="http://www.w3.org/2000/svg" viewBox="0 0 2000 1605" xml:space="preserve"><path fill="#fff" d="M1485.06 1354.053c11.58 5.408 22.75 10.8 34.016 15.987 7.852 3.615 15.856 6.897 23.748 10.429 5.55 2.484 10.975 5.247 16.542 7.69 9.273 4.069 18.618 7.974 27.927 11.962 9.333 4 18.612 8.131 28.002 11.99 8.617 3.541 17.397 6.685 26.022 10.207 9.296 3.796 18.487 7.846 27.742 11.744 2.406 1.013 4.878 1.872 7.853 3.006l-12.977 38.099c-15.536-6.58-30.619-12.974-45.707-19.354-11.739-4.965-23.45-9.998-35.238-14.845-13.341-5.486-26.853-10.57-40.107-16.255-11.718-5.025-23.147-10.72-34.774-15.963-7.71-3.476-15.584-6.59-23.314-10.025-8.386-3.727-16.677-7.668-25.035-11.46-10.571-4.795-21.177-9.512-31.749-14.305-8.212-3.723-16.373-7.56-24.595-11.26-11.585-5.214-23.245-10.264-34.802-15.54-14.328-6.54-28.518-13.386-42.895-19.816-9.306-4.162-18.93-7.613-28.241-11.764-7.5-3.343-14.655-7.456-22.122-10.88-15.765-7.228-31.667-14.158-47.451-21.345-11.047-5.03-21.793-10.78-33.032-15.318-16.286-6.578-30.356-16.774-44.875-26.232-4.181-2.724-7.732-6.612-11.051-10.42-6.066-6.957-12.054-14.025-17.501-21.466-6.483-8.856-12.824-17.88-18.398-27.322-8.796-14.9-17.088-30.107-25.24-45.373-6.46-12.097-12.283-24.534-18.584-36.718-8.618-16.663-17.502-33.188-26.118-49.852-7.132-13.792-13.912-27.766-21.084-41.535-7.095-13.62-14.612-27.018-21.706-40.637-5.663-10.872-10.866-21.982-16.46-32.89-5.86-11.423-12.045-22.678-17.904-34.101-6.821-13.301-13.353-26.75-20.18-40.049-5.197-10.121-10.895-19.99-15.95-30.179-8.627-17.388-21.056-32.204-32.203-47.854-6.288-8.829-13.092-17.922-21.568-24.406-11.404-8.724-22.404-18.627-36.969-22.71-5.692-1.595-10.724-5.416-16.26-7.739-4.646-1.949-9.567-3.26-14.403-4.73-4.688-1.426-9.392-2.824-14.144-4.009-12.033-3-24.046-6.111-36.166-8.718-8.478-1.824-17.136-2.795-25.683-4.318-9.018-1.607-17.961-3.663-27.009-5.058-6.654-1.026-13.464-1.02-20.133-1.976-12.309-1.764-24.876-1.077-36.968-5.378-6.824-2.427-14.752-1.626-21.74-3.742-12.278-3.719-24.966-1.836-37.256-3.941-11.258-1.928-22.404-4.624-33.481-7.445-8.225-2.095-16.524-4.304-24.324-7.575-15.231-6.386-31.008-11.697-44.791-21.217-3.382-2.336-7.431-3.725-10.746-6.138-5.589-4.07-11.194-8.237-16.156-13.023-12.353-11.916-24.408-24.145-36.47-36.358-13.443-13.611-23.995-29.1-31.842-46.676-6.548-14.669-14.553-28.683-21.769-43.06-4.614-9.193-8.964-18.52-13.438-27.783-4.473-9.264-8.91-18.546-13.444-27.78-4.616-9.4-9.274-18.78-14.02-28.114-5.997-11.798-12.22-23.484-18.13-35.325-7.467-14.96-14.607-30.08-22.09-45.032-7.022-14.034-14.414-27.884-21.442-41.915-5.934-11.848-11.421-23.92-17.398-35.746-5.396-10.676-10.156-21.885-17.026-31.558-13.174-18.548-25.79-37.806-43.343-52.688-10.776-9.137-22.477-17.204-33.961-25.475-9.046-6.514-17.962-13.414-27.728-18.668-10.613-5.711-22.114-9.79-33.282-14.449-10.55-4.401-21.191-8.583-31.754-12.954-9.101-3.766-12.93-11.636-15.462-20.404-.68-2.354-.622-5.01-1.673-7.15-2.986-6.083-.442-11.266 2.235-16.395 4.047-7.752 11.097-12.455 18.165-17.03.981-.635 2.54-.507 3.833-.511 11.5-.035 23.02-.424 34.492.13 6.987.337 13.886 2.26 20.853 3.273 8.925 1.297 17.93 2.101 26.802 3.678 6.07 1.078 12.108 2.725 17.921 4.792 15.604 5.547 31.264 11.011 46.546 17.362 12.15 5.05 25.102 8.134 36.37 15.436 20.023 12.975 38.037 28.313 55.48 44.523 12.53 11.644 21.846 25.64 31.545 39.387 12.054 17.083 23.97 34.287 35.22 51.903 6.44 10.085 11.497 21.06 17.07 31.69 5.717 10.91 11.194 21.946 16.984 32.817 4.605 8.646 9.34 17.234 14.34 25.656 8.542 14.389 17.263 28.672 26.042 42.916 8.995 14.594 17.851 29.287 27.31 43.577 12.511 18.9 25.166 37.731 38.527 56.031 6.352 8.7 14.933 15.746 21.65 24.218 4.684 5.908 10.474 10.12 16.897 13.102 7.159 3.322 14.96 5.422 22.651 7.39 7.117 1.819 14.449 3.754 21.706 3.832 8.799.095 17.625-1.654 26.427-2.708 4.718-.564 9.402-1.403 14.115-2.01 5.697-.735 11.415-1.3 17.112-2.037 31.97-4.136 64.116-5.035 96.246-3.746 15.51.623 30.913 3.786 46.382 5.659 12.226 1.48 24.507 2.54 36.709 4.19 6.792.918 13.512 2.497 20.193 4.079 5.87 1.39 11.603 3.354 17.466 4.782 6.658 1.622 13.402 2.89 20.093 4.383 8.44 1.883 16.89 3.733 25.289 5.791a659 659 0 0 1 23.647 6.245c11.667 3.322 23.606 2.91 35.481 2.502 5.71-.196 10.013-4.26 12.075-9.198 2.617-6.272 4.96-13.004 5.556-19.703 1.346-15.15 1.775-30.396 2.122-45.613.186-8.137-.855-16.296-.847-24.445.013-15.344 2.016-30.451 6.37-45.212 2.666-9.04 4.405-18.534 10.553-26.053 8.496-10.39 16.217-21.353 27.464-29.434 10.291-7.395 19.165-16.73 29.137-24.612 8.509-6.725 17.586-12.756 26.6-18.813 12.54-8.425 25.199-16.679 37.92-24.828 8.125-5.205 16.499-10.02 24.683-15.133 8.657-5.41 16.984-11.395 25.887-16.352 11.883-6.617 24.191-12.47 36.3-18.684 3.641-1.869 7.093-4.17 10.86-5.716 13.557-5.569 27.807-8.764 42.323-9.89 11.474-.891 23.084-.434 34.61.006 2.841.108 5.932 2.042 8.328 3.888 8.044 6.2 16.61 12.013 23.462 19.381 5.472 5.885 9.12 13.623 12.904 20.89a3352 3352 0 0 1 30.547 60.139c10.823 21.843 21.34 43.837 31.973 65.774 4.338 8.95 8.538 17.967 12.961 26.874 9.862 19.858 19.935 39.611 29.714 59.51 9.178 18.677 18.022 37.518 27.14 56.226 6.317 12.961 12.892 25.797 19.275 38.726 7.747 15.694 15.52 31.377 23.087 47.159 7.796 16.26 15.192 32.714 23.065 48.937 7.963 16.408 16.454 32.56 24.425 48.964 9.191 18.917 17.883 38.078 27.132 56.966 9.146 18.678 18.854 37.08 28.049 55.734 5.55 11.26 10.454 22.835 15.896 34.15 5.998 12.468 12.32 24.78 18.425 37.199 4.808 9.78 9.498 19.62 14.245 29.43q7.45 15.39 14.909 30.776c5.717 11.796 11.387 23.614 17.176 35.375 5.194 10.554 10.668 20.972 15.75 31.58 5.646 11.783 10.86 23.772 16.513 35.552 2.798 5.829 6.333 11.302 9.216 17.094 3.405 6.84 6.324 13.92 9.71 20.77 5.033 10.176 10.41 20.182 15.414 30.372 3.982 8.11 7.553 16.42 11.432 24.581 7.347 15.461 14.66 30.941 22.222 46.298 6.925 14.061 14.335 27.884 21.21 41.969 7.117 14.579 13.768 29.384 20.775 44.017 4.95 10.34 10.23 20.523 15.23 30.84 5.65 11.664 11.083 23.433 16.744 35.092 4.443 9.149 9.107 18.19 13.636 27.297a3084 3084 0 0 1 10.628 21.594c4.815 9.874 9.564 19.78 14.402 29.644 3.896 7.944 7.917 15.827 11.822 23.767 7.395 15.034 14.506 30.215 22.182 45.104 8.554 16.592 17.451 33.012 26.494 49.343 5.899 10.654 8.077 22.09 6.509 33.842-1.012 7.582-4.877 14.5-13.411 16.644-7.292 1.83-14.617 3.725-22.043 4.735-3.383.46-7.165-.782-10.558-1.889-6.457-2.106-12.755-4.697-19.137-7.035-8.302-3.04-16.66-5.933-24.926-9.068-9.488-3.598-18.92-7.345-28.343-11.112-8.976-3.589-17.936-7.22-26.853-10.952-17.345-7.261-34.636-14.654-51.99-21.895-8.747-3.65-17.583-7.087-26.829-10.8l-12.805 34.483-34.688-12.767 38.338-103.92 34.672 12.758-11.739 32.096c53.412 21.902 106.01 45.488 162.019 64.352-2.183-4.943-3.688-8.91-5.64-12.641-2.986-5.707-6.476-11.153-9.397-16.89-3.908-7.678-7.414-15.558-11.206-23.296-4.202-8.571-8.606-17.044-12.788-25.625-6.408-13.15-12.672-26.37-19.053-39.533-5.012-10.34-10.091-20.648-15.173-30.954-3.54-7.182-7.217-14.298-10.688-21.512-6.014-12.5-11.84-25.091-17.892-37.572-5.033-10.381-10.405-20.598-15.399-30.997-8.422-17.54-16.499-35.246-25.03-52.731-7.182-14.719-14.934-29.159-22.19-43.842-5.873-11.88-11.302-23.978-17.08-35.906-4.798-9.904-9.91-19.656-14.719-29.556-7.73-15.918-15.284-31.923-22.988-47.855a22612 22612 0 0 0-32.931-67.799 11692 11692 0 0 0-25.783-52.527c-7.177-14.53-14.486-28.996-21.661-43.527a6275 6275 0 0 1-22.096-45.142c-7.112-14.7-14.022-29.497-21.165-44.182-5.813-11.953-11.938-23.754-17.744-35.71-6.406-13.193-12.526-26.525-18.916-39.726-7.99-16.505-16.149-32.928-24.197-49.406-5.032-10.303-9.916-20.68-15.007-30.955-8.427-17.012-17.058-33.923-25.43-50.96-6.133-12.48-11.842-25.167-18.007-37.63-6.786-13.72-14.026-27.214-20.79-40.943-6.072-12.324-11.687-24.872-17.648-37.252-6.96-14.454-14.19-28.78-21.094-43.26-6.727-14.11-13.055-28.41-19.82-42.5-3.908-8.14-8.515-15.941-12.483-24.054-5.562-11.372-10.747-22.928-16.233-34.338-4.896-10.181-10.042-20.241-14.972-30.407-6.94-14.312-13.602-28.762-20.728-42.98-5.357-10.689-11.064-21.216-16.991-31.6-3.587-6.284-7.558-12.414-11.969-18.142-4.241-5.507-9.29-9.243-17.309-9.344-17.34-.22-33.655 3.61-49.307 10.369-9.83 4.244-19.386 9.273-28.618 14.708-14.47 8.518-28.592 17.631-42.808 26.575-18.102 11.388-36.494 22.361-54.112 34.457-13.012 8.932-25.004 19.353-37.416 29.154-5.175 4.087-10.402 8.125-15.355 12.47-8.384 7.354-16.34 15.668-19.845 26.13-3.697 11.04-5.777 22.927-6.527 34.575a541 541 0 0 0-.702 55.85c.64 16.318-1.594 32.163-5.756 47.624-4.111 15.27-14.267 26.948-26.912 36.298-1.628 1.204-3.864 1.837-5.912 2.18-8.349 1.398-15.925 5.492-24.924 5.11-11.894-.504-23.739-.44-35.38-3.405-12.498-3.182-25.032-6.221-37.561-9.277-14.596-3.56-29.163-7.255-43.82-10.545-11.632-2.61-23.313-5.145-35.093-6.914-16.218-2.435-32.63-3.62-48.812-6.247-20.919-3.398-41.936-3.069-62.941-2.73-11.83.191-23.635 1.857-35.454 2.828-8.54.702-17.126 1.04-25.62 2.11-9.902 1.247-19.702 3.286-29.59 4.671-13.99 1.96-27.917 1.851-41.732-1.717-4.417-1.141-9.234-.934-13.502-2.404-8.618-2.969-17.005-6.617-25.448-10.079-4.83-1.98-10.398-3.186-14.211-6.419-9.123-7.734-18.25-15.762-25.835-24.943-12.955-15.68-25.114-32.064-36.873-48.671C442.26 439 434.686 425.86 426.62 413.07c-11.84-18.776-23.984-37.37-35.388-56.408-9.448-15.771-18.202-31.97-26.918-48.164-8.894-16.525-16.96-33.505-26.166-49.848-6.205-11.016-13.732-21.29-20.715-31.866-5.239-7.935-10.481-15.87-15.853-23.716-5.297-7.736-10.649-15.438-16.171-23.014-12.226-16.771-28.1-29.775-44.217-42.528-6.812-5.39-12.9-11.93-20.294-16.294-10.011-5.91-20.891-10.384-31.535-15.171-5.948-2.676-12.074-5.046-18.291-7.012-11.29-3.57-22.675-6.85-34.08-10.038-12.361-3.456-24.757-6.803-37.215-9.885-2.828-.7-6.002-.347-8.961-.003-1.178.137-2.206 1.565-2.877 2.08 8.632 3.72 16.505 8.39 25.013 10.518 17.952 4.491 33.518 13.278 48.238 23.912 15.437 11.153 31.264 21.888 45.761 34.175 9.582 8.12 17.537 18.317 25.463 28.192 9.572 11.928 18.846 24.166 27.285 36.908 5.574 8.415 9.488 17.936 14.078 26.996a5815 5815 0 0 1 17.642 35.097c4.51 9.051 8.88 18.172 13.403 27.216 3.608 7.213 7.446 14.312 11.021 21.54 10.808 21.857 21.388 43.826 32.34 65.609 10.172 20.23 20.88 40.191 31.03 60.433 7.956 15.87 15.268 32.063 23.154 47.97 5.612 11.318 12.512 22.06 17.388 33.667 7.26 17.28 20.162 29.8 32.907 42.619 9.205 9.257 17.909 19.12 27.868 27.486 8.091 6.796 17.427 12.293 26.743 17.394 8.67 4.748 17.873 8.672 27.155 12.112 8.862 3.283 18.063 5.728 27.236 8.068 7.439 1.897 15.048 3.135 22.599 4.574 2.735.52 5.52.777 8.284 1.15 8.288 1.119 16.612 3.34 24.854 3.07 10.023-.328 19.002 3.587 28.591 4.71 7.801.913 15.517 2.545 23.311 3.534 14.01 1.777 28.109 2.936 42.066 5.044 17.479 2.64 34.935 5.572 52.241 9.152 11.651 2.41 23.036 6.118 34.518 9.325 7.398 2.066 14.892 3.902 22.099 6.515 9.238 3.35 18.422 6.979 27.273 11.23 8.518 4.091 16.89 8.662 24.759 13.88 8.217 5.448 16.293 11.35 23.455 18.09 8.67 8.16 16.911 16.942 24.24 26.313 7.23 9.244 12.986 19.63 19.597 29.373 3.042 4.483 6.986 8.38 9.8 12.984 3.81 6.236 6.977 12.87 10.334 19.378 11.266 21.837 22.549 43.666 33.716 65.553 6.97 13.66 13.689 27.448 20.622 41.126 7.574 14.944 15.167 29.88 22.948 44.715 3.64 6.939 7.976 13.514 11.587 20.467 6.91 13.305 13.442 26.806 20.291 40.144 6.767 13.18 13.83 26.206 20.58 39.393 5.983 11.685 11.598 23.558 17.603 35.23 3.666 7.126 7.857 13.98 11.632 21.052 2.563 4.8 4.74 9.806 7.22 14.653 10.117 19.776 23.285 37.47 36.907 54.929 11.433 14.651 27.183 23.373 42.856 31.828 14.316 7.724 29.85 13.172 44.761 19.819 8.66 3.86 17.072 8.279 25.733 12.138 10.838 4.828 21.892 9.173 32.716 14.03 12.698 5.698 25.19 11.855 37.89 17.547 6.07 2.72 12.492 4.641 18.612 7.26 6.289 2.69 12.379 5.844 18.603 8.693 5.236 2.396 10.566 4.585 15.807 6.972 9.25 4.213 18.437 8.56 27.695 12.753 12.867 5.825 25.798 11.51 38.656 17.354 6.244 2.837 12.386 5.896 18.94 8.959"/></svg>