<svg xmlns="http://www.w3.org/2000/svg" viewBox="0 0 2522 1500" xml:space="preserve"><path fill="#fff" d="M1379.971 1284.92c-13.615-6.246-26.898-12.313-40.117-18.518-7.896-3.706-15.599-7.837-23.562-11.387-6.067-2.704-12.527-4.525-18.6-7.216-12.292-5.444-24.402-11.296-36.659-16.82-10.136-4.569-20.41-8.83-30.557-13.374-8.94-4.005-17.78-8.236-26.681-12.328-7.473-3.436-14.967-6.826-22.46-10.216-10.163-4.599-20.359-9.128-30.498-13.781-10.155-4.66-20.252-9.445-30.383-14.157-9.918-4.614-19.857-9.181-29.766-13.815-8.85-4.138-18.082-7.655-26.412-12.666-13.468-8.103-26.34-16.754-36.945-29.111-12.111-14.113-22.413-29.347-32.622-44.684-5.692-8.551-9.753-18.191-14.523-27.354a14257 14257 0 0 1-20.261-39.026c-5.269-10.197-10.48-20.424-15.716-30.64-3.376-6.585-6.709-13.192-10.13-19.754-6.588-12.637-13.228-25.247-19.842-37.871-6.748-12.878-13.579-25.713-20.21-38.651-8.375-16.34-16.471-32.823-24.901-49.133-7.317-14.157-15.005-28.122-22.388-42.245-4.675-8.946-9.129-18.008-13.615-27.05-6.232-12.562-13.442-24.47-22.017-35.62-5.106-6.639-8.888-14.292-13.97-20.95-4.263-5.585-9.119-10.893-14.465-15.438-11.547-9.816-23.172-19.542-37.992-24.563-8.485-2.874-16.273-7.908-24.825-10.464-14.677-4.386-29.653-7.828-44.603-11.225-12.28-2.79-24.675-5.103-37.075-7.318-8.542-1.525-17.158-2.696-25.778-3.712-12.735-1.5-25.585-2.202-38.233-4.21-12.41-1.97-24.58-5.423-36.955-7.672-5.81-1.056-11.897-.49-17.786-1.233-8.279-1.044-16.616-2.11-24.7-4.093-11.895-2.917-23.968-5.715-35.275-10.274-14.229-5.737-27.586-13.599-41.645-19.805-14.6-6.445-24.922-17.857-35.626-28.867-12.382-12.736-24.8-25.473-36.454-38.862-4.846-5.568-8.056-12.668-11.482-19.342-7.777-15.153-15.244-30.467-22.805-45.73-5.44-10.981-10.782-22.01-16.249-32.976-5.4-10.835-10.915-21.614-16.358-32.43a9689 9689 0 0 1-16.482-32.866 8226 8226 0 0 1-17.275-34.846c-5.132-10.415-10.063-20.931-15.34-31.272-6.854-13.435-14.096-26.673-20.918-40.124-5.077-10.013-9.459-20.384-14.7-30.306-4.177-7.91-8.985-15.514-13.882-23.013-4.495-6.885-8.902-13.972-14.38-20.038-9.725-10.768-19.528-21.667-30.593-30.971-13.04-10.966-27.254-20.595-41.37-30.2-6.32-4.3-13.475-7.516-20.544-10.54-12.614-5.396-25.46-10.25-38.187-15.382-3.003-1.21-5.95-2.57-8.88-3.949-8.54-4.019-11.473-11.596-14.397-20.052-2.986-8.635-3.122-16.29 2.527-23.086 4.157-5.002 9.694-8.875 14.753-13.088.727-.605 2.22-.348 3.362-.388 9.599-.344 19.217-1.172 28.793-.83 7.488.269 14.921 2.013 22.383 3.071 8.924 1.267 17.874 2.368 26.769 3.807 4.32.7 8.647 1.692 12.784 3.1 9.926 3.38 19.775 6.997 29.593 10.684 7.813 2.934 15.408 6.493 23.32 9.11 21.097 6.978 39.26 18.728 55.728 33.352 10.27 9.122 21.02 17.797 30.505 27.68 7.01 7.308 12.549 16.088 18.352 24.482 12.17 17.603 24.396 35.184 35.97 53.178 5.843 9.083 10.289 19.061 15.412 28.61 6.671 12.435 13.157 24.977 20.138 37.236 11.902 20.902 23.913 41.748 36.3 62.365 7.544 12.56 15.89 24.636 23.852 36.945 6.599 10.201 13.011 20.527 19.776 30.616 11.751 17.527 25.175 33.68 40.92 47.78 2.494 2.234 5.743 3.808 8.884 5.107 12.152 5.024 24.59 9.493 37.884 9.551 9.074.04 18.173-1.135 27.225-2.104 9.782-1.046 19.505-2.634 29.283-3.713 13.082-1.444 26.192-2.628 39.29-3.915a24 24 0 0 1 2.484-.116c21.358.156 42.71-.667 63.983 2.82 13.439 2.203 27.17 2.565 40.703 4.272 8.906 1.124 17.723 3.041 26.53 4.844 10.546 2.158 21.072 4.432 31.545 6.916 11.442 2.713 22.785 5.84 34.223 8.57 12.387 2.957 24.748 6.167 37.287 8.275 6.807 1.144 14.01.742 20.941.075 5.703-.549 12.778-11.072 13.94-17.142 5.14-26.864 2.196-53.969 2.802-80.957.318-14.127 3.684-27.579 7.045-41.143 3.7-14.93 13.396-25.994 23.508-36.485 8.324-8.636 17.938-16.09 27.358-23.594 10.04-7.997 20.37-15.655 30.858-23.06 11.297-7.978 22.772-15.727 34.442-23.149 17.066-10.854 34.217-21.596 51.64-31.862 10.177-5.996 20.94-10.998 31.467-16.394 3.8-1.949 7.513-4.314 11.556-5.497 11.732-3.434 23.501-8.452 35.455-9.084 29.872-1.58 59.855-1.085 89.794-1.409 31.607-.342 63.214-.658 94.82-1.005 28.984-.319 57.967-.638 86.949-1.005 23.153-.293 46.305-.685 69.458-.977 7.545-.096 15.104.237 22.636-.09 6.89-.3 13.744-1.384 20.633-1.824 4.69-.3 9.412-.097 14.12-.099 14.666-.006 29.333-.002 44-.002 9.536 0 19.074.101 28.61-.02 20.807-.267 41.613-.735 62.421-.96 37.143-.403 74.288-.631 111.43-1.045 16.609-.185 33.217-.956 49.82-.833 7.503.056 14.99 1.675 22.49 2.526 1.972.223 3.971.346 5.955.314 18.363-.297 36.502 1.186 54.386 5.739 6.643 1.69 13.699 1.754 20.35 3.419 6.644 1.662 13.01 4.426 19.512 6.661 7.231 2.486 14.565 4.7 21.699 7.435 8.293 3.18 16.55 6.512 24.588 10.28 18.093 8.486 36.537 16.4 53.91 26.192 18.442 10.395 35.884 22.582 53.617 34.208 9.046 5.93 17.94 12.124 26.596 18.61 7.515 5.63 15.054 11.37 21.772 17.896 12.593 12.233 24.947 24.754 36.743 37.751 9.743 10.736 18.08 22.752 27.86 33.452 15.682 17.16 26.176 37.575 36.784 57.79 5.358 10.209 7.689 22.006 11.396 33.082 1.027 3.07 2.099 6.126 3.123 9.197 4.031 12.086 7.952 24.21 12.107 36.253 3.352 9.715 7.096 19.295 10.45 29.01 2.29 6.635 4.14 13.42 6.31 20.098 3.632 11.174 7.338 22.323 11.054 33.47 4.288 12.862 8.558 25.73 12.957 38.554 2.7 7.87 5.788 15.61 8.413 23.504 3.35 10.074 6.29 20.283 9.627 30.361 2.623 7.92 5.671 15.7 8.36 23.599 2.317 6.81 4.359 13.711 6.582 20.553 3.578 11.006 7.155 22.012 10.825 32.988 3.322 9.936 6.772 19.83 10.158 29.746 2.747 8.048 5.544 16.08 8.21 24.155 3.328 10.087 6.483 20.232 9.83 30.313 2.575 7.76 5.35 15.452 7.996 23.188 2.054 6.001 4.08 12.012 6.063 18.037 3.215 9.771 6.354 19.566 9.58 29.333 3.75 11.355 7.517 22.704 11.352 34.03 3.837 11.33 7.808 22.616 11.645 33.946 4.084 12.062 8.172 24.124 12.09 36.24 6.248 19.315 12.227 38.717 18.575 57.998 3.517 10.68 7.833 21.099 11.239 31.81 1.767 5.555 2.242 11.51 3.474 17.248 1.268 5.905 2.737 11.768 4.134 17.646 3.118 13.116 5.394 26.876 1.35 39.54-3.872 12.12-9.034 24.418-22.167 31.323-11.136 5.855-21.01 14.086-31.574 21.066-3.958 2.616-8.328 4.6-12.443 6.991-16.332 9.49-32.597 19.095-48.964 28.525-16.207 9.339-32.568 18.412-48.75 27.795-17.919 10.39-35.69 21.037-53.567 31.498-11.963 7-24.037 13.81-35.994 20.82-12.34 7.235-24.538 14.717-36.918 21.885-9.26 5.362-18.805 10.235-28.055 15.616-11.3 6.574-22.354 13.57-33.643 20.163-12.23 7.144-24.664 13.937-36.902 21.066-9.395 5.472-18.53 11.391-27.95 16.82-17.532 10.108-35.227 19.935-52.778 30.01-13.431 7.71-27.538 13.927-42.421 18.011-6.887 1.89-14.319 1.73-21.476 2.705-16.745 2.28-33.378 2.151-49.878-1.878a5.9 5.9 0 0 0-1.985-.13c-12.461 1.338-24.104-2.79-35.929-5.5-13.21-3.026-26.406-6.168-39.463-9.786-12.438-3.447-24.644-7.722-37.036-11.346-8.921-2.61-18.179-4.181-26.93-7.237-11.305-3.948-22.245-8.94-33.36-13.435-12.16-4.916-24.366-9.714-36.506-14.678-16.836-6.884-33.6-13.949-50.455-20.785-8.22-3.334-16.646-6.158-24.854-9.519-8.01-3.28-15.85-6.968-23.782-10.438-3.592-1.572-7.226-3.05-11.277-4.753l-13.83 33.618-34.224-13.97 40.351-98.915 34.251 13.963-12.969 31.978c15.087 6.122 29.973 12.07 44.784 18.2 12.577 5.204 25.027 10.718 37.612 15.906 11.19 4.613 22.532 8.86 33.729 13.458 18.103 7.436 36.126 15.07 54.226 22.516 3.157 1.3 6.515 2.118 9.797 3.104 13.598 4.09 27.194 8.183 40.806 12.22 4.37 1.295 8.756 2.575 13.196 3.597 13.654 3.144 27.351 6.106 41.002 9.268 3.02.7 5.93 1.89 8.866 2.928 11.33 4.012 23.274 3.835 34.999 4.899 9.599.871 19.306 1.319 28.927.95 9.168-.351 18.85-.425 27.296-3.445 13.367-4.78 26.053-11.603 38.721-18.155 9.595-4.962 18.69-10.885 28.045-16.314 21.2-12.304 42.434-24.55 63.636-36.853a3212 3212 0 0 0 28.843-16.905c11.694-6.949 23.245-14.145 35.021-20.952 19.201-11.099 38.567-21.91 57.8-32.954 16.53-9.491 32.96-19.157 49.457-28.707 11.336-6.562 22.75-12.988 34.057-19.599 19.131-11.186 38.17-22.527 57.314-33.69 11.315-6.599 22.854-12.815 34.113-19.504 13.535-8.041 27.1-16.07 40.249-24.714 13.94-9.165 15.845-17.932 12.973-33.652-2.521-13.797-5.712-27.494-9.2-41.082-2.023-7.88-5.292-15.434-7.867-23.178-3.406-10.238-6.656-20.528-10.02-30.78-3.316-10.103-6.711-20.18-10.036-30.279-4.346-13.2-8.62-26.423-12.994-39.614-3.541-10.678-7.227-21.308-10.772-31.984-4.542-13.678-8.92-27.41-13.534-41.064-3.452-10.214-7.285-20.299-10.721-30.518-2.645-7.865-4.784-15.9-7.425-23.767-3.024-9.003-6.447-17.872-9.53-26.856-4.624-13.477-9.087-27.01-13.648-40.508-3.915-11.583-7.985-23.114-11.78-34.736-4.346-13.303-8.36-26.715-12.719-40.014-2.446-7.464-5.435-14.75-7.925-22.201-2.483-7.428-4.558-14.991-6.978-22.44-2.22-6.832-4.734-13.568-6.992-20.388-3.736-11.285-7.244-22.647-11.083-33.896-3.436-10.067-7.276-19.995-10.774-30.04-3.072-8.82-5.97-17.702-8.85-26.588-3.836-11.831-7.451-23.735-11.391-35.531-6.019-18.017-12.296-35.947-18.341-53.955-3.436-10.233-5.957-20.83-10.14-30.736-3.492-8.267-8.347-16.077-13.419-23.53-7.215-10.604-15.218-20.668-22.82-31.01-16.092-21.9-34.187-42.074-53.928-60.666-10.664-10.043-22.118-19.399-34.032-27.925-14.448-10.34-29.678-19.602-44.716-29.098-14.83-9.364-29.606-18.83-45.943-25.545-14.133-5.809-28.067-12.1-42.169-17.986-9.47-3.952-19.108-7.498-28.622-11.349-13.454-5.445-27.69-7.573-41.896-9.429-14.514-1.896-29.147-2.948-43.751-4.064-8.624-.66-17.292-.924-25.943-1.023-36.273-.416-72.547-.88-108.821-.966-20.577-.05-41.157.558-61.734.945-13.942.261-27.88.76-41.822.964-27.94.409-55.88.67-83.82 1.027-24.087.308-48.173.624-72.259 1.008-16.608.265-33.213.766-49.821.964-34.44.41-68.881.643-103.32 1.04-20.775.24-41.55.595-62.321 1.012-7.778.157-15.547.674-23.323.962-9.978.369-19.966 1.068-29.937.898-11.21-.19-22.431-1.943-33.605-1.607-9.634.29-19.244 2.351-28.8 4-13.827 2.385-25.674 9.774-37.84 16.068-12.046 6.232-23.607 13.431-35.196 20.508-12.9 7.877-25.873 15.687-38.307 24.263-17.73 12.231-36.677 22.752-52.545 37.66-8.413 7.904-17.898 14.67-26.274 22.61-8.93 8.464-13.198 19.413-16 31.45-5.254 22.579-2.053 45.319-2.626 67.962-.416 16.398-1.428 32.679-6.367 48.275-3.277 10.349-9.234 19.702-17.908 26.668-13.9 11.163-30.185 11.458-47.128 10.96-11.011-.324-21.025-3.923-31.506-5.849-12.668-2.328-25.144-5.733-37.656-8.861-9.806-2.451-19.462-5.548-29.329-7.695-8.769-1.907-17.733-2.925-26.617-4.296-8.909-1.376-17.818-2.754-26.74-4.038-9.577-1.379-19.135-3.342-28.762-3.815-17.581-.864-35.22-1.396-52.81-.972-14.464.349-28.912 2.076-43.33 3.564-18.286 1.889-36.499 5.29-54.81 5.85-11.922.365-24.076-2.636-35.907-5.16-6.77-1.443-13.114-4.915-19.624-7.537-4.081-1.644-8.28-3.104-12.12-5.208-3.235-1.774-6.35-4.033-8.961-6.635-14.278-14.227-28.308-28.654-39.34-45.724-12.422-19.222-25.416-38.078-37.756-57.352-11.353-17.735-22.573-35.58-33.113-53.803-11.804-20.408-23.114-41.12-34.012-62.026-9.504-18.233-19.558-36.051-31.442-52.866-10.52-14.884-19.952-30.565-30.932-45.087-6.47-8.559-14.647-15.969-22.741-23.12a265 265 0 0 0-26.387-20.489c-8.19-5.572-16.884-10.579-25.84-14.808-12.275-5.797-24.822-11.143-37.596-15.722-13.213-4.737-26.748-8.661-40.316-12.29-8.092-2.164-16.495-3.252-24.814-4.423-1.973-.277-4.172 1.054-6.267 1.645q-.12.849-.242 1.697c3.028 1.475 5.966 3.183 9.098 4.387 15.191 5.838 30.753 10.839 45.54 17.555 8.833 4.012 16.464 10.66 24.662 16.082 17.615 11.651 33.952 24.948 47.77 40.868 10.34 11.914 19.8 24.696 28.67 37.758 16.135 23.764 26.91 50.428 39.703 76 6.114 12.22 12.773 24.167 18.942 36.36 6.582 13.011 12.79 26.211 19.32 39.249 8.489 16.945 17.168 33.795 25.692 50.722 3.092 6.139 5.92 12.41 8.962 18.573a5938 5938 0 0 0 16.095 32.303c8.086 16.134 16.743 32.009 24.149 48.448 7.118 15.8 18.914 27.623 30.648 39.632 8.59 8.792 16.959 17.894 26.307 25.819 7.194 6.098 15.485 11.078 23.794 15.634 7.708 4.227 16.001 7.442 24.187 10.728 12.326 4.947 25.01 8.716 38.208 10.629 12.965 1.88 25.9 3.969 38.868 5.834 19.305 2.778 38.637 5.373 57.94 8.175a2887 2887 0 0 1 45.185 6.902c11.634 1.877 23.36 3.462 34.797 6.212 16.49 3.965 33.05 8.02 49.026 13.62 14.746 5.169 29.332 11.404 42.945 19.031 15.311 8.578 29.638 19.18 40.559 33.25 11.401 14.689 22.288 29.803 32.827 45.126 6.074 8.83 11.301 18.288 16.398 27.739 7.223 13.392 14.04 27.006 20.907 40.587 7.235 14.307 14.161 28.773 21.528 43.012 6.5 12.566 13.555 24.846 20.116 37.383 5.301 10.13 10.117 20.512 15.356 30.675 6.422 12.459 13.148 24.76 19.572 37.219 3.667 7.111 6.837 14.48 10.51 21.589 6.494 12.568 13.251 25 19.803 37.54 4.615 8.834 8.926 17.829 13.632 26.613 8.674 16.19 16.66 32.686 27.367 47.834 7.753 10.97 15.36 22.02 25.044 31.19 6.603 6.255 14.532 11.426 22.578 15.769 11.999 6.476 24.603 11.837 36.987 17.593 12.572 5.843 25.158 11.658 37.797 17.356 9.758 4.4 19.637 8.53 29.408 12.902 14.256 6.378 28.432 12.936 42.7 19.288 16.442 7.32 32.996 14.387 49.41 21.768 16.297 7.33 32.467 14.941 48.718 22.374 14.24 6.512 28.555 12.863 42.763 19.444 14.08 6.521 28.028 13.327 42.112 19.841 7.63 3.53 15.4 6.766 23.146 10.041 16.393 6.932 32.775 13.896 49.234 20.67 12.828 5.28 25.765 10.293 39.103 15.603l-13.876 33.866c-13.524-5.711-26.508-11.275-39.556-16.683-16.149-6.693-32.413-13.111-48.512-19.921-14.216-6.014-28.273-12.403-42.76-18.747"/></svg>