<svg xmlns="http://www.w3.org/2000/svg" viewBox="0 0 1996 821" xml:space="preserve"><path fill="#fff" d="M1312 733.014c12.931-.246 25.362-.577 37.794-.715 14.047-.155 28.096-.023 42.142-.223 17.602-.25 35.201-.777 52.803-1.065 22.824-.373 45.65-.58 68.474-.952 14.992-.244 29.98-.653 44.97-.988 14.606-.325 29.211-.732 43.818-.956 25.771-.397 51.543-.703 77.315-1.01 31.435-.374 62.895-.1 94.296-1.32 15.785-.614 31.582-3.292 47.155-6.204 11.889-2.223 23.814-5.33 35.02-9.804 10.08-4.023 19.766-9.656 28.6-16.006 10.3-7.405 20.386-15.534 28.918-24.857 9.87-10.785 19.12-22.526 26.483-35.114 7.933-13.56 10.513-29.32 13.585-44.812 3.956-19.946 2.926-39.933 2.527-59.883-.333-16.62-3.672-32.866-9.322-48.776-6.047-17.026-12.712-33.671-23.534-48.117-15.102-20.16-32.929-37.137-55.99-48.705-15.522-7.785-31.581-10.484-48.346-11.597-6.257-.415-12.552-1.288-18.776-.952-11.984.646-23.945 1.851-35.886 3.107-14.02 1.475-28.134 2.553-41.98 5.062-19.435 3.523-38.959 3.06-58.457 2.621-17.264-.388-33.41-4.13-48.377-14.5-11.978-8.297-19.776-19.556-25.49-31.443-6.063-12.61-9.98-26.733-10.764-41.325-.857-15.918-2.12-31.847-4.088-47.662-1.587-12.754-3.332-25.699-7.074-37.926-5.607-18.327-13.694-35.91-27.924-49.358-9.986-9.437-21.128-17.667-31.904-26.248-15.62-12.44-31.558-24.488-47.007-37.135-9.302-7.615-19.396-13.8-30.549-17.868-6.655-2.427-13.987-3.827-21.072-4.079-16.431-.584-33.066-2.04-48.996 3.93-3.715 1.393-6.18 4.334-5.446 8.38 1.21 6.686 2.724 13.361 4.716 19.855 3.451 11.252 7.96 22.294 6.153 34.405-.41 2.743-1.648 5.575-3.213 7.887-2.56 3.785-5.419 7.461-8.66 10.671-5.512 5.46-12.523 8.003-20.18 8.563-15.192 1.111-28.753-3.711-41.072-12.155-16.17-11.082-34.01-18.86-51.784-26.776-10.478-4.666-20.99-9.296-31.69-13.41-12.534-4.821-25.243-9.202-37.968-13.503-7.03-2.376-14.395-3.796-21.344-6.362-10.283-3.798-19.84-1.171-28.739 3.33-9.665 4.888-18.698 11.048-27.9 16.824-16.37 10.275-32.685 20.638-48.974 31.04-26.034 16.624-52.365 32.814-77.918 50.149-16.448 11.157-31.632 24.116-41.263 42.228-4.469 8.404-7.139 17.336-8.078 26.77-.777 7.8-1.132 15.726 1.594 23.167 5.42 14.787 13.879 26.656 28.678 34.337 14.94 7.754 30.557 12.226 46.774 15.638 10.474 2.203 20.786 5.163 31.21 7.615 12.18 2.865 24.418 5.476 36.601 8.327 10.419 2.439 20.784 5.102 31.19 7.592a8713 8713 0 0 0 43.612 10.313c11.846 2.77 23.728 5.382 35.559 8.214 18.788 4.498 37.514 9.266 56.327 13.654 21.053 4.91 42.206 9.395 63.257 14.312 14.211 3.319 28.276 7.266 42.49 10.576 24.068 5.604 48.227 10.815 72.297 16.409 14.209 3.301 28.287 7.162 42.485 10.512 14.058 3.318 28.307 5.875 42.258 9.575 12.534 3.324 24.185 9.097 34.31 17.264 7.824 6.312 14.917 13.525 22.426 20.236 10.857 9.703 17.1 22.494 23.859 34.992 7.256 13.418 9.365 28.223 11.874 42.896 1.163 6.805 2.38 13.868 1.753 20.646-.834 9.007-2.374 18.248-5.51 26.682-7.267 19.54-20.112 35.617-35.647 49.16-4.83 4.212-12.232 5.903-18.749 7.668-14.998 4.06-30.402 4.187-45.644 1.922-9.92-1.474-19.605-4.504-29.402-6.81-12.783-3.01-25.579-5.965-38.358-8.992-17.855-4.23-35.667-8.646-53.558-12.719-17.43-3.968-34.974-7.439-52.396-11.443-11.37-2.614-22.553-6.044-33.924-8.65-14.576-3.338-29.3-6.024-43.878-9.353-11.382-2.6-22.595-5.93-33.962-8.6-8.71-2.047-17.583-3.397-26.314-5.367-11.233-2.534-22.373-5.476-33.595-8.062-14.7-3.388-29.47-6.468-44.152-9.926-14.198-3.343-28.277-7.19-42.49-10.46-14.726-3.389-29.59-6.177-44.317-9.554-11.37-2.606-22.6-5.826-33.94-8.572-10.405-2.52-20.874-4.78-31.32-7.138-12.674-2.86-25.347-5.723-38.03-8.546-14.6-3.25-29.234-6.351-43.807-9.716-11.06-2.554-22.026-5.508-33.072-8.123-14.066-3.33-28.176-6.47-42.256-9.742A4999 4999 0 0 1 747.1 507.9c-16.203-3.886-32.056-4.584-48.27 1.248-12.148 4.37-25.083 6.55-37.663 9.72-14.297 3.603-28.557 7.357-42.893 10.797-13.56 3.255-27.225 6.07-40.791 9.3-10.09 2.404-20.07 5.273-30.147 7.732-11.655 2.843-23.38 5.397-35.045 8.202-10.23 2.46-20.405 5.145-30.627 7.639-14.347 3.5-28.725 6.877-43.071 10.381-13.399 3.273-26.754 6.725-40.164 9.948-14.367 3.451-28.795 6.646-43.159 10.106-9.925 2.391-19.669 5.843-29.714 7.334-8.473 1.258-17.27.6-25.91.342-4.032-.12-8.013-1.449-12.052-1.962-7.756-.986-14.067-5.304-20.95-8.44-13.768-6.271-23.537-16.691-30.845-29.291-9.97-17.191-13.79-35.742-8.893-55.517.546-2.207.436-4.582 1.04-6.766 4.15-15.01 14.551-25.53 25.73-35.464 13.337-11.854 29.733-17.676 46.398-22.378 12.328-3.479 25.156-5.177 37.748-7.733 7.163-1.454 14.291-3.08 21.45-4.552 10.675-2.195 21.38-4.252 32.043-6.5 9.534-2.01 19.013-4.289 28.55-6.282 8.124-1.697 16.353-2.92 24.431-4.797 6.46-1.502 12.749-3.731 19.142-5.534 8.886-2.506 17.87-4.685 26.684-7.412 21.896-6.773 40.758-17.785 50.291-39.896 5.517-12.797 6.759-26.287 4.987-40.37-1.201-9.55-3.146-18.867-7.556-27.041-8.156-15.118-19.042-27.493-37.478-30.945-22.538-4.219-45.227-2.554-67.868-2.888-30.933-.456-61.87-.912-92.806-.913-32.436 0-64.872.47-97.307.874-11.658.146-23.347.274-34.954 1.237-6.553.545-13.079 2.402-19.418 4.325-10.67 3.238-21.343 6.582-31.726 10.624-23.081 8.984-44.486 20.657-63.467 37.075-16.159 13.978-27.632 31.294-38.2 49.168-5.734 9.7-7.74 21.537-12.06 32.153-5.768 14.174-6.186 29.1-6.476 43.917-.358 18.254.65 36.531.822 54.8.416 43.988.57 87.978 1.075 131.964.219 19.027 1.536 38.084 9.15 55.8 3.6 8.374 8.745 16.222 14.059 23.69 8.01 11.258 17.57 21.38 29.478 28.466 9.255 5.507 19.26 9.974 29.358 13.774 8.293 3.121 17.106 5.665 25.879 6.52 12.56 1.222 25.293.677 37.952.875 1.332.021 2.665-.05 3.997-.053 26.166-.057 52.332-.013 78.497-.199 15.503-.11 31.004-.6 46.506-.888 20.449-.38 40.897-.756 61.346-1.087 20.99-.34 41.981-.568 62.97-.95 11.939-.217 23.872-.749 35.811-.956 23.773-.413 47.549-.663 71.322-1.05 15.803-.257 31.603-.703 47.405-.94 27.101-.408 54.204-.674 81.304-1.09 13.944-.214 27.884-.78 41.829-.906 17.886-.162 35.775-.04 54.798-.04 0 6.981-.084 14.602.033 22.22.063 4.09-2.864 3.403-5.182 3.42-13.999.101-28-.015-41.998.163-19.443.247-38.884.732-58.326 1.037-23.449.369-46.9.616-70.348.992-15.778.253-31.552.715-47.33.948-27.608.408-55.217.674-82.824 1.075-16.499.24-32.995.661-49.494.935-23.773.393-47.547.709-71.32 1.092-16.616.267-33.232.598-49.847.89-21.936.386-43.87.792-65.807 1.133-21.454.334-42.915.383-64.362.959-16.865.452-32.912-3.541-48.604-8.76-12.132-4.033-24.562-8.275-35.406-14.83-17.445-10.546-30.549-26.101-42.812-42.38-12.973-17.222-19.146-37.044-22.459-57.651-2.27-14.122-2.17-28.703-2.259-43.084-.29-46.83-.118-93.662-.261-140.493-.04-13.172-.844-26.343-.776-39.512.095-18.607 1.742-36.96 9.414-54.368 3.455-7.84 4.848-16.662 8.78-24.203 5.762-11.051 12.741-21.497 19.602-31.938 11.232-17.092 26.443-30.277 42.582-42.535 13.733-10.432 28.874-18.44 44.529-25.339 16.307-7.186 33.153-12.965 50.374-17.843 27.8-7.874 56.108-5.665 84.3-5.693 37.273-.036 74.546.584 111.82.788 7.273.04 14.55-.783 21.823-.757 9.776.034 19.551.765 29.325.73 13.844-.05 27.7-1.041 41.525-.684 15.896.41 31.985 2.007 46.531 8.589 14.086 6.373 25.929 16.32 34.726 29.485 9.948 14.89 14.255 31.404 16.483 49.026 2.148 16.98-.677 33.12-5.535 48.964-2.143 6.99-6.582 13.477-10.862 19.573-9.643 13.734-22.626 24.157-37.735 30.816-12.975 5.717-27.076 8.908-40.736 13.029-9.342 2.819-18.683 5.766-28.199 7.86-16.87 3.713-33.896 6.704-50.81 10.22-12.435 2.585-24.778 5.614-37.196 8.285-12.261 2.637-24.576 5.027-36.85 7.61-13.484 2.84-26.589 6.438-39.39 12.062-13.088 5.75-21.777 15.308-29.453 26.338-2.105 3.024-2.982 7.306-3.293 11.102-1.312 16.024 1.236 30.845 12.776 43.387 10.184 11.068 22.956 15.773 37.171 18.625 10.136 2.033 19.647-.235 29.202-2.333 14.94-3.28 29.75-7.151 44.6-10.833 16.894-4.19 33.745-8.56 50.666-12.64 13.773-3.32 27.656-6.184 41.425-9.519 13.438-3.254 26.77-6.94 40.192-10.268 13.433-3.33 26.93-6.4 40.378-9.674 17.557-4.273 35.08-8.683 52.64-12.942 14.065-3.41 28.18-6.612 42.24-10.04 10.257-2.503 20.466-5.203 30.687-7.853 12.6-3.267 25.04-7.511 37.835-9.551 9.483-1.512 19.258-1.619 29.137 1.152 15.362 4.308 31.232 6.776 46.825 10.301 14.762 3.337 29.417 7.143 44.167 10.535 14.29 3.287 28.66 6.225 42.958 9.476 11.26 2.56 22.45 5.426 33.698 8.044 14.423 3.357 28.877 6.585 43.31 9.899a14269 14269 0 0 1 43.817 10.127c11.088 2.582 22.146 5.292 33.248 7.816 10.945 2.488 21.937 4.77 32.89 7.222 11.745 2.63 23.487 5.278 35.197 8.055 12.518 2.969 24.986 6.15 37.499 9.144q28.512 6.825 57.057 13.513a3625 3625 0 0 0 38.568 8.838c14.303 3.187 28.645 6.2 42.95 9.378 7.468 1.659 14.887 3.545 22.342 5.266 15.54 3.59 31.09 7.138 46.636 10.7 10.32 2.366 20.66 4.656 30.96 7.111 11.869 2.83 23.684 5.886 35.557 8.695 15.374 3.638 30.75 7.284 46.186 10.644 16.947 3.688 33.58 9.385 51.409 7.541 8.553-.885 17.183-1.87 23.972-7.253 5.098-4.04 9.164-9.516 13.211-14.724 10.578-13.61 16.953-28.957 15.468-46.399-.81-9.511-3.736-18.831-5.52-28.273-2.492-13.186-10.067-23.885-16.99-34.868-1.99-3.158-5-5.674-7.539-8.487-10.797-11.965-23.106-21.958-38.141-28.076-4.763-1.939-9.949-2.884-14.989-4.085-14.566-3.47-29.154-6.847-43.738-10.244-11.264-2.624-22.543-5.187-33.8-7.841-14.101-3.325-28.174-6.772-42.283-10.061-14.589-3.4-29.213-6.647-43.81-10.013-10.147-2.34-20.278-4.75-30.408-7.162-12.198-2.905-24.386-5.852-36.581-8.767-14.102-3.371-28.203-6.749-42.314-10.084-14.109-3.334-28.234-6.601-42.344-9.93-14.108-3.327-28.2-6.717-42.31-10.038-14.263-3.357-28.543-6.647-42.807-10-7.77-1.825-15.518-3.736-23.283-5.58-14.576-3.46-29.163-6.876-43.734-10.357-9.502-2.27-18.923-4.926-28.49-6.867-13.147-2.666-25.972-6.267-37.934-12.347-7.553-3.839-14.766-8.358-22.067-12.68-8.165-4.834-11.446-13.682-16.96-20.714-9.003-11.484-12.232-25.14-13.218-38.847-.75-10.408 1.596-21.242 3.84-31.61 2.707-12.499 8.935-23.936 16.717-33.784 7.99-10.112 17.25-19.722 27.561-27.389 19.294-14.345 39.578-27.395 59.763-40.5 33.446-21.717 67.211-42.943 100.7-64.595 15.372-9.94 32.264-14.566 50.078-12.077 12.551 1.754 24.721 6.554 36.915 10.45 11.741 3.752 23.334 7.982 34.913 12.216 5.624 2.056 11.09 4.553 16.59 6.935 12.794 5.542 25.869 10.542 38.263 16.87 13.16 6.719 25.566 14.897 38.5 22.08 6.044 3.356 12.43 6.597 19.793 3.985 5.56-1.972 7.56-6.347 5.864-11.95-3.245-10.726-7.064-21.349-9.304-32.289-2.276-11.116-1.806-22.435 5.973-31.863 5.245-6.358 11.726-11.479 19.758-13.664 23.226-6.32 46.565-5.332 70.036-.877 14.77 2.804 28.748 7.524 40.898 16.233 14.108 10.112 27.662 21.02 41.188 31.915 18.67 15.04 37.429 30.008 55.42 45.836 5.7 5.014 9.38 12.49 13.437 19.171 11.286 18.589 18.301 38.52 21.684 60.245 2.65 17.023 3.056 34.071 4.748 51.08 1.503 15.095 4.344 29.89 9.155 44.474 5.114 15.502 15.63 25.354 29.228 32.264 5.298 2.692 12.068 2.878 18.235 3.376 9.404.759 18.889 1.365 28.297.986 9.993-.404 19.938-2.016 29.9-3.133q11.746-1.315 23.481-2.713c10.588-1.264 21.143-2.93 31.763-3.772 15.793-1.252 31.564-3.713 47.496-1.276 12.46 1.907 25.144 2.673 37.412 5.378 7.598 1.676 14.659 5.913 21.866 9.208 13.245 6.056 25.371 13.983 35.837 24.042 13.984 13.442 27.42 27.449 37.23 44.45 8.285 14.355 15.46 29.212 20.02 45.184 3.204 11.226 7.18 22.434 8.586 33.922 1.885 15.396 2.03 31.053 2.14 46.603.075 10.704-.453 21.523-2 32.102-2.491 17.039-6.063 33.871-12.665 49.975-5.814 14.183-14.273 26.435-23.735 38.408-15.094 19.097-34.08 33.494-53.693 47.225-13.004 9.105-27.474 15.811-42.803 19.593-18.33 4.522-36.827 8.212-55.817 9.991-29.576 2.772-59.115.815-88.653 1.677-17.104.499-34.219.648-51.327 1.02-12.607.274-25.21.774-37.818.962-27.78.413-55.561.684-83.342 1.029-28.606.355-57.21.699-85.815 1.104-17.285.245-34.568.597-51.852.9-20.607.362-41.214.766-61.822 1.07-24.285.36-48.572.575-72.856.966-11.944.192-23.881.77-35.825.945-28.775.424-57.553.67-86.329 1.076-15.444.218-30.886.621-46.329.939-16.94.348-33.88.755-50.82 1.026-23.613.377-47.228.598-70.84.987-15.484.255-30.963.8-46.447 1.019-28.61.403-57.221.598-85.83 1.03-6.255.096-12.5.826-19.35 1.306v13.616h-19.824v-54.526h19.54v12.92c10.763 0 21.145.002 31.526-.002 1 0 2-.051 2.999-.06 40.101-.364 80.203-.672 120.304-1.113 19.272-.211 38.542-.676 57.813-1.02 18.11-.323 36.219-.628 54.328-.958 17.44-.317 34.878-.68 52.317-.977 21.936-.374 43.872-.71 65.808-1.046 21.776-.332 43.554-.59 65.329-.981 14.574-.262 29.145-.7 44.218-1.06"/></svg>