<svg viewBox="0 0 2004 871" xml:space="preserve" xmlns="http://www.w3.org/2000/svg"><path d="M1307.867 24.406c-2.611-.028-5.235 1.084-7.547 1.95 7.052.353 13.8.53 20.543.466-6.744.063-13.49-.114-20.865-.44-1.056-.191-1.483-.135-1.91-.08-1.057.432-2.113.863-3.28 1.253a19 19 0 0 0 2.909-1.362c-2.074.537-3.802 1.176-5.32 2.051a27 27 0 0 1-.553.125c-1.654-.15-2.697-.07-3.74.008-1.087.444-2.173.887-3.366 1.283a19 19 0 0 0 3-1.402c-2.083.532-3.823 1.176-5.347 2.068q-.228.053-.463.104c-.974-.184-1.398-.12-1.825-.059-1.235.83-2.45 1.701-3.685 2.533a39 39 0 0 0 3.32-2.644c-4.763 2.17-9.17 4.448-13.383 6.965l-.464.125c-.944-.14-1.368-.076-1.793-.01-1.685 1.102-3.37 2.206-5.182 3.287 1.781-1.092 3.388-2.216 4.828-3.387-2.756 1.505-5.171 3.106-7.23 4.756l-.121.066c-.243-.04-.327-.038-.354-.03l-.006.001h-.002l-.002.002-.002.002v.004c-1.6 1.152-3.2 2.304-4.918 3.47a73 73 0 0 0 4.551-3.47q-4.44 2.831-7.892 5.65l-.616.381c-.6.076-1.06.25-1.06.25-1.154.832-2.308 1.662-3.572 2.477 1.225-.828 2.302-1.679 3.232-2.572-2.058 1.18-3.793 2.45-5.191 3.76l-.155.087c-.247-.038-.324-.021-.345-.004l-.002.002-.002.002-.002.002v.004l-.002.002v.006h.002v.002c-1.797 1.556-3.439 3.354-5.42 4.62 1.981-1.266 3.622-3.063 5.054-4.612-7.27 4.546-14.193 9.085-20.941 13.855l-.844.443c-.937.095-1.4.389-1.865.682-2.548 2.18-4.876 4.708-7.682 6.48 2.806-1.772 5.134-4.3 7.319-6.47a3527 3527 0 0 0-44.813 27.676c-12.062 7.578-23.988 15.37-36.056 22.94-16.63 10.43-33.34 20.732-50.008 31.103-17.347 10.793-34.742 21.51-51.996 32.449-7.3 4.628-14.304 9.722-21.082 14.646l-.303.168c-.255-.037-.333-.02-.356-.002l-.005.006v.002l-.002.002v.012c-1.802 1.558-3.447 3.361-5.434 4.63 1.987-1.269 3.633-3.071 5.072-4.62-8.26 5.198-16.175 10.387-23.916 15.808q-.435.24-.875.479c-.93.111-1.392.407-1.855.703-.29.63-.427 1.494-.832 1.947.4-.453.497-1.317.469-1.95-10.599 6.772-20.835 13.546-30.733 20.497.67.081 1.178.14 1.549.03-.373.112-.888.061-1.602.02-.366-.119-.477-.032-.49-.02v.001c-2.377 2.141-4.756 4.282-7.271 6.375 2.48-2.07 4.802-4.183 6.98-6.219-3.69 2.968-7.09 5.778-10.164 8.776l-.078.06c-.37-.127-.49-.016-.504-.002h-.002c-.24.568-.406 1.208-.646 1.776.209-.552.296-1.16.35-1.635-7.535 7.252-15.301 13.916-21.823 21.633-4.297 5.084-6.829 11.661-9.797 17.555l-.074.064c-.237.005-.308.03-.328.049l-.004.006-.002.002v.002h-.002v.006h.002v.003c-.42.966-.983 2.06-1.434 3.053.421-1.001.806-1.994 1.098-2.963-1.339 2.377-2.342 4.662-3.01 6.885.42-.744.75-1.469 1.104-2.2-.407.85-.693 1.588-1.18 2.513-.454.804-.499 1.233-.543 1.66-.23 1.293-.423 2.595-.652 3.888.196-1.276.288-2.553.3-3.761a209 209 0 0 0-5.15 18.83c1.69-4.3 3.122-8.472 4.348-12.701-1.226 4.23-2.658 8.399-4.406 13.017-.42.855-.44 1.286-.46 1.717.001 1.714.002 3.43-.113 5.285a27 27 0 0 0-.236-5.059c-.343 2.751-.344 5.28-.004 7.694l-.057.453c-.435 1.553-.458 2.602-.48 3.65.078 1.61.064 3.429.121 5.084-.108-1.667-.254-3.305-.502-4.89-.14 4.047.1 7.9.635 11.474.017-.63-.023-1.212-.02-1.83.001.754.066 1.363.051 2.153-.202 1.028-.138 1.453-.074 1.878.646 2.349 1.292 4.698 1.887 7.184a86 86 0 0 0-2.008-6.78c.83 4.076 1.776 7.765 2.969 11.214l.113.595a11.7 11.7 0 0 0-.051 2.803c1.255 2.074 2.559 4.12 3.756 6.227-1.197-2.107-2.5-4.152-3.861-5.854 3.439 6.576 6.977 12.805 10.744 18.858q.232.493.465.994c1.081 2.297 2.357 4.072 3.634 5.847.431.468.863.935 1.284 1.496q-.636-.778-1.268-1.17c.657 1.05 1.3 1.794 1.96 2.217l.048.082c-.028.252-.004.318.015.334l.006.002.002.002h.008l.002-.002h.002c1.23 1.464 2.462 2.927 3.717 4.532a58 58 0 0 0-3.705-4.18c1.945 2.682 3.879 5.033 5.843 7.04l.301.425c.665.775 1.225.931 1.785 1.088.634.264 1.305.575 2.028.953-.676-.348-1.329-.568-1.936-.63 1.051.723 2.01 1.119 2.928 1.218-.17-.118-.338-.215-.506-.317.27.153.507.261.809.453 1.45 1.086 2.557 1.737 3.664 2.387 1.236.609 2.471 1.217 3.738 1.916a35 35 0 0 0-3.613-1.592c2.2 1.363 4.294 2.445 6.347 3.237q.314.207.633.425c.762.741 1.326.895 1.889 1.05 5.009 2.65 10.018 5.3 15.38 8.366.782.447 1.21.48 1.64.512.909.258 1.866.566 2.898.95-.966-.373-1.901-.587-2.768-.628 1.405.7 2.678 1.08 3.918 1.137a12 12 0 0 0-.922-.42c.42.161.807.29 1.278.502 1.117.459 1.846.515 2.574.572.949.18 1.89.386 2.844.55a27 27 0 0 0-2.694-.212c6.366 1.996 12.598 3.689 18.768 5.057a98 98 0 0 1 1.281.52c1.807.762 3.314.87 4.82.976a52 52 0 0 1 3.387.867c-1.125-.323-2.217-.51-3.24-.533 1.745.698 3.344 1.063 4.898 1.098-.292-.12-.58-.215-.869-.315.42.135.796.227 1.252.397 1.47.465 2.514.52 3.557.574 1.974.374 3.949.75 6.316 1.52.822.426 1.252.455 1.682.486 2.119.134 4.3-.001 6.344.463-2.045-.464-4.224-.33-6.15-.135 5.19 1.395 10.203 2.487 15.146 3.24q.416.187.837.385c1.818.761 3.33.86 4.842.959a51 51 0 0 1 3.397.85c-1.128-.319-2.224-.502-3.25-.518 1.746.688 3.346 1.045 4.902 1.07-.293-.118-.582-.212-.873-.31.421.133.798.222 1.256.39 1.469.468 2.512.525 3.555.582 1.975.38 3.948.76 6.359 1.536 1.168.438 1.9.479 2.63.521 5.643 1.304 11.286 2.607 17.407 4.328 1.52.489 2.56.561 3.602.633 1.067.226 2.182.496 3.363.83-1.12-.31-2.206-.485-3.225-.494 1.744.68 3.35 1.025 4.893 1.043-.282-.111-.558-.2-.836-.293.402.126.76.21 1.195.367 1.152.437 1.881.475 2.612.512 1.98.38 3.962.759 6.326 1.539.81.43 1.239.461 1.668.492 1.38.256 2.892.646 4.295.924-1.385-.232-2.768-.458-4.1-.59 3.72.996 7.249 1.661 10.692 2.006.155.04.282.052.439.094.829.45 1.258.489 1.686.529 1.65.34 3.3.682 5.41 1.42 1.5.472 2.54.546 3.582.62 1.081.235 2.212.513 3.412.856-1.139-.321-2.24-.503-3.274-.517 1.744.682 3.35 1.027 4.891 1.055-.304-.12-.604-.217-.904-.317.423.132.802.223 1.261.389 1.155.428 1.888.464 2.62.502 1.972.387 3.946.775 6.31 1.556.822.42 1.25.448 1.68.475 5.978 1.333 11.956 2.667 18.379 4.41 1.176.442 1.908.472 2.64.504 1.995.367 3.99.734 6.39 1.52 1.138.46 1.868.503 2.599.544 1.985.37 3.971.741 6.377 1.516 1.153.441 1.886.477 2.619.514 5.65 1.31 11.3 2.619 17.388 4.353 1.167.47 1.897.516 2.627.56a52 52 0 0 1 3.407.858c-1.13-.323-2.23-.505-3.262-.523 1.743.695 3.341 1.055 4.904 1.082-.305-.124-.608-.225-.91-.328.439.138.834.234 1.313.41 1.803.467 3.17.52 4.537.572 1.073.238 2.192.52 3.377.867-1.123-.325-2.21-.512-3.225-.539 1.744.698 3.333 1.067 4.873 1.106-.301-.123-.597-.224-.895-.326.42.135.798.228 1.254.398 1.144.442 1.877.48 2.61.52 1.982.373 3.964.747 6.326 1.523.81.436 1.238.47 1.668.504 1.35.219 2.702.437 4.096.744a30 30 0 0 0-3.897-.414c2.484.701 4.805 1.133 7.059 1.271q.46.151.93.323c1.817.744 3.325.84 4.833.937a53 53 0 0 1 3.43.889c-1.141-.335-2.248-.528-3.285-.553 1.745.703 3.344 1.069 4.894 1.108-.32-.131-.635-.238-.95-.346.445.142.848.243 1.335.424 1.476.457 2.52.509 3.563.56 1.068.23 2.178.504 3.35.842-1.11-.312-2.19-.491-3.2-.512 1.747.694 3.343 1.057 4.9 1.086-.274-.112-.545-.2-.818-.295.396.128.751.212 1.178.371 1.127.452 1.857.493 2.588.532 1.131-.157 2.36-.666 3.396-.48-1.035-.185-2.252.343-3.201.81 6.097 1.67 12 3.01 17.809 4.011-4.858-1.84-9.596-3.43-14.403-4.775 4.807 1.344 9.544 2.936 14.76 4.852 1.184.457 1.916.5 2.647.545a51 51 0 0 1 3.43.85c-1.142-.323-2.25-.503-3.29-.514 1.745.685 3.349 1.034 4.904 1.052-.314-.125-.625-.227-.935-.33.441.136.839.23 1.32.404 1.476.46 2.521.516 3.565.57 1.983.364 3.967.729 6.332 1.495.81.435 1.238.467 1.668.5 5.973 1.334 11.945 2.668 18.367 4.414 1.18.445 1.913.477 2.644.51 1.076.235 2.2.517 3.393.863-1.128-.323-2.224-.51-3.248-.53 1.746.695 3.346 1.057 4.894 1.089-.3-.122-.595-.221-.892-.323.428.136.811.231 1.277.403 1.48.45 2.524.49 3.569.531 1.978.385 3.957.77 6.365 1.557 1.16.44 1.89.478 2.62.517 1.984.371 3.966.742 6.331 1.514.81.432 1.24.463 1.668.494 1.121.239 2.388.614 3.533.875-1.129-.218-2.258-.431-3.336-.553 3.107.975 6.016 1.626 8.856 1.934-.235-.075-.46-.115-.694-.186.382.11.683.145 1.076.266 1.497.467 2.54.511 3.585.557 1.089.248 2.227.544 3.435.906-1.145-.342-2.253-.542-3.291-.57 1.743.708 3.342 1.08 4.883 1.125-.32-.132-.636-.241-.951-.35.437.141.832.243 1.308.422 1.148.43 1.88.46 2.612.49 1.994.373 3.988.746 6.345 1.533.792.44 1.22.468 1.649.494.962-.089 1.968-.33 2.931-.423-.94.124-1.9.463-2.736.76 6.102 1.669 12.009 3.001 17.846 3.986-4.511-1.818-8.915-3.426-13.418-4.672 4.503 1.246 8.906 2.856 13.8 4.75 1.495.48 2.539.535 3.58.59 1.095.237 2.24.522 3.458.875-1.152-.334-2.27-.521-3.319-.538 1.744.695 3.348 1.05 4.903 1.077a17 17 0 0 0-.973-.35c.453.141.862.243 1.357.424 1.48.451 2.526.5 3.57.547 1.088.241 2.221.528 3.425.88-1.14-.331-2.245-.524-3.276-.55 1.745.694 3.341 1.057 4.883 1.097-.312-.126-.62-.227-.928-.332.43.137.818.233 1.285.405 1.143.436 1.875.477 2.606.52 1.155-.22 2.433-.851 3.469-.667-1.035-.183-2.302.468-3.284 1 5.77 1.643 11.353 2.952 16.868 3.912-4.498-1.88-8.893-3.526-13.38-4.865 4.487 1.34 8.881 2.985 13.762 4.945 1.495.482 2.538.536 3.58.59 1.107.242 2.263.532 3.497.89-1.166-.341-2.296-.535-3.354-.554 1.745.695 3.348 1.055 4.9 1.084a17 17 0 0 0-1.02-.365c.468.145.893.25 1.405.437 1.478.448 2.52.493 3.565.54 1.08.24 2.21.528 3.402.88-1.13-.33-2.226-.522-3.248-.55 1.746.701 3.34 1.074 4.885 1.115-.309-.127-.614-.231-.918-.336.427.137.812.235 1.275.408 1.137.44 1.869.475 2.6.51 5.973 1.332 11.946 2.663 18.398 4.402 1.522.464 2.563.52 3.606.576 1.078.24 2.206.524 3.402.873-1.135-.328-2.233-.517-3.264-.537 1.742.697 3.347 1.057 4.887 1.09-.307-.124-.61-.225-.914-.328.426.136.81.23 1.273.4 1.155.43 1.888.462 2.62.493 1.973.388 3.945.776 6.355 1.558 1.168.428 1.9.463 2.63.496 5.636 1.304 11.271 2.607 17.4 4.317 1.533.483 2.574.56 3.615.636.914.235 1.884.52 2.935.881-.978-.351-1.927-.54-2.808-.554 1.41.665 2.692 1.005 3.943 1.027a12 12 0 0 0-.943-.402c.44.155.845.278 1.343.488 1.795.474 3.157.543 4.52.613 3.948 1.55 8.021 2.852 11.803 4.736-3.782-1.884-7.854-3.187-11.678-4.402 6.15 3.585 12.177 6.836 18.365 9.762l.088.086c-.1.373.025.487.041.5.898.431 1.797.862 2.709 1.369-.877-.44-1.73-.8-2.541-1.092 1.7 1.091 3.26 1.95 4.797 2.514q.26.186.523.389c.394.78.676.964.957 1.148.898.583 1.796 1.164 2.588 2.117-.093.324-.054.435-.043.457l.002.002v.002c.42.224.835.458 1.233.764a3.1 3.1 0 0 0-1.125-.52c.645.696 1.184 1.147 1.87 1.244a4 4 0 0 0-.216-.257q.133.139.262.3c-.097.372-.034.479-.026.49l.002.003c1.683 1.365 3.363 2.736 4.947 4.482.017.018.035.03.051.049-.095.367-.01.474 0 .486h.002c.427.222.85.455 1.256.762a3.1 3.1 0 0 0-1.147-.52c.65.685 1.19 1.126 1.87 1.215a3.6 3.6 0 0 0-.559-.568c.208.172.413.364.606.601-.09.362-.037.464-.03.475h.002a9 9 0 0 1 1.246.76 3.1 3.1 0 0 0-1.136-.516c.653.693 1.195 1.142 1.884 1.234a3.6 3.6 0 0 0-.51-.53c.192.164.379.347.555.568-.095.367-.044.472-.037.484 1.72 1.385 3.443 2.77 5.049 4.527-.1.326-.062.435-.05.457l.001.002v.002c.424.229.846.47 1.248.783a3.1 3.1 0 0 0-1.14-.539c.645.701 1.181 1.158 1.863 1.256a3.6 3.6 0 0 0-.55-.58c.206.178.408.374.599.617-.085.345-.037.46-.024.483l.002.002v.002a232 232 0 0 1 2.852 3.763c-.906-1.2-1.813-2.358-2.694-3.466 2.015 2.957 3.898 5.666 5.953 8.21q.33.522.65 1.057c.53 1.605 1.25 2.692 1.968 3.78 2.49 3.755 5.159 7.41 7.394 11.312-2.235-3.903-4.904-7.555-7.422-10.957 2.905 6.116 5.835 11.88 9.026 17.416l.06.453c.062 2.02.368 3.426.674 4.834.247.288.493.577.715.934a2.3 2.3 0 0 0-.73-.612c.308.74.632 1.194 1.16 1.502q.074.205.136.44c-.1 1.582-.007 2.623.086 3.664.64 2.19 1.279 4.378 1.866 6.707a72 72 0 0 0-1.987-6.323c.807 3.762 1.73 7.151 2.893 10.288l.1.498c-.163 1.01-.108 1.438-.053 1.865.253.1.658.156.812.285-.157-.12-.574-.119-.914.14-.03 9.197.043 17.967.475 26.651a34.6 34.6 0 0 0 1.988-6.623 37 37 0 0 1-2.059 6.982c-.475 1.177-.52 1.91-.566 2.641-.222 1.04-.445 2.08-.752 3.152.236-1.027.38-2.023.436-2.966-.696 1.905-1.122 3.653-1.262 5.347q-.127.302-.268.61c-.72.773-.86 1.329-1 1.884-.093.35-.187.7-.36 1.075a1.9 1.9 0 0 0 .052-.979c-.44.651-.612 1.22-.532 1.777a6 6 0 0 1-.224.278c-.667.725-.798 1.287-.93 1.85-.807 1.865-1.614 3.731-2.549 5.605a43 43 0 0 0 2.22-5.47c-1.471 2.68-2.619 5.23-3.425 7.747l-.04.072c-.252.016-.32.034-.339.043h-.002v.002l-.002.002h-.001v.002c-.43.7-.92 1.435-1.504 2.22.561-.73.963-1.452 1.205-2.128-.971 1.06-1.643 2.028-1.967 3.016q.335-.35.617-.701c-.25.327-.459.632-.775.996-1.203 1.375-1.9 2.473-2.596 3.572-.276.43-.551.863-.924 1.295q.5-.649.59-1.262c-.73.671-1.146 1.313-1.26 1.934l-.049.04c-.236.003-.294.032-.306.052l-.002.001v.012l.002.002v.002c-.238.506-.475 1.011-.803 1.543q.381-.76.486-1.46c-.728.934-1.182 1.797-1.341 2.628a10 10 0 0 1-.292.324c-1.087.773-1.57 1.376-2.054 1.979-.316.463-.651.92-1.026 1.365.33-.432.576-.883.739-1.322-.91.775-1.53 1.507-1.824 2.406l-.067.053c-.368-.107-.483.001-.496.015l-.002.002c-.233.448-.466.896-.812 1.317a2.95 2.95 0 0 0 .574-1.217c-.668.62-1.096 1.139-1.18 1.812l-.068.055c-.386-.093-.501.02-.514.035h-.002c-.255.412-.51.825-.84 1.244.266-.39.454-.768.58-1.115-.795.798-1.364 1.483-1.611 2.186a9 9 0 0 1-.29.238c-.8.346-.983.631-1.167.916-1.141.615-2.281 1.23-3.498 1.812a38 38 0 0 0 3.129-1.8c-2.33.964-4.33 1.916-6.133 3.086a33 33 0 0 1-.637.23c-1.317.07-2.09.367-2.865.664-.434.26-.868.52-1.377.752a4.6 4.6 0 0 0 1.025-.765c-1.057.334-1.802.68-2.372 1.242q-.256.066-.54.12c-2.97-.143-5.314-.054-7.658.036-3.902 2.177-7.846 3.017-11.898 2.822 3.951.17 7.8-.703 11.484-2.955-7.553-.04-14.69.05-21.72.486 1.914.792 3.817 1.42 5.703 1.846-1.996-.441-4.022-1.096-6.086-1.931-1.532-.504-2.574-.576-3.616-.647a52 52 0 0 1-3.345-.826c1.116.307 2.194.48 3.207.49-1.744-.678-3.347-1.02-4.885-1.039.272.107.538.19.807.281-.393-.123-.742-.204-1.166-.357-1.16-.433-1.893-.464-2.625-.498-1.987-.372-3.974-.744-6.377-1.524-1.149-.453-1.88-.5-2.612-.545-1.255-.25-2.64-.632-3.918-.904 1.262.226 2.522.446 3.733.572-3.404-.982-6.623-1.634-9.758-1.962-.14-.04-.25-.05-.39-.09-.83-.432-1.26-.453-1.69-.475-1.974-.372-3.948-.743-6.361-1.52-1.17-.447-1.9-.49-2.631-.533a51 51 0 0 1-3.397-.832c1.127.312 2.224.488 3.25.498-1.747-.68-3.35-1.027-4.91-1.045.29.116.578.207.865.303-.424-.132-.802-.22-1.263-.387-1.804-.482-3.169-.55-4.532-.617a54 54 0 0 1-3.408-.877c1.136.33 2.234.522 3.26.547-1.744-.691-3.34-1.052-4.873-1.094.314.126.624.23.933.334-.432-.136-.822-.233-1.293-.406-1.152-.433-1.883-.475-2.615-.515-1.255-.25-2.64-.631-3.918-.903 1.261.226 2.52.445 3.73.57-3.395-.977-6.606-1.624-9.73-1.953-.147-.04-.264-.053-.412-.095-.832-.445-1.262-.479-1.691-.512-1.977-.371-3.953-.743-6.366-1.51-1.167-.434-1.897-.472-2.628-.512a51 51 0 0 1-3.352-.832c1.112.31 2.193.484 3.205.499-1.745-.687-3.345-1.04-4.9-1.063.27.108.537.193.804.285-.4-.127-.755-.21-1.187-.369-1.472-.47-2.516-.524-3.56-.58-1.976-.374-3.95-.747-6.362-1.514-1.169-.435-1.901-.476-2.633-.517-1.977-.377-3.954-.752-6.318-1.526-.817-.428-1.245-.46-1.674-.492-1.347-.217-2.696-.435-4.084-.74 1.335.226 2.635.364 3.88.414-2.482-.7-4.798-1.132-7.05-1.272q-.465-.152-.94-.326c-1.813-.75-3.323-.846-4.833-.943a52 52 0 0 1-3.416-.879c1.136.33 2.237.522 3.27.545-1.745-.698-3.342-1.062-4.891-1.098.304.124.605.223.906.326-.432-.137-.819-.234-1.29-.408-1.477-.46-2.522-.513-3.566-.566-1.989-.365-3.979-.727-6.382-1.504-1.146-.454-1.875-.496-2.606-.537-1.254-.252-2.64-.636-3.916-.91 1.26.228 2.519.45 3.729.58-3.415-.991-6.644-1.653-9.782-1.987-.128-.036-.23-.046-.359-.084-.833-.444-1.26-.477-1.687-.511a52 52 0 0 1-3.362-.81c1.119.3 2.205.466 3.229.466-1.746-.674-3.36-1.006-4.92-1.012.274.107.545.191.816.282-.404-.125-.761-.206-1.2-.362-1.48-.46-2.525-.514-3.57-.566a54 54 0 0 1-3.482-.903c1.165.347 2.289.543 3.34.567-1.742-.697-3.34-1.057-4.873-1.094.347.14.69.258 1.031.371-.47-.147-.897-.256-1.416-.445-1.498-.445-2.545-.492-3.592-.54-1.973-.377-3.947-.755-6.312-1.529-.823-.425-1.253-.455-1.684-.484-2.805-.515-5.61-1.028-8.603-1.734a65 65 0 0 0 8.408 1.406c-3.764-1-7.332-1.672-10.805-2.008q.433.116.864.227-.584-.148-1.178-.307c-.838-.456-1.267-.495-1.695-.535a51 51 0 0 1-3.375-.813c1.124.303 2.215.47 3.244.47-1.744-.673-3.357-1.001-4.914-1.005.27.105.538.187.806.276-.4-.124-.755-.203-1.19-.358-1.483-.456-2.529-.506-3.573-.554a53 53 0 0 1-3.496-.903c1.165.347 2.294.545 3.35.569-1.744-.699-3.34-1.064-4.884-1.1.349.142.692.26 1.035.375-.472-.147-.902-.257-1.421-.447-1.485-.451-2.53-.501-3.575-.551-1.97-.383-3.94-.766-6.308-1.541-.828-.42-1.257-.449-1.688-.477-1.257-.253-2.644-.64-3.924-.916 1.264.231 2.526.455 3.739.586-3.429-1-6.672-1.67-9.83-2.006-.113-.032-.202-.041-.315-.074-.829-.432-1.259-.457-1.69-.48-1.982-.37-3.965-.74-6.374-1.514-1.157-.442-1.888-.482-2.62-.521-1.985-.37-3.972-.74-6.376-1.524-1.152-.443-1.886-.473-2.62-.502-1.992-.374-3.984-.748-6.34-1.533-.793-.44-1.223-.47-1.654-.5-.948.185-1.969.639-2.882.693.905-.069 1.893-.584 2.691-1.035-6.432-1.66-12.672-2.976-18.81-3.96 5.186 1.893 10.246 3.547 15.376 4.937-5.13-1.39-10.19-3.044-15.734-5.018-1.191-.454-1.922-.496-2.654-.537-1.986-.372-3.973-.744-6.403-1.53-1.489-.462-2.536-.512-3.582-.562-1.079-.23-2.2-.505-3.386-.845 1.122.317 2.215.496 3.234.515-1.746-.689-3.34-1.048-4.895-1.074.29.117.577.21.864.309-.41-.13-.779-.218-1.221-.381-1.128-.447-1.859-.486-2.59-.526-1.324.053-2.717.374-3.988.215 1.268.155 2.639-.206 3.797-.55-6.432-1.666-12.673-2.997-18.815-3.993 4.89 1.726 9.65 3.22 14.48 4.444-4.83-1.224-9.59-2.718-14.837-4.522-1.188-.462-1.919-.512-2.649-.56a51 51 0 0 1-3.33-.803c1.106.297 2.18.464 3.19.469-1.747-.676-3.352-1.016-4.91-1.026.255.1.505.178.757.264-.385-.12-.724-.198-1.14-.348-1.473-.47-2.517-.524-3.56-.58a52 52 0 0 1-3.415-.873c1.135.33 2.235.519 3.262.543-1.744-.696-3.337-1.062-4.88-1.098.312.128.62.231.929.336-.431-.137-.821-.233-1.29-.406-1.14-.437-1.873-.473-2.605-.51-2.887-.53-5.776-1.06-8.87-1.799a65 65 0 0 0 8.675 1.465c-3.765-1.002-7.335-1.67-10.805-2.004q.624.168 1.244.323a92 92 0 0 1-1.556-.4c-.84-.454-1.268-.495-1.696-.536-1.65-.348-3.299-.695-5.41-1.435-1.505-.445-2.549-.497-3.593-.55a54 54 0 0 1-3.417-.874c1.14.33 2.242.518 3.274.539-1.743-.694-3.346-1.052-4.885-1.086.316.127.627.23.938.336-.442-.14-.837-.238-1.32-.414-1.492-.452-2.538-.502-3.583-.553a51 51 0 0 1-3.351-.854c1.112.318 2.192.501 3.203.524-1.743-.697-3.337-1.065-4.889-1.098.286.117.569.213.852.31-.407-.13-.772-.22-1.211-.384-1.133-.448-1.865-.486-2.598-.525-1.055.145-2.196.596-3.185.505.987.087 2.105-.401 2.992-.837-6.098-1.667-12.003-3-17.81-3.998 4.86 1.834 9.597 3.421 14.404 4.761-4.807-1.34-9.544-2.928-14.79-4.836-1.527-.454-2.572-.498-3.617-.543a53 53 0 0 1-3.445-.886c1.151.336 2.264.526 3.31.539-1.74-.701-3.347-1.054-4.89-1.08.322.13.64.236.957.343-.44-.139-.837-.237-1.316-.414-1.154-.43-1.885-.463-2.616-.496-3.422-.4-6.928-.467-10.25-1.281-5.314-1.302-10.505-3.102-16.187-5.121-1.482-.473-2.527-.516-3.57-.559a52 52 0 0 1-3.512-.92c1.17.355 2.305.558 3.367.586-1.743-.71-3.342-1.084-4.897-1.125.35.145.698.268 1.043.385-.474-.15-.907-.263-1.427-.457-1.475-.443-2.521-.482-3.567-.52-1.978-.381-3.957-.763-6.32-1.542-.813-.43-1.243-.463-1.672-.495-1.382-.255-2.895-.64-4.299-.918 1.389.232 2.775.455 4.114.586-3.738-.998-7.292-1.666-10.758-2.007-.137-.036-.248-.046-.385-.082-.832-.435-1.262-.463-1.691-.49a53 53 0 0 1-3.473-.887c1.158.338 2.283.529 3.342.544-1.74-.698-3.35-1.055-4.908-1.082.332.135.662.248.99.358-.458-.143-.873-.248-1.375-.432-1.48-.447-2.524-.489-3.568-.533-1.98-.377-3.96-.755-6.368-1.537-1.16-.436-1.893-.467-2.625-.498-1.978-.38-3.956-.757-6.322-1.531-.816-.423-1.245-.451-1.674-.479-1.39-.26-2.913-.651-4.326-.933 1.398.236 2.793.464 4.14.6-3.749-1.011-7.314-1.688-10.79-2.036-.124-.033-.224-.043-.348-.076-.834-.431-1.262-.459-1.691-.487-1.974-.37-3.948-.74-6.364-1.505-1.172-.438-1.9-.48-2.63-.522a51 51 0 0 1-3.399-.848c1.127.318 2.225.497 3.256.51-1.746-.692-3.347-1.045-4.914-1.066.298.12.593.218.888.318-.426-.134-.81-.226-1.273-.396-1.465-.457-2.51-.502-3.555-.547-3.419-.397-6.92-.457-10.238-1.27-5.31-1.3-10.499-3.1-16.187-5.123-1.491-.49-2.533-.55-3.575-.61-1.984-.358-3.97-.717-6.38-1.483-1.157-.444-1.888-.482-2.62-.518-1.97-.386-3.94-.77-6.308-1.545-.827-.418-1.256-.448-1.686-.477-.972.095-1.987.347-2.959.442.951-.126 1.921-.471 2.77-.772-6.102-1.654-12.013-2.98-17.854-3.953 4.51 1.812 8.91 3.416 13.412 4.653-4.501-1.237-8.902-2.841-13.797-4.73-1.499-.472-2.543-.514-3.587-.558a53 53 0 0 1-3.465-.9c1.153.344 2.271.54 3.316.567-1.744-.705-3.34-1.076-4.889-1.116.335.138.666.253.997.365-.46-.145-.878-.252-1.381-.439-1.478-.448-2.524-.49-3.569-.533-1.986-.372-3.971-.744-6.332-1.526-.804-.44-1.233-.47-1.662-.5-5.987-1.315-11.975-2.631-18.422-4.373-1.503-.47-2.547-.515-3.591-.56a52 52 0 0 1-3.463-.88c1.152.336 2.27.525 3.318.544-1.744-.695-3.345-1.054-4.896-1.082.325.132.647.24.968.348-.451-.142-.86-.243-1.353-.424-1.478-.457-2.52-.507-3.565-.557-3.249-.398-6.575-.484-9.73-1.262-5.466-1.346-10.827-3.12-16.688-5.142-1.5-.474-2.543-.52-3.588-.567a53 53 0 0 1-3.474-.888c1.159.34 2.28.532 3.332.552-1.743-.696-3.345-1.056-4.89-1.087.34.137.676.253 1.01.365-.463-.145-.885-.252-1.396-.438-1.486-.443-2.532-.485-3.578-.527-1.974-.38-3.947-.759-6.314-1.531-.823-.423-1.252-.452-1.682-.48-5.978-1.33-11.956-2.66-18.404-4.401-1.515-.463-2.56-.514-3.604-.565a51 51 0 0 1-3.353-.814c1.112.302 2.194.472 3.21.478-1.746-.68-3.351-1.025-4.917-1.037.267.106.532.19.797.28-.398-.125-.75-.206-1.18-.362-1.466-.467-2.509-.519-3.553-.572-5.98-1.333-11.96-2.668-18.334-4.416-.823-.435-1.254-.456-1.683-.477-.896-.144-1.95-.42-2.873-.587.925.122 1.844.226 2.722.232-2.413-.706-4.675-1.057-6.845-1.082.07.02.138.027.209.047-.218-.057-.37-.06-.594-.121-1.522-.445-2.567-.488-3.611-.53-1.995-.367-3.99-.736-6.418-1.521-1.481-.451-2.53-.484-3.577-.518-1.39.074-3.025.06-4.462.118 1.46-.104 2.901-.232 4.293-.45-3.712-.115-7.254.102-10.508.602.26.007.494-.014.752-.01-.434-.003-.744.04-1.194.031-3.072-.181-5.417-.101-7.761-.021-1.804.476-3.607.95-5.563 1.367a44 44 0 0 0 5.156-1.496c-3.13.524-5.86 1.174-8.35 2.09l-.445.068c-1.337-.155-2.064-.074-2.79.008-.645.697-1.186 1.75-1.909 2.174.718-.426 1.218-1.492 1.537-2.29-3.435.844-6.523 1.739-9.56 2.778-3.67 1.256-7.3 2.629-10.721 4.205l-.562.115c-1.335-.17-2.064-.1-2.793-.029-.857.418-1.715.836-2.672 1.215a13 13 0 0 0 2.32-1.332c-1.733.522-3.143 1.153-4.36 2.018q-.267.073-.55.142c-1.642-.15-2.685-.068-3.729.014-.391.572-.701 1.487-1.154 1.797.447-.312.714-1.241.772-1.92-5.799 1.498-11.218 3.117-16.395 4.996l-.4.06c-.994-.172-1.42-.113-1.846-.054-1.06.437-2.12.873-3.285 1.267a19 19 0 0 0 2.914-1.377c-2.07.545-3.797 1.19-5.315 2.073q-.26.062-.53.123c-1.314-.164-2.041-.094-2.77-.022-.863.423-1.727.845-2.688 1.227.872-.394 1.66-.849 2.336-1.342-1.735.525-3.146 1.157-4.363 2.025q-.255.07-.522.137c-1.3-.162-2.03-.088-2.76-.012-1.08.447-2.162.895-3.343 1.293a19 19 0 0 0 2.978-1.412c-2.072.54-3.803 1.192-5.338 2.092q-.236.057-.48.11c-.956-.187-1.384-.12-1.81-.051-1.913.631-3.824 1.263-5.856 1.843a57 57 0 0 0 5.476-1.97c-3.396.817-6.433 1.754-9.238 2.937l-.558.123c-.994-.184-1.424-.13-1.852-.074-1.06.437-2.117.874-3.281 1.27a19.3 19.3 0 0 0 2.914-1.378c-2.07.546-3.796 1.192-5.315 2.075q-.26.063-.529.123c-1.314-.164-2.044-.095-2.773-.024-.857.418-1.715.837-2.672 1.215a13.2 13.2 0 0 0 2.32-1.328c-1.735.522-3.147 1.15-4.365 2.014q-.267.073-.547.14c-1.638-.137-2.678-.04-3.719.057-.395.567-.71 1.473-1.166 1.781.45-.31.724-1.23.791-1.908-5.788 1.487-11.207 3.098-16.38 4.969l-.423.062c-.999-.178-1.425-.12-1.853-.062-.856.418-1.714.836-2.668 1.217a13.6 13.6 0 0 0 2.314-1.325c-1.73.532-3.137 1.163-4.357 2.02q-.27.076-.555.146c-1.632-.142-2.674-.06-3.716.02-.862.423-1.722.845-2.68 1.226.87-.393 1.654-.848 2.33-1.34-1.735.528-3.148 1.159-4.367 2.028q-.255.07-.522.135c-1.3-.166-2.028-.09-2.758-.016-5.091 1.787-10.138 3.723-15.293 5.303-1.464.449-2.972.763-4.562 1.012 1.56-.247 3.083-.559 4.562-1.012 5.155-1.58 10.2-3.516 14.907-5.428-5.1.888-9.867 1.702-14.508 2.98-3.476.958-6.79 2.51-9.938 4.065l-.414.041c-1.673-.155-2.714-.074-3.757.008-.856.419-1.71.838-2.665 1.217a13.2 13.2 0 0 0 2.313-1.332c-1.732.523-3.144 1.152-4.363 2.02q-.27.073-.553.142c-1.635-.153-2.677-.065-3.719.023-.264.47-.462 1.22-.771 1.504.3-.287.448-1.053.392-1.621-5.783 1.491-11.192 3.098-16.353 4.969l-.442.072c-1-.18-1.427-.118-1.853-.057-.855.418-1.709.836-2.664 1.215.864-.39 1.643-.84 2.312-1.324-1.735.527-3.148 1.155-4.36 2.014q-.264.073-.544.142c-1.645-.14-2.687-.053-3.729.033-.864.418-1.73.835-2.693 1.211.875-.388 1.666-.84 2.346-1.326-1.739.517-3.155 1.139-4.377 1.998q-.252.069-.516.133c-1.3-.158-2.029-.079-2.758 0-.579.57-1.085 1.447-1.72 1.78.629-.335 1.094-1.225 1.34-1.893-6.112 1.514-11.848 3.14-17.334 5.031l-.444.064c-1.004-.185-1.43-.126-1.857-.066-.87.42-1.743.838-2.711 1.219.88-.39 1.676-.842 2.36-1.328-1.74.524-3.154 1.15-4.38 2.006q-.251.069-.513.134c-1.294-.15-2.023-.08-2.752-.007-1.065.436-2.13.875-3.303 1.267a19 19 0 0 0 2.936-1.38c-2.076.534-3.807 1.175-5.327 2.062q-.256.06-.52.117c-1.317-.16-2.046-.08-2.775 0-.897.432-1.794.866-2.785 1.254a13.6 13.6 0 0 0 2.438-1.371c-1.748.522-3.171 1.156-4.418 2.033q-.22.06-.45.117c-.93-.17-1.357-.102-1.783-.033-3.487 1.032-6.975 2.063-10.59 3.045a204 204 0 0 0 10.198-3.166c-5.968 1.47-11.568 3.053-16.938 4.885l-.884.207c-1.337-.168-2.066-.097-2.795-.026-1.06.436-2.12.872-3.284 1.264a19 19 0 0 0 2.916-1.379c-2.066.539-3.792 1.184-5.316 2.07q-.265.064-.539.123c-1.306-.16-2.034-.079-2.762.004-.401.564-.724 1.463-1.185 1.77.456-.31.735-1.221.802-1.893-5.795 1.488-11.212 3.099-16.386 4.969l-.412.06c-.996-.177-1.422-.12-1.85-.064-1.053.44-2.105.88-3.262 1.277a19.3 19.3 0 0 0 2.893-1.382c-2.063.553-3.785 1.205-5.299 2.091q-.265.065-.539.125c-1.314-.163-2.044-.09-2.773-.017-.87.416-1.741.832-2.715 1.209a13 13 0 0 0 2.365-1.33c-1.745.511-3.167 1.135-4.39 1.996q-.259.069-.528.135c-1.64-.13-2.68-.037-3.723.056-.913.43-1.826.859-2.838 1.242.928-.393 1.77-.859 2.493-1.369-1.759.506-3.19 1.131-4.448 2.004q-.213.058-.433.111c-.929-.16-1.353-.086-1.778-.013-1.922.633-3.846 1.267-5.892 1.851a59 59 0 0 0 5.508-1.964c-3.407.823-6.449 1.755-9.254 2.93q-.265.06-.534.118c-.995-.169-1.424-.11-1.851-.05-1.065.437-2.13.874-3.3 1.27a19 19 0 0 0 2.929-1.38c-2.074.543-3.8 1.188-5.32 2.07q-.258.062-.524.12c-1.313-.162-2.042-.09-2.771-.02-1.052.434-2.105.869-3.262 1.26a19 19 0 0 0 2.896-1.375c-2.065.538-3.79 1.182-5.302 2.066a26 26 0 0 1-.54.123c-1.322-.168-2.053-.093-2.783-.017-4.543 1.602-8.976 3.925-13.656 4.644 4.68-.719 9.113-3.042 13.27-4.77-9.777 2.404-19.184 4.812-29.053 3.895-2.92-.27-5.834-.614-8.658-.57 1.993.975 4 1.627 6.015 2.045a27 27 0 0 1-6.332-2.111c-.839-.455-1.27-.488-1.7-.522-.662-.01-1.32-.022-2.087-.139.693.087 1.343.033 1.908-.166-1.094-.313-2.01-.323-2.875-.039q.124.038.247.069-.27-.062-.561-.145c-.796-.398-1.226-.426-1.656-.455-.518-.075-1.036-.15-1.582-.31.51.083 1 .077 1.457-.022-.961-.433-1.818-.585-2.653-.463a7 7 0 0 1-.406-.234c-1.07-.751-1.935-.905-2.8-1.06-.882-.407-1.763-.814-2.667-1.31.876.42 1.736.747 2.569.98-1.576-1.016-3.067-1.751-4.54-2.202q-.255-.18-.515-.377c-.716-.764-1.283-.927-1.848-1.09-1.595-.771-3.191-1.542-4.793-2.43 1.593.86 3.157 1.56 4.657 2.112-2.351-1.435-4.568-2.559-6.758-3.352l-.076-.049c-.012-.245-.031-.31-.041-.326l-.002-.002v-.002h-.002v-.002h-.004c-.697-.547-1.394-1.095-2.104-1.732a17 17 0 0 0 2.01 1.426c-1.274-1.32-2.468-2.372-3.685-3.11a21 21 0 0 1-.397-.462c-1.428-2.133-2.766-3.594-4.103-5.055-.51-.425-1.022-.85-1.551-1.385a7 7 0 0 0 1.58 1.072c-.854-1.05-1.736-1.817-2.64-2.277q-.143-.183-.288-.383c-.692-1.799-1.27-2.943-1.848-4.088-2.515-2.683-4.41-5.578-5.533-8.812 1.12 3.133 3.016 5.936 5.531 8.435-2.02-6.794-4.037-13.21-6.335-19.345a23.7 23.7 0 0 0-.348 4.726c-.065-1.644.04-3.37.332-5.191.288-4.783.313-8.819.336-12.856.365-1.981.73-3.962 1.496-6.37.435-1.162.47-1.897.504-2.632.237-.67.474-1.339.79-2.033a9 9 0 0 0-.487 1.883c.711-1.258 1.173-2.393 1.369-3.496q.155-.24.332-.486c1.395-1.412 2.187-2.64 2.978-3.87.262-.489.58-1.011.983-1.582-.394.518-.622 1.036-.68 1.518.681-.716 1.06-1.37 1.139-2.045q-.254.257-.45.516c.18-.254.332-.492.58-.785.781-.724 1.131-1.2 1.483-1.676.392-.538.784-1.076 1.271-1.63a7.8 7.8 0 0 0-.962 1.57c1.017-.958 1.76-1.861 2.189-2.786q.172-.15.36-.3c1.478-1.015 2.315-1.927 3.152-2.839a47 47 0 0 1 2.37-2.205 15.4 15.4 0 0 0-2.04 2.192c1.58-1.135 2.833-2.255 3.76-3.55-.095.065-.176.135-.268.2.109-.079.192-.167.305-.244.34.12.445.066.457.059.257-.476.516-.951.902-1.393a3.04 3.04 0 0 0-.654 1.297c.695-.627 1.142-1.158 1.24-1.846q-.081.06-.156.123.102-.088.217-.174c.383.1.5.005.513-.007l.002-.002c.277-.618.45-1.48.746-2.051-.272.562-.375 1.391-.44 1.902 1.577-.872 2.802-1.692 4.124-2.303 5.781-2.673 11.587-5.29 17.193-8.17l.82-.287c1.306-.098 2.081-.435 2.856-.771.655-.404 1.31-.809 2.05-1.18a9.3 9.3 0 0 0-1.718 1.27c1.39-.533 2.48-1.146 3.389-1.973q.251-.087.52-.168c1.294.16 2.025.102 2.757.043 1.249-.446 2.499-.891 3.86-1.293a26.5 26.5 0 0 0-3.477 1.4c2.4-.554 4.442-1.21 6.256-2.105q.27-.056.549-.11c1.337.18 2.069.117 2.8.053 1.058-.43 2.115-.86 3.28-1.248-1.07.4-2.05.865-2.91 1.37 2.068-.53 3.793-1.17 5.318-2.053q.278-.067.566-.127c1.646.156 2.69.07 3.733-.018 1.09-.434 2.18-.87 3.379-1.258a19 19 0 0 0-3.01 1.383c2.086-.515 3.825-1.147 5.369-2.033q.248-.057.504-.11c1.298.166 2.028.088 2.758.01 2.094-.624 4.188-1.25 6.41-1.824a70 70 0 0 0-6.024 1.951c3.72-.81 7.075-1.74 10.194-2.92q.316-.065.636-.128c1.344.172 2.074.105 2.805.037 1.056-.427 2.113-.855 3.277-1.24a19 19 0 0 0-2.91 1.349c2.072-.53 3.802-1.163 5.325-2.033q.272-.064.554-.123c1.655.154 2.698.077 3.742 0 1.067-.431 2.134-.862 3.31-1.25a19 19 0 0 0-2.94 1.367c2.076-.527 3.808-1.166 5.335-2.045q.27-.063.55-.121c1.647.146 2.69.058 3.734-.03.596-.55 1.128-1.406 1.773-1.72-.64.316-1.13 1.188-1.387 1.851 6.782-1.486 13.181-3.102 19.32-4.978q.248-.034.497-.066a11.2 11.2 0 0 0 2.816.033c1.043-.427 2.086-.854 3.237-1.24-1.057.396-2.02.854-2.866 1.347 2.067-.535 3.79-1.171 5.295-2.043q.278-.065.567-.127c1.669.163 2.715.091 3.76.018 1.071-.428 2.143-.857 3.326-1.242a19 19 0 0 0-2.957 1.359c2.081-.52 3.815-1.15 5.347-2.023q.266-.062.541-.12c1.647.143 2.69.053 3.733-.037 1.079-.43 2.157-.86 3.341-1.246-1.093.396-2.095.86-2.978 1.365 2.08-.516 3.82-1.143 5.367-2.025q.254-.057.516-.111c1.294.166 2.02.082 2.748-.002 2.174-.64 4.35-1.282 6.66-1.87a72 72 0 0 0-6.274 1.989c3.757-.81 7.141-1.737 10.274-2.91q.252-.052.508-.102c1.01.171 1.439.115 1.867.059 1.26-.443 2.518-.884 3.894-1.283a26.5 26.5 0 0 0-3.507 1.392c2.409-.545 4.453-1.193 6.277-2.084q.275-.057.56-.111c1.668.157 2.713.08 3.758.004 1.08-.44 2.16-.88 3.354-1.276-1.101.404-2.106.88-2.985 1.395 2.087-.53 3.823-1.172 5.346-2.063q.246-.057.498-.11c1.319.158 2.05.084 2.78.009 2.972-1.318 5.85-2.938 8.937-3.883-3.086.945-5.965 2.564-8.56 4 7.754-2.172 15.139-4.46 22.287-7.012l.546-.09c1.334.168 2.062.092 2.79.018.666-.402 1.332-.805 2.087-1.172a9 9 0 0 0-1.755 1.285c1.396-.512 2.494-1.126 3.421-1.964q.262-.089.54-.168c1.615.137 2.657.048 3.699-.04.644-.7 1.177-1.727 1.906-2.177-.723.452-1.216 1.492-1.535 2.299 2.704-.543 5.122-1 7.351-1.916 3.488-1.435 6.852-3.17 10.069-5.026l.426-.103c.95.147 1.375.085 1.8.023 2.077-1.332 4.117-2.724 6.237-3.984-2.12 1.26-4.16 2.652-5.866 4.09 1.705-.506 2.983-1.321 4.38-1.694 11.8-3.148 20.275-11.599 29.39-18.693-3.227 1.6-6.098 3.431-9.025 5.17 2.927-1.739 5.8-3.57 9.078-5.215.357.135.47.064.482.055h.002c.698-1.046 1.396-2.093 2.49-3.034.372.099.472.024.483.014v-.002c.205-.894.189-1.953.564-2.72-.371.765-.322 1.808-.275 2.568 2.682-2.863 5.374-5.368 7.398-8.33 2.736-4.005 5.003-8.33 7.127-12.52l.453-.543c.747-.724.885-1.288 1.024-1.851-.105-.08-.29-.193-.35-.254.069.058.311.154.7.146 2.062-4.725 3.777-9.34 5.132-13.908-2.196 4.608-4.034 9.164-5.851 13.729 1.817-4.565 3.655-9.122 5.921-14.045.46-.795.489-1.223.518-1.653-.203-1.072-.808-2.297-.709-3.254-.094.954.55 2.158 1.043 3.067 1.738-8.58 3.695-16.93 4.346-25.381.414-5.386-1.108-10.92-2.067-16.104a11.8 11.8 0 0 0-.556 3.22c.035-.98.164-1.957.539-3.544.23-1.035.173-1.462.115-1.888-.325-.948-.624-1.902-.963-2.846.347.858.716 1.683 1.088 2.404-.204-3.845-.033-7.395-.977-10.619-1.579-5.395-3.85-10.588-6.105-15.639l-.096-.472c.183-.978.122-1.403.06-1.828-.663-.494-1.499-.874-2.032-1.456.535.577 1.383.915 2.148 1.082-2.317-9.6-8.99-16.331-13.998-24.023-1.271-1.952-3.796-3.09-5.758-4.246l-.025-.063c.013-.257-.012-.326-.032-.343l-.005-.004h-.012v.002c-.879-.68-1.757-1.361-2.59-2.188.817.792 1.7 1.413 2.578 1.86-1.097-1.255-2.183-2.183-3.443-2.797l-.06-.074c.112-.363-.005-.478-.02-.49h-.002c-.73-.484-1.55-1.115-2.291-1.618.72.465 1.446.941 2.137 1.338-2.216-1.757-4.277-3.234-6.342-4.37.479.395.952.71 1.43 1.071-.594-.435-1.104-.73-1.731-1.22-1.406-1.177-2.514-1.859-3.623-2.542-3.334-1.986-6.668-3.972-10.352-6.369-.778-.44-1.207-.472-1.636-.502a53 53 0 0 1-3.428-.908c1.143.343 2.249.543 3.283.574-1.741-.709-3.338-1.084-4.875-1.132.321.132.637.242.953.351-.438-.142-.833-.244-1.31-.424-1.15-.442-1.881-.485-2.612-.527a37 37 0 0 1-2.765-.883c.917.334 1.806.53 2.629.565-1.408-.692-2.68-1.064-3.918-1.114.263.133.525.243.785.352-.366-.143-.698-.246-1.098-.428-.772-.437-1.2-.477-1.627-.515-3.95-.464-7.901-.926-12.015-1.536 4.018.572 7.966.968 11.814 1.194-5.733-1-11.267-1.66-16.69-1.979l-.458-.08c-1.207-.434-1.942-.446-2.676-.459-1.094.214-2.188.563-3.281.711 1.085-.163 2.144-.583 3.084-1.098-1.02-.484-1.844-.667-2.666-.668-31.465-.02-62.93.094-94.395-.058-43.182-.209-86.363-.745-129.545-.887-21.255-.07-42.652-1.637-63.553 3.97-5.255 1.411-10.387 3.284-15.341 5.22l-.336.03c-.982-.185-1.406-.122-1.83-.06-1.136.524-2.287 1.008-3.415 1.553a71 71 0 0 0 3.022-1.67c-2.857.557-5.401 1.026-7.77 1.947a241 241 0 0 0-16.45 7.112l-.528.144c-.992.037-1.475.296-1.96.557-1.154.62-2.325 1.207-3.472 1.844a136 136 0 0 0 3.078-1.85c-6.42 2.653-12.45 5.314-18.285 8.207l-.445.129c-1.296.129-2.071.428-2.846.726-1.937 1.175-3.874 2.348-5.894 3.493a103 103 0 0 0 5.517-3.493c-3.605 1.887-6.872 3.773-9.959 5.866q-.405.203-.818.404c-.927-.093-1.347-.004-1.766.086-.315.386-.63.772-1.01 1.129.308-.362.552-.768.711-1.193-.746.514-1.228 1.086-1.572 1.859q-.17.105-.357.201c-.916.074-1.392.345-1.87.615-1.73 1.169-3.461 2.336-5.273 3.477a88 88 0 0 0 4.908-3.473c-3.26 1.893-6.196 3.782-8.959 5.875q-.409.225-.826.45c-1.595.55-2.678 1.279-3.761 2.007-.137.549-.11 1.318-.37 1.7.255-.382.191-1.155.03-1.73-6.275 4.663-12.211 9.356-17.815 14.22 6.116-3.989 11.916-8.13 17.655-12.354-5.739 4.224-11.537 8.364-17.72 12.404-.371-.112-.488-.004-.501.01-.224.425-.448.85-.772 1.25.288-.38.457-.785.535-1.15-.665.61-1.096 1.123-1.187 1.79q-.04.032-.08.061c-.394-.096-.516.033-.53.05v.001a206 206 0 0 1-3.792 3.674 118 118 0 0 0 3.502-3.527c-2.68 2.355-5.106 4.583-7.22 6.828q-.359.3-.73.603c-1.472 1.01-2.286 1.914-3.1 2.819-.29.444-.58.89-.976 1.334q.541-.666.645-1.297c-.747.67-1.177 1.303-1.293 1.928l-.033.029c-.21-.002-.284.014-.309.027l-.006.004-.002.002-.002.002v.004h-.002v.004h.002v.002c-1.306 1.727-2.612 3.453-4.04 5.148a56 56 0 0 0 3.718-5.058c-2.228 2.45-4.138 4.81-5.732 7.324l-.112.119c-.367-.097-.483.023-.496.039v.002c-.428.71-.857 1.419-1.361 2.144.432-.69.789-1.362 1.08-2-1.101 1.373-1.97 2.626-2.549 3.86q-.221.248-.465.502c-1.764 1.722-2.867 3.302-3.97 4.883-.273.5-.6 1.024-1.01 1.593-.176.244-.323.474-.559.748-.399.203-.512.686-.512.686-.3.666-.599 1.332-1.017 2.008.39-.67.622-1.312.709-1.905-.757 1.014-1.214 1.925-1.336 2.797l-.022.03c-.248.02-.313.041-.33.052h-.002l-.002.002-.002.002v.004c-.233.506-.465 1.013-.79 1.555a5 5 0 0 0 .482-1.455c-.728.96-1.184 1.831-1.338 2.662q-.149.18-.316.37c-5.052 7.403-10.271 14.197-13.692 21.802-4.734 10.524-8.322 21.587-12 32.554-2.385 7.111-5.253 14.373-5.797 21.723-1.17 15.797-1.302 31.695-1.271 47.55.06 30.884.204 61.774.908 92.647.81 35.546-1.816 71.12 1.787 106.663 1.791 17.664 6.92 34.308 15.129 49.449 9.1 16.784 22.047 31.254 36.559 43.863 5.992 5.206 12.769 9.96 19.955 13.24 11.552 5.274 23.49 10.084 35.726 13.373 13.238 3.56 26.928 5.903 40.57 7.344 9.705 1.025 19.657-.433 29.502-.592 22.793-.368 45.587-.567 68.38-.935 17.116-.277 34.23-.735 51.345-1.063 16.465-.316 32.931-.579 49.397-.847 23.948-.39 47.896-.807 71.845-1.135 27.294-.374 54.588-.61 81.881-1.008 16.944-.247 33.886-.664 50.828-1.043 11.787-.264 23.572-.714 35.36-.87 33.17-.435 66.344-.726 99.515-1.144 20.869-.262 41.735-.647 62.602-1 .781-.013 1.56-.261 2.111-.36v-25.292c-14.852 0-29.263-.115-43.67.027-22.275.22-44.549.594-66.822.944-20.101.315-40.2.687-60.3 1.033-19.105.329-38.209.662-57.313.982-19.942.334-39.886.607-59.826.998-12.77.25-25.535.719-38.305.995-16.61.359-33.221.647-49.832.923-23.265.387-46.532.712-69.797 1.108-15.612.265-31.221.714-46.834.898-38.098.45-76.198.858-114.297 1.086-4.176.025-8.444-.897-12.521-1.955a756 756 0 0 1-28.53-8.027c-13.174-3.975-25.482-10.01-35.414-19.508-14.553-13.918-27.796-28.85-34.572-48.617-4.161-12.138-6.951-24.49-7.248-37.09-.698-29.598-.356-59.22-.58-88.83-.083-10.94-.672-21.878-.838-32.819-.103-6.784.248-13.572.23-20.359-.066-25.34-.408-50.681-.168-76.018.063-6.598 1.534-13.251 2.965-19.746 1.144-5.188 3.083-10.22 4.893-15.24 2.904-8.056 4.825-16.764 9.232-23.922 11.033-17.915 22.067-35.825 38.614-49.781 13.036-10.996 26.79-20.67 42.002-28.035 19.824-9.598 40.525-17.263 62.066-21.95 11.46-2.493 23.354-3.906 35.078-4.08 35.18-.52 70.372-.31 105.559-.156 29.768.13 59.534.529 89.3.907 20.767.263 41.537.497 62.291 1.171 5.783.188 11.648 1.431 17.243 3.014 9.934 2.811 17.163 9.781 23.642 17.385 3.131 3.674 5.963 7.801 8.024 12.152 6.718 14.184 9.61 29.384 7.888 44.873-1 9.002-3.493 18.29-7.435 26.422-9.43 19.449-26.844 29.973-46.737 35.682-20.387 5.85-40.632 12.349-61.714 15.832-16.135 2.666-31.955 7.201-47.971 10.64-17.956 3.856-36.013 7.241-53.955 11.155-15.455 3.37-31.16 5.445-45.996 11.752-17.067 7.255-31.514 17.168-43.407 31.66-8.331 10.153-12.282 21.52-13.324 33.816-1.16 13.706-.453 27.557 6.598 40.133.78 1.393 1.595 2.814 2.068 4.324 3.424 10.929 11.562 18.912 19.766 25.416 14.64 11.609 32.355 17.591 51.08 19.424 5.844.572 11.98.264 17.74-.871 10.966-2.161 21.748-5.251 32.625-7.877 14.969-3.613 29.963-7.118 44.93-10.738 9.769-2.363 19.493-4.91 29.264-7.266 14.812-3.572 29.663-6.984 44.468-10.588 12.593-3.065 25.114-6.426 37.721-9.427 10.882-2.592 21.892-4.655 32.752-7.332 10.684-2.635 21.194-5.974 31.88-8.598 16.532-4.06 33.164-7.709 49.723-11.658 11.348-2.707 22.651-5.6 33.961-8.461 13.663-3.458 27.517-6.336 40.905-10.653 11.501-3.708 23.187-4.68 34.635-2.832 14.83 2.395 29.292 7.015 43.97 10.428 11.386 2.648 22.88 4.821 34.29 7.373 15.99 3.577 31.949 7.307 47.92 10.979 12.96 2.979 25.918 5.957 38.874 8.955 19.913 4.607 39.822 9.235 59.735 13.845 12.957 3 25.917 5.987 38.877 8.975 16.127 3.718 32.273 7.364 48.38 11.166 16.098 3.8 32.148 7.801 48.24 11.623a2761 2761 0 0 0 35.563 8.188c11.103 2.482 22.277 4.652 33.346 7.273 11.346 2.686 22.547 5.996 33.912 8.592 14.57 3.327 29.291 5.995 43.853 9.353 14.36 3.312 28.547 7.367 42.909 10.672 24.396 5.615 48.897 10.78 73.3 16.365 14.536 3.327 28.939 7.232 43.46 10.63 17.705 4.142 35.463 8.063 53.214 12.01 9.673 2.15 19.295 4.868 29.094 6.013 8.601 1.004 17.418.191 26.139.144 20.028-.108 35.99-8.63 47.967-24.29 6.576-8.6 12.7-17.674 17.927-27.143 5.947-10.771 9.057-22.609 8.518-35.13-.306-7.096.182-14.378-1.26-21.245-2.617-12.462-5.236-25.156-10.012-36.873-5.824-14.291-13.371-27.939-24.884-38.914-8.943-8.526-17.495-17.352-27.973-24.2-9.587-6.265-19.676-11.165-30.656-14.021-13.81-3.593-27.79-6.535-41.672-9.86-11.04-2.644-22.006-5.6-33.07-8.13-14.408-3.296-28.92-6.135-43.313-9.49-14.193-3.31-28.257-7.167-42.443-10.504-14.053-3.306-28.213-6.154-42.282-9.397-19.62-4.522-39.202-9.213-58.795-13.855-18.453-4.373-36.911-8.736-55.347-13.182-11.665-2.813-23.267-5.888-34.947-8.633-14.686-3.45-29.44-6.614-44.135-10.03-14.056-3.266-28.058-6.766-42.114-10.032-10.908-2.535-21.892-4.74-32.787-7.33-8.501-2.021-16.836-4.802-25.386-6.545-16.44-3.353-32.275-7.862-47.268-15.899-14.24-7.633-22.73-19.084-27.848-33.777-2.687-7.717-3.2-15.742-1.607-23.578 1.762-8.666 3.426-17.723 7.33-25.508 9.363-18.672 25.103-31.927 41.979-43.469 16.873-11.54 34.518-21.957 51.796-32.908 12.627-8.003 25.172-16.13 37.817-24.104 25.969-16.375 51.96-32.72 77.984-49.005 10.595-6.63 21.331-13.035 31.955-19.62 17.416-10.793 34.854-21.554 52.168-32.51 13.79-8.725 27.232-18.01 41.174-26.476 7.282-4.422 14.966-8.928 23.082-11.058 12.475-3.275 25.458-5.192 38.48-2.338 5.511 1.207 11.292 1.95 16.374 4.205 14.01 6.216 25.065 16.938 37.232 25.922 14.206 10.489 27.886 21.688 41.857 32.498 14.014 10.842 28.154 21.522 42.15 32.386a12313 12313 0 0 1 55.893 43.676c15.22 11.955 30.305 23.914 40.268 41.192 6.76 11.721 12.518 23.964 15.094 36.982 3.327 16.822 4.604 34.078 6.246 51.197 1.654 17.25 2.614 34.522 7.916 51.25 2.942 9.283 5.998 18.256 11.004 26.801 9.303 15.88 23.19 26.015 39.642 32.252 8.796 3.334 18.87 3.896 28.442 4.46 22.192 1.31 44.32-.55 66.394-2.868 6.686-.702 13.363-1.488 20.04-2.28 16.107-1.91 32.169-4.662 48.331-5.507 12.3-.644 24.765.727 37.078 1.968 6.872.693 13.992 2.01 20.276 4.723 9.748 4.207 19.143 9.417 28.18 15.022 6.467 4.01 12.434 9.007 18.015 14.216 5.612 5.238 10.47 11.285 15.658 16.977.329.236.656.472.996.797q-.495-.361-.968-.455.898 1.063 1.73 1.33.135.185.274.398c2.705 4.097 5.318 7.521 7.931 10.946a117 117 0 0 1 2.377 3.724 45 45 0 0 0-2.33-3.371c1.319 2.371 2.595 4.41 3.889 6.09l.25.469c.676 1.477 1.258 2.277 1.842 3.076.787 1.334 1.575 2.666 2.334 4.078a53 53 0 0 0-2.313-3.709c1.266 2.644 2.513 4.958 3.973 7.086q.153.344.303.697c.106 1.301.413 2.07.72 2.838.246.274.492.548.715.885a2.3 2.3 0 0 0-.691-.57c.331.728.641 1.177 1.148 1.472q.075.199.139.426c9.748 21.647 15.87 43.87 16.629 67.144.805 24.703 1.668 49.544-4.832 73.83-4.137 15.455-8.092 30.825-17.918 44.141-13.578 18.4-28.88 34.989-47.854 47.766-9.476 6.382-19.467 12.408-29.996 16.709-11.012 4.498-22.809 7.435-34.517 9.781-14.218 2.85-28.653 5.665-43.079 6.195-32.397 1.192-64.848.918-97.275 1.334-16.435.212-32.866.679-49.3.942-23.766.38-47.533.624-71.298 1.033-12.1.208-24.194.758-36.295.963-22.939.387-45.882.586-68.822.963-16.93.277-33.857.769-50.787 1.064-20.938.366-41.88.623-62.818.934-24.094.357-48.186.715-72.28 1.086-20.102.309-40.204.644-60.306.95-23.29.356-46.58.672-69.87 1.042-19.1.303-38.203.652-57.304.998q-25.156.458-50.313.953c-17.099.336-34.196.832-51.296 1.012-42.258.444-84.517.747-126.776 1.11-1 .008-1.999.057-2.998.058-12.384.004-24.768.002-37.55.002v-12.967H800.75v55.432h19.965V822.94c.69-.65 1.375-1.671 2.066-2.265-.655.591-1.239 1.6-1.627 2.205 3.676-.35 6.908-.834 10.149-.893 8.398-.153 16.8-.072 25.199-.205 1.491-.023 2.974-.625 4.178-1.267a914 914 0 0 0-36.928-.315c12.213-.15 24.429-.037 37.375.309 3.122.303 5.514.305 7.906.306a25 25 0 0 1 2.33-.255c-.791.074-1.524.255-2.195.58 1.354.107 2.573-.11 3.613-.606.12.004.202-.012.326-.006.936.22 1.365.169 1.795.116 1.09-.123 2.18-.246 3.35-.305a21 21 0 0 0-2.918.43c2.151.036 3.895-.046 5.537-.438q.257.013.522.031c1.54.412 2.59.428 3.642.446 7.787-.201 15.573-.401 24.11-.303 5.754.243 10.759.188 15.763.133 1.013-.493 2-1.313 3.04-1.489-1.038.176-1.997 1.003-2.58 1.612 6.405-.174 12.35-.61 18.3-.742 19.254-.427 38.509-.815 57.766-1.07 13.147-.176 26.3-.08 39.449-.18 1.37-.011 2.735-.542 3.8-1.114-.592-.283-1.015-.458-1.394-.525.402.065.913.235 1.863.506 11.102.195 21.432.127 31.762.06.79-.471 1.578-1.295 2.371-1.502q.17-.044.34-.047c26.919-.334 53.838-.571 81.525-.552 17.097.197 33.427.124 49.756.05.747-.423 1.488-1.138 2.237-1.398-.735.264-1.405.999-1.778 1.527 22.996-.23 45.534-.58 68.07-.99.851-.015 1.691-.6 2.243-1.213-22.87-.024-45.446.226-68.02.576 22.575-.35 45.151-.6 68.49-.59 17.757.188 34.748.096 51.74.005.68-.42 1.355-1.152 2.038-1.336-.676.186-1.3.934-1.578 1.474 15.288.132 30.118.252 44.947.08 11.893-.138 23.783-.608 35.672-1.004 1.007-.033 1.996-.627 2.71-1.267-27.341 0-54.4.296-81.458.674 27.058-.378 54.118-.674 81.93-.68 6.084.24 11.417.183 16.75.123 1.4-.429 2.795-1.163 4.199-1.357-1.398.196-2.742.945-3.74 1.488 28.619-.189 56.78-.462 84.939-.846 17.776-.243 35.548-.724 53.324-.97 29.159-.406 58.32-.66 87.479-1.07 18.771-.266 37.54-.685 56.31-1.09.863-.02 1.712-.571 2.27-1.16-2.453-.386-4.608-.606-6.758-.567 2.15-.04 4.307.18 7.228.545 12.432.202 24.095.14 35.758.078.6-.429 1.193-1.15 1.797-1.414-.59.27-1.112 1.008-1.338 1.537 12.75.1 25.042.196 37.328-.035 2.77-.053 5.52-1.24 7.987-2.198-14.715-.02-29.138.23-43.557.592 14.42-.362 28.842-.612 43.998-.605 3.08.207 5.428.135 7.774.062.844-.485 1.66-1.122 2.503-1.611-.797.5-1.504 1.178-2.072 1.74 12.376-1.988 24.333-4.033 36.25-6.289 2.211-.419 4.261-1.682 6.14-2.834l.337-.033c.997.196 1.425.142 1.853.088.906-.588 1.77-1.311 2.674-1.905-.861.602-1.62 1.364-2.272 2.02 8.294-2.568 16.687-4.304 23.962-8.152 11.247-5.95 21.988-12.97 32.476-20.213 13.69-9.454 26.74-19.822 37.408-32.74 7.097-8.595 14.826-16.964 20.225-26.583 5.574-9.93 8.727-21.231 12.812-31.98.974-2.562 1.562-5.288 2.123-7.982 1.196-5.73 2.257-11.488 3.026-17.137-.931 1.446-1.713 2.745-2.067 4.152.354-1.407 1.136-2.706 2.13-4.513.435-1.194.461-1.928.488-2.663-.135-1.178-.437-2.39-.58-3.57.175 1.16.577 2.328.921 3.39 4.326-13.28 4.139-26.895 4.35-40.302.246-15.638-.761-31.33-1.984-46.94-.439-5.595-3.088-11.018-5.01-16.253l-.027-.336c.2-1.018.144-1.446.087-1.873-.706-.635-1.746-1.158-2.197-1.88.453.716 1.506 1.193 2.317 1.473-.012-1.714.119-3.114-.311-4.316-3.471-9.707-6.76-19.497-10.68-29.023-3.35-8.145-6.792-16.39-11.404-23.84-5.705-9.216-12.41-17.856-19.178-26.352-3.516-4.415-8.069-8.003-12.168-11.613l-.078-.129c.016-.27-.02-.336-.043-.35l-.006-.002h-.011c-.42-.28-.84-.56-1.252-.935q.624.501 1.246.6c-.633-.74-1.26-1.167-1.893-1.29l-.043-.052c.016-.217-.007-.291-.03-.315l-.009-.006-.006-.004h-.009v.002h-.002c-.83-.653-1.66-1.307-2.448-2.091a10.6 10.6 0 0 0 2.442 1.765c-1.074-1.253-2.144-2.185-3.39-2.808l-.075-.09c.115-.368-.023-.489-.041-.502l-.002-.002c-.666-.014-1.556.218-2.053.017.494.197 1.368-.065 1.897-.304-4.796-4.129-9.44-7.978-14.088-11.488l-.17-.176c.018-.239 0-.313-.018-.334l-.006-.004-.002-.002h-.002l-.001-.002h-.006v.002h-.002c-7.967-4.23-16.022-8.305-23.881-12.727 7.859 4.422 15.914 8.497 23.867 12.371-1.37-1.443-2.599-2.765-4.101-3.582-15.252-8.284-29.717-18.156-47.358-21.386-7.504-1.374-14.695-4.473-22.465-3.004 1.426.76 2.771 1.57 4.131 1.92-1.375-.352-2.79-1.173-4.559-1.987-2.545-.449-4.565-.484-6.585-.52-1.484.166-2.966.377-4.45.544 1.46-.2 2.897-.516 4.252-.906-10.707-.457-21.218-.569-31.728-.6-.675-.002-1.35.616-1.73 1.236 9.033.368 17.77.505 26.51.483a685 685 0 0 1-26.96-.46c-3.414-.175-6.086-.083-8.758.009-2.362.48-4.723.96-7.222 1.373a83 83 0 0 0 6.812-1.504c-4.089.53-7.78 1.187-11.213 2.127q-.254.03-.51.058c-1.02-.229-1.448-.169-1.877-.107-4.54.682-9.081 1.365-13.8 1.982a332 332 0 0 0 13.37-2.1c-7.402.842-14.389 1.797-21.089 3.02q-.345.037-.691.072c-2.07-.186-3.439-.116-4.807-.046-2.059.46-4.118.92-6.322 1.328a70 70 0 0 0 5.902-1.444c-3.74.547-7.079 1.204-10.15 2.121q-.326.045-.659.086c-3.065-.183-5.412-.11-7.76-.035-2.082.461-4.166.923-6.396 1.328a68 68 0 0 0 5.973-1.455c-3.748.533-7.09 1.187-10.172 2.112l-.639.08c-2.718-.176-4.733-.082-6.748.011-1.3.492-2.598 1.19-3.898 1.711 1.247-.534 2.434-1.279 3.476-1.845-6.833.178-13.245.732-19.656.744-8.385.015-16.77-.4-25.045-.285 1.46.71 2.852 1.507 4.235 1.875-1.404-.37-2.874-1.182-4.637-1.95-1.88-.47-3.246-.522-4.611-.574-1.002-.14-2.134-.413-3.157-.576 1.013.114 2.024.219 2.99.226-2.698-.697-5.233-1.048-7.685-1.084-.163-.04-.287-.04-.453-.082-.831-.448-1.26-.486-1.688-.525-4.655-2.708-9.312-5.416-14.318-8.586-1.472-1.464-2.59-2.467-3.711-3.47-3.97-5.663-8.1-11.227-11.822-17.05 3.722 5.823 7.85 11.387 11.816 16.69-4.356-8.112-8.705-15.866-13.318-23.4l-.041-.342c.171-.97.11-1.4.047-1.826-.412-.687-.824-1.373-1.2-2.153a9 9 0 0 0 1.317 1.813c-.513-1.414-1.134-2.513-1.983-3.442a14 14 0 0 1-.152-.48c.123-1.27.035-1.997-.053-2.723-.43-.892-.862-1.783-1.248-2.771a13.3 13.3 0 0 0 1.368 2.424c-.518-1.75-1.146-3.175-2.024-4.412q-.06-.22-.115-.448c.181-.945.117-1.372.053-1.799-.659-3.2-1.318-6.4-1.918-9.76.608 3.254 1.299 6.38 2.037 9.342-.829-5.405-1.772-10.409-2.977-15.14l-.094-.65c.174-1.717.102-2.763.03-3.807-.68-1.17-1.796-2.32-2.223-3.5.43 1.166 1.563 2.246 2.334 3.047-.554-7.508-1.22-14.561-2.174-21.317-.34 6.017-.565 11.743-.332 17.45-.233-5.707-.008-11.432.315-17.907.196-4.093.123-7.432.05-10.77-.465-2.072-.931-4.144-1.341-6.357a68 68 0 0 0 1.466 5.934c-.546-3.737-1.21-7.07-2.138-10.145q-.043-.315-.082-.636c.196-2.047.125-3.417.054-4.785-.455-1.463-.911-2.925-1.314-4.504a33.5 33.5 0 0 0 1.44 4.109c-.541-2.736-1.2-5.1-2.122-7.236a41 41 0 0 1-.095-.565c.213-1.34.154-2.071.095-2.804-.465-1.242-.907-2.49-1.386-3.727a58 58 0 0 0 1.507 3.31c-.67-5.093-.93-9.942-2.355-14.42-4.896-15.384-10.74-30.276-19.54-44.087-6.475-10.163-13.108-19.754-23.36-26.256.5.87 1.016 1.681 1.576 2.433a27 27 0 0 1-1.633-2.51c.106-.366-.023-.482-.04-.495v-.002c-1.048-.678-2.097-1.355-3.03-2.426.108-.369.04-.471.03-.483l-.001-.002c-.837-.45-1.672-.9-2.795-1.869-1.057-1.176-1.83-1.831-2.602-2.488-1.136-.843-2.345-1.838-3.498-2.713 1.155.84 2.308 1.65 3.45 2.363-2.714-2.354-5.379-4.36-8.063-6.023.828.724 1.658 1.355 2.488 2.014-.915-.721-1.767-1.313-2.72-2.112-.375-.486-.536-.534-.698-.582-1.945-1.355-3.892-2.711-5.834-4.172a68 68 0 0 0 5.81 3.82c-2.928-2.37-5.837-4.408-8.737-6.116l-.205-.17c.01-.263-.023-.325-.043-.338h-.002l-.002-.002h-.012v.002c-6.12-4.351-12.338-8.574-18.33-13.094 5.992 4.52 12.21 8.743 18.316 12.734-4.458-4.034-8.777-7.876-13.379-11.343-6.006-4.527-12.229-8.766-18.363-12.79l-.19-.173c.016-.25-.01-.32-.029-.336l-.005-.002-.003-.002h-.009c-1.669-1.067-3.298-2.185-4.99-3.22 1.663.966 3.335 1.94 4.972 2.868-8.95-7.413-17.82-14.557-26.845-21.496-4.194-3.224-8.69-6.057-13.034-8.726l-.049-.082c.003-.251-.028-.317-.05-.332l-.006-.002-.002-.002h-.01v.002h-.002c-3.566-2.65-7.131-5.3-10.715-8.059a322 322 0 0 0 10.698 7.707c-5.146-6.251-11.873-10.034-18.391-13.81l-.766-.63c-.66-.828-1.216-1.038-1.773-1.247-1.39-.914-2.753-1.864-4.16-2.756a163 163 0 0 0 4.14 2.406c-3.7-3.422-7.28-6.628-11.084-9.543-9.02-6.913-18.146-13.685-27.392-20.195.16.58.334 1.105.572 1.53-.245-.432-.432-.975-.627-1.599.102-.363-.014-.475-.03-.488l-.001-.002c-4.72.462-6.669-3.207-9.012-6.49.108-.349.023-.453.012-.465-1.388-.92-2.778-1.84-4.184-2.836a82 82 0 0 0 4.024 2.553c-2.626-2.01-5.117-3.784-7.606-5.268a58 58 0 0 1-.842-.699c-1.362-1.443-2.578-2.237-3.794-3.033-1.003-.502-1.993-1.025-3.002-1.516.982.439 1.964.84 2.91 1.182-8.13-5.432-15.987-10.853-24.285-15.485-3.79-2.115-8.447-2.673-12.643-3.582.312.136.63.235.945.35-.443-.15-.85-.239-1.304-.424-1.158-.465-1.89-.5-2.621-.535-2.312-.376-4.623-.753-7.319-1.537-.814-.438-1.244-.467-1.674-.496-1.696.118-3.393.198-5.09.336a79 79 0 0 0 4.862-.692c-8.115-.712-16-1.241-23.89-1.328m-228.242 791.742a1.4 1.4 0 0 0-.34.047c-.787.208-1.523 1.045-1.91 1.621 15.606.072 30.753.135 45.897-.06 11.716-.15 23.43-.605 35.142-.988.863-.029 1.71-.568 2.268-1.157-27.218-.035-54.138.203-81.057.537M56.095 374.61c.406-.52.644-1.039.714-1.513-.69.722-1.083 1.365-1.174 2.033q.26-.258.46-.52m793.163 183.21c3.155.777 6.482.864 9.564.92-8.756-2.341-17.348-4.34-25.867-5.987 5.476 1.945 10.837 3.72 16.303 5.066m116.49 27.001c3.317.813 6.82.873 10.07.928-8.758-2.337-17.348-4.334-25.873-5.975 5.305 1.945 10.492 3.746 15.803 5.047m116.986 27.014c3.322.814 6.828.88 10.073.94-8.763-2.34-17.348-4.337-25.877-5.983 5.298 1.94 10.49 3.74 15.804 5.043m448.832-50.79c-1.547-1.722-3.248-3.102-4.81-4.202 1.644 1.701 3.151 3.124 4.81 4.203m-197.59-534.388c2.38.715 4.692 1.09 6.825 1.127-2.417-.715-4.654-1.09-6.824-1.127m13.475 3.252c1.018.298 2.014.6 2.94 1.01-.91-.403-1.903-.71-2.94-1.01m-73.54 4.553a28.5 28.5 0 0 1-3.6 1.545c1.24-.449 2.446-.945 3.6-1.545m119.509 23.467c2.291 3.235 4.242 6.905 8.8 6.164-2.984-2.35-5.809-4.42-8.8-6.164m161.459 125.8c.828.811 1.665 1.263 2.369 1.45-.875-.779-1.618-1.295-2.37-1.45m2.521 2.233a8.4 8.4 0 0 0 2.85 2.135c-.983-1-1.833-1.745-2.85-2.135m-616.709 58.496a3.4 3.4 0 0 1-.295.563c.12-.173.215-.364.295-.563m-411.767 47.28c3.257 1.655 6.55 3.639 9.941 5.954-3.237-1.655-6.57-3.64-9.941-5.955m1090.547 83.81c.028.085.064.165.095.248-.03-.083-.067-.163-.095-.248m16.496 22.078c4.557 2.38 9.167 5.092 13.898 8.129a181 181 0 0 1-13.898-8.129m-693.858 2.66a183 183 0 0 1 14.97 7.95c-4.93-2.317-9.9-4.966-14.97-7.95m58.067 19.97c2.08.705 3.997 1.073 5.838 1.114-2.052-.701-4.026-1.075-5.838-1.113m38.004 8.983c2.08.709 3.996 1.082 5.836 1.13-2.051-.707-4.027-1.085-5.836-1.13m9.005 2.055c5.463.97 11.106 2.274 16.844 3.91-5.49-.97-11.077-2.273-16.843-3.91m28.997 6.926c2.08.712 3.997 1.088 5.845 1.135-2.048-.71-4.03-1.09-5.845-1.135m20.968 5.004c1.747.66 3.364.979 4.9.988-1.728-.65-3.38-.99-4.9-.988m17.037 3.998c2.08.717 3.991 1.101 5.827 1.158-2.05-.715-4.022-1.104-5.826-1.158m8.018 2.033c5.784.996 11.762 2.33 17.826 3.998-5.82-.997-11.726-2.33-17.826-3.998m-568.172 1.154a8.5 8.5 0 0 0-2.19 2.86c1.025-.984 1.787-1.844 2.19-2.86m589.15 3.766c2.08.708 4.005 1.075 5.88 1.101-2.044-.708-4.04-1.075-5.88-1.101m9.003 2.056c2.08.704 3.993 1.073 5.847 1.11-2.045-.703-4.03-1.073-5.847-1.11m9.015 2.026a167 167 0 0 1 16.844 3.943c-5.498-.974-11.077-2.293-16.844-3.943m37.992 9.002c2.086.703 3.99 1.085 5.829 1.133-2.046-.707-4.029-1.082-5.829-1.133m67.979 16.006c2.08.697 4 1.055 5.857 1.084-2.05-.695-4.031-1.058-5.857-1.084m8.031 1.992a188 188 0 0 1 17.82 4.002c-5.815-.999-11.723-2.333-17.82-4.002m29.985 6.955c2.081.716 3.993 1.099 5.835 1.152-2.048-.714-4.026-1.1-5.835-1.152m8.994 2.066c2.086.702 3.995 1.077 5.838 1.12-2.05-.705-4.033-1.075-5.838-1.12m29.002 6.932c2.082.714 3.997 1.094 5.865 1.129-2.043-.717-4.038-1.09-5.865-1.129m11.355 1.215q.285-.003.559.027a4.6 4.6 0 0 0-.957.01c.132-.01.268-.036.398-.037m73.666 18.828a191 191 0 0 1 17.818 3.996c-5.81-1.001-11.716-2.334-17.818-3.996m29.979 6.973c2.08.717 3.99 1.1 5.828 1.156-2.05-.715-4.021-1.103-5.828-1.156m9.007 2.052c5.448.97 11.085 2.275 16.83 3.903-5.473-.973-11.059-2.272-16.83-3.903m-723.248 2.427c2.043.71 4.04 1.077 5.883 1.1-2.077-.71-4.004-1.077-5.883-1.1m50.028 11.044c5.823.997 11.73 2.331 17.828 3.996a188 188 0 0 1-17.828-3.996m20.017 4.873c2.051.707 4.026 1.085 5.844 1.125-2.077-.71-4-1.081-5.844-1.125m708.143 3.629c.816.905 1.573 1.52 2.482 1.797-.746-.922-1.644-1.505-2.482-1.797M261.35 560.975c-.697 2.047-1.06 4.03-1.092 5.845.697-2.08 1.06-3.997 1.092-5.845m610.605.795c5.838.976 11.75 2.302 17.85 3.96a183 183 0 0 1-17.85-3.96m663.797 4.06c1.658 1.708 3.183 3.132 4.87 4.213-1.56-1.728-3.282-3.112-4.87-4.213m-643.781.8c2.045.715 4.03 1.088 5.853 1.124-2.08-.712-3.995-1.09-5.853-1.123m32.656 8.864c.433.08.89.074 1.35.018-.463.042-.92.062-1.35-.018m6.367.11c2.051.712 4.022 1.098 5.83 1.148-2.078-.715-3.994-1.095-5.83-1.148m8.973 2.068c2.05.697 4.034 1.056 5.883 1.058-2.075-.703-4.011-1.05-5.883-1.058m48.006 11.043c2.057.692 4.03 1.062 5.863 1.082-2.076-.702-4.011-1.052-5.863-1.082m21.01 4.906c2.05.71 4.027 1.087 5.841 1.13-2.08-.71-3.997-1.084-5.842-1.13m8.99 2.031c2.047.715 4.027 1.092 5.853 1.127-2.076-.716-3.999-1.09-5.853-1.127m30.005 6.975c2.048.713 4.028 1.095 5.846 1.14-2.078-.714-3.997-1.093-5.846-1.14m95.975 22.14c1.728.658 3.378 1.006 4.899 1.01-1.745-.668-3.36-.994-4.899-1.01m69 15.942c2.044.71 4.032 1.082 5.865 1.111-2.075-.712-4-1.08-5.865-1.111m774.363 1.578c-.113.577-.109 1.176-.043 1.78-.054-.607-.069-1.206.043-1.78m-744.359 5.363c2.038.719 4.03 1.093 5.852 1.135-2.08-.714-3.988-1.097-5.852-1.135m9.002 2.043c2.045.71 4.03 1.08 5.863 1.108-2.076-.71-3.999-1.078-5.863-1.108m8.992 2.047c2.051.698 4.035 1.067 5.875 1.088-2.075-.705-4.01-1.06-5.875-1.088m20.043 4.871c2.05.71 4.02 1.091 5.826 1.139-2.078-.712-3.992-1.088-5.826-1.139m38.994 9.02c2.049.705 4.022 1.081 5.832 1.125-2.078-.707-3.992-1.08-5.832-1.125m38.973 9.025c2.045.707 4.034 1.071 5.86 1.1-2.082-.704-3.999-1.073-5.86-1.1m30.027 6.94c2.048.707 4.025 1.082 5.824 1.133-2.083-.706-3.989-1.085-5.824-1.133m8.994 2.045c2.052.7 4.029 1.072 5.842 1.109-2.08-.703-4-1.069-5.842-1.11m17.98 4.091c2.055.694 4.031 1.066 5.868 1.086-2.074-.703-4.01-1.056-5.867-1.086m38.999 9.04c2.057.69 4.03 1.062 5.86 1.083-2.078-.7-4.01-1.052-5.86-1.084m20.998 4.912c2.045.704 4.03 1.077 5.851 1.115-2.08-.705-3.994-1.077-5.851-1.115m382.744 91.443c-.33.148-.647.334-.953.537a8 8 0 0 1 .953-.537m-45.283 9.377c-.31.108-.61.26-.899.432.296-.165.592-.327.899-.432m-904.744 18.012c-8.068-.107-15.853.092-23.487.646 3.579.456 7.01.736 10.426.617 4.453-.154 8.895-.622 13.06-1.263" style="fill:#fff;fill-opacity:1"/></svg>