<svg xmlns="http://www.w3.org/2000/svg" viewBox="0 0 1969 666" xml:space="preserve"><path fill="#fff" d="M224.707 559.33c7.145 4.505 13.723 9.343 20.935 12.89 9.802 4.818 20.029 8.8 30.188 12.855 7.496 2.992 15.048 5.987 22.81 8.124 6.865 1.89 14.045 2.657 21.105 3.807 5.147.838 10.327 1.466 15.486 2.233 15.152 2.253 30.29 4.594 45.453 6.772 10.024 1.44 20.07 2.73 30.123 3.948 6.84.828 13.695 1.628 20.567 2.07 17.627 1.131 35.256 2.513 52.906 2.945 20.347.497 40.72-.147 61.076.143 14.068.2 27.72-2.116 41.441-4.76 10.4-2.005 21.028-2.786 31.506-4.422 4.28-.669 8.422-2.193 12.643-3.268 7.507-1.912 15.125-3.461 22.512-5.758 6.772-2.105 13.295-5.008 19.936-7.537 17.503-6.664 32.925-16.968 46.743-29.222 12.364-10.965 23.362-23.485 34.798-35.475 6.3-6.606 12.769-13.152 18.265-20.405 9.123-12.04 17.908-24.378 26.135-37.046 11.28-17.372 21.947-35.143 32.801-52.79 13.138-21.358 26.504-42.585 39.178-64.216 7.812-13.334 17.589-25.024 29.225-34.739 15.865-13.245 33.477-24.085 53.004-31.44 15.104-5.688 30.729-8.883 46.84-8.881 13.607.001 24.549 5.885 32.248 17.22 7.083 10.428 10.481 21.696 8.457 34.562-1.124 7.143-.876 14.509-1.14 21.779-.723 19.869-1.384 39.74-2.078 59.61-.294 8.44-.652 16.88-.907 25.321-.682 22.534-1.715 45.067-1.812 67.604-.046 10.682 1.732 21.367 6.495 31.244 3.623 7.515 6.504 15.494 10.943 22.487 9.875 15.556 24.277 25.905 41.126 33.011 5.47 2.307 10.776 5.06 16.368 7.001 6.822 2.369 13.863 4.105 20.814 6.1 3.572 1.024 7.096 2.456 10.743 2.94 11.492 1.526 23.005 3.348 34.56 3.822 13.272.545 25.653-3.568 38.219-8.08 18.256-6.557 32.553-18.497 46.696-30.615 10.838-9.286 21.005-19.702 29.817-30.915 10.58-13.462 17.861-29.12 24.157-45.099 4.29-10.89 8.992-21.65 12.651-32.75 2.523-7.653 3.39-15.838 5.34-23.7 2.297-9.255 4.743-18.486 7.524-27.607 3.989-13.084 7.536-26.39 12.749-38.99 5.802-14.025 13.57-27.189 23.395-38.935 3.897-4.659 7.56-9.73 12.24-13.477 12.055-9.654 23.948-19.396 38.952-24.896 14.77-5.415 28.688-13.107 43.257-19.128 7.883-3.259 16.335-5.152 24.55-7.592 6.469-1.92 12.972-3.72 19.453-5.6 11.934-3.46 23.88-6.886 35.79-10.428 8.627-2.565 17.18-5.375 25.811-7.927 8.356-2.472 16.796-4.662 25.147-7.148 6.77-2.015 13.453-4.323 20.197-6.43a914 914 0 0 1 17.581-5.313c8.656-2.516 17.345-4.915 26.002-7.428 12.213-3.545 24.431-7.078 36.607-10.748 11.276-3.4 22.464-7.096 33.758-10.434 9.128-2.697 18.4-4.91 27.529-7.603 11.12-3.28 22.128-6.941 33.242-10.246 9.125-2.714 18.348-5.099 27.501-7.721a1380 1380 0 0 0 23.672-7.016c11.735-3.59 23.493-7.118 35.141-10.972 6.224-2.06 12.306-4.598 18.334-7.194 7.523-3.241 14.73-7.312 22.42-10.052 16.161-5.758 14.177-20.802 6.299-31.013-8.739-11.327-21.128-15.538-33.7-19.75-6.113-2.047-12.34-3.992-18.67-5.102-9.802-1.717-19.732-3.767-29.613-3.793-103.331-.269-206.663-.22-309.995-.118-25.774.025-51.547.632-77.322.801-6.263.041-12.53-.594-19.12-.936V48.137h10.568c17.5-.007 35 .06 52.5-.036 41.281-.227 82.563-.636 123.845-.753 17.203-.05 34.41.711 51.614.66 37.455-.112 74.91-.544 112.366-.771 16.166-.099 32.366-.663 48.49.174 15.411.8 30.944 2.13 46.047 5.128 12.15 2.411 24.032 6.965 35.494 11.834 12.984 5.516 22.947 14.726 31.447 26.473 6.696 9.254 9.267 19.308 9.025 29.34-.286 11.863-4.105 23.97-15.978 30.33-12.022 6.439-24.165 12.859-36.819 17.861-15.837 6.26-32.18 11.28-48.43 16.443-17.969 5.708-36.06 11.03-54.13 16.413-19.944 5.94-39.948 11.682-59.881 17.659-11.178 3.351-22.213 7.181-33.409 10.47-11.515 3.383-23.198 6.195-34.713 9.582-11.207 3.296-22.25 7.152-33.445 10.49-13.269 3.957-26.65 7.533-39.934 11.438-17.328 5.095-34.59 10.42-51.915 15.521-16.572 4.88-33.131 9.817-49.803 14.334-16.72 4.53-32.628 11.088-48.347 18.21-7.965 3.609-16.192 6.739-23.839 10.928-13.32 7.299-26.599 14.876-35.282 28.07-5.638 8.567-11.826 16.863-16.54 25.919-4.176 8.019-6.956 16.822-9.808 25.458a450 450 0 0 0-8.773 29.968c-2.78 10.907-4.627 22.057-7.53 32.927-2.094 7.835-4.94 15.511-8 23.035-6.116 15.044-12.168 30.146-19.126 44.806-3.827 8.065-9.362 15.334-14.27 22.87-10.057 15.445-23.578 27.601-37.808 38.98-9.467 7.57-18.831 15.478-29.172 21.684-9.685 5.813-20.45 9.951-31 14.176-19.256 7.711-39.353 6.295-59.54 5.282-18.62-.934-36.108-6.523-53.202-12.571-20.839-7.373-41.299-16.55-57.286-32.747-8.48-8.591-15.29-18.458-21.21-29.105-10.723-19.287-15.574-39.936-15.755-61.716-.135-16.286.548-32.582 1.053-48.868.524-16.904 1.265-33.801 1.922-50.701.683-17.56 1.289-35.122 2.111-52.675.355-7.57 1.914-15.158 1.52-22.663-.268-5.078-2.225-10.495-4.9-14.858-1.622-2.649-6.012-4.958-9.224-5.045-15.232-.416-29.592 3.405-43.638 9.482-20.706 8.96-38.768 21.482-53.485 38.387-6.269 7.2-10.763 15.974-15.86 24.16a8458 8458 0 0 0-34.76 56.295c-10.71 17.502-20.703 35.475-32.086 52.523-10.673 15.986-22.152 31.53-34.39 46.35-11.689 14.158-24.483 27.456-37.393 40.54-14.727 14.924-31.932 26.786-50.226 36.907-15.886 8.79-32.994 14.824-50.629 18.874-17.33 3.98-34.884 7.03-52.408 10.098-17.987 3.15-35.895 6.883-54.387 6.188-10.088-.378-20.237 1.003-30.332.7-19.671-.59-39.332-1.669-58.982-2.813-13.35-.777-26.709-1.68-40-3.12-17.63-1.91-35.221-4.236-52.787-6.684-15.58-2.17-31.09-4.822-46.652-7.13-15.08-2.238-29.728-5.8-43.775-11.97-9.653-4.241-20.218-6.612-29.46-11.535-12.34-6.574-24.156-14.307-35.506-22.499-8.739-6.307-16.55-13.938-24.527-21.25-10.83-9.927-21.72-19.82-32.008-30.294-6.383-6.499-11.848-13.93-17.453-21.152-8.44-10.876-17.45-21.426-24.772-33.027-13.66-21.642-26.355-43.897-39.3-65.985-5.43-9.264-11.04-18.493-15.535-28.215-4.427-9.575-7.649-19.718-11.2-29.683-2.026-5.682-3.113-11.751-5.583-17.211-4.005-8.855-4.727-18.325-6.314-27.633a600 600 0 0 1-4.36-30.195c-.622-5.241-.652-10.58-.584-15.87.123-9.453.167-18.931.914-28.346.633-7.964 1.968-15.9 3.445-23.762 1.411-7.511 2.498-15.281 5.334-22.286 5.873-14.502 12.28-28.841 22.647-40.967 4.578-5.355 8.237-11.53 13.038-16.653 6.358-6.786 13.345-12.995 20.207-19.295 12.497-11.472 26.167-21.443 41.222-29.19 12.989-6.683 25.762-13.695 40.072-17.9 20.974-6.163 42.183-7.896 63.806-7.87 74.832.094 149.664.012 224.496 0 24.079-.005 48.157.042 72.236-.012 125.358-.284 250.715-.574 376.073-.927 11.205-.031 22.41-.793 33.614-.748 22.646.09 45.29.77 67.935.718 37.142-.087 74.283-.77 111.425-.835 89.557-.16 179.114-.108 268.672-.142h3.682v-13.99h19.7v52.783h-20.033v-11.99h-358.159c-48.675 0-97.35-.075-146.025.015q-267.888.493-535.776 1.105c-11.62.026-23.24.75-34.857.706-26.3-.098-52.597-.596-78.896-.68-11.196-.035-22.426.154-33.578 1.032-6.051.476-12.018 2.442-17.94 4.043-6.842 1.85-14.012 3.18-20.295 6.254-13.459 6.587-26.758 13.634-39.497 21.505-7.868 4.862-14.396 11.841-21.86 17.424-13.934 10.423-24.472 23.952-33.747 38.247-7.583 11.687-13.297 24.357-16.653 38.382-3.523 14.725-2.55 29.401-3.928 44.06-1.673 17.809 1.752 34.857 3.882 52.255 1.348 11.006 4.308 21.379 7.671 31.616 6.53 19.878 14.565 39.22 25.358 57.268 12.942 21.64 25.631 43.44 39.007 64.81 6.872 10.98 14.424 21.65 22.7 31.602 10.441 12.552 21.453 24.72 33.101 36.155 13.396 13.151 27.754 25.324 41.715 37.899.33.296.903.321 1.647.715"/></svg>