<svg xmlns="http://www.w3.org/2000/svg" viewBox="0 0 1992 654" xml:space="preserve"><path fill="#fff" d="M655.406 561.45c23.119-10.606 46.037-20.745 68.67-31.483 13.195-6.26 26.632-12.454 38.643-20.615 8.43-5.729 15.445-14.123 21.646-22.41 8.665-11.577 16.171-24.045 23.834-36.344 12.134-19.476 23.934-39.16 35.975-58.693 8.462-13.727 17.083-27.355 25.648-41.019 4.753-7.583 9.53-15.152 14.315-22.715.522-.827 1.095-1.646 1.77-2.348 14.475-15.057 30.332-28.472 48.295-39.165 6.793-4.043 14.21-7.06 21.432-10.35 12.918-5.885 26.822-7.961 40.724-9.15 9.108-.779 18.551-.976 27.035 4.128 7.666 4.612 13.673 11.057 17.52 18.774 2.886 5.79 4.73 12.763 4.725 19.207-.016 19.713-1.105 39.426-1.86 59.136-.6 15.719-1.338 31.433-1.987 47.15-.684 16.554-.697 33.166-2.18 49.647-1.468 16.293-1.03 32.452 2.577 48.213 2.174 9.498 6.857 18.524 11.132 27.417 6.572 13.674 17.743 23.525 30 31.735 7.3 4.888 15.803 8.255 24.145 11.243 13.529 4.847 27.125 10.036 41.14 12.86 17.922 3.61 36.135 3.85 54.319-.747 16.67-4.213 31.304-12.179 45.375-21.52 7.059-4.686 14.705-8.952 20.543-14.917 13.446-13.74 27.693-27.036 37.175-44.052 7.719-13.851 15.038-27.972 19.18-43.481 2.59-9.703 5.898-19.216 8.415-28.935 2.164-8.351 3.736-16.86 5.439-25.324 2.763-13.74 5.332-27.519 8.159-41.245 1.371-6.663 2.83-13.34 4.815-19.837 2.034-6.658 4.388-13.275 7.278-19.602 3.418-7.483 6.926-15.069 11.545-21.825 6.057-8.861 14.468-15.753 24.789-18.91 17.053-5.218 34.353-9.67 51.654-14.023 20.802-5.234 41.687-10.152 62.592-14.964 11.578-2.665 23.307-4.674 34.903-7.269 11.415-2.554 22.718-5.6 34.123-8.2 14.752-3.364 29.574-6.423 44.333-9.758 10.307-2.33 20.547-4.953 30.838-7.356 12.504-2.919 25.041-5.694 37.543-8.622 14.402-3.373 28.774-6.872 43.17-10.265 13.921-3.28 27.896-6.344 41.775-9.793 10.224-2.54 20.326-5.574 30.499-8.33 3.918-1.06 7.86-2.051 11.827-2.914 10.074-2.19 17.996-8.392 25.51-14.705 18.61-15.638 36.978-31.59 54.938-47.971 14.002-12.77 27.473-26.15 40.702-39.725 4.857-4.984 5.21-11.64 2.035-18.108-2.529-5.152-6.42-7.54-12.419-7.513-27.708.122-55.418-.046-83.127-.15-51.655-.191-103.311-.423-154.967-.61a5610 5610 0 0 0-43.371.005c-64.784.267-129.567.576-194.35.833-7.353.03-7.357-.078-7.363-7.342-.005-6.307 0-12.614 0-19.348h9.333c155.833-.045 311.665-.136 467.498.006 7.404.006 15.03 1.294 22.163 3.34 13.37 3.837 19.659 14.713 23.058 27.111 3.687 13.448 1.332 26.535-6.967 37.665-5.12 6.866-11.906 12.538-18.211 18.461-11.441 10.747-22.888 21.502-34.683 31.854a3910 3910 0 0 1-57.356 49.334c-9.244 7.801-20.697 11.014-32.177 13.965-12.86 3.306-25.656 6.86-38.542 10.059-14.003 3.477-28.083 6.644-42.118 9.996-10.882 2.599-21.715 5.406-32.624 7.883-15.342 3.483-30.752 6.666-46.098 10.132-11.236 2.538-22.394 5.417-33.625 7.978-15.033 3.427-30.13 6.576-45.148 10.07-11.524 2.68-22.923 5.907-34.459 8.534-14.571 3.32-29.252 6.16-43.836 9.427-11.538 2.585-22.987 5.56-34.5 8.258-11.212 2.627-22.568 4.712-33.654 7.782-12.208 3.38-24.871 5.521-35.914 12.482-6.689 4.217-9.513 11.148-12.513 17.606-5.417 11.662-10.382 23.522-12.401 36.518-2.34 15.06-5.402 30.043-8.934 44.873-4.459 18.726-9.961 37.202-14.544 55.9-4.246 17.33-12.121 33.142-21.017 48.235-7.034 11.934-15.907 22.997-25.213 33.32-9.858 10.937-19.858 21.887-32.51 30.07-15.962 10.323-31.875 20.609-49.957 26.904-4.575 1.593-9.294 2.816-14.01 3.942-4.887 1.167-9.828 2.69-14.786 2.857-11.358.383-22.751.315-34.108-.135-5.659-.225-11.328-1.423-16.884-2.67-6.934-1.554-13.693-3.906-20.639-5.395-16.291-3.492-30.869-11.369-45.73-18.255-8.126-3.766-15.288-9.995-22.21-15.904-15.994-13.657-26.045-31.378-33.12-50.938-4.475-12.375-6.913-25.147-7.005-38.302-.098-13.88-.176-27.767.164-41.64.425-17.38 1.262-34.75 1.962-52.121.627-15.54 1.28-31.077 1.978-46.612.623-13.876 1.606-27.742 1.865-41.623.12-6.487-1.95-12.87-8.37-15.875-3.523-1.65-7.971-2.553-11.795-2.087-9.189 1.12-18.788 1.903-27.252 5.264-14.681 5.83-28.665 13.248-41.622 22.711-18.796 13.728-31.447 32.16-43.114 51.681-11.416 19.1-23.18 37.993-34.893 56.913-12.609 20.37-24.861 40.985-38.193 60.875-7.848 11.709-16.81 22.87-26.578 33.022-6.061 6.298-14.286 10.744-22.047 15.12-9.81 5.532-20.075 10.274-30.254 15.126a2140 2140 0 0 1-38.62 17.924c-10.755 4.866-21.675 9.365-32.428 14.236-8.674 3.929-17.164 8.264-25.814 12.25-15.129 6.974-30.165 14.187-45.542 20.57-8.325 3.454-17.278 5.395-25.944 8.028-16.94 5.146-34.67 5.81-51.908 9.175-14.518 2.833-28.82.498-43.218-.11-.5-.02-1-.006-1.5-.015-19.778-.353-39.557-.616-59.332-1.083-24.212-.572-48.42-1.287-72.63-1.99a19620 19620 0 0 1-64.623-1.993c-19.209-.621-38.45-.801-57.609-2.153-11.53-.814-22.236-5.063-28.81-15.522-4.062-6.461-5.184-13.681-3.938-21.454 2.363-14.737 12.794-24.438 21.386-35.238 4.837-6.082 8.639-12.051 7.896-20.328-.401-4.476-2.285-7.496-6.014-9.172a764 764 0 0 0-28.464-12.126c-11.011-4.424-19.803-11.966-28.796-19.377-9.165-7.553-12.924-18.522-18.703-28.194-7.256-12.143-10.837-25.81-15.265-39.11-2.241-6.73-5.014-13.305-6.88-20.133-2.56-9.374-4.485-18.921-6.685-28.394-3.017-12.995-5.27-26.02-4.43-39.505 1.485-23.85 11.06-43.234 31.664-55.807 8.196-5.002 17.466-8.271 27.704-8.448 14.792-.257 28.891 2.781 43.087 6.274 9.28 2.284 18.81 3.872 28.323 4.808 10.038.988 20.207 1.393 30.285 1.052 17.906-.607 33.744-6.282 47.573-18.573 9.409-8.36 16.949-17.935 22.717-28.629 4.034-7.479 6.397-16.381 7.31-24.884 1.07-9.939.61-20.252-.757-30.186-1.552-11.277-7.918-15.398-19.006-13.837-15.015 2.114-29.963 4.7-44.972 6.865-15.35 2.213-30.712 4.393-46.118 6.148-11.771 1.34-23.666 3.148-35.423 2.679-16.438-.657-32.784-2.332-49.085-6.075-15.98-3.67-30.7-9.402-44.081-18.218-14.535-9.576-25.932-22.52-32.175-39.033-3.232-8.55-6.892-16.976-7.19-26.646-.436-14.069 5.435-24.982 13.733-35.47 6.978-8.819 15.996-14.476 26.46-17.321 7.18-1.953 14.904-2.627 22.385-2.632 237.5-.152 475-.132 712.499-.212 18.941-.007 37.883-.785 56.825-.804 102.209-.1 204.418-.072 306.627-.09 10.518-.002 21.038.097 31.553-.06 8.797-.132 17.589-.81 26.383-.806 9.13.005 18.258.769 27.388.775 9.615.007 19.229-.667 28.845-.706 6.943-.029 13.887.67 20.833.734 13.665.126 27.336.207 40.998-.025 8.57-.146 17.127-.897 26.1-1.4V28.194h19.643v51.471h-19.461V66.857h-5.716q-42.25.02-84.5.037c-9.408.004-18.819-.112-28.225.038-7.637.122-15.268.738-22.904.797-4.953.038-9.911-.787-14.865-.766-6.776.028-13.55.529-20.327.753-3.187.105-6.38.045-9.57.046-33.026.017-66.053.095-99.08.001-8.772-.025-17.542-.776-26.315-.853-16.373-.143-32.748-.112-49.122-.018-47.618.274-95.236.789-142.855.892-83.534.182-167.068.13-250.603.174-5.533.003-11.07-.097-16.6.03-7.45.172-14.896.743-22.343.731-8.282-.012-16.563-.692-24.845-.699-7.78-.007-15.563.751-23.342.708-22.84-.13-45.68-.753-68.518-.715q-185.67.302-371.338.894c-17.938.058-24.38 5.583-32.321 21.37-1.388 2.758-1.126 6.902-.343 10.09 2.043 8.31 4.995 16.294 9.845 23.56 6.003 8.992 14.118 15.508 23.079 21.14 12.476 7.842 26.841 10.48 40.825 13.634 9.072 2.046 18.675 2.04 28.06 2.34 22.972.731 45.598-2.22 68.111-6.67 11.532-2.278 23.263-3.55 34.907-5.26 11.327-1.663 22.645-4.497 33.992-4.626 11.876-.136 21.979 5.533 29.11 15.642 8.352 11.84 11.5 24.945 11.121 39.359-.295 11.221.242 22.476-3.23 33.319-4.132 12.9-10.026 24.807-17.968 35.996-11.722 16.516-27.05 28.433-44.537 37.71-5.734 3.042-12.737 3.762-19.214 5.323-17.528 4.225-35.37 2.06-53.022 1.722-10.13-.194-20.203-3.482-30.294-5.414-10.713-2.051-21.359-5.412-32.14-5.917-14.897-.697-27.861 5.605-34.54 21.105-2.437 5.655-3.179 12.129-4.131 18.316-1.701 11.048 1.047 21.64 3.771 32.264 2.703 10.54 4.406 21.343 7.3 31.823 2.222 8.046 6.214 15.61 8.346 23.672 3.402 12.86 9.776 24.213 15.947 35.786 6.224 11.673 16.003 19.234 27.444 24.729 11.178 5.37 23.277 8.96 34.072 14.95 11.492 6.378 17.796 16.64 18.246 30.661.534 16.64-6.863 29.35-16.982 41.362-4.248 5.043-8.479 10.294-11.565 16.067-3.007 5.625-.645 8.68 5.848 9.123 6.267.427 12.543.836 18.821.99 18.102.443 36.21.66 54.31 1.14 21.576.572 43.147 1.328 64.72 2 9.95.309 19.9.628 29.85.907 25.05.704 50.103 1.306 75.15 2.11 14.22.457 28.431 1.726 42.643 1.675 8.275-.03 16.557-1.85 24.81-3.043 7.764-1.122 15.585-2.084 23.216-3.836 8.827-2.027 17.786-4.074 26.134-7.471 17.529-7.133 34.7-15.145 52.01-22.816a3291 3291 0 0 0 27.385-12.29"/></svg>