<svg xmlns="http://www.w3.org/2000/svg" viewBox="0 0 1923 634" xml:space="preserve"><path fill="#fff" d="M48.638 36.749c5.518-1.725 10.633-3.565 15.9-4.68 14.764-3.127 27.874.864 40.303 9.085 9.214 6.095 14.325 14.646 17.433 24.71 1.081 3.499.951 7.353 1.724 10.971 1.152 5.398 6.251 9.384 11.411 10.219 40.199 6.502 80.718 4.897 121.168 4.895 11.853 0 23.707-.883 35.56-.876 12.586.008 25.17.787 37.757.884 20.88.16 41.763.043 63.041.043V77.228h20.235v54.47h-20.049V117H376.41c-16.512 0-33.025-.075-49.537.017-52.563.294-105.126.973-157.686.745-12.414-.054-24.776-3.513-37.232-4.621-14.543-1.294-23.28-10.81-31.198-21.21-2.497-3.28-3.38-8.361-3.603-12.69-.619-11.99-4.622-16.57-16.563-20.536-7.975-2.65-14.914-.831-21.865 2.174-5.887 2.546-9.416 9.752-3.855 16.462 4.895 5.906 9.755 11.84 14.688 17.714a7189 7189 0 0 0 26.724 31.664c11.57 13.614 22.776 27.574 34.98 40.597 5.412 5.776 13.034 9.059 21.46 9.773 6.592.558 13.087 2.363 19.679 2.802 9.187.611 17.897-1.975 26.45-5.239 9.59-3.66 19.436-4.778 29.666-2.692 21.954 4.476 41.804 14.069 61.424 24.407 12.341 6.504 25.025 12.355 37.441 18.72 21.66 11.104 43.17 22.5 64.86 33.545 19.073 9.713 38.372 18.98 57.449 28.687 20.956 10.662 41.642 21.86 62.691 32.331 14.892 7.408 30.042 14.227 43.733 23.86 10.018 7.048 15.17 16.907 17.883 28.425 2.275 9.655 1.495 19.442-1.256 28.613-2.984 9.947-9.717 17.858-18.73 23.44-15.176 9.398-30.392 18.735-45.596 28.09-11.775 7.245-24.56 12.408-38.319 9.606-11.328-2.308-22.98-5.787-31.452-14.662-11.29-11.829-21.971-24.244-33.406-35.926-2.39-2.441-6.866-3.717-10.476-3.931-14.133-.838-26.753-5.536-37.937-13.94-10.841-8.144-18.863-18.902-26.95-29.675-4.144-5.52-9.597-10.28-15.17-14.429-4.031-3-10.328-.656-14.932 3.51-4.27 3.864-3.516 8.373-1.594 12.53 1.79 3.871 4.353 7.589 7.3 10.683 13.152 13.806 26.61 27.32 39.87 41.024 17.047 17.62 33.486 35.873 51.23 52.756 8.788 8.362 19.684 14.633 30.06 21.16 6.85 4.308 14.237 8.025 21.818 10.835 7.019 2.603 14.56 4.815 21.967 5.169 25.472 1.217 50.987 2.04 76.486 2.028 15.583-.006 31.158-2.364 46.753-2.611 9.393-.149 18.088 3.793 26.01 8.978 1.886 1.234 3.688 2.644 5.695 3.637 9.468 4.685 13.838 13.937 19.526 21.913 5.786 8.116 10.223 17.292 16.615 24.85 6.349 7.508 14.18 13.979 25.01 14.411 9.08.363 18.162.947 27.244.961 56.83.089 113.661-.025 170.492.09 15.419.032 30.836.743 46.256.892 5.748.056 11.507-.923 17.255-.87 11.421.106 22.838.852 34.257.86 10.752.007 21.504-.895 32.256-.883 235.368.276 470.735.638 706.103.87 6.152.006 12.37-.903 18.445-2.006 14.767-2.682 28.742-8.064 42.121-14.593 10.196-4.975 20.45-10.505 29.173-17.632 8.939-7.303 18.07-14.825 24.2-25.222 5.641-9.567 13.114-18.117 18.186-27.937 5.169-10.009 8.868-20.868 12.346-31.634 3.945-12.209 6.342-24.744 6.291-37.78-.042-11 1.97-22.029 1.637-33.001-.344-11.347-2.136-22.683-3.82-33.945-1.647-11.003-3.23-22.106-6.176-32.797-3.091-11.22-7.692-22.03-11.767-32.97-6.003-16.115-12.921-31.819-22.982-45.872-7.657-10.696-15.451-21.32-23.697-31.563-14.475-17.98-33.941-29.397-54.278-39.279-14.761-7.172-30.146-12.817-46.845-13.696-11.505-.606-23.026-2.065-34.502-1.751-9.158.25-18.265 2.57-27.384 4.033-5.263.845-10.503 1.826-15.757 2.728-7.328 1.259-14.649 2.567-21.992 3.736-11.358 1.808-22.744 3.44-34.095 5.29-10.041 1.637-20.047 3.487-30.075 5.208-11.32 1.943-22.647 3.848-33.97 5.77-9.891 1.679-19.783 3.347-29.67 5.042-9.565 1.638-19.123 3.318-28.688 4.953a4306 4306 0 0 1-25.84 4.354c-9.58 1.578-19.18 3.043-28.752 4.669-8.122 1.38-16.204 2.996-24.327 4.367-9.577 1.617-19.198 2.983-28.768 4.64-11.774 2.04-23.496 4.39-35.28 6.377-10.07 1.7-20.217 2.938-30.288 4.636-10.02 1.69-19.964 3.825-29.98 5.538-11.332 1.939-22.711 3.603-34.062 5.433-5.907.952-11.8 1.998-17.695 3.016-9.56 1.651-19.114 3.341-28.678 4.966-8.138 1.382-16.285 2.704-24.431 4.034-10.218 1.669-20.459 3.2-30.651 5.006-11.448 2.027-22.832 4.412-34.283 6.42-9.575 1.681-19.215 2.982-28.808 4.567-7.974 1.318-15.921 2.805-23.88 4.217-1.43.253-2.857.72-4.288.732-14.984.125-29.842-.542-44.796-2.511-8.923-1.176-17.536-3.026-25.919-5.647-12.215-3.819-22.135-11.605-30.357-21.373-7.662-9.103-15.45-18.132-22.55-27.664-9.832-13.203-18.388-27.404-28.763-40.14-9.956-12.223-21.14-23.68-34.734-32.025-12.432-7.631-25.8-12.478-40.564-14.963-25.11-4.226-50.202-1.847-75.284-2.573-13.821-.4-27.665-.18-41.496-.049-26.752.254-53.503.63-80.254.981-23.752.313-47.503.672-71.254.994-25.418.344-50.836.669-76.254 1-.803.01-1.605.002-2.792.002l1.285-25.774c1.222-.068 2.65-.211 4.08-.215 8.167-.022 16.334.055 24.5-.023 32.25-.305 64.502-.6 96.752-1.014 13.587-.175 27.169-.795 40.756-.945 38.083-.417 76.169-.642 114.252-1.06 12.087-.133 24.235-1.57 36.24-.738 15.864 1.1 31.88 2.695 47.323 6.269 11.108 2.57 21.794 7.97 31.944 13.448 17.301 9.338 31.083 23.144 43.385 38.267 10.023 12.322 19.3 25.25 29.01 37.831 8.357 10.832 16.642 21.733 25.362 32.27 6.933 8.377 15.88 13.464 26.96 14.776 11.422 1.352 22.764 4.442 34.17 4.598 13.45.184 26.991-.938 40.286-4.24 9.083-2.255 18.55-2.943 27.822-4.474 7.813-1.29 15.576-2.886 23.392-4.164 10.387-1.697 20.817-3.134 31.203-4.838 8.448-1.386 16.846-3.078 25.29-4.492 9.424-1.578 18.883-2.942 28.31-4.502 5.729-.948 11.414-2.156 17.138-3.134 11.636-1.99 23.288-3.88 34.926-5.853 10.04-1.702 20.066-3.483 30.104-5.19 9.566-1.627 19.143-3.18 28.708-4.81 8.131-1.387 16.244-2.878 24.377-4.253 9.572-1.62 19.162-3.123 28.732-4.753 8.129-1.384 16.23-2.93 24.361-4.305 9.572-1.617 19.17-3.083 28.742-4.694 10.038-1.689 20.053-3.508 30.09-5.202 11.654-1.968 23.323-3.849 34.981-5.792 5.896-.983 11.783-2.017 17.673-3.034 9.557-1.65 19.11-3.33 28.67-4.953 8.144-1.382 16.303-2.667 24.444-4.062 9.392-1.61 18.767-3.323 28.158-4.936 8.773-1.507 17.553-2.98 26.34-4.4 9.756-1.576 19.537-2.992 29.28-4.64 6.032-1.02 12.004-2.394 18.02-3.513 6.507-1.21 13.023-2.383 19.556-3.435 6.71-1.08 13.424-2.232 20.18-2.9 4.446-.44 8.993-.371 13.454-.015 9.91.793 19.847 1.558 29.673 3.01 7.29 1.078 14.683 2.509 21.566 5.043 13.063 4.81 26.206 9.72 38.552 16.072 14.202 7.306 27.651 16.03 39.64 26.885 13.636 12.346 24.573 26.75 34.896 41.857 12.846 18.799 22.839 38.97 30.886 60.148 3.567 9.387 6.8 18.952 9.386 28.648 4.049 15.179 7.422 30.537 11.07 45.822.075.316.011.665.018.998.333 16.252 1.467 32.537.777 48.746-.705 16.557-1.098 33.171-5.499 49.517-3.841 14.264-8.563 27.958-14.72 41.402-7.103 15.508-16.494 29.368-26.983 42.556-15.23 19.152-34.2 33.807-56.374 44.083-10.976 5.087-22.054 10.45-33.657 13.555-12.89 3.45-26.429 6.265-39.69 6.286-233.141.368-466.283.266-699.424.266-51.98 0-103.962.129-155.942-.034-59.584-.187-119.169-.425-178.748-1.114-14.623-.17-27.361-6.692-38.441-16.106-11.148-9.471-17.17-22.822-25.508-34.418-5.514-7.67-10.758-15.542-19.378-20.212-8.914-4.828-18.5-4.712-28.17-3.752-4.034.4-8.03 1.476-12.059 1.57-20.581.477-41.174 1.201-61.75.911-15.26-.215-30.641-.9-45.709-3.131-13.631-2.018-26.49-7.512-38.29-14.927-11.318-7.112-22.768-14.053-33.7-21.724-5.035-3.533-9-8.603-13.404-13.024-7.562-7.592-15.187-15.125-22.602-22.858-9.022-9.409-17.832-19.02-26.78-28.499-3.48-3.686-7.112-7.226-10.631-10.875-8.17-8.471-16.115-17.171-24.539-25.38-5.124-4.992-8.989-10.544-12.047-17-12.64-26.687.521-47.922 26.284-54.262 21.053-5.182 31.99 2.786 45.87 18.66 6.27 7.172 10.985 15.73 17.426 22.718 9.275 10.065 20.981 15.775 35.035 16.551 11.4.63 20.85 5.246 28.112 14.658 6.527 8.458 14.19 16.028 21.077 24.22 5.855 6.961 13.044 12.138 21.635 14.367 4.78 1.24 11.105 1.42 15.267-.745 13.641-7.093 26.624-15.456 39.83-23.38 3.848-2.309 7.549-4.864 11.4-7.167 11.257-6.733 14.437-14.816 11.188-27.577-1.462-5.743-5.02-9.757-9.86-12.39-16.454-8.95-33.059-17.627-49.66-26.307-20.185-10.553-40.392-21.068-60.652-31.478-19.602-10.072-39.279-19.999-58.93-29.974-21.584-10.956-43.185-21.877-64.76-32.849-13.664-6.948-27.138-14.292-40.993-20.831-9.978-4.71-20.204-9.218-30.766-12.273-9.185-2.656-18.539-3.037-28.253 1.313-12.932 5.79-27.003 7.037-41.213 4.383-6.689-1.249-13.497-1.856-20.187-3.101-10.415-1.939-19.89-6.724-26.96-14.202-14.552-15.391-28.124-31.712-42.035-47.708-7.973-9.168-15.925-18.36-23.69-27.704-6.861-8.258-13.741-16.53-20.076-25.189-6.207-8.483-5.113-26.267 2.049-36.398 4.205-5.947 8.604-12.011 16.768-14.013"/></svg>