<svg xmlns="http://www.w3.org/2000/svg" viewBox="0 0 1342 681" xml:space="preserve"><path fill="#fff" d="M1096.857 98.813a1573 1573 0 0 0-21.315 3.348c-13.405 2.204-26.829 4.307-40.2 6.708-8.21 1.474-16.32 3.497-24.503 5.137-11.69 2.343-23.421 4.482-35.105 6.854-12.99 2.638-25.932 5.511-38.922 8.149-11.697 2.375-23.449 4.486-35.144 6.873-7.533 1.537-14.981 3.489-22.514 5.028-11.857 2.422-23.778 4.536-35.627 6.995-13.293 2.76-26.523 5.822-39.805 8.634a10113 10113 0 0 1-58.62 12.228c-19.536 4.016-39.095 7.918-58.639 11.897-14.75 3.004-29.47 6.16-44.243 9.05-16.236 3.178-32.523 6.095-48.77 9.22-2.08.4-4.05 1.359-6.582 2.236l2.425 13.883-19.509 3.88-9.24-46.942 19.49-3.89 3.162 14.222c15.773-3.29 31.262-6.58 46.778-9.74 17.32-3.527 34.68-6.864 51.994-10.418 12.343-2.534 24.614-5.417 36.963-7.915 13.955-2.823 27.978-5.308 41.942-8.088 23.113-4.601 46.217-9.253 69.297-14.014 16.664-3.437 33.263-7.186 49.929-10.614 17.315-3.562 34.681-6.875 52.013-10.357 11.714-2.353 23.404-4.822 35.11-7.215 17.632-3.603 35.26-7.229 52.906-10.76 13.48-2.696 26.942-5.536 40.496-7.811 16.005-2.686 32.15-4.537 48.143-7.29 18.821-3.24 37.767-4.702 56.772-3.762 15.906.786 31.538 3.947 46.618 9.323 6.651 2.372 13.414 4.531 19.828 7.444 16.867 7.66 32.887 16.837 47.287 28.588 16.698 13.626 30.518 29.81 41.34 48.42 5.637 9.691 9.557 20.161 11.205 31.362 1.647 11.187 3.974 22.325 4.764 33.572.682 9.708-.192 19.548-.73 29.31a168 168 0 0 1-2.077 18.605c-3.372 20.015-9.963 38.812-21.712 55.587-11.286 16.113-24.929 29.935-40.345 42.1-11.515 9.086-22.865 18.382-34.314 27.553-8.494 6.804-17.022 13.565-25.545 20.332-12.519 9.938-25.054 19.856-37.57 29.799-12.9 10.25-25.83 20.464-38.665 30.797-11.178 8.999-22.178 18.221-33.37 27.203-19.671 15.784-39.456 31.426-59.142 47.19-20.462 16.387-40.863 32.85-61.292 49.277-13.619 10.952-26.642 22.78-41.047 32.577-11.623 7.904-24.55 14.235-37.575 19.634-11.884 4.927-24.597 7.963-37.102 11.236-5.985 1.567-12.325 2.38-18.514 2.433-12.602.107-25.225-.256-37.811-.94-15.098-.822-29.11-5.858-43.117-11.327-22.72-8.87-40.548-24.963-59.77-39-18.219-13.306-36.159-26.993-54.178-40.57-23.816-17.944-47.744-35.746-71.286-54.042-6.923-5.38-8.815-13.871-10.318-22.345-2.174-12.259.157-23.204 7.774-33.031 7.411-9.562 17.153-14.947 29.166-16.236 13.682-1.47 24.948 3.845 35.71 11.768 14.713 10.832 29.931 20.98 44.945 31.404 2.84 1.97 5.5 4.524 8.656 5.64 5.334 1.886 10.934 3.45 16.539 4.042 8.378.885 16.944.2 25.262 1.371 4.993.703 10.298 2.797 14.376 5.76 16.78 12.196 33.172 24.928 49.654 37.531 13.097 10.015 36.63 10.264 49.211-.427 5.5-4.673 10.79-9.592 16.138-14.442 14.597-13.237 29.554-26.112 43.533-39.973 4.37-4.333 7.727-11.092 8.674-17.187 2.143-13.791-.9-27.072-12.323-36.211-4.87-3.897-11.72-5.577-17.901-7.53-18.236-5.763-36.574-11.202-54.896-16.685-21.833-6.532-43.708-12.921-65.532-19.481-14.282-4.293-28.483-8.86-42.762-13.163-25.429-7.663-50.914-15.139-76.33-22.846-18.805-5.703-37.52-11.7-56.305-17.472-18.643-5.73-37.261-11.552-56.001-16.948-17.61-5.07-35.15-10.87-53.128-14.01-12.995-2.27-26.756-1.662-39.248 4.906-11.518 6.057-22.913 12.432-34.81 17.644-6.312 2.765-13.504 3.98-20.427 4.773-8.521.977-17.245 1.593-25.753.863-7.889-.677-15.751-2.866-23.373-5.209-16.486-5.067-28.56-17.316-42.157-27.014-15.28-10.9-30.195-22.31-45.244-33.532-17.698-13.196-35.33-26.481-53.062-39.63-22.223-16.478-44.555-32.809-66.774-49.293-21.697-16.097-43.29-32.337-64.968-48.46-16.781-12.481-33.716-24.758-50.4-37.367-7.6-5.743-12.113-13.691-13.787-23.08-2.442-13.702-3.336-27.298 5.675-39.3 7.39-9.842 17.433-15.747 29.55-17.293 6.767-.864 13.743-.467 20.602-.145 8.711.409 15.986 4.724 22.902 9.59a7176 7176 0 0 1 42.725 30.277c12.87 9.193 25.586 18.601 38.515 27.708 14.805 10.427 29.828 20.545 44.654 30.942 22.794 15.985 45.14 32.644 68.403 47.908 10.96 7.192 23.279 12.683 35.586 17.355 13.723 5.21 27.959 9.391 42.294 12.56 11.963 2.646 24.368 3.43 36.621 4.568 8.399.78 16.875.707 25.312 1.095 18.254.837 36.222-1.045 54.06-4.988 20.27-4.482 40.634-8.546 61.455-12.895l4.317 18.538c-11.109 2.048-21.894 3.885-32.613 6.05-12.496 2.525-24.979 5.15-37.386 8.075-11.78 2.776-23.588 4.495-35.746 3.907-7.814-.379-15.665.063-23.495-.098-18.289-.377-36.415-1.548-54.42-5.665-16.984-3.883-33.963-7.47-49.817-14.876-13.332-6.228-27.102-11.839-39.562-19.531-16.22-10.013-31.342-21.802-46.922-32.848a31628 31628 0 0 1-41.85-29.741c-16.105-11.458-32.151-22.996-48.314-34.37C110.067 79.061 91.74 66.77 73.917 53.782c-8.025-5.848-16.456-9.209-26.205-7.86-8.728 1.208-17.304 3.48-22.089 12.102-3.54 6.382-3.46 13.415-2.416 20.27 1.335 8.77 6.883 14.775 13.97 19.901 18.819 13.613 37.367 27.599 56.046 41.405 21.03 15.542 42.11 31.015 63.117 46.59 10.192 7.556 20.199 15.363 30.406 22.9 18.261 13.484 36.677 26.76 54.905 40.29 17.99 13.353 35.735 27.04 53.76 40.345 15.1 11.146 29.99 22.69 45.894 32.577 7.2 4.477 16.515 6.91 25.077 7.562 19.124 1.456 37.262-1.45 54.252-12.54 15.58-10.169 32.86-16.785 52.6-16.473 17.987.284 34.783 4.588 51.645 9.655 16.291 4.896 32.59 9.767 48.867 14.706 16.782 5.091 33.53 10.295 50.318 15.368 15.218 4.599 30.485 9.039 45.704 13.636 17.546 5.3 35.052 10.733 52.596 16.042 15.837 4.792 31.717 9.439 47.548 14.249 20.66 6.277 41.273 12.701 61.936 18.967 15.664 4.75 31.392 9.284 47.055 14.038 10.174 3.089 20.412 6.045 30.384 9.707 10.254 3.766 17.779 11.002 23.043 20.604 8.62 15.723 9.958 32.225 4.53 49.094-2.472 7.681-6.708 14.326-13.466 19.66-8.438 6.66-15.743 14.742-23.7 22.03-12.807 11.73-25.604 23.476-38.686 34.894-7.792 6.8-17.803 8.218-27.606 9.23-19.39 2.003-35.51-5.209-50.155-17.626-12.418-10.53-25.474-20.386-38.883-29.618-4.415-3.04-10.735-3.879-16.322-4.526-10.145-1.175-20.462-.952-30.566-2.34-4.268-.587-8.494-3.319-12.197-5.865-18.997-13.064-37.526-26.833-56.81-39.452-11.755-7.692-19.35-8.306-31.39.119-5.912 4.137-8.609 15.218-7.031 24.12 1.189 6.707 5.374 10.511 10.331 14.197 19.677 14.63 39.295 29.34 58.925 44.035 13.301 9.957 26.639 19.867 39.862 29.927 13.36 10.165 26.685 20.381 39.871 30.77 15.84 12.482 33.756 21.015 52.721 27.243 6.91 2.269 14.497 2.751 21.833 3.376 8.738.743 17.584 1.48 26.298.91 10.274-.672 20.636-2.002 30.631-4.413 10.917-2.633 21.67-6.295 32.107-10.477 13.442-5.385 25.723-12.977 36.944-22.245 8.39-6.928 17.022-13.564 25.51-20.375 11.699-9.388 23.34-18.848 35.05-28.224 15.948-12.772 31.96-25.466 47.902-38.248 12.73-10.21 25.384-20.515 38.092-30.753a23261 23261 0 0 1 37.295-29.961c12.855-10.314 25.732-20.601 38.579-30.925 14.008-11.257 27.976-22.563 41.991-33.81 12.98-10.417 26-20.783 39-31.175 9.784-7.82 19.964-15.207 29.217-23.613 7.189-6.531 13.636-14.01 19.636-21.677 5.126-6.55 9.865-13.621 13.456-21.096 3.5-7.285 5.966-15.231 7.728-23.145a247 247 0 0 0 4.847-31.031c.693-7.547-.025-15.24-.358-22.858-.186-4.262-1.113-8.492-1.289-12.754-1.062-25.735-11.565-47.168-28.005-66.71-16.666-19.81-37.581-33.426-60.15-44.816-13.927-7.028-29.12-10.793-44.442-14.027-11.612-2.452-23.238-3.497-34.952-2.74-11.795.763-23.533 2.425-35.288 3.767-5.372.613-10.723 1.406-16.533 2.118"/></svg>