<svg xmlns="http://www.w3.org/2000/svg" viewBox="0 0 1341 685" xml:space="preserve"><path fill="#fff" d="M887.32 557.31c-8.652 7.734-16.924 15.371-25.493 22.659-7.3 6.208-16.512 7.971-25.588 8.666-9.992.765-20.483 1.601-29.734-3.163-8.272-4.26-16.06-9.601-23.613-15.083-13.196-9.575-25.796-19.988-39.195-29.256-4.034-2.79-9.819-3.423-14.93-4.173-4.567-.67-9.366-.598-13.968-.055-13.7 1.616-24.727-4.459-35.26-11.837-15.508-10.865-30.739-22.127-46.303-32.91-4.659-3.229-9.769-6.432-15.146-7.851-7.776-2.053-15.207.897-20.861 6.368-9.579 9.267-8.038 24.254-2.085 31.193 4.096 4.774 9.717 8.288 14.833 12.128 25.954 19.481 51.968 38.882 77.957 58.317 15.695 11.738 31.276 23.633 47.113 35.176 9.169 6.684 18.444 13.32 28.21 19.059 12.66 7.438 26.168 13.032 41.024 14.67 7.335.809 14.602 2.392 21.95 2.877 16.933 1.118 33.39-1.661 49.813-5.918 18.442-4.78 35.948-11.494 51.66-22.186 10.059-6.844 19.417-14.735 28.956-22.323 12.52-9.96 24.897-20.098 37.358-30.132a16675 16675 0 0 1 39.708-31.882c11.451-9.164 22.966-18.25 34.403-27.432 12.216-9.808 24.325-19.748 36.567-29.522 17.647-14.09 35.442-27.994 53.042-42.142 16.451-13.225 32.667-26.742 49.102-39.987 15.653-12.613 31.403-25.109 47.209-37.53 16.555-13.01 32.151-26.857 44.004-44.58 8.704-13.014 13.762-27.242 17.284-42.362 2.088-8.96 3.103-17.834 2.85-26.95-.36-12.985.192-26.071-1.292-38.924-1.106-9.578-4.446-18.976-7.452-28.24-6.031-18.59-19.047-32.527-32.307-46.06-10.227-10.437-22.884-17.719-35.407-25.098-13.16-7.755-27.311-13.004-41.827-17.461-21.734-6.675-44.11-6.16-66.382-5.33-10.072.374-20.053 3.07-30.09 4.621-13.601 2.102-27.24 3.97-40.82 6.207-11.789 1.942-23.524 4.22-35.27 6.418-11.415 2.137-22.836 4.251-34.213 6.58-11.221 2.295-22.374 4.921-33.585 7.265-12.647 2.644-25.325 5.132-37.989 7.692-9.139 1.848-18.27 3.735-27.417 5.548-16.032 3.177-32.096 6.201-48.103 9.502-11.37 2.345-22.636 5.194-34.007 7.535-12.82 2.639-25.725 4.864-38.557 7.448-11.229 2.262-22.399 4.811-33.61 7.161a3352 3352 0 0 1-33.168 6.79c-7.707 1.534-15.458 2.848-23.163 4.392a5424 5424 0 0 0-42.294 8.648c-8.328 1.738-16.617 3.66-24.937 5.438-5.882 1.256-11.787 2.41-18.195 3.714l-4.46-18.784c6.26-1.38 12.25-2.767 18.27-4.016 15.705-3.258 31.407-6.528 47.136-9.66 21.032-4.19 42.1-8.198 63.13-12.394 11.237-2.241 22.42-4.759 33.643-7.071 19.393-3.996 38.8-7.932 58.202-11.887 16.684-3.401 33.37-6.79 50.054-10.194 17.636-3.597 35.27-7.205 52.905-10.806 11.548-2.358 23.094-4.732 34.648-7.065 16.522-3.335 33.053-6.626 49.576-9.959 13.802-2.783 27.568-5.756 41.404-8.356 14.482-2.721 29.02-5.146 43.55-7.606 10.177-1.724 20.328-4.06 30.584-4.757 18.835-1.281 37.863-3.211 56.579-1.801 20.216 1.522 39.941 7.188 58.653 15.793 17.568 8.078 34.447 17.39 49.365 29.573 16.206 13.235 29.512 29.375 40.212 47.392 6.22 10.473 10.154 22.045 12.185 34.09 1.39 8.248 2.335 16.593 3.009 24.932.665 8.247.656 16.545 1.09 24.813.746 14.157-2.223 27.8-5.202 41.504-3.807 17.51-11.424 33.299-21.936 47.512-10.205 13.797-21.675 26.503-35.686 36.866-13.112 9.7-25.448 20.445-38.18 30.662-13.76 11.043-27.594 21.995-41.379 33.008a26265 26265 0 0 0-38.207 30.602c-10.29 8.253-20.549 16.548-30.857 24.78-11.206 8.946-22.475 17.814-33.677 26.767a12916 12916 0 0 0-40.498 32.514c-13.995 11.278-27.935 22.626-41.94 33.895-21.965 17.675-43.454 35.998-66.114 52.735-17.07 12.608-35.94 22.487-57.195 26.827-5.916 1.207-11.592 3.56-17.489 4.898-16.996 3.854-34.164 5.659-51.547 3.01-10.196-1.552-20.583-2.48-30.492-5.147-19.558-5.266-37.608-13.99-53.82-26.364-14.007-10.691-28.255-21.065-42.318-31.682-21.17-15.984-42.267-32.067-63.406-48.093-13.786-10.45-27.368-21.19-41.477-31.188-7.958-5.639-12.527-13.128-13.975-22.185-1.385-8.653-2.44-17.296 1.285-26.264 3.69-8.884 9.32-15.437 16.884-20.6 6.954-4.748 15.1-6.388 23.352-7.057 8.452-.685 16.15 2.739 22.72 7.135 18.748 12.547 36.972 25.882 55.303 39.046 7.826 5.62 16.6 7.463 25.985 7.814 9.049.338 18.294-1.606 27.09 1.966 3.502 1.423 7.305 2.547 10.28 4.743 11.797 8.707 23.257 17.87 34.972 26.69 6.964 5.244 13.644 11.267 21.392 14.976 12.188 5.833 25.057 4.051 37.203-1.18 3.498-1.507 6.357-4.658 9.286-7.302 8.366-7.55 16.645-15.198 24.907-22.863 10.093-9.364 20.123-18.798 30.202-28.177 7.25-6.747 9.516-15.648 8.583-24.778-.693-6.789-3.58-13.483-6.248-19.905-3-7.222-9.348-10.545-16.668-12.68-12.101-3.53-24.038-7.62-36.09-11.323-11.738-3.607-23.543-6.995-35.302-10.536-15.047-4.533-30.075-9.13-45.115-13.685-10.197-3.088-20.407-6.129-30.6-9.229-16.139-4.908-32.258-9.878-48.402-14.768-16.96-5.136-33.943-10.2-50.911-15.311-14.903-4.489-29.797-9.006-44.7-13.496-28.412-8.56-56.813-17.16-85.25-25.632-9.733-2.9-19.429-6.293-29.393-7.935-8.803-1.45-17.982-1.328-26.95-.923-16.074.726-28.902 9.542-42.4 17.233-8.5 4.844-18.593 7.462-28.305 9.434-8.17 1.658-16.834 1.388-25.259 1.18-18.198-.447-34.828-5.6-49.389-17.075-10.47-8.251-21.48-15.812-32.164-23.796-15.57-11.636-31.038-23.407-46.595-35.059-10.678-7.998-21.425-15.903-32.155-23.83a68072 68072 0 0 0-52.092-38.438c-13.52-9.968-27.084-19.876-40.57-29.89-18.783-13.945-37.489-27.997-56.273-41.94-11.63-8.634-23.11-17.501-35.093-25.619-11.18-7.573-18.531-17.786-20.404-30.757-1.82-12.604-1.853-25.544 6.306-36.843 6.883-9.53 16.73-14.197 27.526-17.223 8.658-2.427 17.526-2.539 26.195 0 4.663 1.365 9.584 2.783 13.547 5.436 12.86 8.61 25.331 17.804 37.956 26.768 18.53 13.156 37.03 26.354 55.601 39.452 32.436 22.875 64.813 45.836 97.449 68.422 8.465 5.86 17.578 10.9 26.785 15.544 15.27 7.7 31.213 13.841 47.955 17.587 13.429 3.005 26.659 6.822 40.693 6.86 15.216.04 30.44 1.88 45.639 1.63 11.435-.188 22.932-1.895 34.232-3.89 18.203-3.212 36.268-7.208 54.387-10.894 8.477-1.724 16.944-3.497 25.783-5.324-.774-3.725-1.283-7.151-2.231-10.452-.89-3.099.216-4.24 3.18-4.644 5.04-.685 10.05-1.598 15.672-2.513l9.159 42.58-19.397 4.291-2.528-10.357c-15.326 3.298-30.579 6.723-45.895 9.834-12.829 2.605-25.872 4.273-38.564 7.395-15.137 3.722-30.467 4.353-45.765 3.653-20.063-.918-40.256-1.978-60.036-5.181-18.528-3-36.89-7.953-54.098-15.988-12.829-5.99-26.233-11.185-38.052-18.798-19.922-12.832-38.746-27.362-58.112-41.065-19.227-13.605-38.59-27.017-57.825-40.611-21.651-15.3-43.119-30.864-64.892-45.987-7.632-5.302-15.64-10.258-24.007-14.259-10.411-4.978-20.434-1.117-29.47 4.328-9.677 5.831-9.716 15.706-8.495 25.427 1.511 12.038 10.892 18.07 19.613 24.485 23.472 17.264 47 34.452 70.42 51.789a42207 42207 0 0 1 104.693 77.783c11.491 8.562 22.731 17.462 34.256 25.977 15.493 11.447 31.198 22.604 46.722 34.01 13.41 9.851 26.394 20.32 40.182 29.602 5.391 3.629 12.304 5.717 18.807 6.792 8.105 1.34 16.5 1.112 24.774 1.196 12.677.129 24.277-3.49 34.94-10.425 11.652-7.577 24.097-13.502 37.684-16.78a27 27 0 0 1 4.833-.728c21.447-1.199 42.412.947 62.797 8.25 11.698 4.191 23.63 7.747 35.537 11.325 15.346 4.61 30.802 8.854 46.153 13.445 16.936 5.066 33.793 10.397 50.712 15.519 16.129 4.882 32.306 9.606 48.44 14.469 19.89 5.993 39.75 12.078 59.634 18.085 16.57 5.006 33.19 9.847 49.728 14.96 20.944 6.475 41.797 13.242 62.745 19.701 10.775 3.323 21.814 5.834 32.474 9.473 10.49 3.58 17.888 10.933 23.715 20.537 9.828 16.2 9.267 33.293 5.274 50.553-1.192 5.156-4.85 10.361-8.73 14.166-13.714 13.448-28.012 26.299-42.34 39.625"/></svg>