<svg xmlns="http://www.w3.org/2000/svg" viewBox="0 0 1341 679" xml:space="preserve"><path fill="#fff" d="M875.817 558.776c-5.84 5.172-10.817 11.196-17.181 14.699-6.707 3.69-14.62 6.268-22.224 6.978-9.375.875-18.925 1.088-28.441-2.222-9.629-3.348-17.246-9.248-25.122-15.11-14.26-10.613-28.401-21.404-43-31.533-3.174-2.202-8.033-2.314-12.179-2.691-4.793-.436-9.71-.559-14.48-.015-13.799 1.572-24.583-5.065-35.183-12.313-8.691-5.943-17.31-11.995-25.897-18.089-7.524-5.339-14.81-11.028-22.476-16.152-8.635-5.771-17.578-9.403-27.971-3.379-9.585 5.555-13.003 14.716-11.678 25.547 1.157 9.456 8.17 13.49 14.5 18.243 31.214 23.437 62.586 46.662 93.81 70.084 17.134 12.852 33.694 26.509 51.242 38.756 14.902 10.4 31.674 17.573 49.534 21.347 15.247 3.222 30.873 4.529 46.381 3.05 10.185-.971 20.155-4.133 30.24-6.218 18.393-3.801 35.341-11.179 50.792-21.644 10.071-6.821 19.427-14.708 29.009-22.238 8.555-6.723 16.987-13.602 25.46-20.429 10.388-8.369 20.756-16.762 31.144-25.131 8.47-6.825 16.962-13.622 25.432-20.445 12.068-9.72 24.082-19.505 36.195-29.168 17.646-14.076 35.43-27.979 53.023-42.12 16.454-13.227 32.657-26.766 49.116-39.987 13.738-11.036 27.797-21.674 41.515-32.734 20.14-16.238 40.66-32.074 59.909-49.318 9.777-8.76 17.946-19.567 24.286-31.456 10.043-18.839 15.576-38.778 15.628-60.174.02-7.713.109-15.428-.02-23.139-.236-14.192-2.351-28.112-6.55-41.685-4.41-14.25-12.92-26.18-22.545-37.138-7.492-8.528-15.58-16.877-24.68-23.567-15.114-11.11-31.034-21.294-49.377-26.571-13.295-3.825-26.577-7.894-40.115-10.603-7.422-1.486-15.363-.38-23.07-.439-1-.007-2 .04-3 .02-15.401-.327-30.494 2.042-45.586 4.818-9.83 1.808-19.845 2.59-29.71 4.24-13.4 2.24-26.742 4.838-40.098 7.341-13.334 2.499-26.673 4.977-39.974 7.637-11.074 2.215-22.092 4.704-33.143 7.027-8.005 1.683-16.034 3.25-24.035 4.95-7.183 1.525-14.321 3.27-21.52 4.715-7.704 1.548-15.472 2.78-23.184 4.294-10.904 2.14-21.777 4.44-32.673 6.619-9.143 1.828-18.312 3.522-27.447 5.385-8.326 1.697-16.606 3.618-24.933 5.304-16.192 3.28-32.404 6.464-48.607 9.686-.163.033-.332.035-.494.07-8.187 1.78-8.184 1.78-9.39-6.55-.451-3.12-.923-6.238-1.463-9.884 6.486-1.435 12.802-2.902 19.148-4.223 14.101-2.933 28.205-5.856 42.331-8.668 17.661-3.515 35.358-6.851 53.014-10.386 11.396-2.282 22.738-4.828 34.12-7.173 17.63-3.633 35.277-7.172 52.907-10.797 11.862-2.439 23.686-5.069 35.566-7.416 18.304-3.617 36.633-7.109 54.967-10.568 13.196-2.49 26.393-4.987 39.636-7.206 10.828-1.815 21.779-2.917 32.575-4.883 18.139-3.304 36.443-4.594 54.77-3.753 16.236.746 32.169 4.126 47.625 9.358 4.814 1.63 9.613 3.33 14.335 5.21 20.355 8.1 39.12 19.17 55.765 33.225 11.072 9.348 20.84 20.219 29.218 32.4 7.362 10.703 14.253 21.403 17.558 34.016 2.193 8.368 4.545 16.807 5.493 25.362 1.363 12.302 2.017 24.737 2.066 37.118.078 19.867-3.802 39.055-10.539 57.836-5.914 16.485-15.74 30.183-26.741 43.456-12.284 14.823-27.748 25.854-42.597 37.681-12.64 10.069-25.124 20.333-37.718 30.46-13.75 11.055-27.552 22.045-41.319 33.08a20155 20155 0 0 0-34.306 27.563c-14.258 11.48-28.496 22.986-42.755 34.466a31248 31248 0 0 1-39.315 31.596 53808 53808 0 0 1-41.691 33.409c-11.192 8.962-22.38 17.93-33.591 26.868-9.666 7.706-19.83 14.863-28.937 23.178-13.117 11.976-28.04 21.111-43.953 28.329-12.007 5.446-24.985 8.814-37.641 12.753-17.946 5.586-36.501 5.67-55.012 4.979-18.53-.692-36.269-4.998-53.503-12.094-20.17-8.304-36.89-21.604-53.866-34.73-13.937-10.777-28.272-21.039-42.371-31.608-13.84-10.376-27.59-20.87-41.408-31.277-16.052-12.09-32.402-23.806-48.053-36.392-5.293-4.257-8.556-10.8-9.184-18.088a45 45 0 0 0-.997-6.31c-2.947-12.71 1.597-23.679 9.457-32.836 7.254-8.451 16.923-13.466 28.68-14.317 12.937-.936 23.44 4.125 33.51 11.173 18.888 13.22 37.626 26.67 56.866 39.357 3.882 2.56 9.677 2.602 14.657 3.032 9.393.81 18.961.296 28.205 1.84 5.186.865 10.305 4.155 14.697 7.383 15.528 11.41 30.638 23.387 46.083 34.912 11.61 8.662 24.542 8.899 38.104 5.539 5.76-1.427 10.014-4.77 14.146-8.516 14.604-13.241 29.196-26.496 43.679-39.868 5.652-5.22 11.448-10.392 16.378-16.258 6.16-7.33 6.651-16.604 5.185-25.479-.987-5.973-3.752-11.787-6.466-17.307-3.921-7.975-11.908-10.567-19.665-12.931-23.806-7.255-47.667-14.33-71.52-21.432-17.745-5.282-35.537-10.408-53.259-15.766-17.707-5.354-35.332-10.975-53.03-16.358-15.203-4.624-30.491-8.97-45.682-13.634-17.537-5.385-34.981-11.076-52.52-16.458-11.906-3.654-23.936-6.906-35.856-10.517-14.255-4.32-28.411-8.97-42.687-13.22-15.834-4.714-31.58-9.949-47.693-13.427-12.567-2.712-25.955-3.338-38.238 1.086-10.883 3.919-21.068 9.93-31.267 15.554-10.69 5.894-21.893 9.623-34.092 9.986-7.66.228-15.334-.09-22.997.072-12.367.262-23.92-3.282-34.47-9.018-8.614-4.683-16.262-11.182-24.197-17.067-22.754-16.877-45.445-33.839-68.144-50.79-11.3-8.438-23.093-16.318-33.722-25.535-15.851-13.746-20.207-28.5-13.021-49.301 3.619-10.475 11.442-17.092 21.894-20.997 13.159-4.915 26.265-3.277 39.445-.664 7.545 1.495 15.06 3.143 22.571 4.807 11.118 2.463 15.89 10.064 17.754 20.776.958 5.505 3.01 11.12 5.847 15.931 5 8.479 13.806 8.56 22.42 8.23 7.941-.305 15.898-.432 23.816-1.054 8.513-.669 16.977-1.927 25.482-2.728 6.08-.573 12.225-.537 18.28-1.275 9.439-1.15 18.836-2.66 28.231-4.136 9.705-1.526 19.402-3.111 29.074-4.829 6.932-1.23 13.825-2.69 20.725-4.102 17.632-3.606 35.256-7.251 52.888-10.861 11.705-2.397 23.421-4.739 35.125-7.142a8601 8601 0 0 0 37.962-7.87c12.164-2.554 24.29-5.294 36.478-7.729 17.66-3.528 35.363-6.85 53.046-10.271 3.373-.653 6.828-1.087 10.055-2.184 1.148-.39 2.53-2.52 2.423-3.734-.348-3.937-1.337-7.817-2.194-12.33l19.627-3.84 9.179 47.958-19.457 3.805-3.053-14c-13.709 2.822-27.119 5.642-40.556 8.332-11.378 2.278-22.812 4.281-34.174 6.633-11.374 2.354-22.676 5.055-34.036 7.477-7.521 1.604-15.09 2.98-22.637 4.469-8.978 1.77-17.951 3.566-26.931 5.327-16.534 3.241-33.1 6.328-49.596 9.744-11.039 2.285-21.928 5.304-32.986 7.48-9.482 1.866-19.119 2.933-28.666 4.48-7.591 1.231-15.138 2.735-22.729 3.97-6.794 1.107-13.592 2.354-20.44 2.937a1369 1369 0 0 1-43.455 3.018c-11.426.608-22.882 1.091-34.316.947-11.072-.139-18.637-6.726-25.15-15.08-5.792-7.428-8.155-15.848-9.197-24.967-.195-1.708-2.077-4.323-3.556-4.614-13.487-2.651-27.079-6.906-40.597-6.76-20.493.222-25.837 13.064-20.45 30.554 1.843 5.98 8.938 10.871 14.523 15.079 24.589 18.525 49.526 36.588 74.29 54.882 13.383 9.886 26.379 20.333 40.152 29.634 5.253 3.547 12.043 5.533 18.401 6.552 8.117 1.3 16.505 1.168 24.777 1.174 12.799.01 24.613-3.41 35.372-10.627 11.84-7.942 24.766-14.046 38.663-16.878 8.165-1.665 16.934-.245 25.425-.467 12.341-.324 23.867 3.548 35.473 6.803 12.245 3.434 24.317 7.482 36.478 11.215 14.692 4.51 29.378 9.046 44.108 13.432 12.219 3.64 24.523 6.992 36.741 10.631 10.152 3.025 20.23 6.298 30.349 9.432a6362 6362 0 0 0 27.677 8.504c14.713 4.484 29.413 9.008 44.155 13.392 12.236 3.64 24.55 7.017 36.782 10.67 10.19 3.043 20.306 6.339 30.467 9.48 9.22 2.851 18.467 5.62 27.687 8.472 8.279 2.56 16.52 5.245 24.81 7.765 11.395 3.464 22.859 6.706 34.224 10.265 9.67 3.029 20.153 4.482 28.2 11.1 4.833 3.973 8.979 9.09 12.46 14.337 9.55 14.391 9.612 30.322 6.618 46.67-2.58 14.097-13.176 22.24-22.634 31.238-3.943 3.752-8.307 7.057-12.327 10.732-9.134 8.348-18.174 16.8-27.505 25.467"/></svg>