<svg xmlns="http://www.w3.org/2000/svg" viewBox="0 0 1203 667" xml:space="preserve"><path fill="#fff" d="M944.848 516.797c-9.83 8.09-19.346 16.002-29 23.741-12.343 9.894-24.823 19.614-37.194 29.472-11.862 9.451-23.659 18.985-35.487 28.478s-23.191 19.658-35.612 28.302c-15.116 10.52-31.198 19.551-49.388 24.097-8.092 2.022-15.96 4.967-24.085 6.812-6.85 1.555-13.912 2.848-20.904 2.973a433 433 0 0 1-37.804-.955c-14.848-1.034-28.802-5.787-42.622-11.253-20.004-7.913-36.224-21.438-53.073-34.122-20.656-15.55-41.39-30.995-62.065-46.52-23.448-17.608-47.055-35.015-70.16-53.062-5.351-4.18-8.583-10.784-9.29-18.036-.112-1.143-.184-2.311-.484-3.411-4.927-18.12 5.373-37.26 20.769-45.145 18.472-9.458 34.78-5.119 50.653 6.207 18.762 13.386 37.61 26.673 56.871 39.317 3.727 2.447 9.506 1.988 14.379 2.424 9.355.837 18.869.633 28.06 2.285 5.203.935 10.366 4.067 14.736 7.304 14.958 11.08 29.51 22.706 44.31 34.003 11.575 8.837 24.535 10.095 38.427 7.01 6.423-1.426 11.326-4.817 15.981-9.161 17.673-16.495 34.551-34.03 53.521-48.883 13.664-10.7 13.784-35.348 6.73-47.303-5.229-8.86-12.857-12.78-21.87-15.53-19.273-5.88-38.516-11.861-57.816-17.653-25.11-7.536-50.283-14.863-75.392-22.406-14.423-4.333-28.748-8.996-43.162-13.361-15.355-4.65-30.806-8.987-46.138-13.71-17.537-5.403-34.88-11.466-52.521-16.49-10.177-2.898-20.696-5.15-31.207-6.157-10.654-1.02-15.554 4.35-15.066 15.235.412 9.176 1.355 18.389 2.905 27.44 2.827 16.507-5.847 31.957-22.021 36.646-6.07 1.76-12.658 1.81-19.032 2.42-14.75 1.408-29.494 3.37-44.276 3.753-8.9.231-17.965-1.596-26.77-3.41-6.317-1.3-12.787-3.293-18.358-6.445-7.515-4.251-14.333-9.779-21.273-14.995a9007 9007 0 0 1-57.096-43.253c-9.692-7.406-19.117-15.161-28.816-22.557-19.25-14.68-38.646-29.171-57.91-43.834-19.793-15.065-39.605-30.109-59.195-45.434-7.835-6.13-15.365-12.708-22.557-19.582-9.039-8.638-10.585-20.056-8.995-31.624 1.22-8.87 4.407-17.436 11.577-23.643 7.022-6.078 15.297-9.633 24.487-10.556 17.459-1.754 33.761 4.39 50.407 7.983 25.427 5.488 50.79 11.272 76.172 16.964 15.964 3.58 31.874 7.412 47.883 10.777 11.636 2.445 23.446 4.492 35.372 3.121 10.896-1.252 21.749-3.067 32.526-5.128 17.672-3.38 35.267-7.162 52.896-10.769 11.702-2.394 23.396-4.83 35.112-7.152 12.199-2.419 24.444-4.607 36.625-7.113 12.248-2.52 24.424-5.391 36.663-7.957 12.82-2.687 25.676-5.205 38.52-7.774 8.502-1.7 17.032-3.268 25.49-5.165.983-.221 2.308-2.225 2.221-3.302-.277-3.44-1.145-6.831-1.89-10.81l19.63-3.722 8.193 43.912-19.534 3.742-2.413-11.681c-13.427 2.733-26.844 5.505-40.278 8.19-16.04 3.206-32.113 6.257-48.141 9.526-13.307 2.713-26.554 5.717-39.855 8.462-15.699 3.24-31.435 6.302-47.14 9.51-13.62 2.782-27.253 5.52-40.824 8.528-22.093 4.896-44.284 9.29-67.038 7.313-10.073-.875-20.058-3.114-29.988-5.189-17.776-3.714-35.501-7.675-53.205-11.72-11.958-2.732-23.808-5.938-35.769-8.658-19.768-4.496-39.528-9.065-59.41-13-8.533-1.69-17.295.09-23.715 6.07-5.934 5.526-6.565 13.635-4.814 21.305 1.915 8.387 8.75 13.282 15.11 18.158 21.956 16.835 44.052 33.488 66.086 50.22 17.835 13.544 35.7 27.049 53.475 40.67 22.103 16.939 44.08 34.04 66.201 50.953 13.215 10.104 26.17 20.646 40.09 29.686 6.945 4.51 15.583 7.186 23.824 8.764 16.73 3.205 33.512.18 50.224-1.727 7.025-.802 14.07-1.448 21.118-2.014 11.839-.95 13.211-8.86 11.226-17.633-2.78-12.282-3.076-24.672-2.306-37.005.798-12.771 12.377-22.523 25.136-24.55 17.316-2.753 33.174 2.087 49.162 7.276 8.082 2.623 16.295 4.84 24.428 7.31 12.067 3.662 24.098 7.441 36.175 11.069 15.189 4.562 30.445 8.904 45.606 13.555 17.522 5.376 34.95 11.06 52.464 16.466 11.72 3.618 23.538 6.913 35.274 10.482 14.553 4.425 29.053 9.029 43.602 13.47 10.635 3.247 21.182 6.915 31.996 9.406 20.06 4.621 34.003 16.358 39.297 35.921 4.827 17.836 4.987 36.168-7.576 51.832-3.996 4.981-9.077 9.115-13.803 13.483-5.466 5.05-11.134 9.88-16.634 14.895-12.977 11.83-25.57 24.119-39.045 35.349-4.543 3.786-11.115 5.579-17.063 7.102-5.027 1.287-10.501.754-15.76 1.225-18.462 1.653-32.39-7.61-45.95-18.407-12.876-10.255-26.004-20.241-39.545-29.588-3.896-2.69-9.54-3.327-14.496-3.877a82.5 82.5 0 0 0-17.472-.048c-12.873 1.332-22.385-5.762-32.03-12.285-14.442-9.767-28.497-20.104-42.893-29.942-4.956-3.387-10.199-6.587-15.729-8.853-11.344-4.647-24.532 1.737-28.534 13.497-2.738 8.046-1.083 20.85 8.494 27.609 17.346 12.243 34.145 25.264 51.124 38.025 20.41 15.34 40.779 30.733 61.147 46.128 12.484 9.436 24.5 19.57 37.511 28.21 15.356 10.197 32.12 18.062 50.34 21.645 14.425 2.836 29.189 4.548 43.888 3.023 10.21-1.059 20.264-3.72 30.35-5.844 18.147-3.821 35.36-10.3 50.51-21 14.514-10.248 28.324-21.503 42.316-32.478a4000 4000 0 0 0 43.705-34.806c14.885-12.016 29.601-24.242 44.462-36.287 8.45-6.85 17.08-13.475 25.562-20.285 11.698-9.391 23.296-18.906 35.003-28.284 11.19-8.965 22.504-17.777 33.695-26.741 12.221-9.79 24.326-19.726 36.55-29.513 21.353-17.096 42.809-34.064 64.116-51.217 8.614-6.934 16.962-14.199 25.413-21.334 10.359-8.747 14.294-20.531 16.043-33.462 2.042-15.102-1.014-29.384-6.971-43.076-5.136-11.803-15.364-18.521-26.088-24.73-8.887-5.146-18.624-7.304-28.431-6.857-14.187.646-26.94 6.105-38.261 15.02-15.14 11.92-31.028 22.922-45.793 35.277-11.747 9.83-22.66 20.917-29.277 35.082-3.926 8.408-5.996 17.68-9.89 26.107-4.587 9.928-9.381 19.964-15.622 28.878-11.84 16.915-29.212 26.298-49.236 29.058-14.506 2-29.258.494-43.432-4.774-11.193-4.16-22.762-7.31-34.174-10.878-14.357-4.49-28.716-8.974-43.088-13.416-10.481-3.24-21.003-6.35-31.475-9.618-15.16-4.731-30.318-9.47-45.422-14.375-6.386-2.074-13.176-3.679-18.826-7.085-11.233-6.771-21.44-15.202-24.308-28.95-3.003-14.397-3.544-29.127 3.86-42.371 6.885-12.314 17.715-19.645 32.211-22.02 19.438-3.184 38.94-2.514 58.456-2.879 27.215-.508 54.425-1.289 81.638-1.964 12.86-.319 25.734-.391 38.575-1.076 11.666-.622 23.43-1.148 34.906-3.13 12.866-2.223 24.961-7.428 34.823-16.208 7.415-6.602 13.912-14.245 20.716-21.52 7.874-8.416 15.577-16.993 23.466-25.395 7.496-7.985 15.533-15.5 22.594-23.845 6.102-7.212 9.713-15.792 11.15-25.405 1.702-11.379.027-21.884-5.864-31.67-3.46-5.746-8.678-8.31-15.466-9.24-13.678-1.873-26.805.864-40.103 3.06-16.003 2.643-32.136 4.5-48.128 7.197-15.807 2.666-31.526 5.867-47.252 8.99-19.721 3.917-39.43 7.899-59.108 12.027-17.926 3.761-35.774 7.894-53.71 11.605-15.857 3.28-31.805 6.115-47.68 9.31-18.122 3.649-36.218 7.424-54.302 11.25-13.277 2.809-26.514 5.805-39.782 8.66-1.098.236-2.291.031-3.772.031l-3.965-18.19c7.31-1.529 14.285-3.002 21.265-4.445 13.78-2.849 27.555-5.72 41.346-8.51 17.484-3.535 34.987-6.973 52.472-10.5 11.55-2.332 23.082-4.752 34.624-7.125 17.626-3.625 35.26-7.213 52.878-10.875 12.167-2.529 24.284-5.311 36.478-7.704 18.148-3.56 36.34-6.896 54.52-10.29 13.196-2.462 26.38-4.999 39.613-7.248 10.497-1.784 21.022-3.52 31.602-4.655 10.328-1.108 20.733-1.56 31.116-2.065 17.306-.84 32.639 11.69 38.252 27.49 6.9 19.421 6.615 38.504-2.811 56.94-3.035 5.936-7.193 11.436-11.552 16.523-6.652 7.764-13.925 14.996-20.936 22.453-14.506 15.43-28.533 31.353-43.693 46.111-9.56 9.308-21.653 14.987-34.562 19.326-16.863 5.666-33.999 5.797-51.35 5.848-15.773.046-31.546.571-47.318.952-11.274.272-22.544.755-33.82.965-21.77.407-43.563.247-65.308 1.21-10.735.475-21.43 2.66-32.057 4.559-9.682 1.73-13.943 9.635-15.675 17.82-1.63 7.704-2.184 16.053 1.319 23.866 3.828 8.54 10.62 13.927 19.095 16.784 17.528 5.91 35.236 11.294 52.909 16.766 14.7 4.552 29.483 8.831 44.178 13.399 14.368 4.465 28.615 9.328 43.019 13.675 14.261 4.304 28.425 9.985 43.039 11.823 22.21 2.795 41.083-5.088 54.51-24.166 6.457-9.175 10.234-19.354 14.03-29.744 4.154-11.365 7.635-23.236 15.34-32.917 11.268-14.158 23.983-26.869 38.647-37.61 14.48-10.606 28.66-21.62 43.094-32.289 8.899-6.577 19.452-9.345 29.994-11.719 10.805-2.433 21.523-1.08 32.262 1.532 14.86 3.613 27.536 11.207 38.095 21.694 10.763 10.69 17.67 23.878 19.106 39.468.737 7.997 3.014 15.988 2.742 23.918-.825 24.08-9.262 44.518-29.28 59.677-18.264 13.83-35.611 28.866-53.51 43.187-17.112 13.694-34.495 27.049-51.61 40.741-19.441 15.556-38.682 31.363-58.076 46.979-12.959 10.434-26.032 20.725-39.306 31.336"/></svg>