<svg xmlns="http://www.w3.org/2000/svg" viewBox="0 0 1967 960" xml:space="preserve"><path fill="#fff" d="M1170.659 87.412c9.177 4.225 18.09 8.122 26.942 12.154 12.962 5.904 25.921 11.816 38.804 17.89 10.744 5.064 21.306 10.517 32.074 15.528 21.175 9.853 42.473 19.442 63.654 29.281 24.837 11.539 49.597 23.244 74.404 34.847 20.733 9.698 41.459 19.415 62.24 29.01 19.03 8.788 38.181 17.313 57.182 26.161 16.9 7.87 33.498 16.404 50.536 23.955 18.685 8.28 36.52 17.925 53.072 29.9 16.005 11.58 30.428 24.93 44.384 38.902 16.219 16.239 29.13 34.969 41.949 53.764 11.669 17.111 22.522 34.776 33.951 52.053 10.641 16.085 21.64 31.933 32.35 47.972 12.958 19.403 25.926 38.802 38.62 58.377 15.181 23.407 30.076 46.999 45.097 70.509 10.007 15.66 20.414 31.084 29.874 47.068 5.412 9.145 9.777 19.008 13.678 28.916 2.466 6.262.065 12.93-2.103 19.035-7.354 20.712-28.127 31.71-47.394 30.881-10.451-.45-20.847-2.47-31.238-3.983-12.469-1.815-24.91-3.816-37.355-5.786-11.947-1.89-23.865-3.971-35.83-5.736-12.814-1.89-25.69-3.37-38.5-5.288-11.458-1.715-22.85-3.876-34.298-5.66-7.946-1.239-15.952-2.083-23.908-3.263-12.291-1.824-24.552-3.852-36.846-5.662-8.435-1.241-16.917-2.161-25.352-3.402-11.81-1.737-23.586-3.7-35.393-5.454-12.81-1.904-25.645-3.632-38.457-5.523-11.82-1.745-23.622-3.624-35.437-5.407-8.098-1.222-16.207-2.371-24.308-3.571a3678 3678 0 0 1-21.376-3.213c-7.925-1.222-15.841-2.505-23.766-3.732-12.279-1.901-24.552-3.839-36.845-5.643-8.44-1.24-16.93-2.155-25.362-3.437-12.12-1.844-24.19-4.027-36.319-5.814-12.82-1.89-25.7-3.369-38.522-5.24-13.926-2.032-27.824-4.259-41.718-6.497-8.712-1.403-17.428-2.814-26.08-4.535-7.016-1.395-13.953-3.2-20.9-4.927-7.572-1.881-15.26-3.451-22.637-5.933-10.146-3.414-20.126-7.367-30.034-11.439-10.489-4.31-20.804-9.043-31.204-13.57a117472 117472 0 0 0-77.534-33.722c-6.391-2.777-12.919-5.266-19.191-8.287-14.775-7.118-27.359-16.595-35.656-31.377-4.714-8.4-9.46-16.935-8.546-26.465 1.74-18.143-5.96-32.316-16.392-45.797-3.307-4.273-6.352-8.766-9.863-12.86-10.013-11.676-21.795-20.346-36.49-26.163-20.534-8.129-41.55-6.935-62.49-6.023-13.424.585-26.871 3.665-40.01 6.853-12.733 3.09-21.924 11.361-28.393 22.984-4.972 8.934-8.745 18.128-7.705 28.341.872 8.574 3.175 17 4.793 25.5 2.686 14.11 5.188 28.257 8.027 42.336 3.714 18.42 6.883 36.89 6.082 55.777-.429 10.119-.829 20.263-1.91 30.323-.901 8.395-2.483 16.75-4.343 24.993-.915 4.05-3.01 7.868-4.804 11.681-4.656 9.898-8.882 20.056-14.32 29.511-6.264 10.89-14.777 20.156-24.746 27.895-13.972 10.847-27.598 22.245-42.289 32.032-11.865 7.903-24.971 13.964-39.365 16.536-11.726 2.096-23.385 4.57-35.056 6.965-14.043 2.882-28.02 6.11-42.109 8.734-17.832 3.32-35.777 6.03-53.622 9.29-14.767 2.697-29.429 5.969-44.19 8.698-17.52 3.239-35.112 6.084-52.642 9.266-10.912 1.98-21.77 4.262-32.649 6.422-15.836 3.144-31.648 6.411-47.51 9.422-19.718 3.744-39.468 7.333-59.222 10.89-17.513 3.153-35.065 6.09-52.571 9.278-9.94 1.81-19.8 4.048-29.734 5.883-14.947 2.76-29.942 5.256-44.89 8.013-17.501 3.229-34.974 6.616-52.458 9.936-12.235 2.323-24.068.851-34.361-6.113-6.432-4.352-12.432-9.87-17.26-15.948-8.187-10.309-6.205-22.076-2.174-33.518 4.339-12.317 13.591-20.636 23.406-28.619 13.038-10.602 25.695-21.67 38.574-32.468 20.107-16.857 40.302-33.609 60.383-50.496 11.845-9.962 23.482-20.17 35.322-30.138 13.4-11.28 26.98-22.347 40.374-33.635 11.985-10.102 23.762-20.452 35.743-30.56 13.7-11.56 27.558-22.93 41.28-34.461 11.419-9.596 22.74-19.31 34.105-28.969 2.489-2.115 4.983-4.223 7.83-6.635l-9.017-10.522 15.001-13.15 36.673 41.738-14.997 13.197c-3.205-3.589-6.29-7.041-9.52-10.656-5.805 4.969-11.384 9.905-17.136 14.633-11.186 9.195-22.503 18.23-33.7 27.413-7.37 6.045-14.623 12.232-21.93 18.355-16.267 13.631-32.562 27.23-48.79 40.908-7.572 6.38-14.933 13.011-22.534 19.356-17.093 14.27-34.344 28.35-51.398 42.667-10.538 8.846-20.76 18.069-31.257 26.965-11.533 9.775-23.28 19.297-34.82 29.065-10.332 8.745-20.53 17.646-30.74 26.534-4.55 3.962-9.39 7.707-13.326 12.224-2.521 2.894-3.803 6.95-5.276 10.63-.49 1.227-.153 3.016.327 4.362 2.111 5.922 14.284 13.177 20.57 12.047 16.86-3.032 33.667-6.35 50.522-9.402 12.672-2.294 25.405-4.25 38.077-6.547 10.432-1.892 20.8-4.134 31.22-6.095 14.104-2.654 28.238-5.148 42.346-7.785 14.593-2.727 29.155-5.626 43.76-8.296 18.152-3.32 36.35-6.393 54.497-9.736 14.11-2.6 28.158-5.532 42.261-8.166 17.963-3.355 35.968-6.48 53.926-9.86 9.602-1.809 19.118-4.078 28.719-5.9 11.237-2.134 22.525-4.006 33.79-5.996 11.428-2.018 22.866-3.974 34.277-6.079 14.44-2.664 28.856-5.45 43.282-8.185 13.625-2.584 27.335-4.791 40.853-7.845 19.937-4.505 38.99-11.177 55.029-24.634 9.919-8.323 20.235-16.169 30.243-24.388 12.901-10.595 20.22-25.006 26.372-40.027 3.423-8.357 6.262-16.985 8.81-25.654 1.138-3.877 1.012-8.148 1.292-12.252 1.114-16.334 2.177-32.636-.826-48.946-2.719-14.767-4.67-29.675-7.336-44.453-1.906-10.572-4.676-20.988-6.603-31.556-1.439-7.886-2.55-15.878-3.095-23.871-1.065-15.64 4.6-29.444 12.634-42.468 7.903-12.814 18.334-23.157 32.245-28.88 8.942-3.677 18.638-5.852 28.196-7.618 11.264-2.08 22.715-3.366 34.142-4.28 7.882-.63 15.939.683 23.781-.151 15.387-1.637 29.228 3.621 43.161 8.502 7.952 2.785 15.582 6.49 23.347 9.802.585.25 1.179.592 1.625 1.036 9.887 9.832 21.274 18.204 29.075 30.068 5.816 8.844 12.167 17.363 17.548 26.46 6.793 11.48 10.162 23.874 9.017 37.556-.99 11.838 5.283 21.35 13.683 28.594 6.28 5.415 14.084 9.329 21.688 12.89 15.24 7.139 30.778 13.651 46.251 20.288 18.04 7.737 36.149 15.314 54.214 22.993 13.708 5.827 27.197 12.244 41.161 17.37 9.406 3.454 19.455 5.177 29.243 7.563 10.9 2.656 21.774 5.468 32.767 7.677 7.861 1.579 15.905 2.237 23.858 3.377 6.637.952 13.255 2.044 19.89 3.01 9.403 1.368 18.827 2.588 28.217 4.034 12.278 1.89 24.51 4.082 36.8 5.878 12.817 1.873 25.704 3.276 38.518 5.17 11.796 1.744 23.512 4.037 35.308 5.78 12.977 1.92 26.02 3.395 39.01 5.237 11.657 1.653 23.279 3.562 34.922 5.319 8.251 1.244 16.517 2.39 24.767 3.64 11.808 1.79 23.603 3.661 35.41 5.447 8.094 1.224 16.208 2.306 24.298 3.553 13.571 2.09 27.118 4.345 40.699 6.372 11.17 1.667 22.385 3.042 33.563 4.664 9.066 1.316 18.095 2.884 27.161 4.2 11.503 1.67 23.04 3.103 34.535 4.82 8.565 1.28 17.073 2.948 25.634 4.26 10.838 1.66 21.715 3.071 32.557 4.706 13.444 2.027 26.861 4.227 40.305 6.254 12.96 1.953 25.934 3.806 38.909 5.65 3.576.508 7.21.641 10.762 1.267 10.153 1.788 18.96-2.882 23.305-11.917 2.96-6.156-.909-10.651-3.5-14.939-16.999-28.116-34.196-56.117-51.71-83.915-19.446-30.862-38.97-61.684-59.076-92.117-16.45-24.9-33.976-49.087-50.69-73.816-9.123-13.497-17.036-27.828-26.434-41.119-10.35-14.637-20.325-29.578-33.024-42.512-15.486-15.771-32.186-29.958-50.083-42.89-15.326-11.073-32.798-17.892-49.567-26.102-14.14-6.923-28.5-13.399-42.794-20.002-26.223-12.112-52.508-24.089-78.693-36.28-19.388-9.027-38.621-18.387-57.993-27.449-22.582-10.563-45.264-20.911-67.856-31.452-16.903-7.886-33.683-16.037-50.609-23.875-18.364-8.504-36.869-16.704-55.243-25.186-13.224-6.104-26.11-12.998-39.55-18.565-18.945-7.848-38.52-13.983-58.853-17.164-4.888-.765-9.982-.262-14.982-.256-20.999.023-42.026-.55-62.986.372-11.476.505-22.973 2.992-34.219 5.618-11.501 2.685-22.865 6.192-33.995 10.166-9.222 3.293-17.92 8.024-27.017 11.702-21.683 8.767-38.529 24.39-56.054 39.065-18.663 15.629-37.332 31.25-55.904 46.986-20.61 17.463-41.015 35.166-61.692 52.548-16.545 13.909-33.471 27.364-50.028 41.26-14.76 12.386-29.153 25.207-43.878 37.636-12.872 10.864-26.034 21.385-38.966 32.179-9.353 7.806-18.514 15.844-27.808 23.722-12.672 10.741-25.4 21.416-38.083 32.143-11.259 9.522-22.466 19.105-33.737 28.613-14.475 12.21-29.056 24.293-43.468 36.575-12.803 10.91-25.403 22.057-38.161 33.019-5.802 4.985-11.701 9.865-17.744 14.55-.799.62-3.255.331-4.028-.446-5.506-5.54-10.775-11.316-16.544-17.47 5.465-4.654 10.676-9.128 15.927-13.554 5.854-4.935 11.757-9.813 17.618-14.74 8.816-7.413 17.602-14.862 26.424-22.268 9.82-8.244 19.674-16.449 29.5-24.685 14.27-11.96 28.574-23.879 42.778-35.915 12.088-10.243 23.993-20.701 36.093-30.93 13.94-11.783 28.03-23.389 42.008-35.128 11.096-9.319 22.108-18.738 33.182-28.083 14.613-12.333 29.304-24.575 43.86-36.974 12.696-10.814 25.167-21.891 37.892-32.67 10.841-9.182 21.928-18.074 32.858-27.153 8.553-7.106 17.052-14.277 25.54-21.46 18.173-15.379 36.32-30.788 54.485-46.176 10.305-8.729 20.507-17.585 30.979-26.11 7.24-5.895 14.41-12.094 22.422-16.768 11.033-6.436 22.805-11.612 34.313-17.221 5.096-2.485 10.16-5.196 15.517-6.957 12.938-4.254 25.949-8.35 39.1-11.875 15.1-4.047 30.477-6.38 46.227-6.344 20.113.045 40.232-.9 60.338-.63 17.24.233 34.103 3.39 50.425 9.273 8.687 3.132 17.584 5.68 26.678 8.76"/></svg>