<svg xmlns="http://www.w3.org/2000/svg" viewBox="0 0 2015 773" xml:space="preserve"><path fill="#fff" d="M633.468 704.19c-6.806.713-13.186 1.179-19.548 1.821-15.641 1.58-31.274 3.241-46.91 4.866-.331.035-.667.02-1 .043-10.329.69-20.681 1.145-30.982 2.138-10.392 1.001-20.717 2.689-31.102 3.78-6.233.656-12.536.615-18.79 1.116-15.538 1.247-31.062 2.683-46.603 3.91-3.81.302-7.666-.009-11.494.14-24.626.955-49.291 1.4-73.855 3.208-10.665.786-21.181 1.39-31.368-1.437-10.088-2.8-19.779-7.074-28.127-13.72-9.042-7.195-15.866-16.061-20.69-26.638-5.83-12.782-8.162-26.438-10.994-40.005-1.617-7.75-3.666-15.413-5.206-23.178-1.454-7.334-2.454-14.757-3.734-22.127-1.109-6.38-2.385-12.732-3.488-19.114-1.882-10.882-3.614-21.79-5.55-32.663-1.046-5.868-2.5-11.663-3.562-17.529-1.244-6.863-2.119-13.795-3.443-20.641-.633-3.274-1.445-6.687-3.03-9.567-3.448-6.259-9.016-8.803-15.05-7.618-9.75 1.915-14.334 6.506-16.018 14.955-2.683 13.463-5.824 26.834-8.61 40.278-1.02 4.919-2.433 9.978-2.17 14.893.54 10.033 3.97 19.101 10.262 27.33 7.642 9.996 14.25 20.563 18.873 32.61 6.416 16.711 9.98 33.72 9.488 51.428-.436 15.679-3.567 31-16.074 41.933-5.601 4.896-12.993 7.69-19.326 11.816-8.51 5.544-17.832 9.634-27.617 11.082-10.495 1.552-21.35 1.104-32.028.817-5.946-.16-11.942-1.398-17.759-2.8-14.363-3.458-23.539-13.668-30.81-25.573-4.274-6.998-7.297-14.805-7.091-23.342.287-11.928.539-23.86 1.061-35.78.476-10.867 1.312-21.718 1.951-32.578.69-11.691 1.34-23.385 1.997-35.078.684-12.188 1.187-24.39 2.075-36.563.967-13.265 2.285-26.503 3.493-40.245l-12.52-.636v-20.087l50.67 1.76v19.937h-12.436c-.467 6.418-1.03 12.78-1.374 19.153-.75 13.855-1.324 27.72-2.094 41.573-.548 9.862-1.307 19.712-1.954 29.568-1.013 15.45-2.075 30.897-2.995 46.352-.756 12.689-1.58 25.382-1.92 38.086-.303 11.256 5.067 20.225 14.398 25.717 5.465 3.217 12.412 4.617 18.858 5.329 17.257 1.905 33.298-2.303 48.006-11.571 2.982-1.88 6.496-3.122 9.034-5.454 4.937-4.534 7.348-10.63 7.624-17.26.327-7.819.972-15.795-.167-23.459-1.216-8.185-3.76-16.317-6.81-24.044-3.17-8.026-6.693-16.244-11.797-23.084-5.494-7.36-10.908-14.575-13.66-23.324-3.426-10.887-7.302-21.418-3.812-33.627 4.21-14.731 6.67-30.008 9.177-45.167 1.856-11.215 4.735-21.874 13.3-29.711 6.63-6.067 14.788-9.698 23.998-10.134 4.157-.197 8.334.057 12.498-.047 11.164-.28 19.406 5.55 25.94 13.545 7.97 9.752 9.567 22.007 11.414 34.054 1.201 7.838 3.005 15.581 4.37 23.397 1.62 9.281 2.934 18.616 4.606 27.887 1.984 10.995 4.314 21.928 6.285 32.925 1.12 6.245 1.478 12.638 2.792 18.835 1.796 8.475 4.281 16.803 6.273 25.24 1.696 7.188 2.465 14.658 4.787 21.622 4.845 14.533 13.467 26.073 28.026 32.564 15.278 6.811 31.04 3.834 46.734 3.044 7.925-.4 15.86-.648 23.781-1.111 21.718-1.27 43.431-2.627 65.148-3.93 6.263-.376 12.536-.611 18.795-1.045 18.877-1.308 37.762-2.535 56.62-4.08 13.19-1.082 26.326-2.814 39.513-3.933 21.29-1.806 42.597-3.407 63.905-4.982 19.358-1.431 38.727-2.697 58.09-4.063 13.625-.96 27.246-2 40.872-2.944 19.86-1.377 39.736-2.525 59.58-4.097 17.49-1.386 34.937-3.318 52.42-4.817 10.337-.887 20.715-1.306 31.062-2.107 16.027-1.241 32.038-2.705 48.068-3.92 7.084-.536 14.2-.622 21.295-1.038 10.017-.586 20.062-2.134 30.032-1.732 13.128.53 26.476-.71 39.36 2.783a403 403 0 0 1 27.589 8.561c13.093 4.581 24.847 3.374 35.323-6.386 7.376-6.873 16.145-9.73 26.377-9.408 14.985.47 30.017-.36 44.987.308 11.732.522 23.398 2.502 35.098 3.781 9.606 1.05 19.237 1.887 28.826 3.07 8.538 1.053 17.018 2.573 25.552 3.658 7.478.95 14.994 1.613 22.498 2.347 10.608 1.037 21.26 1.73 31.824 3.101 15.795 2.051 31.538 4.506 47.286 6.9 12.355 1.88 24.661 4.088 37.032 5.848 9.058 1.29 18.203 1.96 27.278 3.146 8.041 1.051 16.026 2.528 24.06 3.64 6.638.92 13.322 1.503 19.967 2.373 10.51 1.376 21.002 2.893 31.509 4.3 6.944.93 13.917 1.659 20.847 2.68 9.48 1.4 18.92 3.066 28.399 4.473 6.456.958 12.962 1.586 19.423 2.516 6.25.9 12.472 1.99 18.704 3.012 8.016 1.314 16.033 2.624 24.044 3.97a3211 3211 0 0 1 19.657 3.383c4.938.86 9.844 1.968 14.811 2.588 14.263 1.78 28.58 3.15 42.819 5.1 13.507 1.848 26.934 4.272 40.41 6.352 6.281.969 12.622 1.569 18.888 2.617 6.19 1.036 12.295 2.581 18.485 3.622 7.547 1.27 15.154 2.185 22.717 3.367 7.525 1.176 15.026 2.499 22.541 3.74a18 18 0 0 0 2.469.222c15.752.37 31.504.92 47.258 1.014 8.93.053 17.986.142 26.76-1.226 8.686-1.355 17.159-4.3 25.6-6.946 11.046-3.463 21.508-8.36 31.125-14.806 6.538-4.383 14.339-7.39 18.477-14.66 1.538-2.703 2.507-5.967 2.844-9.072.859-7.917 4.664-14.612 7.857-21.64 3.162-6.959 9.293-10.056 15.26-13.79 4.391-2.749 7.67-6.456 8.174-12.52 1.26-15.162-5.391-27.898-11.951-40.476-6.93-13.286-14.755-26.138-22.759-38.82-10.067-15.952-20.9-31.42-31.055-47.317-9.995-15.647-19.25-31.771-29.423-47.299-6.257-9.551-13.567-18.419-20.506-27.516-10.9-14.293-21.71-28.66-32.897-42.726-7.745-9.737-16.695-18.559-23.99-28.6-13.857-19.075-31.085-34.912-47.845-51.144-17.554-17-35.912-33.182-54.198-49.408-12.984-11.521-26.153-22.87-39.748-33.655-13.794-10.943-28.182-21.14-42.37-31.581-8.413-6.192-16.737-12.539-25.467-18.257-13.915-9.115-27.926-18.122-42.287-26.506-13.914-8.124-28.1-15.857-42.571-22.933-14.968-7.318-30.426-13.632-45.663-20.4-14.538-6.458-29.015-13.053-43.62-19.357-7.767-3.352-15.52-7.285-23.69-9.016-9.241-1.958-18.979-2.636-28.44-2.274-16.55.632-33.033 3.063-49.583 3.648-14.217.502-24.634-7.12-32.066-18.854-2.042-3.223-3.248-6.97-5.242-10.23-1.113-1.82-2.797-3.86-4.676-4.528-4.94-1.756-10.091-2.986-15.227-4.111a596 596 0 0 0-22.833-4.513c-5.609-1-11.301-1.528-16.906-2.543-5.827-1.055-11.561-2.627-17.394-3.64-7.377-1.279-14.79-2.438-22.23-3.26-13.511-1.494-27.055-2.7-40.586-4.022-.33-.033-.666-.019-1-.028-14.257-.389-28.513-.889-42.773-1.141-21.613-.383-43.233-.945-64.845-.77-18.36.15-36.77.566-55.052 2.112-15.197 1.285-30.225 4.491-45.357 6.634-6.94.983-14 1.157-20.923 2.228-11.535 1.784-22.995 4.049-34.504 6.01-10.064 1.715-20.161 3.232-30.224 4.951-5.757.984-11.48 2.178-17.21 3.317-6.014 1.195-12.055 2.283-18.015 3.703a387 387 0 0 0-20 5.334c-8.11 2.398-16.145 5.056-24.21 7.61-11.904 3.77-23.799 7.566-35.708 11.316-10.29 3.24-20.596 6.428-30.893 9.645-8.577 2.68-17.144 5.393-25.73 8.043-7.677 2.37-15.393 4.615-23.06 7.02-11.758 3.692-23.48 7.502-35.234 11.207-7.304 2.302-14.64 4.505-21.964 6.747-11.486 3.517-22.96 7.076-34.465 10.53-11.818 3.549-23.72 6.832-35.49 10.533-10.679 3.357-21.175 7.299-31.857 10.647-8.589 2.693-17.36 4.799-26.004 7.325-7.665 2.24-15.281 4.652-22.89 7.078-8.063 2.571-16.071 5.316-24.14 7.866-14.512 4.587-29.056 9.073-43.58 13.625-15.28 4.79-30.575 9.536-45.82 14.438-10.358 3.331-20.631 6.927-30.959 10.355-16.61 5.513-33.211 11.057-49.86 16.453-13.46 4.364-26.964 8.6-40.49 12.758-8.463 2.602-17.098 4.672-25.489 7.482-13.368 4.477-26.789 8.905-39.818 14.255-8.537 3.506-14.643 10.393-17.19 19.435-1.268 4.504-.983 9.463-1.263 14.224-.407 6.924-.675 13.856-1.027 20.783-1.005 19.79-1.975 39.58-3.053 59.365-.538 9.866-1.268 19.72-1.94 29.578-.853 12.493-1.737 24.984-2.604 37.43H93.373c.847-12 1.65-23.297 2.436-34.595.114-1.652.106-3.311.212-4.964 1.331-20.706 2.678-41.411 4.003-62.118.085-1.328-.035-2.668.034-3.998.987-18.792.861-37.732 3.312-56.333 2.356-17.89 12.06-32.396 28.544-40.854 8.372-4.296 17.587-6.991 26.506-10.17 10.1-3.601 20.259-7.051 30.462-10.349 10.102-3.265 20.32-6.167 30.435-9.393 13.488-4.302 26.876-8.922 40.4-13.105 10.757-3.327 21.732-5.951 32.463-9.353 10.372-3.287 20.488-7.377 30.837-10.744 16.77-5.456 33.61-10.704 50.479-15.852 8.62-2.63 17.409-4.712 26.043-7.303 8.41-2.525 16.711-5.414 25.078-8.086 7.289-2.328 14.609-4.555 21.904-6.864 12.368-3.915 24.683-8.008 37.105-11.745 10.935-3.29 22.028-6.052 32.972-9.315 8.446-2.518 16.738-5.548 25.154-8.171 10.723-3.343 21.523-6.44 32.252-9.762 11.003-3.407 21.94-7.027 32.948-10.42 5.503-1.696 11.126-2.997 16.642-4.651 6.26-1.877 12.448-3.986 18.689-5.926 6.571-2.042 13.18-3.964 19.75-6.013 7.172-2.237 14.316-4.564 21.474-6.843 11.656-3.712 23.315-7.415 34.972-11.126 8.814-2.805 17.601-5.7 26.447-8.404 10.764-3.29 21.578-6.42 32.37-9.62 8.738-2.59 17.406-5.46 26.236-7.689 8.436-2.13 17.045-3.57 25.57-5.357 5.371-1.126 10.7-2.478 16.096-3.463 7.167-1.309 14.384-2.348 21.576-3.523 6.238-1.019 12.465-2.103 18.708-3.092 8.352-1.325 16.731-2.484 25.066-3.906 6.346-1.083 12.61-2.659 18.968-3.65 4.696-.73 9.49-.804 14.229-1.289C956.6 16.76 969.5 15.75 982.29 13.95c25.14-3.54 50.382-1.474 75.573-1.855 23.66-.358 47.342-.516 70.991.11 13.059.345 26.068 2.502 39.103 3.797 4.09.406 8.211.533 12.291 1.014 10.843 1.28 21.705 2.458 32.495 4.1 11.541 1.756 23.01 3.984 34.507 6.029 9.085 1.616 18.258 2.871 27.225 4.991 13.524 3.197 26.921 6.928 32.533 22.052.999 2.692 2.547 5.188 3.924 7.73 2.947 5.442 8.477 5.934 13.516 5.942 6.667.01 13.645-.171 19.933-2.091 9.74-2.975 19.42-1.967 29.138-1.674 8.342.251 16.858.386 24.937 2.186 9.208 2.052 18.157 5.542 26.964 9.044 10.55 4.195 20.811 9.112 31.236 13.627 11.535 4.998 23.296 9.512 34.63 14.923 18.1 8.641 36.088 17.549 53.825 26.908 15.23 8.037 30.336 16.392 44.952 25.482 13.038 8.11 25.327 17.423 37.953 26.195 11.332 7.872 22.853 15.486 33.954 23.671 9.37 6.91 18.424 14.278 27.324 21.792 14.699 12.411 29.278 24.971 43.687 37.718a1484 1484 0 0 1 35.63 32.588c12.012 11.342 24.235 22.533 35.41 34.67 11.897 12.918 22.671 26.87 33.94 40.369 7.22 8.65 14.715 17.086 21.617 25.982 13.698 17.656 27.638 35.167 40.41 53.483 11.606 16.644 21.762 34.298 32.627 51.463 4.692 7.413 9.617 14.678 14.335 22.075 10.371 16.263 21.005 32.371 30.903 48.919 7.327 12.25 14.184 24.849 20.27 37.754 4.533 9.611 7.367 20.12 7.64 30.817.276 10.905-1.72 21.554-10.539 29.336-4.16 3.672-8.565 7.145-13.207 10.176-5.49 3.584-6.574 9.28-8.005 14.82-1.323 5.13-1.068 11.01-3.546 15.412-3.25 5.77-7.976 11.004-12.989 15.425-13.35 11.776-29.116 19.862-45.516 26.293-14.874 5.834-30.177 11.163-46.39 11.646-17.013.506-34.057.361-51.078.038-9.844-.186-19.7-1.016-29.494-2.069-6.428-.69-12.738-2.415-19.136-3.46-7.687-1.256-15.431-2.162-23.114-3.438-7.824-1.3-15.583-2.984-23.408-4.276-6.426-1.06-12.919-1.708-19.358-2.695-7.36-1.128-14.68-2.517-22.043-3.628-6.134-.926-12.31-1.558-18.455-2.417-10.96-1.532-21.912-3.126-32.864-4.715-11.912-1.729-23.836-3.385-35.725-5.26-6.866-1.083-13.65-2.678-20.51-3.79-9.464-1.536-18.971-2.802-28.451-4.242-10.119-1.536-20.214-3.23-30.344-4.684-6.454-.925-12.968-1.427-19.428-2.315-9.196-1.265-18.362-2.748-27.551-4.064-7.082-1.014-14.178-1.933-21.272-2.86-9.048-1.184-18.101-2.324-27.15-3.5-8.894-1.154-17.794-2.274-26.676-3.513-8.192-1.143-16.36-2.457-24.548-3.633a2131 2131 0 0 0-24.226-3.343c-8.24-1.087-16.493-2.071-24.735-3.133a3029 3029 0 0 1-22.256-2.944c-10.498-1.432-20.987-2.92-31.484-4.353-6.46-.882-12.913-1.855-19.397-2.516-8.321-.85-16.698-1.196-25-2.182-9.86-1.17-19.666-2.782-29.492-4.23-.63-.092-1.215-.572-1.838-.616-10.183-.706-20.364-1.447-30.554-2.027-13.174-.749-26.37-1.166-39.53-2.093-10.893-.768-19.323 3.376-27.588 10.313-10.582 8.88-23.463 13.11-37.308 9.75-14.697-3.568-29.048-8.542-43.652-12.53-4.21-1.149-8.767-1.339-13.173-1.403-12.163-.176-24.368-.659-36.488.095-17.327 1.077-34.59 3.168-51.887 4.763-2.315.214-4.673-.066-6.995.102-17.71 1.28-35.414 2.652-53.126 3.913-6.422.457-12.875.527-19.29 1.057-14.87 1.228-29.726 2.646-44.591 3.938-1.987.172-4.006-.05-5.997.091-18.043 1.281-36.08 2.642-54.126 3.89-6.757.468-13.543.546-20.295 1.07-15.878 1.233-31.732 2.783-47.619 3.885-6.777.47-13.61.144-20.851.346"/></svg>