<svg xmlns="http://www.w3.org/2000/svg" viewBox="0 0 2004 793" xml:space="preserve"><path fill="#fff" d="M210.175 713.172c-4.794 9.469-13.297 14.06-21.724 18.706-3.253 1.793-6.81 3.093-9.89 5.13-9.51 6.296-20.31 8.34-31.267 9.838-16.489 2.255-32.66 1.055-48.343-4.92-11.202-4.267-18.268-13.192-24.579-22.578-4.733-7.04-7.585-15.022-7.375-23.877.254-10.696-.3-21.422.224-32.1 1.052-21.414 2.602-42.805 3.94-64.205.99-15.814 1.874-31.635 2.983-47.44.827-11.795 1.951-23.57 2.907-35.356.12-1.484.016-2.987.016-5.086l-13.508-.733.927-20.125 52.96 2.858-.888 19.84h-13.31c-.437 7.992-.872 15.883-1.297 23.775-.683 12.69-1.307 25.382-2.055 38.068-.57 9.69-1.232 19.377-1.964 29.057-1.277 16.88-3.06 33.733-3.836 50.634-.65 14.158-.687 28.392-.013 42.545.527 11.065 12.854 21.241 24.174 22.72 6.356.831 12.82.93 19.243 1.135 11.705.374 22.16-3.786 32.24-9.21 6.13-3.298 13.258-5.483 16.808-12.003 2.172-3.987 3.61-8.604 4.301-13.104.725-4.722-.079-9.656.21-14.471.793-13.221-2.59-25.695-8.219-37.248-4.837-9.93-11.652-18.891-17.521-28.325-5.159-8.292-7.726-17.522-10.582-26.806-3.279-10.658.075-20.166 1.978-30.109 1.86-9.716 3.233-19.537 5.393-29.183 2.99-13.349 4.709-27.5 16.09-37.084 6.516-5.488 14.176-9.105 22.969-9.457 2.995-.12 6.012.166 8.996-.048 14.286-1.026 24.688 5.605 31.617 17.309 3.445 5.818 5.543 12.693 7.02 19.363 3.362 15.165 6.042 30.484 8.83 45.77 1.023 5.607 1.526 11.306 2.349 16.95.607 4.163 1.226 8.33 2.055 12.452 2.23 11.103 4.615 22.175 6.865 33.274 2.4 11.84 4.178 23.838 7.228 35.506 2.736 10.47 4.319 21.32 10.404 30.872 5.294 8.311 12.207 14.325 20.931 18.23 5.072 2.27 10.563 3.822 16.022 4.923 3.076.62 6.464-.449 9.718-.557 21.853-.724 43.712-1.29 65.56-2.128 10.863-.416 21.713-1.248 32.562-1.982 13.79-.932 27.58-1.862 41.357-2.966 15.378-1.232 30.761-2.453 46.103-4.054 16.713-1.745 33.37-4.027 50.075-5.85 6.224-.68 12.53-.584 18.778-1.089 15.37-1.243 30.721-2.734 46.097-3.901 5.138-.39 10.351.208 15.49-.176 15.388-1.148 30.752-2.608 46.134-3.842 6.086-.488 12.203-.583 18.29-1.064 16.035-1.268 32.061-2.65 48.092-3.982.497-.042 1-.015 1.5-.038 14.673-.674 29.372-1.017 44.014-2.115 16.836-1.262 33.622-3.193 50.43-4.832.165-.016.333-.004.5-.012 14.335-.687 28.688-1.128 43-2.133 14.058-.987 28.075-2.548 42.11-3.849a17 17 0 0 1 2-.051c18.854.475 37.853-1.875 56.52 2.09 8.467 1.797 16.629 4.996 25.006 7.276 5.43 1.478 10.96 2.714 16.52 3.575 8.95 1.384 16.116-2.482 22.587-8.28 7.242-6.49 15.56-10.198 25.577-9.751 6.986.312 14 .21 20.995.03 21.316-.547 42.439 1.676 63.556 4.127 9.12 1.059 18.283 1.78 27.387 2.963 14.18 1.842 28.307 4.118 42.497 5.88 10.402 1.293 20.888 1.892 31.3 3.11 7.564.884 15.058 2.342 22.601 3.421 8.713 1.246 17.454 2.3 26.167 3.543 8.036 1.147 16.05 2.448 24.077 3.656 5.31.799 10.612 1.668 15.942 2.3 9.256 1.098 18.55 1.883 27.79 3.09 7.876 1.028 15.684 2.56 23.549 3.687 6.3.904 12.644 1.487 18.958 2.298 10.364 1.33 20.725 2.68 31.074 4.118 6.105.849 12.175 1.944 18.276 2.824a3910 3910 0 0 0 30.91 4.31c6.94.943 13.903 1.725 20.835 2.726 6.248.902 12.473 1.978 18.7 3.024 7.682 1.291 15.353 2.645 23.033 3.946 6.87 1.164 13.745 2.288 20.616 3.44 5.116.857 10.217 1.81 15.345 2.58 11.259 1.692 22.513 3.43 33.804 4.888 7.295.942 14.686 1.167 21.97 2.172 8.662 1.195 17.246 2.95 25.884 4.333 6.105.976 12.263 1.621 18.362 2.624 6.684 1.1 13.316 2.509 19.993 3.658 6.886 1.186 13.796 2.24 20.702 3.317 8.17 1.276 16.345 2.522 24.521 3.76.978.147 1.978.15 2.966.24 7.161.654 14.312 1.503 21.487 1.886 3.425.183 6.917-.919 10.343-.745 13.84.704 27.732.68 41.367-1.382 9.573-1.448 18.939-4.786 28.14-8.012 7.646-2.681 14.96-6.334 22.344-9.725 11.24-5.161 20.32-13.3 29.17-21.688 6.681-6.332 12.768-13.106 17.429-21.209 4.97-8.64 10.175-17.045 12.407-26.961 2.42-10.755-1.285-19.513-9.916-26.366-5.195-4.125-10.245-9.295-13.191-15.097-2.088-4.111-1.846-10.507-.286-15.08 1.777-5.21.848-9.031-1.694-13.082-6.57-10.47-13.173-20.92-19.872-31.31-6.69-10.373-13.715-20.534-20.225-31.018-9.85-15.864-19.02-32.16-29.183-47.818-6.042-9.309-13.412-17.758-20.217-26.569-10.415-13.485-20.65-27.116-31.344-40.377-11.625-14.416-23.298-28.831-35.665-42.604-13.163-14.659-26.658-29.095-40.92-42.67-19.527-18.585-39.834-36.356-59.97-54.292a536 536 0 0 0-25.855-21.633c-17.008-13.328-33.996-26.708-51.474-39.404-12.652-9.19-25.973-17.483-39.194-25.863-13.374-8.476-26.705-17.09-40.576-24.692-17.101-9.373-34.616-18.023-52.198-26.474-9.415-4.526-19.4-7.849-29.03-11.946-11.766-5.007-23.296-10.587-35.175-15.295-9.366-3.711-19.022-6.767-28.7-9.595-15.435-4.51-30.93-3.406-46.533-.202-11.589 2.38-23.705 2.592-35.14.692-10.225-1.7-18.892-8.337-23.918-18.3-1.667-3.304-3.134-6.73-5.063-9.873-1.037-1.689-2.622-3.585-4.373-4.188-4.983-1.716-10.144-2.964-15.297-4.123-7.253-1.631-14.535-3.16-21.853-4.462-5.93-1.055-11.935-1.684-17.899-2.557-4.46-.653-8.936-1.252-13.354-2.13-5.865-1.168-11.632-2.899-17.53-3.82-8.227-1.283-16.515-2.374-24.818-2.95-13.818-.956-27.786-.537-41.482-2.308-28.337-3.664-56.709-1.263-85.049-1.614-20.843-.258-41.733.74-62.552 2-11.153.676-22.19 3.157-33.298 4.69-6.154.848-12.377 1.221-18.513 2.172-6.364.985-12.636 2.564-18.993 3.602-7.712 1.258-15.504 2.034-23.202 3.36-10.524 1.811-20.977 4.031-31.49 5.912-10.056 1.8-20.236 2.997-30.204 5.177-10.662 2.333-21.138 5.512-31.698 8.308-5.878 1.556-11.811 2.928-17.633 4.671-5.997 1.797-11.867 4.016-17.834 5.921-8.538 2.726-17.114 5.333-25.673 7.994-7.95 2.472-15.91 4.91-23.844 7.43-10.975 3.487-21.923 7.058-32.895 10.554-8.548 2.722-17.097 5.439-25.678 8.054-5.772 1.76-11.61 3.301-17.397 5.011-3.22.951-6.38 2.102-9.595 3.067-6.708 2.012-13.488 3.797-20.141 5.975-8.337 2.73-16.54 5.864-24.868 8.623-5.78 1.915-11.68 3.467-17.515 5.226-8.434 2.541-16.855 5.127-25.283 7.687-11.366 3.452-22.747 6.852-34.094 10.362-8.873 2.746-17.673 5.732-26.564 8.415-7.788 2.35-15.7 4.288-23.479 6.667-6.238 1.909-12.333 4.28-18.536 6.311-5.967 1.956-11.977 3.783-17.991 5.589-9.04 2.714-18.144 5.216-27.139 8.07-12.19 3.867-24.322 7.928-36.444 12.008-8.338 2.807-16.54 6.043-24.945 8.62-8.927 2.736-18.08 4.727-27.027 7.405-7.214 2.159-14.273 4.839-21.391 7.317-8.143 2.835-16.225 5.854-24.425 8.513-7.64 2.477-15.43 4.484-23.097 6.883-11.646 3.645-23.223 7.513-34.867 11.166-9.945 3.12-20.176 5.478-29.85 9.27-8.904 3.49-17.412 8.127-25.76 12.85-6.288 3.559-8.565 10.114-9.04 16.895-.982 13.998-1.392 28.034-2.155 42.048-.564 10.36-1.346 20.708-1.974 31.066-1.027 16.956-1.91 33.922-3.044 50.872-.714 10.666-1.773 21.309-2.73 32.58-8.216-.41-16.915-.846-25.61-1.282.179-2.763.364-4.987.46-7.214.724-16.871 1.36-33.746 2.17-50.613.53-11.042 1.285-22.074 1.978-33.109.981-15.635 1.853-31.279 3.056-46.897.692-8.977 1.04-18.127 3.122-26.82 5.048-21.088 19.01-34.376 39.195-41.437 10.145-3.55 20.27-7.178 30.517-10.414 12.9-4.073 25.95-7.673 38.873-11.68 12.646-3.92 25.208-8.116 37.819-12.153 10.306-3.3 20.633-6.535 30.947-9.812 7.848-2.494 15.66-5.108 23.542-7.488 11.921-3.601 23.957-6.833 35.822-10.606 17.829-5.67 35.497-11.848 53.341-17.468 11.065-3.486 22.398-6.117 33.484-9.54 10.76-3.323 21.288-7.393 32.043-10.733 15.753-4.893 31.629-9.393 47.432-14.127 19.979-5.984 39.967-11.939 59.894-18.09 13.11-4.048 26.081-8.55 39.187-12.614 13.7-4.249 27.53-8.087 41.226-12.347 12.926-4.021 25.712-8.493 38.637-12.514 10.794-3.357 21.743-6.216 32.547-9.543 10.317-3.176 20.491-6.817 30.807-9.996 18.548-5.718 37.068-11.563 55.771-16.731 11.38-3.145 23.04-5.351 34.654-7.556 9.764-1.853 19.644-3.091 29.471-4.608 13.058-2.016 26.114-4.04 39.172-6.056 8.847-1.366 17.686-2.794 26.547-4.065 9.547-1.369 19.128-2.495 28.67-3.891 19.374-2.833 38.856-3.387 58.393-3.094 6.543.098 13.09.102 19.633 0 14.776-.232 29.552-.81 44.326-.777 16.998.038 34.023.074 50.983 1.051 17.526 1.01 35.041 2.72 52.46 4.92 16.797 2.12 33.577 4.705 50.16 8.092 18.688 3.817 38.478 4.162 55.378 14.1 5.317 3.126 9.454 9.411 12.418 15.137 5.76 11.128 4.8 12.47 18.931 12.407 7.75-.035 15.49-2.017 23.232-3.148.795-.116 1.566-.624 2.342-.609 14.348.272 28.643-.527 42.995 2.292 13.376 2.626 25.545 7.811 37.861 13.12 13.448 5.796 27.262 10.746 40.671 16.625a1145 1145 0 0 1 46.309 21.533c15.163 7.472 30.27 15.128 44.94 23.512 12.104 6.918 23.655 14.838 35.237 22.632 20.758 13.97 41.56 27.892 61.933 42.41 10.263 7.313 19.787 15.703 29.363 23.934 20.644 17.747 41.4 35.382 61.545 53.686 15.123 13.742 29.197 28.63 44.04 42.69 16.516 15.648 30.269 33.608 44.347 51.34 9.529 12.001 19.621 23.554 29.252 35.477 5.114 6.332 9.774 13.03 14.65 19.555 6.933 9.275 14.429 18.186 20.693 27.892 10.728 16.624 20.564 33.821 31.018 50.627 6.253 10.054 13.069 19.756 19.45 29.733 7.946 12.424 15.917 24.842 23.447 37.517 3.352 5.641 2.735 12.332 1.646 18.472-.824 4.65-.98 7.67 3.49 10.858 5.73 4.085 11.212 8.975 15.438 14.551 2.947 3.888 4.603 9.411 5.096 14.377 1.462 14.702-.054 29.25-7.065 42.517-6.701 12.682-14.754 24.458-24.591 35.1-12.098 13.085-25.398 24.495-41.188 32.75-8.557 4.473-17.197 9.223-26.36 12.001-13.905 4.217-27.75 9.288-42.61 9.547-13.767.24-27.546 1.177-41.29.772-10.267-.302-20.5-2.158-30.725-3.494-12.627-1.65-25.256-3.313-37.836-5.278-10.75-1.68-21.411-3.922-32.151-5.677-7.918-1.293-15.913-2.107-23.847-3.31-7.39-1.12-14.732-2.564-22.122-3.69-5.98-.91-12.005-1.523-18-2.333a9151 9151 0 0 1-34.018-4.67c-10.348-1.438-20.707-2.802-31.032-4.391-7.565-1.165-15.064-2.746-22.622-3.956-12.874-2.062-25.775-3.953-38.658-5.962-12.406-1.934-24.777-4.103-37.21-5.845-13.609-1.907-27.275-3.408-40.907-5.155-7.95-1.019-15.888-2.133-23.82-3.282-5.803-.84-11.567-1.976-17.384-2.68-9.446-1.143-18.947-1.851-28.377-3.103-7.08-.94-14.067-2.563-21.13-3.662-5.973-.93-12.003-1.484-17.993-2.309-11.494-1.583-22.96-3.379-34.471-4.828-12.339-1.553-24.724-2.734-37.071-4.217-10.89-1.307-21.752-2.827-32.632-4.215-7.306-.932-14.62-1.795-21.931-2.693-11.687-1.436-23.366-2.937-35.063-4.288-6.202-.716-12.424-1.376-18.656-1.705-15.197-.803-30.442-.952-45.597-2.216-12.65-1.055-22.614 3.182-32.145 11.226-7.719 6.514-17.218 9.255-27.838 9.201-11.412-.057-21.668-3.817-32.294-6.805-14.397-4.048-28.51-9.251-44.082-7.685-10.276 1.033-20.764-.241-31.106.373-14.086.837-28.122 2.517-42.186 3.767-2.484.221-5.005-.008-7.494.177-16.911 1.255-33.818 2.574-50.728 3.852-5.102.385-10.213.654-15.313 1.06-16.23 1.29-32.452 2.68-48.687 3.905-6.762.51-13.557.576-20.32 1.067-17.413 1.265-34.808 2.8-52.228 3.949-14.015.924-28.073 1.222-42.084 2.197-14.75 1.026-29.462 2.581-44.2 3.793-6.096.501-12.232.534-18.321 1.088-13.235 1.204-26.447 2.663-39.679 3.91-8.68.818-17.388 1.358-26.068 2.185-12.58 1.199-25.145 2.57-37.722 3.814-4.428.439-8.871.735-13.31 1.075-17.398 1.33-34.793 2.708-52.198 3.95-6.93.496-13.881.72-20.826 1.005-10.096.416-20.197.734-30.293 1.169-14.048.605-28.185.498-42.11 2.156-12.669 1.507-24.08-1.002-35.74-5.408-14.114-5.334-25.724-13.787-34.03-26.057-4.486-6.627-7.538-14.481-9.967-22.182-3.446-10.927-5.965-22.17-8.418-33.378-1.942-8.872-3.209-17.893-4.741-26.854-1.043-6.094-1.956-12.212-3.052-18.297-1.93-10.716-3.967-21.413-5.936-32.123a2144 2144 0 0 1-3.362-18.73c-1.906-10.909-3.7-21.838-5.707-32.728-.668-3.626-1.412-7.347-2.874-10.695-3.002-6.873-8.817-8.927-15.872-7.783-6.35 1.029-11.98 3.095-13.545 10.496-1.875 8.867-3.977 17.686-5.863 26.551-1.758 8.261-2.827 16.71-5.171 24.795-2.82 9.723.057 18.476 4.263 26.514 4.74 9.061 11.98 16.82 16.675 25.9s7.121 19.304 11.388 28.64c6.182 13.529 4.55 27.73 4.833 41.807.203 10.117-2.384 19.522-7.717 28.541"/></svg>