<svg xmlns="http://www.w3.org/2000/svg" viewBox="0 0 1992 1060" xml:space="preserve"><path fill="#fff" d="M524.073 991.016c15.156.051 29.825-.059 44.488.186 34.041.566 68.08 1.281 102.12 1.983 12.6.26 25.198.876 37.8.947 66.936.38 133.875.975 200.809.655 13.566-.065 27.253-3.098 40.635-5.938 15.428-3.273 30.761-7.79 44.277-16.076 11.414-6.999 21.48-16.014 25.35-29.747.963-3.421 1.361-7.099 1.402-10.666q.26-22.748.117-45.497c-.122-19.576 3.792-38.172 12.998-55.539 7.663-14.456 14.717-29.292 23.308-43.176 4.95-7.999 12.415-14.442 18.754-21.58.442-.497 1.103-.862 1.389-1.426 4.497-8.871 13.625-11.082 21.693-14.294 3.3-1.314 7.994-.248 11.725.85 13.185 3.879 21.925 14.216 31.886 22.766 13.284 11.4 26.654 22.7 39.952 34.082 7.63 6.533 15.211 13.125 22.783 19.726a30507 30507 0 0 1 47.783 41.737c11.144 9.756 22.158 19.662 33.393 29.312 12.39 10.64 25.038 20.977 37.434 31.61 9.003 7.723 17.762 15.731 26.661 23.578 11.246 9.914 22.063 20.402 34.005 29.394 4.962 3.736 12.226 5.232 18.66 6.057 34.09 4.37 68.378 1.533 102.58 2.038 17.092.253 34.2-.751 51.302-.78 82.53-.144 165.06-.15 247.589-.201 14.534-.01 29.07.1 43.603-.038 9.99-.095 19.974-.678 29.964-.767 15.55-.138 31.102.044 46.65-.105 3.894-.038 7.844-.547 11.635-1.419 1.298-.298 3.31-2.767 3.033-3.546-.586-1.646-2.233-3.549-3.857-4.076-5.204-1.691-10.569-2.923-15.92-4.113-9.523-2.117-19.091-4.033-28.624-6.11a4370 4370 0 0 1-35.634-7.901c-15.812-3.584-31.578-7.37-47.415-10.839-17.766-3.89-35.62-7.381-53.378-11.312-15.198-3.365-30.274-7.278-45.474-10.63-15.076-3.323-30.28-6.069-45.356-9.392-19.344-4.263-38.597-8.936-57.926-13.27-14.901-3.34-29.884-6.316-44.783-9.666-11.855-2.666-23.618-5.739-35.458-8.473-14.088-3.254-28.266-6.131-42.308-9.568-9.903-2.424-19.657-5.463-29.454-8.31-9.623-2.796-19.266-5.541-28.81-8.592-9.854-3.149-19.699-6.374-29.363-10.05-10.112-3.848-20.062-8.14-29.975-12.482-9.033-3.957-17.829-8.46-26.893-12.339-23.389-10.01-46.082-21.287-67.59-34.96-16.16-10.273-33.062-19.416-48.895-30.151-20.625-13.983-40.823-28.646-60.63-43.77-14.915-11.39-29.204-23.652-43.26-36.104-12.891-11.42-25.27-23.438-37.551-35.521-10.527-10.359-20.952-20.865-30.781-31.878-13.564-15.198-26.658-30.824-39.707-46.471-11.967-14.35-24.063-28.632-35.264-43.572-10.978-14.643-21.198-29.883-31.207-45.216-12.071-18.491-23.879-37.171-35.219-56.118-9.413-15.726-18.26-31.81-26.856-48-10.992-20.702-21.649-41.587-32.131-62.553-7.661-15.323-15.296-30.694-22.018-46.438-4.81-11.264-8.166-23.157-12.026-34.818-2.082-6.29-4.68-12.57-5.576-19.056-1.22-8.836-.51-17.93-1.588-26.795-1.3-10.687 3.25-19.345 8.18-27.946 9.829-17.147 20.557-33.817 29.576-51.372 4.109-7.999 5.063-17.625 7.392-26.528.739-2.825 1.648-5.67 1.87-8.553.731-9.455-.696-18.608-5.818-26.722-1.134-1.797-4.259-3.633-6.218-3.396-10.185 1.23-20.35 2.827-30.408 4.86-15.271 3.086-30.467 6.556-45.66 10.02-8.67 1.978-17.245 4.375-25.91 6.38-7.264 1.682-14.599 3.053-21.894 4.595a935 935 0 0 0-14.764 3.225c-15.64 3.571-31.288 7.108-46.902 10.787-11.508 2.712-22.947 5.714-34.454 8.428-13.883 3.275-27.846 6.21-41.697 9.61-13.674 3.357-27.212 7.272-40.884 10.638-10.705 2.635-21.54 4.74-32.29 7.2-11.988 2.746-23.933 5.677-35.92 8.43-7.258 1.666-14.646 2.828-21.822 4.78-13.233 3.602-26.27 7.94-39.545 11.37-12.508 3.232-25.294 5.387-37.809 8.595-8.223 2.107-16.241 5.082-24.247 7.956-11.741 4.215-23.717 7.983-34.995 13.227-14.628 6.802-28.958 14.37-42.89 22.51-18.023 10.531-35.537 21.935-53.252 32.993a13211 13211 0 0 0-46.649 29.233c-4.205 2.65-5.699 6.596-6.143 11.567-1.284 14.362-3.086 28.678-4.662 43.014-.77 7.005-1.405 14.025-2.253 21.02-1.061 8.757-2.265 17.497-3.433 26.241-1.146 8.587-2.345 17.167-3.482 25.755-1.331 10.046-2.687 20.09-3.909 30.15-1.127 9.283-2.038 18.592-3.144 27.878-.988 8.29-2.08 16.567-3.186 24.842-1.212 9.077-2.495 18.144-3.741 27.217-1.267 9.224-2.618 18.438-3.762 27.678-1.19 9.606-2.128 19.244-3.267 28.857-.77 6.497-1.696 12.975-2.637 20.1l-26.076-3.159c.309-3.772.434-7.18.89-10.542 1.926-14.225 4.098-28.418 5.89-42.659 1.272-10.097 1.921-20.272 3.149-30.376.962-7.916 2.47-15.763 3.576-23.663.908-6.483 1.597-12.996 2.353-19.5 1.382-11.881 2.682-23.773 4.133-35.646.83-6.792 1.942-13.55 2.834-20.336 1.684-12.796 3.417-25.587 4.913-38.405 1.52-13.025 2.632-26.097 4.196-39.116 1.384-11.511 3.167-22.974 4.73-34.464.768-5.65 1.504-11.305 2.137-16.97 1.067-9.55 6.309-16.113 14.298-21.02 11.331-6.96 22.415-14.322 33.776-21.232 18.371-11.175 36.918-22.063 55.32-33.187 11.573-6.995 22.805-14.58 34.587-21.192 9.661-5.422 19.674-10.388 29.955-14.495 14.822-5.921 29.862-11.419 45.116-16.096 14.333-4.395 29.065-7.487 43.62-11.16 10.514-2.653 21.014-5.367 31.543-7.964 11.003-2.715 22.035-5.313 33.05-7.981 10.848-2.628 21.676-5.337 32.537-7.905 14.491-3.426 29.019-6.695 43.505-10.14 7.375-1.753 14.666-3.859 22.043-5.6 10.87-2.567 21.798-4.893 32.675-7.431 7.411-1.73 14.757-3.74 22.17-5.463 12.465-2.898 24.973-5.61 37.437-8.51 10.091-2.346 20.147-4.848 30.216-7.288 11.798-2.86 23.566-5.847 35.399-8.557 12.75-2.92 25.564-5.563 38.343-8.362 17.873-3.916 35.701-8.049 53.622-11.73 11.294-2.32 22.677-5.081 34.106-5.547 7.22-.294 14.73 1.232 21.334 7.081 8.999 7.971 12.386 17.671 15.519 28.586 4.055 14.125 1.053 27.105-1.815 40.772-1.747 8.327-3.284 16.56-7.164 24.03-5.341 10.28-11.407 20.186-17.16 30.253-5.051 8.836-10.045 17.705-15.16 26.504-8.83 15.193-5.055 30.653-.65 45.913 3.438 11.908 7.505 23.66 11.866 35.265 2.713 7.221 6.447 14.063 9.802 21.037 9.78 20.33 19.258 40.813 29.51 60.902 8.426 16.508 17.68 32.6 26.771 48.76 7.744 13.767 15.417 27.595 23.768 40.992 14.01 22.476 28.148 44.894 42.99 66.823 8.945 13.216 19.088 25.65 29.117 38.093 12.91 16.017 26.008 31.896 39.476 47.444 9.639 11.127 19.974 21.653 30.08 32.37 11.64 12.345 23.1 24.88 35.156 36.807 7.859 7.774 16.498 14.788 25.043 21.833 14.952 12.329 29.871 24.718 45.237 36.518 12.94 9.937 26.202 19.522 39.845 28.463 23.062 15.113 46.23 30.113 69.954 44.145 14.087 8.332 29.268 14.837 44.06 21.948 14.797 7.113 29.48 14.553 44.662 20.746 14.31 5.837 29.18 10.318 43.855 15.238 9.646 3.233 19.306 6.467 29.1 9.202 16.042 4.48 32.197 8.558 48.307 12.795 11.272 2.965 22.48 6.217 33.84 8.79 14.87 3.367 29.884 6.084 44.793 9.281 12.046 2.584 24.01 5.548 36.044 8.19 15.199 3.336 30.447 6.446 45.644 9.791 8.376 1.845 16.662 4.098 25.037 5.946 15.513 3.424 31.063 6.675 46.594 10.02 6.655 1.433 13.291 2.95 19.948 4.374 10.465 2.237 20.97 4.294 31.4 6.677 8.66 1.98 17.215 4.42 25.861 6.465 6.931 1.639 13.931 2.982 20.898 4.47q13.094 2.797 26.184 5.616c12.97 2.794 25.952 5.537 38.904 8.413 11.075 2.458 22.112 5.09 33.174 7.605 3.314.753 6.815.954 9.961 2.127 10.135 3.779 15.94 11.802 19.721 21.463 5.115 13.068-2.117 27.247-14.474 33.965-9.747 5.3-19.453 5.728-29.793 5.722-86.33-.054-172.662-.04-258.993.05-12.107.012-24.213.736-36.32.77-9.304.028-18.611-.793-27.914-.744-28.107.148-56.211.657-84.318.798-30.498.154-61.001.312-91.496-.076-10.801-.138-21.785-.924-32.316-3.156-10.706-2.269-20.197-7.6-28.61-15.312-15.545-14.25-31.982-27.522-47.93-41.338-11.83-10.247-23.378-20.819-35.222-31.048-14.826-12.802-29.901-25.315-44.726-38.118-10.01-8.645-19.67-17.696-29.675-26.347-12.784-11.056-25.842-21.795-38.623-32.853-9.964-8.621-19.619-17.598-29.537-26.273-9.017-7.888-18.239-15.543-27.297-23.385-3.078-2.664-5.98-2.494-8.55.354-10.28 11.396-20.966 22.188-28.776 35.916-6.63 11.653-12.45 23.642-18.41 35.575-2.186 4.377-2.857 9.581-3.81 14.488-2.266 11.681-2.143 23.4-1.523 35.312.752 14.416-.092 28.942-.823 43.39-.193 3.825-2.187 7.694-3.904 11.28-6.005 12.546-13.74 23.55-25.297 32.001-11.384 8.325-23.492 14.961-36.8 19.163-16.214 5.12-32.673 9.175-49.593 11.784-18.947 2.922-37.868 2.676-56.853 2.69-45.833.036-91.665.1-137.497-.03-15.79-.046-31.578-.68-47.369-.97-20.284-.373-40.57-.655-60.855-1.006-18.77-.324-37.54-.597-56.307-1.054-22.209-.541-44.423-1.045-66.613-2.048-5.393-.244-10.64-2.861-16.06-3.55-15.057-1.916-26.866-10.925-39.452-17.967-18.474-10.335-32.045-26.11-41.75-44.53-7.613-14.447-13.889-29.726-16.363-46.257-2.232-14.917-5.425-29.69-7.756-44.594-1.467-9.38-2.049-18.896-3.17-28.334-1.156-9.731-2.624-19.426-3.687-29.167-.678-6.215-.663-12.506-1.316-18.725-1.881-17.926-4.003-35.827-5.913-53.751-1.13-10.598-1.941-21.23-3.069-31.828-1.907-17.922-3.99-35.825-5.918-53.745-.808-7.508-1.082-15.085-2.165-22.549-2.426-16.736-11.257-34.34-33.506-36.84-19.255-2.163-35.157 5.721-43.438 26.704-4.363 11.056-8.955 22.057-12.573 33.361-5.271 16.465-9.846 33.155-14.529 49.803-1.617 5.75-3.55 11.627-3.754 17.501-.236 6.807.304 13.967 2.265 20.442 2.593 8.557 6.23 16.97 10.615 24.772 6.346 11.29 13.912 21.89 20.682 32.952 5.812 9.497 10.474 19.438 13.412 30.372 3.509 13.059 5.995 26.068 5.868 39.626-.081 8.6.609 17.206.89 25.81.343 10.455 1.07 20.923.806 31.364-.293 11.516-.105 23.314-5.892 33.864-2.717 4.953-5.998 9.624-9.32 14.21-2.21 3.051-5.084 5.615-7.417 8.59-5.182 6.605-13.187 8.43-20.25 11.357-11.744 4.866-24.396 6.86-37.108 7.152-26.258.602-52.53 1.154-78.788.931-9.207-.078-19.19-.666-27.407-4.252-12.896-5.628-26.59-11.066-35.113-23.67-4.64-6.864-10.382-13.137-14.03-20.47-3.246-6.53-4.973-14.044-6.146-21.32-1.638-10.165-2.558-20.496-2.962-30.788-.227-5.812 1.125-11.698 1.891-17.534a2245 2245 0 0 1 3.866-28.073c1.209-8.384 2.65-16.735 3.77-25.13 1.19-8.933 2.12-17.9 3.173-26.852 1.052-8.942 2.117-17.882 3.177-26.823.962-8.117 1.878-16.24 2.897-24.35 1.488-11.84 3.08-23.667 4.57-35.507.858-6.823 1.598-13.66 2.4-20.491 1.048-8.942 2.042-17.89 3.18-26.821.845-6.635 1.972-13.235 2.808-19.871 1.103-8.752 2.044-17.524 3.11-26.77l-14.215-1.717 2.182-19.77 56.947 6.038-2.159 19.84c-4.385-.465-8.508-.747-12.576-1.381-3.095-.482-4.086 1.007-4.4 3.662-1.001 8.465-1.982 16.932-3.076 25.385-2.58 19.947-5.332 39.873-7.797 59.834-1.588 12.861-2.664 25.785-4.2 38.653-1.434 12.024-3.259 24.002-4.75 36.02-1.513 12.197-2.723 24.433-4.26 36.627-1.328 10.536-2.988 21.029-4.385 31.556-.95 7.149-1.664 14.327-2.543 21.485-.856 6.978-2.25 13.927-2.56 20.926-.328 7.392-.749 15.075.852 22.184 2.136 9.488 3.83 19.159 9.79 27.72 6.166 8.861 14.255 14.567 23.232 19.79 8.088 4.705 16.991 5.839 25.874 6.042 19.656.448 39.332.337 58.994.034 9.373-.144 18.815-.686 28.073-2.068 9.728-1.453 19.555-3.91 27.7-9.545 4.358-3.013 6.954-8.533 10.454-12.833 5.227-6.42 5.713-14.107 5.683-21.803-.038-9.84-.643-19.678-.795-29.52a1315 1315 0 0 1-.115-33.06c.115-11.766-3.196-22.826-6.262-34.006-5.28-19.25-18.468-33.936-28.39-50.52-5.11-8.54-9.683-17.278-12.812-26.976-3.847-11.92-6.099-23.923-5.284-36.18.653-9.823 2.924-19.62 5.296-29.228 2.672-10.826 6.123-21.47 9.48-32.117 6.774-21.49 12.314-43.541 24.124-63.017 10.553-17.402 26.812-26.132 46.8-29.15 11.066-1.67 21.698-.42 31.934 2.921 15.66 5.112 26.619 16.27 34.513 30.472 5.738 10.324 7.53 21.67 8.513 33.296.882 10.427 2.568 20.785 3.735 31.192.862 7.685 1.378 15.408 2.193 23.098 1.574 14.838 3.302 29.66 4.864 44.5.826 7.846 1.338 15.726 2.166 23.572 1.549 14.682 3.254 29.348 4.834 44.027.773 7.183 1.258 14.4 2.145 21.568 1.445 11.68 3.166 23.325 4.672 34.997 1.509 11.691 2.645 23.437 4.422 35.085 1.274 8.349 2.782 16.74 5.17 24.822 4.072 13.786 9.205 27.144 17.508 39.169 9.32 13.496 21.405 23.344 35.434 31.767 15.788 9.48 32.71 12.066 50.92 12.584"/></svg>