<svg xmlns="http://www.w3.org/2000/svg" viewBox="0 0 1996 774" xml:space="preserve"><path fill="#fff" d="M1358.924 697.986c-8.645-1.225-16.828-2.468-25.017-3.666-7.745-1.133-15.499-2.208-23.247-3.327-8.676-1.253-17.34-2.587-26.026-3.771-6.316-.86-12.66-1.508-18.986-2.295-12.79-1.592-25.573-3.236-38.365-4.813-6.16-.759-12.328-1.45-18.5-2.105-9.766-1.038-19.527-2.141-29.31-3-16.521-1.45-33.05-2.834-49.59-4.043-11.502-.841-23.022-1.525-34.546-1.937-9.126-.326-15.676 4.92-22.523 10.32-10.83 8.541-23.483 13.042-37.368 9.578-14.662-3.659-28.995-8.625-43.606-12.513-4.85-1.29-10.113-1.297-15.195-1.387-10.663-.19-21.369-.608-31.99.088-17.988 1.18-35.924 3.157-53.884 4.776-1.325.12-2.67-.01-3.998.083-18.878 1.31-37.753 2.686-56.636 3.94-7.256.48-14.55.472-21.793 1.077-13.88 1.159-27.736 2.602-41.604 3.906-1.158.108-2.335-.004-3.497.076-19.045 1.305-38.088 2.638-57.133 3.934-5.597.381-11.208.579-16.802 1.01-16.705 1.29-33.4 2.743-50.112 3.938-5.142.367-10.352-.195-15.49.194-15.06 1.14-30.099 2.556-45.147 3.843-12.11 1.036-24.239 1.892-36.331 3.106-10.702 1.076-21.354 2.643-32.05 3.783-5.733.61-11.514.762-17.271 1.144-20.204 1.342-40.404 2.724-60.61 4.03a2871 2871 0 0 1-34.542 2.035c-19.624 1.03-39.256 1.9-58.876 3.01-5.695.321-11.388 1.928-17.027 1.682-5.94-.26-12.163-1.158-17.635-3.346-8.575-3.43-16.893-7.728-24.827-12.48-10.366-6.208-17.06-15.953-22.193-26.63-6.198-12.892-8.408-26.96-11.203-40.841-1.563-7.76-3.671-15.411-5.21-23.176-1.456-7.34-2.44-14.771-3.721-22.147-1.107-6.375-2.372-12.722-3.508-19.092-1.852-10.387-3.641-20.785-5.484-31.174a2591 2591 0 0 0-3.396-18.658c-1.532-8.282-2.97-16.583-4.668-24.831-1.611-7.83-6.535-13.05-12.182-13.359-9.682-.53-16.735 2.87-19.022 10.747-3.186 10.975-5.475 22.224-7.839 33.42-1.903 9.019-4.524 18.115-4.669 27.21-.145 9.182 3.368 18.334 9.316 25.462 7.622 9.134 14.546 18.835 18.763 29.674 7.154 18.385 11.924 37.595 10.482 57.669-1.068 14.87-4.72 28.919-16.205 39.473-3.41 3.134-7.624 5.484-11.699 7.786-11.083 6.263-22.297 12.976-34.836 15.08-10.591 1.779-21.68.572-32.549.723-7.594.106-14.844-1.43-21.88-4.238-14.015-5.592-23.163-16.257-29.233-29.444-7.023-15.26-4.734-31.532-3.446-47.579.383-4.758.774-9.518 1.022-14.285 1.046-20.123 2.006-40.25 3.067-60.373.582-11.028 1.182-22.058 1.99-33.072 1.09-14.86 2.387-29.705 3.616-44.815l-16.492-.881v-19.967l57.509 2.92v19.667h-15.304c-.468 5.794-1.09 11.806-1.415 17.834-.771 14.354-1.276 28.723-2.125 43.072-.836 14.125-2.03 28.228-2.944 42.35-.767 11.852-1.375 23.715-2.022 35.576-.674 12.361-1.644 24.719-1.865 37.089-.2 11.169 5.133 20.217 14.509 25.657 5.488 3.183 12.447 4.51 18.904 5.213 17.265 1.879 33.294-2.335 47.957-11.704 2.97-1.898 6.514-3.1 9.045-5.436 4.94-4.558 7.243-10.689 7.486-17.338.281-7.656.712-15.401-.121-22.976-.79-7.175-2.3-14.516-4.991-21.178-3.656-9.046-7.7-18.295-13.498-26.015-5.832-7.766-11.286-15.47-14.257-24.658-3.366-10.413-6.7-20.577-3.506-32.174 3.558-12.917 4.682-26.484 7.6-39.605 2.396-10.774 3.88-22.036 10.937-31.208 6.832-8.88 16.107-13.477 27.106-14.508 4.46-.418 9 .094 13.492-.103 11.488-.506 19.534 5.784 26.092 13.948 7.895 9.827 9.496 22.038 11.225 34.114 1.078 7.527 2.817 14.956 4.125 22.453 1.676 9.6 3.125 19.241 4.842 28.834 1.914 10.687 4.09 21.326 6.016 32.011 1.124 6.234 1.703 12.576 3.036 18.76 1.622 7.528 3.89 14.915 5.665 22.414 1.267 5.355 1.962 10.848 3.294 16.184 3.575 14.324 8.483 27.773 21.848 36.423 9.338 6.043 18.958 9.62 30.344 9.05 21.669-1.085 43.38-1.298 65.057-2.243 14.805-.645 29.581-1.938 44.373-2.899 10.856-.705 21.748-1.027 32.57-2.077 17.741-1.723 35.43-3.97 53.158-5.85 8.324-.884 16.686-1.409 25.029-2.126 15.042-1.292 30.074-2.706 45.125-3.872 7.578-.587 15.205-.536 22.782-1.135 14.71-1.164 29.396-2.63 44.102-3.86 3.312-.277 6.678.096 9.993-.168 19.652-1.566 39.29-3.313 58.946-4.808 5.139-.391 10.354.217 15.49-.187 14.544-1.142 29.056-2.68 43.598-3.843 7.413-.593 14.88-.502 22.293-1.098 14.56-1.17 29.099-2.602 43.647-3.925.166-.015.333-.016.5-.025 13.17-.69 26.356-1.189 39.511-2.122 15.392-1.093 30.756-2.58 46.136-3.855 1.988-.165 3.998-.102 5.997-.103 9.682-.008 19.373-.27 29.042.077 8.721.314 17.61.404 26.077 2.218 10.315 2.21 20.214 6.302 30.39 9.248 10.953 3.173 21.014 2.268 30.148-5.865 7.615-6.78 16.391-11.297 27.373-10.825 13.475.578 27.02-.371 40.486.297 13.723.681 27.39 2.508 41.078 3.865 9.782.97 19.579 1.833 29.332 3.042 8.374 1.038 16.676 2.643 25.044 3.73 7.312.949 14.67 1.549 22.012 2.26 10.61 1.028 21.261 1.726 31.827 3.091 15.965 2.062 31.881 4.509 47.799 6.924 12.367 1.876 24.68 4.132 37.063 5.882 9.233 1.304 18.563 1.908 27.81 3.123 7.882 1.035 15.692 2.605 23.562 3.733 6.307.905 12.673 1.396 18.987 2.26 10.976 1.5 21.92 3.233 32.901 4.701 6.809.91 13.681 1.345 20.484 2.291 9.658 1.343 19.27 3.023 28.919 4.438 6.459.947 12.963 1.589 19.421 2.54 6.086.895 12.14 2.01 18.205 3.04 7.677 1.302 15.358 2.587 23.028 3.937 7.013 1.234 14.006 2.583 21.022 3.805 4.631.806 9.269 1.62 13.934 2.178 14.602 1.746 29.25 3.135 43.82 5.114 13.178 1.79 26.268 4.226 39.413 6.27 6.44 1.002 12.945 1.607 19.373 2.677 6.034 1.005 11.979 2.539 18.01 3.564 7.542 1.282 15.14 2.23 22.698 3.417 7.524 1.181 15.03 2.482 22.544 3.723.651.108 1.31.227 1.966.239 19.923.366 39.853 1.187 59.768.92 14.809-.198 29.007-4.062 43.015-9.16 12.986-4.724 25.228-10.622 36.348-18.629 10.862-7.82 18.955-18.154 24.664-30.35 3.942-8.42 2.884-17.514 1.55-25.764-1.821-11.258 2.308-19.024 9.379-26.414 1.15-1.202 2.918-2.16 3.4-3.571.691-2.024 1.369-4.849.486-6.49-8.749-16.262-17.463-32.563-26.91-48.423-8.155-13.691-17.403-26.727-25.888-40.228-10.825-17.225-20.847-34.977-32.184-51.851-10.896-16.219-22.857-31.736-34.667-47.321-10.678-14.09-21.674-27.944-32.736-41.736-8.012-9.989-15.976-20.062-24.652-29.459-12.644-13.693-25.57-27.164-38.992-40.09-17.464-16.82-35.315-33.254-53.406-49.4-15.335-13.684-30.92-27.136-47.008-39.916-12.597-10.007-26.08-18.906-39.275-28.148-8.843-6.195-17.729-12.352-26.848-18.127-13.52-8.562-27.106-17.043-40.959-25.05-12.934-7.476-26.036-14.731-39.46-21.272-14.424-7.029-29.306-13.119-43.993-19.607-14.559-6.431-28.998-13.158-43.732-19.16-9.426-3.84-19.187-6.968-28.985-9.755-14.912-4.241-29.915-2.584-45.039-.337-10.879 1.617-22.167 3.012-32.983 1.835-11.554-1.256-21.113-8.047-27.112-18.643-1.888-3.334-3.232-6.986-5.23-10.243-1.115-1.815-2.812-3.882-4.688-4.505-5.286-1.757-10.76-3.027-16.234-4.124a1424 1424 0 0 0-33.443-6.271c-6.368-1.119-12.823-1.743-19.193-2.85-6.686-1.162-13.285-2.837-19.981-3.92-7.41-1.197-14.863-2.331-22.343-2.86-13.494-.956-27.027-1.345-40.533-2.159-7.524-.453-15.018-1.687-22.54-1.839-8.256-.167-16.531.796-24.795.749-15.6-.09-31.203-.947-46.796-.754-17.695.22-35.438.58-53.052 2.116-15.197 1.326-30.23 4.487-45.362 6.639-6.789.966-13.69 1.16-20.461 2.217-11.693 1.825-23.312 4.12-34.986 6.079-6.561 1.1-13.198 1.76-19.751 2.906a689 689 0 0 0-25.284 4.91c-12.31 2.628-24.69 5.034-36.828 8.316-11.58 3.131-22.877 7.304-34.322 10.943-10.374 3.3-20.789 6.471-31.171 9.746-11.048 3.483-22.049 7.119-33.125 10.51-12.9 3.95-25.892 7.596-38.776 11.594-6.265 1.945-12.304 4.621-18.572 6.558-8.58 2.65-17.306 4.83-25.924 7.367-7.82 2.301-15.583 4.797-23.363 7.231-8.226 2.574-16.457 5.133-24.66 7.778-6.707 2.162-13.328 4.602-20.076 6.62-6.618 1.98-13.396 3.425-20.017 5.395-7.985 2.376-15.874 5.077-23.814 7.604a5632 5632 0 0 1-23.368 7.362c-12.067 3.782-24.13 7.578-36.21 11.317-7.35 2.275-14.748 4.401-22.094 6.69-14.41 4.49-28.798 9.05-43.197 13.576-15.313 4.812-30.655 9.53-45.93 14.456-10.392 3.351-20.64 7.15-31.046 10.457-12.693 4.035-25.54 7.587-38.217 11.67-15.289 4.926-30.425 10.327-45.708 15.27-15.48 5.007-31.193 9.325-46.555 14.662-11.787 4.095-24.876 6.016-33.84 15.829-3.62 3.963-7.354 8.977-8.264 14.014-1.805 9.983-1.798 20.308-2.334 30.502-1.092 20.784-2.006 41.578-3.077 62.363-.569 11.033-1.24 22.06-1.997 33.082-.777 11.314-1.715 22.618-2.568 33.74H77.652c.427-7.43.808-14.268 1.217-21.105.365-6.088.845-12.17 1.13-18.26.733-15.684 1.318-31.375 2.095-47.056.554-11.192 1.262-22.378 2.008-33.56.922-13.798.847-27.787 3.269-41.324 2.178-12.177 6.719-23.635 16.928-32.613 10.784-9.484 23.317-14.357 36.444-18.522 19.483-6.183 39.05-12.098 58.562-18.183 11.522-3.594 23.036-7.219 34.507-10.972 10.53-3.446 20.94-7.27 31.51-10.586 12.74-3.996 25.641-7.475 38.379-11.475 8.384-2.632 16.53-6.025 24.915-8.653 10.597-3.321 21.376-6.063 31.99-9.334 8.709-2.684 17.237-5.953 25.947-8.635 8.58-2.643 17.33-4.74 25.93-7.323 8.419-2.529 16.722-5.44 25.116-8.054 8.086-2.519 16.236-4.833 24.336-7.31 11.514-3.52 22.996-7.147 34.514-10.655 11.053-3.367 22.178-6.498 33.189-9.994 10.69-3.395 21.22-7.298 31.922-10.649 8.578-2.686 17.365-4.7 25.958-7.342 8.71-2.679 17.258-5.886 25.952-8.621 5.366-1.688 10.928-2.75 16.303-4.41 6.546-2.022 12.951-4.497 19.487-6.554 8.15-2.566 16.41-4.787 24.555-7.37 10.85-3.443 21.597-7.212 32.46-10.611 8.451-2.644 17.033-4.87 25.52-7.404 8.143-2.43 16.188-5.2 24.367-7.496 12.963-3.638 25.997-7.022 39.01-10.48 7.608-2.023 15.196-4.138 22.862-5.913 5.518-1.278 11.143-2.11 16.735-3.06 11.647-1.98 23.286-4.012 34.96-5.818 8.062-1.247 16.2-2.003 24.262-3.257 6.534-1.016 12.971-2.655 19.509-3.637 6.79-1.02 13.649-1.585 20.478-2.343 11.705-1.3 23.4-2.701 35.121-3.848 6.236-.61 12.514-1.08 18.774-1.094 41.498-.096 83-.366 124.494.131 13.213.158 26.397 2.505 39.6 3.789 4.423.43 8.885.5 13.294 1.026 10.513 1.251 21.033 2.494 31.497 4.088 8.161 1.243 16.217 3.168 24.366 4.503 9.951 1.631 20.014 2.636 29.908 4.54 6.454 1.24 12.608 4.002 19.047 5.372 12.96 2.759 19.11 12.728 23.474 23.338 3.153 7.667 8.793 9.242 14.906 8.914 10.19-.547 20.274-2.85 30.446-4.039 3.821-.447 7.78.432 11.65.216 13.553-.755 26.868.965 39.923 4.246 6.525 1.64 12.778 4.483 19.016 7.109 10.317 4.343 20.506 8.988 30.779 13.437 11.688 5.063 23.59 9.674 35.075 15.158 18.083 8.634 36.052 17.537 53.776 26.882 15.263 8.047 30.345 16.494 45.08 25.466 12.118 7.377 23.623 15.762 35.372 23.74 13.678 9.288 27.706 18.117 40.878 28.076 12.678 9.585 24.637 20.154 36.586 30.66 14.515 12.762 28.697 25.902 43.007 38.896 11.006 9.994 22.426 19.58 32.871 30.13 14.726 14.873 29.08 30.151 42.924 45.846 13.293 15.07 25.952 30.716 38.479 46.436 10.785 13.535 21.057 27.483 31.428 41.343 6.268 8.375 12.72 16.66 18.328 25.47 8.65 13.585 16.45 27.708 24.981 41.37 7.368 11.8 15.617 23.057 22.823 34.949 10.099 16.668 19.664 33.662 29.315 50.598 4.517 7.927 9.054 15.88 12.928 24.128 3.353 7.138 1.557 14.34-2.489 20.705-2.609 4.105-6.169 7.602-9.263 11.404-1.648 2.024-2.373 3.763-1.719 6.938 2.695 13.068 1.656 25.841-4.245 38.211-6.22 13.04-14.46 24.55-25.285 33.894-16.119 13.914-35.016 23.071-55.113 29.837-18.707 6.299-37.787 10.011-57.666 9.108-13.42-.61-26.932.018-40.276-1.248-14.198-1.346-28.236-4.335-42.363-6.48-6.115-.927-12.303-1.373-18.413-2.327-8.336-1.3-16.604-3.037-24.945-4.295-11.276-1.7-22.598-3.092-33.892-4.678-6.929-.973-13.837-2.093-20.762-3.09-9.193-1.324-18.405-2.51-27.586-3.907-7.52-1.145-15-2.567-22.512-3.77-7.08-1.134-14.191-2.067-21.267-3.226-7.348-1.203-14.652-2.677-22.006-3.842-9.481-1.501-18.999-2.775-28.49-4.217-10.12-1.538-20.21-3.264-30.343-4.706-6.62-.942-13.315-1.366-19.936-2.306-9.499-1.348-18.948-3.036-28.442-4.423-6.614-.966-13.27-1.644-19.9-2.497-9.05-1.165-18.092-2.376-27.137-3.562-8.74-1.145-17.483-2.269-26.221-3.428-4.827-.64-9.647-1.335-14.93-2.005"/></svg>