<svg xmlns="http://www.w3.org/2000/svg" viewBox="0 0 2017 781" xml:space="preserve"><path fill="#fff" d="M641.88 711.864a20669 20669 0 0 0-47.219 3.938c-8.347.704-16.704 1.317-25.038 2.151-11.918 1.193-23.812 2.618-35.73 3.815-8.194.823-16.402 1.553-24.619 2.102-16.637 1.11-33.286 2.037-49.926 3.1-14.657.935-29.302 2.048-43.962 2.906-13.706.802-27.43 1.291-41.138 2.071-8.716.496-17.41 1.367-26.125 1.898-12.87.784-25.07-2.062-36.457-7.884-6.752-3.451-13.983-6.79-19.347-11.91-5.797-5.532-9.953-12.9-14.32-19.787-8.16-12.867-9.409-27.939-12.878-42.298-1.011-4.186-2.621-8.228-3.609-12.418a121 121 0 0 1-2.296-12.93c-.86-6.997-1.197-14.065-2.223-21.035-1.017-6.911-2.695-13.723-3.937-20.605-2.691-14.903-5.242-29.832-7.941-44.733-1.942-10.718-3.889-21.439-6.109-32.101-1.323-6.354-9.488-10.678-16.962-9.191-6.706 1.334-12.244 3.961-13.664 11.781-1.566 8.622-3.68 17.143-5.488 25.722-1.476 7-2.276 14.2-4.406 20.99-3.392 10.812-1.275 20.813 3.78 30.177 3.764 6.97 9.061 13.098 13.408 19.774 6.79 10.43 10.161 22.31 14.716 33.753 5.3 13.318 4.36 26.796 5.047 40.143.705 13.717-3.02 27.185-12.586 37.8-3.727 4.137-8.942 7.044-13.768 10.047-4.937 3.07-10.263 5.508-15.356 8.337-10.28 5.71-21.567 8.33-33.027 9.184-13.293.99-26.806.782-39.645-3.458-17.723-5.852-28.662-18.917-34.847-35.967-3.386-9.334-3.986-19.214-2.218-29.116.173-.971.017-1.998.06-2.996.706-16.539 1.276-33.085 2.174-49.613.787-14.49 1.99-28.956 2.922-43.439.742-11.542 1.218-23.102 2.058-34.636.92-12.631 2.122-25.242 3.27-38.66-4.133.258-7.824.817-11.456.554-1.471-.107-3.934-1.924-4.023-3.107-.424-5.672-.19-11.393-.19-17.684l58.117 1.911v19.683c-3.38 0-6.499.24-9.565-.062-3.639-.357-5.454.606-5.654 4.624-.41 8.204-1.214 16.39-1.851 24.583-1.327 17.057-2.707 34.11-3.947 51.174-.503 6.931-.714 13.884-1.027 20.829-.716 15.876-1.328 31.759-2.15 47.63-.46 8.882-1.3 17.743-1.89 26.62-1.046 15.756 7.79 28.297 22.065 31.735 8.98 2.162 18.731 2.147 28.052 1.622 12.977-.732 23.802-7.974 34.9-13.994 8.086-4.385 11.169-11.991 11.153-20.45-.022-11.014-.45-22.148-2.176-32.997-1.138-7.156-4.104-14.318-7.613-20.733-5.774-10.555-13.51-20.079-18.842-30.82-6.489-13.073-11.481-26.583-7.488-42.157 4.323-16.864 6.453-34.28 10.422-51.25 1.742-7.448 4.196-15.669 9.012-21.2 5.06-5.81 12.863-10.537 20.332-12.583 7.78-2.131 16.68-1.274 24.93-.32 11.752 1.36 25.72 14.469 28.27 25.803 3 13.331 6.298 26.608 8.82 40.03 2.776 14.765 4.627 29.701 7.232 44.5 2.626 14.915 5.53 29.785 8.598 44.615 2.93 14.164 5.676 28.405 9.518 42.332 4.244 15.383 13.462 26.579 29.004 32.793 8.26 3.302 16.271 5.038 24.945 4.614 19.652-.96 39.308-1.847 58.95-2.98 13.488-.777 26.95-1.997 40.434-2.87 12.357-.799 24.75-1.128 37.086-2.148 16.706-1.383 33.37-3.273 50.06-4.859 11.488-1.09 22.994-1.972 34.482-3.06 13.084-1.238 26.15-2.686 39.24-3.863 4.137-.372 8.343.046 12.49-.264 15.932-1.19 31.852-2.551 47.781-3.796 5.443-.426 10.9-.65 16.346-1.045 18.091-1.316 36.176-2.723 54.271-3.978 7.265-.503 14.562-.54 21.824-1.071 16.61-1.215 33.202-2.683 49.813-3.892 11.701-.852 23.431-1.311 35.13-2.193 15.271-1.152 30.52-2.602 45.788-3.814 6.269-.497 12.572-.575 18.841-1.072 15.768-1.25 31.515-3.541 47.29-3.715 18.006-.198 36.218-2.748 54.058 1.684 12.707 3.156 25.248 6.973 37.892 10.385 8.892 2.399 17.318 1.505 24.481-4.747 9.617-8.393 20.412-13.142 33.442-12.734 11.655.364 23.369-.485 34.987.27 16.063 1.043 32.064 3.06 48.085 4.715 9.315.963 18.632 1.928 27.926 3.076 15.452 1.91 30.872 4.073 46.331 5.922 10.13 1.212 20.335 1.806 30.447 3.131 12.637 1.657 25.2 3.87 37.819 5.672 8.615 1.23 17.28 2.107 25.909 3.254 7.796 1.037 15.571 2.224 23.355 3.35 6.15.888 12.29 1.852 18.45 2.661 11.545 1.518 23.1 2.95 34.652 4.413 12.198 1.545 24.41 2.99 36.59 4.654 9.893 1.352 19.74 3.027 29.625 4.437 6.661.95 13.365 1.598 20.027 2.543 7.278 1.032 14.525 2.275 21.792 3.383 12.297 1.877 24.598 3.722 36.898 5.577 4.681.706 9.377 1.324 14.044 2.115 17.224 2.92 34.398 6.161 51.669 8.763 13.946 2.1 28.039 3.213 42.005 5.2 17.322 2.464 34.583 5.365 51.866 8.102 16.288 2.579 32.557 5.277 48.859 7.767 24.778 3.784 49.736 2.146 74.604 1.725 8.147-.138 16.362-2.85 24.335-5.125 12.44-3.549 24.637-8.119 35.408-15.348 9.14-6.134 17.718-13.17 26.167-20.256 10.558-8.855 17.675-20.506 23.583-32.679 5.032-10.371 7.4-21.624 4.658-33.247-4.017-17.024-13.168-31.683-22.27-46.24-17.296-27.657-35.057-55.023-52.491-82.593-6.354-10.048-11.964-20.58-18.58-30.442-6.364-9.484-13.5-18.459-20.46-27.533-11.348-14.798-22.639-29.646-34.306-44.191-11.309-14.098-22.65-28.21-34.735-41.633-12.115-13.456-24.833-26.416-37.891-38.965-16.543-15.896-33.367-31.536-50.673-46.593-19.09-16.608-38.57-32.801-58.44-48.464-13.25-10.443-27.258-19.974-41.325-29.315-17.902-11.888-35.764-23.954-54.45-34.514-22.813-12.89-45.547-26.05-70-35.877-14.992-6.025-29.515-13.21-44.402-19.51-12.527-5.301-25.02-10.934-38.003-14.834-12.099-3.634-24.786-4.76-37.61-2.785-13.535 2.083-26.822 5.861-40.778 5.253-10.681-.465-19.126-5.387-26.107-12.519-4.81-4.913-8.734-11.048-11.705-17.28-1.871-3.926-4.484-6.11-7.94-6.871-12.394-2.733-24.897-4.979-37.373-7.338a3079 3079 0 0 0-32.772-6.021c-6.094-1.084-12.19-2.278-18.338-2.907-14.74-1.508-29.507-2.765-44.273-4.01-5.768-.486-11.56-.873-17.345-.946-14.21-.18-28.425-.061-42.635-.243-7.488-.095-14.974-.88-22.455-.809-20.815.2-41.652.186-62.432 1.224-14.899.745-29.733 2.942-44.572 4.69-12.85 1.513-25.71 3.022-38.486 5.042-19.509 3.085-38.994 6.364-58.404 10.015-19.688 3.704-39.394 7.459-58.863 12.144-13.387 3.222-26.373 8.103-39.558 12.18-15.956 4.934-31.956 9.73-47.892 14.727-10.348 3.244-20.58 6.857-30.93 10.092-10.984 3.433-22.066 6.55-33.067 9.93-7.91 2.43-15.732 5.148-23.639 7.587-9.294 2.867-18.657 5.51-27.955 8.364-9.9 3.039-19.745 6.256-29.638 9.315-11.778 3.642-23.599 7.144-35.37 10.806-12.87 4.003-25.677 8.208-38.56 12.165-16.272 4.999-32.629 9.724-48.882 14.784-10.51 3.271-20.856 7.072-31.358 10.375-10.666 3.355-21.512 6.146-32.132 9.63-10.725 3.52-21.195 7.812-31.914 11.347-10.444 3.445-21.076 6.318-31.601 9.52-7.592 2.31-15.16 4.699-22.71 7.144-11.017 3.568-22.012 7.205-33.01 10.837-10.535 3.48-21.032 7.08-31.598 10.462-10.286 3.292-20.672 6.27-30.948 9.59-6.134 1.981-12.085 4.526-18.22 6.505-8.164 2.635-16.461 4.859-24.63 7.483-3.18 1.021-6.502 2.18-9.176 4.093-8.255 5.901-15.13 12.522-15.207 24.076-.103 15.531-1.107 31.06-1.91 46.581-.88 16.977-1.829 33.952-3.006 50.91-1.273 18.347-2.845 36.672-4.342 55.719l-26.026-1.309c0-9.974-.195-19.663.071-29.34.167-6.056 1.219-12.083 1.539-18.141.83-15.7 1.416-31.413 2.216-47.115.554-10.877 1.083-21.763 2.02-32.611 1.074-12.419 1.559-25.017 4.136-37.147 4.52-21.27 18.552-34.607 38.9-41.512 14.214-4.825 28.397-9.756 42.708-14.276 16.184-5.113 32.54-9.678 48.738-14.749 12.515-3.917 24.885-8.296 37.35-12.37 5.077-1.66 10.257-2.997 15.356-4.592 8.924-2.791 17.794-5.763 26.739-8.485 10.839-3.3 21.78-6.268 32.588-9.665 8.301-2.61 16.402-5.859 24.706-8.46 8.648-2.71 17.467-4.868 26.146-7.486 8.05-2.43 15.981-5.25 24.021-7.713 9.289-2.846 18.665-5.406 27.956-8.246 10.52-3.216 20.971-6.663 31.485-9.902 11.135-3.432 22.32-6.702 33.463-10.112 7.9-2.418 15.766-4.954 23.648-7.433 8.947-2.814 17.898-5.615 26.842-8.437 9.07-2.861 18.122-5.778 27.203-8.603 10.184-3.167 20.4-6.235 30.588-9.389 9.113-2.821 18.197-5.737 27.313-8.546 10.373-3.196 20.779-6.285 31.15-9.487 8.012-2.475 15.97-5.13 23.994-7.565 11.75-3.564 23.574-6.883 35.297-10.53 10.504-3.269 20.825-7.15 31.39-10.197 12.45-3.59 25.062-6.624 37.628-9.801 9.58-2.423 19.127-5.06 28.816-6.943 13.61-2.645 27.34-4.68 41.018-6.975 11.894-1.996 23.766-4.145 35.692-5.93 8.593-1.285 17.272-1.981 25.888-3.125 9.07-1.203 18.075-2.999 27.172-3.859 11.501-1.087 23.062-1.607 34.607-2.153 9.77-.462 19.554-.815 29.333-.862 24.435-.118 48.871-.133 73.305.013 11.325.067 22.668.275 33.964 1.007 15.759 1.02 31.53 2.191 47.204 4.065 10.992 1.315 21.814 4.005 32.743 5.903 8.357 1.452 16.783 2.508 25.141 3.954 10.759 1.862 21.641 3.327 32.166 6.112 8.63 2.284 18.133 3.849 24.213 11.4 3.622 4.497 6.782 9.615 8.996 14.934 2.48 5.963 6.951 8.468 12.507 8.327 8.332-.212 16.64-1.502 24.946-2.44 2.4-.27 4.752-1.265 7.138-1.311 15.372-.293 30.86-.936 45.854 3.07 9.16 2.447 18.041 6.068 26.871 9.604 15.61 6.249 31.112 12.767 46.609 19.294 26.124 11.002 51.812 22.905 76.194 37.457 14.892 8.888 30.104 17.286 44.613 26.76 23.01 15.026 45.851 30.353 68.183 46.363 13.445 9.64 26.007 20.56 38.57 31.363 15.512 13.338 30.73 27.025 45.856 40.8 11.88 10.822 23.448 21.987 35.118 33.038 7.048 6.674 14.523 12.982 20.93 20.23 13.17 14.9 25.807 30.273 38.553 45.543 8.668 10.384 17.348 20.768 25.661 31.434 9.337 11.978 18.311 24.241 27.356 36.445 4.802 6.48 9.783 12.869 14.045 19.697 9.95 15.943 19.27 32.28 29.303 48.17 10.077 15.958 20.826 31.49 31.067 47.347 13.23 20.48 25.897 41.297 33.721 64.593 3.854 11.475 4.595 23.195 2.013 35.125-6.442 29.757-25.802 50.84-47.362 70.325-13.874 12.538-30.188 21.15-47.868 27.023-11.915 3.957-23.815 8.964-36.103 10.552-17.312 2.237-35.028 2.866-52.476 2.083-15.739-.707-31.35-4.244-47.019-6.524-11.655-1.695-23.339-3.217-34.962-5.11-10.599-1.726-21.104-4.028-31.706-5.734-8.248-1.326-16.59-2.05-24.872-3.182-6.46-.883-12.879-2.067-19.337-2.967-10.059-1.401-20.15-2.575-30.2-4.035-7.414-1.078-14.774-2.52-22.176-3.692-9.519-1.507-19.057-2.893-28.583-4.36-8.887-1.367-17.763-2.808-26.653-4.152-10.974-1.658-21.964-3.199-32.933-4.884-9.193-1.411-18.357-3.006-27.548-4.425-5.975-.922-11.971-1.712-17.967-2.494a6791 6791 0 0 0-33.644-4.307c-7.481-.939-14.98-1.73-22.453-2.728-10.208-1.364-20.392-2.902-30.596-4.29-6.981-.951-13.985-1.733-20.969-2.666-7.443-.995-14.875-2.08-22.312-3.122-9.226-1.294-18.462-2.526-27.678-3.89-12.595-1.865-25.159-3.948-37.768-5.705-7.316-1.019-14.703-1.514-22.044-2.368-13.026-1.514-26.036-3.153-39.06-4.678-7.014-.821-14.04-1.544-21.065-2.26-16.179-1.65-32.328-3.897-48.55-4.724-16.314-.833-32.721-.679-49.042.06-3.709.168-7.45 4.256-10.794 7.004-11.493 9.444-24.23 14.71-39.263 11.592-8.828-1.831-17.546-4.263-26.218-6.758-15.394-4.429-30.631-8.91-47.078-7.362-11.912 1.122-23.973.528-35.938 1.219-18.762 1.083-37.5 2.606-56.247 3.94-18.917 1.346-37.834 2.682-56.75 4.036-23.187 1.659-46.376 3.303-69.56 5.009-12.815.943-25.615 2.078-38.432 2.984-15.468 1.094-30.95 1.977-46.419 3.067-12.318.869-24.623 1.912-37.401 2.885"/></svg>