<svg xmlns="http://www.w3.org/2000/svg" viewBox="0 0 1440 1220" xml:space="preserve"><path fill="#fff" d="M916.948 1179.903c-1.17 1.249-2.34 2.497-4.17 3.857-1.182.949-1.706 1.786-2.23 2.622 0 0-.091.073-.445-.03-.97.702-1.585 1.506-2.201 2.31-11.47 8.915-24.369 14.585-38.83 16.056-10.333 1.051-20.762 2.017-31.123 1.798-29.05-.613-58.086-1.864-87.128-2.853-9.447-.321-18.896-.611-28.344-.913-32.522-1.04-65.045-2.05-97.565-3.133-17.066-.57-34.148-.97-51.183-2.063-6.637-.426-13.138-2.699-19.748-3.866-19.617-3.464-31.791-15.841-39.271-33.33-4.327-10.117-7.273-20.823-11.542-30.968-1.75-4.158-5.184-7.674-8.138-11.244-10.002-12.09-20.043-24.149-30.244-36.07-7.598-8.88-15.5-17.5-23.208-26.288-16.163-18.428-32.568-36.656-48.324-55.427-9.405-11.205-18.736-22.697-26.294-35.156-6.016-9.917-9.468-21.428-13.743-32.354-4.681-11.966-8.587-24.249-13.603-36.066-4.23-9.965-8.961-19.835-14.642-29.022-3.319-5.367-8.55-9.806-13.613-13.777-7.381-5.788-16.209-3.928-24.29-2.042-6.372 1.488-12.533 4.487-18.345 7.632-8.746 4.732-11.19 13.556-11.88 22.53-.703 9.11-.185 18.314-.19 27.478-.008 12.333-.006 24.666-.006 36.999 0 43.174.429 86.354-.192 129.52-.276 19.163-6.655 36.647-17.774 52.793-12.282 17.836-29.768 26.41-49.234 33.258-15.977 5.62-31.815 5.585-47.933 2.22-17.64-3.682-32.54-12.825-46.317-24.062-11.602-9.463-19.84-21.697-25.357-35.175-4.554-11.127-6.839-23.257-6.776-35.625.062-12.128-.642-24.258-.669-36.388-.14-62.756-.17-125.512-.238-188.267v-3.59H48.395v-19.808l56.322-1.918v20.17H88.9c0 3.832-.002 7.078 0 10.324.033 71.664.027 143.329.126 214.993.025 18.114 5.07 34.521 16.954 48.63 8.286 9.837 18.92 16.262 30.458 21.076 15.71 6.555 31.64 7.198 47.95.873 9.969-3.865 19.764-7.445 27.243-15.527 10.893-11.771 17.04-25.794 18.08-41.569.762-11.561-.572-23.245-.517-34.871.145-30.303.669-60.603.778-90.905.05-13.438-.605-26.876-.81-40.316-.13-8.54-.673-17.145.118-25.613 1.576-16.882 4.743-33.645 18.922-44.983 6.555-5.242 14.456-9.219 22.324-12.294 9.504-3.715 19.56-5.513 30.033-5.645 12.097-.152 21.842 4.393 30.62 11.929 13.859 11.897 23.697 26.528 30.024 43.695 5.619 15.245 12.545 30.045 17.485 45.492 5.865 18.344 14.94 34.757 26.671 49.712 7.603 9.693 16.36 18.475 24.48 27.769 10.594 12.125 21.024 24.393 31.616 36.52 5.967 6.832 12.264 13.379 18.157 20.272 15.851 18.545 31.748 37.058 47.17 55.958 2.828 3.466 3.536 8.677 5.165 13.103 3.104 8.433 5.287 17.352 9.478 25.201 4.854 9.09 12.88 14.118 23.838 15.776 15.6 2.36 31.24 1.654 46.825 2.823 4.6.344 9.198.786 13.805.911 15.607.425 31.217.696 46.825 1.087 11.434.286 22.866.677 34.3 1.007 11.486.332 22.975.61 34.46.974 20.207.643 40.412 1.319 60.617 2.009 18.368.627 36.734 1.776 55.103 1.799 17.027.02 31.18-7.08 42.523-19.927 9.284-10.516 14.28-23.053 18.406-36.171 1.965-6.25 5.133-12.118 7.127-18.36 3.834-12.003 7.152-24.17 10.811-36.229 3.326-10.96 6.883-21.85 10.22-32.808 2.682-8.807 4.917-17.759 7.845-26.48 3.149-9.379 6.427-18.764 10.476-27.776 3.947-8.786 8.288-17.537 13.617-25.53 9.493-14.237 21.346-26.361 35.957-35.592 19.623-12.397 39.14-24.962 58.793-37.31 15.622-9.816 31.349-19.468 47.087-29.098 18.913-11.572 37.722-23.33 56.901-34.445 10.446-6.054 16.847-15.117 21.718-25.53 1.164-2.488.17-5.922.463-8.892 1.653-16.718-4.468-31.11-13.075-44.85-14.124-22.546-28.22-45.11-42.158-67.773-6.453-10.494-10.715-21.789-13.1-34.029-1.541-7.918-3.09-15.458-1.914-23.63 1.296-8.995 5.104-16.703 10.195-23.835 11.828-16.57 24.008-32.889 35.928-49.394 13.33-18.459 26.504-37.03 39.798-55.516 11.252-15.647 22.845-31.055 33.778-46.92 7.652-11.104 17.408-19.245 29.721-24.442 1.153-.487 2.617-.304 3.938-.31 6.666-.027 13.335.099 19.998-.04 14.807-.308 18.36-6.221 20.702-17.85 2.532-12.575 4.937-25.188 6.86-37.866 1.787-11.792 2.759-23.706 4.292-35.54 1.322-10.201 2.975-20.36 4.394-30.549.924-6.64 1.692-13.3 2.528-19.953.733-5.833 1.335-11.686 2.22-17.496 2.183-14.338 5.311-28.587 6.55-43 1.543-17.94 1.614-36.007 2.223-54.021.18-5.328-.02-10.666.037-15.999.174-16.325-2.528-32.32-7.207-47.803-4.686-15.507-11.47-30.221-22.685-42.395-9.285-10.079-20.289-16.852-34.324-17.64-7.26-.407-14.624-1.47-21.768-.678-6.307.699-12.343 3.666-18.552 5.446-13.4 3.841-19.729 15.18-27.206 25.35-13.126 17.854-26.35 35.634-39.464 53.496a24455 24455 0 0 0-49.048 67.063c-9.391 12.883-18.636 25.873-28.037 38.748-5.197 7.117-9.933 14.73-16.031 20.994-9.63 9.89-21.302 16.512-35.732 16.599-5.166.03-10.333-.04-15.5.014-28.767.3-57.548.212-86.296 1.144-11.336.368-22.626 2.855-33.885 4.697-8.963 1.467-17.886 3.24-26.755 5.201-11.207 2.48-22.32 5.379-33.512 7.927-8.056 1.834-16.213 3.23-24.256 5.115-8.333 1.952-16.558 4.365-24.879 6.38-8.03 1.943-16.132 3.582-24.18 5.454-8.188 1.904-16.313 4.086-24.528 5.857-8.895 1.918-17.91 3.287-26.784 5.284-11.524 2.593-22.93 5.707-34.444 8.346-14.521 3.327-29.12 6.312-43.648 9.613-11.84 2.691-23.606 5.715-35.44 8.437-14.21 3.268-28.462 6.357-42.69 9.553-11.855 2.663-23.698 5.384-35.554 8.05-14.815 3.33-29.7 6.376-44.438 10.02-12.996 3.214-25.84 7.05-38.732 10.678-3.848 1.082-7.825 1.977-11.414 3.66-11.29 5.293-16.582 15.844-20.92 26.452-7.3 17.855-13.462 36.172-20.319 54.212-6.355 16.719-13.004 33.325-19.5 49.99-3.152 8.084-5.301 16.732-9.56 24.178-10.065 17.602-23.102 32.307-42.885 39.9-10.16 3.9-20.225 6.871-31.24 6.89-14.449.026-26.989-4.527-38.385-13.252-11.08-8.483-22.001-17.305-28.957-29.457-4.074-7.119-7.234-15.53-8.026-23.632-5.095-52.076-1.297-104.33-2.186-156.505-.535-31.363.273-62.749-.335-94.109-.173-8.912-1.56-18.543-5.305-26.466-5.443-11.516-14.129-21.115-25.616-27.754-11.83-6.837-24.468-10.863-38.01-9.637-15.132 1.369-29.898 4.71-41.501 15.847-1.646 1.58-3.56 2.877-5.31 4.353-8.745 7.379-14.388 16.971-17.853 27.58-2.333 7.142-3.999 14.85-4.075 22.325-.382 37.828-.238 75.662-.085 113.494.067 16.634.636 33.266.892 49.9.116 7.52-.093 15.045.057 22.564.191 9.602.853 19.2.868 28.8.112 72.369.083 144.739.19 217.109.014 9.438.738 18.873.807 28.313.143 19.542.066 39.087.08 58.63v5.101H61.176c0-15.105.056-29.89-.009-44.673-.328-75.618-.649-151.237-1.06-226.855-.123-22.449-.481-44.897-.84-67.345-.105-6.634-.801-13.262-.822-19.894-.02-6.447.746-12.897.71-19.344-.264-48.282-.887-96.563-.893-144.845-.004-29.993 11.89-54.626 35.086-73.93 9.467-7.878 19.384-14.595 31.225-18.262 14.047-4.352 28.394-5.793 43.036-4.813 15.837 1.06 29.759 7.494 42.645 16.041 16.512 10.952 28.337 26.08 34.398 44.941 2.866 8.92 4.513 18.555 4.777 27.921.651 23.147.247 46.326.139 69.491-.045 9.713-.586 19.425-.583 29.137.003 8.465.698 16.931.662 25.395-.152 36.131-.74 72.263-.548 108.391.06 11.086 1.826 22.465 8.827 31.613 7.939 10.374 17.567 19.446 29.619 24.746 10.688 4.7 21.944 3.178 32.617-1.269 16.67-6.946 27.842-19.219 34.273-35.99 6.11-15.93 12.371-31.804 18.415-47.76 9.176-24.231 18.047-48.578 27.396-72.742 4.89-12.638 12.322-24.071 22.394-32.952 5.457-4.812 13.316-7.088 20.345-9.87 5.858-2.318 12.044-3.857 18.157-5.468 7.667-2.02 15.409-3.76 23.118-5.622 9.16-2.213 18.303-4.49 27.481-6.623 7.94-1.846 15.928-3.485 23.877-5.294 7.932-1.805 15.824-3.789 23.766-5.546 8.751-1.936 17.555-3.634 26.308-5.565 7.925-1.749 15.791-3.768 23.722-5.491 8.954-1.945 17.984-3.546 26.92-5.564 10.976-2.48 21.874-5.297 32.83-7.856 11.622-2.715 23.287-5.244 34.909-7.955 18.31-4.269 36.573-8.738 54.904-12.91 21.211-4.827 42.493-9.343 63.71-14.146 18.333-4.151 36.55-8.84 54.944-12.692 18.264-3.825 36.558-8.25 55.066-9.968 22.76-2.114 45.751-1.828 68.648-2.322 13.211-.284 26.463-.628 39.642.082 15.482.834 25.857-5.638 34.44-18.296 12.885-19.007 27.154-37.074 40.77-55.589 8.944-12.163 17.744-24.432 26.659-36.618 22.55-30.826 44.856-61.839 67.862-92.322 7.097-9.405 17.288-15.665 28.72-19.254 6.38-2.003 12.89-3.596 19.345-5.355 10.607-2.89 21.248-1.93 31.901-.29 2.6.4 5.243.53 7.834.969 21.003 3.557 35.96 16.07 49.167 31.965 12.168 14.647 18.418 31.959 23.691 49.547 5.231 17.448 8.076 35.484 7.503 53.96-.502 16.15.415 32.351-.293 48.487-.495 11.288-2.655 22.504-4.104 33.748-1.576 12.23-3.105 24.466-4.81 36.678-1.977 14.155-4.19 28.277-6.176 42.431-1.689 12.03-3.19 24.086-4.797 36.127-1.328 9.952-2.36 19.958-4.12 29.833-2.264 12.713-5.31 25.286-7.676 37.983-2.831 15.198-12.694 24.457-26.454 28.65-8.77 2.673-18.57 2.614-27.903 2.58-7.134-.026-12.523 2.471-16.562 7.698-7.984 10.332-15.476 21.044-23.301 31.501-3.539 4.73-7.39 9.225-11.726 14.054-1.083 1.176-1.538 2.126-1.993 3.075 0 0 .038.045-.332.061-.808.975-1.246 1.934-1.684 2.893-5.148 7.233-10.297 14.465-16.083 21.892-2.054 2.52-3.47 4.844-4.885 7.169-3.466 4.894-6.933 9.788-11.03 14.904-1.083 1.172-1.538 2.122-1.992 3.072 0 0 .046.05-.334.062-1.135 1.332-1.889 2.652-2.643 3.972 0 0 .019.025-.34.04-.795.992-1.23 1.968-1.663 2.945-2.68 3.768-5.36 7.535-8.498 11.598-.848 1.002-1.239 1.709-1.63 2.415-1.425 2.23-2.85 4.46-4.915 6.88-1.732 1.855-2.825 3.516-3.917 5.177-.843 1.528-1.685 3.055-3.14 4.767-1.033.861-1.452 1.539-1.87 2.216-2.83 4.205-5.659 8.41-9.134 12.804-1.401 1.499-2.156 2.808-2.911 4.116-1.167 1.883-2.334 3.766-4.108 5.843-1.045 1.533-1.484 2.873-1.923 4.212-.041.428-.082.855-.549 1.667-3.204 4.273-3.22 7.974.326 11.432.064.73.128 1.46-.04 2.8.814 3.817 1.859 7.022 2.903 10.228.075.423.149.846.022 1.734.312 1.038.826 1.612 1.34 2.185.282.78.563 1.56.641 2.827.308 1.053.818 1.62 1.328 2.188.311.768.622 1.536.743 2.818.98 2.063 2.148 3.61 3.316 5.159 0 0 .038-.026-.015.364 2.63 4.475 5.314 8.56 7.997 12.647 0 0 .058-.03-.017.342.618 1.134 1.31 1.896 2.002 2.658.944 1.442 1.887 2.885 2.63 4.84.989 2.063 2.177 3.613 3.365 5.163.314.459.628.917.964 2.02.708 1.417 1.396 2.188 2.083 2.96 0 0 .029-.019-.027.346.644 1.124 1.344 1.882 2.045 2.64.933 1.45 1.867 2.9 2.613 4.865.99 2.063 2.166 3.61 3.344 5.158.604.793 1.208 1.586 1.627 2.835.583 1.38 1.35 2.304 2.117 3.228 0 0 .168.453.241 1.051 2.05 3.363 4.025 6.128 6 8.893.943 1.442 1.885 2.885 2.638 4.814.59 1.403 1.37 2.32 2.148 3.235 1.374 2.084 2.748 4.168 4.145 6.946.71 1.462 1.396 2.23 2.083 2.998.279.473.558.945.64 1.863.327 1.007.848 1.57 1.37 2.132.298.775.595 1.55.7 2.82.544 1.415 1.278 2.333 2.013 3.252.067.424.134.849 0 1.798.842 2.754 1.883 4.985 2.925 7.215.075.423.152.846.046 1.735.324 1.034.828 1.603 1.333 2.17.29 1.095.582 2.19.685 3.797.539 1.439 1.264 2.364 1.99 3.29.074.727.148 1.454-.03 2.848-1.526 13.346 1.753 26.452-4.633 38.673-5.331 10.2-10.952 20.103-20.397 27.03-5.727 4.199-11.972 7.686-17.896 11.625-1.425.948-2.5 2.42-3.736 3.652 0 0 .041.065-.364.013-4.527 2.199-8.725 4.327-12.74 6.758-1.818 1.101-3.273 2.803-4.894 4.233 0 0 .04.062-.36.043-5.831 3.552-11.264 7.123-16.696 10.693 0 0-.465.171-1.07.23-9.656 5.397-18.774 10.622-27.723 16.121-4.238 2.604-8.152 5.733-12.212 8.625-1.09.707-2.18 1.413-3.78 1.947-2.409 1.253-4.309 2.68-6.208 4.108-1.095.715-2.189 1.43-3.96 2.165-1.442.71-2.207 1.401-2.971 2.092-1.444.946-2.888 1.891-4.847 2.668-2.068.985-3.62 2.14-5.172 3.293-1.427.982-2.854 1.963-4.966 2.98-1.462.71-2.238 1.385-3.014 2.06-1.443.949-2.887 1.898-4.852 2.68-2.07.983-3.62 2.13-5.17 3.277-1.77 1.277-3.542 2.553-5.813 3.655-1.054.348-1.608.87-2.163 1.392-.47.298-.94.597-2.054.913-1.406.717-2.17 1.416-2.932 2.115 0 0 .006.01-.353-.039-1.132.626-1.906 1.3-2.68 1.974-1.439.954-2.878 1.907-4.807 2.678-1.05.339-1.608.858-2.167 1.378 0 0 .013.019-.346-.006-1.118.662-1.877 1.349-2.636 2.035-.186.273-.372.545-1.151.844-1.352.722-2.111 1.419-2.871 2.115-1.116.938-2.233 1.876-3.851 2.644-1.396.656-2.289 1.482-3.182 2.307 0 0 .034.079-.343 0-1.156.856-1.934 1.79-2.713 2.723-1.764 1.679-3.529 3.358-5.958 5.226-1.247 1.296-1.829 2.402-2.41 3.508 0 0-.087.056-.453-.055-.947.797-1.528 1.706-2.109 2.614-.173.285-.347.57-1.097.971-1.031 1.062-1.485 2.01-1.938 2.956-1.797 2.581-3.593 5.163-5.964 7.942-.756.854-.937 1.512-1.119 2.17-.437.916-.874 1.831-1.882 2.864-.734.794-.896 1.47-1.059 2.147-.795 1.87-1.59 3.74-2.976 5.78-.761.848-.93 1.526-1.1 2.204-.136.561-.272 1.122-.95 1.831-.705.823-.866 1.498-1.028 2.173-.14.56-.278 1.12-.982 1.863-1.023 1.507-1.48 2.829-1.936 4.152-.037.428-.074.856-.505 1.635-.758 1.69-1.124 3.029-1.49 4.367-.053.728-.106 1.456-.538 2.57-.733 1.403-1.088 2.418-1.444 3.434-.14 1.503-.28 3.007-1.036 4.773-.764 1.244-.913 2.226-1.062 3.209-.287 1.098-.575 2.196-1.297 3.692-.818 2.041-1.203 3.684-1.588 5.326-.051.73-.102 1.46-.537 2.591-.762 1.734-1.14 3.067-1.519 4.4-.048.73-.095 1.46-.54 2.583-.77 1.732-1.142 3.07-1.514 4.407-.117 1.186-.233 2.373-.95 3.806-.766 1.227-.931 2.206-1.097 3.186-.275 1.1-.55 2.201-1.26 3.698-.825 2.04-1.214 3.683-1.604 5.327-.043.73-.085 1.46-.526 2.582-.77 1.731-1.143 3.07-1.516 4.409-.052 1.044-.104 2.088-.568 3.55-.764 2.094-1.117 3.768-1.47 5.443-.031.43-.062.858-.49 1.627-.77 1.684-1.144 3.028-1.518 4.372-.032.429-.063.858-.504 1.668-2.022 4.81-3.794 9.19-5.184 13.688-.757 2.447-.866 5.094-1.267 7.651-.041.731-.082 1.463-.517 2.587-.776 1.73-1.158 3.066-1.54 4.403-.036.428-.072.856-.509 1.669-2.415 5.704-4.429 11.024-6.443 16.344-.053.423-.106.846-.601 1.569-1.734 3.68-3.026 7.061-4.318 10.442-.058.727-.116 1.455-.599 2.581-2.269 3.932-4.306 7.38-5.893 11.025-1.159 2.663-1.725 5.584-2.555 8.39-.662 1.1-1.324 2.201-2.473 3.592-1.156 1.312-1.825 2.333-2.495 3.354-2.003 2.447-4.005 4.894-6.506 7.65-1.17 1.31-1.841 2.312-2.512 3.314"/></svg>