<svg viewBox="0 0 1440 1228" xml:space="preserve" xmlns="http://www.w3.org/2000/svg"><path d="M1287.633 16.242c-11.914-.436-23.381 1.319-34.463 5.188-7.349 2.565-14.617 5.762-21.309 9.715-10.288 6.076-16.779 16.003-23.664 25.488-15.671 21.589-31.615 42.98-47.377 64.504-12.27 16.758-24.373 33.64-36.66 50.386-15.043 20.503-30.343 40.82-45.238 61.428-5.899 8.162-13.696 12.107-23.397 12.18-10.105.075-20.215-.8-30.322-.76-14.44.058-28.882.426-43.314.93-13.564.473-27.157.86-40.66 2.103-10.261.945-20.434 3.01-30.588 4.887-7.385 1.365-14.666 3.28-22.01 4.871-14.703 3.184-29.446 6.185-44.115 9.514-8.266 1.875-16.365 4.491-24.633 6.353-14.667 3.304-29.446 6.113-44.104 9.453-14.637 3.336-29.142 7.251-43.779 10.586-18.497 4.215-37.09 8.009-55.602 12.164-10.978 2.465-21.792 5.738-32.836 7.82-15.282 2.883-30.007 7.023-44.01 13.989-15.5 7.711-23.377 21.179-26.984 36.857-3.01 13.086-7.577 25.16-16.142 35.168-7.922 9.257-14.67 13.003-25.912 8.645-5.99-2.322-11.284-7.114-16.106-11.63-10.15-9.51-19.435-19.959-29.726-29.304-10.423-9.464-22.717-12.264-36.604-8.03-15.45 4.71-25.37 15.783-32.752 28.97-6.336 11.318-11.185 23.535-15.963 35.642-6.872 17.417-13.074 35.1-19.58 52.66a8522 8522 0 0 1-12.63 33.915c-2.342 6.239-4.036 12.865-7.307 18.582-7.553 13.197-17.545 24.14-32.356 29.556-10.294 3.764-21.01 5.417-31.261 1.067-12.473-5.292-22.29-14.538-30.399-25.221-6.988-9.206-8.661-20.562-8.728-31.64-.211-34.626.415-69.256.511-103.885.04-14.358-.595-28.716-.63-43.075-.026-10.462.57-20.924.638-31.388.115-17.666.341-35.34-.101-52.994-.21-8.36-.46-17.164-3.125-24.93-6.959-20.267-18.54-37.447-37.211-49.254-12.762-8.07-26.078-14.251-41.288-15.47-14.786-1.186-29.3.457-43.49 4.833-11.813 3.644-21.697 10.412-31.119 18.276-22.981 19.18-34.944 43.681-35.002 73.423-.094 48.78.598 97.56.865 146.34.033 5.945-.737 11.895-.713 17.84.027 6.466.677 12.926.827 19.395.357 15.452.755 30.906.828 46.361.402 85.617.718 171.234 1.045 256.852.053 13.952.008 27.904.008 41.85h27.623c0-2.17.025-3.807-.006-5.444-.296-15.27-.755-30.538-.875-45.809-.38-48.115-.75-96.233-.905-144.35-.18-56.537-.076-113.075-.222-169.613-.034-12.942-.746-25.88-.871-38.824-.4-41.113-.796-82.225-.91-123.34-.034-12.067 2.885-23.708 8.953-34.195 12.196-21.079 30.402-33.957 54.685-36.838 15.783-1.873 30.917 1.065 44.487 10.225 18.84 12.717 29.221 29.748 29.164 53.006-.183 73.329.037 146.66-.178 219.99-.041 13.95 1.08 27.582 4.986 41.002 2.599 8.928 6.426 17.067 13.36 23.445 7.37 6.779 14.502 13.875 22.353 20.053 8.124 6.392 17.373 11.1 27.93 12.043 15.481 1.383 30.623-.48 44.681-7.313 20.998-10.204 35.486-26.891 44.133-48.271 8.4-20.77 15.651-42.004 23.563-62.975 4.734-12.55 10.272-24.819 14.533-37.521 4.527-13.497 9.603-26.539 18.232-38.051 7.302-9.741 18.637-10.957 27.159-2.461 8.259 8.234 16.191 16.826 24.822 24.648 6.98 6.327 13.922 12.708 22.986 16.55 10.73 4.547 21.84 5.257 32.297 2.089 11.227-3.401 20.795-10.538 28.076-20.39 9.931-13.439 17.182-27.774 20.004-44.522 1.051-6.238 4.16-12.447 10.537-16.35 8.556-5.236 17.556-8.887 27.307-11.062 11.583-2.584 23.055-5.669 34.64-8.242 11.785-2.618 23.694-4.68 35.465-7.352 11.578-2.628 23.005-5.924 34.582-8.553 17.483-3.968 35.062-7.51 52.559-11.418a7407 7407 0 0 0 69.603-15.875c17.733-4.14 35.255-9.368 53.143-12.609 17.086-3.096 34.483-5.32 51.818-6.002 25.294-.994 50.656-.245 75.989-.277 10.678-.014 21.26.537 31.646-3.756 7.994-3.305 14.813-7.999 20.154-14.287 7.707-9.074 14.364-19.038 21.457-28.631 13.32-18.014 26.736-35.957 39.913-54.074 10.66-14.659 20.907-29.619 31.562-44.282 8.858-12.19 18.09-24.108 27.068-36.212 7.31-9.856 14.291-19.96 21.792-29.666 5.13-6.64 12.403-10.28 20.244-13.16 10.447-3.84 21.176-4.691 32.044-3.846 6.116.475 12.353 1.436 18.167 3.318 10.433 3.377 17.739 10.99 24.636 19.328 10.037 12.134 15.626 26.237 19.487 41.09 2.416 9.295 3.951 18.876 5.125 28.422 1.132 9.217 1.604 18.546 1.793 27.838.175 8.61-1.473 17.372-.407 25.826 1.549 12.277-1.762 23.921-2.781 35.824-1.101 12.858-3.828 25.569-5.574 38.381-1.864 13.673-3.267 27.41-5.135 41.082-2.506 18.343-5.129 36.673-7.957 54.969-2.446 15.82-5.191 31.597-7.918 47.373-1.479 8.555-5.586 15.041-15.055 15.79-8.235.653-16.525.59-24.789.909-1.78.069-3.655.12-5.308.693-11.968 4.155-20.677 12.45-27.877 22.508-6.463 9.028-12.65 18.254-19.153 27.252-13.582 18.793-27.337 37.462-40.941 56.24-13.82 19.078-27.654 38.149-41.26 57.38-5.534 7.821-11.006 15.773-15.55 24.183-4.494 8.315-6.133 17.443-4.065 27.055 2.77 12.874 5.329 25.818 12.03 37.369 6.2 10.69 12.643 21.244 19.175 31.736 8.608 13.825 17.527 27.457 26.09 41.309 8.523 13.786 14.817 28.164 13.8 45.1-.76 12.67-6.84 22.231-16.384 29.099-12.67 9.116-26.301 16.91-39.615 25.117-21.05 12.975-42.255 25.699-63.256 38.752-22.562 14.023-45.088 28.113-67.399 42.531-18.205 11.765-31.82 27.92-42.015 46.903-4.539 8.45-8.942 17.081-12.242 26.058-4.186 11.388-7.183 23.212-10.704 34.844-3.48 11.501-7.07 22.97-10.433 34.506-2.362 8.1-4.062 16.408-6.705 24.408-4.165 12.604-8.886 25.023-13.35 37.53-3.823 10.712-7.756 21.241-14.885 30.476-11.86 15.363-27.395 23.367-46.455 23.758-13.372.274-26.774-1.107-40.168-1.643-26.166-1.047-52.331-2.12-78.504-2.992-24.052-.802-48.113-1.325-72.17-2.025-22.551-.657-45.106-1.27-67.65-2.131-10.207-.39-20.408-1.169-30.584-2.08-9.205-.825-17.79-3.778-22.523-12.264-3.826-6.86-6.35-14.451-9.358-21.758-2.84-6.902-4.328-14.748-8.58-20.603-9.732-13.402-20.609-25.997-31.365-38.625-8.801-10.334-18.17-20.18-27.162-30.354-14.376-16.266-28.66-32.614-42.957-48.95-6.947-7.936-14.345-15.544-20.637-23.974-10.743-14.394-19.211-30.018-24.963-47.252-5.741-17.204-12.664-34.03-19.482-50.853-5.965-14.72-14.897-27.56-27.08-37.838-4.655-3.927-9.7-7.858-15.244-10.154-8.394-3.477-17.378-3.654-26.592-2.44-13.411 1.767-25.803 6.232-37.04 13.25-17.174 10.727-24.249 27.899-24.417 47.131-.55 62.826-.147 125.66-.29 188.49-.013 6.011-.609 12.191-2.093 17.996-3.457 13.519-9.945 25.78-21.416 33.918-7.124 5.055-15.916 7.818-24.076 11.338-9.554 4.122-20.003 4.657-29.67 2.633-18.61-3.897-35.023-12.181-47.291-27.899-9.133-11.7-14.281-24.721-14.461-39.007-.77-61.181-.828-122.37-1.121-183.557-.06-12.5-.024-24.998-.006-37.498.002-1.26.192-2.52.336-4.291h16.596v-19.238H52.252v20.164h17.7c.078 1.265.191 2.248.193 3.232.08 55.753.11 111.505.257 167.258.035 13.128.735 26.257.653 39.383-.096 15.243.935 30.148 5.933 44.808 4.464 13.095 11.77 24.525 21.282 33.768 15.335 14.903 33.645 25.829 55.197 29.326 9.231 1.498 19.07 2.347 28.168.785 10.953-1.88 21.538-6.299 32.047-10.248 10.486-3.94 19.38-10.322 26.834-18.916 16.816-19.387 24.35-41.96 24.13-67.355-.186-21.626-.54-43.251-.697-64.877-.036-4.958.657-9.92.623-14.877-.055-8.214-.656-16.429-.615-24.64.063-12.626.562-25.247.709-37.872.099-8.489-.14-16.981-.133-25.472.005-6.856-.31-13.757.348-20.557.858-8.873 3.668-17.278 12.13-21.817 6.134-3.289 12.63-6.76 19.343-7.886 7.54-1.266 16.139-3.275 22.937 2.511 5.398 4.595 10.877 9.534 14.795 15.348 13.067 19.388 19.27 41.837 27.18 63.531 4 10.97 8.33 21.94 13.79 32.23 9.148 17.24 22.34 31.628 35.145 46.2 13.574 15.446 27.363 30.706 40.856 46.223 18.033 20.739 35.877 41.642 53.785 62.49 2.142 2.494 4.875 4.784 6.119 7.69 3.446 8.05 6.04 16.46 9.367 24.566 3.09 7.528 5.466 15.806 10.348 22.037 7.608 9.712 17.122 17.648 30.496 19.172 7.127.812 14.064 3.647 21.183 4.123 17.196 1.149 34.448 1.447 51.678 2.088 27.184 1.01 54.367 2.099 81.555 2.998 15.774.521 31.556.748 47.336 1.088 17.961.386 35.925.692 53.885 1.15 8.12.207 16.287.231 24.34 1.15 19.517 2.229 38.51.466 56.785-6.789 18.738-7.438 31.727-21.667 41.587-38.488 5.204-8.876 8.018-19.17 11.768-28.879 4.256-11.018 8.738-21.97 12.41-33.185 3.646-11.135 6.26-22.603 9.598-33.844 3.292-11.084 6.84-22.093 10.428-33.086 4.494-13.773 8.52-27.745 13.875-41.182 7.837-19.668 20.918-35.502 38.382-47.605.418-.382.836-.765 1.364-1.158-.451.38-.798.769-1.041 1.154 1.054-.637 1.812-1.27 2.248-1.943q.172-.1.36-.202c1.794-.991 2.934-1.915 4.073-2.84.28-.26.559-.52.903-.757-.263.23-.463.488-.584.742.726-.349 1.17-.682 1.463-1.213q.186-.077.398-.144c7.27-4.11 14.03-8.402 20.79-12.694.81-.6 1.622-1.2 2.51-1.777a19.6 19.6 0 0 0-2.163 1.777c1.684-.934 3.062-1.868 4.261-2.992q.282-.143.579-.281c4.632-2.463 8.723-5.093 12.814-7.723.822-.611 1.642-1.221 2.541-1.807a19.6 19.6 0 0 0-2.193 1.807c1.69-.94 3.071-1.882 4.277-3.02q.267-.135.547-.267c1.961-.775 3.402-1.725 4.846-2.674.392-.354.786-.707 1.273-1.064q-.608.527-.95 1.058c1.02-.608 1.765-1.21 2.212-1.85q.215-.113.453-.23c3.144-1.636 5.59-3.25 8.037-4.865.282-.269.563-.538.91-.783a2.4 2.4 0 0 0-.59.767c.728-.359 1.166-.705 1.453-1.248q.176-.075.374-.142c1.937-.762 3.386-1.696 4.833-2.631 1.368-1.07 2.707-2.188 4.069-3.268-1.314 1.075-2.549 2.205-3.694 3.27 4.69-2.437 9.087-4.745 13.288-7.365 2.537-1.583 4.79-3.62 6.824-5.487l.39-.197c.601-.04 1.063-.2 1.063-.2 3.277-2.161 6.552-4.324 9.963-6.5a241 241 0 0 0-9.611 6.593c2.937-1.504 5.574-3.02 8.093-4.713a107 107 0 0 0 7.848-5.823q.307-.186.615-.37c.766-.12.924-.18 1.08-.239 2.546-1.726 5.091-3.452 7.723-5.143a150 150 0 0 0-7.373 5.243c4.513-2.72 8.719-5.528 12.752-8.55q.545-.317 1.097-.632c1.285-.415 2.07-1.038 2.854-1.66 1.617-1.431 3.067-3.137 4.885-4.236-1.818 1.099-3.269 2.805-4.516 4.234 6.039-3.615 11.717-7.226 17.031-10.867l.227-.112c.254.032.334.017.357 0l.002-.002.002-.001.002-.002.002-.002v-.012c.331-.515.569-1.172.945-1.617-.361.445-.534 1.103-.57 1.613 7.113-4.165 13.918-8.224 20.55-12.545 2.211-1.44 3.999-3.527 5.632-5.324l.105-.063c.241.006.316-.015.338-.03l.002-.003.002-.002.002-.002v-.002l.002-.002v-.007c2.412-3.427 4.823-6.853 7.338-10.276a222 222 0 0 0-6.986 10.256 230 230 0 0 0 10.96-15.531l.323-.416c.253.008.321-.026.338-.05l.004-.009v-.01l-.003-.002c1.798-5.08 3.725-10.12 5.342-15.257-1.617 5.137-3.543 10.177-4.996 15.183 5.78-9.225 9.636-18.789 8.666-29.765-.5-5.668-.69-11.364-1.304-16.745-.379 7.788-.327 15.278-.645 22.754.318-7.476.266-14.967.617-23.12.18-1.399.104-2.127.028-2.856-.39-.494-.78-.989-1.14-1.563.37.492.79.915 1.241 1.244-.503-1.071-1.098-1.858-1.9-2.496a10 10 0 0 1-.186-.465c-.103-1.61-.398-2.705-.691-3.798-.262-.295-.524-.59-.76-.952.231.283.498.502.766.631-.33-.742-.666-1.188-1.21-1.49a5 5 0 0 1-.122-.36c.105-.895.026-1.32-.053-1.745-.594-1.27-1.188-2.54-1.744-3.91a29 29 0 0 0 1.857 3.556c-.81-2.378-1.727-4.431-2.855-6.29q-.091-.284-.178-.575c-.108-1.31-.422-2.079-.734-2.848a8 8 0 0 1-.721-.935c.22.276.473.49.726.619-.316-.742-.636-1.196-1.156-1.498a5 5 0 0 1-.12-.377c-.112-1.267-.414-2.042-.714-2.817a8 8 0 0 1-.762-.914c.234.267.497.472.76.594-.343-.73-.684-1.172-1.224-1.467a5 5 0 0 1-.143-.404c-2.162-4.259-4.515-8.008-6.867-11.756-.419-.49-.838-.98-1.227-1.547.395.486.841.902 1.313 1.221-.556-1.063-1.19-1.834-2.031-2.457a9 9 0 0 1-.198-.44c-.754-1.933-1.699-3.376-2.644-4.818-.425-.457-.85-.913-1.25-1.441a6.7 6.7 0 0 0 1.258 1.111c-.624-1.044-1.255-1.799-2.077-2.389a9 9 0 0 1-.228-.466c-1.195-2.606-2.57-4.687-3.943-6.768-.424-.508-.847-1.014-1.239-1.6.397.507.85.943 1.332 1.276-.546-1.078-1.178-1.859-2.027-2.494a9 9 0 0 1-.178-.397c-.42-1.253-1.027-2.045-1.635-2.838-.61-.802-1.22-1.604-1.804-2.478a20 20 0 0 0 1.795 2.129c-.955-1.67-1.9-3.034-3.041-4.229a20 20 0 0 1-.287-.578c-.746-1.967-1.681-3.418-2.618-4.867-.474-.515-.949-1.03-1.406-1.66.46.6.93 1.042 1.395 1.336-.664-1.083-1.315-1.851-2.006-2.28l-.022-.035c.04-.263.034-.328.028-.344h-.002v-.002h-.002v-.002h-.002c-.358-.401-.716-.802-1.076-1.3q.533.625 1.074.974c-.609-1.03-1.216-1.781-1.858-2.232a14 14 0 0 1-.222-.438c-.982-2.129-1.94-3.574-2.897-5.02-.27-.277-.54-.555-.785-.896.239.26.506.46.768.578-.364-.72-.712-1.156-1.254-1.445a5 5 0 0 1-.145-.385c-.755-1.934-1.701-3.377-2.648-4.82-.444-.49-.889-.979-1.313-1.568.429.551.873.964 1.317 1.242-.637-1.072-1.278-1.834-1.965-2.268l-.033-.06c.048-.246.036-.318.023-.338l-.002-.002-.002-.002-.002-.002h-.002l-.002-.002h-.002l-.002.002a16 16 0 0 1-1.101-1.334q.546.65 1.105 1.006c-.61-1.041-1.225-1.794-1.879-2.242q-.098-.183-.195-.381c-.306-1.12-.6-1.598-.89-2.076-.511-.568-1.021-1.136-1.514-1.85.494.693 1.001 1.199 1.504 1.525-.662-1.1-1.314-1.88-2.004-2.314l-.008-.016c.035-.29.033-.34.031-.347v-.002c-.684-.938-1.368-1.876-2.037-2.926.671 1.015 1.35 1.873 2.027 2.578-.989-1.737-1.969-3.14-2.986-4.193l-.045-.082c.034-.24.03-.32.022-.346l-.004-.006v-.002h-.002v-.002h-.002v-.002h-.004c-.591-.783-1.183-1.566-1.75-2.422.56.767 1.15 1.466 1.736 2.075-.94-1.657-1.867-3.015-2.984-4.203q-.161-.315-.316-.647c-.779-2.97-1.746-5.383-2.713-7.795-.265-.295-.531-.59-.768-.951.234.28.505.498.777.627-.33-.74-.668-1.187-1.218-1.492a5 5 0 0 1-.125-.367c.125-.896.048-1.321-.03-1.747-.598-1.839-1.195-3.678-1.75-5.636a60 60 0 0 0 1.868 5.258c-.804-3.368-1.716-6.382-2.862-9.172l-.152-.701c.15-1.674.065-2.718-.02-3.762-1.724-1.665-2.61-3.387-2.578-5.225-.009 1.746.905 3.37 2.69 4.822.038-3.53-.035-6.657-.453-9.716-1.103 1.256-1.792 2.479-2.08 3.654.295-1.26 1.007-2.577 2.158-3.969.463-.812.502-1.242.54-1.672.226-.686.451-1.371.759-2.084a9 9 0 0 0-.448 1.942c.693-1.275 1.125-2.43 1.29-3.565q.15-.245.324-.498c1.775-2.08 2.942-3.966 4.109-5.853.23-.495.46-.99.78-1.51a4.9 4.9 0 0 0-.466 1.428c.716-.926 1.168-1.783 1.33-2.61q.158-.18.336-.369c5.782-7.414 10.918-14.644 16.055-21.873.395-.683.79-1.366 1.275-2.076a11.6 11.6 0 0 0-.96 1.97c1.017-1.266 1.766-2.444 2.214-3.59q.19-.216.399-.439c1.794-2.075 2.94-3.958 4.086-5.841a32 32 0 0 1 1.54-2.286c-.585.756-.995 1.496-1.245 2.178.965-1.077 1.635-2.047 1.96-3.014q-.352.375-.646.749c.259-.347.48-.67.81-1.061 3.858-5.082 7.205-9.85 10.553-14.617.236-.513.473-1.025.795-1.557a5 5 0 0 0-.482 1.475c.72-.94 1.172-1.809 1.332-2.647q.129-.15.271-.3c.743-.423.903-.717 1.063-1.01.236-.495.472-.99.799-1.516a5 5 0 0 0-.488 1.422c.728-.935 1.188-1.789 1.355-2.604q.15-.177.322-.36c4.098-5.116 7.564-10.014 11.03-14.911.25-.55.523-1.101.837-1.656a5.1 5.1 0 0 0-.527 1.568c.77-1.013 1.234-1.94 1.356-2.838l.005-.008a3 3 0 0 0 .338-.033l.002-.002h.002c.391-.703.783-1.408 1.27-2.14a11 11 0 0 0-.947 2.05c1.008-1.28 1.736-2.484 2.162-3.666q.181-.214.38-.433c5.793-7.432 10.942-14.668 16.09-21.905.229-.5.456-1 .776-1.529a4.8 4.8 0 0 0-.463 1.445c.716-.933 1.16-1.795 1.31-2.626q.15-.179.32-.364c12.088-15.662 23.256-31.342 35.18-46.424 3.25-4.111 8.419-8.176 13.338-9.185 9.562-1.96 19.629-1.293 29.377-2.555 9.498-1.23 17.738-6.328 23.184-13.783 7.21-9.87 9.373-22.206 11.603-33.992 2.809-14.84 4.23-29.941 6.293-44.924a9676 9676 0 0 1 5.809-41.459c1.987-13.978 4.073-27.943 6.023-41.926 1.701-12.196 3.283-24.407 4.9-36.615 1.403-10.58 3.645-21.136 3.985-31.752.645-20.145.248-40.327.15-60.492-.017-3.602-.731-7.194-1.039-10.799-1.24-14.548-5.31-28.4-9.754-42.238-4.639-14.453-10.888-27.787-20.185-39.985-17.278-22.668-40.007-33.423-68.121-34.45" style="fill:#fff;fill-opacity:1"/></svg>