<svg xmlns="http://www.w3.org/2000/svg" viewBox="0 0 1962 830" xml:space="preserve"><path fill="#fff" d="M1398.214 638.775c11.842-1.315 23.21-2.686 34.593-3.921 7.337-.796 14.755-1.024 22.028-2.185 7.354-1.173 14.61-3.042 21.847-4.855 14.451-3.618 29.11-6.653 43.222-11.32 16.564-5.477 32.737-12.194 48.907-18.796 36.705-14.987 73.257-30.346 109.967-45.32 15.596-6.363 31.257-12.662 47.225-17.98 8.86-2.95 18.348-4.76 27.67-5.414 15.707-1.103 31.506-.964 47.269-1.192 27.76-.401 55.524-.58 83.28-1.142 3.778-.076 7.644-1.496 11.247-2.874 3.462-1.323 5.323-4.183 5.319-8.117-.03-24.999.062-49.998-.05-74.996-.05-11.059-8.788-19.202-19.816-19.489-18.196-.473-36.386-1.216-54.573-1.97-13.362-.555-26.71-1.423-40.074-1.95-19.52-.77-39.045-1.402-58.571-2.013-13.093-.41-26.19-.679-39.285-1.014-12.929-.332-25.858-.638-38.785-1.01-9.93-.286-19.885-.304-29.78-1.072-15.144-1.176-29.738-4.486-43.386-11.69-14.573-7.691-29.514-14.683-44.21-22.145-13.786-7-27.45-14.243-41.192-21.33-7.477-3.854-15.001-7.619-22.514-11.403-8.689-4.376-17.426-8.657-26.064-13.13-3.213-1.663-5.064-.93-7.389 1.874-5.064 6.108-10.509 11.937-16.199 17.468-1.981 1.925-5.029 3.304-7.787 3.775-7.957 1.359-16.13 2.008-23.238-2.902-25.248-17.438-50.405-35.008-75.542-52.607-18.324-12.83-36.547-25.804-54.847-38.667-5.73-4.027-11.568-7.9-17.789-12.138l-7.269 10.26-16.416-11.26 29.514-42.78 16.426 11.252-6.95 10.348c5.113 3.773 10.093 7.632 15.26 11.22 9.24 6.419 18.643 12.601 27.885 19.016 11.592 8.046 23.056 16.276 34.635 24.34 20.543 14.307 41.176 28.485 61.68 42.848 8.63 6.046 8.275 5.977 15.22-1.887 4.509-5.104 9.389-10.168 14.981-13.95 6.64-4.491 14.565-5.886 22.275-2.448 12.089 5.39 24.06 11.061 35.923 16.935 14.888 7.372 29.614 15.07 44.411 22.624 18.715 9.555 37.275 19.43 56.211 28.524 9.267 4.45 19.228 7.46 28.894 11.067.9.336 1.941.38 2.92.4 34.523.683 69.047 1.252 103.567 2.05 20.195.468 40.386 1.209 60.571 1.998 12.531.49 25.05 1.313 37.575 1.963 13.19.683 26.378 1.387 39.571 1.987 9.258.421 18.55 1.273 27.778.863 10.896-.484 19.516 3.861 26.95 10.923 10.332 9.815 16.142 21.715 15.99 36.412-.26 24.996.093 49.998-.145 74.994-.111 11.66-4.748 21.407-14.6 28.161-5.245 3.595-11.01 5.409-17.477 6.267-30.972 4.112-62.046.732-93.047 1.823-13.981.492-28.027.053-41.942 1.235-10.691.908-21.331 2.81-31.427 7.383-9.647 4.37-19.92 7.342-29.825 11.164-11.806 4.555-23.46 9.51-35.285 14.012-8.823 3.359-17.956 5.929-26.696 9.478-10.107 4.105-19.877 9.032-29.897 13.362-14.477 6.256-28.923 12.613-43.614 18.335-13.836 5.39-27.943 10.092-41.985 14.939-7.263 2.507-14.55 5.054-21.994 6.903-10.973 2.725-22.034 5.209-33.173 7.129-13.801 2.38-27.697 4.26-41.595 6.01-10.408 1.31-20.88 2.815-31.33 2.86-9.768.043-19.543-1.74-29.317-2.686-7.52-.727-15.039-1.45-22.565-2.087-16.036-1.359-32.077-2.662-48.116-3.985-.331-.027-.666-.01-.999-.024-14.68-.667-29.394-.945-44.032-2.137-9.826-.8-19.32-3.7-24.792-12.916-2.06-3.47-3.342-7.885-3.443-11.908-.11-4.325-2.519-5.697-5.53-6.98-6.206-2.645-12.476-5.142-18.733-7.67-8.606-3.477-17.23-6.909-25.834-10.392-8.2-3.32-16.374-6.705-24.578-10.017-8.323-3.36-16.713-6.554-24.99-10.02-10.034-4.203-19.933-8.725-29.975-12.904-9.966-4.148-20.044-8.029-30.062-12.053-6.148-2.47-12.257-5.038-18.417-7.475-10.696-4.231-21.443-8.332-32.116-12.618-4.053-1.628-7.914-3.73-11.946-5.418-10.095-4.226-20.24-8.33-30.359-12.501-8.038-3.314-16.052-6.685-24.1-9.976-10.682-4.37-21.39-8.679-32.08-13.032-7.874-3.207-15.725-6.468-23.603-9.662-10.2-4.137-20.373-8.348-30.638-12.316-13.091-5.061-24.656-12.16-33.836-23.043-5.326-6.315-11.335-12.052-16.991-18.091-2.491-2.66-5.025-2.522-7.872-.59a10609 10609 0 0 1-37.257 25.13c-9.231 6.202-18.538 12.293-27.723 18.562-4.805 3.28-7.142 8.032-8.221 13.77-1.666 8.857-4.113 17.566-5.801 26.42-1.948 10.218-3.258 20.557-5.17 30.782-1.655 8.859-3.914 17.604-5.626 26.454-1.33 6.876-2.21 13.839-3.323 20.757-1.034 6.423-2.077 12.845-3.184 19.255-.884 5.113-1.885 10.205-2.807 15.312-1.702 9.427-2.834 19.002-5.243 28.245-2.087 8.006-5.446 15.703-8.547 23.415-3.66 9.098-6.664 18.668-11.742 26.934-6.074 9.885-13.899 18.722-21.235 27.795-5.129 6.342-10.593 12.426-16.116 18.434-11.516 12.527-23.179 24.755-37.814 34.015-9.018 5.705-17.485 12.391-27.895 15.119-15.83 4.148-31.457 4.547-46.204-4.604-11.953-7.418-24.458-13.958-36.314-21.52-12.133-7.737-23.645-16.442-35.665-24.365-15.658-10.32-31.142-21.01-47.459-30.195-15.306-8.617-31.322-16.145-47.54-22.921-14.815-6.19-30.243-10.963-45.544-15.918-10.387-3.363-20.995-6.06-31.55-8.879-11.995-3.202-24.074-6.084-36.052-9.344-6.83-1.858-13.48-4.38-20.307-6.243-4.523-1.234-9.29-1.57-13.821-2.778-6.37-1.699-12.568-4.041-18.94-5.736-9.659-2.568-19.436-4.695-29.103-7.24-7.5-1.973-14.867-4.453-22.367-6.427-7.667-2.017-15.468-3.529-23.132-5.56-9.15-2.424-18.178-5.314-27.332-7.723-7.438-1.957-15.22-2.842-22.419-5.41-7.763-2.769-15.27-6.52-22.413-10.664-4.119-2.39-7.373-6.324-10.877-9.708-4.945-4.775-6.19-11.162-6.731-17.567-.463-5.46.172-11.007-.151-16.487-.704-11.933 5.541-19.961 14.396-26.618 11.246-8.455 23.781-13.918 37.445-17.436 10.839-2.791 21.247-7.217 31.954-10.568 8.603-2.693 17.429-4.67 26.045-7.322 8.712-2.681 17.241-5.95 25.937-8.688 8.218-2.587 16.593-4.672 24.818-7.239 11.015-3.438 21.913-7.25 32.934-10.67 8.46-2.623 17.08-4.733 25.538-7.361 6.078-1.888 12.298-3.684 17.922-6.562 6.158-3.152 8.226-9.356 9.1-16.016 1.166-8.88 2.38-17.77 4.042-26.566 2.076-10.979 3.889-22.104 7.271-32.702 1.87-5.86 6.118-11.308 10.337-16.004 11.52-12.82 23.57-25.164 35.454-37.654 9.873-10.375 19.734-20.763 29.735-31.014 14.729-15.098 29.412-30.246 44.415-45.068 19.89-19.651 40.232-38.848 60.082-58.539 20.493-20.33 40.694-40.956 60.903-61.569 14.671-14.965 28.774-30.512 43.897-45 6.03-5.776 13.825-10 21.396-13.765 4.174-2.075 9.544-2.342 14.384-2.383 25.163-.219 50.347-.673 75.489.104 16.072.497 27.39-5.38 35.67-19.01 4.697-7.73 10.336-15.03 16.421-21.731 5.395-5.942 12.748-9.098 21-9.452 1.997-.086 4.024-.217 5.996.02 11.137 1.341 22.294 2.572 33.379 4.27 7.997 1.223 15.907 3.04 23.827 4.728 9.981 2.127 19.907 4.525 29.91 6.542 5.416 1.092 10.98 1.445 16.41 2.479 5.884 1.12 11.675 2.72 17.535 3.978 8.036 1.725 16.142 3.143 24.138 5.033 8.339 1.97 16.58 4.352 24.867 6.54 9.382 2.477 18.81 4.79 28.142 7.447 9.258 2.635 18.387 5.725 27.637 8.393 5.985 1.726 12.16 2.813 18.113 4.632 5.232 1.599 10.236 3.93 15.411 5.737 9.907 3.46 20.017 6.392 29.761 10.25 13.109 5.191 26.23 10.494 38.83 16.78 12.839 6.404 25.184 13.841 37.49 21.25 6.826 4.11 13.122 9.099 19.67 13.673 10.995 7.682 22.043 15.288 32.984 23.045 6.504 4.612 12.788 9.535 19.281 14.162 5.897 4.201 11.944 8.19 18.056 12.363l-15.41 21.357c-9.572-6.637-19.054-13.17-28.49-19.767-10.171-7.11-20.279-14.31-30.451-21.417-12.447-8.696-24.642-17.798-37.47-25.894-20.042-12.65-41.252-23.12-63.602-31.153-14.497-5.21-28.905-10.698-43.554-15.445-11.384-3.689-23.112-6.302-34.622-9.623-9.167-2.645-18.154-5.94-27.37-8.384-8.456-2.24-17.138-3.61-25.672-5.573-18.34-4.216-36.58-8.891-54.994-12.747-12.572-2.632-25.384-4.102-38.056-6.283-5.113-.88-10.1-2.478-15.21-3.38a1425 1425 0 0 0-33.717-5.524c-3.53-.537-7.236-1.108-10.702-.594-5.98.889-8.026 6.544-11.221 10.718-5.77 7.538-10.984 15.604-17.471 22.464-6.848 7.24-14.96 13.247-25.503 14.428-5.841.655-11.68 1.795-17.527 1.848-23.664.213-47.342.513-70.992-.09-11.917-.305-21.19 4.537-28.955 12.302-17.638 17.637-34.59 35.959-52.062 53.766-13.634 13.895-27.643 27.423-41.464 41.135-8.34 8.274-16.623 16.605-24.962 24.88-19.358 19.21-38.83 38.304-58.075 57.625-17.99 18.062-35.828 36.275-53.575 54.575-11.71 12.074-23.026 24.531-34.737 36.605-8.61 8.877-11.884 19.793-13.725 31.604-2.303 14.774-5.068 29.478-7.824 44.177-2.343 12.49-9.797 21.392-21.002 26.728-7.533 3.588-15.607 6.1-23.555 8.745-12.264 4.08-24.597 7.965-36.96 11.736-9.597 2.926-19.316 5.448-28.924 8.336-10.391 3.123-20.7 6.52-31.077 9.693-11.453 3.501-22.958 6.835-34.413 10.33-10.071 3.072-20.188 6.026-30.13 9.477-8.97 3.113-17.891 6.47-26.542 10.368-10.665 4.804-13.177 9.17-12.496 19.114.622 9.088 5.773 15.547 15.635 18.472 12.105 3.59 24.345 6.73 36.541 10.01 13.301 3.576 26.6 7.164 39.934 10.613 12.543 3.245 25.172 6.166 37.689 9.51 9.854 2.632 19.566 5.79 29.393 8.53 9.208 2.567 18.488 4.88 27.73 7.326 8.44 2.234 16.893 4.428 25.305 6.766 13.281 3.693 26.562 7.393 39.79 11.27 16.473 4.826 33.053 9.367 49.284 14.914 12.99 4.438 26.04 9.224 38.15 15.591 18.956 9.967 37.436 20.93 55.578 32.33 21.958 13.799 43.273 28.615 65.03 42.737 8.723 5.662 17.64 11.132 26.91 15.815 10.077 5.09 20.439 3.77 30.232-1.477 22.261-11.926 39.953-29.282 56.132-48.245 8.492-9.954 17.361-19.894 23.947-31.084 6.764-11.492 11.841-24.208 16.018-36.926 4.13-12.574 6.603-25.745 9.1-38.789 3.395-17.74 6.035-35.623 9.172-53.413 1.776-10.07 3.973-20.064 5.85-30.117 2.444-13.096 4.552-26.258 7.203-39.31 1.675-8.247 3.272-16.665 6.353-24.43 4.082-10.289 12.57-17.127 21.685-23.128 20.848-13.727 41.606-27.59 62.415-41.377 7.7-5.101 16.249-3.848 24.29-1.996 6.466 1.49 11.821 5.77 16.33 11.051 5.59 6.548 12.062 12.344 17.619 18.917 5.56 6.577 12.932 9.777 20.527 12.917 18.125 7.495 36.19 15.135 54.305 22.654 17.234 7.152 34.503 14.216 51.751 21.333 26.895 11.096 53.758 22.269 80.685 33.287 20.456 8.37 41.034 16.445 61.474 24.853 12.165 5.005 24.102 10.563 36.262 15.58 15.157 6.254 30.46 12.153 45.66 18.306 13.132 5.317 26.345 10.47 39.26 16.28 8.541 3.842 10.999 11.986 11.658 20.582.212 2.754 1.272 3.928 3.706 4.138 4.755.412 9.523.683 14.283 1.041 17.548 1.32 35.092 2.689 52.644 3.964 6.253.454 12.538.512 18.78 1.071 13.224 1.184 26.412 2.805 39.65 3.797 7.15.535 14.37.143 22.026.167"/></svg>