<svg xmlns="http://www.w3.org/2000/svg" viewBox="0 0 1958 817" xml:space="preserve"><path fill="#fff" d="M902.018 77.916c-2.38-.353-4.759-.706-7.58-1.457-1.774-.756-3.105-1.113-4.435-1.471-2.167-.138-4.334-.275-6.762-1.055-1.251-.758-2.24-.874-3.229-.991-2.074-.294-4.15-.587-6.618-1.308-1.057-.513-1.72-.597-2.384-.681-2.074-.293-4.148-.586-6.684-1.358-2.749-.855-5.036-1.231-7.323-1.607-1.052-.05-2.103-.1-3.594-.553-2.094-.76-3.748-1.116-5.401-1.472-2.355-.043-4.71-.087-7.568-.54-2.81-.77-5.118-1.13-7.426-1.49-1.052-.044-2.105-.089-3.62-.545-2.767-.768-5.071-1.125-7.375-1.481-1.052-.044-2.104-.089-3.629-.547-3.779-1.066-7.084-1.717-10.39-2.368-.735-.047-1.47-.094-2.608-.553-2.063-.768-3.724-1.124-5.384-1.48-1.053-.036-2.107-.073-3.621-.512-2.43-.782-4.399-1.16-6.368-1.54-1.698-.046-3.397-.09-5.601-.555-3.806-.758-7.105-1.095-10.404-1.433-1.372-.046-2.744-.091-4.61-.56-5.366-3.427-8.754-3.211-11.487.278-.79.355-1.579.709-3.042 1.169-1.42 1.11-2.166 2.114-2.912 3.118-.35.48-.699.96-1.523 1.71-1.477 1.948-2.48 3.625-3.48 5.302 0 0 .037.062-.341.047-1.792 1.995-3.206 4.005-4.62 6.016-1.473 2.229-2.947 4.458-5.078 6.866-2.095 2.463-3.533 4.747-4.971 7.03-3.419 2.989-6.837 5.976-10.797 8.774-4.438 2.202-8.335 4.594-12.232 6.986-1.048.077-2.097.155-3.797-.015-4.42-.033-8.187.361-11.955.37-24.598.055-49.197-.03-73.796.075-4.617.02-9.384.102-13.795 1.252-3.137.817-5.793 3.477-8.663 5.314-1.09.72-2.182 1.442-3.79 1.964-1.857 1.462-3.197 3.123-4.538 4.784 0 0-.096.085-.493-.025-.787.605-1.176 1.319-1.565 2.033 0 0-.091.034-.437-.094-.928.477-1.51 1.083-2.092 1.688-1.464 1.577-2.93 3.153-5.048 4.911-.91.949-1.166 1.716-1.422 2.483 0 0-.088.045-.455-.079-1.746 1.61-3.126 3.345-4.505 5.08 0 0-.093.074-.482-.027-.766.61-1.144 1.32-1.521 2.03 0 0-.093.07-.466-.03-.96.788-1.547 1.676-2.134 2.564-4.322 4.455-8.644 8.91-13.484 13.665-1.19 1.3-1.862 2.298-2.533 3.296-1.161 1.26-2.322 2.52-4.138 3.895-1.38 1.135-2.106 2.154-2.831 3.173-1.809 1.91-3.617 3.82-6.09 5.867-1.41 1.138-2.159 2.139-2.907 3.14-1.146 1.248-2.292 2.496-4.089 3.866-1.416 1.1-2.182 2.075-2.947 3.051-.199.285-.397.57-1.2.94-1.33 1.092-2.055 2.099-2.78 3.106-20.867 20.664-41.753 41.309-62.579 62.013-3.106 3.088-5.933 6.456-9.546 9.812-1.414 1.037-2.17 1.956-2.925 2.875 0 0-.444.219-1.007.311-1.01.75-1.459 1.408-1.907 2.065 0 0-.146.467-.591.682-2.128 2.124-3.81 4.033-5.493 5.943-.753.736-1.505 1.473-2.91 2.306-1.103.755-1.553 1.414-2.003 2.072 0 0-.007-.011-.347.002-1.782 1.668-3.224 3.323-4.667 4.977 0 0 .007.01-.323.02-.785.656-1.24 1.304-1.694 1.951 0 0 .023.04-.375.003-.91.787-1.422 1.611-1.933 2.435 0 0-.11.155-.53.062-.767.584-1.116 1.26-1.464 1.937 0 0-.112.159-.521.053-1 .76-1.59 1.626-2.182 2.492-.49.607-.981 1.213-2.127 1.908-1.16.909-1.667 1.729-2.173 2.55 0 0-.112.155-.535.057-.783.585-1.143 1.266-1.502 1.947 0 0-.108.119-.52.014-.772.593-1.13 1.29-1.487 1.987 0 0-.105.117-.502-.011-1.76 1.583-3.122 3.294-4.485 5.005 0 0-.107.13-.496.001-4.21 1.927-8.01 4.003-8.542 8.997 0 0-.098.097-.498-.004-.76.603-1.118 1.308-1.477 2.012 0 0-.105.117-.501-.01-1.752 1.58-3.107 3.288-4.462 4.996 0 0-.107.156-.525.062-.767.583-1.115 1.261-1.463 1.94 0 0-.111.164-.524.06-.998.77-1.584 1.642-2.17 2.514-.485.597-.97 1.193-2.093 1.937-1.189 1.261-1.74 2.375-2.29 3.49 0 0-.098.104-.478-.02-3.306 3.102-6.232 6.326-9.158 9.55-1.144 1.262-2.288 2.523-4.09 3.895-1.406 1.117-2.153 2.123-2.9 3.128-.815.93-1.63 1.861-3.058 2.923-1.053.787-1.494 1.442-1.935 2.096 0 0 .02.033-.346.035-1.927 2.132-3.487 4.262-5.048 6.392 0 0-.095.087-.493-.02-.758.605-1.12 1.315-1.48 2.026 0 0-.1.111-.485-.011-2.417 2.254-4.45 4.631-6.483 7.008 0 0-.106.134-.517.03-.764.588-1.117 1.28-1.47 1.972 0 0-.11.144-.514.037-.994.769-1.583 1.645-2.172 2.52 0 0 .03.043-.32.042-.789.658-1.229 1.317-1.669 1.976 0 0 .017.026-.348.022-1.909 2.13-3.452 4.264-4.995 6.398 0 0-.11.132-.508.004-2.315 2.102-4.233 4.334-6.151 6.566-1.15 1.247-2.301 2.494-4.108 3.858-1.401 1.125-2.146 2.133-2.891 3.14a9.8 9.8 0 0 1-1.535 1.688c-1.137 1.296-1.793 2.322-2.449 3.348 0 0 .002.002-.347.037-.79 1.002-1.23 1.969-1.671 2.935 0 0 .022.029-.346.041-2.733 2.14-5.907 3.925-3.728 7.97-.025.436-.05.872-.482 1.684-.771 2.025-1.137 3.673-1.502 5.32-.055 1.697-.11 3.394-.59 5.556-.78 2.452-1.134 4.44-1.488 6.427-.02.741-.04 1.483-.439 2.636-.397 1.405-.416 2.398-.434 3.391-.03.435-.059.87-.503 1.715-.786 3.367-1.157 6.323-1.528 9.28-.034 1.054-.067 2.107-.523 3.625-.787 3.43-1.152 6.397-1.517 9.364-.032 1.055-.064 2.11-.514 3.61-.763 2.428-1.11 4.412-1.455 6.397-.047.737-.094 1.473-.569 2.628-1.417 3.057-2.407 5.694-3.397 8.332 0 0 .035.052-.338.062-1.463 1.993-2.554 3.975-3.645 5.958-1.149 1.249-2.298 2.497-4.103 3.853-2.74 1.782-4.821 3.457-6.903 5.132-.467.293-.935.586-1.886.682-5.592 1.692-10.75 3.46-15.784 5.532-1.941.8-3.6 2.287-5.387 3.46-.734.073-1.469.146-2.755-.007-1.779.535-3.007 1.295-4.235 2.055-.432.064-.863.129-1.857-.05-4.604.877-8.706 1.82-12.665 3.18-2.924 1.003-5.662 2.55-8.483 3.855-.43.066-.86.132-1.845-.043-4.424.373-8.585.272-11.147 4.085-.43.064-.86.13-1.839-.032-4.415 1.215-8.281 2.656-12.147 4.098-1.41.352-2.82.704-4.781.84-1.784.525-3.015 1.267-4.246 2.008-.733.083-1.466.166-2.754.025-1.782.527-3.01 1.277-4.238 2.028-.733.076-1.466.153-2.76.007-1.787.529-3.011 1.28-4.236 2.03-.427.072-.854.145-1.812.008-2.064.616-3.597 1.441-5.13 2.267-1.098.283-2.196.567-3.84.62-1.417.305-2.289.84-3.16 1.377-1.096.292-2.192.584-3.833.65-1.773.531-3.001 1.286-4.23 2.042-.73.08-1.461.162-2.74.044-1.782.536-3.017 1.272-4.252 2.009-.428.066-.856.133-1.812-.002-2.078.55-3.628 1.302-5.177 2.053-1.406.361-2.812.722-4.74.898-1.09.307-1.657.8-2.224 1.292-1.41.305-2.821.61-4.772.717-1.107.287-1.673.771-2.24 1.255-1.085.32-2.17.638-3.798.748-1.774.533-3.005 1.275-4.236 2.016-.428.077-.856.153-1.815.031-2.079.543-3.627 1.283-5.175 2.023-1.41.361-2.82.723-4.738.89-1.091.248-1.675.69-2.26 1.132-1.406.364-2.812.727-4.746.907-1.093.3-1.658.785-2.224 1.27-1.089.312-2.177.624-3.831.71-2.112.543-3.658 1.313-5.204 2.082-.43.063-.86.125-1.822-.013-2.076.558-3.622 1.315-5.167 2.073-1.094.338-2.188.676-3.772.819-1.07.253-1.652.702-2.234 1.151-4.869 2.687-9.904 5.115-14.568 8.122-6.84 4.41-8.434 10.417-7.292 18.293 1.598 11.011 9.226 15.118 18.38 17.704 15.83 4.47 31.716 8.74 47.623 12.928 9.933 2.615 19.982 4.789 29.914 7.406 12.592 3.318 25.099 6.955 37.677 10.327 12.29 3.294 24.643 6.357 36.933 9.655 10.072 2.702 20.087 5.62 30.137 8.405 8.022 2.222 16.074 4.334 24.085 6.591 13.952 3.93 27.94 7.746 41.807 11.957 17.324 5.262 34.99 9.781 51.68 16.64 16.955 6.97 33.148 15.952 49.211 24.888 12.402 6.898 24.116 15.04 36.08 22.717 7.821 5.019 15.57 10.155 23.302 15.312 9.192 6.13 18.173 12.594 27.537 18.447 11.305 7.067 22.519 14.482 34.522 20.162 9.18 4.343 19.52 2.928 28.303-2.287 9.403-5.582 18.818-11.526 26.986-18.722 15.61-13.75 29.488-29.26 42.772-45.325 9.61-11.62 16.441-24.517 22.145-38.382 7.54-18.33 10.848-37.533 13.995-56.873 2.391-14.7 5.196-29.333 7.774-44.004 1.788-10.17 3.323-20.387 5.307-30.517 1.725-8.812 4.03-17.51 5.87-26.301 1.204-5.758 1.632-11.7 3.114-17.374 2.942-11.263 3.288-23.336 10.838-33.205 5.852-7.648 13.64-12.769 21.45-17.943 19.482-12.91 38.939-25.863 58.537-38.597 9.072-5.894 18.818-4.901 27.597.119 5.992 3.427 11.082 8.623 16.099 13.517 6.045 5.897 11.024 13.002 17.522 18.282 5.16 4.194 11.75 6.81 17.988 9.464 20.608 8.77 41.362 17.195 62.024 25.837 15.618 6.532 31.154 13.26 46.776 19.782 17.037 7.113 34.118 14.123 51.205 21.117 19.722 8.072 39.487 16.039 59.203 24.122 20.903 8.57 41.749 17.28 62.661 25.824 24.918 10.183 49.904 20.198 74.804 30.426 4.672 1.919 9.144 4.368 13.585 6.797 6.194 3.387 9.095 9.35 8.94 15.816-.137 5.721 2.727 6.788 6.885 7.214 5.255.538 10.55.677 15.82 1.086 16.619 1.29 33.232 2.648 49.851 3.928 5.442.42 10.906.56 16.342 1.036 14.123 1.238 28.215 3.012 42.362 3.756 9.732.512 19.558-.02 29.302-.672 10.02-.67 20.029-1.798 29.978-3.187 12.485-1.744 25.143-3.031 37.298-6.173 21.266-5.497 42.455-11.535 63.206-18.707 17.97-6.21 35.307-14.257 52.885-21.585 12.918-5.386 25.695-11.12 38.676-16.347 22.333-8.992 44.713-17.877 67.196-26.487 16.388-6.275 32.559-13.586 50.094-15.983 9.498-1.298 18.936-3.637 28.91-1.867 6.516 1.156 13.496-.523 20.27-.564 27.166-.164 54.333-.084 81.497-.345 5.374-.051 10.79-.931 16.092-1.931 5.276-.995 7.96-4.194 7.987-9.663.12-24.665.198-49.332-.064-73.995-.084-7.922-3.827-14.668-10.762-18.554-3.181-1.783-7.562-1.748-11.428-1.93-17.886-.846-35.784-1.44-53.675-2.197-14.894-.63-29.78-1.42-44.675-2.028-18.063-.737-36.13-1.354-54.196-2.028-17.733-.661-35.464-1.36-53.199-1.983-10.954-.385-21.932-.366-32.863-1.076a293 293 0 0 1-27.458-3.103c-14.38-2.313-28.765-4.744-42.973-7.907-7.583-1.688-14.819-4.966-22.18-7.612-17.777-6.389-35.57-12.733-53.29-19.275-16.645-6.144-33.31-12.258-49.775-18.86-20.55-8.238-40.922-16.923-61.34-25.487-17.804-7.468-35.684-14.771-53.307-22.648-12.762-5.705-25.598-11.486-37.588-18.601-11.366-6.744-21.667-15.278-32.45-23.006-7.555-5.416-15.134-10.799-23.016-16.42l-10.133 11.69-15.147-13.037 36.607-42.708 15.133 12.899-8.744 10.602c6.651 4.963 13.082 9.849 19.605 14.607 9.475 6.912 18.735 14.176 28.618 20.452 8.25 5.237 17.173 9.455 25.966 13.784 8.85 4.357 17.847 8.432 26.89 12.379 10.04 4.38 20.197 8.493 30.315 12.692 15.496 6.432 30.964 12.933 46.517 19.224 10.945 4.427 21.993 8.603 33.03 12.801a6082 6082 0 0 0 43.03 16.195c16.043 5.965 32.002 12.188 48.223 17.63 12.098 4.06 24.43 7.62 36.886 10.36a225 225 0 0 0 32.905 4.703c21.766 1.487 43.585 2.265 65.39 3.142 20.035.805 40.082 1.303 60.12 2.032 16.373.595 32.742 1.307 49.11 2.015 14.54.628 29.077 1.33 43.615 1.981 15.036.675 30.079 1.222 45.107 2.035 7.234.39 13.496 3.675 18.817 8.32 12.728 11.113 19.702 24.73 19.319 42.215-.541 24.654.816 49.378-.459 73.979-.957 18.48-12.871 30.633-31.27 33.197-30.773 4.287-61.717 1.026-92.567 2.014-14.6.468-29.23.31-43.808 1.114-10.705.59-21.183 2.796-31.266 6.87-10.737 4.34-21.762 7.961-32.577 12.114-14.278 5.484-28.504 11.105-42.696 16.807-13.136 5.277-26.213 10.703-39.288 16.132-12.881 5.348-25.709 10.825-38.594 16.165-12.633 5.235-25.156 10.791-38.012 15.415-10.47 3.766-21.364 6.351-32.064 9.481-7.14 2.089-14.186 4.593-21.428 6.231-9.818 2.221-19.75 3.998-29.696 5.577-8.559 1.358-17.198 2.227-25.813 3.206-6.193.704-12.397 1.348-18.612 1.807-6.919.51-13.895 1.438-20.775 1.016-14.426-.884-28.799-2.595-43.205-3.839-6.086-.526-12.206-.64-18.299-1.097-16.747-1.256-33.485-2.648-50.235-3.88-10.692-.787-21.399-1.37-32.097-2.073-13.151-.865-25.242-9.725-26.042-24.74-.169-3.172-1.27-4.599-3.951-5.714-13.13-5.46-26.186-11.095-39.317-16.55-12.08-5.017-24.213-9.902-36.337-14.811-15.943-6.456-31.947-12.762-47.836-19.348-13.828-5.73-27.464-11.924-41.306-17.616-16.808-6.911-33.76-13.47-50.62-20.257-20.653-8.312-41.284-16.684-61.91-25.064-14.757-5.995-29.518-11.979-44.226-18.092-11.72-4.872-23.379-9.897-35.035-14.924-6.754-2.913-14.275-4.877-19.976-9.21-8.236-6.26-15.175-14.239-22.582-21.57-3.41-3.376-6.637-6.938-9.913-10.448-2.502-2.682-5.216-2.348-7.945-.539-21.544 14.282-43.173 28.44-64.513 43.02-4.337 2.964-7.249 7.406-8.053 13.344-1.217 8.986-3.677 17.798-5.446 26.717-1.894 9.552-3.582 19.145-5.394 28.714-1.334 7.045-2.857 14.058-4.054 21.126-1.768 10.44-3.232 20.93-4.997 31.371-1.324 7.84-2.9 15.636-4.395 23.446-2.17 11.341-3.629 22.887-6.756 33.959-3.436 12.165-8.189 23.983-12.784 35.79-6.851 17.606-17.673 32.68-30.48 46.443-11.083 11.91-21.618 24.357-33.106 35.857-12.401 12.413-27.042 22.073-43.108 29.052-8.036 3.491-16.613 4.742-25.965 4.6-13.433-.206-23.307-6.977-33.723-13.002-14.445-8.355-28.396-17.575-42.416-26.646-10.888-7.044-21.474-14.554-32.346-21.625-11.646-7.575-23.176-15.404-35.292-22.165-14.613-8.154-29.482-16.008-44.818-22.657-12.069-5.233-24.96-8.617-37.583-12.509a2720 2720 0 0 0-52.069-15.494c-11.813-3.385-23.775-6.245-35.624-9.507-12.614-3.472-25.123-7.337-37.772-10.67-12.69-3.344-25.543-6.062-38.235-9.394-10-2.625-19.825-5.91-29.799-8.638-9.382-2.567-18.865-4.767-28.293-7.169-10.978-2.797-21.922-5.734-32.925-8.428-8.098-1.983-15.724-4.838-22.791-9.418C39.5 603.66 32.583 595.513 30.489 583.1c-2.02-11.977-2.735-23.531 3.787-34.223 2.53-4.148 5.896-8.227 9.826-10.992 9.142-6.432 18.894-11.798 29.845-14.975 13.131-3.81 25.955-8.665 39.029-12.685 14.079-4.328 28.316-8.138 42.442-12.316 11.925-3.527 23.835-7.116 35.67-10.93 17.816-5.739 35.561-11.695 53.334-17.566 7.34-2.424 14.694-4.805 22.004-7.315 6.344-2.178 8.617-7.399 9.61-13.442 1.055-6.43 1.932-12.89 3.08-19.303 1.893-10.576 4.312-21.072 5.817-31.699 1.445-10.203 5.722-18.864 12.482-26.336 9.149-10.111 18.407-20.134 27.9-29.923 26.962-27.804 53.955-55.583 81.164-83.146 14.512-14.702 29.571-28.862 44.247-43.404a8124 8124 0 0 0 53.708-53.707c17.006-17.17 33.77-34.582 50.806-51.722 8.23-8.28 16.23-16.982 25.45-24.034 9.42-7.206 20.638-10.619 32.987-10.432 25.493.386 51-.096 76.495.203 12.651.148 20.608-6.488 27.508-16.043 6.74-9.333 12.065-19.709 21.626-27.002 9.615-7.335 20.232-7.673 31.306-6.625 6.658.63 13.332 1.407 19.893 2.669 8.917 1.715 17.692 4.166 26.602 5.925 14.365 2.835 28.85 5.079 43.174 8.097 15.553 3.277 31.001 7.065 46.455 10.796 14.624 3.532 29.201 7.26 43.79 10.938 9.4 2.37 18.871 4.512 28.155 7.276 15.005 4.469 30.004 9.019 44.782 14.173 17.232 6.01 34.45 12.175 51.246 19.287 12.126 5.134 23.753 11.57 35.232 18.079 10.982 6.227 21.69 12.995 32.145 20.077 12.1 8.195 23.775 17.016 35.666 25.522 13.64 9.757 27.313 19.467 41.528 29.593l-16.908 20.346c-9.885-7.073-19.415-13.967-29.023-20.753-27.67-19.542-54.233-40.786-84.173-56.886-12.992-6.987-26.64-12.893-40.366-18.34-16.178-6.419-32.671-12.09-49.205-17.549-11.43-3.774-23.178-6.577-34.749-9.933-8.3-2.408-16.483-5.247-24.832-7.461-8.04-2.133-16.238-3.667-24.346-5.551-3.646-.847-7.244-1.905-11.27-3.23-1.067-.455-1.729-.548-2.39-.642"/></svg>