<svg xmlns="http://www.w3.org/2000/svg" viewBox="0 0 1973 830" xml:space="preserve"><path fill="#fff" d="M659.052 49.277c1.74-.723 3.48-1.446 5.74-1.983 1.082-.312 1.644-.809 2.206-1.305 1.093-.296 2.187-.592 3.832-.669 1.773-.537 2.995-1.292 4.217-2.047.736-.068 1.472-.136 2.755-.001 1.779-.544 3.01-1.29 4.242-2.035 1.09-.365 2.178-.73 3.762-.895 1.074-.237 1.655-.675 2.235-1.113 13.763-3.61 27.633-6.508 41.91-7.23 4.555-.231 9.065-1.661 13.608-1.73 6.09-.09 12.207.446 18.286 1.006 8.653.798 17.309 1.667 25.915 2.855 14.731 2.034 29.46 4.128 44.123 6.594 12.854 2.162 25.655 4.682 38.407 7.386 14.94 3.168 29.817 6.634 44.69 10.107 10.753 2.51 21.501 5.065 32.162 7.931 9.074 2.44 18.007 5.394 27.025 8.045 9.015 2.65 18.088 5.11 27.081 7.831 9.728 2.944 19.454 5.917 29.069 9.205 9.773 3.343 19.456 6.964 29.095 10.68 19.814 7.635 39.262 16.035 56.911 28.077 24.036 16.398 48.11 32.74 72.122 49.17 9.553 6.536 18.986 13.245 28.89 20.166-5.15 7.109-10.068 13.9-14.895 20.566-.64-.047-1.03.045-1.255-.109a37630 37630 0 0 1-53.034-36.421c-15.231-10.482-30.112-21.52-45.761-31.334-15.495-9.717-31.645-18.354-49.143-24.281-12.98-4.397-25.547-10.013-38.514-14.456-13.16-4.509-26.58-8.262-39.896-12.313-9.916-3.016-19.772-6.277-29.796-8.882-10.507-2.73-21.197-4.753-31.784-7.185-15.044-3.455-29.999-7.336-45.117-10.42-17.389-3.546-34.897-6.526-52.388-9.553-12.54-2.17-25.1-4.304-37.722-5.892-7.53-.947-15.22-.542-22.799-1.205-20.877-1.828-41.105 2.393-60.943 7.615-20.79 5.473-40.582 13.976-60.053 23.322-17.537 8.416-32.68 20.129-47.99 31.658-6.324 4.762-11.432 11.14-17.086 16.791l-63.616 63.583c-24.34 24.326-48.642 48.692-73.046 72.954-9.07 9.017-18.76 17.436-27.503 26.75-16.617 17.702-32.746 35.86-49.097 53.812-10.968 12.04-22.136 23.903-32.901 36.12-8.027 9.11-15.514 18.692-23.31 28.006-9.222 11.02-18.532 21.966-27.78 32.964-8.562 10.182-16.766 20.69-25.769 30.464-4.836 5.25-10.745 9.657-16.661 13.732-9.071 6.248-17.909 12.92-28.7 16.349-14.818 4.708-29.457 9.976-44.202 14.915a3153 3153 0 0 1-37.3 12.251c-10.47 3.363-21.01 6.51-31.493 9.832-10.567 3.349-20.851 7.543-29.137 15.035-4.8 4.34-3.316 10.957-2.433 16.439 1.426 8.855 9.122 14.737 18.237 16.742 9.96 2.191 19.705 5.345 29.573 7.967 10.181 2.705 20.418 5.2 30.593 7.924 12.226 3.274 24.384 6.806 36.625 10.022 15.686 4.12 31.452 7.933 47.13 12.081 9.873 2.612 19.62 5.698 29.476 8.38 9.704 2.642 19.506 4.923 29.204 7.582 10.95 3.002 21.846 6.202 32.738 9.406 9.308 2.737 18.58 5.597 27.864 8.415 7.598 2.306 15.244 4.467 22.774 6.978 18.454 6.154 35.856 14.678 52.708 24.29 11.391 6.496 22.666 13.235 33.672 20.363 18.962 12.28 37.542 25.154 56.535 37.385 13.37 8.61 26.83 17.193 40.876 24.603 10.054 5.305 20.776 2.917 30.362-2.578 23.496-13.468 42.26-32.314 59.288-53.069 5.521-6.73 11.757-12.946 16.657-20.09 4.818-7.027 8.76-14.746 12.334-22.508 3.208-6.97 5.803-14.292 7.92-21.674 2.503-8.732 4.41-17.652 6.198-26.567 2.144-10.691 3.992-21.446 5.783-32.204 1.878-11.29 3.525-22.617 5.299-33.924.683-4.355 1.242-8.743 2.2-13.04 2.831-12.686 5.97-25.304 8.716-38.008 1.65-7.632 2.636-15.405 4.196-23.058 1.956-9.598 11.54-16.133 21.232-14.756.164.024.334 0 .5.017 8.874.914 10.788-.006 11.97-11.065 1.902-17.813 10.898-30.298 25.916-39.126 11.194-6.58 22.08-13.752 33.61-19.671 11.254-5.777 23.192-5.982 35.094-.946 7.52 3.182 11.094 9.947 15.401 16.066 9.302 13.212 19.79 25.281 34.11 33.204 6.195 3.427 13.004 5.765 19.591 8.459 16.165 6.61 32.364 13.139 48.549 19.7 14.097 5.715 28.218 11.375 42.286 17.161 15.963 6.567 31.834 13.36 47.83 19.846 15.473 6.275 31.09 12.198 46.576 18.443 11.182 4.508 22.234 9.34 33.38 13.94 21.1 8.705 42.25 17.289 63.331 26.037 12.268 5.091 24.422 10.456 36.672 15.591 6.105 2.56 12.22 5.156 18.495 7.235 7.486 2.48 12.535 10.807 12.128 18.305-.271 4.99 1.755 6.73 6.504 6.944 9.715.438 19.414 1.22 29.117 1.903 19.08 1.343 38.169 2.59 57.235 4.115 17.877 1.43 35.72 4.254 53.597 4.424 14.165.134 28.36-2.808 42.54-4.41 6.025-.68 12.117-1.05 18.051-2.214 13.531-2.654 27.048-5.443 40.447-8.685 11.334-2.742 22.65-5.739 33.691-9.461 12.39-4.178 24.568-9.046 36.648-14.071 15.17-6.31 30.102-13.198 45.226-19.626 13.78-5.857 27.62-11.585 41.541-17.096 20.449-8.095 40.868-16.293 61.546-23.765 11.675-4.219 23.678-7.94 35.843-10.252 9.051-1.72 18.6-.852 27.93-1.063 3.829-.086 7.666.148 11.492.012 4.942-.176 9.874-.774 14.815-.85 27.937-.425 55.877-.65 83.81-1.228 3.595-.074 7.247-1.538 10.71-2.802 5.49-2.004 5.267-7.485 5.34-11.648.384-21.993.368-43.999.098-65.995-.109-8.832-1.91-17.392-9.871-22.999-1.661-1.17-3.675-2.304-5.626-2.51-5.903-.624-11.85-.927-17.788-1.097-15.105-.434-30.215-.65-45.32-1.098a8757 8757 0 0 1-60.625-2.03c-16.052-.588-32.097-1.37-48.15-1.953a9803 9803 0 0 0-60.771-2.014c-13.608-.41-27.223-.577-40.829-1.02-17.212-.563-34.474-.678-51.606-2.204-9.117-.812-16.236-6.01-20.508-15.103-3.614-7.69-7.326-15.99-15.37-20.299-11.758-6.3-23.808-12.06-35.76-17.995-15.7-7.796-31.604-15.207-47.035-23.501-4.808-2.584-6.806-.691-9.398 2.305-4.256 4.921-8.3 10.055-12.864 14.673-7.1 7.186-23.58 8.485-32.284 2.138-17.855-13.022-36.33-25.191-54.483-37.808-15.794-10.977-31.481-22.107-47.24-33.135-15.736-11.013-31.503-21.983-47.783-33.34-2.76 3.61-5.518 7.22-8.507 11.132l-16.127-11.62 33.574-46.783 16.227 11.653-9.818 13.892c24.69 17.318 49.305 34.668 74.01 51.887 24.544 17.107 49.18 34.083 74.652 51.723 3.043-3.458 6.414-7.193 9.677-11.018 7.437-8.715 16.08-15.903 28.221-13.963 6.807 1.087 13.36 4.568 19.692 7.657 17.368 8.471 34.558 17.308 51.819 25.997 10.668 5.37 21.366 10.682 32 16.12 8.474 4.336 12.606 12.674 16.168 20.515 3.297 7.26 8.08 9.23 14.934 9.37 17.606.363 35.215.631 52.816 1.14 18.388.532 36.769 1.327 55.154 1.956 10.613.363 21.23.603 31.844.936 21.378.67 42.757 1.35 64.135 2.053 19.711.648 39.422 1.312 59.131 2.008 17.711.625 35.456.824 53.117 2.144 10.135.757 18.054 6.975 24.353 14.7 7.596 9.313 12.65 19.683 12.194 32.229-.34 9.366-.166 18.756-.025 28.133.176 11.686.907 23.374.74 35.051-.16 11.112-.353 22.27-6.701 32.31-4.028 6.37-9.836 10.432-16.34 12.865-10.025 3.751-20.697 4.469-31.482 4.334-22.829-.285-45.665-.154-68.497.018-14.609.11-29.231.277-43.817 1.018-11.078.562-21.91 2.726-32.356 6.886-19.623 7.816-39.426 15.182-59.102 22.868-15.017 5.867-30.034 11.746-44.905 17.968-19.397 8.115-38.46 17.056-58.023 24.733-15.774 6.19-32.033 11.165-48.158 16.427-11.407 3.721-22.836 7.484-34.469 10.37-10.094 2.504-20.47 3.912-30.757 5.59-5.654.923-11.379 1.412-17.073 2.083-8.3.979-16.58 2.26-24.908 2.835-9.907.684-19.889 1.417-29.78.934-12.945-.633-25.825-2.532-38.75-3.694-6.58-.592-13.2-.718-19.797-1.132-21.089-1.321-42.193-2.47-63.256-4.13-8.096-.638-16.297-1.763-24.089-3.954-8.678-2.441-14.877-8.227-16.343-17.806-.423-2.763-.78-5.536-1.304-9.285-18.47-7.467-37.46-15.064-56.384-22.818-13.6-5.572-27.093-11.408-40.675-17.024a6731 6731 0 0 0-46.248-18.905c-24.008-9.72-48.046-19.36-72.06-29.065a18849 18849 0 0 1-49.865-20.256c-13.04-5.313-26.026-10.76-39.103-15.977-15.18-6.057-30.612-11.523-45.576-18.066-6.593-2.883-12.508-7.51-18.365-11.842-11.917-8.813-21.34-20.019-29.508-32.3-5.693-8.561-8.673-10.372-20.181-4.766-6.683 3.255-12.705 7.859-19.055 11.806-3.04 1.889-6.074 3.809-9.243 5.46-9.148 4.763-13.238 12.728-14.665 22.5-.922 6.312-1.815 12.634-2.958 18.908-.951 5.222-10.15 12.633-15.444 12.658-3.833.018-7.69.156-11.491-.21-3.803-.368-5.427 1.346-6.082 4.779-4.58 24.01-9.288 47.994-13.737 72.028-1.161 6.271-1.314 12.725-2.347 19.026-1.844 11.251-3.91 22.47-6.068 33.666-1.444 7.495-2.677 15.094-4.946 22.352-3.858 12.338-8.033 24.615-12.857 36.602-5.544 13.775-13.566 26.24-23.095 37.62-8.25 9.85-16.971 19.305-25.349 29.05-13.943 16.22-30.58 29.084-48.927 39.903-12.71 7.496-26.591 11.055-40.944 8.655-8.022-1.342-15.736-5.84-23.029-9.917-12.35-6.904-24.424-14.34-36.304-22.034-14.61-9.463-28.85-19.499-43.352-29.132-10.145-6.74-20.133-13.816-30.777-19.68-16.757-9.23-33.472-18.921-51.19-25.924-19.675-7.776-40.432-12.835-60.763-18.925-14.288-4.279-28.608-8.46-42.992-12.401-18.305-5.017-36.713-9.662-55.032-14.632-12.506-3.393-24.897-7.207-37.41-10.57-9.878-2.656-19.903-4.762-29.791-7.383-12.675-3.36-25.255-7.074-37.917-10.484-12.05-3.245-24.256-5.947-36.202-9.527-12.51-3.749-31.173-16.337-32.89-35.093-1.11-12.124-2.748-24.3 5.323-34.411 4.802-6.016 10.962-11.681 17.705-15.245 10.246-5.414 21.43-9.136 32.395-13.08 13.097-4.71 26.344-9.017 39.597-13.279 14.646-4.71 29.444-8.956 44.046-13.796 17.44-5.78 34.416-12.79 48.853-24.441 6.28-5.069 11.867-11.135 17.13-17.294 10.126-11.849 19.716-24.154 29.68-36.145a4280 4280 0 0 1 36.813-43.744c6.001-7.03 12.285-13.821 18.54-20.63 16.294-17.738 32.32-35.737 49.053-53.052 20.248-20.95 41.11-41.306 61.712-61.913 4.703-4.704 9.43-9.385 14.484-14.444.579-.512.709-.723.73-1.002 0 0 .45-.185 1.017-.272 1.02-.744 1.476-1.4 1.931-2.057 0 0 .029.044.336.005.76-.7 1.214-1.36 1.667-2.02.996-1.1 1.992-2.2 3.32-3.661.574-.507.706-.72.728-1 0 0 .456-.177 1.023-.263 1.022-.742 1.476-1.399 1.93-2.055 0 0 .025.038.334.002.764-.693 1.219-1.35 1.673-2.006.805-.91 1.61-1.82 3.023-2.882 1.067-.805 1.525-1.457 1.983-2.108 1.136-1.246 2.272-2.492 4.078-3.844 1.42-1.12 2.172-2.136 2.924-3.152 1.794-1.912 3.59-3.824 6.063-5.843 1.435-1.117 2.19-2.128 2.945-3.14 2.784-2.908 5.568-5.815 8.98-8.9 1.083-.827 1.539-1.48 1.995-2.131 0 0 .027.042.335.004.76-.693 1.212-1.349 1.664-2.005 0 0 .028.043.334.004.758-.697 1.209-1.355 1.66-2.013 0 0 .03.054.35.008.792-.988 1.263-1.93 1.734-2.871 0 0-.04-.074.36-.035 2.804-2.638 5.21-5.316 7.617-7.993.486-.605.973-1.21 2.1-1.908 1.71-1.127 2.781-2.162 3.853-3.197 0 0 .119-.459.552-.678 5.436-5.25 10.44-10.282 15.443-15.313 0 0 .025.039.335.005.762-.692 1.213-1.349 1.664-2.006 0 0 .026.04.353.01 4.436-4.36 8.545-8.69 12.653-13.02.049-.345.218-.613 1.067-.92 1.014-.767 1.47-1.42 1.926-2.071 0 0 .027.041.336.004.76-.692 1.212-1.349 1.663-2.005 0 0 .028.042.335.004.758-.697 1.209-1.354 1.66-2.012 0 0 .03.051.353.022 1.099-1.024 1.875-2.02 2.652-3.015 0 0 .029.042.355.011 2.099-2.024 3.871-4.019 5.643-6.013 0 0 .029.046.355.016 1.768-1.688 3.21-3.346 4.653-5.004 0 0 .022.033.336.003.763-.689 1.213-1.347 1.663-2.005 0 0 .023.035.352.007 1.775-1.683 3.22-3.337 4.665-4.992 3.123-2.576 6.245-5.152 10.043-7.831 1.436-.79 2.197-1.478 2.958-2.165 1.102-.97 2.204-1.939 3.987-2.936 1.479-.934 2.277-1.84 3.075-2.748 2.081-1.394 4.162-2.788 6.784-3.987 3.75-1.97 6.959-4.136 10.167-6.3 1.439-.965 2.877-1.93 4.82-2.7 1.409-.568 2.312-1.331 3.214-2.095 0 0 .445-.157 1.056-.166 1.706-.7 2.8-1.39 3.893-2.08 1.765-.958 3.53-1.917 5.843-2.669 2.423-.96 4.298-2.126 6.174-3.292 1.108-.627 2.217-1.254 3.818-1.698 1.05-.324 1.609-.83 2.167-1.337.778-.291 1.557-.583 2.83-.686 1.053-.313 1.61-.814 2.169-1.315.778-.292 1.557-.583 2.835-.678 1.41-.533 2.318-1.263 3.226-1.993.432-.07.863-.139 1.818.004 2.743-.869 4.962-1.95 7.18-3.031"/></svg>