<svg viewBox="0 0 1957 997" xml:space="preserve" xmlns="http://www.w3.org/2000/svg"><path d="M432.828 48.021c-20.27.014-40.54.11-60.81.168-1.131.276-2.261.552-3.547.772 1.178-.22 2.24-.521 3.146-.856-2.143.232-3.885.548-5.39 1.15l.171-.013q-.3.03-.615.057c-9.706.154-18.733.553-27.76.951-.32.215-.639.429-1.037.611.322-.188.576-.43.733-.703-.765.2-1.238.487-1.569.996q-.165.042-.35.076c-.91-.144-1.346-.097-1.782-.048-.497.226-.994.453-1.598.644a4 4 0 0 0 1.254-.736c-1.124.2-1.912.49-2.522 1.04q-.227.041-.476.073c-15.546-.75-29.452 3.857-43.018 9.008-15.83 6.01-31.432 12.74-46.717 20.03-11.824 5.639-23.532 11.85-34.347 19.197-14.522 9.864-28.85 20.26-41.965 31.89-18.698 16.582-35.55 35.157-50.383 55.317-7.446 10.12-13.835 21.086-19.97 32.078-4.585 8.213-8.057 17.053-11.909 25.666-2.556 5.716-5.364 11.38-7.254 17.322-3.513 11.047-6.622 22.234-9.543 33.455-1.87 7.187-3.102 14.541-4.62 21.82-.021.89-.041 1.78-.19 2.797.118-.94.068-1.83-.155-2.64-.362 1.4-.382 2.641-.074 3.81q.043-.158.078-.316a15 15 0 0 1-.148.638c-.44.833-.48 1.27-.522 1.707-.045.659-.09 1.317-.494 2.473-.412 7.506-.467 14.515-.521 21.524.01 1.912.021 3.823-.088 5.89a33 33 0 0 0-.277-5.68c-.347 3.06-.334 5.914.037 8.663l-.063.537c-.484 15.244-.53 29.922-.576 44.6.074.823.068 1.846.129 2.702a18 18 0 0 0-.486-2.529c-.12 2.4.12 4.626.652 6.604.016-.402-.027-.757-.027-1.145.008.543.083.923.072 1.516-.28 1.362-.31 2.107-.34 2.851.302 1.05.824 2.097.957 3.149-.139-1.049-.703-2.074-1.34-2.94-.38 10.75-.378 21.29.002 31.715.513-.82.976-1.578 1.201-2.322-.228.764-.705 1.591-1.267 2.644-.401.872-.357 1.306-.313 1.74 1.664 1.547 2.152 3.182 2.012 4.924.12-1.636-.393-3.158-2.104-4.476-.03 3.5.032 6.553.463 9.496.614-1.312 1.175-2.608 1.461-3.854-.296 1.349-.876 2.76-1.527 4.245-.392 1.555-.348 2.61-.303 3.666 2.065 2.315 2.327 4.744 1.836 7.35-.304 1.611-.892 3.29-1.53 5.052-.76 46.987-1.165 93.4-1.347 139.812-.05 12.907.495 25.818.893 38.723.126 4.085.162 8.271 1.088 12.213 3.865 16.464 7.455 33.033 12.318 49.21 3.719 12.373 8.354 24.639 14.111 36.188 7.019 14.08 14.88 27.884 23.78 40.842 9.001 13.105 19.637 25.098 29.703 37.46 16.905 20.76 36.882 38.133 59.244 52.757 7.123 4.658 14.625 8.736 21.95 13.088 7.45 4.427 14.638 9.389 22.407 13.154 8.606 4.171 17.716 7.318 26.655 10.785 6.598 2.56 13.222 5.07 19.93 7.323 6.373 2.141 12.838 4.035 19.325 5.808 3.112.85 6.385 1.093 9.557 1.746 5.372 1.108 10.674 2.936 16.092 3.364 10.227.807 20.515.836 30.777 1.19 2.976.002 5.951.005 9.07.13a80 80 0 0 0-8.859.246c4.67.378 9.137.389 13.494.033l.633.055c2.241.4 3.95.35 5.658.3 1.103-.357 2.205-.876 3.307-1.257-1.045.388-2.026.94-2.844 1.344 231.172.088 461.88.086 692.588.101 45.354.003 90.71.074 135.998-.283q.437.215.877.453c.088 5.138.088 9.412.088 13.547h19.318v-55.467h-20.386v16.77h-5.37c-222.267 0-444.533.078-666.8-.051-64.58-.038-129.16-.67-193.74-1.03-.899-.014-1.809-.04-2.875-.185.966.124 1.882.077 2.712-.156-1.403-.355-2.646-.366-3.816-.05q.491.123.969.19a17 17 0 0 1-1.406-.261c-6.93-1.408-13.396-2.19-19.754-3.49-7.237-1.48-14.513-3.006-21.528-5.268-9.884-3.187-19.564-7.011-29.29-10.672-6.415-2.414-13-4.544-19.075-7.65-8.589-4.392-16.908-9.354-25.102-14.46-10.166-6.334-20.617-12.395-29.976-19.798-11.103-8.782-21.534-18.505-31.584-28.496-8.524-8.475-16.693-17.456-23.926-27.04-8.689-11.511-16.637-23.646-24.119-35.988-5.702-9.404-10.92-19.255-15-29.449-4.61-11.518-7.77-23.621-11.441-35.508-4.796-15.527-9.491-31.088-9.022-47.619-.24-.52-.48-1.04-.682-1.666.202.54.47.992.772 1.322-.212-1.126-.513-1.912-1.07-2.521q-.033-.18-.06-.375c.141-1.283.08-2.019.017-2.756a7 7 0 0 1-.57-.994c.18.3.408.537.663.688-.19-.763-.468-1.238-.962-1.573a7 7 0 0 1-.102-.498c.5-7.874.899-15.134 1.111-22.4.393-13.425.894-26.852.957-40.28.127-26.99-.01-53.98-.039-80.97-1.44-.745-1.996-1.599-2-2.567.03.86.615 1.6 2.082 2.143.025-2.146-.034-3.87-.441-5.504-.778.975-1.398 1.922-1.586 2.777.195-.964.839-2.036 1.662-3.224.377-3.566.328-6.595.28-9.625-1.717-1.543-2.226-3.18-2.077-4.93-.13 1.64.4 3.165 2.158 4.48.027-3.487-.027-6.526-.455-9.46-.724 1.478-1.372 2.935-1.617 4.322.256-1.494.927-3.072 1.692-4.746.398-2.24.348-3.953.298-5.666-.82-1.03-2.248-2.051-2.607-3.09.36 1.033 1.798 2.001 2.691 2.627.027-14.16-.03-27.856-.466-41.486-.795 1.057-1.695 2.073-2.11 3.086.418-1.03 1.334-2.11 2.186-3.415.408-.837.36-1.279.312-1.722-.53-1.023-1.463-2.044-1.691-3.069.23 1.018 1.17 1.988 1.773 2.606.03-23.825-.023-47.189-.459-70.441-.55.85-1.059 1.638-1.281 2.412.225-.795.748-1.663 1.357-2.823 1.13-6.852 1.806-13.184 2.471-19.517.188-1.79.143-3.632.557-5.365 2.769-11.598 5.482-23.213 8.53-34.739 1.557-5.893 3.41-11.762 5.769-17.375 3.767-8.97 7.714-17.904 12.226-26.515 6.327-12.074 12.417-24.408 20.135-35.577 7.944-11.494 17.624-21.804 26.719-32.484 12.501-14.68 26.184-28.208 42.138-39.092 12.634-8.618 25.7-16.635 38.868-24.424 8.591-5.08 17.605-9.49 26.625-13.793 6.773-3.23 13.869-5.782 20.798-8.689 13.16-5.52 26.82-9.269 40.944-11.168 9.53-1.282 19.124-2.1 28.69-3.125.653-.111 1.306-.224 2.02-.283a8.5 8.5 0 0 0-1.624.365c1.429.025 2.483-.027 3.46-.383q.235.015.481.04c1.531.35 2.596.3 3.66.251.48-.105.962-.21 1.506-.267a4.2 4.2 0 0 0-1.133.351c1.104.026 1.852-.028 2.537-.377q.246.016.514.047c100.213.39 199.903.394 299.594.389 1.327 0 2.655-.1 3.982-.152 1.29-.819 2.543-2.17 3.864-2.569-1.314.4-2.515 1.762-3.4 2.654 27.493.031 54.524-.024 81.49-.459-1.44-.798-2.837-1.7-4.231-2.113 1.413.416 2.882 1.333 4.6 2.188 1.183.404 1.93.354 2.677.304.209-.527.285-1.223.596-1.619-.304.397-.329 1.103-.135 1.703 5.16.028 9.86-.027 14.492-.463-.995-1.009-2.87-1.737-4.963-2.15 2.195.42 4.214 1.172 5.385 2.225 2.201.403 3.913.354 5.625.304 1.21-1.886 3.597-2.91 6.188-2.95-2.488.062-4.757 1.107-5.73 3.034 4.491.029 8.526-.027 12.495-.46-1.201-1.182-2.714-1.945-4.28-2.315 1.66.376 3.279 1.162 4.608 2.389.836.402 1.277.351 1.72.302.998-.817 1.975-2.223 2.99-2.59-1.008.369-1.935 1.784-2.528 2.674 9.494.03 18.526-.025 27.49-.46-.95-.928-1.842-1.998-2.744-2.268.91.27 1.85 1.35 3.207 2.342 22.965.457 45.4.483 67.836.459 27.916-.03 55.832-.103 83.748-.157 1.174-.528 2.347-1.459 3.522-1.685-1.168.227-2.29 1.168-3.059 1.771 28.72.092 56.977.123 85.235.098 20.44-.018 40.88-.111 61.21-.553-.822-.463-1.6-.896-2.363-1.154.805.264 1.688.714 2.787 1.23 3.455.763 6.375 1.33 9.295 1.334 45.35.056 90.7.033 136.051.04 49.155.007 98.31.013 147.465.076 2.593.003 5.185.526 7.777.806.93-.352 1.861-.866 2.791-1.24-.88.383-1.706.931-2.389 1.338 53.515.102 106.629.113 159.743.103 7.32 0 14.642-.104 21.851-.54-1.214-.6-2.353-1.146-3.478-1.323 1.138.179 2.344.735 3.94 1.395 10.243 1.125 19.916 1.733 29.58 2.484 13.43 1.044 26.84 2.765 39.529 7.299 14.312 5.115 28.485 10.776 42.27 17.168 11.99 5.56 23.76 11.836 34.88 18.963 11.192 7.173 21.875 15.299 32.004 23.922 7.969 6.784 14.498 15.23 22.13 22.447 9.623 9.1 19.222 18.162 26.292 29.486 7.412 11.874 15.1 23.602 21.906 35.819 5.902 10.594 11.388 21.524 15.861 32.78 4.5 11.326 7.837 23.154 11.09 34.925 2.28 8.247 3.566 16.77 5.295 25.17.216.305.432.609.623.996a2 2 0 0 0-.707-.688c.22.76.519 1.228 1.035 1.553q.06.21.112.451c.151 2.31.763 4.051.757 5.791-.29 95.47-.632 190.942-.974 286.412-.002.497-.076.995-.117 1.492.009 4.834.02 9.667-.088 14.645.058-4.88-.039-9.7-.291-14.432a228 228 0 0 0 .017 22.211l-.05.967c-1.187 8.717-1.312 16.983-2.82 24.988-1.479 7.84-4.179 15.475-6.682 23.088-3.081 9.368-5.847 18.927-9.956 27.848-5.694 12.365-11.42 24.692-18.558 36.459-9.681 15.958-20.562 30.925-32.217 45.363-6.19 7.669-13.104 14.83-20.258 21.623-9.2 8.738-18.58 17.383-28.611 25.123-8.941 6.899-18.811 12.611-28.39 18.658-7.381 4.66-14.612 9.757-22.5 13.368-15.09 6.906-30.44 13.333-45.999 19.1a159.7 159.7 0 0 1-29.326 7.792c-8.894 1.468-18.103 1.027-27.174 1.428-1.193.277-2.387.554-3.767.77a19.4 19.4 0 0 0 3.367-.864c-2.15.21-3.902.515-5.414 1.104q.38-.027.75-.067-.581.068-1.215.117c-114.92-.233-229.136-.234-344.334-.234l1.686 23.953c103.803.004 207.606.008 311.41.031 1.976.001 3.952.26 6.681.667 23.512-.728 46.27-1.723 69.028-2.721.661-.03 1.362.018 1.976-.18 11.157-3.602 22.53-6.665 33.395-11.002 15.062-6.012 30.08-12.325 44.476-19.754 12.006-6.195 23.356-13.795 34.512-21.474 13.156-9.057 26.494-18.064 38.478-28.551 16.237-14.208 30.096-30.783 42.776-48.336 13.596-18.822 27.143-37.617 36.213-59.184 4.15-9.868 8.535-19.648 12.363-29.64 2.752-7.182 5.008-14.58 7.024-22.008 1.86-6.853 3.106-13.874 4.623-20.82.02-.548.04-1.094.148-1.72-.05.564.01 1.095.176 1.579.343-1.032.38-1.932.12-2.773q.071-.22.16-.454c1.12-5.173 1.748-9.906 2.376-14.638.06-.655.122-1.308.543-2.461.377-23.17.3-45.843.45-68.514.07-10.764.738-21.523.835-32.287.15-16.657-.084-33.318.08-49.975.168-16.92.673-33.836.924-50.755.101-6.805-.079-13.615-.13-20.422-.463-.873-1.242-1.743-1.524-2.618.286.865 1.083 1.684 1.635 2.288.06-13.648.01-26.965-.42-40.17-.578.644-1.1 1.214-1.29 1.773.19-.575.727-1.22 1.364-2.236.467-11.407.06-22.26.596-33.067.73-14.732-1.037-29.153-4.258-43.42-2.77-12.266-5.342-24.657-9.326-36.548-4.166-12.43-9.433-24.558-15.106-36.393-5.546-11.571-12.26-22.58-18.373-33.885-8.293-15.337-18.02-29.767-29.951-42.404-12.665-13.414-26.179-26.044-39.615-38.705-6.112-5.76-12.567-11.309-19.516-15.99-10.31-6.946-21.016-13.357-31.89-19.389-9.122-5.06-18.559-9.637-28.157-13.723-10.899-4.64-22.076-8.655-33.242-12.63-6.056-2.156-12.261-4.063-18.549-5.35-6.053-1.239-12.295-1.556-18.459-2.24-14.556-1.617-29.112-4.578-43.674-4.612-261.072-.612-522.145-.828-783.218-1.238-49.923-.078-99.846-.673-149.768-.934-18.993-.099-37.988.07-56.982.116-.182.365-.37 1.001-.55 1.19.17-.19.296-.84.089-1.282-7.724-.038-15 .014-22.16.431l-.692-.056c-1.566-.404-2.628-.355-3.69-.307-.18.365-.366 1.002-.542 1.19.167-.19.291-.839.082-1.278-6.096-.029-11.74.029-17.27.453q-.29-.027-.582-.058c-1.566-.404-2.627-.355-3.687-.307-.736.52-1.467 1.428-2.205 1.653.731-.227 1.413-1.145 1.744-1.74-12.498-.031-24.536.026-36.46.464.473.518.885.982 1.282 1.195-.423-.214-.926-.692-1.744-1.269-31.318-.467-62.061-.502-92.805-.48m1141.686 887c-103.804-.023-207.605-.025-311.473.409 1.38.811 2.823 1.51 4.268 1.511 102.89.043 205.782.033 308.673-.02 1.679 0 3.356-.579 4.746-1.194-2.263-.446-4.239-.705-6.214-.706M59.035 467.324c.49-2.487.22-4.839-1.928-6.896-.03 4.169.03 7.884.465 11.486.6-1.555 1.17-3.098 1.463-4.59M1425.281 74.1a4.5 4.5 0 0 0-1.025.228 4.7 4.7 0 0 1 1.025-.228M59.64 324.094c-.332.72-.364 1.328-.116 1.9.326-.695.37-1.353.116-1.9m1849.863 327.918c-.342.691-.402 1.345-.16 1.894.349-.714.395-1.322.16-1.894M388.841 935.133" style="fill:#fff;fill-opacity:1"/></svg>