<svg xmlns="http://www.w3.org/2000/svg" viewBox="0 0 1849 984" xml:space="preserve"><path fill="#fff" d="M1237 888.046c78.997-.013 157.495.18 235.99-.176 21.302-.097 42.643-1.298 63.871-3.108 9.196-.785 18.441-3.623 27.15-6.894 15.405-5.786 30.909-11.673 45.455-19.272 15.024-7.848 29.187-17.443 43.29-26.923 10.239-6.883 20.306-14.224 29.464-22.457 9.797-8.806 18.98-18.444 27.442-28.546 9.641-11.511 18.593-23.66 27.108-36.038 9.76-14.189 17.855-29.383 24.31-45.41 3.456-8.583 8.009-16.829 10.506-25.668 3.282-11.613 4.592-23.77 7.549-35.492 3.185-12.632 1.458-25.353 1.92-38.028.502-13.754.657-27.52 1.028-41.28.258-9.6.889-19.196.902-28.796.097-71.17.196-142.341-.067-213.51-.028-7.66-2.182-15.347-3.682-22.956-1.377-6.977-3.47-13.815-4.768-20.804-1.944-10.47-6.165-19.886-11.429-29.083-8.89-15.535-19.13-30.025-31.686-42.758-15.068-15.28-32.288-27.894-51.29-37.729-10.78-5.58-22.212-10.226-33.806-13.827-12.743-3.956-25.944-6.564-39.067-9.133-11.18-2.188-22.559-3.347-33.806-5.224-10.203-1.703-20.331-3.854-30.523-5.63-7.224-1.26-14.522-2.095-21.744-3.363-6.522-1.145-12.96-2.774-19.484-3.907-6.881-1.194-13.852-1.876-20.728-3.094-21.396-3.79-43.024-5.042-64.598-3.644-11.736.76-23.353 3.38-34.745 7.847-10.061 3.946-17.072 9.93-23.614 17.945-3.99 4.888-2.843 10.279-3.644 15.335-.88 5.566.253 11.473.666 17.22 1.273 17.707 2.648 35.406 3.915 53.114.214 2.986-.021 6.003.13 8.996.954 18.798 1.924 37.595 2.958 56.388.598 10.864 1.348 21.719 1.988 32.58.697 11.848 2.104 23.72 1.78 35.543-.264 9.699-3.814 18.752-7.676 27.961-4.498 10.723-14.658 13.888-21.424 21.25-1.03 1.12-3.317 1.252-5.07 1.51-7.065 1.044-14.386 3.57-21.174 2.57-12.528-1.848-22.303-8.572-27.379-21.204-3.773-9.392-8.262-18.547-13.131-27.425-2.039-3.715-5.42-7.17-9.008-9.461-7.337-4.685-17.242 1.162-16.907 9.74.883 22.632 1.929 45.26 3.027 67.883.527 10.857 2.146 21.73 1.782 32.545-.462 13.705-4.95 26.506-15.173 36.15-3.626 3.42-9.039 5.125-13.855 7.072-12.217 4.94-25.064 5.159-38.068 5.15-205.159-.125-410.318-.146-615.477.043-10.444.01-20.937.81-31 5.422-5.186 2.376-10.593 4.12-15.434 7.397-4.714 3.19-7.941 7.3-10.95 12.078-6.394 10.159-6.294 20.225-1.02 30.516 3.439 6.713 7.145 13.297 10.923 19.827 7.483 12.936 16.332 25.25 22.316 38.836 6.13 13.915 8.321 29.132 4.598 44.547-1.097 4.541-1.4 9.283-2.607 13.788-2.84 10.613-8.75 19.63-15.36 28.246-9.111 11.875-20.045 22.058-33.234 28.74-8.326 4.218-17.709 7.824-27.974 5.743-6.077-1.232-12.384-1.451-18.605-1.83-10.716-.652-19.553-5.686-27.19-12.496-6.712-5.986-13.026-12.63-18.469-19.78-9.917-13.026-19.085-26.623-28.515-40.018-9.524-13.526-18.915-27.146-28.494-40.632-10.175-14.328-20.538-28.522-30.744-42.827-3.316-4.647-6.116-9.684-9.645-14.153-7.905-10.011-17.794-17.73-30.158-21.061-7.023-1.892-14.609-2.279-21.947-2.318-39.33-.212-78.666-.39-117.993.032-17.267.186-33.246 5.416-45.967 17.722-6.55 6.336-13.164 12.946-18.107 20.506-4.719 7.216-4.403 16.188-3.198 24.727 1.104 7.82 5.539 14.22 8.98 21.09 6.444 12.865 12.345 26.001 18.548 38.988 6.934 14.514 14.696 28.42 25.68 40.477 10.274 11.277 21.902 20.35 35.873 26.455 7.326 3.2 14.455 6.916 21.945 9.654 4.913 1.796 10.274 2.53 15.502 3.254 6.809.943 13.725 2.241 20.523 1.91 16.733-.812 33.405-3.033 50.138-3.588 11.135-.37 22.45.421 33.45 2.166 4.884.775 9.717 4.59 13.661 8.063 11.646 10.254 22.034 21.742 26.777 36.923 2.012 6.44 2.747 13.367 3.34 20.136.55 6.286.04 12.659.175 18.99.233 10.937.472 21.877.953 32.806.47 10.683 5.837 15.612 16.599 15.613 103.496.005 206.992.122 310.488-.034 105.934-.16 211.867-.541 317.8-.934 28.096-.104 56.19-.746 84.285-.852 9.401-.036 18.806.825 28.69 1.299v24.44h-5.78c-188.326.014-376.652-.044-564.979.083-56.596.038-113.193.635-169.79.865-9.4.039-18.439-2.268-26.58-6.944-11.019-6.33-15.08-16.797-15.582-28.92-.474-11.424-.707-22.858-1.096-34.286-.287-8.435-.39-16.888-1.054-25.294-.842-10.682-5.635-19.642-13.14-27.2-1.644-1.654-3.22-3.386-4.954-4.94-4.34-3.887-8.942-6.71-15.288-6.42-20.18.92-40.379 1.385-60.565 2.167-14.112.546-28.373 1.225-42.048-2.39-10.322-2.727-20.135-7.513-30.008-11.769-11.89-5.124-23.584-10.901-33.13-19.762-8.381-7.778-16.456-16.05-23.606-24.955-12.89-16.053-20.803-35-29.363-53.545-5.308-11.5-11.23-22.715-16.875-34.059-5.169-10.384-7.23-21.256-5-32.755 1.252-6.46 1.702-13.297 4.242-19.223 2.691-6.279 7.12-11.918 11.34-17.415 9.603-12.512 22.28-21.394 35.904-28.97 9.186-5.106 19.047-8.086 29.65-8.169 39.27-.308 78.54-.663 117.81-.843 8.769-.04 17.605-.006 26.298.98 18.276 2.073 34.777 7.995 48.258 21.62 8.824 8.916 16.043 18.755 22.942 29.097 8.75 13.116 18.299 25.695 27.397 38.581 8.1 11.473 16.042 23.057 24.08 34.575 11.189 16.035 22.18 32.215 33.704 48.006 5.243 7.184 11.516 13.785 19.698 17.718 3.935 1.891 8.556 2.402 12.9 3.384 15.436 3.488 28.561-.908 39.927-11.617 9.257-8.722 17.47-18.232 22.003-30.267 1.63-4.324 2.388-9.108 2.744-13.744.458-5.964.501-12.023.013-17.983-.627-7.659-3.949-14.505-7.87-21.037-9.06-15.087-19.115-29.685-26.839-45.427-5.777-11.774-10.378-24.16-6.781-38.715 2.642-10.695 7.607-20.02 13.688-27.978 6.376-8.343 15.726-14.99 26.52-18.35 7.053-2.195 13.909-5.063 21.023-7.005 4.52-1.234 9.343-1.74 14.047-1.842 11.994-.26 23.997-.121 35.996-.126 18.186-.008 36.373.066 54.558-.044 5.434-.033 10.868-.863 16.298-.821 24.295.187 48.588.65 72.883.807 7.43.049 14.868-.855 22.298-.804 19.934.137 39.865.698 59.8.823 24.504.154 49.01.037 73.515.037 6.526 0 13.054.118 19.576-.031 7.436-.17 14.866-.752 22.302-.818 4.597-.042 9.203.837 13.8.798 23.434-.197 46.866-.611 70.299-.84 12.365-.122 24.732-.095 37.098-.009 37.953.267 75.905.66 113.859.848 8.431.042 16.898-1.146 25.29-.693 8.038.433 15.023-2.274 22.1-5.088 5.89-2.342 8.242-8.326 8.318-13.285.24-15.69-.93-31.4-1.554-47.103-.014-.333-.024-.666-.04-1-1.006-19.97-2.197-39.932-2.945-59.912-.408-10.884 9.279-26.024 19.376-29.487 9.76-3.347 20.407-5.408 30.283-2.065 9.49 3.212 17.613 9.498 22.209 19.188 4.329 9.126 8.779 18.194 13.26 27.247 1.433 2.898 2.784 5.96 4.839 8.383 1.28 1.51 3.75 2.59 5.788 2.78 10.952 1.02 18.773-4.8 24.126-15.918 3.242-6.733 1.708-13.882 2.136-20.856.172-2.813-.021-5.657-.16-8.48-.968-19.632-1.919-39.264-2.972-58.89-.557-10.373-1.202-20.744-2.002-31.1-1.215-15.723-2.605-31.432-3.9-47.148-.11-1.326-.043-2.666-.099-3.997-.674-16.028-1.604-32.05-1.906-48.084-.113-6.005.43-12.281 2.165-17.98 1.408-4.628 4.738-8.809 7.747-12.786 9.668-12.78 22.855-19.924 37.971-24.904 20.355-6.707 41.131-10.17 62.268-8.468 18.35 1.476 36.916 1.334 55.026 6.196 10.945 2.939 22.462 3.74 33.715 5.546 8.034 1.29 16.072 2.566 24.08 4.007 11.168 2.01 22.294 4.25 33.467 6.229 6.09 1.078 12.253 1.742 18.36 2.732 5.757.934 11.518 1.89 17.215 3.126 8.355 1.813 16.77 3.496 24.947 5.946 9.524 2.854 18.88 6.312 28.19 9.82 6.424 2.42 12.854 4.981 18.906 8.187 6.593 3.493 12.664 7.956 19.121 11.724 13.239 7.725 23.805 18.584 35.003 28.8 12.437 11.345 21.87 24.986 31.133 38.706 6.295 9.322 12.027 19.295 16.2 29.703 3.983 9.938 5.697 20.798 8.269 31.286 1.918 7.824 3.627 15.699 5.392 23.559.32 1.427.66 2.894.66 4.342-.001 43.998.072 87.997-.117 131.994-.148 34.596-.638 69.19-.953 103.784-.058 6.363.068 12.728-.015 19.09-.273 20.772-.366 41.55-1.04 62.308-.238 7.287-1.561 14.61-3.095 21.765a478 478 0 0 1-7.88 31.45c-1.816 6.34-4.29 12.532-6.947 18.58-5.823 13.259-11.164 26.82-18.168 39.443-7.435 13.402-15.835 26.42-25.141 38.59-11.299 14.775-23.24 29.225-36.3 42.434-11.341 11.47-24.082 21.777-37.203 31.21-14.808 10.645-30.209 20.729-46.318 29.226-15.476 8.164-32.065 14.297-48.403 20.719-9.277 3.647-18.948 6.393-28.605 8.925-4.385 1.15-9.168.753-13.764 1.138-3.266.274-6.515.898-9.782.996-13.935.422-27.895.335-41.81 1.103-75.503 4.172-151.062.924-226.589 1.816-33.994.402-67.997.068-101.995.069h-5.312v14.889h-19.795v-56.638h19.555v15.904z"/></svg>