<svg xmlns="http://www.w3.org/2000/svg" viewBox="0 0 1947 1112" xml:space="preserve"><path fill="#fff" d="M859.03 1079.893c-14.26-.343-28.025-.68-41.79-1.027-12.435-.313-24.868-.757-37.305-.927-31.438-.428-62.877-.694-94.315-1.105-18.935-.248-37.868-.694-56.803-.967-25.648-.37-51.299-.6-76.946-1.007-12.435-.197-24.863-.776-37.298-.976-25.315-.408-50.634-.627-75.95-1.022-15.098-.236-30.193-.75-45.292-.98-25.8-.393-51.613-.319-77.399-1.14-11.576-.369-23.097-2.44-34.647-3.71-9.461-1.038-18.955-1.831-28.384-3.105-8.041-1.087-16.05-2.51-24.004-4.124a176.3 176.3 0 0 1-48.291-17.392c-9.3-4.983-17.788-11.798-25.844-18.718-11.5-9.879-23.552-19.568-33.026-31.239-11.446-14.1-22.353-28.968-28.722-46.511-4.237-11.67-9.901-22.831-13.955-34.556-4.855-14.042-9.192-28.312-12.798-42.722-3.65-14.588-6.56-29.397-9.018-44.238-2.827-17.07-4.668-34.301-7.196-51.424-1.735-11.747-4.162-23.393-5.81-35.15-1.39-9.917-2.084-19.93-3.126-29.896-1.296-12.384-2.73-24.756-3.91-37.15-.58-6.08-.745-12.198-1.059-18.301-.399-7.761-1.445-15.566-.98-23.278.77-12.745 2.067-25.5 4.002-38.12 1.692-11.027 3.824-22.108 7.174-32.72 2.396-7.593 6.81-14.634 10.878-21.598 9.87-16.904 21.133-32.894 35.746-46.026 11.644-10.464 24.11-19.948 38.373-26.887 8.725-4.245 17.035-9.351 25.487-14.149 13.896-7.887 27.748-15.85 41.631-23.76 19.528-11.124 39.03-22.295 58.613-33.323 23.502-13.237 47.12-26.268 70.605-39.534 16.457-9.296 32.755-18.871 49.17-28.241 4.46-2.546 9.087-4.8 13.981-7.367l12.95 22.163c-4.377 2.636-8.55 5.315-12.875 7.724-18.4 10.25-36.886 20.35-55.263 30.643-14.99 8.396-29.833 17.056-44.81 25.477-17.053 9.59-34.233 18.953-51.265 28.581-17.5 9.894-34.854 20.043-52.332 29.975-12.408 7.052-24.876 14-37.385 20.87-15.728 8.637-31.081 17.809-43.451 31.08-14.709 15.782-26.972 33.386-35.295 53.251-3.821 9.12-5.694 19.298-6.96 29.188-1.776 13.873-3.023 27.932-2.896 41.897.12 13.252 2.312 26.483 3.574 39.725 1.06 11.123 1.954 22.264 3.174 33.369 1.305 11.878 2.833 23.733 4.399 35.58a1931 1931 0 0 0 4.593 32.463c1.374 9.196 2.994 18.356 4.367 27.552 1.615 10.815 2.632 21.74 4.742 32.453 1.997 10.14 4.993 20.09 7.698 30.084 2.618 9.673 5.126 19.392 8.244 28.907 2.463 7.515 5.678 14.794 8.743 22.1 3.481 8.295 6.72 16.74 10.895 24.684 3.9 7.422 8.557 14.511 13.463 21.328 12.793 17.78 29.506 31.478 46.456 45.132 11.372 9.16 24.538 14.052 37.645 18.637 12.135 4.247 25.335 5.65 38.167 7.656 15.178 2.374 30.464 4.057 45.706 6.02.821.106 1.665.043 2.498.055 25.11.352 50.221.662 75.33 1.073 15.103.247 30.2.72 45.303.968 22.776.373 45.554.608 68.33.958 20.611.318 41.221.758 61.833 1.06 25.94.378 51.88.617 77.82 1.02 13.769.213 27.533.745 41.302.954 26.936.411 53.874.647 80.81 1.056 13.607.206 27.211.607 40.816.963 10.935.286 21.867.791 32.803.93 33.443.426 66.888.67 100.331 1.09 16.434.208 32.864.703 49.297.97 22.942.371 45.885.594 68.826.993 12.6.22 25.194.798 37.794.99 27.13.41 54.262.624 81.392 1.018 16.771.244 33.54.654 50.31 1.018 13.27.288 26.538.702 39.81.914 25.938.413 51.878.712 77.817 1.081 22.268.317 44.535.648 66.802 1.008 18.444.298 36.886.646 55.33.977 18.786.337 37.572.728 56.359 1.008 25.109.376 50.22.611 75.327 1.02 11.767.192 23.528.822 35.295.954 34.63.386 69.268 1.131 103.889.679 14.857-.195 29.646-3.54 44.528-4.454 12.87-.79 25.176-4.115 36.798-8.692 10.912-4.297 21.146-10.95 30.707-17.903 15.58-11.332 24.467-28.02 32.573-45 3.738-7.833 7.668-15.658 10.403-23.856 2.09-6.263 3.305-13.096 3.386-19.694.194-15.955.416-32.01-1.102-47.858-1.483-15.496-4.61-30.895-7.929-46.137-3.41-15.666-6.94-31.436-12.214-46.532-6.009-17.197-15.029-32.657-29.13-45.351-11.95-10.76-24.978-18.943-39.789-24.273-9.834-3.539-20.188-5.713-30.406-8.084-9.97-2.314-20.05-4.171-30.105-6.101-10.695-2.052-21.444-3.825-32.123-5.951-17.99-3.581-35.97-7.221-53.905-11.069-16.015-3.435-31.923-7.38-47.954-10.734-12.895-2.699-25.941-4.669-38.852-7.298-12.397-2.525-24.691-5.549-37.056-8.233-15.058-3.27-30.204-6.153-45.192-9.71-9.096-2.157-17.953-5.317-26.942-7.94-6.01-1.754-12.164-3.064-18.07-5.105-6.718-2.322-13.235-5.229-19.835-7.894-24.848-10.035-49.792-19.843-74.505-30.203-13.985-5.863-27.571-12.672-41.369-18.987-15.974-7.312-31.99-14.532-47.975-21.823-18.314-8.354-36.609-16.749-54.917-25.115-21.125-9.653-42.281-19.237-63.375-28.958-16.717-7.704-33.328-15.636-50.045-23.339-12.28-5.658-24.7-11.011-36.976-16.677-17.388-8.025-34.675-16.267-52.053-24.314-12.127-5.615-24.175-11.45-36.56-16.44-8.223-3.313-14.433-9.061-20.507-14.887-13.09-12.554-23.445-27.259-32.41-43.043-7.92-13.948-16.446-27.43-27.72-39.191-10.575-11.033-23.02-18.868-36.66-24.965-18.693-8.358-38.47-8.148-57.731-3.48-10.947 2.654-21.443 8.287-31.293 14.032-9.739 5.68-15.755 14.74-17.426 26.463-2.3 16.134.215 31.507 5.253 46.833 2.633 8.007 5.986 15.514 9.987 22.886 6.18 11.387 15.655 19.797 26.425 25.787 12.772 7.105 26.805 11.977 40.39 17.581a6262 6262 0 0 0 63.741 25.888c10.605 4.24 21.42 7.953 32.028 12.181 13.643 5.437 27.14 11.239 40.765 16.721 14.235 5.729 28.578 11.19 42.82 16.905 16.296 6.538 32.491 13.33 48.81 19.81 10.184 4.043 20.584 7.544 30.766 11.591 12.424 4.94 24.705 10.238 37.08 15.301 7.904 3.234 15.86 6.343 23.804 9.476 12.44 4.906 24.875 9.82 37.337 14.666 10.819 4.208 21.74 8.162 32.493 12.53 13.284 5.394 26.745 10.487 39.573 16.832 15.17 7.504 29.825 16.068 44.525 24.483 3.855 2.206 7.108 5.495 10.542 8.398 14.153 11.965 26.693 25.566 36.125 41.422 6.44 10.826 10.337 23.14 15.744 34.613 6.492 13.778 7.66 28.878 10.47 43.44 2.448 12.69 2.86 26.054 2.095 38.997-.634 10.718-2.985 21.787-6.997 31.722-3.758 9.309-10.06 17.839-16.391 25.799a338 338 0 0 1-27.1 30.132c-6.1 6.016-13.697 10.51-20.583 15.736-18.972 14.4-40.568 23.991-61.775 34.432-18.925 9.318-38.51 16.679-58.555 22.91-6.625 2.059-13.72 2.595-20.59 3.888-7.5 1.413-14.973 2.984-22.488 4.314-4.026.713-8.114 1.504-12.176 1.515-147.936.414-295.872.942-443.807 1.008-96.813.043-193.628-.478-290.44-1.096-11.753-.075-23.495-2.315-35.24-3.589-6.182-.67-12.459-.949-18.506-2.263-6.603-1.435-12.91-4.194-19.489-5.792-15.903-3.864-30.017-11.975-44.166-19.499-13.264-7.053-26.975-13.871-37.969-24.732-7.964-7.869-16.398-15.265-24.651-22.84-11.717-10.754-20.175-23.87-27.487-37.817-8.722-16.633-15.706-33.916-21.297-51.9-4.566-14.687-8.494-29.284-8.892-44.755-.21-8.2-2.281-16.467-1.62-24.548 1.211-14.767 2.567-29.52 6.136-44.097 5.258-21.475 13.363-41.743 21.916-62.013 3.715-8.805 9.652-15.725 14.586-23.503 11.52-18.161 25.473-34.325 40.773-49.318 15.717-15.402 32.504-29.66 51.71-40.493 9.8-5.527 20.613-9.344 31.16-13.436 12.438-4.825 24.919-9.676 37.697-13.442 9.308-2.743 19.063-4.415 28.737-5.365 13.459-1.322 27.037-1.384 40.548-2.244 11.98-.762 23.386 2.466 35.035 4.237 16.98 2.581 32.486 9.367 47.833 16.289 14.075 6.349 27.491 14.19 41.059 21.627 15.293 8.383 30.452 17.01 45.63 25.602 20.867 11.81 41.691 23.692 62.541 35.53 25.418 14.431 50.838 28.858 76.266 43.27 22.283 12.629 44.53 25.323 66.886 37.822 17.504 9.787 35.182 19.26 52.724 28.98 16.105 8.923 32.095 18.056 48.203 26.973 12.59 6.97 25.418 13.48 39.593 16.659 5.658 1.269 11.404 2.22 17.153 2.997 15.627 2.112 31.322 1.307 46.257-3.209 9.492-2.87 18.259-8.155 24.553-17.04 6.585-9.294 10.46-19.236 11.668-30.356 1.398-12.865-4.036-23.544-11.413-33.395-6.02-8.038-12.328-15.866-18.664-23.66-6.968-8.571-16.379-14.178-25.822-19.292-10.028-5.43-20.765-9.569-31.26-14.114a4494 4494 0 0 0-44.632-19.038c-19.17-8.056-38.419-15.923-57.573-24.015-17.629-7.448-35.145-15.162-52.77-22.62-17.844-7.551-36.05-14.316-53.544-22.596-12.337-5.84-23.565-13.976-35.62-20.47-15.847-8.535-28.085-21.268-39.74-34.36-5.994-6.732-9.8-15.598-13.79-23.887-6.778-14.083-13.265-28.332-19.155-42.804-2.284-5.612-2.948-11.974-3.75-18.073-1.05-7.972-2.028-16.017-2.112-24.04-.196-18.528 4.581-36.014 12.204-52.819 2.46-5.426 3.871-11.392 6.779-16.537 4.131-7.313 8.837-14.374 13.954-21.039 8.464-11.024 16.9-22.16 26.373-32.291 9.405-10.06 19.274-20.045 30.382-28.064 15.322-11.06 31.625-20.921 48.187-30.064 20.332-11.225 41.237-21.442 62.134-31.603 18.273-8.885 36.87-17.102 55.337-25.588 10.39-4.776 20.639-9.924 31.272-14.086 6.248-2.445 13.079-3.522 19.73-4.783 6.882-1.305 13.844-2.685 20.808-2.912 5.644-.183 11.35 1.244 17.014 2.055 4.509.645 9.454.478 13.404 2.356 9.907 4.71 20.739 8.872 28.602 16.084 7.774 7.131 14.613 17.034 17.709 27.01 2.963 9.55 2.46 20.885-2.431 30.957-2.606 5.369-4.024 11.356-6.939 16.522-4.017 7.118-8.597 13.987-13.56 20.486-7.157 9.368-11.693 19.892-15.265 30.953-.693 2.147-1.303 4.324-1.891 6.502-3.943 14.606.264 28.516 5.377 41.672 2.693 6.93 9.084 12.467 16.473 16.282 12.434 6.42 25.673 7.154 38.885 5.698 10.572-1.164 20.192-4.842 27.736-14.054 14.963-18.27 24.51-39.624 35.967-59.847 12.538-22.13 27.897-42.08 43.182-62.248 15.26-20.134 35.538-34.124 55.802-48.065 12.07-8.305 25.59-14.525 38.547-21.515 9.342-5.04 18.606-10.322 28.318-14.546 9.777-4.251 19.979-6.38 31.074-5.924 11.841.486 21.986 4.642 30.485 11.638 9.038 7.438 16.169 16.519 18.431 29.273 2.044 11.523.4 21.995-3.538 32.355-1.597 4.202-5.05 7.735-7.828 11.446-8.259 11.03-16.668 21.947-24.895 33-10.754 14.448-21.479 28.918-32.052 43.498-11.75 16.203-21.174 33.717-29.122 52.08-6.543 15.12-11.052 30.492-12.305 47.18-.87 11.587.092 22.736 3.481 33.308 4.068 12.687 10.25 24.714 15.766 36.913 5.502 12.166 13.988 22.418 22.675 32.298 3.944 4.484 9.901 7.288 15.154 10.515 16.846 10.348 34.134 19.649 53.384 25.062 17.102 4.81 33.94 10.562 50.895 15.896 11.681 3.675 23.402 7.23 35.035 11.05 15.448 5.072 30.754 10.587 46.256 15.483 20.158 6.367 40.474 12.232 60.673 18.473 10.768 3.327 21.286 7.561 32.185 10.336 10.193 2.596 20.709 4.007 31.141 5.543 5.53.815 11.207 1.297 16.778 1.046 15.661-.705 31.129-2.908 45.387-9.89 3.776-1.848 7.154-4.943 10.05-8.08 12.657-13.711 22.924-29.2 29.334-46.653 5.49-14.95 6.407-30.401 3.921-46.723-2.823-18.539-11.615-34.103-19.693-50.07-6.916-13.67-15.363-26.639-23.956-39.362-6.463-9.572-14.184-18.3-21.426-27.339-12.23-15.265-24.458-30.533-36.81-45.7-9.798-12.026-19.807-23.88-29.674-35.85-12.085-14.662-24.115-29.369-36.18-44.048-11.034-13.426-22.087-26.837-33.123-40.262-9.054-11.014-17.874-22.23-27.228-32.982-5.398-6.204-11.428-11.912-17.566-17.404-9.833-8.797-19.182-18.516-30.226-25.481-12.842-8.099-27.047-14.23-41.119-20.12-10.986-4.598-22.482-8.39-34.101-10.953-12.389-2.733-25.203-3.497-37.806-5.302-24.636-3.53-49.407-1.878-74.11-1.786-27.875.104-55.746 1.196-83.617 1.897-10.819.272-21.633.727-32.452.962-18.76.406-37.526.6-56.284 1.078-21.873.557-43.747 1.168-65.61 2.046-18.66.749-37.335 1.515-55.946 2.998-18.451 1.47-36.876 3.504-55.226 5.938-13.546 1.797-27.126 3.936-40.38 7.188-15.823 3.883-31.847 7.84-46.818 14.082-19.577 8.162-38.221 18.564-57.24 28.057-10.264 5.124-20.567 10.184-30.681 15.593-14.8 7.914-29.425 16.152-44.16 24.186-13.777 7.51-27.635 14.87-41.395 22.41-19.384 10.624-38.66 21.446-58.076 32.01-18.546 10.09-37.284 19.828-55.804 29.966-16.315 8.931-32.363 18.35-48.681 27.275-12.883 7.047-25.997 13.672-39.26 20.617l9.485 20.898-17.523 9.402-32.5-60.813 17.49-9.433 10.494 17.951c11.453-6.447 22.682-12.847 33.986-19.112 13.45-7.453 26.96-14.8 40.454-22.173 9.927-5.424 19.888-10.783 29.804-16.226 13.728-7.537 27.421-15.14 41.143-22.689 21.993-12.1 43.973-24.225 66.004-36.256a8277 8277 0 0 1 54.467-29.478c19.958-10.706 39.747-21.763 60.033-31.813 20.666-10.238 41.733-19.7 62.872-28.936 6.453-2.82 13.703-3.855 20.626-5.555 10.377-2.55 20.746-5.164 31.196-7.385 11.434-2.43 22.878-5.092 34.458-6.485 16.321-1.964 32.76-3.006 49.169-4.155 13.017-.911 26.06-1.469 39.098-2.042 17.196-.755 34.397-1.405 51.598-2.036q15.409-.566 30.824-.924c17.597-.409 35.195-.714 52.791-1.108 11.777-.264 23.553-.59 35.329-.918 11.6-.324 23.197-.748 34.799-1.02 16.435-.384 32.877-.539 49.309-1.032 16.041-.481 32.103-2.182 48.102-1.674 18.194.578 36.342 2.883 54.487 4.669 26.933 2.651 52.257 11.5 76.65 22.4 15.524 6.937 30.96 14.839 43.438 27.158 14.509 14.324 29.832 27.865 43.759 42.724 10.898 11.627 20.16 24.782 30.236 37.189 6.617 8.15 13.397 16.167 20.085 24.26 9.922 12.007 19.862 24 29.73 36.05 12.906 15.76 25.797 31.531 38.607 47.368 15.026 18.577 29.502 37.623 45.075 55.727 12.621 14.671 23.492 30.48 33.442 46.918 6.68 11.035 12.107 22.841 17.87 34.414 3.007 6.036 6.106 12.132 8.124 18.529 2.521 7.996 4.521 16.25 5.728 24.542 1.114 7.662.732 15.53 1.283 23.288.728 10.234-2.22 19.795-5.612 29.115-3.24 8.899-7.046 17.687-11.563 26.003-7.437 13.695-16.935 25.855-27.947 37.074-12.68 12.919-28.432 17.492-45.348 20.166-5.447.862-10.831 2.278-16.304 2.77-5.475.49-11.028.267-16.54.121-4.101-.108-8.218-1.049-12.281-.814-8.062.466-15.503-1.804-23.067-3.992-12.217-3.533-24.586-6.547-36.774-10.17-10.468-3.113-20.756-6.824-31.155-10.175-10.246-3.3-20.543-6.446-30.797-9.723-9.044-2.89-18.017-6.01-27.1-8.772-10.66-3.24-21.462-6.022-32.096-9.346-8.298-2.593-16.362-5.933-24.656-8.54-10.622-3.339-21.4-6.175-32.054-9.414-9.895-3.009-19.662-6.446-29.582-9.365-14.849-4.37-28.463-11.517-41.974-18.752a236 236 0 0 1-28.004-17.616c-4.569-3.348-7.56-8.795-11.47-13.106-11.377-12.55-18.872-27.523-26.216-42.504-4.657-9.498-8.9-19.324-12.015-29.409-2.235-7.237-2.837-15.121-3.177-22.76-.361-8.095 1.022-16.272.593-24.357-.482-9.084 2.087-17.414 4.71-25.755 2.455-7.807 5.402-15.481 8.522-23.053 10.094-24.495 23.605-46.972 39.98-67.811 7.024-8.94 13.186-18.553 19.946-27.708 10.841-14.684 22.062-29.091 32.704-43.916 5.118-7.13 6.536-15.46 2.276-23.512-4.674-8.833-11.583-14.77-22.413-15.426-13.205-.798-23.909 5.526-34.842 11.197-12.163 6.31-23.901 13.451-36.151 19.577-15.191 7.596-28.263 18.09-41.445 28.524-15.323 12.127-25.734 28.427-37.618 43.522-15.307 19.443-25.93 41.616-38.032 62.956-9.201 16.223-18.202 32.783-31.983 45.703-4.235 3.971-10.382 6.002-15.817 8.576-17.603 8.34-36.276 7.016-54.706 4.782-6.965-.844-13.441-5.24-20.302-7.532-12.906-4.313-19.458-15.5-26.762-25.38-3.847-5.202-5.236-12.524-6.689-19.12-1.922-8.728-3.656-17.66-3.88-26.545-.164-6.477 1.635-13.214 3.647-19.486 2.984-9.305 6.194-18.682 10.666-27.325 4.964-9.593 11.694-18.254 17.186-27.596 3.223-5.482 5.224-11.674 8.348-17.224 2.737-4.86 4.461-10.275 2.383-14.998-2.803-6.368-6.572-12.886-11.58-17.573-7.305-6.84-16.943-9.664-27.016-10.99-13.729-1.805-27.253-.392-40.317 3.23-8.856 2.454-17.076 7.256-25.51 11.159-10.987 5.085-21.91 10.306-32.85 15.492-13.38 6.343-26.763 12.683-40.12 19.073-11.146 5.332-22.345 10.56-33.36 16.151-11.348 5.762-22.73 11.522-33.674 17.999-10.604 6.276-21.394 12.598-30.783 20.472-11.28 9.46-21.676 20.126-31.503 31.12-9.017 10.086-16.846 21.245-25.018 32.067-1.721 2.28-2.807 5.088-3.933 7.758-4.57 10.838-9.202 21.654-13.456 32.615-1.39 3.582-2.258 7.561-2.404 11.395-.403 10.618-.984 21.133.552 31.888 2.512 17.578 10.427 32.905 17.333 48.719 7.571 17.337 18.213 32.618 33.101 44.367 8.358 6.595 17.947 11.606 26.728 17.695 11.532 7.996 24.378 13.06 37.318 18.148 11.376 4.472 22.355 9.94 33.596 14.77 14.947 6.421 29.988 12.627 44.97 18.97 13.335 5.646 26.624 11.4 39.971 17.02 16.75 7.052 33.536 14.022 50.312 21.013 17.684 7.37 35.792 13.879 52.933 22.348 13.777 6.808 26.71 15.441 36.328 28.182 8.525 11.293 18.564 21.53 26.299 33.307 5.979 9.105 9.79 19.646 10.478 31.066.745 12.377-1.582 24.329-5.433 35.725-2.478 7.331-8.347 13.456-12.188 20.402-5.58 10.089-15.981 13.878-24.756 19.811-1.458.985-3.243 1.502-4.647 2.546-6.953 5.168-15.435 4.89-23.327 6.245-8.545 1.467-17.363 2.427-25.998 2.067-17.904-.746-35.401-3.24-52.517-9.864-16.679-6.456-31.168-16.54-46.911-24.466-12.693-6.39-24.968-13.614-37.38-20.552-13.286-7.425-26.52-14.942-39.77-22.432-13.222-7.475-26.415-15.003-39.658-22.443-18.77-10.543-37.575-21.024-56.362-31.536-17.568-9.83-35.138-19.655-52.697-29.501-15.8-8.86-31.6-17.718-47.373-26.626-20.252-11.439-40.329-23.2-60.76-34.306-15.748-8.56-31.78-16.635-47.958-24.352-13.887-6.625-28.627-10.391-43.899-13.043-16.096-2.794-32.144-2.15-48.052-1.265-13.944.775-28.157 1.93-41.509 7.918-12.604 5.653-25.849 9.901-38.883 14.568-19.68 7.047-36.32 18.75-51.393 32.957-5.488 5.171-11.6 9.772-16.547 15.406-11.238 12.8-22.207 25.862-32.725 39.258-5.057 6.441-9.653 13.514-13.012 20.954-4.808 10.651-8.287 21.901-12.342 32.892-1.334 3.614-2.84 7.17-4.018 10.833-4.294 13.36-7.333 26.978-7.985 41.05-.37 7.967-1.39 15.985-.866 23.897 1.067 16.084 3.311 31.969 8.5 47.452 5.402 16.119 10.747 32.192 19.281 46.971 6.144 10.638 11.665 21.68 21.054 30.141 11.05 9.959 21 21.319 32.864 30.138 11.202 8.327 24.248 14.18 36.518 21.058 14.493 8.123 30.219 13.231 46.044 17.806 6.677 1.93 13.961 1.863 20.99 2.449 72.56 6.043 145.26 2.078 217.892 2.88 60.659.671 121.33.023 181.996.19 75.272.21 150.542.631 225.813 1.036 8.983.049 17.961.684 26.946.837 8.875.15 17.756.152 26.631.006 14.642-.242 29.281-.62 43.92-1.01 9.105-.243 18.209-.922 27.309-.847 10.71.088 21.097-1.173 31.5-3.893 8.64-2.258 17.846-2.376 26.458-4.709 10.251-2.776 20.236-6.648 30.16-10.5 24.884-9.657 48.697-21.7 71.553-35.33 17.002-10.138 32.992-22.113 45.335-38.05 6.823-8.808 14.128-17.407 19.645-27.003 3.395-5.906 3.887-13.501 5.58-20.363 4.216-17.095.364-33.752-2.842-50.437-1.312-6.827-1.907-13.9-4.126-20.42-3.504-10.293-8.234-20.163-12.202-30.306-4.542-11.607-12.851-20.787-21.054-29.438-11.582-12.216-24.94-22.614-39.862-31.06-16.902-9.565-34.82-16.56-52.72-23.731-24.243-9.712-48.543-19.283-72.787-28.993-21.685-8.685-43.28-17.6-65.004-26.184-18.084-7.145-36.367-13.789-54.438-20.966-18.522-7.358-36.86-15.176-55.34-22.641-18.547-7.493-37.171-14.794-55.759-22.186-14.49-5.763-28.952-11.594-43.469-17.288s-29.118-11.178-43.624-16.904c-12.432-4.907-24.982-9.588-37.11-15.173-12.405-5.714-23.832-12.924-34.092-22.356-15.796-14.52-23.043-33.223-29.68-52.736-3.887-11.426-4.94-23.182-6.614-34.897-.475-3.325.542-6.85.764-10.29.828-12.838 2.889-25.591 11.17-35.74 5.713-7.004 12.83-13.18 20.255-18.394 10.994-7.718 23.478-12.821 36.538-16.109 6.876-1.731 13.946-2.71 20.942-3.949 13.728-2.43 27.096.765 40.382 3.234 14.992 2.786 27.437 11.35 40 19.518 14.47 9.407 26.145 21.78 35.893 35.622 8.603 12.218 14.286 26.51 23.026 38.61 10.875 15.055 22.053 30.129 40.835 37.238 14.236 5.389 27.744 12.69 41.628 19.026 16.003 7.305 32.097 14.413 48.09 21.738 16.557 7.583 33.003 15.407 49.567 22.972 17.738 8.101 35.598 15.938 53.332 24.048 16.736 7.653 33.345 15.58 50.07 23.257 15.965 7.328 32.036 14.425 48.007 21.741 15.379 7.045 30.65 14.325 46.038 21.346 15.654 7.143 31.262 14.412 47.127 21.063 25.715 10.78 51.525 21.353 77.498 31.494 10.345 4.04 21.195 6.815 31.878 9.951 9.131 2.681 18.304 5.258 27.551 7.495 6.32 1.53 12.82 2.3 19.204 3.583 8.105 1.63 16.163 3.49 24.262 5.148 9.865 2.02 19.773 3.842 29.625 5.923 9.197 1.943 18.322 4.228 27.521 6.16 15.884 3.333 31.811 6.464 47.702 9.767 12.706 2.641 25.357 5.551 38.083 8.09 17.219 3.436 34.486 6.624 51.73 9.93 15.647 3 31.473 5.299 46.887 9.215 17.947 4.56 35.432 11.01 51.28 20.759 12.54 7.714 23.308 17.83 32.499 29.372 4.672 5.868 9.168 12.06 12.594 18.698 6.942 13.45 12.55 27.453 15.82 42.388 2.2 10.05 5.985 19.746 8.317 29.774 2.316 9.96 4.102 20.086 5.402 30.23 2 15.609 3.94 31.264 4.853 46.96.696 11.95 1.002 24.053-2.413 35.868-2.068 7.156-2.905 14.708-5.38 21.698-6.718 18.978-16.347 36.395-28.063 52.882-9.046 12.73-19.788 23.12-33.218 30.72-9.387 5.31-18.78 11.007-28.86 14.584-11.34 4.025-23.349 6.536-35.267 8.462-11.802 1.907-23.844 2.389-35.798 3.272-14.635 1.08-29.28 2.554-43.934 2.73-21.102.253-42.218-.46-63.326-.858-12.267-.232-24.53-.774-36.797-.964-26.607-.412-53.22-.54-79.824-1.082-13.042-.265-26.064-1.524-39.104-1.746-18.679-.318-37.368.032-56.05-.144-21.77-.206-43.536-.669-65.304-1.028-19.6-.324-39.2-.69-58.801-.98-25.272-.371-50.546-.642-75.817-1.037-16.6-.26-33.198-.725-49.8-.99-23.607-.377-47.218-.607-70.826-.992-15.93-.26-31.857-.76-47.787-1.003-25.94-.397-51.881-.62-77.82-1.019-14.267-.22-28.528-.745-42.794-.966-25.715-.398-51.432-.67-77.642-.995"/></svg>