<svg xmlns="http://www.w3.org/2000/svg" viewBox="0 0 1728 1059" xml:space="preserve"><path fill="#fff" d="M204.609 896.468c8.341 7.663 15.984 15.696 24.73 22.26 20.6 15.463 43.444 27.015 67.604 35.87 11.488 4.21 23.216 7.269 35.656 7.67 16.817.543 33.597 2.505 50.411 2.801 39.767.702 79.546.73 119.32 1.13 22.106.222 44.21.675 66.316.957 8.534.11 17.071-.016 25.606.05 40.595.319 81.19.626 121.784 1.03 11.283.111 22.562.691 33.845.793 48.932.44 97.865.782 146.797 1.16 40.613.313 81.226.566 121.838.965 21.95.216 43.895.865 65.844.998 63.701.386 127.405.896 191.104.658 12.76-.047 25.748-3.147 36.368-10.916 5.878-4.3 9.78-10.476 11.626-18.446 2.456-10.608 1.605-21.069 1.503-31.552-.187-19.215-1.15-38.424-1.916-57.63-.56-14.048-.82-28.135-2.14-42.118-1.286-13.621-3.006-27.167-6.463-40.584-3.824-14.846-8.511-29.184-15.061-43.018-9.492-20.049-24.12-35.685-41.299-49.219-16.085-12.672-33.875-22.201-52.982-29.579-24.155-9.327-48.078-19.253-72.104-28.915-23.947-9.63-47.89-19.268-71.847-28.87a16093 16093 0 0 0-47.753-19.028c-20.166-8.007-40.357-15.952-60.512-23.987-21.74-8.667-43.44-17.43-65.174-26.109-19.201-7.667-38.43-15.26-57.637-22.912-20.14-8.023-40.342-15.894-60.369-24.188-10.746-4.45-22.12-8.297-31.537-14.83-13.983-9.703-26.571-21.055-34.368-37.296-8.24-17.163-12.805-35.221-17.958-53.31-3.85-13.52-3.322-27.01-3.89-40.64-.556-13.356 3.359-25.98 5.23-38.931 2.018-13.964 6.953-27.35 13.748-39.33 7.606-13.409 17.854-25.073 31.204-34.13 18.787-12.746 38.751-23 59.388-32.078a4728 4728 0 0 1 82.301-35.25c13.249-5.53 26.742-10.525 40.324-15.18 5.799-1.989 12.094-3.409 18.187-3.5 20.523-.305 37.105 7.333 48.494 25.238 5.564 8.747 9.372 18.28 9.616 28.22.251 10.28-1.913 20.621-6.088 30.471-6.05 14.274-11.72 28.75-16.656 43.442-4.305 12.812-.737 25.406 2.827 37.978 1.866 6.58 6.029 11.207 10.351 15.697 6.377 6.624 15.308 9.634 23.783 11.254 8.571 1.64 17.858.742 26.67-.348 16.451-2.035 26.178-13.519 33.865-26.82 12.83-22.198 24.782-44.918 38.064-66.836 7.246-11.957 16.324-22.826 24.846-33.979 5.67-7.421 11.432-14.848 17.877-21.58 5.071-5.296 11.124-9.694 16.964-14.203 9.175-7.083 18.105-14.623 27.928-20.693 12.786-7.902 26.318-14.604 39.58-21.728 8.957-4.812 17.74-10.079 27.076-14.02 10.495-4.43 21.39-6.67 33.277-5.719 11.444.916 21.463 5.31 29.258 12.072 8.147 7.068 15.977 15.769 16.997 28.187.588 7.155 2.482 14.06.739 21.414-2.604 10.985-8.905 19.574-15.82 28.1-7.398 9.125-14.099 18.815-21.093 28.266-10.194 13.776-20.93 27.192-30.394 41.452-7.853 11.832-17.011 22.896-22.161 36.52-3.374 8.922-8.958 17.022-12.193 25.982a156 156 0 0 0-8.571 37.963c-1.217 12.421.79 24.315 3.722 35.807 2.75 10.785 8.733 20.768 13.495 31.01 5.666 12.188 13.143 23.308 22.342 33.008 4.988 5.26 11.118 9.701 17.368 13.454 17.263 10.364 34.743 20.14 54.52 25.522 17.93 4.88 35.335 11.659 53.07 17.294 14.972 4.757 30.122 8.95 45.121 13.624 12.647 3.941 25.158 8.318 37.79 12.308 11.582 3.66 23.295 6.908 34.86 10.616 12.45 3.991 24.64 8.874 37.235 12.3 9.855 2.68 20.123 4.923 30.265 5.193 12.197.324 21.571-5.347 25.156-18.768 3.885-14.543 5.13-29.244 6.64-44.022 1.232-12.08 2.691-24.136 3.886-36.22.552-5.586.584-11.222 1.077-16.817 1.24-14.083 2.781-28.141 3.874-42.235 1.052-13.57.061-27.027-5.366-39.679-8.678-20.23-17.065-40.632-26.857-60.323-7.073-14.222-15.9-27.62-24.538-41.001-10.056-15.577-20.334-31.048-31.299-45.99-11.28-15.373-23.529-30.035-35.304-45.046-6.86-8.746-13.492-17.674-20.487-26.309-3.409-4.208-7.368-7.976-11.158-11.865-5.1-5.234-10.211-10.458-15.43-15.572-17.873-17.517-38.901-30.158-62.22-38.803-13.006-4.822-26.325-9.098-39.83-12.186-11.896-2.72-24.205-4.235-36.407-4.886-23.008-1.226-46.072-2.003-69.11-1.944-28.046.073-56.089 1.194-84.133 1.876-27.373.665-54.747 1.314-82.119 2.03-24.047.63-48.098 1.175-72.135 2.077-18.67.7-37.342 1.613-55.976 2.945-18.033 1.288-36.088 2.708-54.004 5.063-12.875 1.693-25.595 4.761-38.278 7.678-15.17 3.49-30.41 6.88-45.269 11.45-9.67 2.974-18.907 7.592-28.001 12.147a2537 2537 0 0 0-58.2 30.082c-27.73 14.8-55.277 29.94-82.925 44.893-17.684 9.564-35.458 18.96-53.102 28.597-18.35 10.023-36.546 20.33-54.896 30.354-14.64 7.998-29.46 15.668-44.113 23.645-20.05 10.917-40.019 21.98-60.005 33.012-.987.545-1.807 1.393-2.973 2.312l9.378 15.47-16.975 10.48-32.513-52.794 16.97-10.527 9.395 15.054c13.305-7.436 26.422-14.8 39.57-22.108 18.793-10.448 37.54-20.984 56.433-31.25 22.749-12.361 45.685-24.377 68.431-36.743 12.591-6.846 24.885-14.237 37.451-21.13 11.805-6.475 23.836-12.536 35.688-18.927 15.156-8.173 30.19-16.572 45.356-24.727 15.217-8.183 30.39-16.466 45.842-24.188 14.61-7.302 29.543-13.958 44.356-20.848 6.392-2.972 12.673-6.31 19.31-8.588 6.834-2.344 14.045-3.581 21.082-5.336 11.566-2.884 23.05-6.155 34.707-8.591 10.8-2.258 21.731-4.158 32.7-5.282 17.492-1.792 35.057-2.921 52.605-4.116 12.676-.863 25.37-1.559 38.066-2.007 23.016-.813 46.04-1.432 69.063-2.049 26.859-.718 53.722-1.308 80.58-2.028 22.697-.608 45.391-1.317 68.086-1.99 10.263-.304 20.525-.667 30.79-.933 14.761-.381 29.53-1.1 44.286-.931 15.367.175 30.746.907 46.074 2.024 9.717.708 19.643 1.52 28.956 4.135 17.435 4.897 34.851 10.261 51.598 17.093 13.876 5.66 27.823 12.282 39.845 21.067 14.673 10.723 27.673 23.833 40.842 36.489 18.007 17.303 31.456 38.38 46.634 58.023 11.387 14.736 23.542 28.917 34.283 44.103 9.854 13.932 18.077 29.006 27.372 43.348 12.48 19.257 23.374 39.291 31.96 60.605 2.87 7.12 7.207 13.659 9.957 20.816 3.777 9.83 6.554 20.04 9.994 30.006 4.075 11.804 1.877 23.938 1.679 35.857-.195 11.72-2.48 23.395-3.61 35.113-.632 6.564-.649 13.185-1.178 19.762-1.253 15.555-2.477 31.117-4.046 46.642-.998 9.881-2.044 19.816-4.061 29.52-2.566 12.347-5.788 24.692-15.215 34.022-11.154 11.038-24.904 15.649-40.363 15.141-6.852-.225-13.775-.79-20.482-2.122-5.77-1.146-11.255-3.685-16.912-5.461-11.17-3.507-22.393-6.849-33.556-10.38-7.947-2.515-15.794-5.35-23.753-7.825-11.208-3.486-22.49-6.732-33.717-10.161-5.517-1.685-10.98-3.544-16.466-5.334-10.83-3.534-21.636-7.141-32.492-10.592-11.162-3.548-22.36-6.984-33.563-10.398-8.597-2.62-17.284-4.953-25.826-7.734-10.653-3.469-21.511-6.56-31.723-11.076-18.439-8.154-36.225-17.778-52.198-30.158-5.65-4.38-9.727-10.815-14.422-16.396-11.428-13.582-18.91-29.514-26.47-45.34-3.648-7.636-6.841-15.582-9.269-23.679-1.66-5.535-1.637-11.575-2.371-17.389-.306-2.419-.75-4.83-.899-7.258a71 71 0 0 1-.039-7.997c.216-4.1 1.182-8.237.83-12.271-.88-10.108 2.7-19.31 5.421-28.612 2.225-7.603 5.51-14.918 8.622-22.234 3.128-7.355 6.501-14.612 9.984-21.807 9.334-19.283 22.78-35.87 35.11-53.185 9.108-12.79 18.152-25.629 27.44-38.287 6.436-8.77 13.444-17.123 19.827-25.93 7.77-10.723 3.816-27.787-8.715-34.795-11.507-6.436-22.33-4.744-32.694.282-17.12 8.305-33.353 18.432-50.425 26.846-18.842 9.287-35.434 21.737-50.275 36.115-10.627 10.296-18.937 23.008-28.095 34.787-4.92 6.327-9.935 12.666-14.05 19.515-7.686 12.794-14.73 25.973-22.072 38.974-5.873 10.4-11.159 21.208-17.884 31.028-5.617 8.202-12.2 16.116-19.767 22.478-5.148 4.328-12.839 5.534-19.198 8.546-5.863 2.777-11.924 3.162-18.214 2.967-5.828-.181-11.7-.449-17.49.05-9.977.86-18.575-2.616-27.54-6.387-7.747-3.257-15.196-6.245-20.602-12.97-3.593-4.468-7.808-8.506-10.898-13.285-2.192-3.39-2.738-7.798-4.42-11.572-5.01-11.231-4.788-23.466-6.598-35.258-.737-4.8 1.943-10.044 2.567-15.147 1.684-13.793 10.354-24.894 14.282-37.818 1.805-5.939 4.117-11.727 6.308-17.543 4.935-13.102-.995-31.338-13.207-38.138-7.213-4.017-15.513-5.18-23.444-2.34-16.839 6.03-33.507 12.542-50.178 19.03-14.97 5.825-30.009 11.515-44.726 17.934-15.957 6.96-31.29 15.404-47.422 21.896-17.027 6.852-31.867 17.093-45.628 28.562-6.954 5.797-11.18 15.138-15.823 23.34-3.12 5.509-5.318 11.688-7.01 17.82-2.187 7.927-3.144 16.187-5.196 24.158-3.413 13.258-1.612 26.695-1.688 40.037-.028 5.01 2.125 10.072 3.516 15.046 3.338 11.932 6.502 23.928 10.382 35.685 1.632 4.946 4.726 9.455 7.445 13.989 9.7 16.167 24.865 25.587 41.572 32.831 14.21 6.162 28.566 12.001 42.98 17.67 14.473 5.693 29.15 10.867 43.636 16.525 8.173 3.192 16.074 7.076 24.225 10.332 8.484 3.39 17.179 6.25 25.676 9.608 11.771 4.651 23.411 9.631 35.167 14.32 9.21 3.674 18.542 7.04 27.76 10.692 8.016 3.175 15.904 6.673 23.926 9.83 16.417 6.458 32.913 12.714 49.318 19.199 6.39 2.525 12.562 5.595 18.943 8.145 8.49 3.393 17.112 6.452 25.628 9.78 7.908 3.09 15.725 6.413 23.631 9.507 7.47 2.923 15.046 5.579 22.503 8.535a3773 3773 0 0 1 39.86 16.074c15.44 6.328 30.787 12.889 46.266 19.122 15.017 6.047 28.812 14.243 42.586 22.658 12.527 7.653 23.184 17.31 32.915 28.004 7.059 7.756 13.972 15.878 19.49 24.746 7.945 12.766 13.952 26.663 18.26 41.12 3.405 11.426 6.972 22.926 8.851 34.652 2.3 14.353 3.291 28.953 4.162 43.488 1.07 17.837 1.37 35.72 2.115 53.577.552 13.2.902 26.426 2.054 39.578.967 11.05.8 21.817-1.999 32.633-2.26 8.735-6.275 16.195-11.564 23.547-9.522 13.237-23.13 18.594-37.833 22.705-11.476 3.209-23.162 4.077-35.015 4.047-38.332-.098-76.664.05-114.996-.117-19.27-.085-38.538-.826-57.809-.96-60.432-.423-120.866-.653-181.299-1.067-13.26-.09-26.517-.813-39.778-.939-43.788-.415-87.578-.708-131.368-1.007-12-.083-24 .08-35.999-.05-23.273-.252-46.544-.697-69.816-.944-37.425-.396-74.851-.719-112.277-1.031-42.767-.358-85.534-.62-128.3-1.036-12.43-.12-24.89-.162-37.276-1.077a759 759 0 0 1-47.825-5.048c-5.596-.773-11-3.442-16.31-5.676-14.89-6.264-30.09-11.968-44.403-19.373-14.24-7.367-27.837-15.92-40.46-26.172-14.108-11.458-25.842-25.024-37.764-38.446-4.517-5.085-7.66-11.556-10.7-17.753-5.993-12.215-11.863-24.52-17.034-37.096-3.413-8.299-5-17.342-8.326-25.685-6.182-15.505-5.301-32.172-8.594-48.145-1.159-5.621.316-11.815.771-17.733.53-6.866.85-13.786 2.004-20.555 1.517-8.89 3.218-17.82 5.815-26.438 4.122-13.676 9.512-26.977 13.444-40.7 1.947-6.795 3.551-14.544 2.127-21.179-1.162-5.414-6.269-10.838-11.003-14.458-10.933-8.363-22.623-15.753-34.154-23.313-11.654-7.64-23.743-14.641-35.158-22.613-8.811-6.153-14.876-15.47-17.63-25.357-3.248-11.655-3.032-23.898-1.263-36.424 2.158-15.273 11.624-25.814 19.5-37.342 4.148-6.072 11.365-10.128 17.424-14.8 17.628-13.587 37.89-22.725 57.16-33.538 21.54-12.086 43.1-24.137 64.56-36.365 16.065-9.155 31.885-18.743 47.993-27.82 19.86-11.19 39.966-21.943 59.85-33.093 13.624-7.64 27.035-15.662 40.576-23.452 3.46-1.99 7.052-3.747 10.871-5.763l13.603 21.748c-20.135 11.473-39.97 22.906-59.932 34.11-16.71 9.377-33.615 18.405-50.347 27.743-12.038 6.717-23.911 13.728-35.896 20.54-14.523 8.256-29.08 16.45-43.632 24.652-21.348 12.03-42.749 23.968-64.038 36.101-8.128 4.633-16.156 9.475-23.971 14.615-10.972 7.216-19.42 17.016-25.746 28.367-7.023 12.603-3.929 35.008 6.266 45.505 3.404 3.505 8.555 5.273 12.786 8.02 19.608 12.734 39.822 24.666 58.5 38.645 10.519 7.873 19.14 18.616 20.434 33.239 1.082 12.23-1.98 23.365-5.946 34.792-6.423 18.51-13.638 36.958-16.166 56.52-1.647 12.744-2.855 25.811-1.91 38.559 1.213 16.321 4.492 32.431 9.45 48.276 6.976 22.29 17.057 42.952 29.482 62.505 3.746 5.895 9.45 10.544 14.456 16.063"/></svg>