<svg xmlns="http://www.w3.org/2000/svg" viewBox="0 0 1905 877" xml:space="preserve"><path fill="#fff" d="M522.89 710.13c-29.447-18.638-58.62-37.02-88.098-55.594l14.791-22.504c13.545 8.552 26.898 16.966 40.234 25.408 14.636 9.264 29.23 18.594 43.89 27.821 17.785 11.195 35.628 22.298 53.427 33.47 10.111 6.347 20.13 12.842 30.312 19.072 2.866 1.753 6.071 3.087 9.281 4.112 4.45 1.42 7.475-1.304 9.259-4.785 5.858-11.431 11.27-23.091 17.064-34.557 5.317-10.523 11.003-20.86 16.357-31.365 9.251-18.151 20.867-34.644 36.248-47.986 11.98-10.392 25.045-19.454 40.552-24.292 5.943-1.854 11.525-4.936 17.518-6.535 6.27-1.673 12.808-2.493 19.281-3.21 6.226-.689 12.525-1.136 18.783-1.045 16.08.232 32.017 1.753 47.716 5.623 8.808 2.172 17.97 2.972 26.702 5.375 13.318 3.667 26.548 7.78 39.548 12.447 16.014 5.749 31.878 11.96 47.58 18.517 20.227 8.446 39.847 18.188 58.273 30.139 14.615 9.48 29.214 18.998 43.526 28.924 6.612 4.585 12.89 9.8 18.687 15.386a10149 10149 0 0 1 77.937 75.946c5.91 5.818 11.315 12.184 16.63 18.566 8.886 10.666 20.591 15.06 33.935 17.128 27.885 4.323 46.47-9.434 61.473-30.548a5990 5990 0 0 0 39.885-56.794c5.286-7.624 13.072-10.306 21.535-11.712 13.372-2.22 23.407 3.43 31.949 13.364 13.181 15.328 26.298 30.763 40.332 45.294 11.843 12.262 24.712 23.584 37.723 34.62 2.302 1.954 8.086 1.713 11.283.289 5.936-2.644 9.69-8.149 13.257-13.694 7.978-12.401 16.952-24.188 24.487-36.841 6.28-10.545 8.516-22.37 4.096-34.411-7.102-19.345-14.667-38.52-21.77-57.863-5.72-15.576-10.917-31.345-16.587-46.94-5.554-15.276-11.487-30.413-17.114-45.662-4.071-11.034-7.84-22.18-11.888-33.223-2.495-6.806-5.433-13.452-7.87-20.278-4.159-11.642-7.995-23.399-12.123-35.052-4.184-11.813-8.599-23.544-12.834-35.339-3.425-9.537-6.648-19.147-10.117-28.667-3.394-9.31-7.037-18.53-10.473-27.825-2.559-6.922-4.953-13.905-7.435-20.855-3.283-9.192-6.366-18.462-9.917-27.55-6.515-16.679-11.743-33.65-10.077-51.793 1.24-13.517 6.619-25.175 17.837-33.685 10.912-8.278 23.478-11.41 36.76-11.825 8.414-.263 17.023-.306 25.265 1.142 15.155 2.663 28.372 10.045 41.317 18.336 22.4 14.346 37.49 34.807 50.944 57.004 6.535 10.78 13.797 21.118 20.688 31.683 14.002 21.47 27.976 42.956 41.958 64.437 17.323 26.612 34.844 53.099 51.867 79.902 6.855 10.792 16.378 18.63 26.442 25.782 4.983 3.54 11.321 5.395 17.274 7.301 11.06 3.543 22.219 6.83 33.467 9.718 8.786 2.256 17.713 4.76 26.683 5.255 7.102.393 14.91-.797 21.45-3.551 19.22-8.091 38.353-16.526 55.879-28.101 7.213-4.765 11.408-11.639 13.938-19.474 3.112-9.638 5.958-19.412 8.063-29.31a304 304 0 0 0 4.988-31.755c1.19-11.475 2.29-23.074 1.916-34.57-.495-15.223-2.053-30.448-3.888-45.584-2.37-19.546-13.194-34.664-28.976-45.157-14.178-9.426-29.922-16.54-45.146-24.339-19.523-10-39.196-19.71-58.845-29.462-13.767-6.833-27.601-13.532-41.408-20.283-18.141-8.87-36.245-17.816-54.439-26.576-17.991-8.664-36.115-17.054-54.104-25.724-12.276-5.917-24.412-12.123-36.625-18.173-16.008-7.93-32.042-15.812-48.043-23.757-19.84-9.85-39.585-19.898-59.508-29.578-20.668-10.04-41.46-19.827-62.28-29.552-8.296-3.876-16.587-7.989-25.28-10.726-9.769-3.077-13.497-.041-15.336 10.145-2.92 16.178-5.91 32.19-12.575 47.56-3.865 8.915-8.288 17.266-14.732 24.01-5.476 5.731-12.729 10-19.723 13.991-12.041 6.872-24.534 12.948-36.762 19.499-15.869 8.5-31.707 17.063-47.48 25.74-16.122 8.867-32.085 18.024-48.239 26.83-14.421 7.863-29.062 15.322-43.507 23.143-11.926 6.457-23.656 13.276-35.565 19.767-13.459 7.335-27.044 14.44-40.533 21.723-28.358 15.31-56.692 30.666-85.032 46.011-11.753 6.364-23.434 12.865-35.256 19.097-12.977 6.84-25.98 13.647-39.159 20.086-10.895 5.324-22.694 7.467-34.726 8.225-7.587.477-15.229.317-22.779 1.096-13.135 1.355-25.129-3.444-37.434-6.42-10.176-2.461-20.169-5.686-30.232-8.608-12.083-3.51-24.134-7.13-36.238-10.566-9.13-2.591-18.33-4.935-27.485-7.444-11.515-3.156-23.007-6.396-34.524-9.548-12.924-3.536-25.898-6.894-38.787-10.555-11.783-3.346-23.448-7.11-35.227-10.468-9.324-2.659-18.767-4.897-28.114-7.478-9.493-2.622-18.927-5.457-28.398-8.159-9.152-2.61-18.326-5.142-27.476-7.76-12.4-3.548-24.76-7.243-37.188-10.693-11.684-3.244-23.478-6.098-35.14-9.414-9.437-2.683-18.692-6.004-28.133-8.67-11.633-3.287-23.387-6.14-35.063-9.277-6.54-1.758-13.016-3.755-19.541-5.57-12.574-3.497-25.184-6.865-37.737-10.43-12.099-3.437-24.117-7.157-36.223-10.563-9.332-2.626-18.774-4.862-28.116-7.453-8.693-2.412-17.295-5.154-25.985-7.58-6.965-1.944-14.045-3.482-20.994-5.477-7.11-2.04-14.073-4.598-21.193-6.597-7.306-2.052-14.86-3.284-22.054-5.643-7.543-2.473-15.04-4.118-23.016-3.71-7.107.362-13.804 7.272-15.866 14.003-4.174 13.621 4.08 21.094 12.513 28.87 9.141 8.432 18.424 16.726 27.242 25.486 4.859 4.827 4.75 16.846 2.432 23.387-4.698 13.254-15.962 19.646-26.184 27.312-16.801 12.6-33.549 25.271-50.316 37.917-5.779 4.359-4.629 9.027 1.463 12.994 23.064 15.02 46.502 29.465 69.765 44.179 17.258 10.916 34.455 21.929 51.694 32.875 18.193 11.552 36.37 23.13 54.619 34.595 13.97 8.778 28.082 17.331 42.054 26.105 27.98 17.57 55.894 35.246 83.865 52.83 12.228 7.688 24.524 15.268 36.8 22.88 4.805 2.979 9.64 5.912 14.823 9.089l9.043-12.98 16.493 11.306c-11.89 17.372-23.601 34.486-35.491 51.86l-16.55-11.348 10.98-16.2c-8.365-5.453-16.595-10.946-24.95-16.24-14.674-9.295-29.425-18.468-44.142-27.693-14.522-9.102-29.038-18.213-43.567-27.304-12.946-8.1-25.933-16.137-38.853-24.28-14.042-8.849-28.08-17.709-42.028-26.705-22.76-14.68-45.356-29.618-68.2-44.169-14.12-8.995-28.625-17.385-42.855-26.21-15.356-9.525-30.603-19.226-45.879-28.878-13.049-8.245-19.98-19.896-19.274-35.545.112-2.493.887-5.206 2.147-7.354 5.122-8.737 12.245-15.61 20.441-21.553 18.531-13.435 36.943-27.036 55.284-40.73 2.881-2.15 5.572-4.998 1.425-8.732-6.938-6.248-13.38-13.129-20.77-18.774-13.056-9.973-20.194-23.216-22.32-38.997-.7-5.202 1.4-10.954 2.929-16.25 3.977-13.787 13.332-23.2 26.273-28.487 10.424-4.259 21.429-5.412 32.679-2.08 12.298 3.644 24.798 6.598 37.14 10.096 9.2 2.607 18.249 5.739 27.437 8.388 11.382 3.281 22.826 6.35 34.266 9.427 9.406 2.53 18.876 4.825 28.26 7.432 12.35 3.432 24.636 7.09 36.962 10.612 12.488 3.567 24.973 7.152 37.493 10.607 11.74 3.24 23.543 6.252 35.282 9.495 9.394 2.594 18.723 5.42 28.1 8.078 9.371 2.656 18.768 5.222 28.15 7.844a7056 7056 0 0 1 24.85 6.991c10.46 2.965 20.915 5.947 31.367 8.937 12.466 3.566 24.903 7.238 37.399 10.698 11.741 3.25 23.578 6.16 35.309 9.45 11.87 3.327 23.623 7.074 35.498 10.384 12.059 3.36 24.234 6.303 36.302 9.634 9.06 2.5 18.02 5.37 27.048 7.992 9.185 2.668 18.382 5.297 27.606 7.828 8.923 2.45 17.904 4.688 26.828 7.136a2944 2944 0 0 1 31.86 8.958c12.156 3.482 24.33 6.913 36.424 10.6 16.138 4.92 32.527 8.215 49.431 6.341 16.578-1.837 32.353-6.541 46.978-14.909 12.063-6.901 24.383-13.354 36.582-20.02 18.95-10.356 37.87-20.772 56.85-31.073 19.683-10.684 39.447-21.22 59.135-31.896 20.36-11.04 40.642-22.223 61.013-33.243 19.278-10.428 38.667-20.65 57.932-31.101 25.123-13.628 50.17-27.395 75.253-41.095 15.527-8.48 30.8-17.48 46.668-25.266 15.01-7.365 22.354-19.829 26.296-35.02 2.643-10.185 4.36-20.616 7.122-30.765 2.02-7.425 3.69-14.914 8.233-21.665 5.001-7.433 12.596-10.14 19.994-11.461 11.788-2.105 23.444.69 34.364 6.02 19.096 9.322 38.336 18.35 57.397 27.74 21.783 10.732 43.39 21.822 65.162 32.575 18.628 9.2 37.413 18.081 56.073 27.217 25.784 12.623 51.493 25.402 77.279 38.023 23.105 11.309 46.292 22.448 69.403 33.746 22.584 11.041 45.11 22.204 67.675 33.285 21.82 10.714 43.69 21.331 65.479 32.107 13.098 6.478 25.16 14.443 35.41 25.03 10.175 10.507 17.76 22.724 22.742 36.292 2.606 7.098 3.463 14.954 4.31 22.556 1.368 12.284 2.326 24.628 2.953 36.972.3 5.906-.558 11.872-.89 17.81-.304 5.442-.534 10.888-.923 16.324-1.038 14.53-2.328 28.994-6.61 43.07-2.024 6.659-2.692 13.72-4.52 20.452-1.432 5.276-3.737 10.313-5.593 15.479-5.803 16.147-17.604 26.467-32.614 33.7-18.668 8.997-37.09 18.555-56.075 26.822-12.106 5.27-25.18 5.256-38.137 2.084-8.683-2.126-17.6-3.436-26.121-6.056-14.532-4.469-28.808-9.76-43.24-14.56-14.695-4.885-25.614-15.176-35.644-26.101-6.642-7.236-11.444-16.194-16.85-24.523-16.839-25.938-33.495-51.993-50.37-77.906-14.85-22.803-29.954-45.44-44.835-68.222-6.406-9.807-12.791-19.646-18.729-29.739-9.904-16.835-24.277-29.027-40.11-39.812-11.017-7.503-22.971-11.493-36.486-12.364-9.375-.604-18.04-.097-26.888 3.077-6.807 2.441-11.834 11.422-12.293 17.35-1.255 16.234 4.46 30.821 9.853 45.586 6.627 18.143 12.838 36.437 19.36 54.618 3.783 10.548 7.941 20.962 11.722 31.51 5.847 16.317 11.397 32.74 17.293 49.039 6.341 17.53 13.012 34.941 19.397 52.456 4.989 13.684 9.655 27.487 14.662 41.164 4.627 12.64 9.624 25.146 14.258 37.783 4.351 11.866 8.313 23.875 12.68 35.735 4.807 13.055 10.026 25.958 14.793 39.027 4.252 11.658 7.97 23.511 12.241 35.161 2.187 5.962 5.453 11.577 4.767 18.25-1.646 16.012-4.8 31.45-14.666 44.871-8.982 12.22-16.92 25.234-26.284 37.137-10.638 13.521-23.978 23.16-42.518 20.301-4.789-.738-10.08-2.853-13.655-6.014-15.2-13.438-30.334-27.024-44.539-41.492-12.235-12.463-23.172-26.2-34.707-39.353-1.316-1.5-2.773-2.88-4.18-4.3-6.538-6.602-10.085-6.311-15.334 1.193-14.384 20.563-28.327 41.455-43.347 61.542-8.72 11.664-20.011 21.193-33.87 26.46-8.349 3.172-17.226 5.52-26.068 6.641-6.674.847-13.73-.44-20.503-1.506-6.828-1.073-13.627-2.681-20.238-4.708-9.841-3.017-17.678-9.243-24.764-16.597-14.65-15.204-29.41-30.303-44.216-45.356-9.345-9.503-18.414-19.342-28.388-28.147-16.783-14.817-31.724-31.846-50.842-43.889-20.092-12.655-40.078-25.566-60.855-37.013-14.866-8.19-30.767-14.632-46.56-20.972-16.207-6.507-32.625-12.687-49.36-17.62-14.321-4.223-29.143-6.937-43.889-9.463-11.939-2.045-24.087-3.82-36.157-3.917-17.056-.14-33.739 2.978-49.609 9.919-19.384 8.477-35.767 20.666-47.38 38.41-7.254 11.086-13.652 22.773-19.85 34.499-10.215 19.322-19.245 39.312-30.278 58.14-3.963 6.762-11.14 12.81-20.744 12.787-2.592-.006-5.196.587-7.777 1.01-6.648 1.09-12.259-2.307-17.467-5.17-11.767-6.467-22.943-14.006-34.395-21.05-8.684-5.34-17.51-10.457-26.113-15.925-6.197-3.94-12.067-8.393-18.215-12.416-2.425-1.587-5.21-2.626-8.104-4.171"/></svg>