<svg xmlns="http://www.w3.org/2000/svg" viewBox="0 0 1750 1071" xml:space="preserve"><path fill="#fff" d="M1519.968 546.016c17.844 12.707 35.822 25.233 53.48 38.192 9.862 7.237 19.329 15.032 28.732 22.865 13.937 11.61 26.42 24.761 37.765 38.836 12.82 15.906 23.838 33.01 32.339 51.784 7.002 15.464 13.092 31.162 17.698 47.475 2.612 9.251 5.746 18.366 8.044 27.69 1.72 6.978 2.888 14.151 3.581 21.307 1.321 13.634 2.54 27.304 3.015 40.986.36 10.42-.083 20.914-.903 31.317-1.308 16.571-1.553 33.495-5.386 49.518-3.415 14.272-8.317 28.675-17.75 40.865-10.065 13.004-18.92 26.972-29.38 39.631-5.56 6.73-13.033 12.107-20.303 17.14-8.541 5.912-17.33 11.946-26.87 15.815-11.373 4.613-23.517 7.65-35.576 10.18-20.376 4.274-41.168 3.233-61.845 3.249-13.499.01-27-.086-40.498.045-25.206.244-50.41.653-75.616.93-35.106.388-70.213.698-105.318 1.08-25.285.274-50.57.608-75.854.922-27.273.34-54.546.732-81.82 1.022-35.003.372-70.007.642-105.01.998-31.695.321-63.388.733-95.082 1.04-36.616.356-73.233.597-109.848.972-25.112.257-50.222.739-75.335.976-43.333.409-86.668.66-130.001 1.065-25.613.239-51.223.709-76.835.958-40.944.4-81.889.656-122.832 1.065-19.115.192-38.227.618-57.34.908-24.274.367-48.548.762-72.823 1.031-13.236.147-26.476-.045-39.713.1-17.345.191-34.693.41-52.032.91-12.938.374-25.91 2.205-38.78 1.577-14.263-.695-29.07-.667-42.097-7.897-9.513-5.28-19.169-10.694-27.529-17.55-8.85-7.26-15.044-16.426-17.45-28.68-2.497-12.716-2.893-25.076.714-37.061 2.328-7.736 7.262-14.925 12.05-21.63 8.377-11.736 20.024-19.641 33.693-23.94 13.87-4.362 28.182-3.924 42.303-1.055 10.184 2.07 20.125 5.368 30.331 7.285 13.484 2.533 27.113 4.295 40.692 6.305 8.905 1.318 17.809 2.714 26.759 3.614 3.693.371 7.673.134 11.238-.853 20.22-5.594 38.114-14.853 47.523-34.898 6.726-14.327 12.223-29.025 11.27-45.554-1.04-18.06-.76-36.193-1.311-54.286-.408-13.393-1.481-26.768-1.801-40.162-.556-23.265-.748-46.538-1.111-69.807-.357-22.771-.71-45.543-1.117-68.314-.249-13.958-.538-27.916-.922-41.87-.16-5.781-1.25-11.603-.804-17.319.92-11.798 1.115-23.956 4.311-35.198 4.255-14.964 10.572-29.382 21.613-41.187 12.642-13.517 24.49-27.788 37.346-41.091 7.84-8.113 16.828-15.138 25.483-22.435 10.755-9.068 21.607-18.026 32.584-26.824 14.476-11.602 28.94-23.233 43.727-34.43 17.346-13.133 34.99-25.874 52.585-38.675 17.462-12.705 35.038-25.253 52.537-37.907 19.77-14.297 39.414-28.772 59.296-42.911 13.862-9.86 28.514-18.455 45.008-23.157 11.338-3.231 22.697-6.564 34.793-5.95 8.37.424 16.78.13 25.171.086 17.273-.091 32.932 5.906 48.334 12.812 15.598 6.995 28.163 18.114 39.461 30.543 7.738 8.512 14.478 17.967 18.339 29.075 2.924 8.413 6.615 16.658 8.526 25.296 1.805 8.155 2.11 16.712 2.4 25.116.495 14.388-1.261 28.56-3.53 42.83-2.52 15.837-7.355 30.617-16.8 43.169-6.705 8.912-15.431 16.59-24.25 23.56-15.611 12.338-31.987 23.707-48.029 35.5-12.136 8.922-24.292 17.819-36.369 26.82-24.44 18.217-48.794 36.549-73.256 54.735-21.671 16.112-43.466 32.057-65.16 48.138-16.954 12.568-33.795 25.29-50.767 37.835-13.923 10.291-27.684 20.689-39.047 33.973-12.917 15.1-21.307 32.106-22.774 52.061-.969 13.193-2.172 26.466-1.687 39.644.759 20.632 3.646 41.038 12.747 60.013 7.746 16.15 17.51 30.8 31.175 42.626 12.42 10.748 26.235 18.771 42.433 22.379 8.268 1.841 16.403 4.386 24.736 5.808 7.608 1.3 15.39 1.892 23.116 2.117 11.222.327 22.462.102 33.694.012 42.272-.339 84.544-.688 126.816-1.11 8.117-.08 16.23-.7 24.347-.738 28.573-.134 57.147-.054 85.72-.206 9.635-.05 19.269-.77 28.904-.779 8.776-.008 17.554.832 26.328.78 46.108-.276 92.215-.716 138.322-1.097 1.824-.015 3.647-.002 5.755-.002v25.98c-8.013 0-15.882-.093-23.748.022-12.623.182-25.243.64-37.867.733-19.665.144-39.333-.038-58.997.133-27.443.24-54.884.687-82.327 1.018-5.383.065-10.767-.016-16.15.014-58.445.323-116.89.614-175.334 1.02-12.275.085-24.546.738-36.822.882-13.206.155-26.433.446-39.62-.094-19.006-.78-37.6-3.9-55.966-9.396-11.87-3.552-22.977-8.364-33.568-14.383-6.216-3.533-11.852-8.305-17.17-13.155-11.225-10.238-22.15-20.88-28.925-34.799-5.145-10.568-10.104-21.245-14.656-32.08-5.18-12.332-7.316-25.406-7.956-38.724-.675-14.05-2.314-28.15-1.644-42.138.615-12.826 2.864-25.75 5.956-38.243 6.08-24.572 21.036-43.879 39.473-60.498 9.143-8.241 19.195-15.476 28.868-23.127 10.665-8.435 21.28-16.936 32.082-25.194 7.13-5.45 14.577-10.486 21.833-15.774 20.737-15.11 41.479-30.214 62.162-45.399 20.289-14.896 40.554-29.824 60.742-44.856 19.101-14.222 38.06-28.636 57.135-42.892 13.443-10.045 27.336-19.525 40.368-30.072 12.65-10.236 23.455-21.885 27.33-38.866 3.643-15.965 6.397-31.855 5.772-48.262-.709-18.599-4.982-36.183-15.14-51.953-8.15-12.652-19.042-23.015-31.747-30.624-13.386-8.017-28.133-13.52-44.266-13.47-11.044.036-22.233-1.037-33.096.385-12.314 1.613-24.181 5.452-35.526 11.313-19.447 10.048-36.047 24.099-53.847 36.433-20.424 14.153-40.233 29.195-60.3 43.862-18.467 13.498-36.919 27.017-55.386 40.515-12.422 9.08-25.184 17.735-37.205 27.32-13.897 11.079-27.125 22.996-40.684 34.502-11.3 9.587-23.412 18.357-33.817 28.827-16.108 16.209-32.67 32.25-44.76 51.903-5.94 9.655-10.21 20.375-10.487 31.906-.61 25.272-.771 50.556-.905 75.836-.048 8.952.498 17.908.805 26.86.675 19.72 1.412 39.436 2.047 59.156.693 21.542 1.433 43.083 1.893 64.63.289 13.543-.078 27.1.169 40.644.318 17.444 1.805 34.917 1.12 52.311-.374 9.511-3.445 19.148-6.649 28.253-3.526 10.018-8.51 19.533-13.028 29.188-4.206 8.991-12.651 13.909-19.882 19.912-8.553 7.1-18.323 12.018-28.95 15.399-12.651 4.024-25.64 4.868-38.63 3.618-13.505-1.3-26.902-3.746-40.333-5.78-11.534-1.746-22.894-4.008-34.124-7.498-9.442-2.934-19.545-3.776-29.38-5.402-6.833-1.13-13.671-1.066-20.036 2.032-3.897 1.896-8.229 3.68-11.12 6.705-7.194 7.526-14.45 15.548-15.527 26.449-.598 6.05.839 12.343 1.661 18.485 1.425 10.647 9.542 15.902 17.673 20.837 11.753 7.134 24.716 9.85 38.4 9.787 30.21-.138 60.419-.034 90.627-.22 16.95-.105 33.897-.65 50.847-.883 9.217-.127 18.44.087 27.657-.037 17.773-.239 35.544-.71 53.318-.903 38.644-.42 77.288-.756 115.933-1.061 13.666-.108 27.334.091 40.998-.062 16.614-.186 33.224-.705 49.837-.887 39.268-.43 78.536-.735 117.804-1.11 30.389-.292 60.778-.609 91.167-.922 35.771-.368 71.542-.758 107.314-1.112 32.505-.321 65.012-.548 97.517-.928 21.104-.247 42.206-.782 63.31-1.031 32.504-.385 65.01-.6 97.515-.953 26.775-.292 53.548-.723 80.323-1.017 33.725-.371 67.45-.619 101.175-1.015 16.61-.195 33.216-.723 49.826-.896 41.769-.436 83.543-.517 125.306-1.234 18.173-.312 36.464-.761 54.447-3.098 20.055-2.606 38.257-10.783 54.83-22.858 17.956-13.085 29.28-31.388 41.214-49.306 9.568-14.367 14.813-30.342 15.904-47.51 1.05-16.517 1.392-33.077 2.209-49.61.993-20.13-1.32-39.932-4.894-59.712-4.62-25.578-13.319-49.774-23.375-73.595-9.184-21.758-23.214-40.181-38.657-57.763-18.355-20.897-40.06-37.783-62.586-53.807-25.301-17.999-50.542-36.09-75.565-54.471-13.859-10.18-28.17-20.042-40.547-31.86-13.218-12.622-23.459-28.031-31.56-44.628-3.059-6.268-6.704-12.305-9.158-18.796-2.218-5.869-4.485-12.224-4.435-18.346.126-15.676 1.433-31.348 2.466-47.009.498-7.541 1.332-15.067 2.213-22.576 1.224-10.427 3.062-20.798 3.87-31.253 1.364-17.629 2.256-35.297 3.106-52.96.88-18.291-5.33-34.72-14.686-49.924-8.296-13.481-19.391-24.588-31.917-34.327-14.002-10.887-27.662-22.212-41.615-33.165-13.982-10.976-28.212-21.639-42.205-32.602-15.113-11.841-29.888-24.121-45.158-35.753-16.752-12.76-32.382-27.208-51.435-36.656-14.889-7.384-30.817-10.565-47.08-5.888-10.317 2.967-20.701 6.81-29.915 12.209-10.593 6.206-17.839 16.105-22.34 27.868-5.25 13.721-6.49 27.998-6.89 42.456-.037 1.332.004 2.666.017 4 .326 34.106.664 68.212.973 102.319.07 7.742.012 15.484.061 23.226.327 51.445.623 102.89 1.022 154.333.22 28.445.604 56.888.94 85.332.338 28.772.018 57.575 1.348 86.302.682 14.732 6.114 28.517 15.725 40.392 6.256 7.73 13.308 14.264 22.759 17.351 7.693 2.513 15.745 3.935 23.642 5.823 20.732 4.958 41.437 10.037 62.21 14.82 21.276 4.9 42.65 9.375 63.925 14.288 14.227 3.286 28.313 7.185 42.536 10.493 14.443 3.358 29 6.23 43.465 9.498 11.282 2.55 22.481 5.458 33.75 8.066 14.575 3.374 29.197 6.548 43.772 9.922 10.3 2.384 20.547 4.994 30.833 7.439 12.023 2.858 24.077 5.585 36.09 8.485 10.732 2.59 21.749 4.472 32.035 8.296 7.941 2.953 15.333 7.888 22.283 12.896 13.767 9.919 22.972 23.767 30.533 38.669 6.877 13.553 9.54 28.008 9.299 43.292-.3 18.928-5.617 36.259-16.464 51.35-6.094 8.478-14.712 15.175-22.38 22.477-7.4 7.046-16.639 11.148-26.263 13.63-9.758 2.518-19.898 4.808-29.898 4.93-64.265.791-128.538.923-192.808 1.346-33.615.221-67.228.649-100.843.877-18.081.123-36.164.022-54.707.022v18.79h-20.115v-62.382h19.775v17.7c1.793.094 3.238.256 4.679.232 17.814-.291 35.627-.794 53.442-.884 40.89-.205 81.781-.133 122.671-.321 44.626-.206 89.25-.59 133.876-.874 10.722-.068 21.551.905 32.143-.283 19.676-2.208 38.674-6.7 52.577-22.83 7.607-8.825 12.867-18.408 15.746-29.936 4.016-16.088 2.227-31.126-4.69-45.69-5.884-12.391-14.182-23.217-25.347-31.285-9.48-6.849-20.59-9.971-32.05-12.308-18.053-3.681-35.946-8.14-53.911-12.25-14.297-3.269-28.614-6.449-42.896-9.776-11.11-2.589-22.161-5.436-33.277-8.002-14.766-3.408-29.586-6.583-44.351-9.994-10.315-2.382-20.565-5.044-30.868-7.483-12.055-2.855-24.14-5.587-36.204-8.404-14.3-3.338-28.578-6.763-42.89-10.05-11.911-2.736-23.873-5.254-35.782-8.002-11.275-2.601-22.513-5.36-33.76-8.08-12.191-2.95-24.502-5.499-36.528-9.017-14.002-4.097-24.933-12.631-34.646-23.73-11.022-12.596-16.92-27.247-21.33-42.779-1.687-5.946-2.509-12.292-2.682-18.485-.4-14.322-.076-28.663-.203-42.995-.266-29.985-.737-59.97-.939-89.955-.423-62.773-.679-125.547-1.1-188.32-.17-25.117-.572-50.231-.91-75.346-.291-21.775-1.55-43.585-.685-65.313.726-18.254 3.412-36.51 12.441-53.067 8.767-16.077 21.265-28.173 37.518-36.652 11.65-6.076 24.008-10.347 36.746-12.5 8.628-1.46 17.894-.52 26.678.728 8.146 1.157 16.046 4.097 24.03 6.339 12.89 3.62 23.12 11.977 33.545 19.689 17.825 13.187 35.238 26.938 52.65 40.673 19.29 15.216 38.302 30.785 57.587 46.007 18.665 14.734 38.154 28.493 56.107 44.036 16.03 13.879 29.769 29.807 38.424 50.018 7.151 16.7 10.522 33.531 10.806 51.503.328 20.753-2.225 41.167-4.963 61.64-1.83 13.69-2.87 27.487-4.246 41.237-.966 9.661-2.932 19.362-2.582 28.977.388 10.667-.322 21.555 4.482 31.927 7.876 17.006 16.902 33.195 29.85 46.823 5.885 6.196 12.727 11.483 19.352 17.819 1.168 1.09 2.12 1.545 3.073 1.998 0 0 .032-.023.048.347 1.333 1.128 2.65 1.884 3.968 2.64 4.572 3.133 9.143 6.265 13.875 10.067 1.494 1.417 2.828 2.163 4.161 2.91 0 0-.02.015.027.352 1.005.783 1.964 1.23 2.923 1.678 6.106 4.343 12.212 8.686 18.63 13.534 1.346 1.152 2.378 1.797 3.41 2.443 0 0-.01.008.033.35 1.003.787 1.964 1.23 2.925 1.674"/></svg>