<svg xmlns="http://www.w3.org/2000/svg" viewBox="0 0 1696 804" xml:space="preserve"><path fill="#fff" d="M367 743.033c31.333.025 62.166-.051 92.998.118 15.431.085 30.858.744 46.289.924 35.43.414 70.861.64 106.291 1.052 16.6.193 33.196.73 49.797.945 31.617.41 63.236.682 94.855 1.044 26.437.303 52.872.745 79.31.954 19.418.154 38.839.03 58.614.03v27.114c-5.51-.416-10.873-1.156-16.24-1.173-36.832-.119-73.665-.004-110.497-.147-12.93-.05-25.858-.726-38.79-.922-27.24-.414-54.482-.72-81.724-1.031-30.761-.351-61.524-.601-92.285-1.01-14.26-.188-28.514-.814-42.773-.952-42.929-.416-85.859-.631-128.787-1.05-14.426-.14-28.846-.806-43.271-.964-37.43-.41-74.861-.61-112.29-1.019-15.75-.172-31.494-.71-47.242-.989-21.26-.377-42.535-.325-63.776-1.158-8.707-.342-17.495-1.903-25.962-4.037-7.206-1.816-14.74-4.165-20.776-8.27-6.108-4.152-11.526-10.132-15.512-16.413-6.854-10.801-12.57-22.35-18.379-33.781-7.176-14.122-15.63-27.602-18.042-43.893-1.854-12.517.076-24.323 3.393-36.086.797-2.824 3.726-5.002 5.484-7.605 8.484-12.559 21.054-20.006 34.106-26.513 12.998-6.48 26.464-12.021 39.723-17.977s26.483-11.988 39.782-17.852c11.804-5.204 23.715-10.162 35.53-15.342 14.308-6.273 28.598-12.59 42.83-19.033 8.838-4.002 17.372-8.741 26.382-12.287 8.101-3.188 16.733-5 25.01-7.776 12.944-4.343 26.391-4.206 39.743-4.81 7.844-.355 15.155 2.092 22.65 4.46 21.031 6.643 39.31 18.57 58.458 28.86 18.433 9.904 36.936 19.68 55.328 29.662 13.082 7.1 26 14.503 39.046 21.669 16.023 8.801 32.122 17.463 48.152 26.25 10.575 5.798 20.913 12.055 31.684 17.453 7.503 3.76 15.443 6.763 23.417 9.417 4.353 1.449 9.167 1.858 13.8 2.045 8.962.362 16.56-4.313 24.629-7.29 10.367-3.823 17.093-11.875 23.022-20.374 5.647-8.095 8.468-17.557 6.895-27.612-.416-2.656-2.254-5.497-4.242-7.423-6.665-6.458-13.673-12.562-20.586-18.761-9.371-8.404-18.724-16.829-28.178-25.139-15.667-13.771-31.561-27.29-47.056-41.252-7.734-6.97-16.418-13.645-19.548-24.093-1.79-5.974-1.952-12.63-2.869-18.8-1.462-9.845 3.652-16.563 7.28-23.85 3.723-7.473 12.046-10.94 19.333-13.97 7.35-3.055 15.361-5.26 23.812-4.416 8.732.873 17.126 2.562 25.42 5.599 10.03 3.67 20.464 6.227 30.63 9.548 7.327 2.392 14.468 5.346 21.754 7.867 9.932 3.436 19.927 6.686 29.887 10.04 7.581 2.553 15.136 5.185 22.728 7.705 8.503 2.822 17.067 5.466 25.546 8.359 7.667 2.616 15.202 5.626 22.893 8.169 12.288 4.062 24.706 7.733 36.972 11.856 7.533 2.532 14.8 5.86 22.34 8.362 10.316 3.421 20.79 6.36 31.173 9.582 4.109 1.276 8.226 2.58 12.213 4.183 9.072 3.65 18.568 5.384 28.184 4.6 9.05-.736 17.912-2.366 26.61-6.05 12.19-5.162 22.1-13.107 31.402-21.928 16.883-16.011 33.303-32.511 49.946-48.777 11.888-11.618 23.896-23.116 35.72-34.799 13.828-13.662 27.515-27.466 41.263-41.21 10.214-10.21 20.368-20.481 30.655-30.619 15.744-15.516 31.576-30.944 47.377-46.403 14.379-14.066 28.812-28.078 43.136-42.2 12.684-12.507 25.209-25.175 37.878-37.697 18.517-18.3 37.121-36.512 55.644-54.806 9.444-9.326 18.681-18.864 28.214-28.098 10.684-10.348 21.423-20.653 32.465-30.614 8.695-7.844 19.101-12.42 30.372-15.899 15.606-4.815 31.437-6.06 47.477-5.533 5.862.193 11.62 2.978 17.501 3.347 7.63.478 14.51 3.092 21.554 5.45 5.745 1.924 11.49 3.861 17.294 5.594 6.468 1.932 13.055 3.47 19.494 5.49 7.627 2.39 15.114 5.226 22.73 7.66 9.017 2.882 18.124 5.481 27.159 8.312 10.79 3.382 21.396 7.493 32.359 10.147 10.145 2.456 17.84 8.81 25.235 15.017 5.264 4.419 9.11 11.397 11.659 17.98 3.931 10.159 5.948 21.14 5.07 32.08-.679 8.441-2.694 16.854-4.881 25.075-2.162 8.127-4.24 16.576-8.251 23.836-5.046 9.136-10.859 18.48-18.464 25.402-8.586 7.814-19.08 13.952-29.586 19.106-8.915 4.375-19.046 6.248-28.6 9.35-6.51 2.116-12.876 4.706-19.444 6.611-9.226 2.676-18.605 4.818-27.867 7.375-5.193 1.433-10.25 3.35-15.424 4.859-9.525 2.778-19.128 5.294-28.628 8.154-6.73 2.026-13.283 4.642-20.024 6.626-8.933 2.628-17.994 4.82-26.96 7.34-8.638 2.428-17.23 5.02-25.835 7.567a4824 4824 0 0 0-24.808 7.41c-12.698 3.835-25.236 8.327-38.117 11.383-14.524 3.446-27.313 10.221-39.1 18.77-15.225 11.042-28.14 24.296-35.928 41.994-5.338 12.13-11.883 23.73-17.244 35.851-4.375 9.895-7.736 20.236-11.66 30.335-3.08 7.929-6.294 15.807-9.52 23.678a3717 3717 0 0 1-12.457 30.027c-4.51 10.73-9.175 21.396-13.63 32.148-6.118 14.761-15.161 27.345-26.452 38.685-6.819 6.848-11.012 15.466-12.192 25.64-.695 5.987-.924 11.569.092 17.536 1.356 7.974 11.81 22.692 19.256 23.718 6.28.865 13.302 1.204 19.174-.725 16.932-5.561 33.438-12.416 50.133-18.704 10.164-3.829 20.59-7.054 30.485-11.477 7.868-3.517 15.01-8.624 22.648-12.7 15.903-8.484 25.825-23.206 37.799-35.79 4.978-5.232 9.88-10.539 14.767-15.856 14.426-15.696 28.69-31.543 43.303-47.063 6.352-6.747 13.4-12.837 20.133-19.226 12.196-11.576 24.463-23.079 36.568-34.75 13.46-12.976 26.643-26.243 40.185-39.133 14.434-13.736 29.189-27.135 43.72-40.77 6.32-5.928 14.61-7.13 22.361-9.353 6.936-1.989 14.182-3.516 21.358-3.869 6.934-.34 13.997.785 20.924 1.81 7.034 1.04 14.022 2.532 20.938 4.204 11.244 2.718 21.148 8.304 30.867 14.465 10.31 6.536 18.595 14.928 24.183 25.592 2.753 5.254 4.319 11.372 5.268 17.284 2.467 15.369-2.508 29.002-10.151 42.235-9.08 15.718-17.165 32.01-25.789 47.994-6.265 11.613-12.776 23.094-19.048 34.705-5.719 10.587-11.22 21.29-16.899 31.9-4.637 8.662-9.371 17.272-14.101 25.884-7.947 14.468-15.988 28.885-23.87 43.388-7.115 13.095-13.231 26.822-21.313 39.28-9.727 14.995-20.357 29.55-31.957 43.133-7.703 9.02-16.908 17.436-28.046 22.259-15.378 6.658-31.017 12.93-46.997 17.916-14.427 4.503-29.453 6.882-44.78 6.696-9.924-.121-19.859.865-29.785.812-36.429-.195-72.857-.562-109.284-.98-15.094-.174-30.182-.775-45.276-.946-35.762-.408-71.527-.615-107.289-1.025-15.925-.182-31.846-.778-47.772-.973-31.593-.386-63.188-.624-94.783-.91-.13-.002-.262.183-.973.717v16.008h-19.483V733.13h19.943v16.9c1.63 0 2.914-.022 4.196.003 16.929.339 33.855.803 50.785.992 15.847.177 31.697-.026 47.545.097 35.933.278 71.865.599 107.796 1.014 16.599.191 33.193.737 49.792.955 30.597.402 61.197.63 91.794 1.032 16.938.222 33.872.912 50.808.907 16.627-.006 33.287-.121 49.865-1.206 7.215-.473 14.391-3.105 21.356-5.44 10.648-3.569 21.057-7.844 31.64-11.613 15.803-5.626 27.483-16.535 37.372-29.477 7.986-10.452 15.9-21.054 22.73-32.27 8.01-13.158 14.783-27.07 22.148-40.624 11.093-20.418 22.294-40.777 33.335-61.222 8.992-16.651 17.75-33.43 26.737-50.083 7.524-13.941 15.291-27.75 22.84-41.678 6.885-12.706 13.666-25.468 20.403-38.253 3.244-6.156.6-21.63-3.831-27.351-8.764-11.316-20.596-18.13-33.503-23.211-5.056-1.99-10.68-2.688-16.113-3.538-15.77-2.47-31.577-2.885-46.658 3.093-4.643 1.84-8.594 5.878-12.333 9.461-9.26 8.875-18.101 18.185-27.324 27.1-9.906 9.577-20.156 18.798-30.07 28.367-9.51 9.18-18.731 18.66-28.175 27.91-10.007 9.803-20.119 19.499-30.199 29.227-8.368 8.076-17.129 15.783-25.058 24.268-16.454 17.61-32.428 35.666-48.686 53.46-9.003 9.854-17.895 19.84-27.422 29.17-3.838 3.757-9.259 5.888-13.93 8.807-15.705 9.81-32.934 16.278-50.06 23.01-10.106 3.972-20.016 8.444-30.09 12.5-19.052 7.672-38.516 14.04-59.389 11.226-5.42-.731-10.506-4.607-15.537-7.41-9.554-5.324-14.229-14.589-19.204-23.783-4.64-8.573-6.613-17.511-6.74-27.107-.249-18.642 5.935-35.021 17.616-49.277 6.66-8.13 14.88-15.051 19.365-24.83a1484 1484 0 0 0 15.044-33.895 1979 1979 0 0 0 15.57-37.41c7.563-18.69 14.681-37.567 22.547-56.128 5.28-12.46 11.923-24.339 17.236-36.785 6.213-14.555 16.629-25.71 27.649-36.47 11.837-11.557 25.43-20.746 40.512-27.382 8.738-3.845 18.14-6.18 27.241-9.2 6.392-2.12 12.73-4.423 19.185-6.331 9.085-2.685 18.288-4.97 27.38-7.63 8.494-2.483 16.881-5.328 25.367-7.838 11.702-3.461 23.468-6.709 35.18-10.14 9.387-2.752 18.713-5.714 28.105-8.451 11.144-3.249 22.345-6.301 33.492-9.543 9.58-2.786 19.102-5.779 28.681-8.571 10.982-3.202 21.959-6.436 33.012-9.38 14.277-3.802 27.55-9.635 38.257-19.966 7.063-6.816 13.798-14.344 16.774-23.927 3.433-11.048 7.09-22.293 8.232-33.694.747-7.463-2.115-15.581-4.568-23.007-4.46-13.505-17.265-15.744-28.68-19.515a2398 2398 0 0 0-37.626-12.11c-8.903-2.78-17.928-5.173-26.829-7.96-7.776-2.436-15.414-5.31-23.185-7.763-12.907-4.073-25.734-8.515-38.849-11.783-14.345-3.575-28.755-4.026-43.632-.873-11.488 2.434-22.455 5.516-31.511 12.651-9.751 7.683-18.592 16.566-27.502 25.261-13.832 13.5-27.327 27.345-41.075 40.932-14.31 14.145-28.809 28.098-43.116 42.245-14.386 14.224-28.58 28.643-42.961 42.872-22.91 22.669-45.932 45.226-68.856 67.881-11.691 11.555-23.221 23.273-34.92 34.82-12.937 12.772-26.064 25.351-38.965 38.16-23.242 23.076-46.327 46.31-69.577 69.38-11.453 11.363-22.966 22.678-34.748 33.698-10.882 10.179-22.603 19.602-36.116 25.83a84.3 84.3 0 0 1-31.801 7.65c-7.488.299-15.048.6-22.483-.093-7.058-.658-14.082-2.282-20.963-4.086-6.68-1.75-13.158-4.27-19.726-6.45-10.952-3.637-21.92-7.226-32.854-10.918-18.745-6.331-37.432-12.839-56.212-19.064-18.922-6.272-37.961-12.192-56.889-18.448-17.704-5.852-35.307-12.008-52.996-17.908-16.437-5.482-32.846-11.075-49.426-16.093-9.927-3.005-19.608-.882-27.744 5.336-4.862 3.717-4.126 9.897-3.48 15.466.868 7.496 6.428 11.833 11.486 16.33 15.568 13.845 31.276 27.533 46.955 41.251 15.562 13.616 31.102 27.255 46.756 40.764 7.816 6.745 14.923 14.483 16.935 24.51 1.54 7.675.608 16.215-.88 24.056-3.36 17.711-13.28 31.474-26.686 43.56-10.738 9.68-23.882 14.015-36.672 18.105-8.683 2.776-18.638 3.363-28.918 1.402-17.202-3.281-31.848-11.389-46.858-19.104-13.195-6.782-25.974-14.368-38.98-21.521a18891 18891 0 0 0-56.941-31.17c-13.44-7.332-26.934-14.564-40.363-21.916-12.331-6.75-24.59-13.63-36.913-20.397-15.325-8.415-30.37-17.39-47.04-23.091-9.118-3.119-18.305-2.86-27.603-1.26-5.592.962-11.3 1.447-16.774 2.857-7.788 2.006-15.65 4.085-23.048 7.17-14.05 5.86-27.792 12.462-41.667 18.747-14.751 6.682-29.471 13.436-44.272 20.008-18.234 8.097-36.565 15.976-54.803 24.063-16.37 7.26-32.84 14.329-48.934 22.164-8.006 3.897-15.475 9.638-19.622 17.554-3.664 6.993-5.066 15.162-2.02 23.288 2.026 5.404 3.148 11.227 5.733 16.326 5.835 11.507 12.425 22.63 18.503 34.018 2.43 4.553 4.154 9.478 6.49 14.086 4.608 9.097 12.108 14.214 21.994 16.839 11.57 3.072 23.221 3.81 35.083 3.861 51.272.222 102.543.577 153.813 1.002 15.93.132 31.856.605 47.782.98 10.928.257 21.854.613 33.28.924"/></svg>