<svg xmlns="http://www.w3.org/2000/svg" viewBox="0 100 1734 860" xml:space="preserve"><path fill="#fff" d="M617.002 827.598c35.772.333 71.044.669 106.316 1 35.806.335 71.613.611 107.419 1.029 13.48.157 26.956.812 40.437.929 19.088.165 38.178.042 57.581.042v26.617c-3.17-.28-6.174-.771-9.179-.778-27.333-.06-54.666.014-81.998-.08-4.94-.017-9.874-.762-14.819-.917-5.37-.168-10.751.013-16.127-.046-28.44-.316-56.877-.718-85.317-.978-42.474-.387-84.95-.595-127.424-1.073-11.074-.124-22.137-1.008-33.209-1.462-6.043-.248-12.093-.453-18.14-.458-41.332-.04-82.725 1.381-123.983-.375-51.735-2.203-103.439-.9-155.147-1.712-12.608-.198-25.196-1.577-37.804-1.774-20.87-.327-41.767-.674-62.618.026-14.41.483-28.311-2.125-41.91-5.614-7.54-1.935-14.613-7.07-20.962-11.973-11.88-9.172-17.043-23.113-23.545-36.038-5.121-10.18-11.171-19.943-15.617-30.397-3.685-8.663-7.585-18.007-7.858-27.154-.347-11.69-1.323-24.505 5.69-34.926 4.763-7.08 10.988-13.484 17.577-18.967 13.792-11.48 31.05-16.607 47.079-23.967 12.418-5.703 24.733-11.633 37.186-17.26 17.6-7.954 35.296-15.7 52.932-23.577 10.722-4.788 21.402-9.67 32.113-14.482 15.178-6.817 30.15-14.166 45.641-20.178 7.908-3.069 16.891-3.239 25.144-5.578 11.654-3.304 23.457-.946 35.128-1.962 7.508-.654 14.045 2.465 20.622 4.809 23.656 8.429 44.547 22.5 66.782 33.84 23.724 12.1 46.96 25.168 70.275 38.056 23.755 13.131 47.298 26.646 71.033 39.814 11.157 6.19 22.23 12.699 33.92 17.715 12.464 5.35 25.42 7.47 38.866 1.406 8.464-3.816 17.464-6.513 23.987-13.476 6.587-7.033 12.513-14.718 14.63-24.373 1.9-8.671 2.34-16.852-5.936-23.638-13.363-10.957-26.076-22.712-38.951-34.253-15.848-14.206-31.561-28.562-47.376-42.805-5.139-4.628-10.53-8.981-15.594-13.686-5.082-4.72-9.495-10.11-11.312-16.933-4.197-15.763-3.926-31.406 6.636-44.546 4.123-5.13 11.22-8.546 17.63-10.979 7.062-2.68 14.95-4.784 22.374-4.494 8.942.35 17.95 2.908 26.617 5.54 16.202 4.921 32.172 10.602 48.25 15.933a6314 6314 0 0 0 31.978 10.498c10.003 3.258 20.08 6.297 30.019 9.741 14.57 5.05 28.982 10.556 43.578 15.527 11.92 4.06 24.04 7.531 36.016 11.436 7.57 2.468 15 5.362 22.557 7.868 10.45 3.464 20.984 6.68 31.44 10.124 5.548 1.828 10.887 4.428 16.535 5.775 11.024 2.629 22.032 4.719 33.615 1.948 6.343-1.518 12.873-2.096 18.555-5.589 7.049-4.333 14.819-7.926 20.84-13.414 18.311-16.69 36.01-34.055 53.79-51.318 11.656-11.317 23.004-22.951 34.559-34.373a5621 5621 0 0 1 33.349-32.67c21.218-20.628 42.558-41.131 63.685-61.852 9.703-9.516 18.908-19.537 28.54-29.127 14.393-14.334 28.939-28.514 43.466-42.712 11.157-10.903 22.495-21.622 33.548-32.628 10.362-10.32 20.28-21.087 30.71-31.336 14.678-14.424 29.748-28.45 44.462-42.837 13.092-12.801 25.851-25.942 38.901-38.786 10.349-10.186 22.64-16.974 36.585-21.232 14.609-4.46 29.488-6.327 44.602-5.721 6.889.276 13.703 2.376 20.552 3.643 3.683.681 7.425 1.13 11.04 2.068 8.783 2.283 17.601 4.5 26.233 7.277 12.202 3.927 24.2 8.485 36.376 12.494 11.05 3.638 22.227 6.886 33.339 10.337 11.021 3.423 21.89 7.474 33.086 10.166 11.171 2.686 19.762 9.482 27.857 16.568 4.759 4.167 8.146 10.728 10.304 16.862 4.157 11.82 5.697 24.36 5.051 36.877-.312 6.054-2.571 12.027-4.12 17.992-1.376 5.301-3.009 10.536-4.492 15.81-2.83 10.067-9.16 18.101-14.978 26.508-6.947 10.037-16.518 17.042-26.713 22.942-8.022 4.642-16.968 7.805-25.727 11.017-8.853 3.248-17.945 5.868-26.998 8.54-7.92 2.339-15.974 4.225-23.89 6.577-6.909 2.054-13.656 4.657-20.57 6.689-6.722 1.975-13.601 3.408-20.348 5.303-8.397 2.358-16.715 4.995-25.093 7.421-6.634 1.921-13.32 3.663-19.96 5.564a820 820 0 0 0-17.243 5.137c-9.158 2.84-18.286 5.774-27.436 8.638-9.726 3.044-19.41 6.238-29.211 9.019-8.213 2.33-16.682 3.787-24.833 6.294-13.66 4.203-26.964 9.161-39.123 17.098-16.715 10.912-30.433 24.586-39.826 42.096-7.038 13.12-13.114 26.788-19.053 40.457-6.965 16.025-13.489 32.25-19.887 48.512-6.33 16.088-12.122 32.387-18.468 48.47-1.72 4.357-4.295 8.467-6.99 12.333-6.106 8.753-12.567 17.258-18.82 25.91-13.178 18.233-32.04 30.173-48.743 44.537-4.53 3.896-8.1 9.624-10.396 15.215-2.608 6.349-4.858 13.596-4.396 20.254a42.95 42.95 0 0 0 7.428 21.284c5.515 8.034 12.44 11.41 22.232 11.097 11.09-.355 21.108-3.436 30.888-8.28 13.203-6.538 26.615-12.654 39.829-19.172 9.941-4.903 19.675-10.225 29.568-15.229 10.367-5.244 21.018-9.96 31.179-15.57 16.549-9.137 33.368-17.634 45.897-32.893 12.162-14.81 26.07-28.178 39.084-42.297 10.337-11.215 20.067-23.018 30.813-33.817 14.353-14.426 29.494-28.066 44.175-42.17 16.499-15.848 32.8-31.9 49.308-47.74 10.157-9.746 20.503-19.297 30.832-28.862 6.356-5.884 13.175-11.308 19.169-17.532 5.43-5.64 12.635-6.534 19.362-8.448 7.195-2.047 14.73-3.76 22.154-3.918 8.812-.189 17.687 1.244 26.49 2.339 6.812.847 13.72 1.686 20.282 3.58 6.129 1.77 12.173 4.384 17.684 7.603 7.59 4.434 15.577 8.853 21.69 14.979 7.768 7.782 15.312 16.39 16.5 28.38.336 3.384 1.506 6.681 1.904 10.065 1.612 13.71-3.106 25.715-9.812 37.352-6.948 12.054-13.324 24.437-19.96 36.672-10.196 18.795-20.484 37.541-30.576 56.392-10.027 18.73-19.713 37.643-29.826 56.326-7.654 14.14-15.804 28.008-23.618 42.062-5.739 10.321-10.621 21.186-17.082 31.022-9.868 15.023-19.804 30.204-31.529 43.743-9.888 11.418-21.632 21.395-36.843 26.328-12.499 4.054-24.427 9.85-36.887 14.041-10.938 3.68-22.251 6.136-33.91 6.706-44.48 2.172-88.984.475-133.474.895-13.768.13-27.543-.766-41.317-.896-44.271-.419-88.62.79-132.795-1.44-46.92-2.367-93.78-.615-140.654-1.575-.495-.01-.993.085-2.24.2v17.262h-19.66v-61.65h20.037v16.827c.904.2 1.656.499 2.414.516 16.105.36 32.21.735 48.317 1.013 21.98.378 43.96.698 65.94.998 6.208.085 12.417-.043 18.624.023 29.44.311 58.878.638 88.317.996 25.23.306 50.461.669 75.692.992 26.772.343 53.545.62 80.316 1.021 15.108.227 30.245 1.414 45.308.752 13.423-.589 26.996-.098 40.265-3.698 17.575-4.768 34.458-11.124 50.883-18.972 12.75-6.092 21.448-16.378 29.825-27.036 6.69-8.512 13.349-17.138 19.045-26.32 7.237-11.662 13.586-23.883 20.138-35.962 7.855-14.482 15.46-29.099 23.284-43.598 8.14-15.085 16.431-30.088 24.617-45.147 10.298-18.945 20.595-37.89 30.82-56.875 9.626-17.868 19.518-35.61 28.46-53.816 2.036-4.143 2.494-9.542 1.698-15.003-2.586-17.764-16.275-24.838-29.541-32.436-8.997-5.152-19.037-6.48-29.224-7.154-6.056-.4-12.148-2.184-18.1-1.73-8.077.616-16.336 1.924-23.935 4.59-4.826 1.694-8.883 6.092-12.79 9.8-14.048 13.33-27.91 26.857-41.793 40.36-8.501 8.268-16.839 16.707-25.39 24.924-8.582 8.248-17.356 16.296-26.008 24.472-2.616 2.473-5.134 5.052-7.645 7.632-19.496 20.039-39.056 40.016-58.439 60.164-12.016 12.491-23.807 25.2-35.597 37.907-5.042 5.434-10.01 10.96-14.68 16.711-7.754 9.552-18.788 14.342-29.055 20.083-15.327 8.568-31.026 16.48-46.666 24.476-9.924 5.073-20.076 9.696-30.039 14.696-14.052 7.051-27.69 15.058-42.154 21.108-8.674 3.628-17.464 8.074-27.51 7.986-5.182-.046-10.381 1.82-15.56 1.758-16.527-.199-28.973-8.05-38.356-21.395-8.205-11.669-13.337-24.351-13.055-38.771.286-14.624 4.433-27.972 12.371-40.51 7.223-11.406 18.144-18.517 27.896-27.026 4.81-4.197 10.441-7.491 15.034-11.89 5.06-4.848 9.8-10.177 13.885-15.866 6.876-9.574 14.16-19.083 19.38-29.563 6.76-13.567 11.66-28.06 17.371-42.152 2.453-6.052 4.944-12.088 7.392-18.142 7.199-17.798 13.922-35.808 21.726-53.337 5.856-13.154 12.166-26.29 19.93-38.37 12.614-19.622 30.334-34.404 50.357-46.068 11.798-6.873 24.613-11.68 38.097-14.773 9.22-2.115 18.055-5.857 27.156-8.552 8.908-2.637 17.982-4.705 26.896-7.321 8.968-2.632 17.806-5.701 26.742-8.443 5.244-1.609 10.59-2.88 15.85-4.434 7.623-2.25 15.184-4.713 22.822-6.91 6.38-1.834 12.877-3.263 19.242-5.143 11.913-3.517 23.72-7.402 35.662-10.814 11.505-3.288 23.152-6.076 34.687-9.263 8.097-2.237 16.117-4.753 24.16-7.187 11.305-3.42 21.988-8.243 31.125-15.776 4.378-3.61 7.775-8.386 11.807-12.444 10.081-10.146 11.907-24.1 15.805-36.72 2.537-8.213 2.004-18.17.141-26.76-2.802-12.923-10.992-21.94-24.787-25.43-10.824-2.74-21.243-7.048-31.922-10.402-10.547-3.312-21.223-6.211-31.79-9.462-7.72-2.376-15.323-5.128-23.034-7.533-11.437-3.567-22.889-7.091-34.399-10.409-7.949-2.291-15.906-5.175-24.045-6.027-9.092-.951-18.423-.3-27.59.42-5.463.43-11.026 1.764-16.153 3.718-6.757 2.575-13.954 5.123-19.488 9.533-9.897 7.887-18.84 17.004-27.916 25.878-20.628 20.17-41.128 40.47-61.615 60.783-15.579 15.448-30.997 31.057-46.596 46.485-16.42 16.24-33 32.32-49.456 48.524-24.519 24.143-49.032 48.293-73.47 72.52-16.886 16.74-33.58 33.674-50.476 50.405-11.445 11.334-23.156 22.4-34.629 33.706-13.616 13.42-26.994 27.08-40.678 40.43-14.443 14.09-28.683 28.473-46.42 38.614-7.99 4.568-16.214 8.355-25.645 9.066-9.492.715-18.926 2.402-28.422 2.81-13.43.577-26.118-3.275-38.675-7.714-13.096-4.63-26.365-8.764-39.53-13.2-7.501-2.527-14.9-5.364-22.425-7.812-12.795-4.16-25.687-8.027-38.475-12.21-6.959-2.275-13.768-5.003-20.68-7.425-8.26-2.894-16.563-5.661-24.836-8.516-10.165-3.508-20.283-7.16-30.49-10.542-8.02-2.658-16.18-4.899-24.215-7.515-7.227-2.353-14.352-5.017-21.552-7.452-12.308-4.164-24.444-9.065-37.026-12.112-9.352-2.265-18.784.393-26.372 6.757-5.543 4.65-5.024 18.494 2.054 25.049 6.998 6.481 14.01 12.952 21.134 19.294 12.687 11.293 25.496 22.447 38.192 33.73 15.653 13.91 31.53 27.586 46.76 41.948 10.767 10.152 13.449 23.069 11.03 37.695-1.616 9.77-5.071 18.641-10.148 26.772-8.68 13.903-19.016 26.23-35.512 31.626-5.89 1.927-11.35 5.308-17.31 6.836-7.552 1.935-15.575 4.258-23.102 3.5-9.515-.957-19.395-3.512-27.956-7.734-23.297-11.487-45.987-24.205-68.908-36.454-18.404-9.835-36.858-19.58-55.167-29.59-12.768-6.98-25.23-14.522-38.004-21.492-18.869-10.295-38.19-19.798-56.737-30.634-10.428-6.092-21.426-10.355-32.751-13.807-5.054-1.54-10.9-1.248-16.288-.743-8.132.763-16.166 2.519-24.263 3.708-11.323 1.664-21.313 7.005-31.609 11.432-11.363 4.887-22.541 10.202-33.786 15.361-12.987 5.959-25.903 12.075-38.952 17.895-15.588 6.952-31.332 13.556-46.918 20.511-12.841 5.73-25.512 11.842-38.335 17.613-7.337 3.301-15.366 5.4-22.103 9.608-6.972 4.355-14.166 9.651-18.68 16.292-4.841 7.119-5.032 16.349-2.491 25.167 5.161 17.915 15.332 33.378 23.885 49.639 2.742 5.21 5.263 10.536 7.937 15.783 4.559 8.944 12.642 12.94 21.844 15.011 34.792 7.827 70.104 2.693 105.162 3.938 15.98.568 31.997-.029 47.995.138 12.108.126 24.21.779 36.318.93 33.438.418 66.877.713 100.316 1.017 8.666.079 17.335-.096 26 .035 16.94.255 33.877.712 50.817.961 26.605.393 53.212.628 79.816 1.04 12.3.19 24.595.643 37.391.976"/></svg>