<svg xmlns="http://www.w3.org/2000/svg" viewBox="0 0 3279 751" xml:space="preserve"><path fill="#fff" d="M609.698 574.908c-6.45-2.361-12.503-4.658-18.575-6.904-4.886-1.807-9.962-3.2-14.646-5.426-4.673-2.221-8.91-5.343-13.435-7.898-4.278-2.416-8.685-4.603-13.031-6.9-5.541-2.927-11.03-5.96-16.633-8.762-3.866-1.933-7.802-3.79-11.858-5.263-11.021-4.006-22.06-7.99-33.22-11.581-5.883-1.894-12.07-2.828-18.06-4.418-6.883-1.826-13.626-4.244-20.569-5.77-7.986-1.756-16.094-3.063-24.21-4.1-5.886-.752-11.913-1.37-17.8-.952-12.127.858-24.203 2.45-36.3 3.735-.658.07-1.323.153-1.98.125-7.305-.318-14.335.395-21.41 2.832-5.832 2.01-12.324 2.012-18.37 3.523-4.393 1.099-8.515 3.261-12.793 4.856-7.373 2.749-14.992 4.955-22.1 8.265-7.009 3.262-13.555 7.538-20.225 11.5-9.53 5.661-19.04 11.36-28.463 17.194-9.532 5.901-18.792 12.256-28.476 17.89-5.588 3.252-11.767 5.494-17.699 8.147-5.6 2.505-11.068 5.45-16.882 7.295-6.425 2.04-13.114 3.549-19.801 4.396-11.101 1.405-22.29 2.825-33.447 2.871-9.875.042-19.904-1.053-29.588-3.014-7.437-1.507-14.725-4.574-21.56-7.988-7.04-3.515-13.368-8.426-20.158-12.474-6.069-3.618-9.011-9.584-12.5-15.25-1.135-1.843-3.628-2.863-4.716-4.718-4.117-7.02-9.09-13.57-10.853-21.878-.768-3.622-3.34-6.829-4.777-10.353-1.334-3.273-3.124-6.704-3.18-10.09-.153-9.426-.223-18.964 1.07-28.263.853-6.13 4.995-11.765 6.119-17.904 2.097-11.464 10.215-19.435 15.355-29.103.79-1.487 2.251-2.772 3.68-3.74 8.044-5.45 15.929-11.207 24.367-15.976 4.848-2.74 10.955-3.193 15.94-5.757 10.034-5.162 21.286-2.996 31.642-6.089 4.492-1.341 9.406-1.414 14.15-1.735 16.142-1.091 32.297-1.97 48.438-3.057 13.324-.899 26.627-2.113 39.955-2.934 9.258-.57 18.542-.988 27.815-1 66.499-.083 132.998.067 199.496-.135 13.883-.042 27.765-1.825 41.643-1.765 18.216.08 36.459.739 54.633 1.982 18.926 1.295 37.682 4.507 56.787 4.13 5.622-.112 11.341 2.712 16.95 4.409 6.673 2.018 13.394 3.965 19.878 6.496 8.58 3.349 16.93 7.287 25.426 10.858 2.726 1.146 5.644 1.83 8.407 2.9 10.616 4.108 21.082 8.64 31.84 12.327a206 206 0 0 0 26.166 7.084c8.823 1.772 17.958 2 26.772 3.806 9.033 1.851 18.35-.407 27.367 3.46 6.564 2.814 14.538 2.237 21.266 4.796 8.424 3.203 17.07 6.322 24.116 12.57 5.4 4.79 11.503 8.78 17.118 13.341 2.289 1.86 4.528 4.028 6.082 6.501 6.001 9.555 12.356 18.971 17.353 29.048 4.684 9.446 8.03 19.585 11.577 29.556 4.289 12.053 11.08 22.362 20.998 30.332 3.17 2.548 7.47 3.831 11.413 5.248 10.57 3.798 21.57 4.028 32.693 4.21 7.758.125 15.484 2.111 23.228 3.243 1.627.238 3.268.53 4.904.535 16 .04 32.024.54 47.987-.223 6.634-.317 13.243-3.052 19.68-5.23 15.985-5.41 21.76-20.42 30.468-32.747 5.425-7.681 11.648-14.799 17.514-22.168 2.74-3.441 5.533-6.842 8.214-10.328 5.934-7.712 14.526-11.81 22.798-16.026 7.656-3.902 15.8-7.105 24.05-9.508 7.96-2.319 16.342-3.175 24.521-4.763 4.955-.963 9.88-2.085 14.81-3.168.467-.103.864-.576 1.327-.643 17.143-2.487 34.397-5.115 51.653-2.869 6.832.89 13.627 4.521 19.712 8.129 9.84 5.835 19.144 12.59 28.559 19.123 12.379 8.59 24.365 17.789 37.095 25.812 5.3 3.34 12.065 4.377 18.196 6.365 13.635 4.42 27.679 1.782 41.527 2.06 5.656.113 11.6-1.115 16.973-2.99 7.568-2.643 14.733-6.443 22.059-9.772 2.904-1.32 5.839-2.592 8.644-4.1 1.838-.99 3.84-2.06 5.128-3.62 5.338-6.464 10.557-13.037 15.543-19.774 1.568-2.117 2.26-4.88 3.371-7.34 4.118-9.116 7.626-18.576 12.519-27.256 6.375-11.314 13.768-22.062 20.885-32.947 4.16-6.364 10.685-3.57 16.398-3.767 1.56-.053 3.19.292 4.675-.048 6.179-1.413 10.987 2.18 15.625 4.873 7.629 4.429 15.234 3.107 23.016 1.75 4.377-.764 8.68-1.946 13.048-2.78 10.742-2.05 21.488-4.09 32.259-5.985 11.91-2.097 23.846-4.062 35.78-6.025 12.233-2.011 24.44-4.233 36.726-5.843 13.03-1.708 26.15-2.72 39.21-4.22 3.877-.446 7.677-1.534 11.518-2.298 2.883-.574 5.763-1.478 8.666-1.575 6.92-.233 13.846.287 20.424-2.833 2.017-.957 4.596-.72 6.914-1.05 7.441-1.058 14.877-2.156 22.323-3.182 5.199-.716 10.416-1.306 15.616-2.012 7.146-.969 14.554-1.104 21.37-3.176 15.186-4.617 30.604-2.497 45.91-2.625 6.705-.057 13.433 1.993 20.14 3.148 8.853 1.523 17.776 2.755 26.515 4.778 6.648 1.538 13.09 4.016 19.563 6.253a935 935 0 0 1 24.199 8.726c2.693 1.014 5.45 2.186 7.74 3.878 5.855 4.325 12.753 6.724 19.467 8.144 4.747 1.005 10.39-1.528 15.404-3.18.845-.278 1.471-4.674.563-6.186-3.082-5.133-1.656-11.914-6.732-16.44-1.575-1.405-1.395-5.355-1.184-8.075.598-7.671-2.19-15.935 4.24-22.709 1.521-1.603 1.363-4.727 2.193-7.076 2.394-6.774 9.212-8.568 14.352-12.011 6.847-4.585 14.312-8.287 21.683-12.03 3.28-1.665 6.977-2.512 10.488-3.72 9.604-3.303 19.153-6.783 28.836-9.836 6.193-1.953 12.642-3.08 18.872-4.93 6.22-1.845 12.287-4.194 18.462-6.198 5.162-1.676 10.448-2.986 15.56-4.799 5.2-1.844 10.201-4.244 15.383-6.145 5.67-2.08 11.483-3.769 17.17-5.808 8.983-3.222 17.876-6.7 26.882-9.853 3.914-1.37 8.049-2.098 12.027-3.301 6.818-2.063 13.517-4.555 20.403-6.34 7.79-2.021 14.706-6.609 23.223-6.753 4.643-.078 9.271-2.452 13.861-3.93 9.899-3.188 19.587-8.171 29.7-9.248 10.97-1.17 19.959-7.187 30.483-9.036 6.125-1.076 11.863-4.365 17.77-6.671.459-.18.893-.686 1.315-.66 9.789.592 18.012-4.117 26.574-7.73 4.91-2.073 9.816-4.23 14.891-5.81 4.265-1.325 8.491-2.068 12.74-4.135 8.087-3.933 17.158-5.802 25.726-8.797 9.187-3.21 18.223-6.85 27.407-10.068 5.177-1.813 10.556-3.043 15.769-4.76 1.835-.606 3.407-1.97 5.174-2.833 3.31-1.618 6.008-2.162 7.811 2.432 3.75 9.558 7.983 18.927 12.024 28.39-8.908 3.333-17.438 6.56-25.993 9.718-8.802 3.25-17.593 6.537-26.459 9.608-5.825 2.018-11.837 3.502-17.647 5.559-4.718 1.67-9.194 4.02-13.898 5.733-5.21 1.899-10.588 3.334-15.84 5.123-5.664 1.93-11.25 4.082-16.9 6.05-4.888 1.702-9.82 3.276-14.728 4.918-6.721 2.25-13.437 4.515-20.16 6.76-.628.209-1.295.296-1.936.467-9.807 2.622-19.66 5.09-29.405 7.925-7.327 2.13-14.48 4.853-21.777 7.094-12.358 3.793-24.754 7.464-37.163 11.086-5.783 1.687-11.697 2.938-17.435 4.756-5.33 1.69-10.446 4.045-15.762 5.788-5.847 1.917-11.881 3.267-17.706 5.241-5.062 1.716-9.908 4.055-14.918 5.937-4.725 1.776-9.537 3.324-14.315 4.958-4.838 1.656-9.684 3.29-14.523 4.945-1.983.678-3.957 1.38-5.933 2.078-5.752 2.033-11.463 4.193-17.265 6.07-6.51 2.105-13.117 3.908-19.655 5.93-6.512 2.014-12.975 4.185-19.489 6.195-6.392 1.973-12.737 4.203-19.252 5.652-9.946 2.211-18.783 6.691-27.313 11.988-2.76 1.715-5.977 3.044-8.061 5.375-1.449 1.62-2.277 4.914-1.705 7 1.4 5.113 3.14 10.346 5.888 14.83 5.305 8.658 6.043 18.044 3.439 27.045-2.773 9.586-8.306 18.008-18.46 22.084-5.874 2.357-11.59 5.1-17.402 7.614-1.2.52-2.515 1.15-3.762 1.12-7.936-.203-15.902-.241-23.784-1.055-3.198-.33-6.25-2.386-9.298-3.805-10.488-4.881-20.754-10.305-31.476-14.594-8.072-3.23-16.693-5.113-25.107-7.458-8.11-2.259-16.154-5.371-24.428-6.283-16.642-1.835-33.335-5.068-50.208-1.061-4.908 1.165-10.168.773-15.232 1.378-7.143.853-14.292 1.762-21.372 3.022-10.872 1.935-21.658 4.362-32.537 6.253-8.547 1.485-17.173 2.52-25.775 3.675-12.676 1.701-25.352 3.406-38.045 4.97-11.707 1.444-23.61 1.883-35.097 4.318-8.503 1.803-16.962 1.997-25.432 2.993-9.973 1.172-19.693 4.402-29.571 6.516-3.2.685-6.613.36-9.82 1.022-10.846 2.237-21.546 5.485-32.489 6.857-9.469 1.187-19.192.353-28.804.395-2.498.012-4.997-.09-7.495-.047-3.16.056-5.94-.04-8.647-2.57-3.713-3.472-6.523-.319-8.254 2.783-4.49 8.05-8.71 16.256-12.889 24.474-4.972 9.778-9.566 19.757-14.8 29.39-1.762 3.24-5.177 5.534-7.5 8.523-6.283 8.087-12.43 16.435-21.463 21.58-6.882 3.92-14.394 6.73-21.62 10.048-4.132 1.897-8.217 3.905-12.398 5.688-1.467.626-3.145.813-4.75 1.049-1.792.262-3.86-.151-5.375.602-7.588 3.777-15.658 3.508-23.767 3.443-11.332-.09-22.667-.132-33.998.022-5.814.08-11.227-.655-16.782-2.866-8.479-3.375-17.617-5.1-26.081-8.504-4.54-1.826-8.298-5.643-12.34-8.653-9.73-7.247-19.244-14.8-29.18-21.753-8.788-6.15-17.642-12.432-27.203-17.175-6.545-3.247-14.047-7.018-21.927-2.451-.283.163-.61.285-.932.339-9.98 1.68-19.968 3.317-29.943 5.03-5.463.939-10.943 1.836-16.35 3.04-13.257 2.954-26.648 6.22-37.211 15.149-7.06 5.967-13.031 13.374-18.79 20.689-5.957 7.567-11.147 15.748-16.53 23.757-6.4 9.521-13.655 18.076-22.895 25.154-6.122 4.69-13.054 6.827-19.977 9.062-8.655 2.793-17.537 5.11-26.488 6.677-5.457.955-11.236.271-16.858.038-10.28-.427-20.643-.395-30.806-1.774-15.406-2.09-31.142 1.344-46.359-3.221-3.113-.934-6.601-1.899-9.684-1.403-7.971 1.28-14.704-2.932-21.91-4.555-6.428-1.448-12.65-4.29-18.092-9.469-10.232-9.734-19.776-19.781-26.073-32.447-3.816-7.677-6.623-15.85-10.112-23.697-3.207-7.214-6.454-14.435-10.178-21.388-3.41-6.367-6.848-12.917-11.467-18.377-3.591-4.247-9.369-6.565-13.53-10.434-4.268-3.967-8.663-7.37-14.315-8.893-7.503-2.023-14.936-4.543-22.572-5.78-11.155-1.806-22.485-2.501-33.7-3.974-8.746-1.149-17.473-2.547-26.126-4.25-5.069-.996-9.975-2.815-14.96-4.247-2.148-.616-4.375-1.016-6.45-1.815-5.537-2.132-11.019-4.406-16.507-6.663q-11.2-4.604-22.372-9.272c-7.037-2.94-13.92-6.32-21.12-8.777-7.354-2.51-15.014-4.119-22.53-6.158-1.073-.291-2.07-.853-3.138-1.17-3.263-.97-6.49-2.283-9.83-2.736-8.783-1.19-17.615-2.04-26.437-2.929-2.31-.232-4.664-.006-6.986-.166-13.985-.965-27.955-2.263-41.954-2.905-14.758-.677-29.543-.885-44.318-1.013-6.434-.056-12.871.682-19.312.903-4.372.15-8.757-.083-13.13.054-7.943.248-15.881.92-23.822.933-51.332.088-102.665-.074-153.997.136-11.548.047-23.085 1.513-34.64 1.834-12.035.335-24.113-.436-36.12.211-13.456.725-26.847 2.58-40.28 3.781-6.247.559-12.547.534-18.788 1.133-8.327.8-16.684 1.598-24.908 3.068-5.995 1.071-11.768 3.335-17.69 4.876-8.515 2.215-15.72 7.079-21.69 12.977-4.487 4.431-7.026 10.88-10.25 16.534-4.39 7.7-3.964 16.441-4.731 24.836-.38 4.16-.328 9.003 1.442 12.593 4.751 9.64 9.653 19.46 16.224 27.856 4.229 5.402 11.24 8.9 17.48 12.405 18.336 10.298 38.274 7.813 57.917 6.107 10.886-.946 21.328-4.317 31.145-9.196 10.598-5.267 21.348-10.332 31.486-16.396 12.8-7.657 24.918-16.448 37.597-24.32 5.72-3.552 12.06-6.115 18.162-9.035 6.6-3.159 13.182-6.374 19.904-9.258 5.024-2.156 10.23-3.903 15.403-5.69 4.436-1.532 8.944-2.85 13.414-4.283 22.366-7.168 45.152-11.497 68.78-10.834 4.704.132 9.435-1.4 14.171-1.528 5.581-.151 11.182.362 16.771.64 5.94.297 11.903.42 17.805 1.073 3.978.44 7.874 1.65 11.798 2.55 1.753.403 3.468 1.183 5.233 1.299 10.371.68 20.087 4.126 30.005 6.78 6.565 1.758 13.383 2.618 19.876 4.58 6.826 2.064 13.454 4.827 20.067 7.533 7.835 3.207 15.742 6.32 23.294 10.117 13.88 6.976 27.399 14.676 41.317 21.571 7.482 3.706 15.46 6.421 23.256 9.478 4.48 1.757 9.019 3.37 13.572 4.928 7.312 2.503 14.306 5.923 22.329 6.23 3.587.137 7.056 2.407 10.677 2.8 13.037 1.42 25.768 5.219 39.149 4.207 7.207-.544 14.586.112 21.787 1.024 3.405.43 6.637 2.608 9.833 4.22 4.213 2.125 8.585 4.096 12.375 6.843 3.003 2.177 5.161 5.493 7.82 8.178 8.534 8.615 11.47 20.102 15.266 30.953 2.496 7.134 2.445 15.12 4.438 22.479 4.127 15.245 12.938 27.39 25.968 36.428 6 4.161 11.518 9.308 18.03 12.342 4.676 2.177 8.89 6.057 14.987 5.608 3.54-.261 7.195 2.094 10.892 2.694 5.828.946 11.825.968 17.591 2.152 16.518 3.394 33.23 3.33 49.896 2.76 9.961-.34 19.866-2.298 29.8-3.496 1.64-.198 3.3-.222 4.95-.343 4.268-.313 8.772.126 12.759-1.105 10.04-3.098 20.818-2.131 30.69-6.503 5.095-2.256 11.246-1.996 16.757-3.476 6.583-1.769 12.994-4.179 19.477-6.318 5.643-1.862 11.37-3.507 16.903-5.654 7.885-3.06 15.633-6.472 23.423-9.77 3.872-1.64 7.672-3.454 11.57-5.025 7.34-2.956 14.777-5.673 22.08-8.715 7.195-2.996 14.22-6.404 21.419-9.395 11.72-4.868 23.476-9.656 35.304-14.253 5.732-2.227 11.707-3.821 17.49-5.928 5.312-1.935 10.39-4.592 15.792-6.185 9.494-2.799 19.083-5.386 28.776-7.36 5.614-1.143 11.504-.975 17.275-1.292 12.878-.708 25.783-2.19 38.633-1.815 17.614.513 35.176 2.643 52.782 3.726 15.36.945 30.769 2.203 46.123 1.853a417 417 0 0 0 49.812-4.122c7.308-1.051 14.75-1.577 21.886-3 10.577-2.11 20.72-6.406 31.037-9.802 4.913-1.617 9.912-3.045 14.677-5.027 5.08-2.112 10.048-4.566 14.853-7.25 7.883-4.403 15.717-8.919 23.35-13.737 12.029-7.59 23.666-15.82 35.865-23.115 9.474-5.667 19.696-10.07 29.32-15.506 7.43-4.198 14.282-9.422 21.705-13.638 5.803-3.295 12.117-5.682 18.147-8.59 4.572-2.203 8.93-4.894 13.607-6.828 7.938-3.281 15.998-6.292 24.11-9.119 5.686-1.98 11.514-3.577 17.335-5.134 4.25-1.137 8.593-1.93 12.893-2.879 13.247-2.926 26.478-5.764 40.15-6.12 8.72-.226 17.417-1.762 26.128-1.798 15.767-.066 31.535.734 47.305.84 24.165.162 48.337-.247 72.495.212 7.596.144 15.148 2.333 22.731 3.51 3.408.53 6.869.74 10.264 1.333 6.584 1.149 13.212 2.171 19.686 3.789 7.51 1.875 14.929 4.164 22.286 6.58 10.287 3.379 20.33 7.595 30.757 10.424 10.115 2.744 20.38 2.607 29.312-4.269 4.774-3.675 9.758-7.197 13.96-11.465 5.173-5.255 9.704-11.156 14.379-16.887 5.568-6.827 10.976-13.785 16.498-20.65.999-1.24 2.358-2.198 3.303-3.47 7.715-10.383 18.495-16.42 30.165-21.033 11.05-4.369 22.277-8.29 33.393-12.495 12.371-4.68 24.976-8.416 38.061-10.578 12.732-2.104 25.324-5.68 38.121-6.59 14.591-1.037 29.525-2.03 43.827 2.917 5.507 1.904 10.858 4.276 16.23 6.55 7.114 3.01 14.262 5.961 21.24 9.264 5.604 2.653 10.98 5.789 16.454 8.714 8.687 4.642 17.383 9.264 26.053 13.937 7.169 3.865 14.338 7.73 21.446 11.704 10.133 5.664 20.25 11.357 30.297 17.172 8.31 4.81 16.337 10.135 24.81 14.628 6.509 3.453 13.536 5.92 20.295 8.91 7.143 3.16 14.196 6.527 21.374 9.605 6.75 2.894 13.627 5.489 20.417 8.29 5.063 2.09 9.952 4.679 15.138 6.374 10.493 3.43 21.163 6.313 31.709 9.588 21.234 6.594 43.063 3.348 64.639 3.85 14.424.337 28.889-.297 43.311-.992 5.842-.281 11.602-2.001 17.431-2.853 9.246-1.35 18.587-2.148 27.76-3.865 10.752-2.013 21.38-4.7 32.036-7.203 11.238-2.639 22.516-5.148 33.638-8.217 6.02-1.66 11.645-4.72 17.638-6.514 7.017-2.102 14.293-3.329 21.36-5.285 5.77-1.597 11.4-3.7 17.087-5.596 5.284-1.761 10.601-3.433 15.831-5.343 9.317-3.4 18.572-6.967 27.866-10.432 6.832-2.547 13.743-4.894 20.51-7.604 5.509-2.206 10.857-4.818 16.276-7.252 6.046-2.715 12.152-5.309 18.116-8.195 3.886-1.882 7.553-4.215 11.342-6.302 2.86-1.576 5.764-3.072 8.64-4.621 8.838-4.763 17.805-9.306 26.477-14.355 13.059-7.603 26.185-15.149 38.746-23.522 7.58-5.053 14.073-11.718 21.197-17.481 3.547-2.869 7.507-5.219 11.124-8.007 19.536-15.062 38.484-30.77 55.585-48.652 9.251-9.674 19.83-18.131 28.636-28.167 10.904-12.426 20.7-25.837 30.764-38.983 6.962-9.093 13.646-18.404 20.314-27.718 6.166-8.613 12.15-17.356 18.204-26.049 6.187-8.884 12.457-17.711 18.519-26.679 10.887-16.107 22.03-32.061 32.295-48.56 4.978-8 5.687-17.263 2.214-26.46-.749-1.983-.756-4.302-1.727-6.138-3.462-6.542-8.91-10.643-16.198-12.223-4.737-1.027-9.422-2.603-14.208-3.008-5.515-.468-11.315-1.417-16.429 2.088a5.6 5.6 0 0 1-1.8.8c-10.778 2.608-21.588 5.095-32.34 7.806-8.193 2.066-16.249 4.715-24.49 6.547-8.704 1.935-17.575 3.107-26.332 4.822-3.523.69-6.883 2.242-10.412 2.873-10.279 1.84-20.646 3.203-30.902 5.151-9.92 1.885-19.702 4.497-29.626 6.36-9.629 1.806-19.406 2.821-29.033 4.638-8.756 1.652-17.397 3.908-26.085 5.912-1.275.295-2.528.949-3.798.965-12.915.16-25.095 4.272-37.59 6.732-11.067 2.178-22.307 3.46-33.434 5.353-10.133 1.725-20.208 3.785-30.327 5.598-2.427.435-4.941.36-7.386.721-10.202 1.507-20.438 2.842-30.572 4.726-8.095 1.505-16.036 3.827-24.09 5.576-8.785 1.907-17.652 3.441-26.429 5.38-8.602 1.902-17.129 4.144-25.707 6.159-2.537.596-5.138.92-7.706 1.386-6.258 1.137-12.559 2.088-18.76 3.479-6.998 1.569-13.908 3.531-20.854 5.332-2.837.736-5.665 1.5-8.5 2.246-9.85 2.592-19.756 4.995-29.532 7.844-5.454 1.59-10.654 4.033-16.041 5.88-5.21 1.785-10.537 3.223-15.767 4.95-7.317 2.416-14.585 4.98-21.887 7.441-6.922 2.333-13.82 4.753-20.808 6.87-5.51 1.67-11.228 2.68-16.7 4.456-5.995 1.946-11.813 4.435-18.054 6.82l10.48 27.916-27.974 10.703-33.357-87.924c9.356-3.57 18.452-7.038 27.98-10.672l10.318 26.817c5.326-2.25 10.186-4.557 15.227-6.357 4.54-1.622 9.298-2.63 13.929-4.012 6.102-1.82 12.143-3.85 18.266-5.592 7.618-2.167 14.67-6.074 22.853-6.644 3.284-.228 6.4-2.549 9.64-3.788 8.649-3.307 17.259-6.735 26.016-9.73 4.546-1.553 9.373-2.285 14.071-3.395 2.632-.621 5.292-1.15 7.886-1.904 7.061-2.054 14.018-4.52 21.158-6.238 7.898-1.9 15.96-3.11 23.933-4.714 2.835-.57 5.602-1.476 8.424-2.117 8.84-2.009 17.723-3.831 26.528-5.98 7.597-1.854 15.048-4.33 22.675-6.03 8.574-1.91 17.285-3.197 25.916-4.863 10.277-1.983 20.514-4.176 30.804-6.089 4.665-.867 9.41-1.315 14.127-1.886 8.88-1.073 17.823-1.752 26.636-3.22 13.972-2.326 27.884-5.037 41.77-7.839 8.58-1.731 17.06-3.954 25.599-5.894 1.12-.255 2.338-.288 3.485-.175 8.473.84 16.056-2.727 23.992-4.64 7.15-1.725 14.441-2.879 21.68-4.229 5.623-1.048 11.248-2.098 16.897-2.993 9.143-1.45 18.373-2.44 27.443-4.245 8.524-1.698 16.822-4.522 25.34-6.262 9.116-1.862 18.373-3.038 27.57-4.505.325-.052.682.057.997-.02 8.208-2.044 16.405-4.132 24.62-6.148 8.062-1.98 16.17-3.776 24.205-5.862 6.616-1.717 13.144-3.771 19.731-5.602 1.258-.35 2.629-.273 3.918-.535 5.332-1.086 10.67-2.15 15.973-3.363 9.321-2.132 18.46-5.352 28.286-2.094 4.231 1.403 9.123.968 13.212 2.616 8.467 3.412 17.308 5.491 25.388 10.503 10.426 6.468 14.921 16.23 20.13 26.223 3.907 7.497 4.024 15.167 3.887 23.124-.111 6.538.679 13.18-.247 19.587-.726 5.019-2.793 10.154-5.438 14.527-7.58 12.529-15.75 24.7-23.7 37.005-8.856 13.706-17.578 27.503-26.652 41.063-4.299 6.423-9.42 12.288-13.925 18.581-8.042 11.237-15.781 22.69-23.873 33.891-5.201 7.199-10.988 13.975-16.196 21.17-16.43 22.697-37.643 40.897-56.975 60.863-8.094 8.359-16.003 17.013-24.903 24.45-11.268 9.415-23.594 17.553-35.205 26.575-7.276 5.652-13.749 12.363-21.17 17.795-9.845 7.206-20.19 13.744-30.464 20.347a393 393 0 0 1-21.087 12.653c-10.582 5.901-21.274 11.612-32.02 17.212-9.455 4.929-18.956 9.789-28.61 14.31-6.89 3.227-14.046 5.889-21.116 8.721-7.969 3.193-15.948 6.36-23.972 9.412-5.207 1.98-10.737 3.257-15.694 5.713-5.93 2.937-13.196 1.303-18.564 6.21-1.992 1.82-5.219 2.433-7.988 3.231-6.693 1.93-13.891 2.725-20.055 5.698-6.404 3.09-13.627 1.5-19.971 5.74-4.926 3.293-11.971 3.365-18.031 5.026-7.663 2.101-15.162 5.192-22.953 6.308-6.975 1-13.68 2.06-20.396 4.454-5.908 2.106-12.47 2.41-18.758 3.41-10.34 1.646-20.7 3.17-31.037 4.839-2.415.39-4.742 1.379-7.16 1.684-3.179.401-6.409.39-9.616.572-9.395.533-18.858.539-27.84 4.027-1.322.513-2.86.655-4.297.658-20.667.041-41.346.452-61.993-.173-8.674-.263-17.283-2.728-25.916-4.223-4.77-.826-9.627-1.367-14.264-2.676-5.155-1.455-10.142-3.545-15.134-5.531-4.912-1.954-9.617-5.441-14.63-5.91-8.884-.828-15.508-6.91-23.881-8.564-2.165-.427-4.085-1.997-6.178-2.898-11.995-5.164-24.202-9.884-35.96-15.538-10.716-5.153-20.97-11.271-31.395-17.025-7.4-4.086-14.773-8.223-22.106-12.429-7.982-4.578-15.84-9.376-23.87-13.865-7.382-4.126-14.875-8.059-22.402-11.914-12.641-6.477-25.289-12.948-38.05-19.18-7.61-3.716-15.156-8.101-23.247-10.157-10.575-2.687-21.585-6.392-32.63-1.042-.688.333-1.65.215-2.469.138-8.7-.822-16.974 1.299-25.326 3.302-6.645 1.593-13.54 2.163-20.164 3.826-5.644 1.417-11.046 3.785-16.58 5.659-5.272 1.786-10.636 3.319-15.852 5.253-5.275 1.957-10.405 4.3-15.624 6.412a90 90 0 0 1-6.456 2.312c-6.348 2.021-11.106 5.972-15.108 11.282-8.949 11.874-17.799 23.864-27.471 35.135-5.366 6.254-12.3 11.164-18.541 16.665-2.683 2.365-5.124 5.157-8.15 6.954-11.525 6.845-24.124 10.885-37.429 12.016-3.969.337-8.164-1.613-12.212-2.68-6.16-1.624-12.34-3.205-18.404-5.141-10.072-3.216-19.964-7.023-30.11-9.965-7.508-2.178-15.286-3.448-22.97-4.993-6.076-1.222-12.192-2.24-18.288-3.363-6.563-1.21-13.115-3.446-19.685-3.495-42.33-.32-84.664-.198-126.996-.099-3.404.008-6.792 1.099-10.212 1.405-4.677.42-9.405.34-14.06.901-4.43.534-8.816 1.517-13.177 2.5-2.039.458-3.974 2-5.954 1.996-12.262-.026-23.182 5.515-34.625 8.58-9.071 2.429-17.283 7.99-25.973 11.952-4.38 1.998-9.17 3.152-13.418 5.37-5.327 2.78-10.256 6.315-15.415 9.427-7.535 4.545-15.11 9.024-22.692 13.49-3.73 2.197-7.517 4.3-11.275 6.45-.143.082-.244.255-.392.306-12.393 4.196-22.098 13.037-33.276 19.34-7.639 4.309-14.735 9.567-22.2 14.198-6.522 4.045-13.047 8.15-19.901 11.566-4.264 2.125-9.173 2.926-13.73 4.5-2.4.83-4.635 2.127-7.003 3.065a1133 1133 0 0 1-18.125 7c-1.205.454-2.52.656-3.802.858-2.76.433-5.891.097-8.233 1.308-7.281 3.768-15.346 4.045-23.057 5.549-11.728 2.287-23.68 3.434-35.543 5.018-1.474.197-2.985.15-4.479.15-20.5.009-41.014.478-61.494-.16-13.62-.424-27.188-2.453-40.784-3.714-1.983-.183-3.993-.114-5.99-.115-13.833-.009-27.682-.408-41.494.131-9.823.384-19.626 1.83-29.383 3.193-6.535.913-13.026 2.304-19.436 3.89-3.46.855-6.72 2.544-10.05 3.901-3.764 1.535-7.535 3.055-11.252 4.697-5.637 2.49-11.194 4.776-17.477 5.737-4.896.749-9.466 3.789-14.114 5.955-4.234 1.974-8.285 4.362-12.579 6.186-13.926 5.917-27.912 11.692-41.904 17.452-6.486 2.67-13.076 5.088-19.549 7.79-5.826 2.43-11.45 5.375-17.358 7.57-5.291 1.967-10.892 3.084-16.275 4.824-6.646 2.15-13.13 4.83-19.83 6.772-6.27 1.818-12.224 6.022-19.327 3.288-.43-.166-1.21.402-1.755.743-5.66 3.537-12.102 4.063-18.48 5.01-7.428 1.103-14.759 3.037-22.214 3.747-11.92 1.134-23.924 1.362-35.861 2.345-8.438.694-16.803 2.308-25.243 2.932-5.508.407-11.105-.05-16.64-.438-5.073-.356-10.123-1.092-15.173-1.74-7.15-.918-14.312-1.772-21.429-2.906-7.43-1.185-14.776-2.936-22.225-3.956-9.503-1.301-17.082-6.987-25.604-10.506-10.951-4.521-19.234-12.875-27.996-20.27-5.944-5.017-10.005-12.279-14.839-18.59-2.475-3.231-4.75-6.614-7.197-9.868-3.75-4.984-5.503-10.544-6.176-16.773-.474-4.379-2.413-8.598-3.682-12.892-.322-1.091-1.035-2.308-.802-3.284 1.743-7.297-2.991-13.091-4.85-19.408-1.877-6.374-7.693-10.321-13.747-13.586-8.002-4.315-16.53-2.335-24.823-3.153-10.654-1.052-21.337-1.913-31.943-3.335-8.262-1.107-16.487-2.685-24.609-4.568-4.275-.992-8.185-3.782-12.464-4.448-3.064-.477-6.404.951-9.135-2.343"/></svg>