<svg viewBox="0 0 1484 1300" xml:space="preserve" xmlns="http://www.w3.org/2000/svg"><path d="M1168.482 20.188a70.1 70.1 0 0 0-19.691 3.4c-11.798 3.82-21.989 11.094-29.379 21.182-8.878 12.118-17.314 24.602-21.338 39.459-3.144 11.609-6.63 23.126-10.025 34.666-3.48 11.827-7.051 23.629-10.551 35.45-2.489 8.408-4.973 16.815-7.377 25.247-2.494 8.75-4.675 17.594-7.377 26.28-4.327 13.91-9.214 27.65-13.414 41.6-4.433 14.72-8.296 29.614-12.486 44.409-2.475 8.739-5.168 17.416-7.645 26.156-4.118 14.534-8.156 29.09-12.195 43.647-1.997 7.195-3.821 14.439-5.904 21.609-1.625 5.592-3.487 11.115-5.323 16.644-2.826 8.505-5.881 16.938-8.52 25.5-1.366 4.436-1.796 9.155-3.075 13.625-6.131 21.431-12.442 42.81-18.522 64.254-.279.987.781 3.245 1.664 3.532 7.567 2.455 15.238 4.59 22.938 6.84.618-1.093 1.285-1.885 1.549-2.795 4.385-15.152 8.593-30.357 13.119-45.467 2.427-8.101 5.39-16.043 8.097-24.06 1.384-4.097 2.822-8.177 4.086-12.311 1.635-5.35 3.167-10.734 4.655-16.127a130 130 0 0 0 2.052-8.639c1-4.917 1.53-9.962 2.9-14.768 3.163-11.086 6.847-22.021 10.065-33.091 3.583-12.326 6.802-24.758 10.332-37.1 3.167-11.075 6.539-22.092 9.819-33.135 2.818-9.487 5.653-18.97 8.445-28.465a4776 4776 0 0 0 7.486-25.755c2.65-9.203 5.224-18.43 7.906-27.623 2.64-9.05 5.46-18.05 8.043-27.116 3.255-11.416 6.26-22.902 9.541-34.31 3.412-11.857 7.196-23.61 10.51-35.492 4.988-17.885 10.935-35.092 24.47-48.827 7.894-8.009 17.286-11.433 27.946-11.681 11.04-.257 20.75 4.504 29.168 11.045 27.562 21.419 54.803 43.251 82.152 64.943 24.453 19.393 48.879 38.824 73.334 58.213 14.147 11.214 28.378 22.319 42.481 33.586 9.77 7.807 19.678 15.417 25.97 26.75 3.22 5.796 3.858 11.308 1.505 17.338-3.138 8.04-9.534 13.405-16.065 18.318-7.679 5.776-16.628 6.135-26.125 5.352-16.496-1.361-33.103-1.304-49.64-2.264-19.93-1.155-39.592 1.097-59.186 4.121-6.225.96-12.621 2.332-18.322 4.89-22.653 10.166-38.838 28.018-53.395 47.321-14.326 19-27.91 38.555-41.78 57.899-15.101 21.062-30.327 42.039-45.177 63.277-12.908 18.46-25.794 36.96-37.904 55.945-12.442 19.507-19.026 41.08-19.172 64.399-.057 9.166-.088 18.334.014 27.5.2 17.953 1.368 35.802 9.017 52.43 4.475 9.727 8.04 20.409 14.65 28.51 15.08 18.475 31.593 35.805 47.881 53.267 16.327 17.502 33.083 34.604 49.663 51.869 4.225 4.398 8.542 8.71 12.75 13.125a27008 27008 0 0 1 39.939 42.027c5.41 5.702 11.748 10.811 15.965 17.295 8.305 12.768 9.683 27.21 6.67 42.04-.74 3.641-1.587 7.32-2.916 10.776-5.531 14.396-11.263 28.715-16.928 43.059-2.648 6.705-5.354 13.387-7.957 20.11-4.25 10.975-8.541 21.938-12.615 32.98-2.68 7.26-4.836 14.717-7.533 21.97-6.19 16.652-12.299 33.34-18.944 49.81-6.46 16.013-13.336 31.871-20.506 47.58-1.846 4.044-4.741 8.658-8.427 10.626-13.887 7.41-29.38 8.349-44.787 9.14-12.056.62-24.103 1.386-36.159 1.983a12811 12811 0 0 1-63.49 2.998c-5.68.254-11.377.112-17.057.358-11.709.505-23.412 1.135-35.117 1.754-1.794.095-3.598.29-5.361.63-10.72 2.079-21.493 3.938-32.111 6.448-4.965 1.173-9.983 2.752-13.473 7.277-12.927 16.76-21.78 35.746-29.973 55.031-5.148 12.12-15.94 17.195-26.722 20.993-7.974 2.806-17.279 2.452-25.99 2.458-165.167.123-330.333.088-495.499.098-10.21 0-19.532-1.81-27.84-8.767-8.015-6.712-13.83-19.554-10.1-28.932 5.678-14.275 15.814-25.148 29.24-32.55 6.945-3.83 14.496-6.564 21.76-9.817 25.509-11.425 51.01-22.858 76.515-34.29 17.762-7.961 35.501-15.978 53.294-23.87 10.673-4.733 21.472-9.181 32.14-13.926a4163 4163 0 0 0 44.403-20.078c8.096-3.716 16.471-7.044 24.016-11.69 8.243-5.074 15.672-11.47 23.457-17.29.252-.909.213-2.137.803-2.673h.002c-.59.536-.552 1.765-.479 2.565 5.588-4.498 10.852-8.888 15.756-13.453-.965-.01-1.87-.097-2.53.08.66-.18 1.573-.103 2.561-.131.367.116.48.069.493.062v-.002c.224-.422.46-.842.771-1.244a3.4 3.4 0 0 0-.549 1.108c.688-.65 1.154-1.163 1.258-1.823a3.4 3.4 0 0 0-.344.292 3 3 0 0 0-.217.24c.07-.081.138-.162.217-.24a4 4 0 0 1 .383-.344c.378.089.497.022.51.013h.002c.237-.455.472-.91.824-1.34a3.3 3.3 0 0 0-.603 1.206c.676-.642 1.13-1.15 1.226-1.807a3 3 0 0 0-.316.266 4 4 0 0 1 .369-.323c.387.088.508-.004.521-.015v-.002c.966-1.205 1.933-2.409 3.043-3.574a33 33 0 0 0-2.783 3.408c1.677-1.642 3.094-3.118 4.166-4.76l.002-.002.063-.057c.38.103.501.002.515-.011h.002c.23-.444.459-.887.799-1.307a3.2 3.2 0 0 0-.578 1.178c.665-.633 1.11-1.137 1.199-1.787a3 3 0 0 0-.238.195q.136-.129.295-.252c.387.083.508-.013.521-.025h.002c.228-.442.455-.885.791-1.303a3.2 3.2 0 0 0-.57 1.172c.665-.635 1.109-1.138 1.199-1.79a3 3 0 0 0-.238.196q.137-.129.297-.254c.389.084.51-.016.523-.03-.064-.128-.204-.306-.21-.398.01.09.183.246.48.223 4.17-6.359 8.111-12.569 11.757-18.746q.576-.813 1.163-1.629c.762-.736.895-1.321 1.029-1.906-.187-.211-.553-.507-.606-.654.058.146.462.43.946.548 3.024-6.37 5.706-12.636 8.054-18.845-3.237 6.114-6.14 12.17-9.002 18.244 2.862-6.074 5.767-12.13 9.106-18.563.48-.823.522-1.267.564-1.713.255-.687.563-1.421.953-2.23.17-.35.31-.675.54-1.08.42-.804.445-1.251.47-1.7.366-2.196.47-4.48 1.153-6.574-.682 2.094-.787 4.376-.817 6.426 2.348-6.72 4.36-13.293 6.026-19.808-1.707 3.862-3.248 7.652-4.577 11.494 1.33-3.848 2.883-7.685 4.672-11.883.468-1.52.495-2.59.522-3.66.354-1.963.71-3.927 1.498-6.338.473-1.515.51-2.583.549-3.649.364-1.966.726-3.932 1.52-6.322.445-1.175.462-1.927.478-2.678-.277-1.365-.76-2.73-.88-4.095.125 1.362.65 2.701 1.247 3.867.434-16.35.41-32.474.596-48.594.164-14.35.557-28.7.48-42.931l.078-.588c.477-3.928.5-7.289.522-10.649-.282-1.364-.77-2.726-.895-4.092.13 1.362.655 2.697 1.248 3.85.438-11.228.355-22.22.64-33.203.39-14.867 1.062-29.728 1.264-44.47-.374.501-.699.958-.916 1.402.226-.5.568-1.068 1.008-1.86.478-13.269.516-25.96.555-38.652-.23-.353-.638-.71-.738-1.06.106.346.56.68 1.117.853a831 831 0 0 0 1.021-42.68c-.469.298-.819.513-.935.72.117-.22.48-.504 1.021-1.179.388-12.246.332-23.916.274-35.586-4.77-2.166-2.04-6.174-2.045-10.158.179-2.755.082-4.796-.016-6.836-1.005-2.82-2.01-5.64-2.965-8.572a137 137 0 0 0 3.074 8.18c-1.45-4.937-3.003-9.512-4.798-13.862q-.121-.43-.24-.865c.174-1.01.099-1.449.02-1.887-.393-.46-.788-.921-1.148-1.459.37.458.79.845 1.233 1.143-.518-1.045-1.112-1.808-1.92-2.395a8 8 0 0 1-.178-.443c.154-.97.078-1.408.002-1.848-.41-.65-.819-1.3-1.191-2.033.383.65.82 1.225 1.285 1.701-.53-1.37-1.145-2.44-1.98-3.334a13 13 0 0 1-.157-.482c-.063-1.308-.361-2.087-.658-2.867-1.342-1.881-2.85-3.666-3.984-5.664 1.134 1.998 2.643 3.783 3.972 5.279-2.62-5.018-5.228-9.67-8.06-14.13l-.22-.589c-.096-.967-.392-1.435-.688-1.904-2.253-2.586-4.788-4.984-6.69-7.807 1.902 2.823 4.436 5.22 6.662 7.443-4.429-6.928-8.83-13.492-13.412-19.724 1.437 2.955 2.861 5.822 4.436 8.555-1.58-2.74-3.017-5.63-4.496-8.649.112-.4-.043-.532-.063-.547l-.002-.002c-5.499-.196-7.939-4.596-10.969-8.44.098-.369-.008-.49-.021-.503-4.59.285-6.728-3.08-8.992-6.49.096-.361.007-.48-.004-.492-1.012-.57-2.025-1.139-3.053-1.776a42 42 0 0 0 2.857 1.51c-1.994-1.373-3.835-2.533-5.64-3.41a32 32 0 0 1-.705-.55c-.737-.776-1.32-.922-1.903-1.066-.853.006-1.865.292-2.597.084.73.204 1.73-.12 2.492-.421-4.38-2.907-8.591-5.588-12.94-8.024-13.94-7.817-27.78-15.901-43.9-17.978 1.484 1.058 2.864 2.313 4.318 2.834-1.464-.522-2.894-1.793-4.681-2.934-1.196-.459-1.95-.486-2.703-.514-1.866-.348-3.754-.72-5.948-1.441-.114-.038-.208-.052-.324-.092-.83-.45-1.276-.465-1.724-.482-3.444 1.057-6.917 2.37-10.354-1.51-1.86-.474-3.25-.494-4.64-.514-3.548.173-7.107.618-10.637.44 3.53.178 7.09-.266 10.43-.791-4.904-.993-9.583-1.877-14.303-2.225-8.204-.606-16.437-1.249-24.65-1.178-6.36.056-12.763.86-19.04 1.946-3.993.69-7.796 2.486-11.447 4.066q-.2.023-.404.041c-1.016-.19-1.457-.119-1.897-.049.007 1.51-.448 2.298-1.353 2.506.833-.197 1.22-1.01 1.02-2.594-1.447.561-2.559 1.212-3.454 2.122.897.39 1.655.573 2.233.507-.654.085-1.51-.087-2.569-.484-.993-.16-1.433-.08-1.873 0-3.136 1.726-6.205 3.584-9.422 5.144 3.217-1.56 6.286-3.42 9.045-5.242-7.989 2.976-15.717 5.797-23.174 9.211-5.263 2.412-10.174 5.594-15.04 8.688l-.555.176c-.975-.122-1.41-.028-1.846.066-2.347 2.175-4.456 4.71-7.068 6.48 2.611-1.77 4.714-4.305 6.722-6.496-6.763 4.054-13.233 8.05-19.59 12.22-5.1 3.345-10.062 6.902-14.713 10.378l-.269.06c-.782.1-.939.164-1.096.229-.463.798-.752 1.881-1.347 2.46.59-.58.84-1.67.996-2.53-6.595 4.115-12.859 8.296-18.926 12.697l-.83.424c-.972.104-1.438.408-1.904.71-2.4 2.059-4.62 4.388-7.235 6.124 2.614-1.736 4.836-4.066 6.877-6.102-10.93 6.76-21.504 13.498-31.734 20.41 1.177-.179 2.236-.333 3.144-.68-.912.35-1.985.516-3.218.737-.393-.11-.523.006-.538.021l-.002.002c.011.517.199 1.304.094 1.643.099-.336-.128-1.098-.383-1.463-7.53 4.881-14.772 9.585-21.808 14.55.355.246.666.453.885.522q.03.01.058.016-.028-.006-.058-.016c-.239-.062-.617-.26-1.188-.478-.973.082-1.44.38-1.906.68-.723.504-1.565.97-2.301 1.47a42 42 0 0 0 1.947-1.433c-2.596 1.452-4.84 2.868-6.73 4.472l.441-.263c-.181.1-.313.218-.498.318-.385-.127-.511-.042-.525-.031v.002c.083.4.319 1.03.3 1.279.013-.245-.262-.852-.59-1.1-3.178 1.927-6.122 3.589-8.947 5.434-8.054 5.26-16.058 10.594-23.878 16.154.376-.027.743-.063 1.095-.117-.426.07-.896.12-1.414.168-1.312.425-2.098 1.056-2.888 1.684-1.289.932-2.576 1.864-3.934 2.77a59 59 0 0 0 3.574-2.735c-2.576 1.556-4.847 3.084-6.943 4.806q-.414.233-.84.46c-1.633.534-2.736 1.276-3.838 2.017-1.7 1.27-3.4 2.538-5.176 3.775a92 92 0 0 0 4.834-3.775c-3.237 2.082-6.175 4.164-8.926 6.455q-.424.259-.857.514c-.97.09-1.435.394-1.902.697-.467.407-.966.813-1.514 1.215.515-.4.92-.802 1.191-1.197-1.109.657-1.896 1.296-2.332 1.96v.003l-.003.001c-.355-.02-.36-.019-.36-.019-.97.786-1.942 1.57-2.984 2.326a30 30 0 0 0 2.635-2.307c-1.978 1.258-3.651 2.498-5.14 3.948q-.297.173-.605.342c-.968.093-1.431.402-1.894.709-.594.553-1.188 1.105-2.16 1.544-.356-.105-.482-.024-.496-.013l-.002.002a30 30 0 0 1-1.506 1.367 11 11 0 0 0 1.23-1.229c-1.213.86-2.151 1.579-2.69 2.317.083-.053.149-.106.227-.158-.08.054-.133.11-.216.164-.319-.01-.387-.025-.4-.03h-.003l-.002-.002c-.6.437-1.197.876-1.867 1.284a11.5 11.5 0 0 0 1.527-1.256c-1.35.66-2.4 1.297-3.261 2.146q-.242.101-.498.196c-1.316.493-2.088 1.208-2.86 1.923-1.035.782-2.07 1.563-3.185 2.313a26.5 26.5 0 0 0 2.844-2.385c-1.999 1.168-3.692 2.4-5.21 3.832q-.28.154-.568.305c-.958.105-1.427.398-1.898.693-2.97 5.124-7.942 7.305-13.625 8.988a6 6 0 0 1-.393-.025c-.945.726-1.89 1.453-2.931 2.184a30 30 0 0 0 2.583-2.159c-1.966 1.25-3.631 2.478-4.976 3.717q-.267.161-.547.323c-.778.094-.935.16-1.092.224-.44.392-.88.783-1.39 1.145.43-.363.793-.761 1.074-1.164-1.033.557-1.789 1.13-2.365 1.91q-.22.101-.46.193c-.971-.142-1.41-.053-1.847.037-1.8 1.338-3.463 3.375-5.373 4.166 1.905-.792 3.526-2.827 5.014-4.162v-.002c-2.417.89-4.445 2.45-6.538 2.545-7.712.35-15.445.214-23.082.62a24 24 0 0 0 1.819.845 26 26 0 0 1-2.164-.986c-1.871-.776-3.31-1.052-4.748-1.328-1.22.237-2.685 1.025-3.62.613-3.872-1.711-7.586-3.785-11.662-6.223-1.125-1.154-1.946-1.81-2.767-2.465-1.822-1.225-3.643-2.449-5.47-3.795a63 63 0 0 0 5.353 3.479c-2.658-2.088-5.2-3.864-7.721-5.297l-.066-.055c-.012-.271-.03-.333-.038-.347v-.002h-.001v-.002h-.002a30 30 0 0 1-1.702-1.385 8.4 8.4 0 0 0 1.621 1.082c-1.018-1.102-1.956-1.903-2.906-2.334l-.002-.002c.012-.37.01-.373.01-.373-.765-1.122-1.529-2.241-2.266-3.432a43 43 0 0 0 2.235 3.077c-1.258-2.286-2.486-4.26-3.914-6.059a34 34 0 0 1-.352-.72c.13-.96.048-1.395-.033-1.83-.4-.623-.8-1.244-1.164-1.952a8.7 8.7 0 0 0 1.25 1.62c-.53-1.363-1.137-2.428-1.963-3.294q-.087-.258-.168-.535c.147-1.34.05-2.084-.047-2.828-.366-.449-.732-.899-1.068-1.42.34.44.72.814 1.111 1.105-.5-1.041-1.04-1.809-1.79-2.402a8 8 0 0 1-.183-.478c-.078-1.648-.38-2.743-.681-3.838-2.328-1.452-3.22-3.473-3.643-5.75.42 2.185 1.31 4.112 3.639 5.355-1.334-4.095-2.669-7.803-4.262-11.283q-.024-.21-.053-.418c.177-1.004.1-1.444.026-1.883-.399-.65-.798-1.299-1.162-2.033.373.65.8 1.224 1.252 1.701-.518-1.377-1.12-2.454-1.942-3.355a13 13 0 0 1-.158-.504c-.065-1.651-.355-2.749-.646-3.848-.272-.43-.545-.859-.787-1.357.237.41.506.753.769 1.008-.361-1.051-.708-1.785-1.271-2.334a9 9 0 0 1-.108-.434c-.12-1.651-.47-2.755-.82-3.856-.424-.836-.85-1.673-1.235-2.597.394.838.839 1.594 1.307 2.244-.556-1.713-1.178-3.102-2.031-4.297a19 19 0 0 1-.137-.494c.166-.975.096-1.41.026-1.848-.398-.651-.796-1.302-1.16-2.037a9.4 9.4 0 0 0 1.242 1.703c-.525-1.373-1.128-2.45-1.936-3.357q-.089-.254-.17-.525c.13-1.294.044-2.038-.04-2.78-.4-.643-.799-1.286-1.163-2.013a9 9 0 0 0 1.254 1.683c-.522-1.37-1.124-2.44-1.945-3.336a13 13 0 0 1-.165-.515c-.06-1.653-.355-2.751-.65-3.85-.273-.429-.546-.86-.789-1.357.24.41.511.752.777 1.005-.362-1.044-.713-1.774-1.275-2.32a9 9 0 0 1-.11-.443c-.112-1.656-.459-2.76-.806-3.864-.424-.834-.848-1.668-1.232-2.59.392.836.837 1.59 1.302 2.237-.557-1.71-1.18-3.098-2.029-4.293a18 18 0 0 1-.137-.496c.168-.976.095-1.415.02-1.852-.398-.63-.796-1.262-1.16-1.974a9.2 9.2 0 0 0 1.236 1.642c-.532-1.361-1.133-2.429-1.95-3.316q-.09-.263-.173-.543c.15-1.314.065-2.059-.022-2.803-.397-.646-.795-1.292-1.158-2.023a9 9 0 0 0 1.246 1.693c-.517-1.372-1.113-2.445-1.93-3.342a13 13 0 0 1-.16-.511c-.074-1.648-.377-2.744-.681-3.838-.245-.277-.492-.552-.713-.893.218.258.465.455.709.574-.321-.723-.638-1.165-1.147-1.459a5 5 0 0 1-.136-.43c-.17-1.95-.538-3.366-.907-4.78-.422-.826-.845-1.65-1.228-2.563.39.827.835 1.57 1.299 2.209-.556-1.707-1.177-3.094-2.028-4.274q-.069-.245-.134-.5c.176-.992.103-1.43.03-1.869-.398-.636-.796-1.271-1.161-1.99a9 9 0 0 0 1.24 1.658c-.532-1.367-1.131-2.437-1.95-3.328q-.087-.258-.17-.533c.145-1.312.054-2.056-.036-2.799-.391-.798-.783-1.597-1.139-2.488.368.797.785 1.516 1.227 2.139-.515-1.685-1.109-3.06-1.926-4.237a19 19 0 0 1-.158-.639c-.11-3.36-.468-6.075-.828-8.79-.262-.83-.524-1.659-.745-2.596.229.837.514 1.583.825 2.209-.266-1.747-.61-3.126-1.202-4.287q-.031-.255-.058-.524c.252-2.392.252-4.125.252-5.857.068-.824.135-1.647.293-2.51a10 10 0 0 0 .06 2.348c.436-1.538.586-2.946.453-4.295q.12-.34.268-.692c.768-2.48.861-4.662.955-6.843.004-1.127-.375-2.514-.066-3.432-.304.916.11 2.289.39 3.295 2.29-3.494 4.255-6.849 5.88-10.344-1.718 1.585-3.345 3.178-4.757 4.906 1.414-1.731 3.049-3.335 4.797-4.962.358.076.468-.01.48-.02h.003c.219-.767.435-1.536 1.008-2.361.355-.057.357-.053.357-.053.22-.487.44-.976.742-1.486-.227.479-.373.94-.443 1.369.7-.942 1.152-1.787 1.322-2.592q.161-.19.348-.387c2.778-2.095 4.9-4.01 7.021-5.926a61 61 0 0 1 2.365-2.082q-1.153 1.037-2.013 2.05c1.628-1.215 2.968-2.4 4.013-3.571q.292-.204.6-.41c1.115-.368 1.582-.66 2.049-.953.276-.264.552-.528.889-.766-.26.23-.458.486-.575.734.72-.356 1.16-.685 1.44-1.209q.162-.066.344-.125c.94-.095 1.413-.383 1.888-.671.447-.42.895-.838 1.406-1.229-.432.385-.8.8-1.084 1.21 1.037-.624 1.792-1.233 2.38-2.038q.205-.106.427-.207c.953-.1 1.416-.408 1.879-.715.796-.612 1.592-1.224 2.457-1.807a21 21 0 0 0-2.111 1.758c1.679-.965 3.053-1.89 4.242-3.027q.247-.128.504-.252c.966-.091 1.435-.388 1.904-.684.284-.262.567-.524.914-.761-.27.23-.476.49-.596.746.734-.345 1.176-.676 1.46-1.207a5 5 0 0 1 .331-.12c.931-.11 1.403-.406 1.875-.7.446-.407.892-.814 1.403-1.194a6.8 6.8 0 0 0-1.08 1.182c1.036-.605 1.792-1.2 2.383-1.987q.222-.111.464-.215c.948.13 1.383.047 1.817-.033.32-2.128 1.555-2.83 3.072-3.191-1.434.353-2.592 1.05-2.723 3.183 2.389-1.217 4.447-2.427 6.309-3.867q.249-.069.492-.156c.971.12 1.406.024 1.84-.07.455-.388.909-.776 1.434-1.131a6 6 0 0 0-1.118 1.162c1.04-.533 1.802-1.096 2.385-1.867q.195-.086.404-.164c.972-.055 1.452-.338 1.93-.621 1.327-.784 2.654-1.567 4.057-2.32a50 50 0 0 0-3.688 2.312c2.62-1.254 4.915-2.502 7.024-3.953q.366-.162.744-.32c.965.131 1.399.05 1.834-.034.452-.393.904-.786 1.426-1.146a6 6 0 0 0-1.11 1.171c1.039-.545 1.798-1.113 2.38-1.892q.198-.09.411-.172c.976-.047 1.458-.325 1.938-.605.281-.261.562-.523.906-.758a2.3 2.3 0 0 0-.592.734c.73-.345 1.172-.67 1.457-1.193q.16-.064.338-.12c.937-.097 1.413-.383 1.887-.67 1.466-.781 2.932-1.563 4.47-2.314a67 67 0 0 0-4.091 2.297c2.923-1.277 5.513-2.54 7.916-4.008q.4-.16.812-.318c.977.14 1.414.055 1.85-.031.286-.362.571-.723.922-1.059-.276.34-.491.717-.631 1.108.712-.5 1.177-1.044 1.492-1.774a5 5 0 0 1 .412-.224c1.281-.106 2.058-.406 2.836-.706.272-.255.545-.51.88-.742a2.3 2.3 0 0 0-.561.723c.715-.346 1.152-.675 1.435-1.19q.185-.071.395-.134c1.616-.433 2.727-1.065 3.838-1.696.962-.59 1.923-1.182 2.957-1.744a28 28 0 0 0-2.596 1.715c2-.936 3.678-1.848 5.178-2.965q.3-.126.615-.248c.962.126 1.396.04 1.83-.045 1.152-.737 2.303-1.474 3.533-2.18a39 39 0 0 0-3.184 2.18c2.315-1.162 4.323-2.327 6.137-3.71q.325-.15.658-.294c1.324-.08 2.102-.38 2.881-.68.608-.43 1.217-.861 1.893-1.261a11 11 0 0 0-1.55 1.254c1.36-.639 2.417-1.27 3.286-2.117q.228-.092.469-.178c.977-.074 1.438-.387 1.902-.7a7.5 7.5 0 0 1 .871-.704 2.3 2.3 0 0 0-.562.675c.718-.33 1.166-.636 1.459-1.128q.184-.07.394-.127c.938.112 1.375.018 1.81-.075.285-.356.568-.713.917-1.045a3.8 3.8 0 0 0-.629 1.09c.71-.496 1.176-1.03 1.492-1.748a5 5 0 0 1 .416-.222c1.277-.111 2.051-.422 2.826-.73a8 8 0 0 1 .914-.749 2.3 2.3 0 0 0-.595.74c.728-.337 1.172-.664 1.459-1.187q.16-.062.342-.117c.94-.086 1.416-.372 1.892-.657 1.337-.792 2.673-1.584 4.088-2.345a50 50 0 0 0-3.709 2.334c2.613-1.256 4.897-2.504 7-3.955q.376-.166.762-.327c1.313-.092 2.086-.4 2.86-.709.266-.249.531-.496.859-.722-.246.219-.433.46-.547.695.71-.344 1.15-.663 1.435-1.164q.195-.077.418-.143c2.623-.82 4.72-1.839 6.817-2.859 2.135-1.17 4.27-2.339 6.496-3.47a100 100 0 0 0-6.125 3.534c3.91-1.82 7.489-3.698 10.87-5.8q.443-.197.893-.39c.978.128 1.413.035 1.848-.058.453-.388.907-.777 1.43-1.132a6 6 0 0 0-1.116 1.166c1.04-.537 1.8-1.101 2.381-1.873q.197-.087.409-.166c.974-.054 1.452-.336 1.931-.618 1.501-2.557 3.685-3.817 6.16-4.638-2.389.816-4.482 2.073-5.783 4.627 4.39-2.001 8.414-3.991 12.219-6.229q.23-.059.46-.121c.998-.055 1.472-.342 1.946-.629.278-.26.558-.52.897-.752a2.3 2.3 0 0 0-.58.729c.722-.344 1.164-.668 1.449-1.188q.165-.065.347-.12c.943-.084 1.42-.367 1.897-.651a29 29 0 0 1 1.767-1.055 9.3 9.3 0 0 0-1.418 1.043c1.324-.613 2.357-1.216 3.08-1.836q.255-.106.532-.213c1.138-.087 1.57-.164 2.004-.24.468-.394.936-.787 1.478-1.15a6 6 0 0 0-1.164 1.228v.002c1.04-.528 1.801-1.125 2.406-1.924a9 9 0 0 1 .457-.191c.94.128 1.377.044 1.813-.041.287-.362.575-.725.928-1.06a3.8 3.8 0 0 0-.637 1.11c.714-.498 1.18-1.04 1.496-1.77q.191-.118.41-.224c1.275-.118 2.05-.43 2.824-.74.273-.253.545-.504.88-.732a2.3 2.3 0 0 0-.563.719c.716-.339 1.154-.665 1.44-1.176q.185-.072.396-.133c1.62-.423 2.733-1.049 3.847-1.674.962-.593 1.924-1.186 2.957-1.75a28 28 0 0 0-2.595 1.725c2-.94 3.678-1.856 5.177-2.979q.3-.127.612-.25c.962.128 1.396.044 1.83-.04 1.155-.738 2.311-1.476 3.545-2.182a39 39 0 0 0-3.195 2.18c2.323-1.165 4.334-2.328 6.15-3.71q.32-.146.648-.289c.978.12 1.412.022 1.846-.074.801-.548 1.602-1.097 2.477-1.611a18 18 0 0 0-2.145 1.634c1.68-.821 3.068-1.66 4.262-2.716q.26-.114.531-.221c.98-.075 1.442-.39 1.904-.703.272-.243.544-.487.875-.705a2.3 2.3 0 0 0-.564.675c.72-.329 1.167-.634 1.46-1.127a5 5 0 0 1 .393-.125c.94.115 1.375.024 1.81-.066.286-.358.572-.716.923-1.049-.275.337-.492.71-.633 1.096.712-.497 1.18-1.031 1.496-1.754q.193-.116.412-.223c1.28-.11 2.054-.415 2.83-.722.28-.263.56-.526.903-.762-.265.23-.466.49-.584.746.721-.345 1.159-.678 1.441-1.201q.164-.064.348-.121c.942-.085 1.417-.371 1.894-.656 1.978-1.425 3.833-3.087 5.97-4.207-2.137 1.12-3.992 2.783-5.589 4.2 4.415-2 8.454-3.997 12.29-6.232l.443-.088c.98.135 1.419.05 1.857-.039.288-.36.575-.72.93-1.054a3.8 3.8 0 0 0-.641 1.11c.714-.494 1.18-1.035 1.498-1.765q.192-.115.41-.22c1.275-.11 2.052-.41 2.83-.711 2.02-1.132 4.04-2.264 6.135-3.365a129 129 0 0 0-5.76 3.345c3.872-1.885 7.413-3.75 10.772-5.824q.489-.226.988-.447c.967.126 1.402.039 1.838-.047.461-.39.923-.781 1.457-1.139a6 6 0 0 0-1.143 1.174c1.052-.53 1.821-1.092 2.41-1.871a8 8 0 0 1 .393-.162c.97-.062 1.447-.345 1.924-.63 1.309-.776 2.617-1.554 4-2.302a53 53 0 0 0-3.63 2.285c2.613-1.259 4.903-2.505 7.009-3.955q.374-.166.758-.328c1.307-.109 2.075-.43 2.843-.75.274-.246.547-.493.881-.715a2.3 2.3 0 0 0-.568.696c.72-.33 1.164-.643 1.455-1.143q.185-.069.395-.127c.94.116 1.375.027 1.812-.064.449-.39.9-.783 1.418-1.141a6 6 0 0 0-1.102 1.17c1.031-.544 1.785-1.112 2.36-1.883q.2-.09.418-.174c.976-.054 1.452-.339 1.93-.625 2.03-1.133 4.06-2.266 6.167-3.369a125 125 0 0 0-5.785 3.358c3.873-1.874 7.416-3.742 10.774-5.815q.489-.224.986-.443c.967.13 1.405.048 1.842-.035.475-.387.95-.774 1.5-1.13a5.9 5.9 0 0 0-1.186 1.22c1.043-.508 1.808-1.097 2.422-1.887a9 9 0 0 1 .453-.184c1.275-.104 2.05-.413 2.823-.724 3.588-2.296 7.09-4.743 10.8-6.819-3.708 2.075-7.21 4.522-10.422 6.8 5.78-2.666 11.187-5.32 16.36-8.241l.367-.045c1.352-.052 2.132-.348 2.914-.643.995-.865 1.875-1.998 2.963-2.648-1.083.65-1.92 1.781-2.578 2.627 4.715-1.995 9.057-3.97 13.183-6.194l.534-.132c1.338-.063 2.116-.362 2.896-.659.431-.275.864-.55 1.363-.795a4.6 4.6 0 0 0-1.011.786c1.046-.363 1.777-.718 2.324-1.284q.199-.054.416-.103c1.314-.125 2.1-.488 2.887-.85.648-.404 1.295-.807 2.025-1.175a9.3 9.3 0 0 0-1.691 1.246c1.379-.534 2.457-1.131 3.353-1.95q.23-.078.473-.15c.967.172 1.404.11 1.842.047 2.514-3.366 5.983-2.918 10.158-2.106 2.067.191 3.45.114 4.836.036 1.413-4.24 4.704-2.466 8.17-2.069 2.4.177 4.11.085 5.822-.008.15-.562.134-1.346.424-1.718-.285.373-.234 1.166-.016 1.808 2.461-.215 4.516-.783 6.563-.763 3.37.033 6.739.446 10.033.332-.66-.587-1.874-1.081-3.36-1.465 1.627.403 3.005.924 3.807 1.556 3.886.49 7.25.52 10.613.55 4.773-1.307 9.237-1.17 13.52.048-4.236-1.132-8.65-1.178-13.318.318 8.507.638 16.565 2.129 24.181 5.084q.367.256.735.52c1.11.755 2.006.863 2.9.97a32 32 0 0 1 2.62.858c-.863-.316-1.71-.503-2.5-.537 1.372.709 2.622 1.096 3.868 1.14-.198-.106-.395-.19-.593-.28.308.13.582.215.914.378.77.481 1.214.52 1.658.559 3.91.23 7.537 1.118 10.611 3.385-3.048-2.241-6.66-3.07-10.48-3.047 4.486 2.276 8.841 4.213 13.35 5.806a16 16 0 0 0-1.018-1.148c.369.375.728.77 1.076 1.2-.088.37.009.49.021.503v.002c.554.336 1.098.715 1.649 1.066-.503-.296-1-.566-1.479-.808 1.636 1.338 3.102 2.418 4.72 3.156l.083.072c-.088.384.025.503.039.516l.002.002c1.02.19 2.202.153 3.166.424-.954-.256-2.097-.167-2.975-.162 7.216 5.525 14.24 10.788 21.526 15.84.188-.622.377-1.313.34-1.725.043.427-.135 1.188-.28 2.06.536 1.317 1.273 2.086 2.01 2.854 1.12.935 2.239 1.868 3.254 3.158-.098.333-.067.44-.062.451v.002c.439.236.876.483 1.294.81a3.3 3.3 0 0 0-1.156-.581c.662.7 1.187 1.173 1.85 1.279a3.8 3.8 0 0 0-.674-.682c.25.198.496.42.727.704-.078.338-.052.456-.043.48l.001.002v.002c.447.232.891.475 1.315.799a3.4 3.4 0 0 0-1.17-.575c.674.695 1.203 1.165 1.871 1.266a3.8 3.8 0 0 0-.687-.682c.253.196.5.414.734.696-.09.382-.06.476-.06.476.546.275 1.093.55 1.652.895a9 9 0 0 0-1.477-.633c1.093.815 2.042 1.416 2.951 1.719q.175.152.354.32c.397.783.677.957.957 1.131.485.331.969.663 1.463 1.13q-.74-.67-1.43-.8c.676.765 1.318 1.205 1.934 1.326l.01.012c.015.249.03.306.037.318v.002h.002v.002h.002c1.567 1.59 3.134 3.18 4.584 5.147-.11.354-.048.469-.04.482l.002.002c.556.44 1.188 1.017 1.752 1.47-.532-.41-1.076-.846-1.582-1.206 1.881 1.767 3.593 3.27 5.309 4.42-.471-.465-.936-.843-1.404-1.262.574.495 1.067.843 1.681 1.412.524.838.776 1.173 1.026 1.508 1.187.96 2.376 1.918 3.576 2.97a43 43 0 0 0-3.574-2.644c2.033 1.945 4.066 3.615 6.084 4.994q.3.302.603.617c.152.752.228.908.303 1.063.787.61 1.575 1.221 2.252 2.193-.104.34-.042.456-.033.469l.002.002c.436.229.872.456 1.285.787a3.3 3.3 0 0 0-1.155-.566c.638.676 1.145 1.131 1.805 1.23a3 3 0 0 0-.162-.203q.111.123.219.262c-.091.389.007.511.02.525v.002c.693.46 1.387.92 2.048 1.51a9 9 0 0 0-1.9-1.27c.967 1.002 1.786 1.763 2.771 2.162a8 8 0 0 0-.207-.238q.135.146.266.303c-.1.4.007.523.021.537l.002.002c.436.225.872.45 1.285.783a3.2 3.2 0 0 0-1.156-.564c.628.662 1.128 1.103 1.774 1.191a3 3 0 0 0-.16-.2q.11.123.218.263c-.082.39.025.511.04.525v.002c.37.231.742.462 1.122.758a5.4 5.4 0 0 0-.965-.52c.79.765 1.447 1.336 2.094 1.6q.15.175.303.373c1.365 1.828 2.626 2.97 3.887 4.113.464.317.925.654 1.375 1.035a4.7 4.7 0 0 0-1.336-.724c.773.918 1.505 1.525 2.396 1.795l.063.078c-.09.39.049.517.066.531v.002c.41.257.823.533 1.232.84a5.4 5.4 0 0 0-1.08-.598c.855.838 1.56 1.435 2.268 1.654l.006.006c-.005.386.002.381.002.381 2.895 2.918 5.79 5.837 8.57 9.147-.108.368-.026.49-.015.504.4.208.798.428 1.181.716a3.1 3.1 0 0 0-1.057-.49c.637.674 1.15 1.122 1.805 1.211a4 4 0 0 0-.21-.252c.09.095.18.194.267.305-.083.384.006.506.017.52a8.4 8.4 0 0 1 1.192.714 3.1 3.1 0 0 0-1.067-.486c.64.673 1.155 1.117 1.813 1.203a3.5 3.5 0 0 0-.436-.473q.254.223.49.518c-.081.378-.005.494.005.508l.001.002c.537.342 1.073.683 1.606 1.136a5.7 5.7 0 0 0-1.457-.886c.855.85 1.566 1.456 2.28 1.691l.019.023c-.01.297.003.361.01.375l.001.002v.002h.002c.47.328.941.656 1.418 1.112q-.714-.65-1.382-.776c.666.768 1.297 1.21 1.908 1.334l.011.014c.015.25.03.306.036.318h.002v.002h.002c.47.33.942.66 1.423 1.12q-.72-.656-1.386-.786c.669.769 1.303 1.21 1.908 1.334l.01.014c.018.249.034.304.04.316v.002h.003c.738.75 1.468 1.532 2.181 2.367a17.6 17.6 0 0 0-2.08-2.058c1.15 1.585 2.2 2.863 3.416 3.787a18 18 0 0 0-.338-.457c.129.176.267.315.393.5-.107.372-.038.489-.03.502v.002c.423.219.842.448 1.243.754a3.4 3.4 0 0 0-1.106-.533c.65.68 1.161 1.139 1.824 1.236a3 3 0 0 0-.29-.342 3 3 0 0 0-.243-.215c.081.07.164.137.242.215.118.116.233.24.344.381-.09.376-.024.49-.015.504l.002.002c.473.244.945.488 1.388.857a3.3 3.3 0 0 0-1.248-.64c.646.672 1.153 1.13 1.81 1.226l-.1-.123c.051.06.105.11.155.174-.09.383-.012.504-.002.518h.002c.482.297.962.595 1.44.974a5.8 5.8 0 0 0-1.28-.734c.852.82 1.552 1.413 2.253 1.65l.042.05c-.011.27.011.35.028.372l.002.002.002.002.002.002.002.002h.007c.87.599 1.737 1.198 2.502 2.185-.097.364-.014.483-.004.496.43.225.86.45 1.266.778a3.1 3.1 0 0 0-1.133-.56c.626.666 1.122 1.118 1.772 1.214a4 4 0 0 0-.113-.144q.086.102.171.214c-.089.4.034.527.05.541l.001.002c.909.321 2.058.427 2.826.872-.762-.436-1.884-.5-2.64-.602 4.329 4.67 8.474 9.073 12.789 13.139-3.094-4.3-6.286-8.328-9.686-12.17 3.401 3.842 6.593 7.87 9.739 12.21-.112.353-.05.468-.042.481 4.235-.12 6.102 2.508 7.002 6.527-.107.375-.012.498 0 .512v.002c.437.225.876.45 1.29.78a3.2 3.2 0 0 0-1.159-.561c.633.666 1.137 1.113 1.791 1.203a3 3 0 0 0-.185-.229q.123.134.242.288c-.088.388.01.51.023.523v.002c.47.24.938.479 1.377.846a3.2 3.2 0 0 0-1.244-.627c.635.664 1.14 1.11 1.793 1.2a3 3 0 0 0-.29-.337q.178.176.349.393c-.088.386.009.506.021.52v.001c2.78 1.93 5.934 3.49 8.276 5.854-2.343-2.363-5.495-3.924-8.094-5.58 11.304 12.949 23.99 24.397 31.596 39.82.149-.658.292-1.276.279-1.805.017.557-.121 1.255-.258 2.143-.154.988-.067 1.425.02 1.863 1.062 1.342 2.508 2.557 3.326 3.98-.819-1.413-2.263-2.577-3.322-3.623 2.2 6.384 4.396 12.418 6.86 18.196l.097.584c-.198 1.382-.125 2.127-.053 2.873 4.83 2.142 2.096 6.171 2.08 10.148-.28 2.101-.281 3.506-.281 4.91.074 1.102.054 2.45.111 3.598-.109-1.165-.24-2.312-.469-3.402h-.002c-.117 2.993.121 5.793.625 8.336-.004.228.026.37.02.605-.197 14.096-.114 27.449-.031 40.8.423.818 1.107 1.625 1.416 2.446-.315-.8-1.019-1.524-1.524-1.984.25 28.309.598 56.157.998 84.006.012.847.574 1.685 1.17 2.232.289-11.316.506-22.47.553-33.582-.047 11.138-.265 22.386-.555 34.055-.197 19.453-.102 38.139-.006 56.824.327.863.795 1.72 1.131 2.584-.346-.81-.85-1.55-1.242-2.125.184 8.392.547 16.323.764 24.258.39 14.255.814 28.51.996 42.765.188 14.645.08 29.294.176 43.94.01 1.537.522 3.07 1.095 4.31.315-1.202.539-2.238.623-3.232-.084 1.018-.304 2.144-.611 3.701-.217 12.447-.151 24.13-.084 35.813.505.903 1.385 1.8 1.607 2.707-.223-.901-1.114-1.748-1.697-2.246.258 24.32.62 48.178.943 72.037.08 5.812-.024 11.627.086 17.44.025 1.36.574 2.71 1.172 3.769.266-.417.436-.697.518-.932-.079.263-.245.62-.512 1.309-.21 1.418-.134 2.164-.058 2.91.408.65.818 1.3 1.19 2.033a9 9 0 0 0-1.278-1.701c.532 1.373 1.143 2.447 1.976 3.34q.082.231.156.476c-.152.967-.07 1.406.01 1.846.396.642.792 1.285 1.153 2.017a8.6 8.6 0 0 0-1.243-1.685c.508 1.385 1.099 2.466 1.922 3.35q.08.24.153.498c-.13 1.33-.028 2.072.072 2.814.677.57 1.695 1.048 2.18 1.67-.487-.611-1.522-1.031-2.282-1.305 1.927 9.815 7.82 17.58 14.28 23.625 6.64 6.212 16.09 9.426 24.295 13.578l.228.323c.748.758 1.332.884 1.916 1.011 3.794-1.862 5.608 1.24 8.404 3.58 8.18.375 15.853.318 23.526.26 2.684-2.14 5.15-4.667 8.101-6.334-2.95 1.667-5.417 4.194-7.74 6.42 2.252-.843 4.23-1.628 6.018-2.726a479 479 0 0 0 17.17-11.036l.09-.04c.27.013.345 0 .367-.008l.005-.002.002-.002v-.002c.774-.72 1.548-1.442 2.42-2.17a21 21 0 0 0-2.07 2.133c1.662-1.241 3.022-2.45 4.068-3.666q.236-.166.483-.332c.77-.118.926-.19 1.082-.26.567-.663 1.134-1.327 1.846-1.985-.692.66-1.199 1.328-1.54 2.006 1.1-.881 1.897-1.784 2.348-2.695l.02-.016c.27.012.332.003.345-.002h.004v-.001c1.392-3.118 2.258-6.676 4.065-9.446-1.803 2.769-2.632 6.313-3.739 9.334 10.188-12.882 16.46-27.33 19.967-42.85-.918 1.171-1.796 2.256-2.42 3.405.628-1.166 1.525-2.313 2.518-3.729.455-.832.472-1.282.49-1.732a49 49 0 0 1 .85-3.17c-.305 1.051-.488 2.073-.518 3.035.712-1.712 1.09-3.288 1.137-4.812-.067.16-.116.316-.178.474.1-.274.154-.51.27-.799.44-.823.458-1.268.476-1.716.228-1.009.497-2.052.824-3.147-.294 1.04-.469 2.052-.496 3 .704-1.718 1.08-3.288 1.12-4.814-.066.157-.114.31-.174.466.097-.271.15-.505.263-.79.444-.817.464-1.264.483-1.711-.644-3.122-.02-5.908 1.101-8.637-1.078 2.668-1.6 5.423-.77 8.463 1.68-5.063 3.027-9.952 4.042-14.762-.806 1.402-1.604 2.787-2.31 4.184a115 115 0 0 1 2.406-4.508c.445-.854.46-1.304.476-1.754.23-1.003.5-2.042.828-3.131-.293 1.037-.469 2.045-.494 2.994.705-1.713 1.077-3.288 1.12-4.814-.056.13-.095.258-.145.388.089-.245.136-.454.238-.71.448-.822.47-1.27.492-1.717a47 47 0 0 1 .819-3.135c-.291 1.036-.465 2.044-.49 2.99.701-1.718 1.077-3.29 1.115-4.816-.064.151-.11.3-.168.45.095-.266.146-.495.257-.775.45-.815.474-1.26.496-1.707.236-1.046.516-2.139.862-3.298-.322 1.094-.508 2.154-.54 3.142.703-1.723 1.083-3.288 1.124-4.81-.118.28-.214.558-.313.836.136-.412.23-.779.4-1.227.453-1.501.48-2.566.507-3.63.226-.84.453-1.68.763-2.552a13 13 0 0 0-.449 2.385c.697-1.564 1.135-2.993 1.3-4.371q.153-.297.325-.602c.727-1.12.838-2.006.95-2.892a49 49 0 0 1 .835-3.211c-.303 1.066-.48 2.102-.5 3.078.7-1.712 1.063-3.291 1.096-4.82-.083.2-.147.398-.22.597.112-.327.18-.61.316-.96.462-1.166.499-1.916.535-2.667.245-.869.539-1.787.906-2.775-.35.925-.552 1.819-.586 2.65.691-1.378 1.062-2.634 1.11-3.847-.144.28-.264.558-.38.834.155-.396.272-.755.475-1.197.45-1.154.482-1.905.514-2.655.228-.832.5-1.702.834-2.627-.309.87-.49 1.711-.522 2.489.682-1.388 1.052-2.636 1.096-3.846-.11.216-.198.429-.291.642.13-.324.219-.611.383-.964.443-.804.47-1.249.496-1.694.25-1.101.637-2.33.91-3.453-.226 1.104-.45 2.207-.582 3.264.987-3.022 1.649-5.863 1.996-8.631.052-.162.066-.288.12-.451.46-.845.49-1.293.523-1.739.226-.847.5-1.738.84-2.695-.317.898-.498 1.766-.518 2.576.67-1.38 1.019-2.641 1.049-3.857-.12.241-.216.48-.315.719.14-.361.237-.68.416-1.08.464-1.155.507-1.907.551-2.657.23-.85.508-1.745.852-2.705-.323.9-.508 1.77-.534 2.578.678-1.384 1.037-2.638 1.073-3.853-.129.256-.235.507-.34.76.144-.374.248-.708.435-1.123.451-1.154.483-1.905.516-2.655.233-.833.51-1.704.85-2.629-.315.87-.502 1.712-.54 2.489.69-1.386 1.069-2.633 1.12-3.84-.114.222-.207.44-.303.66.134-.33.226-.623.395-.982.44-.806.462-1.25.484-1.696.22-.996.442-1.992.748-3.021a18 18 0 0 0-.426 2.842c.697-1.856 1.135-3.567 1.291-5.225q.162-.37.348-.746c.75-1.46.844-2.667.941-3.877a48 48 0 0 1 .824-3.192c-.296 1.06-.471 2.089-.488 3.06.693-1.712 1.05-3.293 1.08-4.82-.07.173-.121.343-.185.514.104-.3.162-.557.285-.877.454-1.172.48-1.925.51-2.68.074-.488.15-.976.306-1.491a3.8 3.8 0 0 0 .014 1.357c.42-.93.582-1.75.488-2.537a7 7 0 0 1 .278-.453c.744-1.431.847-2.648.949-3.864.239-1.014.518-2.065.855-3.171-.305 1.05-.494 2.066-.535 3.011.705-1.722 1.09-3.287 1.152-4.79-.075.18-.132.359-.2.538.104-.294.166-.55.288-.861.432-.828.455-1.272.477-1.717.254-1.261.509-2.524.887-3.894a18 18 0 0 0-.565 3.713c.716-2.05 1.115-3.92 1.188-5.717l.13-.37c.738-1.52 1.015-2.635 1.293-3.751.077-.493.154-.986.313-1.51-.08.487-.076.953.016 1.387.427-.937.585-1.77.48-2.567q.12-.217.266-.445c.726-1.448.827-2.655.93-3.863.239-.852.527-1.751.882-2.715-.334.903-.528 1.775-.562 2.586.685-1.378 1.053-2.63 1.103-3.84-.132.26-.24.516-.35.771.149-.377.257-.715.45-1.134.444-1.158.469-1.91.496-2.662.235-1.011.51-2.057.846-3.155-.303 1.042-.488 2.053-.526 2.992.711-1.722 1.101-3.284 1.156-4.795-.075.178-.13.352-.199.528.105-.29.165-.543.287-.85.441-.82.456-1.266.473-1.71.24-1.031.524-2.104.87-3.239-.318 1.073-.51 2.108-.556 3.066.703-1.729 1.093-3.285 1.157-4.785-.103.247-.184.49-.274.735.127-.371.208-.697.364-1.096.742-1.844 1.067-3.27 1.392-4.695.066-.418.133-.835.315-1.356-.144.452-.148.879-.008 1.26.388-.698.471-1.301.277-1.871q-.088.159-.156.314a8 8 0 0 1 .305-.66c.7-1.815.977-3.253 1.252-4.691.233-.846.51-1.735.857-2.688-.322.893-.51 1.757-.541 2.559.679-1.38 1.042-2.633 1.086-3.844-.121.24-.22.477-.32.715.141-.36.242-.679.423-1.076.454-1.154.489-1.906.522-2.658a48 48 0 0 1 .846-3.174c-.305 1.05-.49 2.067-.526 3.015.708-1.72 1.098-3.285 1.149-4.8-.08.187-.14.372-.211.558.107-.3.17-.562.297-.88.446-.818.469-1.263.492-1.708.243-1.035.53-2.113.879-3.256-.322 1.08-.519 2.122-.565 3.086.706-1.728 1.096-3.286 1.162-4.785-.105.25-.188.497-.279.744.128-.373.212-.702.37-1.105.744-1.844 1.073-3.269 1.403-4.692.06-.408.118-.815.284-1.318-.126.439-.122.852.021 1.223.38-.701.455-1.306.252-1.877a4 4 0 0 0-.125.25q.111-.275.274-.596c.707-1.815.989-3.25 1.271-4.687.23-.844.506-1.732.848-2.684-.32.892-.503 1.754-.53 2.557.677-1.38 1.036-2.635 1.075-3.85-.123.244-.223.484-.325.725.142-.363.242-.685.424-1.086.453-1.155.487-1.907.52-2.659.247-.865.545-1.78.914-2.761-.351.918-.558 1.802-.604 2.617.695-1.384 1.079-2.625 1.139-3.828-.145.28-.266.556-.383.832.156-.395.274-.754.479-1.195.445-1.154.47-1.905.496-2.655.263-1.095.525-2.19.93-3.412-.36 1.14-.564 2.231-.62 3.242l.002.002c.711-1.729 1.11-3.286 1.186-4.779q-.06.142-.117.283.12-.309.254-.63c.747-1.848 1.032-3.282 1.318-4.717.074-.495.147-.99.305-1.516-.08.49-.07.958.025 1.394.426-.937.58-1.776.467-2.576q.116-.216.26-.443c.727-1.451.83-2.657.933-3.863.234-.845.515-1.733.861-2.686-.323.893-.512 1.756-.543 2.559.682-1.38 1.047-2.632 1.09-3.844-.125.248-.228.493-.332.738.145-.367.248-.694.434-1.101.458-1.154.493-1.905.53-2.655a48 48 0 0 1 .837-3.175c-.302 1.05-.482 2.07-.516 3.021.706-1.723 1.09-3.29 1.135-4.807-.078.186-.135.367-.205.551.106-.298.166-.557.291-.873.442-.82.46-1.267.48-1.71.225-1 .448-1.997.756-3.03a18 18 0 0 0-.435 2.85c.702-1.862 1.14-3.575 1.3-5.231a20 20 0 0 1 .34-.738c.755-1.466.868-2.666.981-3.867.078-.492.157-.986.318-1.512-.083.488-.08.955.01 1.389.433-.94.594-1.776.488-2.57q.117-.215.26-.44c.726-1.454.835-2.66.942-3.864.236-.862.521-1.771.877-2.75-.337.917-.53 1.802-.56 2.624.68-1.383 1.041-2.636 1.083-3.846-.137.274-.252.543-.363.812.15-.39.262-.741.459-1.177.447-1.158.477-1.91.51-2.66a51 51 0 0 1 .87-3.194c-.313 1.06-.506 2.085-.548 3.04.709-1.723 1.098-3.29 1.164-4.794-.089.211-.158.418-.237.627.114-.323.185-.605.32-.95.426-.83.446-1.275.466-1.72.252-1.077.504-2.154.888-3.344a13 13 0 0 0-.572 3.178c.703-1.726 1.091-3.29 1.154-4.789l.135-.33c.732-1.508 1.005-2.626 1.277-3.746.211-.834.465-1.707.786-2.637-.292.869-.455 1.72-.467 2.52.666-1.375 1.014-2.636 1.027-3.89-.102.203-.183.405-.27.609.13-.334.215-.628.381-.993.507-1.455.566-2.52.624-3.588a35 35 0 0 1 .865-2.722c-.33.906-.519 1.782-.547 2.595.679-1.382 1.038-2.637 1.078-3.847-.132.263-.242.523-.35.783.147-.38.254-.722.446-1.146.447-1.16.478-1.91.508-2.663.246-.869.542-1.787.91-2.773-.352.923-.558 1.813-.6 2.635.692-1.385 1.073-2.631 1.129-3.838-.145.282-.268.562-.385.84.156-.397.274-.757.479-1.201.453-1.15.488-1.899.523-2.647.263-1.11.526-2.22.934-3.457-.364 1.156-.569 2.264-.62 3.29.709-1.73 1.103-3.291 1.17-4.786q-.062.147-.12.293.118-.305.25-.621c.718-1.516.982-2.636 1.247-3.756.08-.49.16-.981.32-1.504a3.8 3.8 0 0 0 .009 1.379c.43-.934.594-1.767.496-2.563q.123-.225.277-.462c.753-1.774.871-3.3.988-4.827.23-.848.508-1.742.852-2.7-.322.897-.507 1.766-.531 2.575.677-1.382 1.035-2.638 1.07-3.855-.124.248-.226.492-.328.736.142-.366.242-.692.426-1.097.456-1.153.494-1.903.53-2.653.23-.833.501-1.704.837-2.629-.31.87-.493 1.713-.526 2.49.683-1.386 1.054-2.635 1.1-3.845-.11.215-.196.427-.29.64.132-.323.218-.609.382-.96.443-.806.466-1.253.49-1.698.253-1.267.507-2.535.887-3.912a18 18 0 0 0-.567 3.73c.717-2.05 1.118-3.923 1.188-5.724q.062-.18.129-.363c.73-1.52.997-2.64 1.265-3.758.08-.491.159-.982.32-1.506-.081.486-.079.95.01 1.383.43-.934.592-1.77.493-2.567q.123-.224.277-.46c.755-1.773.874-3.3.994-4.825.232-.852.511-1.749.858-2.713-.326.904-.514 1.775-.54 2.586.677-1.382 1.038-2.639 1.075-3.851-.13.26-.238.516-.344.771.145-.377.25-.715.44-1.134.452-1.156.488-1.905.523-2.655-.77-1.01-1.07-1.812-.832-2.379-.143.548.232 1.31 1.133 2.248.761-1.087 1.225-2.044 1.49-3.232q.193-.007.4-.008a2988 2988 0 0 0 19.74 5.93l7.19-23.635-70.746-21.31-6.947 23.859 23.714 7.098v4.468c-.23 1.006-.5 2.048-.83 3.14.296-1.038.472-2.047.502-2.993-.706 1.717-1.084 3.288-1.129 4.81.062-.145.106-.288.163-.433-.095.26-.146.483-.254.756-.448.818-.47 1.263-.493 1.709a48 48 0 0 1-.843 3.175c.303-1.05.486-2.068.521-3.017-.708 1.723-1.092 3.288-1.142 4.803.075-.179.13-.354.199-.532-.105.292-.165.545-.287.854-.45.816-.472 1.26-.496 1.705 2.338 3.387-.441 5.48-2.416 8.281-.45.844-.477 1.292-.504 1.74a47 47 0 0 1-.813 3.145c.29-1.042.458-2.056.477-3.012-.697 1.715-1.06 3.295-1.09 4.824.05-.123.087-.243.135-.365-.086.239-.13.44-.229.69-.449.82-.471 1.266-.494 1.714a48 48 0 0 1-.82 3.15c.293-1.042.467-2.054.492-3.005-.7 1.718-1.073 3.292-1.111 4.816.067-.162.118-.32.18-.482-.099.276-.154.514-.268.805-.446.819-.468 1.267-.489 1.713.64 3.115.021 5.9-1.091 8.63 1.069-2.668 1.582-5.422.752-8.455-1.673 5.066-3.005 9.956-4.008 14.764.802-1.403 1.596-2.79 2.299-4.188a112 112 0 0 1-2.399 4.51c-.455.853-.479 1.302-.504 1.752a48 48 0 0 1-.828 3.143c.294-1.043.468-2.057.49-3.014-.706 1.711-1.073 3.292-1.11 4.822.05-.116.084-.23.13-.345-.085.231-.129.426-.225.668-.448.822-.47 1.27-.492 1.716a47 47 0 0 1-.814 3.147c.29-1.04.462-2.052.486-3.002-.7 1.718-1.07 3.292-1.104 4.82.061-.146.105-.29.16-.435-.093.26-.142.484-.25.758-.452.815-.477 1.259-.503 1.705-.564 2.191-1.128 4.383-1.782 6.609a94 94 0 0 0 1.444-6.437c-1.309 3.937-2.347 7.74-3.094 11.486q-.264.728-.553 1.465c-.774 1.467-.874 2.676-.974 3.888a36 36 0 0 1-.883 2.746c.338-.914.532-1.8.56-2.625-.683 1.377-1.044 2.635-1.086 3.85.135-.266.246-.529.356-.791-.149.383-.259.727-.453 1.154-.446 1.16-.474 1.911-.504 2.664a47 47 0 0 1-.84 3.164c.301-1.048.481-2.065.51-3.021-.71 1.715-1.087 3.288-1.131 4.812.068-.16.118-.32.18-.48-.1.275-.154.513-.27.803-.448.819-.471 1.263-.494 1.709-.558 2.173-1.118 4.345-1.764 6.552a94 94 0 0 0 1.428-6.382c-1.309 3.946-2.347 7.754-3.094 11.502q-.262.723-.547 1.455c-.764 1.473-.859 2.682-.955 3.892a37 37 0 0 1-.886 2.717c.335-.905.53-1.78.562-2.598-.689 1.374-1.055 2.631-1.103 3.844.133-.262.245-.52.355-.78-.15.38-.259.72-.453 1.143-.448 1.16-.48 1.912-.512 2.664a48 48 0 0 1-.816 3.147c.292-1.042.464-2.054.488-3.004-.7 1.718-1.071 3.294-1.107 4.818.067-.161.116-.32.177-.48-.097.276-.151.514-.265.805-.446.819-.47 1.263-.494 1.709a50 50 0 0 1-.858 3.193c.308-1.06.496-2.087.531-3.045-.705 1.72-1.084 3.294-1.14 4.805.08-.192.141-.38.213-.57-.108.304-.172.567-.3.89-.433.827-.457 1.274-.48 1.719-.22.991-.44 1.982-.744 3.006.225-.978.365-1.926.422-2.828-.695 1.85-1.13 3.556-1.289 5.21q-.164.373-.351.754c-.757 1.457-.861 2.667-.965 3.877a36 36 0 0 1-.88 2.721c.335-.907.528-1.784.557-2.602-.685 1.378-1.048 2.635-1.093 3.848.133-.262.244-.52.353-.78-.148.38-.258.722-.451 1.145-.449 1.158-.48 1.909-.512 2.66a48 48 0 0 1-.845 3.2c.305-1.06.487-2.09.515-3.053-.706 1.717-1.085 3.291-1.127 4.813.083-.197.146-.39.219-.584-.109.309-.173.578-.303.906-.44.822-.46 1.268-.482 1.713 1.366 4.588-1.095 8.169-3.617 12.283-.782 1.854-1.069 3.288-1.354 4.724a50 50 0 0 1-.83 3.18c.296-1.057.473-2.08.494-3.045-.691 1.714-1.046 3.297-1.086 4.813.058-.144.101-.284.155-.426-.091.259-.142.478-.246.75-.438.835-.467 1.28-.495 1.727a48 48 0 0 1-.84 3.189c.303-1.058.483-2.085.508-3.049-.705 1.718-1.078 3.295-1.117 4.82.077-.183.134-.363.203-.544-.104.296-.165.553-.289.867-.44.82-.457 1.268-.474 1.715.82 5.535-1.837 10.13-4.45 15.26-.465.851-.495 1.297-.525 1.745a36 36 0 0 1-.863 2.727c.328-.908.517-1.788.54-2.607-.676 1.378-1.032 2.637-1.068 3.853.132-.263.24-.524.348-.783-.146.38-.252.722-.443 1.146-.45 1.16-.483 1.912-.516 2.664a48 48 0 0 1-.838 3.168c.3-1.049.479-2.067.506-3.025-.707 1.716-1.084 3.291-1.125 4.814.066-.157.115-.312.176-.468-.098.27-.153.504-.266.789-.449.82-.473 1.266-.498 1.71-1.291 4.532-2.602 9.078-4.308 13.964l-.002.007c-.04.113-.06.21-.1.323-.467.829-.492 1.277-.516 1.726a49 49 0 0 1-.82 3.19c.296-1.058.466-2.087.484-3.055-.694 1.714-1.055 3.294-1.084 4.822.079-.19.138-.377.207-.566-.109.317-.172.591-.302.93-.465 1.165-.502 1.914-.54 2.664a35 35 0 0 1-.884 2.763c.34-.92.536-1.81.566-2.634-.683 1.383-1.05 2.635-1.092 3.85.142-.28.261-.555.375-.83-.152.394-.266.752-.466 1.194-.447 1.153-.478 1.905-.51 2.655-1.276 4.492-2.58 9.006-4.262 13.85-.053.153-.08.284-.135.439-.466.835-.485 1.286-.505 1.736-.23 1.002-.5 2.038-.829 3.125.294-1.035.47-2.04.495-2.99-.708 1.71-1.082 3.285-1.123 4.812.052-.124.09-.247.138-.37-.088.24-.134.443-.234.695-.445.82-.46 1.27-.477 1.72a47 47 0 0 1-.842 3.164c.302-1.047.483-2.063.514-3.015-.709 1.717-1.09 3.285-1.137 4.808.065-.151.112-.3.17-.45-.096.265-.15.493-.261.773-.45.815-.472 1.26-.495 1.707.818 5.54-1.31 10.292-4.43 15.283-.466.835-.488 1.283-.509 1.732a48 48 0 0 1-.836 3.158c.298-1.046.475-2.063.5-3.021-.707 1.713-1.079 3.29-1.119 4.816.063-.15.108-.296.166-.445-.095.265-.147.492-.258.77-.443.82-.46 1.268-.478 1.716a48 48 0 0 1-.844 3.18c.303-1.054.485-2.077.516-3.035-.707 1.718-1.087 3.29-1.131 4.812.068-.163.119-.324.181-.486-.1.277-.155.517-.271.809-.443.819-.465 1.265-.485 1.71 1.18 3.62-.074 6.752-1.6 9.926 1.514-3.101 2.701-6.19 1.263-9.748-1.402 4.728-2.465 9.278-3.18 13.74.445-1.005.951-1.984 1.443-2.962a66 66 0 0 0-1.525 3.308c-.738 1.536-1.046 2.643-1.354 3.75a22 22 0 0 1-.906 2.155c.359-.71.563-1.409.604-2.06-.681 1.035-1.058 1.974-1.108 2.919a8 8 0 0 0 .41-.676c-.163.327-.29.628-.511.998-.446.766-.466 1.216-.485 1.666-.21 1.634-.353 3.288-.545 4.928.152-1.614.185-3.23.201-4.764-2.35 7.725-4.353 15.286-6.013 22.78 1.407-3.41 2.737-6.759 3.877-10.137-1.147 3.402-2.499 6.828-3.979 10.5-.486 1.182-.526 1.932-.566 2.685-.075.492-.15.984-.307 1.506a3.7 3.7 0 0 0-.02-1.383c-.426.935-.584 1.77-.478 2.567q-.119.216-.265.443c-.723 1.447-.817 2.661-.909 3.873a48 48 0 0 1-.84 3.205c.306-1.062.486-2.092.512-3.058-.703 1.717-1.077 3.287-1.117 4.81.088-.21.155-.416.232-.625-.116.337-.185.629-.326.989-.465 1.16-.502 1.909-.539 2.658-.236.84-.516 1.717-.861 2.652.321-.88.511-1.73.549-2.516-.691 1.386-1.07 2.635-1.121 3.842.12-.234.217-.464.318-.695-.138.34-.234.645-.408 1.018-.433.81-.451 1.256-.469 1.7a48 48 0 0 1-.832 3.165c.3-1.044.482-2.054.521-2.99-.704 1.729-1.096 3.284-1.148 4.794.08-.19.141-.377.213-.566-.11.311-.174.58-.305.91-.734 1.5-1.036 2.609-1.34 3.717-.083.492-.166.983-.332 1.506.088-.486.089-.951.004-1.383-.44.933-.608 1.765-.515 2.56q-.122.218-.272.444c-.748 1.436-.869 2.64-.992 3.844 1.563 2.98.634 5.056-1.156 6.869 1.764-1.805 2.62-3.85.82-6.729-1.452 3.041-2.568 5.941-3.305 8.838l-.013.012c-.316 0-.37.01-.38.014v.002c-.222.5-.445 1.002-.753 1.529q.352-.747.45-1.418c-.7.952-1.143 1.81-1.296 2.625q-.141.171-.3.348c-.765.76-.917 1.335-1.067 1.91-.42.765-.915 1.528-1.356 2.293.387-.74.737-1.476 1.028-2.194-1.454 2.028-2.58 3.956-3.336 5.89l-.006.009c-.373-.01-.371-.006-.371-.006a36 36 0 0 1-1.914 1.682 12 12 0 0 0 1.582-1.653c-1.37.957-2.442 1.888-3.188 2.826q-.195.13-.4.26c-1.114.466-1.58.84-2.047 1.211-.295.377-.589.754-.95 1.106a3.8 3.8 0 0 0 .657-1.145c-.725.519-1.193 1.072-1.508 1.82a5 5 0 0 1-.353.205c-.931.116-1.4.413-1.87.711-1.142.778-2.286 1.556-3.503 2.303a40 40 0 0 0 3.142-2.283c-2.287 1.249-4.263 2.48-6.058 3.914q-.354.176-.719.348c-.967-.14-1.404-.062-1.84.015-1.842.13-3.683.26-5.584.328a88 88 0 0 0 5.131-.423c-3.664-.02-6.915.047-10.045.435q-.386-.014-.777-.033c-.888-.487-1.334-.519-1.781-.549-4.328-1.957-8.652-3.937-12.905-6.27-.136-.074-.276-.125-.412-.2.083-.414-.248-.317-.248-.317-1.999.337-4.158-.34-6.09-1.758 1.888 1.344 3.986 1.949 5.885 1.5-3.876-3.51-7.545-6.763-11.236-9.639q.129.521.29 1.024a16 16 0 0 1-.392-1.322c-.677-1.484-1.272-2.292-1.869-3.1-.428-.791-.856-1.582-1.254-2.447a18 18 0 0 0 1.246 2.086c-.634-1.7-1.261-3.074-2.101-4.256a19 19 0 0 1-.159-.512c.152-.972.082-1.408.014-1.844-.396-.643-.79-1.287-1.154-2.015a9.2 9.2 0 0 0 1.236 1.676c-.53-1.37-1.13-2.438-1.94-3.338a14 14 0 0 1-.181-.563c.116-1.635.02-2.693-.074-3.75-.706-.978-1.906-1.952-2.334-2.932.432.967 1.645 1.873 2.43 2.499-.209-5.844-.677-11.252-.782-16.667-.164-8.456-.036-16.917-.146-25.375-.02-1.514-.58-3.022-1.184-4.238-.238 8.863-.39 17.617-.457 26.328.066-8.76.217-17.626.453-26.761.29-2.457.29-4.186.291-5.916-.076-1.249-.057-2.748-.115-4.043.11 1.312.246 2.604.479 3.838.12-3.345-.12-6.487-.635-9.362.003-.213-.02-.35-.016-.568.163-19.098.046-37.447-.072-55.795-.414-.61-1.115-1.218-1.37-1.83.259.599.977 1.133 1.487 1.37-.15-8.872-.56-17.285-.658-25.702-.165-14.11-.108-28.224-.227-42.334-.012-1.507-.577-3.009-1.18-4.219.001-.16-.004-.31-.003-.47.17-19.783.053-38.8-.067-57.815-.085-.335-.171-.67-.215-1.066.07.303.186.556.334.722.034-.781-.043-1.245-.347-1.66q.017-.236.056-.504c.042-6.5-.26-12.508-.564-18.516-.514-1.185-1.378-2.358-1.62-3.554.244 1.19 1.117 2.313 1.712 3.094-.274-30.155-.665-59.847-.988-89.54-.115-10.47-.03-20.944-.124-31.414-.014-1.535-.52-3.065-1.09-4.302-.42 2.103-.677 3.91-.66 5.715-.017-1.804.239-3.612.649-6.184.21-6.78.14-12.795.07-18.809-.482-.472-1.318-.933-1.531-1.414.215.474 1.062.885 1.627.953.08-7.58.29-14.708-.03-21.812-.192-4.265-1.21-8.493-2.15-12.445-.05 11.227.167 22.164.502 33.097-.335-10.933-.552-21.868-.515-33.513.199-2.092.117-3.477.037-4.86-4.193-1.432-2.474-4.7-2.063-8.129-.038-2.06-.342-3.476-.646-4.892a7.5 7.5 0 0 1-.727-.905c.22.264.471.465.719.586-.327-.728-.646-1.173-1.16-1.464a5 5 0 0 1-.127-.385c-.1-1.278-.396-2.058-.692-2.838-.765-1.456-1.53-2.913-2.265-4.445a66 66 0 0 0 2.252 4.066c-1.255-2.925-2.497-5.517-3.944-7.92a50 50 0 0 1-.332-.867c.126-1.32.033-2.06-.06-2.8-.358-.283-.714-.565-1.047-.913.337.271.71.483 1.096.621-.499-.708-1.037-1.17-1.76-1.486a5 5 0 0 1-.235-.44c-.764-2.29-1.725-4.056-2.685-5.824a8 8 0 0 1-.744-.918c.224.27.48.478.732.6-.334-.736-.657-1.18-1.183-1.47a5 5 0 0 1-.125-.362c-.193-1.265-.566-2.043-.938-2.82-1.477-1.929-2.953-3.857-4.312-6.182.11-.372.009-.498-.004-.512v-.002c-.296-.143-.593-.286-.871-.478.252.128.513.213.748.25-.482-.477-.86-.76-1.41-.874a3 3 0 0 1-.215-.32c-.14-.955-.455-1.417-.768-1.879-.664-.51-1.327-1.02-1.986-1.65.654.6 1.3 1.04 1.914 1.346-.988-1.085-1.906-1.873-2.826-2.309l-.032-.035c.01-.263-.002-.338-.011-.358l-.002-.002v-.002h-.002v-.001h-.004a158 158 0 0 1-3.303-4.061 63 63 0 0 0 3.264 3.71c-1.884-2.598-3.736-4.89-5.598-6.862-.16-.23-.32-.46-.48-.698-2.027-2.482-3.959-4.287-5.891-6.091-.909-.925-1.818-1.851-2.615-3.125.112-.35.094-.442.094-.442-4.276.114-5.806-2.942-7.053-6.57.104-.346.066-.458.06-.47l-.002-.003c-.424-.225-.847-.46-1.252-.77.382.283.773.456 1.116.546-.658-.694-1.18-1.162-1.844-1.264.188.247.393.448.603.62a4.3 4.3 0 0 1-.656-.65c.086-.369.041-.483.035-.495a8.5 8.5 0 0 1-1.207-.745c.367.266.745.43 1.078.514-.647-.69-1.164-1.15-1.828-1.25q.21.276.44.486a4.3 4.3 0 0 1-.494-.529c.085-.38.01-.495 0-.508l-.002-.002c-.726-.482-1.449-.973-2.135-1.6a9.2 9.2 0 0 0 1.982 1.362c-.975-1.012-1.799-1.783-2.789-2.193-.017-.021-.037-.036-.054-.057.106-.393.013-.515.002-.53v-.001c-.442-.226-.884-.451-1.301-.785a3.2 3.2 0 0 0 1.17.566c-.634-.665-1.14-1.111-1.795-1.201a3 3 0 0 0 .17.209 4 4 0 0 1-.225-.266c.091-.387.002-.513-.01-.527-.446-.338-.881-.722-1.324-1.074.4.292.795.561 1.174.797-1.3-1.346-2.45-2.419-3.764-3.149l-.062-.07c.1-.384-.01-.515-.024-.53h-.002c-.764.04-1.822.363-2.41.229.584.126 1.615-.238 2.237-.508l.001-.002c-4.876-5.188-9.578-10.096-14.296-14.629.092.883.033 1.694.191 2.264-.166-.585-.132-1.455-.322-2.572-4.024-4.488-7.931-8.293-11.838-12.096-.726-.558-1.452-1.116-2.182-1.81.728.67 1.442 1.16 2.127 1.472-1.014-1.095-1.975-1.86-2.92-2.287l-.02-.021c-.008-.264-.02-.323-.027-.336v-.002l-.002-.002h-.002c-.905-.923-1.81-1.847-2.603-3.133.104-.34.073-.45.068-.463l-.002-.002c-.424-.225-.845-.458-1.25-.768.38.28.772.452 1.114.541-.66-.696-1.182-1.163-1.85-1.267.178.234.372.428.57.594a4.4 4.4 0 0 1-.623-.625c.088-.37.038-.484.032-.496l-.002-.002c-1.716-1.377-3.43-2.755-5.03-4.52.108-.364.046-.479.037-.492v-.002c-.425-.222-.847-.455-1.252-.766a3.4 3.4 0 0 0 1.118.543c-.65-.682-1.165-1.139-1.825-1.236a3 3 0 0 0 .286.334 4 4 0 0 1-.338-.375c.086-.377.018-.493.01-.506l-.003-.002c-.493-.257-.986-.514-1.447-.916a3.3 3.3 0 0 0 1.315.693c-.644-.677-1.154-1.13-1.81-1.226l.089.11c-.048-.056-.1-.1-.146-.16.086-.385 0-.503-.01-.516-1.033-.834-2.068-1.667-3.074-2.596.979.888 1.974 1.66 2.908 2.336-1.618-1.666-3.075-3.076-4.701-4.15l-.092-.104c.108-.397-.028-.526-.045-.541l-.002-.002c-.394-.2-.788-.4-1.164-.688a3.1 3.1 0 0 0 1.04.473c-.61-.645-1.099-1.075-1.737-1.158l-.063-.08c.085-.403-.051-.536-.068-.551h-.002c-.757-.164-1.738-.102-2.326-.436.586.33 1.547.235 2.154.143-12.726-13.156-25.218-26.082-37.856-38.863-8.532-8.63-16.627-17.797-27.433-23.471.524.859 1.009 1.656 1.517 2.387-.55-.757-1.109-1.575-1.789-2.522-.757-.828-1.238-1.174-1.72-1.521-.922-.534-1.843-1.07-2.774-1.733.925.638 1.824 1.106 2.676 1.416-1.348-1.09-2.6-1.868-3.822-2.3q-.015-.015-.032-.028c-.018-.276-.036-.336-.044-.35v-.001h-.002v-.002h-.002a31 31 0 0 1-2.178-1.545c.719.58 1.427.995 2.086 1.252-1.037-.98-1.98-1.664-2.928-2.002q.353.348.703.64c-.32-.252-.618-.466-.974-.785-.75-.848-1.23-1.203-1.711-1.56-1.91-1.105-3.822-2.211-5.764-3.408a106 106 0 0 0 5.65 3.084c-3.388-2.232-6.68-4.193-9.931-5.868a87 87 0 0 1-1.063-.744c-1.107-.755-1.996-.876-2.886-.996-.325.224-.744.669-1.01.758.264-.099.662-.593.875-1.1-6.369-2.672-12.617-5.036-18.809-7.078q-.56-.285-1.12-.578c-.79-.728-1.37-.837-1.95-.95a22 22 0 0 1-2.15-.905c.708.356 1.406.559 2.056.6-1.034-.682-1.976-1.056-2.922-1.106.222.152.445.281.666.402-.323-.162-.62-.29-.984-.508-.762-.457-1.21-.483-1.658-.511-1.307-.386-2.615-.775-4.393-1.573-2.512-.43-4.556-.449-6.598-.469-5.729 1.46-11.4 2.041-17.351-1.525-2.558-.46-4.599-.485-6.639-.51-5.797.196-11.594.39-18.062.305-1.415-.217-2.159-.15-2.903-.086-.936 2.51-2.446 2.98-4.214 2.858 1.67.122 3.086-.374 3.808-2.946-3.139.574-5.87 1.236-8.334 2.178 1.382.108 2.828.57 4.145.73-1.421-.158-2.985-.612-4.563-.716-2.069-.18-3.45-.092-4.834-.004-.828 3.275-3.15 2.863-6.223 2.006-2.702-.15-4.738-.052-6.773.048-.864 3.222-3.17 2.82-6.15 1.97-1.687.057-2.781.358-3.877.66-1.499.783-2.997 1.567-4.573 2.32a66 66 0 0 0 4.196-2.31c-2.953 1.26-5.571 2.511-7.996 3.974q-.376.148-.76.293c-.973-.142-1.41-.065-1.846.013-1.594.807-3.186 1.613-4.873 2.377a51 51 0 0 0 4.51-2.455c-2.981 1.183-5.632 2.437-8.063 3.924q-.315.117-.638.232c-1.012.037-1.493.316-1.973.596-1.67.796-3.34 1.59-5.09 2.354a82 82 0 0 0 4.705-2.342c-3.272 1.279-6.199 2.548-8.923 4.031q-.392.14-.792.28c-.989-.142-1.423-.056-1.859.027-.451.393-.903.786-1.424 1.146a6 6 0 0 0 1.108-1.172c-1.04.548-1.8 1.117-2.381 1.895q-.197.088-.408.17c-.974.058-1.451.345-1.926.63-2.154 1.126-4.308 2.25-6.535 3.344a148 148 0 0 0 6.154-3.332c-4.153 1.89-7.977 3.768-11.61 5.85q-.554.239-1.119.473c-.982-.143-1.42-.055-1.857.033-.287.36-.573.72-.926 1.055.278-.339.497-.716.639-1.104-.713.497-1.18 1.033-1.498 1.758a5 5 0 0 1-.408.22c-.935-.11-1.37-.021-1.807.067-.455.393-.91.785-1.435 1.144a6 6 0 0 0 1.119-1.175c-1.042.539-1.801 1.107-2.383 1.884q-.195.087-.404.166c-.974.052-1.454.332-1.934.61-3.58 2.307-7.072 4.766-10.777 6.851 3.705-2.085 7.197-4.545 10.4-6.832-5.78 2.693-11.184 5.365-16.367 8.3l-.342.044c-1.328.138-2.11.501-2.89.863-1.312 3.027-3.68 4.13-6.358 4.815 2.596-.684 4.893-1.796 5.992-4.871-4.06 1.896-7.768 3.849-11.262 6.053q-.23.062-.459.13c-.994.056-1.468.344-1.943.631-2.16 1.125-4.318 2.25-6.55 3.344a155 155 0 0 0 6.17-3.318c-4.174 1.898-8.015 3.773-11.667 5.853q-.529.226-1.066.45c-.973-.14-1.41-.054-1.846.029-.452.395-.906.789-1.43 1.152a6 6 0 0 0 1.114-1.182c-1.04.548-1.799 1.122-2.377 1.903q-.196.089-.406.172c-.976.058-1.452.34-1.93.625-.28.255-.56.51-.904.742a2.3 2.3 0 0 0 .584-.729c-.727.336-1.168.661-1.456 1.182q-.175.069-.373.129c-1.27.172-2.053.533-2.834.896-.995.854-1.89 1.924-2.937 2.666 1.033-.743 1.867-1.825 2.572-2.724-5.663 2.566-10.975 5.188-16.055 8.056l-.615.194c-1.02.038-1.498.318-1.978.6-1.312.776-2.624 1.552-4.01 2.298a52 52 0 0 0 3.64-2.289c-2.612 1.253-4.902 2.497-7.007 3.943q-.375.166-.76.327c-.968-.132-1.402-.044-1.838.043-.289.36-.579.722-.933 1.058a3.8 3.8 0 0 0 .644-1.103c-.72.5-1.19 1.037-1.51 1.765q-.188.115-.4.221c-.93-.094-1.364 0-1.797.094-.458.386-.914.77-1.441 1.125a6 6 0 0 0 1.127-1.157c-1.05.53-1.814 1.09-2.403 1.862q-.191.084-.398.162c-.97.054-1.45.333-1.93.613-1.484.803-2.967 1.606-4.525 2.375a65 65 0 0 0 4.148-2.36c-2.938 1.295-5.54 2.574-7.941 4.071q-.363.148-.735.291c-.996.052-1.467.345-1.94.637a7.6 7.6 0 0 1-.876.73 2.3 2.3 0 0 0 .562-.705c-.718.342-1.159.663-1.445 1.17q-.183.07-.39.131c-1.28.113-2.055.425-2.829.736-.281.259-.561.517-.904.748a2.3 2.3 0 0 0 .586-.74c-.724.339-1.164.67-1.45 1.19q-.163.063-.347.119c-.944.078-1.42.357-1.9.638-.62.43-1.239.861-1.926 1.262a12 12 0 0 0 1.586-1.246c-1.358.641-2.415 1.268-3.293 2.092q-.23.095-.475.183c-.963.095-1.426.408-1.888.721-2.82 1.442-5.64 2.883-8.532 4.295a277 277 0 0 0 8.153-4.267c-5.42 2.495-10.51 4.967-15.4 7.642q-.67.293-1.348.584c-.983-.145-1.418-.062-1.852.018-.445.39-.89.778-1.402 1.136a6 6 0 0 0 1.088-1.15c-1.036.551-1.797 1.115-2.377 1.887q-.204.091-.424.175c-.973.067-1.441.368-1.91.67-.275.25-.55.5-.887.725a2.3 2.3 0 0 0 .574-.703c-.72.334-1.165.649-1.455 1.154a5 5 0 0 1-.39.127c-.938-.105-1.371-.009-1.807.086-.446.387-.892.776-1.406 1.13a6 6 0 0 0 1.09-1.157c-1.03.54-1.784 1.11-2.36 1.877a8 8 0 0 1-.416.172c-.976.05-1.455.332-1.935.615-2.21 1.158-4.418 2.316-6.704 3.44 2.2-1.121 4.317-2.278 6.33-3.434-4.2 1.907-8.068 3.81-11.734 5.931q-.476.203-.959.405c-.996.045-1.472.329-1.949.613-.285.259-.57.517-.918.75a2.3 2.3 0 0 0 .602-.735c-.732.337-1.178.658-1.467 1.182q-.16.062-.338.117c-.935.096-1.41.384-1.883.674-3.31 2.232-6.395 4.957-9.973 6.608 3.577-1.652 6.66-4.374 9.584-6.59-10.994 4.76-21.636 9.427-32.193 14.283-5.219 2.4-10.276 5.148-15.201 7.992.194.023.377.036.56.049-.292-.007-.54.002-.894-.022-.974-.144-1.409-.064-1.844.016-.441.385-.883.77-1.394 1.125a6 6 0 0 0 1.078-1.148v-.002c-1.031.543-1.79 1.109-2.367 1.879q-.22.097-.461.187c-.973-.14-1.41-.047-1.848.045-.285.359-.57.718-.92 1.05a3.8 3.8 0 0 0 .629-1.105c-.708.495-1.17 1.035-1.484 1.762q-.194.117-.415.223c-.937-.108-1.373-.012-1.81.082-.55.82-.95 1.963-1.586 2.6.626-.638.97-1.78 1.236-2.606-10.183 4.579-20.107 8.982-29.82 13.807-7.908 3.927-15.58 8.328-23.16 12.76l-.8.335c-.97.103-1.438.403-1.905.701-.706 2.561-2.219 3.941-4.14 4.795 1.837-.845 3.26-2.218 3.776-4.765-3.44 2.007-6.519 3.984-9.39 6.22l-.336.065c-.981.073-1.45.37-1.918.668-.594.564-1.188 1.129-2.148 1.584-.343-.103-.462-.047-.475-.04-.189.724-.172 1.749-.514 2.249.337-.499.284-1.503.217-2.084-4.15 3.146-8.016 6.135-11.52 9.135l-.464.26c-1.134.693-1.612 1.305-2.09 1.917-.705 1.176-1.41 2.35-2.293 3.485a15.3 15.3 0 0 0 1.978-3.407c-1.257 1.464-2.2 2.848-2.798 4.385l-.053.06c-.37-.086-.487.012-.5.024h-.002c.014 6.041-5.077 9.365-7.574 14.07 2.496-4.705 7.587-8.028 7.304-13.884-4.439 6.88-8.61 13.575-12.42 20.261 1.474-1.59 2.923-3.079 4.073-4.699-1.155 1.637-2.62 3.19-4.162 5.022-.467.779-.484 1.224-.5 1.67 1.564 3.194 1.62 6.198-1.547 9.255-.45.847-.466 1.292-.48 1.737.264.483.734.967.845 1.449-.116-.48-.624-.94-1.19-1.234-1.864 7.787-2.453 15.33.624 22.49.401-7.203.536-14.126.59-21.049-.054 6.923-.189 13.845-.577 21.447-.203 1.74-.131 2.8-.06 3.86 4.21 2.306 2.562 6.067 2.086 10.076-.203 1.044-.138 1.484-.073 1.924.426.841.853 1.682 1.239 2.615a13.4 13.4 0 0 0-1.329-2.264c.546 1.714 1.173 3.104 2.036 4.29q.067.237.13.486c-.169.99-.096 1.427-.023 1.867.42.828.842 1.656 1.223 2.574a13 13 0 0 0-1.313-2.219c.543 1.696 1.168 3.07 2.022 4.246q.071.253.138.514c-.164.996-.082 1.438 0 1.879 3.062 1.881 3.91 4.678 4.328 7.775-.416-3.006-1.276-5.748-4.425-7.404 1.504 4.435 3.104 8.504 4.972 12.34l.06.414c-.183 1.008-.112 1.446-.042 1.885.423.825.844 1.65 1.226 2.564a13 13 0 0 0-1.318-2.21c.55 1.697 1.18 3.074 2.04 4.251q.07.25.138.512c-.18.995-.107 1.438-.035 1.879.406.662.812 1.323 1.181 2.07a9 9 0 0 0-1.275-1.738c.518 1.384 1.12 2.463 1.951 3.367q.076.226.147.463c-.144.961-.063 1.398.02 1.836.51.237 1.327.377 1.599.687-.275-.305-1.1-.407-1.69-.31 2.167 6.68 4.42 12.994 6.934 19.078l.154.658c-.176 1.01-.101 1.45-.025 1.889.422.84.845 1.68 1.226 2.613a13 13 0 0 0-1.318-2.262c.538 1.709 1.16 3.094 2.016 4.28q.067.24.13.492c-.163.99-.084 1.433-.005 1.873.979 2.372 1.958 4.742 2.892 7.217a107 107 0 0 0-2.994-6.846c1.45 4.277 2.994 8.214 4.78 11.932l.26.826c-.184 1.004-.117 1.443-.05 1.88.426.835.853 1.668 1.239 2.592a13.4 13.4 0 0 0-1.325-2.24c.55 1.708 1.179 3.092 2.04 4.274q.069.244.134.498c-.17.99-.094 1.43-.02 1.869.4.65.8 1.3 1.165 2.035a9 9 0 0 0-1.256-1.701c.517 1.375 1.117 2.448 1.94 3.348q.082.246.16.507c.075 1.646.382 2.74.687 3.834 2.098 1.489 3.05 3.43 3.549 5.62-.497-2.097-1.448-3.942-3.545-5.223 1.339 4.107 2.67 7.822 4.27 11.3l.038.393c-.189 1.012-.12 1.453-.05 1.893 1.82 3.066 3.59 6.162 5.472 9.191 3.25 5.23 6.567 10.416 9.76 16.016-.09.371.033.492.049.506h.002c.69.4 1.38.8 2.08 1.267a20 20 0 0 0-1.9-1.008c1.376 1.054 2.611 1.902 3.812 2.465q.24.21.484.442c.398.79.7.959 1 1.129 2.251 1.448 4.502 2.896 6.782 4.437a162 162 0 0 0-6.666-4.117c3.998 2.848 7.898 5.428 11.767 7.715q.6.442 1.203.9c1.088.77 1.978.895 2.868 1.02.686.347 1.372.694 2.402 1.453 1.098.455 1.85.498 2.6.54 1.173.413 2.473.969 3.67 1.407-1.194-.398-2.382-.778-3.536-1.062 3.048 1.386 5.963 2.429 8.82 3.125-.563-.26-1.112-.445-1.671-.68.687.28 1.275.447 1.994.764.823.453 1.265.475 1.709.498 2.15.476 4.303.952 6.607 1.593a45 45 0 0 0-6.42-1.27c3.073.98 5.962 1.64 8.77 1.97l.322.101c.851.453 1.3.476 1.75.498 8.304-.187 16.631-.362 25.6-.277-8.73-.1-17.165.089-25.399.662 5.267.449 10.337.647 15.399.533 3.446-.076 6.883-.588 10.027-1.195h.002c.141.001.261-.006.402-.004 1.763.189 2.827.092 3.89-.004 2.09-1.459 4.056-3.144 6.288-4.336-2.232 1.192-4.2 2.877-5.93 4.336 1.844-.602 3.325-1.215 4.813-1.805 9.933-3.944 19.382-8.74 27.453-15.857l.51-.24c.964-.114 1.43-.415 1.896-.715.956-.764 1.912-1.528 2.938-2.264a32 32 0 0 0-2.588 2.242c1.958-1.24 3.616-2.464 5.103-3.879q.342-.196.698-.388c1.627-.535 2.726-1.274 3.826-2.012 1.1-.901 2.202-1.803 3.67-2.686.32.017.367.027.373.03v.002h.002c.436-.418.871-.836 1.373-1.229-.42.385-.776.796-1.05 1.201 1.024-.634 1.772-1.245 2.35-2.048q.225-.12.467-.23c1.621-.54 2.72-1.279 3.819-2.019.873-.653 1.873-1.302 2.773-1.955-.86.669-1.694 1.34-2.431 2.03 2.463-1.534 4.582-3.144 6.326-4.768-.146.092-.263.185-.406.277.145-.093.252-.187.4-.28.325.007.372.017.379.019l.002.002c2.197-1.493 4.392-2.988 6.664-4.453a162 162 0 0 0-6.299 4.425c4.151-2.518 7.984-5.013 11.629-7.699q.54-.315 1.092-.625c1.316-.428 2.111-1.043 2.906-1.658 1.877-1.321 3.753-2.642 5.703-3.938a125 125 0 0 0-5.346 3.887c3.576-2.217 6.832-4.388 9.909-6.76q.415-.245.837-.488c.953-.123 1.421-.42 1.89-.717 1.515-1.14 3.032-2.279 4.62-3.39a79 79 0 0 0-4.26 3.351c2.922-1.882 5.531-3.733 7.965-5.781q.388-.236.785-.469c.957-.104 1.429-.396 1.899-.69.573-.516 1.145-1.033 1.873-1.54-.71.506-1.223 1.015-1.555 1.506v.002c1.096-.68 1.876-1.326 2.305-1.99l.014-.008c.27.017.334.015.35.013h.003c.408-.36.818-.72 1.318-1.084q-.638.537-.992 1.069c1.03-.62 1.78-1.226 2.227-1.848q.168-.092.35-.186c.76-.085.917-.151 1.072-.218.825-.752 1.647-1.503 2.547-2.225a22 22 0 0 0-2.217 2.22c1.686-1.166 3.078-2.33 4.287-3.71q.25-.159.512-.315c.965-.097 1.436-.391 1.906-.685.386-.338.77-.675 1.242-1.016q-.583.5-.918.987c1.004-.606 1.748-1.188 2.205-1.782q.226-.12.479-.24c1.78-.756 2.87-1.491 3.959-2.228 1.59-1.161 3.179-2.323 4.857-3.45a62 62 0 0 0-4.508 3.516c2.952-1.798 5.59-3.654 8.041-5.73q.366-.213.739-.422c1.308-.426 2.098-1.05 2.888-1.674 1.859-1.316 3.718-2.632 5.649-3.918a117 117 0 0 0-5.29 3.88c3.566-2.204 6.815-4.375 9.876-6.761q.43-.253.869-.502c.965-.092 1.431-.391 1.898-.69.408-.36.817-.72 1.317-1.083a5.2 5.2 0 0 0-.99 1.068c1.027-.618 1.774-1.224 2.22-1.844q.17-.091.354-.183c.764-.088.919-.159 1.076-.229.806-.738 1.612-1.475 2.49-2.184a22 22 0 0 0-2.16 2.18c1.673-1.163 3.057-2.324 4.26-3.695q.263-.167.539-.328c.967-.087 1.438-.38 1.908-.672.383-.337.764-.675 1.234-1.014q-.579.498-.912.986c1.002-.603 1.744-1.184 2.201-1.779q.237-.124.502-.25c3.12-1.457 5.525-2.895 7.93-4.332.614-.767 1.229-1.536 2.21-2.187.345.108.47.031.483.021.373-.395.755-.79 1.202-1.164a6 6 0 0 0-.944 1.03c1.01-.638 1.767-1.143 2.145-1.83a6 6 0 0 0-.616.357 6 6 0 0 0-.472.355 7 7 0 0 1 1.148-.767c.413.12.542.022.557.01h.002c.078-.555.01-1.373.156-1.805-.133.426-.01 1.214.152 1.64 3.455-2.162 6.618-4.171 9.582-6.416l.555-.213c1.986-.747 3.43-1.706 4.873-2.666 1.523-1.11 3.047-2.221 4.676-3.34a76 76 0 0 0-4.316 3.32c2.915-1.874 5.517-3.731 7.793-5.595q.353-.22.716-.441c.786-.118.945-.188 1.104-.258a30 30 0 0 1 1.822-1.408q-.887.704-1.5 1.426c1.334-.801 2.401-1.619 3.16-2.458q.255-.139.53-.279c1.47-.657 2.246-1.303 3.023-1.951.394-.35.787-.7 1.271-1.055q-.607.521-.945 1.032c1.011-.617 1.75-1.214 2.195-1.82q.201-.111.422-.221c1.122-.338 1.587-.645 2.051-.952.595-.549 1.19-1.1 2.168-1.537.36.105.487.014.502.002v-.002c.487-.467.999-.934 1.557-1.4a11 11 0 0 0-1.282 1.26c1.213-.857 2.154-1.572 2.692-2.305-.135.086-.247.173-.373.26.128-.09.22-.182.357-.272.315.006.384.029.399.037l.002.002h.002v.002c.38-.342.76-.685 1.226-1.029a5.2 5.2 0 0 0-.9 1c.993-.613 1.724-1.203 2.174-1.803q.228-.123.484-.246c1.785-.755 2.877-1.49 3.969-2.224.472-.401.944-.802 1.492-1.174a6 6 0 0 0-1.172 1.246c1.047-.539 1.809-1.145 2.412-1.953q.213-.1.443-.192c1.608-.547 2.713-1.287 3.815-2.027 1.142-.89 2.283-1.782 3.498-2.645a43 43 0 0 0-3.16 2.647c2.27-1.446 4.25-2.893 6.056-4.533q.377-.222.768-.44c1.633-.528 2.738-1.26 3.842-1.994.42-.348.92-.69 1.363-1.037-.395.349-.747.7-1.045 1.053 1.451-.885 2.58-1.782 3.338-2.703l.006-.002c.374.026.371.021.371.021.442-.393.911-.783 1.422-1.172-.475.386-.844.772-1.098 1.153 1.107-.673 1.89-1.323 2.32-1.995l.003-.002c.355.02.353.018.353.018.609-.442 1.219-.884 1.897-1.295a11.4 11.4 0 0 0-1.553 1.277c1.357-.658 2.408-1.299 3.271-2.154q.225-.093.461-.181c.981-.06 1.452-.356 1.924-.649.275-.26.551-.52.887-.754a2.3 2.3 0 0 0-.572.733c.717-.351 1.156-.682 1.439-1.2q.166-.064.352-.123c.943-.087 1.417-.373 1.892-.66.284-.261.569-.522.916-.758-.27.23-.477.49-.598.746.731-.342 1.17-.67 1.457-1.199q.161-.063.34-.119c.937-.096 1.412-.38 1.887-.666 1.332-.8 2.664-1.598 4.07-2.365a52 52 0 0 0-3.705 2.353c2.623-1.276 4.92-2.542 7.032-4.015q.341-.153.69-.303c.975-.078 1.443-.375 1.913-.67.272-.252.546-.503.879-.73a2.3 2.3 0 0 0-.565.71c.72-.339 1.16-.661 1.448-1.173q.182-.07.388-.131c1.28-.102 2.06-.404 2.838-.707.28-.25.561-.498.905-.723-.263.22-.465.468-.586.715.727-.325 1.171-.641 1.463-1.156q.181-.068.386-.125c1.28-.094 2.062-.388 2.844-.68.795-.433 1.59-.867 2.459-1.27a17.4 17.4 0 0 0-2.098 1.266c1.697-.637 3.07-1.27 4.25-2.117q.253-.083.516-.162c.972.156 1.409.09 1.846.025.833-.426 1.667-.852 2.591-1.238-.838.396-1.592.848-2.238 1.326 1.707-.55 3.09-1.182 4.272-2.043q.243-.07.498-.135c.993.164 1.432.084 1.87.004 1.439-4.204 4.713-2.44 8.196-2.035 3.407.171 6.104.075 8.8-.025.448-.61.9-1.654 1.345-2.02-.432.37-.82 1.429-.932 2.117 6.005-.223 11.618-.538 17.111-1.207q.405.05.815.104c6.248.798 11.986 1.061 17.726 1.324 2.833-1.239 5.61-2.041 8.383 1.469 2.87.484 5.24.519 7.61.555a48 48 0 0 1 3.25.834c-1.076-.307-2.12-.486-3.092-.512 1.725.694 3.29 1.065 4.812 1.1-.236-.098-.469-.174-.703-.258.37.123.694.2 1.092.353 1.496.47 2.561.507 3.625.543 1.046.24 2.14.525 3.305.873-1.099-.324-2.159-.516-3.141-.556 1.73.697 3.296 1.078 4.8 1.134-.29-.12-.576-.217-.862-.318.42.138.793.232 1.251.406 4.526 1.544 8.923 2.042 12.618 3.92 10.833 5.506 21.751 10.998 31.943 17.57 8.99 5.795 18.2 12.017 25.193 19.924 6.982 7.893 11.964 17.802 16.694 27.383 7.555 15.301 10.785 31.783 10.32 48.889-.569 20.957-1.278 41.91-1.871 62.867-.384 13.615-.638 27.234-1.004 40.85-.652 24.248-1.38 48.495-2.01 72.744-.396 15.27-.682 30.544-1.002 45.816-.334 15.937-.714 31.873-.922 47.81-.052 3.943 1.218 8.012.6 11.815-1.38 8.504-3.2 16.98-5.53 25.274-2.323 8.272-4.747 16.666-8.464 24.359-4.994 10.338-10.147 20.971-17.315 29.781-7.084 8.71-16.51 15.62-25.373 22.74-8.265 6.64-16.503 13.805-25.884 18.461-18.837 9.351-38.483 17.068-57.725 25.616-16.907 7.51-33.718 15.235-50.572 22.865-.307.245-.614.49-.994.707.297-.223.531-.493.673-.787-.745.266-1.197.608-1.52 1.164a6 6 0 0 1-.41.119c-7.916 3.14-15.33 6.478-22.743 9.818-1.433.8-2.867 1.6-4.393 2.365a44 44 0 0 0 4.027-2.445c-2.673 1.177-5.017 2.428-7.177 3.897q-.32.133-.649.263c-1.3.107-2.072.414-2.845.721-.293.263-.586.527-.942.762.28-.23.494-.494.621-.756-.738.333-1.185.661-1.482 1.197q-.16.062-.336.115c-.928.083-1.405.363-1.881.643-2.266 1.171-4.532 2.342-6.88 3.482a150 150 0 0 0 6.5-3.47c-4.242 1.91-8.137 3.81-11.85 5.926q-.45.192-.907.382c-1.3.107-2.074.41-2.847.713a8 8 0 0 1-.955.756 2.3 2.3 0 0 0 .634-.758c-.745.326-1.194.654-1.496 1.196a5 5 0 0 1-.33.11c-.923.092-1.397.377-1.871.661-2.228 1.15-4.455 2.301-6.762 3.422a149 149 0 0 0 6.381-3.41c-4.223 1.902-8.102 3.792-11.799 5.894q-.474.204-.957.405c-1.304.104-2.076.408-2.85.713a8 8 0 0 1-.929.765c.275-.231.486-.495.611-.756-.735.341-1.18.674-1.476 1.211q-.16.062-.336.117c-.931.076-1.41.351-1.889.627a8 8 0 0 1-.931.752c.275-.226.488-.486.615-.744-.739.331-1.186.655-1.485 1.192a5 5 0 0 1-.369.129c-1.257.122-2.029.426-2.8.73-1.397.816-2.791 1.632-4.272 2.416a49 49 0 0 0 3.9-2.418c-2.668 1.26-4.998 2.523-7.146 4q-.312.138-.631.272c-.942-.118-1.37-.042-1.797.033-.49.39-.982.78-1.553 1.142a6 6 0 0 0 1.235-1.25c-1.068.504-1.85 1.103-2.485 1.916q-.225.099-.47.192c-2.61.766-4.7 1.724-6.787 2.683-1.37.802-2.74 1.604-4.194 2.375a49 49 0 0 0 3.823-2.377c-2.657 1.255-4.978 2.513-7.116 3.983q-.33.145-.672.289c-1.303.108-2.076.409-2.851.709a8 8 0 0 1-.914.738 2.3 2.3 0 0 0 .596-.728c-.732.331-1.177.653-1.475 1.18q-.18.069-.381.128c-1.267.104-2.041.402-2.816.701-1.285.717-2.57 1.436-3.961 2.155a53 53 0 0 0 3.591-2.145c-2.595 1.23-4.87 2.453-6.818 3.707q-.384.174-.783.348a16 16 0 0 0-3.016.966c-.29.25-.58.501-.935.725.275-.22.488-.472.617-.725-.742.316-1.195.633-1.498 1.155a5 5 0 0 1-.367.117c-.91-.12-1.335-.044-1.762.033-.31.38-.621.76-1 1.113a3.9 3.9 0 0 0 .705-1.187c-.744.503-1.225 1.07-1.56 1.84a5 5 0 0 1-.358.2c-.929.09-1.406.368-1.883.646a23 23 0 0 1-1.42 1.205c.475-.396.843-.796 1.092-1.19-1.101.68-1.877 1.345-2.3 2.037l-.005.002c-.356-.03-.351-.025-.351-.025-.603.572-1.206 1.142-1.92 1.726a11.5 11.5 0 0 0 1.586-1.71c-1.368.962-2.433 1.91-3.17 2.884q-.187.126-.385.252c-1.106.44-1.573.805-2.039 1.17-.444.512-.888 1.023-1.44 1.545a6.8 6.8 0 0 0 1.13-1.592c-1.07.832-1.86 1.705-2.334 2.602q-.151.112-.313.226c-.767.337-.942.615-1.117.895-.583.557-1.166 1.116-1.854 1.684a11.5 11.5 0 0 0 1.522-1.66c-1.35.955-2.406 1.892-3.14 2.86q-.21.14-.432.28c-1.806 1.328-2.947 2.589-4.088 3.85-.388.677-.776 1.357-1.252 2.054.398-.671.707-1.33.931-1.96-1.003 1.247-1.738 2.415-2.181 3.564q-.2.223-.418.453c-1.461 1.397-2.27 2.646-3.076 3.896-.23.514-.462 1.028-.778 1.559a5 5 0 0 0 .463-1.469c-.713.944-1.16 1.812-1.312 2.65q-.13.15-.272.301c-.758.4-.927.683-1.097.967-.23.503-.46 1.006-.782 1.541.246-.504.4-.991.465-1.453-.72.947-1.165 1.82-1.316 2.65a11 11 0 0 1-.328.377c-2.107 3.438-3.572 6.647-5.036 9.856-.598 5.927-1.372 11.844-1.806 17.78.429-5.934 1.164-11.837 1.46-17.65-.736.65-1.25 1.114-1.501 1.694-3.93 9.051-1.625 18.578-1.975 27.895-.053 1.4 1.175 2.848 2.09 4.027.066-3.883-.314-7.605-.299-11.275-.013 3.679.374 7.452.34 11.642-.175 1.35-.11 2.084-.047 2.819.427.87.854 1.738 1.24 2.707a13.5 13.5 0 0 0-1.343-2.356c.533 1.736 1.162 3.147 2.029 4.371q.069.248.135.506c-.152 1.291-.075 2.024.002 2.754.374.305.748.61 1.097.984a4 4 0 0 0-1.168-.687c.503.74 1.07 1.22 1.832 1.555q.12.191.229.408c3.779 4.602 7.73 8.707 11.682 12.812.948.545 1.897 1.09 2.85 1.77-.949-.656-1.88-1.135-2.764-1.447 1.347 1.092 2.612 1.869 3.859 2.296l.027.024c.008.275.023.335.03.347l.001.002v.002h.002c.496.236.993.472 1.518.797a5 5 0 0 0-1.424-.484c.939.729 1.797 1.191 2.613 1.361q.181.156.37.332c3.29 2.76 6.106 5.941 9.504 6.787 8.993 2.24 18.23 4.823 27.384 4.88 65.831.408 131.67.681 197.498.12 108.38-.924 216.789 2.77 325.14-2.023 7.155-.317 14.274-.769 20.542-5.432 5.863-4.363 12.442-7.75 18.53-11.83 3.386-2.27 7.458-4.461 9.4-7.762 5.405-9.177 9.797-18.946 14.705-28.421 4.593-8.867 9.234-17.714 14.113-26.424.819-1.463 2.81-2.645 4.506-3.18 9.35-2.953 18.779-4.89 28.765-5.195 15.933-.488 31.812-2.51 47.731-3.635 12.368-.875 24.759-1.415 37.144-2.027 20.827-1.03 41.656-1.994 62.483-2.996 7.27-.35 14.57-.429 21.799-1.194 5.797-.614 11.56-1.846 17.234-3.232 5.197-1.27 10.353-2.854 15.346-4.772 4.83-1.854 10.856-3.133 13.842-6.744 6.82-8.25 12.985-17.33 17.789-26.89 5.918-11.78 10.375-24.316 15.111-36.66 5.978-15.583 11.473-31.35 17.404-46.95 8.926-23.478 18.048-46.88 27.088-70.314 2.89-7.494 5.86-14.959 8.65-22.49a1488 1488 0 0 0 10.03-27.893c2.12-6.096 4.343-12.193 5.857-18.451 1.19-4.918 1.42-10.077 1.97-15.14.478-4.425 1.495-8.94 1.02-13.278-.536-4.923-2.308-9.746-3.824-14.522-3.604-11.349-7.633-22.305-16.355-31.207-18.12-18.492-35.604-37.604-53.555-56.263-17.492-18.182-35.363-35.999-52.842-54.194-15.284-15.912-30.21-32.166-45.375-48.195-11.36-12.008-17.584-26.875-22.687-42.115-2.558-7.642-4.02-16.052-3.947-24.096.18-19.897-2.44-39.894 3.431-59.662 3.75-12.628 8.443-24.668 15.772-35.418 13.07-19.171 26.823-37.876 40.304-56.766 14.903-20.882 29.927-41.677 44.704-62.648 16.332-23.181 31.93-46.87 51.498-67.635 9.899-10.504 21.249-18.053 35.125-21.773 2.36-.633 4.926-.478 7.384-.78 9.923-1.22 19.84-3.5 29.76-3.506 20.883-.01 41.769 1.162 62.652 1.868.816.027 1.626.254 2.44.37 11.984 1.728 23.856.146 34.98-3.802 12.02-4.265 20.917-13.713 28.7-23.395 6.56-8.159 12.129-17.5 11.039-28.93-.557-5.841.057-12.224-2.13-17.404-7.351-17.424-20.999-29.887-35.474-41.404-11.41-9.078-23.065-17.847-34.508-26.885-15.14-11.957-30.168-24.054-45.263-36.068a23169 23169 0 0 0-43.145-34.254c-12.73-10.08-25.49-20.121-38.23-30.191-11.532-9.114-22.817-18.563-34.65-27.266-9.75-7.17-19.335-14.489-31.798-17.39-6.818-1.588-13.557-2.317-20.209-2.125M78.777 661.16c-1.882-3.029-3.651-6.126-5.558-8.824 1.487 3.879 2.956 7.44 4.656 10.89 2.633 5.343 4.36 11.391 10.604 13.881-3.133-5.53-6.453-10.718-9.702-15.947M197.61 386.012h.004v-.002zm696.14 400.154.002-.004h-.002zm43.488-55.33-.002.004h.002zm-807.886-57.12c.935.414 2.398-.376 3.474-.96-5.048-2.065-9.953-3.783-14.846-5.133 3.784 2.308 7.499 4.384 11.372 6.094m415.671-173.048c2.021.708 3.983 1.075 5.797 1.1-2.05-.71-3.954-1.076-5.797-1.1m109.875 478.086c-.386.748-.601 1.467-.64 2.133.67-1.04 1.027-1.983 1.084-2.89a9 9 0 0 0-.444.757M493.766 270.676c-5.57.548-11.368.741-17.461.644a154 154 0 0 1 17.46-.644m7.295.943c5.522 3.484 11.193 2.9 16.707 1.08-5.742-.719-11.27-1.076-16.707-1.08m-42.391 1.627c-2.126.541-3.888 1.179-5.42 2.086 2.634.874 4.958 1.287 5.42-2.086m66.34.375c1.349.71 2.656 1.095 3.836 1.16-1.377-.709-2.627-1.095-3.836-1.16m-79.334 1.68c-2.126.526-3.888 1.152-5.422 2.045 2.616.875 4.922 1.277 5.422-2.045m20.601 21.625c-1.33.047-2.408.687-2.918 2.853 2.798-.565 5.202-1.223 7.348-2.156-1.518-.2-3.1-.745-4.43-.697m-12.609 2.154c-2.118-.03-3.965.604-5.275 2.76v.002c3.474-.576 6.532-1.239 9.324-2.18-1.41-.309-2.778-.564-4.049-.582m-92.463 13.244q-.143.057-.287.11.144-.053.287-.11m51.297 1.84c-.171.037-.33.09-.498.133.167-.042.325-.096.498-.133m-1.426.387q-.12.043-.238.09.118-.046.238-.09m170.274 22.715c1.01 1.26 2.04 2.218 3.226 2.838-.966-1.271-2.086-2.208-3.226-2.838m13.705 13.062c1.465 1.924 2.897 3.512 4.498 4.766a25.7 25.7 0 0 0-4.498-4.766m18.25 18.92c.667.92 1.368 1.553 2.234 1.867-.625-.93-1.411-1.541-2.234-1.867m42.478 6.018a3 3 0 0 0 .24.214 4 4 0 0 1-.24-.214m1.672 1.646c1.548 1.725 3.264 3.103 4.81 4.219v-.002c-1.658-1.695-3.15-3.13-4.81-4.217m6.97 6.988c.746 1.262 1.651 2.187 2.526 2.793-.808-1.255-1.585-2.193-2.525-2.793m-30.376 6.44c2.854 2.573 5.75 5.49 8.476 8.75-2.924-2.575-5.68-5.49-8.476-8.75m-482.7 18.012c.072-.001.148.003.217 0-.062.003-.151-.003-.216 0m511.784 12.894c.785.92 1.502 1.559 2.379 1.856-.71-.938-1.578-1.539-2.38-1.856m46.299 9.66c1.197 3.601 2.728 6.66 6.828 6.276-2.339-2.384-4.504-4.502-6.828-6.276m6.957 6.994c.75 1.266 1.659 2.192 2.543 2.797-.812-1.259-1.598-2.198-2.543-2.797m-34.914 1.95a8 8 0 0 0-.737.037c2.317 2.359 4.46 4.454 6.772 6.205-.791-3.714-2.483-6.257-6.035-6.242m-610.772 7.183c-.91.466-1.521.905-1.808 1.506.918-.404 1.513-.967 1.808-1.506m46.217 3.934c-.184.044-.372.077-.56.113.188-.033.373-.074.56-.113m619.566 10.943c1.305 2.26 2.782 4.187 4.332 5.774-1.336-2.263-2.748-4.184-4.332-5.774m-666.84 20.15c-.575.824-.791 1.59-.757 2.197.539-.858.825-1.555.757-2.197M36.72 487.2c-.718 3.067-1.093 5.946-1.12 8.746 3.084-2.734 3.025-5.738 1.12-8.746m470.441 9.887c-13.9.449-27.793 1.2-41.68 1.992v-.002c13.887-.79 27.78-1.541 41.68-1.99m25.87 1.584c3.028 3.79 6.5 2.478 9.765 1.068-3.396-.713-6.614-1.074-9.766-1.068m221.595 4.621c-.418 3.04-2.138 6.31 2.148 7.352-.562-2.797-1.218-5.204-2.148-7.352m-24.422 12.092v.002c.566 3.472 1.226 6.527 2.17 9.308.02-3.556 2.754-7.584-2.17-9.31m-205.996 6.511c-1.32-.027-2.68.57-4.01 1.366 2.73.693 5.286 1.033 7.778 1.021-1.17-1.708-2.449-2.36-3.768-2.387m-53.92.022c-1.329.044-2.409.674-2.933 2.818 2.797-.557 5.205-1.197 7.355-2.113-1.516-.205-3.093-.749-4.422-.705m-435.11 3.467c.568 3.475 1.223 6.537 2.16 9.328.49-3.674 2.14-7.436-2.16-9.328m366.64 1.623c-7.81 5.156-15.822 10.009-23.797 14.912v-.002c7.975-4.902 15.986-9.754 23.796-14.91m217.667 7.888c2.207 3.36 4.348 6.724 8.748 6.178-2.989-2.344-5.789-4.428-8.748-6.178m9.018 7.002c2.972 3.783 5.412 8.186 10.734 8.118-3.643-2.992-7.107-5.722-10.734-8.118M383.098 567.5c-.914.385-1.51.935-1.81 1.457.905-.449 1.518-.87 1.81-1.457m569.599 15.688c-.988 2.74-1.655 5.296-1.998 7.777 1.878-2.478 4.656-4.574 1.998-7.778m-612.584 11.294c-.927.6-1.54 1.368-1.875 2.18.915-.64 1.551-1.326 1.875-2.18m331.485 29.833c.002 3.544-2.728 7.556 2.144 9.316-.554-3.468-1.208-6.53-2.144-9.317M214.713 643.05c-.905.453-1.518.875-1.809 1.463.913-.39 1.509-.941 1.809-1.463m-21.06 13c-4.79 2.993-9.221 5.967-13.266 8.967 5.684-1.68 10.655-3.86 13.265-8.967m21.986 16.935c-1.474.878-2.576 1.779-3.356 2.702 1.456-.88 2.593-1.78 3.356-2.702m-105.55 19.233c.702.64 1.33.996 1.974 1.052-.672-.647-1.36-.992-1.973-1.052m625.499 34.463c.11.295.216.59.275.888a5 5 0 0 0-.275-.888m174.127 4.5c-1.384 4.06-2.436 7.95-3.139 11.77 2.375-3.77 4.837-7.35 3.139-11.77m-8.99 31.004c-1.674 5.064-3.014 9.958-4.018 14.77 2.515-4.809 5.172-9.403 4.018-14.77m-163.711 3.287c.402 23.33.673 46.662.97 69.994h-.002c-.296-23.332-.566-46.664-.968-69.994m-70.131 87.54c-.419 3.881-.726 7.75-.776 11.62.05-3.852.351-7.704.776-11.62m206.84 1.18c-1.672 5.067-3.006 9.958-3.993 14.786 3.021-4.67 5.15-9.423 3.993-14.786m-207.354 81.834c-.708 2.023-1.072 3.988-1.098 5.8.706-2.056 1.074-3.957 1.098-5.8m-2.08 9.993c-.694 2.02-1.047 3.985-1.06 5.8.695-2.053 1.047-3.957 1.06-5.8m81.414 41.753q.093.15.139.311h-.002a1.2 1.2 0 0 0-.137-.31m40.902 36.674c-.722-.016-1.525.202-2.443.752 2.706 1.39 5.29 2.442 7.824 3.15-1.753-1.688-3.212-3.853-5.38-3.902" style="fill:#fff;fill-opacity:1"/></svg>