<svg xmlns="http://www.w3.org/2000/svg" viewBox="0 0 1462 1296" xml:space="preserve"><path fill="#fff" d="M645.013 1275.972c-56.866-.033-113.235.049-169.604-.132-52.932-.169-105.869-.303-158.793-1.116-17.433-.268-33.686-5.245-45.716-19.33-2.056-2.407-4.548-4.438-6.835-6.648-5.803-5.607-6.161-13.337-7.926-20.497-4.176-16.947 1.823-31.281 11.187-44.991 10.55-15.448 24.834-26.03 41.664-33.5 10.597-4.705 21.327-9.106 31.96-13.731 7.56-3.289 15.063-6.71 22.581-10.096 13.985-6.298 27.951-12.637 41.945-18.916 14.842-6.66 29.722-13.237 44.56-19.908 20.494-9.216 40.95-18.517 61.452-27.72 11.274-5.06 23.09-9.145 33.774-15.227 10.203-5.808 19.537-13.286 28.73-20.68 8.096-6.51 16.474-13.118 22.882-21.154 6.558-8.223 11.286-18.028 16.026-27.535a106 106 0 0 0 7.838-21.178c2.654-10.513 5.318-21.21 6.098-31.965 1.046-14.426.175-28.983.353-43.48.185-15.105.624-30.206.978-45.307.328-13.995.686-27.988 1.038-41.981.645-25.692 1.28-51.384 1.95-77.074.639-24.538 1.26-49.076 2-73.61.503-16.649-3.011-32.492-10.181-47.364-4.415-9.158-9.508-18.116-15.382-26.392-3.023-4.258-8.27-7.054-12.78-10.115-10.623-7.211-21.156-14.61-32.208-21.115-8.258-4.86-17.155-8.254-26.719-10.67-12.247-3.093-24.63-4.842-37.009-6.253-10.687-1.217-21.637-.407-32.46-.105-18.083.506-33.823 8.472-49.054 16.989-18.797 10.51-37.132 21.875-55.414 33.275-29.3 18.27-58.37 36.909-87.583 55.32a8965 8965 0 0 1-55.475 34.653c-17.192 10.66-34.369 21.352-51.718 31.754-14.382 8.622-30.163 7.672-45.967 5.846-11.315-1.307-21.813-5.547-31.41-11.123-15.47-8.988-26.67-21.581-30.98-39.93-2.946-12.543-8.082-24.562-12.033-36.882-4.344-13.545-8.42-27.176-12.672-40.751-3.235-10.328-6.777-20.566-9.76-30.965-1.563-5.447-2.29-11.142-3.248-16.75-.495-2.9-.741-5.848-.975-8.785-1.307-16.398 2.714-31.08 12.25-44.786 8.729-12.545 20.245-21.111 33.424-27.945 13.33-6.912 26.631-13.907 40.193-20.341 17.944-8.514 36.17-16.43 54.197-24.77 13.768-6.37 27.34-13.168 41.135-19.475 18.954-8.665 38.107-16.894 57.046-25.59 21.118-9.697 42.06-19.776 63.137-29.565 21.976-10.208 44.052-20.2 66.019-30.427 8.976-4.18 18.45-6.445 28.067-4.706 10.05 1.817 17.643 8.162 23.335 16.751 7.54 11.377 15.17 22.698 23.057 33.834 1.111 1.57 3.949 2.85 5.895 2.733 8.018-.483 15.996-1.61 23.998-2.4 13.89-1.371 27.765-3.024 41.688-3.877 10.296-.631 20.662-.379 30.99-.169 18.972.386 36.798 5.302 52.372 16.176 6.714 4.687 11.963 11.48 17.83 17.365 1.026 1.029 1.71 2.396 2.727 3.437 16.04 16.417 32.427 32.51 48.076 49.291 13.74 14.736 29.111 28.193 39.622 45.641 5.011 8.319 9.477 17.23 12.466 26.432 3.378 10.4 5.648 21.337 6.868 32.212 1.167 10.392.388 21.004.423 31.519.032 9.833-.09 19.668.035 29.5.241 18.94.66 37.878.913 56.818.408 30.631.712 61.264 1.116 91.895.244 18.484.585 36.967.902 55.45.355 20.767.805 41.533 1.081 62.301.379 28.445.491 56.894 1.015 85.336.193 10.534.315 21.212 2.12 31.536 2.065 11.816 6.625 22.667 19.515 27.443 6.325 2.343 11.73 7.329 19.1 6.566 11.541-1.194 20.55-7.13 26.97-16.33 10.295-14.754 13.187-32.471 18.303-49.264 3.58-11.748 7.126-23.507 10.507-35.313 3.298-11.516 6.33-23.108 9.55-34.647 2.303-8.254 4.7-16.481 7.092-24.71a9607 9607 0 0 1 10.894-37.265c3.48-11.793 7.065-23.554 10.52-35.354 4.55-15.54 9.01-31.108 13.527-46.658 4.244-14.613 8.53-29.213 12.763-43.83 5.092-17.585 10.09-35.198 15.235-52.767 4.09-13.966 8.408-27.864 12.495-41.83 2.088-7.135 3.891-14.352 5.956-22.024l-20.265-6.098 5.51-19.17 65.966 19.264-5.536 19.171-20.094-5.723c-5.44 19.032-10.758 37.97-16.282 56.848-4.105 14.03-8.63 27.938-12.692 41.98-4.929 17.034-9.51 34.169-14.353 51.228-2.93 10.319-6.127 20.56-9.1 30.866-4.37 15.158-8.575 30.365-12.991 45.51-3.05 10.458-6.46 20.813-9.488 31.277-3.616 12.491-6.848 25.094-10.518 37.568-4.22 14.34-8.87 28.554-13.082 42.896-3.43 11.678-6.33 23.512-9.754 35.191-4.247 14.487-7.691 29.348-13.5 43.201-6.467 15.42-17.92 26.99-32.694 35.757-12.076 7.166-24.681 6.706-37.379 5.756-5.116-.383-10.06-4.185-14.907-6.758-6.242-3.313-13.1-6.064-18.281-10.65-9.548-8.451-14.693-19.746-18.157-32.115-2.278-8.137-2.705-16.145-2.778-24.383-.327-37.103-.703-74.206-1.14-111.307-.21-17.953-.55-35.905-.908-53.855-.27-13.442-.715-26.88-.987-40.323-.369-18.277-.651-36.555-.963-54.833-.346-20.278-.74-40.555-1.012-60.833-.398-29.774-.486-59.554-1.155-89.322-.284-12.664-.145-25.429-3.692-37.85-4.562-15.975-12.442-29.952-24.036-41.857-11.075-11.372-22.205-22.695-33.122-34.219-12.887-13.601-25.521-27.441-38.367-41.082-5.092-5.407-9.937-11.254-15.83-15.645-7.067-5.265-14.822-9.22-24.017-10.967-14.085-2.676-28.111-1.88-42.124-1.498-11.285.307-22.514 2.442-33.784 3.605-5.426.56-10.888.788-16.338 1.098-7.6.433-15.201.905-22.809 1.174-9.79.347-17.221-4.221-22.622-11.986-8.196-11.784-16.106-23.768-24.059-35.72-4.317-6.487-7.384-7.662-14.839-4.374-23.383 10.317-46.564 21.09-69.843 31.644-18.752 8.5-37.561 16.875-56.29 25.426-13.111 5.987-26.102 12.239-39.196 18.264-25.967 11.948-52 23.751-77.944 35.747-18.865 8.722-37.693 17.528-56.417 26.548-10.246 4.935-20.409 10.094-30.303 15.693-10.766 6.093-19.175 14.967-23.493 26.508-2.862 7.65-3.217 15.968-1.76 24.536 2.366 13.926 7.157 27.014 11.35 40.354 5.703 18.138 10.885 36.44 16.473 54.615 3.48 11.323 6.865 22.712 11.176 33.726 1.742 4.45 5.356 8.5 8.952 11.83 12.552 11.623 27.925 16.366 44.665 15.142 6.876-.503 14.294-2.813 20.154-6.427 29.086-17.936 57.673-36.68 86.554-54.951 31.413-19.873 62.976-39.508 94.436-59.307 17.23-10.844 33.953-22.582 51.703-32.488 15.376-8.582 31.489-15.868 48.193-21.96 10.035-3.66 19.828-4.148 30.055-4.571 17.617-.73 35.148.554 52.43 3.29 24.558 3.888 47.546 12.364 67.866 27.309 10.253 7.54 21.148 14.214 31.331 21.843 3.693 2.768 6.584 6.906 9.095 10.89 5.45 8.64 11.062 17.282 15.4 26.493 4.124 8.756 7.296 18.08 9.783 27.448 1.918 7.221 2.794 14.882 2.96 22.373.39 17.49.304 35-.016 52.495-.445 24.391-1.256 48.776-1.953 73.162-.63 22.053-1.357 44.104-1.969 66.157-.396 14.283-.703 28.569-.976 42.854-.382 19.938-.456 39.885-1.176 59.81-.233 6.46-1.686 12.963-3.279 19.27-2.543 10.068-4.899 20.298-8.745 29.893-4.757 11.866-10.49 23.408-16.644 34.627-8.295 15.125-22.12 25.18-35.222 35.702-9.382 7.533-18.984 14.869-29.025 21.476-6.04 3.975-13.054 6.51-19.728 9.47-16.775 7.444-33.613 14.745-50.412 22.136-21.229 9.339-42.487 18.612-63.653 28.091-28.004 12.542-55.92 25.28-83.896 37.882-10.528 4.742-21.434 8.75-31.607 14.15-13.533 7.185-23.589 18.246-29.23 32.539-3.722 9.432 2.103 22.185 10.13 28.917 8.457 7.093 17.995 8.766 28.346 8.829 49.323.298 98.646.66 147.97.914 23.566.122 47.132.02 70.699.079 129.447.318 258.895.657 388.343.984 9.216.023 18.434-.046 27.65.02 42.61.3 85.22.673 127.83.946 52.945.338 105.892.901 158.835.704 14.253-.053 28.545-2.156 42.721-4.049 5.361-.716 10.402-3.637 15.664-5.314 20.851-6.649 39.45-17.645 57.043-30.291 5.924-4.26 10.883-10.103 15.54-15.827 6.654-8.179 13.026-16.654 18.74-25.505 3.546-5.493 6.132-11.75 8.294-17.96 3.35-9.622 6.758-19.348 8.644-29.313 1.48-7.817 1.366-16.118.73-24.106-.698-8.753-2.115-17.589-4.492-26.03a154.4 154.4 0 0 0-10.07-26.216c-5.382-10.933-11.672-21.436-17.935-31.907-2-3.344-5.083-6.066-7.797-8.954-17.362-18.473-34.777-36.895-52.138-55.368a24928 24928 0 0 1-44.547-47.562c-18.92-20.238-37.808-40.505-56.732-60.74-10.204-10.91-20.477-21.757-30.681-32.669-18.81-20.114-37.618-40.227-56.371-60.393-11.794-12.681-23.657-25.305-35.17-38.239-9.138-10.266-19.134-20.127-26.327-31.676-9.393-15.08-18.15-31.174-19.712-49.378-1.584-18.47-1.893-37.071-2.183-55.624-.37-23.698 6.59-45.551 19.27-65.342 12.15-18.961 25.015-37.474 37.912-55.943 14.742-21.111 29.862-41.96 44.825-62.916 14.014-19.627 27.206-39.918 42.338-58.642 10.71-13.253 20.617-27.784 35.973-36.705 5.778-3.356 11.198-7.484 17.276-10.12 5.597-2.428 11.773-3.885 17.84-4.797 19.601-2.947 39.255-5.305 59.187-4.146 16.536.962 33.148.88 49.64 2.276 9.678.819 18.846.442 26.591-5.447 6.482-4.93 12.918-10.345 15.941-18.463 2.186-5.869 1.633-11.325-1.463-16.913-6.265-11.311-16.13-18.99-25.93-26.778-14.133-11.23-28.336-22.37-42.476-33.59-24.579-19.5-49.123-39.044-73.7-58.548-22.46-17.825-44.83-35.77-67.477-53.358-8.877-6.895-17.737-14.382-27.787-19.06-13.992-6.513-32.664-4.178-44.708 9.187-10.803 11.987-17.324 25.845-21.556 41.161-3.895 14.09-8.315 28.034-12.388 42.075-3.306 11.397-6.385 22.859-9.67 34.262-2.563 8.897-5.336 17.734-7.927 26.624-2.728 9.355-5.347 18.741-8.02 28.112-2.452 8.6-4.873 17.208-7.38 25.792-2.821 9.655-5.724 19.287-8.59 28.929-3.235 10.886-6.548 21.75-9.684 32.664-3.545 12.337-6.83 24.748-10.416 37.073-3.22 11.073-6.835 22.032-9.988 33.122-1.367 4.807-1.977 9.827-3.001 14.735-.605 2.896-1.223 5.8-2.056 8.634-1.802 6.135-3.761 12.224-5.626 18.341-1.123 3.681-2.113 7.404-3.296 11.064-4.352 13.467-8.88 26.878-13.106 40.383-2.817 9-5.478 18.063-7.719 27.218-.998 4.076-2.448 5.06-6.425 3.713-6.713-2.274-13.59-4.068-20.836-6.192 4.672-15.646 9.321-30.779 13.688-45.992 3.081-10.731 5.496-21.658 8.725-32.342 3.573-11.824 7.867-23.429 11.587-35.212 2-6.338 3.419-12.859 5.167-19.28 2.338-8.581 4.677-17.164 7.132-25.713 3.573-12.44 7.24-24.853 10.887-37.272 4.276-14.56 8.617-29.101 12.85-43.675 3.115-10.727 6.013-21.518 9.166-32.234 4.2-14.278 8.624-28.49 12.82-42.77 3.516-11.958 6.758-23.998 10.28-35.955 3.42-11.61 7.173-23.124 10.54-34.75 3.327-11.493 6.386-23.065 9.504-34.617 2.821-10.453 8.634-19.433 13.478-28.954 5.75-11.305 14.134-19.867 23.92-27.013 8.701-6.353 19.156-8.957 29.951-10.535 10.738-1.569 20.965.746 30.82 3.561 7.087 2.025 13.664 6.796 19.697 11.361 14.857 11.242 29.23 23.12 43.869 34.652 18.308 14.421 36.752 28.67 55.018 43.143 17.138 13.58 34.052 27.44 51.188 41.023 18.05 14.307 36.285 28.382 54.368 42.65 14.075 11.107 26.575 23.8 32.837 40.901 3.988 10.894 2.386 22.081-2.802 32.792-7.076 14.606-18.387 25.042-32.197 32.607-5.65 3.095-12.646 4.697-19.141 5.081-12.787.757-25.659.425-38.484.107-16.379-.407-32.752-1.823-49.117-1.68-9.73.084-19.409 2.997-29.165 3.444-14.444.66-24.795 9.38-35.318 17.235-6.323 4.72-11.253 11.571-16.037 18.035-15.704 21.217-31.11 42.654-46.526 64.083-14.962 20.8-29.739 41.732-44.702 62.531-9.994 13.892-20.66 27.326-30.138 41.556-10.539 15.823-18.958 32.778-21.72 51.967a205.3 205.3 0 0 0-.92 51.387c.834 7.75 1.56 15.755 4.104 23.026 5.165 14.763 10.978 29.28 22.339 40.915 13.338 13.66 26.053 27.928 39.053 41.918 13.294 14.307 26.64 28.564 39.902 42.9 23.567 25.48 47.055 51.031 70.644 76.491 7.327 7.909 14.96 15.534 22.296 23.435 15.457 16.65 30.77 33.433 46.223 50.085 7.162 7.718 14.573 15.205 21.77 22.89 18.824 20.098 37.976 39.91 56.182 60.556 6.674 7.569 11.526 16.907 16.36 25.895 5.83 10.845 11.688 21.838 15.879 33.369 7.856 21.616 10.474 44.222 9.087 67.198-.222 3.674-1.391 7.34-2.47 10.905-3.74 12.372-6.766 25.061-11.737 36.928-4.078 9.736-9.888 18.944-16.11 27.532-7.683 10.606-15.887 21.038-25.192 30.2-6.973 6.865-15.681 12.233-24.263 17.136-12.169 6.954-24.746 13.275-37.51 19.074-7.726 3.51-16.191 5.36-24.222 8.242-12.43 4.46-25.452 3.738-38.273 5.14-29.207 3.194-58.426 1.433-87.622 1.537-51.265.182-102.533-.632-153.801-.837-100.27-.402-200.542-.63-300.813-1.027-22.768-.09-45.536-.57-68.8-.872"/></svg>