<svg xmlns="http://www.w3.org/2000/svg" viewBox="0 0 1665 732" xml:space="preserve"><path fill="#fff" d="M1146.181 545.167a6591 6591 0 0 0 53.43-24.275c13.832-6.356 27.608-12.835 41.44-19.19 15.275-7.018 30.328-14.627 45.985-20.666 8.682-3.35 18.356-4.276 27.663-5.805 6.62-1.088 13.383-1.973 20.069-1.892 34.713.421 69.427 1.847 104.131 1.603 25.316-.177 47.13-9.487 64.85-28.625 14.118-15.247 23.804-32.841 32.505-51.348 7.372-15.683 15.426-31.044 23.137-46.568 9.93-19.986 20.269-39.786 29.53-60.077 4.48-9.817 6.89-20.577 10.265-30.902 3.277-10.022 6.906-19.943 9.796-30.075 2.853-10.003 7.233-19.688 6.264-30.587-.938-10.548-3.69-20.339-9.73-29.112-11.093-16.108-22.19-32.212-33.252-48.34-3.131-4.565-6.022-9.298-9.254-13.788-4.64-6.447-15.45-9.45-26.465-2.845-23.437 14.055-47.043 27.83-70.643 41.61-20.485 11.963-41.048 23.791-61.593 35.65-21.268 12.274-42.578 24.477-63.83 36.781-16.038 9.286-31.963 18.768-48.03 28.004-18.28 10.51-36.705 20.766-54.985 31.277-16.24 9.34-32.358 18.893-48.548 28.32-19.224 11.194-38.22 22.813-57.786 33.375-14.37 7.757-29.349 14.452-44.345 20.953-8.404 3.643-17.205 7.176-26.165 8.546-15.057 2.302-30.321 4.64-45.66 1.072-8.866-2.063-18.05-2.959-26.727-5.58-7.714-2.33-15.21-5.798-22.302-9.678-13.565-7.421-25.099-17.618-35.213-29.194-11.36-13.003-22.928-25.99-28.926-42.69-6.376-17.752-11.288-35.876-14.692-54.443-2.315-12.626-5.324-25.122-7.816-37.717-2.534-12.805-4.69-25.684-7.243-38.484-2.518-12.628-5.353-25.193-8-37.796-2.679-12.753-5.23-25.534-7.96-38.276-3.32-15.486-11.4-27.564-25.957-34.526-12.72-6.083-24.597-1.704-35.768 4.361-15.372 8.345-30.356 17.404-45.507 26.158-26.75 15.455-53.472 30.957-80.257 46.352-20.088 11.546-39.988 23.462-60.47 34.27-17.293 9.125-30.48 22.142-39.389 39.073-3.32 6.31-3.248 14.445-4.477 21.789-.311 1.863.44 3.88.502 5.833.413 13.106.547 26.225 1.204 39.318.848 16.872-4.787 32.007-13.006 46.046-15.392 26.289-37.823 44.678-66.23 55.748-15.363 5.987-31.04 9.95-47.769 9.088-9.974-.514-19.997-.004-29.994-.172-12.442-.208-24.88-.592-37.318-.985-19.385-.613-38.788-.953-58.146-2.053-18.111-1.029-36.158-2.17-53.678-8.263-18.211-6.334-36.95-11.158-55.48-16.564-11.83-3.451-23.599-7.206-35.592-9.974-7.775-1.795-15.897-2.117-23.876-2.991-12.578-1.378-25.159-2.727-37.75-3.971-8.203-.81-16.436-1.321-24.639-2.137-8.002-.797-16.019-1.57-23.964-2.782-13.011-1.985-26.268 10.878-22.118 24.84 1.367 4.598 4.391 9.063 7.67 12.669 11.27 12.4 23.002 24.383 34.534 36.548 6.584 6.944 14.953 10.41 24.189 10.952 13.416.787 26.885.956 40.33.919 18.855-.053 37.71-.528 56.563-.84 21.105-.349 42.209-.728 63.313-1.073 19.78-.323 39.561-.605 59.341-.927 20.152-.329 40.302-.699 60.454-1.025 21.609-.35 43.242-.182 64.819-1.207 10.688-.508 21.501-2.327 31.86-5.06 21.98-5.802 41.925-16.513 60.79-28.886 15.313-10.043 27.191-23.881 36.745-39.46 15.904-25.938 31.438-52.102 47.135-78.167 7.635-12.678 15.3-25.337 22.925-38.022 7.024-11.684 13.564-23.687 21.12-35.014 10.677-16.004 25.009-20.66 42.252-17.739 17.05 2.89 30.347 13.157 38.844 28.578 13.186 23.933 26.01 48.063 39.122 72.037 11.85 21.67 23.94 43.208 35.81 64.867 10.663 19.46 20.676 39.298 31.953 58.392 5.67 9.6 13.68 17.795 20.317 26.856 4.915 6.712 8.053 13.853 4.934 22.672-3.609 10.205-6.043 20.832-9.765 30.99-5.44 14.847-11.682 29.397-17.377 44.152-5.634 14.594-10.898 29.33-16.535 43.923-5.724 14.816-11.89 29.461-17.52 44.31-5.343 14.088-10.093 28.398-15.385 42.504-4.31 11.491-9.115 22.796-13.533 34.247-1.398 3.624-2.61 7.395-3.264 11.209-.698 4.072.36 8.077 4.057 10.433 5.598 3.567 11.512 6.357 18.386 3.3 23.152-10.297 46.32-20.556 69.454-30.89 17.157-7.664 34.272-15.421 51.637-23.241l-9.143-18.283 17.735-9.071 30.476 59.865-17.743 9.092-9.18-17.706c-17.43 7.92-34.715 15.854-52.067 23.64-21.298 9.558-42.647 19.004-63.987 28.468-4.583 2.033-9.139 4.177-13.857 5.844-8.982 3.175-17.68.673-25.836-2.801-6.178-2.632-12.738-5.778-17.305-10.47-7.954-8.172-11.84-18.849-8.828-30.265 3.256-12.339 7.77-24.361 12.037-36.414 5.63-15.896 11.459-31.722 17.381-47.511 4.678-12.47 9.673-24.822 14.438-37.26 3.247-8.475 6.31-17.02 9.508-25.513 5.024-13.34 10.185-26.63 15.118-40.003 7.366-19.971 13.702-40.385 22.246-59.833 4.103-9.338-1.46-13.311-5.277-19.066-7.39-11.145-15.22-22.04-21.95-33.573-8.925-15.298-16.923-31.136-25.41-46.692-7.864-14.418-15.828-28.78-23.783-43.148-9.447-17.063-18.985-34.075-28.38-51.165-6.95-12.644-13.661-25.419-20.621-38.057-5.657-10.273-13.351-18.057-26.016-17.919-4.65.051-8.973 2.216-11.57 6.587-10.584 17.806-21.168 35.611-31.71 53.442-10.734 18.158-21.402 36.357-32.132 54.518-6.938 11.743-13.583 23.679-20.997 35.115-8.778 13.54-17.642 27.053-29.463 38.348-12.754 12.185-27.084 22.022-42.8 29.844-13.602 6.77-26.812 14.768-41.86 17.88-14.22 2.942-28.619 6.003-43.05 6.705-23.447 1.14-46.988.2-70.484.523-15.048.206-30.082 1.407-45.13 1.625-23.87.346-47.748.153-71.621.36-19.784.17-39.566.557-59.348.905-18.271.32-36.542.699-54.812 1.083-11.456.24-22.943 1.203-34.357.64-13.332-.66-26.726-2.29-38.595-9.28-3.912-2.304-7.724-5.06-10.9-8.283a3088 3088 0 0 1-42.299-43.794c-10.47-11.054-13.862-24.98-11.45-39.264 2.447-14.487 14.873-32.624 33.492-37.113 8-1.928 15.543-1.73 23.408-.658 8.457 1.154 16.955 2.021 25.442 2.94 15.374 1.665 30.75 3.316 46.133 4.89 7.7.788 15.491.95 23.113 2.186 10.603 1.72 21.171 3.836 31.597 6.418 11.352 2.811 22.561 6.228 33.765 9.604 13.09 3.944 26.015 8.456 39.182 12.105 10.01 2.774 20.26 4.727 30.461 6.751 3.846.763 7.853.904 11.792.975 23.784.429 47.57.734 71.353 1.122 19.972.325 40.001-.116 59.898 1.298 19.893 1.413 37.4-5.202 53.927-14.27 20.072-11.012 34.648-27.873 43.5-49.163 4.89-11.76 3.914-24.12 2.535-36.49-.785-7.049-.49-14.211-.951-21.305-.78-11.967.6-23.72 4.181-35.066 1.585-5.02 4.456-9.821 7.563-14.13 5.232-7.254 10.26-15.032 16.934-20.777 9.481-8.163 20.09-15.141 30.736-21.795 13.915-8.697 28.33-16.599 42.545-24.814 19.895-11.496 39.82-22.938 59.703-34.456 20.678-11.978 41.307-24.041 61.984-36.022 12.245-7.096 24.063-15.286 37.86-19.015 12.205-3.3 24.591-5 37.201-.17 9.13 3.498 17.7 7.99 24.475 14.648 8.482 8.334 15.779 17.916 18.525 30.064 3.555 15.727 7.432 31.385 10.753 47.16 3.358 15.949 6.036 32.04 9.332 48.002 2.603 12.604 5.85 25.074 8.52 37.665 2.639 12.45 4.596 25.05 7.438 37.45 2.794 12.187 6.053 24.285 9.593 36.278 5.773 19.557 19.153 33.967 32.962 48.168 9.614 9.887 20.485 17.738 33.206 22.795 6.298 2.503 12.999 4.246 19.675 5.472 7.097 1.303 14.372 2.081 21.585 2.218 16.42.312 31.933-3.917 47.259-9.66 22.223-8.33 42.423-20.356 62.721-32.338 27.052-15.97 54.266-31.666 81.442-47.426 20.372-11.815 40.794-23.545 61.194-35.313 18.895-10.9 37.816-21.757 56.68-32.712a32981 32981 0 0 0 76.746-44.735c23.342-13.638 46.645-27.344 69.987-40.982 12.738-7.442 25.404-15.015 38.31-22.153 19.903-11.006 45.287-6.725 59.395 13.23 15.163 21.445 30.372 42.88 44.719 64.87 6.454 9.892 9.722 21.42 11.527 33.327 2.594 17.112-3.393 32.572-8.193 48.303-3.171 10.393-6.66 20.69-9.906 31.06-4.743 15.159-9.807 30.103-17.102 44.365-12.167 23.786-22.952 48.28-35.123 72.063-11.373 22.224-20.333 45.863-35.856 65.762-15.306 19.62-33.096 36.646-57.298 44.657-10.451 3.459-21.639 5.603-32.624 6.324-16.234 1.064-32.585.344-48.887.348-10.043.003-20.088.052-30.128-.121-12.776-.22-25.556-1.101-38.32-.869-16.966.31-33.193 3.973-48.42 12.008-9.454 4.99-19.461 8.926-29.197 13.385-9.26 4.242-18.493 8.547-27.734 12.83-16.92 7.842-33.824 15.714-50.757 23.525-17.835 8.227-35.67 16.452-53.554 24.57-10.726 4.869-21.548 9.525-32.322 14.287-20.874 9.226-41.753 18.44-62.612 27.698-9.297 4.127-18.551 8.35-28.338 12.762l-11.508-24.38c17.112-7.577 34.072-15.032 50.985-22.592 14.67-6.558 29.232-13.362 43.945-19.821 12.752-5.598 25.735-10.675 38.455-16.341 9.576-4.265 18.9-9.1 28.722-13.712"/></svg>