<svg xmlns="http://www.w3.org/2000/svg" viewBox="0 0 1709 633" xml:space="preserve"><path fill="#fff" d="M906.922 532.77c16.672-9.576 32.903-19.212 49.257-28.636 13.445-7.747 27.118-15.1 40.538-22.89 13.612-7.9 26.996-16.191 40.556-24.183 14.272-8.411 28.58-16.764 42.973-24.969 12.661-7.218 25.558-14.026 38.169-21.332 11.971-6.935 23.592-14.476 35.575-21.393 13.224-7.633 26.496-15.228 40.102-22.144 10.728-5.454 22.081-9.687 33.949-12.051 6.236-1.242 12.636-2.293 18.967-2.324 41.699-.203 83.442-1.266 125.085.276 31.385 1.162 62.737 1.312 94.111 1.657 7.1.078 14.196.923 21.292.89 9.598-.044 19.296.155 28.766-1.12 11.66-1.571 21.974-6.943 29.244-16.448 6.74-8.811 13.243-17.917 18.776-27.513 10.446-18.115 20.162-36.652 30.1-55.058 6.443-11.935 12.72-23.96 19.109-35.925 8.06-15.095 16.128-30.186 24.252-45.247 5.574-10.332 11.748-20.376 16.708-30.991 3.572-7.647 5.28-16.142 8.366-24.044 4.529-11.597.48-22.583-3.5-32.73-3.219-8.209-9.362-15.816-15.786-22.07-6.621-6.447-14.802-11.567-22.96-16.072-6.092-3.364-13.086-5.567-19.947-6.938-7.722-1.542-15.771-2.327-23.632-2.062-9.26.313-18.477 2.062-27.702 3.27-8.58 1.122-17.164 2.235-25.712 3.572-6.56 1.025-13.048 2.505-19.602 3.573-5.808.946-11.68 1.49-17.493 2.414-9.787 1.553-19.529 3.392-29.325 4.875-10 1.515-20.036 2.795-30.068 4.085-8.422 1.082-16.874 1.94-25.29 3.062-9.152 1.22-18.302 2.486-27.408 4.002-7.379 1.23-14.691 2.854-22.03 4.318-.792.158-1.553.537-2.348.612-7.502.7-15.074.938-22.497 2.12-12.021 1.911-23.945 4.434-35.91 6.694-.487.092-.983.134-1.474.204-16.095 2.325-32.179 4.732-48.29 6.938-6.64.91-13.371 1.161-20 2.131-6.372.933-12.635 2.597-19.001 3.596-8.236 1.291-16.545 2.117-24.787 3.376-6.724 1.028-13.381 2.493-20.097 3.59-5.64.92-11.332 1.512-16.98 2.386-10.301 1.595-20.564 3.46-30.888 4.887-7.129.984-14.37 1.16-21.495 2.164-8.86 1.248-17.638 3.075-26.481 4.462-6.292.987-12.642 1.597-18.95 2.49-6.607.936-13.194 2.005-19.79 3.023-8.532 1.316-17.074 2.573-25.591 3.98-7.122 1.177-14.195 2.657-21.325 3.773-5.812.91-11.698 1.34-17.512 2.236-9.97 1.537-19.885 3.435-29.868 4.87-6.795.975-13.698 1.195-20.496 2.155-9.178 1.297-18.29 3.052-27.452 4.472-6.121.95-12.296 1.55-18.417 2.501-7.38 1.147-14.71 2.63-22.098 3.727-8.244 1.223-16.54 2.083-24.788 3.283-4.316.629-8.576 1.648-13.46 2.609l-3.867-25.677c1.486-.412 2.84-.95 4.244-1.152 20.448-2.942 40.902-5.844 61.356-8.744 12.507-1.773 25.057-3.284 37.514-5.356 12.287-2.044 24.45-4.829 36.727-6.94 8.212-1.412 16.538-2.149 24.797-3.306 12.129-1.7 24.248-3.478 36.363-5.277a4425 4425 0 0 0 30.904-4.715c9.495-1.478 18.978-3.031 28.472-4.518 5.482-.859 11-1.504 16.455-2.505 9.755-1.79 19.797-1.112 29.433-4.62 5.533-2.013 11.94-1.6 17.943-2.36 7.454-.945 14.904-1.927 22.345-2.973 9.214-1.294 18.425-2.61 27.62-4.027 12.57-1.937 25.127-3.954 37.683-5.978 14.316-2.307 28.592-4.893 42.947-6.92 11.995-1.692 24.108-2.545 36.116-4.16 9.358-1.26 18.616-3.242 27.954-4.67 6.303-.964 12.692-1.359 19-2.302 8.379-1.253 16.71-2.828 25.073-4.201 11.884-1.95 23.767-3.919 35.671-5.742a7082 7082 0 0 1 52.287-7.792c8.087-1.177 16.214-2.088 24.305-3.243 8.232-1.175 16.429-2.599 24.665-3.74 10.846-1.503 21.73-2.727 32.57-4.276 8.88-1.27 17.716-2.846 26.575-4.265 1.771-.284 3.551-.588 5.338-.68 7.427-.382 14.875-1.141 22.285-.88 6.476.227 12.897 1.752 19.367 2.492 6.995.8 13.619 2.478 20.293 4.995 12.881 4.86 24.585 12.07 34.514 20.85 13.363 11.817 23.752 26.635 27.877 44.682 1.737 7.598 4.057 15.426 3.708 23.04-.394 8.603-3.065 17.206-5.498 25.592-5.389 18.57-15.5 34.896-24.986 51.551-8.142 14.294-15.286 29.15-23.057 43.66-9.349 17.454-18.953 34.77-28.334 52.208-7.25 13.476-14.036 27.21-21.596 40.508-4.451 7.83-9.797 15.188-15.142 22.464a165 165 0 0 1-13.265 15.886c-10.513 11.072-23.808 16.738-38.793 18.388-9.15 1.007-18.368 1.901-27.559 1.944-15.928.073-31.86-.557-47.79-.887-16.264-.337-32.527-.762-48.792-.98-30.263-.405-60.528-.635-90.79-1.042-15.765-.212-31.527-.875-47.292-.907-12.972-.026-26.045 1.437-37.98 6.326-12.6 5.16-24.457 12.202-36.446 18.77-11.754 6.44-23.267 13.32-34.886 20.006-14.265 8.206-28.522 16.425-42.798 24.612-15.433 8.85-30.935 17.583-46.314 26.527-15.068 8.764-29.937 17.873-45.046 26.564-12.073 6.945-24.427 13.4-36.557 20.25-7.086 4.002-13.949 8.396-20.959 12.534a4746 4746 0 0 1-33.68 19.727c-11.72 6.789-23.51 13.455-35.237 20.228-13.134 7.586-26.647 14.182-40.822 19.807-11.221 4.452-22.413 8.47-34.144 11.058-3.659.808-7.445 1.347-11.184 1.422-9.688.194-19.418.565-29.064-.102-7.587-.525-15.347-1.66-22.542-4.016-10.422-3.41-20.735-7.518-30.486-12.515-11.886-6.091-21.91-15.042-30.932-24.814-11.24-12.173-22.652-24.564-29.493-39.762-5.432-12.067-9.099-25.03-12.531-37.866-3.228-12.072-5.19-24.486-7.582-36.774-1.959-10.063-3.587-20.192-5.632-30.237-1.78-8.748-4.05-17.395-5.906-26.129-2.771-13.038-5.308-26.127-8.064-39.168-1.746-8.262-3.75-16.468-5.562-24.716-1.848-8.414-3.31-16.924-5.468-25.254-3.1-11.963-10.595-20.62-21.37-26.547-14.66-8.063-27.675-2.204-40.453 4.864-10.7 5.919-21.256 12.102-31.854 18.204-14.542 8.373-29.056 16.795-43.597 25.168-14.37 8.273-28.774 16.487-43.136 24.775-12.579 7.258-25.111 14.597-37.68 21.875-12.474 7.224-24.92 14.502-37.467 21.597-12.122 6.854-19.848 17.652-27.186 29.008-5.236 8.102-6.854 16.956-6.621 26.208.412 16.364 1.598 32.714 1.755 49.077.058 6.09-1.257 12.38-3.002 18.265-3.861 13.023-9.763 25.24-18.387 35.771-5.861 7.156-12.637 13.589-19.242 20.103-11.511 11.355-26.038 17.866-40.723 23.62-8.99 3.521-18.654 5.721-28.216 7.287-14.04 2.3-28.223 4.008-42.412 5.041-16.817 1.225-33.706 1.464-50.564 2.136-12.07.481-23.932-1.169-35.58-4.061-13.311-3.306-26.186-8.317-36.964-16.738-6.558-5.123-11.937-12.22-16.545-19.28-10.456-16.016-14.454-34.196-12.37-52.958 1.198-10.771 5.568-21.095 12.66-30.087 9.304-11.793 20.957-20.458 33.345-28.604 12.434-8.176 24.161-17.42 36.42-25.876 15.063-10.392 30.36-20.446 45.549-30.657 14.25-9.578 28.58-19.04 42.709-28.794 12.844-8.867 25.387-18.168 38.203-27.077 15.79-10.978 31.68-21.815 47.61-32.59 16.884-11.42 33.956-22.564 50.77-34.085 10.119-6.933 19.803-14.498 29.86-21.526 18.054-12.617 36.223-25.07 54.378-37.54 14.793-10.163 29.776-20.055 44.404-30.448 8.863-6.296 18.39-11.199 28.755-13.941 9.41-2.49 19.188-3.613 28.822-5.233 12.218-2.055 24.43-4.168 36.687-5.957 17.13-2.5 34.321-4.595 51.45-7.108 14.348-2.106 28.624-4.704 42.97-6.829 14.866-2.202 29.787-4.03 44.665-6.153 8.278-1.181 16.51-2.687 24.778-3.94 11.214-1.7 22.445-3.285 33.661-4.964 1.11-.166 2.171-.648 3.638-1.102l-2.741-19.166 19.784-3.013 10.1 64.894-19.798 3.036-3.09-18.96c-8.982.937-17.746 1.595-26.429 2.83-8.047 1.144-15.986 3.027-24.011 4.356-6.268 1.038-12.608 1.636-18.89 2.593-7.537 1.149-15.03 2.595-22.575 3.682-6.483.933-13.041 1.355-19.515 2.34-9.145 1.39-18.242 3.095-27.36 4.655-.813.14-1.642.18-2.458.302-8.696 1.291-17.387 2.62-26.089 3.87-3.242.465-6.51.749-9.767 1.115-5.965.672-11.966 1.122-17.885 2.077-6.027.971-11.942 2.63-17.965 3.636-5.969.995-12.043 1.354-18.013 2.344-8.924 1.48-17.74 3.778-26.708 4.788-10.288 1.16-18.938 5.764-27.13 11.365-10.5 7.177-20.51 15.067-30.96 22.323-11.898 8.262-24.115 16.064-36.07 24.246-14.23 9.739-28.264 19.766-42.508 29.484-10.624 7.25-21.572 14.026-32.146 21.345-11.181 7.74-22.032 15.955-33.137 23.808-9.592 6.783-19.318 13.377-29.017 20.006-17.572 12.01-35.166 23.985-52.754 35.97-14.984 10.212-30.05 20.303-44.938 30.652-17.923 12.46-35.61 25.262-53.56 37.68-15.112 10.455-30.306 20.803-45.754 30.748-8.517 5.483-14.965 12.9-20.201 21.096-4.408 6.9-4.442 15.475-3.46 23.535 1.052 8.628 3.406 17.03 8.327 24.39 6.682 9.99 15.846 15.894 27.252 20.48 15.276 6.143 30.622 6.866 46.388 6.467 15.697-.397 31.417-.841 47.06-2.099 10.201-.82 20.283-3.133 30.421-4.76a8.8 8.8 0 0 1 1.991-.072c10.591.732 20.077-3.458 29.396-7.376 8.198-3.447 16.553-7.39 23.455-12.86 13.387-10.61 25.19-22.845 32.189-39.04 3.146-7.28 5.26-14.702 5.758-22.473.345-5.384-.62-10.843-.843-16.275-.4-9.761-1.203-19.545-.87-29.285.324-9.454.86-19.126 3.216-28.206 1.637-6.307 6.354-11.874 9.97-17.597 6.555-10.372 14.57-19.513 24.491-26.778 5.315-3.892 10.969-7.346 16.626-10.737 5.756-3.45 11.734-6.525 17.561-9.859 11.306-6.466 22.616-12.927 33.845-19.524 11.645-6.842 23.102-14.006 34.811-20.734 14.363-8.253 28.98-16.066 43.346-24.313 16.66-9.563 32.991-19.715 49.815-28.976 9.172-5.05 18.753-9.837 28.724-12.826 10.823-3.244 22.246-3.418 33.46.023 19.313 5.926 32.207 18.977 40.674 36.681 2.452 5.128 3.281 11.037 4.823 16.596 1.55 5.592 3.14 11.174 4.562 16.799.943 3.731 1.718 7.513 2.402 11.302 1.733 9.59 3.175 19.239 5.109 28.788 1.67 8.242 4.059 16.337 5.761 24.574 1.94 9.384 3.313 18.885 5.223 28.277 1.777 8.734 4.089 17.36 5.885 26.09 1.863 9.058 3.251 18.213 5.107 27.272 1.466 7.152 2.834 14.386 5.128 21.29 3.162 9.519 6.347 19.185 10.986 28.019 6.5 12.374 15.772 22.771 26.031 32.426 6.951 6.541 13.528 13.154 21.996 17.932 7.402 4.176 15.009 6.879 23.204 9.018 12.143 3.17 24.343 5.38 36.769 4.567 8.324-.544 16.63-2.539 24.762-4.604 14.075-3.575 27.56-8.737 40.265-15.968 15.628-8.895 31.487-17.382 47.233-26.072.374-.206.576-.728 1.246-1.134"/></svg>