<svg xmlns="http://www.w3.org/2000/svg" viewBox="0 0 1366 1234" xml:space="preserve"><path fill="#fff" d="M700.06 1202.813c-16.932-.333-33.37-.774-49.812-.977-33.105-.41-66.213-.648-99.318-1.037-21.941-.257-43.888-.412-65.816-1.12-7.319-.238-14.568-2.198-21.881-3.115-17.605-2.21-31.544-12.557-46.486-20.694-14.815-8.068-25.94-20.71-38.733-31.28-8.91-7.361-17.68-14.895-26.488-22.38a7686 7686 0 0 1-26.747-22.822c-14.04-12.04-28.092-24.068-42.073-36.177-8.75-7.577-17.338-15.339-26.068-22.937-14.576-12.686-29.227-25.285-43.81-37.964-8.61-7.487-17.263-14.934-25.683-22.633-5.602-5.122-10.557-10.966-16.287-15.926-7.074-6.124-9.004-14.539-10.475-22.848-2.03-11.46-3.194-23.108-4.08-34.725-.609-7.987.012-16.06-.15-24.09-.195-9.777.418-19.727-1.208-29.28-2.618-15.383-1.165-30.745-1.77-46.101a8498 8498 0 0 0-2.002-47.14c-.624-13.881-1.38-27.758-1.974-41.641-1.048-24.486-1.976-48.976-3.036-73.46-.572-13.218-1.407-26.424-1.953-39.642-.76-18.375-1.298-36.76-2.046-55.135-.565-13.884-1.345-27.76-1.969-41.642-.705-15.712-1.437-31.424-1.981-47.142-.47-13.602-1.777-27.3-.68-40.79.856-10.537 2.815-21.438 10.654-30.06 6.649-7.312 12.02-15.875 19.127-22.657 9.401-8.97 19.94-16.75 29.998-25.031 10.688-8.8 21.373-17.601 32.084-26.372 9.7-7.944 19.432-15.851 29.155-23.768 4.599-3.746 9.126-7.585 13.83-11.196 14.1-10.827 27.946-22.036 42.578-32.097 5.734-3.942 13.205-5.512 20.044-7.654 9.656-3.023 19.744-3.033 29.606-1.923 10.045 1.13 19.555 4.394 28.691 9.227 18.33 9.696 28.85 26.179 39.9 42.61 8.207 12.203 11.874 25.827 14.275 39.753 1.32 7.657-.056 15.852-.743 23.76-.696 7.991-2.133 15.916-3.083 23.889-1.6 13.426-9.94 24.019-15.156 35.9-6.556 14.933-14.198 29.39-21.371 44.052-8.833 18.053-17.644 36.117-26.506 54.156-9.808 19.964-19.723 39.876-29.483 59.864-10.907 22.334-21.67 44.739-32.539 67.092-7.847 16.138-16.39 31.974-23.447 48.45-5.348 12.484-8.958 25.709-8.387 39.679.294 7.199-.584 14.49.204 21.613.895 8.097 3.136 16.038 4.656 24.073 3.453 18.263 9.811 35.457 18.006 52.126 3.873 7.879 9.676 14.016 15.147 20.536 8.89 10.593 18.119 20.88 29.702 28.653 5.57 3.738 11.368 7.154 17.174 10.523a7440 7440 0 0 0 47.365 27.243c22.16 12.64 44.41 25.126 66.53 37.835 15.04 8.64 29.82 17.737 44.906 26.293 18.93 10.735 38.105 21.037 57.073 31.707 7.89 4.438 15.44 9.478 23.284 14.002 7.525 4.34 15.246 8.336 22.852 12.536 14.938 8.25 29.62 17.012 44.9 24.565 5.964 2.948 13.24 3.284 19.947 4.676 12.964 2.692 24.24-2.423 34.596-8.931 10.301-6.473 17.62-15.995 21.06-27.96 1.82-6.327 3.507-12.719 4.706-19.183.59-3.176.384-6.672-.244-9.87-2.665-13.562-10.769-23.956-20.231-33.454a20793 20793 0 0 0-47.105-47.121c-13.16-13.125-26.375-26.195-39.551-39.304-7.443-7.405-14.808-14.889-22.293-22.25-9.05-8.903-18.282-17.623-27.264-26.593-7.986-7.978-15.662-16.267-23.611-24.283-14.659-14.78-29.748-29.151-43.985-44.324-6.446-6.87-13.03-14.504-14.232-24.394a283 283 0 0 1-2.054-33.506c-.045-22.44.663-44.879.865-67.32.41-45.605.635-91.212 1.054-136.817.135-14.775.758-29.546.944-44.321.413-32.939.8-65.878.991-98.819.162-27.998-.059-55.999.08-83.997.054-11.109.653-22.213.947-33.321.366-13.844.716-27.688.987-41.533.118-6.029-1.177-12.376.306-18.017 2.118-8.054 5.557-15.944 9.579-23.275 7.751-14.132 20.419-23.748 33.538-32.326 5.265-3.442 12.228-4.895 18.626-5.829 6.553-.956 13.385-.514 20.051-.059 9.345.638 18.642 1.946 27.974 2.803a4066 4066 0 0 0 45.276 3.915c6.59.53 13.214.622 19.806 1.133 11.658.904 23.56.843 34.856 3.405 6.727 1.526 13.405 6.356 18.495 11.343 9.407 9.219 12.965 21.352 14.347 34.454.896 8.505-.423 16.256-2.793 24.266-2.917 9.863-4.935 19.989-7.447 29.975-2.06 8.186-4.343 16.316-6.399 24.503-1.629 6.487-2.924 13.06-4.618 19.528-2.475 9.454-5.328 18.81-7.73 28.28-1.963 7.74-3.282 15.644-5.293 23.37-1.83 7.03-4.265 13.901-6.32 20.877-.968 3.288-1.637 6.664-2.497 9.986-4.091 15.8-8.094 31.623-12.34 47.382-3.397 12.615-7.208 25.118-10.631 37.727-3.107 11.444-6.032 22.94-8.865 34.457-3.198 13.003-6.03 26.099-9.352 39.07-2.514 9.815-5.635 19.474-8.32 29.248-1.687 6.14-2.968 12.39-4.607 18.543-2.14 8.033-4.676 15.964-6.646 24.036-3.554 14.564-6.45 29.055-2.59 44.27 2.199 8.673 3.706 17.398 8.003 25.423 4.247 7.93 10.288 13.781 17.816 18.627 9.394 6.048 18.233 12.948 27.482 19.23 18.125 12.31 36.447 24.332 54.537 36.693 13.691 9.355 27.03 19.227 40.747 28.542 10.615 7.208 21.719 13.697 32.346 20.89 16.491 11.16 32.672 22.777 49.149 33.96 20.68 14.036 41.57 27.762 62.286 41.746 19.66 13.27 38.932 27.144 58.974 39.804 6.354 4.014 14.593 5.126 22.056 7.262 2.804.802 5.862 1.07 8.793 1.015 9.317-.172 18.732.11 27.905-1.204 5.985-.858 11.943-3.585 17.339-6.528 12.973-7.076 24.776-15.714 27.433-31.6.674-4.03-.267-9.06-2.243-12.652-4.167-7.575-9.21-14.73-14.438-21.646-8.947-11.832-18.325-23.337-27.498-34.999-9.27-11.782-18.553-23.553-27.75-35.39-9.505-12.232-18.855-24.583-28.38-36.8-10.836-13.898-21.835-27.669-32.676-41.564-7.386-9.468-14.565-19.097-21.938-28.575-9.708-12.478-19.586-24.825-29.265-37.326-15.626-20.184-30.536-40.963-46.937-60.493-10.595-12.616-18.97-26.24-25.465-41.13-2.05-4.698-3.004-10.042-3.564-15.187-1.604-14.718-2.752-29.485-4.065-44.234-.074-.827.01-1.668-.039-2.498-.991-16.982-2.032-33.961-2.959-50.946-.21-3.866.143-7.762-.066-11.628-.927-17.156-2-34.303-2.947-51.458-.429-7.769-.75-15.544-1.01-23.32-.703-21.082-1.182-42.172-2.066-63.246-.754-17.997-1.962-35.976-2.942-53.964-.692-12.712-2.412-25.488-1.69-38.122.667-11.648 3.66-23.217 6.227-34.686 2.02-9.02 4.445-18.023 7.636-26.685 2.573-6.986 6.313-13.59 9.974-20.116 6.886-12.272 15.112-23.724 25.042-33.629 10.45-10.424 21.681-20.06 36.031-25.2 10.568-3.786 21.118-7.025 32.56-6.147 10.741.825 21.622.636 32.21 2.333 5.688.913 10.907 4.82 16.31 7.433 15.122 7.312 24.03 20.246 32.554 34.12 7.407 12.054 9.691 25.489 13.455 38.526 3.164 10.96 4.729 22.372 7.38 33.493 3.366 14.115 7.225 28.112 10.662 42.211 2.589 10.62 4.85 21.321 7.255 31.986 3.024 13.407 5.876 26.855 9.117 40.208 3.274 13.495 7.104 26.854 10.372 40.35 2.752 11.367 4.927 22.873 7.576 34.266 2.552 10.976 5.487 21.862 8.067 32.831 3.397 14.444 6.484 28.962 9.94 43.391 3.315 13.84 7.048 27.58 10.383 41.414 3.33 13.819 6.213 27.747 9.64 41.54 2.56 10.307 5.665 20.478 8.542 30.705 3.807 13.53 7.528 27.086 11.48 40.574 2.53 8.637 5.52 17.14 8.106 25.762 2.723 9.085 5.144 18.26 7.818 27.362 2.522 8.587 5.267 17.11 7.795 25.696 2.801 9.514 5.4 19.088 8.212 28.6 2.49 8.422 5.149 16.794 7.937 25.851l-26.02 8.336c-3.587-11.852-7.065-23.409-10.585-34.953-3.433-11.26-6.999-22.482-10.342-33.77-3.339-11.273-6.36-22.64-9.73-33.904-3.329-11.124-7-22.144-10.367-33.256-2.606-8.599-4.984-17.266-7.443-25.908-2.164-7.605-4.527-15.163-6.4-22.84-4.058-16.624-7.745-33.339-11.806-49.962-2.673-10.944-5.944-21.743-8.57-32.697-3.314-13.824-6.15-27.763-9.372-41.61-2.507-10.779-5.362-21.475-7.926-32.24-2.764-11.603-5.3-23.26-8.071-34.86-1.665-6.969-3.69-13.851-5.376-20.815-1.963-8.103-3.686-16.264-5.601-24.38-2.1-8.894-4.357-17.752-6.44-26.65-3.234-13.814-6.304-27.666-9.587-41.468-2.642-11.11-5.597-22.145-8.234-33.255-3.995-16.838-7.735-33.736-11.774-50.562a953 953 0 0 0-8.448-32.686c-3.216-11.576-9.068-21.838-17.485-30.357-7.431-7.522-16.609-12.15-27.301-13.116-6.087-.549-12.27-1.415-18.303-.898-14.564 1.249-27.929 5.47-39.52 15.338-16.288 13.87-27.923 30.999-37.364 49.79-2.755 5.483-4.297 11.657-5.81 17.661-2.475 9.815-4.482 19.748-6.655 29.637-.246 1.122-.44 2.29-.417 3.431.301 14.774.513 29.552 1.018 44.32.492 14.386 1.297 28.761 1.96 43.142.67 14.546 1.31 29.094 2.008 43.638.634 13.214 1.272 26.429 2.007 39.637.945 16.989 2.037 33.97 2.977 50.96.74 13.375 1.378 26.757 2 40.14.706 15.211 1.25 30.43 2.046 45.637.475 9.056.808 18.165 2.11 27.118 1.216 8.359 2.994 16.819 8.043 23.93 11.028 15.53 22.009 31.105 33.44 46.337 10.635 14.17 21.795 27.947 32.786 41.848 15.438 19.524 31.004 38.946 46.378 58.52 10.89 13.863 21.47 27.97 32.338 41.85 13.099 16.727 26.418 33.28 39.526 50.001 9.557 12.19 18.888 24.557 28.388 36.793 9.291 11.967 19.103 23.56 27.86 35.902 6.098 8.595 12.143 17.611 12.145 28.977 0 1.603.786 3.193.92 4.813 1.183 14.224-3.824 26.316-12.185 37.597-9.725 13.123-23.491 20.24-37.638 26.987-20.486 9.771-41.924 9.066-63.715 6.195-17.828-2.35-32.553-10.72-46.946-20.887-21.484-15.177-43.737-29.26-65.514-44.027-16.618-11.27-32.911-23.017-49.517-34.305-22.806-15.503-45.82-30.7-68.65-46.17-13.62-9.23-27.017-18.79-40.588-28.094-17.717-12.146-35.444-24.28-53.286-36.24-13.105-8.783-26.99-16.522-39.423-26.151-9.248-7.163-16.715-16.545-21.953-27.437-5.52-11.481-8.106-23.63-10.385-36.058-1.816-9.901-.583-19.656-.596-29.447-.007-5.447 1.827-10.952 3.208-16.334 2.718-10.602 5.798-21.11 8.542-31.705 2.62-10.112 4.964-20.295 7.498-30.43 4.162-16.644 8.26-33.306 12.62-49.899 2.573-9.786 5.817-19.396 8.374-29.186 3.383-12.956 6.264-26.043 9.6-39.012 2.55-9.918 5.567-19.715 8.193-29.614 1.753-6.61 3.048-13.341 4.797-19.953 1.991-7.525 4.347-14.953 6.38-22.468 1.967-7.265 3.705-14.591 5.583-21.88 2.517-9.775 5.112-19.528 7.6-29.31 3.51-13.788 6.889-27.61 10.444-41.388 2.69-10.426 5.749-20.76 8.314-31.215 2.437-9.93 5.308-19.883 6.284-29.99.492-5.105-1.977-11.016-4.572-15.762-3.038-5.559-8.635-8.02-15.298-8.474-14.943-1.018-29.844-2.644-44.776-3.842-7.087-.568-14.214-.611-21.31-1.084-13.82-.922-27.638-1.9-41.443-3.023-4.735-.385-9.41-1.547-14.145-1.87-7.22-.49-14.487.86-19.895 5.52-8.066 6.95-15.91 14.428-22.429 22.789-3.086 3.959-3.537 10.422-4.036 15.856-1.085 11.828-1.79 23.717-1.983 35.592-.183 11.303.563 22.619.723 33.931.044 3.094-.782 6.195-.807 9.296-.1 12.332.04 24.666-.057 36.998-.29 37.107-.67 74.213-.972 111.319-.081 9.88.102 19.762-.038 29.64-.24 16.86-.845 33.716-.93 50.576-.156 30.876.072 61.754-.088 92.63-.097 18.639-.665 37.275-.947 55.913-.374 24.809-1.033 49.622-.828 74.427.078 9.478 2.83 18.566 10.416 25.505 8.577 7.846 16.895 15.982 25.163 24.157 3.64 3.6 6.764 7.718 10.325 11.405 5.834 6.04 11.82 11.936 17.767 17.865 24.858 24.78 49.745 49.531 74.585 74.329 27.052 27.007 54.376 53.754 80.88 81.289 6.804 7.067 11.724 16.303 16.092 25.236 3.09 6.32 4.769 13.736 5.289 20.795.523 7.103-.635 14.47-1.99 21.544-3.091 16.128-9.737 30.723-20.493 43.303-7.324 8.566-16.275 14.82-26.309 19.948-10.959 5.6-22.63 7.775-34.569 7.822-7.241.028-14.516-2.085-21.733-3.464-19.32-3.69-35.237-14.826-52.048-23.996-14.415-7.863-28.96-15.497-43.214-23.643-19.528-11.162-38.795-22.782-58.248-34.078-17.8-10.336-35.726-20.458-53.55-30.757-17.82-10.297-35.498-20.846-53.395-31.008-16.882-9.585-34.16-18.483-50.913-28.287-16.876-9.876-34.223-19.197-48.609-32.752-4.501-4.241-8.008-9.526-12.425-13.87-16.434-16.162-28.063-35.266-34.755-57.217-4.792-15.718-8.926-31.647-12.953-47.583-1.594-6.308-2.918-12.888-2.924-19.346-.01-10.538.62-21.148 1.997-31.593 1.213-9.203 3.115-18.453 6.002-27.26 3.066-9.353 7.42-18.318 11.623-27.258 7.017-14.92 14.326-29.703 21.578-44.511 8.418-17.188 16.921-34.333 25.362-51.51a49973 49973 0 0 0 28.921-58.964c7.61-15.538 15.224-31.075 22.791-46.634 8.868-18.234 17.644-36.513 26.55-54.73 3.528-7.216 7.754-14.126 10.798-21.531 2.144-5.213 3.32-10.96 4.052-16.584a256 256 0 0 0 2.045-25.7c.327-11.397-2.944-22.127-9.152-31.52-6.525-9.873-13.343-19.783-21.509-28.255-4.82-5-12.485-7.277-18.904-10.716-6.763-3.624-14.166-3.311-21.132-1.805-8.343 1.804-17.413 3.497-24.313 8.05-14.632 9.654-28.255 20.89-41.933 31.922-16.894 13.626-33.4 27.734-50.12 41.577-15.25 12.624-30.802 24.898-45.756 37.862-8.198 7.107-16.067 14.958-20.138 25.351-3.798 9.696-3.786 20.017-3.124 30.286.127 1.956.708 3.888.761 5.84.39 14.272.58 28.55 1.063 42.819.527 15.55 1.312 31.093 1.965 46.64.68 16.213 1.297 32.429 2.016 48.64.607 13.716 1.307 27.428 1.99 41.14.65 13.048 1.357 26.093 1.989 39.142q.575 11.908 1 23.82c.691 19.38 1.28 38.762 2.03 58.139.562 14.55 1.366 29.09 1.963 43.64.727 17.71 1.194 35.433 2.061 53.137.784 15.997 1.66 32 3.044 47.952 1.206 13.896 3.268 27.715 4.78 41.586 1.023 9.372 7.364 15.268 13.672 21.012 6.94 6.32 14.451 12.006 21.58 18.124a5156 5156 0 0 1 38.575 33.45c20.023 17.533 39.91 35.223 59.989 52.69 16.075 13.984 32.484 27.587 48.496 41.641 12.02 10.552 23.383 21.86 35.534 32.252 8.898 7.61 17.236 15.97 28.314 20.913 9.768 4.36 18.726 10.55 28.535 14.792 5.081 2.197 11.209 2.37 16.905 2.665 12.258.636 24.54.903 36.816 1.028 5.436.055 10.883-.925 16.32-.878 23.107.2 46.213.606 69.32.945 22.303.327 44.606.743 66.91.981 37.178.397 74.408-.441 111.522 1.27 61.722 2.849 123.438.994 185.15 1.769 15.108.19 30.212.788 45.32.95 38.772.418 77.546.64 116.318 1.054 16.775.18 33.547.642 50.32.975s33.547.913 50.32.888c7.567-.012 14.467-3.294 21.314-6.41 11.29-5.14 18.988-13.944 26.792-23.294 8.315-9.96 12.464-21.168 14.777-33.346 2.741-14.436 1.472-28.741-2.781-42.818-2.971-9.832-5.66-19.748-8.553-29.604-3.031-10.325-6.175-20.616-9.233-30.933-2.925-9.863-5.739-19.76-8.716-29.606-4.127-13.65-8.493-27.227-12.511-40.908-3.36-11.443-6.214-23.035-9.585-34.475-2.484-8.427-5.527-16.688-8.162-25.073-2.679-8.521-5.139-17.111-7.739-25.657-3.601-11.84-7.385-23.626-10.835-35.51-4.557-15.69-8.75-31.485-13.325-47.17-2.865-9.823-6.143-19.525-9.33-29.575l-17.202 5.238-8.988-28.655 61.959-19.332 8.958 28.663-18.49 5.913c3.924 13.009 7.852 25.93 11.715 38.87 2.754 9.226 5.381 18.49 8.137 27.716 3.447 11.535 7.029 23.03 10.438 34.575 3.271 11.077 6.32 22.22 9.61 33.29 2.593 8.726 5.462 17.37 8.103 26.083 2.69 8.871 5.21 17.793 7.88 26.671 2.384 7.93 4.92 15.816 7.295 23.749 1.966 6.566 3.704 13.2 5.708 19.755 2.698 8.826 5.606 17.587 8.324 26.407 1.969 6.39 3.769 12.83 5.653 19.246 2.577 8.77 5.196 17.53 7.736 26.312 3.451 11.931 6.781 23.898 10.28 35.815 3.928 13.375 2.025 27.076 1.644 40.55-.23 8.114-3.853 16.123-5.874 24.2-3.468 13.862-11.837 25.3-21.466 34.762-9.507 9.343-18.472 20.611-32.833 23.817-2.337.521-4.819 1.449-6.667 2.906-5.782 4.56-12.738 4.352-19.25 4.416-33.33.326-66.664.28-99.996.113-31.29-.157-62.58-.593-93.869-.975-22.146-.27-44.29-.704-66.437-.975-31.106-.382-62.214-.625-93.319-1.036-14.983-.198-29.961-.806-44.945-.946-44.755-.418-89.51-.697-134.758-1.03"/></svg>