<svg xmlns="http://www.w3.org/2000/svg" viewBox="0 0 2002 778" xml:space="preserve"><path fill="#fff" d="M387.828 644.79c-4.44 15.278-6.94 30.763-3.562 45.68 3.751 16.565 13.161 30.253 29.664 37.852 8.18 3.767 16.5 7.037 25.411 5.648 8.439-1.315 16.723-3.957 24.887-6.6 7.07-2.289 13.838-5.5 20.808-8.122 15.175-5.709 30.388-11.315 45.594-16.94 19.307-7.141 38.652-14.18 57.923-21.42 10.793-4.054 21.417-8.558 32.21-12.616 17.261-6.49 34.634-12.684 51.892-19.182 10.576-3.982 20.989-8.395 31.543-12.436 11.202-4.289 22.503-8.317 33.727-12.55 10.256-3.869 20.47-7.85 30.696-11.797 18.244-7.04 36.522-13.993 54.71-21.174 12.8-5.054 25.32-10.853 38.245-15.549 16.761-6.09 33.627-12.011 51.44-14.497 13.428-1.874 26.792-4.99 40.264-5.51 10.817-.42 21.775 2.071 32.632 3.554 11.007 1.504 22.005 3.148 32.937 5.117 9.942 1.791 19.766 4.222 29.684 6.157 17.12 3.338 34.28 6.465 51.406 9.767 13.617 2.626 27.198 5.437 40.815 8.062 17.464 3.368 34.973 6.505 52.416 9.977 17.105 3.406 34.114 7.3 51.235 10.626 17.152 3.332 34.403 6.154 51.585 9.34 14.118 2.617 28.189 5.493 42.299 8.16 17.635 3.333 35.297 6.525 52.931 9.865 8.323 1.577 16.588 3.458 24.913 5.022 11.058 2.077 22.163 3.903 33.222 5.975 13.934 2.611 27.84 5.373 41.762 8.05 5.095.979 10.201 1.905 15.303 2.85 16.191 3.001 32.372 6.06 48.577 8.984a9869 9869 0 0 0 62.232 11.032c23.18 4.03 46.368 8.02 69.576 11.885 19.036 3.17 38.135 5.971 57.153 9.243 13.817 2.377 27.514 5.445 41.325 7.854 12.882 2.247 25.827 4.149 38.775 5.982 10.879 1.54 21.903 2.227 32.686 4.236 24.678 4.596 49.584 4.41 74.514 5.062 13.86.362 22.51-6.488 28.16-17.468 3.249-6.314 4.54-13.884 5.51-21.051.915-6.75-.083-13.735.364-20.577.645-9.88-5.683-14.998-13.167-18.136-6.755-2.832-14.35-3.75-21.635-5.207-15.343-3.067-30.706-6.044-46.099-8.849-13.98-2.547-28.024-4.742-42.015-7.232-16.381-2.916-32.735-5.987-49.102-8.985-16.372-2.998-32.738-6.033-49.12-8.968-11.727-2.1-23.494-3.97-35.211-6.116-10.902-1.997-21.74-4.335-32.643-6.325-18.001-3.287-36.04-6.36-54.045-9.627-11.373-2.063-22.696-4.403-34.07-6.463-17.978-3.256-35.987-6.337-53.967-9.581-9.308-1.68-18.57-3.612-27.873-5.318-10.597-1.944-21.223-3.728-31.824-5.647-10.233-1.852-20.436-3.875-30.68-5.662-10.78-1.88-21.609-3.475-32.385-5.369-10.904-1.917-21.76-4.108-32.657-6.068-9.618-1.73-19.277-3.228-28.892-4.969-10.734-1.943-21.544-3.61-32.13-6.182-14.496-3.522-28.835-7.705-43.199-11.755-10.105-2.85-17.823-9.746-25.914-15.924-4.17-3.184-8.125-6.66-12.081-10.113-9.286-8.106-16.574-17.92-22.181-28.732-4.364-8.415-7.92-17.387-10.667-26.466-3.063-10.126-3.613-20.702-1.712-31.271 1.644-9.144 2.253-18.604 5.04-27.378 3.121-9.827 7.133-19.705 12.646-28.356 7.561-11.864 17.239-22.506 29.182-30.14 12.492-7.988 26.3-13.384 41.235-15.343 8.914-1.17 17.816-3.71 26.688-3.558 9.175.157 18.705 1.671 27.366 4.662 13.273 4.584 25.925 10.964 38.859 16.538 21.281 9.172 42.623 18.205 63.856 27.488 20.92 9.147 41.7 18.616 62.613 27.781 12.623 5.533 25.441 10.622 38.065 16.154 14.493 6.352 28.845 13.026 43.301 19.463 10.349 4.607 20.803 8.977 31.149 13.591 17.014 7.59 33.938 15.385 50.975 22.924 23.576 10.432 47.26 20.62 70.824 31.078 15.79 7.009 31.388 14.448 47.186 21.437 15.851 7.013 31.88 13.622 47.763 20.566 11.447 5.005 22.677 10.516 34.192 15.35 12.788 5.37 25.995 9.213 40.137 7.49 2.03-.248 4.162-.945 5.906-1.998 3.84-2.32 7.48-4.975 11.171-7.538 7.172-4.98 8.744-12.796 9.889-20.578.992-6.745 3.19-13.95-1.116-20.177-2.825-4.087-6.533-7.823-10.532-10.792-13.757-10.216-27.775-20.085-41.773-29.974-13.914-9.832-27.986-19.441-41.874-29.309-13.728-9.752-27.218-19.84-40.98-29.543-29.749-20.977-59.647-41.742-89.402-62.71-18.953-13.357-37.727-26.968-56.639-40.384a18165 18165 0 0 0-67.987-48.01c-20.822-14.628-41.807-29.027-62.555-43.759-18.39-13.056-36.134-27.062-54.93-39.488-19.462-12.865-39.216-25.552-61.203-33.886-11.937-4.525-24.195-8.235-36.406-11.996-16.703-5.145-33.441-10.2-50.273-14.902-15.484-4.326-31.128-8.077-46.672-12.19-10.2-2.7-20.295-5.813-30.535-8.346-11.219-2.775-22.542-5.132-33.834-7.604-8.742-1.914-17.479-3.865-26.266-5.547-10.264-1.964-20.585-3.63-30.873-5.47-9.951-1.778-19.865-3.787-29.845-5.377-12.922-2.059-25.878-3.924-38.849-5.647-13.013-1.73-26.033-3.555-39.108-4.628-9.106-.747-18.349-.87-27.464-.261-18.898 1.26-37.755 3.154-56.621 4.866-10.15.92-20.328 1.69-30.415 3.095-10.83 1.509-21.685 3.19-32.32 5.686-14.21 3.333-28.446 6.855-42.245 11.549-11.59 3.942-22.613 9.583-33.81 14.64-16.987 7.672-33.965 15.369-50.832 23.296-8.006 3.762-15.646 8.298-23.631 12.107-16.849 8.037-33.867 15.717-50.718 23.75-13.882 6.62-27.569 13.648-41.44 20.29-14.329 6.862-28.79 13.446-43.167 20.21-12.721 5.984-25.394 12.072-38.11 18.069-7.355 3.468-14.752 6.847-22.906 10.626-3.651-7.302-7.39-14.613-10.855-22.052-.255-.546 1.235-2.468 2.288-2.978 14.64-7.086 29.344-14.043 44.038-21.018 9.704-4.607 19.389-9.255 29.133-13.773 12.581-5.835 25.267-11.445 37.808-17.363 11.47-5.413 22.754-11.22 34.215-16.65 17.274-8.186 34.659-16.138 51.942-24.303 11.197-5.29 22.206-10.984 33.46-16.147C800.413 67 824.046 56.1 847.944 45.824c8.206-3.528 17.185-5.257 25.81-7.814 4.454-1.32 8.88-2.74 13.36-3.968 17.14-4.697 34.664-7.228 52.304-9.034 16.788-1.718 33.572-3.5 50.386-4.933 14.435-1.23 28.936-3.08 43.358-2.706 16.658.434 33.265 2.969 49.887 4.66 9.115.929 18.252 1.752 27.313 3.074 10.12 1.477 20.166 3.469 30.245 5.23 10.881 1.902 21.762 3.805 32.647 5.689 4.163.72 8.355 1.284 12.498 2.1 14.947 2.948 29.947 5.676 44.794 9.07 10.356 2.366 20.447 5.87 30.744 8.526 10.315 2.662 20.789 4.706 31.1 7.38 11.709 3.034 23.29 6.552 34.97 9.7 10.605 2.86 21.345 5.239 31.883 8.32 11.1 3.246 22.038 7.048 33.03 10.657 7.169 2.353 14.364 4.64 21.444 7.237 7.994 2.933 16.196 5.552 23.73 9.43 13.168 6.774 26.359 13.705 38.696 21.848 17.276 11.405 33.731 24.048 50.632 36.028 9.394 6.66 19.09 12.896 28.454 19.597 12.743 9.121 25.193 18.652 37.963 27.734 13.886 9.875 28.077 19.32 41.986 29.161 20.006 14.155 39.839 28.554 59.816 42.75 22.69 16.124 45.437 32.168 68.198 48.193 15.832 11.147 31.782 22.127 47.578 33.324 11.854 8.402 23.45 17.17 35.334 25.527 15.985 11.243 32.224 22.127 48.194 33.39 14.64 10.326 29.187 20.793 43.538 31.515 6.749 5.042 13.543 10.273 19.221 16.43 6.102 6.616 10.29 14.765 9.874 24.248-.416 9.5-.457 19.148-2.252 28.423-1.845 9.526-6.473 18.416-14.083 24.755-6.744 5.617-14.112 10.675-21.8 14.892-4.346 2.383-9.895 3.548-14.9 3.545-10.177-.006-20.57-.128-30.463-2.177-9.019-1.869-17.605-6.092-26.19-9.732-18.468-7.83-36.876-15.811-55.19-23.996-19.479-8.706-38.778-17.815-58.24-26.563-13.304-5.98-26.786-11.566-40.128-17.468-15.408-6.816-30.684-13.937-46.138-20.648-17.509-7.602-35.194-14.799-52.723-22.357-13.527-5.833-26.91-11.998-40.396-17.93-14.05-6.18-28.204-12.128-42.205-18.416-16.237-7.291-32.316-14.932-48.54-22.252-13.642-6.155-27.383-12.091-41.1-18.08-15.264-6.666-30.523-13.343-45.833-19.901-15.445-6.616-30.828-13.404-46.47-19.524-11.175-4.372-23.013-5.157-34.822-2.943-9.024 1.692-18.145 3.403-26.8 6.345-6.744 2.292-13.438 5.709-19.089 10.02-9.698 7.402-18.258 16.411-22.896 27.853-3.54 8.735-5.948 18.114-7.44 27.433-1.2 7.489-.98 15.402-.078 22.97.79 6.627 2.983 13.19 5.302 19.507 4.582 12.478 12.497 22.739 22.401 31.539 12.514 11.118 25.72 20.766 42.857 23.682 15.662 2.664 31.234 5.87 46.824 8.944 14.3 2.82 28.539 5.96 42.866 8.634 14.197 2.649 28.496 4.753 42.702 7.36 9.215 1.69 18.303 4.083 27.523 5.745 10.894 1.963 21.892 3.348 32.803 5.223 9.893 1.7 19.716 3.798 29.595 5.583 10.404 1.88 20.845 3.559 31.255 5.404 5.262.933 10.485 2.086 15.74 3.056 7.339 1.353 14.716 2.507 22.032 3.966 10.311 2.057 20.556 4.448 30.88 6.434 5.753 1.107 11.615 1.643 17.416 2.511 4.165.623 8.32 1.324 12.464 2.07 12.775 2.302 25.561 4.55 38.309 6.996 10.644 2.042 21.219 4.445 31.865 6.47 5.6 1.066 11.318 1.508 16.93 2.525 5.383.975 10.677 2.435 16.048 3.488 6.383 1.25 12.803 2.31 19.212 3.424 10.074 1.754 20.155 3.47 30.229 5.228 11.03 1.925 22.066 3.809 33.076 5.84 9.076 1.673 18.108 3.586 27.177 5.298 6.859 1.295 13.76 2.367 20.616 3.675 6.008 1.146 11.958 2.604 17.974 3.702 6.708 1.224 13.479 2.103 20.192 3.3 10.838 1.934 21.774 3.51 32.444 6.144 13.212 3.26 23.305 11.452 30.963 22.568 3.471 5.04 5.299 10.653 5.196 16.948-.077 4.76.823 9.53.82 14.295-.012 14.467-2.223 28.604-7.922 41.97-5.8 13.6-15.602 23.923-28.182 31.397-3.157 1.876-7.458 2.342-11.273 2.505-13.422.574-26.914 1.617-40.282.834-17.624-1.033-35.155-3.628-52.727-5.539-6.836-.743-13.692-1.324-20.508-2.211-6.771-.881-13.51-2.013-20.252-3.107a5775 5775 0 0 1-35.62-5.886c-5.595-.944-11.167-2.016-16.745-3.046-7.02-1.297-14.03-2.64-21.055-3.907a1332 1332 0 0 0-20.12-3.496c-5.614-.924-11.263-1.638-16.872-2.592-7.524-1.28-15.013-2.768-22.537-4.044-10.074-1.709-20.179-3.235-30.25-4.962-8.162-1.401-16.282-3.05-24.442-4.472-14.571-2.54-29.175-4.896-43.731-7.517-9.554-1.72-19.02-3.93-28.577-5.631-10.893-1.938-21.862-3.45-32.763-5.343-8.619-1.496-17.17-3.378-25.78-4.92-8.16-1.462-16.357-2.714-24.54-4.043-4.319-.702-8.677-1.213-12.96-2.09-10.301-2.11-20.538-4.548-30.859-6.554-13.391-2.603-26.852-4.845-40.258-7.375-9.21-1.739-18.359-3.796-27.566-5.545-10.06-1.911-20.173-3.541-30.23-5.462-10.507-2.006-20.958-4.305-31.466-6.304-8.924-1.697-17.917-3.027-26.837-4.743-8.905-1.712-17.739-3.79-26.636-5.547-9.682-1.911-19.404-3.62-29.103-5.45-5.899-1.113-11.782-2.312-17.68-3.43-9.851-1.869-19.71-3.689-29.56-5.56-5.102-.969-10.184-2.033-15.286-3-7.16-1.359-14.353-2.561-21.493-4.022-9.834-2.013-19.606-4.327-29.45-6.29-13.337-2.658-26.734-5.013-40.07-7.676-9.01-1.8-17.922-4.103-26.945-5.825-10.066-1.921-20.2-3.49-30.32-5.12-12.515-2.013-24.988-4.683-37.588-5.647-9.762-.747-19.786.003-29.52 1.343-10.705 1.473-21.37 3.831-31.763 6.812-11.91 3.416-23.591 7.703-35.213 12.036-20.48 7.635-40.856 15.547-61.242 23.43-13.464 5.207-26.827 10.674-40.308 15.832-21.892 8.377-43.858 16.56-65.765 24.896-17.365 6.609-34.646 13.441-52.049 19.949-9.02 3.374-18.26 6.158-27.334 9.398-6.484 2.316-12.843 4.98-19.282 7.427-9.3 3.534-18.63 6.988-27.93 10.52-8.968 3.405-17.886 6.947-26.881 10.278-9.034 3.346-18.172 6.406-27.198 9.771-13.098 4.884-26.205 9.757-39.18 14.955-13.845 5.548-27.934 10.367-42.796 11.808-11.375 1.103-21.732-3.741-32.225-7.543-17.133-6.209-28.015-18.959-37.552-33.66-7.522-11.595-10.77-24.136-11.135-37.708-.33-12.19.586-24.11 3.802-36.04 2.736-10.15 3.566-20.812 5.269-31.242 1.305-7.996 3.709-15.975 3.782-23.978.178-19.461-7.775-35.598-23.13-47.645-7.681-6.027-15.474-12.27-24.118-16.628-12.907-6.505-26.855-9.456-41.572-6.585-4.656.908-9.528.649-14.27 1.192-10.692 1.225-21.365 2.629-32.048 3.937-8.438 1.032-16.913 1.818-25.313 3.096-11.375 1.73-22.682 3.912-34.045 5.733-7.576 1.214-15.209 2.076-22.8 3.208-6.107.911-12.197 1.942-18.28 3.01-5.251.923-10.449 2.215-15.727 2.922-15.86 2.125-31.771 4.351-47.8 2.933-9.423-.834-18.934-1.705-27.504-6.753-8.646-5.093-15.049-12.162-18.613-21.283-2.148-5.5-2.875-11.683-3.472-17.636-1.827-18.235 2.066-34.998 11.627-50.97 8.717-14.561 20.055-25.996 34.716-33.853 16.1-8.628 32.731-16.276 49.221-24.163 14.786-7.072 29.73-13.817 44.54-20.84 13.326-6.32 26.559-12.84 39.848-19.24 14.464-6.966 28.915-13.96 43.428-20.827 23.634-11.182 47.377-22.134 70.955-33.432 24.456-11.72 48.716-23.846 73.161-35.588 25.2-12.105 50.51-23.985 75.798-35.909 6.692-3.155 13.48-6.108 20.381-9.224l-9.551-18.129 22.002-11.771 32.47 60.844-22.009 11.791-10.43-19.362c-7.818 3.6-15.578 7.134-23.306 10.738-23.327 10.88-46.674 21.717-69.948 32.71-12.864 6.076-25.56 12.505-38.398 18.637-11.145 5.324-22.417 10.38-33.57 15.688-15.498 7.374-30.911 14.925-46.408 22.302-17.184 8.179-34.454 16.175-51.623 24.384-14.863 7.106-29.592 14.492-44.46 21.584-14.915 7.115-29.989 13.896-44.884 21.05-17.8 8.547-35.396 17.522-53.254 25.945-9.993 4.714-19.869 9.61-26.936 18.284-10.226 12.553-18.49 26.146-17.695 43.278.175 3.772.474 7.59 1.256 11.27 1.475 6.944 10.049 13.66 17.257 13.744 9.832.115 19.709.696 29.485-.022 10.082-.74 20.066-2.809 30.096-4.275 8.251-1.206 16.52-2.294 24.757-3.59a3162 3162 0 0 0 36.787-6.025c13.177-2.233 26.293-4.866 39.514-6.787 12.315-1.789 24.723-2.965 37.108-4.23 7.86-.804 15.744-1.637 23.632-1.835 26.735-.673 50.439 7.566 70.787 25.028 10.018 8.598 20.112 17.13 26.899 28.8 5.34 9.18 8.113 19.139 10.603 29.401 4.635 19.106-2.04 36.988-4.724 55.315-.662 4.523-1.628 9.002-2.473 13.938"/></svg>