<svg xmlns="http://www.w3.org/2000/svg" viewBox="0 0 1991 1059" xml:space="preserve"><path fill="#fff" d="M628.554 899.437c9.763 4.72 19.212 9.21 28.573 13.874 15.258 7.601 30.375 15.488 45.704 22.942 19.514 9.49 39.156 18.72 58.794 27.953 7.705 3.624 15.506 7.051 23.339 10.393 6.764 2.885 13.612 5.578 20.463 8.253 8.451 3.3 16.9 6.616 25.434 9.69 5.864 2.112 11.86 3.864 17.819 5.706 7.293 2.254 14.536 4.725 21.934 6.568 8.508 2.12 17.151 3.702 25.754 5.428 7 1.405 13.994 2.879 21.048 3.953 8.092 1.233 16.322 1.652 24.361 3.135 28.927 5.336 58.142 4.298 87.261 3.69 15.057-.315 30.055-3.16 45.095-4.702 8.356-.856 16.784-1.079 25.106-2.153 7.277-.94 14.485-2.522 21.665-4.09 9.885-2.16 19.793-4.292 29.54-6.982 6.067-1.674 11.79-4.553 17.785-6.538 7.872-2.606 15.811-5.04 23.808-7.234 16.51-4.531 31.83-11.944 47.25-19.132 9.254-4.313 18.464-8.72 28.145-13.3l10.984 17.515c-8.183 4.287-15.965 8.635-23.984 12.487-7.495 3.6-15.157 6.891-22.896 9.934-13.224 5.199-26.499 10.284-39.881 15.055-8.567 3.054-17.292 5.737-26.079 8.09-13.319 3.565-26.75 6.715-40.141 10.01-8.08 1.987-16.112 4.256-24.284 5.748-5.473.999-11.175.671-16.74 1.264-11.2 1.192-22.375 2.632-33.568 3.903-1.812.205-3.667-.006-5.496.095-11.177.618-22.345 1.44-33.53 1.832-4.727.165-9.482-.743-14.23-.823-8.655-.146-17.373.604-25.958-.18-14.585-1.33-29.088-3.554-43.624-5.414-6.141-.787-12.29-1.524-18.414-2.427-6.732-.993-13.46-2.036-20.151-3.273-5.86-1.083-11.717-2.26-17.48-3.762-8.539-2.226-17.003-4.746-25.482-7.198-6.482-1.875-12.978-3.713-19.391-5.804-4.552-1.485-8.979-3.357-13.456-5.07-11.329-4.334-22.757-8.43-33.954-13.081-12.131-5.039-24.16-10.36-36.025-15.994-12.97-6.158-25.67-12.884-38.548-19.24-13.483-6.654-27.068-13.1-40.552-19.75-13.494-6.656-26.892-13.505-40.381-20.167-10.062-4.97-20.218-9.751-30.307-14.669-10.072-4.909-20.117-9.876-30.167-14.83-15.652-7.718-31.315-15.415-46.944-23.182-10.357-5.147-20.577-10.576-31.014-15.553-8.512-4.058-17.294-7.546-25.885-11.446-9.613-4.364-19.095-9.019-28.727-13.34-9.003-4.04-18.3-7.458-27.15-11.8-8.77-4.302-17.133-9.434-25.694-14.168-13.082-7.232-26.183-14.43-39.27-21.652-14.5-8.003-28.962-16.074-43.498-24.011-14.802-8.083-29.73-15.938-44.498-24.083-11.785-6.5-23.428-13.258-35.104-19.954-12.732-7.3-25.479-14.58-38.123-22.032-6.147-3.622-9.289-9.792-11.642-16.11a70.3 70.3 0 0 1-3.919-16.292c-.366-3.149.687-6.74 1.982-9.754 4.595-10.702 9.518-21.265 14.417-31.834 3.284-7.083 6.87-14.03 10.031-21.165.957-2.16 1.195-4.743 1.254-7.145.02-.865-1.353-2.414-2.257-2.551-7.719-1.168-15.473-2.11-23.222-3.068-10.676-1.319-21.353-2.638-32.04-3.872-9.572-1.104-19.161-2.068-28.738-3.138-13.82-1.545-27.397-4.134-40.946-7.466-15.902-3.911-28.86-13.558-43.438-19.961-1.26-.554-2.415-1.927-3.063-3.203-5.064-9.968-9.056-19.906-2.305-30.964 4.756-7.79 8.698-16.072 13.084-24.09 7.3-13.346 14.693-26.641 21.99-39.989C55.043 438.23 61 427.083 67.052 415.987c7.62-13.968 15.278-27.915 22.936-41.863 5.806-10.574 14.383-18.066 25.416-22.845 4.222-1.828 8.337-3.914 12.612-5.603 1.603-.634 3.52-.647 5.295-.65 34.999-.034 70 .175 104.995-.161 9.107-.088 18.35-1.131 27.26-3.016 13.038-2.758 25.351-8.063 36.655-15.068 6.668-4.132 12.312-9.908 18.452-14.903 12.532-10.195 24.804-20.74 37.723-30.42 10.42-7.808 21.237-15.281 32.637-21.514 7.19-3.932 15.711-5.555 23.76-7.763 8.965-2.46 18.07-4.412 27.119-6.572.948-.226 1.91-.453 2.877-.526 9.345-.702 18.747-.966 28.017-2.213 5.11-.687 10-3.009 15.257-4.679 0-19.71-.206-39.008.042-58.301.526-40.853.855-81.717 2.21-122.545.422-12.713 3.512-25.441 13.64-34.928 6.652-6.23 14.027-10.544 23.502-10.438 10.522.117 21.055-.221 31.57.109 12.528.392 25.042 1.252 37.56 1.969 10.672.61 21.352 1.154 32.007 1.999 15.038 1.192 30.053 2.678 45.086 3.944 5.585.47 11.189.75 16.79.99 16.681.71 33.369 1.277 50.046 2.06 11.008.515 22.014 1.156 33 2.007 15.375 1.191 30.723 2.728 46.098 3.92 7.41.575 14.856.69 22.285 1.029 14.684.67 29.37 1.286 44.049 2.054 10.355.542 20.714 1.108 31.043 2.005 13.041 1.131 26.05 2.644 39.08 3.92 4.583.45 9.196.59 13.78 1.036 13.02 1.265 26.031 2.616 39.047 3.928.495.05.997.026 1.495.056 11.332.68 22.7 1.012 33.985 2.16 8.858.902 17.613 2.808 26.411 4.285.637.107 1.24.469 1.874.524 8.147.701 16.335 1.071 24.434 2.125 9 1.17 17.904 3.05 26.877 4.443 6.272.973 12.595 1.618 18.888 2.462 9.169 1.23 18.33 2.518 27.498 3.759 8.087 1.094 16.181 2.133 24.266 3.24 9.481 1.298 18.945 2.725 28.437 3.942 6.475.83 13.024 1.139 19.468 2.143 8.751 1.364 17.414 3.287 26.152 4.746 5.608.936 11.323 1.241 16.917 2.238 7.142 1.273 14.186 3.094 21.32 4.422 5.576 1.039 11.25 1.55 16.835 2.547 5.378.96 10.69 2.28 16.046 3.377 6.026 1.233 12.066 2.395 18.101 3.582 6.608 1.3 13.198 3.518 19.83 3.653 8.209.169 15.433 3.17 23.009 5.33 15.171 4.328 31.096 7.163 44.227 16.295 9.1 6.328 14.94 15.069 16.382 27.414 2.909 24.874.754 49.704 1.625 74.528.42 11.925.618 23.858 1.03 35.784.114 3.262.543 6.525 1.05 9.753.128.808 1.008 1.968 1.732 2.133 3.78.86 7.6 1.587 11.442 2.108 11.132 1.512 22.283 2.89 33.423 4.347 6.597.863 13.204 1.67 19.777 2.694 8.798 1.37 17.557 2.988 26.353 4.38 6.105.965 12.253 1.666 18.363 2.602 6.075.93 12.123 2.033 18.19 3.013 8.34 1.346 16.694 2.61 25.03 3.979 6.864 1.127 13.698 2.444 20.57 3.517 8.034 1.255 16.094 2.341 24.144 3.493 9.342 1.337 18.722 2.452 28.019 4.048 12.673 2.176 25.536 4.108 36.703 11.048 3.775 2.347 6.749 6.033 9.95 9.246 6.073 6.096 8.847 13.788 10.237 22.069.751 4.478 2.29 9.093 1.804 13.46-1.678 15.073-6.619 28.6-19.949 37.785-12.193 8.4-23.98 17.39-36.132 25.851-10.72 7.464-21.788 14.424-32.538 21.845-15.788 10.9-31.684 21.675-47.004 33.207-5.97 4.494-11.44 10.23-13.91 17.773-.647 1.973-.1 4.306-.343 6.446-1.611 14.228 3.486 26.463 11.303 37.828 5.41 7.867 13.458 12.573 21.4 17.44 7.78 4.767 16.28 6.918 25.017 9.301 16.652 4.543 33.4 6.43 50.451 5.552 8.943-.46 17.715-2.289 26.35-5.413 12.589-4.556 22.181-13.006 32.08-21.364 11.283-9.527 18.453-22.056 26.193-34.232 7.918-12.454 16.493-24.516 23.899-37.262 6.746-11.61 12.409-23.857 18.358-35.918 3.675-7.451 7.388-14.927 10.359-22.67 3.03-7.895 5.158-16.136 7.708-24.217 2.024-6.413 4.148-12.794 6.12-19.223a1644 1644 0 0 0 6.867-23.05c3.706-12.741 7.341-25.503 11.036-38.248 3.981-13.736 7.616-27.588 12.116-41.152 3.66-11.036 8.364-21.726 12.622-32.563 4.724-12.022 9.15-24.174 14.291-36.015 4.919-11.33 11.875-21.064 23.916-26.154 3.855-1.63 7.381-2.516 11.61-1.474 7.72 1.9 15.414 3.723 19.954 11.044 1.845 2.975 4.162 6.413 4.162 9.64-.003 10.742-2.46 20.896-8.115 30.439-4.22 7.122-6.827 15.2-10.155 22.85-4.394 10.099-9.142 20.063-13.06 30.344-2.447 6.424-3.606 13.336-5.42 20.008-1.559 5.734-3.217 11.442-4.85 17.156-2.03 7.107-4.176 14.182-6.096 21.319-1.838 6.83-3.289 13.767-5.203 20.574-2.47 8.781-5.087 17.527-7.916 26.198-1.93 5.915-4.368 11.662-6.513 17.508-3.158 8.604-6.167 17.262-9.405 25.835-3.433 9.093-7.51 17.966-10.508 27.194-6.15 18.94-17.642 35.038-27.803 51.68-11.796 19.317-25.616 37.416-38.862 55.825-9.704 13.486-19.478 26.965-30.039 39.774-6.105 7.404-13.754 13.555-20.85 20.117-8.252 7.632-16.405 15.404-25.061 22.56-11.452 9.465-23.293 18.466-35.077 27.523-7.461 5.735-14.97 11.434-22.731 16.748-11.966 8.193-24.927 12.738-38.673 2.657-7.798-5.72-15.921-11.03-24.15-16.117-6.875-4.252-13.716-9.21-21.285-11.55-13.719-4.242-28.31-6.522-42.261-2.005-8.829 2.86-16.953 8.41-24.656 13.805-1.598 1.12-.689 7.125.37 10.465 2.42 7.64 5.982 14.917 8.465 22.542 3.23 9.92 6.445 19.914 8.573 30.105 1.696 8.118 2.83 16.668 2.148 24.854-.43 5.157-3.85 10.695-7.375 14.828-6.587 7.725-13.981 14.821-21.492 21.684a536 536 0 0 1-27.552 23.549c-8.675 6.91-17.842 13.201-26.8 19.755-9.859 7.213-19.643 14.53-29.612 21.59-11.25 7.965-22.747 15.579-33.989 23.555-11.559 8.202-22.907 16.698-34.405 24.986-9.228 6.652-18.53 13.203-27.821 19.765-6.393 4.515-12.89 8.887-19.156 13.57-.763.571-.968 2.992-.424 4.024 2.862 5.436 6.048 10.7 9.394 16.496l-17.217 10.133-32.532-55.832 17.215-10.111 10.944 18.537c4.774-3.386 9.45-6.671 14.093-10.001 15.972-11.453 31.951-22.895 47.892-34.39 21.103-15.219 42.102-30.581 63.284-45.69 11.398-8.13 23.275-15.596 34.575-23.855 7.975-5.83 15.41-12.409 22.966-18.795 9.324-7.88 18.99-15.44 27.614-24.034 5.793-5.773 11.087-12.395 8.206-22.214-4.16-14.18-7.177-28.694-11.28-42.894-2.29-7.926-6.197-15.376-8.641-23.268-3.257-10.518 3.689-24.808 13.825-29.981 7.24-3.696 14.572-7.259 21.558-11.397 6.045-3.58 12.85-3.27 19.294-4.667 3.662-.793 7.655-.391 11.464-.088 6.652.528 13.41.806 19.883 2.257 10.371 2.324 20.084 6.535 28.968 12.547 8.623 5.835 17.435 11.39 26.036 17.257 9.324 6.359 16.224 4.684 23.838-1.225 14.302-11.1 28.862-21.878 42.951-33.24 9.85-7.943 19.142-16.58 28.592-25.011 6.743-6.017 13.671-11.883 19.89-18.413 5.36-5.628 9.91-12.04 14.68-18.213a1054 1054 0 0 0 15.315-20.368c8.999-12.248 17.62-24.787 26.939-36.784 14.05-18.088 24.523-38.353 35.644-58.168 5.834-10.395 9.384-22.086 13.799-33.257 4.406-11.15 8.713-22.344 12.86-33.593 3.166-8.586 6.258-17.214 8.924-25.963 2.128-6.983 3.455-14.207 5.333-21.271 3.148-11.84 6.43-23.643 9.696-35.451 2.731-9.878 5.342-19.794 8.344-29.59 1.942-6.335 4.288-12.57 6.816-18.7 5.53-13.41 11.265-26.738 16.974-40.075 1.66-3.878 3.712-7.598 5.217-11.53 1.31-3.418 2.237-7.004 3.016-10.585.174-.798-.9-2.631-1.538-2.7-1.997-.217-4.235-.275-6.066.424-7.293 2.786-10.096 9.63-12.844 15.969-4.58 10.564-8.45 21.441-12.448 32.25-3.692 9.979-7.197 20.027-10.711 30.07-1.826 5.218-3.589 10.461-5.207 15.746-2.026 6.62-3.73 13.34-5.84 19.931-2.07 6.469-4.742 12.751-6.666 19.258-2.66 9.002-4.68 18.193-7.316 27.203-3.411 11.658-7.17 23.215-10.759 34.82-3.074 9.941-5.953 19.946-9.255 29.81-1.54 4.602-3.812 8.967-5.862 13.389-5.315 11.458-10.473 22.996-16.121 34.288-3.6 7.194-7.81 14.1-12.02 20.968-6.425 10.48-12.953 20.903-19.688 31.186-6.673 10.19-12.587 21.173-20.79 29.986-9.131 9.808-20.177 17.946-30.92 26.113-15.733 11.96-34.04 16.248-53.553 16.096-3-.024-6.002-.066-9 .007-16.26.391-31.88-3.156-47.7-6.488-13.15-2.77-24.668-8.337-35.458-15.456-14.06-9.278-25.394-21.254-30.557-37.972-1.819-5.89-4.629-11.57-5.701-17.576-2.007-11.241-.427-22.148 4.509-32.702 4.878-10.432 12.984-17.581 22.047-23.94 24.154-16.945 48.428-33.72 72.549-50.712 13.654-9.62 27.099-19.536 40.644-29.31 8.902-6.423 13.03-19.801 8.502-30.767-1.412-3.42-2.352-7.255-4.552-10.09-7.445-9.592-18.715-11.121-29.682-12.974-7.41-1.251-14.857-2.275-22.287-3.402-7.943-1.206-15.88-2.453-23.83-3.609-5.667-.824-11.37-1.42-17.027-2.305a4108 4108 0 0 1-41.69-6.732c-6.932-1.159-13.803-2.689-20.74-3.82-9.222-1.503-18.47-2.858-27.728-4.131-8.112-1.116-16.281-1.84-24.373-3.078-14.186-2.172-28.323-4.667-42.501-6.897-5.507-.866-11.58-.234-16.451-2.404-4.221-1.881-8.321-6.203-10.267-10.456-2.299-5.025-2.788-11.108-3.056-16.78-.456-9.644.048-19.33-.159-28.992-.57-26.717-1.068-53.44-2.104-80.14-.326-8.39-4.99-15.15-13.022-18.107-9.752-3.59-19.879-6.16-29.836-9.194-5.748-1.752-11.433-3.735-17.236-5.277-5.5-1.461-11.093-2.598-16.685-3.67-8.02-1.535-16.067-2.928-24.117-4.295-5.797-.985-11.644-1.695-17.422-2.774-5.434-1.015-10.788-2.449-16.211-3.524-6.265-1.243-12.579-2.237-18.851-3.444-6.233-1.199-12.417-2.655-18.664-3.767a931 931 0 0 0-25.713-4.201c-11.673-1.743-23.352-3.475-35.062-4.942-14.663-1.838-29.382-3.232-44.036-5.135-13.135-1.707-26.2-3.956-39.324-5.755-9.115-1.249-18.293-2.039-27.418-3.224-7.953-1.032-15.873-2.33-23.806-3.512-.978-.146-1.951-.323-2.93-.453-12.342-1.629-24.675-3.326-37.03-4.848-7.021-.865-14.068-1.59-21.123-2.112-11.038-.816-22.11-1.207-33.136-2.144-12.803-1.088-25.566-2.633-38.36-3.852-5.423-.516-10.88-.681-16.318-1.053-19.257-1.315-38.507-2.727-57.772-3.929-5.312-.331-10.679.208-15.992-.118-13.66-.837-27.3-2.019-40.957-2.904-12.207-.791-24.438-1.236-36.64-2.076-17.435-1.2-34.853-2.63-52.28-3.93-1.658-.124-3.337.054-4.998-.05-20.744-1.31-41.482-2.724-62.231-3.936-9.429-.551-18.898-.453-28.316-1.11-15.772-1.1-31.518-2.57-47.275-3.885-.166-.014-.33-.036-.497-.043-14.54-.672-29.077-1.76-43.622-1.865-9.505-.068-17.242 4.254-20.964 13.557-1.184 2.96-1.175 6.44-1.465 9.704-.224 2.516-.038 5.067-.074 7.602-.327 23.108-.726 46.214-.982 69.322-.39 35.139-.668 70.28-1.024 105.419-.092 9.053-8.161 19.03-17.046 21.274-8.506 2.147-16.989 4.386-25.514 6.452-1.898.46-3.939.562-5.901.487-9.149-.35-17.951 1.212-26.742 3.744-9.82 2.829-20.073 4.275-29.718 7.556-6.066 2.063-11.516 6.157-16.976 9.746-17.053 11.206-33.313 23.412-48.632 36.982-12.742 11.287-25.539 22.863-41.737 29.264-8.31 3.283-16.718 6.766-25.412 8.522-12.497 2.522-25.29 3.585-37.97 5.169-1.417.177-2.917-.463-4.38-.467-22.074-.059-44.148-.102-66.222-.078-4.62.005-9.239.351-13.86.44-5.215.1-10.6-.736-15.613.287-11.778 2.405-21.087 8.851-26.92 19.635-12.034 22.246-23.9 44.584-35.987 66.802-12.343 22.691-24.885 45.276-37.3 67.928-2.977 5.432-.792 10.434 6.263 13.834 7.338 3.537 14.56 7.639 22.292 9.961 12.926 3.883 25.745 8.305 39.657 8.45 8.742.092 17.444 2.486 26.194 3.614 9.293 1.198 18.629 2.054 27.931 3.18 10.078 1.22 20.131 2.64 30.211 3.836 2.632.312 5.439-.361 7.962.252 4.342 1.054 8.752 2.313 12.716 4.313 4.765 2.403 6.656 14.863 5.375 19.346-5.013 17.549-13.025 33.814-20.969 50.132-2.767 5.685-5.12 11.592-7.34 17.518-1.857 4.96 3.28 15.745 8.576 18.765 23.516 13.406 46.928 26.997 70.572 40.172 20.739 11.556 41.768 22.59 62.609 33.964 13.013 7.101 25.881 14.47 38.878 21.603 16.763 9.202 33.293 18.899 50.468 27.265 19.139 9.323 38.967 17.22 58.346 26.065 12.682 5.79 25.119 12.118 37.627 18.283 14.355 7.073 28.674 14.218 42.996 21.358 13.391 6.675 26.698 13.525 40.171 20.032 10.277 4.964 20.762 9.498 31.134 14.266.984.452 1.823 1.218 3.082 1.99"/></svg>