<svg xmlns="http://www.w3.org/2000/svg" viewBox="0 0 1842 1049" xml:space="preserve"><path fill="#fff" d="M1230.24 877.259c13.11-9.106 25.992-17.909 38.797-26.823 24.72-17.21 49.56-34.255 74.031-51.813 14.488-10.394 28.33-21.687 42.53-32.484 12.324-9.37 24.786-18.554 37.106-27.926 7.459-5.674 14.693-11.644 22.156-17.312 8.618-6.545 17.375-12.906 26.075-19.344 11.89-8.8 23.556-17.927 35.729-26.319 17.703-12.203 36.301-23.166 53.532-35.984 15.822-11.77 30.4-25.225 45.404-38.08 6.4-5.483 12.55-11.263 18.685-17.044 2.03-1.913 3.745-4.185 5.456-6.406 9.884-12.831 19.838-25.61 29.547-38.574 9.156-12.225 18.41-24.404 26.93-37.069 7.495-11.141 14.31-22.77 20.905-34.477 5.303-9.413 10.23-19.087 14.592-28.968 4.638-10.504 8.412-21.39 12.566-32.108 2.824-7.288 5.953-14.475 8.408-21.885 3.465-10.46 6.426-21.086 9.616-31.637 2.132-7.052 4.386-14.07 6.41-21.152 2.593-9.078 5.02-18.204 7.497-27.315 2.492-9.168 4.46-18.513 7.55-27.473 4.383-12.706 9.358-25.224 14.493-37.65 5.464-13.22 11.55-26.18 17.04-39.389 1.272-3.06 1.403-6.652 1.649-10.03.05-.686-2.01-2.331-2.642-2.127-3.277 1.058-7.691 1.694-9.338 4.1-4.383 6.4-7.926 13.467-11.102 20.581-3.493 7.823-6.28 15.967-9.235 24.023-3.723 10.15-7.32 20.345-10.943 30.531-2.926 8.23-6.145 16.376-8.63 24.74-3.414 11.486-6.137 23.176-9.384 34.714-2.457 8.734-5.36 17.342-7.906 26.052-3.434 11.746-6.255 23.692-10.176 35.269-5.504 16.248-10.745 32.616-18.775 47.927-5.548 10.58-9.924 21.785-15.658 32.254-6.298 11.499-13.323 22.621-20.448 33.638-8.656 13.384-17.342 26.785-26.77 39.622-8.581 11.683-20.621 19.789-32.232 28.24-16.168 11.77-34.415 16.332-54.114 16.172-5-.041-10 .032-15-.014-14.06-.128-27.761-2.4-41.188-6.605-5.079-1.59-10.685-1.825-15.464-3.978-11.826-5.329-22.737-12.128-32.509-20.937-7.944-7.162-14.207-15.259-17.172-25.348-2.692-9.158-4.703-18.631-5.836-28.106-1.875-15.696-2.805-31.504-4.132-47.265-.014-.166-.006-.333-.014-.5-.667-14.375-1.228-28.756-2.032-43.124-.867-15.498-1.902-30.987-2.985-46.472-.517-7.389-.55-14.93-2.157-22.097-2.736-12.204-3.22-25.132-10.798-35.973-5.9-8.441-13.818-13.32-23.919-14.571-11.894-1.473-23.811-2.775-35.734-3.992-10.976-1.12-22.045-1.542-32.943-3.15-15.488-2.288-21.475-9.152-22.388-25.907-.299-5.484.047-11-.062-16.497-.635-31.884-1.109-63.773-2.128-95.645-.265-8.282-4.42-15.318-12.672-18.323-9.785-3.564-19.842-6.38-29.786-9.507-6.214-1.955-12.352-4.25-18.68-5.723-6.51-1.515-13.233-2.092-19.821-3.305-7.549-1.39-15.027-3.168-22.58-4.524-12.557-2.255-25.165-4.224-37.721-6.482-6.283-1.13-12.476-2.75-18.75-3.934-6.111-1.152-12.279-1.999-18.411-3.037-4.666-.79-9.298-1.784-13.975-2.49-10.376-1.566-20.772-2.996-31.157-4.504-7.938-1.153-15.863-2.4-23.809-3.495-8.948-1.232-17.922-2.269-26.867-3.522-8.258-1.157-16.49-2.492-24.736-3.736-.818-.124-1.65-.143-2.472-.246-13.023-1.63-26.035-3.366-39.072-4.875-12.902-1.493-25.849-2.611-38.742-4.173-8.933-1.082-17.777-2.922-26.717-3.908-11.62-1.282-23.294-2.105-34.952-3.025-9.531-.752-19.087-1.23-28.598-2.176-1.323-.132-3.532-2.29-3.486-3.438.251-6.28 1.077-12.539 1.73-19.037 11.458.797 22.481 1.438 33.48 2.371 7.695.653 15.358 1.686 23.031 2.583a12569 12569 0 0 1 31.782 3.772c9.12 1.09 18.244 2.159 27.358 3.308a4052 4052 0 0 1 30.713 4.01c10.398 1.392 20.783 2.891 31.186 4.256 12.363 1.621 24.752 3.055 37.106 4.744 13.308 1.82 26.577 3.918 39.884 5.75 8.624 1.186 17.329 1.833 25.916 3.221 11.44 1.85 22.792 4.225 34.196 6.3 14.286 2.599 28.601 5.039 42.875 7.702 13.318 2.484 26.595 5.187 39.897 7.763 9.137 1.77 18.538 2.665 27.374 5.4 17.287 5.35 35.94 7.677 50.979 18.483 8.642 6.21 15.05 14.47 16.526 26.543 3.046 24.897.786 49.783 1.768 74.644.581 14.719 1.351 29.43 1.872 44.151.105 2.964 1.082 3.947 4.084 4.2 8.01.674 15.969 1.938 23.975 2.683 9.4.876 18.816 1.718 28.245 2.094 13.121.523 25.364 4.267 37.27 9.382 1.677.721 2.9 2.459 4.396 3.649 14.238 11.337 21.87 26.202 24.19 44.147.939 7.26 2.967 14.374 4.197 21.606.825 4.85 1.322 9.777 1.61 14.691.813 13.884 1.417 27.78 2.152 41.67.979 18.496 1.909 36.996 3.04 55.483.817 13.339 1.684 26.683 2.98 39.981 1.22 12.517 3.414 24.947 10.996 35.443 5.508 7.626 13.402 12.507 21.407 17.332 11.617 7.002 24.477 9.214 37.426 11.893 11.612 2.403 23.21 3.094 34.928 2.77 21.215-.585 39.367-8.315 55.51-22.314 18.954-16.436 30.294-38.23 43.937-58.475 15.635-23.203 27.652-48.274 37.918-74.15 6.153-15.51 11.065-31.534 16.026-47.486 6.174-19.851 11.855-39.857 17.69-59.813 3.926-13.426 7.245-27.054 11.757-40.278 4.972-14.572 10.99-28.788 16.569-43.153 2.647-6.815 4.944-13.802 8.102-20.373 3.513-7.31 7.18-14.703 11.93-21.224 8.53-11.712 26.834-15.474 39.147-7.645 10.756 6.839 12.685 13.416 12.252 23.493-.568 13.254-8.286 22.835-12.7 34.05-5.878 14.94-12.913 29.437-18.494 44.48-4.229 11.398-7.052 23.326-10.33 35.066-2.619 9.378-4.986 18.826-7.454 28.246-2.59 9.888-4.943 19.845-7.821 29.649-2.19 7.456-4.963 14.746-7.609 22.063a9507 9507 0 0 1-17.365 47.574 267 267 0 0 1-23.306 47.974c-5.454 8.86-10.198 18.174-15.943 26.832-7.67 11.563-15.801 22.837-24.096 33.966-12.824 17.206-25.27 34.768-39.184 51.064-9.948 11.651-21.66 21.906-33.258 32.013-18.48 16.105-37.218 31.94-58.174 44.901-12.337 7.63-24.672 15.32-36.513 23.683-12.045 8.509-23.42 17.96-35.199 26.852-16.832 12.71-33.827 25.205-50.639 37.943-22.838 17.304-45.407 34.969-68.4 52.064-16.512 12.276-33.495 23.92-50.329 35.76-18.027 12.68-36.134 25.247-54.19 37.887-12.316 8.622-24.633 17.244-36.895 25.942-12.921 9.167-25.564 18.742-38.71 27.572-23.476 15.768-48.048 29.796-73.488 42.06-17.045 8.216-34.831 15.048-52.67 21.428-20.16 7.21-40.49 14.255-61.231 19.434-17.363 4.336-34.794 9.008-52.978 9.893-15.41.75-30.734 3.158-46.118 4.603-7.244.68-14.536.916-21.812 1.185-10.15.375-20.303.7-30.457.85-14.753.219-29.36-.896-43.926-3.654-12.535-2.372-25.335-3.301-37.95-5.296-12.242-1.937-24.506-3.96-36.564-6.78-14.063-3.29-28.106-6.912-41.804-11.455-13.21-4.382-25.968-10.13-38.93-15.26-7.839-3.103-15.776-5.973-23.514-9.308-10.848-4.677-21.653-9.478-32.292-14.61-14.15-6.825-28.08-14.105-42.182-21.035a27318 27318 0 0 0-86.142-42.119c-22.296-10.86-44.683-21.536-66.941-32.475-20.363-10.007-40.493-20.493-60.94-30.32-14.91-7.167-30.324-13.285-45.236-20.448-20.731-9.957-41.41-20.062-61.734-30.82-25.422-13.456-50.443-27.668-75.668-41.498-19.675-10.787-39.488-21.325-59.072-32.273-19.004-10.625-37.634-21.926-56.735-32.369-12.716-6.952-17.697-18.048-20.572-31.412-2.165-10.068 1.29-18.755 6.771-25.547 4.03-4.994 12.136-6.703 18.438-9.852.268-.134.667.023.99-.034 11.214-1.979 20.606 2.567 30.11 7.72 14.368 7.789 29.14 14.826 43.656 22.346 19.341 10.021 38.569 20.26 57.905 30.292 15.538 8.061 31.188 15.909 46.746 23.933 17.434 8.993 34.746 18.226 52.28 27.02 4.42 2.216 9.384 3.843 14.269 4.534 9.724 1.376 18.196-3.902 22.985-12.797 7.48-13.897 13.75-28.336 17.628-43.589 3.168-12.457 4.92-25.271 7.392-37.91 4.25-21.728 3.58-43.732 4.337-65.7.445-12.888.903-26.359 8.697-37.753 1.474-2.155 3.542-4.315 5.841-5.42 8.448-4.054 17.283-6.756 26.849-6.794 9.106-.037 18.219-.95 27.315-.77 9.222.185 18.419 1.456 27.643 1.781 2.936.104 6.055-.965 8.865-2.071 7.167-2.824 6.118-9.829 6.305-15.26.563-16.313.312-32.66.128-48.99-.171-15.131-.624-30.26-1.037-45.386-.163-5.997-.972-12.002-.757-17.977.55-15.272.452-30.618 4.471-45.578 4.509-16.779 9.12-33.54 13.125-50.44 4.213-17.785-2.112-28.327-17.12-38.427-2.903-1.954-7.043-2.646-10.669-2.832-8.48-.433-17.014.163-25.487-.328-14.384-.832-28.78-1.922-42.7-6.08-1.701-.508-3.533-1.268-4.79-2.455-9.086-8.586-17.888-17.17-22.254-29.613-3.27-9.318-2.626-18.429-2.178-27.794.313-6.55.287-13.119.323-19.68.087-15.832.02-31.665.205-47.496.22-18.771.364-37.55 1.066-56.306.464-12.395.57-25.048 3.3-37.023 1.659-7.268 7.066-14.383 12.456-19.953 11.014-11.384 25.605-10.856 40.065-9.314.33.035.666.016 1 .032 15.05.698 30.12 1.14 45.15 2.16 19.903 1.353 39.774 3.167 59.662 4.757 1.491.12 3-.014 4.498.058 21.824 1.048 43.654 1.988 65.468 3.215 13.181.741 26.328 2.097 39.507 2.884 19.164 1.145 38.35 1.942 57.516 3.045 15.499.892 30.981 2.068 46.476 3.025 17.16 1.058 34.326 1.995 51.487 3.028 2.087.126 4.157.52 6.517.826l2.227-18.232 19.761 2.4-6.953 59.891-19.84-2.294 2.106-19.347c-6.823-.93-13.561-2.245-20.356-2.693-14.195-.938-28.429-1.274-42.63-2.121-19.938-1.19-39.855-2.71-59.792-3.91-9.428-.567-18.898-.462-28.318-1.112-16.11-1.111-32.194-2.587-48.292-3.877-1.656-.133-3.335.027-4.995-.078-20.764-1.31-41.525-2.65-62.289-3.966-5.773-.367-11.552-.644-17.323-1.03-19.595-1.31-39.181-2.753-58.783-3.942-14.031-.852-28.082-1.883-42.124-1.868-8.98.01-17.253 3.087-20.706 12.722-1.141 3.184-1.81 6.671-1.959 10.052-.368 8.383-.248 16.786-.438 25.178-.456 20.12-1.15 40.236-1.43 60.358-.351 25.38-.733 50.771-.254 76.142.092 4.866 3.665 9.93 6.41 14.426 5.661 9.273 15.29 11.568 25.132 12.386 12.847 1.068 25.76 1.329 38.63 2.142 6.89.436 14.106.22 20.522 2.305 5.557 1.806 10.779 5.836 15.092 9.982 5.554 5.34 11.135 11.189 14.754 17.875 5.408 9.991 7.6 21.164 4.686 32.62-3.303 12.984-7.362 25.793-10.21 38.871-2.7 12.4-4.939 24.985-6.13 37.607-1.2 12.693-1.16 25.532-1.119 38.306.065 19.652.44 39.307 1 58.952.257 9.06 1.674 18.095 1.769 27.149.056 5.34-1.794 10.672-2.156 16.05-.402 5.968-1.68 11.784-4.895 16.575-2.43 3.62-6.272 6.736-10.152 8.862-13.833 7.579-28.612 5.701-43.505 3.965-8.676-1.011-17.558-.46-26.34-.264-4.069.091-8.105 1.2-12.183 1.516-7.337.57-10.567 3.645-11.904 10.802-2.85 15.25-.894 30.478-1.727 45.678-.55 10.05-.732 20.173-2.151 30.11-1.445 10.121-4.238 20.047-6.377 30.07-1.532 7.177-2.698 14.442-4.492 21.55-2.89 11.447-6.465 22.672-12.276 33.069-1.728 3.09-2.813 6.542-4.56 9.62-6.742 11.883-15.016 22.255-28.34 27.327-1.187.451-2.503.747-3.767.778-3.998.099-8.017-.202-11.996.084-9.696.698-18.308-2.554-26.656-6.889-15.992-8.303-31.982-16.613-47.94-24.981-17.507-9.18-34.933-18.515-52.476-27.624-17.682-9.18-35.48-18.137-53.198-27.25-17.575-9.038-35.142-18.095-52.655-27.255-6.562-3.433-15.341-2.238-16.434 4.816-.639 4.125 1.389 8.896 2.99 13.08 2.274 5.937 8.622 7.36 13.412 10.22 12.391 7.397 25.173 14.138 37.77 21.193 12.422 6.958 24.805 13.989 37.214 20.971 10.528 5.924 21.022 11.91 31.615 17.716 15.59 8.544 31.26 16.942 46.886 25.42 11.79 6.398 23.609 12.748 35.338 19.257 15.948 8.851 32.17 17.038 48.985 24.229 20.17 8.626 39.806 18.511 59.598 28.009 18.941 9.09 37.807 18.339 56.662 27.606 8.796 4.322 17.411 9.016 26.247 13.252 14.83 7.11 29.859 13.808 44.638 21.018 12.882 6.284 25.468 13.172 38.307 19.545 17.145 8.508 34.397 16.8 51.624 25.14 14.012 6.786 28.033 13.554 42.092 20.241 9.59 4.562 19.095 9.355 28.916 13.362 15.43 6.297 30.954 12.423 46.706 17.846 11.207 3.86 22.852 6.447 34.304 9.596 7.792 2.143 15.515 4.61 23.404 6.306 6.393 1.375 13.01 1.67 19.484 2.718 6.382 1.033 12.683 2.561 19.065 3.597 5.998.973 12.082 1.42 18.082 2.387 25.036 4.037 50.284 3.493 75.444 2.756 16.573-.486 33.085-3.067 49.626-4.69 7.369-.722 14.778-1.145 22.107-2.154 8.58-1.182 17.196-2.415 25.61-4.41 14.9-3.534 29.743-7.371 44.45-11.637 10.516-3.051 20.878-6.728 31.116-10.632 15.373-5.861 30.906-11.467 45.764-18.468 16.517-7.783 32.459-16.821 48.45-25.677 9.587-5.31 19.013-10.983 28.103-17.101 10.035-6.755 19.563-14.26 29.387-21.335 10.018-7.213 20.127-14.3 30.458-21.693"/></svg>