<svg xmlns="http://www.w3.org/2000/svg" viewBox="0 0 1853 1058" xml:space="preserve"><path fill="#fff" d="M637.2 22.013c16.366.752 32.26 1.39 48.139 2.286 14.84.839 29.659 2.04 44.497 2.925 18.5 1.103 37.025 1.815 55.51 3.121 19.413 1.372 38.794 3.218 58.184 4.91 18.563 1.62 37.15 3.033 55.669 5.064 13.194 1.447 26.28 3.859 39.438 5.668 8.63 1.187 17.31 2.004 25.954 3.105 7.49.954 14.953 2.107 22.436 3.115 9.767 1.316 19.55 2.513 29.31 3.874 13.812 1.925 27.597 4.048 41.418 5.902 8.973 1.204 17.996 2.033 26.987 3.11 10.929 1.307 21.917 2.296 32.754 4.152 14.646 2.508 29.148 5.842 43.758 8.576 13.84 2.59 27.761 4.749 41.608 7.305 13.665 2.524 27.197 5.923 40.942 7.825 17.808 2.463 34.33 9.134 51.313 14.266 13.28 4.013 23.61 12.29 29.212 25.235 1.821 4.209 2.188 9.24 2.373 13.928.607 15.428.83 30.87 1.193 46.308.317 13.51.573 27.023.955 40.531.239 8.444.81 16.88.936 25.325.06 4.072 1.268 5.504 5.696 5.831 16.067 1.187 32.088 3.01 48.123 4.62 6.875.691 13.934.684 20.579 2.33 18.216 4.51 32.216 14.36 40.963 31.839 5.734 11.46 7.137 23.66 9.49 35.743 1.691 8.684 2.563 17.575 3.14 26.417 1.261 19.327 2.063 38.683 3.132 58.022.583 10.56 1.19 21.122 2.03 31.663 1.523 19.071 2.603 38.208 5.032 57.168 2.482 19.364 14.664 31.98 31.452 40.936 11.733 6.259 24.24 9.475 37.252 11.034 10.282 1.232 20.643 2.974 30.924 2.715 9.358-.235 18.682-2.723 27.975-4.465 12.88-2.415 22.032-11.196 31.783-18.957 12.32-9.806 20.563-22.863 28.863-35.872 10.018-15.702 20.615-31.089 29.681-47.327 7.678-13.75 14.523-28.154 19.966-42.922 8.538-23.164 15.73-46.831 23.209-70.376 4.532-14.27 8.54-28.706 12.766-43.072 4.505-15.317 8.585-30.774 13.618-45.914 3.686-11.09 8.665-21.748 12.962-32.64 2.255-5.715 3.9-11.699 6.502-17.241 4.205-8.957 8.505-17.933 13.612-26.39 7.96-13.179 29.458-18.017 41.558-9.377 8.516 6.08 13.117 13.343 11.46 25.52-1.435 10.535-6.892 18.461-10.604 27.515-6.237 15.211-13.448 30.066-18.889 45.55-5.597 15.93-9.592 32.425-14.24 48.687-3.313 11.589-6.33 23.267-9.865 34.786-5.541 18.05-11.178 36.077-17.228 53.961-3.43 10.136-8.258 19.803-11.592 29.965-9.203 28.047-25.61 52.321-40.891 77.008-11.393 18.403-25.658 35.03-38.686 52.417-7.536 10.056-14.787 20.36-22.866 29.964-5.572 6.624-12.255 12.333-18.6 18.283-7.029 6.592-14.134 13.11-21.387 19.453-23.465 20.518-49.421 37.552-75.472 54.537-15.256 9.946-29.545 21.38-44.212 32.222-7.256 5.363-14.378 10.908-21.57 16.358-14.772 11.191-29.53 22.4-44.33 33.554-21.213 15.986-42.255 32.21-63.745 47.814-22.39 16.257-45.197 31.938-67.872 47.798-21.727 15.196-43.581 30.21-65.257 45.478-12.443 8.764-24.649 17.866-36.937 26.848-.777.568-1.347 1.418-2.1 2.232l11.892 18.172-16.664 11.02-35.568-53.842 16.664-11.027 11.008 16.472c12.377-8.769 24.586-17.38 36.754-26.05 14.853-10.58 29.588-21.324 44.522-31.787 24.547-17.197 49.41-33.951 73.768-51.41 20.33-14.57 40.134-29.875 60.159-44.87 12.262-9.183 24.53-18.357 36.74-27.608 7.34-5.561 14.51-11.348 21.868-16.884 17.46-13.138 34.717-26.57 52.563-39.166 18.51-13.063 37.81-25.002 56.383-37.978 10.108-7.063 19.663-14.98 29.043-23.008 14.145-12.108 28.117-24.437 41.747-37.117 5.26-4.894 9.62-10.83 13.981-16.6 8.419-11.136 16.474-22.545 24.813-33.741 13.41-18.01 27.072-35.828 37.722-55.719 6.017-11.237 13.37-21.859 18.401-33.501 8.708-20.15 16.17-40.843 23.963-61.38a399 399 0 0 0 8.649-25.33c2.188-7.189 3.655-14.595 5.652-21.846 3.454-12.543 7.073-25.04 10.618-37.556 3.118-11.012 5.92-22.125 9.443-33.005 2.74-8.456 6.222-16.685 9.653-24.898 3.885-9.303 8.077-18.477 12.147-27.702 1.186-2.687 2.601-5.289 3.573-8.048a185 185 0 0 0 4.252-13.777c.206-.774-.755-2.602-1.4-2.72-1.831-.333-4.059-.627-5.63.118-7.017 3.327-10.164 10.021-12.959 16.627-4.332 10.24-8.229 20.668-12.123 31.086-3.852 10.307-7.488 20.694-11.187 31.057-2.935 8.223-6.172 16.36-8.645 24.721-3.41 11.53-6.118 23.263-9.335 34.852-2.074 7.473-4.6 14.818-6.777 22.264-3.79 12.961-6.903 26.151-11.331 38.887-5.504 15.827-11.89 31.357-18.227 46.88-3.018 7.394-6.417 14.69-10.317 21.654-8.51 15.197-17.108 30.366-26.319 45.142a645 645 0 0 1-26.76 39.607c-4.329 5.917-9.85 11.222-15.659 15.739-9.408 7.314-18.92 14.896-29.47 20.224-9.925 5.014-21 8.303-32.507 8.51-6.498.118-13-.058-19.5.038-15.59.23-30.786-1.982-45.654-6.738-5.379-1.72-11.377-1.95-16.367-4.36-18.235-8.807-35.408-19.304-45.357-37.934-2.935-5.496-4.718-11.781-6.07-17.917-3.881-17.595-4.77-35.494-5.29-53.492-.431-14.943-2.578-29.832-3.739-44.763-.386-4.97.184-10.011-.126-14.992-.85-13.665-1.895-27.318-2.946-40.97-.582-7.55-.661-15.223-2.155-22.601-2.533-12.51-3.268-25.654-10.882-36.688-5.809-8.416-13.77-13.274-23.932-14.57-15.28-1.948-30.545-4.03-45.839-5.872-5.404-.65-10.885-.636-16.309-1.154-5.385-.515-11.128-.357-15.988-2.304-3.824-1.532-7.538-5.298-9.489-9.02-2.197-4.193-2.549-9.42-3.336-14.256-.423-2.598-.031-5.322-.082-7.988-.656-34.549-1.284-69.099-2.02-103.646-.224-10.539-7.072-18.438-18.156-21.762-11.705-3.511-23.3-7.397-35.054-10.732-5.486-1.557-11.242-2.15-16.857-3.27-9.26-1.848-18.484-3.87-27.76-5.626-6.759-1.28-13.575-2.263-20.369-3.357-4.366-.703-8.777-1.186-13.101-2.085-10.397-2.164-20.72-4.685-31.14-6.72-5.611-1.097-11.39-1.303-17.039-2.245-7.569-1.262-15.055-3.033-22.631-4.24-7.128-1.137-14.337-1.757-21.493-2.733-7.946-1.083-15.867-2.34-23.807-3.47-8.45-1.202-16.912-2.318-25.362-3.517-8.907-1.264-17.806-2.582-26.709-3.87-.492-.07-.997-.06-1.49-.124-17.55-2.298-35.085-4.705-52.652-6.853-8.005-.979-16.092-1.27-24.104-2.198-7.47-.866-14.883-2.202-22.332-3.253a399 399 0 0 0-13.692-1.684c-12.58-1.33-25.165-2.6-37.748-3.893-.33-.034-.66-.087-.992-.106-11.704-.673-23.425-1.126-35.107-2.063-18.05-1.448-36.075-3.231-54.112-4.856-1.158-.104-2.33-.029-3.492-.1-21.76-1.322-43.515-2.689-65.277-3.95-3.987-.231-8.015.196-11.995-.088-12.165-.867-24.315-1.945-36.474-2.903-1.657-.13-3.337.046-4.996-.066-19.43-1.308-38.856-2.654-58.286-3.954-1.99-.133-4.005.077-5.997-.049-20.602-1.3-41.2-2.656-61.802-3.95-6.603-.415-13.221-.59-19.82-1.054-18.094-1.27-36.18-2.653-54.273-3.941-2.322-.165-4.67.07-6.997-.056-11.546-.629-23.091-1.873-34.63-1.81-9.562.051-18.065 3.298-21.764 13.503-.388 1.069-.88 2.17-.939 3.278-.72 13.378-1.736 26.754-1.95 40.142-.326 20.536.043 41.082-.124 61.622a3919 3919 0 0 1-1.023 62.322c-.173 7.197 3.212 12.724 6.916 18.388 6.192 9.468 16.001 11.12 25.9 11.974 12.842 1.11 25.763 2.172 38.627 1.944 20.095-.356 34.185 9.1 45.732 24.477 5.088 6.776 7.856 14.586 9.346 22.28 1.31 6.76-.582 14.385-2.124 21.395-2.528 11.498-6.257 22.73-8.854 34.214-2.837 12.548-6.713 24.906-6.58 38.048.118 11.657-.883 23.322-.835 34.982.084 20.151.443 40.306 1 60.45.256 9.226 1.665 18.426 1.77 27.647.065 5.684-1.003 11.456-2.181 17.058-1.188 5.645-2.165 11.72-5.062 16.5-2.37 3.91-7.09 6.834-11.356 9.075-13.16 6.913-27.261 4.537-41.276 3.598-9.497-.636-19.074-.207-28.612-.064-3.609.055-7.203.84-10.815.954-7.564.237-10.181 3.229-11.673 10.425-3.043 14.675-1.226 29.444-1.9 44.152-.49 10.72-.968 21.461-2.104 32.124-.683 6.414-2.733 12.673-3.964 19.042-1.735 8.982-2.98 18.069-5.009 26.98a121.4 121.4 0 0 1-5.898 18.709c-4.428 10.884-8.562 22.021-14.346 32.184-6.368 11.19-15.27 20.497-27.844 25.294-.3.115-.657.113-.989.115-6.235.05-12.477.287-18.704.087-7.814-.252-14.83-3.326-21.647-6.873-16.568-8.62-33.15-17.214-49.693-25.88-16.913-8.86-33.732-17.904-50.696-26.667-16.799-8.678-33.776-17.01-50.585-25.668-18.281-9.415-36.495-18.962-54.666-28.588-7.678-4.067-16.121-2.65-17.707 6.089-.774 4.268 3.85 13.971 7.888 16.238 19.673 11.044 39.39 22.012 59.041 33.096 11.302 6.375 22.425 13.07 33.773 19.359 18.166 10.066 36.478 19.868 54.674 29.88 8.62 4.742 17.024 9.884 25.689 14.542 18.368 9.874 36.583 20.09 55.346 29.162 20.687 10.001 41.983 18.735 62.883 28.308 9.668 4.428 18.983 9.62 28.53 14.32 18.156 8.936 36.387 17.72 54.542 26.658 15.74 7.75 31.402 15.66 47.13 23.437 15.45 7.64 30.936 15.201 46.409 22.792 17.033 8.356 34.02 16.808 51.118 25.03 17.412 8.373 34.935 16.512 52.406 24.763 7.662 3.619 15.18 7.583 23.003 10.811 10.122 4.177 20.487 7.762 30.737 11.629 7.445 2.808 14.762 6.014 22.339 8.4 9.174 2.89 18.572 5.062 27.851 7.624 4.953 1.368 9.78 3.316 14.804 4.275 9.647 1.842 19.408 3.075 29.091 4.738 6.253 1.074 12.422 2.64 18.682 3.664 5.995.982 12.089 1.363 18.086 2.334 23.707 3.84 47.61 3.403 71.45 2.794 15.286-.39 30.528-2.467 45.79-3.795 3.775-.329 7.56-.578 11.318-1.05 9.74-1.226 19.492-2.395 29.193-3.886 9.869-1.518 19.766-3.026 29.496-5.225 8.07-1.823 15.934-4.583 23.855-7.038 11.596-3.594 23.394-6.69 34.686-11.077 16.943-6.584 33.579-13.976 50.234-21.278 8.556-3.752 16.871-8.055 25.643-12.277l11.363 19.158c-11.898 5.854-23.33 11.633-34.9 17.117-7.483 3.546-15.047 6.987-22.792 9.898-14.008 5.264-28.095 10.347-42.306 15.03-12.04 3.97-24.231 7.541-36.492 10.77-8.525 2.245-17.347 3.34-25.92 5.425-17.978 4.375-36.327 5.578-54.667 6.99-12.343.95-24.663 2.426-37.022 2.89-18.595.699-37.218 1.055-55.823.862-7.479-.077-14.937-2.005-22.408-3.069-8.6-1.225-17.211-2.381-25.806-3.65-12.166-1.796-24.48-2.968-36.441-5.685-14.721-3.345-29.004-8.627-43.73-11.936-17.63-3.961-33.912-11.352-50.455-18.08-19.11-7.772-38.175-15.734-56.843-24.5-22.635-10.632-44.766-22.332-67.243-33.309-22.632-11.053-45.47-21.687-68.125-32.693-16.883-8.202-33.645-16.656-50.413-25.092-12.473-6.275-24.732-12.993-37.335-18.99-18.013-8.571-36.3-16.565-54.386-24.985-22.85-10.64-45.933-20.845-68.331-32.374-22.563-11.613-44.35-24.724-66.584-36.986-26.359-14.539-52.93-28.695-79.225-43.348-22.354-12.456-44.6-25.125-66.572-38.238-8.046-4.802-11.698-13.301-13.895-22.238-.702-2.855-1.777-5.726-1.85-8.61-.425-16.813 9.372-31.62 28.644-32.78 9.778-.589 18.05 1.931 26.508 6.813 14.046 8.107 28.825 14.94 43.264 22.369 18.713 9.628 37.383 19.339 56.094 28.968 24.719 12.72 49.441 25.431 74.2 38.073 11.44 5.841 22.923 11.604 34.472 17.228 11.623 5.661 22.224 3.234 29.318-7.924 6.57-10.335 12.505-21.152 15.504-33.307 1.67-6.765 4.523-13.242 6.125-20.02 1.687-7.137 2.302-14.52 3.765-21.72 3.478-17.12 5.556-34.365 6.008-51.85.377-14.556.916-29.132 2.128-43.637 1.29-15.42 11.776-25.418 27.965-27.827 19.124-2.846 38.335-2.778 57.487-.79 6.011.623 11.659 1.024 17.357-1.174 3.826-1.476 5.696-4.252 5.948-8.19.422-6.595.976-13.193 1.063-19.795.153-11.497.22-23.005-.098-34.496-.351-12.723-1.73-25.436-1.66-38.147.102-18.62 1.114-37.236 1.7-55.855.568-18.062 7.086-34.769 11.667-51.927 2.015-7.546 3.868-15.175 5.112-22.876 1.212-7.501-1.409-14.223-6.226-20.04-4.178-5.047-8.008-10.568-14.95-12.21-2.844-.672-5.715-1.547-8.601-1.67-12.769-.54-25.597-.285-38.308-1.405-9.89-.872-19.655-3.267-29.436-5.19-1.674-.329-3.369-1.439-4.676-2.61-9.638-8.626-18.7-17.747-22.36-30.69-1.044-3.691-1.962-7.563-2.014-11.364-.21-15.407-.175-30.82-.01-46.227.138-12.787.653-25.569.88-38.355.4-22.64.483-45.287 1.177-67.917.256-8.346.424-17.167 3.18-24.858 4.485-12.51 17.068-28.228 34.233-27.424 13.033.611 26.134-.236 39.167.368 20.293.942 40.555 2.565 60.83 3.899 15.016.987 30.028 2.064 45.051 2.936 14.05.816 28.13 1.192 42.168 2.164 19.582 1.356 39.138 3.086 59.183 4.657"/></svg>