<svg xmlns="http://www.w3.org/2000/svg" viewBox="0 0 1951 855" xml:space="preserve"><path fill="#fff" d="M1384.276 705.201c-5.153 3.745-10.006 7.28-14.867 10.805-10.963 7.952-21.921 15.913-32.907 23.835-1.54 1.112-3.224 2.026-5.171 3.236l11.92 19.602-16.978 10.521-35.56-57.87 17.02-10.472 12.353 19.945c3.976-2.76 7.829-5.374 11.62-8.076 13.87-9.884 27.765-19.732 41.559-29.722 8.534-6.18 16.802-12.73 25.367-18.864 11.339-8.122 22.903-15.929 34.274-24.006 10.57-7.507 20.82-15.474 31.554-22.733 17.987-12.163 35.048-25.43 50.944-40.23 4.943-4.602 10.887-8.215 15.411-13.16 4.89-5.345 10.114-10.43 8.72-19.564a241.3 241.3 0 0 0-12.669-48.587c-3.76-10.036-9.905-19.873-7.55-31.47.462-2.275 1.493-4.448 2.386-6.617 3.603-8.748 11.706-12.346 19.208-16.577 3.26-1.837 6.81-3.174 10.005-5.106 13.692-8.281 28.941-7.696 43.776-6.542 14.262 1.11 27.713 6.162 39.765 14.382 8.395 5.726 17.018 11.118 25.508 16.708 10.41 6.855 15.652 6.465 25.375-1.422 6.011-4.875 12.432-9.244 18.49-14.064 10.27-8.172 20.555-16.338 30.546-24.843 11.021-9.383 21.59-19.296 32.59-28.703 12.75-10.902 22.245-24.517 32.19-37.762 13.123-17.479 26.417-34.846 38.985-52.72 7.035-10.006 12.893-20.856 19.015-31.48 4.886-8.479 10.14-16.87 13.875-25.863 8.44-20.32 16.134-40.952 23.943-61.529 3.18-8.38 6.214-16.845 8.693-25.451 2.893-10.04 4.897-20.336 7.731-30.395.97-3.437 2.14-6.283-.777-9.327-2.686-2.803-5.647-3.769-7.88-.339-2.8 4.303-5.205 9.014-6.89 13.86-2.515 7.232-4.21 14.747-6.33 22.12-3.232 11.24-6.191 22.574-9.885 33.662-4.154 12.47-8.615 24.868-13.64 37.01-5.295 12.794-10.96 25.482-17.312 37.778-5.271 10.202-11.54 19.918-17.787 29.578-10.785 16.679-21.581 33.37-33.036 49.587-4.218 5.972-9.85 11.216-15.661 15.73-9.41 7.31-18.939 14.85-29.47 20.227-9.88 5.044-20.969 8.11-32.396 8.409-6.662.174-13.333-.026-19.999.043-15.411.158-30.196-3.277-45.221-6.341-13.473-2.748-25.047-8.551-36.028-15.72-15.059-9.828-26.187-23.169-31.914-40.732-2.644-8.109-5.193-15.873-5.085-24.7.164-13.449 4.33-25.288 13.764-34.2 10.184-9.621 21.717-17.877 33.04-26.213 14.684-10.81 29.702-21.169 44.65-31.615 12.915-9.024 26.04-17.751 38.857-26.91 5.56-3.972 11.484-7.988 15.63-13.255 5.487-6.969 7.573-15.418 3.551-24.283-1.79-3.948-2.815-8.442-5.35-11.813-6.073-8.068-15.585-9.716-24.767-11.124-9.57-1.468-19.288-1.93-28.9-3.156-9.912-1.263-19.772-2.934-29.66-4.394-5.678-.838-11.352-1.741-17.054-2.381-7.522-.845-15.086-1.327-22.603-2.21-8.464-.995-16.889-2.318-25.343-3.397-9.775-1.247-19.573-2.317-29.345-3.588-8.278-1.077-16.524-2.397-24.8-3.486-7.008-.922-14.02-1.938-21.062-2.439-16.475-1.17-32.977-1.969-49.457-3.08-18.261-1.232-36.526-2.459-54.76-4.031-16.224-1.4-32.39-3.464-48.614-4.865-11.68-1.008-23.41-1.498-35.124-2.057-15.874-.756-31.762-1.219-47.63-2.064-15.333-.817-30.643-2.034-45.971-2.935-13.209-.777-26.43-1.331-39.643-2.032-11.881-.63-23.758-1.339-35.638-1.987-12.544-.685-25.094-1.258-37.633-2.027-14.826-.91-29.63-2.2-44.465-2.92-18.537-.902-37.093-1.402-55.642-2.054-19.381-.68-38.764-1.314-58.144-2.01-17.714-.635-35.43-1.254-53.139-2.018-12.553-.54-25.096-1.335-37.646-1.968-7.605-.384-15.213-.734-22.823-.995-20.38-.7-40.76-1.574-61.147-1.882-6.758-.102-13.256 1.737-18.083 7.406-3.508 4.119-3.988 9.145.298 12.495 5.562 4.348 12.011 7.574 17.495 12.005 4.908 3.965 9.83 8.397 13.156 13.633 1.72 2.706.695 7.799-.315 11.477-2.976 10.842-11.421 17.762-19.329 24.895-10.261 9.255-20.775 18.23-31.1 27.418-15.945 14.19-31.825 28.453-47.727 42.692-3.444 3.084-6.5 6.8-10.39 9.135-4.267 2.561-9.144 4.534-14.01 5.592-18.62 4.046-37.44 2.241-56.215 1.152-7.27-.421-14.546-.927-21.823-.983-18.165-.141-36.334.142-54.496-.126-9.115-.135-16.646-3.992-23.883-9.89-6.499-5.295-9.319-11.92-11.765-19.183-.562-1.668-.732-3.538-.734-5.316-.041-33.5.008-66.998-.075-100.497-.011-4.577.389-9.57-1.267-13.605-1.51-3.68-5.105-8.24-8.566-9.048-9.035-2.11-18.502-3.164-27.793-3.145-8.104.017-16.284 1.68-24.284 3.33-8.477 1.749-17.004 3.742-25.084 6.765-5.873 2.197-11.064 6.226-16.542 9.467-19.353 11.448-36.404 25.926-53.293 40.604-11.96 10.394-24.443 20.067-38.913 26.72-5.427 2.495-11.33 3.962-17.03 5.856-1.699.565-3.422 1.104-5.174 1.459-6.09 1.234-12.165 3.15-18.307 3.425-22.698 1.012-45.417 1.636-68.134 2.08-15.405.3-30.827.345-46.229-.028-14.402-.348-25.462 5.773-32.868 17.419-6.544 10.29-11.386 21.651-17.214 32.412-5.93 10.948-12.194 21.714-18.227 32.606-10.808 19.514-21.564 39.057-32.316 58.602-2.28 4.143-4.35 8.402-6.693 12.508-3.018 5.29-2.31 9.71 2.99 12.553 8.724 4.68 17.292 10.431 26.672 12.922 12.721 3.377 25.317 7.893 38.97 7.844 8.74-.031 17.471 2.45 26.236 3.577 7.015.903 14.087 1.353 21.111 2.2 12.543 1.512 25.074 3.135 37.6 4.786a302 302 0 0 1 14.033 2.197c5.021.905 7.322 3.619 9.189 8.905 3.933 11.136-.5 20.297-4.4 29.764-5.12 12.43-10.598 24.714-16.004 37.026-1.636 3.725-3.722 7.257-5.289 11.008-3.05 7.304.595 17.153 7.532 21.144 23.375 13.447 46.635 27.1 70.13 40.335 14.074 7.928 28.555 15.13 42.757 22.836 14.06 7.63 27.951 15.571 42 23.221 17.874 9.732 35.785 19.397 53.77 28.92 11.054 5.854 22.133 11.698 33.46 16.994 15.432 7.217 31.183 13.749 46.658 20.88 10.104 4.656 19.934 9.904 29.93 14.8 16.118 7.893 32.288 15.68 48.404 23.576 17.196 8.424 34.358 16.918 51.53 25.39 17.67 8.717 35.332 17.447 53.001 26.164 15.114 7.458 30.22 14.93 45.354 22.351 13.831 6.782 27.56 13.798 41.576 20.175 16.968 7.72 34.134 15.018 51.328 22.229 10.061 4.22 20.204 8.34 30.564 11.732 11.158 3.654 22.625 6.356 33.932 9.567 5.921 1.682 11.706 3.927 17.698 5.263 7.185 1.602 14.522 2.528 21.8 3.706 8.046 1.303 16.085 2.66 24.153 3.808 8.294 1.181 16.633 2.038 24.927 3.217 22.306 3.17 44.75 2.184 67.12 1.783 13.947-.25 27.857-2.464 41.788-3.734 4.931-.45 9.906-.497 14.812-1.116 8.595-1.084 17.167-2.38 25.722-3.754 5.655-.909 11.314-1.898 16.884-3.217 11.693-2.77 23.408-5.505 34.968-8.768 12.312-3.475 24.685-6.944 36.616-11.504 15.27-5.837 30.15-12.7 45.148-19.24 9.164-3.997 18.23-8.215 27.875-12.575l11.791 17.851c-11.723 5.75-22.97 11.504-34.426 16.805-8.735 4.042-17.669 7.681-26.64 11.18-8.221 3.205-16.576 6.084-24.936 8.92-8.359 2.834-16.713 5.74-25.219 8.07-13.022 3.57-26.145 6.787-39.278 9.93-7.39 1.77-14.87 3.195-22.345 4.58a236 236 0 0 1-15.926 2.393c-12.35 1.424-24.718 2.69-37.08 4.01-.66.07-1.332.043-1.998.06-25.688.657-51.375 1.627-77.066 1.783-7.867.048-15.737-2.21-23.624-3.274-6.955-.939-13.95-1.586-20.903-2.544-9.2-1.268-18.373-2.722-27.56-4.081-6.59-.974-13.214-1.752-19.763-2.942-4.597-.835-9.145-2.046-13.627-3.385-11.418-3.414-22.843-6.823-34.157-10.559-9.289-3.066-18.462-6.495-27.615-9.952-13.053-4.93-26.214-9.634-39.009-15.172-12.65-5.476-24.9-11.876-37.334-17.856-18.162-8.735-36.375-17.364-54.477-26.221-8.665-4.24-17.058-9.03-25.69-13.339-13.776-6.874-27.646-13.559-41.479-20.316-14.41-7.04-28.833-14.05-43.233-21.11-20.756-10.173-41.395-20.594-62.274-30.508-19.925-9.46-40.208-18.165-60.122-27.645-20.765-9.886-41.491-19.895-61.847-30.588-25.44-13.365-50.491-27.472-75.7-41.279-20.638-11.303-41.328-22.516-61.868-33.995-13.49-7.54-26.736-15.513-40.128-23.228-8.652-4.985-17.87-9.164-25.912-14.98-7.27-5.256-11.852-13.085-13.396-22.277-.241-1.438-.46-2.907-.943-4.272-3.031-8.551.914-15.962 4.118-23.294 6.745-15.438 13.953-30.674 20.913-46.02 3.204-7.061 2.231-8.24-5.095-9.076-10.825-1.234-21.567-3.19-32.376-4.587-5.54-.716-11.18-.653-16.725-1.347-14.72-1.843-29.363-4.554-44.131-5.694-14.075-1.086-27.183-5.668-40.452-9.524-6.786-1.972-12.779-6.667-19.138-10.118-2.116-1.148-4.186-2.42-6.398-3.345-10.618-4.438-13.03-14.68-14.108-23.872-.695-5.927 3.574-12.828 6.681-18.733 8.772-16.666 18.089-33.044 27.197-49.533 7.423-13.439 14.896-26.85 22.27-40.315 7.805-14.25 15.365-28.635 23.32-42.8 6.044-10.76 14.44-19.199 26.13-23.872 5.473-2.188 10.978-4.305 16.525-6.293 1.498-.536 3.207-.671 4.819-.673 30.197-.039 60.396.156 90.591-.124 11.864-.11 23.846-.412 35.541-2.176 11.536-1.74 22.522-5.843 32.92-11.683 13.097-7.355 23.179-18.335 34.965-27.231 12.997-9.81 25.769-19.919 38.86-29.597 6.422-4.746 13.03-9.447 20.14-12.992 5.961-2.971 12.731-4.384 19.219-6.221 9.906-2.806 19.844-5.518 29.84-7.98 3.295-.812 6.815-1.042 10.224-.99 9.417.145 18.867.185 28.23 1.052 5.227.484 10.383 2.307 15.418 3.982 2.039.678 3.952 2.32 5.439 3.96 4.48 4.943 9.388 9.697 12.802 15.329 2.014 3.322 1.572 8.16 2.12 12.332.448 3.405 1.025 6.83 1.033 10.248.078 32.498.24 65-.073 97.495-.09 9.398 8.288 16.5 16.654 16.57 30.957.256 61.913.599 92.868 1.013 7.602.101 15.216 1.062 22.792.782 8.488-.314 16.06-2.551 22.843-8.959 15.867-14.99 32.647-29.013 49.04-43.447a2905 2905 0 0 0 18.084-16.078c6.506-5.824 13.104-11.554 19.405-17.593 2.487-2.383 4.282-5.488 6.777-8.77-5.789-3.726-11.446-7.557-17.288-11.083-9.094-5.49-15.987-13.133-16.548-23.725-.4-7.544-.006-15.918 6.747-22.041 5.117-4.64 8.925-10.768 16.1-12.872 13.987-4.102 28.047-5.317 42.653-3.481 10.968 1.378 22.176.835 33.277 1.164 23.025.68 46.05 1.324 69.073 2.074 18.194.594 36.392 1.143 54.571 2.059 11.865.597 23.686 2.04 35.55 2.677 8.148.438 16.346-.094 24.504.242 9.362.386 18.694 1.525 28.056 1.837 10.34.345 20.721-.313 31.042.245 18.228.984 36.417 2.655 54.636 3.832 5.836.377 11.73-.174 17.568.185 10.656.654 21.289 1.675 31.932 2.532q2.468.2 4.943.3c17.191.698 34.387 1.295 51.572 2.112 10.023.476 20.025 1.385 30.046 1.946 13.52.757 27.072 1.07 40.569 2.115 17.17 1.329 34.281 3.4 51.449 4.769 12.82 1.022 25.707 1.212 38.534 2.182 13.897 1.052 27.756 2.607 41.637 3.885 4.592.423 9.197.716 13.8.987 11.851.7 23.727 1.097 35.551 2.097 11.883 1.005 23.712 2.627 35.572 3.91 9.776 1.059 19.575 1.91 29.34 3.055 7.11.833 14.178 2.02 21.271 3.002 7.423 1.028 14.857 1.982 22.281 3 11.623 1.593 23.235 3.265 34.864 4.802 6.319.835 12.664 1.471 18.999 2.176 9.104 1.013 18.213 1.981 27.315 3.015 11.527 1.308 23.091 2.38 34.55 4.136 4.67.716 9.045 3.19 13.663 4.47 12.952 3.589 20.909 13.33 25.75 24.434 5.36 12.292 7.623 25.646 2.161 39.332-3.282 8.223-7.343 15.554-14.113 21.127-5.332 4.39-11.025 8.362-16.703 12.31-13.493 9.385-27.106 18.598-40.609 27.97-11.469 7.961-22.959 15.899-34.24 24.12-11.092 8.085-22.096 16.31-32.82 24.872-6.214 4.962-8.733 11.829-8.732 19.968.005 25.184 12.577 41.632 33.993 53.646 8.999 5.047 18.445 8.12 27.924 10.116 15.349 3.23 31.102 6.192 46.955 4.352 8.277-.96 16.336-3.713 24.534-5.466 12.013-2.57 20.185-11.21 29.233-18.39 19.37-15.37 29.76-37.602 43.275-57.426 5.175-7.59 10.14-15.377 14.51-23.448 5.122-9.457 9.64-19.253 14.144-29.029 4.355-9.453 8.75-18.92 12.41-28.652 3.845-10.228 6.875-20.764 10.192-31.188 2.244-7.054 4.504-14.108 6.512-21.231 2.619-9.291 4.59-18.783 7.576-27.949 3.89-11.937 9.303-23.043 22.618-27.233 6.676-2.1 13.275-1.12 19.449 1.969 5.839 2.921 10.343 6.432 13.29 13.289 3.85 8.958 2.776 16.504-.014 25.091-3.183 9.798-4.82 20.087-7.57 30.04-1.954 7.071-4.527 13.98-7.024 20.888-3.53 9.77-7.137 19.516-10.908 29.196-5.922 15.2-11.466 30.584-18.214 45.414-4.453 9.785-10.723 18.744-16.208 28.057-4.164 7.07-8.061 14.324-12.638 21.118-6.168 9.156-12.86 17.96-19.355 26.894-4.819 6.629-9.601 13.287-14.545 19.821-8.389 11.087-16.123 22.8-25.531 32.953-13.288 14.341-27.09 28.408-42.047 40.95-20.639 17.306-42.699 32.905-63.854 49.61-7.027 5.548-15.162 7.942-23.408 9.346-3.925.668-8.898-1.772-12.69-4.004-8.348-4.911-16.138-10.761-24.36-15.899-8.063-5.038-15.88-11.19-24.712-14.097-11.411-3.755-23.588-4.633-35.955-2.992-11.002 1.46-18.916 8.57-28.334 12.863-5.414 2.468-3.355 7.326-1.94 10.556 7.06 16.126 12.151 32.828 15.773 49.995 1.631 7.728 2.698 15.574 4.067 23.359 1.415 8.05-2.91 14.435-7.247 20.01-5.484 7.05-12.292 13.143-18.94 19.197-10.229 9.316-20.626 18.468-31.3 27.268-7.652 6.308-15.801 12.025-23.856 17.829-12.48 8.993-25.062 17.846-37.615 26.739-7.842 5.555-15.734 11.04-23.559 16.618-11.658 8.313-23.276 16.68-35.209 25.24"/></svg>