<svg xmlns="http://www.w3.org/2000/svg" viewBox="0 0 1852 1265" xml:space="preserve"><path fill="#fff" d="M1382 1193.078c116.664-.024 232.829-.099 348.993.032 8.621.01 16.255-3.029 24.048-5.653 11.74-3.954 21.097-11.595 28.435-21.36 3.88-5.162 7.301-11.013 9.406-17.081 2.571-7.412 4.876-15.367 4.945-23.108.17-19.17-5.886-36.51-17.979-51.773-15.91-20.083-31.3-40.579-47.033-60.803-13.778-17.71-27.812-35.221-41.562-52.953-10.326-13.317-20.307-26.902-30.578-40.263-12.737-16.57-25.658-33-38.418-49.553-10.457-13.564-20.742-27.26-31.202-40.822-9.765-12.66-19.673-25.21-29.497-37.826-9.33-11.983-18.669-23.96-27.936-35.99-10.883-14.128-21.703-28.305-32.532-42.475-12.818-16.772-25.425-33.71-38.498-50.28-7.327-9.289-13.122-19.216-16.606-30.526-4.589-14.894-4.143-29.926-1.094-44.945 1.281-6.306 2.955-12.636 5.395-18.567 1.692-4.112 4.765-7.747 7.62-11.273 13.6-16.795 27.258-33.545 41.046-50.187a7066 7066 0 0 1 45.898-54.827c13.941-16.483 28.106-32.776 42.088-49.223 16.46-19.36 32.946-38.7 49.181-58.246 6.874-8.276 13.458-16.836 19.603-25.664 7.905-11.356 10.262-23.848 8.681-37.89-1.98-17.583-12.529-30.214-21.873-43.711-5.514-7.965-11.445-15.64-17.169-23.46-10.192-13.925-20.456-27.8-30.53-41.811a5375 5375 0 0 1-35.91-50.563c-7.226-10.298-17.081-17.758-26.83-25.304-10.245-7.928-22.649-11.104-34.912-13.67-8.309-1.738-17.13-1.417-25.718-1.369-38.6.214-77.204.367-115.79 1.256-8.264.19-16.553 3.012-24.668 5.217-16.615 4.515-30.403 13.755-43.458 24.938-8.742 7.489-12.748 17.514-18.4 26.632-4.606 7.43-7.696 15.837-11.116 23.954-4.822 11.445-9.264 23.048-13.987 34.536-5.87 14.28-11.88 28.502-17.792 42.764-5.82 14.038-11.59 28.097-17.39 42.143-6.87 16.63-13.564 33.338-20.689 49.858-5.355 12.419-10.875 24.799-17.029 36.834-9.966 19.49-19.9 39.046-31.03 57.876-7.4 12.523-16.27 24.318-25.564 35.545-8.632 10.428-18.257 20.148-28.239 29.317a802 802 0 0 1-42.022 35.997c-9.22 7.365-19.121 14.032-29.317 19.984-17.135 10-34.397 19.912-52.266 28.483-14.918 7.155-30.693 12.583-46.262 18.303-9.352 3.435-18.92 6.456-28.605 8.765-10.107 2.41-20.419 4.172-30.738 5.42-10.289 1.244-20.712 1.326-31.05 2.228-15.188 1.325-26.944-5.845-37.902-14.966-6.913-5.754-14.218-11.167-18.988-19.08-4.892-8.117-10.251-15.875-10.231-26.109.028-14.346.056-28.548 5.02-42.34 3.768-10.469 6.849-21.187 10.179-31.811 3.327-10.614 6.586-21.25 9.871-31.877 2.572-8.32 5.119-16.649 7.715-24.962 2.74-8.771 5.563-17.517 8.28-26.295 2.765-8.938 5.655-17.844 8.111-26.868 3.42-12.563 5.306-25.054 3.514-38.42-1.47-10.959-6.766-19.342-12.768-27.525-3.844-5.24-9.308-9.352-14.296-13.683-7.923-6.88-16.197-13.36-24.059-20.306-8.972-7.93-18.23-15.655-26.323-24.43-10.644-11.542-20.17-24.108-30.363-36.075-15.093-17.721-26.457-37.877-36.102-58.762-6.48-14.032-12-28.79-14.724-44.307-1.703-9.711-2.905-19.724-6.332-28.85-2.658-7.08-7.853-13.487-12.942-19.298a49.56 49.56 0 0 0-21.3-14.298c-3.793-1.303-7.55-3.161-11.453-3.598-7.555-.846-15.273-1.66-22.793-.998-7.324.645-14.693 2.545-21.673 4.962-15.828 5.482-27.132 16.743-34.083 31.52-3.925 8.345-5.433 17.932-7.325 27.104-3.28 15.907-6.135 31.906-8.931 47.907-1.654 9.464-2.7 19.032-4.294 28.508-1.86 11.064-4.051 22.072-6.039 33.116-2.65 14.725-5.174 29.473-7.881 44.187-1.876 10.195-4.153 20.319-5.92 30.532-1.888 10.916-3.226 21.927-5.102 32.846-1.95 11.349-4.331 22.623-6.373 33.958-1.04 5.774-1.6 11.634-2.637 17.408-2.241 12.468-3.526 25.264-7.33 37.25-3.344 10.544-6.832 21.519-14.599 30.18-9.928 11.07-22.152 17.227-36.94 19.57-15.773 2.499-29.369-2.483-40.682-12.025-7.705-6.498-13.358-15.776-16.319-26.018-1.748-6.048-3.51-12.094-5.365-18.11-2.797-9.07-5.703-18.104-8.52-27.166-4.253-13.687-8.578-27.354-12.667-41.09-3.317-11.139-6.261-22.388-9.511-33.547-1.574-5.404-3.5-10.703-5.215-16.067-2.897-9.065-5.79-18.133-8.616-27.221-4.262-13.715-8.46-27.45-12.695-41.173-2.427-7.865-4.711-15.78-7.349-23.573-5.795-17.127-15.75-30.219-33.339-37.276-10.574-4.243-21.08-7.214-32.295-5.899-9.156 1.074-18.21 3.205-27.227 5.232-10.407 2.339-20.82 4.745-31.055 7.729-12.529 3.652-24.912 7.82-37.288 11.978-9.324 3.132-18.756 6.096-27.753 10.022-16.679 7.277-29.313 19.427-35.852 36.325-2.833 7.32-2.42 16.2-2.141 24.326.237 6.899 2.128 13.798 3.777 20.578 2.29 9.414 5.042 18.715 7.588 28.067 3.479 12.777 6.888 25.573 10.446 38.327 2.386 8.554 5.076 17.023 7.456 25.578 3.593 12.916 6.911 25.91 10.576 38.805 3.344 11.77 7.112 23.419 10.472 35.184 2.66 9.315 4.87 18.757 7.488 28.084 3.349 11.935 6.977 23.792 10.35 35.72 3.3 11.665 6.413 23.383 9.64 35.068 2.744 9.93 5.554 19.843 8.3 29.773 2.583 9.343 5.113 18.7 7.68 28.048 2.093 7.628 3.972 15.325 6.361 22.86 4.332 13.664 9.076 27.197 13.451 40.848 3.387 10.566 11.343 17.6 18.544 25.369 13.062 14.092 30.944 20.412 46.96 29.669 16.174 9.348 32.926 17.698 49.45 26.44 23.19 12.27 46.322 24.651 69.638 36.676 11.04 5.694 22.225 11.216 31.326 19.728 8.906 8.33 16.08 17.892 20.622 29.68 4.144 10.755 7.54 21.535 7.424 32.936-.101 9.9-1.264 19.78-3.908 29.54-4.57 16.873-15.12 29.652-26.227 42.405-10.013 11.499-23.357 17.802-36.22 24.868-15.963 8.77-32.217 17.01-48.333 25.503-11.69 6.16-23.354 12.37-35.04 18.539-24.385 12.874-48.847 25.606-73.139 38.654-13.957 7.497-27.895 15.088-41.394 23.368-20.802 12.76-34.048 31.997-41.95 54.508-3.265 9.3-3.892 19.643-1.047 30.009 5.608 20.439 17.195 36.143 34.896 47.368 7.674 4.867 15.965 8.212 25.436 8.268 33.924.202 67.847.644 101.77 1.03 24.299.276 48.596.857 72.894.873 143.183.096 286.366.065 429.55.078h5.239v25.935h-5.047c-96.498-.034-192.996-.014-289.494-.145-20.095-.027-40.19-.84-60.285-.9-47.674-.146-95.348.02-143.021-.104-17.275-.046-34.547-.663-51.823-.832-15.037-.147-30.083.232-45.113-.12-10.871-.254-21.822-.675-32.541-2.305-5.385-.82-10.653-3.996-15.408-7.002-8.19-5.177-16.53-10.396-23.686-16.842-5.858-5.278-10.839-11.927-14.843-18.767-5.027-8.585-10.348-17.613-12.453-27.133-2.451-11.079-2.94-23.031-1.833-34.365 2.339-23.94 15.812-42.764 30.927-60.537 11.08-13.029 25.177-21.936 39.901-30.05 15.636-8.617 31.233-17.31 46.993-25.697 15.479-8.237 31.197-16.024 46.705-24.209 16.238-8.57 32.297-17.477 48.533-26.051 13.53-7.145 27.318-13.808 40.77-21.092 8.79-4.76 17.84-9.428 25.597-15.61 10.366-8.262 18.925-19.031 23.274-31.396 9.04-25.7 5.722-50.08-13.73-70.48-4.495-4.714-10.632-8.069-16.436-11.286-16.088-8.92-32.38-17.474-48.63-26.102-12.654-6.719-25.393-13.278-38.043-20.006-15.812-8.411-31.58-16.906-47.349-25.398-8.944-4.817-17.684-10.05-26.824-14.456-8.663-4.176-15.435-10.466-21.894-17.266-5.794-6.1-12.57-11.621-16.943-18.627-5.222-8.364-9.026-17.806-12.217-27.198-4.404-12.962-7.609-26.33-11.423-39.496-5.12-17.678-10.383-35.314-15.49-52.996-4.437-15.36-8.836-30.732-13.078-46.147-3.251-11.813-6.085-23.741-9.369-35.545-4.854-17.45-9.993-34.821-14.914-52.253-3.42-12.116-6.596-24.3-10.038-36.41-2.692-9.47-5.745-18.836-8.418-28.31-3.291-11.668-6.303-23.414-9.534-35.099-2.618-9.468-5.028-19.014-8.15-28.318-8.019-23.895-12.279-48.36-9.543-73.46C31.458 208.86 36.44 199.49 43.01 191.3c7.484-9.33 14.946-18.498 25.263-25.14 10.738-6.914 22.37-11.343 34.397-15.156 7.548-2.393 14.889-5.437 22.432-7.846 9.047-2.888 18.173-5.549 27.335-8.054 9.191-2.513 18.422-4.92 27.72-6.995 10.121-2.26 20.27-4.66 30.54-5.915 7.761-.949 15.734-.327 23.607-.164 8.631.18 16.417 3.658 24.03 7.185 7.44 3.446 15.196 6.801 21.56 11.793 5.652 4.433 9.896 10.829 14.213 16.757 9.966 13.686 14.954 29.493 19.122 45.703 2.198 8.547 5.835 16.713 8.408 25.176 3.327 10.938 6.12 22.037 9.371 33 2.476 8.349 5.416 16.56 7.952 24.893 3.433 11.278 6.651 22.62 10.012 33.92 1.748 5.878 3.59 11.727 5.416 17.58 3.493 11.195 6.985 22.39 10.512 33.573 3.575 11.334 7.801 22.508 10.565 34.034 1.712 7.138 5.237 12.802 9.43 18.388 3.53 4.703 15.848 8.497 21.43 7.06 7.527-1.936 15.11-4.28 19.617-10.772 3.897-5.612 6.894-12.14 8.917-18.688 2.474-8.008 3.58-16.445 5.165-24.719 1.894-9.886 3.739-19.784 5.48-29.699 1.915-10.907 3.703-21.837 5.514-32.763.826-4.984 1.466-10.002 2.385-14.97 1.448-7.829 3.06-15.628 4.604-23.44 1.286-6.51 2.705-13 3.825-19.539 1.213-7.078 1.987-14.232 3.24-21.302 2.55-14.402 5.421-28.748 7.917-43.16 1.89-10.91 3.245-21.914 5.126-32.827 1.961-11.372 4.36-22.667 6.387-34.028 1.062-5.947 1.382-12.041 2.668-17.931 2.312-10.591 5.502-20.999 7.59-31.628 2.926-14.905 11.483-26.486 21.354-37.145 10.275-11.095 23.12-18.082 37.689-22.687 11.342-3.585 22.672-5.073 34.333-4.647 14.772.539 29.081 3.397 42.426 10.128 11.514 5.807 20.656 14.39 28.275 24.603 3.87 5.188 7.184 10.795 10.67 16.263.666 1.047 1.108 2.298 1.399 3.515 3.643 15.243 5.956 30.736 10.511 45.84 7.641 25.34 19.883 48.256 34.716 69.818 7.312 10.629 16.207 20.193 24.647 30.016 6.6 7.682 13.148 15.503 20.527 22.399 11.944 11.162 24.413 21.777 36.915 32.322 12.257 10.337 24.145 21.086 31.373 35.602 3.98 7.996 7.982 16.263 7.497 25.879-.49 9.688.487 19.472-.334 29.115-.597 7.018-2.773 13.963-4.773 20.786-3.45 11.774-7.331 23.42-10.993 35.133a5161 5161 0 0 0-10.142 32.756c-3.344 10.95-6.533 21.948-9.933 32.88-2.542 8.175-5.456 16.234-7.946 24.423-4.144 13.628-8.91 27.075-9.201 41.636-.218 10.85 5.049 18.754 12.255 25.73 4.102 3.971 8.776 7.38 13.357 10.822 10.62 7.981 22.485 7.116 34.643 4.872 6.74-1.244 13.618-1.717 20.417-2.656 4.017-.555 8.106-.981 11.98-2.099 8.958-2.584 17.825-5.492 26.69-8.39 6.583-2.15 13.173-4.313 19.638-6.787 10.057-3.85 20.267-7.44 29.95-12.1 14.777-7.11 29.853-13.974 43.542-22.88 19.328-12.574 38.515-25.558 55.355-41.593 9.784-9.317 20.62-17.595 29.863-27.397 10.192-10.81 20.17-22.126 28.298-34.498 10.172-15.483 18.686-32.097 27.328-48.53 9.901-18.829 19.463-37.85 28.57-57.073 4.808-10.147 8.21-20.951 12.477-31.364 5.392-13.157 11.085-26.19 16.522-39.328 4.903-11.849 9.567-23.796 14.462-35.649 4.964-12.02 10.17-23.94 15.1-35.973 3.466-8.46 6.233-17.226 10.056-25.513 5.469-11.853 12-23.22 17.38-35.111 6.898-15.251 18.677-25.968 31.803-35.342 7.711-5.506 15.884-10.745 24.565-14.408 8.84-3.73 18.549-5.424 27.901-7.92 3.12-.832 6.284-1.747 9.477-2.003 10.337-.829 20.69-1.73 31.05-1.939 16.326-.328 32.665-.008 48.996-.161 17.61-.166 35.22-.886 52.827-.758 15.877.116 31.174 2.962 46.395 8.375 16.015 5.696 28.297 15.978 40.82 26.475 9.595 8.04 15.616 18.942 23.161 28.601 9.216 11.799 17.841 24.066 26.536 36.263 10.194 14.301 20.083 28.82 30.298 43.106 10.605 14.83 22.091 29.08 31.906 44.405 4.977 7.77 7.237 17.311 10.518 26.13 4.004 10.762 2.46 22.083 1.666 32.975-.613 8.421-3.067 16.87-8.03 24.578-12.402 19.267-27.39 36.409-42.09 53.824-15.748 18.658-31.381 37.413-47.161 56.043-10.414 12.295-21.068 24.385-31.487 36.676-12.298 14.508-24.43 29.157-36.686 43.7-9.184 10.898-18.771 21.471-27.587 32.655-8.29 10.519-17.415 20.854-23.264 32.705-7.724 15.648-7.833 32.561-.217 49.078 6.998 15.176 18.6 26.987 28.355 40.137 11.659 15.716 23.69 31.157 35.683 46.623 14.45 18.636 29.083 37.132 43.536 55.767 8.501 10.96 16.75 22.116 25.215 33.106 11.544 14.988 23.188 29.9 34.782 44.85 10.29 13.269 20.63 26.5 30.84 39.83 16.018 20.912 31.853 41.965 47.94 62.823 14.362 18.62 29.017 37.014 43.439 55.589 13.412 17.275 26.828 34.55 39.947 52.048 4.753 6.339 9.658 12.9 12.667 20.12 3.263 7.832 5.206 16.451 6.249 24.908 1.232 9.992 1.601 20.224.967 30.265-.42 6.645-2.645 13.39-5.185 19.632-2.831 6.957-6.266 13.882-10.661 19.933-5.002 6.885-11.08 13.068-17.18 19.057-11.225 11.024-26.242 14.842-40.387 20.192-2.534.958-5.477 1.135-8.235 1.154-57.597.409-115.195.945-172.792 1.047-101.331.178-202.663.083-303.995.101-22.535.004-45.07-.077-67.606.025-56.773.257-113.546.588-170.319.906-63.262.353-126.525.725-189.788 1.088-1.303.007-2.607 0-4.612 0v22.786h-20.363l1.923-69.64h19.648v20.915h5.075c86.332-.01 172.664.043 258.995-.068 23.475-.03 46.948-.684 70.422-.816 28.037-.157 56.075.055 84.112-.101 43.26-.241 86.518-.66 130.277-1.002"/></svg>