<svg xmlns="http://www.w3.org/2000/svg" viewBox="0 0 1953 1232" xml:space="preserve"><path fill="#fff" d="M552.274 955.153c-14.009 2.074-27.64 3.882-41.252 5.825-2.136.305-4.183 1.222-7.228 2.147 5.117 5.98 9.651 11.102 13.985 16.389 5.293 6.457 11.357 12.522 15.402 19.706 6.72 11.934 13.044 24.067 13.95 38.496.72 11.484 4.303 22.762 5.51 34.248 1.87 17.798 6.78 35.28 5.301 53.46-.564 6.947-3.958 12.101-7.51 17.667-6.352 9.952-15.975 13.526-26.689 15.878-8.228 1.806-16.27 4.49-24.523 6.152-9.746 1.965-19.65 3.13-29.446 4.87-8.18 1.452-16.277 3.37-24.455 4.835-13.63 2.441-27.306 4.625-40.944 7.025-16.69 2.937-33.356 6.018-50.043 8.975-17.183 3.045-34.39 5.953-51.565 9.04-14.26 2.561-28.513 5.169-42.723 7.988-14.79 2.933-29.53 4.074-44.299.038-.612-.168-1.3-.337-1.765-.729-8.084-6.82-16.512-13.012-20.778-23.583-5.455-13.518-6.477-27.785-9.061-41.8-1.952-10.583-3.69-21.207-5.459-31.824-1.905-11.432-3.723-22.878-5.602-34.314a6206 6206 0 0 0-4.188-25.115c-2.575-15.278-5.098-30.565-7.766-45.826-2.555-14.609-5.429-29.163-7.857-43.792-1.957-11.785-3.336-23.665-5.199-35.468-1.6-10.14-3.586-20.217-5.282-30.342-1.97-11.759-3.775-23.546-5.724-35.309-1.037-6.262-2.312-12.486-3.33-18.75-1.286-7.903-2.33-15.846-3.648-23.743-1.116-6.687-2.474-13.333-3.766-20.219l-21.191 4.286-4.193-19.527 68.947-14.231 4.178 19.5c-7.079 1.52-13.971 2.998-21.267 4.563.73 5.69 1.239 11.2 2.174 16.638 2.07 12.039 4.45 24.024 6.521 36.063 1.909 11.089 3.55 22.223 5.364 33.328 2.313 14.17 4.711 28.325 7.017 42.496 2.047 12.575 3.925 25.179 6.052 37.74 1.794 10.592 3.964 21.12 5.741 31.714 1.893 11.28 3.426 22.619 5.289 33.904 1.884 11.41 4.051 22.772 5.964 34.177 2.076 12.384 3.988 24.796 5.998 37.19 1.986 12.243 3.735 24.531 6.08 36.704 2.67 13.849 5.442 27.709 9.029 41.338 2.105 8 7.512 11.543 15.713 10.996 9.255-.618 18.459-2.154 27.648-3.535 10.98-1.65 21.93-3.505 32.874-5.376 9.155-1.565 18.28-3.297 27.424-4.926 13.144-2.34 26.29-4.672 39.442-6.976 11.712-2.052 23.448-3.973 35.144-6.117 9.923-1.82 19.779-4.007 29.707-5.792 12.033-2.164 24.124-3.997 36.164-6.117 14.91-2.626 29.826-5.23 44.67-8.193 6.014-1.2 12.237-2.564 17.605-5.328 3.017-1.554 5.958-5.934 6.383-9.357 1.49-12.03-1.222-23.869-3.282-35.713-1.458-8.377-2.221-16.872-3.458-25.29-.993-6.76-2.25-13.482-3.353-20.227-.449-2.746-.55-5.572-1.24-8.25-3.046-11.83-9.222-21.989-17.191-31.1-7.866-8.995-16.37-17.489-23.608-26.956-5.248-6.863-5.955-15.597-3.688-23.893 2.008-7.35 8.699-10.807 15.244-12.385 9.496-2.288 19.392-2.886 29.091-4.372 7.564-1.16 15.07-2.689 22.635-3.845 9.695-1.483 19.434-2.674 29.132-4.138 16.47-2.486 32.91-5.177 49.387-7.609 11.004-1.624 22.066-2.85 33.075-4.441 8.068-1.166 16.078-2.73 24.14-3.943 9.37-1.41 18.774-2.598 28.155-3.944 13.744-1.971 27.496-3.888 41.213-6.032 11.742-1.835 23.374-4.659 35.174-5.74 10.271-.94 18.751-6.188 27.885-9.695 3.813-1.464 5.996-6.884 9.228-10.206 9.554-9.818 10.967-23.215 15.454-35.207 1.78-4.76 1.767-10.253 2.201-15.443.565-6.748 1.21-13.541 1.005-20.29-.254-8.367-1.314-16.711-2.077-25.06-.552-6.05-1.281-12.083-1.768-18.137-1.412-17.567-2.887-35.132-4.029-52.718-.443-6.838-.52-13.776.152-20.577.308-3.113 3.107-5.9 4.3-9.017 5.571-14.554 17.268-23.218 29.814-30.908 21.967-13.465 44.061-26.725 66.197-39.911 18.312-10.908 36.791-21.536 55.14-32.382 15.507-9.165 30.92-18.489 46.41-27.683 2.743-1.629 3.47-3.395 2.016-6.474-5.239-11.09-10.852-22.063-15.111-33.531-2.504-6.741-3.07-14.293-3.898-21.55-3.866-33.891-3.071-67.933-3.04-101.953.014-16.499 2.015-32.505 7.716-48.188 6.243-17.172 15-32.422 26.576-46.695 11.795-14.544 26.777-24.644 41.778-34.848 5.721-3.891 12.998-5.93 19.86-7.614 11.811-2.899 23.766-5.615 35.822-7.019 15.244-1.774 30.643-2.827 45.986-2.957 15.883-.133 31.83.622 47.653 2.06 19.378 1.759 37.26-1.807 53.592-12.303 11.215-7.207 19.367-17.672 27.958-27.612 5.372-6.215 10.563-12.587 16-18.744 10.827-12.26 19.78-25.78 28.28-39.733 7.104-11.66 14.783-23.108 23.429-33.647 8.352-10.18 19.72-17.321 33.119-17.783 7.64-.264 16.391 1.677 22.952 5.515 22.835 13.356 45.256 27.494 67.195 42.283 14.277 9.624 27.42 20.926 41.116 31.416 9.657 7.396 19.42 14.653 29.085 22.04 17.134 13.098 34.196 26.292 51.35 39.363 14.94 11.382 29.68 23.062 45.086 33.779 6.667 4.638 14.78 7.203 22.253 10.677 13.073 6.077 25.842 13 39.34 17.912 10.575 3.848 21.964 5.897 33.17 7.438 9.632 1.326 19.596 1.689 29.27.843 9.284-.812 19.241-2.014 27.377-6.09 14.298-7.165 28.163-15.713 40.78-25.52 7.495-5.827 12.756-14.844 18.09-23.034 4.388-6.736 8.436-14.048 10.79-21.674 3.763-12.193 8.546-24.247 8.485-37.434-.028-6.192 1.666-12.384 1.745-18.586.22-17.162-4.64-32.776-15.897-45.977-6.47-7.589-12.729-15.554-20.23-22.018-10.094-8.696-21.774-15.312-34.951-18.41-7.737-1.817-15.69-4.014-23.512-3.89-14.68.236-29.102 3.235-43.093 7.939-9.666 3.25-19.395 6.317-29.017 9.692-9.137 3.204-18.197 6.634-27.243 10.087-14.469 5.522-28.859 11.254-43.38 16.631-2.85 1.055-6.172.759-9.232 1.328-13.637 2.535-26.66.004-39.241-5.075-4.097-1.653-8.267-3.956-11.402-6.996-6.917-6.708-13.56-13.776-19.658-21.234-11.406-13.95-22.649-28.028-36.102-40.1-4.495-4.034-9.074-8.318-14.363-11.024-4.914-2.515-10.752-3.654-16.315-4.362-7.347-.934-14.82-1.069-22.244-1.176-29.636-.425-59.275-.724-88.912-1.029-7.046-.073-14.14-.512-21.127.14-11.499 1.07-22.557 3.772-32.71 9.896-12.807 7.725-25.719 15.368-39.081 22.054-12.469 6.239-25.488 11.04-39.97 11.1-10.028.041-18.876-3.148-26.535-8.568-8.286-5.863-15.428-13.364-22.928-20.302-2.735-2.53-7.354-3.196-10.816-.764-4.133 2.904-7.802 6.653-12.25 8.88-6.74 3.375-13.863 6.104-21.037 8.456-7.533 2.47-15.296 4.253-22.995 6.188-10.856 2.729-21.845 4.975-32.596 8.06-13.162 3.776-26.25 7.885-39.16 12.448-11.705 4.137-23.044 9.304-34.7 13.597-11.09 4.084-20.187 10.973-28.801 18.768-3.897 3.527-7.763 7.25-12.206 9.962-3.9 2.381-8.569 3.524-12.928 5.13-11.825 4.355-23.897 8.132-35.443 13.128-14.888 6.443-30.353 8.46-46.084 6.471-5.28-.667-10.285-5.16-14.97-8.525-9.326-6.696-10.725-6.903-19.894.48-5.037 4.056-10.651 6.191-16.8 3.846-4.956-1.89-10.009-4.27-14.088-7.58-13.893-11.275-30.267-18.216-45.468-27.2-13.345-7.887-27.98-11.652-42.61-15.74-9.195-2.569-18.253-5.718-27.554-7.791-8.586-1.914-17.38-3.473-26.145-3.905-22.177-1.094-44.386-1.656-66.588-2.054-12.506-.224-24.607 2.828-36.701 5.742-9.475 2.283-19.115 3.877-28.598 6.13-15.748 3.74-31.855 6.312-46.319 14.331-10.594 5.874-21.637 10.973-32.015 17.193-21.284 12.756-42.253 26.04-63.36 39.094-12.123 7.499-24.212 15.056-36.407 22.437-15.551 9.413-31.239 18.601-46.784 28.023-14.84 8.994-29.57 18.169-44.354 27.255-18.99 11.672-38 23.312-56.973 35.012-11.585 7.145-23.079 14.438-34.68 21.556-17.54 10.763-35.157 21.398-52.704 32.148-20.202 12.376-41.2 23.669-60.292 37.574-17.14 12.483-33.62 26.246-46.517 43.685-10.313 13.946-13.8 29.988-17.348 46.407-2.607 12.066-.314 23.202 2.075 34.75 2.572 12.435 4.345 25.048 6.093 37.636.704 5.067 4.275 7.027 8.078 7.998 6.115 1.562 12.456 2.485 18.757 3.023 10.768.919 20.677 3.618 29.328 10.517 6.573 5.243 6.578 12.766 7.894 19.894 1.092 5.915 2.012 11.863 2.99 17.799 1.35 8.21 2.613 16.435 4.042 24.632 1.845 10.584 3.94 21.125 5.701 31.722 1.902 11.44 3.543 22.923 5.296 34.388.74 4.842 1.378 9.701 2.227 14.524 2.483 14.103 5.05 28.192 7.649 42.654l-26.106 5.203c-2.225-13.308-4.313-26.162-6.533-38.993-2.89-16.71-6.008-33.384-8.79-50.112-1.662-9.989-2.737-20.074-4.325-30.077-1.227-7.725-2.885-15.38-4.272-23.081-1.59-8.82-2.928-17.69-4.769-26.454-.375-1.786-2.202-4.003-3.878-4.622-3.288-1.215-6.918-1.648-10.447-2.046-7.51-.847-15.383-.359-22.465-2.522-5.823-1.78-10.659-6.69-16.04-10.041-7.833-4.878-9.627-12.306-10.27-20.927-.565-7.583-2.815-15.034-4.213-22.564-2.232-12.02-5.113-23.984-6.286-36.111-.729-7.54.354-15.529 2.1-22.97 2.913-12.423 6.173-24.901 10.893-36.715 3.258-8.156 8.74-15.593 14.075-22.716 10.93-14.592 25.42-25.574 38.938-37.601 10.962-9.752 23.599-16.56 35.802-24.2a11508 11508 0 0 1 73.97-45.93c20.306-12.502 40.774-24.742 61.086-37.234 18.665-11.479 37.18-23.203 55.832-34.702 19.624-12.097 39.332-24.056 59.006-36.07 28.7-17.527 57.448-34.972 86.082-52.605 15.072-9.281 29.617-19.466 45.013-28.157 11.5-6.493 24.07-11.07 36.005-16.826 12.93-6.235 26.874-8.394 40.734-11.13 8.432-1.666 16.68-4.247 25.064-6.185a902 902 0 0 1 29.499-6.33c2.75-.539 5.675-.188 8.52-.251 15.282-.34 30.593-1.418 45.838-.81 14.23.566 28.391 2.904 42.579 4.497 6.35.714 12.733 1.271 19.022 2.356 4.624.797 9.15 2.234 13.667 3.563 13.817 4.063 27.713 7.9 41.367 12.458 6.864 2.291 13.416 5.676 19.851 9.059 10.17 5.347 20.255 10.889 30.122 16.774 6.48 3.864 12.676 8.264 18.68 12.843 3.125 2.384 5.236 2.157 8.022-.328 8.267-7.375 22.73-8.435 32.344-2.653 4.597 2.764 9.348 5.282 13.852 8.186 5.993 3.865 12.853 3.947 18.855 2.117 16.854-5.14 33.35-11.45 50.028-17.177 10.084-3.462 18.078-10.177 25.409-17.354 7.963-7.797 17.732-12.075 27.468-16.407 13.541-6.026 27.25-11.816 41.266-16.592 14.392-4.902 29.216-8.553 43.899-12.58 10.956-3.005 22.001-5.688 32.98-8.616 4.837-1.29 9.522-3.503 14.425-4.123 10.747-1.361 19.075-7.246 27.012-13.684 4.743-3.847 9.753-4.805 15.559-5.941 11.053-2.163 19.073 3.007 26.91 8.602 5.548 3.96 9.787 9.706 14.902 14.33 10.66 9.638 23.057 9.866 35.176 4.197 13.172-6.161 25.58-13.938 38.465-20.738 9.014-4.758 17.921-10.114 27.512-13.269 9.66-3.179 20.057-5.103 30.222-5.559 18.627-.835 37.322-.3 55.986-.121 16.047.154 32.095.457 48.134.984 10.258.338 20.516.997 30.742 1.883 13.885 1.203 25.58 7.063 36.366 16.012 16.103 13.361 30.223 28.283 42.552 45.2 6.046 8.295 13.461 15.86 21.367 22.417 4.02 3.334 10.39 4.46 15.89 5.251 10.43 1.5 20.241-1.29 29.94-5.41 12.496-5.308 25.39-9.68 38.112-14.459 8.78-3.298 17.461-6.897 26.362-9.83 11.212-3.692 22.483-7.335 33.948-10.089 12.012-2.885 24.263-4.82 36.461-6.865 2.473-.414 5.196.415 7.767.875 11.058 1.98 22.27 3.394 33.105 6.234 12.08 3.166 22.675 10.102 32.12 17.918 10.134 8.387 19.144 18.21 28.137 27.877 11.452 12.313 17.03 27.765 21.71 43.56.367 1.237.583 2.543.68 3.832 1.274 16.81.105 33.594-2.175 50.183-1.265 9.2-4.935 18.092-7.732 27.056-5.127 16.43-14.52 30.504-23.753 44.869-8.517 13.25-20.893 21.33-33.314 29.518-10.117 6.668-20.79 12.707-31.815 17.706-6.507 2.95-14.12 3.73-21.34 4.76-7.963 1.136-16.075 2.252-24.066 1.94-18.142-.705-36.017-2.808-53.684-8.084-20.95-6.256-39.452-17.389-59.089-26.252-17.944-8.1-32.612-20.769-47.84-32.751-8.594-6.762-17.648-12.933-26.367-19.54-16.873-12.787-33.612-25.751-50.49-38.533-15.35-11.624-30.594-23.406-46.278-34.564-16.726-11.899-33.831-23.272-50.939-34.622-7.718-5.121-15.727-9.835-23.812-14.362-9.23-5.17-19.523-2.116-26.12 7.711-10.375 15.456-20.212 31.283-30.899 46.516-7.044 10.041-15.07 19.406-22.858 28.909-7.187 8.769-14.168 17.786-22.11 25.837-8.61 8.729-17.556 17.45-27.625 24.31-7.446 5.074-16.727 7.868-25.56 10.374-8.106 2.3-16.667 3.444-25.099 3.993-6.833.445-13.773-.743-20.663-1.232-.647-.046-1.276-.374-1.921-.408-13.21-.7-26.443-2.197-39.626-1.843-15.753.421-31.456 2.518-47.193 3.725-13.818 1.059-26.909 4.875-39.122 11.139-6.578 3.373-12.45 8.178-18.47 12.57-16.979 12.388-28.909 29.003-36.575 48.154-4.833 12.073-9.108 24.618-8.558 38.377.597 14.9-1.2 29.89-.713 44.8.722 22.104 2.377 44.184 3.965 66.25.62 8.607 3.739 16.459 7.726 24.272 5.356 10.495 10.005 21.541 13.198 32.848 1.101 3.898-2.58 9.546-4.938 13.933-4.228 7.87-12.2 11.54-19.515 15.842a12156 12156 0 0 0-34.026 20.067 43062 43062 0 0 0-64.313 38.166c-15.753 9.371-31.576 18.63-47.172 28.258-8.82 5.446-17.485 11.214-25.776 17.43-7.207 5.402-11.905 12.533-11.304 22.211 1.106 17.794 1.486 35.658 3.294 53.377 2.006 19.665 5.337 39.213 4.666 59.062-.33 9.727-.8 19.506-2.192 29.118-.865 5.978-3.567 11.69-5.458 17.518-1.604 4.94-2.471 10.313-5.016 14.712-4.128 7.137-9.925 13.313-14.006 20.471-7.56 13.262-21.533 15.829-33.694 21.511-11.552 5.398-24.259 4.819-36.434 6.99-5.774 1.028-11.556 2.029-17.356 2.892-9.545 1.42-19.116 2.66-28.661 4.078-15.356 2.28-30.707 4.6-46.047 6.985-12.276 1.909-24.516 4.05-36.802 5.886-12.295 1.836-24.647 3.298-36.94 5.15-12.096 1.823-24.139 4-36.228 5.873-4.063.629-8.197.796-12.684 1.396"/></svg>