<svg xmlns="http://www.w3.org/2000/svg" viewBox="0 0 1743 1052" xml:space="preserve"><path fill="#fff" d="M1200 908.937c-14.833-.005-29.171.22-43.497-.103-8.346-.188-16.968-.119-24.935-2.199-11.115-2.901-21.918-7.274-32.517-11.806-12.177-5.207-23.31-12.396-32.62-21.895-8.654-8.827-16.791-18.162-25.093-27.33-6.202-6.85-13.287-11.791-23.024-11.717-12.024.092-24.05-.048-36.074.108-17.932.232-35.862.61-53.793.974-14.1.286-28.199.705-42.3.961-22.092.402-44.188.671-66.28 1.086-10.772.202-21.54.599-32.31.922-11.612.348-23.22.846-34.835 1.042-24.102.404-48.206.59-72.308.989-13.097.216-26.189.756-39.286 1.02-19.269.386-38.542.547-57.81 1-23.531.555-47.068 1.076-70.58 2.119-7.406.328-14.725 2.389-22.11 3.475-8.242 1.211-16.484 2.69-24.779 3.203-13.295.822-25.561 5.157-37.593 10.203-8.734 3.664-17.857 3.979-26.648 2.65-7.583-1.147-14.437-5.728-19.833-11.51-10.104-10.83-19.661-22.184-30.049-32.726-3.372-3.421-8.47-6.649-13.048-7.076-11.08-1.034-22.368-1.024-33.484-.214-12.832.935-25.623 2.85-38.333 4.941-15.52 2.554-30.912 5.869-46.405 8.598-11.21 1.975-22.5 3.485-33.741 5.293a720 720 0 0 0-19.663 3.468c-3.756.711-7.691 1.158-11.117 2.686-2.086.93-4.107 3.452-4.82 5.685-1.155 3.616.331 6.82 4.19 8.316 4.338 1.68 8.624 3.587 13.09 4.823 7.306 2.02 14.762 3.484 22.113 5.35 13.86 3.52 27.7 7.118 41.53 10.759 9.34 2.458 18.622 5.147 27.977 7.549 13.917 3.572 27.898 6.893 41.81 10.489 9.773 2.526 19.476 5.324 29.207 8.016 3.409.943 6.79 1.99 10.21 2.893a5489 5489 0 0 0 32.67 8.54c9.824 2.53 19.67 4.976 29.503 7.475 9.832 2.5 19.653 5.046 29.49 7.525 7.475 1.884 14.994 3.598 22.446 5.567 7.47 1.973 14.847 4.295 22.324 6.237 10.304 2.676 20.69 5.04 30.992 7.721 9.646 2.51 19.22 5.293 28.843 7.89 6.521 1.76 13.073 3.41 19.612 5.103 5.15 1.335 10.294 2.699 15.457 3.983 6.88 1.71 13.809 3.237 20.658 5.063 7.606 2.027 15.115 4.421 22.725 6.433 7.482 1.978 15.064 3.576 22.556 5.52 13.097 3.396 26.147 6.972 39.238 10.39 9.96 2.6 19.985 4.957 29.925 7.628 12.89 3.464 25.698 7.228 38.596 10.655 3.91 1.039 7.988 1.506 12.015 2.028 6.642.862 13.32 1.451 19.957 2.345 10.177 1.372 20.333 2.901 30.496 4.375.965.14 1.915.496 2.879.522 25.359.695 50.717 1.78 76.08 1.887 17.69.074 35.393-1.026 53.075-1.922 14.142-.716 28.256-1.98 42.39-2.886 21.873-1.403 43.756-2.661 65.629-4.072 13.793-.89 27.576-1.953 41.364-2.93 14.288-1.011 28.574-2.07 42.868-2.996 7.253-.47 14.536-.512 21.782-1.065 15.552-1.187 31.086-2.617 46.634-3.857 3.149-.251 6.335.006 9.495-.16 18.133-.95 36.266-1.91 54.394-2.966 9.53-.555 19.062-1.159 28.568-2.017 12.884-1.164 25.74-2.65 38.619-3.881 5.25-.502 10.565-.419 15.787-1.093 7.735-.999 15.468-2.168 23.102-3.75 10.415-2.159 20.86-4.348 31.063-7.31 10.438-3.032 20.609-6.99 30.881-10.584 10.765-3.767 21.561-7.453 32.251-11.424 6.906-2.565 13.645-5.577 20.458-8.39 11.678-4.824 23.446-9.441 35.01-14.524 15.656-6.88 31.17-14.085 46.713-21.219 8.307-3.812 16.666-7.538 24.787-11.72 8.99-4.63 18.015-9.3 26.522-14.737 12.735-8.141 25.519-16.353 37.34-25.723 7.73-6.127 13.866-14.29 20.589-21.658 11.845-12.98 17.845-29.094 22.596-45.453 6.512-22.425 8.039-45.637 6.212-68.856-.646-8.216-3.515-16.37-6.16-24.287-2.884-8.627-6.12-17.233-10.208-25.341-7.983-15.837-18.533-30.049-30.879-42.72-7.92-8.129-16.139-16.4-25.585-22.5-11.503-7.427-24.086-13.54-36.867-18.51-9.202-3.58-19.456-4.557-29.307-6.332-8.803-1.586-17.666-3.369-26.56-3.767-7.293-.326-14.798.641-21.982 2.132-11.508 2.387-22.982 5.193-34.174 8.753-8.233 2.619-16.177 6.358-23.923 10.25-14.467 7.267-28.384 15.713-43.158 22.248-7.06 3.123-15.533 3.158-23.41 4.279-4.71.67-9.506 1.02-14.264 1.026-51.998.07-103.999.278-155.994-.135-11.717-.093-23.426-2.357-35.12-3.78-6.941-.844-13.992-1.427-20.728-3.16-7.76-1.996-15.608-4.366-22.745-7.923-17.693-8.82-32.429-21.755-45.45-36.402-14.298-16.084-27.828-32.853-41.637-49.37-10.167-12.161-20.365-24.3-30.33-36.626-11.467-14.181-22.649-28.591-34.034-42.838-16.113-20.161-32.333-40.237-48.444-60.4-16.88-21.124-33.635-42.346-50.536-63.453-11.39-14.224-22.945-28.315-34.403-42.485-1.12-1.385-2.078-2.901-3.38-4.734l20.287-15.948c19.327 24.32 38.338 48.414 57.542 72.353 15.946 19.876 32.2 39.504 48.169 59.363 13.987 17.394 27.697 35.01 41.66 52.425 10.487 13.079 21.218 25.962 31.77 38.99 8.267 10.203 16.343 20.562 24.658 30.725 8.14 9.949 16.327 19.867 24.77 29.557 7.127 8.178 14.407 16.254 22.054 23.942 12.937 13.008 27.766 22.643 45.959 27.38 16.455 4.285 33.128 4.854 49.834 5.765 12.162.664 24.363.89 36.545.848 42.12-.149 84.24-.688 126.358-.674 14.643.005 27.472-5.004 40.023-11.67 13.733-7.295 27.227-15.179 41.454-21.36 10.49-4.558 21.84-7.509 33.08-9.873a253.4 253.4 0 0 1 36.478-4.94c8.64-.53 17.462.693 26.109 1.843 9.379 1.247 18.75 2.896 27.945 5.119 16.556 4.002 31.924 10.938 46.817 19.263 24.937 13.94 43.146 34.709 59.61 57.273 5.925 8.12 11.396 16.72 15.89 25.693 4.25 8.482 7.114 17.683 10.271 26.678 2.247 6.403 4.359 12.904 5.82 19.517 1.513 6.842 2.667 13.841 3.108 20.827 1.497 23.726-2.278 46.789-8.505 69.685-4.585 16.857-11.132 32.93-21.092 46.887-8.41 11.787-19.93 21.35-30.026 31.941-10.082 10.577-22.319 18.354-34.824 25.449-17.646 10.012-35.676 19.412-53.939 28.253-20.16 9.76-40.73 18.68-61.198 27.792-11.547 5.141-23.131 10.241-34.91 14.812-17.788 6.903-35.659 13.625-53.694 19.843-10.885 3.753-22.085 6.657-33.259 9.489-12.762 3.235-25.594 6.26-38.509 8.798-6.911 1.358-14.054 1.588-21.105 2.172-16.609 1.375-33.22 2.715-49.84 3.95-6.936.515-13.903.605-20.84 1.098-17.27 1.23-34.526 2.628-51.795 3.857-6.772.482-13.564.671-20.345 1.031-12.889.684-25.787 1.237-38.661 2.132-16.284 1.132-32.541 2.652-48.824 3.805-8.428.598-16.893.66-25.33 1.145-22.446 1.292-44.888 2.66-67.329 4.044-9.89.61-19.78 1.266-29.66 2.017-16.27 1.237-32.532 2.568-48.799 3.856-.497.04-.999.039-1.498.05-30.385.675-60.771 1.882-91.154 1.803-15.587-.04-31.188-2.174-46.745-3.741-13.885-1.4-27.817-2.754-41.544-5.17-14.262-2.51-28.328-6.165-42.433-9.519-10.932-2.6-21.8-5.476-32.681-8.288-11.956-3.09-23.886-6.273-35.84-9.366-13.872-3.59-27.775-7.06-41.631-10.708-9.425-2.482-18.756-5.326-28.194-7.754-16.239-4.177-32.546-8.087-48.79-12.244-9.294-2.378-18.5-5.1-27.782-7.53-11.03-2.885-22.118-5.548-33.144-8.445-12.098-3.18-24.133-6.599-36.234-9.762-10.877-2.842-21.83-5.393-32.706-8.232-10.216-2.666-20.362-5.598-30.566-8.31a4183 4183 0 0 0-36.824-9.595c-10.084-2.583-20.206-5.02-30.292-7.594-16.23-4.143-32.465-8.271-48.66-12.552-10.205-2.698-20.3-5.823-30.519-8.465-10.4-2.69-20.925-4.894-31.335-7.548-10.085-2.572-20.06-5.571-30.143-8.145-8.087-2.064-15.703-4.665-22.95-9.266-9.853-6.257-13.214-15.417-14.273-25.87-1.194-11.775 4.607-21.455 12.937-28.502 6.577-5.565 15.605-7.653 24.465-8.853 11.825-1.602 23.599-3.584 35.392-5.416 7.608-1.181 15.23-2.288 22.813-3.606 10.928-1.898 21.813-4.044 32.745-5.92 6.775-1.161 13.61-1.975 20.406-3.022 6.947-1.07 13.844-2.81 20.824-3.23 12.5-.752 25.045-.842 37.574-.968 3.755-.038 7.54.58 11.274 1.145 13.867 2.097 24.614 9.13 33.225 20.18 5.876 7.54 12.566 14.46 19.07 21.492 11.014 11.91 14.646 11.554 29.104 5.756 15.186-6.09 30.935-8.94 47.102-10.558 12.552-1.256 25.001-3.502 37.527-5.063 4.91-.612 9.9-.682 14.857-.783 19.326-.391 38.654-.65 57.98-1.043 31.388-.64 62.775-1.331 94.162-2.03 12.323-.275 24.643-.681 36.967-.936 19.439-.403 38.88-.707 58.32-1.094 13.33-.265 26.66-.609 39.99-.9 17.606-.387 35.212-.786 52.819-1.124 17.62-.339 35.245-.526 52.864-.929 34.511-.789 69.016-2.035 103.53-2.374 16.105-.158 29.153 7.34 39.665 19.562 7.761 9.025 15.709 17.928 24.087 26.376 12.097 12.196 27.09 19.593 43.404 24.517 16.66 5.029 33.616 5.365 50.851 4.247 12.282-.797 24.683.346 36.983-.294 15.783-.82 31.544-2.313 47.265-3.985 11.89-1.264 23.791-2.804 35.53-5.046 16.633-3.178 33.143-7.017 49.667-10.747 24.673-5.57 47.801-15.387 70.472-26.304 15.992-7.701 30.951-17.007 42.962-30.408 12.3-13.725 17.807-29.137 13.647-47.807-4.304-19.315-17.01-30.004-34.915-34.74-16.518-4.369-30.992 1.707-44.38 11.545-16.514 12.137-33.609 23.471-52.569 31.53-7.152 3.04-14.667 5.243-22.057 7.704-5.392 1.796-10.777 3.705-16.296 5.003a370 370 0 0 1-24.475 4.879c-19.413 3.202-38.699 1.228-57.695-2.865-13.454-2.899-26.631-7.102-39.903-10.826-16.583-4.654-33.14-9.395-49.699-14.132-13.734-3.928-27.45-7.915-41.18-11.855-17.191-4.932-34.315-10.125-51.623-14.605-5.824-1.507-12.126-1.648-18.205-1.611-41.772.255-83.543.701-125.314 1.13-24.787.256-49.574.562-74.36.9-22.276.305-44.55.752-66.825 1.017-32.02.383-64.042.616-96.062.994-22.443.264-44.884.763-67.327.982-41.65.406-83.305 1.048-124.948.658-6.946-.065-15.357-3.16-20.502-7.755-20.146-17.99-39.241-37.153-58.75-55.854-9.321-8.935-20.62-13.902-32.993-17.211-13.84-3.702-27.885-5.375-42.052-4.596a893 893 0 0 0-55.129 4.755c-14.437 1.696-28.85 4.067-43.049 7.172-10.922 2.388-21.427 6.623-32.238 9.599-10.976 3.02-22.015 5.94-33.182 8.104-12.66 2.453-25.44 4.491-38.259 5.86-20.497 2.186-39.534-1.233-55.498-15.848-10.012-9.166-16.515-20.095-21.542-32.681-4.317-10.81-5.892-21.985-6.115-32.992-.26-12.895 2.073-25.723 7.66-38.062 7.36-16.259 18.7-29.43 29.516-43.103 6.523-8.246 13.09-16.522 20.345-24.108 7.069-7.391 14.954-14.016 22.634-20.805 9.336-8.251 18.926-16.215 28.238-24.493 19.828-17.625 39.471-35.459 59.337-53.042 14.63-12.951 29.523-25.607 44.245-38.456 16.44-14.348 33.027-28.536 49.17-43.213 20.049-18.227 39.797-36.789 59.51-55.381 21.209-20.004 41.996-40.46 63.418-60.23 11.591-10.699 24.433-20.036 36.127-30.632 8.255-7.48 17.19-13.9 27.413-17.75 7.61-2.866 15.762-4.54 24.5-2.957 9.668 1.752 18.212 5.426 26.755 9.958 6.138 3.256 12.526 2.252 18.906-1.238 16.109-8.811 26.097-23.1 35.571-38.004 16.706-26.28 33.22-52.69 50.333-78.703 6.238-9.482 13.087-19.024 25.333-21.858 2.203-.51 4.558-1.187 6.723-.896 9.299 1.249 18.136 2.895 24.172 11.816 4.273 6.316 10.426 11.35 15.667 17.024 8.662 9.377 17.676 18.468 25.795 28.296 11.645 14.095 22.544 28.804 33.904 43.137 8.728 11.013 17.714 21.82 26.516 32.774 11.507 14.318 22.916 28.713 34.425 43.03 5.434 6.759 11.003 13.41 16.697 20.337l15-12.083 12.623 15.487-53.778 43.662-12.616-15.516 18.517-15.1c-8.415-10.526-16.65-20.836-24.894-31.14-10.562-13.199-21.077-26.436-31.711-39.577-9.25-11.429-18.674-22.715-27.949-34.123-8.288-10.195-16.293-20.627-24.76-30.67-9.138-10.837-18.6-21.405-28.052-31.973-5.447-6.09-11.2-11.905-16.724-17.928-2.171-2.367-4.011-1.996-5.676.35-5.912 8.33-11.993 16.552-17.586 25.093-17.672 26.991-34.53 54.54-52.94 81.014-10.935 15.725-25.605 28.268-44.663 33.517-11.641 3.207-23.14.849-33.692-5.405-9.295-5.51-19.183-8.495-29.374-3.041-6.506 3.481-12.669 7.836-18.368 12.547-12.58 10.398-24.91 21.112-37.07 32.002-8.4 7.523-16.322 15.579-24.495 23.358-12.746 12.131-25.561 24.189-38.274 36.354-10.95 10.479-21.567 21.317-32.753 31.534-12.534 11.448-25.57 22.344-38.337 33.539-9.01 7.9-17.87 15.972-26.91 23.836-14.357 12.487-28.863 24.802-43.203 37.309-9.527 8.31-18.891 16.81-28.298 25.258-13.593 12.21-27.104 24.511-40.75 36.66-13.855 12.332-28.506 23.856-41.566 36.971-12.912 12.968-24.446 27.336-36.23 41.387-5.126 6.112-10.043 12.594-13.878 19.556-11.266 20.449-11.372 41.388-1.819 62.703 4.605 10.273 11.574 17.879 21.332 23.244 10.338 5.682 21.448 3.948 32.278 3.11 9.354-.723 18.641-2.652 27.876-4.466 7.416-1.457 14.743-3.412 22.049-5.374 9.02-2.423 17.985-5.052 26.958-7.646 7.575-2.19 15.077-4.655 22.71-6.617 4.537-1.167 9.266-1.578 13.903-2.362 8.452-1.429 16.88-3.01 25.355-4.285 7.1-1.067 14.23-2.179 21.386-2.585 16.34-.93 32.716-2.182 49.055-1.91 16.249.27 32.346 2.616 47.84 8.335 13.68 5.05 26.31 11.618 36.727 21.951 14.24 14.128 28.349 28.389 42.592 42.513 3.435 3.406 6.848 7.027 10.888 9.567 3.117 1.96 7.19 3.312 10.853 3.344 27.83.242 55.664.204 83.496.034 30.612-.187 61.223-.562 91.834-.944 20.097-.25 40.193-.678 60.29-.991 22.263-.348 44.527-.698 66.792-.971 30.265-.371 60.53-.688 90.796-.996 36.594-.372 73.188-.662 109.78-1.088 12.8-.15 25.61-1.103 38.39-.762 12.623.336 25.275 1.394 37.797 3.03 6.124.8 11.95 3.743 17.967 5.524 9.573 2.834 19.196 5.5 28.794 8.25 8.512 2.438 17.028 4.859 25.524 7.35 9.728 2.852 19.438 5.77 29.154 8.664 11.704 3.486 23.391 7.03 35.114 10.449 7.828 2.282 15.766 4.197 23.549 6.615 18.35 5.7 37.214 7.658 56.242 6.774 13.539-.63 27.03-2.617 39.65-8.391 4.172-1.909 8.696-3.088 13.118-4.4 18.715-5.545 35.102-15.341 51.019-26.45 11.216-7.83 23.11-15.053 35.555-20.645 10.912-4.903 23.247-4.095 34.952-1.745 11.059 2.22 22.114 5.39 30.84 12.913 9.465 8.162 18.38 16.666 23.479 28.925 5.384 12.945 6.35 26.16 5.385 39.496-.854 11.803-5.449 22.608-12.27 32.71-10.375 15.365-23.766 27.17-39.366 36.623-15.289 9.263-31.183 17.343-48.187 23.174-8.897 3.051-17.315 7.533-26.26 10.398-11.499 3.683-23.295 6.451-34.995 9.488a180 180 0 0 1-13.788 2.984c-17.26 3.055-34.552 5.92-51.803 9.02-13.907 2.498-27.842 4.115-42.026 4.134-10.83.015-21.66 1.178-32.99 1.83"/></svg>