<svg xmlns="http://www.w3.org/2000/svg" viewBox="0 0 1768 1203" xml:space="preserve"><path fill="#fff" d="M1314.177 1170.863c-10.198.65-19.928 1.29-29.656 1.948-19.127 1.292-38.252 2.604-57.379 3.888-10.396.699-20.797 1.33-31.192 2.044-18.952 1.302-37.897 2.714-56.854 3.937-8.438.545-16.905.633-25.348 1.118-22.634 1.3-45.266 2.641-67.89 4.087-13.352.854-26.681 2.063-40.035 2.89-18.828 1.165-37.658 2.406-56.506 3.101-24.89.919-49.803 1.971-74.696 1.754-16.616-.145-33.252-2.045-49.81-3.808-18.29-1.947-36.567-4.227-54.72-7.164-9.758-1.578-19.239-4.856-28.853-7.336-16.238-4.188-32.508-8.26-48.718-12.554-13.081-3.465-26.058-7.326-39.148-10.754-15.299-4.007-30.695-7.639-46.004-11.609-16.431-4.261-32.79-8.804-49.217-13.083-18.793-4.895-37.637-9.59-56.438-14.454-15.783-4.084-31.516-8.36-47.307-12.413-13.106-3.364-26.302-6.381-39.39-9.81-18.923-4.96-37.774-10.19-56.675-15.233-16.851-4.496-33.725-8.907-50.594-13.334-20.34-5.338-40.66-10.745-61.034-15.947-15.476-3.95-31.037-7.564-46.53-11.451-8.697-2.182-17.633-3.844-25.934-7.089-19.7-7.701-30.23-25.115-22.906-45.266 4.46-12.269 13.327-20 26.642-22.241 20.653-3.475 41.248-7.297 61.9-10.774 11.314-1.906 22.72-3.26 34.043-5.118 25.452-4.177 50.703-10.416 76.754-8.882 12.958.764 25.852 2.675 38.76 4.19 9.467 1.11 18.916 2.372 28.361 3.656 13.832 1.881 27.645 3.894 41.48 5.749 8.65 1.16 17.33 2.097 25.988 3.196 7.823.993 15.634 2.092 23.454 3.108 10.263 1.333 20.532 2.62 30.795 3.947 15.156 1.96 30.258 4.737 45.476 5.694 16.494 1.036 33.095.423 49.649.451 10.166.017 20.332-.056 30.497-.189 20.953-.274 41.906-.56 62.857-.952 13.446-.25 26.886-.765 40.33-1.038 18.351-.373 36.705-.593 55.056-.945 17.113-.329 34.224-.789 51.336-1.112 18.792-.355 37.587-.57 56.378-.935 32.567-.632 65.131-1.434 97.7-1.937 9.174-.142 18.453-.212 27.516.972 11.767 1.537 20.494 9.068 28.285 17.458 6.873 7.4 13.339 15.179 20.1 22.686 12.416 13.787 28.17 22.595 45.456 28.27 8.738 2.869 18.277 4.243 27.502 4.49 22.65.605 45.34.62 67.988-.026 13.633-.39 27.24-2.276 40.819-3.835 12.566-1.443 25.203-2.73 37.589-5.191 18.23-3.624 36.452-7.564 54.326-12.615 16.12-4.555 32.1-9.988 47.541-16.466 22.655-9.506 44.951-20.319 61.205-39.566 10.725-12.701 16.454-27.016 12.838-44.883-3.441-17.002-13.109-27.819-27.957-33.831-14.85-6.013-30.016-5.42-43.913 4.323-11.247 7.885-22.403 15.985-34.197 22.984-13.263 7.871-27.084 14.801-42.104 19.03-8.28 2.333-16.293 5.623-24.575 7.951-5.646 1.587-11.52 2.483-17.348 3.28-7.647 1.045-15.391 2.637-23.017 2.295-12.97-.583-26.057-1.59-38.768-4.087-13.844-2.718-27.313-7.34-40.948-11.121-11.444-3.174-22.911-6.262-34.33-9.523-9.087-2.594-18.106-5.427-27.175-8.087-9.057-2.655-18.149-5.19-27.206-7.844-11.714-3.433-23.46-6.768-35.098-10.448-12.108-3.829-24.436-6.59-37.122-6.534-34.667.15-69.333.687-103.999 1.07-27.125.301-54.25.577-81.375.912-26.277.325-52.553.695-78.83 1.074-18.952.273-37.904.646-56.856.879-31.618.387-63.237.66-94.854 1.05-23.613.292-47.225.807-70.839 1.012-19.574.171-39.163-.392-58.722.182-13.768.404-25.71-3.392-35.567-12.721-14.852-14.055-29.687-28.17-43.773-42.978-10.806-11.36-22.81-20.426-37.935-24.582-8.458-2.324-17.222-4.149-25.947-4.74-11.777-.799-23.678-.698-35.475-.056-12.976.705-25.874 2.748-38.843 3.697-20.558 1.503-40.338 6.677-60.028 12.226-13.617 3.837-27.01 8.46-40.57 12.506-18.704 5.582-37.483 10.909-56.205 16.427-13.9 4.098-27.641 8.802-41.677 12.349-11.372 2.874-23.044 5.9-34.646 6.175-13.12.31-23.192-6.47-29.823-18.783-8.773-16.29-9.225-33.745-7.63-51.039 1.152-12.474 4.178-24.998 9.252-36.883 8.393-19.658 20.577-36.772 34.254-52.873 11.335-13.345 22.683-26.804 35.24-38.957 17.725-17.153 36.566-33.15 54.935-49.637 14.237-12.779 28.402-25.64 42.744-38.301 16.99-15.001 34.154-29.807 51.21-44.734 15.042-13.162 29.986-26.437 45.074-39.547 15.229-13.231 30.825-26.049 45.818-39.54 19.534-17.575 38.755-35.548 55.383-55.984 18.39-22.603 34.439-46.752 49.066-72.042 13.704-23.693 21.82-49.324 30.52-74.862 4.774-14.015 9.167-28.16 13.72-42.252a87366 87366 0 0 0 20.07-62.194c6.036-18.736 12.122-37.457 18.066-56.224 5.5-17.369 9.88-35.17 16.578-52.057 4.822-12.154 12.429-23.47 25.611-28.7 10.695-4.244 21.297-2.043 31.369 2.462 21.22 9.494 41.324 20.878 59.513 35.536 13.028 10.499 26.949 19.949 39.454 31.016 10.606 9.387 21.897 18.569 26.745 33.008 3.453 10.282 3.438 19.993-2.227 29.3-3.098 5.09-6.578 9.983-10.248 14.682-5.108 6.54-5.333 9.351.134 15.79 19.048 22.432 38.382 44.627 57.19 67.259 14.936 17.97 29.231 36.472 43.866 54.694 12.84 15.985 25.77 31.896 38.632 47.863 6.598 8.19 13.136 16.43 20.047 25.081l14.987-11.993 12.61 15.504-53.797 43.663-12.607-15.528 17.977-14.687c-4.746-5.897-9.474-11.75-14.178-17.621-14.551-18.16-29.01-36.394-43.665-54.47-11.412-14.076-23.087-27.937-34.6-41.931-11.818-14.366-23.503-28.843-35.4-43.146-7.81-9.39-15.945-18.512-23.834-27.839-7.192-8.5-14.83-16.757-18.002-27.848-2.575-9-.378-17.281 4.515-24.867 3.434-5.324 7.548-10.203 11.106-15.453 3.281-4.842 2.252-11.276-1.651-15.515-17.875-19.407-39.47-34.28-60.231-50.237-14.414-11.079-30.145-19.642-46.361-27.458-9.283-4.474-14.237-3.007-18.613 6.408-4.438 9.549-7.616 19.708-10.994 29.719-4.27 12.653-8.184 25.426-12.252 38.147-4.277 13.373-8.484 26.77-12.85 40.114-7.201 22.02-14.602 43.975-21.732 66.018-4.904 15.161-9.183 30.53-14.304 45.614-5.766 16.984-11.142 34.221-18.574 50.486-7.564 16.554-17.389 32.08-26.288 48.019-12.54 22.458-28.33 42.701-45.5 61.573-17.12 18.814-35.985 36.081-54.587 53.49-13.22 12.373-27.31 23.81-40.943 35.744-25.137 22.006-50.268 44.018-75.314 66.128-18.32 16.172-36.5 32.501-54.739 48.765-20.046 17.875-40.354 35.466-60.06 53.707-23.58 21.826-44.457 46.042-61.085 73.669-6.795 11.288-11.673 23.534-12.655 36.706-.842 11.29-.543 22.719.045 34.045.42 8.1 6.196 12.71 14.284 11.83 5.818-.634 11.59-2.162 17.239-3.786 17.09-4.916 34.118-10.051 51.158-15.142 12.972-3.876 25.91-7.867 38.892-11.712 17.51-5.187 35.024-10.364 52.58-15.39 10.797-3.091 21.574-6.388 32.55-8.685 11.038-2.309 22.28-3.747 33.49-5.096 11.122-1.34 22.301-2.316 33.483-3.037 10.257-.662 20.547-.883 30.827-1.097 15.76-.328 31.056 2.294 46.182 6.77 14.12 4.18 27.243 10.399 37.864 20.338 16.46 15.405 32.035 31.764 47.787 47.912 7.095 7.273 14.82 11.388 25.547 11.19 31.99-.591 63.995-.22 95.993-.396 16.128-.088 32.253-.605 48.38-.82 32.496-.433 64.992-.762 97.487-1.203 9.299-.127 18.593-.64 27.89-.718 17.083-.144 34.169.02 51.25-.159 22.617-.237 45.23-.731 67.845-1.026 28.292-.368 56.586-.602 84.877-.978 17.122-.228 34.31.223 51.343-1.167 16.68-1.36 32.971.105 49.107 3.471 9.213 1.922 17.999 5.816 27.076 8.483 14.4 4.23 28.902 8.109 43.325 12.263 10.977 3.162 21.87 6.62 32.852 9.765 12.391 3.549 24.869 6.794 37.255 10.36 9.094 2.62 17.982 6.063 27.183 8.179 8.29 1.907 16.862 2.661 25.343 3.631 5.576.638 11.26 1.392 16.807.962 8.962-.696 17.852-2.325 26.772-3.558 14.831-2.05 28.596-7.818 42.182-13.467 11.992-4.986 23.17-12.031 34.439-18.626 13.25-7.755 26.113-16.171 39.37-23.915 3.137-1.833 7.12-2.695 10.803-3.034 21.927-2.02 42.803 1.656 60.278 15.611 11.878 9.485 21.88 21.432 24.69 37.014 2.622 14.55 4.137 29.198-.649 44.036-4.192 13-11.639 23.524-20.41 33.476-15.869 18.003-36.637 28.76-58.043 38.179-16.077 7.073-32.76 12.779-49.216 18.978-8.21 3.092-16.374 6.453-24.819 8.73-8.655 2.333-17.617 3.55-26.465 5.146-8.01 1.444-16.04 2.792-24.076 4.086-14.51 2.335-28.959 5.487-43.565 6.684-22.105 1.81-44.26 3.64-66.539 1.646-9.92-.888-19.992-.379-29.985-.118-25.427.663-48.537-7.341-70.317-19.372-14.942-8.254-26.254-20.924-37.29-33.798-5.336-6.226-11.253-12.19-17.82-17.032-3.607-2.658-9.09-3.697-13.765-3.81-16.489-.396-32.996-.172-49.494.002-13.464.143-26.926.531-40.389.846-14.45.338-28.896.795-43.347 1.06-21.126.39-42.256.591-63.382.987-33.073.619-66.144 1.297-99.214 2.02-28.57.624-57.137 1.391-85.707 2.008-17.792.385-35.599 1.118-53.38.75-16.19-.333-32.407-1.431-48.512-3.141-14.003-1.487-27.834-4.525-41.798-6.463-14.519-2.015-29.12-3.425-43.659-5.301-13.696-1.768-27.344-3.91-41.039-5.683-14.37-1.86-28.78-3.425-43.16-5.214-12.234-1.523-24.43-3.402-36.687-4.684-5.933-.62-12.056-.91-17.946-.175-16.13 2.012-32.205 4.514-48.262 7.072-15.065 2.4-30.091 5.047-45.11 7.723-10.63 1.893-21.198 4.138-31.835 5.995-6.935 1.21-13.954 1.931-20.911 3.028-3.045.48-6.333.803-8.927 2.246-1.601.89-3.148 3.942-2.842 5.695.414 2.365 2.169 5.624 4.16 6.388 8.042 3.089 16.324 5.635 24.653 7.88 12.444 3.354 25.014 6.235 37.507 9.41 14.06 3.574 28.097 7.237 42.137 10.889a5188 5188 0 0 1 26.524 6.984c11.042 2.935 22.068 5.93 33.116 8.84a6079 6079 0 0 0 39.292 10.24c15.651 4.013 31.346 7.856 46.978 11.942 10.262 2.683 20.416 5.779 30.673 8.48 9.945 2.617 19.985 4.874 29.939 7.46 10.265 2.666 20.454 5.624 30.718 8.298 12.644 3.293 25.346 6.368 37.995 9.64 10.274 2.659 20.5 5.5 30.763 8.203 12.48 3.288 24.98 6.509 37.466 9.775 10.571 2.765 21.134 5.561 31.704 8.329 8.677 2.271 17.363 4.507 26.039 6.783q18.477 4.845 36.944 9.73c16.245 4.3 32.417 8.905 48.758 12.8 7.656 1.825 15.64 2.271 23.468 3.386 13.663 1.944 27.292 4.182 40.995 5.786 7.887.923 15.888.997 23.845 1.18 18.781.435 37.583 1.342 56.347.869 19.32-.487 38.602-2.435 57.907-3.637 8.114-.506 16.25-.651 24.367-1.114 23.308-1.329 46.614-2.678 69.913-4.135 13.693-.856 27.368-2.005 41.06-2.89 21.805-1.408 43.616-2.734 65.428-4.041 12.232-.733 24.478-1.249 36.705-2.054 23.922-1.577 47.834-3.293 71.75-4.942 15.021-1.036 30.06-1.849 45.058-3.137 15.601-1.34 31.188-2.93 46.734-4.794 11.083-1.329 22.18-2.85 33.102-5.108 9.24-1.91 18.324-4.73 27.319-7.633 12.064-3.895 24.09-7.964 35.93-12.489 19.627-7.5 39.277-14.992 58.582-23.272 26.119-11.201 52.313-22.354 77.732-35.019 20.286-10.107 40.323-21.206 58.891-34.132 19.309-13.442 36.084-30.217 46.73-51.902 6.364-12.964 9.736-26.906 13.084-40.903 4.075-17.038 4.43-34.406 2.592-51.387-1.449-13.39-6.467-26.573-11.134-39.4-8.332-22.897-23.597-41.426-40.032-58.9-16.397-17.434-36.614-28.91-59.255-36.453-16.833-5.608-34.264-7.612-51.755-8.742-11.836-.764-23.665.786-35.16 4.325-10.545 3.246-21.58 5.192-31.738 9.331-11.384 4.64-22.209 10.774-32.946 16.845-15.212 8.6-30.758 15.833-48.635 16.409-6.623.213-13.24.848-19.861.858-49 .075-98.004.483-146.994-.19a334.5 334.5 0 0 1-53.663-5.102c-25.39-4.508-46.707-17.203-64.706-35.999-20.717-21.633-40.079-44.359-58.667-67.807-17.729-22.363-35.732-44.507-53.623-66.741-19.2-23.859-38.448-47.677-57.602-71.572-19.874-24.79-39.623-49.68-59.502-74.466-8.033-10.016-16.268-19.87-24.916-30.415l21.67-16.566c15.874 19.97 31.424 39.704 47.164 59.286 17.325 21.553 34.903 42.903 52.224 64.459 16.678 20.755 33.08 41.731 49.766 62.48a6712 6712 0 0 0 49.212 60.471c14.76 17.92 29.08 36.275 44.87 53.25 10.784 11.595 22.22 23.186 37.259 29.686 12.8 5.532 26.141 8.81 40.194 9.774 63.36 4.343 126.785.84 190.168 1.937 14.593.252 27.304-5.398 39.761-12.22 13.133-7.19 26.146-14.768 39.854-20.69 10.522-4.545 21.9-7.438 33.158-9.862 11.505-2.476 23.282-4.225 35.02-4.902 9.323-.537 18.852.437 28.134 1.801 11.614 1.708 23.155 4.143 34.57 6.914 15.786 3.832 30.103 11.223 44.08 19.347 18.681 10.858 32.96 26.464 46.73 42.67 14.078 16.568 25.111 35.06 32.775 55.297 4.289 11.322 6.469 23.439 9.653 35.183 4.082 15.058 2.422 30.48 1.457 45.555-.847 13.23-4.768 26.335-8.03 39.32-4.102 16.323-10.165 32.212-20.52 45.434-10.056 12.838-21.712 24.565-33.628 35.754-8.182 7.683-17.46 14.58-27.214 20.126-20.883 11.875-42.246 22.94-63.701 33.766-13.745 6.936-27.898 13.102-42.062 19.16-16.98 7.262-34.118 14.168-51.282 20.99-12.514 4.974-25.096 9.806-37.803 14.254-13 4.55-26.135 8.739-39.316 12.739-9.655 2.93-19.4 5.674-29.254 7.803-8.638 1.866-17.446 3.182-26.248 4.001-21.197 1.973-42.433 3.512-64.122 5.228"/></svg>