<svg xmlns="http://www.w3.org/2000/svg" viewBox="0 0 1734 1053" xml:space="preserve"><path fill="#fff" d="M809.804 191.127c3.786 5 7.374 9.726 11.14 14.306 3.661 4.454 7.506 8.757 11.535 13.434l15.36-11.588 12.141 15.864-55.791 42.64-12.136-15.902 17.385-13.369c-5.066-6.328-9.961-12.423-14.834-18.536-11.497-14.423-22.883-28.935-34.505-43.255-8.734-10.761-17.865-21.199-26.638-31.93-10.117-12.374-20.02-24.924-30.043-37.376-5.163-6.413-10.213-12.928-15.618-19.132a2410 2410 0 0 0-32.32-36.337c-4.32-4.762-5.335-4.928-9.194.337-6.508 8.88-12.411 18.213-18.41 27.459-11.204 17.265-22.28 34.611-33.436 51.907-4.999 7.75-9.316 16.093-15.243 23.06-13.477 15.847-28.21 30.633-49.48 35.488-8.407 1.92-17.031-.092-25.16-3.238-7.489-2.898-14.827-6.363-22.541-8.415-3.346-.89-8.085.145-11.12 2.03-8.334 5.179-16.308 11.008-24.039 17.071-8.69 6.817-17.194 13.915-25.356 21.356-10.542 9.612-20.673 19.676-30.968 29.56-14.674 14.09-29.295 28.236-44.018 42.273-11.286 10.76-22.452 21.666-34.11 32.013-16.3 14.465-33.066 28.403-49.52 42.697-9.613 8.352-18.935 17.037-28.514 25.43-14.901 13.054-29.932 25.96-44.86 38.984-6.485 5.656-12.838 11.462-19.272 17.177-14.711 13.066-29.53 26.014-44.131 39.202-16.914 15.277-34.858 29.49-48.416 48.207-7.822 10.797-16.837 20.743-24.443 31.68-10.622 15.27-12.82 32.44-9.163 50.53 1.877 9.289 5.422 17.788 11.204 25.305 4.821 6.267 11.01 10.715 18.484 13.286 9.535 3.278 19.027 1.322 28.753.575 11.583-.89 22.842-2.797 33.98-5.615 11.884-3.007 23.56-6.823 35.407-9.981 13.113-3.496 26.224-7.11 39.51-9.82 13.94-2.845 28.087-4.681 42.145-6.95a16 16 0 0 1 1.976-.173c20.882-.673 41.785-2.164 62.64-1.676 11.299.265 22.528 3.856 33.77 6.036 13.127 2.547 24.216 9.505 35.189 16.615 2.74 1.775 5.25 3.99 7.585 6.288 8.022 7.893 15.96 15.875 23.852 23.897 7.048 7.164 14.089 14.338 20.96 21.67 7.413 7.91 15.905 11.701 27.223 11.39 25.98-.714 51.994-.096 77.992-.262 27.11-.173 54.217-.639 81.325-.962 28.775-.343 57.55-.62 86.324-1.036 7.279-.106 14.55-.86 21.827-.92 17.213-.142 34.428.08 51.64-.077 22.777-.208 45.551-.64 68.326-.968 23.442-.338 46.884-.657 70.325-1.004 21.609-.32 43.218-.613 64.824-1.03 5.947-.116 11.941-1.318 17.816-.834 15.187 1.252 30.388 2.2 44.909 8.054 8.877 3.579 18.536 5.192 27.792 7.87 8.184 2.367 16.257 5.119 24.447 7.465 14.975 4.291 30.042 8.263 44.992 12.637 17.114 5.007 34.023 10.756 51.25 15.312 10.245 2.71 20.905 3.93 31.431 5.45 5.377.778 10.923 1.382 16.3.937a253 253 0 0 0 27.214-3.753c21.395-4.15 41.828-11.403 60.773-22.095 12.737-7.188 24.51-16.064 36.93-23.842 6.379-3.994 12.867-8.624 19.956-10.466 8.703-2.262 18.095-2.627 27.17-2.494 9.688.143 19.162 2.64 28.062 6.745 9.735 4.49 18.235 10.67 25.03 19.019 3.202 3.934 6.64 7.788 9.146 12.153 4.373 7.616 5.955 16.169 7.112 24.83 1.615 12.089 1.262 23.81-2.249 35.72-3.839 13.027-11.596 23.25-20.229 33.087-14.099 16.07-32.217 26.413-51.337 35.118-14.634 6.663-29.36 13.178-44.332 19.027-9.74 3.805-19.877 6.763-30.04 9.268-15.196 3.744-30.551 6.854-45.879 10.038-7.74 1.608-15.553 2.893-23.363 4.132-8.908 1.413-17.826 2.821-26.782 3.863-21.577 2.51-43.233 3.604-64.965 3.055-15.94-.402-31.9-.338-47.82-1.106-17.47-.843-33.602-6.816-49.482-13.838-20.27-8.963-35.032-24.16-48.857-40.777-4.563-5.483-10.37-9.927-15.586-14.872-4.327-4.103-9.93-4.227-15.238-4.321-15.66-.277-31.332-.228-46.997-.06-14.277.152-28.55.626-42.825.962-14.109.331-28.216.729-42.326.985-21.44.389-42.884.622-64.325 1.028-32.384.614-64.768 1.296-97.15 1.993-29.385.634-58.767 1.367-88.152 1.98-19.607.407-39.22 1.07-58.823.86-10.83-.117-21.655-1.678-32.46-2.807-11.596-1.212-23.184-2.543-34.742-4.082-10.56-1.406-21.057-3.283-31.613-4.724-9.123-1.245-18.302-2.074-27.434-3.26-8.945-1.161-17.856-2.587-26.794-3.808-5.863-.802-11.754-1.397-17.62-2.173-17.251-2.28-34.462-4.914-51.754-6.814-13.765-1.513-27.63-2.973-41.443-2.91-10.42.047-20.848 2.423-31.24 3.978-11.994 1.795-23.966 3.747-35.923 5.778-11.798 2.003-23.55 4.278-35.35 6.275-15.655 2.65-31.346 5.095-47 7.757-2.55.433-5.343 1.038-7.355 2.49-1.433 1.033-2.79 3.957-2.313 5.435.709 2.195 2.723 4.858 4.786 5.57 8.033 2.77 16.295 4.884 24.49 7.177a1498 1498 0 0 0 19.829 5.382c7.13 1.89 14.276 3.72 21.417 5.569 10.128 2.621 20.249 5.275 30.391 7.842 13.64 3.453 27.325 6.732 40.938 10.286 10.278 2.684 20.433 5.84 30.716 8.506 15.204 3.943 30.483 7.593 45.708 11.455 9.998 2.536 19.942 5.28 29.937 7.83 10.935 2.789 21.94 5.314 32.843 8.22 12.472 3.325 24.828 7.085 37.306 10.387 10.281 2.72 20.681 4.988 31 7.572 6.51 1.63 12.956 3.522 19.453 5.21 13.933 3.622 27.894 7.14 41.819 10.791 12.028 3.154 24.004 6.506 36.038 9.636 11.08 2.881 22.23 5.49 33.306 8.388 12.03 3.148 23.985 6.576 36.013 9.723 10.931 2.86 21.956 5.365 32.87 8.285 12.642 3.383 25.115 7.45 37.84 10.466 10.174 2.41 20.598 3.81 30.946 5.434 7.948 1.247 15.956 2.107 23.928 3.205 6.5.894 12.966 2.5 19.484 2.724 26.875.925 53.769 2.093 80.645 1.884 18.276-.143 36.532-2.47 54.804-3.714 3.816-.26 7.678.16 11.494-.099 13.166-.891 26.313-2.049 39.481-2.905 12.54-.816 25.108-1.23 37.645-2.093 17.11-1.177 34.201-2.618 51.302-3.924 1.326-.101 2.67.036 3.998-.049 20.435-1.314 40.864-2.718 61.304-3.942 8.93-.535 17.898-.474 26.82-1.1 16.278-1.142 32.529-2.664 48.803-3.871 4.31-.32 8.679.172 12.992-.122 12.668-.863 25.32-1.953 37.98-2.913 5.27-.4 10.55-.683 15.824-1.045 14.49-.994 29.039-1.494 43.455-3.145 14.806-1.696 29.784-3.373 44.143-7.134 19.41-5.085 38.411-11.832 57.38-18.46 16.837-5.884 33.605-12.072 50.017-19.035 24.936-10.58 49.395-22.282 74.32-32.887 25.68-10.926 50.018-24.374 72.947-40.007 12.005-8.184 21.716-19.717 32.532-29.663 12.476-11.472 18.693-26.757 24.05-42.057 3.968-11.331 5.898-23.563 7.28-35.561 1.36-11.823 1.843-23.93.924-35.775-.752-9.673-3.626-19.297-6.472-28.666-4.51-14.846-10.847-29.044-20.275-41.432-8.368-10.995-17.656-21.296-26.642-31.813-11.235-13.147-26.174-21.257-41.34-28.506-10.379-4.96-21.417-8.871-33.218-10.017-11.584-1.124-23.093-4.246-34.634-4.246-11.54 0-23.26 1.99-34.573 4.557-12.532 2.842-24.97 6.617-36.924 11.32-9.26 3.645-17.85 9.108-26.492 14.181-15.299 8.983-31.107 16.181-49.268 16.642-5.28.134-10.55.906-15.825.914-50.833.072-101.67.425-152.495-.18-16.056-.192-32.198-2.305-48.08-4.894-11.333-1.847-22.965-4.557-33.238-9.454-10.353-4.936-20.262-11.96-28.465-20.006-15.304-15.013-29.704-31.027-43.615-47.363-17.73-20.821-34.621-42.357-51.835-63.617-18.246-22.535-36.505-45.06-54.646-67.679-15.556-19.397-30.913-38.955-46.435-58.38-13.677-17.117-27.434-34.17-41.208-51.21-7.36-9.105-14.826-18.123-22.551-27.555l22.48-17.783c5.777 7.027 11.463 13.827 17.02 20.73 8.983 11.16 17.888 22.384 26.813 33.591 10.261 12.883 20.443 25.83 30.78 38.652 10.448 12.962 21.103 25.758 31.558 38.715 11.488 14.237 22.828 28.591 34.274 42.861 8.868 11.056 17.818 22.045 26.697 33.091 8.774 10.917 17.431 21.928 26.277 32.786 8.746 10.735 17.472 21.499 26.561 31.941 9.665 11.104 19.787 21.807 29.634 32.754 10.992 12.22 24.367 21.115 39.792 26.243 9.086 3.02 18.858 4.696 28.437 5.4 61.488 4.518 123.094.9 184.63 2.292 18.605.421 34.532-6.054 50.296-14.79 13.613-7.544 27.427-15.067 41.92-20.582 13.843-5.267 28.506-8.952 43.132-11.399 10.591-1.772 21.714-.218 32.594-.448 11.301-.238 22.234 2.036 33.259 3.998 15.64 2.784 30.61 7.529 44.568 15.036 9.654 5.192 19.6 10.29 28.087 17.089 10.258 8.218 19.72 17.654 28.403 27.55 8.878 10.12 17.034 21.021 24.333 32.337 7.633 11.833 13.617 24.67 17.34 38.412 2.734 10.093 5.665 20.133 8.429 30.217.386 1.408.44 2.938.446 4.412.039 9-.016 18 .026 27 .095 19.976-4.863 39.048-10.603 57.93a146.4 146.4 0 0 1-20.344 41.709c-2.736 3.896-5.96 7.535-9.396 10.838-11.063 10.634-21.578 22.047-33.732 31.28-11.951 9.079-25.662 15.838-38.574 23.66-20.822 12.612-43.295 21.832-65.368 31.873-14.496 6.594-28.931 13.35-43.629 19.469-12.644 5.264-25.644 9.67-38.445 14.564-12.627 4.826-25.062 10.196-37.843 14.565-10.83 3.702-22.01 6.399-33.077 9.386-8.377 2.26-16.73 4.79-25.255 6.28-11.627 2.032-23.382 3.435-35.128 4.66-15.074 1.574-30.191 2.723-45.294 4.01-4.935.422-9.88.719-14.823 1.05-19.933 1.335-39.862 2.726-59.8 3.96-8.43.521-16.896.502-25.321 1.084-17.11 1.183-34.198 2.68-51.307 3.882-4.644.327-9.35-.218-13.992.128-15.942 1.187-31.867 2.598-47.8 3.9-1.325.108-2.67-.03-3.998.058-14.826.979-29.65 2.01-44.478 2.96-6.603.422-13.216.684-19.824 1.031-18.992.998-37.985 1.968-56.974 3.017-10.72.592-21.426 1.601-32.153 1.927-27.379.833-54.768 1.946-82.148 1.833-14.935-.061-29.88-2.195-44.783-3.748-13.723-1.43-27.438-3.056-41.075-5.132-8.711-1.327-17.308-3.488-25.894-5.531-12.598-2.998-25.152-6.182-37.702-9.37-9.823-2.496-19.6-5.169-29.42-7.674-11.122-2.836-22.3-5.451-33.394-8.39-10.283-2.725-20.438-5.937-30.735-8.6-15.22-3.937-30.533-7.508-45.77-11.377-6.823-1.733-13.52-3.963-20.34-5.706-16.346-4.175-32.752-8.113-49.09-12.316-7.457-1.918-14.78-4.358-22.222-6.341-12.344-3.289-24.744-6.363-37.103-9.596-10.747-2.811-21.458-5.763-32.207-8.57-12.186-3.185-24.404-6.248-36.594-9.422-10.776-2.805-21.523-5.727-32.3-8.53-9.651-2.509-19.33-4.91-28.988-7.387-10.296-2.64-20.573-5.353-30.875-7.964-13.48-3.417-27.012-6.63-40.455-10.182-12.65-3.343-25.18-7.13-37.821-10.502-9.949-2.653-19.923-5.284-30.004-7.347-9.585-1.961-18.378-6.037-25.126-12.52-4.465-4.287-7.535-11.24-8.678-17.467-1.462-7.968-.252-15.905 4.173-23.825 8.204-14.687 21.193-18.386 36.159-19.578 4.73-.376 9.448-1.13 14.116-2.009 11.43-2.152 22.785-4.736 34.252-6.657 10.52-1.762 21.172-2.717 31.717-4.344 7.908-1.22 15.71-3.116 23.61-4.396 10.359-1.679 20.732-3.412 31.165-4.437 8.889-.873 17.912-1.465 26.804-.947 12.954.755 25.856 2.515 38.757 4.042 9.288 1.1 18.532 2.566 27.807 3.78 8.31 1.088 16.64 2.01 24.951 3.086a2590 2590 0 0 1 29.28 3.943c8.444 1.191 16.854 2.62 25.306 3.737 9.127 1.205 18.301 2.05 27.426 3.267 14.155 1.886 28.274 4.035 42.43 5.91 6.688.885 13.412 1.73 20.143 2 14.1.565 28.215 1.042 42.323 1 21.442-.061 42.886-.486 64.324-.957 24.72-.543 49.434-1.33 74.152-1.963 14.986-.383 29.973-.719 44.96-.997 20.275-.377 40.55-.668 60.825-1.015 18.609-.318 37.218-.633 55.825-1.003 32.385-.643 64.787-.879 97.141-2.23 11.796-.492 23.558-1.583 34.706 2.371 6.626 2.35 13.363 6.113 18.362 10.976 10.895 10.6 20.253 22.774 31.1 33.428 10.103 9.923 22.655 16.49 35.938 21.4 14.4 5.323 29.383 6.396 44.617 6.133 17.661-.305 35.35.427 52.992-.232 13.627-.508 27.22-2.282 40.79-3.833 12.553-1.436 25.108-3.005 37.563-5.101 12.093-2.035 24.152-4.446 36.06-7.37 12.541-3.08 24.957-6.736 37.293-10.577 7.836-2.44 15.558-5.367 23.094-8.625 10.217-4.417 20.248-9.275 30.284-14.098 13.382-6.43 25.564-14.76 35.425-25.829 8.958-10.054 16.075-21.469 15.695-35.715-.463-17.377-6.855-31.95-22.572-40.696-8.765-4.877-18.338-6.952-28.82-6.03-9.631.848-16.978 5.354-24.481 10.494-11.414 7.819-22.649 16.022-34.68 22.782-13.188 7.41-27.287 12.962-41.713 17.916-16.563 5.687-33.514 9.253-50.636 11.777-9.019 1.33-18.52-.117-27.755-.899-7.663-.648-15.324-1.816-22.858-3.374-8.78-1.816-17.485-4.083-26.108-6.556-15.107-4.334-30.09-9.1-45.194-13.45-13.825-3.98-27.789-7.479-41.6-11.5-17.135-4.99-34.209-10.193-51.247-15.5-16.723-5.21-33.83-6.841-51.256-6.436a4744 4744 0 0 1-60.824 1.01c-39.107.406-78.218.553-117.323 1.083-17.562.238-35.111 1.498-52.672 1.664-34.529.324-69.063.104-103.593.312-21.776.13-43.55.623-65.325.964-20.776.326-41.552.61-62.325 1.027-7.779.156-15.553.962-23.326.906-18.652-.133-37.333-.07-55.939-1.163-9.063-.532-17.492-4.7-24.186-11.201-18.029-17.506-35.813-35.264-53.874-52.736-9.35-9.045-21.06-13.47-33.447-17.002-18.25-5.205-36.803-3.98-55.254-3.625-13.117.252-26.243 2.089-39.28 3.847-14.447 1.949-28.897 4.143-43.156 7.134-9.068 1.903-17.747 5.605-26.682 8.22-9.253 2.709-18.564 5.251-27.927 7.548-8.1 1.987-16.282 3.666-24.478 5.212-4.666.88-9.42 1.542-14.157 1.744-12.267.525-24.706 2.088-36.772.665-10.183-1.2-19.663-6.398-28.118-12.95-10.239-7.933-17.147-18.206-22.604-29.649-4.422-9.272-6.177-19.237-7.893-29.307-2.137-12.541-.425-24.916 2.565-36.698 2.487-9.795 8.003-19.042 13.33-27.834 5.35-8.83 11.708-17.146 18.36-25.068 13.069-15.564 26.1-31.192 42.189-43.927 6.99-5.533 13.322-11.895 20.003-17.825 14.463-12.838 28.983-25.612 43.433-38.465 9.89-8.796 19.637-17.751 29.562-26.506 11.273-9.942 22.674-19.738 34.017-29.6 9.1-7.913 18.164-15.867 27.3-23.737 13.885-11.959 28.06-23.594 41.658-35.868 11.462-10.346 22.212-21.477 33.406-32.126 8.403-7.996 17.022-15.764 25.517-23.665 2.028-1.886 3.917-3.92 5.91-5.844 11.965-11.541 23.647-23.396 35.986-34.522 16.182-14.589 32.728-28.788 49.445-42.761 6.41-5.358 13.381-10.266 20.71-14.25 10.634-5.781 22.37-6.897 34.051-3.813 6.732 1.778 13.335 4.499 19.553 7.667 10.138 5.165 15.557 3.768 26.267-3.25 14.967-9.81 23.385-24.944 32.738-39.316 12.398-19.052 24.449-38.33 36.866-57.37 6.287-9.639 12.767-19.18 19.685-28.368 5.993-7.958 18.971-12.413 30.22-10.219 11.673 2.278 17.88 10.493 24.862 18.358 6.262 7.054 12.31 14.324 18.935 21.022 12.967 13.113 24.014 27.77 35.299 42.27 9.72 12.49 19.852 24.659 29.82 36.954 12.246 15.107 24.52 30.19 36.76 45.302 2.383 2.942 4.667 5.965 7.117 9.289"/></svg>