<svg xmlns="http://www.w3.org/2000/svg" viewBox="0 0 2333 1500" xml:space="preserve"><path fill="#fff" d="M1320.07 1083.09c-19.046-1.756-37.567-3.646-56.284-3.157-8.817.23-17.672-1.255-26.52-1.826-16.428-1.06-32.866-1.985-49.296-3.032-9.35-.595-18.737-.953-28.018-2.125-5.367-.678-10.632-2.535-15.802-4.277-4.666-1.573-9.672-2.975-13.564-5.787-4.741-3.426-8.48-8.242-12.629-12.479-.198-.202-.075-.761-.28-.911-8.35-6.138-8.034-14.91-7.865-23.988.332-17.827-.14-35.668.184-53.495.206-11.351 1.341-22.683 1.839-34.033.118-2.71-.242-5.609-1.174-8.129-.465-1.26-2.656-2.523-4.166-2.656-13.409-1.18-26.89-1.67-40.253-3.21-19.562-2.254-39.056-5.122-58.554-7.898-10.42-1.484-20.866-2.964-31.144-5.17-4.57-.981-8.667-3.983-13.129-5.673-16.803-6.364-31.58-15.956-45.315-27.423-18.464-15.415-37.156-30.557-55.755-45.809-11.752-9.637-23.565-19.201-35.259-28.91-15.62-12.967-31.12-26.08-46.73-39.06-17.311-14.395-34.615-28.799-52.063-43.026-10.906-8.893-21.92-17.671-33.167-26.126-10.879-8.18-22.047-15.983-33.239-23.734a90 90 0 0 0-12.95-7.44c-6.623-3.105-11.7.07-13.963 7.097-2.647 8.218-6.335 16.094-9.295 24.22-2.417 6.634-4.273 13.472-6.66 20.118-2.657 7.393-5.677 14.654-8.461 22.002-5.176 13.658-10.276 27.345-15.446 41.005-2.337 6.174-5.146 12.196-7.074 18.492-4.087 13.346-10.25 25.986-12.167 40.107-1.423 10.48-4.777 20.688-7.086 31.058-2.033 9.132-3.693 18.347-5.742 27.475-1.263 5.626-3.105 11.12-4.407 16.737-2.295 9.893-4.394 19.83-6.538 29.757-1.262 5.84-2.59 11.67-3.647 17.548-2.205 12.26-4.172 24.564-6.397 36.82-.977 5.386-2.45 10.68-3.513 16.052-2.542 12.85-4.979 25.72-7.45 38.584-1.066 5.552-2.088 11.113-3.172 16.662-2.598 13.31-5.152 26.63-7.864 39.918-1.351 6.62-3.196 13.14-4.486 19.77-1.977 10.16-3.6 20.387-5.5 30.562-1.69 9.06-3.652 18.07-5.307 27.137-1.366 7.483-2.407 15.024-3.688 22.523-1.062 6.218-2.302 12.405-3.392 18.619-1.565 8.925-3.039 17.866-4.6 26.793-1.309 7.488-2.719 14.958-4.023 22.447-1.361 7.812-2.568 15.652-3.994 23.452-1.278 6.994-2.836 13.937-4.136 20.927-1.362 7.328-2.561 14.686-3.84 22.03-1.388 7.979-2.81 15.952-4.172 23.937-1.307 7.66-2.42 15.355-3.866 22.988-1.378 7.279-3.214 14.47-4.59 21.75-1.298 6.858-2.13 13.804-3.401 20.668-1.877 10.133-3.79 20.267-6.086 30.309-.536 2.342-2.453 4.509-4.12 6.42-2.515 2.881-5.721 5.2-8.008 8.23-5.815 7.705-13.879 9.329-22.142 6.892-7.072-2.085-14.745-4.417-19.422-11.027-3.73-5.27-6.93-10.914-10.462-16.328-5.728-8.782-11.255-17.716-17.386-26.21-6.84-9.478-13.88-18.869-21.552-27.67-5.627-6.456-12.503-11.809-18.648-17.83-3.526-3.453-6.393-7.618-10.097-10.842-12.848-11.184-25.863-22.18-38.946-33.087a3165 3165 0 0 0-39.172-32.107 749 749 0 0 0-23.939-18.56c-9.651-7.164-18.51-15.031-25.604-24.858-2.875-3.983-7.35-6.92-9.768-11.103-6.735-11.647-11.718-23.909-11.925-37.826-.154-10.422 1.05-20.584 3.26-30.677 1.824-8.322 4.014-16.563 5.875-24.878 1.759-7.857-.377-13.423-6.817-17.673-13.764-9.082-27.679-17.938-41.385-27.104-17.097-11.434-33.995-23.165-51.076-34.623-13.68-9.176-27.52-18.11-41.253-27.208-3.571-2.365-5.487-5.667-5.514-10.123-.05-8.005-.192-15.82 4.374-23.136 1.8-2.884 1.43-6.656-1.451-10.169-5.573-6.79-11.852-14.04-10.502-23.487.802-5.61 4.155-11.02 7.045-16.135 9.978-17.661 20.252-35.156 30.422-52.71 10.516-18.148 21.12-36.245 31.536-54.451 6.7-11.711 13.05-23.621 19.706-35.358 4.759-8.393 9.856-16.594 14.64-24.973 9.506-16.652 18.812-33.419 28.382-50.034 4.25-7.376 9.138-14.385 13.386-21.763 6.34-11.013 12.248-22.276 18.565-33.303 7.942-13.863 16.268-27.508 24.143-41.41 9.431-16.65 18.45-33.534 27.861-50.196 6.268-11.098 12.974-21.947 19.365-32.977 6.684-11.535 13.152-23.195 19.85-34.722 5.82-10.016 11.914-19.874 17.73-29.892 5.099-8.782 9.845-17.77 14.988-26.524 7.954-13.541 14.484-28.03 26.4-38.952 3.21-2.943 5.719-6.697 8.326-10.243 4.149-5.641 10.66-7.163 16.554-9.667 6.475-2.75 13.14-5.055 19.74-7.506a9.3 9.3 0 0 1 2.83-.55c9.258-.367 18.553-1.322 27.768-.824 7.686.416 15.332 2.312 22.895 4.007 5.316 1.191 10.361 3.817 15.705 4.613 10.341 1.542 17.847 6.996 24.179 14.864 4.32 5.368 8.954 10.49 13.572 15.61a24524 24524 0 0 0 48.024 53.048c10.269 11.317 20.68 22.507 30.852 33.91 12.072 13.532 23.83 27.345 35.995 40.791 3.695 4.085 7.832 8.17 12.569 10.822 8.442 4.726 10.052 1.895 14.092-5.004 7.284-12.437 14.088-25.158 20.968-37.829 7.357-13.549 14.479-27.225 21.87-40.755 7.854-14.375 15.997-28.59 23.841-42.97 8.69-15.927 17.075-32.02 25.795-47.93 8.273-15.094 16.874-30.007 25.201-45.071 4.408-7.976 8.47-16.142 12.813-24.154 5.108-9.42 10.094-18.922 15.616-28.099 4.848-8.059 13.81-8.214 21.769-10.036 9.876-2.261 16.93 4.05 24.56 8.373 9.82 5.563 19.507 11.362 29.223 17.109 16.388 9.693 32.742 19.446 49.134 29.134 14.442 8.535 28.963 16.939 43.364 25.544 11.357 6.786 22.544 13.857 33.88 20.68 18.184 10.947 36.414 21.818 54.653 32.674 19.672 11.71 39.337 23.433 59.082 35.018 11.38 6.677 22.937 13.05 34.368 19.638 10.572 6.092 20.993 12.45 31.64 18.404 19.231 10.754 38.542 21.368 57.896 31.9 14.992 8.157 29.929 16.451 45.22 24.02 10.766 5.33 21.913 10.022 33.218 14.086 7.378 2.652 15.374 3.548 23.036 5.46 5.286 1.318 10.42 3.26 15.72 4.5 5.972 1.398 12.013 2.887 18.099 3.339 17.572 1.305 35.187 2.024 52.775 3.137 13.606.862 27.189 2.079 40.794 2.94 12.832.811 25.68 1.346 38.52 2.036 18.269.982 36.63 1.17 54.777 3.232 17.436 1.981 34.826 2.621 52.316 2.86 12.182.166 24.387.863 36.52 1.99 18.073 1.681 36.11 3.11 54.303 3.1 11.42-.006 22.831 1.939 34.264 2.77 11.494.834 23.004 1.495 34.516 2.008 11.082.494 22.183.585 33.266 1.067 12.183.529 24.472.459 36.512 2.123 38.863 5.372 77.88 1.87 116.811 2.664 6.665.136 13.435-1.843 20.048-3.324 4.838-1.083 9.434-3.216 14.253-4.417 10.197-2.542 16.473-8.989 20.134-18.618 2.966-7.801 6.394-15.427 9.592-23.142.43-1.036.92-2.114 1.027-3.207.753-7.656 1.35-15.327 2.126-22.98.46-4.532 1.34-9.027 1.67-13.564.172-2.37-.29-4.822-.715-7.192-2.946-16.399-5.984-32.78-8.939-49.177-1.751-9.72-2.86-19.595-5.244-29.155-2.718-10.902-6.682-21.487-9.829-32.29-3.816-13.102-6.99-26.402-11.126-39.399-2.581-8.113-6.563-15.77-9.666-23.73-4.196-10.761-7.985-21.682-12.266-32.408-3.265-8.178-7.26-16.066-10.5-24.253a653 653 0 0 1-11.326-30.805c-3.498-10.326-7-20.695-9.61-31.266-2.164-8.771-3.302-17.828-4.424-26.818-3.923-31.428-2.035-63.022-1.773-94.523.15-18.112 1.585-36.51 5.28-54.186 2.344-11.207 8.524-22.075 18.967-29.416 6.975-4.904 14.06-9.412 21.916-12.678 1.472-.612 3.106-1.241 4.651-1.207 9.247.203 18.493.51 27.731.959 7.016.34 12.125 4.74 17.49 8.597 12.51 8.996 19.592 22.259 26.646 35.214 6.592 12.107 14.869 22.747 26.487 29.449 10.298 5.94 21.524 10.814 33.989 11.842 13.303 1.097 26.53 3.135 39.78 4.848 7.09.916 14.275 1.51 21.204 3.15 9.173 2.17 17.658 5.812 23.472 14.064 8.939 12.684 11.43 27.254 13.345 42.13 1.41 10.947 3.377 21.82 4.97 32.744 1.104 7.56 1.993 15.153 2.976 22.732.334 2.578.641 5.16 1 7.735 1.659 11.913 3.23 23.84 5.034 35.73 1.361 8.971 3.121 17.88 4.533 26.845 1.266 8.032 2.318 16.098 3.428 24.155 1.376 9.995 2.663 20.003 4.086 29.991 1.236 8.679 2.667 17.33 3.903 26.007 1.423 9.985 2.714 19.988 4.084 29.98.984 7.183 2.004 14.362 3.021 21.636l-25.241 2.823c-1.016-8.657-1.935-17.24-3.055-25.797-.956-7.302-2.116-14.578-3.237-21.858-.87-5.65-1.84-11.286-2.73-16.933-1.495-9.475-3.05-18.942-4.416-28.435-1.304-9.065-2.268-18.179-3.627-27.235-1.357-9.036-3.02-18.026-4.543-27.037-.163-.97-.28-1.946-.42-2.92-1.635-11.313-3.388-22.61-4.87-33.944-1.21-9.271-2.023-18.594-3.17-27.874-.419-3.39-1.287-6.724-1.96-10.081-.321-1.597-.74-3.177-.988-4.784-1.66-10.76-4.029-21.48-4.676-32.304-.483-8.09-2.635-15.402-5.174-22.901-2.438-7.201-8.17-10.116-14.416-11.187-8.884-1.524-18.065-1.22-27.043-2.316-9.554-1.166-19.028-3.01-28.521-4.645-4.93-.85-9.992-1.389-14.703-2.949-8.617-2.852-17.502-5.484-25.372-9.84-7.78-4.307-14.778-10.254-21.478-16.204-4.44-3.943-8.156-8.887-11.485-13.859-7.566-11.298-14.067-23.358-22.183-34.226-7.465-9.997-24.097-12.195-35.247-5.672-4.076 2.384-8.527 4.605-11.695 7.952-4.982 5.263-8.29 11.785-8.817 19.266-1.077 15.296-.91 30.779-3.303 45.86-3.294 20.75-1.126 41.443-1.502 62.138-.208 11.446 1.413 22.98 2.903 34.383 1.003 7.675 2.802 15.316 5.003 22.748 2.509 8.474 5.766 16.734 8.87 25.022 3.93 10.5 7.983 20.953 12.078 31.39 2.967 7.562 6.21 15.017 9.109 22.604 4.429 11.595 8.586 23.293 13.014 34.888 2.723 7.132 6.153 14.017 8.509 21.26 2.853 8.769 4.842 17.816 7.337 26.706 1.045 3.722 2.57 7.307 3.627 11.026 2.214 7.781 4.191 15.63 6.405 23.412 1.373 4.828 3.276 9.516 4.452 14.386 1.722 7.13 3.062 14.355 4.46 21.56 1.242 6.405 2.385 12.83 3.49 19.26 1.549 9.008 3.02 18.029 4.527 27.043.996 5.953 3.035 11.95 2.775 17.846-.482 10.945-2.239 21.838-3.598 32.736-.526 4.216-1.022 8.505-2.229 12.552-1.966 6.595-4.433 13.046-6.826 19.507-1.907 5.145-3.745 10.345-6.094 15.292-5.422 11.414-14.176 19.853-25.377 25.336-4.873 2.387-10.671 2.85-16.007 4.337-5.614 1.565-11.083 4.119-16.786 4.79-8.846 1.041-17.838 1.147-26.766 1.116-12.647-.044-25.292-.756-37.939-.827-7.765-.044-15.536.89-23.3.833-17.104-.126-34.215-.341-51.304-1.01-16.984-.664-33.945-1.905-50.913-2.936-10.207-.62-20.418-1.218-30.611-2.018-10.98-.862-21.94-1.963-32.913-2.921-1.489-.13-3 .018-4.496-.06-25.72-1.327-51.44-2.668-77.158-4.01-6.098-.319-12.193-.7-18.293-.972-22.805-1.021-45.617-1.919-68.417-3.04-17.31-.85-34.611-1.927-51.912-2.981-15.474-.943-30.945-1.967-46.414-3.002q-13.81-.923-27.61-1.995a6186 6186 0 0 1-36.915-2.983c-7.372-.617-14.784-1.003-22.092-2.076-9.196-1.35-18.381-2.96-27.429-5.068-11.265-2.625-22.488-5.542-33.529-8.974-6.961-2.164-13.62-5.364-20.304-8.345-11.666-5.202-23.476-10.153-34.8-16.03-11.537-5.987-22.538-13.003-33.82-19.488-5.086-2.924-10.285-5.652-15.431-8.472-13.965-7.65-27.94-15.28-41.888-22.96a3473 3473 0 0 1-27.576-15.345c-9.672-5.44-19.392-10.804-28.916-16.496-5.426-3.242-10.343-7.338-15.779-10.561-5.4-3.202-11.291-5.567-16.732-8.708-6.375-3.68-12.44-7.893-18.739-11.71-10.434-6.322-20.931-12.54-31.432-18.753-14.877-8.8-29.793-17.536-44.671-26.335-14.379-8.503-28.728-17.056-43.094-25.58a88107 88107 0 0 0-43.152-25.58c-12.628-7.482-25.283-14.918-37.88-22.45-9.123-5.457-18.093-11.175-27.297-16.49-3.288-1.9-6.807-2.233-9.122 2.05-5.69 10.52-11.414 21.022-17.24 31.467-7.611 13.643-15.406 27.184-22.981 40.846-4.452 8.03-8.516 16.273-12.961 24.305-6.639 11.995-13.59 23.817-20.164 35.846-5.802 10.614-11.216 21.44-16.903 32.117-3.846 7.219-7.854 14.352-11.812 21.51-7.372 13.332-14.816 26.625-22.128 39.99-7.428 13.578-13.739 27.912-22.488 40.568-4.792 6.932-13.388 11.42-20.773 16.239-1.81 1.18-5.738-.253-8.442-1.201-6.311-2.215-12.895-4.157-18.562-7.555-4.797-2.876-8.659-7.455-12.585-11.61-5.793-6.133-11.249-12.584-16.899-18.854-9.572-10.624-19.192-21.206-28.778-31.819-8.937-9.893-17.925-19.74-26.763-29.721-8.957-10.116-17.617-20.498-26.667-30.529-9.3-10.308-18.933-20.316-28.376-30.495-2.54-2.737-4.61-6-7.463-8.327-2.685-2.19-5.952-3.98-9.253-5.037-8.224-2.632-16.514-5.261-24.971-6.885-5.669-1.09-11.767.168-17.496-.742-8.539-1.357-15.357 3.295-22.986 5.106-10.684 2.536-17.858 9.021-24.595 17.262-11.05 13.519-18.619 29.033-27.24 43.967-10.564 18.301-21.209 36.557-31.73 54.884-5.446 9.487-10.576 19.157-16.067 28.617-9.619 16.57-19.514 32.98-29.083 49.577-6.168 10.7-11.833 21.688-17.962 32.41-5.464 9.558-11.32 18.89-16.878 28.397-3.817 6.53-7.411 13.19-11.121 19.784-3.13 5.562-6.314 11.093-9.414 16.67-3.575 6.43-6.975 12.958-10.653 19.328-3.523 6.102-7.474 11.96-10.935 18.095-6.089 10.798-11.764 21.832-17.955 32.57-5.76 9.99-12.124 19.629-17.934 29.59-6.826 11.704-13.26 23.635-20.016 35.381-5.906 10.27-12.103 20.371-18.024 30.633-7.545 13.078-14.904 26.264-22.412 39.363-8.767 15.295-17.564 30.573-26.444 45.802-3.163 5.426-3.2 7.767 2.074 13.32 6.578 6.927 8.557 15.213 7.693 24.226-.274 2.86-2.955 5.417-3.792 8.327-.468 1.627-.062 4.669 1.055 5.413 13.916 9.263 28.09 18.135 42.081 27.287 9.99 6.535 19.72 13.47 29.713 19.998 14.747 9.632 29.862 18.718 44.357 28.71 8.335 5.745 15.915 12.638 23.479 19.412 1.956 1.753 2.884 4.905 3.739 7.589 2.63 8.253 3.795 16.67 1.523 25.24-2.25 8.491-4.837 16.905-6.768 25.467-1.481 6.566-2.323 13.29-3.172 19.98-.857 6.75 2.491 12.498 4.446 18.693 4.346 13.773 15.56 21.954 24.594 31.72 6.513 7.039 15.2 12.05 22.835 18.071 8.122 6.407 16.124 12.966 24.217 19.411 12.06 9.605 24.171 19.15 36.232 28.755 14.373 11.448 28.454 23.176 40.87 36.851 7.322 8.065 15.712 15.15 23.307 22.981 3.064 3.158 5.357 7.084 7.884 10.74 5.683 8.227 11.304 16.498 16.931 24.763 7.178 10.54 14.362 21.077 21.486 31.654 1.721 2.555 3.491 2.44 5.764.751 3.444-2.558 5.047-5.423 5.495-10.131.828-8.706 3.51-17.22 5.086-25.875 2.047-11.233 3.633-22.55 5.681-33.783 1.255-6.885 3.184-13.645 4.48-20.524 1.362-7.23 2.215-14.553 3.498-21.798 1.45-8.179 3.262-16.293 4.67-24.478 1.273-7.407 2.227-14.87 3.296-22.311.696-4.851 1.163-9.742 2.056-14.556 1.637-8.83 3.68-17.588 5.249-26.43 2.054-11.573 3.713-23.216 5.741-34.794 1.097-6.259 2.753-12.418 3.901-18.67 1.8-9.796 3.219-19.664 5.117-29.44 1.21-6.226 3-12.337 4.513-18.504.194-.793.285-1.61.427-2.417 1.493-8.47 2.993-16.938 4.478-25.41 1.184-6.755 2.247-13.534 3.552-20.266 1.332-6.878 2.964-13.696 4.335-20.567 1.299-6.505 2.338-13.062 3.66-19.561 1.42-6.975 3.143-13.89 4.526-20.871.699-3.524.79-7.165 1.414-10.707 1.605-9.102 3.247-18.2 5.074-27.26 2.094-10.38 4.537-20.691 6.584-31.08 2.271-11.527 4.187-23.123 6.419-34.657.99-5.115 2.443-10.137 3.57-15.227 2.504-11.318 4.846-22.673 7.434-33.972 1.309-5.715 3.192-11.3 4.484-17.018 1.363-6.04 2.276-12.18 3.491-18.255.798-3.99 1.726-7.955 2.694-11.907a2176 2176 0 0 1 5.249-20.891c1.656-6.48 2.994-13.072 5.13-19.392 3.07-9.078 6.755-17.946 10.144-26.917a21433 21433 0 0 0 15.2-40.381c4.996-13.303 10.042-26.588 14.936-39.928 4.65-12.673 9.56-25.275 13.541-38.16 2.79-9.03 10.019-13.458 16.494-18.887 1.098-.92 2.071-1.99 3.092-3.002 4.65-4.606 10.402-3.59 15.641-2.22 5.12 1.338 10.023 3.797 14.75 6.28 5.75 3.017 11.4 6.304 16.76 9.963 7.686 5.247 15.102 10.894 22.578 16.444 11.798 8.757 23.82 17.24 35.26 26.445 17.738 14.269 35.05 29.065 52.572 43.602 13.28 11.018 26.692 21.88 39.89 32.996 13.026 10.97 25.72 22.336 38.812 33.225 13.034 10.841 26.408 21.274 39.583 31.946 11.136 9.019 22.098 18.256 33.333 27.148 8.33 6.594 17.238 12.258 27.511 15.577 3.313 1.07 6.192 3.413 9.434 4.783 8.619 3.642 17.651 5.37 26.991 6.264 6.932.663 13.726 2.734 20.594 4.12 1.758.355 3.555.547 5.344.72 17.002 1.645 34 3.348 51.015 4.863 6.773.603 13.596.637 20.376 1.187 6.213.503 12.498.9 18.548 2.253 2.651.593 4.903 3.326 7.127 5.32 1.065.956 1.567 2.51 2.453 3.696 5.06 6.773 6.573 14.243 6.277 22.738-.576 16.48.088 32.999-.248 49.491-.28 13.713-1.365 27.407-1.874 41.118-.255 6.842 7.094 15.599 13.73 17.4 5.982 1.622 11.849 3.668 17.776 5.497.776.24 1.603.398 2.413.43 17.203.686 34.417 1.158 51.606 2.101 7.838.43 15.623 1.806 23.438 2.7 1.646.188 3.318.146 4.978.215 24.14 1.002 48.287 1.842 72.415 3.081 10.49.54 20.92 2.254 31.41 2.803 18.389.962 36.811 1.277 55.205 2.166 15.816.764 31.613 1.917 47.415 2.971 4.552.304 9.088.86 13.762 1.313 2.305-12.087 4.329-23.461 6.693-34.764 1.122-5.367 3.064-10.559 4.326-15.903 1.387-5.875 2.353-11.849 3.623-17.754 1.37-6.37 2.935-12.696 4.31-19.064 1.295-6.004 2.379-12.053 3.695-18.05 1.155-5.26 2.498-10.476 3.767-15.71.5-2.061.926-4.149 1.558-6.17 1.448-4.629 5.799-5.78 9.522-7.471 3.828-1.738 7.822-3.167 11.841-4.417 10.509-3.27 21.074-3.07 31.664-.215 1.406.38 2.985.077 4.476.194 8.202.643 16.402 1.316 24.603 1.982 8.202.667 16.413 1.236 24.603 2.031 12.575 1.22 25.134 2.602 37.7 3.905 3.599.373 7.193.828 10.802 1.042 12.197.726 24.414 1.154 36.593 2.1 8.496.66 16.996 1.676 25.37 3.213 2.21.406 4.478 3.008 5.82 5.161 3.807 6.108 7.853 12.232 10.442 18.88 1.908 4.9 1.86 10.618 2.348 16.002.548 6.032.465 12.128 1.168 18.136.314 2.683 2.29 5.142 2.8 7.838 1.912 10.08 7.757 17.777 14.373 25.145 7.641 8.51 15.979 15.697 27.411 18.903 4.711 1.322 8.698 5.19 13.405 6.577 4.42 1.302 9.358.79 14.058 1.197 9.162.794 18.317 1.679 27.476 2.508q2.716.244 5.44.364c22.47 1.011 44.945 1.956 67.413 3.039 10.877.524 21.755 1.136 32.607 2.022 8 .654 15.957 1.822 23.935 2.745.988.115 1.985.151 2.98.197 14.702.682 29.405 1.367 44.109 2.033 7.553.342 15.123.457 22.66 1.015 10.983.813 21.942 1.945 32.914 2.904 1.49.13 2.999.001 4.496.057 17.704.659 35.498.457 53.086 2.261 15.481 1.589 30.888 2.84 46.442 2.831 4.874-.002 9.799.909 14.61 1.857 5.644 1.112 10.061-2.288 15.083-3.398 6.11-1.35 9.258-5.864 12.229-10.605 10.917-17.422 21.826-34.85 32.597-52.363 8.046-13.081 15.34-26.661 24.005-39.31 4.94-7.21 6.784-15.37 10.051-23.065 1.477-3.476 1.127-7.747 1.503-11.668.836-8.724 1.86-17.37.126-26.206-1.857-9.462-2.781-19.108-4.112-28.674-1.667-11.977-3.265-23.964-5.018-35.928-1.92-13.1-4.04-26.17-5.964-39.27-1.428-9.713-2.63-19.46-4.03-29.178-1.281-8.895-2.693-17.773-4.049-26.658-.642-4.204-1.271-8.41-1.938-12.611-1.51-9.527-3.158-19.034-4.517-28.582-.74-5.2-.817-10.494-1.516-15.702a1679 1679 0 0 0-4.994-34.463c-1.331-8.559-3.064-17.055-4.369-25.617-1.356-8.9-2.35-17.853-3.618-26.766-1.383-9.719-2.908-19.417-4.354-29.127q-1.333-8.978-2.616-17.964c-1.02-7.126-2.003-14.256-3.024-21.382-1.14-7.943-2.304-15.882-3.513-24.202l-36.707 4.82-3.277-24.748 98.95-13.157c1.093 8.326 2.144 16.347 3.244 24.737l-36.97 5.019c1.47 8.5 2.949 16.582 4.245 24.694.872 5.465 1.359 10.993 2.257 16.453.746 4.538 2.09 8.984 2.713 13.533.687 5.013.609 10.132 1.3 15.145 1.418 10.276 3.199 20.502 4.689 30.769.89 6.134 1.417 12.32 2.28 18.46 1.857 13.193 3.877 26.362 5.73 39.556 1.177 8.382 2.08 16.803 3.275 25.183 1.282 8.992 2.752 17.957 4.156 26.93.925 5.916 1.943 11.818 2.806 17.743a5712 5712 0 0 1 5.494 38.612c1.23 8.862 2.274 17.75 3.54 26.607 1.399 9.797 2.985 19.567 4.432 29.358.905 6.119 1.654 12.26 2.558 18.38 1.872 12.684 4.551 25.302 5.516 38.053 1.168 15.434 5.221 30.544 2.819 46.462-2.003 13.272-4.324 26.238-10.424 38.128-5.054 9.852-11.163 19.168-16.896 28.666a1738 1738 0 0 1-15.004 24.372c-8.926 14.251-17.947 28.443-26.872 42.695-2.81 4.487-5.595 9.003-8.119 13.653-2.986 5.501-7.908 8.145-13.357 10.664-17.475 8.079-35.708 6.942-54.062 5.223-4.416-.413-8.838-.823-13.267-1.019-9.418-.417-18.851-.556-28.265-1.057-16.77-.893-33.531-1.976-50.297-2.97q-17.017-1.011-34.035-1.998c-17.431-1.01-34.866-1.96-52.292-3.034-8.851-.545-17.681-1.43-26.534-1.942-18.76-1.086-37.533-1.96-56.294-3.053-15.274-.89-30.546-1.848-45.8-3.018-9.78-.75-19.514-2.066-29.289-2.872-4.3-.355-8.666.133-12.98-.126-8.681-.522-17.41-.869-25.99-2.147-4.137-.616-8.056-3.031-11.945-4.899-5.795-2.783-11.265-6.383-17.259-8.581-8.129-2.982-13.213-9.302-18.764-15.166-4.663-4.927-8.591-10.591-13.512-15.22-5.184-4.876-7.138-11.15-9.188-17.413-2.84-8.672-6.153-17.252-6.647-26.548-.322-6.06-.536-12.176-1.585-18.129-.653-3.71-2.577-7.264-4.37-10.657-.451-.855-2.565-1.007-3.951-1.167-11.833-1.368-23.665-2.746-35.515-3.952-8.162-.83-16.354-1.359-24.527-2.085-14.513-1.291-29.021-2.638-43.534-3.943-4.25-.382-8.509-.69-12.762-1.052-15.51-1.32-31.007-2.836-46.537-3.843-3.932-.255-8.12.627-11.912 1.852-3.586 1.16-5.658 3.625-5.795 8.275-.174 5.901-1.936 11.777-3.212 17.62-2.444 11.191-5.034 22.35-7.552 33.526-2.125 9.434-4.263 18.866-6.343 28.31-1.596 7.25-2.89 14.573-4.717 21.762-2.046 8.046-4.164 16.115-6.996 23.904-1.456 4.005-5.489 5.628-9.909 5.608-8.666-.04-17.347.313-25.996-.081-16.777-.764-33.537-1.921-50.303-2.936-16.267-.985-32.532-1.995-48.798-2.995-10.824-.666-21.648-1.333-32.96-2"/></svg>