<svg xmlns="http://www.w3.org/2000/svg" viewBox="0 0 2352 1500" xml:space="preserve"><path fill="#fff" d="M2187.922 1077.91c6.528.638 12.58 1.846 18.605 1.732 4.734-.089 9.494-1.6 14.14-2.855 7.498-2.024 11.61-7.259 15.08-14.2 4.472-8.95 10.696-17.017 16.091-25.511 3.955-6.227 7.752-12.556 11.688-18.795 7.981-12.649 16.274-25.11 23.94-37.945 6.96-11.653 13.952-23.356 14.56-37.628.243-5.67 2.31-11.263 2.551-16.933.198-4.655-1.055-9.375-1.705-14.06-1.306-9.404-2.56-18.815-3.984-28.2-1.502-9.902-3.362-19.752-4.734-29.67-1.91-13.798-3.383-27.656-5.292-41.454-1.185-8.57-2.865-17.072-4.255-25.616-.498-3.068-.777-6.17-1.186-9.253-1.83-13.787-3.52-27.596-5.568-41.35-1.25-8.384-3.237-16.656-4.556-25.03-.792-5.025-.76-10.175-1.41-15.228-1.563-12.168-3.157-24.336-5.036-36.458-1.326-8.547-3.384-16.982-4.67-25.534-1.364-9.077-2.07-18.25-3.308-27.35-1.256-9.237-2.803-18.435-4.232-27.65-.45-2.9-.99-5.79-1.378-8.699-.823-6.174-1.516-12.365-2.375-18.534-.517-3.717-1.352-7.39-1.858-11.109-1.103-8.115-2.018-16.256-3.145-24.367-.691-4.97-1.634-9.904-2.5-15.076l-35.281 5.751-4.148-24.621 97.946-16.171 4.156 24.6-36.266 6.115c.804 7.54 1.361 14.708 2.375 21.81 1.468 10.282 3.183 20.531 4.975 30.762.517 2.95 1.847 5.752 2.462 8.693.45 2.156.282 4.435.493 6.65.978 10.253 1.738 20.535 3.07 30.743 1.216 9.314 3.219 18.523 4.597 27.82 1.6 10.796 2.823 21.647 4.35 32.455 1.227 8.686 2.683 17.34 4 26.013 1.022 6.743 1.997 13.493 2.974 20.242 1.7 11.751 3.36 23.508 5.082 35.255 1.27 8.67 2.644 17.324 3.911 25.993 1.48 10.133 2.891 20.275 4.34 30.412 1.217 8.532 2.466 17.059 3.663 25.593a7009 7009 0 0 1 4.342 31.414c1.247 9.188 2.36 18.396 3.686 27.572 1.44 9.96 3.47 19.852 4.47 29.851.792 7.92.736 15.968.467 23.94-.253 7.513-.313 15.252-2.198 22.436-2.46 9.371-6.268 18.453-10.184 27.357-2.98 6.779-6.751 13.261-10.672 19.564-6.222 10.003-12.99 19.665-19.27 29.633-3.097 4.915-5.353 10.36-8.462 15.267-4.5 7.103-9.52 13.875-14.15 20.898-5.073 7.693-9.455 15.905-15.124 23.114-2.976 3.784-7.742 6.648-12.27 8.607-6.745 2.919-13.86 5.626-21.068 6.643-6.879.97-14.082-.306-21.139-.66-3.938-.197-7.87-.521-11.805-.799-18.845-1.33-37.688-2.682-56.535-3.982a722 722 0 0 0-17.768-1.005c-15.843-.702-31.693-1.251-47.53-2.051-9.19-.464-18.354-1.389-27.54-1.938-12.673-.758-25.357-1.35-38.035-2.026-12.346-.658-24.694-1.295-37.037-2.006-16.77-.965-33.536-1.996-50.304-2.992-11.341-.673-22.694-1.202-34.024-2.03-16.532-1.208-33.051-2.596-49.57-3.969-7.16-.595-14.509-.54-21.397-2.27-5.79-1.454-11.06-5.022-16.517-7.739-7.294-3.631-15.328-6.353-21.602-11.296-6.548-5.159-11.364-12.508-16.977-18.864-2.949-3.34-6.828-6.169-8.792-9.996-3.344-6.515-5.386-13.686-8.195-20.49-4.256-10.31-4.642-21.135-5.143-32.059-.209-4.546-2.07-9.074-3.55-13.486-1.058-3.155-3.29-4.654-7.04-4.923-14.203-1.018-28.368-2.555-42.552-3.834-4.913-.443-9.851-.606-14.762-1.06-13.689-1.269-27.37-2.617-41.052-3.945-6.845-.664-13.676-1.511-20.533-1.997-15.587-1.105-31.177-2.258-46.786-2.872-3.492-.137-7.168 1.617-10.554 3.003-1.233.506-2.399 2.366-2.69 3.793-2.173 10.619-3.982 21.312-6.174 31.926-1.926 9.326-4.289 18.562-6.296 27.873-2.314 10.738-4.35 21.537-6.705 32.266-1.24 5.654-2.935 11.207-4.368 16.82a993 993 0 0 0-3.574 14.54c-1.704 7.122-5.71 10.921-12.92 11.542-4.136.356-8.333.191-12.493.028-4.596-.181-9.176-.73-13.771-.941-15.51-.716-31.03-1.228-46.532-2.055-15.776-.842-31.534-2.009-47.304-2.952-17.599-1.052-35.205-1.973-52.803-3.025-15.77-.943-31.53-2.052-47.301-2.967-13.173-.764-26.36-1.28-39.532-2.04-15.938-.92-31.87-1.923-47.798-2.998-13.657-.922-26.51-4.656-39.262-9.753-8.36-3.341-11.783-10.665-17.514-16.114-9.916-9.427-8.444-20.99-7.115-32.873.756-6.749.148-13.651.15-20.484.001-12.5-.122-25.001.042-37.499.11-8.426.727-16.844.922-25.27.132-5.687-1.265-6.62-6.876-7.048-15.194-1.156-30.365-2.615-45.549-3.916-8.339-.714-16.701-1.185-25.02-2.074-7.276-.778-14.543-1.78-21.748-3.055-12.103-2.143-24.202-4.364-36.201-7.012-4.275-.944-8.406-2.932-12.34-4.955-10.875-5.592-22.804-9.15-32.544-16.946-13.244-10.598-26.607-21.047-39.822-31.68-12.725-10.239-25.422-20.518-37.954-30.99-10.073-8.417-19.749-17.309-29.842-25.7-11.795-9.804-23.914-19.217-35.772-28.947-7.224-5.928-14.15-12.219-21.34-18.191-8.332-6.922-16.843-13.628-25.207-20.512-8.594-7.073-16.98-14.406-25.686-21.336-9.285-7.39-18.763-14.548-28.298-21.617-11.13-8.25-22.313-16.44-33.694-24.34-3.366-2.337-7.523-5.023-11.234-4.906-2.947.094-7.222 3.648-8.402 6.65-6.88 17.5-12.914 35.33-19.447 52.968-4.085 11.026-8.654 21.87-12.803 32.873-3.172 8.414-5.913 16.99-9.046 25.418-4.803 12.918-10.13 25.652-14.55 38.695-2.78 8.202-4.419 16.801-6.373 25.267-1.924 8.338-3.627 16.728-5.378 25.105-1.917 9.164-3.629 18.373-5.705 27.5-2.07 9.098-4.652 18.08-6.698 27.185-2.584 11.496-4.837 23.067-7.263 34.599-1.296 6.159-2.75 12.286-3.962 18.46-1.125 5.726-1.988 11.502-3.034 17.243-1.681 9.232-3.368 18.464-5.146 27.678-2.234 11.582-4.55 23.147-6.852 34.716-1.324 6.659-2.768 13.295-4.018 19.968-2.054 10.97-3.898 21.981-6.014 32.94-1.5 7.765-3.406 15.453-4.945 23.212a2784 2784 0 0 0-7.004 36.687c-2.73 14.807-5.31 29.642-8.029 44.45-2.221 12.094-4.716 24.138-6.791 36.256-2.247 13.123-4.044 26.322-6.239 39.455-1.28 7.659-3.06 15.233-4.424 22.88-1.937 10.857-3.6 21.764-5.564 32.617-1.727 9.545-3.82 19.024-5.535 28.571-1.32 7.348-2.21 14.773-3.46 22.134-1.327 7.815-2.889 15.59-4.286 23.393-2.256 12.6-4.268 25.246-6.763 37.798-1.466 7.377-3.296 14.69-10.225 19.452-2.88 1.98-5.303 4.758-7.561 7.482-5.89 7.106-13.459 6.673-21.076 4.53-4.701-1.322-9.774-3.004-13.395-6.05-4.432-3.731-7.766-8.887-11.146-13.726-11.967-17.134-23.12-34.88-35.83-51.435-8.163-10.63-18.482-19.61-27.901-29.265-5.581-5.72-11.057-11.574-17.002-16.898-8.538-7.647-17.404-14.933-26.235-22.247a1746 1746 0 0 0-26.005-21.09c-12.328-9.817-24.642-19.655-37.136-29.257-13.649-10.49-25.803-22.3-37.133-35.386-10.607-12.252-15.704-26.377-16.812-41.322-.712-9.602-.904-20.014 2.84-30.01 3.695-9.87 5.721-20.524 7.17-31.015.82-5.93-1.723-11.583-7.596-15.316-12.153-7.725-23.996-15.935-35.993-23.905-21.297-14.148-42.572-28.33-63.94-42.37-10.805-7.098-21.99-13.637-32.581-21.032-3.25-2.268-5.756-6.236-7.461-9.95-3.798-8.267-8.529-16.61-9.888-25.385-2.515-16.235-3.618-32.674 7.08-47.531 5.59-7.762 9.128-16.975 13.922-25.344 5.864-10.239 12.116-20.255 18.119-30.416 4.278-7.241 8.459-14.541 12.618-21.852 5.391-9.475 10.668-19.015 16.083-28.477a12408 12408 0 0 1 26.089-45.306c15.266-26.412 30.633-52.766 45.812-79.228 12.787-22.29 25.256-44.764 38.064-67.042 15.537-27.025 31.325-53.905 46.924-80.894 11.616-20.098 23.092-40.277 34.651-60.407 9.926-17.286 19.89-34.548 29.819-51.832 5.853-10.19 11.571-20.459 17.56-30.567 1.81-3.052 4.224-5.77 6.54-8.49 4.577-5.378 8.9-11.06 14.058-15.826 3.58-3.308 8.148-5.855 12.69-7.751 8.681-3.625 17.61-6.69 26.544-9.663 2.56-.851 5.494-.85 8.248-.795 11.076.222 22.347-.561 33.168 1.264 12.457 2.1 24.877 5.667 36.593 10.384 5.755 2.316 10.1 8.46 14.7 13.243 6.009 6.248 11.643 12.859 17.43 19.321 14.242 15.905 28.462 31.83 42.726 47.715 6.608 7.359 13.341 14.604 19.941 21.97 13.836 15.441 27.588 30.958 41.445 46.38 4.862 5.412 9.673 10.919 15.017 15.826 2.496 2.292 6.079 3.906 9.419 4.572 1.81.361 5.108-1.368 6.088-3.09 5.794-10.188 10.976-20.72 16.604-31.004 12.537-22.91 25.264-45.718 37.816-68.62 5.49-10.017 10.608-20.24 16.132-30.237 9.383-16.984 19.035-33.818 28.42-50.8 8.606-15.572 16.95-31.288 25.519-46.881 6.512-11.852 13.19-23.614 19.808-35.409 2.188-3.898 4.136-7.972 6.695-11.613 4.746-6.753 12.717-6.193 19.615-8.1 10.964-3.033 18.696 3.743 27.074 8.614 19.79 11.508 39.621 22.944 59.33 34.588 13.058 7.715 25.887 15.815 38.903 23.602 9.262 5.541 18.749 10.709 27.986 16.29 13.374 8.082 26.559 16.476 39.924 24.572 13.938 8.443 27.956 16.755 42.01 25.004 14.074 8.26 28.275 16.302 42.348 24.564 14.055 8.25 27.962 16.752 42.047 24.95 7.728 4.5 15.745 8.499 23.53 12.905 10.621 6.012 21.098 12.281 31.724 18.285 10.373 5.86 20.891 11.463 31.283 17.29 12.358 6.931 24.492 14.28 37.021 20.881 9.514 5.012 19.475 9.18 29.273 13.644 9.527 4.34 18.984 8.872 28.7 12.747 5.029 2.006 10.567 2.714 15.848 4.109 8.691 2.296 17.312 4.879 26.057 6.944 5.81 1.372 11.749 2.534 17.69 2.954 17.746 1.252 35.526 2.01 53.283 3.118 13.939.87 27.855 2.098 41.795 2.941 18.594 1.125 37.202 2.034 55.804 3.031 12.51.67 25.022 1.31 37.53 2.005q26.4 1.468 52.8 3.003c10.845.632 21.685 1.378 32.533 1.98 18.766 1.042 37.54 1.964 56.304 3.034 9.685.552 19.359 1.309 29.037 1.979 14.413.998 28.824 2.02 43.238 2.992 5.752.389 11.509.754 17.269.992 17.175.709 34.364 1.141 51.524 2.11 7.951.448 15.825 2.395 23.773 2.732 7.881.334 15.813-.78 23.721-.756 9.414.03 18.827.866 28.24.855 10.254-.012 20.507-.67 30.764-.898 6.64-.148 13.406.753 19.9-.234 7.433-1.13 14.535-4.327 21.951-5.712 8.013-1.496 13.184-6.637 18.357-12.07 1.18-1.24 2.568-2.505 3.174-4.03 3.725-9.384 7.782-18.688 10.654-28.339 1.79-6.017 1.755-12.59 2.425-18.925.74-6.997 2.094-14.036 1.816-21.003-.3-7.564-2.136-15.072-3.366-22.594-1.781-10.885-3.321-21.82-5.513-32.623a587 587 0 0 0-8.17-34.837c-4.361-16.317-9.194-32.508-13.822-48.754-6.087-21.367-14.871-41.733-23.022-62.34-5.91-14.943-11.396-30.053-17.198-45.04-4.125-10.656-9.065-21.036-12.558-31.888-4.791-14.887-8.905-30.028-10.154-45.75-.663-8.343-1.387-16.681-1.975-25.03-.429-6.102-.909-12.215-.966-18.327-.14-14.995-.562-30.015.078-44.984.786-18.378 2.59-36.712 3.847-55.072.637-9.304 4.64-17.275 9.178-25.154 8.42-14.622 21.699-23.171 37.18-27.666 7.397-2.147 15.87-.545 23.855-.715 8.49-.18 15.752 2.855 22.475 7.872 8.867 6.616 15.717 14.89 21.572 24.191 6.494 10.317 13.016 20.644 20.109 30.55 7.27 10.153 18.449 15.205 29.682 19.172 8.87 3.132 18.377 4.746 27.735 6.133 8.91 1.32 18.043 1.092 26.99 2.227 14.537 1.845 29.333 2.846 42.008 11.753 8.41 5.91 12.375 14.455 15.395 23.697 5.138 15.726 6.008 32.167 8.105 48.416 1.223 9.478 3.405 18.829 4.848 28.284 1.545 10.129 2.618 20.329 4.097 30.47 2.228 15.271 4.782 30.496 6.913 45.781 1.89 13.556 3.197 27.193 5.123 40.743 1.713 12.044 4.132 23.987 5.858 36.03 1.918 13.383 3.375 26.831 5.105 40.242.35 2.707 1.026 5.371 1.673 8.675l-25.955 3.323c-2.009-14.212-3.828-28.116-5.983-41.967-1.354-8.697-3.393-17.285-4.783-25.977-1.01-6.314-1.324-12.736-2.187-19.078-1.655-12.162-3.513-24.296-5.224-36.451-1.3-9.238-2.43-18.5-3.766-27.733-1.38-9.539-2.914-19.056-4.398-28.58-.048-.31-.378-.58-.418-.89-1.068-8.281-2.01-16.58-3.192-24.846-1.409-9.863-3.107-19.684-4.506-29.548-.69-4.874-.566-9.89-1.552-14.69-2.059-10.033-3.816-20.26-7.354-29.793-1.397-3.764-6.902-7.735-11.068-8.431-15.024-2.512-30.321-3.336-45.426-5.44-12.528-1.745-25.209-2.968-37.17-7.7-13.492-5.336-25.484-12.606-36.516-22.34-7.943-7.01-12.593-15.759-18.346-23.996-6.642-9.51-10.982-20.51-19.622-28.783-4.203-4.024-9.218-5.107-14.265-5.956-12.808-2.155-23.453 3.516-31.774 12.18-4.022 4.187-6.13 11.23-6.958 17.274-2.319 16.912-3.819 33.956-5.044 50.99-.683 9.489-.183 19.063-.2 28.599-.012 6.282-.187 12.57.047 18.844.547 14.707 1.047 29.425 2.103 44.1.356 4.95 2.347 9.781 3.56 14.675 1.452 5.85 2.588 11.796 4.378 17.539 1.946 6.244 4.436 12.322 6.78 18.438a5088 5088 0 0 0 12.19 31.462c2.735 7.002 5.627 13.943 8.293 20.97 2.694 7.1 5.049 14.33 7.822 21.396 2.675 6.813 5.92 13.406 8.506 20.25 3.004 7.946 5.615 16.044 8.303 24.107 2.654 7.96 5.33 15.919 7.72 23.96 1.108 3.735 1.408 7.703 2.35 11.496.891 3.59 2.223 7.068 3.22 10.634 3.562 12.721 7.591 25.342 10.438 38.223 2.747 12.424 4.109 25.148 6.351 37.69 1.347 7.537 3.994 14.914 4.633 22.482.662 7.848-.126 15.863-.78 23.763-.634 7.661-2.002 15.258-2.866 22.904-.903 7.993-2.971 15.491-6.596 22.796-3.488 7.028-4.675 15.3-8.663 21.953-7.4 12.346-16.039 23.65-32.003 26.363-8.146 1.384-15.903 4.929-23.98 6.916-3.962.975-8.25.792-12.393.841-9.2.11-18.402-.08-27.6.078-5.438.093-10.871.91-16.304.879-7.47-.042-14.936-.681-22.408-.842-2.425-.053-4.873.902-7.298.851-4.274-.09-8.536-.834-12.809-.886-11.2-.136-22.42.31-33.603-.151-10.169-.42-20.292-1.845-30.452-2.596-4.998-.369-10.037-.144-15.053-.312-19.036-.635-38.231-.035-57.058-2.377-16.357-2.034-32.613-2.123-48.952-2.703-16.105-.573-32.183-1.9-48.272-2.913-10.323-.65-20.638-1.445-30.967-1.97-21.303-1.081-42.745-.899-63.877-3.385-16.68-1.962-33.274-2.163-49.946-2.736-16.155-.555-32.281-1.915-48.421-2.907-11.036-.679-22.091-1.119-33.106-2.045-17.356-1.459-34.694-3.147-52.022-4.92-7.643-.782-15.328-1.588-22.835-3.147-8.613-1.789-17.055-4.407-25.562-6.7-4.564-1.231-9.226-2.223-13.635-3.878-7.804-2.93-15.456-6.267-23.16-9.463-8.123-3.37-16.418-6.396-24.295-10.27-8.108-3.987-15.777-8.862-23.683-13.268-9.52-5.304-19.104-10.493-28.63-15.787-17.582-9.773-35.178-19.521-52.7-29.4-16.44-9.269-32.854-18.583-49.151-28.098-7.365-4.299-14.264-9.397-21.644-13.668-15.67-9.068-31.607-17.677-47.262-26.773-11.433-6.642-22.505-13.902-33.886-20.638-23.805-14.092-47.742-27.961-71.559-42.035-15.387-9.092-30.627-18.433-45.987-27.572-13.043-7.762-26.181-15.361-39.24-23.096-8.846-5.24-17.633-10.579-26.436-15.893-4.072-2.458-7.543-1.569-9.895 2.776-7.329 13.537-14.517 27.15-21.903 40.655-10.768 19.688-21.667 39.305-32.5 58.959-8.948 16.234-17.81 32.517-26.846 48.702-6.156 11.025-12.772 21.796-18.78 32.898-8.431 15.582-16.345 31.443-24.754 47.037-6.484 12.026-13.73 23.648-19.994 35.782-4.651 9.01-13.206 13.401-20.63 19.094-1.847 1.416-5.778 1.468-8.168.578-8.607-3.204-17.657-6.033-25.204-11.024-6.26-4.14-10.604-11.158-15.86-16.841-5.896-6.377-11.918-12.637-17.783-19.042-4.1-4.477-8.003-9.133-12.037-13.671-8.456-9.513-16.957-18.986-25.41-28.502-12.567-14.149-25.078-28.348-37.675-42.47-5.496-6.16-11.21-12.125-16.711-18.28-5.395-6.035-10.644-12.202-15.964-18.305-3.43-3.935-7.342-6.719-12.746-7.817-8.145-1.655-16.044-4.53-24.193-6.159-5.915-1.181-12.083-1.03-18.105-1.751-9.072-1.085-16.96 2.746-25.096 5.642-2.27.808-4.522 1.69-6.839 2.34-7.207 2.018-10.793 8.224-15.375 13.236-11.956 13.08-19.27 29.14-28.093 44.223-7.058 12.069-13.913 24.257-20.918 36.357-10.21 17.638-20.58 35.183-30.68 52.883-8.417 14.75-16.38 29.76-24.842 44.482-9.681 16.84-19.775 33.444-29.54 50.238-9.4 16.169-18.624 32.442-27.9 48.683-4.312 7.552-8.538 15.152-12.85 22.703-5.75 10.068-11.55 20.107-17.32 30.164-8.567 14.938-17.174 29.853-25.676 44.828-7.578 13.347-14.997 26.784-22.558 40.14-5.191 9.173-10.436 18.317-15.787 27.397-4.505 7.644-9.291 15.123-13.783 22.775-5.415 9.225-10.651 18.556-15.963 27.842-6.558 11.463-12.895 23.06-19.739 34.35-5.65 9.32-9.28 19.334-7.173 29.957 1.5 7.563 5.093 14.982 9.085 21.67 2.15 3.602 7.011 5.671 10.812 8.187 10.127 6.704 20.353 13.258 30.52 19.901 19.44 12.702 38.89 25.386 58.288 38.15 10.956 7.209 21.87 14.482 32.706 21.868 16.174 11.023 22.106 29.83 15.902 47.482-1.874 5.334-2.316 11.157-3.642 16.701-1.277 5.341-3.395 10.536-4.143 15.934-.835 6.028-1.661 12.445-.446 18.266 1.388 6.654 4.297 13.292 7.895 19.1 3.654 5.898 8.53 11.23 13.628 15.999 8.692 8.13 17.854 15.775 27.05 23.34 7.929 6.521 16.23 12.585 24.279 18.963 12.627 10.005 25.197 20.082 37.759 30.17 8.255 6.63 16.645 13.11 24.613 20.071 6.154 5.376 11.83 11.313 17.566 17.149 7.843 7.98 15.77 15.899 23.227 24.23 5.331 5.957 10.142 12.411 14.84 18.893 5.826 8.036 11.394 16.265 16.892 24.532 5.923 8.905 11.636 17.95 17.377 26.835 7.38-2.104 9.303-4.775 10.389-12.003 1.04-6.926 2.811-13.738 4.09-20.632 1.071-5.782 1.761-11.634 2.861-17.41 1.74-9.13 3.68-18.224 5.542-27.332.032-.156.205-.285.228-.44 1.073-7.277 2.045-14.57 3.225-21.83 1.152-7.086 2.557-14.132 3.775-21.208 1.442-8.378 2.713-16.785 4.227-25.149 1.335-7.375 2.954-14.699 4.35-22.063 1.276-6.729 2.413-13.484 3.624-20.225 1.585-8.82 3.25-17.626 4.754-26.46 1.18-6.936 2.141-13.91 3.253-20.86a2963 2963 0 0 1 3.58-21.734c1.457-8.694 2.756-17.42 4.47-26.064 1.394-7.028 3.296-13.955 4.98-20.926.305-1.265.717-2.51.949-3.788 1.51-8.348 2.981-16.704 4.471-25.056 1.176-6.592 2.307-13.192 3.555-19.77 1.402-7.383 2.988-14.73 4.354-22.118 1.304-7.056 2.337-14.162 3.662-21.213 1.083-5.763 2.432-11.476 3.645-17.215 1.452-6.864 2.975-13.715 4.3-20.604 1.284-6.681 2.327-13.409 3.53-20.106 1.47-8.188 2.879-16.39 4.535-24.54 1.234-6.072 2.858-12.064 4.23-18.11.576-2.54.877-5.14 1.43-7.686a4917 4917 0 0 1 7.265-32.958c1.928-8.58 4.137-17.102 5.89-25.717 1.918-9.425 3.222-18.978 5.237-28.38 1.421-6.636 3.69-13.086 5.377-19.67 1.334-5.208 2.32-10.503 3.533-15.743 1.504-6.501 2.813-13.065 4.697-19.457 2.525-8.568 5.3-17.078 8.372-25.465 3.285-8.965 7.249-17.682 10.535-26.647 3.699-10.093 6.815-20.4 10.487-30.503 2.384-6.56 5.394-12.888 7.965-19.383 2.092-5.283 3.964-10.653 5.904-15.996 3.378-9.304 6.73-18.618 10.1-27.925 1.593-4.4 3.356-8.747 4.774-13.203 2.653-8.335 10.064-12.093 16.042-17.304 4.083-3.559 8.099-7.097 13.924-5.836 3.449.747 6.648 2.58 10.067 3.543 10.775 3.038 19.498 9.28 28.246 16.095 13.716 10.684 28.497 19.99 42.453 30.38 8.335 6.205 15.906 13.429 23.917 20.078 6.71 5.57 13.605 10.918 20.339 16.46 7.899 6.5 15.689 13.132 23.57 19.654 9.913 8.205 19.89 16.333 29.803 24.54 9.467 7.838 18.846 15.782 28.338 23.588 8.08 6.645 16.33 13.084 24.39 19.753 7.351 6.084 14.504 12.408 21.825 18.53 10.95 9.154 21.803 18.433 33.011 27.26 8.786 6.92 17.631 13.937 27.212 19.627 9.799 5.82 20.353 10.496 30.923 14.824 4.709 1.928 10.288 1.671 15.434 2.61 3.475.633 6.85 1.84 10.334 2.388 3.08.485 6.337.002 9.364.656 18.069 3.899 36.413 4.891 54.793 6.07 13.72.881 27.335 4.23 41.029 4.446 9.939.156 12.967 5.9 17.562 12.611 4.588 6.702 4.914 13.383 4.784 20.685-.375 21.102-.535 42.208-1.088 63.305-.22 8.382-1.114 16.756-1.957 25.109-.709 7.028 7.963 18.559 15.059 19.718 1.276.208 2.613.544 3.726 1.17 6.895 3.878 14.358 3.814 21.992 4.003 9.005.223 17.97 1.783 26.975 2.42 6.128.433 12.315.011 18.443.438 11.152.777 22.274 1.979 33.421 2.836 3.81.293 7.667-.056 11.49.13q29.211 1.427 58.415 2.997c11.039.594 22.07 1.35 33.107 1.972 18.304 1.032 36.616 1.95 54.917 3.037 15.144.9 30.279 1.955 45.415 2.986 3.442.234 6.867.708 10.308.967 2.852.214 4.223-.617 4.748-4.047 1.157-7.552 3.275-14.954 4.881-22.443 1.4-6.532 2.474-13.137 3.983-19.643 2.464-10.63 5.308-21.171 7.701-31.815 1.109-4.929 1.29-10.062 2.33-15.01 1.341-6.367 3.18-12.627 4.698-18.959 1.167-4.868 2.088-9.796 3.275-14.66.91-3.729 2.758-6.328 7.073-7.213 3.626-.743 7.132-2.487 10.44-4.256 5.038-2.694 10.177-4.298 15.974-3.974 14.025.784 28.105.893 42.08 2.173 15.654 1.435 31.216 3.863 46.82 5.848.493.063 1.002-.021 1.499.022 11.467.989 22.924 2.115 34.402 2.946 11.522.835 23.08 1.188 34.593 2.11 8.826.707 17.758 1.325 26.331 3.321 3.212.749 5.947 4.998 8.167 8.164 2.41 3.436 3.612 7.712 5.975 11.19 4.409 6.49 3.48 14.037 4.664 21.12.965 5.778-.504 12.218 1.417 17.528 3.435 9.494 4.183 20.314 12.575 27.77 3.766 3.347 6.85 7.564 9.795 11.704 3.79 5.326 9.451 7.614 14.966 10.253 6.767 3.238 13.51 6.528 20.332 9.644 1.595.729 3.455 1.112 5.217 1.204 20.303 1.065 40.615 1.967 60.916 3.066 16.311.883 32.608 2.038 48.918 2.956 13.532.761 27.264.173 40.56 2.328 15.499 2.512 30.94 2.253 46.452 2.791 15.82.55 31.615 1.884 47.42 2.905 15.136.978 30.266 2.074 45.408 2.972 13.197.783 26.414 1.25 39.609 2.061 13.97.86 27.925 1.964 42.375 2.962"/></svg>