<svg xmlns="http://www.w3.org/2000/svg" viewBox="0 0 2352 1500" xml:space="preserve"><path fill="#fff" d="M128.79 1084.066c6.229 4.258 12.015 8.527 18.017 12.466 6.747 4.428 14.072 8.06 20.438 12.958 6.345 4.882 13.773 4.839 20.854 6.319 7.705 1.61 15.76 1.748 23.319 3.792 6.986 1.89 10.84 7.635 13.822 14.343 3.795 8.533-.602 16.483-.528 24.712.083 9.294-1.715 18.6-2.611 27.91-1.467 15.229 3.273 29.627 6.283 44.221.617 2.988 3.188 5.609 4.995 8.307 6.572 9.81 14.182 18.69 23.116 26.48 4.398 3.836 8.134 8.42 12.399 12.421 5.452 5.116 11.104 10.022 16.726 14.953 7.761 6.807 15.58 13.549 23.366 20.327 11.567 10.068 23.224 20.036 34.653 30.258 6.882 6.154 13.436 12.677 20.08 19.093 5.522 5.332 10.76 10.976 16.483 16.078 8.388 7.476 14.579 16.464 19.724 26.331 2.42 4.642 5.49 8.955 7.772 13.657 4.32 8.906 8.213 18.02 12.43 26.977 1.845 3.916 3.566 8.049 6.226 11.378 2.98 3.729 7.26 2.677 8.448-2.074 1.777-7.115 2.843-14.414 4.09-21.655 1.247-7.25 2.323-14.53 3.514-21.79 1.48-9.028 2.944-18.06 4.523-27.07 1.126-6.423 2.497-12.803 3.636-19.223 1.51-8.52 2.861-17.07 4.358-25.592 1.13-6.434 2.447-12.834 3.562-19.27 1.534-8.859 2.847-17.757 4.46-26.6 1.285-7.05 2.95-14.03 4.304-21.068.71-3.689.973-7.464 1.682-11.153 2.56-13.296 5.4-26.54 7.794-39.864 2.282-12.703 3.957-25.514 6.236-38.217 2.077-11.571 4.732-23.037 6.902-34.593 2.168-11.55 4-23.164 6.073-34.732a1614 1614 0 0 1 4.994-26.448c1.06-5.392 2.361-10.736 3.435-16.126 2.553-12.809 4.943-25.651 7.582-38.442 1.405-6.805 3.34-13.5 4.758-20.303 1.265-6.07 2.208-12.211 3.18-18.339.77-4.85 1.115-9.78 2.1-14.581 1.608-7.838 3.704-15.575 5.368-23.402 1.357-6.385 2.348-12.848 3.572-19.263.642-3.362 1.441-6.693 2.159-10.04 1.95-9.096 3.696-18.24 5.896-27.274 2.378-9.765 5.44-19.367 7.722-29.152 2.37-10.159 3.973-20.494 6.253-30.676 3.172-14.164 6.103-28.374 11.92-41.846 3.63-8.41 5.992-17.359 9.222-25.953 3.85-10.242 8.124-20.324 12.012-30.552 2.462-6.477 4.438-13.138 6.842-19.638 3.057-8.27 6.424-16.425 9.48-24.695 3.274-8.858 5.548-18.187 9.723-26.583 4.119-8.28 4.305-19.197 14.635-23.859 1.997-.901 3.457-3.085 5.043-4.79 6.016-6.47 12.981-7.388 21.087-4.337 12.452 4.687 24.034 10.397 34.492 19.08 12.633 10.487 26.817 19.083 39.927 29.029 10.785 8.18 20.98 17.138 31.439 25.748 12.722 10.471 25.474 20.908 38.164 31.418 10.665 8.834 21.234 17.784 31.893 26.624 12.13 10.061 24.351 20.015 36.463 30.097 9.877 8.222 19.567 16.67 29.496 24.828a2457 2457 0 0 0 35.78 28.822c8.396 6.638 16.786 13.321 25.58 19.403 5.434 3.759 11.553 6.564 17.495 9.536 3.93 1.965 7.973 3.877 12.173 5.09 8.29 2.394 16.665 4.569 25.113 6.308 8.642 1.78 17.406 2.982 26.133 4.33 4.53.701 9.084 1.297 13.648 1.728 18.167 1.715 36.342 3.35 54.514 5.003.662.06 1.337-.03 1.999.026 11.62.985 23.24 1.99 34.86 2.965 1.16.097 2.334-.011 3.5.033 26.473.994 52.949 1.921 79.417 3.033 10.547.443 21.07 1.42 31.615 1.936 22.136 1.085 44.374 1.094 66.39 3.316 18.326 1.849 36.589 2.417 54.944 2.837 18.487.423 36.95 1.875 55.423 2.878 12.204.663 24.425 1.1 36.607 2.046 20.45 1.587 40.855 3.296 61.424 3.15 11.798-.084 23.63 1.6 35.409 2.853 13.362 1.422 26.665 3.394 40.025 4.83 4.614.496 9.358-.258 13.983.182 15.194 1.447 30.354 3.25 45.541 4.769 5.91.59 11.86.808 17.793 1.16 11.534.685 23.14.788 34.578 2.235 6.241.789 12.035 3.482 14.715 10.728 2.63 7.11 7.374 13.462 9.793 20.619 1.575 4.659.303 10.205.932 15.276.82 6.624 2.13 13.197 3.49 19.738.628 3.018 2.033 5.867 2.807 8.864 2.62 10.153 11.708 15.46 17.326 23.357 5.758 8.094 14.978 10.843 23.285 14.976 3.616 1.798 7.218 3.823 11.062 4.915 5.315 1.51 10.815 2.84 16.303 3.183 15.85.99 31.74 1.328 47.603 2.148 16.48.852 32.941 2.055 49.42 2.944 20.301 1.094 40.737.968 60.878 3.36 15.675 1.862 31.253 2.45 46.949 2.753 10.046.194 20.073 1.283 30.113 1.9a17339 17339 0 0 0 50.417 3.006c17.347 1.016 34.799 1.156 52.014 3.253 15.814 1.926 31.595 3.375 47.43 2.495 5.935-.33 11.829-3.267 17.484-5.632 1.72-.718 2.649-3.452 3.816-5.34 7.533-12.191 14.951-24.453 22.57-36.59 5.054-8.053 10.518-15.85 15.55-23.916 6.566-10.526 13.202-21.03 19.203-31.879 4.074-7.364 8.454-14.993 10.315-23.054 3.425-14.836 6.022-29.934 1.612-45.352-1.955-6.837-1.954-14.227-2.932-21.353-.555-4.045-1.334-8.06-1.94-12.098-1.042-6.96-2.117-13.915-3.02-20.893-2.06-15.923-3.904-31.874-6.073-47.78-1.125-8.257-2.816-16.434-4.136-24.666-1.345-8.395-2.563-16.81-3.81-25.222a10163 10163 0 0 1-5.49-37.403c-.89-6.159-1.67-12.333-2.515-18.498-1.424-10.385-2.851-20.77-4.296-31.152-1.556-11.182-3.068-22.371-4.722-33.54-1.294-8.733-2.82-17.433-4.156-26.161-1.014-6.63-1.846-13.288-2.833-19.922-1.83-12.297-3.801-24.573-5.545-36.88-1.288-9.083-2.257-18.21-3.467-27.303-.603-4.53-1.429-9.031-2.239-14.075l-31.577 4.957-4.056-24.651 88.931-14.17 4.05 24.616-31.179 5.1c.45 4.828.713 9.504 1.349 14.128 1.55 11.267 2.188 22.819 5.277 33.662 2.336 8.2 2.099 16.436 3.608 24.567 1.675 9.021 2.672 18.166 4.048 27.245 1.508 9.945 3.216 19.862 4.646 29.818 1.252 8.713 2.163 17.474 3.363 26.195 1.395 10.14 2.957 20.256 4.419 30.386 1.208 8.372 2.31 16.76 3.577 25.122 1.703 11.243 3.547 22.463 5.273 33.702.963 6.267 1.9 12.54 2.689 18.83 1.097 8.743 2.01 17.508 3.067 26.256.938 7.767 1.81 15.547 2.996 23.278 1.4 9.131 3.243 18.195 4.641 27.327 1.281 8.368 2.123 16.802 3.346 25.18 1.266 8.678 3.166 17.283 4.047 25.994 1.11 10.966 5.328 21.71 2.076 33.065-1.153 4.023-1.477 8.547-1.019 12.715 1.114 10.122-3.348 18.751-6.6 27.68-7.937 21.787-22.872 39.58-34.415 59.31-11.17 19.091-23.594 37.447-34.91 56.457-4.352 7.312-11.058 10.146-18.084 13.488-12.443 5.92-25.56 5.126-38.618 4.812-13.854-.334-27.832-.276-41.502-2.196-14.441-2.029-28.826-2.426-43.316-2.851-15.784-.463-31.537-1.902-47.307-2.87a5722 5722 0 0 0-34.53-2.003c-18.435-1.02-36.875-1.95-55.306-3.022-15.772-.918-31.533-2.016-47.302-2.974-11.842-.719-23.692-1.307-35.535-2.018-16.103-.965-32.21-1.887-48.302-3.027-11.607-.821-23.242-1.591-34.761-3.153-4.62-.626-9.113-3.003-13.397-5.123-8.799-4.353-17.77-8.526-25.987-13.831-5.412-3.494-9.736-8.732-14.357-13.378-3.837-3.858-7.014-8.453-11.167-11.896-6.272-5.2-6.992-12.86-9.846-19.567-1.12-2.631-.989-5.835-2.265-8.353-4.3-8.486-3.013-17.872-4.736-26.756-.745-3.839-.703-7.826-1.079-11.74-.527-5.495-6.274-9.702-13.678-10.175-15.265-.973-30.553-1.697-45.78-3.08-13.637-1.24-27.192-3.35-40.81-4.826-6.22-.673-12.522-.563-18.758-1.123-13.356-1.198-26.692-2.623-40.042-3.908-4.413-.425-8.835-.857-13.263-1.025-11.086-.423-22.182-.602-33.267-1.055-13.85-.566-27.692-1.302-41.536-1.977-13.513-.658-27.028-1.285-40.537-2.014-11.016-.594-22.022-1.397-33.04-1.964-14.508-.747-29.026-1.298-43.535-2.038-11.35-.578-22.766-.725-34.022-2.12-17.235-2.136-34.467-2.906-51.814-2.985-14.35-.065-28.695-1.168-43.039-1.887a14276 14276 0 0 1-57.304-3c-11.348-.615-22.716-1.06-34.031-2.066-11.048-.982-22.026-2.72-33.062-3.853-6.224-.64-12.521-.54-18.754-1.11-13.03-1.193-26.064-2.418-39.053-3.985-14.86-1.792-29.716-3.707-44.49-6.083-7.853-1.263-15.647-2.823-22.921-6.766-8.992-4.874-19.008-7.959-27.694-13.268-10.029-6.13-19.22-13.674-28.539-20.908-10.023-7.78-19.797-15.883-29.633-23.903-7.344-5.987-14.582-12.105-21.923-18.096-10.28-8.391-20.702-16.613-30.898-25.105-9.753-8.122-19.202-16.607-28.952-24.732-12.803-10.669-25.854-21.039-38.64-31.727-11.739-9.813-23.037-20.163-34.951-29.752-12.027-9.68-24.515-18.791-36.907-28.008-12.29-9.141-24.627-18.223-37.137-27.055-2.945-2.08-6.615-4.011-10.053-4.205-2.307-.13-5.8 2.386-7.008 4.653-3.384 6.348-6.054 13.107-8.64 19.844-3.046 7.931-5.666 16.025-8.547 24.02a2130 2130 0 0 1-9.592 26.162c-5.29 14.102-10.708 28.156-15.978 42.265-5.546 14.848-11.747 29.511-16.244 44.676-4.21 14.196-6.524 28.951-9.76 43.44-1.191 5.336-2.776 10.585-3.932 15.927-2.113 9.764-3.986 19.58-6.065 29.35-1.613 7.581-3.477 15.109-5.074 22.693-3.028 14.38-5.945 28.782-8.907 43.176-1.336 6.496-2.733 12.98-3.986 19.493-2.383 12.392-4.567 24.824-7.045 37.196-3.203 15.997-6.739 31.927-9.904 47.93-3.797 19.198-7.337 38.447-11.019 57.667-2.648 13.822-5.41 27.622-8.002 41.454-2.745 14.645-5.506 29.291-7.97 43.986-2.23 13.288-3.842 26.68-6.144 39.955-2.267 13.07-5.15 26.03-7.584 39.073-1.31 7.02-2.145 14.127-3.371 21.165-1.358 7.795-3.008 15.538-4.366 23.333-1.948 11.185-3.687 22.406-5.63 33.592-1.357 7.814-2.959 15.585-4.355 23.392-1.598 8.931-3.006 17.897-4.65 26.82-1.374 7.455-3.012 14.86-4.447 22.304-.521 2.704-.58 5.508-1.227 8.174-1.19 4.9-3.76 8.852-8.316 11.446-5.31 3.023-10.205 6.956-15.785 9.282-8.179 3.41-14.4-1.141-21.164-5.753-10.302-7.023-14.185-17.301-18.886-27.923-6.435-14.539-13.282-29.253-22.43-42.132-8.947-12.595-20.688-23.3-31.785-34.244-10.513-10.366-21.604-20.172-32.771-29.843-11.215-9.712-22.895-18.885-34.259-28.428-5.932-4.98-11.835-10.031-17.38-15.431-11.46-11.162-23.495-21.89-33.721-34.114-7.78-9.298-14.668-20.024-19.076-31.245-3.546-9.028-6.358-18.97-6.123-29.361.152-6.731-2.387-13.493-2.563-20.27-.168-6.48 1.184-12.997 1.82-19.502.368-3.75.577-7.515.98-11.26.327-3.06.297-6.314 1.397-9.097 1.49-3.772-.239-4.727-3.244-5.22-10.382-1.7-21.05-2.417-31.058-5.375-6.72-1.987-12.58-7.015-18.702-10.878-17.231-10.87-34.471-21.73-51.567-32.81-13.451-8.718-26.69-17.764-40.03-26.653-3.904-2.601-7.836-5.16-11.749-7.749-7.729-5.115-9.419-13.917-13.008-21.529-1.068-2.264-1.362-4.883-2.132-7.3-6.666-20.917-3.208-40.224 8.312-58.721 8.613-13.83 16.29-28.242 24.42-42.374 8.623-14.988 17.338-29.924 25.923-44.934 8.237-14.4 16.355-28.867 24.53-43.302 7.302-12.896 14.547-25.826 21.934-38.674 8.447-14.692 17.028-29.308 25.542-43.961 6.82-11.736 13.551-23.523 20.457-35.207 7.06-11.943 14.424-23.708 21.392-35.703 5.506-9.478 10.51-19.247 15.927-28.778 5.976-10.515 12.24-20.868 18.25-31.363 6.948-12.13 13.704-24.371 20.644-36.507 5.991-10.477 12.225-20.818 18.165-31.324 5.674-10.034 11.006-20.262 16.693-30.288 2.789-4.918 6.22-9.47 9.057-14.362 10.404-17.942 20.332-36.172 31.163-53.85 5.017-8.19 12.074-15.102 17.536-23.053 7.07-10.293 17.574-14.284 28.77-17.573 4.703-1.382 9.597-2.763 13.74-5.251 5.272-3.167 10.724-2.593 16.262-2.667 3.166-.042 6.36.261 9.494-.058 9.209-.937 17.62 2.162 26.218 4.615 8.355 2.382 16.97 3.916 25.21 6.616 3.973 1.302 8.026 3.795 10.872 6.841 10.555 11.298 20.604 23.067 30.878 34.628 13.55 15.25 27.102 30.5 40.716 45.694 7.018 7.83 14.167 15.543 21.267 23.299 7.914 8.644 15.879 17.241 23.75 25.924 8.33 9.189 16.5 18.525 24.912 27.637 2.069 2.24 4.55 4.472 7.295 5.64 5.73 2.435 9.475.533 12.6-5.385 4.364-8.264 8.71-16.539 13.188-24.741a5800 5800 0 0 1 22.378-40.588c9.803-17.618 19.767-35.148 29.494-52.808 7.453-13.529 14.558-27.248 21.976-40.797 12.24-22.359 24.667-44.614 36.896-66.979a2351 2351 0 0 0 21.688-40.582c4.184-8.02 10.587-11.996 19.568-11.964.333.001.723.113.992-.019 11.218-5.515 19.496 1.677 28.19 6.645 13.68 7.818 27.308 15.735 40.829 23.826 10.678 6.39 21.075 13.253 31.76 19.633 8.692 5.191 17.716 9.827 26.43 14.984 9.993 5.914 19.74 12.242 29.717 18.184 9.28 5.527 18.804 10.642 28.068 16.193 13.033 7.81 25.85 15.981 38.898 23.767 14.197 8.47 28.583 16.624 42.828 25.016 10.144 5.976 20.17 12.152 30.286 18.175 9.816 5.843 19.686 11.596 29.523 17.404 6.369 3.761 12.629 7.718 19.1 11.293 15.787 8.721 31.739 17.145 47.489 25.93 12.372 6.902 24.439 14.355 36.834 21.214 11.144 6.168 22.428 12.11 33.875 17.694 11.41 5.565 22.988 10.821 34.709 15.693 5.756 2.392 11.989 3.648 18.027 5.343 6.028 1.692 12.027 3.544 18.137 4.877 12.85 2.803 25.528 6.144 38.928 6.333 16.922.24 33.828 1.768 50.735 2.843 8.52.542 17.016 1.469 25.539 1.93 9.579.519 19.183.572 28.763 1.073 17.102.894 34.196 1.963 51.293 2.974 11.006.651 22.008 1.373 33.016 1.986 18.599 1.036 37.204 1.973 55.803 3.022 16.766.947 33.528 1.984 50.292 2.99 16.601.994 33.2 2.028 49.804 2.99 12.34.715 24.713 1.015 37.02 2.084 18.392 1.598 36.726 3.378 55.252 3.085 11.665-.185 23.348 1.587 35.034 1.762 36.42.543 72.845 1.013 109.266.857 7.584-.032 15.16-2.856 22.733-4.424 2.044-.424 4.151-.74 6.082-1.486 10.597-4.094 18.812-10.452 21.806-22.203 1.015-3.982 3.205-7.664 4.845-11.489 4.158-9.698 5.148-20.02 6.083-30.374.512-5.68 1.512-11.32 1.957-17.004.286-3.636.39-7.389-.178-10.97-1.367-8.618-3.164-17.168-4.814-25.741a3636 3636 0 0 0-4.46-22.836c-1.135-5.702-2.208-11.422-3.537-17.08-1.914-8.145-3.9-16.279-6.103-24.35-2.495-9.135-5.295-18.186-7.909-27.29-3.366-11.723-6.043-23.692-10.177-35.136-5.173-14.323-11.614-28.183-17.333-42.314-3.416-8.438-6.454-17.028-9.738-25.52-4.26-11.018-8.635-21.99-12.887-33.011-4.91-12.727-9-25.618-12.272-38.962-4.165-16.993-5.603-34.06-6.523-51.299-.644-12.072-.764-24.173-1.038-36.263-.114-4.999-.307-10.022.033-15 1.196-17.529 2.569-35.046 3.956-52.561.555-7.015.403-14.266 2.245-20.948 1.932-7.01 4.884-14.184 9.13-20.02 9.328-12.815 22.22-21.609 37.757-24.742 7.827-1.579 16.448-.597 24.503.609 19.452 2.911 30.856 16.634 40.615 32.109 5.593 8.87 10.302 18.417 16.763 26.588 7.867 9.95 17.518 18.152 30.627 21.028 3.707.814 7.105 3.008 10.807 3.874 6.898 1.614 13.87 3.06 20.89 3.967 17.134 2.213 34.464 3.25 51.42 6.37 11.583 2.132 21.142 8.717 26.613 20.18 4.48 9.39 7.652 18.96 8.922 29.35 1.476 12.072 4.007 24.01 5.767 36.053 1.298 8.883 1.917 17.865 3.158 26.758 1.459 10.447 3.406 20.825 4.878 31.27 1.523 10.808 2.648 21.67 4.11 32.487.826 6.113 2.006 12.178 2.98 18.272 1.023 6.412 2.073 12.823 2.965 19.254 1.095 7.9 1.971 15.83 3.065 23.73a1862 1862 0 0 0 3.968 27.037c2.29 14.925 4.717 29.828 6.912 44.766.428 2.91.062 5.936.062 9.348l-25.268 2.562c-1.323-9.08-2.58-17.919-3.906-26.747-1.163-7.752-2.493-15.48-3.578-23.243-.93-6.656-1.499-13.363-2.442-20.018-1.353-9.554-2.925-19.078-4.358-28.622-1.238-8.248-2.35-16.516-3.628-24.758-1.854-11.951-3.872-23.877-5.691-35.833-.912-5.995-1.504-12.037-2.302-18.05-1.185-8.922-2.463-17.831-3.628-26.756-.85-6.508-1.51-13.04-2.382-19.545-1.022-7.623-2.091-15.243-3.305-22.837-1.469-9.192-2.683-18.457-4.81-27.502-1.753-7.457-2.138-16.3-10.62-19.94-5.143-2.207-10.844-3.493-16.42-4.23-14.632-1.936-29.37-3.081-43.994-5.06-8.705-1.179-17.663-2.292-25.818-5.302-11.93-4.405-22.785-10.714-33.023-18.967-12.464-10.045-19.393-23.225-27.514-36.072-4.854-7.679-8.803-16.105-16.926-21.528-5.817-3.883-11.508-4.63-18.4-4.861-10.163-.342-16.957 4.74-23.685 10.47-5.666 4.825-8.611 11.586-9.226 18.986-1.515 18.22-3.028 36.45-3.969 54.705-.785 15.245-1.812 30.604-.79 45.782.983 14.568-.07 29.222 3.387 43.8 3.694 15.573 6.3 31.303 12.584 46.223 7.8 18.518 14.831 37.36 22.175 56.07 5.382 13.71 11.115 27.3 15.985 41.19 4.412 12.583 7.88 25.498 11.742 38.273 3.025 10.003 5.991 20.024 9.034 30.022 3.187 10.473 6.883 20.817 9.505 31.428 1.836 7.431 2.078 15.243 3.336 22.834 1.092 6.591 2.695 13.096 3.924 19.667 2.07 11.07 5.336 22.126 5.648 33.256.298 10.665-2.516 21.419-3.984 32.13-.132.965-.723 1.954-.59 2.856 1.51 10.287-3.084 19.14-6.46 28.3-2.34 6.351-3.56 13.318-6.94 19.028-3.696 6.242-9.096 11.549-14.154 16.885-2.985 3.15-6.355 6.543-10.243 8.102-7.217 2.892-14.926 4.571-22.458 6.657a254 254 0 0 1-12.826 3.193c-3.331.739-6.716 1.735-10.08 1.747-34.999.127-70.002.354-104.997-.055-14.443-.168-28.863-1.918-43.306-2.742-14.737-.841-29.49-1.418-44.235-2.127-20.64-.993-41.28-1.955-61.915-3.024-10.71-.554-21.408-1.355-32.115-1.964-18.305-1.04-36.615-1.97-54.918-3.03-16.144-.935-32.29-1.874-48.42-3.017-11.317-.801-22.603-2.042-33.918-2.892-4.144-.311-8.334.06-12.495-.093-16.706-.615-33.415-1.18-50.11-2.022-16.315-.822-32.633-1.722-48.915-3.02-17.198-1.372-34.349-3.323-51.533-4.877-6.247-.565-12.587-.322-18.784-1.172-5.78-.792-11.426-2.557-17.136-3.875-9.062-2.093-18.303-3.614-27.148-6.393-10.889-3.422-21.494-7.77-32.137-11.938-8.148-3.19-16.352-6.34-24.189-10.201-8.552-4.216-16.673-9.299-25.048-13.884-15.71-8.6-31.52-17.017-47.187-25.696-10.72-5.938-21.218-12.28-31.91-18.273-8.948-5.016-18.141-9.6-27.03-14.716-9.132-5.255-17.984-10.995-27.036-16.393a5852 5852 0 0 0-44.233-26.128c-14.789-8.644-29.716-17.053-44.458-25.778-12.028-7.118-23.795-14.676-35.813-21.811-19.365-11.498-38.876-22.748-58.257-34.218-14.873-8.802-29.614-17.827-44.463-26.67a10540 10540 0 0 0-57.283-33.887c-3.409-2-6.258-1.83-8.487 2.366-7.565 14.246-15.353 28.376-23.216 42.462-6.108 10.942-12.684 21.627-18.645 32.647-9.786 18.087-19.06 36.452-28.893 54.513-8.19 15.043-16.97 29.762-25.304 44.728-6.864 12.327-13.379 24.848-20.19 37.206-9.494 17.228-19.892 34.013-28.383 51.717-4.676 9.747-13.339 14.026-20.616 20.305-2.984 2.574-6.478 2.716-10.501.397-4.477-2.582-9.647-4.232-14.716-5.454-7.741-1.866-12.098-7.866-17.01-13.062-6.514-6.892-12.371-14.4-18.688-21.485-9.17-10.284-18.464-20.457-27.767-30.62-8.754-9.564-17.657-18.991-26.364-28.596-7.86-8.67-15.533-17.51-23.304-26.26-13.192-14.855-26.294-29.794-39.697-44.456-2.204-2.411-5.558-4.225-8.723-5.211-7.001-2.18-14.153-4.048-21.372-5.305-6.72-1.171-13.607-1.398-20.423-2.009-.82-.073-1.678.191-2.484.07-10.059-1.505-18.656 3.456-27.898 5.864-12.411 3.234-18.263 13.412-24.723 22.255-9.046 12.384-16.316 26.095-24 39.437-7.447 12.93-14.267 26.22-21.722 39.146-5.877 10.19-12.563 19.913-18.41 30.118-6.801 11.869-12.986 24.089-19.625 36.053-3.065 5.524-6.696 10.73-9.852 16.207-5.158 8.95-10.044 18.059-15.217 27-5.325 9.204-10.912 18.257-16.286 27.433-10.347 17.665-20.749 35.3-30.893 53.08-8.674 15.203-16.978 30.616-25.525 45.893-7.016 12.539-14.034 25.08-21.266 37.494-5.2 8.924-10.905 17.553-16.112 26.472-7.162 12.268-14.059 24.691-21.083 37.04-9.599 16.872-19.215 33.734-28.815 50.606-6.98 12.268-13.962 24.535-20.912 36.82-4.68 8.27-9.428 16.505-13.918 24.877-4.747 8.85-3.474 18.272-1.321 27.385 1.555 6.582 3.343 13.595 9.511 17.74 10.621 7.136 21.474 13.927 32.171 20.951 8.767 5.756 17.423 11.68 26.186 17.44 2.546 1.674 5.293 3.043 8.295 4.686"/></svg>