<svg xmlns="http://www.w3.org/2000/svg" viewBox="0 0 2334 1500" xml:space="preserve"><path fill="#fff" d="M2156.084 1091.91c12.235.333 24.017 1.15 35.769.843 8.94-.233 16.82-3.352 21.947-11.79 12.733-20.954 25.76-41.73 38.756-62.523 6.441-10.303 13.465-20.263 19.47-30.809 3.147-5.526 4.805-11.933 6.885-18.028 3.736-10.942 5.3-22.256 4.941-33.793-.106-3.415-.85-6.817-1.398-10.21-1.147-7.096-2.466-14.165-3.52-21.274-1.92-12.945-3.727-25.906-5.525-38.867-1.215-8.758-2.199-17.55-3.536-26.288-1.457-9.517-3.312-18.972-4.782-28.487-.927-5.995-1.403-12.06-2.197-18.077a1360 1360 0 0 0-3.163-22.376c-.746-5.005-1.71-9.979-2.431-14.987a1742 1742 0 0 1-3.378-24.82c-.904-6.987-1.646-13.995-2.56-20.981-1.78-13.587-3.475-27.188-5.51-40.737-1.234-8.21-3.202-16.31-4.528-24.51-.785-4.857-.814-9.832-1.44-14.72-1.583-12.341-3.358-24.657-4.96-36.995-.783-6.016-.066-12.598-2.311-17.97-3.74-8.947-2.126-18.462-4.768-27.426-1.402-4.76-1.425-9.929-2.143-15.475l-34.085 4.31-3.175-24.743 92.902-12.135 3.266 24.723-34.042 4.593c.892 5.468 1.83 10.68 2.576 15.919 1.056 7.4 1.955 14.824 2.958 22.232.237 1.753.5 3.518.958 5.222 3.266 12.172 3.03 24.81 5.02 37.152a2109 2109 0 0 1 4.096 26.496c1.355 9.15 2.56 18.321 3.928 27.468 1.392 9.311 2.96 18.595 4.339 27.908.978 6.603 1.786 13.231 2.645 19.852 2.01 15.487 3.819 31.002 6.069 46.454 1.634 11.225 4 22.343 5.747 33.554 1.304 8.37 2.039 16.826 3.215 25.217 1.217 8.68 2.683 17.323 3.998 25.988 1.024 6.742 1.999 13.49 2.97 20.24 1.597 11.101 3.213 22.2 4.746 33.311 1.469 10.642 2.09 21.468 4.466 31.898 2.44 10.716.099 21.135-.591 31.527-.605 9.113-3.964 18.192-7.032 26.963-6.994 19.991-20.512 36.437-30.883 54.592-8.892 15.564-19.612 30.08-29.44 45.115-3.537 5.409-7.125 10.82-10.15 16.516-2.909 5.478-7.8 7.932-13.063 10.055-3.878 1.564-8.04 2.523-11.744 4.403-8.321 4.223-17.114 2.492-25.73 2.422-5.188-.042-10.352-1.426-15.554-1.722-19.757-1.124-39.529-2.003-59.29-3.073a1252 1252 0 0 1-30.537-2.002c-15.695-1.235-31.376-2.645-47.066-3.954-1.324-.11-2.666.018-3.998-.026-20.01-.66-40.09-.532-60.009-2.253-15.438-1.334-30.806-2.59-46.315-2.894-16.614-.326-33.206-1.834-49.806-2.854-15.933-.98-31.867-1.963-47.796-3.006-9.181-.601-18.445-.758-27.497-2.209-5.27-.844-10.315-3.593-15.245-5.94-8.44-4.015-16.725-8.36-25.04-12.634-1.586-.815-3.307-1.67-4.47-2.954-6.876-7.602-13.184-15.773-20.526-22.881-5.383-5.21-7.37-11.625-9.597-18.18a498 498 0 0 1-4.192-12.843c-.71-2.291-1.55-4.615-1.76-6.975-.812-9.163-1.285-18.356-2.106-27.517-.458-5.107-5.227-9.436-10.377-9.85-16.678-1.346-33.375-2.486-50.031-4.061-14.791-1.4-29.513-3.545-44.31-4.864-15.062-1.343-30.18-2.044-45.27-3.093-8.51-.592-17-1.623-25.519-1.905-9.2-.304-13.324 4.385-14.4 13.616-.836 7.171-2.89 14.201-4.406 21.293-1.15 5.376-2.336 10.745-3.448 16.129-1.239 6.002-2.312 12.04-3.632 18.025-3.408 15.438-6.787 30.884-10.437 46.266-1.587 6.687-2.756 13.804-5.992 19.695-5.054 9.2-14.782 7.03-23.22 6.76-4.861-.157-9.677-1.536-14.543-1.799-10.245-.553-20.517-.586-30.764-1.1-17.606-.883-35.204-1.935-52.801-2.986-9.85-.588-19.685-1.403-29.536-1.962-18.76-1.065-37.528-2.002-56.291-3.028-11.512-.63-23.022-1.314-34.531-1.994-16.767-.99-33.538-1.916-50.297-3.025-13.11-.868-26.267-1.493-39.279-3.181-6.213-.806-12.088-4.006-18.205-5.82-14.366-4.26-21.299-16.302-28.643-27.642-4.385-6.77-1.569-14.776-1.635-22.247-.009-.946.557-1.89.59-2.844.371-10.921.749-21.844 1.011-32.768.386-16.089.556-32.184 1.087-48.267.166-5.014-2.391-6.863-6.673-7.172-14.918-1.078-29.882-1.666-44.76-3.131-15.717-1.548-31.37-3.787-47.025-5.912-11.098-1.506-22.32-2.63-33.172-5.238-7.577-1.822-14.682-5.727-21.889-8.946-12.664-5.659-24.648-12.486-35.48-21.24-13.497-10.906-27.162-21.607-40.548-32.647-16.76-13.822-33.249-27.973-49.982-41.828-7.141-5.913-14.787-11.22-21.882-17.186-12.727-10.702-25.065-21.868-37.834-32.519-13.788-11.5-27.943-22.561-41.825-33.952-8.83-7.247-17.187-15.094-26.24-22.04-11.056-8.482-22.546-16.408-33.99-24.37-6.936-4.824-13.937-9.622-21.287-13.76-6.034-3.396-13.037.487-15.221 7.388-2.657 8.395-5.418 16.764-8.428 25.038-5.1 14.018-10.41 27.96-15.67 41.92-4.978 13.216-10.057 26.394-14.994 39.625-5.551 14.877-11.755 29.57-16.261 44.762-4.208 14.187-6.52 28.933-9.754 43.413-1.191 5.336-2.774 10.585-3.93 15.927-2.114 9.764-3.931 19.593-6.08 29.348-2.187 9.929-4.797 19.765-6.908 29.709-2.516 11.85-4.68 23.775-7.029 35.661-3.322 16.813-6.671 33.62-10.017 50.427-2.586 12.986-5.29 25.95-7.748 38.96-2.225 11.777-4.115 23.616-6.297 35.4-1.175 6.353-2.735 12.634-3.974 18.976-2.387 12.219-4.633 24.465-7.01 36.686-1.295 6.666-2.796 13.292-4.093 19.957-1.05 5.395-1.972 10.817-2.883 16.238-1.447 8.616-2.813 17.246-4.259 25.863-1.556 9.276-3.12 18.551-4.764 27.812-1.386 7.804-2.957 15.575-4.332 23.381-1.94 11.016-3.71 22.063-5.675 33.075-1.734 9.722-3.713 19.402-5.442 29.125-1.93 10.846-3.663 21.725-5.55 32.578-1.332 7.663-2.826 15.298-4.159 22.96-1.334 7.67-2.505 15.368-3.843 23.036-1.418 8.133-2.961 16.244-4.425 24.368-1.206 6.695-2.086 13.465-3.646 20.076-1.445 6.118-3.206 12.107-9.943 15.148-5.784 2.61-10.962 6.614-16.813 9.015-5.633 2.31-11.187 1.267-15.532-3.757-1.472-1.703-3.344-3.194-5.297-4.324-9.501-5.5-12.829-15.094-16.24-24.511-4.631-12.782-11.446-24.377-18.155-36.114-11.514-20.142-29.663-33.994-45.89-49.658-8.792-8.488-18.1-16.46-27.399-24.403-13.56-11.584-27.337-22.916-40.982-34.402-2.196-1.849-4.22-3.907-6.26-5.933-6.032-5.988-11.822-12.239-18.09-17.967-11.12-10.162-20.281-21.815-28.4-34.458-4.573-7.12-5.874-15.104-8.315-22.892-3.913-12.482-3.236-25.457-5.587-38.071-.755-4.05.328-8.496.874-12.721 1.208-9.35 2.634-18.67 3.915-28.01.363-2.647-.767-3.582-3.587-4.022-11.164-1.743-22.552-2.966-33.276-6.269-6.668-2.054-12.293-7.493-18.384-11.417-15.63-10.071-31.285-20.105-46.882-30.228-18.457-11.98-36.952-23.906-55.195-36.206-2.6-1.752-4.02-5.388-5.732-8.301-9.129-15.54-12.672-32.37-10.859-50.23.933-9.193 5.804-17.012 10.152-24.888 4.283-7.759 9.126-15.206 13.51-22.912 7.659-13.463 15.127-27.034 22.725-40.531 6.857-12.18 13.725-24.355 20.694-36.471 5.697-9.904 11.605-19.686 17.322-29.579 9.017-15.601 17.942-31.255 26.923-46.877 6.351-11.049 12.745-22.073 19.094-33.123 8.965-15.599 17.833-31.254 26.882-46.803 7.236-12.433 14.794-24.68 22.003-37.128 7.656-13.22 15.013-26.614 22.608-39.87 6.73-11.747 13.712-23.35 20.392-35.123 8.321-14.667 16.362-29.493 24.693-44.154 4.138-7.283 8.756-14.292 12.97-21.534 4.76-8.184 9.267-16.516 13.968-24.736 4.216-7.37 8.581-14.653 12.818-22.01 4.076-7.08 7.935-14.287 12.141-21.286 3.843-6.393 7.737-12.792 12.134-18.804 4.432-6.06 9.618-11.564 14.273-17.47 4.066-5.16 10.169-6.634 15.706-9.063 6.162-2.703 12.505-5.002 18.812-7.36 2.248-.84 4.614-1.869 6.94-1.905 11.853-.185 23.806-.992 35.535.23 9.156.952 18.058 4.476 27.033 7 9.465 2.663 18.212 5.69 24.968 14.218 10.195 12.867 22.11 24.36 33.098 36.613 12.066 13.455 23.881 27.134 35.865 40.662 4.308 4.861 8.833 9.53 13.183 14.353 14.903 16.525 29.653 33.19 44.721 49.56 5.05 5.486 10.47 10.814 16.477 15.173 4.94 3.585 10.299 1.179 13.227-4.247 6.68-12.375 13.541-24.652 20.23-37.022 6.127-11.332 12.022-22.79 18.2-34.092 10.61-19.41 21.344-38.754 32.06-58.107 6.696-12.094 13.527-24.113 20.165-36.239 9.887-18.06 19.674-36.173 29.47-54.282 7.416-13.71 14.723-27.478 22.202-41.154 2.077-3.798 4.013-7.98 7.085-10.833 2.63-2.442 6.662-3.846 10.306-4.627 7.538-1.616 15.171-4.835 22.883-.183 6.059 3.656 12.329 6.96 18.424 10.557 9.973 5.885 19.882 11.878 29.814 17.831 12.57 7.534 25.104 15.13 37.713 22.597 12.744 7.547 25.602 14.9 38.332 22.469 9.706 5.77 19.235 11.835 28.946 17.596 8.7 5.16 17.603 9.982 26.306 15.139 11.492 6.81 22.827 13.887 34.323 20.692 11.724 6.941 23.639 13.562 35.327 20.562 11.577 6.933 22.912 14.27 34.47 21.237 12.94 7.801 25.88 15.619 39.052 23.017 24.48 13.75 49.12 27.212 73.706 40.769 13.994 7.716 27.847 15.712 42.082 22.956 9.585 4.878 19.73 8.653 29.618 12.938 5.42 2.35 10.673 5.215 16.272 6.99 8.428 2.672 17.095 4.588 25.658 6.835 5.45 1.431 10.858 3.05 16.353 4.273 5.053 1.125 10.168 2.315 15.308 2.64 19.254 1.215 38.533 2.037 57.797 3.103 16.77.927 33.534 1.987 50.3 2.982 16.933 1.005 33.864 2.022 50.797 2.996 12.177.7 24.357 1.337 36.536 2.005 18.266 1.002 36.536 1.945 54.797 3.035 8.52.508 17.018 1.414 25.539 1.938 12.499.77 25.008 1.375 37.515 2.023 13.178.684 26.372 1.138 39.534 2.055 16.035 1.117 32.025 2.918 48.068 3.852 13.563.789 27.264-.124 40.747 1.255 49.717 5.084 99.547 2.008 149.319 2.665 6.32.084 12.693-2.14 19.001-3.483 3.298-.702 6.655-1.476 9.732-2.804 9.954-4.297 17.32-10.987 20.175-22.01 1.269-4.897 3.135-9.714 5.325-14.282 4.503-9.389 4.776-19.462 5.634-29.5.344-4.025 1.558-7.977 1.894-12.002.951-11.41-2.531-22.292-4.322-33.374-1.862-11.516-3.528-23.07-5.706-34.527-1.38-7.261-3.335-14.434-5.394-21.541-4.339-14.973-9.493-29.733-13.249-44.844-4.718-18.986-11.115-37.296-18.686-55.292-4.288-10.19-7.652-20.764-11.667-31.073-4.886-12.548-10.398-24.864-14.934-37.533-4.204-11.744-10.222-22.789-12.231-35.425-1.583-9.954-5.067-19.595-7.415-29.444-.64-2.69-.011-5.656-.334-8.452-3.243-28.119-2.16-56.354-1.807-84.528.192-15.363 2.444-30.7 3.774-46.048.325-3.755 1.325-7.586.889-11.248-1.117-9.363 4.45-16.3 8.784-23.148 8.41-13.285 20.808-21.526 36.387-25.492 12.762-3.25 25.117-2.59 36.792 2.399 10.287 4.395 18.633 12.006 24.728 21.68 7.307 11.6 13.784 23.84 22.133 34.633 6.83 8.828 16.068 15.465 26.95 19.62 16.706 6.377 33.973 8.955 51.696 10.021 10.872.654 21.97 1.407 32.43 4.159 15.375 4.045 26.91 12.951 31.62 29.576 3.646 12.875 5.568 25.83 6.97 39.053 1.05 9.927 3.875 19.653 5.515 29.535 1.122 6.76 1.439 13.652 2.338 20.455 2.258 17.09 4.491 34.185 7.023 51.235 2.096 14.113 4.875 28.128 6.856 42.256 2.014 14.362 3.26 28.83 5.148 43.212 1.396 10.622 3.382 21.165 4.922 31.77 1.474 10.142 2.703 20.32 4.073 30.477.081.603.459 1.165.895 2.225l-25.439 2.262c-.91-7.378-1.594-14.61-2.739-21.769-1.363-8.523-3.24-16.963-4.674-25.477-1.25-7.425-2.203-14.9-3.27-22.356-1.608-11.24-3.286-22.472-4.772-33.728-1.201-9.104-1.984-18.265-3.28-27.354-1.359-9.53-3.218-18.989-4.655-28.51-1.247-8.264-2.132-16.582-3.328-24.854-.606-4.192-1.534-8.338-2.339-12.5-.154-.798-.528-1.565-.608-2.365-1.03-10.296-1.835-20.618-3.077-30.887-1.456-12.022-2.976-24.053-5.066-35.975-1.261-7.197-3.091-14.41-5.685-21.228-3.557-9.35-12.469-11.083-20.985-12.04-12.898-1.452-25.924-1.767-38.813-3.271-6.914-.807-13.651-4.363-20.475-4.384-8.675-.028-15.244-4.692-22.762-7.224-10.41-3.504-18.362-10.646-26.479-17.618-11.566-9.934-18.407-23.133-25.82-36.04-4.956-8.63-9.773-17.695-19.905-21.714-.747-.297-1.539-.895-2.247-.812-7.449.865-14.952-1.507-22.467 1.768-11.305 4.927-18.556 12.922-20.91 24.825-1.182 5.977-.75 12.266-1.175 18.405-.273 3.937-.721 7.865-1.196 11.785-.53 4.38-1.581 8.733-1.708 13.119-.505 17.43-.953 34.869-.999 52.305-.033 12.769.174 25.57 1.097 38.296.503 6.936 2.715 13.75 4.167 20.616 1.213 5.736 2.118 11.563 3.748 17.179 1.946 6.707 4.4 13.276 6.843 19.828 5.686 15.248 11.36 30.503 17.304 45.65 4.125 10.51 8.79 20.807 13.029 31.274 2.748 6.787 5.202 13.694 7.717 20.572 2.91 7.954 6.035 15.846 8.532 23.929 3.113 10.076 5.607 20.341 8.504 30.486 3.092 10.824 6.743 21.505 9.411 32.43 2.668 10.922 4.438 22.065 6.57 33.118 1.208 6.255 2.4 12.513 3.513 18.785 1.54 8.677 2.046 17.677 4.732 25.977 3.467 10.715-.438 20.89-.577 31.268-.14 10.496-2.198 21.172-4.93 31.364-2.264 8.45-7.617 16.058-10.012 24.49-3.608 12.7-13.68 19.526-22.81 27.024-3.884 3.19-9.92 3.844-15.052 5.408-8.264 2.518-16.58 4.864-24.894 7.214-1.56.44-3.21.794-4.818.796-36.5.045-73.038 1.034-109.482-.395-17.78-.697-35.564-2.455-53.428-2.678-10.877-.137-21.74-1.258-32.612-1.886-17.805-1.028-35.616-1.954-53.417-3.037-14.867-.905-29.716-2.108-44.587-2.937-20.298-1.132-40.61-2.022-60.915-3.038-12.871-.644-25.871-.41-38.58-2.217-17.626-2.507-35.239-2.747-52.941-2.892-8.71-.071-17.402-1.35-26.115-1.86-18.63-1.09-37.274-1.955-55.904-3.063-14.646-.871-29.285-1.889-43.916-2.987-11.814-.887-23.697-1.423-35.386-3.192-8.489-1.284-16.683-4.443-25.063-6.552-6.324-1.593-12.91-2.318-19.065-4.374-9.613-3.212-19.066-6.973-28.392-10.959a776 776 0 0 1-33.778-15.4c-7.508-3.643-14.73-7.882-22.013-11.976-12.08-6.79-24.082-13.718-36.16-20.51-10.02-5.634-20.112-11.137-30.152-16.734-13.28-7.404-26.642-14.668-39.78-22.317-12.432-7.24-24.554-15.01-36.93-22.348-21.184-12.56-42.452-24.98-63.699-37.434-15.617-9.155-31.31-18.18-46.871-27.43-13.048-7.755-25.908-15.83-38.936-23.619-10.978-6.564-22.14-12.824-33.11-19.402-10.107-6.061-19.99-12.5-30.114-18.532-13.747-8.191-27.635-16.145-41.45-24.222-4.215-2.466-8.317-5.135-12.607-7.462-2.857-1.55-5.185-.195-6.68 2.358-3.547 6.06-7.033 12.16-10.405 18.318-6.75 12.334-13.426 24.709-20.097 37.086-5.242 9.726-10.29 19.56-15.682 29.203-5.668 10.137-11.752 20.04-17.449 30.16-4.891 8.69-9.474 17.551-14.23 26.316a7923 7923 0 0 1-17.574 32.228c-7.42 13.524-14.882 27.025-22.325 40.537-7.712 13.999-15.354 28.038-23.17 41.979-3.168 5.651-5.897 11.887-10.31 16.411-4.823 4.946-11.289 8.333-17.22 12.117-1.096.699-3.187.445-4.586-.041-6.774-2.355-13.647-4.558-20.121-7.59-3.634-1.701-6.978-4.523-9.736-7.504-12.64-13.661-25.043-27.543-37.504-41.371-14.913-16.551-29.797-33.13-44.698-49.693-6.189-6.879-12.434-13.707-18.575-20.628-12.525-14.117-24.822-28.444-37.633-42.296-2.682-2.9-7-4.63-10.88-6.002-6.298-2.228-12.816-3.886-19.32-5.458-4.743-1.146-9.785-3.009-14.392-2.37-10.585 1.47-21.956-1.718-31.75 5.042-1.911 1.319-4.409 2.174-6.729 2.444-8.71 1.015-12.327 8.265-17.179 13.831-14.15 16.234-22.769 35.957-33.67 54.24-6.403 10.738-12.854 21.452-19.016 32.328-7.793 13.753-15.256 27.693-22.976 41.488-3.826 6.837-7.893 13.54-11.88 20.286-4.647 7.866-9.371 15.687-13.976 23.578-5.14 8.807-10.291 17.61-15.236 26.526-5.132 9.254-9.797 18.772-15.08 27.935-5.661 9.815-11.898 19.295-17.71 29.025-4.7 7.868-9.127 15.899-13.704 23.84-4.5 7.806-9.09 15.558-13.543 23.39-7.617 13.396-15.112 26.863-22.747 40.25-6.524 11.44-13.216 22.784-19.754 34.216-7.894 13.802-15.65 27.683-23.57 41.47-6.513 11.34-13.25 22.551-19.756 33.896-6.718 11.717-13.22 23.557-19.927 35.28-3.227 5.64-6.805 11.08-10.058 16.707-5.594 9.678-11.806 19.104-16.262 29.29-2.24 5.122-2.14 11.808-1.375 17.558.828 6.22 3.481 12.242 5.682 18.224 1.832 4.976 5.687 7.916 10.42 10.451 6.947 3.722 13.336 8.482 19.988 12.761 8.278 5.325 16.65 10.505 24.856 15.938 9.514 6.3 18.808 12.936 28.353 19.19 9.833 6.441 19.35 13.71 29.956 18.516 8.063 3.654 17.554 4.97 26.526 5.566 8.143.54 15.45 1.896 21.227 7.739 5.743 5.806 8.3 12.94 7.186 21.2-1.159 8.59-2.488 17.164-3.39 25.782-.652 6.235-1.147 12.543-.969 18.798.308 10.83 2.348 21.404 4.654 32.04 2.675 12.338 9.998 21.753 17.688 30.485 10.572 12.005 22.75 22.64 34.613 33.454 14.233 12.974 28.79 25.597 43.335 38.224 10.53 9.141 21.607 17.676 31.813 27.157 9.394 8.726 17.577 18.759 26.99 27.462 8.318 7.69 14.134 16.758 19.048 26.761 3.47 7.062 8.117 13.545 11.578 20.61 3.5 7.14 6.191 14.679 9.221 22.05.374.908.382 2.167 1.026 2.73 2.449 2.141 5.109 5.704 7.653 5.674 3.625-.043 4.69-4.06 5.227-7.875 1.227-8.708 3.161-17.314 4.673-25.985 1.489-8.542 2.741-17.124 4.226-25.666 1.372-7.888 3.029-15.726 4.345-23.622 1.047-6.281 1.641-12.638 2.67-18.923 1.214-7.415 2.67-14.79 4.037-22.179 1.633-8.832 3.187-17.68 4.96-26.484 1.41-7.009 3.112-13.96 4.65-20.944.211-.958.171-1.968.327-2.942 1.394-8.708 2.783-17.418 4.22-26.12 1.226-7.415 2.46-14.83 3.787-22.227 1.467-8.178 3.102-16.326 4.554-24.507 1.226-6.91 2.204-13.863 3.456-20.768 1.31-7.222 2.834-14.406 4.23-21.613a1953 1953 0 0 0 3.737-19.73c1.291-7.057 2.457-14.137 3.777-21.189 2.371-12.672 4.743-25.346 7.263-37.989 1.296-6.502 2.983-12.925 4.364-19.411 1.29-6.065 2.404-12.168 3.606-18.252 1.516-7.671 3.103-15.329 4.546-23.013 1.234-6.573 2.31-13.176 3.452-19.766 1.059-6.113 1.998-12.25 3.189-18.338 2.535-12.967 5.108-25.927 7.85-38.851 1.284-6.052 3.124-11.983 4.476-18.022 1.318-5.884 2.23-11.858 3.517-17.749 1.181-5.4 2.642-10.739 3.952-16.111 1.352-5.547 2.724-11.09 3.992-16.657 1.663-7.3 3.246-14.617 4.839-21.931 2.073-9.52 3.876-19.107 6.259-28.548 2.09-8.285 4.759-16.427 7.283-24.598 2.491-8.067 4.924-16.163 7.76-24.111 1.974-5.535 4.807-10.76 6.862-16.27 3.508-9.41 6.582-18.984 10.083-28.398 2.115-5.69 4.828-11.155 7.03-16.816 3.072-7.898 5.88-15.898 8.868-23.829 4.13-10.965 9.535-21.627 12.154-32.937 2.674-11.545 12.89-15.078 19.46-22.382 4.391-4.884 10.36-3.593 15.746-1.71 12.88 4.501 25.447 9.502 35.648 19.243 4.346 4.15 10.042 6.85 14.904 10.503 14.042 10.547 28.06 21.13 41.913 31.922 8.329 6.488 16.353 13.367 24.478 20.115 8.056 6.691 16.065 13.44 24.099 20.158 13.85 11.583 27.661 23.213 41.57 34.725 11.182 9.255 22.56 18.274 33.71 27.566 11.352 9.46 22.392 19.3 33.832 28.65 10.07 8.232 20.49 16.036 30.782 23.995 8.694 6.724 16.881 14.33 26.288 19.848 10.45 6.13 21.801 10.949 33.199 15.148 6.627 2.442 14.119 2.53 21.216 3.708 8.87 1.472 17.73 3.003 26.605 4.447 1.941.316 3.927.349 5.888.554 8.973.94 17.945 1.895 26.918 2.844.495.053.99.119 1.486.146 12.034.671 24.079 1.207 36.1 2.065 5.385.385 10.81 1.039 16.062 2.245 6.441 1.479 7.48 8.284 11.125 12.547.717.838 1.14 1.94 1.636 2.951 1.935 3.955 3.42 7.681 2.626 12.562-1.167 7.165-1.06 14.562-1.191 21.866-.42 23.434-.233 46.892-1.29 70.295-.362 8.03 3.926 12.917 8.78 16.572 7.044 5.303 15.795 8.359 24.797 8.811 25.126 1.264 50.382 1.01 75.375 3.487 15.676 1.553 31.262 2.202 46.946 2.713 15.82.514 31.612 1.889 47.415 2.894 15.64.995 31.273 2.065 46.917 2.977 13.198.77 26.416 1.232 39.61 2.067 13.149.832 26.279 1.966 39.42 2.94 1.308.098 2.63.014 4.69.014 2.064-9.984 4.011-19.855 6.175-29.679 1.12-5.086 2.767-10.055 3.913-15.136 1.47-6.518 2.55-13.125 4.02-19.643 3.228-14.305 6.682-28.559 9.862-42.874 1.31-5.898 1.177-12.327 3.533-17.713 1.722-3.934 6.082-7.116 9.937-9.589 3.189-2.047 7.563-2.146 11.052-3.847 7.99-3.895 16.104-3.25 24.365-1.593.162.032.328.048.493.058 10.702.673 21.41 1.253 32.102 2.054 5.39.404 10.746 1.245 16.124 1.82 4.089.436 8.19.756 12.283 1.143q26.01 2.46 52.02 4.931c3.602.343 7.194.828 10.803 1.038 12.528.726 25.057 1.788 37.593 1.893 9.868.083 16.775 3.601 20.698 12.86 1.606 3.792 4.342 7.13 5.752 10.973a67.3 67.3 0 0 1 3.49 14.041c1.105 8.135 1.21 16.414 2.49 24.514 2.412 15.274 12.303 26.034 22.206 37.13 6.298 7.057 14.436 9.595 22.102 13.59 2.157 1.123 4.583 1.787 6.607 3.094 8.47 5.47 17.907 4.755 27.372 5.048 20.484.633 41.058.912 61.385 3.204 15.666 1.766 31.253 2.416 46.946 2.76 13.044.287 26.212.303 39.073 2.169 15.641 2.27 31.248 2.48 46.947 2.885 15.82.407 31.614 1.855 47.418 2.882 14.974.972 29.94 2.08 44.919 2.96 13.53.794 27.079 1.254 40.605 2.091 4.207.26 8.368 1.27 13.016 1.936"/></svg>