<svg xmlns="http://www.w3.org/2000/svg" viewBox="0 0 1969 753" xml:space="preserve"><path fill="#fff" d="M552.035 652.26c12.563-1.301 24.655-2.602 36.747-3.9.494-.052.992-.07 1.489-.098 11.374-.668 22.758-1.21 34.12-2.033 16.772-1.215 33.508-3.108 50.297-3.83 17.208-.739 34.468-.765 51.693-.446 13.612.252 27.304.754 40.779 2.532 11.774 1.553 23.442 4.522 34.886 7.812 11.866 3.412 23.494 7.723 35.062 12.077 12.747 4.797 25.278 10.162 37.958 15.142 8.576 3.368 17.198 6.632 25.887 9.698 10.54 3.718 21.096 7.422 31.786 10.673 9.119 2.773 18.411 4.996 27.673 7.276 8.668 2.134 17.364 4.19 26.112 5.958 5.14 1.038 10.393 1.906 15.618 2.06 28.042.83 56.09 1.764 84.14 1.94 15.712.099 31.48-.648 47.13-2.05 11.527-1.033 22.901-3.758 34.347-5.706 10.321-1.757 20.708-3.189 30.955-5.302 11.027-2.274 21.973-4.994 32.869-7.844 14.829-3.879 29.716-7.63 44.322-12.244 14.523-4.588 28.711-10.232 43.081-15.313 17.677-6.251 35.47-12.182 53.051-18.69 8.047-2.978 15.604-7.255 23.563-10.503 13.43-5.481 27.042-10.518 40.505-15.922 10.36-4.158 20.564-8.703 30.918-12.877 15.522-6.257 31.187-12.166 46.656-18.552 13.583-5.608 27.051-11.507 40.438-17.57 15.545-7.042 30.985-14.32 46.397-21.65 17.074-8.12 34.167-16.209 51.065-24.683 22.493-11.28 44.832-22.87 67.187-34.424 14.221-7.35 28.806-14.136 42.414-22.499 20.69-12.715 40.8-26.395 60.824-40.15 3.011-2.07 5.087-6.542 6.061-10.3 1.692-6.534-3.683-10.054-8.136-12.834-13.095-8.176-26.365-16.113-39.915-23.506-13.774-7.515-26.378-16.587-36.29-28.592-8.316-10.072-10.72-22.32-8.873-35.582 1.68-12.063 4.767-23.454 10.143-34.427 5.212-10.638 13.132-18.6 23.199-23.985 5.373-2.874 12.057-4.065 18.254-4.488 16.924-1.158 33.916-1.29 50.856-2.26 8.839-.505 17.775-1.221 26.399-3.086 11.746-2.54 22.759-7.444 29.341-18.206 9.294-15.195 17.901-30.809 26.796-46.247.33-.573.628-1.169.887-1.777 2.457-5.76 2.352-6.052-3.607-8.399-1.514-.596-3.115-.974-4.682-1.428-12.269-3.557-19.048-23.72-17.01-32.537 3.97-17.19 7.962-34.378 11.628-51.634 2.061-9.706 3.58-19.53 5.177-29.33 1.8-11.041-6.151-12.874-15.161-12.593-2.452.076-4.892.775-7.337.775-445.495.036-890.99-.021-1336.486.08-93.107.021-186.214.596-279.32 1.016-5.854.026-11.64.812-16.787 4.369-7.225 4.993-8.67 16.204-1.817 21.53a525 525 0 0 0 32.246 23.14c15.157 10.039 30.405 20 46.148 29.07 8.803 5.072 18.44 9.064 28.161 12.05 6.772 2.079 14.312 1.816 21.53 2.235 5.482.318 11.027-.311 16.49.137 13.565 1.113 26.332-1.563 38.24-7.862 12.1-6.402 23.947-13.285 35.872-20.014 14.632-8.256 28.974-17.079 43.943-24.668 8.863-4.493 18.698-7.066 28.089-10.524 7.518-2.768 14.962-5.753 22.561-8.276 3.83-1.271 7.9-1.953 11.915-2.513 10.876-1.517 21.761-3.02 32.682-4.146 6.902-.712 13.895-1.246 20.812-.971 17.665.702 35.377 1.272 52.936 3.15 9.753 1.044 19.262 4.51 28.835 7.056 11.083 2.946 21.82 6.869 32.095 12 15.873 7.927 31.828 15.693 47.597 23.823 16.97 8.748 33.79 17.791 50.63 26.789 17.356 9.272 34.598 18.76 52 27.943 19.343 10.208 38.845 20.112 58.202 30.292 5.71 3.003 11.164 6.49 17.006 9.914l9.772-17.067 17.405 9.657-29.47 52.895-17.424-9.696 8.976-16.517c-6.714-3.722-13.02-7.33-19.426-10.749a24189 24189 0 0 0-63.156-33.55 25133 25133 0 0 0-52.81-27.89 8960 8960 0 0 0-39.753-20.842c-13.128-6.831-26.223-13.731-39.471-20.323-8.655-4.306-17.282-8.958-26.415-11.941-12.016-3.925-24.423-6.835-36.833-9.332-20.41-4.107-41.181-3.387-61.839-2.967-12.133.247-24.114 2.464-36.155 4.264-19.545 2.922-37.24 10.647-54.91 18.022-16.817 7.02-32.253 17.374-48.216 26.405-12.01 6.794-23.534 14.56-35.93 20.529-13.3 6.402-27.74 9.553-42.655 9.689-7.5.068-15.07.657-22.483-.14-10.64-1.141-21.255-1.728-31.75-5.286-18.402-6.24-34.736-15.95-50.85-26.32-16.705-10.75-33.582-21.257-49.93-32.53-6.612-4.558-12.659-10.344-17.72-16.58-2.71-3.34-3.29-8.752-3.928-13.354-1.105-7.968-.01-15.643 5.103-22.36 1.86-2.445 3.062-5.392 4.934-7.825 7.68-9.984 19.234-12.138 30.35-12.192 86.664-.42 173.33-.216 259.997-.269 14.864-.01 29.729-.377 44.594-.492 19.686-.152 39.373-.236 59.059-.314 10.454-.041 20.91-.113 31.361.025 8.172.108 16.34.656 24.511.734 4.275.041 8.555-.741 12.834-.75 29.559-.065 59.118-.008 88.677-.02 42.227-.019 84.453-.07 126.68-.095 21.849-.013 43.699.082 65.547-.04 7.604-.042 15.207-.9 22.807-.848 22.767.158 45.532.729 68.299.838 10.769.052 21.542-.862 32.312-.832 15.489.043 30.976.622 46.465.83 10.365.138 20.734.142 31.099-.009 7.276-.105 14.548-.87 21.819-.819 18.106.126 36.209.626 54.315.8 4.771.046 9.55-.838 14.322-.796 20.979.185 41.956.84 62.934.809a807218 807218 0 0 0 564.866-1.058c14.129-.03 23.965 6.164 30.891 18.41 2.964 5.24 2.911 10.143 2.175 15.554-.885 6.499-1.246 13.088-2.47 19.516-1.58 8.308-3.95 16.462-5.694 24.742-2.861 13.585-5.823 27.163-8.074 40.855-1.046 6.361 2.375 8.418 9.714 10.873 9.672 3.235 15.517 11.286 16.249 21.393.662 9.135-3.18 16.445-7.234 23.906-6.831 12.574-13.035 25.546-20.675 37.608-9.164 14.466-22.005 24.693-38.72 30.147-14.616 4.77-29.448 6.028-44.624 5.994-11.95-.026-23.904.461-35.853.818-18.158.543-30.281 9.13-36.099 26.643-3.066 9.233-4.962 18.628-3.772 28.195.44 3.544 3.46 7.054 5.992 9.985 3.96 4.584 7.984 9.427 12.916 12.79 8.944 6.098 18.648 11.068 27.903 16.724 13.367 8.17 28.099 14.143 39.022 26.215 5.378 5.944 8 12.766 9.663 20.042.643 2.817-1.009 6.38-2.215 9.36-5.244 12.953-14.533 22.49-26.113 29.948-15.479 9.97-30.735 20.322-46.582 29.671-13.227 7.803-27.204 14.329-40.778 21.551-9.914 5.275-19.61 10.963-29.588 16.11-15.711 8.102-31.571 15.917-47.38 23.83-13.773 6.894-27.513 13.855-41.356 20.605-17.168 8.372-34.277 16.89-51.696 24.71-12.252 5.501-25.041 9.795-37.478 14.903-13.485 5.538-26.782 11.534-40.265 17.077-14.681 6.036-29.503 11.728-44.226 17.663-19.845 8-39.575 16.288-59.502 24.076-16.874 6.594-33.938 12.708-50.956 18.93-11.252 4.113-22.506 8.24-33.88 11.994-10.94 3.61-22.021 6.798-33.068 10.075-9.176 2.723-18.324 5.587-27.61 7.882-12.003 2.966-24.116 5.494-36.209 8.088-10.046 2.154-20.132 4.125-30.198 6.188-14.135 2.896-28.24 5.654-42.795 5.833-35.227.435-70.45 1.793-105.672 1.68-14.195-.045-28.474-2.398-42.546-4.724-14.11-2.333-28.141-5.448-41.964-9.133-13.317-3.55-26.403-8.036-39.443-12.535-12.977-4.477-25.776-9.469-38.645-14.26a6794 6794 0 0 1-32.8-12.28c-9.81-3.709-19.463-7.888-29.419-11.147-14.441-4.727-29.167-8.27-44.52-8.728-14.886-.445-29.753-1.609-44.64-1.931-9.303-.202-18.627.537-27.94.916-7.658.312-15.32.612-22.97 1.1-20.1 1.28-40.2 2.586-60.289 4.024-12.314.881-24.613 1.97-36.91 3.062-17.542 1.557-35.068 3.275-52.614 4.773-6.746.576-13.53.715-20.294 1.09-23.932 1.331-47.849 3.303-71.797 3.837-22.265.496-44.574-.204-66.842-.985-21.817-.765-43.52-2.922-64.83-8.08-12.949-3.134-25.944-6.082-38.942-9.008-14.422-3.247-28.735-7.536-43.344-9.25-17.048-2.002-34.373-2.34-51.564-2.142-8.494.097-17.077 2.57-25.401 4.79-9.11 2.427-18.168 4.553-27.642 3.921-8.578-.571-17.353-.408-25.66-2.272-10.045-2.253-19.33-7.07-26.919-14.327-10.148-9.707-16.743-21.863-20.03-35.208-6.252-25.37-3.566-49.81 11.563-71.901 5.442-7.947 10.782-16.144 17.368-23.089 15.8-16.663 34.159-29.912 55.403-39.136 18.704-8.122 37.95-14.565 57.86-18.594 20.737-4.196 40.773-.869 60.3 7.453 12.363 5.268 24.41 10.815 34.906 19.262 6.66 5.36 13.095 11 19.58 16.574 9.74 8.374 18.927 17.504 29.298 24.998 9.572 6.917 21.124 10.042 33.018 10.328 9.09.219 18.226-.214 27.297-.924 10.944-.857 19.828-6.97 28.674-12.696 19.555-12.66 38.845-25.731 58.404-38.385 12.886-8.337 27.13-13.127 42.383-15.013 5.494-.68 11.01-2.918 16.377-2.53 13.405.965 26.798 2.631 40.057 4.844 5.426.906 10.68 3.576 15.693 6.082 19.409 9.705 38.755 19.54 58 29.567 21.101 10.994 42.144 22.106 63.06 33.45 12.902 6.997 25.413 14.714 38.297 21.748 10.747 5.867 21.823 11.128 32.676 16.805 15.653 8.189 30.966 17.085 46.922 24.626 18.617 8.8 37.641 16.782 56.74 24.5 10.602 4.284 21.532 8.094 32.65 10.683 12.36 2.878 24.732 6.434 37.778 5.54 5.555-.38 11.196.725 16.804.838 8.197.165 16.498.849 24.579-.136 13.408-1.635 26.79-3.907 39.968-6.872 11.849-2.667 23.581-6.134 35.038-10.176 8.838-3.118 17.135-7.747 25.732-11.571 13.308-5.92 24.25-15.288 35.482-24.218 13.99-11.124 23.743-24.796 25.302-43.242 1.65-19.532.834-38.99-.83-58.505-.975-11.45.142-22.827 4.607-33.865 7.675-18.979 22.422-30.75 38.827-41.573 10.153-6.699 20.211-14.167 28.415-23.043 11.972-12.954 11.343-23.052-7.1-34.822-16.511-10.538-34.312-19.058-51.572-28.419-16.01-8.684-31.98-17.446-48.11-25.906-13.774-7.226-27.849-13.88-41.602-21.143-12.471-6.586-24.677-13.675-37.023-20.5-3.95-2.184-8.072-4.077-11.893-6.46-.93-.58-1.749-2.941-1.309-3.848 2.743-5.652 5.858-11.123 9.01-16.951 18.018 9.662 35.713 19.15 53.406 28.64 14.44 7.746 28.861 15.524 43.32 23.23 11.205 5.971 22.483 11.803 33.68 17.787 19.475 10.41 38.973 20.782 58.344 31.383 12.388 6.78 23.16 15.782 28.477 29.045 2.195 5.475 3.498 11.821 1.388 19.002-2.62 8.915-5.841 17.56-12.056 23.63-10.016 9.783-21.547 18.08-32.82 26.492-10.278 7.67-21.558 14.222-27.95 25.915-4.354 7.965-6.48 16.601-6.229 25.813.604 22.121 1.598 44.254 1.306 66.368-.141 10.762-4.77 20.822-9.638 30.517-6.511 12.965-17.057 22.212-27.946 31.191-12.475 10.288-25.953 19.126-40.543 26.021-9.596 4.536-19.713 7.984-29.652 11.775-6.314 2.408-12.586 5.17-19.128 6.682-12.42 2.869-25.02 4.95-37.543 7.365-22.43 4.324-45.079 1.229-67.617 1.808-6.938.178-13.978-1.666-20.892-2.994-8.985-1.726-17.962-3.59-26.809-5.906-7.372-1.93-14.657-4.315-21.79-7.006-8.771-3.31-17.416-6.984-25.982-10.8-7.907-3.521-15.677-7.359-23.437-11.199-11.059-5.472-22.092-11-33.067-16.637-17.183-8.827-34.346-17.693-51.446-26.68-14.026-7.37-27.985-14.87-41.903-22.44-16.431-8.939-32.671-18.235-49.21-26.966-14.708-7.764-29.756-14.879-44.569-22.448-10.93-5.585-21.618-11.646-32.605-17.112-9.16-4.556-19.1-6.799-29.252-7.556-14.124-1.054-27.96 1.01-41.535 4.944-11.4 3.304-21.35 9.429-31.114 15.931-17.85 11.888-35.579 23.966-53.628 35.545-10.504 6.74-21.695 11.758-34.766 11.654-8.702-.069-17.493 2.231-26.1 1.577-9.19-.698-18.453-2.88-27.256-5.73-18.93-6.132-33.777-18.733-47.27-32.779-12.608-13.123-27.117-23.56-43.23-31.56-8.076-4.01-17.185-6.006-25.915-8.62-16.761-5.018-32.795-.907-48.549 4.599-13.93 4.868-28.061 9.432-41.387 15.662-9.429 4.408-17.924 11.018-26.369 17.275-13.725 10.17-24.645 23.011-32.508 38.16-4.267 8.218-7.232 16.82-7.34 26.594-.15 13.706 1.882 26.474 8.988 38.35 4.843 8.096 11.46 13.892 20.407 16.782 4.916 1.588 9.976 2.819 15.053 3.779 1.977.374 4.172-.594 6.278-.684 14.163-.604 27.815-4.23 41.542-7.235 10.357-2.268 20.71-2.289 31.152-1.8 6.313.295 12.64 1.136 18.93.907 11.702-.426 22.869 2.005 34.09 4.809 5.321 1.33 10.942 1.413 16.38 2.344 3.844.658 7.603 1.81 11.409 2.707 8.898 2.096 17.803 4.164 26.702 6.254 9.344 2.195 18.618 4.769 28.047 6.5 8.84 1.622 17.823 2.58 26.782 3.418 7.24.676 14.534.851 21.81 1.045 15.44.412 30.882.971 46.323.952 17.99-.022 35.985-.435 53.968-.993 10.889-.337 21.773-1.098 32.634-1.979 14.273-1.157 28.513-2.728 42.786-3.904 7.24-.596 14.518-.716 22.25-1.052"/></svg>