<svg xmlns="http://www.w3.org/2000/svg" viewBox="0 0 2002 1116" xml:space="preserve"><path fill="#fff" d="M215.811 725.627c4.185-10.327 8.27-20.279 12.183-30.297 5.094-13.04 9.911-26.19 15.103-39.19 6.057-15.166 12.426-30.206 18.59-45.33 5.823-14.284 11.747-28.531 17.279-42.929 6.756-17.584 13.397-35.221 19.588-53.01 2.795-8.032 5.174-16.38 6.28-24.777.999-7.573-1.792-14.986-4.255-22.289-3.939-11.678-8.914-23.258-9.27-35.723-.186-6.533 2.28-13.098 2.958-19.709 1.324-12.91 10.328-21.675 16.84-31.7a170.5 170.5 0 0 1 16.957-21.93c10.447-11.456 21.159-22.725 32.446-33.343 11.976-11.265 24.159-22.477 37.33-32.261 16.064-11.933 33.14-22.528 50.009-33.344 6.848-4.39 13.946-8.881 21.561-11.468 10.98-3.73 22.454-3.715 33.708.284 6.78 2.41 13.925 3.86 20.561 6.58 8.876 3.64 17.387 8.161 26.113 12.177 7.953 3.66 16.029 7.055 23.967 10.745 9.048 4.205 17.972 8.678 27.008 12.91 14.101 6.605 28.26 13.087 42.378 19.654 15.113 7.029 30.167 14.184 45.322 21.121 16.414 7.515 32.896 14.88 49.383 22.236 10.652 4.752 21.384 9.324 32.044 14.058 13.18 5.854 26.255 11.953 39.501 17.653 16.014 6.891 32.2 13.38 48.231 20.23 8.511 3.636 17.3 6.935 25.148 11.72 7.878 4.804 12.505 13.102 15.945 21.468 1.657 4.028 4.667 5.657 7.647 7.482 3.212 1.966 6.992 3.012 10.541 4.418 5.107 2.022 9.515 1.282 11.771-3.503 4.391-9.311 13.038-12.175 21.511-14.074 4.735-1.06 10.66 1.043 15.492 3.057 7.389 3.08 14.26 7.385 21.413 11.05 17.598 9.014 35.253 17.92 52.845 26.947 15.627 8.019 31.91 14.306 48.653 19.614 14.198 4.501 27.974 10.345 42.205 14.724 12.926 3.978 26.142 7.11 39.362 10.014 14.058 3.088 28.22 5.8 42.435 8.047 10.01 1.582 20.214 1.901 30.283 3.169 14.218 1.79 28.356 4.261 42.596 5.808 8.863.963 17.854.723 26.785 1.085 15.86.642 31.712 1.538 47.578 1.934 12.997.325 26.01.08 39.015.081 24.19.001 48.394.486 72.567-.168 17.768-.48 35.495-2.473 53.243-3.75 5.742-.413 11.63-.027 17.214-1.168 12.61-2.577 25.26-5.274 37.536-9.078 9.598-2.975 18.744-7.5 27.93-11.69 7.52-3.432 15.12-6.876 22.122-11.222 11.474-7.123 22.516-14.947 33.695-22.542 10.452-7.103 21.153-13.892 31.167-21.571 7.927-6.08 14.945-13.338 22.43-20.002 10.075-8.97 20.237-17.844 30.31-26.815 5.51-4.906 10.915-9.929 16.367-14.9 15.99-14.577 31.886-29.26 47.995-43.705 16.259-14.582 32.808-28.839 49.077-43.409 12.353-11.062 24.302-22.577 36.729-33.552 13.229-11.683 23.576-25.786 34.462-39.474 6.42-8.072 13.633-15.553 19.596-23.935 5.326-7.486 10.114-15.54 13.824-23.925 2.484-5.617 3.032-12.21 3.746-18.446.422-3.676-7.176-10.347-11.794-11.704-7.222-2.123-14.356-4.544-21.545-6.783-6.748-2.101-13.57-3.979-20.269-6.226-11.101-3.723-22.036-7.968-33.218-11.42-9.498-2.931-19.123-6.174-28.914-7.238-11.222-1.22-18.46 6.528-18.013 17.951.46 11.806 1.836 23.575 2.804 35.36.686 8.354.88 16.785 2.188 25.039 1.093 6.89 3.75 13.515 5.232 20.362 1.705 7.871 5.133 15.3 1.341 24.027-6.054 13.934-17.704 23.293-32.18 22.89-12.377-.346-29.058-10.762-30.515-24.758-.485-4.66-2.054-9.354-1.689-13.918.39-4.863 2.594-9.562 3.806-14.383 2.271-9.028 3.005-18.03 1.17-27.374-1.229-6.257-1.005-12.827-1.145-19.263-.176-8.005-.095-16.017-.057-24.026.074-15.827 4.224-30.217 13.278-43.52 3.138-4.61 4.206-11.25 4.481-17.046.465-9.803 1.507-19.819-1.796-29.441-2.919-8.503-9.911-16.559-21.073-11.9-11.38 4.751-23.225 8.38-34.774 12.744-6.875 2.598-13.494 5.876-20.37 8.47-8.83 3.33-17.786 6.33-26.718 9.383-9.226 3.155-18.544 6.05-27.722 9.337-13.387 4.793-26.7 9.797-40.017 14.782-10.364 3.879-20.61 8.085-31.05 11.74-9.6 3.359-19.458 5.975-29.075 9.288-9.627 3.316-19.05 7.219-28.647 10.625-9.206 3.269-18.594 6.029-27.758 9.404-5.233 1.928-10.21 4.57-15.245 7.01-10.806 5.238-22.008 9.835-32.251 16.014-13.37 8.065-25.894 17.07-36.182 29.56-10.026 12.168-10.965 25.44-9.909 39.45.495 6.557 3.76 12.875 5.46 19.382 1.343 5.14 2.311 10.385 3.269 15.616 1.195 6.532 2.481 13.066 3.238 19.655 1.17 10.18 3.727 20.211 1.905 30.697-1.594 9.172-1.822 18.574-3.206 27.792-1.052 7.008-3.108 13.858-4.476 20.826-2.764 14.08-9.458 26.684-15.935 39.115-4.537 8.708-12.182 15.77-18.225 23.728-4.654 6.13-11.028 9.89-17.718 12.995-12.334 5.726-24.692 11.514-37.426 16.233-11.248 4.169-23.02 7.005-35.221 6.79-15.283-.269-30.61-.045-45.832-1.182-11.714-.875-22.935-4.82-33.892-9.163-10.85-4.301-21.828-8.3-32.554-12.89-13.16-5.63-26.002-12.011-39.194-17.56-13.607-5.723-27.25-11.512-41.274-16.049-18.341-5.933-36.96-11.114-55.669-15.773a500 500 0 0 0-45.684-9.133c-14.067-2.137-28.37-2.657-42.516-4.346-9.66-1.153-19.203-3.263-28.845-4.609-5.528-.771-11.15-.874-16.73-1.271-11.393-.813-22.503-3.147-33.169-7.127-5.971-2.228-11.52-5.565-17.346-8.212-9.469-4.3-19.007-8.45-28.519-12.654-10.22-4.518-20.33-9.31-30.698-13.46-10.422-4.172-21.118-7.66-31.665-11.525-9.467-3.47-18.863-7.134-28.35-10.55a1063 1063 0 0 0-27.27-9.414c-7.456-2.458-14.936-4.887-22.522-6.882-7.639-2.008-15.527-3.095-23.116-5.252-10.608-3.015-21.1-6.475-31.53-10.065-10.733-3.693-21.438-7.508-31.96-11.755-9.737-3.93-19.192-8.553-28.812-12.777-10.98-4.822-22.147-9.236-32.976-14.37-17.96-8.519-35.758-17.386-53.54-26.275-9.338-4.668-18.547-9.603-27.717-14.596-5.642-3.072-11.15-6.4-16.63-9.757-8.34-5.107-14.635-4.779-21.122 2.514-12.937 14.544-29.28 24.899-44.223 36.98-16.021 12.952-32.15 25.783-47.867 39.097-9.573 8.11-18.88 16.627-27.555 25.68-13.44 14.027-26.829 28.186-39.116 43.208-8.968 10.965-16.053 23.46-24.115 35.178-7.404 10.762-15.394 21.143-22.392 32.158-7.93 12.483-15.075 25.466-22.49 38.273-2.169 3.747-4.093 7.635-6.307 11.792l-19.317-7.957c2.042-4.294 3.792-8.459 5.942-12.406 6.698-12.297 13.135-24.764 20.464-36.679 6.33-10.29 13.78-19.888 20.663-29.842 8.036-11.622 15.563-23.625 24.114-34.852 7.68-10.086 16.328-19.45 24.767-28.94 10.3-11.584 20.44-23.353 31.384-34.307 8.256-8.262 17.58-15.477 26.59-22.961 11.796-9.795 23.696-19.465 35.654-29.062 11.95-9.592 24.182-18.84 35.989-28.603 6.995-5.784 13.136-12.607 20.168-18.342 5.566-4.54 12.27-7.607 19.7-5.84 7.346 1.746 14.93 3.505 21.598 6.866 11.523 5.81 22.127 13.437 33.639 19.272 23.5 11.913 47.196 23.465 71.096 34.553 20.394 9.461 40.996 18.54 61.871 26.875 13.298 5.31 27.21 9.127 40.941 13.3 12.498 3.796 25.13 7.15 37.692 10.734 10.952 3.126 22.01 5.942 32.802 9.549 12.6 4.21 24.988 9.064 37.422 13.76 15.701 5.932 31.565 11.497 46.98 18.106 20.827 8.929 41.1 19.163 62.007 27.887 8.63 3.6 18.21 5.151 27.5 6.876 11.107 2.063 22.366 3.314 33.559 4.918.164.023.324.08.488.094 8.205.701 16.425 1.266 24.612 2.13 11.435 1.205 22.882 2.386 34.258 4.034 11.647 1.688 23.244 3.77 34.807 5.973 9.28 1.768 18.608 3.504 27.68 6.084 16.913 4.81 33.899 9.558 50.399 15.58 15.597 5.692 30.565 13.092 45.893 19.542 13.645 5.742 27.41 11.197 41.11 16.806 10.027 4.105 19.875 8.729 30.113 12.206 6.284 2.135 13.11 3.001 19.769 3.625 11.177 1.047 22.407 1.632 33.628 2.066 11.674.451 22.693-3.028 33.76-6.206 13.831-3.971 27.267-9.176 39.16-17.103 7.101-4.734 13.186-11.51 18.461-18.346 8.056-10.44 13.434-22.563 17.236-35.169 2.591-8.593 4.426-17.468 5.884-26.335 1.754-10.66 3.662-21.432 3.791-32.177.109-9.054-2.049-18.167-3.54-27.198-1.515-9.19-3.323-18.335-5.233-27.452-1.135-5.423-2.978-10.703-4.014-16.14-.977-5.124-1.897-10.378-1.814-15.558.192-12.062 2.154-24.17 8.536-34.375 5.33-8.523 12.246-16.473 19.874-23.033a208 208 0 0 1 31.767-22.508c12.136-6.981 25.043-12.794 38.041-18.062 16.492-6.684 33.392-12.367 50.156-18.37 16.958-6.072 33.965-12.011 50.952-18.004 17.085-6.027 34.202-11.963 51.248-18.097 16.309-5.868 32.528-11.986 48.817-17.908 16.73-6.082 33.54-11.949 50.232-18.129 8.82-3.265 17.446-7.047 26.194-10.506 11.379-4.5 29.358.638 37.583 9.49 7.873 8.474 9.92 18.627 12.229 29.376 3.322 15.474-1.257 29.924-3.513 44.691-.474 3.104-3.437 5.797-5.13 8.75-3.996 6.97-7.945 13.718-7.811 22.425.155 10.028-2.84 20.333-1.379 30.055 1.875 12.477.921 24.81 1.578 37.185.487 9.175-1.642 17.956-4.083 26.658-1.765 6.291 1.135 12.518 7.706 15.644 3.364 1.6 10.395-.983 12.645-5.65 1.299-2.695 1.808-6.812.685-9.441-3.516-8.235-6.114-16.42-6.61-25.519-.734-13.431-2.474-26.81-3.852-40.203-.572-5.557-2.192-11.16-1.785-16.628.674-9.06 1.96-18.187 4.171-26.988 2.497-9.937 15.206-18.884 25.553-19.09 7.377-.146 14.863-.79 22.109.196 6.717.914 13.21 3.604 19.748 5.677 12.542 3.976 25.078 7.978 37.557 12.147 8.019 2.678 15.9 5.767 23.902 8.498 7.54 2.574 15.386 4.38 22.694 7.477 15.355 6.507 22.76 20.322 20.428 36.961-.795 5.672-1.254 11.52-3.063 16.885-1.848 5.48-4.64 10.828-7.94 15.597-8.421 12.176-17.002 24.278-26.179 35.888-10.186 12.886-20.726 25.541-31.833 37.635-7.658 8.338-16.479 15.62-24.895 23.247-7.713 6.989-15.583 13.802-23.377 20.7-17.451 15.446-34.966 30.82-52.32 46.373-10.322 9.25-20.308 18.874-30.593 28.166-10.302 9.305-20.82 18.37-31.183 27.608a1862 1862 0 0 0-21.72 19.687c-16.523 15.202-32.946 30.43-52.217 42.349-13.636 8.433-26.25 18.51-39.807 27.082-8.23 5.204-17.381 8.952-26.129 13.333-4.564 2.286-8.972 5.05-13.763 6.681-10.035 3.415-20.234 6.372-30.445 9.238-10.39 2.916-20.876 5.496-31.319 8.228-.945.247-1.87.724-2.82.771-14.208.71-28.424 1.275-42.626 2.08-4.907.278-9.77 1.31-14.676 1.639-4.15.277-8.337.1-12.505.006-6.288-.141-12.572-.462-18.86-.564-6.219-.1-12.443-.116-18.66.016-2.942.062-5.876.82-8.81.803-7.726-.042-15.45-.381-23.176-.518-11.163-.2-22.327-.315-33.49-.483-20.674-.31-41.365-.22-62.015-1.084-15.783-.66-31.546-2.253-47.26-3.97-9.755-1.065-19.375-3.325-29.107-4.69-7.326-1.03-14.767-1.24-22.093-2.27-8.25-1.16-16.431-2.81-24.635-4.284-8.522-1.53-17.135-2.704-25.528-4.766-9.793-2.407-19.425-5.493-29.063-8.492-11.827-3.68-23.631-7.446-35.363-11.42-9.162-3.102-18.4-6.113-27.247-9.984-17.252-7.548-34.404-15.363-51.32-23.637-18.615-9.106-36.92-18.847-55.354-28.324-4.3-2.21-8.992-1.445-11.471 2.76-3.734 6.331-9.278 10.9-15.738 12.963-5.549 1.771-12.356 1.965-17.997.503-7.534-1.952-14.364-6.472-21.71-9.343-6.585-2.574-9.676-7.787-11.691-13.842-3.75-11.268-12.21-16.951-22.683-21.197-19.306-7.827-38.326-16.356-57.51-24.487-16.042-6.8-32.219-13.287-48.202-20.22-12.568-5.451-24.94-11.356-37.384-17.089a14359 14359 0 0 1-41.017-18.967c-19.094-8.869-38.166-17.784-57.26-26.654a30374 30374 0 0 0-54.106-25.067c-12.882-5.953-25.718-12.01-38.697-17.745-7.878-3.482-15.775-7.231-24.042-9.449-12.984-3.483-25.161-1.555-36.581 6.72-15.229 11.034-31.347 20.833-46.808 31.559-16.02 11.112-30.75 23.885-44.179 37.984-13.644 14.324-26.857 29.085-39.714 44.122-5.39 6.304-9.495 13.734-13.917 20.82-1.158 1.855-1.305 4.337-1.937 6.526-2.81 9.73-2.928 19.012.19 29.13 3.762 12.214 9.585 23.83 10.25 37.174.613 12.285-1.973 23.485-5.979 34.779-4.418 12.458-7.904 25.255-12.552 37.621-5.327 14.175-11.616 27.985-17.24 42.052-4.696 11.743-8.951 23.66-13.558 35.438-3.857 9.862-8.015 19.605-11.903 29.454-4.473 11.334-8.651 22.785-13.223 34.077-4.567 11.279-9.09 22.604-14.342 33.568-3.653 7.625-7.733 15.306-13.034 21.81-5.613 6.89-12.897 12.228-22.818 12.023-10.662-.22-21.381-.663-31.98.187-6.117.49-12.277 2.806-17.999 5.274-6.695 2.888-8.714 10.005-11.584 15.941-5.86 12.123-10.224 24.779-12.268 38.204-2.042 13.415-4.148 26.84-6.896 40.123-3.448 16.663-1.992 33.459-1.642 50.14.285 13.569 2.717 27.112 4.55 40.619 1.03 7.585 1.834 15.417 4.43 22.52 3.467 9.494 6.503 19.05 12.396 27.88 11.334 16.981 29.187 26.582 42.466 41.105 3.591 3.927 5.947 9.344 7.707 14.475 1.566 4.562 1.931 9.66 2.108 14.548.464 12.812-6.116 22.12-16.647 28.115-3.754 2.136-9.391 1.224-14.17 1.244-9.37.04-17.832-3.49-26.375-6.921-8.576-3.444-17.76-5.492-26.087-9.409-15.786-7.425-31.227-15.601-46.66-23.751-9.982-5.271-19.695-11.05-29.53-16.599-8.702-4.908-13.671-12.97-11.201-22.221 1.583-5.927 6.198-11.124 9.816-16.4 2.496-3.639 6.615-6.446 8.199-10.359 2.014-4.973 3.115-10.711 2.97-16.076-.254-9.505-1.764-18.974-2.715-28.462-1.672-16.697-3.364-33.393-4.929-50.1-.261-2.792-.078-5.655.182-8.46a314 314 0 0 1 1.765-15.161c1.382-9.735 2.611-19.505 4.414-29.164 2.247-12.037 4.885-24.006 7.585-35.951 2.408-10.654 5.195-21.22 7.697-31.853 3.486-14.807 6.66-29.69 10.347-44.444 3.172-12.696 6.937-25.243 10.329-37.886 2.624-9.783 4.846-19.68 7.666-29.404 3.174-10.95 6.81-21.765 10.26-32.634 2.21-6.965 4.26-13.99 6.714-20.867 3.604-10.1 7.397-20.138 11.312-30.123 4.442-11.328 8.85-22.682 13.74-33.82 6.306-14.36 13.028-28.54 19.664-42.754 3.174-6.798 6.564-13.494 10.066-20.667l-20.128-9.294 8.257-18.175L203.1 489.59l-8.274 18.17-17.848-8.027c-2.29 4.348-4.615 8.807-6.982 13.243-2.122 3.975-4.48 7.836-6.398 11.905-3.334 7.075-6.492 14.237-9.57 21.428-2.64 6.168-4.985 12.461-7.606 18.638-3.367 7.934-7.038 15.743-10.284 23.726-3.374 8.3-6.43 16.73-9.562 25.128-2.239 6.003-4.475 12.011-6.532 18.078-3.276 9.667-6.591 19.327-9.538 29.096-3.056 10.131-5.664 20.397-8.526 30.587-1.85 6.588-3.979 13.102-5.669 19.73-1.953 7.657-3.464 15.427-5.35 23.103-1.497 6.088-3.388 12.08-4.889 18.168-1.505 6.11-2.6 12.32-4.136 18.421-1.837 7.296-4.148 14.475-5.892 21.79-1.908 8.005-3.312 16.13-5.104 24.164-1.827 8.193-3.983 16.312-5.76 24.515-1.267 5.847-2.203 11.768-3.18 17.674-1.35 8.16-3.368 16.304-3.714 24.513-.503 11.932.149 23.918.483 35.876.104 3.751.91 7.477 1.156 11.23.752 11.485 1.327 22.982 2.09 34.466.566 8.503 1.385 16.99 1.974 25.492.808 11.665-4.193 20.93-12.187 28.915-1.882 1.88-3.931 3.64-5.537 5.737-1.89 2.467-1.336 4.565 1.563 6.155 11.297 6.198 22.43 12.703 33.827 18.71 9.909 5.222 19.886 10.416 30.201 14.742 13.698 5.745 27.736 10.684 41.67 15.853 2.712 1.006 5.603 1.566 8.445 2.173 4.69 1.002 8.397-2.451 9.134-7.129 1.688-10.71-4.758-16.934-11.873-22.83-7.765-6.437-16-12.337-23.445-19.114-3.895-3.546-6.537-8.47-9.74-12.773-2.62-3.519-5.583-6.842-7.76-10.617-2.391-4.15-4.24-8.648-5.995-13.124-2.208-5.635-4.49-11.296-5.997-17.138-2.103-8.151-4.03-16.412-5.133-24.745-3.612-27.296-3.662-54.788-2.905-82.227.316-11.48 2.789-22.909 4.425-34.34.965-6.746 1.737-13.575 3.44-20.148 2.77-10.689 5.677-21.408 9.57-31.72 3.451-9.144 7.496-18.301 12.877-26.39 3.275-4.924 9.235-8.431 14.6-11.51 8.039-4.612 16.926-7.121 26.345-7.139 9.5-.018 19.008-.25 28.495.085 4.501.16 7.73-1.533 10.184-4.84 2.686-3.62 4.978-7.532 7.618-11.663"/></svg>