<svg xmlns="http://www.w3.org/2000/svg" viewBox="0 0 1997 1091" xml:space="preserve"><path fill="#fff" d="M125.886 682.663c1.57-4.219 2.928-8.074 4.374-11.896 4.264-11.276 8.369-22.618 12.894-33.788 6.446-15.909 13.12-31.727 19.862-47.513 7.52-17.605 14.863-35.299 22.952-52.642 8.134-17.442 16.987-34.554 25.724-51.71 6.247-12.263 13.008-24.265 19.206-36.553 8.243-16.344 15.801-33.042 24.324-49.235 8.154-15.492 16.678-30.837 25.955-45.674 7.504-12.002 15.751-23.67 24.835-34.51 6.647-7.93 15.127-14.342 22.898-21.31 8.44-7.57 16.521-15.66 25.623-22.348 16.877-12.403 34.133-24.337 51.733-35.687 8.627-5.564 18.05-10.353 27.739-13.647 6.409-2.18 13.936-1.44 20.956-1.376 17.166.158 31.038 9.75 45.663 16.862 16.644 8.093 32.878 17.028 49.312 25.553 14.202 7.368 28.404 14.734 42.698 21.92 1.465.736 4.26 1.037 5.248.175 11.117-9.699 22.93-8.22 35.032-2.57 24.482 11.428 48.882 23.035 73.394 34.398 15.05 6.976 30.346 13.422 45.35 20.49 21.303 10.034 42.383 20.538 63.668 30.61 10.536 4.984 21.436 9.2 31.947 14.232 7.866 3.765 15.236 8.56 23.072 12.397 12.96 6.346 26.108 12.314 39.196 18.4 19.964 9.284 39.897 18.64 59.934 27.765a4155 4155 0 0 0 56.412 25.158c13.356 5.844 26.736 11.668 40.319 16.951 11.322 4.404 22.948 8.028 34.452 11.96 7.325 2.503 14.582 5.266 22.031 7.33 13.713 3.798 27.535 7.206 41.333 10.694 5.823 1.471 11.658 2.958 17.56 4.032 8.492 1.545 17.033 2.841 25.584 4.023 13.455 1.859 26.934 3.549 40.407 5.28 7.145.917 14.278 2.238 21.453 2.562 21.19.955 42.403 1.414 63.6 2.273 5.557.225 11.072 1.435 16.632 1.736 3.41.185 6.883-.862 10.3-.719 9.228.387 18.44 1.131 27.661 1.691 1.659.1 3.5.455 4.967-.088 8.646-3.2 17.188-.639 25.79.026 3.077.238 6.224-.661 9.342-.683 12.728-.09 25.48.457 38.179-.163 17.093-.833 34.139-3.422 51.216-3.538 11.72-.08 22.633-2.857 33.754-5.357 14.656-3.293 29.354-6.14 42.748-13.81 10.617-6.078 22.311-10.257 33.049-16.15 7.23-3.97 13.596-9.505 20.406-14.257 12.325-8.602 24.897-16.868 36.969-25.81 7.307-5.413 13.866-11.837 20.767-17.8 5.859-5.062 11.736-10.104 17.587-15.175 6.272-5.435 12.615-10.795 18.743-16.388 2.662-2.43 4.63-5.624 7.319-8.016 10.278-9.147 20.8-18.02 31.074-27.171 6.188-5.512 11.95-11.505 18.148-17.004 12.514-11.1 25.227-21.974 37.797-33.011 9.173-8.055 18.376-16.083 27.332-24.376 10.173-9.42 19.636-19.654 30.225-28.563 12.852-10.815 21.836-24.756 32.5-37.337 4.783-5.642 9.632-11.233 14.262-16.998 10.833-13.49 19.498-28.071 21.65-45.662.548-4.478-3.341-10.48-11.76-12.831-10.257-2.865-20.325-6.406-30.475-9.655-6.457-2.067-12.955-4.015-19.361-6.23-8.405-2.907-16.63-6.378-25.13-8.955-9.102-2.76-18.323-5.879-27.694-6.81-11.58-1.153-17.677 4.75-17.575 16.383.104 11.818 1.738 23.622 2.68 35.435.405 5.099.672 10.21 1.146 15.303.656 7.03 1.035 14.126 2.332 21.045.82 4.374 3.26 8.421 4.689 12.71 5.044 15.148 1.57 27.845-11.426 37.446-9.65 7.128-20.068 9.661-31.666 4.715-9.43-4.022-16.57-9.796-20.201-19.996-2.694-7.564-1.908-14.129-.057-21.789 3.15-13.04 5.487-26.403 2.855-40.189-1.689-8.847-2.677-18.128-1.992-27.062 1.217-15.858.076-32.315 8.62-46.912 2.608-4.456 5.316-8.937 7.206-13.712 4.05-10.233 3.344-20.996 2.434-31.679-.51-5.976-.707-12.03-4.566-17.216-3.994-5.367-10.27-7.12-16.544-4.698-14.817 5.72-29.642 11.427-44.584 16.805-21.158 7.616-42.483 14.77-63.626 22.428-15.51 5.617-30.776 11.905-46.274 17.555-10.634 3.876-21.5 7.109-32.225 10.74-12.117 4.103-24.222 8.243-36.276 12.526-13.707 4.871-27.423 9.735-40.992 14.973-6.168 2.382-11.978 5.684-17.973 8.521-10.796 5.11-22.003 9.501-32.313 15.449-12.832 7.4-24.289 16.533-34.42 27.81-9.358 10.414-11.795 22.217-11.56 34.807.139 7.403 3.747 14.696 5.394 22.127a767 767 0 0 1 6.125 30.664c1.725 9.626 3.088 19.316 4.577 28.983.198 1.286.42 2.631.253 3.899-1.565 11.821-2.393 23.82-5.064 35.392-2.775 12.018-3.952 24.574-10.348 35.67-3.053 5.297-4.892 11.28-7.455 16.873-6.534 14.259-16.843 25.747-28.148 36.192-4.54 4.195-10.776 6.73-16.53 9.397-10.256 4.755-20.443 9.99-31.197 13.25-11.149 3.38-22.887 4.98-34.463 6.724-6.667 1.005-13.582 1.465-20.282.919-13.884-1.133-27.846-2.345-41.493-4.985-9.397-1.819-18.451-5.76-27.424-9.34-17.406-6.946-34.69-14.206-51.943-21.528-12.362-5.246-24.36-11.431-36.938-16.067-15.922-5.87-32.148-11.008-48.466-15.687-14.623-4.192-29.471-7.698-44.364-10.82-11.18-2.344-22.552-3.898-33.903-5.269-18.747-2.263-37.58-3.833-56.314-6.19-15.232-1.917-30.382-4.505-45.552-6.902-10.292-1.627-18.902-7.338-28.077-11.719-9.193-4.39-18.587-8.37-27.964-12.362-12.038-5.125-24.07-10.28-36.248-15.058-13.816-5.421-27.762-10.516-41.705-15.604-7.911-2.887-15.945-5.436-23.897-8.215-6.555-2.291-12.977-5.012-19.625-6.98-10.888-3.221-21.95-5.85-32.867-8.98-11.827-3.392-23.63-6.892-35.335-10.678-10.933-3.537-21.864-7.16-32.545-11.38-13.846-5.473-27.488-11.47-41.135-17.432-15.704-6.86-31.433-13.686-46.931-20.992-10.784-5.084-21.14-11.07-31.793-16.442-11.373-5.734-22.573-12.812-35.163-14.555-11.655-1.613-23.493-1.346-35.462 3.08-11.658 4.31-20.397 12.254-30.31 18.666-8.505 5.501-15.865 12.764-23.791 19.176-13.59 10.993-27.52 21.59-40.735 33.016-8.014 6.928-15.013 15.042-22.352 22.734-5.024 5.264-9.534 11.052-14.818 16.028-17.927 16.88-31.386 37.207-45.125 57.356-10.377 15.218-21.476 29.968-31.306 45.525-6.747 10.677-11.863 22.383-17.723 33.622-1.124 2.154-2.318 4.27-3.653 6.724L173 446.442c4.546-8.834 8.988-17.354 13.328-25.925 10.077-19.902 23.517-37.598 36.29-55.747 9.077-12.898 17.376-26.359 26.782-39.004 6.09-8.186 13.516-15.382 20.4-22.97 10.302-11.355 20.381-22.931 31.088-33.893 6.318-6.47 13.581-12.036 20.564-17.833 12.94-10.743 25.907-21.455 39.009-31.997 12.45-10.019 24.846-20.138 37.771-29.518 4.727-3.43 10.762-5.322 16.456-7.092 7.774-2.418 15.752-5.468 23.717-5.699 13.345-.388 26.934.54 39.38 6.362 14.75 6.9 29.247 14.343 43.94 21.366 16.972 8.113 33.95 16.224 51.09 23.97 17.949 8.112 35.898 16.288 54.219 23.492 13.332 5.242 27.216 9.118 40.95 13.29 12.498 3.797 25.132 7.15 37.694 10.74 10.75 3.071 21.554 5.974 32.196 9.383 7.648 2.451 15.055 5.651 22.594 8.45 10.343 3.84 20.76 7.488 31.052 11.457a1340 1340 0 0 1 33.991 13.628 2486 2486 0 0 1 42.839 18.35c6.996 3.075 13.565 7.296 20.761 9.7 7.691 2.568 15.848 3.874 23.885 5.247 10.965 1.875 22.009 3.292 33.019 4.905.165.024.328.065.493.078 8.373.696 16.76 1.247 25.115 2.117 11.434 1.19 22.882 2.364 34.254 4.023 11.481 1.675 22.905 3.79 34.302 5.983 9.305 1.79 18.66 3.522 27.767 6.085 17.886 5.034 35.858 9.948 53.333 16.201 14.378 5.145 28.04 12.269 42.111 18.301 13.896 5.957 27.903 11.655 41.868 17.449 10.039 4.164 19.924 8.786 30.195 12.268 6.286 2.13 13.131 2.952 19.798 3.543 11.68 1.036 23.477 2.484 35.111 1.807 10.676-.622 21.322-3.345 31.763-5.999 13.644-3.467 26.23-9.586 38.58-16.412 8.345-4.612 13.922-11.653 19.326-18.781 7.992-10.543 13.338-22.702 17.21-35.3 2.684-8.727 4.244-17.82 5.98-26.811 1.572-8.138 3.094-16.324 3.875-24.561.443-4.68-.614-9.506-1.058-14.26-.167-1.788-.515-3.558-.772-5.337-1.175-8.104-2.135-16.247-3.577-24.303-1.583-8.842-3.03-17.78-5.614-26.351-2.354-7.81-4.353-15.447-3.85-23.68.84-13.764 3.223-27.24 11.296-38.62 8.633-12.17 19.486-22.412 32.271-30.286 10.745-6.618 21.436-13.459 32.739-19.002 12.39-6.078 25.39-10.948 38.246-16.034a1041 1041 0 0 1 36.35-13.595c15.934-5.626 32.028-10.797 47.965-16.414 15.814-5.575 31.506-11.497 47.276-17.199 12.728-4.6 25.493-9.1 38.241-13.644 21.674-7.724 43.38-15.358 65.005-23.217 8.842-3.214 17.301-7.638 26.31-10.188 8.515-2.41 17.486-3.057 26.14.681 11.324 4.891 18.22 13.462 21.191 25.255 1.673 6.642 4.101 13.355 4.203 20.066.135 8.797-1.97 17.604-2.606 26.443-.892 12.398-10.406 20.984-13.694 32.216-1.456 4.973-2.118 10.299-2.314 15.495-.359 9.527-.181 19.077-.06 28.615.037 2.942.827 5.87.907 8.816.153 5.662-.231 11.348.101 16.995.707 12-1.39 23.593-4.264 35.145-1.538 6.183 1.138 9.89 7.164 13.475 2.988 1.777 8.405.42 12.015-3.038 3.048-2.92 2.97-8.033 1.383-12.781a160 160 0 0 1-5.717-22.27c-1.685-9.333-2.717-18.794-3.752-28.23-.7-6.396-.345-12.949-1.485-19.247-1.929-10.657-.202-21.051 1.262-31.46.506-3.598 2.02-7.304 3.965-10.402 5.723-9.12 13.34-14.459 24.89-15.812 16.973-1.989 31.928 3.206 47.198 8.788 8.187 2.993 16.76 4.91 25.061 7.61 7.983 2.595 15.802 5.688 23.764 8.349 7.04 2.353 14.159 4.482 21.28 6.585 13.521 3.994 24.485 11.537 27.403 25.788 1.623 7.925.483 16.871-1.292 24.944-3.856 17.532-14.469 31.653-25.507 45.35-5.997 7.442-11.887 14.982-18.158 22.188-10.628 12.214-20.74 25.025-32.464 36.108-23.795 22.492-48.524 43.997-72.867 65.91l-37.228 33.52c-13.36 12.027-26.715 24.06-40.083 36.08-16.36 14.707-32.5 29.67-49.196 43.987-8.223 7.052-17.421 12.982-26.285 19.268-9.768 6.927-19.367 14.157-29.57 20.384-12.237 7.468-24.983 14.113-37.614 20.918-6.09 3.281-12.229 6.638-18.694 9.013-7.802 2.865-15.94 4.848-23.995 6.982-6.944 1.84-14.025 3.166-20.952 5.062-8.592 2.351-17.154 3.87-26.175 4.189-15.784.557-31.504 2.777-47.287 3.627-8.366.451-16.81-.825-25.217-.773-15.275.094-30.549.873-45.823.858-17.177-.016-34.354-.593-51.531-.927-17.108-.333-34.236-.268-51.317-1.127-13.456-.677-26.856-2.483-40.278-3.81-10.15-1.002-20.318-1.87-30.44-3.117-7.954-.98-15.845-2.467-23.77-3.692-11.445-1.768-22.927-3.31-34.329-5.316-8.825-1.553-17.586-3.519-26.31-5.579-9.703-2.291-19.422-4.594-28.965-7.453-9.525-2.854-18.857-6.362-28.247-9.66-12.488-4.387-25.022-8.655-37.397-13.341-9.009-3.411-17.839-7.309-26.664-11.182-12.904-5.663-25.774-11.407-38.581-17.285-15-6.883-29.916-13.945-44.866-20.934-13.895-6.495-27.809-12.948-41.672-19.51-18.454-8.733-36.828-17.637-55.31-26.309-15.294-7.176-30.736-14.034-46.037-21.192-19.305-9.03-38.524-18.242-57.798-27.339-16.845-7.95-33.71-15.858-50.574-23.767-15.438-7.24-30.874-14.487-46.338-21.672-7.266-3.377-14.547-6.728-21.913-9.876-4.216-1.802-8.16-1.708-11.59 2.215-3.3 3.772-15.228 5.708-19.789 3.395-17.851-9.055-35.641-18.23-53.479-27.312-17.28-8.799-34.607-17.504-51.873-26.331-4.105-2.099-7.825-5.153-12.114-6.643-6.398-2.224-13.155-3.409-19.74-5.112-7.113-1.84-14.112-.207-19.782 3.367-19.578 12.344-39.009 24.985-57.829 38.444-11.638 8.324-21.923 18.514-33.072 27.55-17.198 13.936-29.708 31.842-42.095 49.748-7.056 10.2-13.046 21.194-18.87 32.172-8.008 15.092-15.234 30.595-23.101 45.763-13.1 25.257-26.753 50.23-39.556 75.635-6.942 13.774-12.518 28.233-18.88 42.305-4.957 10.961-10.434 21.692-15.213 32.727-5.422 12.521-10.462 25.214-15.42 37.93-6.95 17.827-13.751 35.713-20.46 53.633-3.979 10.63-8.049 21.254-11.37 32.097-4.146 13.541-7.468 27.333-11.336 40.962-1.919 6.759-4.596 13.311-6.336 20.11-2.785 10.883-5.095 21.89-7.572 32.851-1.689 7.475-3.543 14.923-4.92 22.456-1.592 8.702-3.32 17.442-3.955 26.24-1.122 15.516-2.159 31.099-1.907 46.632.201 12.443 2.308 24.861 3.678 37.278.937 8.487 1.897 16.977 3.15 25.42 1.2 8.083 2.547 16.16 4.267 24.146 3.02 14.02 3.997 27.923.228 42.014-3.648 13.641-12.143 23.617-23.095 31.77-1.787 1.33-4.684 1.615-7.065 1.603-4.937-.024-9.883-.462-14.807-.931-6.888-.656-10.419-6.086-14.126-10.8-8.2-10.431-12.463-22.53-13.946-35.678-1.943-17.232-3.768-34.48-6.031-51.67-3.369-25.583-3.463-51.292-2.737-76.97.332-11.744 2.858-23.431 4.456-35.135 1.397-10.232 2.774-20.469 4.382-30.669.891-5.658 2.097-11.277 3.402-16.857 4.134-17.666 8.279-35.33 12.623-52.945 2.703-10.96 5.896-21.8 8.647-32.75 2.587-10.297 4.657-20.726 7.37-30.987 2.536-9.594 5.608-19.047 8.461-28.557 3.147-10.489 5.958-21.095 9.554-31.429 5.608-16.117 11.585-32.112 17.721-48.038 5.93-15.387 11.936-30.76 18.507-45.88 5.714-13.15 12.261-25.938 18.447-38.884.815-1.706 1.667-3.394 2.593-5.275l-18.79-8.865 8.462-18.08 56.892 26.406-8.47 18.09-17.654-8.1c-1.426 2.888-2.859 5.737-4.246 8.609-4.997 10.345-10.256 20.575-14.903 31.075-7.466 16.874-14.909 33.777-21.634 50.953-5.672 14.483-10.34 29.36-15.394 44.084-3.265 9.512-6.779 18.96-9.545 28.62-3.8 13.271-6.95 26.728-10.467 40.082-3.18 12.078-6.647 24.082-9.68 36.195-2.964 11.832-5.471 23.778-8.306 35.643-2.68 11.214-5.897 22.313-8.203 33.6-2.937 14.382-4.957 28.95-7.798 43.354-5.696 28.886-4.326 58.095-3.736 87.19.353 17.393 2.53 34.797 4.748 52.086 1.502 11.707 4.084 23.33 7.028 34.773 1.24 4.821 4.119 9.51 7.265 13.45 2.158 2.704 5.92 3.06 9.127.047 9.75-9.161 12.72-20.305 10.505-33.284-1.787-10.464-3.102-21.008-4.74-31.498-.448-2.867-1.577-5.637-1.928-8.508-1.756-14.367-3.682-28.725-4.918-43.14-1.117-13.013-1.738-26.09-1.949-39.15-.104-6.5 1.314-13.013 1.821-19.538.247-3.174-.33-6.42.01-9.576 1.24-11.51 2.263-23.073 4.24-34.464 1.427-8.225 4.394-16.17 6.394-24.31 3.253-13.234 6.084-26.573 9.486-39.767 1.433-5.557 4.123-10.778 5.789-16.288 3.503-11.585 6.541-23.311 10.091-34.88 2.415-7.87 5.38-15.571 8.085-23.352.53-1.523 1-3.066 1.67-4.978"/></svg>