<svg xmlns="http://www.w3.org/2000/svg" viewBox="0 0 2003 1096" xml:space="preserve"><path fill="#fff" d="M127.993 682.878a309 309 0 0 1 4.052-11.65c5.345-14.501 10.428-29.108 16.144-43.462 5.5-13.81 11.705-27.337 17.519-41.023 6.175-14.538 11.708-29.378 18.505-43.617 9.8-20.529 20.468-40.644 30.804-60.916 5.965-11.7 12.08-23.324 17.995-35.048 7.577-15.018 14.781-30.23 22.59-45.124 7.864-14.996 15.79-30 24.596-44.448 6.891-11.306 15.49-21.556 22.742-32.66 7.557-11.57 18.948-19.19 28.225-28.956 9.505-10.006 20.074-18.62 31.528-26.286 11.303-7.566 22.254-15.656 33.513-23.29 8.804-5.97 17.613-11.994 26.831-17.277 14.455-8.285 30.073-9.449 45.772-4.492 8.604 2.717 16.724 7.002 24.996 10.726q12.6 5.673 25.065 11.645c12.074 5.783 24.037 11.8 36.142 17.518 11.973 5.656 24.13 10.924 36.082 16.62 11.013 5.249 21.797 10.977 32.8 16.246 13.973 6.692 28.125 13.009 42.088 19.718 13.001 6.248 25.8 12.919 38.797 19.173 8.618 4.147 17.532 7.681 26.13 11.866 10.274 5 20.237 10.645 30.559 15.538 6.165 2.923 12.805 4.83 19.15 7.394 7.456 3.012 14.839 6.21 22.228 9.385 9.54 4.1 19.081 8.196 28.573 12.404 15.74 6.978 31.471 13.98 47.15 21.093 11.629 5.276 23.093 10.92 34.822 15.956 1.984.852 5.525.264 7.344-1.048 10.425-7.517 20.251-2.84 29.712 1.46 23.43 10.65 46.652 21.757 69.877 32.849 11.572 5.526 22.813 11.764 34.5 17.022 7.231 3.253 15.035 5.222 22.552 7.852 6.776 2.371 13.47 4.984 20.275 7.264 10.97 3.677 22.158 6.755 32.964 10.85 11.685 4.426 23.824 6.583 35.977 8.887 12.199 2.313 24.347 4.948 36.604 6.888 11.1 1.756 22.336 2.629 33.478 4.142 10.78 1.464 21.49 3.44 32.278 4.83 7.804 1.004 15.674 1.781 23.533 2.007 12.006.345 24.09-.65 36.033.284 49.663 3.883 99.38 1.131 149.065 1.581 14.846.135 29.715-2.398 44.577-3.671 1.822-.156 3.688-.28 5.494-.072 7.906.912 14.835-2.925 22.228-4.474 6.263-1.312 12.374-3.53 18.684-4.405 10.727-1.486 20.195-6.027 29.639-10.8 10.695-5.407 21.59-10.475 31.966-16.44 7.446-4.28 14.145-9.849 21.246-14.742 11.598-7.993 23.424-15.669 34.82-23.939 6.65-4.827 12.781-10.406 18.92-15.899 12.29-10.995 24.418-22.17 36.624-33.258 9.596-8.718 19.197-17.429 28.814-26.123a22609 22609 0 0 1 30.868-27.837c13.345-12.02 26.675-24.06 40.056-36.041 12.017-10.76 24.12-21.426 36.136-32.188 7.407-6.634 15.15-12.964 21.967-20.166 8.18-8.643 15.571-18.038 23.237-27.164 6.284-7.48 12.65-14.904 18.659-22.603 10.584-13.563 20.026-27.786 22.43-45.39 1.046-7.665-4.68-13.144-11.466-15.54-6.893-2.433-13.883-4.604-20.864-6.78-7.94-2.476-15.94-4.76-23.872-7.263-4.837-1.526-9.557-3.423-14.395-4.95-11.879-3.749-23.935-6.99-35.636-11.224-5.71-2.065-11.065-2.396-16.617-.783-7.011 2.037-11.307 7.432-10.986 14.994.586 13.787 1.628 27.564 2.869 41.31 1.041 11.54 2.252 23.092 4.148 34.513.928 5.587 3.807 10.822 5.41 16.33 2.628 9.034-2.19 21.095-9.424 27.417-4.792 4.188-9.782 7.072-15.882 8.84-11.103 3.217-19.913-.381-28.307-7.412-8.35-6.994-11.673-16.025-11.765-26.403-.029-3.247 1.856-6.467 2.443-9.773 1.584-8.93 4.183-17.912 4.09-26.85-.13-12.694-2.56-25.35-3.492-38.06-.393-5.363.32-10.845.918-16.23.59-5.316 1.802-10.56 2.505-15.866 1.272-9.594 6.589-17.287 11.048-25.517 2.581-4.762 3.663-10.638 4.2-16.131.692-7.1.815-14.393-.008-21.464-.923-7.926-2.524-16.304-10.904-20.121-3.149-1.434-7.592-2.102-10.76-1.051-12.114 4.02-23.96 8.852-35.884 13.44-6.712 2.584-13.318 5.451-20.081 7.888-9.729 3.507-19.61 6.593-29.329 10.125-11.044 4.014-21.936 8.446-32.98 12.459-7.505 2.726-15.184 4.968-22.736 7.57-6.628 2.284-13.194 4.75-19.774 7.168-5.195 1.91-10.33 3.987-15.563 5.783-11.871 4.074-23.844 7.857-35.664 12.072-9.335 3.329-18.433 7.319-27.764 10.662-9.278 3.324-18.789 6-28.052 9.36-5.511 1.998-10.787 4.674-16.088 7.213-10.08 4.827-20.486 9.127-30.059 14.82-15.7 9.336-31.113 19.527-40.96 35.46-3.464 5.606-4.996 12.738-6.119 19.391-2.21 13.097 3.288 25.2 5.934 37.702 2.847 13.452 4.706 27.115 6.895 40.702.804 4.992 1.977 10.05 1.82 15.042-.258 8.165-1.411 16.305-2.306 24.442-.318 2.9-.994 5.759-1.488 8.64-.733 4.273-1.216 8.605-2.213 12.816-3.85 16.26-9.725 31.714-17.63 46.508-4.96 9.284-11.357 17.199-18.292 24.983-11.602 13.025-27.115 19.105-42.652 25.094a334 334 0 0 1-32.832 10.715c-5.302 1.434-11.124 1.318-16.704 1.272-14.439-.121-28.975.328-43.277-1.234-10.346-1.13-20.772-3.154-30.541-8.026-9.547-4.76-20.03-7.604-29.939-11.684-12.085-4.976-23.925-10.55-36.009-15.529-20.695-8.527-41.34-17.221-62.326-24.977-9.598-3.548-19.955-5.042-29.973-7.45-11.85-2.85-23.642-5.991-35.579-8.421-9.7-1.975-19.567-3.135-29.374-4.57-11.428-1.67-22.852-3.39-34.313-4.813-7.805-.969-15.688-1.307-23.503-2.215-9.018-1.048-17.966-2.878-27.004-3.507-9.012-.627-17.816-1.8-26.166-5.248-9.41-3.885-18.686-8.09-28.043-12.104-6.446-2.764-12.945-5.404-19.393-8.162-10.937-4.68-21.837-9.444-32.783-14.1a381 381 0 0 0-14.505-5.825c-11.376-4.297-22.759-8.576-34.19-12.723-7.513-2.727-15.116-5.206-22.677-7.804-9.675-3.324-19.276-6.885-29.045-9.908-7.204-2.23-14.659-3.635-21.94-5.633-12.373-3.395-24.76-6.761-37.02-10.536-9.141-2.816-18.146-6.106-27.107-9.466-7.454-2.796-14.757-5.994-22.122-9.025-11.368-4.679-22.814-9.178-34.064-14.124-6.58-2.893-12.75-6.71-19.274-9.75-11.141-5.19-22.513-9.891-33.602-15.188-8.828-4.216-17.47-8.847-26.028-13.593-11.218-6.222-22.863-10.093-35.832-11.661-14.344-1.734-26.584 3.171-38.571 8.88-7.377 3.512-13.602 9.56-20.106 14.765-14.673 11.746-29.194 23.68-43.785 35.529-8.6 6.984-17.685 13.457-25.69 21.067-7.595 7.221-13.991 15.693-21.063 23.48-3.868 4.259-8.14 8.149-12.058 12.364-7.337 7.894-14.827 15.674-21.712 23.951-4.229 5.083-7.427 11.02-11.136 16.54-3.7 5.506-7.44 10.986-11.198 16.452-7.256 10.554-14.553 21.079-21.803 31.637-4.6 6.7-9.54 13.21-13.606 20.223-4.406 7.6-7.949 15.7-11.927 23.55-.866 1.708-1.983 3.288-3.03 5l-18.82-7.75c4.26-8.133 8.589-15.782 12.348-23.702 9.679-20.386 24.03-37.722 36.425-56.33 8.74-13.121 17.604-26.181 26.967-38.86 5.021-6.798 11.184-12.758 16.885-19.048 7.061-7.79 14.076-15.626 21.296-23.267 8.947-9.468 17.116-19.6 27.924-27.357 10.116-7.26 19.065-16.127 28.728-24.042 9.18-7.52 18.62-14.718 27.94-22.065 8.107-6.39 16.017-13.053 24.394-19.066 3.658-2.624 8.292-3.867 12.435-5.839 14.981-7.13 30.894-8.417 47.12-7.34 2.812.187 5.506 1.752 8.314 2.437 14.944 3.646 28.247 10.914 41.636 18.183 11.345 6.16 23.092 11.61 34.833 17 19.337 8.878 38.811 17.457 58.23 26.155 9.504 4.256 18.848 8.933 28.568 12.619 9.732 3.69 19.814 6.481 29.797 9.487 10.073 3.032 20.166 6.017 30.335 8.699 8.897 2.346 17.969 4.035 26.856 6.415 5.779 1.547 11.367 3.808 17.038 5.757 7.904 2.716 15.837 5.354 23.7 8.185 6.88 2.477 13.67 5.207 20.522 7.768 10.958 4.098 22.02 7.935 32.879 12.277 11.738 4.693 23.302 9.822 34.927 14.794 9.412 4.025 18.844 8.01 28.188 12.187 5.268 2.355 10.159 5.778 15.609 7.451 8.838 2.713 17.93 4.737 27.036 6.394 9.49 1.727 19.12 2.681 28.691 3.95.986.131 1.998.048 2.988.156 14.682 1.61 29.36 3.248 44.044 4.85 6.864.748 13.79 1.099 20.59 2.222 9.65 1.593 19.214 3.713 28.808 5.645 5.227 1.053 10.46 2.093 15.653 3.298 5.992 1.391 11.988 2.801 17.904 4.48 13.21 3.746 26.497 7.297 39.516 11.636 9.728 3.243 19.105 7.55 28.605 11.465 8.342 3.437 16.693 6.864 24.94 10.52 11.272 4.994 22.33 10.489 33.707 15.224 8.794 3.66 17.912 6.557 26.935 9.65 6.224 2.134 12.416 4.585 18.826 5.904 12.8 2.633 25.81 3.086 38.902 3.3 13.579.224 26.151-2.953 38.968-6.801 13.693-4.11 26.61-9.767 38.728-16.988 5.631-3.355 10.257-8.868 14.415-14.132 10.65-13.483 17.623-28.807 21.7-45.56 2.9-11.908 6.315-23.607 6.032-36.099-.143-6.339 2-12.755 1.658-19.057-.477-8.768-2.116-17.496-3.63-26.176-1.48-8.486-3.286-16.922-5.212-25.32-1.63-7.102-4.204-14.032-5.285-21.2-.793-5.262-.191-10.825.41-16.185.85-7.578 2.31-14.926 5.069-22.275 3.073-8.188 8.002-14.678 13.626-20.75 14.225-15.356 31.003-27.237 50.206-35.767 12.287-5.458 24.158-11.864 36.505-17.172 7.536-3.24 15.653-5.112 23.451-7.769 6.448-2.196 12.797-4.68 19.216-6.967 5.739-2.045 11.544-3.907 17.264-6.004 12.019-4.406 23.957-9.035 36.013-13.332 6.905-2.461 14.024-4.314 20.96-6.692 6.748-2.314 13.36-5.015 20.075-7.427 10.179-3.657 20.444-7.077 30.58-10.846 9.56-3.556 18.958-7.547 28.508-11.13 6.35-2.38 12.906-4.215 19.26-6.588 10.156-3.793 20.193-7.904 30.334-11.74 8.28-3.13 16.455-7.625 25.015-8.63 8.593-1.01 17.694-2.743 26.574 2.276 8.857 5.006 14.726 12.002 18.116 20.953 2.203 5.817 1.823 12.573 3.734 18.546 2.924 9.142-.718 17.722-1.138 26.545-.525 11-5.541 20.437-11.132 29.743-2.297 3.824-2.9 8.766-3.818 13.292-.973 4.795-1.776 9.684-1.985 14.561-.324 7.534-1.474 15.43.25 22.562 2.567 10.629.68 21.156 1.739 31.643.907 8.998-2.231 17.242-4.2 25.655-1.906 8.148-1.565 11.771 5.275 16.647 2.172 1.548 6.197 2.195 8.629 1.277 3.653-1.378 7.654-2.944 8.015-8.694.42-6.677-3.682-11.668-4.688-17.656-1.872-11.146-4.49-22.109-4.763-33.586-.281-11.779-2.43-23.507-3.58-35.275-.25-2.577.16-5.244.47-7.844.31-2.602 1.355-5.192 1.246-7.753-.371-8.805 3.735-15.58 8.72-22.34 5.793-7.856 13.944-9.505 22.728-10.126 1.99-.141 4.023.185 5.994-.055 10.681-1.3 20.33 2.537 30.13 5.79 8.639 2.866 17.375 5.44 26.02 8.29 8.095 2.67 16.088 5.653 24.195 8.286 10.293 3.343 20.706 6.32 30.974 9.735 11.256 3.743 19.818 11.144 24.219 22.002 1.862 4.595.846 10.542.443 15.82-.471 6.167-.618 12.71-2.863 18.305-3.18 7.925-7.533 15.572-12.496 22.547-8.648 12.153-18.021 23.8-27.323 35.473-7.81 9.8-15.73 19.53-24.036 28.905-4.479 5.055-9.842 9.332-14.859 13.902-10.184 9.277-20.346 18.58-30.624 27.754-17.21 15.362-34.572 30.556-51.741 45.964-13.633 12.236-26.992 24.777-40.616 37.022a9137 9137 0 0 1-61.283 54.618c-7.995 7.057-16.06 14.089-24.59 20.469-8.077 6.042-16.871 11.117-25.224 16.803-6.742 4.59-13.289 9.467-19.933 14.202-13.877 9.888-29.876 15.864-44.558 24.21-9.978 5.673-20.853 8.05-31.495 11.121-13.417 3.871-27.277 6.21-40.948 9.201-.32.07-.663.033-.995.049-14.705.667-29.404 1.672-44.115 1.933-31.604.56-63.214.98-94.822.996-27.94.015-55.885-.44-83.821-.999-12.056-.24-24.136-.86-36.13-2.06-9.369-.937-18.609-3.121-27.932-4.587-5.835-.917-11.716-1.549-17.58-2.276-11.398-1.415-22.821-2.644-34.19-4.258-9.56-1.357-19.102-2.924-28.568-4.82-8.437-1.688-16.844-3.656-25.111-6.033-13.03-3.746-26.01-7.701-38.858-12.02-9.294-3.123-18.28-7.152-27.517-10.455-7.618-2.724-15.562-4.578-23.069-7.556-6.852-2.72-13.277-6.5-19.95-9.69-13.504-6.458-27.08-12.764-40.563-19.267-8.529-4.114-16.903-8.547-25.416-12.695-8.435-4.11-16.835-8.343-25.504-11.902-3.347-1.375-7.054-.396-10.056 2.542-6.434 6.296-8.392 6.382-16.404 2.489-20.63-10.025-41.09-20.437-62.017-29.8-18.27-8.175-37.134-15.014-55.642-22.67-11.278-4.665-22.457-9.588-33.54-14.7-19.41-8.95-38.715-18.13-58.059-27.223-13.436-6.316-26.93-12.515-40.281-19.005-16.447-7.996-32.69-16.416-49.176-24.327-16.204-7.775-32.67-15.001-48.894-22.733-13.492-6.43-26.763-13.32-40.201-19.864-12.566-6.12-25.33-11.84-37.8-18.143-7.73-3.908-15.378-7.693-23.98-9.417-10.865-2.178-20.978-1.495-30.51 4.958-15.682 10.618-31.717 20.715-47.408 31.32-16.779 11.341-31.623 24.973-46.357 38.852-14.182 13.36-25.323 28.923-35.668 45.076-9.551 14.911-18.333 30.373-26.565 46.058-10.483 19.976-19.847 40.537-30.122 60.626-7.641 14.941-16.395 29.32-23.857 44.344-6.808 13.708-12.512 27.962-18.764 41.947-4.76 10.648-9.765 21.188-14.388 31.894-5.062 11.723-9.832 23.573-14.686 35.386-3.77 9.177-7.668 18.31-11.158 27.594-4.103 10.918-7.76 22.003-11.75 32.964-1.602 4.405-3.858 8.582-5.314 13.028-2.104 6.42-3.694 13.006-5.608 19.491-1.705 5.778-3.588 11.503-5.326 17.272-2.944 9.77-5.939 19.526-8.72 29.343-2.88 10.168-5.725 20.354-8.237 30.618-3.366 13.751-6.754 27.516-9.431 41.41-1.487 7.718-1.808 15.698-2.197 23.582-.841 17.029-1.993 34.079-1.832 51.109.1 10.58 2.374 21.14 3.67 31.71 1.038 8.475 1.873 16.982 3.177 25.415.89 5.75 2.517 11.38 3.65 17.097.762 3.843 1.604 7.727 1.767 11.62.437 10.465 1.804 20.911.025 31.427-1.489 8.798-5.323 16.691-10.723 23.262-5.646 6.871-11.13 15.34-22.32 14.17-5.363-.562-11.714.844-15.905-1.59-5.594-3.247-10.152-8.915-14.017-14.352-5.85-8.227-7.829-18.09-10.255-27.827-1.688-6.776-2.44-13.39-2.868-20.284-.876-14.051-2.967-28.03-3.758-42.083-1.088-19.358-1.824-38.756-1.96-58.142-.086-12.24.595-24.56 2.032-36.714 1.534-12.966 4.37-25.777 6.626-38.657 1.411-8.056 2.552-16.17 4.278-24.158 1.577-7.303 3.86-14.45 5.673-21.706 1.225-4.897 2.105-9.88 3.268-14.794 1.803-7.622 3.735-15.214 5.573-22.828 1.174-4.865 2.168-9.776 3.438-14.616 1.81-6.906 3.877-13.745 5.69-20.65 1.852-7.05 3.472-14.16 5.306-21.215.943-3.627 2.104-7.199 3.213-10.781q6.145-19.852 12.324-39.696c3.853-12.369 7.48-24.816 11.68-37.066 2.662-7.767 6.166-15.248 9.332-22.84 5.802-13.915 11.42-27.911 17.522-41.694 4.595-10.38 9.77-20.507 14.792-30.695 3.005-6.098 6.21-12.097 9.58-18.632l-17.86-8.386 8.369-18.111 52.89 24.389-8.355 18.083-16.37-7.312c-7.868 15.943-15.668 31.487-23.21 47.155-3.23 6.713-6.038 13.638-8.834 20.55-6.721 16.608-13.542 33.18-19.875 49.937-3.041 8.047-4.848 16.551-7.621 24.71-2.568 7.552-5.84 14.864-8.477 22.395-1.208 3.449-1.563 7.189-2.442 10.763-.76 3.094-1.728 6.136-2.58 9.208-3.127 11.273-6.282 22.54-9.354 33.828-2.695 9.904-5.467 19.793-7.88 29.767-1.971 8.148-3.378 16.43-5.197 24.617-1.288 5.801-2.902 11.53-4.269 17.314-1.63 6.894-3.14 13.816-4.72 20.723-2.076 9.085-4.372 18.127-6.186 27.265-1.263 6.359-1.874 12.848-2.78 19.278-1.018 7.232-2.117 14.454-3.037 21.699-.763 6.001-1.728 12.019-1.877 18.047-.298 12.006-.227 24.027-.063 36.038.145 10.61.47 21.224 1.002 31.822.453 9.006.78 18.072 2.127 26.966 1.762 11.63 4.952 23.049 6.603 34.69 1.03 7.268 3.208 13.773 7.2 19.786 4.317 6.506 8.8 6.86 14.508 1.297 4.828-4.706 6.434-10.845 8.905-16.89 4.076-9.975-.53-19.09-.794-28.487-.3-10.657-3.95-21.205-5.976-31.833a226 226 0 0 1-2.505-16.369c-2.507-21.674-3.835-43.413-3.041-65.243.24-6.598.389-13.212 1.006-19.78.745-7.924 1.899-15.811 2.959-23.704.951-7.085 1.783-14.198 3.093-21.219 1.444-7.74 3.262-15.415 5.128-23.068 1.436-5.888 3.212-11.693 4.81-17.543 1.98-7.255 3.877-14.533 5.924-21.77.863-3.052 2.107-5.995 3.022-9.034 4.252-14.13 8.335-28.31 12.715-42.4 2.163-6.955 4.84-13.75 7.285-21.029"/></svg>