<svg xmlns="http://www.w3.org/2000/svg" viewBox="0 0 2002 1088" xml:space="preserve"><path fill="#fff" d="M102.981 677.893c-2.033 8.042-3.935 15.683-6.002 23.279-1.931 7.096-4.115 14.123-6.038 21.22-1.132 4.18-1.876 8.463-2.965 12.654-1.85 7.123-3.922 14.19-5.736 21.322-1.226 4.822-2.078 9.737-3.26 14.571-1.826 7.462-3.858 14.873-5.675 22.337-1.215 4.99-2.15 10.049-3.317 15.052-1.453 6.226-3.362 12.367-4.454 18.653-1.777 10.233-3.002 20.562-4.554 30.836-1.058 7.01-2.358 13.982-3.394 20.995-.67 4.529-1.06 9.1-1.573 13.652-1.724 15.317-1.04 30.578.831 45.842.308 2.513-.978 5.205-.765 7.75.75 8.939 1.84 17.848 2.775 26.77a26 26 0 0 1 .119 3.486c-.401 12.469 1.43 24.696 3.974 36.844 1.652 7.885 2.68 15.99 5.275 23.557 1.704 4.969 5.364 9.432 8.803 13.578 1.966 2.37 4.736 2.316 7.688-.234 6.093-5.26 9.01-11.695 11.72-19.264 3.78-10.562-.737-20.108-.833-30.07-.088-9.135-3.864-18.177-5.286-27.373-1.545-9.995-1.596-20.244-3.468-30.162-3.181-16.852-2.84-33.799-2.76-50.76.052-10.595.33-21.205 1.041-31.773.366-5.435 1.963-10.782 2.896-16.187 1.377-7.988 2.28-16.079 4.075-23.969 2.388-10.488 5.547-20.8 8.17-31.238 1.762-7.007 3.018-14.141 4.783-21.147 1.483-5.882 3.323-11.676 5.098-17.48 2.893-9.457 5.75-18.926 8.83-28.322 3.465-10.576 7.14-21.083 10.76-31.607 2.995-8.706 5.86-17.462 9.115-26.07 3.444-9.111 7.266-18.08 10.95-27.098 6.023-14.74 11.936-29.526 18.145-44.187 5.036-11.892 10.524-23.591 15.653-35.444 3.931-9.087 7.18-18.493 11.507-27.38 7.428-15.257 15.444-30.228 23.244-45.303 7.869-15.206 15.873-30.343 23.637-45.603 6.798-13.362 13.081-26.99 20.075-40.247 7.354-13.94 14.807-27.874 23.116-41.252 6.204-9.988 13.463-19.398 20.958-28.482 5.708-6.918 12.47-12.977 18.864-19.316 7.63-7.562 14.932-15.539 23.173-22.376 9.463-7.85 19.733-14.742 29.775-21.877 9.125-6.483 18.276-12.95 27.677-19.02 8.134-5.253 16.26-10.785 25.063-14.67 12.55-5.54 25.958-6.225 39.133-1.84 8.443 2.809 16.697 6.256 24.854 9.832 9.05 3.968 17.932 8.33 26.816 12.666 8.766 4.28 17.38 8.876 26.177 13.09 8.624 4.13 17.445 7.846 26.084 11.943 6.659 3.158 13.113 6.746 19.76 9.928 12.047 5.766 24.201 11.306 36.253 17.063 11.567 5.524 23.043 11.238 34.59 16.806 14.682 7.079 29.41 14.06 44.088 21.149 13.062 6.308 25.999 12.881 39.145 19.008 11.247 5.242 22.703 10.04 34.084 14.993 7.47 3.251 14.971 6.432 22.459 9.644 8.027 3.443 16.026 6.95 24.09 10.307 5.904 2.459 11.934 4.617 17.832 7.09 8.502 3.564 17.033 7.083 25.374 11 14.303 6.715 28.439 13.787 42.734 20.52 1.547.728 4.074.916 5.486.146 11.18-6.1 21.674-5.108 32.788.882 12.624 6.804 25.928 12.345 38.92 18.47 12.104 5.707 24.211 11.409 36.27 17.21 11.234 5.403 22.233 11.334 33.666 16.266 7.417 3.2 15.477 4.88 23.157 7.507 7.241 2.476 14.292 5.516 21.554 7.92 10.654 3.527 21.37 6.893 32.157 9.985 11.096 3.18 22.225 6.344 33.499 8.78 10.438 2.257 21.073 3.623 31.643 5.234 13.47 2.053 26.95 4.047 40.45 5.887 6.81.928 13.685 1.354 20.508 2.19 16.027 1.962 32.048 3.626 48.255 3.056 6.385-.225 12.803.792 19.211.88 30.26.414 60.52.777 90.78 1.006 18.832.142 37.683.519 56.492-.15 16.217-.576 32.399-2.355 48.572-3.859 7.243-.673 14.494-1.644 21.621-3.08 7.026-1.416 13.8-4.348 20.861-5.27 14.245-1.863 26.223-9.414 38.872-14.98 11.211-4.933 21.46-12.186 31.809-18.916 13.788-8.968 27.435-18.177 40.805-27.754 8.563-6.134 16.696-12.91 24.691-19.782 8.168-7.02 15.965-14.473 23.863-21.802 6.844-6.351 13.452-12.962 20.432-19.157 10.38-9.211 21.105-18.033 31.482-27.248 12.61-11.199 24.956-22.693 37.513-33.95 15.216-13.64 30.555-27.143 45.798-40.751 7.035-6.28 13.764-12.92 20.99-18.967 20.002-16.74 35.309-37.66 51.46-57.773 8.474-10.553 16.098-21.906 23.023-33.542 4.005-6.729 5.697-14.796 5.169-22.922-.278-4.267-6.82-10.11-11.65-11.171-4.182-.92-8.284-2.24-12.38-3.516-13.223-4.119-26.453-8.22-39.626-12.498-4.85-1.576-9.478-3.839-14.33-5.408-9.22-2.983-18.48-5.868-27.823-8.433-4.152-1.14-8.579-2.095-12.818-1.882-4.708.236-9.895 1.206-12.201 6.275-1.488 3.27-2.886 6.901-3.008 10.416-.596 17.29 1.293 34.436 3.805 51.524 1.137 7.732 1.633 15.58 3.161 23.227 1.176 5.885 3.629 11.504 5.303 17.302 2.58 8.937-2.324 20.049-9.118 26.664-5.85 5.696-12.856 8.125-20.006 9.907-4.19 1.044-9.355-.47-13.746-1.879-8.918-2.86-15.141-9.372-18.829-17.686-2.932-6.61-4.9-13.154-2.1-21.291 3.374-9.8 4.99-20.627 5.077-31.028.105-12.679-2.31-25.366-3.331-38.075-.296-3.678.332-7.454.75-11.16.897-7.929 1.324-15.982 3.114-23.714 1.34-5.787 3.709-11.704 7.07-16.56 4.02-5.807 6.977-11.914 7.396-18.663.652-10.508 2.654-21.083-1.05-31.63-1.956-5.573-3.454-11.203-9.492-13.323-3.296-1.157-7.539-2.205-10.57-1.117-19.687 7.067-39.101 14.887-58.721 22.146-11.195 4.141-22.688 7.478-33.903 11.57-8.994 3.28-17.679 7.408-26.674 10.684-7.606 2.77-15.518 4.692-23.189 7.302-6.332 2.154-12.494 4.803-18.758 7.161-5.226 1.968-10.463 3.915-15.744 5.726-10.993 3.77-22.04 7.383-33.027 11.17-13.291 4.582-26.603 9.117-39.793 13.976-9.11 3.357-18.145 6.975-27.006 10.94-9.404 4.21-18.343 9.506-27.876 13.362-15.69 6.348-28.888 16.336-40.848 27.785-6.303 6.033-11.852 12.986-14.404 22.326-2.36 8.638-1.849 17.08-1.285 25.405.52 7.67 4.34 15.052 5.78 22.735 2.655 14.155 4.331 28.495 6.985 42.65 2.082 11.1 1.145 22.103-.275 33.024-1.196 9.203-3.672 18.246-5.736 27.325-1.567 6.893-2.477 14.124-5.269 20.51-5.425 12.407-10.643 25.263-18.387 36.207-9.326 13.178-21.08 24.622-36.92 30.647-10.258 3.9-20.24 8.531-30.533 12.323-4.955 1.826-10.397 2.279-15.528 3.686-11.106 3.048-22.554 3.369-33.883 3.741a138.8 138.8 0 0 1-28.48-2.019c-10.666-1.881-21.398-3.516-31.54-8.323-14.283-6.771-29.265-12.054-43.845-18.219-19.389-8.197-38.57-16.895-58.054-24.856-10.53-4.303-21.373-7.974-32.313-11.096-10.479-2.99-21.274-4.862-31.913-7.298-8.608-1.972-17.138-4.329-25.8-6.012-10.01-1.945-20.118-3.4-30.2-4.959-11.079-1.713-22.154-3.48-33.272-4.89-7.798-.99-15.684-1.27-23.5-2.142-9.652-1.076-19.285-2.353-28.903-3.704-6.748-.947-13.538-1.815-20.165-3.343-8.893-2.052-17.226-5.45-25.369-9.88-10.146-5.518-21.16-9.442-31.787-14.08-10.063-4.392-20.027-9.025-30.193-13.163-8.71-3.546-17.663-6.495-26.476-9.795-6.72-2.516-13.33-5.338-20.096-7.722-10.108-3.563-20.317-6.84-30.47-10.28-6.789-2.3-13.47-4.969-20.352-6.937-9.232-2.642-18.616-4.753-27.928-7.118-7.753-1.969-15.536-3.836-23.23-6.018-5.049-1.431-9.978-3.299-14.932-5.05-7.338-2.594-14.732-5.057-21.954-7.946-8.452-3.38-16.727-7.2-25.109-10.756-9.663-4.1-19.397-8.035-29.029-12.207-6.882-2.982-13.68-6.166-20.456-9.385-12.236-5.814-24.49-11.599-36.622-17.625-11.145-5.537-21.92-11.877-33.286-16.893-6.779-2.992-14.362-4.197-21.621-6.057-8.657-2.219-17.388-1.18-25.697 1.152-10.958 3.075-20.798 8.605-29.704 15.936-18.704 15.398-37.436 30.783-56.641 45.542-14.473 11.123-27.508 23.627-39.819 37.003-9.055 9.838-18.665 19.205-27.208 29.465-7.347 8.823-13.547 18.603-20.23 27.977-6.145 8.62-12.338 17.209-18.367 25.91-8.378 12.09-17.213 23.917-24.755 36.513-7.345 12.267-13.307 25.36-19.917 38.168l-18.617-9.043c10.55-21.984 21.86-43.23 36.041-62.967 14.25-19.831 27.334-40.502 41.659-60.275 6.26-8.642 14.36-15.947 21.585-23.895 8.126-8.938 15.848-18.28 24.41-26.777 8.62-8.552 17.94-16.414 27.167-24.33 8.383-7.191 16.975-14.146 25.617-21.028 10.4-8.283 20.928-16.408 31.443-24.547 7.03-5.44 13.498-12.111 21.348-15.874 12.806-6.137 26.113-10.86 41.057-10.948 19.824-.118 37.044 6.397 54.088 15.437 16.927 8.978 34.395 16.951 51.74 25.124 16.098 7.586 32.264 15.043 48.557 22.2 12.819 5.633 25.752 11.056 38.865 15.954 11.305 4.222 22.843 7.895 34.45 11.208 10.157 2.9 20.613 4.738 30.826 7.458 8.525 2.27 16.919 5.054 25.322 7.764 12.365 3.987 24.725 7.998 37.012 12.22 6.494 2.232 12.83 4.924 19.23 7.426 8.927 3.49 17.885 6.902 26.761 10.514 13.604 5.535 27.255 10.976 40.692 16.896 12.931 5.696 25.386 12.535 38.502 17.732 7.484 2.965 15.825 3.923 23.863 5.298 10.98 1.878 22.018 3.467 33.072 4.845 8.168 1.018 16.415 1.38 24.603 2.25 11.428 1.213 22.872 2.37 34.24 4.028 11.483 1.676 22.97 3.534 34.295 6.039 14.255 3.153 28.418 6.784 42.488 10.686 14.986 4.157 30.01 8.328 44.653 13.52 10.882 3.86 21.149 9.437 31.752 14.107 12.615 5.556 25.237 11.104 37.965 16.391 13.183 5.477 26.387 10.943 39.806 15.79 5.477 1.978 11.506 2.87 17.354 3.287 14.184 1.01 28.414 2.019 42.614 1.874 6.708-.068 13.495-2.43 20.058-4.386a421 421 0 0 0 27.947-9.393c16.27-6.124 29.904-16.108 39.022-30.962 8.99-14.646 15.425-30.486 18.593-47.608 1.671-9.038 4.384-17.825 4.003-27.209-.142-3.505 1.855-7.091 1.742-10.605-.304-9.553-.453-19.22-2.077-28.596-2.053-11.847-5.55-23.44-8.339-35.163-3.103-13.047-6.018-25.812-2.929-39.686 1.913-8.587 3.754-17.198 8.245-24.396 4.63-7.421 10.866-14.241 17.628-19.839 10.42-8.625 21.388-16.842 33.05-23.643 12.091-7.052 25.072-12.734 38.055-18.063 15.281-6.273 30.946-11.625 46.511-17.19 18.124-6.48 36.326-12.743 54.485-19.127 17.043-5.992 34.105-11.933 51.101-18.055 15.444-5.562 30.79-11.4 46.218-17.004 17.622-6.401 35.329-12.568 52.917-19.058 8.826-3.256 17.444-7.071 26.205-10.508 10.58-4.15 28.933.772 36.932 8.95 8.448 8.636 10.215 19.423 13.008 30.517 2.627 10.44-.427 20.002-.877 29.831-.39 8.51-3.338 17.07-8.914 24.543-3.974 5.326-6.78 11.607-6.816 18.966-.05 10.544-1.684 21.083-1.697 31.625-.012 10.041 1.235 20.08 1.842 30.126.722 11.95-.8 23.608-4.403 35.047-1.774 5.632 1.788 11.71 8.092 14.687 3.393 1.602 10.816-1.015 12.495-5.515 1.26-3.379 1.667-8.027.338-11.233-3.184-7.676-5.526-15.273-6.094-23.66-.636-9.403-2.527-18.715-3.655-28.093-.395-3.286.038-6.665-.24-9.973-.41-4.906-1.23-9.778-1.659-14.683-.29-3.302-.67-6.706-.191-9.943 1.021-6.895 1.462-14.198 4.188-20.439 3.578-8.191 8.137-15.619 18.618-18.419 10.084-2.694 19.865-1.366 29.7-1.286 5.594.046 11.177 3.132 16.742 4.92 11.13 3.576 22.272 7.113 33.354 10.83 10.354 3.473 20.606 7.247 30.96 10.72 7.616 2.555 15.535 4.336 22.913 7.431 4.396 1.845 8.565 5.04 11.849 8.552 6.185 6.614 8.404 15.08 7.925 23.977-.616 11.47-2.805 22.513-8.767 32.741-8.872 15.221-19.28 29.157-31.122 42.202-8.619 9.494-15.785 20.31-24.44 29.768-8.575 9.368-18.086 17.898-27.405 26.561-8.103 7.532-16.501 14.747-24.786 22.083-17.334 15.35-34.716 30.648-52.002 46.052-8.035 7.16-15.849 14.565-23.838 21.775-16.415 14.812-32.898 29.546-49.319 44.352-10.894 9.823-21.458 20.034-32.674 29.473-8.919 7.506-18.431 14.347-27.983 21.051-14.395 10.104-28.913 20.05-43.67 29.615-6.128 3.972-12.985 6.83-19.549 10.119-8.858 4.437-17.627 9.09-26.688 13.074-4.431 1.949-9.425 2.638-14.183 3.82-6.447 1.603-12.93 3.061-19.366 4.708-13.82 3.537-27.484 7.004-42.1 6.575-11.943-.35-23.958 1.717-35.943 2.684-1.325.107-2.665.042-3.998.042-35.166.001-70.331.12-105.496-.042a3365 3365 0 0 1-67.92-1.025c-11.224-.279-22.492-.75-33.63-2.068-15.13-1.79-30.13-4.626-45.229-6.713-7.652-1.058-15.439-1.154-23.087-2.234-7.92-1.118-15.742-2.929-23.617-4.384-8.36-1.546-16.82-2.655-25.075-4.635-10.124-2.428-20.102-5.484-30.1-8.414-8.16-2.39-16.31-4.831-24.365-7.548-8.934-3.013-17.768-6.324-26.618-9.581-7.328-2.697-14.665-5.38-21.904-8.3-6.247-2.518-12.449-5.184-18.52-8.095-19.227-9.22-38.368-18.617-57.573-27.88-11.748-5.666-23.586-11.144-35.314-16.85-3.528-1.716-6.809-1.906-9.614.9-10.017 10.018-9.09 7.669-21.797 2.29-11.11-4.702-21.781-10.433-32.683-15.634-10.157-4.845-20.27-9.8-30.571-14.323-11.58-5.084-23.38-9.668-35.028-14.602-9.01-3.816-17.899-7.916-26.903-11.745-10.465-4.45-21.121-8.467-31.467-13.173-11.85-5.391-23.422-11.395-35.169-17.02-15.903-7.614-31.888-15.058-47.782-22.69-19.949-9.578-39.828-19.3-59.761-28.91-17.76-8.562-35.56-17.046-53.33-25.588-16.275-7.823-32.556-15.634-48.795-23.532-11.31-5.5-22.183-12.174-33.947-16.376-8.745-3.124-18.043-5.482-28.188-3.316-8.528 1.821-14.895 6.689-21.76 10.884-13.456 8.224-26.76 16.764-39.595 25.918-9.909 7.068-19.307 14.937-28.384 23.063-10.215 9.144-20.83 18.148-29.438 28.707-12.128 14.875-23.896 30.193-32.63 47.547-4.416 8.774-10.133 16.893-14.571 25.657-11.017 21.754-21.397 43.832-32.49 65.546-9.196 18-19.395 35.49-28.479 53.543-6.038 12-10.842 24.62-16.302 36.915-4.307 9.697-8.927 19.256-13.122 29-4.142 9.621-7.924 19.398-11.866 29.106-3.316 8.166-6.717 16.298-9.931 24.503-4.934 12.59-9.997 25.139-14.524 37.876-4.189 11.783-7.737 23.794-11.586 35.699-2.86 8.846-5.974 17.617-8.565 26.541-2.72 9.371-4.966 18.88-7.392 28.337-2.477 9.657-4.905 19.326-7.382 28.983-3.73 14.542-6.92 29.148-8.727 44.115-2.421 20.044-4.34 40.112-3.693 60.27.378 11.784 2.387 23.518 3.724 35.268.984 8.65 1.988 17.298 3.142 25.925.628 4.693 1.72 9.323 2.371 14.013 1.603 11.529 3.778 23.037 4.419 34.626.811 14.67-4.495 28.023-14.112 38.756-3.854 4.302-8.053 10.094-15.11 10.765-13.543 1.288-25.816.337-34.111-13.162-6.046-9.837-10.076-20.284-11.73-31.374-2.701-18.108-3.977-36.423-6.25-54.601-3.077-24.59-3.596-49.287-2.75-73.97.415-12.086 2.887-24.101 4.418-36.15.807-6.35 1.424-12.73 2.431-19.049 1.234-7.746 2.563-15.49 4.249-23.148 3.088-14.031 6.396-28.015 9.749-41.985 2.67-11.123 5.585-22.186 8.312-33.295 2.284-9.3 4.272-18.677 6.728-27.93 1.962-7.388 4.608-14.593 6.625-21.968 1.979-7.24 3.33-14.651 5.35-21.877 2.349-8.401 5.056-16.705 7.734-25.01 2.94-9.115 5.94-18.212 9.068-27.263 3.214-9.297 6.304-18.655 10-27.762 6.465-15.936 13.202-31.766 20.106-47.518 6.951-15.859 14.245-31.568 21.556-47.712l-13.961-6.751 8.483-18 49.868 23.387-8.494 18.058c-4.64-2.142-8.904-3.986-13.047-6.071-2.212-1.114-3.499-.998-4.685 1.439-3.148 6.473-6.765 12.725-9.756 19.266-3.025 6.616-5.415 13.52-8.286 20.21-2.409 5.615-5.21 11.06-7.654 16.66-3.509 8.042-6.855 16.154-10.26 24.24-2.66 6.317-5.505 12.566-7.904 18.98-2.902 7.764-5.442 15.664-8.099 23.518-2.792 8.255-5.643 16.493-8.267 24.802-2.06 6.522-3.811 13.142-5.76 20.138"/></svg>