<svg xmlns="http://www.w3.org/2000/svg" viewBox="0 0 2004 1127" xml:space="preserve"><path fill="#fff" d="M165.207 755.015c7.06-1.681 13.668-3.613 20.396-4.952 9.896-1.97 19.542-4.425 24.663-14.198 3.079-5.875 5.22-12.244 7.747-18.405a1726 1726 0 0 0 6.77-16.732c3.768-9.463 7.465-18.955 11.255-28.409 3.136-7.823 6.412-15.59 9.537-23.417 4.194-10.508 8.246-21.074 12.464-31.572 4.045-10.067 8.198-20.09 12.349-30.113 4.148-10.016 8.463-19.964 12.498-30.024 3.139-7.829 6.046-15.753 8.9-23.692 3.125-8.691 6.705-17.292 8.888-26.225 1.718-7.029 2.362-14.533 2.069-21.768-.212-5.237-2.684-10.397-4.251-15.56-2.123-6.993-3.848-14.163-6.65-20.88-3.365-8.062-2.28-16.284-1.65-24.336 1.083-13.85 7.452-25.396 16.976-35.617 6.884-7.386 12.967-15.61 18.742-23.92 10.392-14.957 23.164-27.683 36.48-39.871 9.877-9.042 19.981-17.932 30.689-25.95 13.96-10.452 28.501-20.147 43.018-29.83 8.154-5.44 16.407-10.99 25.292-14.982 5.824-2.617 12.833-2.731 19.361-3.587 3.268-.428 6.714-.412 9.96.123 5.175.853 10.267 2.241 15.364 3.52 13.185 3.309 24.617 10.566 36.745 16.278 9.921 4.672 20.18 8.623 30.16 13.18 9.597 4.382 18.939 9.329 28.554 13.671 12.462 5.628 25.196 10.66 37.606 16.398 13.418 6.204 26.496 13.143 39.91 19.357 12.517 5.798 25.296 11.03 37.931 16.577 9.753 4.281 19.501 8.578 29.18 13.024 10.612 4.875 21.023 10.208 31.741 14.832 11.64 5.021 23.609 9.274 35.29 14.202 10.096 4.26 19.905 9.2 30.002 13.457 8.196 3.454 17.066 5.525 24.853 9.68 10.131 5.405 20.56 11.487 24.603 23.218 3.933 11.41 14.326 13.872 23.296 18.189 1.83.88 5.608-1.342 8.01-2.88 2.038-1.307 3.91-3.447 4.933-5.647 2.583-5.554 7.958-6.191 12.69-8.182 12.416-5.221 22.316 1.679 32.492 6.721 9.731 4.822 19.158 10.252 28.801 15.256 11.19 5.806 22.302 11.806 33.756 17.048 11.869 5.433 24.09 10.101 36.19 15.022 6.334 2.576 12.673 5.162 19.129 7.402 6.047 2.099 12.284 3.643 18.375 5.625 5.314 1.73 10.475 3.945 15.82 5.563 9.743 2.949 19.56 5.658 29.37 8.38 5.077 1.408 10.17 2.802 15.321 3.885 5.848 1.23 11.777 2.067 17.658 3.143 6.657 1.218 13.271 2.71 19.959 3.715 6.616.994 13.31 1.457 19.953 2.283 12.923 1.605 25.818 3.44 38.755 4.91 8.29.941 16.623 1.664 24.956 2.016 13.41.566 26.835.917 40.257 1.056 40.59.417 81.182.699 121.773 1.01 7.5.057 15.024.392 22.494-.075 17.36-1.084 34.705-2.448 52.031-3.974 6.92-.608 13.85-1.587 20.638-3.04 7.266-1.554 14.277-5.012 21.565-5.602 14.333-1.16 25.852-9.108 38.213-14.67 12.461-5.608 24.406-12.446 35.458-21.05 15.117-11.77 31.837-21.455 47.363-32.731 8.17-5.934 15.245-13.372 22.848-20.092 7.497-6.625 15.186-13.04 22.522-19.838 10.401-9.64 20.355-19.77 30.872-29.28 10.517-9.509 21.617-18.37 32.223-27.785 7.832-6.953 15.173-14.458 22.928-21.502 9.803-8.904 19.752-17.65 29.733-26.355 10.075-8.786 20.836-16.87 30.253-26.302 10.47-10.488 22.042-19.86 31-31.978 8.708-11.78 19.419-22.082 28.093-33.883 7.81-10.626 15.115-21.92 20.555-33.87 2.913-6.401 6.421-14.88.945-22.225-2.133-2.862-5.61-5.078-8.927-6.618-4.557-2.117-9.52-3.38-14.35-4.882-4.844-1.506-9.786-2.706-14.598-4.305-10.895-3.619-21.683-7.567-32.614-11.07-10.916-3.498-22.099-6.21-32.885-10.05-6.678-2.378-12.873-2.412-19.493-.444-6.73 2-8.247 7.776-8.786 13.16-.826 8.25-.724 16.683-.087 24.967.772 10.024 3.07 19.94 3.675 29.965.58 9.652 1.69 19.01 5.097 28.13 1.833 4.906 3.648 10.108 3.906 15.256.551 10.967-3.877 20.199-13.476 25.825-5.522 3.237-11.8 5.617-18.043 7.022-3.399.765-7.44-1.303-11.187-2.115-7.147-1.549-11.42-6.997-15.888-12.034-1.65-1.862-2.76-4.31-3.727-6.65-2.924-7.074-4.315-13.765-1.408-21.817 3.9-10.804 5.91-22.377 4.892-34.114-.919-10.595-2.796-21.184-2.73-31.766.077-12.585 1.082-25.273 3.086-37.69.92-5.701 4.742-11.148 8.018-16.212 8.031-12.416 8.28-26.145 7.345-40.046-.452-6.725-2.269-13.024-6.345-18.913-3.63-5.243-10.861-6.886-17.763-3.83-4.931 2.183-10.197 3.601-15.266 5.487-7.484 2.785-14.879 5.82-22.402 8.494-7.494 2.664-15.155 4.861-22.643 7.542-8.668 3.104-17.208 6.564-25.838 9.775-9.257 3.444-18.551 6.784-27.834 10.157-6.39 2.322-12.797 4.602-19.184 6.937-7.297 2.668-14.578 5.38-21.87 8.065-10.766 3.965-21.489 8.056-32.323 11.826-4.96 1.726-10.185 2.668-15.207 4.234-4.873 1.52-9.653 3.348-14.449 5.108-5.057 1.855-10.077 3.81-15.126 5.686q-9.562 3.556-19.147 7.048c-6.566 2.39-13.321 4.35-19.683 7.194-14.519 6.492-29.329 12.565-43.097 20.425-10.553 6.025-20.332 13.838-29.25 22.149-6.586 6.136-12.346 13.367-14.535 23.062-2.287 10.122-2.422 19.717.113 29.753 2.877 11.39 4.629 23.058 7.23 34.524 3.157 13.908 5.056 27.988 4.751 42.193-.231 10.77-1.373 21.585-3.018 32.24-1.188 7.703-3.33 15.37-6.003 22.706-4.174 11.462-8.774 22.807-13.915 33.866-4.39 9.447-11.505 17.11-18.297 24.977-7.3 8.456-17.049 12.967-26.53 17.942-14.328 7.52-29.528 12.848-45.382 15.972-9.53 1.878-19.27 3.913-28.892 3.805-12.848-.145-25.654-2.994-38.515-3.35-8.55-.237-16.273-2.898-23.908-5.58-12.292-4.32-24.104-9.998-36.144-15.042-9.425-3.948-18.905-7.763-28.326-11.718-5.016-2.105-9.906-4.512-14.947-6.55-11.317-4.578-22.679-9.046-34.05-13.488-7.01-2.739-14.034-5.451-21.124-7.971-3.3-1.173-6.748-1.96-10.169-2.748-7.828-1.807-15.694-3.45-23.52-5.267-6.506-1.51-12.935-3.374-19.473-4.715-7.907-1.622-15.906-2.786-23.839-4.288-6.15-1.164-12.22-2.81-18.4-3.747-5.187-.786-10.49-.767-15.728-1.262-13.51-1.275-27.06-2.292-40.508-4.06-14.585-1.918-29.092-4.464-43.599-6.936-10.65-1.815-20.098-6.83-29.691-11.519-9.1-4.448-18.468-8.344-27.715-12.491-10.214-4.58-20.336-9.384-30.668-13.68-6.74-2.8-13.808-4.801-20.684-7.287-6.556-2.37-13.02-5-19.587-7.338-5.673-2.02-11.452-3.742-17.155-5.681-5.443-1.85-10.842-3.827-16.27-5.72-7.946-2.769-15.808-5.828-23.875-8.188-10.293-3.013-20.747-5.477-31.144-8.13-6.656-1.698-13.387-3.126-19.985-5.02-4.736-1.36-9.309-3.288-13.953-4.966-5.522-1.994-11.075-3.907-16.557-6.006-8.165-3.128-16.318-6.295-24.404-9.62-6.43-2.645-12.785-5.481-19.117-8.356-17.933-8.144-35.912-16.192-53.73-24.583-15.19-7.153-30.33-14.445-45.215-22.209-11.824-6.166-23.14-13.299-34.846-19.704-9.99-5.466-14.01-5.994-23.401 3.076-9.307 8.99-19.515 17.058-29.445 25.39a1348 1348 0 0 1-26.222 21.436c-7.03 5.604-14.33 10.87-21.365 16.468-10.027 7.977-20.109 15.904-29.794 24.283-4.96 4.291-9.159 9.472-13.61 14.335-9.81 10.714-19.985 21.131-29.207 32.332-8.216 9.977-15.347 20.847-22.962 31.32-4.795 6.596-9.748 13.083-14.365 19.8-9.135 13.292-18.561 26.418-26.968 40.162-7.392 12.085-13.557 24.92-20.373 37.628l-18.046-9.247c3-6.092 5.784-12.12 8.89-17.977 7.644-14.42 15.799-28.466 25.42-41.768 15.073-20.837 28.854-42.605 43.77-63.56 5.233-7.35 12.233-13.438 18.37-20.153 10.456-11.443 20.35-23.461 31.45-34.237 10.4-10.095 22.001-18.962 33.18-28.241 9.508-7.893 19.12-15.662 28.77-23.38 11.967-9.573 24.174-18.85 35.98-28.615 6.993-5.785 13.154-12.58 20.173-18.33 5.572-4.565 12.283-7.54 19.709-5.815 7.203 1.674 14.667 3.317 21.181 6.62 11.657 5.908 22.386 13.645 34.041 19.559a2240 2240 0 0 0 71.14 34.555c20.395 9.458 40.993 18.543 61.87 26.872 13.307 5.309 27.236 9.095 40.976 13.272 12.497 3.8 25.153 7.075 37.67 10.814 15.58 4.655 31.188 9.252 46.594 14.438 11.044 3.718 21.779 8.358 32.648 12.596 15.15 5.908 30.429 11.51 45.41 17.821 16.86 7.104 33.63 14.479 50.102 22.436 13.303 6.426 27.49 8.083 41.764 9.946 7.79 1.016 15.53 2.408 23.292 3.637.49.077.967.27 1.457.303 10.373.683 20.763 1.164 31.115 2.083 8.009.71 16.005 1.741 23.942 3.031 10.97 1.783 21.937 3.677 32.8 6.014 11.978 2.577 23.838 5.705 35.747 8.602 9.987 2.429 20.026 4.67 29.934 7.388 5.459 1.497 10.739 3.695 16.024 5.77 10.141 3.98 20.274 7.99 30.324 12.195 7.204 3.014 14.215 6.488 21.405 9.538 13.918 5.901 27.899 11.651 41.857 17.458 8.371 3.482 16.593 7.419 25.175 10.269 6.003 1.993 12.458 2.974 18.789 3.556 11.344 1.044 22.74 1.613 34.128 2.073 11.846.478 23.015-3.034 34.251-6.241 13.85-3.953 27.207-9.296 39.166-17.101 7.018-4.58 13.11-11.187 18.222-17.94 8.147-10.764 13.71-23.17 17.656-36.066 2.621-8.57 4.22-17.486 5.779-26.335 1.616-9.178 3.706-18.471 3.627-27.697-.09-10.576-2.117-21.167-3.713-31.69-1.372-9.043-3.195-18.025-5.06-26.984-1.129-5.424-2.233-10.939-4.207-16.083-3.337-8.69-1.82-17.425-.496-25.953 1.183-7.626 2.772-15.81 6.67-22.242 5.37-8.863 12.231-17.272 20.002-24.119 9.818-8.65 20.69-16.409 32.034-22.94 12.412-7.146 25.658-13.007 38.952-18.419 16.246-6.613 32.923-12.167 49.406-18.2 17.96-6.572 35.852-13.33 53.881-19.704 16.022-5.664 32.283-10.653 48.269-16.412 17.208-6.2 34.158-13.114 51.333-19.41 15.52-5.69 31.227-10.867 46.783-16.461 9-3.237 17.737-7.26 26.843-10.132 4.752-1.498 10.043-1.666 15.1-1.733 7.641-.103 14.94 2.545 20.261 7.617 4.57 4.355 7.808 10.384 10.719 16.136 4.45 8.793 5.676 18.703 5.668 28.275-.008 9.07-2.604 18.122-3.869 27.208-.862 6.202-4.142 11.137-7.57 16.1-5.432 7.866-6.766 17-7.155 26.193-.41 9.689-.223 19.41-.058 29.113.155 9.107.545 18.213.971 27.312.531 11.313-1.13 22.27-4.521 33.064-1.395 4.437.699 9.86 7.217 13.7 5.13 3.024 8.53-.219 11.964-2.84 3.5-2.672 3.41-8.001 1.864-12.64-2.47-7.408-4.51-15.03-5.888-22.711-1.733-9.658-2.753-19.453-3.817-29.217-.68-6.233-.255-12.639-1.439-18.751-2.036-10.508.245-20.691 1.26-30.966.293-2.958 1.627-5.994 3.139-8.618 5.646-9.8 13.017-17.23 25.444-17.084 7.211.084 14.528-.737 21.606.238 6.555.904 12.877 3.587 19.262 5.609 12.7 4.02 25.41 8.012 38.041 12.235 8.02 2.68 15.87 5.871 23.868 8.621 7.365 2.532 15.023 4.303 22.205 7.254 15.547 6.386 23.83 21.257 20.17 38.283-.858 3.996-1.684 8.037-2.02 12.099-.64 7.738-5.238 13.739-9.149 19.719-7.913 12.101-16.488 23.818-25.452 35.17-10.28 13.021-20.9 25.821-32.1 38.053-7.534 8.228-16.264 15.373-24.576 22.874-7.601 6.861-15.377 13.529-23.043 20.319-17.695 15.671-35.432 31.294-53.027 47.076-10.317 9.254-20.3 18.88-30.6 28.153-13.637 12.28-27.466 24.346-41.155 36.568-10.33 9.223-20.312 18.853-30.924 27.735-10.09 8.444-20.66 16.336-31.27 24.13-9.64 7.084-19.325 14.193-29.524 20.415-12.236 7.465-24.981 14.107-37.618 20.896-6.385 3.43-12.808 6.98-19.593 9.425-7.792 2.809-15.986 4.517-24.036 6.589-7.757 1.996-15.548 3.863-23.331 5.756-6.965 1.693-13.842 3.192-21.171 3.474-16.44.634-32.826 2.58-49.257 3.638-4.93.318-9.94-.85-14.908-.792-14.655.167-29.306.759-43.96.873-6.936.055-13.875-.799-20.817-.889-12.175-.157-24.355.075-36.53-.072-19.109-.23-38.233-.241-57.316-1.107-13.455-.61-26.855-2.462-40.275-3.796-9.984-.993-19.982-1.887-29.937-3.119-8.124-1.005-16.193-2.451-24.288-3.69-11.49-1.759-23.016-3.306-34.46-5.324-8.823-1.556-17.561-3.618-26.303-5.605-7.335-1.667-14.714-3.24-21.905-5.415-10.098-3.053-20.07-6.539-30.042-9.994-14.16-4.908-28.42-9.58-42.355-15.069-10.22-4.025-20.083-9.01-29.938-13.903-18.545-9.205-36.983-18.625-55.436-28.015-4.83-2.458-9.541-5.151-14.325-7.704-4.644-2.478-9.152-1.74-11.816 2.701-3.776 6.295-9.33 10.92-15.806 12.866-5.705 1.716-12.644 1.693-18.437.161-7.525-1.99-14.323-6.57-21.68-9.4-6.353-2.446-9.035-7.531-10.95-13.216-3.705-10.996-11.713-17.102-22.047-21.334-19.576-8.018-38.943-16.546-58.46-24.71-16.634-6.958-33.54-13.296-49.997-20.642-21.638-9.658-42.913-20.125-64.423-30.075-17.607-8.144-35.353-15.986-52.99-24.065-10.208-4.675-20.274-9.657-30.488-14.318-17.158-7.83-34.416-15.443-51.567-23.292-8.817-4.036-17.424-8.533-26.251-12.547-7.983-3.63-15.893-7.748-24.27-10.11-13.512-3.808-26.162-1.433-37.965 7.048-15.408 11.071-31.733 20.864-47.16 31.91-16.091 11.52-30.453 25.11-44.753 38.829-16.79 16.108-29.08 35.66-43.647 53.453-1.257 1.536-2.527 3.086-3.97 4.44-5.15 4.836-5.859 11.364-7.111 17.767-2.533 12.948 1.842 24.6 6.444 36.245 3.728 9.432 5.898 19.437 6.22 29.345.254 7.796-2.047 15.938-4.512 23.503-4.39 13.47-9.669 26.656-14.746 39.895-5.924 15.449-12.036 30.825-18.055 46.237-5.43 13.903-10.795 27.832-16.278 41.714-4.55 11.517-9.206 22.992-13.856 34.469-7.925 19.559-15.795 39.14-23.858 58.643-5.273 12.753-12.782 23.841-25.904 29.615-4.498 1.98-9.666 2.419-14.505 3.65-6.598 1.677-13.346 2.968-19.713 5.292-6.973 2.545-9.153 9.686-12.016 15.597-3.304 6.823-5.922 14.084-7.934 21.403-2.851 10.369-5.105 20.92-7.186 31.478-1.931 9.792-3.524 19.667-4.835 29.562-.822 6.21-.66 12.544-1.27 18.79-1.467 15.037-1.97 30.025.92 44.97.341 1.77.059 3.655.124 5.484.565 15.845 3.472 31.291 8.46 46.302 2.867 8.63 5.81 17.31 9.689 25.508 3.896 8.236 8.852 15.991 13.611 23.793 4.69 7.69 10.683 14.745 14.306 22.879 3.148 7.07 3.839 15.187 2.595 23.25-1.486 9.64-6.6 16.699-14.69 21.57-2.578 1.552-5.961 2.33-9.012 2.436-11.806.412-22.95-2.111-33.849-7.005-10.18-4.572-21.314-7.043-31.436-11.72-13.769-6.363-27.04-13.821-40.4-21.04-10.37-5.604-20.553-11.553-30.81-17.365-8.128-4.608-12.793-14.344-9.667-22.933 1.976-5.43 5.835-10.239 9.214-15.071 2.53-3.62 6.697-6.418 8.233-10.329 2.018-5.138 3.04-11.029 2.92-16.562-.187-8.672-1.673-17.317-2.634-25.97-.908-8.167-1.984-16.318-2.72-24.5-.387-4.294-.018-8.652-.327-12.957-.328-4.58-1.317-9.118-1.524-13.697-.178-3.902.27-7.842.571-11.755.622-8.048.913-16.152 2.113-24.117 1.386-9.195 3.61-18.264 5.458-27.39 1.817-8.974 3.431-17.994 5.47-26.916 3.09-13.52 6.504-26.967 9.72-40.46 3.451-14.48 6.677-29.017 10.3-43.455 2.507-9.993 5.612-19.836 8.28-29.79 2.665-9.94 4.948-19.982 7.716-29.89 2.325-8.328 5.072-16.54 7.696-24.783 3.048-9.575 5.98-19.193 9.302-28.672 3.481-9.933 7.235-19.776 11.11-29.563 4.48-11.311 9.01-22.612 13.905-33.747 6.327-14.395 13.02-28.63 19.596-42.914 2.313-5.025 4.748-9.994 7.413-15.586l-20.776-10.717 9.033-17.77 57.869 29.428-9.056 17.82c-4.959-2.533-9.66-4.943-14.37-7.335-2.337-1.187-3.734-2.246-5.344 1.741-2.563 6.347-7.095 11.869-10.107 18.073-2.978 6.138-4.954 12.753-7.647 19.04-2.593 6.055-5.665 11.905-8.3 17.944-2.67 6.123-5.023 12.384-7.588 18.554-3.537 8.509-7.464 16.872-10.625 25.516-2.897 7.92-4.787 16.202-7.504 24.195-3.266 9.609-6.963 19.071-10.414 28.619-.914 2.53-1.747 5.107-2.372 7.721-1.786 7.466-3.271 15.008-5.205 22.434-1.752 6.73-4.06 13.314-5.892 20.025-1.226 4.488-1.888 9.13-3.095 13.624-1.762 6.562-3.94 13.014-5.652 19.588-1.331 5.116-2.11 10.374-3.338 15.521-1.062 4.453-2.51 8.813-3.605 13.259-1.226 4.977-2.153 10.028-3.382 15.005-1.837 7.44-3.887 14.826-5.724 22.265-1.196 4.843-2.149 9.746-3.258 14.612-1.277 5.602-2.765 11.162-3.866 16.798-.93 4.762-1.433 9.607-2.133 14.414-1.424 9.782-3.276 19.526-4.157 29.356-.81 9.056-1.06 18.226-.681 27.309.437 10.459 1.685 20.895 2.86 31.309 1.071 9.487 3.24 18.905 3.591 28.403.343 9.244 1.66 18.516-1.17 27.911-2.631 8.731-7.771 15.214-13.86 21.41-1.704 1.734-3.076 3.791-5.17 6.412 2.527 1.91 4.811 4.012 7.428 5.544 8.114 4.75 16.279 9.424 24.568 13.856 7.293 3.9 14.676 7.666 22.205 11.08 13.395 6.077 26.797 12.18 40.46 17.61 7.845 3.119 16.185 5.013 24.345 7.308 3.983 1.121 8.197-2.509 8.66-6.517 1.138-9.863-2.862-17.447-8.84-24.99-5.584-7.048-9.703-15.262-14.426-22.987-5.59-9.14-10.241-18.64-12.924-29.141-2.485-9.726-6.128-19.157-8.604-28.884-1.43-5.621-1.846-11.554-2.225-17.38-1.142-17.573-2.322-35.152-2.923-52.749-.316-9.236.17-18.546.979-27.762.907-10.336 2.186-20.677 4.048-30.88 1.725-9.456 4.44-18.73 6.703-28.088 1.389-5.742 2.125-11.735 4.257-17.183 3.778-9.656 8.743-18.846 12.559-28.49 3.476-8.785 11.345-12.56 18.53-17.686"/></svg>