<svg xmlns="http://www.w3.org/2000/svg" viewBox="0 0 1999 1127" xml:space="preserve"><path fill="#fff" d="M60.26 754.054c2.216-8.807 4.466-17.18 6.631-25.575 1.838-7.127 3.47-14.308 5.383-21.415 3.469-12.883 6.984-25.755 10.662-38.58 2.973-10.368 5.88-20.776 9.41-30.96 5.59-16.123 11.406-32.178 17.62-48.068 7.238-18.51 14.685-36.955 22.66-55.157 5.304-12.108 11.693-23.74 17.589-35.588.438-.88.818-1.79 1.441-3.161l-16.883-8.277 8.6-17.99 54.94 26.432-8.706 17.967-18.933-9.013c-7.568 16.44-15.25 32.789-22.632 49.272-6.68 14.914-13.217 29.9-19.444 45.006-2.996 7.268-5.085 14.906-7.671 22.347-2.581 7.427-5.485 14.748-7.86 22.239-3.552 11.196-6.79 22.492-10.112 33.76-2.776 9.412-5.631 18.803-8.178 28.276-2.76 10.273-5.18 20.638-7.795 30.95-2.02 7.966-4.242 15.883-6.14 23.877-1.792 7.544-3.037 15.221-4.956 22.729-2.663 10.422-5.994 20.678-8.547 31.125-2.15 8.799-3.761 17.74-5.322 26.67-2.488 14.23-4.7 28.506-7.096 42.752-2.559 15.212-.826 30.279.77 45.454 1.005 9.564-.233 19.345.403 28.972.818 12.377 2.437 24.706 3.843 37.04.869 7.615 1.62 15.273 3.09 22.782 1.605 8.204 3.144 16.595 6.244 24.288 3.417 8.48 11.788 12.167 19.694 15.837 10.375 4.815 20.553 10.091 31.102 14.48 8.135 3.385 16.684 5.791 25.102 8.467 3.997 1.27 8.145 2.062 12.175 3.239 5.324 1.555 9.297-1.201 9.67-6.776.592-8.822-3-15.284-10.073-20.615-8.878-6.692-17.595-13.714-25.602-21.405-5.107-4.905-8.647-11.406-13.166-16.967-6.249-7.688-9.382-16.786-12.074-26.036-3.19-10.963-6.29-21.979-8.717-33.127-1.484-6.818-1.754-13.918-2.339-20.91-.727-8.686-1.765-17.395-1.686-26.086.133-14.725.687-29.469 1.726-44.158.817-11.543 2.439-23.043 4.089-34.507.78-5.418 2.49-10.7 3.73-16.056 1.083-4.68 1.821-9.459 3.217-14.04 1.63-5.356 3.49-10.692 5.821-15.775 3.8-8.285 7.939-16.423 12.216-24.472 1.073-2.018 3.097-3.608 4.893-5.15 10.246-8.799 21.98-13.953 35.647-14.095 8.332-.086 16.735-.703 24.982.136 10.976 1.116 16.557-5.255 20.223-13.634 7.08-16.186 13.392-32.71 20.013-49.096 8.744-21.64 17.553-43.252 26.19-64.934 4.821-12.102 9.276-24.349 14.033-36.477 4.218-10.754 8.87-21.344 12.881-32.173 4.072-10.989 7.696-22.311 4.904-34.171-1.836-7.798-4.59-15.442-7.584-22.893-5.86-14.59-6.147-28.763-2.023-44.226 3.347-12.545 8.61-24.023 14.025-35.436 4.825-10.17 11.534-19.523 18.033-28.802 9.027-12.89 18.025-25.891 28.187-37.868 8.047-9.485 17.399-18.007 26.936-26.05 14.52-12.242 29.323-24.222 44.713-35.333 13.452-9.713 27.992-17.906 41.847-27.08 13.342-8.833 27.906-9.482 42.91-6.925 11.123 1.895 21.446 6.369 31.6 11.19a4501 4501 0 0 0 35.857 16.843c14.393 6.68 28.848 13.226 43.235 19.918 26.174 12.175 52.31 24.434 78.478 36.622a5336 5336 0 0 0 39.178 18.082c13.303 6.065 26.583 12.192 40.008 17.978 13.972 6.021 28.119 11.635 42.165 17.485 14.228 5.925 28.572 11.6 42.604 17.96 21.202 9.61 42.213 19.644 63.214 29.689 3.812 1.823 7.498 1.563 10.576-.355 10.24-6.381 19.84-3.056 29.351 1.364 17.05 7.923 34.015 16.03 50.975 24.145 9.982 4.776 19.767 9.981 29.856 14.514 12.87 5.784 25.916 11.184 38.97 16.548 6.367 2.616 12.895 4.85 19.398 7.122 10.496 3.668 21.069 7.12 31.54 10.854 14.195 5.062 28.786 8.417 43.59 11.136 14.136 2.598 28.1 6.153 42.25 8.667 9.166 1.629 18.543 2.051 27.805 3.183 9.21 1.126 18.386 2.52 27.59 3.69 6.822.865 13.647 1.933 20.501 2.247 13.258.608 26.544.602 39.806 1.131 10.04.401 20.056 1.36 30.094 1.812 3.247.147 6.535-.817 9.797-.765 8.954.142 17.902.776 26.855.817 25.53.12 51.069.395 76.59-.086 16.475-.31 32.93-1.77 49.385-2.858 6.86-.454 13.846-.595 20.507-2.081 14.003-3.123 27.733-7.497 41.764-10.466 8.753-1.852 15.895-6.792 23.784-10.244 10.162-4.447 20.214-9.31 29.774-14.915 7.23-4.238 13.497-10.087 20.408-14.912 8.626-6.024 17.755-11.358 26.152-17.673 9.82-7.387 19.113-15.476 28.578-23.328 4.672-3.876 9.308-7.804 13.8-11.884 9.06-8.228 17.954-16.64 27.024-24.857 9.451-8.564 19.027-16.991 28.553-25.473 5.327-4.744 10.704-9.432 15.988-14.224 18.62-16.889 37.158-33.867 55.826-50.7 11.994-10.816 24.249-21.342 36.221-32.18 6.968-6.307 14.032-12.595 20.295-19.572 9.072-10.105 17.46-20.824 26.136-31.285 4.284-5.166 9.06-10.01 12.722-15.586 6.361-9.686 12.548-19.565 17.756-29.893 2.38-4.719 3.047-10.7 3.03-16.104-.016-4.509-2.645-8.962-7.397-10.569-9.73-3.288-19.673-5.937-29.42-9.174-10.003-3.32-19.842-7.133-29.817-10.54-9.569-3.268-19.213-6.32-28.842-9.412-5.057-1.624-10.167-3.081-15.226-4.702-8.152-2.61-18.39 3.146-21.194 11.282-3.271 9.491-.96 18.86-.33 28.279.305 4.566 1.044 9.104 1.596 13.654 1.32 10.864 2.262 21.793 4.092 32.572 1.447 8.522 4.001 16.856 6.038 25.28 2.214 9.154-1.823 16.765-7.383 23.024-5.678 6.391-13.642 9.625-22.12 11.789-5.887 1.502-10.729-1.175-15.318-2.918-9.546-3.625-15.872-10.8-19.485-20.992-3.022-8.527-.702-15.884 1.083-23.805 2.369-10.504 4.67-21.002 2.427-32.021-1.206-5.924-1.006-12.166-1.131-18.271-.175-8.517.058-17.041-.097-25.558-.287-15.722 4.452-29.869 12.232-43.398 2.887-5.021 5.282-11.074 5.469-16.736.34-10.295.078-20.933-2.239-30.892-1.943-8.353-9.017-15.741-20.773-10.81-17.9 7.507-36.294 13.846-54.547 20.492-9.495 3.458-19.194 6.354-28.698 9.788-9.47 3.422-18.76 7.348-28.226 10.783-12.491 4.534-25.116 8.7-37.613 13.218-10.506 3.8-20.826 8.126-31.385 11.764-11.665 4.018-23.586 7.293-35.25 11.313-9.225 3.18-18.2 7.077-27.343 10.507-8.546 3.206-17.301 5.889-25.717 9.395-10.365 4.32-20.397 9.43-30.713 13.875-11.968 5.158-22.75 12.227-32.983 20.123-12.586 9.71-23.876 20.854-26.722 37.232-1.225 7.052-.061 14.744 1.176 21.945 1.912 11.134 5.21 22.026 7.202 33.15 2.411 13.46 4.597 27.006 5.85 40.61.67 7.26-.35 14.794-1.46 22.075-1.737 11.382-3.821 22.742-6.483 33.94-1.775 7.463-4.223 14.896-7.425 21.856-4.28 9.304-8.8 18.685-14.631 27.045-8.675 12.435-18.543 24.008-33.204 30.13-10.04 4.193-19.833 9.008-29.985 12.893-6.135 2.348-12.803 3.262-19.132 5.152-12.947 3.867-26.24 4.527-39.53 3.788-11.24-.624-22.422-2.37-33.61-3.763-20.177-2.514-37.995-11.827-56.334-19.651-8.425-3.595-17.022-6.783-25.44-10.393-11.946-5.124-23.673-10.782-35.723-15.643-17.483-7.052-35.053-13.835-53.688-17.571-11.385-2.283-22.427-6.265-33.806-8.593-14.161-2.897-28.471-5.15-42.789-7.176-16.334-2.31-32.74-4.127-49.13-6.041-15.092-1.763-30.364-2.517-45.248-5.341-10.284-1.951-20.183-6.318-30-10.242-11.16-4.46-22.04-9.618-33.034-14.492-11.177-4.956-22.277-10.093-33.54-14.846-6.353-2.68-12.979-4.708-19.458-7.095-14.034-5.17-27.997-10.538-42.093-15.53-13.308-4.714-26.672-9.302-40.162-13.453-7.221-2.221-14.789-3.293-22.15-5.088-6.429-1.567-12.867-3.175-19.162-5.198-14.043-4.511-28.182-8.816-41.937-14.1-13.455-5.17-26.51-11.388-39.692-17.256-18.774-8.356-37.601-16.602-56.213-25.308-10.637-4.976-20.754-11.056-31.353-16.121-12.358-5.907-24.374-13.227-38.27-14.715-12.613-1.352-25.486-.944-36.781 5.823-10.286 6.163-20.424 12.752-29.835 20.16-21.78 17.143-43.258 34.684-64.474 52.52-6.9 5.8-12.665 12.965-18.85 19.597-7.39 7.925-14.433 16.186-22.06 23.872-10.686 10.768-19.71 22.656-27.795 35.513-8.81 14.006-18.849 27.24-28.396 40.78a363 363 0 0 0-26.225 43.359c-2.656 5.169-5.173 10.41-7.87 15.853-6.5-3.132-12.596-6.067-19.318-9.305 6.32-12.16 12.067-24.397 18.886-36.006 6.582-11.205 14.215-21.797 21.483-32.594 7.429-11.037 14.858-22.077 22.5-32.967 8.141-11.6 15.508-23.728 25.87-33.739 8.182-7.904 15.274-16.926 23.036-25.28 12.55-13.505 24.892-27.111 40.07-38.016 12.696-9.122 24.129-19.985 36.314-29.838 12.427-10.049 24.883-20.087 37.765-29.532 4.177-3.063 9.615-4.633 14.69-6.191 8.413-2.584 17.038-6.535 25.5-6.358 9.746.203 19.69-.061 29.656 2.917 15.758 4.71 29.375 13.412 44.014 20.152 13.95 6.423 27.556 13.592 41.487 20.057 16.096 7.47 32.226 14.91 48.632 21.657 14.788 6.081 29.953 11.25 44.982 16.74 7.96 2.908 15.896 5.942 24.006 8.374 9.387 2.814 18.981 4.931 28.435 7.534 9.246 2.546 18.47 5.19 27.627 8.034 10.295 3.197 20.554 6.529 30.74 10.058 8.302 2.876 16.496 6.074 24.699 9.228 12.569 4.834 25.166 9.6 37.635 14.684 10.25 4.178 20.388 8.651 30.474 13.218 12.66 5.733 24.992 12.269 37.905 17.338 7.5 2.945 15.812 3.983 23.849 5.36 11.127 1.905 22.339 3.32 33.514 4.945.33.048.66.09.992.112 10.374.673 20.764 1.16 31.118 2.071 8.176.72 16.352 1.686 24.448 3.03 12.577 2.088 25.11 4.476 37.617 6.955 9.134 1.81 18.25 3.764 27.277 6.042 7.233 1.826 14.33 4.197 21.467 6.397 10.16 3.131 20.38 6.093 30.42 9.572 7.829 2.712 15.493 5.938 23.106 9.224 14.943 6.45 29.726 13.272 44.71 19.62 15.987 6.77 31.993 13.541 48.274 19.544 6.197 2.284 13.143 2.86 19.815 3.457 11.349 1.016 22.743 1.657 34.132 2.038 11.327.378 22.013-3.13 32.771-6.16 13.898-3.911 27.244-9.377 39.257-17.15 7.034-4.551 13.134-11.159 18.262-17.9 8.197-10.777 13.664-23.282 17.67-36.172 2.707-8.713 4.119-17.864 5.665-26.895 1.62-9.467 3.736-19.024 3.747-28.545.01-9.916-2.011-19.87-3.557-29.743-1.442-9.213-3.31-18.365-5.216-27.497-1.099-5.261-2.935-10.376-3.912-15.654-1.01-5.455-1.957-11.032-1.914-16.547.095-11.924 2.306-23.794 8.574-33.868 5.141-8.264 11.818-15.993 19.208-22.336 9.946-8.536 20.745-16.348 32.073-22.93 11.96-6.95 24.74-12.657 37.58-17.875 16.643-6.763 33.7-12.506 50.577-18.688 17.97-6.582 35.921-13.22 53.92-19.727 14.87-5.376 29.787-10.623 44.702-15.876 17.565-6.187 35.203-12.173 52.712-18.514 17.598-6.374 35.077-13.077 52.609-19.636 7.91-2.96 15.628-6.747 23.784-8.662 9.415-2.21 19.04-2.96 28.39 2.045 14.655 7.844 18.356 21.2 21.687 36.124 2.404 10.771-.167 20.672-.82 30.824-.525 8.173-3.022 16.376-8.283 23.615-4.491 6.18-7.568 13.284-7.525 21.616.052 10.204-1.666 20.414-1.675 30.623-.008 9.873 1.165 19.75 1.85 29.622.842 12.153-1.364 23.904-4.275 35.63-1.597 6.43 1.423 9.971 7.444 13.337 4.769 2.667 8.522-.608 11.914-3.376 3.056-2.493 2.806-8.007 1.396-12.33-2.42-7.429-4.474-15.044-5.84-22.73-1.576-8.863-2.3-17.88-3.277-26.844-.713-6.54-.806-13.177-1.938-19.637-1.92-10.96-.361-21.72 1.241-32.452.56-3.75 2.402-7.46 4.32-10.81 1.862-3.257 4.052-6.791 7.038-8.826 3.946-2.69 8.643-4.967 13.305-5.785 12.8-2.245 25.352-1.04 37.803 3.442 14.837 5.34 30.091 9.513 45.088 14.425 7.994 2.618 15.787 5.846 23.745 8.581 7.497 2.577 15.332 4.303 22.592 7.402 15.325 6.54 23.377 21.02 19.893 38.047-.82 4.006-1.758 8.04-1.996 12.1-.439 7.464-5.241 12.967-8.457 19.029-9.33 17.586-23.28 31.879-35.478 47.406-6.59 8.389-13.596 16.508-20.998 24.186-8.435 8.75-17.413 16.989-26.353 25.234-7.772 7.167-15.836 14.016-23.743 21.037-18.045 16.025-36.117 32.02-54.093 48.122-11.298 10.12-22.39 20.467-33.668 30.609-15.5 13.94-31.098 27.772-46.634 41.673-6.898 6.171-13.51 12.689-20.676 18.53-10.081 8.22-20.418 16.142-30.903 23.843-9.78 7.184-19.613 14.374-29.94 20.722-12.083 7.426-24.662 14.06-37.151 20.805-6.078 3.282-12.255 6.549-18.723 8.9-7.968 2.895-16.254 4.946-24.462 7.14-6.782 1.812-13.697 3.13-20.468 4.977-8.912 2.431-17.8 3.986-27.159 4.284-15.45.49-30.84 2.647-46.287 3.625-6.03.381-12.144-.847-18.215-.79-17.276.16-34.55.869-51.824.866-17.677-.003-35.355-.574-53.032-.933-14.942-.304-29.903-.284-44.818-1.098-15.615-.852-31.19-2.475-46.775-3.862-10.324-.92-20.655-1.833-30.94-3.096-7.79-.956-15.505-2.505-23.266-3.712-11.443-1.779-22.931-3.285-34.333-5.29-8.825-1.553-17.58-3.55-26.304-5.61-9.702-2.292-19.428-4.567-28.97-7.425-9.527-2.853-18.854-6.382-28.245-9.68-12.487-4.386-25.133-8.39-37.374-13.385-11.765-4.801-23.123-10.61-34.617-16.065-9.364-4.444-18.652-9.048-27.998-13.53-15.152-7.265-30.327-14.482-45.486-21.734-2.81-1.345-5.475-3.426-8.419-3.929-2.428-.414-5.951.168-7.641 1.749-10.176 9.52-8.804 7.738-21.469 2.257-13.68-5.92-26.74-13.255-40.276-19.528-15.093-6.994-30.38-13.575-45.65-20.177-17.679-7.642-35.453-15.062-53.145-22.67-13.552-5.828-27.112-11.646-40.544-17.744-18.171-8.249-36.21-16.792-54.33-25.153-20.87-9.629-41.78-19.174-62.652-28.797-18.053-8.324-36.05-16.768-54.123-25.048-17.962-8.23-35.81-16.756-54.074-24.26-7.236-2.974-15.418-4.605-23.246-4.918-8.465-.339-15.828 4.512-22.789 9.149-15.698 10.456-31.552 20.698-46.942 31.593-16.168 11.445-30.502 25.067-44.873 38.704-8.83 8.379-16.474 17.598-23.536 27.238-10.785 14.722-21.067 29.885-30.458 45.524-5.047 8.404-8.075 18.089-11.457 27.398-1.769 4.867-3.365 10.209-3.18 15.268.228 6.265 2.242 12.494 3.738 18.678 3.224 13.325 10.17 25.78 9.916 39.893-.176 9.71-2.23 19.158-5.67 28.308-4.212 11.202-7.99 22.568-12.307 33.727-4.875 12.6-10.18 25.03-15.223 37.566-5.275 13.115-10.407 26.287-15.698 39.396-4.44 11.002-9.11 21.911-13.512 32.927-5.417 13.554-10.151 27.407-16.131 40.703-5.713 12.704-13.556 24.048-27.185 29.744-1.605.67-3.512.846-5.281.857-11.166.075-22.345-.267-33.494.181-4.759.191-9.564 1.61-14.158 3.067-11.566 3.67-14.685 14.525-18.861 23.942-3.617 8.155-6.107 16.904-8.237 25.6-2.25 9.186-3.527 18.613-5.15 27.948-1.542 8.877-2.994 17.77-4.453 26.66-.266 1.623-.527 3.271-.534 4.908-.045 11.667-.643 23.375.134 34.989.954 14.243 2.908 28.429 4.76 42.596 1.013 7.755 1.722 15.775 4.336 23.039 3.361 9.342 4.746 19.708 12.32 27.323 2.98 2.997 4.603 7.36 7.634 10.283 6.844 6.598 14.402 12.454 21.254 19.045 7.187 6.913 16.059 12.323 19.985 22.279 3.14 7.961 4.257 16.033 3.17 24.523-1.248 9.734-6.671 16.619-14.66 21.584-2.477 1.538-5.699 2.56-8.6 2.61-11.82.208-23.086-2.065-33.986-7.13-8.199-3.81-17.315-5.613-25.628-9.219-13.2-5.725-26.73-11.15-38.858-18.724-8.865-5.535-16.624-13.549-19.397-24.755-2.109-8.522-4.91-16.881-6.8-25.446-1.265-5.74-1.606-11.703-2.12-17.586-.79-9.035-1.523-18.08-2.014-27.134-1.1-20.318-.919-40.78-3.368-60.927-2.251-18.515.29-36.36 3.292-54.257 3.083-18.379 7.15-36.602 11.137-54.816 2.269-10.37 5.284-20.573 7.879-30.873 1.752-6.958 3.357-13.954 5.029-21.356"/></svg>