<svg xmlns="http://www.w3.org/2000/svg" viewBox="0 0 2000 1124" xml:space="preserve"><path fill="#fff" d="M132.465 761.212c5.192-3.126 9.749-6.853 14.968-8.844 6.498-2.478 13.127-4.84 20.527-4.514 8.393.369 16.936-1.442 25.239-.594 10.915 1.115 15.66-4.767 19.975-13.2 7.288-14.24 12.426-29.277 17.962-44.201 3.032-8.173 7.231-15.907 10.461-24.015 6.31-15.842 12.188-31.855 18.486-47.702 3.276-8.243 7.236-16.213 10.573-24.434 3.36-8.274 6.427-16.67 9.442-25.078 3.473-9.685 6.918-19.386 10.065-29.18 3.632-11.299 2.266-22.274-1.992-33.304-3.325-8.617-4.916-17.909-8.319-26.487-3.99-10.064-.407-19.091 2.224-28.338 2.085-7.33 4.103-14.747 7.047-21.748 6.884-16.366 15.596-31.743 26.505-45.834 9.857-12.732 18.873-26.191 29.523-38.21 10.195-11.506 21.55-22.116 33.254-32.114 11.679-9.975 24.104-19.17 36.787-27.851 13.98-9.57 28.757-17.968 42.928-27.27 7.293-4.787 15.097-6.457 23.557-6.306 3.333.06 6.766-.503 9.98.115 7.813 1.501 15.855 2.683 23.198 5.55 10.075 3.933 19.537 9.418 29.359 14.03 11.577 5.437 23.196 10.792 34.913 15.918 9.2 4.025 18.705 7.367 27.843 11.52 11.504 5.23 22.732 11.063 34.155 16.474 9 4.264 18.153 8.202 27.17 12.431 12.259 5.75 24.395 11.766 36.69 17.437 13.689 6.315 27.517 12.329 41.246 18.56 5.95 2.7 11.703 5.86 17.727 8.376 8.22 3.433 16.652 6.357 24.921 9.678 5.76 2.314 11.402 4.925 17.095 7.405 10.337 4.504 20.608 9.164 31.027 13.47 11.013 4.55 22.394 8.268 33.2 13.25 12.785 5.893 25.112 12.775 37.67 19.168 3.263 1.662 6.598 3.205 9.998 4.558.86.342 2.138-.124 3.15-.448 5.58-1.786 11.079-4.829 16.722-5.111 4.722-.237 9.806 2.279 14.375 4.357 12.17 5.536 24.168 11.457 36.2 17.295 10.748 5.215 21.396 10.637 32.186 15.763 14.254 6.77 28.4 13.834 42.976 19.842 11.765 4.85 24.125 8.243 36.17 12.429 9.886 3.435 19.58 7.466 29.575 10.529 9.61 2.945 19.503 4.96 29.258 7.436 4.623 1.173 9.18 2.63 13.83 3.668 5.667 1.263 11.399 2.24 17.109 3.304 7.14 1.33 14.262 2.774 21.436 3.882 5.954.92 11.966 1.487 17.964 2.104 16.576 1.705 33.34 2.36 49.673 5.368 11.281 2.078 22.355.883 33.493 1.646 59.138 4.05 118.353 1.443 177.53 1.792 13.992.083 28.012-2.325 41.994-3.82 6.585-.703 13.18-1.637 19.644-3.047 7.263-1.584 14.28-4.747 21.589-5.55 9.861-1.084 18.359-5.151 26.919-9.399 8.9-4.416 17.568-9.315 26.566-13.512 18.331-8.55 33.064-22.523 50.247-32.855 15.172-9.121 28.073-21.437 41.06-33.498 9.852-9.149 20.35-17.596 30.36-26.58 7.182-6.446 13.907-13.401 21.062-19.88 9.205-8.336 18.698-16.354 27.95-24.64 7.031-6.295 13.82-12.862 20.824-19.187 12.263-11.075 24.602-22.066 36.925-33.076 9.57-8.55 19.368-16.858 28.693-25.667 11.345-10.718 23.573-20.515 32.897-33.348 5.662-7.794 12.934-14.396 19.003-21.92 10.913-13.53 22.21-27.053 29.05-43.086 3.191-7.48 7.111-16.57 1.565-25.014-1.859-2.83-5.215-5.087-8.376-6.543-3.85-1.775-8.248-2.332-12.354-3.593a624 624 0 0 1-17.281-5.604c-10.693-3.628-21.308-7.496-32.052-10.964a863 863 0 0 0-32.95-9.927c-4.141-1.156-8.55-2.038-12.812-1.946-12.148.26-14.88 5.648-15.877 15.397-.776 7.588-.65 15.358-.033 22.974.823 10.186 2.555 20.297 3.805 30.45.777 6.316 1.127 12.694 2.16 18.964.663 4.03 2.179 7.924 3.382 11.858 2.113 6.904 4.059 13.356 2.43 21.191-2.093 10.069-8.584 15.913-16.18 20.125-7.93 4.397-16.718 6.259-26.45 2.162-6.445-2.714-10.739-6.962-15.034-11.684-1.779-1.957-3.132-4.538-3.967-7.07-2.23-6.767-5.297-13.211-.879-20.804 2.351-4.04 1.91-9.74 2.592-14.708.75-5.465 2.085-10.982 1.853-16.42-.501-11.768-2.532-23.494-2.626-35.247-.083-10.239 1.573-20.498 2.59-30.735.315-3.175.477-6.558 1.715-9.41 2.92-6.725 6.743-13.06 9.626-19.8 2.055-4.804 4.167-9.939 4.523-15.046.944-13.547 1.703-27.282-6.74-39.327-2.024-2.885-12.346-5.416-16.423-3.817-10.698 4.198-21.35 8.517-32.073 12.649-12.299 4.74-24.583 9.533-37.009 13.92-9.629 3.399-19.551 5.968-29.183 9.36-6.912 2.436-13.473 5.856-20.35 8.409-7.429 2.759-15.102 4.855-22.559 7.546-7.165 2.586-14.142 5.692-21.291 8.329-6.411 2.364-12.967 4.332-19.413 6.608-4.066 1.435-8 3.251-12.076 4.657-7.359 2.539-14.817 4.791-22.165 7.362-7.935 2.776-15.76 5.865-23.69 8.658-7.202 2.536-14.524 4.73-21.706 7.314-5.348 1.924-10.618 4.094-15.814 6.399-7.69 3.411-15.258 7.098-22.926 10.563-15.641 7.069-29.906 16.429-42.372 28.047-7.21 6.72-13.557 14.324-16.313 24.862-2.268 8.669-1.963 17.14-1.2 25.4.888 9.61 4.78 18.907 6.826 28.456 1.686 7.86 2.718 15.871 3.79 23.849 1.152 8.564 2.887 17.178 2.788 25.752-.133 11.434-1.23 22.936-2.981 34.244-1.241 8.01-5.162 15.621-6.254 23.633-1.543 11.326-7.484 20.782-11.915 30.726-4.64 10.412-12.134 19.414-19.932 28.042-7.51 8.31-16.984 13.271-26.668 17.866-10.259 4.868-20.74 9.679-31.628 12.69-10.674 2.953-21.367 7.275-32.995 5.595-2.274-.328-4.74.858-7.14 1.168-2.595.335-5.24.784-7.826.62-7.677-.489-15.389-.891-22.99-1.995-12.036-1.747-24.22-2.78-35.483-8.305-6.399-3.138-13.404-5.023-20.085-7.607-6.382-2.47-12.698-5.112-19.042-7.68-8.529-3.452-17.117-6.765-25.562-10.41-5.285-2.28-10.279-5.231-15.54-7.577-9.316-4.154-18.643-8.314-28.141-12.023-8.629-3.37-17.384-6.515-26.282-9.069-7.838-2.25-15.992-3.371-23.93-5.304-11.29-2.75-22.462-5.998-33.782-8.609-5.51-1.271-11.246-1.545-16.87-2.339-4.319-.61-8.62-1.334-12.932-1.994-10.428-1.598-20.835-3.362-31.295-4.715-6.021-.78-12.14-.775-18.195-1.33-9.737-.895-19.53-1.518-29.167-3.07-10.963-1.767-21.813-4.297-32.649-6.769-4.332-.988-8.65-2.364-12.705-4.17-7.414-3.299-14.516-7.307-21.953-10.547-10.032-4.37-20.32-8.149-30.377-12.463-6.036-2.59-11.718-6.01-17.78-8.524-6.602-2.739-13.472-4.824-20.2-7.264-6.742-2.444-13.41-5.102-20.189-7.437-10.693-3.683-21.49-7.066-32.172-10.785-7.043-2.453-13.865-5.567-20.96-7.837-6.5-2.08-13.233-3.429-19.864-5.093-4.056-1.017-8.117-2.012-12.171-3.034-7.903-1.99-15.85-3.822-23.683-6.057-4.59-1.31-8.986-3.294-13.485-4.934-7.33-2.672-14.745-5.126-21.99-8.01-8.982-3.576-17.8-7.562-26.739-11.248-9.67-3.987-19.49-7.62-29.071-11.808-7.181-3.138-14.034-7.02-21.126-10.373-11.84-5.598-23.863-10.815-35.604-16.61-10.71-5.285-21.217-10.995-31.685-16.752-10.923-6.008-21.668-12.338-32.54-18.44-4.364-2.448-12.34-1.46-15.976 2.673-12.956 14.728-28.858 25.837-44.408 37.475-10.063 7.53-19.324 16.124-29.055 24.108-9.437 7.743-19.324 14.967-28.442 23.062-8.965 7.958-17.428 16.52-25.716 25.194-8.613 9.014-17.16 18.151-24.987 27.84-8.025 9.934-15.15 20.598-22.657 30.95-4.727 6.519-9.491 13.011-14.138 19.586-8.831 12.495-18.009 24.773-26.23 37.66-5.28 8.28-9.073 17.506-13.604 26.271-2.558 4.948-5.26 9.82-8.101 15.106l-18.225-8.54c6.015-11.787 11.574-23.322 17.736-34.525 3.914-7.115 8.667-13.775 13.146-20.57 7.595-11.524 15.139-23.085 22.95-34.46 7.548-10.991 15.038-22.056 23.241-32.55 7.046-9.015 15.031-17.298 22.658-25.853 8.133-9.124 15.873-18.664 24.63-27.151 9.401-9.114 19.705-17.308 29.761-25.73 12.216-10.232 24.493-20.395 36.914-30.375 10.26-8.245 20.914-16.002 31.11-24.323 5.632-4.596 10.806-9.78 15.964-14.923 7.82-7.799 16.208-14.879 28.06-13.153 6.845.997 13.806 3.202 19.988 6.31 10.397 5.226 20.018 11.977 30.32 17.414a1424 1424 0 0 0 49.628 24.993c19.057 9.126 38.336 17.793 57.575 26.537 10.785 4.902 21.504 10.035 32.584 14.177 10.04 3.754 20.53 6.308 30.823 9.389 9.572 2.865 19.1 5.894 28.732 8.542 8.603 2.364 17.373 4.121 25.973 6.496 6.225 1.719 12.298 3.992 18.427 6.05 7.781 2.614 15.58 5.175 23.316 7.919 6.735 2.388 13.407 4.959 20.08 7.517 13.158 5.046 26.356 9.999 39.43 15.256 11.522 4.634 22.977 9.455 34.32 14.512 13.188 5.88 25.983 12.723 39.414 17.952 7.968 3.103 16.77 4.318 25.313 5.613 8.124 1.231 16.422 1.261 24.603 2.175 16.627 1.856 33.247 3.793 49.828 6.01 9.88 1.322 19.682 3.236 29.517 4.893 9.984 1.681 20.043 3.016 29.926 5.162 10.23 2.222 20.327 5.1 30.412 7.94 11.178 3.15 22.384 6.266 33.378 9.984 10.02 3.39 19.813 7.47 29.633 11.425 8.52 3.433 16.976 7.035 25.391 10.72 6.38 2.793 12.583 6 18.99 8.73 11.219 4.78 22.45 9.558 33.833 13.927 11.929 4.578 24.004 7.956 36.947 9.669 14.503 1.92 28.833 1.35 43.177 1.157 7.595-.102 15.249-3.26 22.686-5.633 7.121-2.272 14.08-5.118 20.963-8.055 12.16-5.188 23.582-10.972 32.3-21.92 9.612-12.07 15.645-25.708 21.314-39.633 2.121-5.209 2.575-11.115 3.633-16.733 2.034-10.804 4.573-21.564 5.7-32.467.696-6.747-.82-13.722-1.354-20.594-.077-.986-.35-1.972-.31-2.948.361-8.887-1.324-17.371-3.787-25.925-2.464-8.559-3.472-17.53-5.291-26.283-1.15-5.536-3.932-11.064-3.695-16.496.703-16.072 2.565-32.173 12.81-45.582 12.12-15.866 27.532-28.088 44.971-37.491 12.97-6.994 26.386-13.263 39.97-18.986 12.51-5.27 25.534-9.31 38.284-14.024 9.206-3.404 18.275-7.18 27.508-10.506 11.885-4.283 23.908-8.183 35.807-12.43 11.462-4.09 22.798-8.535 34.271-12.593 9.375-3.316 18.953-6.064 28.293-9.47 13.523-4.933 26.885-10.309 40.373-15.341 6.355-2.371 12.904-4.22 19.258-6.594 10.156-3.793 20.208-7.865 30.332-11.745 8.083-3.098 16.152-6.25 24.33-9.083 12.534-4.343 28.925 1.297 37.735 11.283 7.903 8.958 9.3 19.574 11.523 30.531 1.94 9.562-.622 18.428-1.222 27.564-.698 10.625-5.142 20.095-11.19 28.852-2.816 4.077-3.986 8.675-4.03 13.814-.046 5.543-1.558 11.062-1.81 16.62-.31 6.862-.204 13.764.143 20.628.289 5.725 1.395 11.406 1.747 17.13.306 4.982-.216 10.016.124 14.993.633 9.258-2.374 17.826-4.715 26.487-1.674 6.193.287 11.642 6.72 15.926 3.102 2.066 8.697 1.09 12.697-2.213 2.629-2.17 4.294-9.732 2.427-13.37-4.265-8.309-5.928-17.16-6.66-26.36-1.149-14.41-2.55-28.801-3.995-43.185-.309-3.079-2.062-6.172-1.773-9.124 1.2-12.264.494-24.998 8.083-35.887 6.128-8.791 14.432-13.042 25.094-12.832 1.5.03 3.015.145 4.497-.018 11.548-1.27 22.076 2.524 32.696 6.23 8.279 2.889 16.792 5.096 25.118 7.857 10.297 3.414 20.487 7.151 30.763 10.628 9.408 3.182 18.839 6.303 28.316 9.27 11.428 3.578 20.922 15.772 20.587 27.548-.237 8.368-.535 16.86-2.194 25.015-1.083 5.32-4.31 10.339-7.176 15.135-8.645 14.47-18.711 27.874-29.997 40.456-9.46 10.546-17.848 22.048-27.18 32.715-4.995 5.707-10.936 10.597-16.533 15.765-8.424 7.777-16.856 15.548-25.406 23.186-10.34 9.236-20.84 18.29-31.207 27.496-9.807 8.71-19.512 17.534-29.295 26.27-20.958 18.717-41.988 37.354-62.89 56.134-12.628 11.346-25.058 22.914-37.602 34.356-14.123 12.884-29.81 23.598-46.052 33.611-7.066 4.356-13.23 10.217-20.414 14.332-14.522 8.32-29.716 15.48-44.14 23.957-9.887 5.81-20.832 7.986-31.45 11.25-7.081 2.177-14.636 2.781-21.94 4.275-4 .818-7.871 2.326-11.889 2.979-5.664.921-11.398 1.506-17.125 1.938-14.476 1.091-28.965 2.023-43.45 2.997-1.327.09-2.665.035-3.998.035-26.5.001-53.001.13-79.5-.034-28.943-.18-57.886-.48-86.824-1.037-12.056-.232-24.137-.863-36.132-2.058-9.372-.933-18.611-3.13-27.942-4.551-6.333-.965-12.712-1.651-19.088-2.295-7.68-.776-15.42-1.075-23.056-2.145-5.982-.839-11.809-2.727-17.767-3.805-6.77-1.225-13.666-1.78-20.401-3.15-8.108-1.65-16.164-3.633-24.134-5.863-11.366-3.18-22.71-6.48-33.918-10.172-9.543-3.144-18.84-7.03-28.321-10.373-9.412-3.318-19.042-6.049-28.34-9.646-6.61-2.558-12.82-6.143-19.222-9.24-13.522-6.541-27.08-13.01-40.572-19.612-8.904-4.357-17.666-9.003-26.588-13.32-8.146-3.943-16.297-7.931-24.702-11.252-3.17-1.253-6.944-1.28-9.728 2.483-3.962 5.353-9.903 6.32-15.867 3.392-20.994-10.305-41.814-20.994-63.07-30.73-16.294-7.464-33.179-13.634-49.741-20.524-13.247-5.511-26.456-11.12-39.583-16.91-12.268-5.41-24.397-11.135-36.602-16.69-14.387-6.547-28.806-13.02-43.18-19.596-23.716-10.85-47.386-21.799-71.114-32.621-16.522-7.536-33.153-14.832-49.65-22.42-11.893-5.469-23.584-11.377-35.483-16.833-9.12-4.18-18.187-8.699-27.7-11.746-14.576-4.668-28.024-1.507-40.597 7.47-13.712 9.79-28.39 18.241-41.98 28.188-11.064 8.099-21.154 17.532-31.657 26.396-4.123 3.48-8.497 6.729-12.23 10.592-8.436 8.73-17.673 16.625-24.073 27.369-4.97 8.344-12.135 15.347-17.835 23.297-11.629 16.218-21.622 33.54-27.729 52.502-3.268 10.15-6.423 20.984-1.263 32.283 4.083 8.939 7.365 18.544 9.031 28.194 1.401 8.117 3.244 16.107 1.175 25.214-4.283 18.852-10.997 36.607-18.289 54.328-5.794 14.08-10.792 28.487-16.493 42.607-8.02 19.86-16.483 39.54-24.519 59.393-4.06 10.029-7.347 20.371-11.43 30.39-5.03 12.347-9.557 25.28-18.821 35.058-5.66 5.972-12.602 11.639-22.09 11.504-10.998-.156-22.018-.424-32.994.09-8.423.395-17.008 2.289-22.415 9.36-4.012 5.246-6.91 11.524-9.406 17.706-3.353 8.3-6.334 16.824-8.559 25.487-2.134 8.31-3.156 16.911-4.561 25.402-1.23 7.433-2.325 14.889-3.46 22.337-.543 3.562-1.446 7.125-1.486 10.696-.169 14.831-.66 29.696.112 44.49.64 12.261 2.695 24.468 4.487 36.645 1.091 7.413 2.268 14.913 4.484 22.038 3.539 11.384 8.5 22.032 15.76 31.863 8.983 12.164 22.272 19.323 32.154 30.251 5.03 5.563 11.981 10.703 14.027 17.289 2.146 6.91 4.857 14.785 1.677 23.138-1.755 4.611-1.975 9.796-5.693 13.629-5.043 5.2-9.789 9.832-18.294 9.825-11.308-.01-21.531-2.997-31.805-6.957-8.73-3.365-17.891-5.688-26.435-9.443-13.078-5.749-25.929-12.064-38.605-18.66-7.908-4.115-15.29-9.236-22.962-13.813-4.582-2.733-9.217-5.388-13.923-7.9-8.206-4.382-13.152-10.865-11.27-20.363.945-4.767 3.509-9.422 6.197-13.573 2.276-3.514 5.941-6.098 8.69-9.348 1.65-1.95 3.58-4.275 3.889-6.628.781-5.953 4.651-11.7 1.61-17.988-.214-.442-.487-.903-.53-1.374-.704-7.869-1.308-15.747-2.073-23.61-.876-9-1.993-17.98-2.795-26.986-.339-3.8.059-7.665-.238-11.473-.368-4.738-1.11-9.446-1.687-14.168-.1-.816-.336-1.655-.236-2.45 1.554-12.343 3.025-24.7 4.788-37.015 1.173-8.194 2.546-16.376 4.255-24.473 1.92-9.102 4.349-18.095 6.499-27.15 1.847-7.78 3.613-15.579 5.413-23.37 3.047-13.19 5.831-26.446 9.206-39.551 3.922-15.235 8.465-30.309 12.511-45.513 1.171-4.401 1.253-9.09 2.382-13.506 1.73-6.762 3.912-13.409 5.942-20.092 2.643-8.701 5.25-17.414 8.017-26.075 1.854-5.804 3.95-11.531 5.958-17.286 2.927-8.386 5.614-16.868 8.87-25.125 4.806-12.182 10.031-24.198 15.06-36.291 6.42-15.437 12.656-30.954 19.317-46.285 2.703-6.22 6.328-12.04 9.516-18.05 1.053-1.987 2.054-4 3.288-6.409l-18.477-8.754 8.431-18.066 56.893 26.401-8.458 18.078c-6.637-3.04-12.922-5.921-19.523-8.946-4.13 7.976-8.46 15.632-12.118 23.596-4.041 8.796-7.31 17.943-11.205 26.81-4.219 9.609-9.045 18.956-13.101 28.628-4.246 10.126-7.87 20.512-11.807 30.768-2.101 5.473-4.455 10.855-6.395 16.382-1.74 4.958-2.997 10.083-4.602 15.09-1.85 5.77-3.825 11.501-5.793 17.233-.971 2.829-2.307 5.557-3.027 8.443-1.857 7.448-3.318 14.996-5.214 22.433-1.607 6.3-3.733 12.467-5.383 18.757-1.387 5.287-2.263 10.707-3.647 15.994-1.845 7.047-4.14 13.978-5.914 21.04-1.872 7.45-3.152 15.049-5.07 22.484-1.982 7.683-4.597 15.203-6.592 22.882-1.133 4.362-1.532 8.911-2.349 13.36-.664 3.615-1.432 7.212-2.202 10.807-2.252 10.514-4.487 21.032-6.812 31.529-1.243 5.61-3.286 11.117-3.873 16.784-1.384 13.372-2.925 26.814-2.888 40.224.04 14.603 1.722 29.206 2.822 43.799.488 6.462.289 13.224 2.22 19.27 2.678 8.384 1.277 16.688 1.695 25.012.329 6.561-2.228 12.338-6.106 17.46-4.46 5.892-9.167 11.596-14.239 17.975 2 1.535 3.884 3.348 6.085 4.61 10.578 6.062 21.061 12.331 31.921 17.851 13.178 6.698 26.453 13.329 40.143 18.857 13.015 5.255 26.591 9.137 39.977 13.447 5.055 1.627 8.852-1.654 9.357-6.754.957-9.661-2.183-16.673-10.275-22.606-9.377-6.875-18.318-14.607-26.285-23.063-7.237-7.681-13.419-16.513-19.065-25.469-2.878-4.564-3.473-10.543-5.248-15.833-4.194-12.497-6.045-25.453-8.471-38.363-5.549-29.528-1.646-59.172-2.477-88.734-.236-8.395 2.74-16.874 4.173-25.326.92-5.422 1.5-10.908 2.62-16.285.932-4.472 2.398-8.835 3.684-13.23 1.712-5.852 2.947-11.916 5.339-17.48 4.293-9.984 9.221-19.701 14.074-29.435.841-1.687 2.62-2.906 4.306-4.512"/></svg>