<svg xmlns="http://www.w3.org/2000/svg" viewBox="0 0 2006 1123" xml:space="preserve"><path fill="#fff" d="M133.052 760.08c4.175-2.47 7.668-5.782 11.805-7.148 7.747-2.558 15.78-4.842 23.854-5.667 9.403-.96 18.985-.46 28.474-.138 4.522.153 8.075-1.488 10.07-4.99 4.589-8.06 8.963-16.292 12.7-24.774 5.877-13.339 11.237-26.908 16.665-40.44 4.244-10.58 8.168-21.29 12.396-31.877 6.948-17.4 14.004-34.755 21.059-52.112 3.79-9.322 8.124-18.451 11.395-27.95 3.949-11.465 7.659-23.094 10.197-34.926 1.096-5.106-.386-11.063-1.787-16.344-2.909-10.963-6.132-21.882-10-32.539-3.856-10.623-.014-20.278 1.561-30.514 1.973-12.818 8.607-23.537 13.11-35.154 2.978-7.682 8.169-14.643 13.08-21.41 11.812-16.273 23.565-32.632 36.292-48.18 7.045-8.606 16.136-15.513 24.07-23.422 19.352-19.29 42.148-34.068 64.557-49.316 9.849-6.701 19.946-13.261 30.63-18.442 9.23-4.476 19.792-4.73 29.955-3.445 6.986.884 13.951 2.683 20.641 4.921 5.3 1.773 10.116 4.944 15.237 7.301 7.805 3.593 15.72 6.947 23.527 10.534 7.812 3.588 15.513 7.416 23.326 11 14.995 6.877 30.084 13.551 45.043 20.507 14.236 6.62 28.33 13.545 42.534 20.236 14.177 6.679 28.373 13.321 42.637 19.81 10.642 4.842 21.462 9.29 32.097 14.146 9.146 4.177 18.026 8.95 27.232 12.981 14.22 6.227 28.57 12.164 42.955 17.999 9.913 4.02 20.161 7.251 29.935 11.57 14.12 6.24 27.973 13.093 41.888 19.79 7.753 3.731 12.353 10.733 15.503 18.064 3.306 7.69 8.31 12.074 16.13 13.956 1.355.326 2.514 1.39 3.84 1.921 5.364 2.148 9.73 1.34 12.174-3.667 4.695-9.619 13.665-12.236 22.607-13.956 4.355-.839 9.836.88 14.02 2.997 20.795 10.522 41.266 21.68 61.977 32.37 10.83 5.59 21.735 11.115 32.95 15.853 8.933 3.774 18.426 6.204 27.6 9.43 7.808 2.744 15.457 5.95 23.287 8.625a422 422 0 0 0 23.523 7.284c13.49 3.747 26.98 7.542 40.61 10.715 8.672 2.018 17.591 2.985 26.41 4.359 10.61 1.652 21.211 3.386 31.854 4.797 7.455.988 14.989 1.372 22.461 2.246 9.39 1.098 18.743 2.508 28.132 3.612 5.22.615 10.475 1.155 15.724 1.248 11.496.203 23.062-.682 34.487.258 46.167 3.795 92.39 1.27 138.58 1.58 17.526.119 35.067-2.433 52.609-3.672 5.115-.361 10.366.221 15.356-.703 9.308-1.725 18.494-4.144 27.688-6.443 13.457-3.365 26.353-8.228 38.647-14.698 9.165-4.823 18.633-9.11 27.575-14.308 7.092-4.123 13.57-9.298 20.36-13.949 10.699-7.328 21.664-14.292 32.073-22.008 8.452-6.265 16.413-13.228 24.307-20.204 11.793-10.42 23.332-21.13 34.987-31.708 10.136-9.2 20.235-18.441 30.44-27.564 11.275-10.08 22.697-19.996 33.97-30.079 7.965-7.125 15.715-14.49 23.689-21.606 13.46-12.012 27.055-23.873 40.524-35.877 5.772-5.144 11.234-10.64 17.068-15.71 17.392-15.112 31.033-33.52 45.282-51.377 7.324-9.18 14.368-18.603 21.148-28.192 6.166-8.72 8.652-18.923 10.173-29.326.771-5.271-6.536-11.966-13.107-13.503-6.668-1.56-13.105-4.112-19.641-6.235-7.794-2.53-15.62-4.967-23.368-7.63-8-2.75-15.848-5.966-23.903-8.533-8.66-2.76-17.578-4.725-26.203-7.58-4.953-1.64-9.567-2.46-14.74-1.052-8.67 2.36-13.097 6.7-12.838 15.81.354 12.462 1.756 24.896 2.745 37.34.651 8.188.9 16.445 2.197 24.532 1.109 6.914 3.588 13.597 5.219 20.44 1.876 7.875 3.781 15.275 1.598 24.018-3.564 14.273-21.949 23.462-32.934 22.898-12.62-.647-26.472-10.937-30.42-24.363-3.014-10.247 1.167-18.433 2.58-27.477 1.526-9.758 4.3-19.31 1.133-29.384-1.147-3.648-.013-7.96-.322-11.938-.404-5.203-1.687-10.37-1.723-15.56-.05-7.232.483-14.491 1.193-21.697.443-4.495 2.043-8.877 2.468-13.372.711-7.53 4.378-13.735 8.417-19.675 4.659-6.848 6.512-14.518 6.57-22.395.066-9.148-.502-18.416-2.022-27.425-1.406-8.33-9.747-17.152-21.04-12.223-11.264 4.916-23.163 8.363-34.7 12.678-10.952 4.098-21.71 8.726-32.71 12.689-15.648 5.637-31.47 10.792-47.153 16.333-6.749 2.384-13.282 5.373-20.014 7.81-7.914 2.866-15.986 5.295-23.898 8.166-7.151 2.596-14.137 5.645-21.275 8.28-4.748 1.753-9.633 3.133-14.46 4.673-5.324 1.7-10.689 3.281-15.966 5.117-5.1 1.775-10.091 3.862-15.165 5.718-11.06 4.046-22.237 7.796-33.193 12.105a877 877 0 0 0-35.892 15.06c-17.291 7.702-33.426 17.494-47.155 30.527-7.277 6.907-13.77 14.577-16.641 25.164-2.168 7.991-1.7 15.733-1.292 23.428.338 6.395 3.682 12.574 5.089 18.982 2.147 9.778 3.93 19.646 5.573 29.524 1.525 9.165 3.756 18.401 3.7 27.594-.071 11.389-1.79 22.825-3.52 34.13-1.585 10.357-3.327 20.822-6.484 30.768-3.042 9.584-7.888 18.609-12.113 27.8-5.718 12.44-14.807 22.483-24.315 31.964-4.33 4.318-10.178 7.413-15.806 10.073-11.57 5.467-23.227 10.911-35.274 15.157-11.575 4.08-23.615 7.084-36.118 6.846-14.612-.277-29.3.154-43.806-1.256-10.311-1.003-20.619-3.277-30.394-7.627-13.776-6.13-28.005-11.235-41.905-17.1-19.605-8.27-39.004-17.032-58.654-25.192-9.735-4.044-19.724-7.567-29.798-10.682-10.894-3.369-21.925-6.428-33.067-8.829-16.117-3.472-32.362-6.379-48.602-9.243-12.636-2.23-25.332-4.143-38.035-5.956-4.879-.696-9.883-.485-14.776-1.108-8.535-1.089-17.01-2.656-25.547-3.726-5.543-.694-11.148-.96-16.734-1.245-12.592-.64-24.568-4.184-36.357-8.173-5.234-1.771-9.79-5.45-14.877-7.771-9.263-4.225-18.72-8.02-28.046-12.109-9.675-4.242-19.22-8.79-28.957-12.879-6.315-2.65-12.887-4.684-19.32-7.058-9.319-3.437-18.584-7.018-27.93-10.378-10.08-3.624-20.211-7.108-30.348-10.571-7.585-2.592-15.162-5.226-22.838-7.523-6.92-2.07-13.957-3.752-20.964-5.518-4.38-1.104-8.867-1.826-13.192-3.106-11.96-3.54-24.017-6.845-35.741-11.063-13.796-4.964-27.305-10.734-40.894-16.261-10.141-4.124-20.254-8.324-30.299-12.676-4.83-2.093-9.444-4.682-14.21-6.932-9.25-4.366-18.602-8.521-27.795-13.005-9.817-4.788-19.538-9.78-29.228-14.822q-14.289-7.433-28.42-15.164c-7.036-3.849-13.846-8.118-20.947-11.836-5.233-2.739-10.604-1.726-14.416 2.516-13.77 15.325-30.79 26.687-46.765 39.353-20.528 16.275-40.987 32.654-60.996 49.557-7.14 6.033-12.882 13.723-19.257 20.662a9979 9979 0 0 0-14.307 15.602c-7.438 8.13-15.473 15.806-22.148 24.52-8.186 10.687-15.219 22.254-22.774 33.424-10.472 15.483-21.35 30.708-31.312 46.513-6.193 9.825-10.994 20.527-16.464 30.812-.899 1.69-2.027 3.26-3.093 4.955l-17.35-8.353c1.085-2.634 1.895-5.243 3.172-7.597 7.236-13.337 14.108-26.906 22.037-39.824 7.103-11.572 15.481-22.358 23.172-33.576 9.069-13.227 17.647-26.806 27.133-39.722 5.408-7.363 12.26-13.657 18.347-20.533 3.542-4 6.726-8.32 10.311-12.278 3.719-4.105 7.767-7.91 11.6-11.914 4.791-5.003 10.09-9.342 14.096-15.333 3.323-4.967 9.418-8.088 14.308-11.998 10.284-8.224 20.596-16.414 30.874-24.646 12.016-9.625 23.973-19.324 36.023-28.906 6.413-5.1 14.208-9.041 19.136-15.278 5.839-7.391 12.522-12.963 20.356-17.769 4.655-2.855 9.566-3.877 14.573-2.889 5.19 1.024 10.345 2.792 15.16 5.007 5.12 2.356 9.755 5.74 14.722 8.457 9.602 5.251 19.277 10.37 28.942 15.505 7.327 3.893 14.575 7.957 22.053 11.535 12.485 5.974 25.149 11.572 37.695 17.417 11.05 5.147 21.961 10.596 33.083 15.577a727 727 0 0 0 31.647 13.285c8.375 3.286 16.896 6.247 25.481 8.94 8.514 2.669 17.225 4.707 25.786 7.236 7.08 2.091 14.001 4.74 21.116 6.693 7.352 2.017 14.96 3.134 22.259 5.304 7.36 2.189 14.477 5.196 21.707 7.827 4.654 1.695 9.313 3.375 13.98 5.031 5.562 1.974 11.166 3.832 16.695 5.89 10.689 3.978 21.371 7.974 31.992 12.125 9.34 3.651 18.585 7.544 27.887 11.294 5.66 2.282 11.4 4.373 17.01 6.769 7.677 3.28 15.247 6.807 22.895 10.156 9.086 3.978 18.03 8.378 27.373 11.628 5.727 1.993 12.06 2.396 18.168 3.108 7.784.907 15.88.405 23.347 2.38 6.596 1.745 13.052 1.415 19.568 2.1 9.088.957 18.092 2.712 27.131 4.131.814.128 1.616.362 2.433.432 8.021.686 16.088 1.029 24.053 2.121 5.856.804 11.569 2.625 17.365 3.907 4.786 1.06 9.617 1.921 14.399 3 5.389 1.217 10.73 2.642 16.12 3.863 7.774 1.762 15.606 3.282 23.349 5.171 5.773 1.409 11.462 3.177 17.155 4.898 6.475 1.957 13.002 3.796 19.34 6.137 6.1 2.252 11.994 5.061 17.965 7.655 7.867 3.418 15.776 6.745 23.55 10.363 2.755 1.283 5.166 3.306 6.705 4.315 3.874 1.088 6.867 1.575 9.56 2.75 7.669 3.347 15.074 7.331 22.845 10.401 10.485 4.143 21.515 7.008 31.741 11.67 7.793 3.554 15.858 3.495 23.803 5.117 15.93 3.252 31.8 1.302 47.637 1.284 7.11-.008 14.251-3.763 21.312-6.026 6.418-2.057 12.807-4.239 19.09-6.672 3.39-1.313 6.412-3.576 9.803-4.882 12.956-4.988 21.809-14.965 29.232-25.78 5.698-8.301 9.494-18.019 13.366-27.423 2.447-5.94 3.452-12.472 5.152-18.725 1.384-5.093 2.844-10.166 4.262-15.25.263-.944.908-2.03.66-2.828-2.293-7.404 1.415-14.192 1.916-21.277.345-4.884-.5-9.87-.991-14.791-.507-5.08-1.003-10.18-1.92-15.195-.934-5.112-2.476-10.111-3.564-15.2-.921-4.305-1.361-8.718-2.391-12.993-2.106-8.744-4.516-17.415-6.674-26.148-.388-1.57-.358-3.308-.2-4.937.555-5.672 1.13-11.347 1.941-16.986.45-3.124 1.022-6.323 2.173-9.239 3.685-9.335 8.362-18.143 15.7-25.205 6.03-5.805 11.885-11.875 18.446-17.026 6.22-4.883 12.953-9.328 20-12.9 16.313-8.27 32.821-16.191 49.522-23.647 7.33-3.272 15.355-4.968 23.005-7.555 6.761-2.286 13.433-4.834 20.156-7.235 5.397-1.927 10.825-3.77 16.215-5.718 9.41-3.402 18.772-6.936 28.209-10.26 5.86-2.063 11.873-3.696 17.722-5.788 6.971-2.495 13.813-5.35 20.763-7.905 4.89-1.797 9.907-3.248 14.799-5.042 10.327-3.789 20.567-7.818 30.925-11.521 6.646-2.377 13.49-4.193 20.147-6.543 6.794-2.399 13.408-5.307 20.204-7.696 10.129-3.56 20.429-6.64 30.505-10.338 7.978-2.929 15.497-7.378 23.65-9.486 7.53-1.947 15.975-3.363 23.373-1.855 5.905 1.203 11.94 5.024 16.432 10.828 6.933 8.958 9.072 18.767 10.907 29.592 1.682 9.922.565 19.375-.761 28.759-1.1 7.777-2.777 15.695-8.004 22.702-4.182 5.605-6.49 12.5-7.152 20.323-.712 8.42-3.156 16.804-2.448 25.408.51 6.197 1.934 12.318 2.45 18.514.496 5.947.165 11.958.52 17.922.665 11.159-2.106 21.704-4.774 32.393-2.535 10.154 2.239 18.486 13.11 17.991 5.755-.262 9.284-3.962 9.442-9.63.142-5.09-1.725-9.595-3.502-14.211-1.216-3.16-2.048-6.535-2.549-9.89-1.232-8.26-2.458-16.538-3.164-24.853-.95-11.18.164-22.805-2.572-33.48-2.252-8.785.404-16.657 1.12-24.567.769-8.514 6.048-16.823 13.775-22.243 1.708-1.199 4.163-1.345 6.285-1.935.613-.17 1.428.016 1.876-.323 6.87-5.203 14.485-2.74 21.864-2.087 15.837 1.403 30.177 8.003 44.993 13.03 12.21 4.145 24.735 7.354 37.029 11.263 7.943 2.526 15.591 6.047 23.616 8.224 6.52 1.768 11.725 5.262 15.61 10.248 3.978 5.106 8.67 10.281 7.812 17.718-1.053 9.138-1.281 18.455-3.316 27.364-1.21 5.3-5.051 10.058-7.991 14.887-4.027 6.615-7.82 13.464-12.61 19.502-8.833 11.135-18.377 21.702-27.51 32.602-5.644 6.736-10.846 13.855-16.681 20.416-4.078 4.584-8.83 8.581-13.388 12.724-10.04 9.124-20.138 18.183-30.227 27.254-9.14 8.217-18.303 16.41-27.45 24.621-7.37 6.616-14.714 13.26-22.098 19.86-8.317 7.433-16.71 14.78-24.985 22.258-5.86 5.297-11.51 10.827-17.385 16.106-4.368 3.924-9.043 7.507-13.41 11.432-8.068 7.248-15.928 14.729-24.032 21.936-6.18 5.496-12.688 10.622-18.895 16.09-6.788 5.978-13.053 12.602-20.17 18.145-9.57 7.454-19.677 14.228-29.67 21.128-7.205 4.976-15.061 9.116-21.797 14.64-9.933 8.146-20.956 14.043-32.572 19.243-7.886 3.53-15.224 8.278-23.086 11.871-5.003 2.287-10.47 3.626-15.815 5.078-5.914 1.606-11.917 2.893-17.897 4.25-4.365.99-8.752 1.88-13.133 2.794-3.307.691-6.591 1.627-9.936 1.976-10.797 1.128-21.664 1.681-32.42 3.094-32.592 4.28-65.3 1.214-97.945 1.803-32.823.593-65.747 1.506-98.462-.46-15.93-.958-32.27.711-48.125-4.019-7.419-2.213-15.68-1.487-23.518-2.443-8.371-1.02-16.687-2.49-25.037-3.698-7.79-1.128-15.609-2.053-23.38-3.286-6.429-1.019-12.806-2.36-19.207-3.55-3.685-.686-7.38-1.33-11.06-2.036-5.77-1.107-11.593-2-17.28-3.439a463 463 0 0 1-24.348-6.899c-5.496-1.715-10.8-4.036-16.248-5.915-7.56-2.607-15.188-5.017-22.765-7.578-10.413-3.519-20.934-6.77-31.16-10.771-6.658-2.605-12.854-6.378-19.292-9.557-11.69-5.771-23.489-11.33-35.085-17.284-7.843-4.027-15.367-8.67-23.127-12.865-6.35-3.433-12.631-7.169-19.35-9.677-3.47-1.295-7.645-1.4-10.553 3.512-6.739 11.387-19.584 16.92-32.003 13.92-5.134-1.24-9.84-4.266-14.725-6.512-2.187-1.005-4.238-2.605-6.522-3.046-8.556-1.653-10.878-8.888-13.418-15.342-3.973-10.098-11.825-15.707-21.019-19.741-9.714-4.262-19.815-7.633-29.647-11.638-9.88-4.026-19.663-8.296-29.443-12.564-10.245-4.471-20.372-9.22-30.678-13.54-4.53-1.9-9.537-2.672-14.044-4.614-6.433-2.771-12.606-6.143-18.887-9.266-5.574-2.772-11.102-5.642-16.727-8.308-5.89-2.79-11.848-5.44-17.817-8.06-6.37-2.795-12.883-5.28-19.158-8.27-7.776-3.705-15.29-7.958-23.071-11.653-5.03-2.388-10.42-4.005-15.495-6.306-12.164-5.517-24.207-11.301-36.356-16.852-14.172-6.474-28.47-12.676-42.586-19.27-7.597-3.547-14.858-7.81-22.404-11.473-4.778-2.32-9.832-4.065-14.71-6.188-6.19-2.695-12.183-5.914-18.521-8.18-9.092-3.248-18.518-6.713-28.221-5.137-5.927.962-11.78 4.05-17.019 7.243-11.85 7.224-23.544 14.761-34.848 22.808-13.895 9.891-27.648 20.04-40.841 30.836-8.112 6.638-15.576 14.254-22.418 22.216-11.69 13.6-22.964 27.588-33.818 41.865a190 190 0 0 0-16.513 25.815c-4.828 9.1-9.5 18.586-12.144 28.465-3.397 12.693-4.182 25.642 1.467 38.615 4.028 9.252 6.108 19.364 8.478 29.322 2.433 10.218-1.023 18.726-3.289 27.635-3.066 12.055-7.006 23.938-11.352 35.603-4.338 11.642-9.72 22.892-14.492 34.376-3.578 8.61-6.938 17.31-10.35 25.988-3.943 10.03-7.846 20.077-11.75 30.122-3.44 8.85-6.728 17.762-10.326 26.547-3.416 8.34-7.274 16.5-10.693 24.84-1.998 4.873-3.034 10.185-5.383 14.857-2.468 4.91-6.27 9.13-8.981 13.938-4.484 7.952-12.019 11.777-19.827 15.1-2.616 1.113-5.899.95-8.867.89-9.154-.18-18.304-.813-27.454-.79-3.098.007-6.234 1.31-9.278 2.26-3.62 1.13-8.067-.364-10.824 3.575-3.799 5.43-8.329 10.444-11.443 16.23-3.263 6.061-5.331 12.783-7.707 19.295-1.365 3.743-2.54 7.592-3.375 11.485-.948 4.418-1.241 8.975-2.141 13.407-1.384 6.814-3.042 13.573-4.587 20.354-.073.323-.239.63-.27.954-.707 7.142-1.83 14.274-2.005 21.43-.323 13.325-.353 26.67-.017 39.995.316 12.532.85 25.09 2.105 37.553.624 6.188 2.991 12.216 4.732 18.27 2.592 9.01 4.62 18.278 8.248 26.861 2.494 5.898 7.28 10.831 11.075 16.173 2.358 3.32 4.28 7.16 7.261 9.789 8.762 7.726 18.428 14.468 26.856 22.52 10.067 9.62 14.834 21.594 11.895 35.88-.528 2.566.536 5.85-.71 7.799-2.767 4.332-6.422 8.127-9.919 11.955-3.675 4.022-8.292 5.11-13.674 4.155-2.78-.493-5.73.082-8.582-.126-9.716-.709-18.797-3.465-27.329-8.278-2.328-1.313-5.41-1.212-7.953-2.238-7.434-2.999-14.857-6.054-22.124-9.432a624 624 0 0 1-25.821-12.737c-7.752-4.048-15.332-8.429-22.942-12.744-7.239-4.105-14.385-8.373-21.633-12.462-6.638-3.744-10.54-15.7-6.038-23.488 3.83-6.623 8.169-12.458 13.752-17.632 5.86-5.43 7.906-18.14 4.715-25.638a6 6 0 0 1-.437-1.908c-.688-9.855-1.236-19.72-2.051-29.565-.842-10.16-2.059-20.29-2.867-30.452-.332-4.18-.102-8.413.008-12.619.253-9.692.196-19.415 1.028-29.06.566-6.566 2.524-13.003 3.67-19.531.884-5.029 1.304-10.141 2.238-15.159 1.014-5.443 2.32-10.834 3.612-16.22 2.734-11.4 5.556-22.777 8.316-34.169 3.512-14.493 7.028-28.986 10.48-43.494 1.594-6.695 2.96-13.445 4.581-20.134.952-3.928 2.275-7.764 3.297-11.677 1.294-4.958 2.306-9.993 3.714-14.917 1.305-4.565 3.135-8.981 4.438-13.547 1.656-5.8 2.931-11.707 4.523-17.526 1.784-6.525 3.633-13.035 5.642-19.493 3.382-10.873 6.736-21.76 10.437-32.526 2.955-8.599 6.296-17.072 9.672-25.518a1401 1401 0 0 1 12.421-30.008c4.197-9.832 8.55-19.598 12.902-29.364 3.995-8.968 7.926-17.97 12.195-26.808 1.81-3.75 4.41-7.118 6.85-10.976l-17.81-9.219 8.997-17.788 55.904 28.437-9.05 17.78-20.598-10.37c-6.338 13.636-12.66 27.128-18.883 40.665-3.466 7.541-6.884 15.108-10.114 22.752-3.416 8.088-6.536 16.3-9.876 24.42-2.494 6.065-5.24 12.027-7.67 18.116-1.935 4.849-3.6 9.808-5.317 14.742-2.206 6.337-4.422 12.673-6.494 19.054-2.57 7.917-5.112 15.847-7.46 23.832a1354 1354 0 0 0-8.434 30.018c-1.699 6.312-3.038 12.72-4.672 19.05-1.205 4.669-2.741 9.252-3.93 13.925-2.73 10.74-5.308 21.52-8.005 32.27-1.868 7.447-3.952 14.841-5.716 22.312-1.892 8.013-3.467 16.1-5.284 24.132-1.593 7.042-3.512 14.013-4.96 21.082-2.176 10.616-4.448 21.236-5.982 31.953-2.033 14.203-4.448 28.48-4.75 42.765-.312 14.749.89 29.662 2.949 44.29 2.034 14.454 3.672 28.828 3.859 43.432.163 12.803-5.802 22.403-14.61 30.671-4.275 4.013-5.42 8.094-2.042 10.09 1.227.726 2.561 1.27 3.827 1.933 6.992 3.668 13.991 7.322 20.962 11.03 7.865 4.183 15.633 8.556 23.57 12.595 9.156 4.657 18.2 9.692 27.752 13.368 10.776 4.147 22.065 6.964 33.131 10.357 2.15.66 4.27 1.703 6.459 1.882 4.59.377 7.279-2.835 7.955-7.271 1.634-10.71-4.852-16.833-12.022-22.705-8.066-6.606-16.506-12.806-24.11-19.903-4.113-3.838-6.59-9.37-10.215-13.8-7.322-8.948-11.452-19.274-14.883-30.19-4.229-13.45-7.018-27.047-9.058-41.01-3.684-25.226-2.923-50.523-2.474-75.773.232-13.09 3.217-26.15 5.234-39.181 1.21-7.81 2.565-15.64 4.56-23.277 2.017-7.73 4.436-15.43 7.532-22.783 3.646-8.659 8.068-17.006 12.461-25.326 1.314-2.488 3.662-4.43 5.927-6.66"/></svg>