<svg xmlns="http://www.w3.org/2000/svg" viewBox="0 0 2001 1093" xml:space="preserve"><path fill="#fff" d="M94.172 693.147c-2.261 8.212-4.235 16.092-6.322 23.942-2.708 10.188-5.622 20.322-8.234 30.534-2.577 10.074-4.932 20.205-7.303 30.33-2.564 10.952-5.187 21.893-7.502 32.898-2.484 11.808-4.56 23.7-6.953 35.528-5.673 28.034-6.932 56.375-5.883 84.86.279 7.584 1.268 15.139 1.746 22.718.47 7.48.384 15.007 1.124 22.455a523 523 0 0 0 3.99 30.708c1.327 8.324 2.758 16.701 5.142 24.76 1.382 4.67 4.363 9.033 7.32 13.02 2.563 3.456 6.06 3.39 9.324.197 9.367-9.164 12.4-20.24 10.177-32.96-.197-1.126-.421-2.248-.575-3.38-1.394-10.204-1.45-20.83-4.516-30.504-3.374-10.647-1.981-21.51-4.283-32.136-2.486-11.482-3.179-23.358-4.518-35.077-.246-2.15.14-4.376.262-6.565.464-8.365-.88-16.617 1.551-25.165 1.942-6.823.185-14.644.527-22 .156-3.338 1.22-6.694 2.325-9.885.273-.787 2.398-1.492 3.538-1.324 6.064.893 12.086 2.075 17.71 3.084-.702 11.898-1.411 23.502-2.065 35.109-.382 6.771-1.308 13.588-.875 20.313.866 13.45 2.431 26.86 3.837 40.272.89 8.493 1.759 17.001 3.102 25.429 1.44 9.034 3.696 17.938 5.107 26.976 1.986 12.732 3.133 25.496-.325 38.255-3.714 13.705-11.833 24.245-23.199 32.275-2.267 1.602-5.91 1.47-8.951 1.69-2.082.15-4.307-1.006-6.316-.669-9.663 1.62-15.71-3.7-20.891-10.585-7.96-10.577-12.37-22.574-14.023-35.693-1.859-14.743-4.255-29.423-5.855-44.19-1.173-10.828-1.68-21.746-2.054-32.638-.552-16.1-1.43-32.24-.835-48.313.484-13.08 2.856-26.095 4.524-39.122 1.312-10.244 2.702-20.482 4.306-30.684.888-5.655 2.166-11.259 3.476-16.837 4.111-17.505 8.233-35.007 12.524-52.468 2.694-10.963 5.788-21.828 8.538-32.778 2.587-10.297 4.787-20.694 7.473-30.964 2.47-9.446 5.263-18.812 8.093-28.16 3.173-10.482 6.297-20.99 9.891-31.332 5.655-16.268 11.47-32.488 17.62-48.574 5.887-15.4 11.81-30.82 18.589-45.838 7.857-17.408 16.567-34.436 25.094-51.536 6.431-12.899 13.083-25.69 19.769-38.46 8.257-15.769 16.01-31.853 25.181-47.08 7.992-13.27 17.694-25.505 26.558-38.256 6.56-9.438 13.372-18.733 19.377-28.519 7.516-12.25 17.525-22.278 27.167-32.695 10.752-11.618 20.923-23.803 32.101-34.988 8.611-8.616 18.294-16.18 27.67-24.007 10.629-8.872 21.384-17.597 32.2-26.24 12.488-9.976 24.898-20.072 37.782-29.516 4.177-3.062 9.62-4.623 14.696-6.182 8.413-2.583 17.042-6.556 25.498-6.36 9.916.23 20.032-.13 30.15 3.051 15.655 4.921 29.322 13.507 43.92 20.336 13.917 6.509 27.624 13.47 41.573 19.905 15.818 7.298 31.66 14.582 47.758 21.224 14.778 6.096 29.884 11.406 44.901 16.91 7.493 2.747 15.042 5.38 22.687 7.66 10.019 2.987 20.163 5.552 30.243 8.338 8.61 2.38 17.267 4.616 25.79 7.279 10.92 3.411 21.769 7.07 32.572 10.842 8.295 2.897 16.493 6.081 24.697 9.235 12.57 4.831 25.171 9.589 37.638 14.674 10.25 4.18 20.377 8.676 30.464 13.242 12.512 5.662 24.707 12.093 37.464 17.115 7.505 2.954 15.776 4.155 23.806 5.542 11.287 1.948 22.67 3.337 34.013 4.963q.495.073.992.107c10.374.672 20.765 1.158 31.118 2.07 8.009.707 16.013 1.691 23.943 3.008 12.741 2.115 25.443 4.487 38.116 6.98 9.137 1.798 18.252 3.76 27.278 6.04 7.233 1.829 14.328 4.212 21.465 6.412 10.159 3.13 20.383 6.08 30.423 9.558 7.83 2.712 15.493 5.946 23.103 9.24 14.785 6.4 29.402 13.193 44.235 19.474 16.14 6.834 32.319 13.62 48.75 19.701 6.043 2.237 12.815 2.835 19.323 3.417 11.349 1.016 22.744 1.65 34.133 2.053 11.498.407 22.348-3.1 33.269-6.179 13.898-3.918 27.239-9.396 39.257-17.155 7.034-4.541 13.085-11.197 18.233-17.93 8.23-10.765 13.622-23.307 17.664-36.178 2.733-8.703 4.097-17.867 5.671-26.894 1.592-9.139 3.75-18.367 3.72-27.55-.034-10.253-2.019-20.536-3.584-30.74-1.414-9.216-3.289-18.369-5.193-27.501-1.096-5.262-2.93-10.377-3.927-15.653-.999-5.288-1.934-10.7-1.899-16.05.08-12.092 2.249-24.131 8.613-34.358 5.138-8.258 11.819-15.977 19.207-22.313 9.95-8.533 20.751-16.341 32.08-22.922 11.961-6.948 24.74-12.66 37.583-17.876 16.643-6.759 33.705-12.488 50.583-18.668 17.973-6.581 35.922-13.228 53.92-19.739 14.87-5.38 29.814-10.549 44.69-15.91 18.422-6.639 36.77-13.481 55.219-20.045 15.673-5.576 31.491-10.748 47.153-16.357 8.858-3.172 17.344-7.492 26.338-10.138 8.53-2.51 17.507-3.155 26.131.513 11.305 4.807 18.36 13.284 21.293 25.154 1.643 6.65 3.386 13.307 4.415 20.063.504 3.312-.388 6.875-.873 10.292-1.264 8.923-2.372 17.884-4.145 26.709-.61 3.035-2.817 5.838-4.62 8.528-4.85 7.228-8.426 14.63-8.373 23.793.056 9.87-1.677 19.748-1.682 29.622-.004 9.708 1.18 19.416 1.845 29.124.844 12.313-1.114 24.281-4.344 36.112-1.411 5.17 1.232 10.044 7.537 13.362 4.593 2.416 8.241-.49 11.567-3.134 3.134-2.49 3.269-8.227 1.981-12.298-2.45-7.75-4.61-15.645-6.124-23.625-1.736-9.153-2.812-18.445-3.844-27.713-.712-6.396-.243-12.97-1.404-19.26-1.938-10.503-.007-20.696 1.203-30.975.257-2.186 1.344-4.267 1.975-6.419 2.795-9.54 15.439-19.441 25.306-19.609 7.378-.125 14.863-.785 22.11.195 6.883.931 13.55 3.58 20.255 5.66 10.649 3.3 21.289 6.64 31.86 10.183 7.961 2.668 15.759 5.827 23.722 8.49 7.038 2.355 14.215 4.292 21.31 6.477 13.24 4.077 24.134 11.472 27.031 25.584 1.6 7.793.74 16.561-.969 24.466-3.83 17.714-14.55 31.981-25.611 45.859-5.958 7.473-11.894 14.977-18.164 22.184-10.628 12.217-20.809 24.945-32.456 36.126-17.399 16.702-35.975 32.173-53.923 48.31-16.123 14.496-32.002 29.264-48.121 43.764-17.165 15.44-34.516 30.674-51.725 46.065-7.903 7.07-15.676 14.284-23.483 21.46-15.678 14.41-31.42 28.68-49.659 39.975-9.75 6.038-18.558 13.605-28.348 19.566-12.376 7.536-25.277 14.218-38.037 21.11-5.655 3.054-11.345 6.182-17.333 8.447-7.788 2.946-15.827 5.289-23.872 7.476-7.24 1.969-14.686 3.173-21.944 5.085-8.768 2.31-17.49 3.889-26.675 4.202-15.618.533-31.175 2.659-46.788 3.64-6.03.38-12.145-.853-18.217-.799-19.61.176-39.216.834-58.824.869-15.344.027-30.689-.607-46.034-.925-16.774-.348-33.569-.275-50.317-1.126-13.623-.692-27.192-2.454-40.781-3.785-10.152-.995-20.318-1.885-30.437-3.147-8.116-1.011-16.165-2.548-24.255-3.783-9.341-1.427-18.723-2.608-28.032-4.214-7.557-1.305-15.029-3.097-22.544-4.643-7.044-1.448-14.22-2.42-21.115-4.383-11.6-3.304-23.053-7.142-34.516-10.915-9.792-3.223-19.551-6.556-29.249-10.054-7.348-2.65-14.717-5.322-21.827-8.536-15.204-6.873-30.273-14.047-45.349-21.2-22.897-10.864-45.704-21.919-68.712-32.54-1.966-.908-6.386-.099-7.564 1.48-6.68 8.96-14.043 6.531-22.018 2.495-13.172-6.666-26.34-13.363-39.731-19.568-15.24-7.06-30.672-13.715-46.113-20.33-21.296-9.126-42.783-17.814-63.99-27.14-14.362-6.315-28.378-13.417-42.56-20.142-12.994-6.16-26.032-12.227-38.998-18.446-12.009-5.76-23.894-11.78-35.93-17.48-19.654-9.312-39.402-18.426-59.074-27.7-3.732-1.76-7.24-3.99-10.948-5.808-9.564-4.695-19.174-9.298-28.78-13.906-11.813-5.666-23.645-11.289-35.46-16.95-10.89-5.22-21.547-11.02-32.732-15.502-7.195-2.883-15.09-4.757-22.802-5.336-4.899-.368-10.672 1.432-14.957 4.052-16.658 10.186-33.344 20.45-49.125 31.914-14.518 10.546-27.812 22.766-41.782 34.078-17.195 13.924-29.76 31.796-42.115 49.731-7.039 10.216-13.06 21.19-18.887 32.169-8.01 15.09-15.234 30.594-23.099 45.763-13.097 25.26-26.747 50.238-39.55 75.644-6.942 13.775-12.525 28.23-18.889 42.303-4.956 10.96-10.427 21.695-15.207 32.73-5.424 12.522-10.473 25.212-15.43 37.928-6.95 17.828-13.745 35.717-20.452 53.638-3.979 10.631-8.057 21.252-11.377 32.096-4.147 13.541-7.457 27.336-11.332 40.964-1.95 6.862-4.627 13.523-6.471 20.41-1.933 7.215-3.263 14.591-4.94 22.282l16.94 4.129c-1.46 6.377-2.883 12.603-4.447 19.443L68.757 812.15l4.507-19.42c4.265.966 8.465 1.718 12.543 2.895 3.952 1.14 5.797-.193 6.642-4.1 1.444-6.67 3.02-13.321 4.846-19.896 2.277-8.2 5.225-16.225 7.244-24.482 5.054-20.668 11.357-40.891 19.326-60.64 5.6-13.883 10.346-28.107 15.645-42.114 5.168-13.66 10.278-27.354 15.916-40.824a1593 1593 0 0 1 21.884-49.859c8.734-19.017 17.616-37.977 26.97-56.695 8.722-17.455 18.352-34.456 27.196-51.853 6.687-13.153 12.61-26.691 19.17-39.91 4.331-8.727 9.087-17.249 13.843-25.755 4.524-8.09 8.909-16.3 14.06-23.985 6.267-9.35 13.702-17.925 19.85-27.346 7.813-11.973 19.495-19.973 29.07-30.1 10.255-10.845 21.71-20.128 33.938-28.548 14.648-10.088 29.246-20.256 44.056-30.103 11.262-7.487 22.781-14.776 36.9-15.316 9.584-.367 19.209.045 28.165 4.016 12.854 5.7 25.658 11.523 38.353 17.569 21.087 10.041 42.045 20.352 63.104 30.454 21.215 10.177 42.53 20.147 63.72 30.375 17.896 8.637 35.604 17.664 53.533 26.23 12.58 6.01 25.471 11.369 38.077 17.327 12.617 5.964 24.857 12.753 37.62 18.368 13.17 5.794 26.826 10.47 40.162 15.901 9.014 3.671 17.833 7.82 26.752 11.726 13.236 5.798 26.571 11.377 39.698 17.41a923 923 0 0 1 36.862 17.955c3.681 1.894 6.84.952 9.429-.811 8.325-5.668 16.885-4.013 24.809-.4 22.964 10.473 45.595 21.675 68.403 32.494 15.239 7.228 30.31 14.898 45.912 21.247 14.368 5.846 29.351 10.179 44.054 15.205 7.33 2.506 14.552 5.376 21.981 7.537 9.607 2.793 19.366 5.07 29.072 7.514 4.244 1.07 8.54 1.932 12.78 3.017 8.787 2.248 17.464 4.276 26.704 4.86 12.106.767 24.037 4.036 36.099 5.86 8.924 1.35 17.937 2.12 26.912 3.133 11.738 1.324 23.45 3.1 35.226 3.811 11.293.682 22.66.03 33.981.384 8.555.267 17.082 1.348 25.636 1.753 3.415.162 6.874-.821 10.305-.761 10.711.186 21.417.692 32.128.904 2.252.045 4.527-.97 6.776-.91 5.748.152 11.484.702 17.23.957 3.058.136 6.128-.025 9.193-.026 12.833-.007 25.69.491 38.492-.128 17.099-.826 34.154-2.53 51.23-3.818 1.99-.15 3.999-.068 5.999-.057 6.255.036 12.2-.734 18.338-2.731 9.244-3.008 19.062-4.222 28.59-6.403 3.938-.902 7.937-1.934 11.595-3.595 12.67-5.756 25.647-11.043 37.666-17.968 12.89-7.426 24.813-16.526 37.188-24.85 8.772-5.901 18.007-11.204 26.289-17.723 9.832-7.738 18.78-16.589 28.264-24.783 10.199-8.813 20.62-17.37 30.833-26.167 2.096-1.806 3.49-4.419 5.57-6.25 9.647-8.503 19.53-16.74 29.108-25.319 5.34-4.783 10.042-10.28 15.396-15.046 11.495-10.231 23.294-20.118 34.825-30.31 4.61-4.075 8.79-8.635 13.262-12.874 3.111-2.95 6.341-5.777 9.592-8.574 8.602-7.401 17.349-14.638 25.828-22.176 4.781-4.25 8.81-9.385 13.763-13.397 15.096-12.225 26.258-27.824 37.96-43.001 7.609-9.868 15.655-19.404 23.127-29.371 7.2-9.605 9.958-21.055 12.07-32.615.667-3.645-4.64-9.959-8.81-11.163-7.286-2.105-14.614-4.086-21.827-6.419-10.47-3.385-20.873-6.982-31.27-10.59-8.101-2.813-16.083-5.985-24.24-8.62-8.327-2.691-16.692-6.376-25.24-7.03-14.488-1.11-20.13 2.557-20.523 16.852-.32 11.61 1.66 23.284 2.621 34.93.353 4.268.616 8.547 1.084 12.803.95 8.64 1.651 17.332 3.182 25.873.722 4.024 3.597 7.62 4.669 11.632 2.535 9.487 2.585 19.18-3.383 27.343-4.934 6.75-11.496 11.531-19.938 14.593-9.363 3.396-17.682 1.017-24.959-2.838-7.196-3.812-13.287-9.835-16.457-18.684-3.603-10.053.087-18.723 1.887-27.95 1.921-9.846 3.29-19.669 1.62-29.83-1.12-6.815-.689-13.871-1.238-20.797-1.202-15.16-.77-30.285 3.104-44.971 1.821-6.908 6.07-13.143 8.81-19.85 2.3-5.628 5.266-11.404 5.706-17.282.822-10.968 1.016-22.095-2.538-32.9-2.505-7.612-10.58-12.586-19.517-8.911-16.627 6.837-33.645 12.733-50.542 18.908a7558 7558 0 0 1-53.491 19.302c-15.567 5.557-31.22 10.873-46.75 16.527-9.739 3.546-19.238 7.754-28.996 11.24-10.688 3.817-21.577 7.069-32.33 10.707a2234 2234 0 0 0-35.74 12.403c-7.491 2.677-15.218 4.987-22.25 8.607-20.061 10.33-42.29 16.76-59.537 32.2-7.778 6.962-15.499 14.076-22.453 21.832-2.961 3.303-4.547 8.27-5.618 12.752-2.664 11.145-2.103 22.117 1.876 33.157 2.845 7.894 4.25 16.353 5.821 24.65 2.456 12.956 4.594 25.975 6.651 39 .368 2.329-.222 4.83-.507 7.235-1.33 11.224-2.025 22.58-4.256 33.625-2.36 11.682-5.785 23.203-9.544 34.529-2.28 6.87-5.828 13.369-9.262 19.791-3.086 5.772-6.4 11.508-10.334 16.717-4.357 5.772-9 11.559-14.499 16.172-5.354 4.492-11.716 7.98-18.049 11.061-9.697 4.718-19.653 8.948-29.69 12.903-4.941 1.948-10.305 2.83-15.483 4.173-14.157 3.672-28.624 4.944-43.118 3.922-13.725-.967-27.515-2.37-40.991-5.03-9.105-1.797-17.8-5.886-26.527-9.335-16.254-6.423-32.486-12.92-48.56-19.776-14.255-6.082-28.129-13.071-42.465-18.94-9.57-3.916-19.604-6.742-29.525-9.743-10.235-3.097-20.55-5.95-30.901-8.636-4.41-1.144-9.016-1.51-13.5-2.39-3.305-.65-6.529-1.721-9.84-2.326-8.981-1.642-17.987-3.154-26.99-4.681-8.672-1.472-17.332-3.042-26.037-4.3-7.31-1.058-14.678-1.724-22.02-2.57-20.712-2.386-41.514-4.188-62.1-7.381-12.635-1.96-23.906-8.394-35.342-14.181-12.398-6.274-25.548-11.06-38.368-16.498-4.725-2.004-9.416-4.092-14.175-6.01-8.109-3.269-16.23-6.512-24.4-9.62-8.87-3.375-17.768-6.687-26.72-9.835-7.885-2.773-15.903-5.167-23.789-7.936-10.086-3.54-19.996-7.614-30.178-10.841-7.577-2.402-15.508-3.66-23.204-5.72-11.263-3.015-22.59-5.894-33.647-9.56-13.404-4.444-26.756-9.17-39.77-14.633-19.996-8.392-39.685-17.514-59.502-26.329-8.994-4-18.087-7.794-26.952-12.061-13.242-6.374-26.64-12.531-39.351-19.858-7.59-4.374-15.737-7.957-23.797-8.998-11.635-1.503-23.479-1.482-35.332 3.537-17.199 7.282-30.645 19.33-44.88 30.511-16.718 13.132-33.563 26.142-49.669 39.998-9.29 7.993-17.344 17.45-25.754 26.435-11.456 12.239-23.132 24.31-33.92 37.122-6.908 8.206-12.413 17.599-18.495 26.495-6.899 10.09-13.557 20.35-20.64 30.309-16.106 22.643-29.004 47.035-40.664 72.194-4.757 10.264-11.02 19.82-16.24 29.884-7.248 13.975-14.478 27.977-21.115 42.248-5.255 11.3-9.56 23.04-14.37 34.55-3.607 8.637-7.72 17.082-10.937 25.859-5.358 14.622-10.24 29.42-15.204 44.185-3.982 11.843-7.918 23.705-11.6 35.644-1.337 4.331-1.88 8.907-3.023 13.717"/></svg>