<svg xmlns="http://www.w3.org/2000/svg" viewBox="0 0 1903 1000" xml:space="preserve"><path fill="#fff" d="M346.941 724.005c12.71 37.701 24.862 75.127 29.148 114.978l-23.643 3.004c-1.787-8.852-3.498-17.693-5.371-26.499-1.99-9.35-3.785-18.763-6.295-27.977a901 901 0 0 0-11.867-39.816c-5.034-15.602-10.42-31.092-15.827-46.57-5.38-15.408-11.021-30.725-16.458-46.113-3.627-10.265-7.01-20.615-10.655-30.873-5.694-16.025-11.622-31.967-17.247-48.016-3.119-8.899-5.739-17.972-8.742-26.914-2.76-8.22-5.851-16.33-8.58-24.56-2.93-8.83-5.535-17.768-8.416-26.615-2.443-7.501-5.078-14.94-7.63-22.406-3.428-10.03-7.065-19.996-10.227-30.11-2.93-9.372-5.641-18.832-7.923-28.38-2.673-11.186-4.6-22.549-7.178-33.76-2.421-10.528-5.389-20.93-7.897-31.439-3.15-13.196-5.738-26.535-9.192-39.648-3.887-14.759-8.683-29.277-12.67-44.01-2.489-9.195-4.251-18.588-6.27-27.907-1.818-8.386-3.788-16.75-5.22-25.204-.985-5.807-1.036-11.766-1.752-17.627-.49-4.02-.324-8.76-2.457-11.746-1.89-2.646-6.835-5.053-9.927-4.537-9.59 1.598-14.793-5.176-20.958-9.737-2.492-1.843-3.684-6.012-4.56-9.36-2.389-9.122-5.774-17.879-11.319-25.382-2.874-3.89-7.585-6.597-11.825-9.267-10.8-6.8-21.858-13.19-32.705-19.917-8.655-5.368-17.228-10.878-25.67-16.575-2.334-1.576-4.785-3.709-5.942-6.17-3.683-7.837-6.443-15.875-5.705-24.952 1.083-13.326 12.81-29.352 25.755-32.566 13.26-3.293 26.763-4.583 40.515-2.458 6.82 1.055 13.837.89 20.77 1.153 10.265.39 20.536.626 30.801 1.004 17.861.656 35.722 1.314 53.579 2.08 13.196.567 26.385 1.337 39.58 1.96 14.858.703 29.72 1.337 44.58 2.014 14.361.654 28.723 1.293 43.082 1.998 19.796.971 39.591 1.963 59.383 3.018 10.531.562 21.047 1.53 31.583 1.869 26.19.844 52.39 1.336 78.58 2.183 7.703.249 15.377 1.649 23.075 1.765 19.173.288 38.355-.094 57.526.226 26.697.446 53.387 1.277 80.08 1.959 25.529.652 51.055 1.561 76.589 1.937 55.026.81 110.054 1.527 165.084 1.915 23.26.164 46.525-.676 69.79-.917 37.764-.392 75.531-.609 113.296-1.016 16.596-.18 33.2-1.145 49.782-.828 14.125.27 28.38.908 42.292 3.157 12.83 2.074 25.338 6.308 37.878 9.968 8.805 2.57 17.564 5.42 26.094 8.777 12.088 4.758 24.089 9.793 35.865 15.272 12.675 5.898 24.794 13.044 37.648 18.484 7.602 3.217 16.097 4.488 24.3 6.064a111 111 0 0 0 18.548 1.972c6.745.143 13.51-.557 20.262-.962 3.94-.236 7.865-.74 11.806-.908 24.296-1.031 48.598-1.94 72.891-3.018 11.025-.489 22.032-1.64 33.056-1.782 6.84-.088 13.686 1.514 20.548 1.72 10.828.327 21.704-.386 32.502.272 11.244.685 22.422 2.46 33.625 3.786 8.282.98 16.596 1.771 24.825 3.087 6.002.96 11.937 2.458 17.817 4.033 10.598 2.84 21.468 5.07 31.626 9.072 22.44 8.84 44.658 18.52 64.94 31.633 18.032 11.659 36.49 22.85 52.256 37.797 12.964 12.291 26.752 23.712 39.73 35.99 16.036 15.174 30.96 31.366 44.463 48.94 7.916 10.303 14.163 21.467 18.522 33.357 3.403 9.282 5.361 19.408 3.327 29.798-1.347 6.877-1.145 14.047-2.316 20.97-1.878 11.106-5.723 21.523-12.75 30.548-8 10.275-18.89 16.613-30.613 21.34-7.27 2.932-15.134 4.427-22.778 6.385-10.338 2.647-20.709 5.17-31.088 7.652-10.528 2.518-21.087 4.906-31.626 7.378-10.248 2.403-20.502 4.78-30.726 7.28-13.018 3.183-26.012 6.464-39.01 9.727-11.726 2.943-23.434 5.966-35.17 8.87a7690 7690 0 0 1-45.163 11.02c-11.256 2.712-22.498 5.498-33.813 7.943-14.881 3.217-29.849 6.035-44.741 9.205-12.492 2.659-24.874 5.861-37.408 8.296-12.22 2.374-24.188 5.941-36.754 6.797-8.355.57-16.587 2.793-24.902 4.1-12.997 2.04-25.934 3.47-38.664-1.872-4.871-2.044-10.464-2.491-15.148-4.83-5.586-2.789-10.939-6.37-15.691-10.43-7.343-6.27-14.146-13.18-21.078-19.922-15.054-14.64-29.73-29.684-45.172-43.9-9.994-9.2-20.49-18.314-34.292-21.51-12.947-2.998-24.784-1.47-35.797 7.512-8.197 6.686-13.053 15.602-19.47 23.447-9.712 11.87-18.713 24.325-28.572 36.065-8.05 9.586-16.553 18.858-25.506 27.603-11.378 11.115-23.61 21.168-38.397 27.818-15.204 6.837-29.805 15.084-45.222 21.36-12.719 5.176-25.83 10.032-40.241 8.493-8.193-.875-16.784.473-24.679-1.38-17.377-4.08-34.17-10.212-50.669-17.2-8.086-3.426-16.974-4.917-25.404-7.581-11.992-3.79-23.847-8.019-35.863-11.724-4.91-1.513-10.057-2.779-15.154-3.045-9.312-.485-18.703-.629-27.991.046-5.129.373-10.458 2.003-15.092 4.292a263 263 0 0 0-25.636 14.505c-17.04 10.952-33.724 22.457-50.708 33.5-10.841 7.049-22 13.607-32.94 20.507-16.082 10.142-32.102 20.382-48.134 30.602-12.16 7.752-24.247 15.621-36.462 23.285-12.673 7.95-22.237 18.961-31.625 30.391-10.029 12.21-15.831 26.519-22.115 40.622-4.172 9.362-8.098 18.886-11.317 28.608-2.835 8.566-4.453 17.529-6.764 26.275-2.553 9.663-5.698 19.188-7.816 28.94-2.098 9.66-3.079 19.557-4.847 29.297-1.565 8.614-3.201 17.242-5.415 25.705-2.81 10.735-6.617 21.215-9.288 31.98-2.845 11.466-4.527 23.22-7.331 34.698-3.68 15.063-10.334 28.255-22.922 38.422-12.986 10.49-27.766 14.265-43.786 15.163-6.916.388-13.84.898-20.76.879-8.105-.022-16.35.277-24.28-1.067-12.507-2.12-24.972-5.017-35.607-12.697-12.595-9.096-18.161-22.46-21.09-36.86-1.402-6.897-.502-14.306-.276-21.471.129-4.099-1.371-5.292-5.291-4.762-5.088.688-10.23.976-15.838 1.48l-1.96-19.872 65.951-6.08 1.976 19.86-21.244 2.066c.403 4.957.703 9.805 1.214 14.632.656 6.207.841 12.56 2.375 18.559 2.784 10.885 11.674 16.006 21.548 18.214 8.556 1.912 17.594 1.922 26.438 2.22 10.02.338 20.062-.072 30.091.083 14.658.226 33.128-11.815 36.779-27.041 2.827-11.79 5.839-23.537 8.932-35.26 2.356-8.927 5.113-17.748 7.419-26.686 1.744-6.76 3.143-13.613 4.546-20.455 2.126-10.369 4.199-20.75 6.13-31.155.675-3.639.4-7.493 1.357-11.034 3.83-14.178 8.014-28.26 11.981-42.4 1.97-7.017 3.056-14.366 5.753-21.078 7.42-18.468 15.457-36.689 23.297-54.987 5.39-12.582 15.264-21.939 23.463-32.51 12.862-16.583 31.53-25.392 48.47-36.5 12.38-8.118 24.934-15.97 37.459-23.863 15.989-10.076 32.152-19.88 48.012-30.153 20.767-13.451 41.152-27.495 62.013-40.794 11.33-7.223 23.215-13.604 35.063-19.967 2.763-1.483 6.37-1.578 9.63-1.916 8.176-.848 16.471-2.605 24.547-1.931 14.322 1.195 28.654 1.713 42.423 8.127 11.773 5.483 25.203 7.295 37.659 11.454 12.547 4.19 24.686 9.594 37.203 13.887 17.86 6.124 36.072 11.88 55.202 8.966 9.444-1.438 18.643-5.196 27.627-8.732 8.742-3.44 17.052-7.974 25.581-11.963 12.488-5.842 24.457-12.489 35.073-21.42 17.331-14.578 32.157-31.441 45.563-49.606 9.009-12.206 17.603-24.73 26.948-36.67 9.127-11.658 20.794-20.363 34.995-24.914 4.584-1.469 9.79-1.014 14.716-1.396 18.733-1.45 34.542 6.082 48.892 16.885 9.826 7.398 19.082 15.63 28.068 24.049 10.752 10.075 20.826 20.87 31.416 31.123 8.968 8.683 17.611 17.92 27.633 25.216 6.225 4.532 14.562 7.232 22.296 8.337 8.565 1.223 17.627.42 26.289-.805 14.66-2.074 29.22-4.952 43.739-7.903 14.957-3.04 29.812-6.585 44.717-9.882 16.476-3.644 32.978-7.169 49.43-10.914 11.211-2.552 22.338-5.479 33.538-8.082 10.6-2.463 21.289-4.554 31.866-7.106 19.867-4.793 39.655-9.911 59.527-14.683 16.25-3.902 32.602-7.387 48.86-11.263 13.234-3.155 26.397-6.608 39.588-9.94 17.438-4.404 35.156-7.95 52.225-13.49 15.022-4.878 25.687-15.068 27.824-31.986.797-6.306 2.21-12.539 2.908-18.853 1.918-17.329-5.509-31.806-15.014-45.261-5.9-8.353-12.738-16.096-19.63-23.682-8.592-9.458-17.244-18.942-26.645-27.57-14.23-13.06-28.696-25.942-43.868-37.875-14.588-11.474-29.772-22.332-45.502-32.169-11.993-7.5-25.198-13.086-37.962-19.321-7.076-3.456-14.132-7.205-21.596-9.549-10.03-3.149-20.417-5.2-30.705-7.474-8.561-1.892-17.164-3.657-25.816-5.06-9.53-1.544-19.102-3.08-28.717-3.767-12.232-.875-24.524-.967-36.793-1.262-15.44-.37-30.889-.998-46.324-.794-17.547.231-35.173.377-52.605 2.138-28.138 2.843-56.298 3.206-84.466 2.386-8.61-.25-17.119-3.592-25.698-5.405-13.696-2.894-24.499-11.951-37.06-17.295-16.137-6.864-31.56-15.337-48.585-20.187-10.392-2.96-20.253-7.94-30.731-10.405-13.267-3.12-26.281-7.656-40.297-7.552-12.385.092-24.776-1.517-37.172-1.647-14.273-.15-28.555.498-42.833.806-15.268.329-30.535.81-45.804.97-40.482.426-80.966.663-121.447 1.081-16.773.174-33.543.626-50.314.938-17.616.326-35.238 1.05-52.848.853-24.879-.278-49.75-1.23-74.624-1.919-10.776-.298-21.555-.56-32.326-1.017-11.714-.497-23.415-1.359-35.132-1.763-8.366-.288-16.75.022-25.123-.118-18.437-.31-36.872-.72-55.307-1.116-13.775-.297-27.55-.634-41.323-.958q-21.47-.507-42.938-1.024c-13.274-.32-26.55-.559-39.82-.986a6278 6278 0 0 1-55.632-2.036c-13.71-.563-27.411-1.306-41.116-1.987-19.98-.993-39.96-2.003-59.939-3.002-6.438-.322-12.876-.66-19.316-.944-15.874-.698-31.75-1.316-47.622-2.066-12.38-.585-24.751-1.344-37.129-1.98a9617 9617 0 0 0-40.638-2.001c-7.604-.359-15.212-.649-22.819-.95-17.376-.69-34.788-.926-52.113-2.273-6.711-.522-12.82.236-19.138 1.966-4.936 1.352-6.89 5.043-7.52 9.232-.699 4.637-1.153 9.646 3.93 12.85 11.153 7.03 22.201 14.225 33.346 21.267 10.713 6.77 21.428 13.54 32.271 20.096 6.358 3.844 8.66 10.567 11.825 16.47 3.568 6.654 5.5 14.171 8.855 20.962 1.053 2.131 4.215 3.704 6.74 4.53 6.444 2.108 13.245 3.21 19.539 5.653 2.313.897 3.89 4.268 5.307 6.79 4.468 7.942 5.936 16.717 7.086 25.658 1.708 13.28 3.638 26.547 6.07 39.709 1.585 8.57 4.198 16.953 6.409 25.404a13184 13184 0 0 0 10.54 39.984c3.403 12.845 6.988 25.645 10.196 38.539 2.506 10.067 4.397 20.286 6.855 30.366 2.614 10.716 5.657 21.327 8.365 32.02 3.62 14.302 6.809 28.72 10.751 42.93 2.194 7.908 5.625 15.467 8.345 23.236 2.88 8.225 5.627 16.498 8.346 24.778 3.436 10.462 6.692 20.984 10.192 31.424 7.554 22.53 15.037 45.088 22.89 67.515 5.885 16.804 12.428 33.377 18.448 50.135 6.294 17.519 12.41 35.102 18.412 52.723 2.973 8.728 5.484 17.613 8.284 26.402.38 1.194 1.228 2.24 1.896 3.76"/></svg>