<svg xmlns="http://www.w3.org/2000/svg" viewBox="0 0 1599 1000" xml:space="preserve"><path fill="#fff" d="M971.612 34.373c11.398 21.083 22.538 41.876 33.752 62.63 8.379 15.506 16.87 30.951 25.278 46.442 10.703 19.717 21.36 39.46 32.06 59.18a27026 27026 0 0 0 30.73 56.485c2.417 4.426 4.944 8.793 7.504 13.138 1.234 2.095 2.54 2.834 5.561 2.335 15.178-2.508 30.42-4.763 45.715-6.382 11.646-1.233 23.403-1.804 35.116-1.873 8.703-.052 17.424 1.058 26.117 1.86 8.666.801 17.382 1.434 25.943 2.913 12.18 2.104 24.295 4.674 36.335 7.486 13.747 3.21 27.292 7.327 41.098 10.223 7.68 1.611 15.7 1.735 23.587 2.178 9.925.557 19.872 1.05 29.807 1.001 6.035-.03 12.07-1.698 18.094-1.625a212 212 0 0 1 25.563 1.864c11.805 1.583 23.644 3.317 35.22 6.042 5.33 1.255 10.18 4.829 15.058 7.677 11.74 6.854 16.942 18.33 19.677 30.725 1.2 5.438-.372 11.568-1.094 17.333-1.444 11.527-3.41 22.99-4.712 34.532-1.308 11.6-2.851 23.26-2.891 34.9-.062 18.22 1.267 36.44 1.582 54.67.157 9.103-.372 18.244-1.108 27.326-.303 3.743-2.328 7.317-2.942 11.07-1.882 11.503-7.516 21.414-13.206 31.214-7.567 13.035-20.21 19.176-34.062 23.053-13.351 3.737-26.723 1.187-39.954-1.055-2.803-.475-5.281-3.085-7.824-4.835-22.295-15.345-44.595-30.683-66.842-46.096-12.752-8.835-25.4-17.817-38.11-26.713-13.163-9.212-26.668-17.849-42.275-22.366-6.438-1.864-13.17-1.65-19.209 1.333-5.397 2.666-10.925 11.033-5.275 17.533 6.242 7.18 13.063 13.862 19.723 20.67 6.808 6.96 13.788 13.752 20.577 20.73 4.909 5.044 9.814 10.112 14.398 15.447 14.497 16.87 30.407 32.586 42.287 51.608 10.429 16.699 21.097 33.25 31.332 50.066 4.63 7.608 8.463 15.702 12.669 23.569.765 1.43 1.32 3.097 2.423 4.205 10.966 11.012 22.022 21.894 37.68 26.236 3.55.985 6.817 3.184 10.395 3.844 8.971 1.655 18.015 3.512 27.086 3.876 11.918.478 23.946.2 35.816-.922 6.807-.642 13.436-3.467 20.073-5.54 12.838-4.008 25.591-8.288 38.443-12.25 11.609-3.58 23.173-7.462 35.003-10.103 7.465-1.666 15.403-1.906 23.093-1.664 7.083.222 13.648 12.122 9.536 19.586-3.825 6.941-8.384 13.168-14.81 18.112-6.263 4.817-12.287 10.046-17.832 15.67-14.045 14.245-30.31 25.63-46.495 37.157-10.626 7.568-20.97 15.554-31.845 22.741-7.024 4.643-14.72 8.295-22.221 12.186-13.36 6.93-26.786 13.729-40.208 20.537-18.043 9.153-35.455 19.439-54.8 26.096-23.293 8.014-45.981 17.768-69.115 26.269-12.59 4.626-25.582 8.146-38.35 12.299-9.404 3.058-18.813 6.13-28.081 9.568-9.243 3.429-18.794 5.054-28.498 6.39-10.01 1.38-19.917 3.501-29.894 5.14-6.604 1.086-13.234 2.505-19.887 2.72-27.37.883-54.753 1.686-82.136 1.856a407 407 0 0 1-43.104-2.002c-20.192-2.024-40.276-5.11-60.413-7.684-13.8-1.764-27.695-2.943-41.398-5.262-16.968-2.871-34.151-4.643-50.612-10.376-9.459-3.295-19.585-4.63-29.159-7.647-10.182-3.209-20.051-7.407-30.086-11.094-12.128-4.456-24.288-8.823-36.426-13.25-.72-.263-1.367-.721-2.21-1.175l5.344-20.94c6.982 2.305 13.754 4.245 20.304 6.763 14.897 5.726 29.593 11.985 44.56 17.517 6.646 2.456 13.737 3.726 20.647 5.449 9.898 2.467 19.75 5.185 29.743 7.193 11.479 2.307 23.087 3.97 34.644 5.887 8.37 1.39 16.753 2.703 25.119 4.115 5.283.892 10.515 2.175 15.826 2.8 7.837.92 15.738 1.284 23.586 2.12 9.764 1.039 19.503 2.315 29.251 3.5.812.098 1.61.374 2.421.407 9.431.375 18.86.864 28.295 1.044 21.437.408 42.888 1.218 64.312.783 14.575-.296 29.16-2.045 43.656-3.836 15.413-1.904 30.853-4.013 46.039-7.19 11.18-2.338 22.005-6.426 32.924-9.935 16.145-5.188 32.302-10.355 48.322-15.91 11.731-4.07 23.251-8.746 34.864-13.156 15.533-5.898 31.232-11.4 46.537-17.841 10.079-4.241 19.61-9.794 29.347-14.834 11.772-6.093 23.427-12.415 35.267-18.37 24.575-12.362 47.373-27.415 69.801-43.335 18.277-12.975 34.762-27.857 51.584-42.452.949-.822 1.374-2.248 1.294-4.484-12.11 3.802-24.226 7.581-36.326 11.411-13.703 4.337-27.358 8.83-41.094 13.055-17.523 5.39-35.627 4.327-53.539 3.833-19.037-.524-36.76-6.39-54.193-14.216-8.31-3.73-14.548-9.19-20.957-14.865-5.523-4.89-11.561-9.704-15.5-15.767-7.455-11.479-13.122-24.105-20.337-35.755-12.314-19.883-24.924-39.602-38.086-58.93-5.063-7.434-11.952-13.632-18.053-20.354-10.046-11.067-19.93-22.288-30.27-33.075-5.804-6.055-12.461-11.285-18.595-17.036-9.342-8.76-19.277-17.592-22.35-30.413-2.115-8.828-1.963-18.52 5.822-25.884 2.743-2.594 4.642-6.237 7.664-8.341 3.74-2.605 8.141-4.404 12.463-5.989 3.159-1.158 6.67-2.05 9.989-1.949 12.305.38 23.738 3.674 34.92 9.234 14.85 7.384 28.047 16.999 41.485 26.487 17.247 12.177 35.215 23.328 52.648 35.248 13.307 9.1 26.539 18.355 39.258 28.244 5.991 4.658 12.671 4.758 19.276 5.333 4.672.406 9.687-.478 14.236-1.833 9.788-2.916 18.127-7.596 23.178-17.542 7.65-15.063 11.187-30.759 10.943-47.546-.23-15.83.094-31.667-.185-47.495-.116-6.544-1.195-13.07-1.775-19.609-.147-1.655-.275-3.36-.045-4.992 1.706-12.118 3.524-24.22 5.26-36.334.349-2.44.393-4.922.753-7.36 1.245-8.422 3.289-16.804 3.624-25.257.252-6.383-2.22-12.704-7.409-17.115-7.898-6.715-16.917-10.363-27.532-10.914-9.408-.489-18.715-3.3-28.108-3.555-11.014-.3-22.079 1.64-33.11 1.522-10.649-.115-21.283-1.611-31.923-2.51-4.59-.387-9.215-.552-13.756-1.257-7.207-1.118-14.396-2.422-21.522-3.974-14.894-3.244-29.749-6.673-44.607-10.085-5.822-1.337-11.574-3.002-17.423-4.2-4.154-.85-8.404-1.499-12.634-1.665-19.86-.784-39.728-1.864-59.59-1.816-9.904.024-19.816 2.137-29.697 3.502-9.208 1.271-18.38 2.803-27.57 4.218-.97.15-1.976.174-2.912.444-11.288 3.26-15.842 1.119-20.842-9.14-4.04-8.287-8.41-16.42-12.817-24.52-9.275-17.056-18.687-34.037-28.012-51.066-11.662-21.296-23.34-42.583-34.918-63.926-5.86-10.801-11.495-21.724-17.26-32.577-8.186-15.413-16.348-30.84-24.614-46.21-6.042-11.233-12.27-22.364-18.34-33.58-1.857-3.431-2.86-5.243-7.932-2.816-22.973 10.996-46.424 20.989-69.61 31.547-18.385 8.371-36.659 16.989-54.939 25.59-20.922 9.845-41.73 19.938-62.71 29.659-25.24 11.696-50.656 23.017-75.91 34.686-16.418 7.586-32.642 15.59-49.028 23.247-16.385 7.656-32.75 15.377-49.335 22.582-15.833 6.877-28.343 17.158-34.644 33.439-3.008 7.772-4.354 16.226-6.077 24.45-2.765 13.197-5.208 26.462-7.805 39.695-2.41 12.273-4.728 24.566-7.298 36.806-2.21 10.525-7.234 19.995-11.216 29.885-5.869 14.578-16.804 24.573-28.008 34.226-8.748 7.538-18.594 14.067-28.734 19.618-5.739 3.142-13.028 3.524-19.663 4.946-25.433 5.448-51.22 2.826-76.841 2.763-12.506-.03-25.004-2.837-37.506-4.38-6.338-.783-12.687-1.488-19.016-2.337-14.337-1.925-28.333.934-42.387 2.945-6.308.903-12.638 1.747-18.878 3.012-9.488 1.923-19.065 3.656-28.315 6.434-13.568 4.074-27.345 7.989-40.157 13.878-10.616 4.88-20.072 12.358-29.814 19.02-3.11 2.127-5.32 5.52-8.228 8-11.332 9.663-18.789 22.018-25.391 35.126-3.276 6.504-8.007 12.276-11.262 18.787-3.58 7.162-6.447 14.71-9.22 22.24-4.064 11.042-7.727 22.232-11.638 33.331-3.316 9.408-7.063 18.678-10.017 28.195-2.352 7.58-3.795 15.442-5.645 23.178-2.75 11.49-5.513 22.976-8.25 34.468-3.268 13.714-5.954 27.598-9.923 41.104-4.248 14.454-3.367 29.284-4.799 43.934-1.345 13.764-1.42 27.674-3.235 41.364-1.515 11.422 2.423 21.886 3.574 32.812.496 4.711.57 9.661 2.154 14.024 3.299 9.086 7.586 17.807 11.269 26.76 7.156 17.398 19.07 31.806 30.275 46.462 5.26 6.878 13.571 11.723 21.144 16.46 10.712 6.7 21.657 13.267 33.177 18.37 11.298 5.003 23.331 8.475 35.237 11.95 17.54 5.12 35.549 8.031 53.835 7.06 9.151-.487 18.199-2.929 27.296-4.47.65-.11 1.335-.19 1.985-.116 13.883 1.6 25.805-5.361 38.52-8.837 3.897-1.066 7.647-2.697 11.568-3.64 9.823-2.362 17.813-8.28 26.26-13.272 16.856-9.961 34.004-19.509 50.258-30.383 14.349-9.6 27.48-20.998 41.46-31.177 11.007-8.015 22.472-15.403 33.764-23.024 2.963-2 6.055-3.809 9.064-5.743 12.334-7.927 26.575-10.796 40.239-15.197 8.893-2.865 17.683-6.136 26.718-8.451 8.018-2.055 16.278-3.26 24.487-4.454 14.729-2.14 29.457-4.458 44.268-5.798 9.952-.901 20.046-.383 30.072-.244 7.44.104 14.908.27 22.3 1.03 12.527 1.29 25.002 3.086 37.503 4.636 6.501.806 13.009 1.56 19.52 2.29 1.482.166 3.244-.355 4.436.275 3.837 2.03 4.423-.16 5.146-3.174 1.385-5.776 3.084-11.476 4.763-17.612l19.264 5.047-17.206 64.94-19.304-5.033 5.722-22.17c-12.048-1.496-23.783-3.051-35.543-4.384-12.716-1.441-25.43-3.215-38.195-3.84-11.6-.567-23.215-2.558-34.948.505-6.751 1.763-14.035 1.405-21.044 2.28-9.723 1.215-19.573 2.004-29.086 4.202-18.002 4.159-35.736 9.466-53.704 13.782-17.105 4.11-31.962 12.838-45.912 22.777-19.576 13.947-38.077 29.394-57.37 43.75-6.735 5.012-14.487 8.644-21.72 12.996-14.51 8.727-28.778 17.88-43.552 26.128-7.561 4.221-15.89 7.172-24.072 10.15-10.188 3.707-20.466 7.274-30.922 10.094-7.683 2.072-15.722 2.813-23.592 4.208-9.575 1.697-19.424 1.055-28.887 4.44-3.83 1.37-8.794-.207-13.205-.742-9.366-1.136-18.73-2.329-28.05-3.788-3.828-.6-7.539-1.95-11.304-2.956-11.29-3.019-22.696-5.675-33.826-9.201-5.803-1.84-11.25-4.975-16.634-7.933-18.726-10.287-37.823-20.206-53.438-35.032-6.63-6.295-11.248-14.674-17.02-21.915-9.108-11.427-14.994-24.728-22.127-37.305-8.127-14.328-10.802-30.201-13.225-46.167-1.173-7.732-2.913-15.392-3.752-23.155-.451-4.18.45-8.51.756-12.77 1.347-18.753 2.919-37.493 3.984-56.262.952-16.795 6.103-32.664 9.972-48.82 4.425-18.476 9.802-36.759 13.422-55.387 4.363-22.45 12-43.78 19.716-65.137 5.11-14.147 9.612-28.61 16.012-42.165 6.502-13.773 15.395-26.394 22.518-39.9 8.653-16.406 23.017-27.695 36.367-39.297 10.241-8.9 23.969-13.926 36.45-20.056 6.955-3.416 14.4-6.032 21.863-8.174 9.826-2.82 19.864-4.928 29.856-7.136a771 771 0 0 1 26.8-5.419c5.628-1.035 11.315-1.824 17.007-2.42 8.184-.86 16.418-2.183 24.591-1.949 9.314.266 18.592 1.967 27.872 3.159 5.833.749 11.618 1.93 17.464 2.52 8.679.876 17.384 1.789 26.094 1.983 14.492.323 29.013.508 43.49-.065 8.935-.354 17.781-2.536 26.717-3.341 17.195-1.55 28.546-12.834 41.063-22.9 14.186-11.408 20.96-27.023 26.146-43.157 4.705-14.638 6.505-30.208 9.629-45.358a6019 6019 0 0 1 7.594-36.282c1.726-8.119 3.172-16.325 5.458-24.287 1.549-5.394 3.975-10.628 6.641-15.594 8.736-16.275 22.756-26.39 39.413-33.57 14.847-6.4 29.449-13.37 44.16-20.084 15.307-6.986 30.649-13.895 45.912-20.973 13.64-6.325 27.178-12.865 40.787-19.255 21.599-10.141 43.19-20.301 64.843-30.326 12.652-5.857 25.441-11.418 38.128-17.2 13.532-6.167 27.01-12.456 40.525-18.66 23.193-10.645 46.423-21.212 69.587-31.923 9.94-4.596 19.882-9.224 29.58-14.304 6.875-3.601 15.12-1.378 18.332 7.019 2.591 6.773 6.783 12.933 10.49 19.672"/></svg>