<svg viewBox="0 0 1919 1000" xml:space="preserve" xmlns="http://www.w3.org/2000/svg"><path d="M275.688 4.053c-.982.004-1.977.082-2.989.246C256 7 239.436 10.563 222.81 13.725c-14.882 2.829-29.791 5.518-44.659 8.421-7.415 1.449-14.765 3.238-22.144 4.874a72 72 0 0 1 3.586.3c-1.277-.14-2.557-.211-4.012-.271-2.132.115-3.838.201-5.543.287-1.391.476-2.796.897-4.18 1.402 1.276-.503 2.567-1.008 3.772-1.502-4.697.567-9.029 1.036-13.266 1.946-6.817 1.463-13.572 3.218-20.353 4.85 1.404.317 2.808.636 4.85.935.804-.033.971-.047 1.394-.332 5.47-1.26 10.738-2.027 15.88-3.305-5.142 1.278-10.41 2.045-15.622 3.61.993.438 2.007.792 3.002.94-1.024-.121-2.1-.394-3.258-.67-.424-.29-.591-.276-1.01-.245-1.439.458-2.82.815-4.213 1.254 1.217-.402 2.444-.807 3.576-1.235-1.79-.316-3.196-.635-4.974-.931-1.118.084-1.862.148-2.606.21-.873 1.06-1.746 2.12-2.591 3.72 1.333-.242 2.644-.613 3.95-.98-1.37.406-2.742.899-4.154 1.237-.676-.272-1.121-.261-1.9-.252-3.46.752-6.587 1.505-10.059 2.084-3.489-.266-6.633-.36-10.35-.713-1.007-.199-1.444-.137-1.88-.076-1.116 1.229-2.233 2.458-3.697 3.694-2.58 2.231-5.322 2.95-8.176 3.003 2.805-.057 5.452-.778 7.828-2.998-.88-.478-1.76-.955-3.148-1.67-.948-.174-1.386-.113-1.916.297-3.374 1.36-6.657 2.37-9.659 3.678-.78-.07-1.504-.076-2.222-.035.6-.067 1.376-.212 1.943-.264 3.282-1.01 6.565-2.02 9.506-3.47-3.09-.095-5.89.02-8.576.638-11.622 2.674-22.932 6.037-30.908 15.852a87 87 0 0 0 4.775-.127c.891-.301 1.066-.56 1.15-.879 2.192-2.227 4.107-4.92 6.54-6.744-2.428 1.824-4.303 4.513-6.182 6.71-.442.354-.616.613-1.092.92-3.148 3.217-5.996 6.416-9.084 9.364 3.088-2.948 5.936-6.146 8.457-9.26-1.798 0-3.18.008-4.814.086-.421.36-.592.65-.762.94-1.378 1.574-2.756 3.147-4.315 4.714a45 45 0 0 0 3.983-4.609c-2.106 2.025-3.883 3.946-5.291 5.879l-.012.012c-.372-.015-.37-.009-.377.312-.315 1.116-.623 1.912-.617 2.723-1.109 1.559-2.082 3.084-3.053 4.67.913-1.562 1.797-3.146 2.738-4.686.308-.795.615-1.59.577-2.672-3.695 4.217-7.942 8.32-10.174 13.32-3.173 7.108-4.864 14.877-6.846 22.317 1.26-1.662 2.852-3.244 3.652-4.894-.803 1.666-2.409 3.309-3.724 5.21-.371.79-.327 1.218-.283 1.645.268.825.536 1.798.804 2.666-.287-.862-.585-1.618-.91-2.268-.709 3.489-1.311 6.579-1.914 9.668 1.011-.34 2.023-.682 3.356-1.392.338-.795.354-1.218.37-1.643l-.001-.588c.005.252.03.574.175.506-.191.507-.206.93-.228 1.674.193 2.512.334 4.666-3.375 4.797-.414 1.116-.36 1.863-.309 2.61 2.209-.242 3.412.387 3.733 2.198-.324-1.8-1.542-2.38-3.822-1.873-.116.779-.141 1.23-.166 1.682h.521c-.26.007-.6.044-.838.176-.101 1.728.114 3.28.61 4.584.42-1.75.562-3.252.455-4.76q.06.676.117 1.354a51 51 0 0 1-.547 3.863c-.192 4.054-.13 7.402.137 10.736.204-.016.614 0 .904-.289.03-2.275.01-4.499-.041-6.693.085 2.254.132 4.568.146 6.986.709 1.424 1.602 2.266 2.516 2.635.283 2.047.527 3.635.908 5.19.543 2.216 1.185 4.407 1.94 6.917.475 1.242.787 2.398 1.218 3.586-.389-1.003-.764-2.023-1.197-2.967a72 72 0 0 0-.723 5.99c.391 1.109.749 1.89 1.106 2.67.731.27 1.463.54 2.748.696-.222-1.163-.582-2.286-.924-3.412.379 1.158.882 2.331 1.197 3.521-.254.663-.23 1.103-.171 1.871-.058-.768-.083-1.207-.383-1.757-1.005-.38-1.736-.649-2.545-.598.565 1.116 1.208 1.912 2.129 2.709.461-.008.647-.016.8-.354 3.58 1.31 4.945 4.305 6.157 7.182-1.21-2.86-2.572-5.791-6.125-6.853-.185.008-.37.017-.787.396 4.455 10.464 9.147 20.555 13.828 30.65 8.03 17.32 16.052 34.642 24.078 51.963.602.51 1.204 1.019 2.23 1.723.413-.794.88-1.81.946-2.701-.059.911-.505 1.994-.854 3.017-.333.122-.403.551-.424 1.104.624 1.655 1.268 2.759 1.912 3.861 0 0 .193-.007.385-.006-.222.054-.377.142-.367.35.344 1.112.67 1.88.998 2.648.251.282.504.564.729.907a2.3 2.3 0 0 0-.71-.594c.33.729.642 1.176 1.151 1.47q.061.166.115.35c.087.94.374 1.414.662 1.889.255.28.51.561.74.906a2.3 2.3 0 0 0-.722-.592c.335.732.653 1.178 1.176 1.47q.067.172.127.366c.182 1.265.554 2.042.925 2.819.397.468.792.936 1.159 1.48a6 6 0 0 0-1.235-1.162c.534 1.044 1.134 1.807 1.938 2.414q.105.228.2.475c.515 1.945 1.234 3.368 1.954 4.79.417.663.833 1.324 1.217 2.069a9.5 9.5 0 0 0-1.291-1.732c.552 1.38 1.173 2.454 2.008 3.36q.082.23.16.472c.419 1.627 1.046 2.74 1.672 3.853.24.27.478.543.695.875a2.3 2.3 0 0 0-.67-.564c.324.722.626 1.17 1.12 1.466q.072.2.134.426c.776 2.622 1.748 4.71 2.72 6.797 1.087.327 2.173.653 3.579.658-4.335-10.456-8.906-20.629-13.696-30.699 4.79 10.07 9.362 20.243 14.036 30.744 3.858 8.478 8.876 16.165 9.027 25.928 1.26 2 3.039 3.573 3.967 5.404-.929-1.826-2.711-3.36-4.01-5.06 0 0-.07-.019-.105-.012.214 1.55.462 3.091.494 5.201.084 1.66.387 2.753.69 3.846.81 2.051 1.62 4.104 2.396 6.238a123 123 0 0 0-2.381-5.84c1.293 3.967 2.572 7.566 4.092 10.96q.112.37.222.745c-.17.984-.104 1.42-.037 1.856.545.666 1.225 1.288 1.775 1.953-.556-.624-1.267-1.147-1.86-1.576.568 2.342 1.154 4.335 1.894 6.267 1.563 4.085 3.205 8.14 5.06 12.01l.127.547c.102 1.66.42 2.749.74 3.836 1.738 2.642 3.475 5.283 5.58 7.588.307-1.489.49-2.72.147-3.781.343 1.06.16 2.292.197 3.859-.1 1.98-.178 3.546-.385 5.5-.121.365 0 .504.016.52l.002.002c2.776 2.21 5.508 4.478 8.348 6.603-2.84-2.125-5.573-4.395-8.205-6.3 2.738 6.056 7.525 9.243 13.283 10.978 7.211 2.172 14.523 4.01 22.043 5.799l.234.369c-.147.95-.087 1.382-.027 1.814.482.199.963.398 1.58.83.844.634 2.047 1.075 2.639 1.567-.587-.48-1.762-.875-2.504-1.332.211 3.15.424 6.299.373 10.148-.17 2.73-.08 4.76.013 6.791 1.015 3.172 2.03 6.343 3.303 9.813q.159.52.274 1c.02 1.296.049 2.263.3 3.052.47 1.549 1.198 2.89 2.327 3.813-.94-11.207-2.227-22.004-3.735-32.77 1.508 10.766 2.796 21.563 4.11 32.805.29 1.176.605 1.899.945 2.92.236 2.044.78 3.838.539 5.52.24-1.682-.303-3.475-.86-5.126a24 24 0 0 0-1.345 2.479c.423-.904.768-1.715 1.32-2.777.005-1.117-.31-1.84-1-2.598-1.103-1.376-1.831-2.718-2.56-4.059-.012-1.058-.024-2.115-.305-3.865-1.284-3.864-2.298-7.035-3.412-9.807.198 1.8.525 3.193.79 4.598 1.33 7.013 2.642 14.03 3.96 21.045.323-.72.76-1.579 1.11-2.332-.39.841-.74 1.705-1.08 2.647.107 1.143.186 1.971.692 2.779.916-.753 1.885-1.45 2.377-2.205-.494.774-1.48 1.544-2.459 2.582-.45 1.421-.393 2.445-.335 3.469 1.832 3.074 3.666 6.15 5.535 9.58 1.045 6.55 2.203 12.727 2.968 18.953-.765-6.226-1.922-12.403-2.931-18.598-.199.86-.422 1.715-.64 2.572a65 65 0 0 0 .603-2.927c-1.87-3.43-3.702-6.505-5.643-9.233.215 2.101.55 3.853.86 5.61 1 5.695 1.99 11.393 3.277 16.835.046-.645.031-1.268-.002-1.873.041.707.068 1.467.027 2.303.106 4.06.477 7.435.85 10.809.37.016.74.03 1.777-.026.958-1.658 1.81-3.311 1.848-4.865-.035 1.554-.858 3.208-1.572 4.873-.336.487-.322.9-.27 1.588-.069-.784-.136-1.147-.396-1.516-.646-.023-1.016-.04-1.473.364.26 2.495.601 4.572.957 6.646.97 5.656 1.946 11.31 3.2 16.737.071-2.39-.137-4.552-.345-6.713-.307-2.065-.613-4.13-.906-6.608a322 322 0 0 0-.568-4.869c.198 1.543.39 3 .582 4.455.314.09.563.271 1.107.647.852-.157 1.344-.42 1.795-1.065l.041.383c-.492.262-.984.524-1.734.893-.093 1.97.072 3.832-.04 5.93-.068 2.394.14 4.556.1 7.343-.176 1.682-.105 2.739-.035 3.795.565 1.473 1.116 2.95 1.695 4.418.73 1.848 1.481 3.687 2.606 5.166-.609-9.42-1.599-18.477-2.59-27.533 1.018 9.3 1.995 18.243 2.95 27.627-.621 3.36 2.715 6.727-1.46 9.69-.338 1.163-.279 1.893-.22 2.622.353.303.713.634 1.08 1.012-.379-.348-.76-.559-1.178-.604.542 3.488 1.18 6.567 2.098 9.397.113-2.757-.051-5.266-.27-8.072.755.805 1.877 1.382 2.447 2-.568-.603-1.679-1.123-2.392-1.704.164 2.509.33 5.02.244 8.211-.175 2.714-.1 4.743-.025 6.772 3.407 1.697 2.9 4.607 2.078 8.207-.172 2.376-.084 4.079.002 5.783 1.288 1.348 2.576 2.698 4.232 3.676-.981-10.355-2.265-20.35-3.785-30.309 1.52 9.959 2.803 19.953 4.115 30.38-.025.85-.012 1.258.006 1.974.367 1.398.726 2.489 1.092 3.95.323 2.142.643 3.916.931 6.11.146 1.611.433 2.992.532 4.303-.101-1.29-.394-2.588-.563-3.88-1.038-.373-2.076-.746-3.48-.757a33 33 0 0 0 2.154 8.62c.738-.739 1.51-1.448 1.797-2.178-.29.74-1.07 1.499-1.858 2.496-.374.764-.328 1.19-.28 1.615.468.194.937.387 1.527.797-.59-.41-1.061-.592-1.624-.39.564 3.147 1.225 5.89 2.167 8.386.002-.107-.01-.206-.008-.312 0 .271.038.445.035.726-.17 2.037-.085 3.417 0 4.795 4.489 2.895 2.862 7.483 2.951 12.12-.18 1.023-.118 1.458-.057 1.892.444 1.43.888 2.86 1.286 4.408a37 37 0 0 0-1.374-4.014c.55 2.732 1.184 5.09 2.077 7.217l.1.574c-.184 1.694-.112 2.752-.04 3.809.448 1.337.895 2.675 1.291 4.092a32 32 0 0 0-1.388-3.71c.528 2.41 1.148 4.455 2.054 6.468q.055.277.108.56c-.21 1.478-.147 2.535-.084 3.592 3.426 1.686 2.876 4.617 2.103 8.107-.144 1.652-.034 2.733.508 3.854 1.287-.556 2.987-1.226 3.541-1.762v.002c-.554.546-2.254 1.276-3.543 2.145-.184.787.065 1.228.315 1.67.288.28.622.656.931.978-.336-.3-.664-.504-1.02-.55.585 3.812 1.257 7.199 2.215 10.325.085-3.082-.115-5.906-.435-8.98.83.856 1.979 1.5 2.584 2.207-.6-.694-1.726-1.29-2.467-1.957.201 2.824.404 5.647.346 9.06-.2 1.027-.14 1.466-.082 1.903 1.11 1.337 2.396 2.618 2.812 4.248-.407-1.542-1.73-2.74-2.908-3.85.56 2.809 1.214 5.218 2.172 7.49.747-1.218.954-2.265.826-3.19.149 1.009-.045 2.156-.803 3.523-.225.905-.17 1.343-.117 1.78 1.326 2.323 2.652 4.645 4.352 6.606a339 339 0 0 0-3.739-24.875c1.531 8.142 2.778 16.336 4.088 24.96-.101 3.53-.179 6.618-.111 10.029.915 1.197 2.09 2.115 2.736 3.113-.641-.965-1.79-1.751-2.59-2.377.01 3.467.016 6.521.055 9.906.09.766.15 1.201.21 1.637 2.07.982 2.644 2.424 2.693 4.084-.058-1.606-.676-2.93-2.784-3.686.64 3.066 1.37 5.734 2.309 7.979.196-1.452.495-2.868.48-4.123.01 1.275-.26 2.669-.435 4.1-.165.4-.21.49.195.544 1.374-.258 2.344-.57 3.299-1.295 1.777 10.519 3.542 20.625 5.152 31.082 2.057 7.332 3.563 14.646 6.68 21.194-3.117-6.548-4.624-13.862-6.834-20.842-1.68-6.237-3.3-12.49-5.072-18.701-.791-2.773-1.892-5.457-3.334-7.973.336 4.335.878 8.541 2.025 12.574 3.104 10.912 5.932 21.945 9.832 32.577 8.56 23.328 19.558 45.496 32.563 66.73 10.962 17.9 23.478 34.57 37.017 50.537 9.045 10.667 18.672 20.714 30.475 28.318.182-.667.387-1.268.353-1.597.036.332-.157.946-.289 1.676-.12.403.014.535.032.55l.002.002c2.383.743 4.987 1.124 7.216 2.117-2.225-.987-4.808-1.33-7.052-1.841 16.814 14.673 35.452 25.91 55.476 34.912 3.425 1.54 7.016 2.712 10.535 4.043q.173.179.352.357c.715.41 1.298.545 1.88.682.47-.232 1.04-.726 1.442-.783-.4.066-.952.606-1.312 1.132 6.387 2.359 12.646 4.369 18.826 6.041-5.815-2.628-11.543-4.946-17.31-7.158 5.767 2.212 11.495 4.53 17.632 7.24.842.453 1.283.486 1.725.52 1.082.239 2.217.526 3.427.883-1.143-.339-2.252-.529-3.293-.547 1.722.697 3.31 1.058 4.842 1.084a16 16 0 0 0-.974-.356c.454.144.865.249 1.365.434 1.504.454 2.563.494 3.623.535 1.065.234 2.182.513 3.371.86-1.123-.324-2.207-.511-3.219-.534 1.73.684 3.307 1.042 4.825 1.077-.3-.12-.595-.218-.891-.319.428.136.81.23 1.28.403 1.509.45 2.568.494 3.628.537.326-.767.653-1.533.762-2.909-9.306-2.904-18.684-4.426-27.414-7.681 8.73 3.255 18.107 4.777 27.435 7.37 1.303.622 2.367.947 3.766 1.284l.34.045c.052.958.106 1.92.517 3.322 1.108.486 1.852.523 2.596.559 2.157-.456 4.315-.91 6.504-1.936-2.138-.696-4.292-1.138-6.45-1.494 2.246.338 4.429.717 6.714 1.229.646.302 1.058.3 1.777.316l.309.022a69 69 0 0 0 2.445 3.4c.818.416 1.258.447 1.697.479.662.02 1.323.04 2.479.412 5.841.41 11.19.471 16.537.53.524-.286 1.05-.81 1.574-.872-.523.064-1.036.608-1.36 1.248 13.227.439 26.239.52 39.25.525.84 0 1.678-.584 2.227-1.195-13.53-.408-26.772-.527-40.014-.584 13.242.057 26.483.177 40.483.559 29.767.182 58.775.09 87.783-.002 2.008-1.272 4.015-2.544 5.633-4.203-6.175-.072-11.958.465-17.746.527 5.788-.062 11.571-.599 17.83-.877 1.18.031 1.885.024 2.947.02 3.442-.692 6.53-1.386 10.059-2.05 1.974-1 3.81-1.421 5.656-1.29-1.785-.12-3.502.308-5.215 1.32-.356 1.007-.71 2.014-.705 3.432 4.437-.568 8.512-1.545 12.43-2.77-.706-.404-1.254-.562-2.172-.719.639-3.875 3.477-4.036 6.021-4.277-2.525.24-5.29.404-5.652 4.275.549.158 1.096.316 2.201.68 3.283-.519 6.01-1.245 8.737-1.97.292-.21.584-.42.95-.602a2 2 0 0 0-.646.68c.736-.222 1.195-.514 1.512-1.006q.21-.058.453-.104c28.207-8.992 55.86-18.182 83.883-27.496-.721 10.1 1.664 19.282 8.892 26.781 1.11.245 2.22.49 3.64.508.188-.625.275-1.225.097-1.541.182.317.13.935.22 1.68 2.076.664 4.256.774 6.215 1.386-1.963-.609-4.178-.694-6.523-1.16-1.428-.383-2.539-.628-3.516-.549 4.715 2.358 9.3 4.39 13.88 6.045-.803-1.335-1.44-2.818-2.34-3.611.912.795 1.603 2.292 2.7 3.693 1.11.472 1.853.484 2.596.496-.568-4.715 2.786-3.902 5.53-3.902-2.744 0-6.098-.813-5.143 4.131 3.13.39 5.878.748 8.615.674 6.772-.183 13.539-.801 20.307-.799 7.157.002 14.311.743 21.469.77 26.569.096 53.14.03 79.709.029q23.3 0 46.601.008c9.372.002 18.745.012 28.117.011 16.034 0 32.068-.017 48.102-.01 58.61.028 117.22.063 175.83.094 8.997.005 17.995 0 27.23 0-.15-1.667-.253-2.805-.824-3.935-71.396-.32-142.323-.655-213.25-.975 70.928.32 141.854.654 213.342.514.434-6.49.308-12.51.182-18.53-31.766-.347-63.532-.961-95.297-.994 31.765.033 63.532.647 95.375.565.602-3.343-1.057-3.541-3.389-3.574-16.432-.234-32.861-.803-49.293-.873-92.917-.398-185.834-.714-278.752-.97-9.271-.025-18.542.699-27.816.8-13.329.145-26.66.039-39.99.039-16.33 0-32.662-.07-48.99.049-4.03.029-6.259-.931-5.74-5.57.366-3.291.52-6.74-.048-9.973-1.202-6.839-3.904-13.595-10.144-16.834-7.451-3.868-15.855-5.405-24.258-2.315-7.441 2.736-14.739 5.867-22.201 8.54-14.13 5.059-28.186 10.4-42.543 14.722-14.736 4.436-29.795 7.796-44.713 11.627-.294.21-.587.418-.953.6.287-.19.51-.423.65-.676-.735.218-1.192.506-1.504.994a6 6 0 0 1-.41.092c-1.61.11-2.7.422-3.785 1.107.1.69.205 1.41.295 1.664-.103-.244-.278-.962-.748-1.643-3.48-.29-6.503-.227-9.524-.164.22 2.375-.55 3.537-2.691 3.747 2.134-.212 2.856-1.383 2.242-3.834-15.106.246-29.76.622-44.418.908-18.245.356-36.491.795-54.738.888-9.62.05-19.265-.28-28.861-.96-7.152-.508-14.285-1.615-21.348-2.89-7.465-1.345-14.837-3.205-22.24-4.476.908 1.35 1.67 2.95 2.658 3.711-.997-.763-1.81-2.376-2.98-3.79-.771-.476-1.21-.506-1.651-.536.102 2.565-1.072 3.28-2.961 2.805 1.886.47 3.04-.282 2.787-3.147-10.288-4.1-20.701-7.224-30.44-11.787-10.322-4.836-20.094-10.886-29.929-16.707-5.426-3.211-10.485-7.039-15.9-10.236.221.985.383 2.014.703 2.814-.328-.81-.509-1.863-.776-2.912.119-.45-.086-.58-.086-.58-1.123-.491-2.246-.982-3.386-1.865-.014-.319 0-.384.006-.397l.001-.002c-4.244.556-7.096-1.594-9.626-4.12 2.523 2.51 5.352 4.596 9.498 3.804-12.149-10.328-22.855-21.51-32.809-33.656a348 348 0 0 1-31.098-44.62c-8.57-14.619-15.969-30.045-22.537-45.681-5.354-12.747-9.235-26.191-12.81-39.582-2.97-11.122-4.578-22.61-6.723-33.947-2.023-10.696-3.943-21.412-5.937-32.114-2.057-11.036-4.148-22.065-6.59-33.095-1.611-.032-2.65.209-2.891 1.045.238-.872 1.294-1.187 2.959-1.368.377-.757.319-1.19.26-1.623-3.061-.384-4.31-1.852-4.824-4.638.516 2.78 1.774 4.205 4.908 4.252-1.108-5.047-3.655-9.394-2.914-14.512.14-.968-.722-2.08-1.121-3.125-.588-1.097-1.177-2.194-2.03-3.85-.726-1.307-1.187-2.054-1.648-2.802.46.748.923 1.496 1.646 2.439.263.195.753.172.977-.127-.087-2.089-.397-3.878-.707-5.668-3.286 1.402-3.459-.54-3.608-2.309.148 1.748.323 3.606 3.592 1.897-.425-2.813-.835-5.213-1.61-7.617-2.039-.099-2.797.444-2.964 1.21.153-.841.915-1.501 3.035-1.57.127-1.437-.184-2.519-.494-3.601-2.417-.36-4.324-2.964-4.758-5.885.436 2.894 2.345 5.408 4.76 5.457a473 473 0 0 0-1.719-10.912c-1.506-8.904-3.03-17.805-4.927-26.705-.728.554-1.628 1.175-2.25 1.744.63-.612 1.54-1.314 2.326-2.062.401-.749.345-1.177.289-1.606-6.755-2.782-4.23-9.261-5.655-14.6-.007-.348-.017-.421-.023-.439v-.002h-.002v-.002h.002v.002c.015.004.075.003.348-.033.284-.34.494-.67.674-.996-.2.442-.324.778-.665 1.426 1.09 5.382-1.434 11.861 5.415 14.248-.203-1.304-.628-2.192-.776-3.123-1.416-8.897-2.785-17.801-4.549-26.897-1.093.13-2.495.496-2.808.729.314-.24 1.723-.656 2.87-1.196.384-1.212.325-2.151.266-3.09-4.9-3.096-4.686-8.416-5.533-13.2.847 4.784.631 10.104 5.621 12.85-.635-3.147-1.36-5.945-2.084-8.743-.112-.613-.224-1.224-.289-1.885a8.5 8.5 0 0 0 .356 1.494c.004-1.373-.053-2.392-.387-3.326q.015-.237.043-.486c.34-.884.266-1.346-.191-1.803-1.076.524-2.484 1.148-2.93 1.61v-.003c.449-.47 1.868-1.143 3.004-1.926.4-.75.343-1.179.287-1.607l-3.932.23c1.381-.08 2.656-.156 3.91-.625a963 963 0 0 0-2.418-12.35q-.976-.248-1.953-.5c.651.168 1.302.334 1.948.204-.147-1.14-.29-1.984-.834-2.742-.64.903-.877 1.72-1.114 2.537.237-.817.474-1.634 1.203-2.914-.236-4.945-.965-9.428-2.064-13.904-1.69-.022-2.654.169-2.844 1.173.19-1.034 1.167-1.3 2.91-1.537.386-1.107.334-1.846.282-2.584-4.095-3.329-3.807-8.082-4.045-12.644.238 4.562-.05 9.316 4.13 12.242-.635-4.488-1.356-8.572-2.439-12.654-.66.112-1.352.237-1.597.34a.3.3 0 0 0-.08.044c.013-.013.046-.028.08-.045.24-.115.943-.301 1.666-.736.128-2.126-.173-3.851-.473-5.578a64 64 0 0 1-1.668-.01 21 21 0 0 0-1.957.264c-.653-5.903-1.306-11.806-1.67-17.98.282-1.332.275-2.392.254-3.85-2.308-2.062-2.858-4.426-2.947-6.922.092 2.44.642 4.692 2.931 6.523.063-.32.205-.845.28-1.197-.108.488-.19.994-.264 1.596.021 1.458.029 2.517.312 3.69 1.015.377 1.751.643 2.563.517-.564-2.805-1.201-5.216-2.108-7.426a10 10 0 0 0-.449 1.387c.123-.56.192-.98.426-1.832.164-3.01.083-5.373-.307-7.793-1.327-.707-2.347-1.357-3.379-1.553-.048-2.732-.61-5.415-.47-7.76-.138 2.32.427 4.91.484 7.305 1.019.65 2.038 1.3 3.447 1.602.07-1.741-.278-3.126-.564-4.526-1.042-5.095-2.063-10.196-3.465-15.293-1.075-.247-1.776-.496-2.467-.38a31.4 31.4 0 0 0-3.103-5.858c1.176 1.717 2.243 3.514 3.092 5.494.702.248 1.403.497 2.513.334.109-1.384-.189-2.357-.488-3.33-.332-.385-.665-.77-1-1.242q.493.582.977.916c-.596-1-1.173-1.741-1.758-2.201a13 13 0 0 1-.252-.514c-3.338-3.8-6.653-6.885-9.967-9.969-.566.503-1.131 1.005-1.701 2.059 2.046 1.356 3.776 2.894 5.361 4.527-1.6-1.602-3.426-3.026-5.514-4.281-2.934-1.222-5.721-2.138-8.804-3.193-3.613-.689-7.152-1.029-10.502-1.778 3.334.742 6.818 1.055 10.207 1.639-.023-.994-.045-1.99-.39-3.44-.766-.486-1.21-.514-1.653-.544-3.367.836-6.741.329-9.367-1.149 2.594 1.388 5.91 1.806 9.175.813-5.745-1.443-11.76-1.79-14.078-8.424q.005.317.032.627a9 9 0 0 1-.065-.96c.17-.989.1-1.426.031-1.863-.814-1.003-1.817-1.914-2.478-2.992.662 1.073 1.674 1.941 2.558 2.614-.573-2.18-1.222-3.981-1.882-5.78-2.303-6.267-4.61-12.533-7.19-18.574l-.058-.395c.172-.999.1-1.437-.31-1.947-1.313-2.095-2.133-4.214-3.315-6.107 1.182 1.893 2.002 4.013 3.398 5.728-3.156-10.146-6.353-20.145-10.416-29.779-4.622-10.959-9.947-21.625-15.102-32.353-2.83-5.891-5.938-11.648-8.949-17.088.02 1.226-.085 2.407-.107 3.511.021-1.102.122-2.279.097-3.498.015-.295.038-.362.045-.377v-.002h.002v-.002c-1.22-.814-2.907-1.402-3.865-2.345.957.932 2.64 1.46 3.842 1.963-4.03-8.786-8.035-17.188-12.041-25.59l-1.59-.834c.255-.334.511-.667 1.043-1.424a156 156 0 0 0-8.98-17.836c-.369 1.088-.844 2.23-.993 3.223.148-1.022.626-2.238 1.006-3.53.335-.667.273-.863.211-1.058-1.728.573-3.047.449-3.904-.594.845 1.013 2.123 1.065 3.72.27-1.922-3.967-3.662-7.608-5.665-11.245-.442.01-.618.014-.924.338-1.283-1.68-3.107-2.903-4.162-4.47 1.057 1.562 2.895 2.749 4.29 4.148.177-.004.353-.006.735-.387-5.485-12.486-11.327-24.527-16.812-36.728-3.675-8.172-6.436-16.543-6.07-25.848.49-12.514 2.663-24.492 8.284-35.756.482-.965.648-2.087.594-3.148l.305-.215c1.783-1.377 2.874-2.629 3.965-3.88.437-1.147.732-2.42 1.156-3.577-.386 1.148-.577 2.416-.797 3.527 6.258-5.348 11.563-11.334 20.352-12.257 5.164-.543 10.183-2.457 15.334-4.086 1.133-1.182 2.2-2.031 3.27-2.881-1.07.85-2.136 1.7-2.952 2.86 2.047.01 3.84-.29 5.635-.589.506-1.12.845-2.921 1.463-3.586-.609.666-.892 2.466-1.043 3.569 2.336-.378 4.253-.729 6.168-1.096 6.8-1.305 13.597-2.615 20.396-4.191-.008-.448-.016-.627-.4-.788 2.127-1.149 3.855-2.84 5.744-3.545-1.884.705-3.57 2.395-5.367 3.528.008.179.015.358.441.773 4.138-.484 7.859-1.205 11.578-1.926.285-.203.57-.408.93-.587a2 2 0 0 0-.627.658c.732-.22 1.19-.503 1.504-.985q.225-.06.49-.107c16.294-2.518 31.995-5.234 47.695-7.95a7 7 0 0 1 .955-.609 2 2 0 0 0-.648.684c.743-.226 1.204-.52 1.521-1.02q.217-.06.465-.109c4.953-.804 9.333-1.798 13.639-3.185-1.06-.583-2.118-1.218-3.111-1.422 1.01.202 2.132.832 3.445 1.398.85.306 1.291.244 1.732.18.127-5.382 4.217-3.796 7.389-4.301-3.167.506-7.211-1.07-6.98 4.39 2.799-.293 5.19-.678 7.617-1.384.381-1.332.727-2.343.652-3.377 4.118-.335 7.817-.695 11.953-1.065 10.06-2.22 19.677-4.438 29.31-6.591-9.633 2.153-19.252 4.373-28.872 6.584.352.409.705.818 1.777 1.55 3.196-.032 5.67-.388 8.145-.744.819-.403 1.638-.806 2.552-1.175-.818.376-1.558.802-2.197 1.253 1.71-.531 3.099-1.134 4.3-1.97q.302-.084.62-.16c3.667-.164 6.695-.56 9.725-.956.306-.215.612-.43.994-.617-.302.193-.54.434-.688.7.754-.218 1.22-.51 1.545-1.018a6 6 0 0 1 .404-.094c1.259.122 1.998.05 2.739-.021.007-.372.015-.744-.028-1.748-.35-.902-.722-1.547-.964-1.584.242.036.614.663.972 1.304.615.263 1.196.321 1.934.327-.798.037-1.338.1-1.883.306-.016.65-.024 1.023.379 1.49 4.481-.87 8.553-1.836 12.559-3.173a40 40 0 0 0-4.239-.446c1.49.074 2.988.194 4.61.412 1.176.284 1.916.23 2.656.174a27 27 0 0 1 1.66-1.152c-.577.395-1.021.798-1.295 1.242 1.47-.223 2.574-.536 3.572-1.076-.374-.42-.643-.612-1.248-.793.613-2.099 1.747-3.003 3.014-3.291-1.2.3-2.223 1.218-2.676 3.281.268.192.536.383 1.332.768 3.692 1.117 7.455 1.266 9.883 3.142 4.04 3.121 7.222 7.351 10.766 11.114.442-.003.884-.006 1.664-.38-1.952-7.883-7.057-12.753-13.592-15.952 6.54 3.2 11.682 8.068 13.924 15.955-.006.373.032.855.043 1.095 1.54 1.357 3.44 2.272 4.687 3.62-1.247-1.345-3.148-2.233-4.678-3.38-.193.271-.385.542-.765 1.278 12.2 18.429 24.56 36.41 36.984 54.348 4.515 6.518 9.179 12.933 14.051 19.171q-.022-.398-.037-.798c.02.382.057.703.086 1.1.077.987.381 1.45.685 1.913 4.865-.929 6.293 3.28 8.215 6.032-1.922-2.753-3.35-6.96-8.113-5.692 1.005 1.872 1.808 3.476 2.828 4.928 13.433 19.113 26.908 38.196 40.35 57.303 7.917 11.253 15.72 22.587 23.709 33.789 12.673 17.77 25.541 35.404 38.168 53.209 7.558 10.657 13.913 22.23 24.263 30.504-.472-1.67-.89-3.278-1.527-4.696.643 1.425 1.076 3.054 1.596 4.795-.121.422.043.57.064.586l.002.002c3.873-1.668 5.384 1.312 7.06 3.48-1.673-2.164-3.167-5.113-6.9-3.197 7.292 8.323 14.425 16.362 21.752 24.03-.208-1.5-.282-2.988-.72-4.153.44 1.168.527 2.672.785 4.229-.122.418.007.555.023.57h.002c1.56-1.09 3.032-1.533 4.361-.213-1.323-1.31-2.77-.826-4.19.483 1.868 2.178 3.562 4.087 5.265 5.648-.009-1.773-.025-3.197-.178-4.922 2.918 2.835 5.728 5.336 8.473 7.91 9.144 8.577 18.264 17.18 27.544 26.073.473.406.734.595 1.043 1.087.329.243.56.41.786.692q-.312-.375-.553-.26a6 6 0 0 1-.127-.21c-.414-.714-.675-.903-1.242-.845-.773.737-1.3 1.307-1.696 2.194 3.06 3.222 5.924 6.2 8.932 9.021 5.617 5.268 11.318 10.446 16.998 15.278-.275-.928-.457-1.856-.697-2.68.24.822.426 1.745.705 2.666-.005.301-.023.368-.03.383v.004c1.65-.047 3.207.018 4.231.76-1.002-.67-2.534-.656-4.129-.448 1.703 1.768 3.303 3.223 5.178 4.47.174-1.066.15-1.9-.027-2.548.214.699.262 1.61.097 2.791.174.777.551 1.104.93 1.432 1.67-.631 2.88-.384 3.986.297-1.077-.637-2.235-.79-3.785-.002a372 372 0 0 0 6.686 6.808c12.745 12.66 25.433 25.378 38.263 37.951 9.774 9.579 19.728 18.971 29.602 28.448.008-.187.017-.373.027-1.211-.747-2.063-1.254-3.846-2.195-5.172.94 1.322 1.45 3.074 2.224 4.89 1.23.349 2.655.38 3.268 1.22-.59-.74-2.027-.61-3.268-.567-.039.467-.048.653.04 1.138 1.04 1.08 1.986 1.86 2.988 2.297.525-1.226.613-2.028.422-2.547.228.58.168 1.452-.352 2.809.318.781.621.959.924 1.135 4.557-1.927 6.739 1.67 9.012 4.092-2.271-2.417-4.445-5.976-8.93-3.764 5.416 5.32 10.742 10.32 16.09 15.295 1.898 1.766 3.878 3.445 5.775 5.213 10.341 9.631 20.67 19.278 31.006 28.539-.499-1.36-.85-2.743-1.32-3.96.498 1.233.915 2.632 1.547 4.056.221.476.703.576.703.576 1.083.024 2.554-.366 3.306.013-.752-.377-2.217.045-3.255.338a982 982 0 0 0 21.748 21.697c2.237 2.161 4.807 3.977 7.24 5.569-.28-1.09-.415-2.184-.7-3.072.285.887.42 1.981.704 3.066-.01.305-.022.368-.026.38v.003c2.778-.671 4.754.16 6.918 2.263-2.164-2.103-4.141-2.933-6.879-1.91.725.955 1.435 1.532 2.09 2.164 11.693 11.282 23.315 22.636 35.102 33.819 3.785 3.59 8 6.73 12.21 9.728-.44-1.29-.81-2.6-1.337-3.726.536 1.138.924 2.476 1.41 3.836-.114.427.076.571.1.588l.002.001c1.437.57 3.034.964 4.511 1.49-1.45-.491-3.011-.805-4.347-1.222 13.491 12.944 26.815 25.625 40.146 38.297 12.672 12.046 25.366 24.07 38.024 36.13 5.375 5.123 10.465 10.63 18.214 12.22-.33-.801-.63-1.615-.986-2.34.383.773.72 1.68 1.129 2.654.903.736 1.806.859 2.709.982.228-2.07 1.2-2.692 2.559-2.793-1.346.126-2.262.841-2.34 3.168 12.76 1.516 24.95-.026 36.765-4.416.027-.168.052-.336.065-.76-1.407-.224-2.8-.192-4.79.098-2.332.391-4.592.124-6.261.608 1.656-.483 3.852-.216 5.846-.602.951-.88 1.724-1.928 2.574-2.467-.825.53-1.493 1.532-1.979 2.207 1.81-.037 3.204-.068 4.645-.433.878-.273 1.737-.4 2.697-.483-.886.097-1.777.28-2.683.739-.06.757-.088.925.26 1.068 1.116-.097 1.86-.17 2.61-.508.35-.635.691-1.009 1.032-1.38q.198-.013.404-.024c-.736.383-1.08.76-1.033 1.506a121 121 0 0 0 16.367-2.819c-2.079-.426-3.905-.562-5.73-.699-2.96.645-5.918 1.287-9.227 1.938 3.31-.651 6.277-1.304 9.451-2.203 1.602.401 3.427.537 5.955.937 3.406.287 6.109.31 8.811.334.31-.215.657-.433 1.057-.656-.4.252-.683.547-.877 1.006 2.602.75 5.04 1.182 7.437 1.273q.27.168.545.352c2.11.818 3.975.92 5.84 1.023.843.24 1.727.525 2.672.873-.89-.325-1.748-.519-2.545-.555 1.383.685 2.638 1.05 3.84 1.106-.246-.123-.487-.225-.729-.328.351.14.665.24 1.051.416.822.426 1.266.455 1.71.484.836.224 1.672.448 2.528.754a12.6 12.6 0 0 0-2.37-.432c1.543.693 2.96 1.126 4.335 1.29q.292.153.588.328c.75.758 1.34.898 1.928 1.037.401.048.803.097 1.287.244-.426-.106-.827-.09-1.182.055.706.361 1.306.424 1.87.21l-.145-.07q.212.087.45.203c1.13.74 1.919 1.069 2.817 1.125.704-.758 1.298-1.245 1.69-2.013 6.78 3.944 12.364 8.934 17.139 14.638-4.765-5.689-10.31-10.623-16.936-14.355-.594.486-1.189.972-1.777 2.057 7.162 7.742 14.347 14.858 21.453 22.052 1.604 1.624 2.753 3.708 4.412 5.26 11.93 11.16 26.677 14.319 42.355 14.518 31.087.393 62.174.626 93.26 1.035 14.098.185 28.193.734 42.291.937 28.422.41 56.847.684 85.27 1.04 19.918.248 39.835.538 59.754.81-1.188-.495-2.363-1.33-3.559-1.56 1.202.232 2.427 1.076 4 1.642 2.828.021 5.213-.038 7.742-.381-.951-1.16-1.968-2.725-3.074-3.156 1.112.432 2.182 2.006 3.533 3.242 13.986.332 27.656.294 41.326.256-1.334-.512-2.663-1.393-4.002-1.621 1.345.228 2.723 1.121 4.44 1.713 2.816.113 5.195.134 7.574.156 1.337-.259 2.674-.675 4.012-.858-1.329.198-2.624.682-3.785 1.227 8.2.43 16.175.45 24.15.56 18.215.254 36.43.554 54.531.456a35 35 0 0 0-3.398-.871c1.19.236 2.448.546 3.86.949 36.926.816 73.278 1.175 109.63 1.535 6.02-.323 12.039-.645 18.44-1.373a7.2 7.2 0 0 0-1.95-1.201c.79.295 1.585.72 2.416 1.195.526.41.968.42 1.739.434 1.225-.173 2.118-.347 3.197-.262 1.246.252 2.308.243 3.77.228-1.462.015-2.524.023-3.587.032-.023.38-.046.76.381 1.523 3.178.318 5.904.253 8.541-.162-1.705-.7-3.32-1.049-5.334-1.393 1.147-1.71 2.5-2.164 3.94-2.195-1.355.045-2.582.513-3.541 2.19 1.615.349 3.23.698 5.3 1.468 1.198.458 1.94.496 2.883.264 1.074-.44 1.948-.614 2.82-.785-.002-.437-.006-.872-.228-1.744-.493-.634-.681-.894-1.232-1.22 11.19.018 21.93.029 32.672.067-10.741-.038-21.482-.05-32.223-.064.101.323.29.582.783.889 1.94.129 3.857.306 5.754.431a69 69 0 0 0-5.535.004c.003.764.006 1.2.465 1.65 4.19-.281 7.922-.576 11.357-1.181.934.93 1.571 1.55 2.41 2.597.204.428.553.247.625-.208 1.068-1.109 2.054-2.37 3.084-2.856-1.018.49-1.94 1.765-2.675 2.953 6.462.51 12.589.469 18.714.426-.126-2.865 1.421-3.577 3.586-3.705-2.159.129-3.654.851-3.125 3.8 18.155.145 35.85.192 53.543.239 3.978-.016 7.955-.03 12.08.068-4.024-.052-7.984.05-11.85.3 6.291.338 12.36.327 18.313-.042l.852.05c6.924.496 13.27.541 19.615.587 5.022-.328 10.043-.655 15.463-1.365-1.91-.995-4.11-2.146-6.371-2.467 2.268.321 4.521 1.47 6.838 2.457 4.318.51 8.601.827 13.091 1.252-4.4-.388-8.821-.632-13.49-.87-5.487.337-10.51.665-15.318 1.37a505 505 0 0 0 33.64.002l.538.062c6.555.39 12.527.343 18.5.295-.15-2.362.696-3.576 2.808-3.754-2.106.18-2.907 1.404-2.406 3.848 11.5.131 22.6.17 33.697.207 1.69-.007 3.38-.014 5.21.096a26.3 26.3 0 0 0-4.997.261c2.729.344 5.247.337 7.662-.021l.48.062c1.893.478 3.273.523 4.653.57.656.062 1.31.124 2.395.544 2.488.72 4.549 1.082 6.609 1.445.324.071.647.144.996.291a1.8 1.8 0 0 0-.894.004c.631.397 1.18.553 1.705.467q.166.124.343.283c1.328.988 2.457 1.362 3.659 1.29.111-.742.151-1.039.152-1.696 2.081 1.198 4.357 1.815 6.23 2.94-1.872-1.12-4.144-1.698-6.191-2.581-.04.298-.08.595-.047 1.625 4.42 4.455 9.45 7.636 12.94 12.037 4.361 5.5 9.339 11.622 10.666 18.162 2.066 10.186 3.197 20.59 1 31.569-2.398 11.982-5.693 23.305-12.04 33.459-5.593 8.949-12.584 17.024-18.597 25.67 2.013-.95 4.175-1.733 6-2.778-1.831 1.051-4.006 1.85-6.057 2.84-.391-.114-.517-.011-.531.002l-.002.002c1.343 1.757 1.298 3.307.088 4.615 1.2-1.302 1.203-2.826-.36-4.437-12.415 11.843-25.89 21.759-41.544 27.974-14.558 5.78-29.46 10.833-44.504 15.194-9.312 2.698-19.17 3.519-28.787 5.154-6.205 1.055-12.418 2.06-18.772 3.508-.434 2.09.034 2.975 1.043 3.199-1.053-.223-1.63-1.119-1.482-3.256-1.177-.423-2.058-.368-2.94-.314-4.641 4.267-10.272 5.484-16.228 5.705 5.956-.22 11.586-1.439 15.853-5.795-4.825.631-9.274 1.351-13.79 2.4-1.1.898-2.134 1.466-3.167 2.035 1.033-.569 2.066-1.137 2.844-2.101-2.022-.335-3.79-.274-5.557-.213l-.496 5.123c.22-2.265.36-3.694.072-5.217-6.74.715-13.066 1.454-19.369 2.352-5.094.725-10.162 1.64-15.242 2.47 1.302.767 2.604 1.535 4.338 2.604 2.693-.468 5.034-1.624 7.371-1.99-2.336.37-4.669 1.564-7.303 2.328-5.078.38-9.793.722-14.968 1.054-3.157.321-5.852.652-8.975.98-2.887.803-5.744 2.93-6.963-2.347-2.432-.444-4.425-.379-6.418-.314a6.5 6.5 0 0 1-.793 1.494c-.997.88-1.787 1.98-2.617 2.603.812-.612 1.547-1.666 2.34-2.388-3.487.194-6.975.388-11.17.314-2.745-.193-4.781-.118-6.818-.043-.005.353-.01.706-.016 1.272-.006-.64-.054-.97-.322-1.36-.791-.019-1.244.051-1.713.465-.99 1.67-1.968 2.993-2.58 4.283 1.783-.358 3.203-.682 4.623-1.005l-.006-1.274c.01.557.059.919.39 1.293-1.804.306-3.224.628-5.007.986l-.338.004c.967-1.314 1.932-2.633 2.486-4.37-3.786-.072-7.156.283-10.625 1.003-1.603.722-3.158.943-4.594 1.48-1.186.445-2.232 1.264-2.87 1.926-3.894.496-7.523 1.318-11.087 1.704 3.54-.387 7.079-1.21 10.618-1.713 1.108-.654 2.153-1.472 3.34-1.916 1.435-.538 2.99-.76 4.15-1.559-3.938-.1-7.527.478-11.125.545-20.784.386-41.57.793-62.356.92-25.062.153-50.126.115-75.19-.01-10.103-.05-20.204-.78-30.308-.805-40.971-.098-81.944-.022-122.916-.062-8.145-.008-16.29-.242-24.474.064.008-.15.011-.288.027-.449.075-7.809.074-14.731.074-21.363h-24.414v71.44h25.137v-21.8c-.116-3.416.23-4.67 2.402-4.962-2.127.292-2.37 1.538-1.931 4.912 83.49-.02 166.512.153 249.53-.033 28.708-.065 57.481 1.676 86.104-2.12-1.089-.427-2.192-1.146-3.277-1.478 1.103.335 2.273 1.067 3.6 1.543.755.007 1.187-.049 1.675-.416.728-1.322 1.398-2.336 1.594-3.375 4.025-.298 7.583-.938 11.12-.834-3.537-.104-7.095.537-10.643.861-.672 1.013-1.344 2.024-1.633 3.434a160 160 0 0 0 19.506-2.098c-1.815-.745-3.583-1.545-5.35-1.943 1.79.4 3.634 1.212 5.738 2.006 1.509.377 2.553.331 3.6.285.53-.38 1.1-.762 1.728-1.145-.6.392-1.046.797-1.277 1.246 6.162-.559 11.873-1.22 17.303-2.177-3.01-.05-5.92.006-8.86.105 2.947-.102 5.997-.165 9.313-.13 3.755.178 6.774.084 9.793-.009 1.107-1.974 2.587-2.567 4.291-2.617-1.615.054-2.998.684-3.895 2.72 3.14-.537 5.885-1.177 8.374-2.103-1.392-.26-2.771-.584-4.03-.619 1.346.033 2.815.342 4.362.596 1.025.199 1.464.135 1.902.07.895-.233 1.792-.466 2.82-.652-.927.192-1.753.452-2.441.75 1.797-.19 3.22-.476 4.416-1.022q.225-.02.459-.037c2.69.153 4.72.07 6.748-.013.005-.38.01-.76.03-1.424.01-.732.008-1.179-.45-1.961-16.203 1.163-31.95 2.66-47.785 4.166 15.835-1.506 31.582-3.004 47.785-4.502 1.872-.301 3.482-.518 5.207-.834a101 101 0 0 0-4.75 1.17l.006 1.676c1.326-.08 2.844-.071 4.203-.135-1.413.105-2.818.223-4.217.42-.018.664-.024 1.045.389 1.515 3.816-.552 7.214-1.196 10.338-2.13-.261-.006-.501.016-.76.013.386.001.678-.041 1.074-.035 1.42.191 2.252.114 3.057-.41-.85-1.103-1.724-2.47-2.53-2.928.818.459 1.754 1.839 2.907 3.01 1.427.477 2.45.426 3.474.375a38 38 0 0 1 1.63-2.338c-.57.799-1.003 1.598-1.262 2.442 4.14-.542 7.914-1.185 11.43-2.118-2.169-.341-4.095-.275-5.985-.502 1.89.227 3.814.16 6.38.477 1.715.199 2.774.135 3.833.07.448-.717.879-1.947 1.338-2.324-.45.38-.822 1.621-.89 2.42 5.487-.567 10.527-1.23 15.292-2.191-4.899-.35-9.526-.49-14.145-.342 4.619-.148 9.247-.007 14.565.32 2.085.206 3.477.135 4.87.066.277-.404.555-.807.653-1.673-1.393-1.186-2.74-2.715-3.884-2.864 1.145.148 2.501 1.657 3.99 2.641 2.344-.088 4.404-.415 6.857-.76-2.453.345-4.512.673-6.678 1.223-.383.626-.662 1.03-.507 1.531 3.531-.218 6.673-.305 9.718-.896a215 215 0 0 0 17.534-4.202l.425-.037c1.374.203 2.117.14 2.86.077 3.186-1.385 6.371-2.77 9.521-4.633-1.068-.82-2.193-1.663-3.142-1.604.95-.06 2.09.768 3.392 1.332l.282.205c.086-.33.264-.603.757-.925 1.566-.886 2.993-1.816 4.436-2.614-1.424.789-2.8 1.693-4.217 2.5.001.17.004.34.006.766 1.53.075 3.057-.105 5.123-.053.972.166 1.407.098 1.842.031.655-.406 1.31-.812 2.05-1.183a9 9 0 0 0-1.714 1.271c1.387-.527 2.469-1.134 3.375-1.97q.245-.084.506-.163c1.3.15 2.04.074 2.828-.341.4-1.647.755-2.953.717-4.254 3.425-.685 6.46-1.364 9.89-2.053 4.258-2.256 8.045-4.641 11.994-6.717-3.692 1.94-7.244 4.152-10.513 6.264l-1.075.451c-3.836.691-6.87 1.37-9.902 2.049-.355 1.307-.711 2.613-.736 4.351a950 950 0 0 0 42.875-17.726c2.828-1.25 5.123-3.705 7.656-5.625l.397-.12a10.7 10.7 0 0 0 1.665-1.023c.02-.72.04-1.44-.322-2.539-1.045-.244-1.885-.365-2.539-.158.655-.212 1.495-.13 2.549-.201.293.014.355.005.371 0l.002-.002h.006c2.313-2.175 4.577-4.395 6.93-6.52-2.349 2.121-4.61 4.337-6.563 6.471l-.017.01c-.36.037-.34.059-.35.418-.03 1.08-.047 1.8.289 2.498 3.804-2.644 7.254-5.264 10.703-7.885l-.273-.283c-2.707 1.335-5.357 2.728-8.176 4.154 2.819-1.44 5.48-2.896 8.234-4.539 1.718-1.423 3.288-2.556 5-3.982 1.453-1.36 2.763-2.426 4.149-3.817 1.36-1.44 2.643-2.557 4.002-3.994 1.035-1.096 1.995-1.872 3.025-2.994.72-2.09 1.372-3.833 1.717-5.44.41-.45.596-.709 1.076-1.017.303-.447.492-.714 1.004-1.016 1.026-1.323 1.824-2.545 2.906-3.904 1.022-1.063 1.998-2.052 2.957-3.068-.92 1.033-1.8 2.1-2.68 3.246.49.704.985 1.094 1.481 1.484-.496-.39-.991-.78-1.764-1.347-1.075 1.044-1.875 2.266-2.673 3.488a1.1 1.1 0 0 1-.28.486q.155-.207.053-.385-.754.446-.572.787-.096.061-.207.125c-.706.414-.89.668-.996.983-.65 1.744-1.302 3.488-2.022 5.578-.07.347.259.711.672.69 8.131-7.269 14.645-15.422 18.89-24.997l.391-.355c.77-.725.915-1.309 1.06-1.893 1.067-2.047 2.134-4.094 3.29-6.168a115 115 0 0 0-2.967 6.034c2.206-3.693 4.147-7.273 5.793-10.817q.382-.605.781-1.217c.791-1.086.924-1.978 1.057-2.869.007-.994-.165-2.035-.02-2.992-.14.954.071 1.982.364 2.867 1.125-1.888 2.169-3.583 2.644-5.426 2.013-7.802 3.857-15.647 5.428-23.388-1.654 2.711-2.971 5.334-4.34 8.322.032-3.041-.14-5.726.022-8.39-.162 2.664.008 5.349.027 8.025 1.318-2.623 2.637-5.247 4.369-8.324.438-1.203.463-1.95.488-2.698-1.598-3.505-1.717-6.843 1.54-10.382.372-3.881.32-7.226.269-10.57-4.623-1.476-2.024-5.385-3.014-8.415-.754.631-1.246 1.505-1.74 2.848-.58-2.695-1.413-4.888-1.703-7.15.29 2.262 1.122 4.455 1.703 6.681.494-.874.987-1.747 1.728-2.809.247-.636.246-1.085.227-1.87a79 79 0 0 1-.809-3.249c.25 1.005.592 1.958 1.045 2.899.423.006.591.024.737-.373-.096-1.797-.168-3.177-.51-4.545-.623-.032-.98-.077-1.62.117-.698-4.235-1.898-8.196-3.443-11.969 1.583 3.731 2.938 7.582 3.729 11.73.355.045.71.089 1.436-.279-2.53-16.19-11.157-28.535-22.993-38.742.997 1.755 2.022 3.397 3.17 4.906-1.151-1.514-2.19-3.172-3.234-4.99.113-.384-.029-.523-.047-.539h-.002c-.81-.177-1.827-.136-2.521-.435.69.29 1.678.206 2.347.158-9-9.846-20.37-15.083-32.517-18.729-2.99-.897-6.46-.194-9.453.063 13.075 2.245 24.866 6.608 34.972 14.592-10.11-7.984-21.945-12.344-35.351-14.57-1.387-.213-2.14-.156-2.893-.1-1.737.24-3.474.48-5.547 1.082.348.4.788.703 1.272.959a9.2 9.2 0 0 1-1.666-.95c-10.301-.375-20.546-.24-30.782-.503 10.236.262 20.48.127 31.118.14 2.131-.25 3.87-.489 5.234-.922-.79-.431-1.205-.872-1.627-.88-15.363-.322-30.726-.603-45.93-.493 2.695.71 5.305 1.42 7.899 1.824-2.628-.407-5.333-1.134-8.354-1.894-5.363-.417-10.112-.366-14.861-.314-.019 2.15.792 3.139 2.25 3.527-1.488-.392-2.382-1.402-2.627-3.627-12.379-.133-24.381-.164-36.383-.197-.323.774-.646 1.548-.697 2.943 1.415.287 2.765.436 4.117.588-1.382-.107-2.681-.102-4.133-.274-1.038-.297-1.789-.29-2.914-.277-3.401.01-6.426.014-9.906.012-.95.033-1.725.02-2.541.039a10 10 0 0 0 1.855-.305 17 17 0 0 0-.826-.031q.599.003 1.28.037c3.712.263 6.738.258 9.683-.146-.711-.461-1.393-.894-2.066-1.188.721.293 1.5.717 2.441 1.182 1.206.387 1.956.38 2.723.058.339-1.09.662-1.865.761-3.01-13.63-.75-27.036-1.326-40.445-1.46-16.763-.168-33.53.026-50.174.435l-.539-.064c-6.596-.465-12.609-.49-18.623-.514a13 13 0 0 1-1.086.666c.42-.252.724-.533.961-.965-1.037-.106-1.948.084-2.762.506.371.42.641.613 1.207.772-.9.819-1.61 2.18-2.275 2.658.656-.477 1.321-1.835 1.98-2.627-.27-.191-.541-.381-1.38-.781-7.26-.224-13.95-.238-20.64-.252-2.707.328-5.413.657-8.558.996-.443.182-.448.355-.46.787-.01.259.001.727.433.978 9.678.567 18.922.957 28.17 1.069-9.248-.112-18.492-.502-28.16-.834-2.432-.027-4.443-.037-6.877-.063-11.505.001-22.585.018-34.14.012-.163-.007-.31-.017-.471-.024 1.273-.57 2.533-1.527 3.818-1.796-1.28.27-2.489 1.23-3.348 1.82 11.556.006 22.637-.01 33.717-.027 2.01-.298 4.018-.597 6.447-1.145.425-.423.428-.595.432-.768a140 140 0 0 1-3.59-.181c1.296.078 2.61.126 4.03.172 3.144-.339 5.85-.668 8.332-1.364-5.7-.055-11.18.253-16.358.807l-.432-.057c-1.084-.27-1.53-.225-1.978-.18a6 6 0 0 1-.943.167c.278-.051.492-.142.615-.26-.739-.032-1.179.02-1.473.25a6 6 0 0 1-.293-.035c-.573-.288-.745-.307-1.207-.026-7.994.424-15.701.45-23.398.756 7.697-.306 15.404-.332 23.173-1.125-20.792-1.009-41.648-1.349-62.505-1.69 1.465.505 2.898 1.232 4.386 1.557-1.494-.326-2.98-1.061-4.847-1.634-6.149-.036-11.837.007-17.522.459-.145 2.326.744 3.052 2 3.275-1.295-.226-2.29-.966-2.46-3.357-8.486-.515-16.507-.538-24.528-.563-1.89.013-3.78.025-5.81-.076 1.935.06 3.808-.035 5.585-.28-3.057-.334-5.894-.322-8.629.042l-.529-.06c-2.555-.383-4.577-.33-6.6-.276.702.503 1.393 1.23 2.092 1.775-.76-.559-1.567-1.304-2.55-1.877-6.831-.132-13.204-.163-19.575-.193-2.158.19-4.316.38-7.06.3-1.037-.28-1.487-.29-1.938-.302-1.722.322-3.444.912-5.168.922 1.724-.01 3.446-.601 4.955-1.301-11.678-.461-23.146-.482-34.61-.645-11.736-.166-23.47-.471-35.083-.345.598.473 1.132.877 1.654 1.088-.538-.214-1.122-.634-1.892-1.159-.36-.44-.842-.304-.842-.304-.115.31-.324.533-.82 1.191-.333 4.441 2.597 3.437 4.718 3.483-2.121-.046-5.05.96-4.927-3.372-.015-.41-.095-.848-.522-1.14-12.763-.251-25.1-.21-37.435-.17-.067 1.607.483 2.279 1.29 2.549-.869-.274-1.523-.963-1.624-2.645-.79-.035-1.245.026-1.823.457-1.458.607-2.82 1.133-4.173 1.264 1.347-.132 2.658-.668 3.714-1.35-5.361-.477-10.386-.497-15.412-.517-1.211.246-2.42.642-3.633.814 1.203-.187 2.377-.653 3.422-1.193-21.456-.778-42.7-1.303-63.945-1.533-14.958-.163-29.92.074-44.789.525 1.271.56 2.485 1.044 3.69 1.234-1.222-.192-2.51-.687-4.12-1.3-2.546-.414-4.573-.369-6.6-.323.131 1.958-.152 3.44-2.154 3.713 1.994-.275 2.23-1.768 1.704-3.808-6.335-.046-12.217.003-18.229.504.553.946 1.139 2.028 1.773 2.654-.667-.63-1.345-1.725-2.171-2.733-1.343-.495-2.419-.46-3.495-.425 0 0-.187.446-.298.662-.39 2.077-1.148 2.97-2.1 3.263.799-.312 1.374-1.173 1.553-3.072-2.828.628-5.218 1.282-7.338 2.23-.695-.303-1.12-.312-1.861-.324-1.752.015-3.186.032-5.051.034 1.865-.002 3.298-.02 4.625-.418-3.397-1.112-6.687-1.842-10.307-2.547-.767.075-1.202.123-1.557.533.45.202.902.342 1.348.52-.614-.23-1.091-.334-1.756-.61-4-1.046-7.502-2.08-11.021-2.14-6.415-.112-12.842.559-19.262.533-10.546-.044-21.091-.382-31.637-.596 1.388.42 2.759.982 4.153 1.354-1.415-.375-2.85-.951-4.487-1.424-1.017-.027-1.699.017-2.38.06-.001.295-.002.59.355 1.399 1.885.988 3.483 1.93 5.072 2.2-1.59-.264-3.19-1.158-5.094-1.759-3.197-.298-6.19-.558-9.312-.99 3.006.391 5.975.558 8.955.476.022-.737.022-1.03-.371-1.425-4.162-.035-7.93.03-11.602.48l-.379-.066c-1.206-.48-1.951-.504-2.695-.53-6.017.324-12.034.648-18.52.985-1.9.664-3.33 1.316-5.167 1.941l-.256-.094c.676-.302 1.36-.604 2.139-.906q-1.098.491-1.883 1c1.618-.55 2.922-1.121 3.918-1.705q.405-.125.853-.25c6.881-.323 12.9-.647 18.694-1.342-2.703-.418-5.183-.477-7.663-.511-9.553-.133-19.307 1.094-28.105-4.15 2.23 1.783 4.46 3.568 7.186 5.694 1.04.533 1.931.962 2.755 1.346-.844-.343-1.672-.685-2.595-1.039-2.32-.372-4.873-.177-6.653-.85 1.766.66 4.242.414 6.157.508-2.389-2.09-4.619-3.874-6.85-5.654l.002-.002a41 41 0 0 1-2.037-1.705c.66.55 1.31 1.013 1.931 1.4-1.263-1.312-2.435-2.367-3.61-3.11a21 21 0 0 1-.4-.472c-.674-1.143-1.275-1.628-1.876-2.115-.486-.537-.972-1.073-1.452-1.74.48.642.96 1.11 1.424 1.414-.678-1.088-1.328-1.856-1.99-2.28l-.015-.023c.018-.363-.003-.353-.335-.334-.773.008-1.217-.004-1.787.287-.975-.706-2.555-.845-3.175-1.558.62.712 2.21.833 3.304 1.256.443.011.885.023 1.56-.31-1.68-2.583-3.328-5.142-5.56-6.997-6.738-5.601-13.704-10.929-20.715-15.957-.18.688-.23.97-.261 1.63-1.8-.391-3.7-.146-5.403-.478 1.703.327 3.602.038 5.389.098.047-.281.095-.563-.059-1.365-10.972-5.359-21.97-9.173-33.49-12.252-15.61-4.172-30.288-.545-45.285 1.285-6.577.802-12.96 3.074-19.502 4.314-4.737.9-8.98-.032-12.52-4.015-2.98-3.356-6.72-6.038-10.124-9.018-.009.768-.017 1.535.007 3.031 3.96 4.463 7.694 8.44 11.91 11.813-4.216-3.373-7.95-7.35-11.92-11.428-.041-.344-.52-.349-.761-.353-.285-.053-.495-.126-.674-.248q.175.101.318.02-.576-.617-.808-.565c-7.106-6.72-14.137-13.177-21.045-19.762 6.908 6.585 13.939 13.04 20.93 19.54.27.187.54.377 1.164.792.354.227.836.23.845-.154a49 49 0 0 0-.02-3.037c-4.373-4.428-8.695-8.503-13.017-12.579-.62-.454-1.238-.91-1.851-1.458.606.51 1.198.891 1.756 1.162-1-1.047-1.909-1.814-2.823-2.239l-.062-.072c.016-.25-.008-.333-.028-.36l-.005-.005-.002-.002-.006-.002-.002-.002h-.006c-.852-.586-1.704-1.171-2.574-1.848a20 20 0 0 0 2.484 1.512c-1.53-1.343-2.985-2.403-4.416-3.166q-.243-.228-.488-.473c-.728-1.108-1.328-1.586-2.258-2.052-.77-.002-1.21-.018-1.762.252-1.174-.798-2.687-1.113-3.765-1.868 1.08.75 2.606 1.036 3.879 1.584.44.016.878.03 1.543-.289a1200 1200 0 0 0-38.999-36.732c.267 1.43.434 2.845.854 4.023-.426-1.187-.61-2.63-.926-4.138.115-.451-.084-.595-.11-.612l-.001-.002c-2.504-.395-4.589-1.298-6.293-2.746 1.67 1.381 3.71 2.215 6.127 2.479-3.507-3.185-6.848-6.102-10.192-8.649q.16.445.334.868a21 21 0 0 1-.431-1.1c-.378-.76-.662-.918-.945-1.076-1.033-.008-2.33.279-3.313.217-.309-.02-.593-.066-.82-.176.23.11.51.163.82.176.976.038 2.254-.325 3.219-.54-8.457-8.254-16.822-16.186-25.38-23.748.371 1.608.593 3.271 1.161 4.565-.572-1.298-.808-2.976-1.225-4.637.121-.415-.001-.553-.017-.568l-.002-.002c-1.225.63-2.043.669-2.584.228.512.365 1.286.257 2.426-.482-1.205-1.157-2.25-2.059-3.31-2.553.019.747.087 1.395.226 1.91-.173-.577-.268-1.317-.313-2.193-.677-1.16-1.283-1.629-1.888-2.098.082 1.683-.2 2.924-1.385 2.5 1.183.414 1.444-.892 1.283-2.834-2.807-2.734-5.58-5.064-8.209-7.545a32517 32517 0 0 1-54.434-51.45c-13.907-13.179-27.913-26.256-41.619-39.641-16.888-16.493-33.415-33.354-50.275-49.875-15.936-15.615-32.044-31.056-48.19-46.453-8.07-7.697-16.448-15.069-24.582-22.7-5.035-4.724-10.007-9.533-14.771-14.529-8.362-8.77-16.541-17.712-24.938-26.309-.007 1.218-.187 2.46.008 3.413-.2-.965-.034-2.253-.086-3.655-.219-.687-.501-.86-.783-1.031-4.723.723-6.977-3.028-9.117-5.84 2.14 2.812 4.395 6.564 9.086 5.492-9.216-12.426-18.406-24.5-27.58-36.586-3.804-5.01-7.573-10.048-11.707-15.084-2.03.313-2.522.88-2.385 1.504-.177-.68.272-1.338 2.314-1.798-.032-.746-.344-1.207-.656-1.668-4.784.3-6.424-4.203-8.459-6.758 2.035 2.555 3.676 7.058 8.37 6.418-1.23-2.103-2.305-3.912-3.518-5.621-6.713-9.46-13.43-18.919-20.201-28.336-4.994-6.944-10.073-13.825-15.114-20.735-.45.005-.899.011-1.662.373 3.638 6.57 7.435 12.887 11.574 18.971-4.14-6.084-7.937-12.401-11.912-18.975-7.175-11.317-17.013-20.495-21.58-33.505.115-.396-.021-.535-.039-.551l-.002-.002c-1.812 1.289-3.094 1.23-4.267-.162 1.169 1.382 2.428 1.393 4.12-.139-5.52-7.858-10.896-15.415-16.304-22.605l.002-.016c.03-.283.027-.347.023-.361v-.004h-.002v-.002c-8.503-1.999-9.258-9.797-12.074-16.455-1.207-.793-2.802-.998-3.66-1.698.858.695 2.45.858 3.625 1.323.03-.203.057-.406.002-1.243-.644-1.238-1.302-1.777-1.746-2.457-8.003-12.254-15.9-24.579-23.988-36.777-5.935-8.95-12.415-17.552-18.106-26.65-6.907-11.044-13.972-21.807-25.406-28.791-5.906-3.608-12.07-7.236-18.942-7.21m88.22 103.502c2.816 6.658 3.572 14.458 12.065 16.095a378 378 0 0 0-11.985-17.384c-.056.509-.086.711-.08 1.289M1586.545 718.95c2.434.026 4.445.037 6.445-.187-.009-.235-.02-.705-.431-.713-2.421.289-4.43.586-6.014.9M1773 939.756c-.002-.425-.005-.597-.225-.652-.49.32-.668.592-.51.923h-.003c-.25-.004-.241.006-.49.278-3.435 1.656-6.62 3.04-9.417 4.517 5.475-1.546 10.56-3.185 15.438-5.088-1.735-.083-3.264.096-4.793.276 0 0-.299.014-.549.017.248-.015.55-.07.549-.271m-152.717-4.963c.45-.641.62-1.068.43-1.594-4.145.537-7.928 1.172-11.44 2.1 3.758.097 7.245-.096 11.01-.506m23.149.187c5.175-.332 9.888-.676 14.535-1.357-1.37-1.105-2.67-1.872-4.305-2.613-.77.082-1.208.14-1.646.197-.843.125-1.686.25-2.584.316a14.4 14.4 0 0 0 2.17-.404c-1.758-.016-3.13.05-4.417.428a16 16 0 0 1-.45-.031c-.842-.348-1.281-.285-1.774.088-.7 1.327-1.346 2.347-1.53 3.376m-31.963-193c-1.329.158-2.202.33-3.055 1.143 5.563.621 11.108.6 16.635.213-.652-.987-1.287-1.607-1.922-2.227-3.734.296-7.469.59-11.658.871m-15.63-1.183c-1.078-.085-1.972.089-2.85.549.025.664.034 1.045.408 1.492 1.098.021 1.835-.023 2.564-.354.017-.666.04-1.046-.121-1.687M509.314 339.613c-2.745-2.574-5.556-5.076-8.336-7.611.016 1.425.033 2.85.146 4.928 1.365 1.79 2.631 2.926 3.898 4.062a43 43 0 0 1 2.49 1.598c-.824-.556-1.63-.99-2.398-1.28 1.35 1.122 2.607 1.924 3.84 2.368-.156-.133-.31-.246-.465-.37.16.125.316.218.477.352.029.277.01.343.002.358v.002h-.002v.001c.345.24.69.479 1.055.81q-.523-.38-1.008-.476c.636.723 1.232 1.16 1.8 1.319q.124.154.25.328c1.078 1.411 2.017 2.202 2.956 2.992.997.679 1.994 1.357 3.302 2.543 2.072 2.258 3.774 4.074 5.606 5.746 3.968 3.621 8.004 7.167 12.011 10.744.527-.57 1.053-1.141 1.674-2.177-9.034-9.058-18.154-17.66-27.298-26.237M293.012 47.736c-.011-.24-.05-.721-.381-.724-.774 0-1.217.002-1.621.31.35.765.665 1.224 1.205 1.574.42-.379.614-.649.797-1.16m-73.397-7.756a1430 1430 0 0 0-11.533 1.09c-.345 1.01-.69 2.021-.664 3.43a86 86 0 0 0 14.002-3.035c-.663-.675-1.014-1.085-1.805-1.485M73.373 221.176c.53.278 1.06.556 1.56.502-.1-.769-.172-1.206-.519-1.573-.53.403-.786.737-1.041 1.07m73.97 148.926c3.084 1.055 5.871 1.971 8.81 2.642.717-.748 1.284-1.251 1.699-2.08-3.726-1.695-7.299-3.062-10.872-4.057.024 1.368.045 2.362.364 3.495m28.038 71.15 1.623-.28c.144-1.173.288-2.347.678-4.189-.142-4.699-.529-8.73-.916-12.762-.738-.265-1.475-.532-2.778-.638.088 6.063.74 11.966 1.393 17.869m1.957-.264c.778.014 1.223.011 1.654-.363-.343-1.455-.673-2.539-1.28-3.398-.42 1.397-.564 2.571-.374 3.761m427.338 518.07c-3.529.664-6.616 1.358-9.46 2.305 1.757.712 3.268 1.17 5.179 1.604 1.455-.089 2.513-.153 3.613-.537.397-1.328.754-2.334.668-3.371m-172.133 2.061c-.719-.016-1.131-.012-1.809.254-2.422.72-4.578 1.176-6.527 1.984 3.747.708 7.286 1.063 10.768 1.108-.747-1.316-1.436-2.322-2.432-3.346m-11.998-2.04c-1.4-.338-2.464-.662-3.549-.675-.348 1.077-.674 1.844-.84 2.932 1.735.678 3.31 1.034 4.885 1.025-.053-1.333-.107-2.3-.496-3.283M199.925 726.3c1.773 6.21 3.393 12.464 5.227 18.35-1.61-10.458-3.375-20.564-5.138-30.67-.97.312-1.938.625-3.397 1.257-.427 1.08-.363 1.84.078 2.74 1.34 2.866 2.44 5.55 3.23 8.323m-24.984-147.567c-.288-2.194-.607-3.968-.925-5.742-.45.002-.9.005-1.711.305-.677.766-.992 1.236-1.278 2.076.093 1.113.157 1.852.494 2.629 1.313.408 2.352.78 3.42.732m-.931-6.111c-.365-1.46-.725-2.552-1.348-3.402-.398 1.42-.534 2.6-.332 3.779.787-.002 1.235-.005 1.68-.377m-11.03-58.244c-.579-1.467-1.13-2.945-1.789-3.99.942 6.5 1.976 12.574 3.352 18.576 4.118-2.6.782-5.965 1.02-8.961-1.101-1.937-1.853-3.777-2.583-5.625m-1.76-15.557c.112-2.097-.053-3.96-.32-6.035-.285-.482-.535-.66-.863-.338.293 2.479.6 4.542 1.184 6.373m-14.384-101.04c-.617-.433-1.099-.631-1.678-.407.56 3.82 1.216 7.217 2.16 10.352.076-3.413-.136-6.562-.482-9.946M90.96 317.623c-.15-9.763-5.168-17.45-9.346-25.605-1.425-.372-2.513-.7-3.578-.649 3.649 8.801 7.275 17.226 10.903 25.65.46.239.92.476 1.644.82.263.107.333.128.377-.216M14.867 144.777c-.38-1.554-.626-3.142-.931-4.714-.893-.843-1.783-1.688-2.782-2.823-.106-.292-.517-.306-.81.114.374 3.348.878 6.328 1.752 9.195 1.175 3.855 2.637 7.622 3.976 11.428.207-1.785.415-3.569.602-5.971-.62-2.82-1.264-5.012-1.807-7.229m67.48-101.8c1.465-1.236 2.581-2.465 3.313-3.791-2.472.55-4.56 1.2-6.474 2.105 1.054.735 1.933 1.214 3.162 1.686m15.928-2.905c3.472-.58 6.599-1.332 9.725-2.086-1.19-.456-2.38-.912-4.107-1.617-.98-.18-1.422-.113-1.926.266-1.388 1.296-2.712 2.28-3.692 3.437m10.059-2.084c.779-.01 1.222-.02 1.871-.289 1.077-1.317 1.95-2.376 2.416-3.525-3.136.578-5.865 1.245-8.392 2.178 1.39.722 2.582 1.178 4.105 1.636m52.805-10.463q.494.075 1.023.164c1.918.34 3.407.675 4.774.582-1.363.096-2.828-.211-4.547-.34-.837.547-1.312 1.508-1.875 1.827.554-.324.961-1.318 1.267-2.127a33 33 0 0 0-.642-.106m93.609 5.557.313.004c-.228.297-.456.596-.762.898q.34-.459.449-.902m-.607.564c-.34.358-.587.709-.725 1.05q-.213.141-.467.284l-.289.01c.583-.448 1.014-.894 1.48-1.344m-126.768 2.239c-.478.082-.973.077-1.478.039a5.6 5.6 0 0 0 1.478-.04m-25.82.65a77 77 0 0 0-13.297 2.8c3.385.378 6.53.472 9.674.565 1.324-.984 2.65-1.97 3.623-3.365m-38.137 8.942c-.397.065-.778.094-1.197.191-.767.896-1.35 1.832-1.975 2.588.553-.723.971-1.592 1.33-2.293-3.465 1.007-6.899 1.554-9.803 2.928 2.908-1.378 6.37-1.957 10.063-3.2.659-.131 1.026-.13 1.582-.214m-3.383 3.033a5 5 0 0 1-.584.574c.212-.165.403-.364.584-.574m14.494 17.312c-2.235.435-4.362 1.43-6.535 2.188 0 0 .008-.009-.035.31-.07-.464-.19-.597-.309-.73q.169.185.33.375l-.037-.09c2.225-.624 4.35-1.618 6.586-2.053m-6.548 2.143.017.03.002.001v.002h.006l.002-.002zm-.024.37v.003zm-27.01 22.499c-.048.065-.089.131-.133.197.044-.065.085-.133.133-.197m-27.748 15.215c.258.847.517 1.585.774 2.56.08.466.158.738.181.979-.026-.185-.104-.313-.181-.332v-.402a39 39 0 0 0-.774-2.805m.399 5.904c-1.328.392-2.34.731-3.43 1.442-.028 1.119.023 1.869.459 2.617 3.628.236 3.485-1.917 2.97-4.059m21.941 20.79.293 1.236a1 1 0 0 1-.16-.065c.038-.451-.047-.812-.133-1.172m356.975 15.195c4.506 12.925 14.345 22.102 21.834 33.062.786-.001 1.236-.006 1.644-.365-1.098-1.959-2.101-3.6-3.22-5.16-6.677-9.302-13.381-18.586-20.258-27.537m-335.36 99.37c.577 1.11 1.213 1.898 1.914 2.48.065-.209.135-.64.043-.956-.693-.826-1.294-1.333-1.957-1.523m5.551 5.856.111.149a.8.8 0 0 1-.13.164q.101-.164.02-.313m-.031.018q-.592.37-.574.644-.09.037-.194.072l-.14.026c.29-.251.489-.478.908-.742m40.244 34.957c3.556 10.436 8.04 20.555 12.127 30.81.896.833 1.985 1.547 2.723 2.479-.738-.926-1.829-1.595-2.737-2.073-4.073-10.66-8.557-20.78-12.113-31.216m-13.701 29.22a.8.8 0 0 0-.248.04c.701 2.117 1.373 3.857 2.3 5.394.007-1.745-.243-3.287-.72-4.943-.56-.286-.967-.496-1.332-.49m32.277 22.18q.098.123.23.232c.551.456 1.515.77 2.208 1.176l.086.381c.016.78.025 1.227.308 1.883 1.39 2.93 2.384 5.711 3.672 8.348-1.288-2.637-2.283-5.417-3.955-8.125.28 1.413.651 2.83.969 4.248-.372-1.508-.884-2.932-1.242-4.457.273-.669.264-1.116.248-1.897-.704-.685-1.722-1.067-2.293-1.557a1.7 1.7 0 0 1-.23-.232m-23.28 3.56c.22.285.423.573.558.885a3.8 3.8 0 0 0-.557-.884m415.897 6.19c1.032 1.013 1.972 1.73 2.907 2.094-1.003-1.032-2.001-1.711-2.907-2.094m-410.064 15.1c1.771 4.594 3.523 8.8 5.46 12.697.266-1.874.342-3.44.075-5.084-2.081-2.72-3.819-5.36-5.535-7.613m434.494 3.336q.196.138.361.045c.07.142.09.197.098.216a1.1 1.1 0 0 1-.459-.261m.469.273c.247.073.456.197.668.467q-.312-.388-.563-.25.445.748.778.572c6.542 6.501 13.047 12.715 19.365 19.115-6.318-6.4-12.824-12.615-19.268-18.892-.32-.107-.578-.297-.88-.791a2 2 0 0 1-.1-.221m-377.2 9.731a30 30 0 0 1 2.464 2.916 27 27 0 0 0-2.464-2.916m409.668 22.188c.807.549 1.571 1.314 2.427 2.156-.862-.848-1.628-1.627-2.427-2.156M156.2 466.084c-.003.202.005.41.012.617-.007-.207-.015-.413-.012-.617m2.81 17.576c2.526.496 2.926 2.033 3.05 3.735.053.733.056 1.497.154 2.222-.1-.738-.099-1.508-.154-2.222-.124-1.583-.535-2.898-2.979-3.008l-.039-.326zm29.454 42.736a368 368 0 0 0-.47 2.598l-.003-.017zm2.52 21.385c-.28.264-.499.515-.6.742.098-.22.333-.476.6-.742m-24.811 1.576c.56 2.807 1.214 5.218 2.15 7.385.847-3.173 1.353-6.082-2.15-7.385m594.12 2.413c.463.397.851.652 1.177.79-.327-.14-.713-.392-1.176-.79m-592.046 11.576c.85 4.146 1.802 7.9 2.752 11.654.314-.468.627-.937.967-1.703.16-1.477.295-2.656.687-4.383.245-.956.233-1.364-.11-1.844-1.618-1.42-2.907-2.769-4.296-3.724m6.572 26.441c.916.676 2.227 1.1 2.768 1.647-.539-.539-1.827-.928-2.635-1.413.054.63.048 1.415.098 2.055-.074-.758-.131-1.504-.23-2.289m27.694 12.195c-.242.015-.516.097-.514.37.59 1.46 1.177 2.557 1.84 3.289-.238-1.455-.55-2.547-1.108-3.657a2 2 0 0 0-.218-.002m-27.272 1.362c.847 4.147 1.791 7.906 3.014 11.402-.053-4.308 1.573-8.897-3.014-11.402m609.252.467c.204.099.395.212.586.324-.192-.112-.382-.227-.586-.324m-602.322 36.546c.567 2.805 1.226 5.215 2.168 7.383.8-3.162 1.35-6.092-2.168-7.383m6.976 37.041c1.556 9.156 3.207 17.88 4.856 26.602-.008-3.055-.018-6.11-.172-9.902-.068-3.823.01-6.91-.262-10.08-1.675-2.407-3.002-4.73-4.422-6.62m754.543 1.998c4.786.764 8.783 1.402 13.047 2.333.366.241.6.408.803.613q-.238-.21-.424-.108c.075.115.146.209.215.29a8 8 0 0 1-.482-.583c-4.376-1.142-8.373-1.78-13.159-2.545m0 0 2.3 2.586c.891.343 1.782.686 2.697 1.094a46 46 0 0 0-2.997-1.068c-.239-.63-.777-1.236-2-2.612m13.768 3.262q.245.225.434.125c.538.224.97.232 1.724.248l.135.053a7 7 0 0 1-.697.127q-.153.019-.313.025c.11-.005.219-.01.313-.025a1.6 1.6 0 0 0 .562-.18c-.754-.016-1.186-.024-1.474.188a5 5 0 0 1-.684-.56m-76.502 4.504c.048 0 .107.011.156.012a6 6 0 0 0-.47.01c.105-.007.204-.021.314-.022m281.217 21.733c-6.905-.162-13.543-.036-20.18.09 3.29.73 6.58 1.46 10.295 2.576.85.392 1.273.401 1.697.41a601 601 0 0 0 7.721-2.153c.549-.19.735-.637.467-.923m-78.692.027c4.44.566 8.917.839 13.95 1.633 9 .726 17.43 1.077 25.863 1.363-8.432-.286-16.863-.637-25.748-.975-5.763.01-11.076.188-16.373-.03 5.297.218 10.61.04 15.803-.372-4.578-.781-9.054-1.053-13.495-1.62m113.256 2.064c9.089.077 18.179.019 27.268.006 7.5.466 15 .932 23.162 1.696 2.092.42 3.866.695 5.543.927-1.752-.217-3.43-.425-5.295-.636-4.27.335-8.122.82-11.988.982 3.866-.163 7.718-.647 11.328-1.281-7.75-.757-15.251-1.222-22.795-1.364-9.046-.31-18.134-.253-27.223-.33m160.711.223c-.245.022-.383.113-.539.328-.033.22.046.657.256.547.512-.247.721-.471.57-.875a2 2 0 0 0-.287 0m-212.427.094c.76.225 1.494.455 2.322.672-3.995.056-7.557.195-11.12.185 3.563.01 7.126-.128 10.688-.201-.587-.18-1.294-.469-1.89-.656m151.3.654c-10.793.078-21.587.038-32.85.043-2.875.661-5.282 1.317-8.132 1.94l-.389-.047a158 158 0 0 1 3.838-.987 52 52 0 0 0-3.45 1.033c2.544-.555 4.735-1.135 6.579-1.728q.543-.111 1.121-.223c11.696.009 22.49.047 33.283-.031m-128.084.502q.13.116.26.201c-.087-.054-.173-.128-.26-.201m269.57.238c-2.383-.117-4.587.117-6.544.637 2.407.096 4.564-.095 6.545-.637m22.432 2.518c.29.216.583.396.88.512-.289-.112-.584-.303-.88-.512m189.84 1.937c4.01.365 7.975.598 11.942.83 22.111.338 44.225.657 66.335 1.061-22.11-.404-44.223-.724-66.627-.766-3.708-.436-7.559-.727-11.65-1.125m-115.578.397q.42.078.844.162c5.811.781 11.134 1.001 16.459 1.22-5.602-.233-10.808-.447-16.34-.833-11.101-.154-21.831-.144-32.56-.088 10.57-.055 21.14-.067 31.597-.461m-47.328.004-1.145.267a1 1 0 0 1 .065-.156c.414.036.75-.035 1.08-.111m233.013 3.166c-1.05.035-1.985.17-2.789.367-22.698-.134-45.107-.135-67.517-.135h67.228c.963-.102 1.926-.204 3.079-.232m55.313 1.224c.13.022.267.036.404.051q-.207-.02-.404-.05m58.678.848c-.276.04-.51.095-.692.152.945.025 1.614.04 2.127-.111q.266.034.563.09c.653.306 1.169.515 1.625.678-.46-.14-.838-.238-1.447-.442-1.077-.174-1.794-.187-2.868-.215l-.154-.047c.271-.042.547-.082.846-.105m-7.746.125c-.49.056-.984.059-1.477.082h-.379c.876-.023 1.369-.026 1.856-.082m-572.787 10.246c19.919-.017 39.838.794 60.056 1.547 5.517.293 10.75.092 15.946.44-5.196-.348-10.428-.146-15.932.144-1.489.233-2.813.297-4.215.441 1.307-.182 2.613-.385 3.916-.732-19.933-1.045-39.852-1.857-59.771-1.84m85.527 2.838c27.964 0 55.927 0 84.36.002 2.023.452 3.58.902 5.304 1.67 4.524.323 8.88.329 13.7.336 1.517-.252 2.773-.665 3.964-.858-1.167.193-2.333.606-3.5.858 4.057.33 8.119.606 12.168 1.01-4.05-.404-8.111-.68-12.633-1.01l-13.53-.02c-1.39.004-2.78.008-5.056.012-12.519.002-24.154-.035-35.787.053 11.633-.088 23.267-.05 35.37-.057.468-.446.468-.889 0-1.664-28.433-.333-56.396-.332-84.36-.332m89.664 1.672c-1.725-.768-3.28-1.22-4.836-1.338 0 .774-.001 1.216.416 1.662 1.807 0 3.2-.003 4.42-.324m176.98 1.328c.696.088 1.398.18 2.094.186-.7-.007-1.402-.098-2.094-.186m-15.293 2.03c-6.486.328-12.505.65-18.31 1.35 7.083.383 13.951.387 20.82.391-.01-.38-.019-.76-.375-1.427-.787-.298-1.227-.31-2.135-.315m295.446 5.337c4.532 5.152 8.398 10.648 11.447 16.57-3.003-5.956-6.918-11.421-11.447-16.57m-47.207.805q-.348.008-.655.14c.718.347 1.324.395 1.893.165-.433-.213-.852-.315-1.238-.305m66.06 36.832c-.137.003-.307.053-.611.3-.235.798-.235 1.248-.22 2.128.741 3.217-1.859 7.126 2.857 8.183-.57-3.813-1.232-7.208-1.895-10.603a1 1 0 0 0-.13-.008m1.592 22.05c-3.184 3.09-3.064 6.426-1.111 9.753.724-3.399 1.093-6.618 1.111-9.752m-6.373 21.321c-.36 1.785-.67 3.204-.713 4.86-.396 1.804-.919 3.482-1.394 5.218.422-1.67.836-3.34 1.101-5.023-3.72 7.013-6.711 14.15-10.098 21.095-2.734 5.608-5.946 10.982-8.947 16.46.001.173.003.347 0 1.025-.003.503.01.988.01.988v.004l-4.54 7.865c1.514-2.621 3.027-5.243 4.194-7.838.346-.027.346-.03.346-.03 0-.002-.015-.487-.018-.73-.176-.417-.365-.58-.507-.777.142.198.332.36.511.274.006-.435.006-.61-.164-.69 3.17-5.57 6.381-10.943 9.116-16.55 3.386-6.945 6.377-14.084 9.832-21.333.602-1.614.911-3.033 1.271-4.818M326.023 889.373c1.13.893 2.254 1.386 3.211 1.62-1.183-.846-2.2-1.435-3.21-1.62m1540.907.557c-.96.775-1.921 1.55-2.774 2.822.235.607.36.718.717.644 1.05-1.03 1.871-1.875 2.537-2.912-.154-.19-.48-.554-.48-.554m-2.85 3.142c-1.466.942-2.749 2.058-3.93 3.672.103.499.473.833.717.635 1.422-1.398 2.598-2.597 3.776-3.797-.127-.112-.253-.223-.563-.51m-4.006 3.996c-1.488.893-2.8 1.959-4.162 3.409-.053.383.13.562.457.505 1.637-1.172 2.945-2.288 4.254-3.404 0 0-.37-.335-.549-.51m-4.304 3.703c-1.66 1.043-3.23 2.174-4.858 3.692-.058.385.124.573.475.527 1.784-1.347 3.22-2.65 4.654-3.95zm-19.848 13.91c-.627.2-1.248.41-1.846.674.588-.26 1.199-.47 1.846-.673m-191.367 16.84c-3.755.228-7.157.848-10.559 1.465.006.744.012 1.488.453 2.606 3.131.041 5.826-.292 8.522-.623.645-1.02 1.29-2.039 1.584-3.448m-10.946 1.487c-2.162.1-3.938.179-5.695.685.799 5.198 3.656 3.07 6.108 1.895-.014-1.115-.02-1.86-.413-2.58m-1286.92.842c2.12.363 4.19.192 5.942.685-1.71-.476-3.68-.271-5.344-.222l-.387-.196c-.084-.095-.13-.173-.21-.267m1255.315 2.902c1.816.417 3.632.54 6.166.951 3.329.29 5.996.607 8.527.16-2.531.447-5.198.132-8.271.123-2.19.324-3.918.653-6.03.965 2.112-.312 3.84-.642 5.311-1.254-2.072-.405-3.888-.527-5.703-.336l-.002-.295zM590.32 940.088l.02.033q-.01-.012-.02-.033m1151.237 4.312c-.903.576-1.66 1.764-2.506 2.577l-.436.056c1.184-.828 2.013-2.047 2.942-2.633m-1084.559.602H657l.002.002c.007.009.03.048.12.203.22.087.414.127.595.145a6.5 6.5 0 0 1-1.006-.14c-1.295.049-2.4.128-3.424.274 1.015-.166 2.081-.307 3.305-.482.41-.007.407-.003.406-.002m1070.418.15c-10.179 1.428-20.308 3.204-30.453 4.875.812.356 1.602.894 2.432 1.1-.835-.206-1.666-.739-2.793-1.047 10.505-1.725 20.635-3.5 30.814-4.928M372.184 946.47c.074.051.15.1.222.156q-.11-.081-.222-.156m1255.547 10.039.283 2.517-.336.014c.246-.816.155-1.623.052-2.531m-43.792 4.215a187 187 0 0 0-5.646 1.55l-.426.018a82 82 0 0 0-3.863-.84c1.188.2 2.328.393 3.611.582 2.22-.452 4.226-.832 6.324-1.31m-37.304.336c6.429.032 12.38.031 18.79.035 2.124-.018 3.833-.04 5.9-.032-2.065-.007-3.747.033-5.333.393 1.24 1.16 2.402 1.826 3.406 1.76-1.12.054-2.391-.607-3.867-1.764-6.516-.36-12.466-.36-18.416-.36-.87.562-1.737 1.545-2.611 1.788.867-.245 1.68-1.23 2.13-1.82m0 0c-14.569-.012-28.657.01-42.623.418.651.624 1.22 1.211 1.777 1.412-.567-.2-1.195-.789-2.154-1.414-1.506-.387-2.512-.385-3.518-.383-.547.116-1.095.232-1.717.299.522-.07.977-.195 1.313-.33-1.213-.01-2.023.012-2.75.359q.234.022.463.027-.41.004-.875-.029c-2.14-.326-3.787-.325-5.434-.324-.872.56-1.74 1.537-2.615 1.781.87-.244 1.684-1.225 2.137-1.814 2.126.032 3.772.032 5.83.033 1.22-.021 2.03-.043 3.244-.033 1.41.03 2.416.028 3.799.027 14.466-.02 28.554-.041 43.123-.03m-94.996.002c.871.036 1.263.037 1.949.037 12.382-.027 24.47-.048 37.037-.037-12.567-.011-24.656.012-36.617.42.657.619 1.231 1.199 1.79 1.398-.568-.198-1.186-.78-2.083-1.397-.813-.384-1.206-.386-1.598-.388-.726.557-1.445 1.527-2.176 1.77.724-.243 1.391-1.217 1.698-1.803m0 0c-9.905-.011-19.332.012-28.631.42.565.65 1.03 1.24 1.488 1.38-.463-.14-.976-.73-1.908-1.38-5.664-.073-10.78.5-15.899.511 5.119-.011 10.234-.584 15.772-.896 9.846-.023 19.273-.046 29.178-.035m120.03.003.427.069c-.785 1.379-1.659 2.012-2.653 2.078.89-.078 1.65-.736 2.227-2.147m-978.401.127a3.1 3.1 0 0 0-1.21.286c-2.09 1.62-4.098 2.893-5.699 4.275 4.818-.847 9.229-1.803 13.639-2.76a154 154 0 0 1-5.137-1.63c-.652-.125-1.155-.186-1.593-.17m-155.26 3.928a1.85 1.85 0 0 0-.881.186c.73.294 1.327.304 1.889.045a2.8 2.8 0 0 0-1.008-.23" style="fill:#fff;fill-opacity:1"/></svg>