<svg xmlns="http://www.w3.org/2000/svg" viewBox="0 0 2031 1000" xml:space="preserve"><path fill="#fff" d="M1192.676 936.646c.025-9.118.025-17.765.025-26.724 6.097 0 11.514-.007 16.932.002 12.473.021 12.418.022 11.823 12.228-.196 4.036-.03 8.09-.03 12.77h242.032c18.33 0 36.663-.128 54.992.04 15.257.14 30.513.575 45.767.972 23.846.622 47.69 1.336 71.536 1.985 25.186.684 50.376 1.234 75.558 2.045 13.351.43 26.69 1.26 40.031 1.968 11.679.62 23.352 1.324 35.028 1.99 11.678.667 23.352 1.4 35.033 1.98 8.917.441 17.843.69 26.765 1.02 18.179.67 36.357 1.33 54.535 2.004 8.59.32 17.177.822 25.769.938 5.263.07 10.028-1.279 14.245-5.048 7.912-7.073 14.74-15.09 18.906-24.697 2.897-6.68 3.871-14.257 5.235-21.521 1.796-9.563 3.178-19.205 4.651-28.827 1.205-7.871 2.26-15.766 3.421-23.644.734-4.982 1.502-9.96 2.324-14.928 1.19-7.191 2.644-14.345 3.615-21.564 1.218-9.049 2.02-18.153 3.077-27.224 1.303-11.183-3.774-20.338-14.672-24.085-8.457-2.908-17.622-4.349-26.583-5.066-13.032-1.044-26.164-.832-39.253-1.189-11.259-.307-22.515-.82-33.776-.953-14.165-.167-28.335.083-42.5-.082-9.925-.116-19.843-.778-29.769-.93-27.42-.417-54.845-.64-82.266-1.052-12.924-.194-25.844-.762-38.768-.952-28.088-.412-56.178-.645-84.267-1.041-17.09-.241-34.179-.628-51.267-.99-14.09-.3-28.177-.775-42.268-.97-29.729-.411-59.46-.637-89.189-1.046-14.924-.205-29.844-.731-44.768-.958-26.421-.402-52.845-.643-79.266-1.035-16.757-.25-33.511-.7-50.268-.973-23.422-.38-46.845-.652-70.267-1.02-18.585-.292-37.168-.703-55.753-.98-25.255-.378-50.52-.398-75.765-1.1-20.112-.56-40.34-.789-60.26-3.255-17.128-2.12-34.618-2.663-51.274-8.487-10.89-3.81-22.886-4.918-33.231-9.722-15.68-7.282-30.895-15.927-44.02-27.507-9.456-8.342-18.592-17.05-27.782-25.69-22.82-21.454-45.597-42.955-68.376-64.454-7.445-7.026-14.82-14.126-22.265-21.15-10.984-10.36-22.014-20.671-33.004-31.025-11.886-11.196-23.795-22.368-35.606-33.643a3586 3586 0 0 1-31.262-30.24c-18.597-18.19-37.065-36.512-55.719-54.644-14.231-13.833-28.638-27.486-43.018-41.166-12.772-12.151-26.581-23.377-38.193-36.545-16.262-18.443-33.875-35.734-47.873-56.22-19.783-28.949-40.453-57.29-60.692-85.928-11.97-16.939-23.802-33.975-35.765-50.919-12.836-18.18-25.148-36.776-38.845-54.288-9.378-11.99-20.76-22.41-31.197-33.58-9.66-10.34-21.901-13.327-35.604-14.76-16.06-1.677-31.01 2.192-46.3 5.232-11.435 2.273-22.986 3.95-34.447 6.1-13.507 2.534-26.951 5.398-40.46 7.916-11.627 2.168-23.328 3.937-34.957 6.087-19.562 3.618-33.234 15.07-40.778 33.095-2.849 6.806-3.25 14.731-4.163 22.22-.6 4.924-.021 9.982-.148 14.976-.276 10.86 5.456 19.314 10.813 28.007 4.913 7.97 9.07 16.43 14.285 24.187 9.79 14.56 20.398 28.572 30.107 43.183 8.366 12.589 16.017 25.657 23.87 38.582 6.515 10.725 13.254 21.342 19.18 32.39 6.355 11.846 12.312 23.951 17.618 36.297 4.087 9.51 7.425 19.426 10.13 29.422 2.647 9.789 4.141 19.896 6.01 29.887 1.37 7.323 2.65 14.666 3.748 22.034 1.223 8.216 2.146 16.477 3.288 24.707 1.227 8.846 2.64 17.668 3.817 26.52 1.159 8.72 1.955 17.491 3.209 26.196 1.828 12.69 4.078 25.32 5.85 38.017 1.287 9.214 2 18.507 3.132 27.744 1.922 15.685 4.114 31.338 5.921 47.036 1.255 10.895 1.861 21.864 3.119 32.759 1.024 8.874 2.721 17.668 3.861 26.531.898 6.976 1.227 14.025 2.12 21 1.157 9.026 2.378 18.057 4.016 27.003 2.443 13.348 5.017 26.683 8.01 39.917 3.418 15.123 8.451 29.661 17.027 42.809 7.575 11.613 14.042 24.048 22.499 34.957 7.292 9.408 16.444 17.452 25.244 25.59 7.712 7.131 15.656 14.16 24.248 20.158 14.318 9.996 29.212 19.346 45.681 25.366 10.081 3.684 20.77 5.811 31.293 8.155 10.726 2.39 21.554 4.362 32.395 6.176 5.956.996 12.028 1.296 18.05 1.892.66.065 1.332.012 1.998.008 53.09-.333 106.178-.692 159.267-.993 63.588-.361 127.177-.618 190.765-1.035 23.757-.156 47.512-.585 71.267-1.003 7.568-.133 15.127-.773 22.695-.931 7.997-.167 16-.066 24-.033q120.102.49 240.202 1.002c1.145.005 2.289.112 3.754.188v26.72c-1.684.083-3.291.203-4.9.234-14.939.292-29.876.687-44.816.818-16.214.142-32.43.112-48.646.023-43.435-.24-86.87-.581-130.305-.822-16.16-.09-32.32-.013-48.48-.012-11.22 0-22.442-.083-33.661.016-27.162.239-54.324.507-81.484.881-9.636.133-19.269.89-28.902.865-15.768-.04-31.537-.768-47.303-.713-60.443.21-120.885.574-181.327.976-19.48.13-38.96.727-58.44.789-16.497.053-32.847-1.803-48.98-5.274-12.723-2.737-25.467-5.416-38.08-8.605-14.34-3.626-27.154-10.796-39.472-18.729-12.578-8.1-25.235-16.167-37.146-25.188-13.866-10.502-27.239-21.883-37.233-36.296-11.755-16.953-23.374-34.085-33.685-51.928-8.385-14.51-12.873-30.775-15.815-47.38-1.617-9.133-4.287-18.08-5.846-27.22-2.284-13.389-4.187-26.851-5.904-40.327-1.93-15.153-3.412-30.363-5.202-45.534-1.864-15.805-3.96-31.582-5.774-47.392-1.537-13.394-2.573-26.85-4.273-40.222-1.86-14.621-4.285-29.17-6.353-43.766-1.264-8.92-2.285-17.875-3.48-26.805-1.326-9.904-2.64-19.81-4.113-29.693-1.78-11.956-3.742-23.885-5.584-35.832-1.123-7.28-2.328-14.553-3.216-21.864-1.88-15.48-5.613-30.445-12.382-44.523-8.145-16.939-16.03-34.032-24.97-50.55-8.028-14.833-16.969-29.213-26.17-43.362-10.056-15.466-21.228-30.207-31.261-45.687-10.247-15.809-19.794-32.076-29.464-48.251-4.673-7.818-6.415-16.665-6.822-25.58-.465-10.193-.517-20.461.162-30.637.893-13.4 5.872-25.357 13.867-36.334 6.752-9.27 13.953-17.826 24.045-23.477 8.794-4.926 17.768-9.406 28.05-10.587 4.67-.536 9.244-1.878 13.875-2.788 13.595-2.67 27.16-5.52 40.805-7.901 15.157-2.645 30.413-4.724 45.581-7.306 6.558-1.117 12.943-3.31 19.516-4.255 12.499-1.8 25.065-4.148 37.623-4.27 17.434-.171 34.215 3.501 49.122 13.701 11.418 7.814 20.136 18.333 29.524 28.145 7.447 7.783 14.334 16.196 20.714 24.884 7.493 10.203 13.945 21.163 21.245 31.516 15.794 22.397 31.945 44.542 47.754 66.929 14.183 20.083 27.95 40.462 42.19 60.504 11.206 15.772 22.604 31.424 34.412 46.746 5.93 7.695 12.666 14.838 19.558 21.708 21.09 21.023 42.368 41.858 63.697 62.64 15.397 15.003 31.062 29.73 46.472 44.719 10.87 10.572 21.346 21.553 32.295 32.04 14.954 14.323 30.218 28.32 45.298 42.513 12.747 11.996 25.432 24.058 38.123 36.114 7.639 7.256 15.196 14.6 22.86 21.828 27.49 25.926 55.029 51.8 82.51 77.736 9.294 8.77 18.415 17.723 27.72 26.482 9.229 8.687 19.796 15.44 31.42 20.399 10.402 4.437 20.78 9.15 31.571 12.403 14.792 4.459 29.909 7.741 45.487 8.682 14.598.882 29.128 2.872 43.725 3.777 9.963.618 19.991.138 29.989.272 21.275.284 42.55.608 63.824.995 14.15.258 28.297.636 42.444.996 10.156.258 20.31.768 30.467.827 27.546.16 55.094.03 82.64.228 18.108.13 36.215.634 54.322.963 17.996.327 35.992.654 53.987.963 20.64.354 41.28.649 61.918 1.05 11.278.218 22.551.674 33.83.896 20.44.403 40.881.812 61.324 1.037 37.772.416 75.546.646 113.318 1.066 16.486.184 32.968.695 49.454.97 22.775.382 45.552.638 68.326 1.036 8.447.148 16.89.757 25.334.775 10.602.023 21.211-.662 31.807-.473 18.739.335 37.475.994 56.203 1.737 7.396.294 14.76 1.537 22.153 1.71 13.7.322 27.413.073 41.118.264 7.112.1 14.375-.183 21.29 1.152 11.253 2.174 22.485 4.386 32.752 10.459 17.47 10.332 24.605 26.082 24.96 45.275.153 8.257-2.009 16.56-3.152 24.837-1.5 10.862-2.932 21.734-4.584 32.573-1.355 8.892-3.1 17.724-4.469 26.614-1.618 10.513-2.913 21.076-4.54 31.587-2.137 13.807-3.421 27.997-11.083 40.14-7.238 11.474-15.313 22.274-26.48 30.62-7.474 5.585-15.826 8.309-24.48 8.475-19.424.373-38.878-.384-58.312-.95-15.057-.438-30.104-1.245-45.152-1.959-20.16-.956-40.318-2.007-60.479-2.967-15.048-.716-30.098-1.415-45.151-2.008-18.716-.738-37.435-1.38-56.153-2.022-10.942-.376-21.885-.742-32.83-.987-17.607-.394-35.22-.59-52.826-1.04-22.22-.57-44.435-1.343-66.654-1.952-5.76-.157-11.528.048-17.29-.051-13.329-.23-26.656-.75-39.984-.764-11.775-.012-23.552.78-35.326.738-65.65-.23-131.3-.607-196.95-.931-1.641-.009-3.283-.001-5.691-.001V989h-27.487c0-17.725 0-34.804.026-52.355"/></svg>