<svg xmlns="http://www.w3.org/2000/svg" viewBox="0 0 1921 1000" xml:space="preserve"><path fill="#fff" d="M527.002 937.925c24.33 0 48.161.04 71.992-.044 3.941-.014 8.386.473 11.693-1.134 4.133-2.008 7.812-5.538 10.828-9.133 6.032-7.191 16.021-11.03 25.104-8.311 14.223 4.257 28.352 8.83 42.526 13.253 2.631.82 5.306 1.507 7.925 2.364 5.743 1.878 6.763-2.856 8.49-6.22 5.235-10.198 16.395-15.243 27.616-13.267 9.679 1.705 19.54 2.363 29.321 3.49 12.725 1.466 25.45 2.931 38.174 4.408 7.332.852 14.66 1.734 21.99 2.59 9.627 1.122 19.259 2.204 28.881 3.36 3.902.47 7.77 1.387 11.68 1.587 16.206.83 32.417 1.585 48.634 2.144 30.487 1.051 60.974 2.56 91.47 2.783 63.4.465 126.806.214 190.21.265 1.139.001 2.279.094 3.071.129v27.89c-8.818 0-16.904-.095-24.987.02-14.77.208-29.538.658-44.308.788-16.213.143-32.428.127-48.64.024-44.604-.281-89.21-.38-133.807-1.089-21.336-.339-42.673-1.575-63.97-2.995-17.067-1.138-34.101-2.927-51.098-4.877-13.992-1.606-27.887-4.047-41.866-5.79-10.443-1.301-20.952-2.08-31.432-3.092-7.374-.712-14.895-.769-22.069-2.376-4.627-1.037-6.065.97-7.278 4.146-2.436 6.38-6.73 10.78-12.538 14.395-8.324 5.182-16.107 2.098-24.028-.37-8.976-2.797-17.855-5.904-26.818-8.745-6.172-1.956-12.462-3.543-18.604-5.583-2.996-.995-4.731-.249-6.534 2.251-8.06 11.171-19.894 14.856-32.823 15.065-24.327.392-48.663.115-72.995.264-8.814.054-17.624.721-26.438.775-20.532.125-41.077.479-61.593-.1-13.653-.386-27.235-1.69-40.644-5.393-12.526-3.459-25.866-4.024-38.321-7.665-11.426-3.34-22.64-8.2-33.062-13.985-14.61-8.111-29.086-16.796-42.362-26.89-15.97-12.141-31.149-25.39-43.75-41.347-13.69-17.334-25.478-35.85-35.786-55.298-6.087-11.485-10.263-23.782-12.99-36.564-1.932-9.053-4.716-17.93-6.468-27.012-2.137-11.072-3.615-22.273-5.332-33.426-1.046-6.799-2.168-13.593-2.97-20.423-1.82-15.504-3.371-31.04-5.201-46.543-1.827-15.477-3.989-30.916-5.764-46.399-1.574-13.727-2.676-27.51-4.257-41.236-1.163-10.09-2.771-20.128-4.17-30.19-1.6-11.519-3.137-23.046-4.798-34.555-1.519-10.528-3.221-21.03-4.739-31.558-1.122-7.787-1.977-15.612-3.135-23.392-1.107-7.43-2.572-14.806-3.656-22.238-.971-6.656-1.549-13.369-2.466-20.034-.892-6.484-1.88-12.961-3.132-19.382-.177-.906-2.046-2.014-3.2-2.1-3.98-.295-8.003-.399-11.987-.175-9.626.541-19.827-7.433-22.659-15.893-6.426-19.2-12.747-38.46-20.082-57.319-5.619-14.446-12.724-28.315-19.17-42.44-9.924-21.752-19.72-43.564-29.827-65.23-5.522-11.84-11.928-23.274-17.234-35.203-2.65-5.958-5.794-11.815-5.91-18.894-.128-7.791-2.843-15.624-2.398-23.321.695-12.017-.146-24.317 4.603-35.936 4.89-11.967 12.137-22.277 20.678-31.816C44.829 43.499 58.63 38.219 72.542 33.39c5.484-1.904 11.507-2.249 17.281-3.321 10.747-1.996 21.479-4.082 32.243-5.987 10.143-1.794 20.326-3.368 30.48-5.107 8.042-1.378 16.052-2.945 24.101-4.278 15.954-2.643 31.969-4.947 47.876-7.84 11.987-2.181 23.936-.934 35.7.48 10.31 1.239 19.823 6.128 28.51 11.97 15.553 10.458 26.956 25.125 39.24 38.948 8.416 9.47 15.669 19.597 22.5 30.257 9.3 14.514 19.894 28.193 29.821 42.31 11.434 16.258 22.676 32.652 34.126 48.899 16.25 23.057 32.815 45.895 48.868 69.088 13.562 19.593 27.773 38.596 44.49 55.657 6.765 6.905 12.746 14.599 19.707 21.284 19.36 18.592 39.138 36.75 58.569 55.269 9.858 9.396 19.276 19.251 28.98 28.81 9.909 9.76 19.914 19.421 29.898 29.104 2.851 2.766 5.799 5.432 8.662 8.186 19.082 18.355 38.046 36.835 57.258 55.053 19.76 18.738 39.802 37.18 59.637 55.841 9.79 9.211 19.36 18.655 29.085 27.935 13.38 12.767 26.801 25.49 40.225 38.209 11.793 11.174 24.01 21.938 35.261 33.633 5.847 6.077 12.326 6.4 18.982 4.485 17.253-4.964 34.77-7.52 52.594-6.133 7.644.595 15.337 2.955 22.583 5.654 8.368 3.117 17.138 6.333 24.154 11.607 9.328 7.013 17.36 15.836 25.483 24.327 3.514 3.674 6.915 7.07 12.1 7.28 20.033.809 40.075 1.409 60.115 2.057 9.853.318 19.706.644 29.561.833 8.25.158 16.503.093 24.754.176 31.603.32 63.206.604 94.808 1.016 12.654.165 25.303.76 37.958.93 31.27.42 62.544.67 93.816 1.06q32.416.403 64.827 1.007c33.05.617 66.1 1.224 99.146 2.038 11.875.292 23.73 1.524 35.604 1.7 19.9.297 39.81.072 59.715.1 20.165.028 40.332-.012 60.496.184 12.944.126 25.884.737 38.829.934 27.108.413 54.22.598 81.326 1.1 6.922.129 13.824 1.17 20.745 1.645 3.336.228 6.696.111 10.044.155 10.238.134 18.565 5.704 26.24 11.106 14.206 9.999 25.995 22.68 31.027 39.931 4.4 15.086 6.05 30.511 2.444 46.126-1.53 6.627-2.095 13.625-4.61 19.843-4.297 10.626-9.303 21.04-14.877 31.061-10.746 19.322-26.919 33.596-45.148 45.552-8.35 5.476-16.976 10.82-26.117 14.727-11.712 5.006-24.017 8.665-36.169 12.586-7.25 2.34-14.639 4.323-22.072 5.992-6.177 1.387-12.487 2.254-18.777 3.044-11.56 1.451-23.14 2.748-34.726 3.97-8.03.846-16.101 1.32-24.127 2.204-13.541 1.49-27.049 3.297-40.596 4.723-6.403.674-12.876.644-19.299 1.16-15.439 1.241-30.846 3.293-46.304 3.757-17.252.517-34.546-.408-51.822-.583-3.273-.033-6.55.727-9.828.742-17.55.078-35.1.108-52.649.025-61.806-.294-123.611-.64-185.417-.96-.661-.003-1.323.089-2.495.173v25.61h-24.77v-80.491h25.189v26.975c7.168-.402 13.888-1.123 20.606-1.103 82.107.246 164.214.61 246.321.916 11.83.044 23.687.427 35.484-.212 14.12-.764 28.182-2.546 42.282-3.721 10.365-.864 20.779-1.188 31.12-2.248 11.893-1.218 23.724-3.034 35.594-4.491 7.339-.9 14.71-1.53 22.05-2.433 12.673-1.558 25.335-3.205 37.995-4.866 22.265-2.921 43.51-9.68 63.55-19.419 11.723-5.697 22.524-13.536 33.106-21.278 13.571-9.93 22.696-23.743 29.993-38.659 4.354-8.9 7.701-18.304 7.984-28.38.24-8.518.65-17.119-.22-25.559-1.079-10.475-7.955-18.092-14.934-25.423-7.739-8.128-17.224-12.19-28.374-12.388-20.94-.371-41.88-.652-62.819-1.01-17.773-.304-35.546-.663-53.32-.998-17.644-.333-35.287-.74-52.932-.983-28.618-.397-57.239-.634-85.856-1.044-14.443-.207-28.881-.734-43.324-.959-25.651-.4-51.306-.639-76.957-1.025-17.276-.26-34.548-.67-51.823-.99-18.44-.343-36.881-.688-55.323-.977-23.439-.368-46.879-.671-70.318-1.018-22.105-.327-44.21-.673-66.315-1.015-20.941-.325-41.881-.702-62.823-.976-28.936-.378-57.875-.542-86.808-1.084-11.883-.223-23.767-1.005-35.625-1.875-13.03-.957-23.326-8.296-30.224-18.151-11.389-16.271-26.17-25.25-45.17-29.81-13.28-3.189-25.571-.88-38.198 1.822-8.11 1.734-16.186 4.39-24.372 4.814-12.386.641-22.723-4.835-31.677-13.502-15.459-14.963-31.4-29.424-46.956-44.287-21.094-20.153-41.94-40.565-63.035-60.716-16.656-15.911-33.535-31.59-50.305-47.382-11.216-10.562-22.402-21.156-33.623-31.713-10.496-9.875-21.136-19.6-31.502-29.61-10.125-9.777-19.942-19.873-29.968-29.753-18.955-18.678-37.787-37.485-57.006-55.888-14.509-13.894-29.876-26.9-44.212-40.963-8.652-8.488-15.743-18.546-24.11-27.353-10.895-11.467-20.008-24.177-28.871-37.213-9.993-14.698-20.94-28.743-31.255-43.227-12.674-17.794-25.097-35.767-37.679-53.627-11.267-15.995-22.642-31.914-33.893-47.92-6.742-9.59-13.069-19.483-20.07-28.877a583 583 0 0 0-23.263-29.177c-5.896-6.937-12.415-13.352-18.773-19.887-9.865-10.138-21.577-14.989-36.055-16-15.89-1.11-30.994 1.045-46.313 4.292-14.985 3.175-30.19 5.296-45.256 8.115-18.753 3.51-37.36 7.976-56.227 10.627-10.433 1.466-20.488 3.808-30.041 7.693C60.06 69.56 54.13 75.963 48.95 83.071c-7.398 10.153-10.357 21.392-11.118 33.76-.59 9.576-1.476 19.034 2.293 28.108 3.072 7.394 6.55 14.621 9.914 21.892 5.303 11.459 10.67 22.887 15.995 34.336 8.77 18.857 17.637 37.671 26.26 56.596 7.743 16.998 15.52 33.993 22.7 51.231 5.164 12.394 9.581 25.116 13.867 37.848 1.172 3.48 3.01 3.775 6.023 4.352 7.116 1.364 14.34 2.802 21.07 5.388 9.672 3.716 12.35 12.76 14.065 21.903 1.837 9.789 3.445 19.626 4.892 29.48 1.547 10.532 2.702 21.12 4.182 31.661 2.544 18.127 5.308 36.222 7.787 54.357 1.888 13.814 3.342 27.688 5.237 41.5 1.757 12.798 4.019 25.528 5.728 38.331 1.326 9.934 2.065 19.945 3.207 29.905 1.193 10.406 2.639 20.784 3.82 31.19 1.169 10.291 2.092 20.61 3.222 30.904 1.02 9.295 2.123 18.581 3.28 27.86 1.177 9.438 2.216 18.903 3.771 28.28 1.704 10.28 3.752 20.513 5.973 30.695 2.552 11.698 4.876 23.496 8.369 34.924 3.79 12.397 10.478 23.517 17.477 34.455 9.387 14.672 18.309 29.727 30.826 41.971 16.978 16.608 34.494 32.636 56.08 43.4 7.057 3.518 13.477 8.49 20.76 11.338 10.475 4.096 21.347 7.366 32.279 10.06 14.194 3.497 28.511 6.818 42.969 8.823 11.272 1.564 22.837 1.23 34.276 1.313 8.594.062 17.192-.697 25.792-.829 12.183-.186 24.37-.132 37.056-.178"/></svg>