<svg xmlns="http://www.w3.org/2000/svg" viewBox="0 0 1875 1000" xml:space="preserve"><path fill="#fff" d="M416.05 929.925c11.814.703 23.177 2.003 34.542 2.012 133.32.108 266.64.039 399.959-.052 9.627-.006 19.253-.563 28.88-.824 2.667-.072 5.424-.426 7.988.096 4.794.977 6.198-1.587 7.695-5.445 2.79-7.187 8.738-9.89 16.199-9.796 27.933.35 55.87.531 83.799 1.05 28.211.523 56.416 1.41 84.625 2.064 16.126.374 32.256.555 48.382.912 11.273.249 22.546.585 33.813 1.035 2.203.087 4.377.873 5.88 1.192v26.7c-12.813 0-24.904.057-36.993-.037-3.448-.026-6.888-.66-10.338-.727-22.272-.435-44.549-.683-66.82-1.201-22.887-.533-45.768-1.343-68.653-1.957-15.107-.405-30.218-.637-45.325-1.037-4.447-.118-8.884-.702-13.33-.784-3.667-.067-6.478.844-7.43 5.394-1.217 5.816-8.544 10.374-15.561 10.42-13.496.087-26.993.105-40.489.13-10.385.02-20.772-.104-31.155.038-11.16.152-22.316.778-33.473.762-13.027-.019-26.054-.672-39.083-.732-8.14-.038-16.284.77-24.424.734-12.442-.054-24.881-.582-37.324-.77-8.664-.13-17.334-.13-25.998.002-11.304.171-22.604.727-33.906.746-9.6.016-19.2-.626-28.802-.739a1535 1535 0 0 0-35.744.001c-8.533.1-17.063.787-25.592.742-17.43-.09-34.859-.599-52.29-.75-18.657-.16-37.321.147-55.973-.233-13.722-.28-27.379-1.211-40.868-4.555-12.5-3.098-25.571-4.061-37.895-7.661-11.266-3.29-22.213-8.184-32.671-13.59-11.937-6.168-23.624-13.052-34.594-20.794-10.636-7.506-20.52-16.167-30.217-24.896-24.682-22.22-41.993-49.866-56.794-79.195-6.167-12.22-9.627-25.396-12.233-38.832-1.89-9.742-4.713-19.304-6.594-29.047-1.487-7.705-2.137-15.569-3.224-23.353-1.949-13.957-4.085-27.89-5.869-41.868-1.021-8.005-1.373-16.092-2.258-24.117-1.314-11.907-2.843-23.79-4.264-35.684-.916-7.661-1.82-15.324-2.697-22.99-1.4-12.239-2.674-24.493-4.186-36.719-1.488-12.04-3.159-24.058-4.838-36.074-1.429-10.22-3.048-20.414-4.465-30.636-1.577-11.37-2.924-22.771-4.55-34.133-1.32-9.233-2.976-18.416-4.347-27.642-.99-6.651-1.409-13.404-2.712-19.987-1.573-7.943-2.875-16.142-5.942-23.547-8.212-19.826-17.06-39.402-26.168-58.837-3.551-7.578-8.387-14.566-12.79-21.73-9.594-15.615-19.007-31.352-29.033-46.687-7.04-10.768-15.388-20.682-22.391-31.472-8.56-13.19-16.082-27.05-24.511-40.328-6.393-10.071-9.645-21.122-9.86-32.69-.239-12.86.2-25.91 2.238-38.574 1.246-7.738 5.012-15.63 9.535-22.142 5.744-8.27 12.731-15.997 20.403-22.523 9.622-8.184 21.309-12.893 34.02-14.704 4.336-.618 8.565-1.951 12.876-2.784 13.768-2.66 27.526-5.38 41.335-7.81 14.829-2.608 29.728-4.814 44.564-7.382 11.254-1.948 22.391-4.717 33.703-6.16 12.284-1.566 24.488-2.583 37.162-1.305 14.473 1.459 26.427 7.294 38.329 14.382.987.588 2.05 1.138 2.856 1.93 17.855 17.562 35.322 35.466 49.41 56.334 9.551 14.147 18.94 28.41 28.738 42.384 8.345 11.902 17.304 23.372 25.747 35.207 9.457 13.258 18.616 26.728 27.947 40.077 16.807 24.042 33.31 48.307 50.632 71.973 7.275 9.94 16.462 18.461 24.513 27.856 17.273 20.159 38.21 36.499 56.984 55.088 9.294 9.204 18.467 18.53 27.803 27.69 19.253 18.89 38.491 37.796 57.9 56.524 18.988 18.32 38.168 36.439 57.289 54.62 12.563 11.945 25.126 23.89 37.772 35.747 13.401 12.566 26.964 24.96 40.337 37.557 10.034 9.451 19.82 19.165 29.822 28.651 17.197 16.31 34.294 32.731 51.783 48.723 11.82 10.81 25.904 17.115 41.985 18.98 6.6.767 11.297-1.905 15.711-6.212 3.497-3.411 6.855-7.26 11.003-9.653 11.287-6.513 21.625-2.65 32.007 3.44 11.774 6.908 21.46 16.16 30.527 25.983 7.72 8.364 17.055 11.075 27.696 11.192 13.83.152 27.665.018 41.495.184 14.157.17 28.311.644 42.469.826 33.814.436 67.63.74 101.445 1.174 19.988.256 39.975.625 59.961 1 14.61.274 29.216.749 43.827.944 30.94.415 61.884.588 92.823 1.08 32.717.521 65.433 1.199 98.144 2.01 13.054.324 26.092 1.264 39.144 1.748 2.924.109 5.879-.793 8.812-.746 8.28.134 16.554.722 24.832.769 26.04.149 52.082.025 78.122.22 14.944.111 29.883.719 44.826.952 25.273.396 50.55.528 75.82 1.073 8.966.194 18.237.044 26.777 2.295 8.276 2.18 16.659 6.107 23.454 11.287 13.087 9.977 24.37 22.459 28.598 38.65 3.36 12.864 5.703 26.45 2.615 40.038-1.8 7.92-2.852 16.134-5.711 23.658-3.713 9.77-7.98 19.576-13.672 28.28-6.502 9.945-14.105 19.429-22.537 27.795-12.795 12.697-28.142 22.034-44.401 29.959-16.29 7.94-33.636 12.685-50.94 17.37-10.813 2.927-22.168 3.987-33.34 5.43-17.099 2.21-34.242 4.09-51.38 5.989-10.288 1.14-20.589 2.22-30.908 3.033a4116 4116 0 0 1-57.283 4.131c-12.536.812-25.1 1.882-37.642 1.762-27.052-.258-54.098-1.19-81.145-1.884-10.943-.28-21.883-.706-32.827-.983-27.384-.691-54.77-1.295-82.153-2.012-21.22-.555-42.437-1.232-63.656-1.844-1.625-.047-3.252-.006-5.151-.006l-1.309 25.76h-24.898l3.053-75.627h24.52v22.714c9.518 0 19.142-.243 28.75.058 13.57.426 27.12 1.581 40.69 1.83 19.52.358 39.055-.047 58.576.29 24.88.43 49.754 1.278 74.631 1.941 11.437.305 22.874.637 34.313.885 16.924.366 33.866 1.284 50.769.809 14.764-.415 29.477-2.503 44.225-3.706 6.75-.55 13.565-.428 20.289-1.175 15.26-1.695 30.476-3.778 45.72-5.623 7.153-.866 14.346-1.414 21.49-2.339 14.74-1.908 29.575-3.36 44.158-6.125 19.082-3.618 37.386-10.006 54.733-18.86 23.028-11.754 41.837-28.188 54.414-50.993 5.703-10.343 9.797-21.52 10.488-33.455.42-7.252-.239-14.58-.618-21.864-.749-14.406-10.244-23.434-20.244-31.95-6.604-5.625-14.929-7.148-23.23-7.46-12.316-.465-24.66-.106-36.991-.251q-34.206-.401-68.41-.999c-12.94-.226-25.875-.77-38.815-.945-28.269-.382-56.54-.559-84.81-.943-12.273-.167-24.54-.77-36.814-.946-28.968-.415-57.94-.636-86.908-1.048-17.287-.245-34.57-.772-51.856-1.048-25.604-.407-51.21-.677-76.813-1.056-16.44-.244-32.879-.593-49.319-.871-22.936-.388-45.873-.757-68.81-1.13-20.605-.335-41.21-.703-61.815-.988-26.936-.371-53.879-.42-80.806-1.113-13.813-.355-27.774-.811-41.321-3.197-6.637-1.169-12.907-6.29-18.56-10.64-5.555-4.276-9.932-10.045-15.168-14.781-5.207-4.71-10.879-8.903-16.27-13.414-2.719-2.276-4.908-1.564-7.143.699-3.795 3.841-7.18 8.344-11.601 11.257-10.954 7.217-23.439 8.37-35.729 4.974-14.442-3.99-28.894-8.55-40.64-18.649-8.644-7.431-17.388-14.756-25.794-22.45-11.354-10.391-22.479-21.036-33.604-31.674-12.946-12.38-25.741-24.915-38.683-37.298-12.672-12.124-25.429-24.16-38.18-36.2-11.069-10.45-22.15-20.887-33.284-31.267-13.054-12.17-26.309-24.128-39.217-36.45-10.536-10.058-20.597-20.613-31.037-30.774-15.157-14.753-30.506-29.31-45.696-44.03-8.473-8.212-16.745-16.632-25.186-24.877-10.331-10.091-20.674-20.172-31.158-30.102-4.161-3.942-9.05-7.146-13.018-11.254-7.331-7.591-14.251-15.581-21.297-23.446-4.058-4.532-8.253-8.968-11.987-13.759a1020 1020 0 0 1-21.133-28.1 7654 7654 0 0 1-40.729-56.716c-13.557-19.054-26.991-38.195-40.444-57.323-15.622-22.213-30.442-45.046-47.066-66.481-11.846-15.274-25.512-29.294-39.516-42.67-7.21-6.886-17.453-9.115-27.77-10.352-14.65-1.756-28.757 1.116-42.915 3.372-14.524 2.313-28.824 5.996-43.292 8.702-17.39 3.252-34.922 5.765-52.262 9.246-12.15 2.44-24.351 5.208-35.993 9.342-5.347 1.898-10.124 6.842-13.866 11.455-4.648 5.73-8.713 12.227-11.6 19.001-2.232 5.24-2.767 11.38-3.173 17.182-.91 13-.535 25.818 6.788 37.48 7.029 11.196 13.207 22.94 20.496 33.955 9.855 14.895 21.024 28.939 30.528 44.041 15.16 24.089 29.58 48.65 43.99 73.2 9.636 16.418 17.092 33.953 22.38 52.178 4.276 14.73 7.287 29.829 8.86 45.231 1.57 15.366 4.624 30.575 6.766 45.889 1.877 13.423 3.22 26.921 5.112 40.342 2.09 14.82 4.632 29.575 6.789 44.386 1.247 8.566 2.216 17.176 3.141 25.785 1.103 10.255 1.832 20.552 3.076 30.788 1.396 11.496 3.28 22.931 4.769 34.417.905 6.982 1.382 14.018 2.198 21.013 1.195 10.242 2.538 20.467 3.786 30.703 1.088 8.923 1.85 17.895 3.267 26.764 1.69 10.577 3.647 21.13 5.998 31.579 2.763 12.277 4.745 24.979 9.498 36.493 5.422 13.137 13.374 25.254 20.5 37.658 8.711 15.161 19.31 28.964 32.344 40.629 12.639 11.31 25.212 22.861 40.152 31.18 11.523 6.416 23.017 13.153 35.22 17.996 10.097 4.009 21.189 5.55 31.88 8.014 9.257 2.133 18.57 4.026 28.308 6.028"/></svg>