<svg xmlns="http://www.w3.org/2000/svg" viewBox="0 0 1945 1000" xml:space="preserve"><path fill="#fff" d="M263.531 1c1.87.984 3.138 2.427 4.695 2.882 14.346 4.189 27.053 11.072 37.29 22.137 7.82 8.451 16.007 16.604 23.3 25.489 8.371 10.2 16.065 20.97 23.819 31.662 8.02 11.06 15.795 22.3 23.61 33.508 5.87 8.42 11.538 16.98 17.465 25.358 6.97 9.851 14.208 19.512 21.18 29.362 20.761 29.325 41.698 58.532 62.056 88.135 9.596 13.953 20.478 26.7 32.035 38.969 9.594 10.185 18.844 20.72 28.83 30.504 12.167 11.923 25.073 23.088 37.418 34.834 9.53 9.068 18.64 18.577 28.021 27.804 19.751 19.422 39.45 38.899 59.372 58.144 19.752 19.081 39.734 37.923 59.647 56.836 11.595 11.012 23.212 22 34.89 32.922 18.93 17.705 38.01 35.251 56.856 53.044 17.44 16.467 34.653 33.175 51.978 49.764 7.248 6.94 14.302 14.112 21.925 20.615 2.299 1.962 6.32 3.066 9.366 2.754 6.771-.693 13.44-2.461 20.124-3.914 18.93-4.116 37.644-5.753 56.679.484 15.916 5.214 30.659 12.002 42.83 23.676 3.491 3.349 7.466 6.557 9.847 10.632 6.462 11.06 16.818 13.076 28.075 13.276 13.327.236 26.66.046 39.989.206 15.812.19 31.622.535 47.432.847 17.971.354 35.94.827 53.914 1.092 11.03.162 22.064-.066 33.094.054q38.16.411 76.317 1.011c15.107.239 30.213.613 45.317.999 7.647.195 15.288.742 22.935.799 20.707.154 41.418.023 62.125.219 13.61.128 27.217.626 40.826.963 13.108.325 26.215.725 39.326.968 21.14.391 42.283.77 63.426.994 38.605.408 77.212.644 115.817 1.067 14.11.155 28.216.663 42.325.968 16.608.358 33.217.7 49.826.995 20.108.355 40.221.503 60.324 1.04 9.663.258 19.718-.279 28.588 4.124 10.836 5.379 21.752 11.138 29.19 21.175 5.394 7.28 10.529 14.848 14.847 22.794 2.302 4.236 2.856 9.504 3.783 14.385 1.128 5.943 2.875 12.042 2.467 17.943-.74 10.697-2.694 21.33-4.476 31.932-2.531 15.07-10.51 27.661-18.395 40.4-15.645 25.278-38.07 42.471-64.274 55.329-7.824 3.839-15.695 7.694-23.851 10.712-8.663 3.206-17.624 5.682-26.576 8.009-9.729 2.529-19.532 4.893-29.425 6.628-7.913 1.388-16.015 1.686-24.025 2.54-14.862 1.584-29.716 3.243-44.578 4.828-9.965 1.062-19.924 2.24-29.911 3.03-19.082 1.51-38.172 2.972-57.28 4.093-15.53.912-31.09 1.713-46.64 1.781-12.058.053-24.116-1.342-36.186-1.655-12.85-.334-25.717-.04-38.573-.227-13.944-.203-27.884-.638-41.826-.987-12.942-.324-25.883-.69-38.825-1-14.775-.353-29.554-.573-44.326-1.011-26.622-.79-53.24-1.7-80.386-2.578l-1.313 22.395h-24.88l3.086-71.438h25.024l-.96 21.004c5.896 0 11.51.03 17.123-.008 7.536-.05 15.08-.42 22.606-.177 13.718.444 27.423 1.257 41.136 1.87 2.493.111 4.996-.037 7.493.001 22.775.35 45.552.61 68.324 1.102 25.22.546 50.435 1.286 75.652 1.987 9.441.263 18.878.727 28.32.968 14.603.372 29.23 1.262 43.808.767 15.454-.525 30.857-2.47 46.291-3.676 6.76-.528 13.567-.511 20.308-1.186 10.943-1.096 21.844-2.611 32.774-3.847 9.63-1.089 19.317-1.754 28.91-3.104 23.478-3.306 47.214-4.478 70.345-10.721 16.905-4.563 33.326-10.127 48.801-18.056 13.566-6.95 25.804-15.943 36.563-27.067 13.574-14.033 23.036-30.379 27.976-48.945 3.112-11.694 3.33-23.967 1.137-36.253-1.836-10.287-7.262-17.909-14.726-24.433-4.338-3.791-8.685-8.205-13.854-10.254-6.382-2.53-13.582-3.667-20.5-4.026-12.468-.646-24.99-.188-37.487-.33-24.137-.276-48.272-.602-72.407-.996-15.11-.247-30.216-.725-45.326-.979-22.94-.385-45.881-.631-68.82-1.003-16.996-.276-33.99-.707-50.986-.981-23.627-.382-47.254-.69-70.882-1.016-25.149-.346-50.299-.641-75.447-1.024-17.943-.274-35.884-.709-53.827-.976-25.606-.38-51.215-.548-76.818-1.075-8.747-.18-17.47-1.312-26.217-1.734-5.696-.274-11.416-.046-17.125-.056-24.33-.042-48.66.022-72.988-.173-16.443-.132-32.882-.671-49.325-.944-7.05-.118-14.105.058-21.156-.04-20.942-.291-41.897-.295-62.821-1.095-17.587-.672-31.073-9.251-41.21-23.535-10.18-14.347-24.132-22.713-41.545-25.388-4.8-.738-9.602-2.896-14.291-2.602-8.759.547-17.465 2.241-26.136 3.782-7.834 1.392-15.523 3.85-23.4 4.696-11.197 1.202-20.87-3.453-28.922-10.826-13.818-12.654-27.167-25.817-40.827-38.645-12.79-12.01-25.764-23.824-38.58-35.808-4.439-4.151-8.563-8.638-12.97-12.826a17894 17894 0 0 0-55.786-52.83c-15.323-14.439-30.845-28.666-46.075-43.201-14.913-14.232-29.578-28.723-44.333-43.12-14.892-14.532-29.716-29.135-44.652-43.621-18.525-17.968-37.086-35.9-55.737-53.737-6.08-5.813-12.796-10.98-18.673-16.98-8.972-9.16-17.64-18.635-26.12-28.257-8.952-10.159-18.19-20.166-26.145-31.085-19.626-26.942-38.594-54.364-57.815-81.6a68188 68188 0 0 1-45.658-64.76c-13.185-18.73-25.643-38.023-39.734-56.042-10.43-13.337-23.135-24.873-34.495-37.51a42.35 42.35 0 0 0-23.964-13.409c-10.42-1.898-21.457-1.514-32.117-.698-10.876.833-21.634 3.306-32.416 5.22-11.405 2.025-22.77 4.273-34.163 6.362-14.139 2.592-28.322 4.952-42.426 7.723-14.198 2.79-28.566 5.124-42.412 9.186-15.565 4.567-25.757 15.847-32.476 30.53-3.728 8.147-4.329 16.71-4.845 25.368-.514 8.627-1.236 17.344 2.097 25.59 2.046 5.061 4.457 10.033 7.243 14.724 6.789 11.43 13.542 22.91 20.959 33.933 9.005 13.383 19.012 26.094 27.963 39.511 8.38 12.559 16.072 25.585 23.835 38.543 7.64 12.753 14.875 25.748 22.5 38.51 7.215 12.077 11.763 25.36 17.78 37.94 5.496 11.492 8.322 23.554 11.207 35.604 2.77 11.57 3.667 23.583 5.465 35.39 1.427 9.37 3.074 18.707 4.431 28.086 1.011 6.981 1.611 14.02 2.58 21.009 1.328 9.561 2.917 19.086 4.24 28.648 1.978 14.292 3.782 28.609 5.744 42.903.843 6.146 2.026 12.245 2.83 18.395 1.446 11.064 2.7 22.153 4.08 33.225 1.275 10.249 2.68 20.482 3.892 30.739.85 7.193 1.41 14.42 2.202 21.621 1.31 11.918 2.639 23.834 4.08 35.737 1.203 9.933 2.43 19.868 3.912 29.762 2.06 13.742 4.017 27.514 6.666 41.147 2.7 13.891 5.433 27.86 9.566 41.361 3.183 10.4 7.857 20.516 13.134 30.058 6.365 11.509 13.562 22.648 21.329 33.266 8.288 11.332 17.391 22.046 28.922 30.517 7.405 5.441 13.517 12.748 21.191 17.695 15.014 9.68 30.283 19.176 46.295 27.017 9.596 4.698 20.716 6.469 31.296 8.931 17.657 4.11 35.248 8.819 53.58 8.98 32.765.29 65.53.67 98.295.84 27.026.139 54.053.027 81.079.028 6.718 0 13.437.073 20.154-.008 20.777-.25 41.553-.662 62.33-.79 7.814-.047 15.63.64 23.447.74 3.604.047 7.214-.727 10.824-.753 13.37-.097 26.74-.036 40.11-.035 17.238 0 34.476.003 51.714 0 29.231-.007 58.462-.026 87.693-.018 3.24 0 5.36-.253 6.728-4.4 2.59-7.846 8.728-11.772 17.337-11.644 28.77.427 57.545.558 86.313 1.1 22.554.424 45.099 1.33 67.65 1.942 15.107.409 30.216.774 45.326.974 12.075.16 24.158-.176 36.228.11 10.2.243 20.386 1.063 31.107 1.657l-1.347 29.53c-9.004-.42-17.722-.988-26.448-1.19-10.161-.233-20.335.058-30.493-.243-14.543-.43-29.073-1.364-43.617-1.756-11.69-.316-23.397.006-35.091-.224-29.576-.58-59.15-1.282-88.723-2-8.611-.208-17.219-.603-25.825-.976-3.216-.139-4.961.906-6.077 4.313-2.27 6.924-8.338 11.893-17.281 11.84-10.04-.058-20.081-.105-30.12.007-19.307.216-38.612.65-57.92.803-18.028.144-36.059.044-54.089.047-12.573.001-25.147.09-37.718-.045-6.611-.071-13.22-.805-19.827-.783-63.608.217-127.215.576-190.823.772-10.471.033-20.943-.683-31.417-.754-6.133-.042-12.27.719-18.405.728-5.637.01-11.272-.674-16.912-.752-11.701-.162-23.436.379-35.101-.314-11.087-.658-22.182-2.057-33.128-3.967-14.29-2.493-28.507-5.51-42.623-8.86-12.363-2.934-23.845-8.283-34.743-14.807-10.293-6.162-20.808-12.007-30.707-18.753-9.102-6.202-17.628-13.276-26.201-20.22-12.58-10.192-23.706-21.905-33.62-34.645-5.455-7.011-9.873-14.844-14.59-22.412-5.845-9.374-12.148-18.54-17.07-28.388-4.366-8.737-7.362-18.199-10.49-27.5-2.167-6.446-3.759-13.112-5.205-19.768-2.73-12.571-5.627-25.134-7.623-37.831-2.8-17.807-4.98-35.716-7.167-53.613-2.19-17.939-3.954-35.93-6.107-53.875-2.148-17.909-4.609-35.78-6.815-53.683-1.808-14.668-3.324-29.372-5.196-44.031-1.201-9.41-2.902-18.754-4.214-28.15-1.044-7.475-1.711-15.002-2.775-22.472-1.313-9.226-2.94-18.407-4.29-27.629-1.637-11.186-2.957-22.42-4.718-33.587-2.487-15.77-4.36-31.608-9.403-46.949-7.689-23.384-18.624-45.195-30.818-66.396-12.2-21.207-24.743-42.235-37.804-62.918-7.604-12.042-16.978-22.957-24.736-34.911-10.233-15.768-20.346-31.69-29.234-48.231-7.927-14.755-9.31-31.12-7.193-47.745.665-5.225.78-10.52 1.218-15.776 1.17-14.03 8-25.567 16.326-36.358 7.365-9.546 15.81-18.067 26.729-23.486 11.73-5.821 24.474-8.463 37.28-10.807 11.35-2.077 22.63-4.537 33.979-6.62 8.859-1.625 17.777-2.925 26.667-4.38 8.394-1.373 16.801-2.673 25.175-4.16 12.53-2.225 25.04-4.568 37.547-6.919 1.033-.194 1.985-.823 2.68-1.602C231.688 1 247.375 1 263.531 1"/></svg>