<svg xmlns="http://www.w3.org/2000/svg" viewBox="0 0 1449 775" xml:space="preserve"><path fill="#fff" d="M322.761 728.082c1.735.293 3.002.762 4.284.809 10.465.384 20.94 1.088 31.4.929 16.693-.254 33.374-1.181 50.065-1.648 6.574-.184 13.16.176 19.74.158 9.519-.026 19.036-.23 28.554-.255 29.497-.077 58.995-.076 88.493-.158 113.974-.32 227.947-.662 341.92-.994 2.133-.006 4.265-.001 6.51-.001v21.1c-2.136 0-3.925.002-5.714 0-191.99-.31-383.982-.531-575.972-1.161-10.715-.035-21.437-3.351-32.126-5.302-22.071-4.028-40.366-16.086-58.266-28.479-22.574-15.628-41.371-35.048-54.77-59.298-4.21-7.619-9.374-14.892-12.345-22.97-4.366-11.874-7.39-24.267-10.524-36.557-1.835-7.194-2.853-14.604-4.097-21.94-1.412-8.327-2.914-16.65-3.93-25.029-1.555-12.815-2.586-25.693-4.11-38.512-1.055-8.875-2.692-17.678-3.83-26.544-.896-6.975-1.293-14.013-2.15-20.993-1.51-12.283-3.238-24.54-4.805-36.817-1.115-8.736-2.052-17.494-3.186-26.227-.984-7.58-2.116-15.14-3.214-22.705-1.237-8.524-2.55-17.037-3.754-25.566-1.091-7.735-1.78-15.54-3.193-23.212-1.636-8.878-3.329-17.814-6.007-26.41-2.378-7.631-5.47-15.21-9.41-22.153-13.526-23.831-27.244-47.567-41.537-70.943-7.42-12.137-16.714-23.123-24.222-35.212-7.092-11.418-16.05-22.27-18.634-35.727-1.854-9.654-1.208-19.845-1.13-29.792.038-4.798 1.17-9.62 2.105-14.372 1.646-8.376 6.932-14.785 11.764-21.493C29.288 58.644 41.967 53.3 55.3 49.352c6.641-1.967 13.759-2.316 20.654-3.439 3.832-.624 7.664-1.266 11.473-2.018 11.419-2.257 22.784-4.812 34.248-6.806 15.02-2.612 30.138-4.657 45.168-7.215 12.043-2.05 23.776-.7 35.163 3.117 7.978 2.674 15.662 6.447 21.397 12.87 11.298 12.657 23.142 24.946 33.271 38.5 17.258 23.093 33.354 47.054 49.96 70.634 18.38 26.099 36.128 52.68 55.409 78.096 13.354 17.604 29.007 33.34 45.562 48.224 18.113 16.287 34.954 33.989 52.385 51.037 12.461 12.189 24.92 24.38 37.492 36.455 12.753 12.248 25.64 24.356 38.471 36.52a86856 86856 0 0 0 38.112 36.11c12.382 11.722 24.758 23.45 37.16 35.152 11.19 10.558 22.665 20.83 33.555 31.688 12.74 12.702 26.547 23.877 43.178 30.884 8.697 3.664 17.856 6.536 27.068 8.59 10.74 2.394 21.714 4.106 32.678 5.025 14.96 1.255 30.002 1.654 45.018 2.1 17.725.527 35.46.727 53.191 1.042 19.755.35 39.511.638 59.266 1.012 23.853.452 47.705.981 71.557 1.447 11.187.218 22.375.403 33.563.538 29.422.354 58.844.63 88.265 1.023 18.59.248 37.177.725 55.767.967 30.42.396 60.843.629 91.264 1.042 13.758.187 27.51.742 41.267.954 26.421.406 52.845.617 79.265 1.046 17.452.284 33.495 4.365 45.6 18.154 8.475 9.653 14.303 20.118 15.59 33.573 2.913 30.454-8.077 55.179-28.241 76.97-15.106 16.324-33.952 26.788-54.466 33.92-15.196 5.283-30.817 9.639-47.208 10.681-13.318.847-26.528 3.294-39.814 4.775-10.901 1.215-21.848 2.018-32.769 3.064-79.108 7.58-158.405 2.16-237.604 3.435-6.477.104-12.961-.378-19.443-.467-6.302-.087-12.605-.02-19.337-.02v14.83h-19.65v-50.597h19.613v15.386c1.743.103 3.168.26 4.593.26 74.547.012 149.097.32 223.64-.21 18.208-.13 36.4-2.973 54.592-4.646 10.48-.964 20.956-1.974 31.41-3.166 9.28-1.058 18.554-2.224 27.782-3.657 9.832-1.528 19.666-3.149 29.394-5.22 19.235-4.098 37.198-11.27 52.933-23.358 17.82-13.69 29.707-30.988 33.27-53.646 1.714-10.901 1.046-21.293-5.08-30.564-6.672-10.098-15.297-17.458-28.484-17.545-25.272-.167-50.542-.582-75.812-.98-15.775-.247-31.547-.697-47.322-.973-21.274-.371-42.549-.647-63.823-.992-19.441-.315-38.882-.681-58.323-.998-21.676-.352-43.352-.713-65.03-.999-28.606-.378-57.216-.55-85.82-1.09-12.05-.227-24.08-1.575-36.128-1.707-27.864-.306-55.733-.068-83.599-.263-24.44-.17-48.91.012-73.308-1.163-19.504-.94-38.894-4.03-58.384-5.52-14.953-1.142-29.114-5.636-42.843-10.672-10.473-3.841-20.406-10.341-29.155-17.419-13.474-10.9-25.755-23.28-38.492-35.086-13.837-12.826-27.701-25.626-41.399-38.6-17.11-16.208-33.989-32.66-51.11-48.858-12.851-12.159-26.062-23.94-38.861-36.153-10.48-10.001-20.545-20.436-30.869-30.602-17.239-16.973-34.463-33.963-51.84-50.793-9.806-9.496-20.384-18.237-29.751-28.135-10.735-11.343-21.08-23.157-30.562-35.556-11.77-15.39-22.465-31.603-33.659-47.435-16.197-22.91-32.436-45.789-48.636-68.696-8.281-11.71-15.957-23.902-24.926-35.056-9.355-11.635-18.276-24.071-31.42-31.869-4.809-2.853-10.8-4.234-16.434-5.079-19.406-2.912-37.835 3.445-56.584 6.71-13.81 2.404-27.689 4.463-41.419 7.257-12.812 2.607-25.75 5.137-38.1 9.29-9.358 3.148-15.114 11.699-18.535 20.606-4.497 11.706-6.28 24.227-2.06 36.445 2.284 6.615 5.949 12.885 9.762 18.816 11.442 17.8 23.665 35.105 34.83 53.071 13.006 20.925 26.024 41.919 37.483 63.7 7.616 14.476 13.92 29.838 15.885 46.582 1.824 15.547 4.515 30.993 6.886 46.474 2.25 14.688 4.71 29.344 6.832 44.049 1.589 11.008 2.731 22.08 4.171 33.11 1.546 11.837 3.27 23.652 4.794 35.492.858 6.67 1.454 13.373 2.194 20.058 1.39 12.558 2.72 25.124 4.226 37.669 1.133 9.432 2.305 18.868 3.816 28.245 2.02 12.534 4.304 25.029 6.628 37.512 2.168 11.649 4.898 23.221 11.307 33.354 8.149 12.881 16.234 25.873 25.398 38.024 10.278 13.626 23.927 23.9 38.123 33.187 16.782 10.979 34.469 19.858 54.89 22.201 9.016 1.035 17.892 3.3 27.292 5.025"/></svg>