<svg xmlns="http://www.w3.org/2000/svg" viewBox="0 0 1980 1000" xml:space="preserve"><path fill="#fff" d="M1058 931.01c-66.666 0-132.832.188-198.996-.137-16.03-.079-32.05-1.869-48.076-2.841-7.848-.476-15.777-.342-23.532-1.446-10.904-1.553-21.724-3.8-32.503-6.109-18.894-4.047-36.901-10.611-54.02-19.63-21.404-11.275-42.314-23.252-59.467-40.714-15.01-15.28-29.552-30.928-40.025-49.87-9.105-16.469-18.929-32.567-27.38-49.359-6.365-12.644-10.288-26.323-13.96-40.107-5.367-20.147-6.28-40.514-5.643-61.058.266-8.545 1.723-17.069 2.917-25.563 1.12-7.973 2.203-15.989 4.014-23.822 4.602-19.897 9.943-39.596 19.607-57.782 6.683-12.575 12.76-25.574 20.577-37.414 6.389-9.676 14.99-17.885 22.54-26.803 12.423-14.674 27.78-26.022 43.439-36.718 10.58-7.227 22.333-12.962 34.09-18.175 11.736-5.205 24.083-9.063 36.249-13.26 9.156-3.157 18.31-6.53 27.722-8.68 9.424-2.151 19.142-3.132 28.778-4.21 11.166-1.249 22.365-2.465 33.581-2.922 12.269-.499 24.58.14 36.86-.192 10.085-.274 20.146-1.692 30.226-1.794 13.525-.136 27.06.445 40.586.842 6.957.204 13.903.838 20.86 1 18.357.425 36.72.6 55.075 1.056 22.538.562 45.071 1.322 67.607 1.971 23.725.683 47.555.193 71.145 2.35 20.465 1.87 40.842 1.063 61.251 1.664 21.242.624 42.483 1.3 63.723 1.996 19.409.636 38.817 1.273 58.222 2.012 15.245.58 30.482 1.34 45.724 1.975 9.119.38 18.239.764 27.362.99 28.739.712 57.48 1.28 86.218 2.041 20.578.545 41.148 1.349 61.724 1.965 23.739.712 47.483 1.268 71.22 2.038 16.246.528 32.492 1.134 48.72 2.026 13.541.745 27.126 1.416 40.563 3.123 11.726 1.49 23.468 3.68 34.853 6.825 15.724 4.345 31.612 8.455 46.14 16.351 19.01 10.333 38.539 19.793 57.016 30.995 10.663 6.465 19.97 15.31 29.394 23.641 14.216 12.568 26.476 27.038 37.367 42.504a176.7 176.7 0 0 1 20.978 39.624c4.454 11.842 9.962 23.284 14.581 35.068 2.567 6.548 4.52 13.37 6.312 20.183 5.292 20.13 6.75 40.718 5.961 61.404-.496 13.023-2.477 25.886-5.74 38.642-3.807 14.88-9.143 29.12-15.111 43.17-6.886 16.21-16.306 30.992-25.905 45.712-7.584 11.63-16.353 22.125-26.59 31.398-15.846 14.355-32.082 28.18-51.112 38.361-8.443 4.517-16.231 10.283-24.762 14.6-8.278 4.19-17.055 7.44-25.748 10.747-6.612 2.516-13.338 4.87-20.191 6.58-7.645 1.91-15.49 3.023-23.252 4.462a3315 3315 0 0 1-19.452 3.551c-2.915.523-5.831 1.07-8.769 1.434-9.633 1.196-19.267 2.408-28.92 3.427-6.574.694-13.18 1.068-19.771 1.599-3.954.318-7.902.715-11.858.982-9.916.668-19.83 1.392-29.757 1.851-2.93.136-5.896-.797-8.846-.801-41.908-.058-83.816-.016-125.724-.043-361.015-.232-722.03-.385-1083.045-1.016-15.23-.027-30.478-4.38-45.668-7.006-6.974-1.206-13.964-2.682-20.692-4.832-5.13-1.638-10.051-4.2-14.722-6.938-8.037-4.71-15.783-9.914-23.691-14.847-19.305-12.041-36.908-26.195-53.433-41.832-14.153-13.392-24.939-29.24-34.711-45.814-6.762-11.467-13.486-23.125-18.498-35.404-4.111-10.069-5.762-21.157-8.335-31.833-1.807-7.495-3.508-15.023-4.934-22.597-1.556-8.264-2.771-16.592-4.078-24.902-1.276-8.118-2.607-16.232-3.678-24.379-.946-7.2-1.506-14.451-2.343-21.668-1.576-13.606-3.27-27.199-4.833-40.806-.81-7.05-1.404-14.126-2.163-21.182-1.092-10.149-2.186-20.298-3.388-30.434-1.127-9.502-2.28-19.004-3.642-28.474-1.025-7.126-2.533-14.182-3.582-21.305-.962-6.53-1.53-13.116-2.395-19.662-1.273-9.644-2.697-19.268-3.978-28.91-1.061-7.985-1.929-15.996-3.03-23.975-.993-7.186-2.201-14.342-3.288-21.515-.915-6.033-1.388-12.166-2.77-18.088-2.942-12.607-5.123-25.593-9.86-37.533-6.623-16.7-14.847-32.822-23.24-48.74-6.01-11.399-13.388-22.079-20.217-33.041-5.77-9.262-11.45-18.587-17.49-27.672-8.22-12.364-16.904-24.421-25.085-36.81a543 543 0 0 1-17.167-27.788c-4.332-7.506-8.483-15.178-11.93-23.117-4.442-10.231-4.717-21.175-3.529-32.14.373-3.44 1.544-6.853 1.51-10.27-.11-11.332 3.657-21.515 9.785-30.598 5.992-8.88 12.473-17.559 21.729-23.616 10.655-6.972 22.161-11.335 34.863-12.779 5.367-.61 10.64-2.063 15.947-3.179 4.136-.87 8.24-1.901 12.389-2.703a5099 5099 0 0 1 35.952-6.807c16.648-3.094 33.207-6.98 49.989-8.955 15.571-1.832 31.507-3.094 47.058-1.837 14.334 1.158 28.01 7.01 38.357 17.918 12.663 13.35 25.281 26.781 37.188 40.798 7.147 8.412 12.888 18.016 19.283 27.07 5.623 7.96 11.326 15.864 16.904 23.856 6.521 9.345 12.823 18.846 19.451 28.114 5.284 7.388 11.077 14.414 16.348 21.811 5.277 7.406 10.056 15.165 15.282 22.608 15.315 21.815 30.364 43.832 46.278 65.204 8.768 11.774 18.566 22.893 28.784 33.451 16.11 16.648 32.987 32.553 49.499 48.813 12.288 12.101 24.418 24.364 36.79 36.377 16.18 15.712 32.542 31.239 48.794 46.877 1.899 1.827 3.602 3.858 5.643 6.062l-14.69 13.883c-7.392-7.794-14.817-16.063-22.713-23.854-16.198-15.983-32.661-31.696-48.988-47.549-5.545-5.383-10.916-10.947-16.526-16.262-12.88-12.203-26.172-23.99-38.688-36.551-8.998-9.03-16.513-19.544-25.571-28.504-17.53-17.34-29.336-38.872-43.879-58.377-15.057-20.195-28.928-41.272-43.42-61.892-20.008-28.468-39.626-57.23-60.382-85.145-10.159-13.662-22.522-25.682-33.86-38.47-5.14-5.799-10.938-10.825-18.303-13.396-5.033-1.756-10.338-2.895-15.612-3.755-6.181-1.007-12.482-2.091-18.692-1.895-6.68.21-13.332 1.757-19.961 2.92-6.664 1.17-13.274 2.64-19.926 3.875-4.376.812-8.8 1.36-13.175 2.17-15.873 2.937-31.751 5.845-47.593 8.94-12.576 2.457-25.009 5.843-37.673 7.61-18.112 2.53-31.195 12.083-40.643 26.99-5.377 8.484-8.344 18.166-8.34 28.249.002 9.212.409 18.574 2.138 27.582 1.078 5.618 4.576 10.922 7.623 15.984 7.829 13.002 15.816 25.918 24.116 38.622 6.33 9.689 13.442 18.865 19.833 28.516 7.683 11.601 15.016 23.435 22.415 35.222 6.399 10.194 13.003 20.28 18.909 30.758 4.93 8.746 9.221 17.88 13.353 27.041 4.576 10.146 9.144 20.346 12.777 30.847 2.677 7.734 4.22 15.926 5.593 24.029 1.73 10.205 2.594 20.554 4.16 30.79 2.096 13.686 4.735 27.29 6.714 40.99 1.718 11.893 2.7 23.89 4.272 35.807 1.294 9.811 3.144 19.549 4.441 29.36 1.665 12.588 2.948 25.226 4.541 37.825 1.075 8.502 2.504 16.96 3.584 25.46.936 7.37 1.52 14.785 2.408 22.161 1.538 12.774 3.244 25.528 4.775 38.302.845 7.046 1.365 14.13 2.233 21.173 1.33 10.804 2.806 21.59 4.274 32.377.845 6.21 1.425 12.487 2.774 18.59 3.228 14.617 6.574 29.22 10.36 43.7 5.76 22.025 19.292 39.986 31.508 58.59 12.54 19.098 29.43 34.076 47.634 47.297 17.047 12.382 34.926 23.743 54.828 31.365 2.977 1.14 5.924 2.55 8.582 4.297 9.184 6.034 20.033 6.766 30.217 9.384 6.874 1.766 14.248 2.15 21.402 2.174 130.917.45 261.865-.874 392.743 1.556 123.69 2.298 247.353.326 371.02 1.528 1.663.016 3.325.002 5.937.002v-46.87h20.155v26.87h5.09c136.498 0 272.997.14 409.494-.2 15.08-.038 30.272-2.109 45.191-4.573 12.31-2.034 24.564-5.272 36.358-9.37 16.036-5.573 31.132-13.175 45.105-23.214 11.394-8.187 20.773-18.1 28.488-29.418 7.697-11.29 13.845-23.437 15.675-37.568 1.016-7.84 2.546-15.383 1.865-23.462-1.314-15.58-8.649-27.556-20.219-37.266-9.044-7.59-20.031-10.039-31.516-10.146-19.831-.184-39.73.969-59.486-.26-42.859-2.665-85.726-1.309-128.588-1.821-10.956-.131-21.905-.777-32.862-.942-27.596-.417-55.195-.64-82.792-1.05-13.688-.203-27.374-.615-41.06-.99-10.288-.281-20.572-.832-30.862-.955-34.952-.418-69.907-.644-104.86-1.062-12.455-.15-24.905-.783-37.361-.943-32.524-.417-65.113.457-97.56-1.313-42.593-2.323-85.168-.887-127.734-1.871-15.501-.358-30.967-2.446-46.44-3.846-10.027-.908-20.083-1.682-30.038-3.123-6.512-.943-12.927-2.762-19.278-4.566-9.288-2.638-18.707-5.048-27.643-8.624-7.331-2.933-13.971-7.554-21.035-11.199-18.007-9.291-31.824-23.608-45.95-37.644-8.564-8.51-17.725-16.417-26.539-24.68-12.054-11.3-24.047-22.668-36.04-34.033-19.532-18.507-39.013-37.066-58.573-55.543-11.157-10.538-22.43-20.955-33.781-31.55l14.094-13.027c4.831 4.581 10.383 9.91 16.005 15.163 13.89 12.981 27.891 25.846 41.7 38.913 13.12 12.413 26.026 25.053 39.078 37.539 11.613 11.109 23.255 22.187 34.964 33.193 6.889 6.475 13.973 12.742 20.898 19.18 8.272 7.69 15.811 16.361 24.86 22.975 11.577 8.46 23.812 16.435 36.765 22.468 10.728 4.996 22.8 7.35 34.475 9.999 12.637 2.867 25.463 5.004 38.29 6.9 6.855 1.013 13.88 1.018 20.837 1.182 18.285.43 36.645-.212 54.846 1.218 40.736 3.2 81.496 1.134 122.236 1.801 44.237.725 88.476 1.28 132.712 2.036 32.41.553 64.814 1.342 97.223 1.966 20.452.394 40.908.635 61.36 1.027 12.956.25 25.907.748 38.862.954 9.975.158 19.957-.085 29.932.06 15.954.233 31.906.63 47.858.973 14.954.322 29.906.791 44.862.972 34.286.414 68.576.535 102.859 1.095 15.91.26 31.849.783 47.702 2.075 16.053 1.309 28.424 10.007 38.88 21.815 10.423 11.77 15.985 25.119 17.538 41.065 1.525 15.657-.803 30.578-5.702 44.824-6.724 19.556-17.866 36.658-33.482 50.895-12.868 11.732-26.748 21.683-42.479 28.884-16.368 7.492-32.929 14.44-51.431 15.29-6.654.307-13.199 2.774-19.818 4.136a31.8 31.8 0 0 1-6.349.653c-146.83.03-293.662.026-440.493.026h-6.197v4.982h271.286c61.999 0 123.998.13 185.996-.145 9.06-.04 18.115-1.996 27.166-3.113 7.105-.876 14.322-1.286 21.272-2.862 12.133-2.752 24.713-2.097 36.726-6.448 13.87-5.023 28.35-8.38 42.61-12.304 11.82-3.252 22.597-8.8 32.76-15.38 16.268-10.53 32.6-21.053 48.084-32.672 10.106-7.583 19.954-16.151 27.77-25.985 9.93-12.498 18.448-26.305 26.154-40.328 6.807-12.39 12.643-25.522 17.134-38.92 5.632-16.8 11.071-33.892 10.208-52.087-.708-14.904-.084-30.012-2.403-44.658-2.013-12.71-6.745-25.117-11.328-37.261-5.406-14.324-11.05-28.7-18.255-42.163-6.66-12.445-14.77-24.311-23.576-35.37-15.353-19.28-32.943-36.571-54.219-49.302-16.26-9.73-33.155-18.461-50.137-26.895-9.264-4.601-19.116-8.244-29.024-11.268-12.742-3.89-25.7-7.267-38.768-9.824-8.7-1.702-17.75-1.652-26.653-2.267-14.196-.981-28.395-1.935-42.602-2.75-5.301-.305-10.627-.16-15.941-.271-15.12-.317-30.241-.655-45.362-.996-14.453-.326-28.908-.622-43.36-1.009-23.572-.63-47.245-.193-70.682-2.326-20.962-1.908-41.842-1.082-62.75-1.675-21.91-.62-43.82-1.232-65.723-2.017-17.327-.622-34.645-1.513-51.968-2.261-6.255-.27-12.512-.537-18.772-.7-26.573-.692-53.15-1.287-79.721-2.03-20.41-.572-40.815-1.337-61.223-1.974-22.24-.695-44.48-1.343-66.722-2.007-22.407-.67-44.817-1.287-67.222-2.014-18.407-.597-36.806-1.496-55.217-1.945-21.523-.525-43.054-.913-64.583-.968-14.783-.038-29.572.462-44.349.993-5.925.212-11.816 1.263-17.74 1.715-3.386.259-6.821-.115-10.209.14-7.744.58-15.53.996-23.19 2.186-7.568 1.177-15.066 2.98-22.483 4.933-19.91 5.244-39.217 12.062-58.021 20.619-29.887 13.599-54.82 33.528-76.685 57.584-12.385 13.627-21.725 29.28-28.943 46.222-3.023 7.093-6.775 13.901-9.42 21.123-3.204 8.754-5.907 17.726-8.239 26.756-2.541 9.844-4.842 19.792-6.443 29.824-1.48 9.274-1.976 18.711-2.737 28.09-.24 2.971.218 5.993.083 8.98-.778 17.182 1.027 34.01 6 50.54 4.382 14.561 9.522 28.779 17.09 42.006 9.51 16.623 18.574 33.548 28.982 49.596 6.179 9.527 14.372 17.798 22.024 26.306 9.915 11.023 21.132 20.631 33.768 28.443 18.067 11.167 36.564 21.618 56.827 28.264 11.226 3.683 22.731 6.796 34.333 8.987 17.3 3.266 34.73 6.093 52.227 7.982 16.12 1.74 32.399 2.736 48.611 2.783 89.498.257 178.997.123 268.496.123h5.685v15.018z"/></svg>