<svg xmlns="http://www.w3.org/2000/svg" viewBox="0 0 1909 1000" xml:space="preserve"><path fill="#fff" d="M380.2 186.838a12598 12598 0 0 1-30.105-43.11c-10.675-15.34-21.443-30.617-31.979-46.053-10.883-15.945-21.444-32.11-32.348-48.04-3.257-4.76-6.836-9.873-13.168-10.513-4.33-.437-8.839.267-13.2.914-7.878 1.168-15.719 2.609-23.552 4.06-7.626 1.414-15.206 3.074-22.836 4.465-12.3 2.242-24.649 4.23-36.933 6.555-10.815 2.047-21.558 4.468-32.355 6.61-6.212 1.233-12.47 2.236-18.707 3.348-5.584.996-11.181 1.922-16.747 3.015-13.342 2.618-26.619 5.613-40.02 7.876-8.636 1.458-13.804 7.558-19.04 13.234-8.75 9.488-10.72 21.825-12.103 34.125-1.252 11.137.742 21.88 5.22 32.05 3.232 7.337 7.363 14.275 10.7 21.57 7.23 15.804 13.983 31.828 21.347 47.568 9.15 19.554 18.803 38.872 28.086 58.365 8.328 17.488 15.675 35.345 20.753 54.119 2.225 8.226 5.456 16.2 8.617 24.135.645 1.618 2.846 3.212 4.628 3.68 9.487 2.49 19.093 4.419 26.299 12.023 5.098 5.38 7.558 11.665 8.376 18.929 1.15 10.217 2.652 20.395 4.053 30.583 1.242 9.039 2.596 18.062 3.82 27.103 2.058 15.21 3.917 30.447 6.124 45.634 1.354 9.32 3.44 18.533 4.764 27.856 1.63 11.474 2.623 23.039 4.256 34.512.935 6.57 2.7 13.016 3.902 19.552 2.085 11.328 4.007 22.685 6.028 34.025 2.988 16.767 5.893 33.55 9.04 50.289 2.78 14.781 6.415 29.423 8.642 44.281 3.168 21.135 10.05 41.117 18.538 60.44 6.606 15.038 15.113 29.267 23.166 43.635 10.323 18.418 24.012 34.481 37.62 50.41 11.307 13.234 25.568 23.467 39.933 33.371 15.624 10.772 32.543 19.237 50.36 25.127 15.261 5.045 30.839 10.053 47.323 10.43 6.207.141 12.394 1.828 18.587 1.808 23.473-.076 46.945-.558 70.417-.898 22.436-.326 44.889-1.295 67.3-.703 9.586.254 15.956-3.122 21.251-10.145 6.677-8.854 16.143-9.918 25.559-7.62 13.373 3.264 26.374 8.052 39.55 12.139 1.998.62 4.187.711 6.107 1.491 7.896 3.21 8.09 3.27 11.516-4.62 3.811-8.775 11.079-13.085 19.92-13.296 8.779-.21 17.606 1.527 26.408 2.444 7.169.746 14.343 1.45 21.495 2.333 12.653 1.561 25.28 3.33 37.937 4.849 9.766 1.172 19.56 2.103 29.343 3.127 12.564 1.316 25.13 2.63 37.698 3.908 1.483.15 2.992.04 4.488.099 17.373.68 34.746 1.359 52.118 2.062 6.94.28 13.877.876 20.816.893 49.999.117 99.997.128 149.996.162 20.69.014 41.38.001 62.07 0h24.56V960.1c-2.871-.358-5.531-.97-8.194-.978-24.666-.074-49.333-.127-73.999-.005-10.479.052-20.957.818-31.433.768-45.771-.216-91.545-.359-137.31-1.06-20.332-.313-40.66-1.664-60.962-2.962-14.937-.955-29.858-2.352-44.736-4.003-10.725-1.19-21.345-3.3-32.055-4.668-9.933-1.268-19.935-1.985-29.883-3.147-9.602-1.121-19.162-2.604-28.764-3.722-4.578-.533-9.23-.91-13.81-.657-1.285.07-2.853 2.445-3.575 4.08-4.95 11.202-16.352 18.871-25.883 17.056-5.984-1.14-11.707-3.631-17.569-5.445-12.97-4.015-25.982-7.9-38.917-12.025-3.734-1.19-4.888 1.765-6.922 3.466-3.816 3.193-7.22 7.391-11.609 9.262-6.011 2.563-12.761 4.578-19.23 4.684-30.824.51-61.661.2-92.493.369-18.137.1-36.272.729-54.409.795-17.946.066-35.402-3.393-52.93-7.103-25.666-5.434-48.694-16.8-70.643-30.262-12.868-7.893-24.167-18.348-36.15-27.678-16.645-12.961-27.808-30.832-41.264-46.619-5.71-6.697-9.807-14.853-14.133-22.627-8.934-16.051-18.097-32.018-26.057-48.554-5.016-10.417-8.763-21.604-11.758-32.8-4.616-17.256-8.481-34.74-11.946-52.27-2.944-14.897-4.691-30.026-7.3-44.994-2.631-15.103-5.82-30.108-8.49-45.205-2.675-15.12-5.06-30.293-7.476-45.458-2.032-12.755-4.022-25.519-5.85-38.304-1.507-10.547-2.736-21.133-4.111-31.698-2.008-15.43-3.884-30.878-6.1-46.278-2.119-14.72-4.527-29.401-7.063-44.055-.199-1.152-2.26-2.408-3.69-2.846-6.03-1.847-12.24-3.123-18.212-5.125-9.714-3.258-14.288-10.992-17.046-20.323-2.11-7.142-4.722-14.136-7.1-21.199-4.596-13.654-8.495-27.593-13.953-40.893-6.736-16.414-14.8-32.28-22.227-48.414-6.271-13.622-12.354-27.333-18.699-40.92-5.945-12.732-12.204-25.316-18.175-38.036-3.974-8.465-9-16.733-11.174-25.668-2.635-10.83-5.222-22.037-2.746-33.56 1.233-5.74 1.223-11.735 2.171-17.55 2.162-13.26 7.811-24.817 17.162-34.599 6.469-6.766 12.864-13.783 21.773-17.105 7.085-2.642 14.639-4.07 22.04-5.8 5.23-1.223 10.554-2.046 15.836-3.053 11.995-2.288 23.982-4.62 35.987-6.86 19.692-3.674 39.38-7.375 59.1-10.902 14.268-2.552 28.63-4.602 42.861-7.335 8.91-1.71 17.557-4.94 26.503-6.287 11.472-1.726 23.572-5.27 34.317 1.905 7.245 4.838 14.723 10.233 19.922 17.04 11.437 14.975 22.063 30.652 32 46.674 20.868 33.645 43.686 65.909 66.968 97.89 11.776 16.177 22.848 32.866 34.336 49.255 9.636 13.749 19.8 27.144 29.021 41.164 9.555 14.527 21.38 27.041 32.966 39.816 5.417 5.972 10.426 12.359 16.21 17.945 19.506 18.836 39.366 37.304 58.916 56.093 15.878 15.26 31.488 30.8 47.25 46.18 11.232 10.96 22.42 21.97 33.808 32.766 13.44 12.742 27.125 25.227 40.615 37.918 13.764 12.947 27.45 25.978 41.116 39.028 17.344 16.562 34.608 33.207 51.956 49.764 12.594 12.02 25.266 23.956 37.908 35.926 12.404 11.744 25.004 23.29 37.145 35.301 6.63 6.559 13.805 5.309 21.409 3.2 16.602-4.603 33.751-7.717 50.654-5.125 26.131 4.008 49.55 14.659 65.834 36.819 6.882 9.366 15.799 13.058 27.023 12.882 10.662-.169 21.33-.043 31.995.11 18.104.258 36.208.616 54.31.978 15.106.302 30.208.793 45.314.983 32.771.413 65.545.63 98.316 1.043 13.777.174 27.548.755 41.324.957 27.658.407 55.32.637 82.978 1.026 18.138.256 36.275.633 54.411 1.013 13.11.274 26.218.626 39.326.97 20.249.533 40.495 1.286 60.747 1.582 23.359.34 46.724.209 70.086.424 27.942.257 55.884.61 83.824 1.029 12.944.193 25.881.744 38.825.95 25.309.403 50.63.367 75.924 1.168 9.113.288 18.455 1.49 27.153 4.084 6.787 2.023 13.516 5.946 18.902 10.607 11.956 10.345 23.03 22.018 27.072 37.829 3.647 14.26 6.276 28.897 2.214 43.758-2.645 9.678-3.877 19.872-7.567 29.106-5.93 14.838-14.441 28.366-25.142 40.44-11.734 13.239-25.432 24.11-40.654 32.846-9.63 5.527-19.86 10.325-30.332 13.996-14.935 5.235-30.221 9.603-45.585 13.428-8.675 2.16-17.793 2.61-26.734 3.625-18.286 2.077-36.574 4.143-54.886 5.972-15.725 1.57-31.485 2.796-47.23 4.186-18.199 1.606-36.379 3.519-54.606 4.704-8.105.527-16.304-.427-24.463-.654-3.33-.093-6.665-.047-9.998-.05-6.365-.006-12.732-.077-19.097.013-16.99.242-33.98.844-50.968.79-63.486-.201-126.972-.608-190.458-.936-1.814-.009-3.628 0-6.247 0v23.935h-25.374l2.07-74.703h24.633v22.745c1.54 0 3.146-.003 4.751 0 26.333.041 52.665.096 78.997.12 21.185.02 42.371-.079 63.556.023 49.971.238 99.943.89 149.911.662 15.233-.07 30.453-2.477 45.682-3.776 4.765-.406 9.553-.565 14.308-1.054 12.045-1.238 24.073-2.638 36.116-3.9 10.27-1.078 20.564-1.94 30.823-3.109 9.558-1.089 19.083-2.463 28.623-3.702 8.43-1.095 16.986-1.603 25.269-3.382 18.304-3.933 36.133-9.26 53.311-17.108 14.857-6.788 28.11-15.497 40.142-26.346 9.42-8.493 17.068-18.429 22.605-29.739 3.79-7.742 7.138-15.913 9.146-24.262 2.376-9.88 2.727-19.905 1.476-30.41-1.977-16.603-12.113-26.54-23.952-35.682-6.842-5.283-15.58-5.8-23.76-6.018-20.152-.537-40.327-.147-60.492-.319-15.441-.132-30.88-.546-46.32-.849-18.604-.364-37.207-.822-55.812-1.099-27.271-.405-54.545-.627-81.816-1.04-15.338-.233-30.67-.817-46.008-1.028-28.915-.397-57.834-.581-86.75-.975-12.94-.175-25.875-.75-38.816-.953-26.104-.41-52.211-.66-78.316-1.035-16.145-.232-32.289-.584-48.433-.865-21.963-.383-43.926-.783-65.89-1.116-24.605-.372-49.21-.674-73.816-1.012-23.937-.328-47.881-.396-71.808-1.092-14.481-.421-28.966-1.496-43.388-2.903-8.094-.79-14.403-6.048-19.955-11.478-5.546-5.424-9.904-12.042-15.247-17.699-7.05-7.465-15.824-12.296-25.837-14.678-6.291-1.497-12.638-3.839-18.964-3.854-8.967-.02-17.979 1.484-26.896 2.837-8.502 1.29-16.844 3.865-25.372 4.707-10.93 1.08-20.341-3.425-28.22-10.816-10.392-9.749-20.516-19.782-30.827-29.617-12.515-11.937-25.123-23.775-37.657-35.692-14.478-13.765-28.876-27.616-43.389-41.345-16.535-15.643-33.158-31.194-49.744-46.783-11.147-10.476-22.402-20.84-33.421-31.449-21.949-21.132-43.8-42.366-65.63-63.621-16.845-16.402-33.467-33.036-50.432-49.312-15.155-14.538-31.402-28.015-45.785-43.263-15.987-16.948-31.343-34.672-45.298-53.312-21.52-28.745-41.618-58.554-62.309-87.92-2.228-3.162-4.387-6.373-6.837-9.82"/></svg>