<svg viewBox="0 0 1867 1000" xml:space="preserve" xmlns="http://www.w3.org/2000/svg"><path d="M1222.182 8.182a92 92 0 0 0-9.596.931c-5.872.875-11.712 1.961-17.566 2.951.77.306 1.539.612 3.025.862 3.755-.05 6.793-.045 9.832-.04.521-.251 1.043-.503 1.656-.708a4.5 4.5 0 0 0-1.363.85c-3.33-.146-6.37-.152-9.79-.094.59.555 1.56 1.048 1.475 1.005-9.546 3.148-19.88 6.555-30.59 9.973-.798.02-1.22.027-1.958.049-3.412 2.012-6.506 4.01-9.975 5.994-.327-.013-.359-.004-.367-.004h-.004c-.453.63-.898 1.26-1.649 1.908.75-.646 1.184-1.275 1.325-1.9l.01-.002c.323-.003.311-.016.443-.303.394-1.07.656-1.852.613-2.556-1.292.803-2.278 1.527-3.111 2.435.152.183.474.533.474.533.342-.028.684-.057 1.202-.087-.517.04-.865.114-1.24.398.039-.311-.284-.66-.71-.635a263 263 0 0 0-14.968 12.237c5.429-3.354 10.49-6.697 15.552-10.04.02-.285.054-.683.086-1.068-.022.443.021.751.252 1.05-5.398 3.361-10.462 6.705-15.883 10.063-.29.013-.352.004-.365 0h-.002v-.002h-.002c.005.3.006.718.006 1.12-.016-.462-.085-.786-.334-1.098-1.106.68-1.882 1.337-2.287 2.01 1.119-.006 1.863-.025 2.623-.375l-.309.338a38 38 0 0 0-2.624.164c-2.484 2.345-4.284 4.579-6.085 6.812.02.18.04.358.446.799a67 67 0 0 0 4.375-3.748 101 101 0 0 1-4.35 4.017c-.297.007-.403.325-.44.569.026-.252.077-.601.055-.83-.045-.45-.065-.628-.42-.76-.775.696-1.217 1.344-1.326 2.004.777-.004 1.22-.018 1.676-.27l-.166.243c-.4.015-.857.04-1.812.168-2.432 2.36-4.228 4.59-6.024 6.822-.015.734-.031 1.469-.04 2.597.005.395.067.455.407.395-.765 2.573-1.794 4.943-2.974 7.213 1.128-2.238 1.999-4.622 2.635-7.152l-.092-.092c-.462-.002-.895.026-1.938.19-1.075 1.04-1.538 1.948-2.002 2.855-.219.502-.439 1.004-.744 1.535a5.1 5.1 0 0 0 .44-1.418c-.7.967-1.144 1.834-1.295 2.656q-.152.186-.324.379c-1.43 1.772-2.22 3.33-3.01 4.887-.082.33-.164.66-.32 1.01a1.8 1.8 0 0 0 .02-.913c-.411.63-.579 1.178-.505 1.707q-.115.148-.258.303c-1.043 1.079-1.506 2.004-1.97 2.93.157.553.315 1.105.775 1.478 3.637-2.822 6.33-6.102 8.289-9.793-2.009 3.702-4.573 7.05-8.053 9.961-.734 2.063-1.402 3.78-2.086 5.858-3.793 8.35-7.572 16.338-11.705 24.355-1.363 3.327-2.22 6.686-3.453 9.9 1.233-3.214 2.091-6.571 3.104-10.158-.283-.737-.569-1.188-1.2-1.496-2.012 5.074-3.679 10.002-4.998 14.93.738-.62 1.482-1.193 2.078-1.805-.608.653-1.367 1.31-2.164 2.12-.47.745-.506 1.174-.543 1.605-.415 2.896-.802 5.796-1.26 8.685.458-2.889.844-5.789.915-8.537-1.172 2.578-2.024 4.998-2.819 7.438-1.567 4.813-3.102 9.637-4.302 14.389.4-.477.71-.94 1.023-1.4-.358.57-.608 1.029-1.101 1.718-.466.822-.506 1.258-.547 1.693.175.497.592 1.087.584 1.512.003-.423-.451-.997-.914-1.365-2.991 6.737-5.652 13.33-7.975 19.867.64-.538 1.256-1.018 1.742-1.524-.498.545-1.128 1.103-1.83 1.84-.473.81-.522 1.247-.57 1.684-.072.33-.143.659-.291 1.014a1.8 1.8 0 0 0-.008-.916c-.399.636-.548 1.19-.455 1.722a5 5 0 0 1-.26.322c-.72 1.079-.852 1.969-.984 2.858.298.435.597.87 1.115 1.84.57.42 1.203.527 1.408.414-.204.116-.836.038-1.383-.139-2.54 6.15-4.885 12.557-7.244 19.354-3.148 8.155-6.284 15.92-9.71 23.58-1.783 3.405-3.905 6.792-4.9 10.383.99-3.596 3.081-7.027 4.61-10.776-.285-.741-.572-1.195-1.2-1.512-2.7 6.4-5.062 12.664-7.07 18.92 2.213.003 2.95-.617 3.176-1.539-.223.984-.968 1.7-3.25 1.854-.473.75-.517 1.18-.562 1.61.69 4.479-.001 8.522-2.633 12.081 2.627-3.557 3.28-7.586 2.287-11.947a253 253 0 0 0-7.15 18.877c.99-.398 1.685-.759 2.396-1.496q-.03.2-.056.396c-.682.355-1.372.717-2.46 1.405-.723 1.126-1.032 1.912-1.341 2.699-.06.43-.12.862-.295 1.392.141-.466.141-.904-.012-1.293-.377.712-.447 1.324-.24 1.895q.086-.162.15-.32a8 8 0 0 1-.273.623c-.704 1.131-1.008 1.92-1.31 2.709-.245 1.03-.488 2.059-.85 3.187.308-1.061.48-2.084.513-3.053-.703 1.704-1.077 3.275-1.14 4.784l-.156.377c-1.116 2.16-1.76 3.93-2.405 5.699-.076.33-.152.66-.304 1.015a1.8 1.8 0 0 0 .005-.92c-.405.637-.561 1.192-.472 1.723q-.115.156-.258.32c-.725 1.073-.867 1.952-1.01 2.833.446.615.89 1.232 1.744 1.689 3.304-6.945 6.298-13.692 9.032-20.543-2.734 6.85-5.729 13.599-8.8 20.705-.196.435-.335.654-.57.826.212-.163.272-.355.163-.668-.679-.777-1.123-1.393-1.881-1.9-.68 1.059-1.049 2.01-1.08 2.955 1.004-.054 1.674-.104 2.527-.225-3.734 8.152-7.055 16.345-10.94 24.26-1.666 3.397-4.507 6.217-7.005 9.1-.636-.179-1.082-.157-2.094-.07-.89.263-1.02.548-.953.921 2.505 3.863-.704 6.057-2.846 8.797a2 2 0 0 0-.303.153l-.002.001h-.003a30 30 0 0 1-1.05 1.838c.365-.626.61-1.212.696-1.773l.01-.012c.35-.048.335-.065.312-.379-.332-1.094-.641-1.874-1.27-2.533-1.765 2.376-3.21 4.631-4.658 6.885.442.003.884.007 1.819-.238a28 28 0 0 1 1.588-.614c-.433.168-.813.34-1.258.61a50 50 0 0 1-1.687 2.632c.52-.799.926-1.593 1.195-2.384-.774 0-1.215-.003-1.906.07-.42.369-.59.661-.745 1.32-.01 1.103-.035 1.838.301 2.545-.678.136-.933.326-1.234.817a43 43 0 0 1-.528 1.99c.158-.6.216-1.138.15-1.615q.05-.12.104-.244c.575-.621.83-.812 1.147-.92.024-.735.05-1.471-.262-2.471-9.29 12.11-20.54 22.179-33.224 30.404-8.525 5.528-17.986 9.614-27.028 14.344.111.277.223.553.848 1.277 1.882.243 3.574.515 4.855.088-1.28.433-2.962.21-4.76.35-5.513 3.739-11.45 5.688-17.714 7.017 6.154-1.343 12.024-3.382 17.2-7.463-.207-.714-.318-.991-.81-1.298-1.493.601-2.551 1.369-3.728 1.84-6.74 2.696-13.509 5.322-20.041 8.25l-.385.06c-.986-.174-1.417-.103-1.848-.031l-.443 4.363c.179-1.758.31-3.061.057-4.46-9.754 1.887-19.044 4.93-28.506 5.622-16.214 1.187-32.534 1.064-48.81 1.139-4.706.022-9.424-1.102-14.122-1.8-6.111-.91-12.208-1.922-18.273-2.61.853 2.728 2.141 4.217 3.863 4.658-1.77-.44-3.144-1.948-4.182-4.734-.79-.389-1.224-.42-1.66-.452l-1.894 2.756a424 424 0 0 0-3.426-4.236c-.812-.458-1.249-.49-1.686-.522-2.337 1.114-4.114 1.176-6.056-.015 1.934 1.173 3.689 1.044 5.924-.317-6.64-3.85-13.519-6.832-19.565-11.017-8.538-5.91-16.46-12.708-24.818-18.785.238 1.532.288 2.913.95 3.974-.672-1.068-.737-2.465-1.009-4.035.107-.377.007-.503-.006-.517l-.002-.002c-4.285.757-7.201-1.709-9.82-4.452 2.619 2.743 5.535 5.209 9.652 4.176-8.71-8.53-17.343-16.695-25.77-25.068-8.268-8.217-16.327-16.646-24.507-24.64l.004-.014c.027-.265.022-.324.017-.336v-.002h-.001v-.002c-.528-.36-1.057-.719-1.563-1.182a5.1 5.1 0 0 0 1.51.9c-.757-.888-1.464-1.499-2.332-1.79l-.096-.128c.095-.446-.152-.572-.152-.572l-1.557 1.674c-3.534-3.555-6.935-6.976-10.539-10.662-1.37-1.595-2.616-3.166-3.916-4.71a73 73 0 0 0 3.703 4.048c-.023-1.451-.037-2.506-.172-3.875-2.027-2.12-3.93-3.925-5.836-5.73-.448.001-.896.004-1.683.367 1.09 1.608 2.266 3.12 3.468 4.568-1.257-1.503-2.568-2.978-3.804-4.574a8 8 0 0 0-.057-1.082c-.876-.543-1.714-.85-2.553-1.157.366-.485.731-.97 1.243-1.949-.145-.702-.436-.912-.727-1.12-.723-.012-1.445-.022-2.53-.044 1.085.022 1.807.032 2.475-.266-.997-1.1-1.94-1.89-2.894-2.314.011 1.101.034 1.836.418 2.58l-.371-.353a35 35 0 0 0-.178-2.534c-2.365-2.816-4.61-4.96-6.856-7.101-1.783-1.254-3.565-2.508-5.652-3.547a197 197 0 0 0 5.299 5.851 236 236 0 0 1-5.594-6.005c-1.26-1.816-2.53-3.262-3.96-4.993-4.164-3.49-8.388-6.464-12.11-9.97 3.722 3.506 7.946 6.48 11.95 9.687.004-.441.008-.884-.083-1.969-3.006-3.45-5.916-6.257-8.826-9.064a42 42 0 0 1-2.035-1.81q1.011.87 1.998 1.466c-1.203-1.31-2.376-2.345-3.53-3.101a22 22 0 0 1-.474-.584 129 129 0 0 0-11.018-11.504l-.008-.045c.06-.33.037-.394.034-.4h-.002c-.6-.525-1.206-1.162-1.807-1.704.579.485 1.16.977 1.719 1.375-1.684-1.786-3.28-3.243-4.863-4.343.06.065.119.113.18.177-.062-.065-.123-.107-.184-.173a3 3 0 0 1-.004-.356v-.002c-1.234-.723-2.469-1.445-3.75-2.469 1.281 1.023 2.514 1.728 3.719 2.131-1.355-1.756-2.68-3.175-4.008-4.271.004.756.016 1.189.082 1.972-2.032-1.782-4.009-3.213-6.028-4.992-1.42-1.268-3.016-2.082-4.24-3.197 1.223 1.11 2.815 1.884 4.2 2.848l.036-.037c0-.76-.013-1.505-.142-2.942-8.127-8.944-16.138-17.198-24.34-25.101-.058.846-.166 1.63-.033 2.18-.136-.555-.042-1.359-.033-2.274.117-.416-.039-.556-.059-.572l-.002-.002c-1.493-.592-3.292-.89-4.666-1.596 1.366.69 3.135.935 4.506 1.314-11.168-11.85-22.175-23.42-33.182-34.988-.185.004-.37.007-.812.38.987 2.153 1.932 4.271 3.19 6.077-1.27-1.806-2.27-3.923-3.468-6.072-8.003-5.143-14.895-10.993-19.001-19.985-4.577-4.614-9.145-8.834-13.647-13.125 4.502 4.29 9.069 8.51 13.945 12.75.78-.007 1.228-.006 1.557-.318-8-8.086-15.885-15.861-23.783-23.256l-.182-.351c-1.022-1.48-1.944-2.29-2.867-3.098-3.433.682-5.556-1.076-7.545-3.09 1.983 1.998 4.09 3.692 7.45 2.768-4.804-4.994-9.541-9.634-14.212-14.342-10.21-10.293-21.705-18.824-34.638-25.398l-.264.277c.015.455.117.817.543 1.615 5.901 6.125 13.879 8.635 19.834 14.111-5.955-5.472-13.93-7.95-19.81-13.828-5.087-2.016-9.875-3.881-14.663-5.746 4.787 1.865 9.574 3.728 14.338 5.31-.125-.645-.228-1.006-.635-1.464-1.114-.683-1.926-1.272-3.072-1.977-2.709-1.167-5.084-2.218-7.795-3.261.337-.007.37-.49.25-1.024-1.008-.663-1.9-.793-2.789-.924-.311.201-.658.406-1.057.612.404-.234.697-.507.928-.93-1.387-.703-2.644-1.087-3.867-1.172.687 1.01 1.338 1.722 2.29 2.416-.938.231-1.79.704-2.5.846.693-.143 1.484-.61 2.2-.828a121 121 0 0 1-2.293-2.559c-1.125-.745-1.913-1.066-2.7-1.387-4.295-1.362-8.59-2.725-13.278-4.511-.834-.46-1.274-.496-1.713-.532-1.603-.226-3.204-.453-4.91-.79 1.63.284 3.207.436 4.707.462-2.688-.695-5.18-1.076-7.578-1.125l-.502-.136c-1.88-.758-3.313-1.036-4.899-1.063-.71.398-1.27.545-1.781 1.065a14 14 0 0 0-2.717-.993c.985.203 1.827.41 2.668.62.56-.147 1.119-.293 1.654-1.055-12.807-1.024-25.588-1.574-38.375-1.74-3.075-.04-6.165 1.194-9.25 1.841 1.087.308 2.171.615 4.008.871 2.83-.357 4.907-.663 6.985-.97.982.415 1.964.83 3.498 1.584 8.478.333 16.406.327 24.334.322.245-.304.49-.608.82-.916q-.364.464-.48.924c-8.269-.001-16.196.003-24.582.004-1.103-.304-1.946-.606-2.747-1.057.772.432 1.51.669 2.196.719-1.074-.75-2.056-1.165-2.989-1.225-2.127-.049-4.206.257-6.671.623.9.558 2.19 1.057 3.425 1.535-9.328 1.488-18.7 2.984-28.49 4.454-4.157.56-7.899 1.142-11.986 1.886-1.446.407-2.825.695-4.22 1.069 1.21-.339 2.443-.662 3.608-1.03-.754-.702-1.243-1.283-2.064-1.838a51 51 0 0 0-1.64.22c-.854.415-1.707.83-2.649 1.208a14 14 0 0 0 2.297-1.29c-1.718.537-3.113 1.149-4.32 1.982q-.24.067-.489.13c-.966-.16-1.404-.094-1.842-.03-.573.745-1.145 1.49-1.55 2.632 1.564-.256 3.076-.611 4.591-.959-1.569.386-3.132.86-4.757 1.205-.749-.155-1.528-.305-2.268-.445a6.4 6.4 0 0 0 2.1.049c.738-.993 1.31-1.737 1.543-2.567-1.915.632-3.486 1.346-4.684 2.29.226.059.428.103.633.148-.336-.068-.546-.092-.961-.19-.916-.22-1.132-.17-1.346-.119 1.689 1.397 1.955 2.406.287 3.445 1.665-1.04 1.378-2.06-.486-3.548-14.572 5.6-28.37 12.384-40.172 22.545-6.838 5.886-14.038 11.627-19.676 18.57-7.365 9.071-13.353 19.263-19.922 28.98a19149 19149 0 0 0-25.144 37.27c-1.301 1.935-.79 3.308 1.697 3.547.844-1.465 1.632-2.715 2.41-4.098a127 127 0 0 0-2.187 4.346c5.641 4.058 11.22 7.532 16.799 11.006 1.793-2.89 3.7-5.718 5.336-8.694-1.635 2.976-3.543 5.803-5.13 8.973.75.152 1.565.207 1.794-.133 4.866-7.23 9.665-14.506 14.138-21.935l.098-.077c.406.088.54-.078.555-.1v-.001c1.387-3.486 2.51-7.112 4.244-10.416-1.734 3.304-2.857 6.93-3.97 10.242 1.235-1.462 2.284-2.696 3.146-4.049 5.97-9.375 11.9-18.773 17.47-28.168-.612.154-1.214.241-1.695.377.518-.156 1.199-.281 1.984-.514 1.139-1.041 1.613-1.95 2.088-2.859.322-.714.646-1.427 1.092-2.144-.422.712-.681 1.404-.777 2.046.76-1.025 1.213-1.955 1.35-2.87l.015-.02c.25-.006.305-.02.316-.028v-.001h.002v-.002c1.46-3.398 2.626-6.973 4.53-10.1-1.904 3.127-3.069 6.702-4.202 9.986 3.45-4.028 6.57-7.942 9.342-11.888-.998.291-2.103.471-3.049.726.946-.255 2.05-.436 3.047-.728.347.028.352.033.352.033 2.259-2.664 3.773-5.85 6.277-8.295-2.47 2.442-3.896 5.623-5.928 8.266.784-.244 1.287-.377 1.64-.684 15.54-13.535 32.992-23.485 53.122-28.467 7.642-1.89 15.252-3.909 22.842-6.224-.834-1.85-1.772-2.461-2.86-2.41 1.14-.066 2.178.534 3.23 2.386 1.143.274 1.882.217 2.62.158 2.743-3.027 5.596-5.477 9.426-4.966-3.812-.505-6.59 1.963-8.994 5.072 7.081-.58 13.738-1.873 20.38-1.81 10.77.1 21.527 1.092 32.22 1.378-1.34-1.89-2.64-3.556-4.418-4.076 1.814.521 3.196 2.208 4.74 4.148.829.431 1.266.462 1.703.493l2.683-2.758c1.091 1.276 2.182 2.553 3.64 4.244.802.454 1.239.492 1.675.531.63-.21 1.33-.688 1.904-.693-.572.01-1.258.526-1.765 1.031 6.713 2.78 13.286 5.222 20.005 7.328-.229-1.014-.412-2.224-.773-2.91.37.7.583 1.966.914 3.176.572.74 1.148.878 1.725 1.017.604-.071 1.325-.371 1.84-.27-.514-.097-1.223.24-1.739.604 6.75 4.642 13.901 8.35 19.934 13.395 9.739 8.144 18.856 17.049 28.023 25.853 10.098 9.699 19.956 19.647 29.934 29.1-.823-2.031-1.373-4.126-2.32-5.771.947 1.645 1.5 3.737 2.326 5.765-.011.382-.022.39-.022.39 6.05 1.156 10.554 5.651 10.56 11.12-.117.429.038.566.057.582l.002.002c.604.384 1.206.77 1.805 1.314-.591-.531-1.17-.869-1.672-1.064.84.848 1.547 1.444 2.266 1.662h.002c-.01.378-.012.38-.012.38.603.454 1.205.938 1.807 1.47-.591-.501-1.175-.894-1.729-1.162 1.025 1.102 1.97 1.897 2.926 2.326-.028-.031-.055-.056-.082-.086.029.031.057.052.086.084-.006.365-.012.373-.012.373.784.255 1.568.508 2.635.904l.287.201c.057.695.117 1.41.256 2.762 4.43 4.976 8.773 9.274 13.31 13.2-.354-2.653-1.249-4.81-2.49-6.65 1.265 1.857 2.18 4.034 2.555 6.716-.121.413-.009.552.006.568v.002c1.373.233 3.145.024 4.129.69-.983-.665-2.745-.44-3.948-.419 5.221 5.498 10.262 10.725 15.493 15.704.157-1.08.497-2.289.39-3.073.111.796-.218 2.058-.32 3.36.479 1.034 1.078 1.533 1.676 2.033.432.002.866.004 1.623.025.992.592 1.802 1.173 2.57 1.899-.75-.707-1.494-1.22-2.223-1.553.173.954.322 1.582.768 2.336-.297-.125-.498.075-.496.47.938 1.183 1.873 1.97 2.822 2.397a88 88 0 0 0-.062-1.91c.032.558.079 1.213.183 2.225 2.675 3.156 5.242 5.638 7.809 8.12.652.456 1.305.912 1.996 1.676.033.27.007.325 0 .334.45-.004.897-.008 1.687-.373-3.673-4.434-7.686-8.506-11.7-12.58v-.01c4.01 4.08 8.026 8.156 12.038 12.598a9 9 0 0 0 .045 1.078c-.033-.236-.048-.712-.385-.718-.786-.002-1.236.002-1.644.34.683.79 1.324 1.246 1.994 1.431.042-.453.055-.633.035-1.05 2.582 2.036 5.131 3.837 7.834 5.94 2.473 3.086 4.792 5.868 7.1 9.018.334 1.139.68 1.909 1.03 2.99.003.253-.009.31-.013.323v.004c.443.002.884.003 1.659.029.342.097.597.188.806.309a.56.56 0 0 0-.373-.07c.295.482.551.662.88.515-.009.18-.004.226-.005.244h-.002v-.002h-.004l-.002-.002c-.317-.093-.572-.273-1.199-.78-.876-.24-1.318-.242-1.728.087 1.02 1.424 2.01 2.518 3.015 3.25a84 84 0 0 0-.054-1.78c.03.528.075 1.153.158 2.06.7 1.13 1.313 1.616 1.926 2.103.714.018 1.429.037 2.523.056.38.001.43-.05.393-.394-1.702-1.75-3.366-3.155-5.03-4.56v-.024c1.657 1.422 3.324 2.83 5.03 4.584 2.027 2.447 4.016 4.55 5.998 7.02-.008.366 0 .354-.004.36.644.464 1.294.921 1.968 1.71.391.58.78 1.08 1.19 1.562-.371-.402-.815-.842-1.164-1.232-.264-.02-.63-.056-.975-.09.394.02.679-.028.95-.24-.673-.787-1.32-1.243-1.958-1.393l-.002-.008c-.004-.315-.012-.304-.306-.432-1.095-.378-1.895-.628-2.656-.56.814 1.283 1.589 2.246 2.556 3.043.315-.285.44-.401.563-.518-.04-.322-.08-.645-.123-1.125.054.48.145.814.425 1.18-.425.063-.55.179-.662.72 1.757 2.049 3.503 3.671 5.266 4.932-.029-1.082-.075-1.803-.39-2.664l.275.227c.044.693.091 1.411.222 2.732 1.019 1.48 1.946 2.303 2.873 3.127.74.01 1.48.02 2.588.03.37-.002.4-.034.373-.393a63 63 0 0 0-2.416-2.354 64 64 0 0 1 2.434 2.338c1.443.414 2.353 1.006 2.705 1.93.314.823.187 1.909-.422 3.377.894 1.423 1.838 2.236 2.783 3.049.956.137 1.914.274 2.91.709-.996-.435-1.953-.572-2.886-.414.332.723.642 1.152.951 1.58.31-.181.658-.364 1.07-.551a2.36 2.36 0 0 0-1.008.848c.69.711 1.317 1.125 1.957 1.213-.038-.975-.092-1.622-.42-2.278-.151.053-.284.11-.413.166.146-.064.263-.125.439-.191.3-.02.353-.074.312-.371 1.699 2.05 3.356 3.804 5.024 5.924.806.963 1.602 1.562 2.662 2.296-1.06-.734-1.856-1.332-2.977-1.927-.757.002-1.188 0-1.546.32 1.669 1.779 3.264 3.24 4.875 4.33-.018-1.108-.052-1.847-.35-2.723l.271.266c.032.698.067 1.43.176 2.734.682 1.133 1.282 1.619 1.881 2.104.714.606 1.428 1.21 2.152 1.908a15 15 0 0 0-2.115-1.566c1.237 1.351 2.442 2.41 3.633 3.174q.173.203.348.418a4 4 0 0 0 .252 1.021c1.023.275 2.046.55 3.384.945.315.122.367.08.358-.283 4.976 5.493 9.944 10.62 14.926 16.108.113.548.265.81.584 1.054-.324-.236-.526-.451-.899-.715-.987-.052-1.646-.083-2.324.202 1.236 1.418 2.492 2.518 3.77 3.261-.03-1.069-.08-1.782-.338-2.601l.216.215c.048.677.1 1.388.237 2.705 3.001 3.501 5.909 6.327 8.816 9.154 1.454.918 2.908 1.835 4.668 2.543-2.28-2.596-4.644-5.134-7.047-7.645a325 325 0 0 1 7.336 7.805c-.016.37.026.82.07 1.041.621.213 1.433.042 1.844.227-.41-.182-1.217.013-1.799-.006.007.43.013.86.106 1.927 3.99 4.464 7.894 8.29 11.799 12.116.35.245.7.49 1.064.822q-.527-.39-1.023-.488c.629.724 1.224 1.165 1.797 1.328q.1.13.205.275c.082.567.295 1.01.295 1.01.654.017 1.308.035 2.543-.125-4.544-5.717-9.65-11.275-14.836-16.756 5.187 5.481 10.293 11.039 15.162 16.76-.15.687-.15 1.267-.13 2.004-.05-.719-.153-1.273-.45-1.828-.98-.021-1.634-.037-2.303.254.909 1.07 1.832 1.836 2.773 2.248l.002.048c-.02.264.007.34.03.362l.005.004.002.002.006.002h.008c.689.564 1.377 1.126 2.076 1.783a15.6 15.6 0 0 0-2.011-1.469c1.232 1.33 2.408 2.391 3.6 3.135q.183.217.37.449c.675 1.151 1.278 1.648 1.881 2.147 1.079.904 2.158 1.808 3.227 2.818a28 28 0 0 0-3.149-2.498c1.655 1.723 3.234 3.14 4.832 4.203l.09.098c-.023.248-.009.33.004.355l.004.006.002.002v.002h.01c3.084 1.32 6.77 1.965 9.144 4.082-2.373-2.117-6.06-2.76-9.06-3.754 5.394 5.178 10.598 10.15 16.039 14.85 7.297 6.303 14.489 12.789 22.27 18.45 5.973 4.348 12.775 7.565 19.23 11.245 7.911 4.51 16.404 7.373 25.375 8.459-.439-2.154-1.087-3.705-2.567-4.082 1.508.378 2.228 1.95 2.887 4.164.767.47 1.206.495 1.644.521 2.608-1.497 4.998-1.679 7.329 1.555 1.173.446 1.919.469 2.664.49l3.945-1.396c-1.284.454-2.615.926-3.744 1.754 5.077.723 9.953 1.09 14.742 1.119-3.998-2.155-7.91-3.973-11.822-5.791 3.911 1.818 7.823 3.637 12.187 5.861 1.196.431 1.94.455 2.684.48.124-1.11.246-2.222.428-3.85-.182 1.628-.305 2.74-.204 4.22 16.594.116 32.967.004 49.329-.48 4.499-.134 8.965-1.38 13.254-2.329a12 12 0 0 0-.928-.467c.362.148.587.227 1.25.528.947.224 1.38.172 1.812.12 1.117-.898 2.234-1.796 3.696-2.714.546-.483.79-1.25 1.087-1.521-.29.272-.49 1.036-.744 1.501.284.048.746.167 1.051.223a17 17 0 0 0-1.394-.203c-1.462.918-2.58 1.816-3.313 2.814 2.474-.554 4.565-1.209 6.457-2.128a9 9 0 0 0-1.13-.352c.495.102.832.14 1.544.326 1.995.153 3.376.065 4.756-.021 1.025-.409 2.05-.815 3.176-1.182a19.5 19.5 0 0 0-2.813 1.281c2.046-.51 3.758-1.112 5.266-1.955q.286-.063.584-.123c1.672.17 2.73.089 3.789.008.684-.401 1.369-.804 2.139-1.17a9.3 9.3 0 0 0-1.807 1.264c1.399-.507 2.493-1.102 3.422-1.916a14 14 0 0 1 .441-.14c.936.127 1.371.05 1.805-.026.007-.377.014-.753-.227-1.694-7.778.735-15.313 2.014-22.828 3.397 7.515-1.383 15.05-2.662 22.84-3.68 1.06.03 1.86-.223 2.947-.615.803-1.76 1.943-2.77 3.252-3.402-1.232.613-2.278 1.586-2.964 3.261.32.1.595.276 1.265.721 1.539-.168 2.633-.533 3.79-1.227 2.032-1.69 4.002-3.05 5.769-4.67.644.25 1.084.241 1.853.221 4.1-1.998 7.87-3.986 12.028-5.955 6.888-3.189 13.775-5.8 19.808-9.726-6.033 3.925-12.92 6.537-19.422 9.744-.037.671-.074 1.342.256 2.422 6.15-2.454 12.194-4.89 17.653-8.274 8.563-5.307 16.901-11.02 24.998-17.02 4.276-3.168 7.882-7.244 11.437-10.931l.506-.344c1.044-.718 1.463-1.328 1.883-1.94-2.208.059-3.49-.395-1.547-2.716-1.943 2.321-.66 2.776 1.853 2.639.82-.721 1.333-1.365 1.846-2.006.234-.479.467-.957.787-1.457q-.364.716-.474 1.379c.718-.898 1.178-1.731 1.357-2.532q.164-.18.35-.367c2.105-2.083 3.564-4 4.894-6.178-.694-.752-1.261-1.244-2.105-1.55 13.052-17.318 24.602-35.062 33.14-54.877-8.538 19.815-20.089 37.557-32.863 54.69.567.492 1.135.985 2.15 1.632 11.02-13.078 20.957-26.71 27.754-42.37 6.184-14.247 12.654-28.377 18.567-42.735 4.123-10.013 7.52-20.325 11.242-30.502a72 72 0 0 0-1.97-.707c-3.23 6.245-6.203 12.558-8.645 19.07 2.442-6.512 5.415-12.825 8.508-19.305 2.73-6.19 5.088-12.31 7.503-18.406-2.416 6.096-4.772 12.217-7.013 18.562.63.419 1.123.601 1.783.454a7391 7391 0 0 0 9.873-24.721c-.716.278-1.432.556-2.441 1.342-.935 1.789-1.674 3.034-2.2 4.361.526-1.327 1.264-2.572 1.934-4.242-.28-.852-.943-1.518-.91-1.858-.032.338.65.976 1.205 1.352.98-.398 1.695-.677 2.531-1.26.431-1.093.742-1.88.795-2.875.605-3.727 1.469-7.249 1.973-10.717 2.137-4.983 3.839-9.942 5.722-14.832-1.883 4.89-3.585 9.85-5.363 14.78-.863 3.52-1.727 7.041-1.99 10.63 2.747-5.358 4.914-10.777 7.037-16.212 4.226-10.821 8.429-21.65 12.64-32.477a1182 1182 0 0 1-5.359 6.686c-1.38 3.298-2.385 6.3-3.582 9.224 1.197-2.924 2.202-5.926 3.3-9.297 2.423-7.643 4.803-14.897 7.306-22.107-2.503 7.21-4.883 14.463-7.014 21.777 1.97-2.046 3.66-4.164 5.434-6.601.126-.756.168-1.194.21-1.631.215-.78.464-1.586.772-2.438-.267.803-.429 1.577-.459 2.295.684-1.397 1.056-2.65 1.101-3.857.05-.108.07-.192.124-.303.75-1.143 1.051-1.937 1.351-2.728.066-.62.132-1.24.31-1.96-.137.657-.132 1.274.024 1.837.416-1.044.5-1.964.278-2.817q.051-.149.11-.305c.7-1.167.981-1.961 1.264-2.755-.284-.462-.568-.925-1.228-1.641-.835.162-1.677.404-2.076.814v-.002c.399-.419 1.238-.704 2.064-1.103 1.386-3.898 2.27-7.804 3.522-11.59-1.252 3.786-2.136 7.691-3.147 11.844.297.753.582 1.216 1.219 1.537 2.03-5.4 3.706-10.659 5.018-15.916-1.06.679-2.211 1.244-2.79 1.986.581-.753 1.747-1.375 2.875-2.345.518-1.093.585-1.826.653-2.56.362-1 .725-1.999 1.47-3.35.42-.785.456-1.218.493-1.651-.407-.25-1.123-.615-1.358-.8.244.181 1.014.524 1.694.657 2.713-5.728 5.091-11.314 7.18-16.87-.98.361-1.669.696-2.391 1.357-.067.764-.1 1.201-.133 1.638a6 6 0 0 1-1.2.483c-2.01 4.238-3.664 8.422-5.226 12.639a262 262 0 0 1 5.115-12.807c.314-.174.49-.233.733-.266-.217.03-.318.078-.363.213.388.025.663-.117.675-.244.298-.454.332-.892.399-1.656-.21-.764-.699-1.484-.836-1.965.14.466.635 1.12.869 1.637.69-.334 1.378-.667 2.492-1.35 1.072-1.789 1.72-3.228 2.367-4.668.56-1.363 1.12-2.726 1.764-4.111a42 42 0 0 0-1.445 3.96c1.302-2.476 2.34-4.827 3.088-7.146q.234-.409.484-.82c.778-.737.93-1.311 1.082-1.887 1.312-2.917 2.557-5.868 3.965-8.738.792-1.614 1.855-3.093 2.642-5.057-.653-.304-1.47-.44-1.78-.261.312-.184 1.142-.083 1.913-.053 1.082-.55 1.877-1.207 2.986-1.875.256-.008.31-.001.32.002h.003v.002h.002c-.465-2.314-.263-4.126.847-5.342-1.04 1.19-1.166 2.98-.527 5.242 2.112-2.368 3.904-4.636 5.317-6.906-1.272.035-2.316.223-3.147.553.882-.367 2-.585 3.375-.645.893-.286 1.067-.555 1.13-.896-1.031-2.126-1.156-3.547-.089-4.495-.994.929-.786 2.328.418 4.405 2.125-2.028 3.923-3.965 5.326-5.92-1.383.104-2.526.258-3.443.476.968-.24 2.182-.41 3.668-.53a4 4 0 0 0 1.056-.206c.302-.383.605-.764.985-1.125-.307.37-.542.772-.707 1.19.82-.575 1.412-1.2 1.754-1.97q.203-.116.433-.226c.844.074 1.044-.036 1.244-.144-.072-1.158-.586-2.896-.322-3.61-.26.712.28 2.437.557 3.483 6.58-4.249 12.923-8.377 19.28-12.485 2.1-1.358 4.234-2.665 6.01-4.168l.337-.058c.884.265 1.17.214 1.44.074.172-1.126.315-2.301.892-2.86-.507.56-.579 1.771-.608 2.958 1.441-.56 2.598-1.217 3.612-2.18-1.08-.829-1.833-1.136-2.36-1.094.596-.088 1.458.198 2.729 1.069 1.246.217 1.981.154 2.717.091 1.462-3.92 3.969-4.373 6.767-4.164-2.797-.178-5.159.34-6.365 4.27 4.89-.565 9.378-1.233 13.865-1.906 4.264-.64 8.526-1.287 12.79-1.93-4.387.004-8.775.008-14.009.033q-.525.03-1.052.02.318-.003.632-.024c1.039-.86 1.687-2.266 2.405-2.668-.706.403-1.26 1.807-1.557 2.647 4.807-.001 9.193-.005 14.02-.032 2.49-.108 4.543-.192 6.591-.677-.691-1.11-1.392-2.51-2.076-2.961.695.452 1.456 1.865 2.495 3.049 2.134.53 3.849.572 5.562.615 2.787-3.945 4.055.26 6.316 1.5.788.362 1.21.332 1.631.303.307-.449.546-1.152.906-1.405-.355.256-.553.979-.544 1.576 5.444 1.78 10.532 3.391 15.605 4.645q.12.162.227.326c1.387 1.128 2.622 1.589 3.857 2.049a4.4 4.4 0 0 1-.068-.809l.13-.191c.4.304.803.645 1.213 1.033-.448-.409-.89-.691-1.343-.842.006.45.036.628.156 1.114.691.456 1.296.606 1.863.43-.076-.092-.15-.165-.226-.249.078.085.152.144.232.237.034.255.028.315.023.328l-.002.002v.002c.62.224 1.27.492 1.963.822-.655-.305-1.277-.485-1.843-.518 1.061.676 2.003 1.047 2.88 1.088-.163-.107-.322-.192-.482-.283.24.127.449.21.711.37.294.414.773.515.773.515 1.206.576 2.412 1.152 3.643 1.816a34 34 0 0 0-3.516-1.492c2.178 1.321 4.25 2.372 6.278 3.13q.348.23.7.472c.763.758 1.342.898 1.92 1.039 1.437.328 2.873.657 4.638 1.02.328.033.367-.005.335-.374-6.19-4.004-12.343-7.652-18.554-11.197 6.21 3.545 12.363 7.194 18.574 11.178 1.997 1.468 3.943 2.587 5.936 4.056-1.993-1.47-3.939-2.587-5.905-3.687l-.058.058c.02.347.039.693.047 1.215-.02-.52-.091-.874-.375-1.25-1.765-.362-3.201-.69-4.524-.695 1.704 1.105 3.294 1.888 4.903 2.347v.016c-.016.233-.007.301 0 .32l.001.002v.002l.002.002h.002c.327-.045.6.057 1.178.637.842.679 1.323 1.027 2.176 1.35 1.117-.003 1.86.018 2.558-.31.035.262.051.32.055.335l.002.002v.004l-.002.002c.963.448 1.932.888 2.934 1.681.03.309.046.34.045.348h-.002l-.01.004c-.482-.258-.984-.562-1.486-.865.504.266.984.443 1.453.513-.995-.787-1.955-1.227-2.784-1.38l-.013-.01c-.098-.224-.13-.273-.14-.283h-.003v-.002h-.002c-.744-.022-1.489-.043-2.492.28 1.996 1.8 4.252 3.254 6.492 4.39a23 23 0 0 0-.504-1.409c.184.46.385.993.616 1.67.717.975 1.308 1.371 1.9 1.768.357-.104.836-.21 1.227-.315.45-.12.821-.24 1.412-.363.334-.007.38-.052.334-.406 2.812 1.242 5.315 2.812 7.695 4.521-2.354-1.637-4.879-3.055-7.65-4.168l-.067.069c.016.543.044 1.074.067 1.761-.044-.679-.136-1.212-.4-1.753-.541.104-1.003.21-1.391.34-.389.129-.703.28-.948.47 1.102.787 1.925 1.42 2.758 1.697l.002.04c-.015.258.008.331.025.351l.003.002.005.002.002.002h.008c.303-.025.558.075 1.121.63.845.688 1.33 1.043 1.817 1.4.69.304 1.382.608 2.084 1.042-.696-.41-1.36-.651-1.967-.742 1.026.755 1.939 1.214 2.814 1.332l.02.016c.023.27.042.33.05.343l.003.002h.001v.002c.664.391 1.33.78 2.014 1.258a11.5 11.5 0 0 0-1.908-.945c1.239 1.012 2.39 1.765 3.514 2.224q.226.205.459.432c2.416 2.784 4.674 4.906 6.933 7.027.728.014 1.458.026 2.549.053.363.014.404-.026.385-.389-2.936-4.068-6.165-7.66-9.846-10.648 3.677 3.038 6.928 6.584 9.865 10.629 6.104 2.73 10.399 6.993 13.125 13.08.121.887.35 1.494.451 2.475-.12.35.011.48.028.496v.002c.347-.133.746-.269 1.224-.41-.491.161-.824.347-1.084.66.847.86 1.553 1.473 2.282 1.713-.011-1.115-.043-1.858-.487-2.573q.219.214.432.428l.105 2.387c.03.614.227 1.068.227 1.068.661.556 1.322 1.11 1.975 1.803-.656-.67-1.32-1.16-1.995-1.492.893 1.1 1.804 1.894 2.731 2.343l.02.026c-.017.274-.006.334 0 .347v.004h.001c.79.265 1.58.53 2.667.551a50 50 0 0 0-2.36-3.318 66 66 0 0 1 2.652 3.445c.788.959 1.58 1.548 2.649 2.264 1.97 2.54 3.665 4.951 5.353 7.732.087.688.265.951.739 1.272 1.055.511 2.329.733 2.912 1.302-.58-.563-1.825-.732-2.655-.84 2.814 5.664 5.58 10.978 8.643 16.448 1.655 1.821 3.018 3.49 4.38 4.763-.002.393-.004.396-.001.395h.002c-.028.097-.09.275-.12.375.038-.124.084-.253.118-.375H1362v-.002c-1.36-1.667-2.72-3.334-4.469-5.066-.388-.066-.574.11-.531.466 1.371 2.437 2.699 4.519 4.275 6.44.199-.35.336-.66.446-.951-.115.377-.188.66-.405 1.27.42 1.267 1.045 2.057 1.672 2.847 1.453 1.897 2.907 3.794 4.68 5.848.32.156.357.124.35-.266.76.968 1.69 1.706 2.457 2.465-.762-.715-1.703-1.354-2.452-2.074l-.056.044c-.157.565-.293 1.115-.639 2.118.083.923.373 1.392.664 1.863.966 2.016 1.932 4.033 2.867 6.125a132 132 0 0 0-2.84-5.742c1.603 3.912 3.182 7.481 4.977 10.861q.167.436.332.879c.073 1.318.363 2.1 1.006 2.94 2.096 2.056 3.835 4.053 5.572 5.671v.377c-1.739-1.996-3.478-3.993-5.554-5.662a84 84 0 0 0 3.763 11.229c3.878 9.358 7.853 18.676 12.037 27.812q.086.319.17.639c.084 1.315.39 2.088.694 2.861.25.281.5.564.724.908a2.3 2.3 0 0 0-.709-.591c.328.732.641 1.18 1.155 1.476q.065.177.123.375c-.123.924-.048 1.357.027 1.79 1.18 2.54 2.362 5.081 3.5 7.718a131 131 0 0 0-3.592-7.352c1.804 4.563 3.692 8.793 5.813 12.819q.177.469.351.945c.118 1.325.479 2.103 1.186 2.932.837.834 1.563 1.59 2.095 2.412-.534-.805-1.275-1.495-2.166-2.04 3.932 11.472 8.188 22.657 12.65 33.759 7.796 19.392 15.835 38.687 23.555 58.109 7.74 19.468 15.087 39.093 22.842 58.555 6.778 17.009 13.865 33.893 20.85 50.82 5.727 13.878 9.532 28.706 19.701 40.408 3.505 4.034 7.152 7.943 10.736 11.908l.168.377c.135.404.215.556.631.705.304-.274.551-.547.778-.822-.259.365-.423.651-.79 1.104.221.75.79 1.216 1.358 1.683 2.032 1.502 4.064 3.005 6.36 4.647-2.296-1.642-4.326-3.13-6.337-4.297 2.673 2.789 5.322 5.228 7.965 7.346-.078-.252-.168-.449-.25-.672.131.35.223.515.377.98 2.406 2.745 4.678 4.861 6.951 6.977.719.018 1.437.036 2.5-.282-1.533-2.5-3.029-5.067-5.113-6.955 2.163 1.919 3.738 4.474 5.47 6.97.014.348.022.341.02.35 6.035 1.054 8.587 6.165 11.996 10.64.012.262.039.304.043.318v.006l-.004.005c3.9 3.152 7.821 6.281 11.872 9.721.438.418.69.6.996 1.07 1.015.96 1.97 1.911 2.949 2.836a40 40 0 0 0-2.545-2.091l-.367-.4c-.343-.815-.596-.998-.905-1.104a45 45 0 0 1-3.3-.284c1.334.169 2.318.227 3.172-.027-4.016-3.41-7.905-6.516-11.739-9.295l-.078-.094c-.021-.221-.048-.29-.064-.308l-.002-.002-.002-.002h-.002v-.002h-.008v.002h-.002c-.38-.035-.88-.114-1.318-.17.484.033.902 0 1.304-.18-3.409-4.474-5.96-9.582-11.988-10.312l-.002-.01c-.005-.324-.012-.32-.369-.332-1.076-.031-1.794-.05-2.447.22.777.961 1.488 1.633 2.385 2.159.184-.146.527-.465.527-.465-.026-.353-.05-.707-.078-1.254.036.545.105.907.416 1.309 3.212 2.914 6.087 5.772 9.273 8.74-.312-.11-.499.087-.46.5 3.613 3.54 7.19 6.664 10.857 9.695l.271-.283c-1.783-1.932-3.565-3.864-5.357-5.892a150 150 0 0 0 5.709 6.003c-.351-.11-.534.077-.5.483a193 193 0 0 0 13.834 11.422c-.006-.773-.027-1.213-.322-1.79l.277.202c.02.42.045.87.158 1.879 1.031 1.422 1.965 2.22 2.898 3.021 1.232.82 2.464 1.638 3.702 2.608a22.7 22.7 0 0 0-3.596-2.291c1.688 1.43 3.27 2.55 4.834 3.316l.021.018c.012.27.022.334.026.35l.002.001v.002c1.741.657 3.482 1.314 5.562 1.664-2.557-2.224-5.232-4.34-7.957-6.412a254 254 0 0 1 8.309 6.457c.011.308.029.331.031.338v.002c.65.45 1.301.892 1.978 1.66-.673-.763-1.32-1.204-1.923-1.332l-.01-.01c-.043-.325-.063-.307-.414-.351-2.093-.702-3.834-1.358-5.47-1.694 3.657 3.077 7.211 5.838 10.765 8.596l.195.332c.359.414.64.586.92.758.736.012 1.472.023 2.592.035.384 0 .42-.047.383-.394a62.5 62.5 0 0 0-6.826-5.287l-.024-.04c-.09-.216-.132-.266-.148-.277l-.002-.002-.002-.002h-.004l-.002.002c-.484-.34-.967-.68-1.469-1.16q.75.692 1.443.83c.02.247.04.29.045.303v.006l-.002.004c2.312 1.77 4.633 3.522 6.99 5.623 5.68 4.14 11.32 7.933 16.997 12.084 7.17 4.461 14.339 8.504 21.422 12.697-7.083-4.193-14.254-8.235-21.389-12.34-2.43-1.04-4.859-2.082-7.525-2.777 8.364 6.098 16.652 12.42 25.666 17.431 7.565 4.207 15.86 7.22 24.052 10.143 6.789 2.422 13.898 3.94 20.922 5.55.917-.82 1.776-1.332 2.725-1.896-.949.564-1.809 1.077-2.407 1.967.698.402 1.134.426 1.569.45 4.287.138 8.589.114 12.86.462-4.271-.348-8.572-.324-12.677-.117 14.357 2.78 28.506 5.366 42.711 7.594 8.917 1.398 17.932 2.153 26.877 3.384 12.444 1.714 24.863 3.604 37.274 5.05-.968-2.473-2.798-4.028-4.93-4.548 2.171.523 4.095 2.096 5.291 4.621 1.12.478 1.858.512 2.596.545 5.254-1.892 10.153-1.875 14.68 1.434-4.524-3.303-9.404-3.282-14.51-1.08 5.502 2.001 10.934 3.39 16.133 5.387 3.397 1.305 6.457 3.486 9.634 4.941l.03.025c.02.264.036.323.043.336l.002.002h.002v.002c.563.256 1.13.536 1.7.86-.559-.29-1.102-.474-1.613-.547 1.022.773 1.957 1.233 2.856 1.35l.002.001c.035.348.037.346.037.346.701.908 1.404 1.816 2.11 2.818a30 30 0 0 0-2.075-2.47c1.233 1.928 2.438 3.565 3.654 4.896q.195.325.39.666c.331 1.143.632 1.614.933 2.086.256.278.513.555.744.893a2.4 2.4 0 0 0-.717-.58c.344.723.663 1.166 1.178 1.457q.064.166.12.353c.1.934.403 1.4.704 1.865.801.868 1.602 1.737 2.934 2.588.26-3.953-1.486-8.315-4.375-12.27 2.965 3.999 4.784 8.427 4.623 12.477a2.7 2.7 0 0 0 .185 1.496c-.224-.479-.415-.931-.717-1.48-1.049-1.075-1.85-1.942-2.63-2.432 1.018 2.792 2.016 5.205 3.275 7.424.37-1.043.482-1.893.357-2.924q.105.164.217.327a24 24 0 0 1-.547 2.933c.061 1.312.356 2.093.65 2.873.516.504 1.389 1 1.704 1.508-.316-.493-1.187-.917-1.697-1.04-.208 9.178-.422 17.886-.286 26.497.72-.914 1.525-1.767 1.895-2.615-.373.869-1.196 1.8-1.985 3.02-.495 1.88-.55 3.259-.605 4.638.005 1.437.01 2.873.367 4.61.98-.734 2.142-1.662 2.475-2.678-.333 1.02-1.499 1.988-2.496 3.027-1.155 3.54-1.82 7.064-2.764 10.51.944-3.446 1.61-6.97 2.412-10.809.015-1.786.01-3.222-.346-4.492a343 343 0 0 0-7.101 22.853c.986-.372 1.68-.723 2.535-1.406-.049 2.826-.66 5.353-1.72 7.512.992-2.08 1.546-4.496 1.558-7.18a21 21 0 0 0-2.463 1.418c-1.416 2.134-2.45 3.901-3.484 5.668-.443.964-.884 1.93-1.67 2.93-.344.036-.35.03-.35.03-.42.402-.839.805-1.322 1.185a7 7 0 0 0 1-1.153c-1.004.626-1.74 1.225-2.319 2.006q-.269.141-.568.27c-1.651-.232-2.725-.248-3.797-.262-1.039-.03-2.077-.06-3.193-.197 1.063.095 2.076.047 3.014-.149-1.709-.38-3.243-.424-4.694-.14l-.27-.063c-.675-.568-1.062-.725-1.615-.498a99 99 0 0 1-1.543 2.881c.47-.849.923-1.672 1.143-3.025-1.08-.511-1.927-.492-2.773-.473-.541.42-1.08.839-1.686 1.021.602-.184 1.123-.616 1.506-1.134-.747-.158-1.314-.203-1.861.025.011.455.004.637.091 1.174-4.196-1.286-8.297-2.218-12.73-3.324-5.311 1.098-9.977-.229-14.602-2.034 4.608 1.796 9.21 3.088 14.27 1.86-.568-.43-1.136-.86-2.201-1.58-.946-.321-1.395-.351-1.844-.381-1.635-.357-3.27-.713-5.295-1.47-.832-.431-1.273-.461-1.715-.491-.487-.066-.975-.133-1.49-.28.476.07.929.057 1.346-.034-.937-.406-1.757-.56-2.541-.454a7 7 0 0 1-.453-.27c-1.43-.758-2.644-.875-3.952-.743-.375.699-.654 1.149-.767 1.949-3.858-1.329-7.55-2.309-11.625-3.303l-.596-.154c-.856-.567-1.851-1.279-2.744-1.883a51 51 0 0 0 3.34 2.037c4.076.994 7.765 1.973 11.457 2.951.28-.45.56-.898.758-1.931-6.308-2.281-12.535-3.979-18.682-5.342a45 45 0 0 0 3.106 2.271c-1.115-.755-2.144-1.421-3.426-2.35-.841-.44-1.284-.468-1.725-.495a49 49 0 0 1-3.047-.81c1.008.28 1.982.451 2.89.486-1.729-.702-3.302-1.08-4.806-1.135-.083-.033-.152-.046-.236-.08-.306-.403-.8-.471-.8-.471-.302.06-.568-.01-1.265-.5-1.225-.334-1.984-.38-2.744-.426-1.392.287-2.784.573-4.5 1.23 3.671 1.224 7.424 2.354 11.217 3.438a338 338 0 0 1-11.596-3.45c-1.693-.792-3.331-1.201-5.048-1.929-1.007-.17-1.935-.023-3.114.38q-.266.159-.488.265l.014-.01c-.526.001-.829 0-1.084.215-1.5-.874-2.904-1.714-4.422-2.137 1.518.423 2.921 1.264 4.375 1.92.302.002.604.002 1.38-.254 1.403-.403 2.332-.55 3.26-.697.005-.175.01-.35-.183-1.127-5.746-1.612-11.296-2.623-16.801-3.344.698.974 1.353 1.66 2.377 2.518-2.348-.146-4.339.037-6.3-.123 1.961.16 3.952-.025 5.929-.051a111 111 0 0 0-2.37-2.424c-1.151-.401-1.894-.434-2.638-.467a51 51 0 0 1-3.42-.84c1.138.324 2.24.503 3.264.516-1.733-.675-3.31-1.025-4.834-1.04.331.131.658.24.984.347-.472-.143-.898-.246-1.422-.434-2.856-.368-5.224-.316-7.685.063-1.448.897-2.803 1.466-5.551 2.623 2.748-1.157 4.104-1.726 5.145-2.711-1.705-.438-3.095-.462-4.485-.485-.46.313-.92.625-1.676.965-1.95 1.594-3.895 2.226-5.845 2.268 1.813-.066 3.548-.707 5.158-2.266-4.468-.036-8.545-.046-12.537.342-7.189-.23-14.295-.037-21.4.064 7.105-.1 14.21-.294 21.316-.46 4.076.01 8.152.019 12.916.027 1.148-.315 1.607-.628 1.855-1.317-4.973-.726-9.747-1.49-14.492-1.334-8.101.268-16.185 1.112-24.088 2.002.582.346 1.095.676 1.58.88-.533-.2-1.148-.52-2.015-.862-2.648-.202-4.674-.133-6.7-.064-2.18 3.467-7.369 5.533-12.13 5.14 4.75.39 9.876-1.692 11.703-5.246-12.178 2.188-23.927 4.48-35.676 6.773.807.355 1.614.71 3.123 1.047 6.026-1.301 11.347-2.604 16.686-3.83-5.34 1.226-10.66 2.528-16.356 3.885-.974.758-1.574 1.85-2.297 2.248.713-.399 1.234-1.488 1.594-2.23-1.137-.41-1.945-.765-3.076-1.092-.751.095-1.177.164-1.604.232-.303.22-.605.438-.982.63a2.05 2.05 0 0 0 .676-.71c-.748.228-1.21.529-1.534 1.04a6 6 0 0 1-.412.097c-1.256-.11-1.995-.024-2.734.062-.32.191-.64.384-1.037.543.323-.168.581-.39.746-.642-.763.166-1.249.427-1.59.894q-.168.035-.355.063c-.91-.124-1.345-.054-1.778.015-.86.57-1.706 1.168-2.568 1.735a16 16 0 0 0 2.18-1.807c-5.14 1.571-9.89 3.216-14.545 5.086.31.482.58.66 1.297.752 1.444-.022 2.494-.039 3.724-.365 2.057-1.1 3.986-1.79 5.793-2.717-1.807.927-3.736 1.615-5.371 2.732 7.253-1.154 14.279-2.569 21.256-4.193-6.977 1.624-14.002 3.04-21.436 4.502-1.471 0-2.522.02-3.966.041-3.401 1.674-6.24 3.86-9.452 4.885 3.212-1.024 6.051-3.212 9.057-4.881-.322-.097-.591-.273-1.273-.707-1.874.207-3.283.59-4.692.975-.673.404-1.347.81-2.103 1.18a9.4 9.4 0 0 0 1.771-1.264c-1.393.523-2.482 1.122-3.402 1.939q-.222.076-.455.148c-.942-.141-1.377-.073-1.81-.005-.659.398-1.317.794-2.06 1.16a9.4 9.4 0 0 0 1.725-1.244c-1.384.524-2.467 1.124-3.385 1.937q-.251.086-.52.166c-1.297-.121-2.044-.033-2.79.055a.62.62 0 0 1-.28.428c.123-.122.137-.286.04-.508-.404.19-.577.457-.54.713q-.111.03-.246.056c-.625.116-.783.175-.94.235-.493.57-.985 1.143-1.706 2.117 3.397-.404 7.001-.827 10.525-1.654-3.537.83-7.195 1.265-10.828 1.724-.082-.51-.09-.69-.404-1.107-1.07.077-1.837.395-2.602.713-1.762 1.676-3.28 3.867-5.232 5.14 1.946-1.273 3.423-3.464 4.852-5.13a1799 1799 0 0 0-30.711 12.574c-5.755 2.422-11.434 5.024-17.028 7.902a7.7 7.7 0 0 0 1.196 1.389s.387 0 .845-.272c4.791-1.672 9.226-2.82 13.434-4.527-4.208 1.706-8.643 2.854-13.242 4.515-.23.183-.402.307-.547.383a.22.22 0 0 0 .088-.111c-.192.011-.578.012-.53.193-.407-.526-.766-.87-1.523-1.576-.568-.287-.738-.213-.908-.139-.783 1.472-1.252 3.664-2.274 4.59 1.017-.924 1.449-3.099 1.936-4.431-1.593.915-2.774 1.846-4.111 2.402-18.732 7.784-37.484 15.517-56.23 23.262-2.116 1.23-4.233 2.463-6.675 4.052-.008.811.31 1.263 1.01 1.71-7.333 2.989-14.269 6.013-21.242 8.947 6.973-2.934 13.909-5.959 20.861-8.942-.319-.452-.636-.904-.984-1.646-.044-.46-.06-.63-.395-1.006-2.422.744-4.522 1.694-6.623 2.644a8 8 0 0 1-.918.748c.27-.226.478-.484.602-.74-.733.337-1.177.665-1.47 1.197a6 6 0 0 1-.391.14c-1.943.44-3.38 1.054-4.817 1.667-.281.241-.562.483-.908.701a2.3 2.3 0 0 0 .598-.685c-.738.315-1.194.618-1.49 1.119a5 5 0 0 1-.38.121c-1.277.127-2.05.434-2.822.742-.282.239-.564.478-.91.694a2.3 2.3 0 0 0 .601-.674c-.738.313-1.196.609-1.494 1.101q-.171.062-.363.116c-.922-.112-1.352-.043-1.781.025-2.413 1.19-4.827 2.38-7.338 3.533a118 118 0 0 0 6.967-3.615c-4.282 1.805-8.223 3.684-11.975 5.787q-.413.167-.83.332c-.957-.138-1.387-.072-1.818-.006-1.454.798-2.907 1.596-4.457 2.358a42 42 0 0 0 4.095-2.448c-2.687 1.155-5.043 2.393-7.215 3.856q-.306.125-.62.248c-1.31.098-2.089.395-2.868.691-.28.259-.562.516-.906.75.265-.227.47-.483.592-.736-.727.34-1.17.666-1.463 1.195q-.179.071-.379.133c-1.608.425-2.724 1.042-3.84 1.656-1.723.818-3.447 1.634-5.252 2.42a87 87 0 0 0 4.865-2.394c-3.323 1.302-6.288 2.58-9.064 4.084q-.327.12-.66.236c-1.297.156-2.075.514-2.852.873q-3.691 2.368-7.384 4.732c2.462-1.575 4.924-3.154 7.013-4.802-3.736 1.284-7.17 2.491-10.447 4.033-3.81 1.792-7.481 3.877-11.055 6.086.717.412 1.278.573 2.17.59-1.32 1.023-2.346 2.228-3.473 3.052 1.11-.817 2.071-1.993 3.141-2.908-.56-.16-1.12-.322-2.166-.691-.92-.135-1.355-.062-1.789.012-2.38 1.199-4.758 2.4-7.232 3.556 2.39-1.164 4.688-2.39 6.869-3.642-4.253 1.821-8.174 3.721-11.893 5.853q-.413.17-.83.336c-.991.05-1.468.334-1.943.617a8 8 0 0 1-.912.739c.267-.225.473-.477.595-.729-.73.332-1.175.655-1.468 1.178a5 5 0 0 1-.374.125c-1.264.169-2.042.532-2.82.896-1.012.808-1.934 1.79-3.013 2.465 1.073-.675 1.954-1.666 2.642-2.537-2.007.59-3.65 1.236-5.277 1.92-9.46 3.979-18.915 7.967-28.215 12.201.718.41 1.28.57 2.21.684-1.945 1.11-3.59 2.43-5.312 3.416 1.702-.983 3.276-2.296 4.942-3.371-.561-.16-1.121-.319-2.178-.694-1.273.085-2.05.386-2.828.686a7.5 7.5 0 0 1-.899.719 2.3 2.3 0 0 0 .584-.706c-.729.327-1.177.641-1.472 1.155q-.189.07-.403.13c-1.946.442-3.376 1.075-4.806 1.71-1.875.814-3.75 1.63-5.707 2.412a101 101 0 0 0 5.31-2.399c-3.62 1.303-6.879 2.593-9.94 4.106q-.38.128-.769.254c-1.662.397-2.778 1.013-3.894 1.629-.868.797-1.736 1.592-2.6 2.91a270 270 0 0 0 22.908-7.69c-7.562 2.924-15.26 5.5-23.11 7.942-4.21 1.136-8.266 2.406-12.192 4 3.926-1.594 7.982-2.864 12.187-4.52 1.07-1.048 1.938-1.846 2.422-2.621-7.794 3.017-15.204 6.013-22.615 9.31.337.775.676 1.245 1.322 1.544l-.308.171a16 16 0 0 0-1.354-1.685c-1.111.034-1.884.34-2.656.648-2.034.967-4.067 1.934-6.18 2.87a129 129 0 0 0 5.797-2.848c-3.925 1.59-7.502 3.161-10.889 4.953q-.428.162-.863.322c-1.32.082-2.097.382-2.875.68-2.965 1.687-5.908 3.415-8.902 5.047 2.995-1.632 5.938-3.362 8.517-5.028-7.13 2.679-13.875 5.337-20.576 8.346a18.2 18.2 0 0 0 5.756.178c.828-.546 1.71-.957 2.57-1.426-.827.505-1.635 1.047-2.38 1.7 8.798-2.706 17.34-5.85 25.775-9.253-8.436 3.403-16.975 6.547-25.664 9.518-2.13-.304-4.073-.336-6.383-.69-.799-.251-1.228-.18-1.656-.109a37 37 0 0 1-1.684 1.746c.588-.6 1.05-1.199 1.367-1.836-1.125.54-1.933 1.169-2.754 2.065-.004.443.002.62.332.744-1.227.96-2.073 2.29-3.127 2.892 1.05-.6 1.86-1.924 2.805-2.837-.008-.178-.016-.356-.383-.764-1.098-.155-1.837-.08-2.576-.004-.476.38-.95.761-1.504 1.113.471-.36.875-.769 1.19-1.203-1.054.502-1.829 1.084-2.45 1.871a9 9 0 0 1-.486.194c-1.274-.125-2.012-.05-2.75.025-.675.405-1.349.81-2.107 1.18a9.3 9.3 0 0 0 1.775-1.27c-1.392.52-2.48 1.122-3.402 1.941q-.223.077-.455.147c-.94-.144-1.376-.076-1.81-.008-.855.423-1.71.846-2.655 1.229a13.7 13.7 0 0 0 2.3-1.32c-1.72.536-3.114 1.158-4.322 2.013q-.24.068-.49.13c-1.318.056-2.1.348-2.883.642-.274.246-.55.493-.888.716.256-.216.455-.46.576-.699-.726.328-1.173.64-1.467 1.152q-.197.075-.422.14c-1.941.188-3.348.565-4.756.942-2.586 1.694-5.173 3.388-7.543 5.403 11.566-3.266 22.937-6.792 34.238-10.524-11.302 3.732-22.67 7.258-34.414 10.827-.392-.019-.85-.009-1.08-.018-3.681 1.337-7.135 2.684-10.988 3.992l-.346-.076c2.33-1.63 4.656-3.264 6.676-5.305-6.731 1.555-13.15 3.524-19.57 5.492 2.245.12 4.49.237 7.158.614.465-.01.81-.091 1.1-.207a4.8 4.8 0 0 1-.955.472c-3.389 1.028-6.498 2.05-10.016 3.041-4.535.201-8.66.43-13.365.399-1.01-.198-1.442-.134-1.873-.07-.606.387-1.34.785-1.973 1.175a13 13 0 0 0 1.603-1.271c-2.139.563-3.907 1.222-5.58 2.111.372.418.646.603 1.288.762.608.474 1.583.92 2.558 1.367l-2.926-1.34c-.274-.186-.55-.373-1.252-.77-.862-.146-1.297-.08-1.732-.017-1.454.91-2.907 1.818-4.63 3.129 3.354.401 6.976.402 10.6.402-3.623 0-7.247 0-10.958-.359-.373-.47-.658-.579-1.541-.994-.902-.351-1.19-.304-1.461-.162-.636 2.737-2.285 3.367-4.176 3.62 1.845-.267 3.393-.939 3.842-3.724-4.454 1.226-8.573 2.557-12.47 4.158 1.381.369 2.543.464 3.985.29.103.78.487 1.293 1.166 2.197l-1.447-1.926c-1.161-.096-2.323-.192-4.039-.541-.994-.186-1.433-.119-1.934.299-.425.74-.736 1.443-1.158 1.707.416-.266.684-.98.772-1.805-16.84 3.927-33.371 8.24-49.858 12.727-3.333.907-6.492 2.462-9.73 3.718.76.306 1.52.611 2.896.631 5.528-1.313 10.447-2.307 15.348-3.379 6.546-1.43 13.077-2.922 19.615-4.388.852-.59 1.66-1.319 2.51-1.916-.802.598-1.501 1.344-2.092 1.949-6.955 1.433-13.487 2.924-20.033 4.355-4.901 1.072-9.82 2.065-15.02 3.364-.791.828-1.31 1.767-1.923 2.218.594-.443 1.016-1.336 1.306-1.931-1.088-.291-1.847-.598-2.978-.871-1.11.108-1.85.184-2.588.26-.838.417-1.676.836-2.607 1.214a13.4 13.4 0 0 0 2.255-1.308c-1.714.533-3.106 1.152-4.3 2.008q-.256.071-.524.138c-1.67.056-2.764.355-3.86.654-.257.785-.517 1.57-.673 2.924 1.443-.173 2.865-.466 4.293-.728-1.483.314-2.89.746-4.41 1.017-.97-.27-1.72-.26-2.844-.244-3.152 4.54-7.526 3.572-12.05 3.145-.343-.152-.81-.136-1.054-.112.244-.024.707-.05.893-.29 1.088-.964 1.983-1.681 2.53-2.493-1.795.539-3.239 1.173-4.592 2.037.316.487.592.667 1.154.748-.748.743-1.277 1.83-1.889 2.422.6-.59 1.083-1.675 1.65-2.398-.323-.106-.6-.286-1.302-.733-2.211.18-3.945.55-5.68.92-2.413.828-4.825 1.658-7.342 2.44a115 115 0 0 0 6.952-2.512c-4.321 1.196-8.277 2.46-12.026 3.969q-.361.094-.728.185c-.981-.18-1.416-.117-1.852-.054-1.862 1.039-3.725 2.08-5.594 3.664 8.43-1.299 16.882-3.072 25.276-5.086a441 441 0 0 1-25.502 5.332c-2.076-.07-3.93.157-6.37.148-1.32-.172-2.057-.107-2.794-.043-.846 3.215-3.148 2.948-6.145 2.086-.986-.193-1.421-.134-1.855-.076-.93 3.145-2.187 4.567-6.287 4.402 4.1.165 5.357-1.257 5.896-4.504a1560 1560 0 0 0-32.992 7.928c-8.909 2.238-17.788 4.59-26.535 7.205 1.117.996 2.089 1.678 3.06 2.36a178 178 0 0 0-3.385-2.33c-.9-.229-1.33-.172-1.76-.114-1.106 3.792-3.95 2.747-7.13 2.106-1.004-.193-1.435-.136-1.867-.078-1.355 3.13-3.14 5.304-6.805 4.31 3.663.994 5.425-1.186 6.408-4.406-8.306 1.977-16.216 4.05-24.258 6.498.078 2.136.497 2.9 1.075 3.006-.671-.057-1.214-.8-1.442-3.053-.476-.375-.717-.325-.959-.275-1.047.428-2.093.856-3.248 1.24a20 20 0 0 0 2.93-1.352c-2.063.522-3.826 1.148-5.371 2.036q-.258.059-.524.115c-2.027.038-3.442.327-4.857.617l1.402 2.516c-.448-.804-.925-1.66-1.826-2.512-7.292 1.298-14.184 2.48-21.023 3.91-12.885 2.694-25.74 5.53-38.586 8.662.88.903 1.785 2.036 2.629 2.428-.856-.393-1.813-1.537-2.944-2.488-.76-.37-1.182-.328-1.605-.284l-16.836 6.32c5.612-2.106 11.224-4.212 16.383-6.417-6.167.564-11.88 1.227-17.399 2.15 1.106.536 2.017.812 3.004 1.111-.987-.3-1.899-.576-3.43-1.085-2.32-.173-4.02-.112-5.72-.051-3.4 4.764-8.202 2.222-13.23 2.123-84.443-.292-168.138-.307-251.833-.322-.49.261-.983.73-1.469.835.483-.11.953-.621 1.252-1.21a994 994 0 0 0-46.71-1.055c.387.481.702.888 1.005 1.066-.326-.18-.73-.599-1.466-1.133-8.257-.47-15.933-.507-23.608-.546-2.78 1.217-5.638 1.9-8.52 2.378 2.832-.532 5.61-1.401 8.292-2.746a692 692 0 0 0-38.702-1.029c3.821 1.22 7.546 2.584 11.3 3.43-3.78-.85-7.596-2.227-11.745-3.496-3.567-.404-6.572-.374-9.576-.344.21 2.353-.626 3.448-2.28 3.697 1.63-.255 2.386-1.374 1.862-3.8-7.174-.677-13.929-1.25-20.617-1.49 1.962 1.445 3.76 3.066 5.76 3.864-2.005-.799-3.844-2.43-6.123-3.943-1.169-.442-1.909-.472-2.649-.504-.61.68-1.377 1.937-1.885 2.236.504-.307 1.245-1.611 1.69-2.585-7.08-1.389-13.962-2.43-20.79-3.125 2.11 2.787 4.672 3.947 7.403 4.484-2.808-.541-5.485-1.714-7.768-4.555-1.16-.448-1.9-.48-2.64-.513-1.942 5.11-5.837 2.234-8.248 1.316 2.41.918 6.305 3.793 8.04-1.648-5.574-2.084-11.103-3.462-16.277-5.672-9.431-4.03-19.32-7.075-27.408-13.996-5.265-4.506-11.387-8.01-17.267-11.67.158.77.262 1.576.437 2.28-.189-.74-.315-1.617-.515-2.52-.214-.71-.493-.887-.77-1.063-2.78.63-4.798-.197-6.879-2.356 2.081 2.16 4.099 2.985 6.776 2.03-2.819-2.708-5.719-4.911-8.213-7.504-9.296-9.661-18.458-19.449-27.703-28.78.587 1.565 1.028 3.172 1.564 4.643-.537-1.47-.98-3.074-1.57-4.635.023-.352.04-.404.043-.412-2.322-.289-4.459-1.733-6-3.898 1.54 2.075 3.67 3.427 5.98 3.539-2.747-4.24-5.473-8.123-8.408-11.639q0-.172.006-.346c.107-.91-.003-1.111-.114-1.312-.695.055-1.673.242-2.369.297.682-.081 1.638-.332 2.235-.53-1.867-2.52-3.597-4.809-5.352-6.689l-.068-.252a3.6 3.6 0 0 0-.211-1.101c-.38-.299-.76-.597-1.115-.961.356.289.753.517 1.164.664-.523-.733-1.088-1.206-1.852-1.532a5 5 0 0 1-.223-.392c.105-.911.02-1.336-.064-1.762-1.737-.104-3.088-.197-3.797-1.363a3.3 3.3 0 0 1-.394-1.01c.092.41.225.741.394 1.01.712 1.13 2.07 1.132 3.81.994-.934-2.952-1.994-5.5-2.808-8.125-2.688-8.667-5.46-17.313-7.861-26.06-1.677-6.109-2.8-12.37-4.531-18.534-1.624.416-2.254 1.005-2.364 1.694.089-.77.72-1.484 2.418-2.1.358-1.8.3-3.165.24-4.53-.717-1.154-1.884-2.286-2.337-3.454.456 1.155 1.64 2.217 2.44 3.011-.556-6.495-1.217-12.547-2.179-18.312-.028.361-.039.7-.066 1.058.036-.544.005-.964.043-1.523.29-4.781.3-8.811.31-12.842-1.338-3.172-2.078-6.274 1.494-9.402.476-2.185.51-3.886.543-5.588-.43-1.443-.86-2.886-1.187-4.668.174-.866.304-1.583.512-2.262a6 6 0 0 0-.254 1.637c.426-1.09.698-1.895.646-2.66.346-.473.368-.907.426-1.664-.251-1.366-.828-2.607-.99-3.723.165 1.1.75 2.278 1.027 3.399.273.071.544.143 1.278-.004.499-1.83.539-3.44.578-5.051.729-4.056 1.457-8.112 2.35-12.318a152 152 0 0 0-2.012 12.115c1.354-5.727 2.37-11.253 3.039-16.696l.091-.378c.468-.843.5-1.283.532-1.723.011-.625.024-1.25.136-1.975-.078.655-.022 1.268.168 1.807.32-1.073.336-1.978.051-2.824l-.031.105q.052-.207.117-.426c.427-.82.467-1.26.506-1.7.067-.685.135-1.37.289-2.085a6.4 6.4 0 0 0 .055 1.938c.428-1.262.567-2.401.422-3.485q.09-.219.195-.445c.622-.762.665-1.314.707-1.865-.71-.273-1.42-.545-2.686-.697-2.67 10.488-4.855 20.842-6.81 31.24 1.955-10.398 4.14-20.752 6.54-31.356 1.178-3.969 2.15-7.686 2.938-11.441-.788 3.755-1.76 7.472-2.38 11.32.979.388 1.688.66 2.525.54 2.033-9.507 3.938-18.62 5.496-27.678-1.036.735-2.224 1.341-2.768 2.09.546-.761 1.748-1.433 2.85-2.514.383-2.496.336-4.514.29-6.532-3.122-.616-4.25-1.928-3.626-4.873-.615 2.921.533 4.155 3.734 4.463.055-1.817.005-3.223-.363-4.715-.92-1.124-1.528-2.163-2.174-3.271.646 1.108 1.252 2.147 2.262 2.904.427-1.036.45-1.79.473-2.545a412 412 0 0 1-.922-7.564c-.486.529-.966 1.487-1.446 2.445.48-.958.961-1.915 1.457-3.24.03-2.12.045-3.873-.337-5.549.14-.582-.119-1.086-.495-1.847-.273-.308-.496-.515-.722-.743.218.195.408.277.594.243-.01-.242-.067-.722-.3-.752-.2-.027-.574-.065-.62.084l-.008-.163c.153-.008.55-.071 1.068-.474.924-.92 1.175-1.317 1.416-1.781-.03-.408-.201-.597-.83-.633-.707 0-1.11-.006-1.582.347-.489-.605-1.413-.985-1.738-1.304.327.309 1.263.63 1.808.945.403.005.805.011 1.463-.396-.795-4.159-1.81-7.916-2.904-11.649-4.8-16.365-13.763-30.455-25.889-42.03-16.559-15.806-33.629-31.145-52.867-43.816-10.465-6.892-20.71-14.12-31.055-21.197-.003.171-.007.343.03 1.13.874 1.663 1.548 3.077 2.521 4.038-.974-.958-1.647-2.343-2.523-3.783-3.15-1.92-6.258-3.481-9.67-5.193l-.309-.166c-.378-1.31-.757-2.62-1.426-4.434-1.058-1.18-1.826-1.853-2.593-2.525-.411-.395-.896-.94-1.32-1.362.429.4.853.754 1.269 1.035-1.05-1.335-2.05-2.345-3.055-3.007.418.543.836.99 1.252 1.421-.489-.502-.92-.88-1.474-1.52-.217-.445-.688-.562-.688-.562-3.239-3.247-6.477-6.493-9.607-10.13.102-.367.001-.492-.012-.506l-.002-.002a713 713 0 0 0-4.744-3.95c.12.94.18 2.1.379 3.211-.213-1.17-.289-2.435-.444-3.57-.535-2.278-1.203-4.534-1.859-6.912.686 2.353 1.454 4.709 2.248 7.213a32.5 32.5 0 0 0 4.238 3.719c-2.524-5.164-4.87-10.041-7.472-14.733l-.106-.447c.158-.949.088-1.381.018-1.812-3.327-.295-3.678-2.787-3.54-4.918-.137 2.125.227 4.574 3.641 4.525.048-6.17-.007-11.95-.396-17.688-1.087 3.368-2.193 6.68-2.822 10.04.63-3.37 1.747-6.737 2.89-10.405.43-1.148.456-1.891.483-2.635.01-1.324-.168-2.688-.008-3.98-.156 1.29.06 2.638.34 3.832 5.018-9.495 9.602-18.895 14.431-28.168 2.445-4.694 5.331-9.157 7.655-13.727-2.675.372-4.705 1.1-5.438 2.975.736-1.893 2.786-2.672 5.526-3.203.45-.226.572-.697.572-.697l-.531-4.332c.177 1.444.355 2.888.863 4.22 3.387-5.386 6.442-10.661 9.133-15.912-1.099.7-2.232 1.297-3.19 1.969.979-.714 2.137-1.397 3.326-2.285 1.819-2.748 3.136-5.155 4.452-7.563 1.268-1.616 2.536-3.233 4.253-4.922.45-.072.39-.51.39-.51-.326-1.06-.73-2.157-.493-3.003-.18.791.281 1.832.723 2.777 1.06-1.465 1.89-2.703 2.283-4.066-1.362-.018-2.168.217-2.606.607.466-.458 1.33-.759 2.82-.81.884-.38 1.115-.683 1.346-.987-.411-.972-1.387-2.28-1.304-2.959-.08.679.92 1.975 1.591 2.828 1.891-2.369 3.562-4.563 5.088-6.853 8.11-12.168 16.184-24.36 23.942-36.703.023-.021.04-.044.062-.065.368.09.49-.03.504-.045-.617-3.388.255-6.568 2.34-8.865-2.043 2.266-2.852 5.405-2.06 8.688 2.675-3.959 5.071-7.74 7.124-11.7-1.473.396-2.759 1.039-3.828 1.868 1.093-.853 2.406-1.517 3.916-1.934.404.104.534-.049.55-.068l.001-.002c.156-3.463.46-6.522 2.96-9.053-2.493 2.526-2.751 5.559-2.68 8.887 4.387-6.644 8.513-13.132 12.31-19.604q.289-.35.594-.691c.76-.383.93-.667 1.1-.951-.105-2.564.102-4.948 1.179-6.909-1 1.93-1.124 4.29-.85 6.801 2.445-3.695 4.56-7.283 6.307-10.846a12.5 12.5 0 0 0-1.603.583q.852-.403 1.894-.715c1.14-1.067 1.621-1.976 2.102-2.885-.064-.94-.521-2.148-.211-2.834-.309.686.168 1.892.568 2.8 7.008-9.808 13.572-19.644 20.35-29.33 3.133-4.477 6.66-8.682 9.859-13.228l.475-.057c7.454 5.196 14.493 9.869 21.925 14.803l13.856-20.789-69.787-46.52-13.88 20.758c7.35 4.91 14.574 9.646 21.675 14.559 1.33.92 2.171 2.548 3.238 3.85 1.406 1.59 1.73 2.605.459 4.41 1.266-1.803.905-2.805-.787-4.291a87 87 0 0 0-4.738 6.537c-5.34 8.107-10.65 16.231-15.698 24.473 1.023.333 1.772.543 2.71.462l-.204.288a19 19 0 0 0-2.818-.602c-6.038 8.33-11.478 16.642-16.946 24.937-5.008 7.6-10.045 15.18-15.07 22.768.183-.006.366-.013 1.188-.014 1.132-.617 2.17-1.156 3.021-1.761-.82.604-1.776 1.152-2.746 1.775-.825 7.183-6.617 11.255-10.17 16.602 3.553-5.347 9.346-9.417 9.531-16.606-.457-.008-.641-.002-1.148.125-5.392 7.957-10.466 15.795-15.195 23.598q-.21.19-.42.383c-1.026.879-1.42 1.575-1.815 2.271a119 119 0 0 1-2.004 3.348A79 79 0 0 0 96 341.596c-1.627 2.351-3.063 4.523-4.213 6.68q-.336.44-.695.886c-1.81 2.036-2.94 3.94-4.07 5.842 1.246 3.035-.426 4.334-3.461 5.308-.437.227-.55.708-.55.708-.994 1.686-1.989 3.373-3.49 5.363-1.174 1.411-1.844 2.52-2.513 3.629-.44.972-.88 1.942-1.664 2.95-.28.03-.34.026-.354.022l-.002-.002h-.002c-.436.976-.871 1.95-1.646 2.971-.275.038-.338.031-.352.027h-.004c-.077 2.776-1.019 5.612-2.53 7.877 1.436-2.233 2.298-5.043 2.204-7.76-2.767 4.05-5.207 7.98-7.258 11.923q.458-.136.9-.338-.57.283-1.171.466c-.82.692-.98 1.266-1.139 1.84 1.349 6.461-3.623 9.16-7.414 12.727 3.788-3.566 8.73-6.255 7.086-12.613-3.106 4.708-5.884 9.303-8.322 13.87L55 404c-.249.563-.52 1.129-.836 1.697a5.1 5.1 0 0 0 .52-1.611c-.768 1.027-1.22 1.969-1.329 2.879l-.005.006c-.35.03-.344.037-.344.037-1.053 2.557-1.781 5.32-3.236 7.623 1.455-2.303 2.183-5.066 2.904-7.522-3.78 5.698-7.227 11.293-10.324 16.871v.002c-.35.019-.352.016-.352.016-2.695 5.649-5.39 11.299-8.545 17.307-.781 1.14-1.103 1.919-1.424 2.699.41.54 1.249 1.271 1.293 1.646-.047-.374-.913-1.095-1.63-1.527-1.995 5.07-3.65 10.022-4.965 14.897a183 183 0 0 0 6.584-13.266c-1.99 4.437-4.137 8.804-6.659 13.69-.365 2.509-.316 4.518-.267 6.527 1.029.508 2.82.98 3.271 1.513-.453-.526-2.257-.95-3.38-1.068-.156 3.494-.202 6.541-.249 9.59.082 1.161.079 2.543.143 3.75-.113-1.219-.26-2.414-.502-3.55-.113 3.059.132 5.921.666 8.513.013-.455-.028-.864-.027-1.307.005.6.074 1.042.064 1.682.701 3.069 1.655 5.492 2.608 7.916.171-.01.342-.019.925-.373.277-8.538.22-16.735-.142-24.918.362 8.183.42 16.38.4 24.92.448 1.48 1.05 2.613 1.774 4.047 1.711 2.594 3.395 4.83 4.869 7.199-1.474-2.368-3.158-4.605-4.748-6.9 1.661 5.075 3.323 10.15 5.093 15.923 7.372 7.822 14.635 14.946 21.897 22.07.95.455 1.899.91 2.9 1.694.045.287.029.34.024.35h-.002v.001c.737.02 1.473.037 2.572-.261-6.865-7.561-14.307-14.606-21.213-22.143 6.906 7.537 14.348 14.583 21.578 22.182 1.511 1.758 3.02 3.292 4.48 4.99-1.448-1.659-3.028-3.154-4.841-4.674-1.102-.057-1.84-.075-2.457.225 2.812 2.232 5.506 4.144 8.361 5.728l.074.096c-.09.394.077.523.098.537h.002c2.33.037 4.317.62 6.068 1.647-1.7-.97-3.654-1.451-5.906-1.366 3.872 2.764 7.581 5.248 11.29 7.38-1.422-2.697-3.182-4.752-5.364-6.003 2.236 1.316 4.08 3.376 5.67 6.145 1.756 1.488 3.204 2.482 4.652 3.476 2.503.003 4.644.56 6.162 2.168-1.515-1.571-3.634-2.05-6.076-1.836 2.686 2.097 5.285 3.863 7.9 5.262l.01.033c-.017.245-.007.326.002.352l.002.006.002.002v.002h.002l.002.002h.002c.508.222 1.017.444 1.543.756a4.9 4.9 0 0 0-1.463-.438c.933.714 1.8 1.158 2.656 1.303q.175.151.354.324c1.054 1.082 1.976 1.514 2.898 1.945 1.508-3.641 3.58-1.096 4.95-.152-1.37-.944-3.443-3.49-4.836.486 10.053 7.814 19.993 15.292 29.933 22.772.72.02 1.44.041 2.5-.278-3.428-3.856-7.005-7.611-11.012-10.832 4.007 3.22 7.584 6.976 11.372 10.85 1.506 2.026 2.964 3.888 4.4 5.854-1.427-1.93-2.95-3.74-4.74-5.516-1.08-.038-1.799-.057-2.42.258 2.768 2.587 5.438 4.841 8.289 6.76.023.033.05.061.072.095-.108.4.048.536.068.55l.002.003c2.933 1.558 6.167 2.772 8.967 4.48-2.79-1.694-5.991-2.856-8.79-4.213 2.756 2.548 5.52 4.653 7.882 7.141 5.24 5.52 10.276 11.233 15.674 16.652-.037-.903-.03-1.842-.14-2.689.12.89.122 1.916.18 2.992.092.968.42 1.416.749 1.865 4.714.257 5.806 4.298 7.72 7.446-1.914-3.148-3.005-7.19-7.652-7.1 2.316 4.135 4.563 7.926 7.176 11.72 1.093-.028 1.82-.063 2.488-.437 1.589 4.95 3.794 9.645 5.07 14.385-1.274-4.721-3.467-9.352-5.011-14.047-.727.035-1.455.07-2.514.465-.02 1.448.293 2.536.606 3.623.238.273.476.545.691.88a2.3 2.3 0 0 0-.672-.57c.32.727.621 1.177 1.115 1.475q.072.199.133.426c-.11 1.275-.028 2.014.057 2.754.387.488.775.974 1.13 1.539a5.9 5.9 0 0 0-1.222-1.227c.5 1.06 1.081 1.839 1.875 2.463q.09.207.172.43c-.12.927-.04 1.36.04 1.795 1.83 2.127 2.62 4.358 2.833 6.674-.238-2.216-1.07-4.333-2.92-6.285.274 5.818.634 11.25 1.37 16.564.4-1.485.804-2.965 1.109-4.426-.321 1.565-.752 3.164-1.186 4.791-.477 1.229-.502 1.976-.527 2.723.318.766.635 1.534.959 2.635.2 1.626.395 2.918.59 4.21-.195-1.292-.39-2.585-.62-3.396-.112 1.122-.19 1.762-.224 2.428.012.007.022.01.03.017.017.02.03.075.08.282.137.382.2.564.296.66l.022.02-.022-.02c-.103-.096-.221-.276-.775-.635-.795 1.754-1.041 3.783-1.287 5.813a47 47 0 0 1-.772 3.138c.274-1.04.432-2.047.442-2.994-.676 1.726-1.023 3.305-1.038 4.83.04-.099.067-.196.104-.295-.075.214-.11.393-.195.616-.387.812-.35 1.249-.313 1.687.336.47.673.943 1.131 1.48-.464-.525-.818-.937-1.244-1.105-.694 2.812-1.273 5.25-1.524 7.633a32 32 0 0 0 1.547-2.645c-.533.999-.956 1.882-1.633 3.032-.443 1.497-.471 2.553-.5 3.609.291-.001.58-.002.973.002a6.5 6.5 0 0 0-1.308.162c-.704 2.067-1.072 3.97-1.124 5.803 1.323-1.06 2.329-2.051 3.336-3.405l.028-2.543h.002v-.001h-.002v-.002h-.002a.5.5 0 0 0-.135-.016 2 2 0 0 0 .287-.04l-.004.003c-.09.036-.115.04-.12.043v.002h-.003v.002l-.002.002v.002c.048-.015.098-.034.123-.045-.152.781-.16 1.507-.172 2.593l-.062.42c-.986.972-1.979 1.953-3.356 3.35-.43 1.18-.462 1.926-.24 2.85.714 1.062 1.173 1.95 1.934 2.603-.309.645-.315 1.056-.326 1.777a886 886 0 0 1-.487 7.207c.226-3.231.353-5.066.15-6.832-1.05 1.086-1.768 2.106-2.243 3.31-.283 1.51-.32 3.204-.377 5.323.057-2.119.096-3.812.134-5.508.72-1.018 1.438-2.038 2.493-3.433.342-.788.348-1.2.355-1.611-.46-.887-.92-1.773-1.977-2.65-1.632 5.225-2.666 10.442-3.412 15.614.99-.692 1.689-1.339 2.407-2.41.247 1.085.735 1.961.908 2.735-.175-.753-.667-1.547-.928-2.31a94 94 0 0 0-2.469 2.35c-.4 1.156-.43 1.901-.459 2.647a8 8 0 0 1-.148 1.25c.064-.408.02-.788-.131-1.115-.31.727-.342 1.318-.102 1.875q.112-.252.174-.494a7 7 0 0 1-.261.818c-.377.804-.394 1.25-.41 1.697.287 1.39.576 2.78.847 4.547l-.018.38c-.362.046-.722.091-1.44.525-.4 1.764-.441 3.144-.233 4.51.416-.008.582-.003 1.105-.061.041 1.37.437 2.678 1.22 3.654a288 288 0 0 0 3.302-19.537c-.867 6.417-1.921 12.808-2.953 19.633-.193.942-.347 1.458-.731 2.13-1.035 10.645-1.839 21.135-2.951 31.907-.297 1.998-.287 3.712-.268 5.855-.02-2.143-.03-3.857-.295-5.785-.983-1.415-1.71-2.617-2.53-3.37.556 7.159 1.203 13.871 2.146 20.298.425-3.761.557-7.236.68-11.14.587 1.283 1.55 2.208 1.837 3.146-.288-.931-1.248-1.81-1.828-2.719-.132 3.476-.264 6.953-.672 11.09-.224 1.409-.173 2.156-.12 2.904.074.45.15.9.187 1.428-.057-.437-.156-.799-.28-1.059-.027 1.08.032 1.818.283 2.367q-.012.21-.035.436c-.213 1.31-.147 2.054-.08 2.797.993 1 1.986 1.998 3.326 2.611a239 239 0 0 0-.703-19.45c.49 6.343.728 12.706 1.018 19.526-.013.886.008 1.308.037 2.047.55 3.46 1.092 6.603 1.361 10.018 1.4 6.594 2.866 12.98 4.79 19.226-1.924-6.245-3.388-12.632-5.061-18.955-.717-.968-1.435-1.936-2.549-2.558 2.26 10.851 4.338 21.55 7.746 31.806 3.05 9.18 6.986 18.188 11.598 26.694 4.801 8.855 10.643 17.187 16.506 25.408 2.606 3.654 6.381 6.477 9.892 9.473-.036-.847-.053-1.72-.228-2.461.185.773.218 1.725.3 2.777.43.98 1.053 1.438 1.676 1.896 1.803.525 4.08.547 5.426 1.555-1.347-1.007-3.62-1.008-5.385-1.197 7.532 7.805 14.447 15.97 22.643 22.537 13.184 10.564 25.875 22.043 41.685 28.855 8.185 3.527 16.472 6.817 24.989 10.01-.111-.789-.214-1.717-.463-2.412.266.723.405 1.73.605 2.71.73.55 1.594.602 2.457.653.721-.717 1.513-1.9 2.221-2.53-.68.64-1.385 1.852-1.844 2.64a7004 7004 0 0 0 29.684 5.133c.076-.261.22-.478.527-.705-.306.237-.426.5-.402.994.723.329 1.321.369 1.922.138-.345-.65-.693-1.033-1.26-1.308.435-.568.65-1.03.568-1.797-1.078-.584-1.837-.98-2.642-1.125.805.145 1.565.541 2.72.887 1.605.313 3.03.718 4.545 1.039-1.411-.279-2.822-.55-4.248-.735-.292.701-.507 1.163-.722 1.625.346.382.694.762 1.455 1.506 2.115.423 3.817.484 5.52.545.425.018.862.046 1.394.158-.462-.09-.892-.054-1.254.12.734.3 1.329.32 1.887.074a3.3 3.3 0 0 0-.493-.164c.259.06.534.136.854.252 1.143.386 1.888.417 2.633.449-.001-.413-.001-.828-.069-1.932-1.506-.57-3-.96-4.494-1.336 1.474.344 3.028.594 4.496 1.028 1.084.365 2.105.381 3.473.4-1.368-.018-2.386-.005-3.406.29-.002.723 0 1.136.21 1.929 6.079.407 11.947.434 17.694.091a23 23 0 0 0-4.242-1.175c1.395.244 2.844.628 4.63 1.244 1.563.406 2.615.373 3.766-.022 1.875-.481 3.652-.562 5.422-.728-1.77.166-3.547.248-4.994.828a1082 1082 0 0 0 51.426 1.84 54 54 0 0 0-1.276-.21 67 67 0 0 1 1.717.276c3.255.472 5.944.506 8.633.54 1.199-.242 2.396-.628 3.596-.802-1.192.187-2.357.632-3.42 1.12 1.72.384 3.265.482 4.812.51 18.353.322 36.706.634 54.938.576a27.4 27.4 0 0 0-5.756-1.334c-3.051-.381-6.116-.654-9.584-.98-3.421-.668-6.433-1.328-9.576-1.6-.956.456-1.862.872-2.754 1.156a9.4 9.4 0 0 0 2.277-1.186c-20.133-.717-39.92-1.017-59.707-1.318 1.118.471 2.208 1.135 3.336 1.531-1.15-.396-2.32-1.061-3.754-1.539 20.206.308 39.993.608 60.256.94 3.489.688 6.5 1.348 9.922 2.015 1.466-.266 2.701-.716 3.879-.924-1.157.209-2.314.66-3.47.932 3.058.319 6.124.592 9.175.973 1.889.235 3.756.634 6.205 1.4 4.5.725 8.43 1.247 12.36 1.256 18.4.04 36.8-.06 55.2-.112 1.381-.123 2.763-.245 4.227-.308a40 40 0 0 0-3.787.426c2.756.03 5.105-.05 7.328-.438q.349.015.707.035c11.228.373 21.877.325 32.526.278 1.39-.12 2.778-.24 4.254-.297a40 40 0 0 0-3.817.42c2.76.04 5.111-.035 7.34-.42q.345.014.697.035c6.743.43 12.908.457 19.072.45q51.73-.07 103.457-.145c1.38-.525 2.776-1.01 4.135-1.582 1.653-.695 3.275-1.464 4.528-2.606-86.582-.422-172.78-.443-258.979-.408 86.199-.035 172.396-.014 259.072.04 1.497.03 2.518.02 3.922-.003 5.752-.648 11.165-1.282 16.95-1.877-5.783.596-11.151 1.24-16.184 2.027 2.583.285 4.984.733 7.285.784-2.32-.05-4.798-.496-7.672-.77-1.784-.14-2.803-.13-3.918.246-1.73 1.104-3.351 1.872-5.004 2.567-1.36.571-2.757 1.057-3.699 1.697 8.271-.606 16.123-1.173 23.932-2.108 4.934-.59 9.803-1.733 14.525-2.886-.782-1.045-1.388-1.83-2.355-2.631-2.01.326-3.658.665-5.307 1.006-2.394.848-4.742 2.067-7.176 2.593 2.428-.527 4.723-1.75 6.701-2.64 2.124-.293 3.772-.633 5.782-.96 8.157-1.03 15.96-2.03 23.746-3.146-7.786 1.117-15.589 2.114-23.385 3.16.606.787 1.213 1.573 2.43 2.59 2.64.165 4.668.1 6.697.034 1.087-.277 2.175-.553 3.387-.776-1.115.23-2.123.532-2.987.867 2.113-.25 3.834-.591 5.323-1.2q.21-.022.427-.04c1.352.186 2.093.112 2.834.037.314-.19.63-.378 1.022-.539a1.96 1.96 0 0 0-.727.639c.762-.17 1.247-.435 1.588-.902q.189-.041.402-.073c1.257.125 1.994.06 2.73-.008 1.234-.435 2.465-.87 3.81-1.263-1.248.4-2.4.86-3.428 1.35 2.397-.549 4.437-1.178 6.254-2.055q.279-.058.566-.112c1.683.168 2.739.096 3.828-.295.412-1.304.788-2.291.725-3.318 7.844-1.304 15.22-2.84 22.658-3.947 2.745-.408 5.444-1.053 8.137-1.778-2.696.725-5.394 1.37-8.137 1.778-7.438 1.106-14.814 2.643-22.217 3.988-.377.986-.755 1.972-.762 3.37 5.277-.592 10.185-1.583 15.088-2.6 7.918-1.643 15.869-3.15 23.739-4.998 7.632-1.792 15.18-3.942 22.765-5.934-1.43-.006-2.862-.011-5.093.037l-.319-.023c.483-.889.54-1.76.611-2.891-.073 1.153-.13 2.038.16 2.89 1.778-.024 3.21-.02 5.024-.046 1.801-.324 3.219-.615 4.637-.906a87 87 0 0 1 3.642-1.303 40 40 0 0 0-3.252 1.295c2.383-.644 4.4-1.281 6.284-2.158q.277-.067.562-.13c1.242.158 1.978.087 2.715.016.673-1.013 1.346-2.025 1.652-3.37-7.474 1.033-14.583 2.399-21.396 3.708 6.813-1.31 13.92-2.675 21.465-4.014 2.816-.612 5.198-1.252 7.945-1.945 5.57-1.226 10.775-2.4 16.213-3.267 7.109-1.643 13.95-3.728 20.88-5.46-6.93 1.732-13.772 3.817-20.648 5.766-.351.679-.702 1.355-.681 2.412 7.011-1.085 13.675-2.446 20.28-4.049 4.15-1.006 8.214-2.374 12.315-3.58-1.08-.296-2.16-.591-3.947-.736-.134.006-.226-.008-.357-.004.983-.767 1.662-1.729 2.422-2.207-.74.475-1.31 1.415-1.721 2.059 1.441.297 2.522.592 3.967.86a83 83 0 0 0 3.666-.882c.446-.265.892-.53 1.414-.767-.434.23-.795.495-1.065.757 1.079-.336 1.828-.664 2.395-1.228q.204-.054.426-.102c1.973-.154 3.384-.517 4.845-1.193 1.041-1.356 2.032-2.4 2.61-3.463 2.783-.34 5.154-.696 7.933-1.064 2.168-.932 4.037-2.08 5.942-2.91-1.81.795-3.535 1.885-5.313 2.787q-.314.06-.629.123c-2.779.368-5.15.725-7.521 1.082-.991 1.045-1.98 2.089-2.615 3.515 2.086.023 3.846-.234 5.543-.713 8.013-2.262 16.009-4.584 23.773-7.16a22 22 0 0 0-2.506.06 29 29 0 0 1 2.84-.081c1.009.183 1.445.113 1.883.043.84-.42 1.68-.84 2.611-1.219-.845.388-1.607.833-2.26 1.303 1.716-.538 3.109-1.153 4.3-2.004q.237-.066.485-.127c.988.179 1.427.111 1.903-.275.383-1.32.73-2.32.666-3.344 6.955-1.046 13.588-1.748 20.006-3.328-6.418 1.58-13.053 2.28-19.596 3.351-.347 1-.693 2-.686 3.408 7.26-1.34 14.186-3.01 21.065-4.859 7.977-2.145 15.887-4.537 23.869-6.664 12.688-3.381 25.432-6.554 38.113-9.957 15.962-4.283 31.872-8.753 47.828-13.057 12.7-3.425 25.506-6.476 38.131-10.152 11.287-3.287 22.424-7.112 33.57-10.863 10.885-3.664 21.806-7.26 32.52-11.381 15.582-5.993 31.018-12.369 46.467-18.701 7.73-3.168 15.35-6.6 22.83-10.168a23 23 0 0 0-4.316.08 25 25 0 0 1 4.61-.123c.965-.065 1.444-.343 1.923-.621.718-1.157 1.229-2.814 2.07-3.676-.83.862-1.28 2.515-1.69 3.658 5.596-2.037 10.863-3.93 16.012-6.103 9.231-3.898 18.391-7.964 27.327-12.243-1.202-.136-2.388-.347-3.475-.367 1.126.013 2.396.213 3.799.324 1.359-.116 2.14-.473 2.92-.83-.747-3.877 2.837-3.187 4.73-4.28-1.882 1.093-5.407.415-4.361 4.343 16.164-6.598 31.96-13.255 47.754-19.92 7.76-3.276 15.523-6.547 23.27-9.856 7.254-3.098 14.487-6.245 21.706-9.728-.322-.715-.74-1.518-.972-1.729h.002c.24.212.697 1.022 1.271 1.776.516.336.707.269.899.2 1.186-1.166 2.27-2.558 3.43-3.786-1.11 1.206-2.093 2.569-3.075 3.652 5.291-2.24 10.217-4.367 15.162-6.45 18.716-7.88 37.448-15.726 56.156-23.624 15.997-6.754 31.695-14.34 48.035-20.115 14.638-5.174 29.852-8.905 45.03-12.3 13.837-3.094 27.968-4.883 41.969-7.247.465-.216.93-.43 1.488-.613a4 4 0 0 0-1.152.7c1.084-.208 1.852-.5 2.445-1.019q.246-.042.517-.074c4.344.142 8.047.06 11.748-.023 3.392-.242 6.783-.484 10.502-1.147-.612-.69-1.473-1.294-2.369-1.44.903.146 1.815.744 2.83 1.397 1.159.399 2.184.418 3.596.426 1.102-.525 1.981-1.442 2.764-1.73-.771.288-1.589 1.203-2.377 1.718 1.957.38 3.913.76 6.4 1.567 4.235.772 7.939 1.116 11.643 1.46a62 62 0 0 0 3.73-1.115c.482-.51.71-.903.867-1.263-.14.378-.262.73-.511 1.285.213.91.588 1.56 1.326 2.576 1.08.34 1.797.316 2.514.29.92-.392 1.942-1.183 2.8-1.335-.847.156-1.81.966-2.422 1.457 3.17.705 5.961 1.288 8.664 1.533-1.453-.944-2.816-1.862-4.232-2.476 1.432.617 2.854 1.548 4.541 2.547.817.378 1.238.347 1.658.316.88-.185 1.782-.503 2.662-.69-.839.205-1.65.576-2.306.866 5.484 1.381 10.613 2.587 15.742 3.793-1.773-.913-3.545-1.827-6.07-2.774l-.315-.097c1.347-1.16 2.9-1.698 4.56-1.606-1.528-.051-2.87.517-3.87 1.695 2.15.956 3.922 1.87 6.015 2.862.76.113 1.199.144 1.832-.084 1.044-.38 1.89-.496 2.707-.988 2.121.695 4.211 1.016 6.64 1.355-2.429-.339-4.517-.661-6.607-.982-.848.118-1.697.236-2.57.959 4.21 1.636 8.445 2.668 12.621 3.394-1.07-1.321-2.085-2.338-3.44-3.371l.45.127 3.309 3.318c.814.411 1.252.443 1.69.473 2.739.34 5.479.68 8.552.639-2.332-.952-4.761-1.792-7.235-2.582 2.567.79 5.09 1.624 7.63 2.564.502.387.942.41 1.712.457-.77-.046-1.21-.07-2.047-.076-3.135-.323-5.873-.661-8.43-.672 4.079 1.36 7.973 2.392 11.837 3.135-.363-.98-.695-1.672-1.358-2.387l.334.031c.331.689.663 1.379 1.389 2.434 1.81.703 3.224 1.04 4.639 1.375.594.055 1.188.11 1.875.268-.624-.11-1.212-.092-1.747.062 1.043.4 1.958.474 2.811.246q.167.06.342.127c1.501.716 2.612.997 3.722 1.28 3.097.35 6.195.698 9.292 1.052 2.058.235 4.115.478 6.212.143a170 170 0 0 0-19.28-5.983c6.49 1.594 12.886 3.582 19.538 5.713 1.59.625 2.962.944 4.692 1.277 5.291.747 10.224 1.48 15.347 2.547 3.257-.66 6.324-1.654 9.774-2.66-3.45 1.007-6.517 2-9.618 3.028l-.101.101c.062.637.125 1.274.566 2.315 1.42.35 2.46.295 3.5.242.654-.485 1.308-.968 2.07-1.408a7.4 7.4 0 0 0-1.753 1.505c1.335-.603 2.368-1.3 3.084-2.17l.152-.062c.438.175.867.135.867.135.19-.125.38-.25.768-.416-.374.17-.519.314-.518.515.617-.191.987-.479.932-.677l.008-.004c.361-.075.428-.1.441-.108l.002-.002h.002v-1.894c-.004-.764-.01-.938-.398-1.1 13.41-6.25 18.32-18.275 22.583-30.857 1.394-4.113 3.438-8.006 5.55-12.035a19.2 19.2 0 0 0 1.238-4.985c-.184 1.662-.576 3.3-.893 5.358-.385 3.444-.75 6.481-.765 9.377 2.016-7.401 3.68-14.661 4.937-21.842-2.028.617-2.794 1.685-3.076 2.922.283-1.3 1.063-2.475 3.154-3.27.438-1.128.389-1.832.34-2.535-2.251.14-3.377-.678-3.647-2.477.273 1.79 1.415 2.57 3.75 2.227.144-.793.184-1.335.223-1.877-.325-1.882-.838-3.754-.943-5.648-.59-10.648 1.64-21.51-2.934-31.87-.561 1.114-.981 2.24-.974 3.317-.01-1.08.38-2.235.705-3.576-.007-.957-.07-1.9-.125-2.836.068.91.258 1.8.588 2.816 4.382 10.638 2.15 21.5 2.74 32.149.105 1.894.617 3.766 1.314 5.427.432-9.317 1.05-18.457.326-27.49-.388-4.854-3.078-9.524-4.994-14.101-.01.24-.003.472.002.705-.015-.355-.05-.63-.045-1.032.153-.931.086-1.362.018-1.793-2.795-3.363-6.801-5.552-8.486-9.94 1.688 4.376 5.708 6.51 8.583 9.575-4.892-10.691-8.545-21.924-19.636-27.95-6.393-3.472-12.326-7.933-18.975-10.75-5.881-2.49-12.412-3.598-18.756-4.796-5.417-1.023-10.975-1.306-16.406-1.611.389 1.42.715 2.537 1.072 3.761-.357-1.225-.685-2.342-1.435-3.832-1.167-.403-1.907-.43-2.647-.459-1.722.307-3.44.846-5.166.875 1.727-.03 3.445-.568 4.983-1.24a448 448 0 0 0-29.766-3.127c2.314 1.238 4.52 2.705 6.79 3.541-2.287-.839-4.557-2.318-7.11-3.603-.85-.417-1.283-.437-1.717-.457l-.553 4.892c.303-2.689.428-3.792.363-5.248-4.082-.72-7.976-1.085-11.808-1.113 3.596 2.208 7.13 4.078 11.441 6.36-4.311-2.282-7.845-4.152-11.832-6.426-1.506-.43-2.562-.454-3.617-.479-2.44.795-4.857 1.288-7.297 1.018 2.368.233 4.755-.377 7.106-1.375-4.416-.716-8.64-1.076-12.766-1.082 1.733 1.433 3.505 2.166 5.287 2.41-1.876-.271-3.767-1-5.693-2.479-1.88-.452-3.256-.483-4.631-.515.475 5.046-2.22 3.03-4.178 2.308 1.955.717 4.627 2.695 3.973-2.654-5.758-1.36-11.31-2.375-16.799-3.063 1.558 1.188 3.023 2.32 4.563 3.217-1.559-.901-3.094-2.046-4.924-3.293-1.161-.443-1.897-.482-2.633-.523-1.68.31-3.409.873-5.094 1.207 1.662-.368 3.346-1.04 4.916-1.55-6.601-2.075-13.343-3.076-19.379-5.702-10.206-4.442-20.195-9.513-29.861-15.041-15.526-8.88-29.526-19.943-43.018-31.66-3.37-2.927-7.041-5.509-10.574-8.248.26.795.52 1.59 1.117 2.787.615.598.8.86.897 1.185.478.25.957.5 1.476.838a5.3 5.3 0 0 0-1.46-.533c-.111-.631-.297-.893-.795-1.193-4.22-3.535-8.218-6.966-12.207-10.77-5.958-5.158-12.106-9.74-17.823-14.808 5.717 5.067 11.865 9.65 17.832 14.435 1.727 1.039 3.452 2.078 5.447 2.772-5.756-5.725-11.922-10.955-17.769-16.522-7.167-6.823-14.172-13.827-21.045-20.947-4.084-4.231-7.782-8.837-11.68-12.871-.023 2.646.808 4.715 2.02 6.511-1.213-1.795-2.047-3.86-2.025-6.503.016-.321.03-.389.035-.403v-.002h.002v-.002c-2.297-.292-3.778-.937-4.627-2.275.841 1.253 2.321 1.8 4.603 1.916-1.7-3.112-3.378-5.864-5.336-8.379-.19 1.815-.205 3.27-.013 4.424-.215-1.222-.214-2.765-.034-4.717-.044-1.007-.321-1.483-.6-1.959-1.358-1.708-3.045-3.263-4.14-5.096 1.095 1.828 2.781 3.338 4.137 4.707-.68-2.197-1.217-4.072-2.057-5.802a346 346 0 0 0-8.162-15.819c-.426.003-.596.006-.736.37-1.503-2.613-3.863-4.93-4.801-7.296.938 2.355 3.292 4.615 4.77 6.934.17-.002.34-.004.716-.404-1.836-6.565-3.604-12.84-5.972-18.88-6.505-16.588-13.31-33.057-19.899-49.612-4.206-10.568-8.154-21.24-12.37-31.803-4.771-11.95-9.8-23.798-14.56-35.752-7.663-19.248-15.18-38.553-22.79-57.822-8.416-21.31-16.703-42.673-25.368-63.881-4.258-10.423-9.243-20.549-13.898-30.809-.198.532-.397 1.064-.6 1.711.198-.668.392-1.27.573-2.03-.644-1.113-1.26-1.908-2.127-2.687-.41-.004-.577-.025-.733-.037h-.004l-.006-.008c.165.02.33.039.715-.322-2.739-5.425-5.696-10.474-8.654-15.52q-.06-.215-.117-.433c-.345-.767-.648-1.232-.951-1.697-1.75-1.656-3.502-3.31-5.575-4.655.998 2.785 2.184 5.343 3.674 7.71-1.49-2.367-2.675-4.925-4.02-7.756-.61-1.159-1.197-1.959-1.908-3.038-.519-.713-.978-1.329-1.427-1.974.436.59.87 1.047 1.304 1.328-.026-1.1-.056-1.833-.402-2.598.317.032.67-.288.649-.716-1.473-2.391-2.845-4.417-4.39-6.303-5.396-6.594-10.55-13.426-16.376-19.62-5.114-5.436-10.802-10.393-16.61-15.1-7.776-6.305-15.913-12.165-23.908-17.839l-.13-.27c-.411-.783-.727-.937-1.043-1.091-1.4 1.97-2.59 1.814-3.754.955 1.16.833 2.34.908 3.71-1.254-.61-.465-1.18-.633-2.148-.777-1.468-.012-2.535-.046-3.473.226-.707-.785-1.286-1.264-2.003-1.992-3.117-2.006-6.095-3.762-9.114-5.867-4.28-2.277-8.52-4.226-13.086-6.205 4.565 1.979 8.805 3.918 13.045 5.857.273-.192.545-.387.793-1.14-3.833-2.675-7.512-5.077-11.476-6.838-7.705-3.424-15.57-6.487-23.28-9.364.424.25.847.47 1.268.67 1.263.604 2.5 1.046 3.625 1.684 5.1 2.894 10.13 5.91 15.547 8.924-.531-.06-.96-.042-1.299-.076.302.027.64-.001.94.03-5.058-2.969-10.088-5.984-15.188-8.878-1.035-.587-2.349-1.122-3.625-1.684-.574-.252-.993-.419-1.63-.755-1.197-.459-1.942-.494-2.935-.247-3.744.08-7.242-.125-10.662.038-3.155-.699-6.276-1.236-9.52-1.713 3.312.446 6.379.896 9.444 1.345 3.497.205 6.994.408 10.569-.03-9.336-3.067-18.812-4.231-28.38-3.815m65.85 22.197c3.018 2.105 5.997 3.863 8.974 5.619-.027-.673-.054-1.346-.37-2.51-1.406-1.147-2.524-1.804-3.642-2.46-.691-.356-1.384-.71-2.38-1.47-.74-.459-1.175-.514-1.708-.337-.37.425-.644.616-.875 1.158m9.113 5.867c.717.728 1.296 1.209 1.875 1.688 1.067.034 2.134.067 3.486-.237-1.664-1.689-3.612-3.042-5.57-4.056.015 1.01.042 1.683.209 2.605m265.877 466.082c3.989 3.804 7.987 7.236 11.869 10.37-.377-1.094-.637-1.888-1.034-2.981-1.74-1.76-3.345-3.22-5.298-4.662-2.076-1.02-3.802-2.06-5.537-2.727m270.164 199.807c-4.264 12.582-9.172 24.607-22.2 30.844l.022.787c2.01-.234 4.095-.676 6.51-.99-2.282.273-4.398.768-6.512 1.58-.008.76-.007 1.195.363 1.617 2.45-1.005 4.53-1.996 6.414-3.239.135-.016.22-.039.358-.054 2.309-1.77 4.077-3.745 5.845-5.721-.039-.325.065-.594.641-1.168.671-.85 1.014-1.34 1.357-1.828.233-.505.466-1.01.784-1.533a5 5 0 0 0-.471 1.447c.714-.933 1.164-1.794 1.326-2.62q.131-.15.28-.306c.75-.419.912-.714 1.074-1.008.448-.95.895-1.9 1.683-2.896.34-.047.344-.043.344-.043 2-4.985 4-9.969 6.426-15.324.46-.81.495-1.25.53-1.69.368-3.036.736-6.073.757-9.482-2.093 3.62-4.138 7.514-5.532 11.627m-58.871 29.82c-3.097-.354-6.195-.701-9.128-.691 7.067 2.018 13.969 3.675 20.872 5.334-.058-.93-.115-1.859-.557-3.147-1.757-.678-3.128-1-4.758-1.049-2.316.032-4.371-.212-6.43-.447m-103.733-23.033c-1.412-.008-2.437-.027-3.924-.004-3.852.284-7.243.526-10.183.87 7.157.392 13.862.684 20.466.618-2.059-.736-4.016-1.117-6.359-1.484m-767.744 244.93a146 146 0 0 0-15.492 3.367c.557.057 1.04.09 1.554.136-.67-.044-1.126-.031-1.92-.084-3.101.54-5.483 1.18-7.933 2.125-.742 1.32-1.414 2.331-1.692 3.434 3.551-.603 6.748-1.147 9.852-2.023 3.97-1.122 7.865-2.512 11.793-3.786l.375-.035c1.107-.094 1.846-.155 2.613-.506.38-.966.732-1.644.85-2.628M166.32 819.715c-.269-3.415-.811-6.559-1.353-9.701a21 21 0 0 0-1.69 2.289c-.158 1.91-.078 3.287.31 4.722 1.028 1.025 1.744 1.994 2.733 2.69m-1.361-10.018c-.03-.739-.05-1.162-.385-1.66-1.307-1.076-2.3-2.075-3.383-2.695.538 2.474 1.165 4.57 2.059 6.547.75-.703 1.234-1.289 1.709-2.192m.248-62.888c.384-.673.538-1.19.344-1.801-.745-1.402-1.142-2.71-1.54-4.016-.166-.006-.333-.01-1.095.2-.954 3.758-1.312 7.298-1.33 10.75a46 46 0 0 0 1.855-2.547 88 88 0 0 1-1.933 2.869c-.441.855-.464 1.298-.487 1.74 1.777 4.142 1.511 8.099-1.505 12.377-.376 3.215-.319 5.901-.262 8.586.729 1.202 1.457 2.404 2.748 3.535 1.358-10.493 2.161-20.917 2.96-31.34zm-.252-11.235c-.27-1.768-.56-3.158-1.205-4.383a12.8 12.8 0 0 0-.172 4.883c.636-.028.998-.075 1.377-.5M31.935 496.686c-.723-1.433-1.325-2.568-2.185-3.704-.43.01-.601.018-.762.424.964 3.279 1.732 6.242 2.916 9.026 1.528 3.591 3.388 7.04 5.121 10.166-1.644-5.462-3.306-10.538-5.09-15.912m45.446 24.416c3.412 1.712 6.521 3.273 9.63 4.578.006-.427.009-.598-.13-1.076-3.74-2.967-7.335-5.626-10.938-7.94.374 1.66.753 2.972 1.438 4.438m108.742 221.28c-.058.758-.08 1.194-.102 1.628a97 97 0 0 1-1.074 3.035c.173 2.068.604 3.512 1.37 4.764.7-3.187 1.064-6.183 1.044-9.356-.656-.25-.93-.322-1.238-.07m814.252 165.608c1.124-.017 1.872-.027 2.74-.326.377-1.075.637-1.857.535-2.63-1.792.656-3.226 1.3-4.554 2.171.32.486.587.676 1.279.785m121.918-31.049c3.518-.99 6.627-2.012 9.592-3.298-2.39-.385-4.635-.503-7.211-.598-.767.084-1.203.144-1.68.525-.397 1.328-.753 2.336-.701 3.371m15.953-4.03c3.853-1.31 7.307-2.656 10.76-4.003-.57-.474-1.14-.95-2.188-1.637-.913-.142-1.35-.072-1.857.334-2.42 1.98-4.768 3.624-6.715 5.305m10.988-3.993c.23.01.687 0 .864-.303 2.763-1.996 5.349-3.69 7.55-5.457-3.805 1.233-7.226 2.537-10.5 4.084.718.717 1.288 1.192 2.086 1.676m564.827-175.553c1.717.728 3.355 1.137 5.373 1.559 1.77-.274 3.161-.56 4.379-1.211a55.3 55.3 0 0 0-9.815-1.453c-.007.437-.01.612.063 1.105m59.316 15.774c4.433 1.106 8.534 2.037 12.635 2.968.008-.182.016-.363-.16-1.166-5.072-1.646-9.958-2.671-14.678-3.48.735.646 1.302 1.073 2.203 1.678m-169.408-146.414c-5.676-4.15-11.318-7.943-16.96-11.737l-.054.073c.165.4.38.995.565 1.459a5.7 5.7 0 0 0-.95-1.46c-1.101-.035-1.836-.049-2.47.256 1.364 1.112 2.627 1.906 3.877 2.383.035.103.054.13.091.24.388.72.673.884.96 1.047.87.545 1.752 1.203 2.624 1.766-.85-.51-1.7-1.02-2.527-1.438 2.354 1.783 4.611 3.239 6.84 4.344-.08-.062-.16-.107-.24-.168.082.062.162.101.244.164.031.346.023.35.384.328 2.792 1.018 5.221 2.06 7.616 2.743m-73.584-59.717c-.338-.056-.68.265-.647.664 3.1 3.052 6.168 5.704 9.328 8.26l.28-.293c-2.875-2.859-5.75-5.717-8.961-8.631m-182.4-391.348c-1.69-2.78-3.384-5.192-5.063-7.197.042 1.773.067 3.136.172 4.748.365.422.652.598 1.263.785 1.425.685 2.522 1.359 3.627 1.664m-30.401-32.623c-1.091-.027-1.82-.04-2.492.23.784.906 1.512 1.528 2.435 1.784.27-.91.346-1.456.057-2.014m-180.66 1.219a80 80 0 0 0-3.633 8.617c3.461-5.369 6.591-10.616 9.4-15.86-1.115.664-1.91 1.322-2.838 2.296-1.075 1.854-2.138 3.333-2.93 4.947m-187.24 319.781c-4.076 1.93-7.779 3.878-11.114 5.832l-.53.129c-1.153.013-1.593.023-2.032.031-1.972 1.362-3.942 2.722-5.6 4.479a41.2 41.2 0 0 0 8.375-2.656c3.407-1.49 6.727-3.176 10.084-4.782q.194-.053.387-.11c.246-.042.714-.217.709-.554.033-1.008.07-1.68-.28-2.369m-24.993 11.05c-1.087.393-1.889.646-2.7 1.18-.02.66-.025 1.037.302 1.5 1.452-.555 2.57-1.198 3.598-2.068-.317-.477-.591-.652-1.2-.611M688.02 332.749c-.044-.221-.085-.671-.375-.83-1.743-1.077-3.199-1.996-4.619-2.574 1.686 2.079 3.337 3.818 5.024 5.236.028-.75.022-1.18-.03-1.832m-53.316-59.205c-.331-.844-1.244-1.346-2.68-1.57l-.047.047c.015.743.029 1.487.135 2.88.702 1.11 1.311 1.57 2.07 1.72.652-1.32.814-2.332.522-3.077m-3.096-1.522c-1.108-.008-1.849-.019-2.511.276 1.017 1.102 1.959 1.9 2.912 2.326-.002-1.116-.017-1.859-.4-2.602m-32.744-36.34c-2.703-2.103-5.252-3.906-7.8-5.706-.014.181-.027.364-.014 1.054.026.509.22.955.22.955.272.02.483.142 1.004.713 1.834 1.945 3.3 3.546 4.801 4.838.673-.722 1.308-1.136 1.79-1.853m-56.238-57.769c-1.067-.396-1.852-.65-2.606-.576 1.024 1.412 2.018 2.495 3.038 3.219-.033-1.073-.091-1.787-.432-2.643M418.689 77.217c-.894.919-1.789 1.839-2.523 3.094 2.07.696 3.978 1.056 5.842 1.076-1.137-1.617-2.228-2.894-3.319-4.17m-45.87-20.735c-1.237-.478-2.525-.977-4.176-1.484-1.45-.316-2.536-.623-4.038-.906a540 540 0 0 0-7.584 1.105c-1.9.469-3.802.938-5.828 1.352a63 63 0 0 0 5.414-1.432c-3.418.562-6.438 1.202-9.212 2.104l-.479.07c-1.019-.19-1.455-.124-1.89-.059-.339 1.015-.677 2.028-.649 3.385 9.74-1.153 19.113-2.647 28.441-4.135m85.51 13.754c.334.117.522-.078.47-.498-2.635-1.522-5.219-2.624-7.85-3.49-.047.237-.078.72-.078.72a782 782 0 0 0 7.457 3.268m155.696 153.13c2.02 1.778 3.997 3.21 5.973 4.64-.01-.432-.021-.865-.127-1.92-1.03-1.44-1.965-2.257-2.9-3.074-.735-.009-1.47-.018-2.584-.024-.379.003-.404.029-.362.377m39.047 39.948c1.43 1.73 2.701 3.176 4.266 4.778 2.076 1.408 3.859 2.662 5.611 3.568-3.344-3.77-6.656-7.192-9.996-10.285-.031.772-.035 1.215.12 1.94M672.4 285.11l2.514.92c.016-.18.034-.36.024-1.101-.363-.948-.702-1.334-1.24-1.498-.569.707-.932 1.194-1.298 1.68m2.553 1.157c.038.236.059.715.395.72.784.004 1.232.003 1.638-.332-.683-.79-1.324-1.246-1.994-1.433-.045.448-.06.628-.039 1.045m18.836 21.65c.27-.29.912-.982 1.406-1.959-4.168-4.498-8.187-8.712-12.207-12.926.013 1.055.026 2.11.252 3.826 3.615 4.082 7.015 7.504 10.55 11.059m104.309 86.908c.63-.919 1.262-1.837 1.757-3.094-1.73-.697-3.323-1.057-4.863-1.066 1.072 1.621 2.089 2.89 3.106 4.16m221.088-83.746c3.884-7.915 7.205-16.107 10.753-24.187-.668.049-1.337.098-2.425.382-.42.235-.52.713-.52.713-.4 1.028-.799 2.057-1.287 3.112.412-1.022.73-2.02.957-2.983-1.016 1.869-1.757 3.631-2.203 5.344q-.185.308-.387.621c-.753.77-.883 1.351-1.014 1.932-.077.328-.155.657-.308 1.006.08-.319.085-.622.016-.899-.406.632-.574 1.175-.5 1.703a5 5 0 0 1-.272.323c-.735 1.048-.873 1.936-1.01 2.824-.558 1.36-1.115 2.72-1.76 4.107a41 41 0 0 0 1.432-3.963c-1.293 2.472-2.317 4.825-3.056 7.127q-.245.429-.508.864c-1.122 1.095-1.608 1.996-2.094 2.896-.25.562-.528 1.126-.846 1.695.284-.555.468-1.087.543-1.58-.765 1.038-1.229 1.96-1.345 2.84l-.002.004c-.35.041-.35.045-.35.045-.317 1.415-.632 2.831-.79 4.81 2.468-2.518 5.309-5.34 6.976-8.736m148.12-287.117c.74-.022 1.161-.03 1.598-.377.056-1.018.097-1.696-.2-2.453-1.459.584-2.58 1.246-3.542 2.154.714.395 1.27.541 2.145.676m32.55-10.022c-.078-.038-.994-.49-2.192-.949-1.105-.313-1.875-.62-3.037-.896-2.125.39-3.86.752-5.592 1.113-2.69 1.142-5.381 2.28-8.07 3.426 2.689-1.146 5.38-2.284 7.67-3.512a325 325 0 0 0-17.846 7.656l-.691.258a4 4 0 0 0-1.057.172c-.04.68-.081 1.36.24 2.367 10.695-3.08 21.028-6.487 30.574-9.635m25.181-3.966q.26.031.516.064c.99.56 2.394 1.102 3.8 1.645-1.423-.55-2.845-1.099-4.666-1.657zm-4.707.738c-2.492.454-4.827.955-7.04 1.58-.737-.273-1.181-.249-1.958-.205-.798.252-1.462.478-2.148.676.628-.21 1.155-.49 1.597-.897q.182-.031.375-.056c.954.234 1.396.209 1.84.183 2.37-.426 4.738-.852 7.334-1.281m-55.467 12.611c-.927.083-1.399.374-1.869.666-.281.256-.561.511-.906.742.267-.223.47-.476.594-.722-.733.338-1.181.659-1.473 1.18a5 5 0 0 1-.357.123c-1.27.446-2.055 1.078-2.842 1.709-.263.782-.527 1.565-.547 2.65 3.337-1.697 6.432-3.697 9.527-5.695-.557-.148-1.113-.295-2.127-.653m126.065 6.336c.683.66 1.373 1.014 1.988 1.08-.711-.654-1.345-1.019-1.988-1.08m-53.64 2.768c-.62.032-1.308.542-2.13 1.88 2.074.695 3.99 1.05 5.85 1.087-1.342-.802-2.36-3.04-3.72-2.967m8.286 1.685.022.002a7 7 0 0 0-.574.024c.18-.013.359-.027.552-.026m.426.024c.173.009.342.012.523.031-.18-.018-.35-.022-.523-.031m-1.254.015h.012l-.04.006c.01 0 .018-.005.028-.006m54.57 4.264c.49.509.968 1.008 1.448 1.402-.48-.4-.959-.893-1.448-1.402m-34.925 2.004q-.007 0-.016.004zm-86.664.97c-.274.092-.538.198-.803.301.266-.103.529-.21.803-.3m130.497 3.479c.094.127.197.242.298.358-.101-.117-.203-.23-.297-.358m-902.192 9.127.228.035c-.56.433-.987.864-1.45 1.295.351-.356.61-.71.754-1.054a8 8 0 0 1 .467-.276m877.331.08q-.142.014-.285.168c.345.326.64.398.85.26-.198-.3-.383-.447-.565-.428m-938.748 3.078c-5.145 1.228-9.88 2.536-14.617 3.844.49.582.978 1.164 2.078 1.707 4.352-.624 8.095-1.21 11.885-2.111.387-1.332.725-2.345.654-3.44m83.422.444c4.17 1.02 8.415 2.384 12.809 4.088-4.146-1.02-8.44-2.385-12.809-4.088m863.934.445c.066.036.134.085.2.121l-.194-.11q-.004-.005-.006-.011m-170.287 2.037c-.784 1.04-1.258 1.97-1.407 2.902.757-.025 1.187-.054 1.643-.447.04-1.098.057-1.832-.236-2.455m176.73 4.979q-.147 0-.293.15c.043.245.408.582.408.582s.476-.137.395-.332c-.18-.262-.347-.4-.51-.4m-839.47 5.004-.28.293c.811.587 1.621 1.177 2.824 1.767.392.003.568-.183.43-.47-1.053-.755-1.966-1.221-2.975-1.59m888.09 8.398c4.02 4.156 7.37 8.962 11.023 13.475.192.077.36.187.529.375q-.24-.239-.447-.14c-3.735-4.749-7.084-9.554-11.106-13.71m-29.026.533-.06.059a24 24 0 0 1-.36 2.066c-.127.404-.018.534-.004.549l.002.002c1.107.545 2.214 1.09 3.367 1.982.038.283.017.356.008.373l-.002.002v.002a10 10 0 0 1 1.072.803q-.53-.378-1.021-.473c.64.715 1.235 1.149 1.808 1.303q.104.13.21.274c.087.568.29 1.017.29 1.017.475.254.95.509 1.44.854a4.5 4.5 0 0 0-1.457-.535c.818.734 1.652 1.196 2.47 1.378q.136.134.274.282c.376.739.657.907.937 1.076 1.14.573 2.28 1.147 3.83 1.572-2.425-5.955-6.72-10.218-12.804-12.586m-208.317.184a25 25 0 0 0-2.252 4.04c-3.364 7.605-6.707 15.221-10.056 22.833l-.674 1.086c-.397.722-.533 1.299-.67 1.875.286.451.572.902 1.209 1.613 4.129-7.731 7.907-15.72 11.383-23.547-2.095 3.287-3.885 6.41-5.68 9.531 1.795-3.12 3.584-6.246 5.694-9.892.986-2.24 1.654-3.958 2.085-5.842-.394-.72-.55-1.271-1.039-1.697m208.063 2.754c1.184.879 2.201 1.495 3.186 1.742-1.14-.915-2.246-1.46-3.186-1.742m9.271 8.41c1.458 1.575 2.874 2.817 4.479 3.764-.04-.9-.27-1.508-.8-2.247-1.442-.704-2.58-1.278-3.679-1.517m31.356 2.105q.34.346.527.319v.002c.066.156.096.196.108.207l.002.002.002.002h.002a39 39 0 0 1 1.771 2.04 12 12 0 0 0-1.752-1.708c-.014-.25-.028-.302-.031-.315v-.004l.002-.002c-.196-.148-.396-.295-.631-.543m2.228 2.856c.44.484.878.908 1.315 1.252q.116.171.234.351c1.051 1.445 1.961 2.249 2.871 3.053.288.009.691.028 1.076.047-.444-.007-.757.046-1.062.28-.924-1.133-1.835-1.935-2.883-3.014-.56-.693-1.04-1.338-1.55-1.97m6.866 4.287c-.184.151-.535.473-.535.473.028.732.056 1.465.208 2.843.71 1.446 1.296 2.245 2.229 3.092 2.097 1.702 3.847 3.358 5.57 4.65-2.447-3.978-4.868-7.594-7.472-11.058m-30.131 1.732q-.144 0-.285.016c2.008 2.776 3.983 5.203 5.957 7.629-.026-1.365-.052-2.73-.37-4.631-1.084-1.124-1.877-1.71-2.962-2.426-.947-.342-1.668-.59-2.34-.588m7.036 9.03c2.08 3.646 4.552 6.889 6.811 10.273 2.043 3.06 3.854 6.274 5.766 9.42l.28-.266c-2.675-5.403-5.442-10.72-8.467-16.498-.52-.668-.698-.93-.792-1.25-1.098-.673-2.196-1.348-3.597-1.68m32.393 5.441a234 234 0 0 0 1.536 5.043 218 218 0 0 0 4.693 6.783 480 480 0 0 0-4.68-6.418c-.713-.938-1.27-1.765-1.941-2.638.562.689 1.129 1.393 1.676 2.025a246 246 0 0 0-1.284-4.795m-861.037 2.75c.554.922 1.127 1.79 1.772 2.598-.639-.8-1.21-1.654-1.772-2.598m600.803 1.586q.008.015.027.033h-.002a.2.2 0 0 1-.025-.033m.86 2.84c-.668 1.035-1.032 2.036-1.077 2.937.672-1.056 1.027-2.014 1.076-2.937m266.59 6.027a1 1 0 0 1-.265.514q.173-.224.043-.422c.168-.075.212-.087.22-.092m-.573.342q-.339.303-.176.553.132-.078.235-.153a6 6 0 0 1-.483.342c.698 1.825 1.861 3.355 3.026 4.56l-.004.02c-.01.233 0 .298.006.317v.002l.002.002v.001h.001v.002h.002c2.656 5.314 5.366 10.6 7.93 15.957a349 349 0 0 0-7.941-15.562c.008-.321-.005-.372-.004-.385v-.004h.002l.002-.002c-1.154-1.545-2.32-3.079-3.24-4.802.228-.381.384-.627.642-.848m-1120.309 4.441h.002l-.025.028zm274.842 5.24c-.445 0-.891-.002-1.636.372 3.771 9 10.665 14.852 18.925 19.625.463-.009.647-.013.762-.358-1.206-1.708-2.27-3.142-3.49-4.43-4.827-5.094-9.703-10.143-14.56-15.208m549.951.555-.193.649c-.913 1.411-1.838 2.816-2.727 4.242.957-1.534 1.954-3.043 2.92-4.89m275.106.807c1.357 2.788 2.696 5.2 4.283 7.459.384-.703.522-1.252.36-1.973-1.754-2.068-3.206-3.965-4.643-5.486m7.767 7.975c.206.223.41.448.567.687a5 5 0 0 0-.567-.687m23.803 4.464c.021.09.047.174.067.266-.02-.091-.046-.176-.067-.266m-1.314 2.06c.352.458 1.179.705 1.832.829l.058.37a54 54 0 0 0 1.125 3.31c-.406-1.003-.813-1.898-1.242-3.012-.599-.707-1.421-1.028-1.773-1.496m-869.237 5.49c3.447 3.916 6.86 7.475 10.461 10.667.058-5.377-4.446-9.871-10.46-10.668m855.881 10.8c-.001.24-.004.461 0 .598 1.7 4.957 3.395 9.698 5.074 14.857-.013.418.008.891.026 1.127.775.864 1.812 1.482 2.47 2.22-.634-.7-1.62-1.26-2.373-1.913l-.097-.307c-.018-.236-.04-.709-.04-.709-1.057-2.764-2.113-5.528-3.124-8.377a176 176 0 0 0 3.138 7.96c-1.622-4.982-3.257-9.573-5.127-13.93l-.207-.682c.202-.367.25-.716.26-.844m-309.226 5.982c-5.33 13.08-10.34 26.019-15.342 38.955q-.31.535-.629 1.075c-.408 1.064-.533 1.946-.658 2.83.287.454.572.909 1.148 1.756 3.425-7.373 6.563-15.138 9.354-22.819-1.78 2.997-3.176 5.93-4.659 8.817 1.483-2.888 2.88-5.818 4.67-9.205a520 520 0 0 0 7.37-19.973c-.324-.712-.62-1.146-1.254-1.436m345.74 31.309c-.008.038.054.087.086.11l-.137-.085a.2.2 0 0 1 .05-.025m-841.752 4.635a1 1 0 0 0-.666.236c.69 1.103 1.349 1.881 2.11 2.559l.302-.301c-.148-.629-.297-1.258-.795-2.23-.39-.174-.695-.26-.951-.264m4.258 2.617c.007.276.02.332.023.346v.002h-.002l-.013.002c-.353-.041-.82-.13-1.221-.192.445.037.835.007 1.213-.158m35.076 4.64c.006 1.121.02 1.87.398 2.626 1.101.018 1.836.025 2.477-.264-1.019-1.11-1.944-1.923-2.875-2.361m-26.998 7c.682.786 1.326 1.235 1.945 1.358-.677-.783-1.33-1.237-1.945-1.357m4.49 4.766a.56.56 0 0 0-.277.115c.228.327.512.404.744.301-.14-.28-.284-.426-.467-.416m810.608.031c2.01 4.271 3.9 8.6 5.982 12.588 4.724 11.384 9.784 22.37 14.414 33.537-4.63-11.166-9.69-22.154-14.562-33.22-1.935-4.307-3.824-8.634-5.834-12.905m-803.08 3.836c-.636.415-1.27.828-1.858 1.877 1.975 2.472 3.901 4.308 5.828 6.145.794.265 1.586.531 2.682.56-2.017-3.017-4.334-5.8-6.653-8.582m4.292 8.352q-.143 0-.285.014c1.344 1.45 2.65 2.558 3.96 3.347-.343-1.09-.688-1.86-1.325-2.763-.95-.348-1.676-.594-2.35-.598M185.7 250.562l-.111.09zm-.203.167q-.067.06-.129.126.062-.065.13-.126m429.52 3.255-.077.077c.022.742.069 1.458.17 2.78.334.793.612.98.891 1.165.645.455 1.292.91 1.969 1.68.026.255.016.316.011.33l-.001.002v.002c.8.25 1.6.5 2.703.511-1.688-2.342-3.677-4.444-5.666-6.547m-1.83.063c-.393.025-.73.091-1.051.234 1.008 1.094 1.943 1.885 2.898 2.315-.026-1.077-.073-1.792-.474-2.535-.535-.023-.981-.04-1.373-.014m2.841 4.297c.67.784 1.312 1.23 1.932 1.351-.668-.78-1.314-1.234-1.932-1.351m424.174 5.34c-.032.144-.072.284-.11.425q.06-.211.11-.425m-400.18 17.293-.078.08c.027.674.08 1.323.412 2.46 1.09 1.48 1.902 2.468 2.713 3.458.433 0 .865 0 1.612-.37-1.343-2.121-3.001-3.875-4.659-5.628m14.227 18.302c1.248 1.433 2.512 2.546 3.795 3.3-.031-1.078-.081-1.794-.42-2.653-1.311-.417-2.336-.692-3.375-.647m3.77.705-.08.063c.023.738.074 1.454.224 2.846 2.674 3.154 5.25 5.635 7.824 8.115.331.23.663.46 1.006.775q-.496-.35-.967-.441c.609.698 1.185 1.13 1.743 1.3q.134.177.271.381c.822 1.415 1.548 2.171 2.275 2.928.659.033 1.317.066 2.29-.24-4.654-5.468-9.62-10.598-14.586-15.727m-538.3 11.746a5 5 0 0 1-.913 1.022 5 5 0 0 0 .914-1.022m23.641 2.534c-.153.182-.292.391-.45.564.157-.172.297-.383.45-.564m869.323.861c-1.113 1.705-1.905 3.289-2.364 4.895.78 0 1.225-.02 1.702-.405.347-1.78.664-3.195.662-4.49m-870.44.363c-.127.12-.247.25-.379.364.131-.113.252-.244.38-.364m866.569 5.66c-1.487 2.03-2.65 3.941-3.813 5.852.31.78.616 1.561 1.266 2.514 2.165-2.427 5.374-4.622 2.547-8.366m-4.036 10.207a5.3 5.3 0 0 0-.517 1.49l-.29.108c.243-.529.506-1.06.807-1.598m-7.435 8.852c-.153.603-.195 1.144-.125 1.604-6.786 8.723-14.717 15.873-23.371 22.084 8.647-6.206 16.538-13.327 23.093-21.885.104-.573.208-1.147.403-1.803M86.7 355.104c-1.346 1.725-2.372 3.35-3.05 4.978 2.946-.744 4.617-2.043 3.05-4.978m-4.008 6.015c-1.346 1.719-2.375 3.338-3.035 4.96 1.363-1.686 2.36-3.373 3.035-4.96m-5.998 8.992c-.779 1.026-1.247 1.95-1.361 2.846.793-1.002 1.234-1.973 1.361-2.846m-2.017 2.979c-.773 1.037-1.237 1.967-1.35 2.857.786-1.014 1.224-1.99 1.35-2.857m18.543 16.299c-1.624 1.488-2.893 3.104-3.815 4.668 1.621-1.55 2.896-3.045 3.815-4.668m-12.746 15.199c-.02.018-.045.034-.065.053.02-.018.045-.035.065-.053m723.855 12.336c-1.019.03-2.08.518-3.152 1.326 2.394.728 4.631 1.107 6.806 1.133-1.105-1.778-2.344-2.498-3.654-2.46m-762.666 7.185a217 217 0 0 1-8.094 16.893c2.358-5.556 5.059-11.17 8.094-16.893m1464.758 50.465c.076.159.142.33.213.494-.072-.163-.138-.337-.213-.494m1.578 4.08c1.486 1.311 2.946 2.248 4.404 3.188-1.413-.91-2.826-1.82-4.117-2.461q-.091-.222-.185-.457zm10.672 12.203a11.9 11.9 0 0 1 3.549 1.28 10.6 10.6 0 0 0-3.248-1.12c.126.294.296.79.43 1.116a9.5 9.5 0 0 0-.731-1.276M59.49 499.91c3.262 2.907 6.353 6.146 9.496 9.729-3.188-2.903-6.426-6.15-9.496-9.729m1517.526 15.047c.552.324 1.089.564 1.587.695a14 14 0 0 1 .417.36c6.13 5.796 11.917 11.065 17.847 16.168-5.93-5.103-11.716-10.371-17.72-15.87-.766-.517-1.456-.923-2.131-1.353m-19.606 10.809a39 39 0 0 0 3.533 2.937h.002c.4.599.799 1.113 1.223 1.604-.385-.41-.845-.855-1.207-1.252-1.174-1.058-2.346-2.116-3.55-3.29M59.14 535.289c1.01.788 1.924 1.265 2.797 1.399-.99-.8-1.941-1.254-2.796-1.399m1611.682 37.115a9 9 0 0 1-1.293.08 8 8 0 0 0 1.293-.08M1795.604 614q.199.042.398.088c2.133 1.72 4.267 3.44 6.41 5.289a120 120 0 0 0-6.809-5.377M200.629 644.71c-.253.398-.503.796-1.195 1.745-.44.552-.382 1.032-.254 1.531.385 1.003.643 1.508.9 2.012-.014 1.753-.028 3.506-.053 6.055.295 3.174.599 5.552 1.278 7.728.119-6.497 2.954-12.963-.676-19.07m1621.33.677c.034.057.058.113.09.17-.032-.057-.057-.113-.09-.17m.697 1.615q.032.143.053.285-.02-.143-.053-.285M175.674 668.207c.109 2.019.554 3.832.998 5.647.078-.64.154-1.28.262-2.737-.29-1.582-.607-2.347-1.26-2.91m-.453 19.78c.036.274.178.4.295.546-.113-.142-.25-.264-.385-.275q.037-.132.09-.272m-.194.745c.016.132.05.226.123.202-.086.044-.13.063-.142.066h-.002l-.008.014c-.436.862-1.023 1.878-1.496 2.777.48-.957.908-1.92 1.271-2.914.183.1.217.129.223.137h.002c0-.002.003-.11.03-.282m1552.428 5.495s-.453.183-.355.373c.329.391.595.464.814.171-.082-.231-.459-.544-.459-.544m109.89 7.773c-1.664 4.871-3.67 9.793-6.01 14.86a155 155 0 0 1 6.01-14.86m-73.32 3.62c1.705.671 3.34 1.027 4.817 1.062-1.734-.675-3.31-1.025-4.817-1.063m-216.295.566c-.782.235-1.257.552-1.765 1.134-.025.445-.017.624.295.73.795-.641 1.286-1.213 1.47-1.864m258.973 1.939c-.778 1.016-1.244 1.942-1.363 2.836.79-.998 1.232-1.96 1.363-2.836m-114.123 2.959c-1.427.27-2.497.562-3.424 1.187 1.74.672 3.334 1.011 4.916 1.067-.388-.933-.762-1.583-1.492-2.254m138.082 5.965c-.79.995-1.238 1.946-1.375 2.803.78-1.012 1.248-1.93 1.375-2.803m-6.154 9.021c-.457.295-.562.563-.266.846.33-.337.403-.632.266-.846m-38.647 7.393c.084 1.275.142 2.206.631 3.226 2.792.155 5.152.22 7.512.284 2.022-.301 4.045-.603 6.47-.877-2.425.274-4.449.575-6.298 1.222 2.409.684 4.646 1.02 6.887 1.036-.058-.96-.12-1.595-.586-2.258.404.026.47-.043.314-.41-5.09-1.101-10.023-1.835-14.93-2.223m-353.19 20.691c-2.467.916-4.569 1.9-6.702 3.137-.018.423-.004.592.367.693 2.472-1.3 4.587-2.53 6.336-3.83m-1272 .069c-.709 4.082-1.069 7.945-1.075 11.718 2.936-3.837 3.204-7.794 1.076-11.718m24.686 3.783c-3.493 2.71-2.751 5.812-1.06 8.793.71-3.08 1.066-5.969 1.06-8.793m1165.286 31.935c-1.195.765-2.392 1.524-3.28 2.649.88.152 1.596.15 2.225-.01-.633.173-1.361.232-2.305.354-3.133.91-5.877 1.84-8.953 2.912 3.076-1.073 5.82-2.002 8.645-3.276 1.276-1.106 2.473-1.864 3.668-2.629m-16.961 9.635c-11.947 4.908-23.978 9.611-36.37 14.365-4.85 1.568-9.352 3.15-14.154 4.77 4.801-1.621 9.293-3.218 13.94-5.088 4.596-2.401 9.056-4.43 13.425-6.637-4.369 2.208-8.83 4.237-13.039 6.653 12.22-4.45 24.251-9.155 36.198-14.063m-104.81 41.918c-.43.248-.86.477-1.288.71.43-.234.862-.464 1.287-.71m-1024.82 24.713c.365 1.167.762 2.27 1.259 3.326-.493-1.047-.89-2.142-1.258-3.326m1.936 3.434c-.181.01-.369.024-.482.002.119.022.29.015.482-.002m928.164 2.459.04.005c-.196.146-.203.329-.225.696a5 5 0 0 1-.135.148 6 6 0 0 1-.272-.299c.122.128.263.207.407.15.02-.33.027-.513-.045-.624a4 4 0 0 1 .23-.076m-11.552 1.382a77 77 0 0 0-13.346 3.832c4.377.058 8.504-.172 12.63-.402.357-1.006.713-2.013.716-3.43m-23.93 5.71c-2.357.63-4.341 1.354-5.943 2.328.669.36.953.469 1.595.537 1.812-.952 3.264-1.862 4.348-2.866m47.441 10.404c-8.75 2.302-17.418 4.924-26.119 7.414 0 0 .008-.009-.035.336-.064-.482-.176-.61-.289-.735q.155.172.305.348l-.035-.074c8.756-2.365 17.423-4.987 26.173-7.29m-26.138 7.363q.014.027.021.035l.002.002.002.002h.006v-.002zm-62.487-4.666a6 6 0 0 0-.816.473 7 7 0 0 1 .816-.473M995.7 907.164c-1.102.23-1.873.547-2.474 1.105a10 10 0 0 1-.366.063c-.941-.148-1.377-.074-1.812 0-.897.717-1.794 1.433-2.531 2.553 4.334.673 8.71 1.64 11.488-2.89-.318-.119-.585-.309-1.275-.76-1.213-.121-1.95-.05-2.688.02-.504.245-1.007.49-1.601.694a4.1 4.1 0 0 0 1.26-.785m-31.052 8.008c-4.144 1.22-7.892 2.53-11.426 4.111 2.07.044 3.926-.184 6.008-.658 2.089-1.286 3.95-2.326 5.418-3.453m-14.96 4.002c-2.135.562-3.903 1.225-5.447 2.164 2.668.886 4.97 1.152 5.448-2.164m-70.017 16.967c-2.478.568-4.572 1.23-6.42 2.17 2.853.667 5.698 1.714 6.42-2.17m-29.305 10.06c-.056.027-.116.064-.174.096.058-.032.118-.069.174-.096m-102.742 14.953c-4.491.567-8.55 1.235-12.33 2.203 4.56.122 9.364 2.664 12.33-2.203m-344.867 2.358c-4.692.693-9.462.681-14.203.234 4.755.449 9.547.545 14.203-.234m446.99 2.652c-6.231.653-12.058 2.51-17.87 4.086 5.854-1.59 11.694-3.463 17.87-4.086m-495.937 13.99h.005c-1.267.203-2.54.675-3.81.951 2.889.314 5.784.58 8.664.96-2.88-.38-5.777-.645-9.064-.98 1.568-.26 2.918-.73 4.205-.93m29.892.926c6.628.368 12.81.692 19.385 1.023-6.574-.33-12.75-.654-18.926-.978-1.61 2.07-3.496 2.303-5.445 2.111 1.877.178 3.63-.08 4.986-2.156m76.871 3.752-.064.018z" style="fill:#fff;fill-opacity:1"/></svg>