<svg viewBox="0 0 2402 1000" xml:space="preserve" xmlns="http://www.w3.org/2000/svg"><path d="M614.727 3.77c-5.104-.053-10.198.078-15.245.576-8.923.88-17.653 3.737-26.216 6 1.435.08 2.751.06 4.023-.05-1.297.112-2.691.14-4.39.081a11 11 0 0 0-2.817-.07c-2.398 3.39-5.729 4.07-10.209 3.05-1.693-.166-2.737-.096-3.783-.025-.923.752-1.768 1.833-2.727 2.436.942-.608 1.717-1.709 2.338-2.55-3.048.551-5.712 1.203-8.367 1.884-7.772 1.992-15.542 3.996-23.076 6.287.8.35 1.44.62 2 .576-.563.045-1.237-.224-2.367-.547-1.337-.201-2.068-.14-2.801-.08-2.444 3.27-5.727 4.1-10.217 3.039-1.69-.183-2.738-.114-3.785-.045-1.084.852-2.065 2.095-3.23 2.643 1.16-.55 2.096-1.805 2.837-2.754a112 112 0 0 0-8.888 1.924c-7.556 1.95-15.098 3.945-22.409 6.2-.192.016-.333.053-.527.067-1.68-.18-2.728-.103-3.773-.027-1.644.62-3.287 1.238-5.047 1.812a46 46 0 0 0 4.672-1.93c-3.045.83-5.738 1.767-8.21 2.96q-.324.082-.656.162c-1.672-.172-2.717-.1-3.763-.028-1.596 1.74-3.379 2.936-5.56 3.327 2.09-.383 3.802-1.615 5.177-3.446-3.486.871-6.588 1.86-9.445 3.135 1.034.304 2.003.444 2.91.437-1.008.025-2.09-.098-3.278-.412-1.345-.198-2.08-.137-2.812-.078-.436.519-.806 1.342-1.293 1.627.482-.287.806-1.124.894-1.744-6.753 1.546-13.115 3.207-19.244 5.154l-.547.077c-1.339-.218-2.072-.16-2.806-.104-2.092.66-4.186 1.323-6.406 1.93a68 68 0 0 0 6.005-2.05c-3.725.859-7.07 1.83-10.18 3.073l-.609.129c-1.345-.202-2.08-.145-2.812-.088-1.215.91-2.324 2.26-3.62 2.83 1.29-.572 2.356-1.934 3.22-2.947a1161 1161 0 0 0-30.417 6.28c-.827.18-1.497 1.078-1.996 1.94.595.216 1.124.401 1.61.497-.53-.09-1.14-.264-1.934-.469-.999-.216-1.43-.16-1.86-.105-1.523 1.672-3.241 2.737-5.222 3.218 1.888-.49 3.508-1.598 4.824-3.342-3.822.882-7.244 1.887-10.418 3.184 1.644.431 3.168.554 4.56.367-1.486.197-3.117.087-4.927-.342-1.35-.205-2.082-.143-2.814-.082-1.13.705-2.215 1.609-3.34 2.334 1.078-.735 2.056-1.682 2.935-2.455-1.705-.011-3.041-.055-4.302.233-8.008 1.825-16.03 3.607-23.987 5.636-5.826 1.487-11.562 3.326-17.107 5.301l-.4.04c-1.335-.214-2.069-.16-2.803-.106-1.963.629-3.941 1.194-5.895 1.861 1.839-.666 3.702-1.334 5.487-1.982-11.06 2.19-21.724 4.45-32.362 6.828-14.632 3.27-29.218 6.75-43.873 9.918-14.162 3.06-28.56 5.188-42.531 8.93-12.961 3.47-25.388 8.887-38.244 12.81-18.483 5.64-35.502 14.381-51.826 24.361-13.34 8.155-24.836 18.772-35.092 30.666-8.26 9.58-14.23 20.52-19.51 31.899-2.71 5.84-6.039 11.492-7.943 17.586-3.432 10.98-6.776 22.095-8.707 33.402-1.762 10.318-1.602 20.965-1.932 31.352.54-.95.96-1.817 1.164-2.686-.206.883-.636 1.815-1.222 3.094-.44 1.896-.465 3.269-.489 4.642.16 8.81.634 17.63.354 26.426.28-8.796-.193-17.615-.737-26.224-.516 5.143-.544 10.091-.806 15.027-.458 8.617-1.059 17.227-1.244 25.73.096-.394.194-.779.293-1.171-.137.557-.219 1.038-.354 1.607-.448 2.898-.48 5.25-.514 7.604.08 2.352.077 4.701.206 7.056-.183-2.3-.37-4.606-.583-6.863-.807 6.454-1.232 12.717-1.67 18.978-1.309 18.757-3.355 37.498-3.69 56.272-.244 13.617 1.615 27.288 2.874 40.904.424 4.583 1.885 9.07 3.164 13.315l.026.332c-.216 1.04-.163 1.468-.11 1.898 2.151 1.162 3.028 2.773 3.31 4.664-.289-1.803-1.207-3.317-3.427-4.271.89 3.485 1.897 6.58 3.188 9.422.23-1.546.424-3.054.326-4.426.103 1.456-.076 3.057-.3 4.75-.202 1.003-.148 1.432-.095 1.861.95.81 2.337 1.482 3.037 2.373-.703-.879-2.108-1.49-3.15-1.986.743 3.507 1.425 6.689 2.49 9.736 2.615 7.481 5.168 15 8.188 22.32 3.944 9.563 7.72 19.275 12.691 28.305 3.903 7.09 9.558 13.206 14.352 19.815 11.282 15.554 25.6 27.898 41.968 37.57 12.242 7.234 25.381 12.947 38.116 19.348 7.259 3.648 15.122 4.655 23.037 4.959-.622-.78-1.18-1.589-1.803-1.938.633.35 1.24 1.168 2.12 2.002.777.459 1.207.495 1.638.531 4.115-1.832 7.634-.46 11.398 2.46 1.505.46 2.553.499 3.602.54 5.445.137 10.898.13 16.33.475-5.432-.345-10.886-.337-16.13-.117 8.095 1.03 15.987 1.702 23.763 2.015-1.944-.663-3.813-1.296-5.68-1.646 1.892.352 3.847.998 6.121 1.709 3.237.46 5.916.501 8.596.54.17-.272.34-.546.734-.93.833-1.477 1.721-2.098 2.652-2.161-.797.097-1.482.713-1.996 2.1 2.165.017 3.898-.017 5.54-.403.363.54.634.727 1.443 1.131 5.535.153 10.535.09 15.533.028 3.34-.692 6.652-1.709 10.027-2.006-3.375.297-6.686 1.314-9.57 2.127 7.554-.232 14.662-.438 21.742-1 3.32-.264 6.586-1.211 9.59-2.133-5.623.093-11.09.26-16.506.607 5.439-.349 10.993-.521 16.963-.637 4.08.188 7.418.12 10.756.051.99-.809 1.95-2.232 2.97-2.45-1.017.219-1.953 1.649-2.53 2.567 10.318-.627 20.197-1.367 30.072-2.146.203-.016.37-.483.26-1.03-9.398-.037-18.505.133-27.598.58 9.093-.447 18.201-.617 28.01-.607 2.076.207 3.445.151 4.816.094.847-.711 1.642-1.833 2.52-2.307-.864.478-1.59 1.617-2.075 2.422 8.284-.555 16.13-1.153 23.96-1.916 10.26-1 20.51-2.13 30.689-3.582-.79-.407-1.562-.793-2.313-1.01.792.22 1.66.62 2.694 1.063 1.476.382 2.496.335 3.517.29 2.348-.682 4.66-1.724 7.053-1.974-2.393.25-4.703 1.292-6.608 2.098 5.618-.223 10.808-.419 15.96-.975 3.252-.35 6.448-1.24 9.386-2.181-3.311.069-6.553.179-9.754.355a316 316 0 0 1 10.205-.38c3.743.195 6.751.124 9.758.052 4.217-1.181 8.373-2.762 12.67-3.42-4.297.658-8.454 2.238-12.236 3.54 4.785-.242 9.153-.472 13.482-1.007 3.41-.42 6.773-1.218 9.865-2.142-2.925-.275-5.729-.66-8.431-.61 2.726-.053 5.615.328 8.879.584 3.416.201 6.094.132 8.771.065.504-.516 1.01-1.031 1.809-1.592.938-.314 1.857-.579 2.742-.873a25 25 0 0 0-1.885.764q-.222.06-.451.119c-1.206.55-1.71 1.066-1.756 1.701 13.154-.21 25.849-.594 38.547-.826 2.72-.05 5.451.447 8.135.398-.707-.666-1.37-1.036-2.033-1.408a21 21 0 0 1-2.227-.664c-1.279-.304-2.017-.359-2.754-.414-.471-.036-1.18-.157-1.697-.209a6.4 6.4 0 0 0 1.62-.121c-1.378-.365-2.68-.4-3.728-.19.234.055.451.092.672.133-.415-.06-.627-.048-1.129-.138-4.057-.247-7.402-.241-10.748-.237-1.263.124-2.529.248-4.029.295 1.393-.063 2.653-.253 3.791-.594 3.583.294 6.929.29 10.73.29 1.76.04 3.063.076 4.442.44.813.385 1.55.441 2.656.505.87.096 1.472.187 2.057.455-.574-.263-1.106-.32-1.514-.205.735.378 1.296.515 1.822.363.699.662 1.363 1.034 2.504 1.764 2.828.408 5.176.458 7.526.508 5.284-1.565 10.356-1.535 15.426 2.43 1.838.471 3.207.519 4.576.566 3.588.511 7.394.427 10.722 1.648-3.328-1.22-7.134-1.138-10.568-1.31 2.779 1.123 5.464 1.748 8.016 2.722 7.96 3.038 16.033 5.858 23.746 9.444 5.594 2.6 10.693 6.265 16.025 9.105l.078.072c-.02.256-.007.33.004.35v.002l.002.002h.002v.002h.006c3.239 1.119 6.284 2.47 8.601 4.763-2.313-2.246-5.332-3.515-8.513-4.431 4.022 3.734 7.956 7.14 11.926 10.174l.025.08c-.038.275-.012.35.01.369l.006.004.005.002h.008l.002-.002c1.668 1.514 3.337 3.028 4.99 4.638a78 78 0 0 0-4.93-4.308c2.593 2.698 5.129 5.084 7.696 7.129l.193.209c-.04.26-.021.331-.004.35l.002.001.002.002h.004l.002.002h.006v-.002h.002c4.44 4.655 9.507 8.862 13.2 14.05-3.693-5.188-8.761-9.395-13.134-13.714 12.421 13.442 20.422 29.171 27.383 45.541 5.204 12.236 10.544 24.415 15.748 36.65 3.367 7.915 6.581 15.893 9.897 23.829 2.606 6.238 5.264 12.456 8.17 18.459.19-.826.395-1.605.39-2.28.01.699-.189 1.55-.355 2.604-.177.975-.119 1.4-.06 1.828 3.97 1.423 3.796 4.907 4.298 8.24-.513-3.212-.293-6.715-4.404-7.873 1.493 3.655 3.082 6.973 4.908 10.1q.124.369.283.724c-.15.947-.084 1.372-.017 1.797.605.88 1.211 1.76 1.779 2.729a16 16 0 0 0-1.896-2.393c.828 1.722 1.763 3.139 2.93 4.381q.11.244.216.498c.152 1.269.518 2.033.885 2.797 1.255 1.496 2.565 2.955 3.834 4.441-1.265-1.44-2.59-2.799-3.848-4.084 4.288 7.935 8.212 15.758 12.98 23.028 6.863 10.462 15.15 19.64 25.497 27.02 10.002 7.135 20.676 12.634 32.306 16.019-.357-.56-.671-1.071-1.017-1.455.381.392.772.911 1.334 1.525.764.456 1.194.49 1.625.526 1.05.272 2.245.679 3.322.976-1.072-.258-2.138-.494-3.162-.639 2.747 1.018 5.335 1.7 7.848 2.051-.476-.177-.934-.29-1.405-.447.615.197 1.115.29 1.764.52 1.165.452 1.896.502 2.627.552v-.488c0 .163 0 .326.148.832 4.745 1.686 9.342 3.028 13.885 4.02-1.5-2.038-3.342-2.93-5.307-3.39 2.035.467 3.976 1.374 5.623 3.464.8.46 1.23.495 1.66.531 1.147.264 2.406.666 3.57.953-1.15-.24-2.299-.472-3.407-.607 3.077 1.045 5.99 1.744 8.877 2.086-.25-.087-.492-.134-.74-.215.37.116.68.157 1.058.283.776.464 1.204.5 1.635.537 1.037.269 2.218.672 3.281.965-1.057-.253-2.108-.49-3.117-.633 2.748 1.02 5.332 1.707 7.846 2.059-.461-.173-.905-.28-1.362-.434.6.194 1.088.282 1.721.506 1.164.455 1.897.504 2.629.553 1.898.355 3.78.774 5.685 1.101a251 251 0 0 0-5.527-.763c8.41 2.695 16.663 5.052 24.885 7.039-2.507-1.325-4.936-2.658-7.445-3.627 2.525.972 5.016 2.32 7.761 3.699.778.483 1.209.52 1.639.56 1.146.262 2.435.659 3.605.944-1.158-.243-2.313-.474-3.42-.613 3.09 1.015 5.993 1.7 8.82 2.048-.354-.118-.695-.187-1.048-.296.495.146.896.205 1.41.369 1.166.464 1.897.516 2.629.57.931.275 2.01.682 2.969.982-.958-.266-1.908-.507-2.819-.658 2.412 1.01 4.673 1.696 6.862 2.053-.63-.267-1.236-.45-1.854-.672.76.263 1.391.412 2.217.734 1.17.42 1.905.449 2.64.479 3.432-2.303 5.593.22 8.319 2.484.823.43 1.255.462 1.686.494 1.101.258 2.25.564 3.466.942-1.151-.36-2.274-.569-3.33-.604 1.73.731 3.323 1.123 4.885 1.172a16 16 0 0 0-1.004-.385c.455.151.872.263 1.367.456 1.806.727 3.218 1.04 4.63 1.355 1.964.418 3.928.836 6.284 1.648.823.431 1.253.469 1.684.506 1.029.268 2.188.667 3.24.957-1.04-.25-2.077-.485-3.068-.629 2.75 1.019 5.328 1.709 7.83 2.065-.411-.155-.806-.248-1.213-.387.535.175.972.252 1.531.451.828.425 1.26.45 1.692.477 3.44-2.378 5.557.35 8.37 2.459 1.166.447 1.9.493 2.632.539 3.185-2.3 4.804.735 7.37 2.432 1.172.443 1.903.49 2.635.539 5.29 1.388 10.578 2.777 16.28 4.568.844.436 1.275.47 1.707.504 1.039.27 2.21.673 3.273.969-1.056-.254-2.106-.491-3.115-.635 2.746 1.019 5.335 1.703 7.842 2.059-.356-.134-.698-.213-1.051-.334.48.158.868.225 1.367.404.83.43 1.26.46 1.692.492 1.226-.652 2.397-1.062 3.474-.8-1.032-.187-2.17.309-3.324 1.142 2.05.798 3.95 1.253 5.82 1.347a6.7 6.7 0 0 0-.69-1.232c.316.4.62.901.907 1.52 1.438.755 2.63.862 3.822.968 1.202.245 2.403.49 3.641.827a22.6 22.6 0 0 0-3.492-.475c2.167.75 4.211 1.208 6.21 1.371q.394.154.796.328c1.45.766 2.643.888 3.836 1.01 5.146.755 10.793-.353 15.336 4.455.806.453 1.238.483 1.67.514 1.015.237 2.03.474 3.082.8a17 17 0 0 0-2.936-.459c1.86.73 3.599 1.178 5.291 1.342q.364.163.736.348c1.786.763 3.305.874 4.823.984 1.044.275 2.221.683 3.29.983-1.065-.259-2.124-.497-3.146-.643 2.741 1.026 5.338 1.713 7.856 2.072-.36-.134-.703-.216-1.059-.34.482.161.872.23 1.373.41.827.43 1.259.464 1.69.497 3.416.4 6.98.318 10.214 1.308 5.028 1.54 9.832 3.81 15.155 6.19 1.155.467 1.889.512 2.62.558 1.05.275 2.23.683 3.303.983-1.067-.258-2.128-.498-3.15-.643 2.744 1.025 5.335 1.71 7.856 2.067-.386-.145-.757-.232-1.14-.364.51.169.926.242 1.456.432.818.435 1.247.472 1.678.51 1.657.092 3.405-.125 4.957.328-1.552-.453-3.3-.235-4.817.012 1.922 1.106 3.649 2.047 5.492 2.613 8.593 2.636 17.183 5.3 25.846 7.685 4.789 1.32 9.723 2.111 14.528 2.813a14 14 0 0 0-2.67-1.8c.994.495 1.985 1.068 2.988 1.864.814.423 1.244.454 1.676.485 1.074-.178 2.24-.659 3.273-.701-1.027.056-2.167.6-3.129 1.043 1.78 1.087 3.352 2.055 5.06 2.543 12.63 3.604 25.264 7.19 37.944 10.605 3.896 1.05 7.94 1.549 11.85 1.941-.73-.74-1.378-1.461-2.078-1.882.717.423 1.424 1.157 2.394 1.953.814.468 1.247.506 1.678.545 1.022.263 2.182.663 3.228.95-1.033-.247-2.062-.481-3.044-.624 2.752 1.022 5.322 1.72 7.83 2.072-.465-.176-.913-.285-1.373-.441.604.195 1.097.284 1.734.511 1.157.453 1.89.49 2.625.528 1.026.266 2.181.665 3.23.955-1.037-.248-2.07-.484-3.06-.627 2.75 1.015 5.33 1.704 7.838 2.06-.339-.126-.664-.201-1-.318.462.153.836.217 1.316.389.82.436 1.252.47 1.684.506 3.702-2.454 6.05.905 9.31 2.472.83.437 1.263.471 1.694.506 3.192-2.375 4.776.8 7.37 2.408 1.174.448 1.907.496 2.64.543 5.298 1.385 10.598 2.77 16.382 4.565 1.857.448 3.227.485 4.598.523a242 242 0 0 1 6.554-.86c1.05.045 1.864.086 2.647.259-.75-.16-1.44-.153-2.006-.008 1.095.342 1.965.44 2.772.224 3.005.999 5.947 1.683 9.437 2.772 2.863.365 5.178.326 7.492.287 2.059-.688 4.07-1.665 6.184-2.014-2.114.349-4.125 1.325-5.756 2.143 4.307-.188 8.25-.178 12.053-.9 5.564-1.058 11.029-2.636 16.293-4.276l.369-.037c.999.2 1.426.138 1.855.078 3.365-2.12 6.498-4.839 10.137-6.252-3.639 1.413-6.77 4.133-9.758 6.37 18.008-5.918 33.898-14.74 46.342-28.94 10.96-12.505 21.7-25.202 32.713-37.66 10.222-11.565 20.676-22.925 30.707-34.553-.896.254-1.777.477-2.506.822.742-.353 1.657-.592 2.64-.888.456.111.587-.16.587-.16 1.494-2.038 2.75-4.359 4.343-6.278-1.577 1.911-2.78 4.2-4.06 6.117 6.44-6.279 13.702-10.572 21.685-13.513a15.8 15.8 0 0 0-4.525-.084c1.513-.204 3.12-.21 4.848.046 1.008.177 1.437.121 1.865.065 1.744-.975 3.48-2.607 5.228-3.197-1.735.594-3.41 2.242-4.83 3.302 5.212-.573 10.027-1.818 14.836-1.79 6.313.035 12.62 1.073 18.86 1.316-.737-.735-1.419-1.536-2.112-1.914.714.38 1.472 1.195 2.516 1.982 1.846.475 3.218.518 4.588.56 4.289.69 8.578 1.38 13.332 2.48 1.201.433 1.937.46 2.674.486 1.332.208 2.664.415 4.035.712a30 30 0 0 0-3.858-.373c2.445.684 4.748 1.096 7.004 1.223q.522.172 1.057.373c3.121.815 5.941.933 8.762 1.05.641-.254 1.283-.51 2.004-.501.708.648 1.337 1.032 2.35 1.867 1.573.452 2.764.451 3.956.451 5.132-.901 10.293-1.984 15.073 2.7 1.503.463 2.556.5 3.61.535 3.964.69 7.927 1.38 12.364 2.482 1.53.436 2.588.46 3.645.482 1.075-.253 2.207-.83 3.238-.835-1.028.009-2.14.624-3.043 1.173 7.015 1.733 13.812 3.249 20.66 4.485 6.369 1.15 12.793 2 19.125 2.627-1.082-.82-2.085-1.654-3.137-2.143 1.071.492 2.144 1.338 3.5 2.213 1.169.46 1.908.493 2.647.527 3.355.035 6.796-.404 10.049.192-3.253-.596-6.694-.158-9.84.144 5.37 1.216 10.547 2.01 15.69 2.99 12.975 2.474 25.923 5.095 38.91 7.51 3.034.565 6.177.549 9.17.461-3.135-1.249-6.214-2.557-9.362-3.431 3.209.883 6.393 2.215 9.725 3.51 1.204.442 1.944.468 2.685.494.332-.227.702-.659 1.008-.75-.303.1-.65.58-.846 1.117a367 367 0 0 0 26.782 4.166c.11.025.21.04.32.066.845.436 1.282.46 1.719.483 5.43-2.773 9.974.887 15.324 2.466 1.204.438 1.946.46 2.687.483 2.842-1.543 5.377-.912 7.914.15-2.474-1.038-4.966-1.572-7.748.203 4.409 1.03 8.65 1.707 12.797 2.045-1.483-.54-2.912-1.298-4.34-1.945 1.54.688 3.057 1.437 4.729 2.023 1.538.453 2.591.49 3.646.526 2.197-.146 4.456-.692 6.58-.367-2.124-.325-4.383.222-6.42.724 10.412 2.12 20.664 3.888 30.917 5.64 3.653.625 7.312 1.208 10.89 1.47-2.23-1.002-4.377-2.01-6.566-2.696 2.209.69 4.425 1.71 6.93 2.766 1.183.433 1.924.458 2.666.48 4.798-2.415 8.84-.139 13.363 2.489 1.529.437 2.584.465 3.64.494 4.733-1.942 8.941-.685 13.338 2.521 1.185.418 1.929.428 2.672.438 1.807-.217 3.663-.78 5.432-.729-1.767-.047-3.606.556-5.272 1.084 4.164 1.135 8.16 1.97 12.174 2.68 7.39 1.307 14.791 2.538 22.188 3.808 8.206 1.41 16.412 2.82 24.615 4.245 7.548 1.31 15.104 2.58 22.637 3.978 6.716 1.247 13.385 2.757 20.111 3.947 7.406 1.311 14.861 2.339 22.28 3.582 10.627 1.782 21.234 3.686 31.862 5.465 8.22 1.377 16.565 2.186 24.667 4.057 13.99 3.23 28.16 2.455 41.906.451 10.17-1.482 19.977-6.423 29.578-10.658 21.46-9.468 37.75-25.219 49.142-45.313 9.503-16.76 18.254-34.185 19.866-54.048.716-8.829 1.682-17.636 2.177-26.364-.751 1.158-1.539 2.244-1.95 3.348.414-1.12 1.213-2.268 2.015-3.668.445-.847.465-1.284.486-1.72-2.273-6.93-.513-13.448 2.463-20.362.44-1.538.463-2.595.485-3.652-1.444-3.494-1.178-6.797-.315-10.102-.82 3.243-.975 6.508.674 9.91 1.041-6.082 1.722-11.97 2.059-17.76-.613 1.633-1.26 3.25-1.829 4.864.598-1.704 1.255-3.421 1.903-5.184.439-.859.459-1.297.48-1.734.275-1.29.686-2.715.986-4.03-.254 1.31-.494 2.614-.636 3.877 1.041-3.4 1.733-6.649 2.092-9.806-.016.05-.024.097-.04.146.05-.166.065-.299.116-.467.435-.846.46-1.282.486-1.718-.219-1.14-.86-2.41-.686-3.428-.172 1.017.49 2.278 1.038 3.28 1.818-4.76 2.875-9.553 4.841-13.938 3.29-7.336 6.759-15.134 14.247-18.899 8.773-4.41 18.186-7.562 27.37-11.134 5.386-2.096 10.868-3.947 16.073-6.186-.78-.256-1.476-.502-2.074-.512.615.007 1.373.25 2.4.487.994.2 1.428.149 1.861.097 2.484-.656 4.966-1.313 7.58-1.918a104 104 0 0 0-7.162 2.024c4.374-.867 8.35-1.836 12.08-3.055l.667-.121c1.361.183 2.097.121 2.833.059 2.768-4.756 7.267-3.595 12.096-3.106 1.036.2 1.468.14 1.9.082.952-.878 1.817-2.23 2.817-2.834-.988.606-1.791 1.975-2.42 2.936 7.138-1.562 13.88-3.224 20.367-5.174l.352-.026c1.02.218 1.453.165 1.887.112 2.224-.643 4.448-1.285 6.798-1.88a87 87 0 0 0-6.39 1.983c4.023-.865 7.662-1.827 11.058-3.043l.721-.14c1.701.174 2.752.098 3.803.021 1.108-2.242 2.692-3.113 4.564-3.365-1.785.259-3.274 1.167-4.182 3.473 3.478-.883 6.571-1.872 9.407-3.137-1.544-.241-3.057-.473-4.434-.41 1.462-.068 3.069.15 4.762.386 1.02.192 1.452.13 1.885.069 1.346-.966 2.584-2.397 4.013-3.002-1.423.607-2.618 2.051-3.619 3.11 3.386-.566 6.392-1.179 9.365-1.92 7.774-1.94 15.534-3.937 23.05-6.188-.708-.303-1.284-.557-1.79-.59.521.031 1.166.28 2.201.56 2.034.166 3.404.084 4.776.002.854-2.562 2.428-3.456 4.504-3.511-1.99.026-3.512.944-4.133 3.62 2.81-.865 5.249-1.84 7.443-3.093-1.03-.289-2.01-.483-2.908-.521.996.023 2.086.197 3.277.49 1.348.17 2.082.096 2.817.021.678-2.017 1.804-3.127 3.431-3.422-1.549.28-2.608 1.42-3.074 3.524 2.472-.87 4.587-1.842 6.475-3.086-1.279-.448-2.4-.608-3.344-.451 1.023-.172 2.24-.027 3.67.418.985.172 1.415.104 1.846.037 1.985-3.117 5.016-3.746 8.25-4.205a88 88 0 0 0 3.127-.514 68 68 0 0 1-3.127.514c-3.14.458-6.124 1.092-7.875 4.3 4.388-1.525 8.415-3.143 12.23-5.015q.276-.066.55-.139c.979.172 1.41.103 1.84.035 1.052-1.562 2.264-2.758 3.87-3.254-1.523.495-2.656 1.724-3.502 3.358 2.803-.893 5.238-1.887 7.443-3.158-1.044-.359-1.977-.486-2.812-.42.92-.086 1.957.032 3.142.4.992.187 1.424.118 1.856.049.95-1.012 1.737-2.403 2.814-3.117-1.071.716-1.82 2.117-2.455 3.219 5.72-2.527 11.09-5.154 16.254-8.038l.51-.14c.986-.025 1.468-.296 1.95-.565 1.973-1.486 3.79-3.274 5.952-4.396-2.163 1.122-3.98 2.91-5.574 4.396 2.002-.701 3.7-1.265 5.23-2.129 5.108-2.88 10.157-5.866 14.85-8.847l.137-.057c.268.033.35.024.373.014l.002-.002h.002l.002-.002.002-.002v-.004c.69-1.199 1.157-2.622 2.105-3.56-.948.938-1.416 2.36-1.773 3.474 7.795-7.246 15.8-13.938 22.55-21.719 5.396-6.22 10.465-13.278 13.522-20.837 4.252-10.516 8.21-21.09 9.342-32.971 1.363-14.317.23-27.8-4.051-41.051-.177 2.111-.459 4.124-.31 6.002-.15-1.892.127-3.963.285-6.328.2-1.038.145-1.472.09-1.904-1.97-3.607-3.938-7.215-5.891-10.95a216 216 0 0 0 5.992 10.577 234 234 0 0 0-8.705-15.881l-.186-.373c.038-.295.018-.37.002-.387l-.002-.002v-.002h-.001l-.003-.002h-.007c-1.678-2.008-3.355-4.014-5.032-6.162a83 83 0 0 0 5.014 5.805c-2.3-3.1-4.582-5.847-6.863-8.243l-.055-.072c.005-.276-.006-.34-.012-.353v-.002h-.001v-.002c-.885-.544-2.095-.915-2.797-1.557.701.631 1.909.945 2.78 1.19-2.979-6.84-8.127-11.232-13.482-15.747-9.617-8.109-20.406-13.62-32.144-17.863-14.132-5.108-28.577-7.444-43.541-6.922-10.423.364-20.845.705-31.266 1.116-.508.02-.994.607-1.209 1.238 11.357.358 22.434.567 33.506.422-11.072.145-22.148-.064-33.92-.416-2.076-.242-3.455-.18-4.834-.121-1.563.396-3.117.983-4.685 1.289 1.546-.311 3.014-.923 4.226-1.41-5.843.18-11.227.481-16.308 1.062 3.74.393 7.188.711 10.611.541-3.423.17-6.87-.149-11.064-.52-3.771-.193-6.784-.129-9.797-.064-1.376.516-2.745 1.238-4.12 1.783 1.317-.554 2.564-1.315 3.659-1.888-5.094-.078-9.744-.291-14.354.043-5.752.416-11.472 1.284-16.924 2.265 8.433.347 16.592.58 24.733.3-8.14.28-16.3.047-25.17-.292-2.75-.243-4.78-.186-6.81-.129-.79.452-1.575 1.237-2.366 1.432.784-.196 1.52-.996 1.906-1.551-7.506.198-14.554.515-21.302 1.119 6.551.375 12.806.524 19.058.477-6.252.047-12.506-.104-19.47-.455-2.088-.21-3.465-.154-4.84-.098-1.771.64-3.514 1.652-5.307 2 1.787-.35 3.478-1.372 4.846-2.106-12.821.553-25.175 1.428-37.543 1.819-17.732.56-35.476.722-53.213 1.142-11.586.275-23.167.693-34.748 1.104-.7.025-1.383.558-1.787 1.158 18.228-.045 36.171-.33 54.111-.76-17.94.43-35.883.716-54.58.778-6.095-.23-11.436-.173-16.775-.116-1.078.475-2.145 1.287-3.229 1.506 1.077-.221 2.094-1.046 2.768-1.619-13.025.224-25.587.685-38.153.863-12.287.175-24.58.175-36.867.045-14.854-.157-29.704-.53-44.433-.441l-.534-.063c-3.925-.454-7.277-.474-10.629-.496-1.503.281-3.018.83-4.511.907 1.49-.082 2.981-.672 4.289-1.276-9.437-.777-18.657-1.083-27.862-1.629-7.195-.426-14.366-1.231-21.558-1.724-10.8-.741-21.609-1.357-32.29-1.659 3.272.662 6.504 1.342 9.725 1.913-3.282-.581-6.62-1.282-10.09-1.98-1.232-.451-1.976-.465-2.718-.48-5.742 1.416-11.413 1.847-17.254-1.61-.85-.447-1.287-.473-1.723-.499-6.939-.177-13.88-.265-20.812-.596a280 280 0 0 0 20.58.243c-8.762-1.045-17.29-1.737-25.715-2.07 1.467.716 2.85 1.439 4.242 1.716-1.4-.279-2.831-1.012-4.564-1.781-.862-.441-1.3-.462-1.737-.483-6.477-.136-12.96-.108-19.426-.464 6.465.356 12.95.329 19.206.105-10.615-1.418-21.008-2.474-31.4-3.537-5.816-.595-11.63-1.201-17.337-1.457 3.976.997 7.882 1.87 11.787 2.596-3.927-.73-7.912-1.618-12.193-2.672-1.893-.45-3.272-.478-4.65-.506-2.513.224-5.07.818-7.545.732 2.472.08 5.011-.554 7.373-1.095-6.742-1.04-13.312-1.717-19.764-2.04.292.099.575.188.865.286-.428-.14-.789-.217-1.228-.36-1.224-.447-1.967-.465-2.71-.484-2.273.65-4.53 1.12-6.794.846 2.198.236 4.431-.354 6.629-1.213-4.063-.762-7.959-1.157-11.766-1.2 1.597 1.453 3.245 2.16 4.916 2.383-1.754-.252-3.51-.951-5.281-2.447-1.197-.438-1.938-.458-2.68-.478-3.607 1.172-7.079 1.016-10.56.275 3.413.7 6.843.74 10.353-.63-6.42-1.039-12.635-1.721-18.75-2.057 1.727.68 3.447 1.32 5.166 1.855a89 89 0 0 1-5.531-1.922c-1.206-.432-1.948-.449-2.69-.467-5.983 2.241-11.504.708-17.382-2.486-2.215-.44-3.92-.464-5.623-.488-4.046.854-8.072 1.517-12.069.586 3.896.923 7.92.15 11.885-.955a159 159 0 0 0-17.799-2.028c1.588 1.31 3.219 2.163 4.875 2.694a16.3 16.3 0 0 1-5.314-2.77c-3.202-.453-5.89-.493-8.576-.533-3.723.189-7.492.845-11.159.476 3.667.369 7.436-.287 10.973-.843-5.231-1.03-10.264-1.849-15.328-2.323a499 499 0 0 0-26.432-1.79c.48.403.917.753 1.348.997-.476-.25-1.003-.613-1.71-1.066-1.202-.443-1.944-.467-2.685-.49-8.186 1.982-16.126 1.11-24.41-2.463-3.555-.454-6.573-.49-9.591-.525-3.007.59-5.996.838-8.983.884 2.926-.106 5.856-.535 8.78-1.254a300 300 0 0 0-24.764-2.023c4.61 2.22 9.28 3.192 13.968 3.28-4.772-.162-9.552-1.091-14.414-3.352-3.554-.453-6.572-.493-9.59-.532-6.855-.1-13.713-.124-20.566-.334 6.853.21 13.712.234 20.363-.037-6.563-1.106-12.905-2.159-19.285-2.511-15.677-.868-31.369-1.84-47.062-1.998-32.763-.33-65.53-.159-98.295-.2-1.493-.002-2.985-.113-4.477-.101-5.544.043-11.09.085-16.63.26-.308.01-.58 1.207-.422 1.816 6.208-.054 11.973-.16 17.736-.078-5.763-.082-11.528.025-17.803.54-.51 10.404-.51 20.308-.51 30.45h17.952c27.499.003 54.997-.021 82.496.047 3.1.008 6.195.711 9.3.793 6.526.172 13.068-.075 19.582.256 7.771.395 15.511 1.39 23.282 1.795 5.84.304 11.72-.14 17.558.181 4.265.235 8.478 1.301 12.739 1.772 7.158.79 14.342 1.357 21.505 2.105 5.548.58 11.07 1.4 16.623 1.903 2.533.229 5.147-.342 7.663-.041 7.099.848 14.143 2.208 21.254 2.9 7.413.722 14.903.657 22.318 1.373 11.24 1.085 22.44 2.565 33.66 3.846 7.324.836 14.66 1.585 21.982 2.433 3.726.432 7.431 1.025 11.153 1.493 11.051 1.389 22.1 2.793 33.16 4.113 9.446 1.127 18.911 2.11 28.36 3.22 16.11 1.894 32.21 3.9 48.327 5.735 7.838.892 15.714 1.421 23.557 2.271 10.75 1.166 21.47 2.63 32.23 3.682 9.35.914 18.748 1.35 28.112 2.143 18.52 1.566 37.014 3.482 55.553 4.767 11.742.814 23.545.911 35.324 1.04 17.048.184 34.1.243 51.148.1 16.778-.139 33.557-.467 50.328-.952 17.877-.517 35.745-1.336 53.618-1.983 28.144-1.019 56.29-1.981 84.435-3.011 17.215-.63 34.425-1.41 51.64-1.999 13.603-.464 27.214-.663 40.815-1.132 6.264-.217 12.512-.847 18.772-1.205 10.06-.577 20.13-1.537 30.187-1.45 6.125.054 12.264 1.616 18.34 2.793 3.484.675 6.796 2.29 10.287 2.864 12.147 1.994 22.174 8.13 29.932 17.111 7.714 8.93 14.262 18.698 15.838 31.275 1.123 8.967.581 17.648-.805 26.323-1.865 11.668-7.819 21.762-15.102 30.673-5.259 6.435-11.543 12.723-18.677 16.776-11.445 6.502-23.8 11.538-36.096 16.365-9.915 3.893-20.19 7.032-30.521 9.662-14.62 3.722-29.428 6.703-44.172 9.922-5.566 1.215-11.195 2.14-16.77 3.32-7.633 1.616-15.237 3.364-22.86 5.028-6.023 1.315-12.072 2.528-18.085 3.892-13.46 3.054-27.021 5.745-40.313 9.414-8.987 2.482-17.803 5.901-26.287 9.791-6.816 3.126-14.203 6.442-19.267 11.676-14.137 14.61-21.198 33.182-25.692 52.717-1.458 6.34-2.301 12.828-3.25 19.275-1.429 9.71-2.645 19.45-4.06 29.16-1.225 8.402-3.608 16.775-3.662 25.172-.074 11.267-2.553 21.95-7.057 31.784-8.458 18.466-18.653 35.812-37.64 46.101-12.76 6.914-25.488 13.118-40.493 11.975-7.354-.56-14.729-1.052-22.031-2.04-14.415-1.948-28.822-4.003-43.164-6.42-13.321-2.243-26.522-5.194-39.832-7.509-16.872-2.934-33.82-5.426-50.7-8.322-14.111-2.422-28.158-5.22-42.255-7.725-13.493-2.398-27.019-4.608-40.522-6.95-9.479-1.643-18.93-3.449-28.418-5.036-13.045-2.183-26.136-4.099-39.166-6.365-13.809-2.403-27.555-5.164-41.355-7.618-16.208-2.882-32.463-5.499-48.662-8.423-13.288-2.4-26.497-5.226-39.79-7.6-17.824-3.184-35.714-6.014-53.54-9.186-14.06-2.501-28.13-5.002-42.08-8.035-14.013-3.046-27.87-3.177-42.022-.883-16.603 2.693-30.61 9.708-42.08 21.983-11.543 12.352-23.362 24.447-34.74 36.947-6.73 7.393-12.55 15.617-19.307 22.983-7.41 8.078-14.798 16.386-23.32 23.185-13.688 10.92-29.766 16.404-47.469 14.875-9.857-.851-19.69-2.619-29.365-4.742-10.267-2.253-20.353-5.349-30.48-8.207-6.546-1.848-12.99-4.05-19.542-5.877-8.57-2.39-17.253-4.388-25.795-6.875-11.028-3.211-21.911-6.924-32.955-10.078-11.365-3.247-22.879-5.971-34.27-9.131-8.893-2.467-17.693-5.27-26.544-7.893a5189 5189 0 0 0-26.055-7.65 2690 2690 0 0 0-19.142-5.467c-8.071-2.281-16.16-4.498-24.22-6.82-8.098-2.334-16.14-4.873-24.26-7.125-11.715-3.25-23.519-6.174-35.208-9.506-14.164-4.037-28.218-8.463-42.377-12.522-14.79-4.24-29.688-8.11-44.469-12.384-15.05-4.353-29.907-9.415-45.05-13.397-13.113-3.447-24.782-9.34-34.088-18.963-8.008-8.28-15.227-17.374-19.707-28.304-4.146-10.114-8.857-19.998-12.952-30.131-3.512-8.693-6.238-17.703-9.789-26.38-5-12.22-10.31-24.32-15.732-36.36-5.304-11.777-10.613-23.57-16.488-35.065-4.727-9.247-10.415-17.875-17.254-25.898-10.167-11.927-21.23-22.8-33.887-31.9-11.194-8.05-23.225-14.78-36.797-18.21-13.162-3.326-26.16-7.777-39.523-9.705-14.872-2.145-29.934-4.26-45.17-2.353-7.527.942-15.214.527-22.79 1.177-17.357 1.49-34.683 3.331-52.036 4.875-6.58.586-13.22.527-19.795 1.145-16.014 1.505-31.998 3.32-48.012 4.83-6.418.605-12.901.52-19.318 1.127-15.858 1.502-31.66 3.817-47.547 4.684-15.17.827-30.43-.157-45.625.384-14.177.506-27.62-3.425-41.36-5.566-4.138-.645-8.391-1.539-12.175-3.244-6.781-3.056-13.061-7.237-19.877-10.196-18.453-8.008-33.105-20.803-46.162-35.687-3.233-3.685-6.911-7.308-8.97-11.633-6.982-14.677-13.741-29.493-19.747-44.59-2.965-7.452-4.724-15.54-5.916-23.507-2.23-14.904-4.692-29.9-5.106-44.91-.398-14.44 1.696-28.948 2.649-43.428.39-5.937.552-11.89 1.006-17.82 1.254-16.416 2.756-32.814 3.865-49.239.659-9.76.5-19.576 1.191-29.332.543-7.653 1.237-15.389 2.936-22.844 2.045-8.975 4.77-17.86 8.004-26.484 7.13-19.022 16.577-36.626 32.558-50 10.543-8.824 21.729-16.557 34.4-21.977 9.94-4.25 19.854-8.587 29.958-12.414 9.181-3.477 18.466-6.863 27.959-9.295 10.518-2.694 21.349-4.145 31.998-6.361 6.81-1.417 13.503-3.402 20.31-4.844 10.829-2.293 21.75-4.164 32.557-6.55 10.283-2.27 20.437-5.121 30.709-7.446 13.637-3.086 27.348-5.845 41-8.869 10.46-2.317 20.853-4.941 31.32-7.223 14.456-3.15 28.994-5.928 43.42-9.207 10.105-2.296 20.062-5.24 30.123-7.738 4.878-1.21 9.855-2.022 14.772-3.082 10.008-2.156 20.03-4.248 30-6.572 9.938-2.318 19.777-5.071 29.734-7.297 10.623-2.375 21.366-4.206 31.998-6.543 18.925-4.16 37.636-10.429 57.371-7.408 6.613 1.012 14.063 2.451 19.133 6.316 8.213 6.262 15.43 14.178 21.816 22.371 4.574 5.868 7.356 13.213 10.489 20.104 4.739 10.423 8.9 21.11 13.646 31.529 7.44 16.333 14.427 32.94 23.045 48.64 4.97 9.054 12.393 16.893 19.424 24.632 4.356 4.794 9.608 9.15 15.228 12.347 13.553 7.712 27.818 14.2 43.616 15.4 9.74.74 19.615.453 29.382-.146 9.469-.58 18.881-2.106 28.31-3.293 8.445-1.064 16.88-2.21 25.315-3.36 11.332-1.543 22.66-3.12 33.987-4.69 8.908-1.236 17.829-2.394 26.719-3.75 8.535-1.303 17.016-2.976 25.562-4.2 12.789-1.832 25.628-3.32 38.42-5.13 10.666-1.51 21.287-3.328 31.943-4.909 9.543-1.415 19.1-2.744 28.662-4.018 9.414-1.254 18.849-2.351 28.264-3.591 13.464-1.774 26.925-3.568 40.375-5.442 8.743-1.218 17.458-2.631 26.195-3.888 9.714-1.398 19.425-2.82 29.16-4.043 9.45-1.188 18.953-1.958 28.387-3.239 13.289-1.804 26.536-3.91 39.801-5.886 1.074-2.066 2.557-2.683 4.293-2.735-1.636.048-3.024.697-3.885 2.83 3.148-.57 5.887-1.236 8.375-2.193-1.415-.266-2.821-.605-4.097-.637 1.386.024 2.917.346 4.544.602 4.723-.12 8.745-.497 12.768-.873 1.64-.457 3.28-.916 5.05-1.322a46 46 0 0 0-4.646 1.416c3.076-.554 5.765-1.2 8.217-2.12q.3-.048.606-.093c2.707.192 4.736.122 6.763.052 1.99-.489 3.981-.979 6.112-1.402a57 57 0 0 0-5.703 1.51c3.444-.542 6.489-1.19 9.294-2.127l.424-.059c1.009.221 1.443.171 1.88.121 1.651-.285 3.303-.57 5.16-.783a37 37 0 0 0-4.739.889c2.825-.207 5.229-.52 7.37-1.12q-.363.02-.72.046.57-.045 1.17-.079c3.73.187 6.745.12 9.76.053 3.233-.503 6.467-1.007 9.881-1.443a168 168 0 0 0-9.436 1.547c5.44-.564 10.443-1.23 15.176-2.188q.3-.028.602-.054c5.106.29 9.474.309 13.842.328 4.78-1.652 9.431-1.68 14.312 1.523 1.19.47 1.93.511 2.67.553 1.263.26 2.657.655 3.941.94-1.27-.239-2.538-.467-3.76-.6 3.413 1.02 6.643 1.702 9.794 2.043-.082-.025-.16-.037-.24-.06.198.056.359.072.56.132.837.451 1.273.489 1.709.527a33 33 0 0 1 2.478.803c-.818-.28-1.611-.45-2.351-.48 1.391.697 2.655 1.072 3.873 1.119-.045-.023-.088-.039-.133-.06.154.07.278.102.438.18 1.137.756 1.923 1.062 2.71 1.368.33.082.66.164 1.01.324a1.86 1.86 0 0 0-.918-.02c.624.421 1.174.592 1.717.518q.16.128.326.287c1.727 1.043 3.296 1.468 4.866 1.893 1.01.409 2.023.818 3.054 1.312a21 21 0 0 0-2.935-.98c1.832 1.025 3.569 1.781 5.275 2.26q.339.21.684.443c1.068 1.104 1.987 1.57 2.906 2.035.982.462 1.964.925 2.973 1.697.021.253.006.313 0 .327l-.002.002v.002c.525.382 1.05.764 1.595 1.24a8.4 8.4 0 0 0-1.498-.942c.984 1.025 1.88 1.786 2.78 2.221q.162.183.328.385c2.368 2.815 4.587 4.95 6.804 7.084.615.625 1.23 1.252 1.817 1.943a14.5 14.5 0 0 0-1.787-1.607c.96 1.342 1.894 2.393 3.031 3.28q.15.235.297.483c.083.949.369 1.421.654 1.895.443.461.887.923 1.3 1.451a7 7 0 0 0-1.29-1.119c.644 1.043 1.28 1.791 2.125 2.379q.106.195.205.402c.087.942.375 1.414.662 1.887 2.434.957 3.461 2.718 4.076 4.783-.604-1.979-1.626-3.657-4.06-4.412 1.649 3.422 3.282 6.48 5.164 9.344q.051.208.107.416c-.146.954-.083 1.387-.021 1.818.42.682.84 1.362 1.226 2.131a9.4 9.4 0 0 0-1.318-1.795c.54 1.4 1.165 2.49 2.014 3.416q.081.227.158.467c.16 1.608.52 2.696.88 3.785.427.844.853 1.688 1.243 2.629a13.7 13.7 0 0 0-1.332-2.272c.55 1.723 1.183 3.119 2.056 4.33q.081.278.157.567c.155 2.981.536 5.36.918 7.74.733 1.082 1.998 2.193 2.41 3.258-.416-1.051-1.698-2.092-2.508-2.8-.038 4.519.02 8.58.436 12.544.818-2.442 1.627-4.809 2.005-7.185-.38 2.392-1.2 4.83-2.074 7.619-.786 4.228-1.145 7.925-1.504 11.623-.373 1.323-.746 2.646-1.525 4.396-.771 2.483-1.136 4.54-1.5 6.596-.388 1.353-.776 2.707-1.252 4.084.394-1.342.696-2.662.908-3.943-.995 2.44-1.712 4.767-2.146 7.054q-.21.458-.442.922c-1.123 1.419-1.588 2.652-2.052 3.887-.24.517-.48 1.033-.805 1.572.252-.51.414-1.004.49-1.472-.719.952-1.17 1.821-1.346 2.67q-.143.17-.304.345c-.72.737-.85 1.318-.979 1.899-.08.333-.163.666-.32 1.015.082-.323.09-.634.017-.922-.415.624-.584 1.17-.51 1.713a5 5 0 0 1-.263.297c-1.065 1.034-1.537 1.949-2.008 2.863-.39.68-.779 1.362-1.258 2.06.402-.671.712-1.329.94-1.96-1.014 1.253-1.76 2.423-2.207 3.576q-.198.22-.414.444c-1.785 1.397-2.915 2.657-4.043 3.917-.556.696-1.11 1.39-1.758 2.098a16 16 0 0 0 1.445-2.017c-1.328 1.26-2.386 2.452-3.127 3.66q-.226.195-.466.394c-1.815 1.346-2.955 2.603-4.096 3.86-.485.422-1.005.845-1.576 1.263.545-.415.968-.832 1.248-1.242-1.119.663-1.908 1.305-2.342 1.97.102-.058.185-.118.281-.177-.098.061-.167.125-.271.186-.283-.013-.344-.03-.358-.036h-.004v-.001c-1.088 1.02-2.175 2.04-3.625 3.04-.36-.019-.365-.027-.365-.027-.385.33-.77.66-1.244.992q.58-.488.918-.966c-1.011.59-1.763 1.163-2.23 1.75q-.253.127-.538.253c-2.337.727-3.878 1.626-5.54 2.118-7.906 2.337-15.732 5.164-23.8 6.683-10.596 1.996-21.355 3.587-32.109 4.168-15.78.853-31.423-.602-46.865-4.66-13.017-3.42-26.374-5.525-39.477-8.65-8.951-2.136-17.686-5.167-26.586-7.543-12.054-3.22-24.2-6.088-36.254-9.309-9.05-2.418-17.949-5.436-27.04-7.674-10.727-2.64-21.5-5.358-32.417-6.877-10.573-1.47-21.806-3.666-31.933-1.58-14.558 2.999-28.451 9.388-42.479 14.725-7.357 2.799-14.363 6.512-21.586 9.68-10.03 4.398-20.061 8.802-30.193 12.96-10.137 4.161-20.165 8.85-30.662 11.811-13.97 3.94-28.394 2.765-42.5-.027-16.547-3.275-32.989-7.087-49.447-10.795-11.538-2.6-23.037-5.377-34.535-8.147-15.61-3.759-31.204-7.574-46.8-11.388-14.024-3.43-28.006-7.04-42.07-10.301-16.61-3.852-33.276-7.462-49.937-11.086-14.297-3.11-28.66-5.925-42.922-9.184-10.092-2.305-20.016-5.347-30.104-7.675-12.652-2.92-25.398-5.437-38.1-8.147-4.599-.981-9.185-2.028-13.78-3.03-6.02-1.31-12.058-2.536-18.059-3.925-9.936-2.3-19.835-4.76-29.775-7.043-10.276-2.36-20.596-4.531-30.871-6.896-9.967-2.295-19.879-4.822-29.854-7.077-10.612-2.398-21.26-4.648-31.91-6.869-8.753-1.825-17.534-3.514-26.303-5.263a51 51 0 0 1-3.287-.866c1.094.318 2.152.505 3.147.532-1.727-.704-3.313-1.072-4.842-1.116.257.106.51.19.765.282-.367-.124-.693-.204-1.086-.354-.815-.433-1.254-.468-1.691-.502-.668-.018-1.334-.036-2.117-.174.708.11 1.374.062 1.965-.144-1.07-.336-1.986-.354-2.852-.067q.194.063.385.11a11 11 0 0 1-.705-.188c-.81-.417-1.25-.45-1.688-.484-1.967-.372-3.934-.743-6.334-1.524-1.175-.44-1.917-.47-2.66-.502-1.281-.263-2.717-.663-4.025-.95 1.301.243 2.598.472 3.85.605-3.41-1.018-6.643-1.69-9.798-2.024.229.069.448.107.676.172-.377-.104-.677-.14-1.064-.252-1.526-.46-2.582-.502-3.639-.545-1.048-.235-2.097-.47-3.252-.836 1.079.312 2.124.477 3.108.502-1.72-.707-3.298-1.084-4.83-1.12l-.39-.163c-2.823-.795-5.23-1.086-7.638-1.377-1.168-.267-2.49-.672-3.687-.965 1.193.251 2.382.483 3.527.62-3.07-1.018-5.98-1.689-8.816-2.028.372.124.73.197 1.101.31-.525-.154-.946-.216-1.492-.39-1.52-.454-2.579-.495-3.637-.535-1.967-.373-3.934-.747-6.289-1.53-.824-.446-1.262-.482-1.699-.519-2.924 1.472-5.586 1.036-8.271.08 2.606.924 5.239 1.255 8.078-.437-4.75-1.015-9.308-1.673-13.776-1.987 1.498.608 2.964 1.329 4.428 1.94-1.578-.646-3.174-1.366-4.861-2.018-2.883-.47-5.241-.516-7.6-.562-3.909 2.297-6.954.337-10.416-2.43-2.524-.472-4.554-.524-6.584-.576-5.165-.047-10.331-.198-15.494-.117 5.163-.08 10.33.07 15.299-.245-4.56-1-8.903-1.905-13.29-2.23-11.615-.861-23.172-.46-34.228 2.902 2.731.26 5.185.253 7.637.192-2.452.06-4.906.067-8.008-.162-1.387-.195-2.125-.13-2.863-.065-1.237 1.039-2.334 2.498-3.68 3.211 1.34-.714 2.395-2.184 3.291-3.308-4.912.944-9.606 1.53-13.916 3.14-5.737 2.144-11.175 5.086-16.547 7.942.406.246.71.406.955.42-.256-.012-.616-.165-1.283-.377-.955-.146-1.386-.08-1.818-.012-1.878 1.593-3.615 3.402-5.664 4.73 2.05-1.328 3.786-3.137 5.31-4.824-2.308.963-4.373 1.86-6.193 3.111a125 125 0 0 0-10.096 7.745l-.527.248c-.952.088-1.423.376-1.895.666-.684.66-1.456 1.315-2.162 1.974.65-.65 1.266-1.3 1.809-1.943-2.113 1.685-3.871 3.34-5.266 5.017l-.004.002-.365-.023c-1.366 1.315-2.732 2.63-4.215 3.967a66 66 0 0 0 3.867-3.94c-2.64 2.214-4.97 4.403-6.97 6.604l-.625.504c-1.792 1.363-2.926 2.608-4.06 3.853-.246.36-.49.721-.829 1.098q.4-.546.488-1.068c-.729.635-1.16 1.244-1.302 1.837a9 9 0 0 1-.264.206c-.742.376-.919.652-1.094.93-1.928 2.347-3.855 4.697-5.904 7.009 2-2.297 3.852-4.645 5.55-6.98-3.205 3.39-6.066 6.752-8.613 10.294l-.207.213c-.396-.117-.528.053-.543.075l-.002.001c-.095.382-.19.764-.359 1.16.105-.364.137-.705.105-1.01-.464.766-.723 1.408-.695 2.007a5 5 0 0 1-.22.265c-.771.4-.945.677-1.118.953-.404.787-.948 1.666-1.379 2.47.394-.8.77-1.594 1.053-2.36-1.36 2.058-2.393 4.006-3.084 5.906.315-.47.55-.926.828-1.39-.325.555-.53 1.03-.904 1.619-.419.277-.516.752-.516.752-1.07 2.053-2.14 4.106-3.299 6.177 1.081-2.04 2.07-4.064 2.975-6.054-2.211 3.68-4.155 7.26-5.805 10.818q-.377.594-.771 1.191c-.785.72-.926 1.307-1.068 1.895-1.697 4.304-3.394 8.61-5.499 13.344-.438 1.172-.47 1.915-.5 2.658-.27 1.159-.674 2.463-.968 3.648.253-1.18.488-2.355.63-3.488-1.027 3.07-1.717 5.977-2.07 8.809.135-.398.215-.781.338-1.176-.16.54-.229.979-.41 1.54-.442 1.184-.474 1.927-.508 2.669.141 4.359.811 8.783.287 13.06.524-4.277-.147-8.702-.658-12.875-.809 5.767-.786 11.434-1.81 16.905-1.127 6.012-.115 11.466 2.47 16.642.254-1.465.67-2.941.545-4.142.128 1.214-.284 2.748-.512 4.47-.207 1.016-.153 1.45-.1 1.885.432.332 1.142.62 1.36.986-.22-.36-.941-.597-1.463-.543.878 5.138 1.86 9.832 3.118 14.307.012.168.042.296.054.465-.178 1.675-.114 2.73-.05 3.783.613 1.61 1.226 3.22 1.796 4.942a47 47 0 0 0-1.894-4.559c.842 3.027 1.773 5.697 2.953 8.148q.088.337.172.682c-.178 1.683-.112 2.737-.047 3.791 1.554 2.482 3.377 4.838 4.603 7.473-1.226-2.635-3.05-4.992-4.693-7.104.601 2.157 1.147 4.017 2.008 5.717 2.843 5.613 5.795 11.17 8.742 16.371l.164.447a4 4 0 0 0 .172 1.096c.767 1.065 1.535 2.128 2.313 3.326a24 24 0 0 0-2.399-2.982c1.178 2.04 2.435 3.76 3.719 5.148l.23.41c.33.786.611.963.89 1.141 2.22 3.244 4.438 6.49 6.53 10.164-.127.431.065.555.065.555a338 338 0 0 1 4.437 4.535 218 218 0 0 0-4.267-4.252c2.953 3.255 5.758 6.267 8.572 8.969q.383.443.767.896c.346.783.631.954.916 1.125.575.4 1.15.799 1.735 1.426-.585-.623-1.157-.988-1.711-1.086.666.783 1.31 1.225 1.937 1.34v.002L182 408c.823.313 1.722.529 2.547.838-.812-.277-1.69-.404-2.445-.516 6.535 7.56 13.447 14.176 22.757 17.262q.123.167.248.346c1.06 1.102 1.983 1.556 2.907 2.011.335.075.671.148 1.021.3a1.9 1.9 0 0 0-.93.003c.626.404 1.178.56 1.723.477q.147.117.299.263c1.04 1.043 1.966 1.488 2.893 1.934 4.29 1.554 8.717 2.816 12.843 4.727-4.126-1.911-8.551-3.173-12.718-4.39 6.285 3.526 12.37 6.868 18.625 9.862 8.36 4.003 16.85 7.737 25.242 11.237-3.459-2.324-6.808-4.422-10.303-6.243 3.495 1.82 6.846 3.92 10.666 6.323 1.144.477 1.883.523 2.623.57 2.43.352 4.961.388 7.27 1.121 5.617 1.785 11.13 3.893 17.154 6.307 2.17.481 3.873.528 5.576.574 4.992-1.81 9.53-.487 14.38 2.445 1.865.468 3.243.507 4.622.547 5.29.063 10.593-.057 15.867.27-5.274-.327-10.575-.206-15.662.091 8.084 1.035 15.962 1.711 23.734 2.022-2.125-.749-4.172-1.5-6.226-1.881 2.07.384 4.183 1.146 6.592 1.947 1.216.461 1.96.492 2.703.522.526-.29 1.056-.823 1.578-.881-.522.059-1.038.615-1.365 1.26 12.818.772 25.42 1.367 38.029 1.521 35.902.438 71.807.733 107.71 1.014 49.393.386 98.785.684 148.177 1.09 4.922.04 9.837.72 14.761.834 6.703.155 13.415-.032 20.12.088 5.907.105 11.811.623 17.716.607 7.965-.022 15.928-.51 23.893-.57 18.807-.141 37.617-.147 56.309-.58-2.892-.51-5.753-1.044-8.6-1.463 2.924.429 5.918.983 9.06 1.53 70.252.493 139.925.544 209.6.595.932-.282 1.863-.775 2.795-.897-.929.127-1.834.662-2.564 1.264 17.095.355 33.96.343 50.707-.041-.662-.375-1.286-.709-1.895-.936.671.234 1.414.581 2.356 1.004 12.926.47 25.274.499 37.62.528 1.337-.252 2.672-.663 4.008-.838-1.327.19-2.628.674-3.81 1.226 1.69.456 3.184.566 4.678.584 28.073.343 56.146.742 84.22.98 13.283.113 26.569-.083 39.742-.517q.21.132.43.275c.458 12.766.457 24.875.457 37.14h30.113v-100.52H1192V441c-1.062.538-2.123 1.465-3.186 1.766 1.05-.301 2.045-1.22 2.72-1.721-42.618-.277-84.769-.583-126.919-.924-39.757-.321-79.512-.696-119.27-1.01-11.16-.088-22.321-.082-33.482-.048-6.985.02-13.968.172-20.826.632 1.447.492 2.815.896 4.17 1.067-1.376-.173-2.829-.586-4.63-1.123-27.588-.474-54.588-.524-81.589-.573-1.131.076-2.513.063-3.693.122 1.198-.108 2.372-.244 3.49-.477-3.058-.12-5.914.116-8.498.635.18.005.34-.014.518-.01-.366-.002-.605.04-.987.033-7.438-.274-14.133-.29-20.83-.305-1.423.079-3.086.067-4.558.127 1.484-.11 2.945-.25 4.345-.488-3.728-.12-7.244.12-10.476.649.308.007.586-.018.89-.014-.473-.002-.817.046-1.308.037-2.099-.28-3.496-.296-4.893-.312-1.737.295-3.473.848-5.21.85 1.737-.002 3.473-.555 4.99-1.222a9457 9457 0 0 0-120.805-1.558c-30.774-.2-61.548-.075-92.322-.096-1.331 0-2.662.007-3.993-.021-10.579-.225-21.16-.457-31.615-.319 3.2.525 6.363 1.063 9.51 1.471-3.216-.415-6.507-.972-9.969-1.531-12.583-.48-24.584-.534-36.584-.586-1.079.266-2.157.733-3.236.847 1.076-.12 2.13-.626 3.016-1.216-23.71-.421-47.197-.48-70.684-.485-.691 0-1.382.563-1.78 1.157.708.3 1.251.486 1.753.56-.523-.073-1.147-.254-2.182-.537-2.445-.287-4.166-.304-5.887-.32-.354.23-.711.64-1.064.736.35-.101.682-.552.842-1.106-8.662-.471-17.105-.44-25.538-.707-14.774-.466-29.542-1.114-44.199-1.328.82.525 1.555.949 2.291 1.13-.75-.183-1.552-.615-2.699-1.188-1.894-.449-3.265-.48-4.637-.51-.096.107-.179.273-.287.336.106-.068.167-.275.096-.7-2.112-.634-4.033-.905-5.953-1.177-7.642-1.083-15.283-2.167-22.846-2.904 1.73 1.261 7.87 2.716 14.086 3.73-6.278-1.022-12.533-2.499-14.447-3.797-1.177-.443-1.911-.475-2.647-.506-3.822 1.709-7.1.845-10.318-2.517-.815-.448-1.245-.483-1.676-.52-3.475.034-6.728-.567-9.814-1.79a23.2 23.2 0 0 0 9.652 1.458c-5.955-2.393-11.753-4.466-17.531-6.199q-.22-.18-.438-.365c-.722-.77-1.3-.915-1.877-1.059-1.04.022-2.255.382-3.162.149.905.228 2.104-.169 3.012-.485-6.645-3.526-13.188-6.625-19.623-9.931-7.458-3.832-14.82-7.847-22.2-11.428.211.47.38.908.567 1.256-.21-.382-.416-.894-.709-1.518-.74-.765-1.31-.915-1.88-1.066-.935-.55-1.868-1.1-2.8-1.77.928.642 1.841 1.123 2.711 1.446-1.35-1.103-2.614-1.888-3.873-2.35l-.035-.031c.004-.238-.008-.303-.015-.32l-.002-.003v-.002l-.002-.001h-.002c-2.373-2.326-4.747-4.653-7.32-7.42-.201-.442-.663-.594-.663-.594-.79-.613-1.582-1.227-2.375-2.014q1.191 1.16 2.356 1.668c-1.003-1.111-1.985-1.879-2.961-2.306l-.006-.008c-.003-.346-.01-.342-.01-.342-1.39-1.812-2.782-3.625-4.183-5.56a94 94 0 0 0 4.166 5.204c-2.252-3.31-4.487-6.29-6.754-8.927l-.366-.553c-.328-.79-.602-.974-.875-1.158-3.136-4.67-7.056-9.005-9.23-14.086 2.174 5.081 6.094 9.416 9.219 13.72a25 25 0 0 0-1.19-3.025c-4.062-8.765-8.3-17.454-12.117-26.324-1.68-3.905-2.512-8.176-4.006-12.049-.288.912-.551 1.707-.457 2.373-.095-.671.165-1.512.42-2.783.168-2.009.096-3.375.024-4.742-1.037-2.719-2.67-5.391-3.225-8.147.558 2.75 2.202 5.377 3.344 7.737-2.78-11.848-2.256-23.31-.49-34.735-1.03 1.471-2.292 2.888-2.805 4.332.514-1.458 1.788-2.938 2.879-4.719.472-1.484.517-2.532.56-3.58-.234-.835-.86-1.818-.72-2.511-.14.692.507 1.667 1.058 2.361 4.058-12.359 10.72-22.982 17.816-33.377-.502-.055-.962-.106-1.292-.066.337-.046.813-.008 1.363.013.373.119.494.002.508-.013l.002-.002c.768-1.172 1.535-2.343 2.81-3.793 1.513-1.397 2.52-2.516 3.526-3.635.429-.55.858-1.1 1.386-1.664a7 7 0 0 0-1.04 1.648c1.045-.934 1.787-1.854 2.23-2.775q.153-.13.318-.26a4 4 0 0 0 1.027-.281c.708-.808 1.415-1.615 2.227-2.406a13.5 13.5 0 0 0-1.908 2.455c1.403-1.18 2.506-2.404 3.273-3.67q.05-.043.102-.084c.271.045.335.023.347.004v-.002l.002-.002v-.01l-.002-.002c.428-2.406 1.544-4.031 3.127-5.164-1.501 1.119-2.531 2.724-2.793 5.09 3.109-2.376 5.887-4.678 8.479-7.254l.314-.06c.946-.046 1.415-.332 1.883-.618.597-.929 1.022-2.244 1.717-2.953-.685.707-1.055 2.012-1.371 2.885 7.3-3.583 14.27-7.102 21.02-10.84l.818-.285c1.325.135 2.054.067 2.785 0 .643-.788 1.166-2.056 1.924-2.385-.756.33-1.256 1.604-1.535 2.483 9.34-1.541 18.243-4.05 27.261-4.575 9.073-.528 18.259.887 27.307 1.11.15.032.28.043.432.076.836.469 1.267.508 1.697.549 4.69-1.698 8.97-.777 13.404 2.453 1.495.474 2.544.521 3.592.568 1.28-.006 2.559-.014 3.953.09a15.2 15.2 0 0 0-3.742.254c2.084.325 3.962.313 5.742-.03l.365.057c.848.423 1.28.443 1.713.463 1.033.16 2.212.456 3.272.64-1.06-.137-2.113-.257-3.13-.275 2.729.758 5.315 1.152 7.821 1.204-.166-.046-.325-.062-.49-.106.306.075.539.083.853.166 1.178.444 1.91.484 2.645.524 5.681.874 11.387 1.624 17.033 2.687-5.646-1.063-11.351-1.814-16.855-2.351 7.756 2.003 15.335 3.669 22.824 4.996-1.79-.989-3.462-1.979-5.213-2.467 1.756.49 3.467 1.488 5.572 2.539 1.184.45 1.92.49 2.653.531 1.977.384 3.953.766 6.31 1.56.81.452 1.241.492 1.672.532.475.015.958.037 1.559.164.269.057.555.128.886.24 1.115.377 1.849.414 2.582.451 1.982.395 3.963.79 6.36 1.594 1.148.452 1.882.496 2.615.54 1.414.266 2.977.666 4.418.956-1.43-.247-2.855-.483-4.23-.623 3.754 1.025 7.32 1.715 10.798 2.065-.397-.11-.779-.172-1.174-.274.538.134.984.185 1.538.332 1.187.431 1.922.463 2.658.494 1.296.267 2.74.668 4.062.96-1.316-.248-2.627-.48-3.894-.616 3.417 1.019 6.668 1.692 9.838 2.031-.282-.084-.552-.13-.832-.21.42.114.76.156 1.191.28 1.174.445 1.908.484 2.64.524 3.721-2.634 6.017 1.037 9.393 2.418 1.52.456 2.565.51 3.612.563 6.624 1.385 13.25 2.77 20.285 4.558.842.433 1.273.465 1.705.494 4.22-2.39 7.531.047 11.361 2.465 1.176.44 1.909.479 2.643.518 3.658-2.322 6.284-.115 9.392 2.435 1.517.448 2.564.495 3.612.541 1.419.272 2.974.679 4.418.975-1.438-.25-2.87-.485-4.262-.623 3.744 1.038 7.33 1.724 10.826 2.072-.043-.012-.084-.017-.127-.03.158.043.286.055.445.098.84.435 1.272.464 1.703.493 6.924-.034 13.7.635 20.34 4.529 1.184.432 1.92.464 2.655.494 3.339-1.985 5.775-.433 8.435 2.447 1.828.455 3.2.498 4.569.541 1.32.277 2.799.688 4.15.99-1.35-.26-2.693-.498-3.994-.64 3.411 1.031 6.666 1.712 9.84 2.06-.46-.139-.903-.222-1.36-.35.611.164 1.113.235 1.748.419 1.515.45 2.562.502 3.61.553 6.301 1.355 12.602 2.71 19.351 4.472 1.181.447 1.915.484 2.649.524 1.18.225 2.358.45 3.574.765a23 23 0 0 0-3.412-.422c2.157.715 4.183 1.15 6.164 1.295q.43.166.869.356c2.115.793 3.956.911 5.799 1.031 1.173.267 2.497.668 3.697.96-1.195-.25-2.385-.482-3.533-.62 3.082 1.015 6.002 1.691 8.855 2.031-.467-.155-.92-.249-1.384-.388.618.178 1.124.254 1.771.459 1.5.455 2.548.504 3.596.552 6.312 1.344 12.625 2.689 19.37 4.444 1.168.452 1.9.492 2.634.533 3.549-1.76 6.506-.894 9.425 2.455 1.475.48 2.52.537 3.565.596 1.281.267 2.695.668 4 .959-1.293-.247-2.582-.483-3.826-.623 3.415 1.027 6.657 1.718 9.818 2.072-.267-.081-.523-.126-.789-.203.39.108.71.148 1.11.265.833.427 1.264.454 1.697.48.871-.135 1.774-.416 2.646-.554.43-.068.855-.116 1.26-.066a4 4 0 0 0-1.26.066c-.853.17-1.713.55-2.47.899 8.281 2.133 16.407 3.841 24.49 5.732 14.424 3.374 28.802 6.95 43.242 10.252 6.003 1.373 12.115 2.263 18.09 3.033-7.962-2.438-15.803-4.663-23.715-6.603 7.912 1.94 15.754 4.166 24.033 6.671.839.428 1.27.449 1.703.47.948-.205 1.956-.672 2.877-.757-.914.1-1.897.633-2.732 1.12a744 744 0 0 0 30.273 7.662c4.84 1.118 9.763 1.865 14.57 2.443-4.58-1.727-9.036-3.293-13.593-4.469 4.557 1.176 9.014 2.742 13.912 4.537.828.429 1.26.452 1.691.475.953-.202 1.97-.674 2.89-.746-.915.087-1.908.623-2.747 1.107 5.47 1.792 10.755 3.423 16.139 4.596 5.538 1.206 11.175 1.965 16.683 2.58-.363-.49-.652-.87-.963-1.07.325.201.67.594 1.281 1.133.837.43 1.268.459 1.7.488 3.913-2.194 6.933-.104 10.324 2.472.823.424 1.255.448 1.687.471.781-.243 1.646-.803 2.364-.805-.716.007-1.563.608-2.207 1.16 5.324 1.758 10.45 3.343 15.672 4.512 5.362 1.201 10.816 1.995 16.152 2.627-9.82-3.001-19.553-5.697-29.32-8.263 9.767 2.566 19.5 5.263 29.638 8.328.828.431 1.26.46 1.692.488 3.906-2.15 7.041-.621 10.365 2.482 1.167.442 1.9.48 2.635.518 3.884-2.03 6.959-.21 10.32 2.494.822.428 1.254.454 1.685.48 2.343.01 4.752-.335 7.014.096-2.262-.43-4.672-.086-6.857.258 9.846 2.78 19.496 5.384 29.24 7.565 5.813 1.3 11.776 1.939 17.6 2.53-7.111-2.307-14.118-4.398-21.2-6.196 7.082 1.798 14.088 3.89 21.56 6.261 1.17.436 1.906.463 2.642.49 3.64-.106 7.28-.254 10.921-.31 7.487-.116 14.976-.184 23.163.002 2.068.21 3.438.147 4.808.084 1.428-1.977 3.17-2.958 5.186-3.322-1.923.371-3.569 1.394-4.791 3.441 3.822-.875 7.249-1.87 10.414-3.144a23 23 0 0 0-1.35-.252c.572.075 1.115.105 1.717.224 1.362.192 2.095.132 2.828.07.899-.726 1.739-1.598 2.635-2.331-.857.74-1.596 1.65-2.258 2.44 2.457-.71 4.534-1.54 6.617-2.35 8.765-3.415 17.583-6.699 26.285-10.266a983 983 0 0 0 28.934-12.383c5.386-2.412 10.562-5.29 15.63-8.233-.198-.018-.388-.03-.58-.04.294.006.54-.007.876.011.975-.022 1.453-.29 1.931-.558 1.853-1.313 3.57-2.942 5.53-4.006-1.956 1.064-3.629 2.693-5.147 4.01 2.006-.68 3.621-1.382 5.254-2.041 9.116-3.683 18.236-7.356 27.127-11.323-.862-.265-1.676-.558-2.37-.584.714.022 1.595.31 2.694.555.984.213 1.415.164 1.846.115 2.034-.492 4.108-1.302 6.152-1.875-1.98.585-3.934 1.437-5.709 1.988 9.955.8 19.485 1.303 28.971 2.243 5.283.523 10.495 1.772 15.646 2.345-.55-.609-1-1.11-1.494-1.3.498.19.983.7 1.813 1.36.842.443 1.274.478 1.705.513 1.156.268 2.443.669 3.623.96-1.169-.249-2.334-.484-3.455-.626 3.08 1.027 5.994 1.72 8.832 2.076-.353-.12-.694-.189-1.045-.3.477.145.87.203 1.363.362.827.428 1.26.456 1.692.483 1.172.27 2.487.675 3.685.97-1.192-.253-2.378-.49-3.521-.632 3.082 1.022 6 1.705 8.843 2.056-.401-.134-.788-.213-1.187-.336.542.16.984.226 1.547.407 1.165.45 1.898.498 2.63.544a38 38 0 0 1 3.014.995c.454.17.88.312 1.395.543 2.143.724 3.876 1.046 5.61 1.369 2.602.403 5.25.62 7.794 1.26 3.093.776 6.097 1.909 9.516 3.316.808.46 1.239.491 1.67.523 1.171.27 2.488.672 3.685.965-1.191-.252-2.377-.486-3.52-.627 3.084 1.018 6.001 1.697 8.843 2.045-.403-.134-.79-.213-1.19-.336.543.16.986.227 1.55.406 1.17.45 1.9.498 2.632.545.935.269 2.022.673 2.986.967-.967-.258-1.924-.491-2.848-.63 2.412.994 4.685 1.653 6.895 1.988-.571-.237-1.123-.394-1.686-.594.714.244 1.298.372 2.073.67 1.495.455 2.541.51 3.588.564 1.164.27 2.461.674 3.65.969-1.185-.25-2.365-.483-3.508-.621 3.074 1.028 6.004 1.707 8.85 2.053-.211-.071-.413-.11-.623-.178.332.103.599.14.94.25.83.448 1.261.49 1.69.531 3.124.378 6.369.343 9.344 1.223 5.61 1.658 11.062 3.844 17.047 6.217 1.514.46 2.561.513 3.608.566 1.183.274 2.512.682 3.722.98-1.209-.257-2.412-.493-3.576-.634 3.076 1.025 6.005 1.705 8.858 2.052-.441-.147-.866-.235-1.303-.369.581.17 1.057.244 1.664.438 1.17.44 1.905.477 2.639.515 1.49.164 2.972.372 4.466.514a79 79 0 0 0-4.316-.162c7.738 1.718 15.326 3.084 22.828 4.102-4.313-1.343-8.511-2.491-12.775-3.28 4.264.789 8.46 1.937 13.136 3.34 1.185.44 1.922.471 2.657.502 2.892-.266 5.783-.744 8.677-.764-2.894.02-5.786.498-8.488 1.13 4.884 1.105 9.554 2.248 14.274 2.517 21.707 1.238 43.119-1.782 64.484-5.057 2.427-.372 4.68-1.864 6.775-3.125-1.274-.229-2.413-.404-3.478-.314 1.075-.09 2.266.08 3.845.283 1.34.197 2.074.137 2.807.076.962-.676 1.873-1.505 2.832-2.191-.917.695-1.728 1.565-2.45 2.308 5.21-1.75 10.05-3.58 14.856-5.49 20.262-8.053 35.58-22.009 47.887-39.72 7.34-10.564 12.163-22.213 15.674-34.442 1.42-4.949 2.013-10.135 2.646-15.129-1.347 3.01-2.483 5.898-3.343 8.867.86-2.969 1.996-5.859 3.408-9.297.423-2.538.446-4.562.469-6.588-.208-7.793-.416-15.586-.344-23.99.225-1.04.17-1.47.115-1.9-.716-1.222-1.632-2.402-2.373-3.62.75 1.17 1.71 2.242 2.49 3.214.098-1.405.351-2.508.018-3.387-4.692-12.36-9.039-24.876-14.34-36.973-4.981-11.366-13.196-20.582-22.518-28.674-8.651-7.51-18.394-13.458-29.138-17.41-6.773-2.49-13.914-3.976-20.815-5.572a48 48 0 0 0 6.356 3.139c-2.122-.864-4.188-1.864-6.674-3.205-.826-.435-1.256-.464-1.687-.495-1.208.19-2.474.686-3.637.641 1.16.04 2.41-.495 3.492-.992-10.647-1.785-21.142-4.284-31.658-4.38-12.945-.116-25.913 1.7-38.856 2.853-2.469.22-4.867 1.23-7.021 2.18 11.123-.362 21.992-.757 32.806-1.755-10.814.998-21.684 1.394-33.26 1.78-3.737-.203-6.742-.128-9.75-.053-4.231 3.791-9.31 3.855-15.244 3.031-3.061-.19-5.41-.113-7.757-.035-1.74 2.005-3.734 2.911-5.893 3.289 2.058-.397 3.93-1.364 5.486-3.41-5.16.863-9.916 1.848-14.394 3.13 2.96.31 5.889.761 8.531.343-2.747.396-5.758-.023-8.924-.317-1.719-.214-2.769-.156-3.818-.098-5.34 3.721-11.33 4.025-18.186 3.053-1.726-.208-2.774-.154-3.824-.1-1.967.506-3.935 1.012-6.039 1.454a56 56 0 0 0 5.621-1.563c-3.439.576-6.47 1.259-9.258 2.225q-.22.034-.443.066c-1.007-.22-1.438-.171-1.87-.123-.213.338-.4.898-.632 1.09.222-.195.35-.772.195-1.213-6.83.891-13.221 1.904-19.345 3.211l-.442.03c-2.72-.192-4.74-.118-6.76-.044-4.344 3.307-9.243 4.175-15.218 3.032-2.053-.212-3.424-.155-4.795-.098-3.21.68-6.418 1.36-9.787 1.978a159 159 0 0 0 9.369-2.095c-5.413.85-10.419 1.814-15.166 3.058q-.32.049-.64.094c-2.047-.204-3.417-.149-4.788-.094-3.648.688-7.298 1.375-11.113 2.002a212 212 0 0 0 10.682-2.115c-6.074.865-11.73 1.839-17.118 3.08q-.33.046-.66.088c-2.055-.19-3.424-.13-4.795-.072-2.335 4.07-6.141 2.453-10.226 2.197-4.392.087-8.084.442-11.776.797-1.094 2.022-2.595 2.63-4.328 2.693 1.643-.067 3.045-.71 3.922-2.799-3.151.582-5.896 1.27-8.394 2.252 1.404.233 2.801.538 4.074.553-1.36-.013-2.843-.303-4.399-.527-1.001-.22-1.433-.17-1.863-.12-.113.246-.205.659-.332.796.118-.14.15-.569-.111-.912-6.823.875-13.203 1.868-19.323 3.154l-.484.037c-3.054-.21-5.403-.152-7.754-.096-.971.74-1.895 1.949-2.904 2.322 1.003-.375 1.88-1.597 2.482-2.433-6.495.887-12.57 1.883-18.369 3.172 5.337.018 10.414-.109 15.45-.633-5.036.524-10.112.652-15.774.662-1.031-.215-1.462-.169-1.893-.121-2.676 4.32-6.84 2.38-11.144 2.219-1.364-.225-2.098-.167-2.832-.11-3.368.909-6.686 2.17-10.114 2.657 3.428-.487 6.745-1.75 9.68-2.784-9.799 1.024-19.18 2.07-28.523 3.377-3.739.523-7.396 1.62-10.826 2.756l-.395.035c-1.37-.223-2.105-.174-2.84-.125-2.963 2.003-6.13 2.917-9.482 3.262 3.25-.354 6.308-1.311 9.049-3.377-6.5.888-12.565 1.89-18.348 3.18 1.736.186 3.447.324 5.123.363a70 70 0 0 1-5.518-.336c-1.725-.204-2.775-.146-3.824-.09-1.364.436-2.74.813-4.1 1.272 1.25-.46 2.51-.923 3.676-1.383-6.163.89-11.9 1.888-17.355 3.172 2.11.308 4.078.73 5.883.523-1.81.207-3.818-.212-6.25-.492-1.385-.199-2.118-.144-2.852-.09-2.434.91-4.817 2.128-7.273 2.906 2.435-.783 4.738-2.025 6.851-3.019-1.248-.106-2.089-.195-2.9-.08-11.903 1.682-23.816 3.289-35.69 5.158-3.414.538-6.706 1.852-9.789 3.098 2.377.236 4.515.38 6.596.1-2.08.28-4.22.136-7.03-.069-2.718-.192-4.738-.126-6.759-.06-4.143 4.177-9.415 3.377-15.232 3.044-2.727-.178-4.747-.107-6.766-.035-2.122 1.037-4.163 2.456-6.356 3.16 2.188-.706 4.184-2.137 5.95-3.275-5.493.879-10.578 1.872-15.38 3.158 2.27.274 4.436.658 6.477.6-2.057.06-4.287-.318-6.8-.57-1.039-.213-1.468-.161-1.897-.11-3.278 1.128-6.483 2.845-9.85 3.268 3.367-.423 6.571-2.14 9.422-3.38-6.79.598-13.178 1.128-19.511 2.046-22.024 3.19-42.74.218-61.637-12.282l.187.538c-.08-.218-.166-.405-.248-.63.114-.392-.042-.518-.062-.533h-.002c-2.483-.237-4.467-1.124-5.977-2.69 1.496 1.524 3.438 2.338 5.823 2.41-2.844-2.506-5.536-4.733-8.266-6.598l-.016-.045c.038-.255.03-.33.02-.352l-.002-.002v-.002l-.002-.002h-.002v-.002h-.006c-.483-.329-.966-.658-1.443-1.12q.72.66 1.433.78c-.652-.776-1.295-1.218-1.945-1.336l-.01-.013c.011-.256.001-.312-.004-.324v-.004h-.002c-3.632-1.75-6.108-4.381-7.832-7.686 1.727 3.266 4.199 5.813 7.82 7.33-3.33-4.76-6.65-9.166-10.005-13.197l-.016-.06c.036-.276.026-.348.016-.366l-.002-.002-.002-.002h-.002v-.002h-.002l-.002.002c-.995-.91-2.33-1.657-3.066-2.693.736 1.03 2.07 1.736 3.052 2.328-.701-1.656-1.427-2.93-2.07-4.242-4.292-8.77-8.874-17.412-12.764-26.358-4.318-9.932-7.8-20.225-12.013-30.207-4.152-9.836-8.469-19.626-13.268-29.158-3.894-7.735-7.477-16.092-13.197-22.346-11.848-12.953-26.198-22.948-42.992-28.878-3.788-1.338-7.694-3.018-11.606-3.194-5.086-.228-10.199-.461-15.302-.513m618.634 328.365c-2.975-.88-6.22-.844-9.2-.865a395 395 0 0 0 25.862 7.005c-5.6-2.297-11.053-4.482-16.662-6.14m-54.537-14.03c-2.543-.638-5.193-.856-7.648-.902 5.733 1.743 11.319 3.13 16.846 4.152-3.102-1.34-6.105-2.473-9.198-3.25m-14.799-3.171c-1.008-.407-1.985-.628-2.892-.666 1.396.706 2.67 1.084 3.91 1.134a12 12 0 0 0-1.018-.468m-230.084 37.648c-3.641.056-7.281.205-10.742.672 1.451.618 2.712 1.023 3.994 1.11 9.982.673 20.003 1.99 29.498-1.753-7.775-.212-15.263-.145-22.75-.029M372.56 227.168c-.519-.115-1.009-.076-1.42.125.748.295 1.357.301 1.945.041a3.3 3.3 0 0 0-.525-.166M267.268 454.125c-2.309-.733-4.839-.769-7.118-.785 5.287 2.077 10.39 3.92 15.57 5.52 2.71.836 5.551 1.248 8.284 1.494-5.605-2.337-11.12-4.444-16.736-6.229m721.968 482.068c-3.235-.99-6.799-.909-10.07-.959 8.406 2.707 16.668 5.064 24.865 7.075-4.963-2.307-9.767-4.576-14.795-6.116M569.697 10.195c-3.485.876-6.586 1.863-9.431 3.125 4.088 1.056 7.418.38 9.431-3.125M520.701 21.22c-3.487.871-6.587 1.861-9.435 3.13 4.096 1.09 7.38.258 9.435-3.13m-68.22 17.478q-.076.012-.153.022.077-.01.152-.022M355.165 60.06a7.5 7.5 0 0 1-.969.478 7 7 0 0 0 .969-.478m930.514 61.197c-5.165.863-9.913 1.85-14.387 3.13 5.492.85 10.572.785 14.387-3.13m-42.026 5.94c-6.168.87-11.906 1.86-17.361 3.142 6.463 1.002 12.45.697 17.361-3.143m-60.959 8.077c-5.16.86-9.917 1.847-14.402 3.131 5.564 1.171 10.464.304 14.402-3.13m-64.04 8.88c-3.487.59-6.557 1.286-9.368 2.277 3.643.281 7.45 1.898 9.367-2.278m235.458 4.76c-2.301-.13-4.612.384-6.908 1.401 4.741.73 9.294 1.078 13.76 1.069-2.259-1.566-4.55-2.341-6.852-2.47m-317.47 6.232c-3.822.596-7.215 1.3-10.348 2.306 3.936.182 8.099 2.121 10.348-2.306m362.457 11.162c1.026.783 1.954 1.251 2.865 1.396-1-.787-1.981-1.248-2.865-1.396m-639.965 8.298c.013.029.023.062.037.09-.013-.027-.024-.062-.037-.09m120.533 2.594c-5.164.873-9.91 1.86-14.383 3.13 5.384.363 10.657 1.162 14.383-3.13m-574.66 3.467c3.035 2.684 6.081 4.646 9.818 2-3.41-1.011-6.648-1.675-9.818-2m34.012 5.928c2.034.706 4.002 1.079 5.816 1.111-2.064-.71-3.974-1.077-5.816-1.111m48.998 11.008c2.035.704 4.003 1.076 5.822 1.103-2.062-.708-3.977-1.072-5.822-1.103m1071.39 11.158c.129.35.295.69.477 1.025a8 8 0 0 1-.477-1.025m-1153.24 3.47c-1.623-.028-3.278.323-4.961 1.092 4.426 1.033 8.65 1.713 12.816 2.033-2.528-1.976-5.15-3.077-7.855-3.125m1156.4 4.084c-.093 8.08.115 15.872.702 23.465.787-4.374 1.596-8.558 1.486-12.718-.098-3.692-1.218-7.356-2.188-10.747M363.16 225.258c2.066.73 3.989 1.113 5.85 1.15-2.039-.73-4.016-1.113-5.85-1.15m13.002 2.955c2.062.743 3.988 1.132 5.861 1.176-2.034-.74-4.015-1.135-5.86-1.176m38.758 6.91c-.846-.013-1.75.301-2.754 1.14 3.081 1.007 6.013 1.662 8.857 1.99-2.15-.937-3.94-3.097-6.103-3.13m10.25 4.127c6.474 1.028 13.099 2.414 19.814 4.14a215 215 0 0 1-19.814-4.14m25.621 3.83c-1.147.005-2.338.353-3.602 1.207 3.753 1.026 7.326 1.709 10.819 2.057-2.385-1.617-4.693-3.274-7.217-3.264m-254.478 2.809c-1.135 1.155-1.903 2.327-2.4 3.359 1.101-1.207 1.933-2.274 2.4-3.36m267.914.172c-.954.022-1.964.38-3.059 1.214 3.081 1.013 6.008 1.679 8.852 2.016-1.872-1.703-3.697-3.28-5.793-3.23m964.476 1.066c-.702 1.388-1.078 2.655-1.123 3.887.703-1.36 1.077-2.683 1.123-3.887m-936.457 6.057a52 52 0 0 0-5.068.062A217 217 0 0 0 507 257.354c-4.709-2.872-9.699-3.967-14.754-4.17m20.711 3.945c-.866.05-1.787.398-2.781 1.125 2.748 1.018 5.336 1.695 7.87 2.033-1.55-1.93-3.185-3.267-5.089-3.158m-363.268.014a117 117 0 0 1-5.097 12.84c1.364-4.191 3.066-8.446 5.097-12.84m387.48 7.14a198 198 0 0 1 18.835 4.053c-6.169-1.008-12.423-2.355-18.834-4.053m48.009 11.01a199 199 0 0 1 18.842 4.027c-6.176-.999-12.425-2.34-18.842-4.027m25.63 3.83c-1.147-.017-2.354.353-3.62 1.14 3.085 1.022 5.996 1.704 8.865 2.04-1.584-2.046-3.331-3.151-5.244-3.18m785.844 18.885c-1.442 1.015-2.55 2.002-3.295 3.01 1.453-.999 2.54-2.02 3.295-3.01m-626.406 18.068q.107.004.211.018a2 2 0 0 0-.266-.016zm281.953.432c.043-.003.105.004.149.002-.059.002-.12-.002-.178.002zm-246.697 7.607c-1.054.018-2.155.36-3.328 1.153 3.412 1.029 6.665 1.714 9.846 2.064-2.113-1.726-4.2-3.255-6.518-3.217m46.654 10.903c-1.256-.064-2.577.305-3.982 1.24 3.411 1.032 6.666 1.719 9.847 2.07-1.851-1.897-3.77-3.205-5.865-3.31m12.338 3.142c-1.057.027-2.16.36-3.326 1.104 3.409 1.037 6.666 1.725 9.85 2.078-2.093-1.814-4.199-3.24-6.524-3.182m520.494.533a7 7 0 0 0-.904.54 8 8 0 0 1 .904-.54m-405.29 7.834a7 7 0 0 0-.9.627c.294-.226.586-.45.9-.627m-9.962 2.649c.289.013.617.09.914.119-.9-.109-1.773-.155-2.597-.086a13 13 0 0 1 1.683-.033m-765.86 34.521c2.37 1.98 4.716 4.303 7.08 6.975-2.356-1.978-4.729-4.304-7.079-6.975m77.112 41.916c2.9 3.298 6.177 4.162 9.82 2.108-3.414-1.049-6.65-1.752-9.82-2.108m1231.026 25.088c7.838 3.5 15.78 4.373 23.763 2.026a278 278 0 0 0-23.763-2.026m-1216.526 9.592c-1.735-.067-3.498.252-5.299 1.062 4.748 1.025 9.305 1.7 13.784 2.022-2.778-1.786-5.593-2.973-8.485-3.084m1318.524 1.408c5.46 3.118 10.981 4.65 16.773 2.051-5.75-1.036-11.308-1.713-16.773-2.05m-424.19 12.063q.103.054.207.113c-.069-.037-.139-.078-.207-.113m585.215 7.834c5.52 3.392 11.191 2.959 16.752 1.168a133 133 0 0 0-16.752-1.168M473.408 601.805c-1.946-.034-3.68.19-5.172.619l.043.002-.494-.01c-3.996-.229-7.266-.22-10.535-.21a105 105 0 0 1-3.486 1.14c1.18-.386 2.202-.785 3.056-1.21 3.7.06 6.97.053 10.69.052 2.173-.206 3.95-.418 5.898-.383m36.498 3.25c-1.882.072-3.786.52-5.693 1.244 5.095 1.025 9.99 1.687 14.82 1.994-2.915-2.433-5.99-3.359-9.127-3.238m-336.14 11.174c-1.157.05-2.345.385-3.575 1.066 3.754 1.03 7.325 1.711 10.829 2.043-2.322-1.96-4.71-3.22-7.254-3.11m51.265 5.652c-1.733.034-3.467.068-5.855.164-.826.333-.996.605-.975 1.232 2.723.12 5.254-.115 7.715-.591a3.6 3.6 0 0 0-.885-.805m1940.725 94.265c-2.625-.038-4.939.647-6.42 3.682 4.147-.9 7.897-1.9 11.371-3.182-1.688-.192-3.376-.476-4.951-.5m-94.416 92.874c-2.905 6.524-4.665 13.04-2.037 19.76 1.03-6.758 1.708-13.305 2.037-19.76M748.098 868.03c.261.048.533.07.798.109-.265-.038-.536-.06-.798-.11m669.09 8.283c4.106.347 8.396 1.038 12.787 2.076-4.134-.346-8.37-1.04-12.787-2.077m34.164 5.279c-.449.007-.866.246-1.235.625.702.44 1.298.584 1.895.728.004-.21.01-.42-.032-1.209a1.4 1.4 0 0 0-.628-.144m.708.408c-.038.525-.043.736.032 1.193.703.297 1.325.345 1.92.018-.659-.76-1.288-1.143-1.951-1.211m13.918 1.016c-2.442-.162-4.938.396-7.353.972 5.015 1.077 9.728 1.903 14.38 2.375-2.195-2.304-4.584-3.186-7.027-3.347m11.227 4.289c3.763.358 7.727 1.048 11.774 2.084-3.803-.354-7.689-1.053-11.774-2.084m-641.25 4.82c-.849-.016-1.765.306-2.79 1.13 2.74 1.027 5.334 1.716 7.853 2.077-1.657-1.509-3.196-3.173-5.063-3.207m17.207 7.06c2.057.757 3.983 1.159 5.838 1.231-2.038-.747-4.002-1.167-5.838-1.23m20.793 3.934c-.843-.028-1.753.289-2.777 1.137 2.749 1.017 5.335 1.698 7.847 2.05-1.687-1.4-3.215-3.126-5.07-3.187m10.475 3.1c-.676.002-1.42.295-2.278 1.037 2.41 1.004 4.683 1.67 6.875 2.017-1.586-1.164-2.87-3.06-4.597-3.054m7.73 4.023c5.151 1.036 10.438 2.424 15.82 4.153-5.165-1.04-10.422-2.42-15.82-4.153m744.787 3.828c-1.536-.077-3.106.235-4.744 1.21 5.083 1.028 9.977 1.713 14.772 2.052-3.428-1.037-6.647-3.092-10.028-3.262m-695.793 10.203c5.074 1.696 10.007 3.04 14.881 4.032-4.226-4.738-9.874-3.628-14.88-4.032m775.227 3.721c-1.351.025-2.738.399-4.182 1.264 4.412 1.035 8.645 1.715 12.795 2.06-2.842-1.755-5.64-3.38-8.613-3.324m17.803 3.072c-1.623-.05-3.286.31-5.002 1.17 4.401 1.048 8.645 1.746 12.814 2.104-2.52-1.961-5.108-3.189-7.812-3.274m-588.265 50.131c-.846-.01-1.75.29-2.745 1.076 3.08 1.026 5.998 1.712 8.834 2.065-2.115-1.077-3.923-3.116-6.088-3.14m10.51 2.994c-.673 0-1.416.296-2.275 1.059 2.412.993 4.687 1.649 6.877 1.988-1.608-1.095-2.88-3.044-4.601-3.047m7.733 4.026c5.163 1.03 10.464 2.415 15.842 4.144-5.182-1.033-10.444-2.412-15.842-4.144m27.625 4.119c-2.686.038-4.733.326-6.574.973 6.433 1.007 12.66 1.656 18.77 1.964-3.061-1.025-6.002-1.708-8.944-2.392a25 25 0 0 1-3.252-.545" style="fill:#fff;fill-opacity:1"/></svg>