<svg viewBox="0 0 2582 1000" xml:space="preserve" xmlns="http://www.w3.org/2000/svg"><path d="M480.42 10.268c-15.744-.492-31.537.337-47.3.832-4.19.13-8.368 1.06-12.524 1.777-5.761.993-11.544 1.927-17.233 3.25-10.658 2.478-21.318 4.99-31.861 7.908-11.165 3.09-22.184 6.7-33.285 10.024-7.855 2.352-15.76 4.538-23.604 6.925a1566 1566 0 0 0-25.808 8.12c-10.543 3.408-21.058 6.908-31.578 10.386-6.567 2.171-13.115 4.4-19.686 6.559-8.265 2.716-16.612 5.198-24.793 8.146-5.408 1.95-10.516 4.722-15.883 6.803-8.526 3.306-17.564 5.541-25.652 9.668-14.194 7.242-28.406 14.73-41.547 23.678-13.79 9.389-26.902 19.99-39.205 31.267-7.52 6.893-12.996 16.029-19.315 24.215-2.777 3.599-5.668 7.163-7.966 11.063-2.942 4.991-5.375 10.288-7.96 15.486-4.29 8.629-8.94 17.112-12.632 25.992-2.2 5.293-2.806 11.24-4.233 16.867-1.699 6.705-3.993 13.299-5.148 20.09-1.507 8.86-1.481 18.007-3.3 26.783-3.724 17.96-2.127 35.709 1.113 53.381 2.121 11.575 5.252 22.968 8.052 34.412.793 3.24 1.917 6.41 3.053 9.553 3.066 8.482 5.722 17.159 9.45 25.344C58.041 423 65.07 436.953 72.1 450.893c5.15 10.214 10.168 20.557 16.205 30.244 4.462 7.16 10.447 13.374 15.799 19.974a7407 7407 0 0 0 23.564 28.926c7.5 9.155 15.041 18.275 22.574 27.402a22012 22012 0 0 0 24.674 29.854c8.36 10.092 16.793 20.123 25.094 30.264 9.729 11.885 19.277 23.92 29.039 35.777 8.788 10.675 17.843 21.131 26.629 31.809 9.904 12.036 19.564 24.272 29.467 36.31 8.794 10.691 17.888 21.138 26.644 31.86 10.75 13.161 21.21 26.558 31.94 39.736 8.31 10.207 16.891 20.195 25.265 30.351 7.177 8.706 13.512 18.248 21.526 26.084 9.44 9.232 20.216 17.114 30.552 25.407 5.3 4.251 10.692 8.454 16.42 12.086 7.885 5 16.028 9.621 24.242 14.066 8.348 4.516 16.786 8.912 25.428 12.822 8.322 3.766 16.983 6.777 25.442 10.248 5.056 2.075 9.89 4.754 15.046 6.506 4.704 1.599 9.741 2.186 14.57 3.451 5.766 1.51 11.428 3.42 17.206 4.877 5.946 1.5 11.943 2.86 17.98 3.926a589 589 0 0 0 25.54 3.941c11.342 1.494 22.692 3.506 34.087 3.895 19.334.66 38.707.228 58.063.252 5.524.007 11.048.042 16.572-.006 38.264-.334 76.527-.69 114.791-1.03 3.33-.029 6.66.065 9.988.003 16.498-.31 32.995-.793 49.494-.957 41.93-.418 83.859-.643 125.788-1.065 13.43-.135 26.857-.746 40.289-.957 25.46-.4 50.92-.861 76.382-.953 46.832-.168 93.665-.067 140.496-.158 2.639-.005 5.275-.725 7.432-1.041v-33.524h-35.29c-.766.494-1.53 1.363-2.296 1.573.759-.212 1.473-1.092 1.834-1.674-10.007-.1-19.553-.139-29.098-.057-1.496.013-2.987.571-4.195 1.184 10.568.426 20.85.588 31.131.592a879 879 0 0 1-31.459-.555c-1.05-.218-1.488-.166-1.924-.113-1.19.513-2.37 1.397-3.566 1.63 1.19-.235 2.32-1.13 3.105-1.728-38.66.245-76.857.59-115.054.924-4.825.042-9.652-.032-14.475.068-1.02.021-2.03.57-2.803 1.174 2.117.567 4.093 1.165 6.041 1.447-1.969-.28-4.025-.87-6.455-1.414-2.044-.285-3.433-.306-4.82-.326-.067.006-.37.015-.48.022.226-.014.34-.072.417-.266-.357-.082-.651.082-.693.267q.152.004.264-.001c-.169.01-.199.017-.713.03-3.4-.013-6.098-.034-8.797-.056a28 28 0 0 1-2.463.258c.845-.065 1.619-.245 2.322-.58-1.381-.108-2.622.106-3.662.594.167.01.322.004.483.007-.323.006-.575.038-.946.026-5.01-.187-9.358-.134-13.705-.08-2.713 3.097-5.78 1.94-9.42.302-11.571-.381-22.572-.33-33.574-.279-.84.35-1.677.845-2.517 1.203.787-.367 1.503-.895 2.054-1.302-21.129-.085-41.797-.178-62.463-.014-11.274.09-22.542.68-33.816.926-17.914.391-35.83.672-53.744 1.054-.86.019-1.71.561-2.272 1.16 12.538.12 24.785-.092 37.032-.234-12.247.142-24.494.356-37.428.272-1.75-.288-2.812-.31-3.873-.332-3.369.338-6.735.912-10.108.96-5.108.074-10.22-.218-16.084-.622-4.77-.29-8.79-.313-12.808-.334-.888.172-1.775.345-3.211.292-1.287-.175-2.026-.124-2.764-.074-.89 1.915-3.042 2.94-5.414 2.924 2.258.002 4.31-1.047 4.961-3.017-3.84-.03-7.23.033-10.59.494 1.29 1.472 3.06 2.28 4.795 2.476a8.7 8.7 0 0 1-5.258-2.54c-13.49-.404-26.49-.345-39.49-.286-.845.116-1.688.231-2.607.291a14 14 0 0 0 2.193-.39c-1.783-.032-3.172.032-4.475.406q-.278-.015-.57-.04c-8.544-.36-16.543-.317-24.543-.273-.932.357-1.862.873-2.795 1.242.878-.378 1.689-.926 2.332-1.338-16.821-.03-33.18.036-49.433.465l-.536-.068c-8.902-.4-17.236-.368-25.57-.334-.52.73-1.076 1.968-1.574 2.396.486-.43.976-1.683 1.16-2.492-1.829-.034-3.242.027-4.635.46.79.77 1.55 1.57 2.332 1.954-.804-.386-1.643-1.198-2.74-2.021-1.808-.47-3.188-.5-4.566-.533-2.316-.242-4.633-.483-7.094-.873a46 46 0 0 0 6.902.52c-3.403-.696-6.618-1.041-9.738-1.032l-.348-.07c-.853-.46-1.29-.49-1.728-.522-6.244 1.707-12.3 1.762-18.371-2.476-1.509-.48-2.564-.519-3.62-.56-3.14.697-6.313 1.612-9.388 1.042 2.995.527 6.139-.483 9.172-1.404-5.089-1.043-9.96-1.725-14.772-2.047 1.27 1.523 2.608 2.467 3.99 3.004-1.485-.56-2.94-1.548-4.355-3.162-2.502-.81-4.578-1.103-6.654-1.397-3.468 2.511-5.356-1.051-8.344-2.469-1.177-.45-1.917-.49-2.658-.53-3.65.847-12.929-1.656-15.313-4.466-.81-.474-1.248-.512-1.685-.55-2.802 1.713-5.057 1.777-6.406-2.458-1.779-.81-3.19-1.165-4.6-1.521-9.195-1.56-17.818-4.651-25.74-9.615 7.922 4.964 16.546 8.055 25.607 9.263-8.725-3.705-17.315-7.059-25.855-10.062.1.44.127.667.209.766h-.002c-.087-.1-.154-.336-.573-.846-1.825-.791-3.235-1.153-4.644-1.514-.99-.382-1.978-.762-3.35-1.531-1.46-.75-2.54-1.114-3.619-1.477-2.763.192-5.013-.59-7.02-1.965 1.977 1.298 4.199 1.998 6.903 1.631-3.986-2.414-7.856-4.504-11.705-6.25l-.3-.359c-.734-.772-1.32-.91-1.907-1.047-1.45-.583-2.872-1.225-4.336-1.783 1.408.496 2.825.998 4.193 1.457-6.296-3.726-12.453-7.134-18.613-10.18l-.41-.426c-1.045-.814-1.935-.953-2.826-1.093-.51-.235-1.02-.47-1.551-.79a5.2 5.2 0 0 0 1.451.475c-.946-.712-1.81-1.16-2.65-1.334q-.18-.15-.362-.322c-1.052-1.08-1.949-1.552-2.845-2.023-3.016-2.093-6.03-4.186-9.051-6.627-.005-.306.02-.364.027-.373h.002v-.002c-.681-.398-1.364-.795-2.064-1.28.673.41 1.328.73 1.953.965-1.263-1.023-2.432-1.781-3.57-2.238q-.205-.183-.413-.383c-.727-1.104-1.316-1.578-1.906-2.053a43 43 0 0 1-2.547-1.601c.842.56 1.664.996 2.442 1.285-1.37-1.115-2.636-1.913-3.877-2.35.174.147.348.27.521.405-.179-.137-.355-.238-.535-.385-.033-.298-.007-.357 0-.367h.002v-.002c-2.692-2.006-5.384-4.01-8.297-6.463-.22-.448-.682-.535-.682-.535-2.425.292-4.374-.096-5.513-1.721 1.108 1.587 3.038 1.91 5.39 1.406-2.147-1.897-4.17-3.48-6.382-4.72.093 1.37.406 2.417.9 3.187-.516-.797-.85-1.872-.965-3.29.116-.417-.056-.56-.078-.575l-.002-.002c-1.727.896-2.633.643-3.07-.363-.259-.596-.354-1.452-.356-2.493.01-.326.032-.4.04-.416l.001-.002v-.002c-4.436.88-3.872-2.958-4.988-5.615-.034-.32-.007-.382 0-.392h.002v-.002c-.517-.546-1.034-1.206-1.55-1.772.507.513 1.015 1.02 1.515 1.434-1.35-1.782-2.666-3.226-3.998-4.301.166.223.333.39.5.602-.17-.214-.342-.36-.512-.584.004-.286.026-.356.035-.372l.002-.001.002-.002c-1.024-1.085-2.05-2.17-3.055-3.616.017-.316.03-.362.032-.369v-.002c-2.357.106-3.6-.886-4.354-2.437.724 1.475 1.96 2.404 4.326 2.082-1.683-2.115-3.34-3.875-5.254-5.451.18 1.077.398 2.127.768 3.015-.406-.966-.657-2.114-.883-3.334-2.094-2.963-4.332-5.424-6.57-7.885-.67-.7-1.339-1.518-2.008-2.242.661.67 1.321 1.329 1.975 1.887-1.684-2.126-3.333-3.896-4.996-5.299.266.34.532.61.798.932-.271-.324-.542-.57-.814-.91 0-.282.028-.355.04-.371l.001-.002.002-.002c-.38-.415-.761-.83-1.15-1.344q.567.662 1.117 1.016c-.656-1.045-1.282-1.795-1.922-2.225a14 14 0 0 1-.176-.309c-.325-.775-.596-.952-.869-1.129-.563-.593-1.125-1.185-1.695-1.878a11.7 11.7 0 0 0 1.666 1.544c-.964-1.354-1.902-2.414-2.856-3.15a20 20 0 0 1-.246-.379c-.325-.784-.605-.958-.885-1.13-.557-.596-1.116-1.19-1.681-1.885a12 12 0 0 0 1.652 1.55c-.956-1.358-1.886-2.421-2.832-3.162a21 21 0 0 1-.246-.385c-.325-.782-.606-.95-.887-1.12-.611-.625-1.223-1.249-1.806-1.938a14.6 14.6 0 0 0 1.771 1.603c-.958-1.343-1.885-2.395-3.02-3.285q-.15-.238-.296-.49c-.097-.94-.4-1.403-.703-1.865a29 29 0 0 1-1.823-1.51c.597.518 1.187.926 1.75 1.203-1.012-1.112-1.952-1.918-2.906-2.351.073.084.147.151.22.232-.075-.082-.152-.137-.228-.223.006-.294.02-.36.026-.373v-.002h.002v-.002c-2.206-.623-3.86-1.736-5.18-3.193 1.294 1.375 2.928 2.385 5.074 2.867-3.037-3.782-5.97-7.237-8.922-10.318l-.09-.278c-.672-1.125-1.274-1.6-1.877-2.074-.643-.673-1.283-1.463-1.925-2.156.633.638 1.267 1.275 1.894 1.812-1.68-2.12-3.329-3.894-4.996-5.302.144.184.29.327.434.506-.147-.18-.295-.31-.442-.495.009-.288.025-.353.031-.367l.002-.002v-.002c-2.798-3.336-5.597-6.67-8.336-10.207a168 168 0 0 0 8.305 9.848c-3.447-4.582-6.861-8.804-10.463-12.7l-.07-.095c.117-.388-.028-.52-.047-.535l-.002-.002c-.54-.4-1.081-.802-1.629-1.27a14 14 0 0 0 1.475 1.012c-1.092-1.098-2.053-1.978-3.014-2.535q-.157-.181-.316-.377c-.339-.8-.619-.966-.899-1.133a10 10 0 0 1-.933-1.142c.282.39.597.673.904.851-.431-.89-.833-1.49-1.416-1.781q.133.325.293.596a6 6 0 0 1-.36-.717c.114-.429-.124-.56-.124-.56-.433-.279-.866-.557-1.28-.882.385.26.778.472 1.143.637-.757-.757-1.4-1.312-2.227-1.695a6 6 0 0 1-.302-.41c-.112-.965-.426-1.423-.739-1.881-.515-.393-1.03-.786-1.558-1.268.504.41 1 .729 1.47.967-.951-1.037-1.827-1.812-2.707-2.266q-.144-.176-.293-.367c-.68-1.127-1.27-1.607-1.86-2.088-1.024-1.088-2.05-2.177-3.056-3.625.014-.292.026-.352.03-.365l.002-.002c-.551-.574-1.102-1.15-1.662-1.83a11 11 0 0 0 1.638 1.496c-.953-1.353-1.885-2.412-2.84-3.129a20 20 0 0 1-.275-.431c-.994-1.494-1.923-2.3-2.854-3.106-.646-.462-1.294-.924-1.98-1.69-.035-.265.002-.326.012-.337l.002-.002c-.38-.412-.758-.824-1.15-1.34q.566.66 1.115 1.014c-.662-1.048-1.29-1.801-1.932-2.23q-.098-.165-.2-.343c-.447-1.098-.808-1.558-1.17-2.02-1.241-1.116-2.483-2.234-3.722-3.698.003-.303.035-.362.043-.371-3.038-1.029-5.087-2.926-6.64-5.436 1.521 2.432 3.57 4.263 6.613 5.082-3.013-3.799-5.995-7.244-8.987-10.318a32 32 0 0 0 1.307 3.27 36 36 0 0 1-1.451-3.583c-11.621-14.817-23.083-28.969-34.598-43.078a5248 5248 0 0 0-27.363-33.289c-5.212-6.28-10.578-12.433-15.875-18.643-.558-.582-1.116-1.164-1.68-1.843a12 12 0 0 0 1.643 1.511c-.964-1.342-1.897-2.393-2.844-3.125a20 20 0 0 1-.254-.39c-.313-.792-.588-.974-.863-1.154-1.023-1.09-2.046-2.179-3.059-3.624.009-.288.029-.353.035-.367v-.002l.002-.002c-.652-.454-1.304-.909-1.99-1.673-.03-.272-.005-.325.002-.334l.002-.002c-.917-.953-1.835-1.904-2.77-2.965a34 34 0 0 0 2.731 2.623c-1.586-1.984-3.14-3.665-4.705-5.024q-.215-.281-.432-.576c-1.447-2.452-2.786-4.221-4.125-5.992-1.324.115-2.425-.028-3.107-.773.667.68 1.782.746 3.13.45-1.234-1.463-2.493-2.606-3.77-3.36-.086.89-.024 1.585.161 2.113-.224-.587-.317-1.366-.254-2.389-.664-1.144-1.257-1.622-1.85-2.102a18 18 0 0 1-1.148-1.324q.566.65 1.116.996c-.66-1.04-1.291-1.787-1.936-2.213a15 15 0 0 1-.2-.347c-.42-1.11-.766-1.583-1.11-2.055-4.513-.975-6.143-4.656-7.786-8.674.015-.362.026-.369.026-.369-1.505.142-2.512-.194-3.158-.96.622.686 1.608.933 3.062.638-1.366-1.779-2.636-3.236-3.93-4.3-.035 1.08.057 1.997.315 2.71-.298-.781-.422-1.792-.424-3.016-1.1-1.807-2.112-2.917-3.125-4.027a28 28 0 0 1-1.729-1.574c.577.544 1.16.972 1.758 1.262-.904-1.121-1.839-1.929-2.793-2.377.027.034.055.06.082.093-.027-.033-.056-.055-.084-.09.017-.354.026-.359.026-.359-.904-.928-1.808-1.856-2.688-2.842a45 45 0 0 0 2.59 2.518c-1.563-1.95-3.043-3.623-4.719-5.13q-.24-.33-.478-.67c-.104-.946-.407-1.408-.711-1.87-.513-.395-1.027-.79-1.557-1.28a8.2 8.2 0 0 0 1.477.975c-.952-1.048-1.834-1.829-2.719-2.287q-.161-.195-.326-.408c-4.366-5.799-8.606-10.906-12.846-16.014-4.037-1.312-6.3-4.141-7.047-8.62.011-.297.022-.36.026-.372l.002-.002v-.002c-.653-.453-1.304-.907-1.985-1.676-.023-.255-.008-.316-.002-.33v-.002l.002-.002a18 18 0 0 1-1.138-1.351q.561.666 1.105 1.025c-.652-1.053-1.275-1.81-1.91-2.246q-.096-.165-.191-.342c-.68-1.114-1.28-1.594-1.877-2.074-1.016-1.089-2.033-2.177-3.034-3.629.015-.363.022-.367.022-.367-.407-.269-.813-.537-1.197-.863.367.253.756.447 1.127.572-.632-.704-1.204-1.161-1.963-1.457a5 5 0 0 1-.254-.375c-.107-.948-.408-1.41-.71-1.875-.356-.247-.714-.494-1.087-.834q.541.4 1.06.49c-.63-.731-1.235-1.165-1.824-1.312a9 9 0 0 1-.205-.27c-.375-.74-.653-.91-.932-1.08-.568-.426-1.137-.853-1.683-1.34.527.409 1.075.76 1.603 1.037-.933-1.008-1.8-1.763-2.857-2.35a9 9 0 0 1-.361-.485c-.423-.973-1.042-1.427-1.66-1.881-.38-.421-.761-.843-1.163-1.377.382.456.76.805 1.125 1.049-.668-1.069-1.303-1.835-1.943-2.268q-.103-.173-.209-.36c-1.695-2.456-3.265-4.244-4.834-6.033-.596-.614-1.193-1.227-1.764-1.908a14.3 14.3 0 0 0 1.735 1.574c-.942-1.336-1.858-2.386-2.975-3.271q-.165-.261-.322-.54c-.514-1.61-1.23-2.707-1.945-3.804-.408-.493-.817-.988-1.194-1.56.382.493.818.915 1.28 1.238-.53-1.07-1.137-1.847-1.963-2.469q-.092-.198-.178-.412c-.19-1.258-.567-2.028-.945-2.797-.498-.6-.995-1.202-1.497-1.908a10 10 0 0 0 1.579 1.578c-.814-1.343-1.696-2.41-2.6-3.184a20 20 0 0 1-.297-.544 16.7 16.7 0 0 0-.959-2.973c-.412-.426-.823-.852-1.209-1.338a7.5 7.5 0 0 0 1.133 1.025c-.645-1.042-1.221-1.808-2.02-2.388a8 8 0 0 1-.197-.41c-.069-.975-.364-1.441-.66-1.909-.443-.618-.885-1.237-1.297-1.925.403.606.838 1.141 1.266 1.584-.657-1.377-1.284-2.444-2.143-3.32a13 13 0 0 1-.17-.43c-.075-.972-.375-1.437-.674-1.903a8 8 0 0 1-.744-.9c.223.262.475.465.72.586-.341-.73-.658-1.176-1.18-1.467a5 5 0 0 1-.128-.367c-.175-1.263-.543-2.037-.91-2.813-2.102-2.774-4.593-5.339-6.222-8.367 1.63 3.028 4.12 5.593 6.3 8.004a377 377 0 0 0-8.173-17.205 100 100 0 0 0-5.999-10.252c-.264.68-.512 1.301-.474 1.781-.04-.49.202-1.162.433-2.107-.14-1.302-.51-2.076-.88-2.848-4.54-1.168-3.895-5.5-5.21-8.762 1.316 3.252.685 7.526 5.29 8.393-.9-2.556-1.865-4.748-2.864-6.926-1.644-3.587-3.312-7.164-5.23-10.54.136 1.26.152 2.657.309 3.92-.169-1.322-.195-2.838-.356-4.308-.092-1.997-.397-3.404-.703-4.812-.417-.43-.835-.86-1.225-1.361.383.416.798.766 1.207 1.035-.62-1.037-1.226-1.79-2.048-2.358a8 8 0 0 1-.229-.49c.153-1.311.082-2.05.012-2.787-.608-1.059-1.216-2.118-1.783-3.27a22 22 0 0 0 1.875 2.922c-.835-2.045-1.755-3.77-2.918-5.308a25 25 0 0 1-.192-.522c.166-.957.105-1.391.043-1.826-.26-.09-.685-.142-.838-.26q-.016-.012-.029-.025l.03.025c.153.11.59.107.929-.14-1.846-7.704-3.782-15.019-5.99-22.096l-.137-.703c.176-1.692.11-2.746.043-3.8-5.3-3.045-3.74-7.922-3.072-13.233.288-11.094.312-21.446.336-31.797-2.17-4.447-.294-8.208 2.441-12.41.474-3.207.523-5.897.572-8.588-.148-1.184-.564-2.42-.506-3.565-.053 1.143.402 2.356.856 3.375.817-2.585 1.189-5.005 1.77-7.375 1.838-7.502 3.753-14.985 5.261-22.46-1.075.935-2.271 1.778-2.87 2.746.604-.982 1.827-1.884 3.032-3.112.841-2.457 1.143-4.536 1.444-6.613.22-.67.441-1.341.748-2.035a8.3 8.3 0 0 0-.428 1.912c.7-1.247 1.137-2.391 1.291-3.512q.16-.246.344-.5c.78-1.071.908-1.967 1.037-2.863-.325-6.013 3.5-9.918 7.549-14.299.788-1.136 1.106-1.924 1.425-2.71.226-.516.453-1.03.768-1.565a5 5 0 0 0-.451 1.47c.72-.952 1.173-1.823 1.324-2.693q.156-.182.334-.37c.795-1.043.932-1.938 1.07-2.831.398-.837.796-1.672 1.278-2.53a16 16 0 0 0-.953 2.417c1.003-1.533 1.742-2.975 2.21-4.385q.215-.294.452-.594c1.758-1.737 2.876-3.315 3.994-4.895.22-.496.438-.995.742-1.511-.227.49-.369.964-.43 1.412.699-.939 1.141-1.796 1.3-2.621q.16-.186.345-.38c1.454-1.394 2.25-2.64 3.049-3.884-.182-2.57.493-4.549 1.924-6.107-1.352 1.533-1.943 3.508-1.561 6.068 2.452-3.024 4.542-6.01 6.256-9.008q-.642.237-1.229.506.725-.344 1.54-.65c1.813-2.028 2.94-3.923 4.068-5.819 1.69-2.372 3.058-5.12 5.011-7.19-1.949 2.07-3.28 4.803-4.691 7.077 2.287-1.8 4.25-3.494 6.223-5.176 6.154-5.243 12.31-10.483 18.1-15.744-.575.107-1.092.172-1.544.266.45-.095.964-.163 1.532-.274.29.01.355.03.369.035h.002v.002h.002c.911-5.885 6.517-5.78 10.625-8.035.292.009.358.03.373.037l.002.002h.002v.002c.554-.51 1.11-1.023 1.755-1.537a11.6 11.6 0 0 0-1.42 1.516c1.309-.906 2.347-1.797 3.09-2.696q.28-.173.584-.347c1.802-.661 2.894-1.297 3.985-1.934.28-.256.561-.513.904-.744a2.3 2.3 0 0 0-.592.711c.735-.34 1.183-.65 1.475-1.168q.162-.062.342-.117c.932-.106 1.395-.407 1.859-.707.543-2.48 1.963-3.593 3.756-4.207-1.708.604-3.04 1.71-3.393 4.181 3.106-1.663 5.854-3.302 8.403-5.19l.365-.073c1.306-.426 2.088-1.068 2.87-1.71 3.564-2.644 6.968-5.553 10.755-7.823-3.787 2.27-7.19 5.18-10.387 7.796 4.534-2.05 8.721-4.03 12.858-6.113a22 22 0 0 0 4.58-3.107c-1.24.13-2.504.197-3.7.37 1.253-.184 2.622-.263 4.053-.42 1.64-.165 2.723-.546 3.805-.927.713-.79 1.296-1.836 2.11-2.428-.808.593-1.35 1.649-1.733 2.506a72 72 0 0 0 6.996-2.648c6.221-2.715 12.427-5.467 18.43-8.467l.365-.049c1.327-.07 2.103-.368 2.879-.666a29 29 0 0 1 1.916-1.25c-.598.392-1.127.813-1.565 1.23 1.368-.637 2.423-1.257 3.305-2.09q.253-.102.521-.198c1.639-.097 2.728-.4 3.817-.703.615-.439 1.232-.877 1.918-1.284-.601.4-1.133.835-1.572 1.264 1.371-.645 2.433-1.272 3.312-2.13q.23-.094.473-.183c.957.176 1.39.116 1.824.055 2.642-1.02 5.282-2.04 8.039-3.02a131 131 0 0 0-7.656 3.108c4.644-1.496 8.93-3.074 13.015-4.892l.805-.247c1.99-.172 3.394-.553 4.8-.935 1.229-.6 2.457-1.201 3.784-1.764a29 29 0 0 0-3.418 1.856c2.36-.84 4.39-1.765 6.219-2.914q.307-.101.623-.2c1.316.152 2.052.086 2.789.02.437-1.458 1.076-2.575 2.098-3.14-.938.568-1.488 1.716-1.747 3.228 2.132-.888 3.912-1.864 5.479-3.113-1.058-.434-1.94-.579-2.67-.483.815-.126 1.813.002 3.041.443 1.32.167 2.058.098 2.795.03 1.486-1.253 2.795-3.1 4.453-3.77-1.656.67-2.944 2.523-4.078 3.864 8.761-2.845 17.151-5.782 25.314-8.971l.47-.094c.986.158 1.419.097 1.85.037.293-4.818 3.48-3.953 7.12-3.088 1.01.182 1.444.118 1.877.053 2.874-4.458 7.55-4.309 12.281-4.826-4.57.524-9.321.3-11.902 4.91 4.785-1.552 9.195-3.187 13.383-5.1l.38-.06c.986.177 1.42.111 1.854.047 1.14-1.237 2.25-2.543 3.74-3.176-1.4.63-2.426 1.97-3.363 3.27 2.805-.88 5.234-1.854 7.43-3.104-1.098-.47-2.04-.604-2.866-.502.919-.133 1.977-.018 3.239.463 2.014-.134 3.421-.507 4.83-.879.594-2.15 1.683-3.317 3.328-3.598-1.563.259-2.587 1.452-2.965 3.684 2.468-.893 4.574-1.87 6.445-3.121-1.324-.517-2.474-.716-3.427-.572 1.04-.165 2.299.018 3.796.533 1.342.166 2.08.095 2.819.025.94-.88 1.775-2.099 2.764-2.822-.97.727-1.736 1.964-2.381 2.908 4.804-1.545 9.227-3.178 13.431-5.068.133-.013.245-.03.38-.043 1.326.147 2.066.074 2.804 0 1.033-.581 2.064-1.164 3.193-1.711a22 22 0 0 0-2.84 1.803c2.031-.82 3.742-1.723 5.268-2.848q.306-.115.625-.225c2.314-.17 4.042-.543 5.77-.916.669-.431 1.338-.862 2.093-1.256-.672.4-1.264.855-1.748 1.336 1.398-.556 2.478-1.186 3.377-2.054q.215-.078.442-.15c.954.16 1.39.095 1.826.03.517-.23 1.036-.46 1.654-.648-.536.192-.988.45-1.318.742 1.117-.196 1.905-.485 2.51-1.02q.166-.027.343-.05c.946.142 1.38.072 1.813.002 1.013-1.026 1.92-2.728 3.037-3.096-1.116.369-1.998 2.076-2.64 3.174 1.454-.264 2.493-.697 3.575-.934 6.006-1.313 12.02-2.58 17.79-4.146.152-.01.276-.033.43-.043 1.695.188 2.75.127 3.806.064 2.566-4.13 6.807-2.933 11.23-3.066 2.708.175 4.736.1 6.764.027 3.807-1.083 7.59-2.851 11.418-3.392-3.823.542-7.553 2.321-10.963 3.49 16.284-.24 32.113-.62 47.945-.871 2.55-.04 5.111.497 7.617.406-1.497-1.044-2.954-2.353-4.42-2.92 1.486.569 3.025 1.893 4.874 3 4.188.488 7.873.534 11.56.58 3.183-.328 6.426-1.196 9.535-.853-3.109-.343-6.35.524-9.322 1.215 7.417 1.033 14.621 1.705 21.758 2.004-3.13-1.021-6.197-2.057-9.291-2.707 3.117.653 6.268 1.705 9.726 2.78 2.86.408 5.217.369 7.573.33.428-.378.928-1.076 1.316-1.276-.378.206-.823.93-.965 1.439 4.087 1.114 7.842 1.992 11.551 3.035 5.707 1.605 11.384 3.323 17.078 4.61l.201.322c1.044.818 1.945.94 2.844 1.062 1.396-.262 3.159-1.15 4.236-.869-1.076-.278-2.828.64-4.097 1.205 7.17 3.681 14.209 7.045 21.218 10.076l.739.541c.742.761 1.33.89 1.918 1.02.506.244 1.012.487 1.537.814a5.3 5.3 0 0 0-1.442-.5c.936.728 1.792 1.192 2.63 1.385q.175.155.355.33c.724.745 1.314.882 1.904 1.018 1.647.778 3.294 1.555 4.973 2.662.026.268.025.323.023.334h-.002v.002c6.373 3.46 12.765 6.889 19.08 10.451-6.315-3.562-12.708-6.99-18.963-10.12 6.46 4.581 12.804 8.828 19.332 12.735.01-.722.047-1.488-.052-2.013.106.533.086 1.324.12 2.117-.11.417.068.553.09.568l.003.002c2.747.154 6.33 1.857 9.459 4.188-3.094-2.263-6.623-3.893-9.282-3.922 5.521 4.52 10.866 8.773 16.229 12.642a6 6 0 0 0-.072-.336q.084.293.136.578c.324.793.602.959.881 1.124 4.39.493 8.544 1.247 8.059 7.587-.009.32-.028.391-.035.407l-.002.002v.002c.771.798 1.538 1.713 2.308 2.53-.761-.762-1.522-1.523-2.277-2.185 2.017 2.449 4.001 4.55 6.004 6.285-.127-.155-.254-.279-.381-.431.128.154.258.267.387.424-.011.291-.025.354-.03.367v.002c2.593 2.054 5.675 3.746 7.864 6.1-2.187-2.35-5.259-4.005-7.76-5.772 11.577 13.079 19.01 28.282 26.422 43.516 2.635 5.417 5.586 10.68 8.666 15.789q.063.251.123.51c-.165 1.333-.093 2.068-.022 2.804 1.022.355 2.729.556 3.235 1.027-.506-.465-2.213-.627-3.233-.658 3.716 10.513 8.026 20.498 7.834 31.637-.029 1.68.554 3.368 1.139 4.8.714-3.163.887-6.225.709-9.222.2 3.116.043 6.32-.678 9.658-.188 2.714-.122 4.74-.056 6.768.75 1.213 2.017 2.417 2.476 3.635-.462-1.204-1.743-2.342-2.566-3.2.25 5.492.907 10.55.869 15.604-.09 12.01-.51 24.018-.44 35.933.561-1.104 1.179-2.178 1.64-3.242-.47 1.126-1.104 2.314-1.712 3.662-.46 2.218-.49 3.922-.521 5.625.272.767.857 1.596.892 2.315-.04-.716-.663-1.525-1.236-2.127-1.474 5.55-2.469 10.945-3.772 16.265-1.364 5.573-3.024 11.075-4.173 16.598 1.072-.638 2.304-1.174 2.847-1.86-.545.698-1.79 1.296-2.931 2.264-.516 1.795-.566 3.174-.616 4.553-.167 1.29-.11 2.66-.54 3.856.43-1.195.373-2.566.206-3.725-3.772 8.339-7.214 16.55-10.273 24.754l-.356.285c-.81 1.401-.919 2.616-1.027 3.83 2.13 2.828-.274 3.765-2.48 5.322-.45.803-.488 1.241-.524 1.68-.107.525-.22 1.05-.474 1.582.246-.527.307-1.035.181-1.474-.43.703-.566 1.298-.406 1.882l.033-.056c-.012.02-.019.039-.031.058-.294.014-.297.008-.297.008.557 5.306-1.957 9.068-6.492 12.258-.439.225-.527.691-.527.691-.395.683-.79 1.366-1.272 2.07.408-.673.726-1.327.961-1.949-1.024 1.277-1.785 2.451-2.24 3.592q-.185.21-.387.422c-.778.743-.916 1.329-1.055 1.912.177.485.615 1.124.594 1.492.016-.366-.458-.994-.922-1.378-10.436 15.373-20.546 30.632-30.283 45.9q-.142.06-.287.125c-.798.695-.94 1.281-1.084 1.867.166 1.043.773 2.36.6 3.192.168-.831-.475-2.136-.928-3.08-4.01 5.575-7.694 11.037-10.975 16.542 1.254-.307 2.52-.418 3.23-.92-.712.508-1.988.654-3.316 1.198-.477.427-.466.621-.457.814l1.174 1.576c-.86.232-1.722.465-3.246.81-.798.7-.932 1.285-1.066 1.87-1.185 3.266-2.124 6.652-3.63 9.764 1.506-3.112 2.445-6.497 3.298-9.647-2.142 2.916-3.96 5.71-5.756 8.516-1.994 3.113-3.969 6.237-5.555 9.371.818-.146 1.633-.18 2.24-.332-.606.152-1.419.188-2.23.338-.338-.007-.39-.024-.397-.028-.437.977-.875 1.953-1.65 2.975-.275.037-.336.027-.35.022h-.002l-.002-.002c-2.763 3.991-5.528 7.983-8.638 12-.347.025-.35.02-.35.02-.194 2.526-2.02 6.103-4.203 8.612 2.134-2.482 3.89-6.038 3.88-8.492-2.916 3.79-5.51 7.458-7.751 11.313.522-.117 1.072-.378 1.627-.752-.59.405-1.174.692-1.733.824-.43-.107-.565.083-.58.107l-.002.002c-.835 1.446-1.669 2.891-2.869 4.364L576 497c.253 2.119-.322 3.687-1.443 4.969 1.043-1.253 1.537-2.795 1.119-4.86-2.093 2.686-3.868 5.262-5.293 7.82l-.336.175c-1.462 1.388-2.264 2.639-3.067 3.89-.924 1.39-1.85 2.779-2.859 4.182a59 59 0 0 0 2.533-4.078c-1.93 2.473-3.586 4.86-4.95 7.224q-.3.363-.614.727c-.76.378-.926.663-1.092.947-.444.973-.887 1.945-1.664 2.961-.271.035-.337.017-.352.01h-.002l-.001-.002c-.958 1.447-1.916 2.894-2.97 4.355a49 49 0 0 0 2.608-4.318c-1.948 2.475-3.592 4.919-4.935 7.344q-.288.348-.588.699c-.766.374-.933.659-1.1.943-.444.974-.886 1.948-1.662 2.967-.27.037-.338.017-.353.008l-.002-.002h-.002c-.734 1.099-1.58 2.21-2.336 3.312.707-1.096 1.392-2.191 1.978-3.275-2.12 2.687-3.883 5.337-5.303 7.957.25-.316.446-.628.686-.943-.24.319-.42.631-.67.95-.267.03-.33.017-.344.01h-.004c-.24.357-.482.713-.82 1.094q.393-.546.477-1.062c-.725.644-1.15 1.26-1.287 1.846q-.142.119-.301.244c-.758.738-.913 1.319-1.069 1.9.008.74.305 1.722.065 2.258.238-.535-.087-1.507-.389-2.154-5.773 6.52-11.452 12.761-16.617 19.4a650 650 0 0 0-20.328 27.557c-3.02 4.336-5.18 9.274-7.37 13.918.422-.165.795-.297 1.12-.44-.37.165-.828.327-1.404.555-.784.728-.924 1.319-1.063 1.91-1.508 4.458-2.322 9.37-4.41 13.45 2.084-4.078 2.86-8.973 4.082-13.305-3.357 6.146-5.937 12.436-9.54 18.074-3.938 6.164-5.725 12.825-6.546 19.76.606-.63 1.194-1.209 1.648-1.803-.464.635-1.063 1.297-1.722 2.123-.46.817-.491 1.253-.522 1.69.142 1.481.74 3.353.797 4.763-.086-1.397-.765-3.235-1.138-4.6-2.043 8.405-3.742 16.645-5.065 24.864 1.037-1.769 2.15-3.48 2.799-5.252-.652 1.795-1.78 3.593-2.871 5.705-.406 4.15-.362 7.825-.319 11.5.42.057.953-.016 1.286.142-.334-.152-.877-.026-1.377.317-.034 4.507.023 8.556.482 12.574 1.08-.865 1.82-2.59 2.201-4.516-.385 2.033-1.143 3.912-2.267 4.963-.41 3.492-.355 6.506-.3 9.52 1.079 1.954 2.57 3.814 3.29 5.85-.722-2.03-2.22-3.845-3.373-5.434.887 5.156 1.858 9.895 3.125 14.35.31-2.157.753-4.221.72-6.147.035 1.948-.4 4.098-.687 6.588-.188 3.08-.113 5.436-.039 7.79.838.42 2.148.685 2.623 1.225-.476-.535-1.796-.756-2.705-.841a224 224 0 0 0 6.857 15.234c-1.288-4.997-2.496-9.62-4.002-14.144 1.506 4.523 2.713 9.146 4.131 14.474 1.016 2.523 1.921 4.309 2.826 6.094.256.274.51.549.74.883a2.4 2.4 0 0 0-.706-.569c.344.724.66 1.168 1.175 1.457q.07.178.13.377c.165 1.264.536 2.036.908 2.807.66.12 1.656.061 2.093.303-.437-.234-1.432-.126-2.086.054 2.335 3.933 4.661 7.51 7.188 10.737a95 95 0 0 0-4.922-10.623c1.819 3.364 3.44 6.835 4.988 10.742-.125.44.078.587.104.603l.002.002c2.37-.456 4.812.467 6.554 2.295-1.712-1.781-4.114-2.641-6.388-2.03 2.942 2.636 5.718 5.004 8.697 7.015a8.7 8.7 0 0 0-1.344-3.77 9.1 9.1 0 0 1 1.412 3.873c-.126.433.054.57.077.586l.002.002c.363.087.728.174 1.109.332a2.7 2.7 0 0 0-.95-.088c.754.445 1.382.699 1.962.682q.163.126.334.281c1.427 1.783 2.695 2.909 3.962 4.033 6.563-.373 8.798 4.985 12.342 9.574 4.067 1.905 7.692 3.79 11.541 4.594 11.855 2.476 22.807 9.09 35.48 7.809.651-.066 1.325.043 1.983.113 12.047 1.271 24.075 3.39 36.143 3.652 25.972.563 51.965.17 77.949.17 1.332 0 2.666-.03 3.996.028 14.186.624 28.368 1.465 42.56 1.816 7.102.176 14.22-.724 21.337-.812 30.683-.384 61.417 1.164 92.02-2.13 6.746-.725 13.49-2.119 20.036-3.921 8.233-2.267 16.31-5.134 24.365-7.996 7.412-2.634 14.802-5.378 22.008-8.516 3.936-1.714 7.472-4.347 11.188-6.564.287-.38.575-.761.93-1.118-.277.356-.493.75-.631 1.153.722-.535 1.19-1.101 1.503-1.863q.2-.129.426-.247c1.954-.443 3.385-1.072 4.817-1.7 1.654-4.554 6.133-3.41 9.953-4.762-3.622 1.404-8.242.107-9.567 4.726 3.694-1.645 7.02-3.257 9.973-4.883a8 8 0 0 0 .531-.238c1.48-.765 2.27-1.436 3.06-2.107.56-.49 1.233-.973 1.811-1.461a17 17 0 0 0-1.476 1.545c1.797-1.223 3.26-2.53 4.365-3.86-.196.135-.342.275-.53.41.19-.138.32-.28.518-.418.304.014.354.033.362.037v.002c.986-.764 1.973-1.53 3.086-2.314a30 30 0 0 0-2.735 2.285c2.026-1.29 3.73-2.556 5.086-3.838l.494-.299c2.47-1.441 4.243-2.775 6.016-4.109.462-.56.924-1.12 1.455-1.652a9.2 9.2 0 0 0-1.145 1.681c1.035-.837 1.803-1.699 2.409-2.763q.221-.16.46-.313c1.29-.422 2.082-1.047 2.874-1.672 2.761-2.35 5.522-4.698 8.634-7.039.308.008.363.035.372.041a97 97 0 0 1 3.066-2.802 33 33 0 0 0-2.711 2.777q2.984-2.36 5.03-4.666.25-.192.511-.385c.764-.366.933-.643 1.1-.922a36 36 0 0 1 1.894-1.695 12 12 0 0 0-1.56 1.662c1.37-.97 2.436-1.908 3.175-2.861q.209-.141.43-.284c6.543-5.008 12.34-9.983 18.28-14.783 13.74-11.104 24.767-25.645 41.67-32.756 5.46-2.296 10.561-5.917 16.218-7.175 12.031-2.678 24.254-4.995 36.518-6.012 17.301-1.436 34.71-1.608 52.076-2.229 11.596-.414 23.198-.643 34.797-1.004 8.61-.267 17.219-.614 25.828-.921 19.365-.691 38.73-1.414 58.097-2.057 11.768-.391 23.543-.562 35.309-1.008 14.706-.557 29.403-1.38 44.11-1.935a19633 19633 0 0 1 84.402-2.998 11627 11627 0 0 1 67.59-2.057c15.1-.418 30.204-.633 45.304-1.025 9.104-.237 18.204-.646 27.305-.967 19.035-.672 38.066-1.579 57.107-1.91 10.925-.19 21.882.284 32.791.978 7.647.486 15.282 1.585 22.84 2.889 7.971 1.374 15.87 3.21 23.752 5.045 6.273 1.46 12.576 2.916 18.68 4.935 5.91 1.956 11.543 4.737 17.375 6.953 5.689 2.163 11.92 3.284 17.13 6.24 13.52 7.67 26.798 15.81 39.798 24.335 7.623 5 14.563 11.052 21.75 16.709 9.865 7.765 19.713 15.552 29.494 23.423 7.917 6.371 15.382 13.365 23.666 19.205 10.322 7.278 21.178 13.82 31.994 20.368 8.125 4.918 16.358 9.74 24.896 13.875 8.377 4.056 17.182 7.238 25.84 10.7 3.105 1.243 6.263 2.495 9.514 3.198 6.976 1.508 14.015 2.738 21.053 3.942 8.357 1.428 16.705 3.538 25.119 3.89 20.084.842 40.204 1.094 60.31 1.086 24.606-.01 49.212-.557 73.819-.809 9.498-.096 18.998-.004 28.498-.021 16.353-.03 32.713.145 49.06-.197 10.872-.228 21.722-1.55 32.594-1.78 25.599-.539 51.204-.704 76.807-1.044 25.131-.334 50.264-.738 75.396-1.03 11.033-.128 22.066-.072 33.1-.072 9.701 0 19.404.108 29.105.045 13.015-.084 22.935 6.026 30.467 15.96 7.142 9.421 8.754 19.901 3.805 31.104-4.427 10.02-11.061 17.697-20.58 23.451-10.654 6.44-22.648 6.917-34.02 7.346-34.581 1.304-69.224.974-103.842 1.313-32.765.32-65.53.7-98.295 1.02-8.2.08-16.401-.078-24.6.064-13.602.234-27.2.851-40.802.902-38.665.145-77.332.054-115.998.146-4.939.012-9.872.742-14.814.83-22.932.414-45.866.773-68.8 1.024-6.086.067-12.18-.566-18.265-.459-22.75.401-45.494 1.198-68.244 1.44-46.098.489-92.198.669-138.297 1.06-31.43.267-62.861.63-94.29 1.04-16.949.22-33.893.78-50.84.915-52.6.42-105.203.734-157.803 1.035-18.528.106-37.055.057-55.582.073-9.334.007-18.668-.107-27.999.054-3.995.07-7.982.701-12.597 1.137v-29.98h-29.334v96.394h30.135v-31.49c3.03-.484 5.757-1.216 8.505-1.309 12.759-.432 25.521-.856 38.286-.976 43.1-.408 86.2-.628 129.3-1.038 21.93-.208 43.856-.749 65.785-.99 14.523-.16 29.05.051 43.573-.107 7.765-.085 15.524-.816 23.289-.887 43.597-.397 87.197-.625 130.795-1.031 20.598-.192 41.192-.662 61.789-.992 20.766-.334 41.533-.769 62.3-.951 47.094-.415 94.19-.644 141.284-1.065 20.43-.183 40.857-.694 61.287-.982 25.768-.364 51.537-.742 77.307-.952 50.763-.411 101.53-.664 152.293-1.091 11.927-.1 23.849-.732 35.777-.953 21.266-.395 42.534-.844 63.803-.916 12.057-.042 23.91-1.217 34.906-6.207 9.709-4.407 20.548-7.121 27.043-17.004 6.083-9.257 15.617-15.75 18.93-27.48 2.299-8.144 4.38-16.134 5.33-24.516 1.025-9.043-2.599-16.733-5.85-24.793-5.028-12.466-12.655-22.598-23.783-29.993-4.96-3.295-10.243-6.136-15.522-8.912-3.095-1.627-6.412-3.675-9.732-3.88-12.074-.75-24.19-.98-36.293-1.05-7.599-.043-15.197.726-22.8.827-31.263.414-62.53.654-93.792 1.078-13.762.187-27.52.647-41.281 1.008-11.103.29-22.204.743-33.309.908-49.358.734-98.716 1.621-148.078 1.951-17.688.118-35.392-1.035-53.076-1.87-21.25-1-42.674 2.456-63.777-2.898-6.908-1.752-14.565-1.096-21.13-3.546-13.928-5.2-27.758-10.972-40.886-17.914-11.971-6.331-23.29-14.062-34.299-22.004-12.75-9.199-24.802-19.36-37.238-28.998-15.845-12.281-31.384-25.007-47.783-36.502-12.806-8.977-26.48-16.812-40.233-24.301-8.118-4.421-17.112-7.258-25.767-10.666-7.176-2.826-14.236-6.336-21.692-7.975-16.306-3.584-32.742-7.796-49.293-8.71-16.667-.922-33.043-5.177-50.142-2.844-16.32 2.226-33.02 1.697-49.557 2.277-21.19.743-42.38 1.461-63.574 2.045-16.265.448-32.536.62-48.803 1.011-12.107.292-24.216.618-36.314 1.157-9.683.431-19.343 1.397-29.026 1.79-19.69.802-39.39 1.428-59.088 2.028-13.764.42-27.535.635-41.3 1.02-9.764.273-19.522.716-29.286 1.011-12.43.377-24.862.655-37.293 1.026-8.773.261-17.545.586-26.316.916-18.024.677-36.045 1.421-54.07 2.05-11.434.4-22.88.517-34.31.987-13.512.556-27.052.922-40.5 2.207-8.68.83-17.31 2.79-25.786 4.933a140.5 140.5 0 0 0-20.959 7.086c-6.749 2.902-14.19 4.62-19.076 11.202-2.736 3.684-6.808 6.397-10.361 9.45-13.612 11.7-27.264 23.354-40.887 35.04-5.42 4.648-10.459 9.83-16.28 13.898a427 427 0 0 1-29.732 18.994c-8.878 5.17-18 10.067-27.441 14.082-9.026 3.84-18.65 6.245-27.92 9.538-13.473 4.785-27.417 7.197-41.598 7.496-20.517.431-41.051.108-61.578.107-43.832-.001-87.665-.176-131.496.072-21.28.12-42.434-.56-63.307-5.07-3.896-.842-7.67-2.331-11.59-2.96-7.481-1.203-14.634-2.856-20.07-8.727-1.246-1.346-2.77-2.49-4.318-3.49-8.467-5.479-13.514-13.561-17.328-22.583-1.115-2.637-2.545-5.271-2.98-8.04-1.343-8.538-2.519-17.12-3.27-25.727-.436-4.988.212-10.06.125-15.09-.262-15.005 3.323-29.274 9.187-42.842a144 144 0 0 1 13.81-24.861c7.755-11.16 16.66-21.514 24.846-32.383 10.267-13.63 20.337-27.406 30.43-41.166 15.39-20.981 30.92-41.864 46.02-63.053 11.094-15.568 21.67-31.507 32.338-47.375 9.57-14.237 19.105-28.503 28.341-42.957 3.693-5.779 6.714-12.013 9.727-18.193 2.461-5.049 4.565-10.282 6.633-15.51 3.648-9.223 7.534-18.38 10.591-27.8 2.627-8.096 3.554-16.77 6.452-24.745 4.51-12.417 5.401-25.284 5.45-38.111.072-18.356-1.33-36.714-1.726-55.078-.285-13.238-3.464-25.909-8.535-37.809-6.914-16.225-15.214-31.868-23.178-47.63-2.973-5.886-6.04-11.918-10.16-16.993-9.858-12.145-19.397-24.647-32.013-34.285-8.432-6.44-16.093-14.02-24.993-19.686-13.442-8.559-27.488-16.235-41.627-23.615-7.924-4.137-16.3-7.965-24.927-10.068-12.28-2.995-24.931-4.667-37.51-6.188-14.49-1.751-29.054-3.395-43.625-3.85m95.945 486.705a19 19 0 0 0 2.61-4.194c-1.166 1.52-2.07 2.87-2.61 4.194m38.965-51.655c-.391-.525-.783-1.05-1.459-1.463-.821.789-1.359 1.464-1.51 2.149 1.247-.221 2.108-.454 2.97-.686M414.342 828.895c.423.973 1.294 1.16 2.916.109-1.182-1.18-2.21-2.107-3.262-2.617-.002 1.055.092 1.923.346 2.508m414.56 89.04c3.373-.048 6.74-.622 9.885-1.333-4.965-.428-9.71-.616-14.45-.497-3.787.096-7.565.566-11.058 1.172 5.402.44 10.515.732 15.623.659M423.295 44.659c-2.406.045-4.57.567-5.922 3.205 3.815-.888 7.227-1.865 10.393-3.125-1.496.038-3.027-.107-4.471-.08M594.11 72.332c1.705 1.109 3.293 1.894 4.854 2.344-1.676-1.112-3.322-1.89-4.854-2.344m-287.86 3.705c-1.737-.043-2.966.767-2.922 3.83 2.469-.894 4.574-1.872 6.43-3.133-1.242-.338-2.466-.671-3.508-.697m329.816 27.297c2.716 2.775 5.316 5.234 7.936 7.287.494-6.354-3.662-7.11-7.936-7.287m-421.322 4.162c-.211.04-.415.094-.625.137.21-.043.412-.097.625-.137m-67.09 34.502c-4.122 2.245-9.727 2.14-10.306 7.92 3.782-2.703 7.23-5.301 10.306-7.92M84.43 212.01c-3.921 4.076-7.746 7.983-7.088 13.869 2.699-4.722 5.064-9.319 7.088-13.87m-20.051 67.027c-2.656 3.76-4.534 7.522-2.008 11.785 1.022-4.075 1.688-7.967 2.008-11.785m-2.666 44.233c-.703 4.843-2.261 9.721 3.13 12.37-.882-4.478-1.856-8.562-3.13-12.37m615.721 19.718c-.044.064-.082.129-.13.192.047-.063.087-.128.13-.192m-4.766 7.121c-1.02 1.721-1.712 3.325-2.072 4.885 2.123-1.237 4.528-2.174 2.072-4.885m-4.018 9.012c-2.369 4.056-4.39 7.985-6.06 11.91 4.45-2.969 6.963-6.73 6.06-11.91m-39.046 63.918-.114.059c.04-.02.075-.04.114-.059m-30.93 43.037c-.776 1.034-1.238 1.972-1.348 2.871.788-1.014 1.226-1.991 1.348-2.87m-2.014 3.016a149 149 0 0 1-8.316 11.88c2.431-3.905 5.212-7.834 8.316-11.88m-458.674 20.267c1 1.455 2.017 2.545 3.004 3.3-1.014-1.445-2-2.556-3.004-3.3m7.053 8.942c.671.783 1.323 1.236 1.95 1.345-.674-.787-1.321-1.23-1.95-1.345m1.953 2.056c.741 4.487 3.005 7.316 7 8.278-2.355-3.117-4.668-5.883-7-8.278m412.694 17.733c-.783 1.025-1.252 1.956-1.37 2.855.796-1.004 1.24-1.976 1.37-2.855m-9.004 11.992c-.783 1.027-1.254 1.96-1.371 2.86.795-1.007 1.24-1.98 1.37-2.86m-364.694 18.275c1.64 4.023 3.268 7.705 7.79 8.34-2.586-3.129-5.179-5.918-7.79-8.34m26.059 31.934c.674.784 1.327 1.24 1.953 1.35-.676-.79-1.326-1.235-1.953-1.35m1.951 2.05c1.004 1.458 2.025 2.549 3.02 3.304-1.02-1.447-2.01-2.56-3.02-3.303m263.791 70.587c.002.325-.017.633-.096.888.08-.258.104-.56.096-.888m-169.78 44.398c1.225 1.484 2.468 2.601 3.737 3.399-1.221-1.469-2.47-2.617-3.736-3.399m7.05 8.95c.668.791 1.316 1.254 1.933 1.374-.671-.796-1.313-1.25-1.933-1.375m7.93 9.076c1.001 1.455 2.025 2.544 3.019 3.298-1.019-1.444-2.008-2.555-3.02-3.298m651.675 30.65c-2.4 2.334-5.167 4.647-8.293 6.994 2.404-2.316 5.164-4.665 8.293-6.994M510.28 783.26q-.558-.004-1.166.062c4.034 3.37 7.974 6.407 11.912 9.086-3.007-4.154-5.158-9.125-10.746-9.148m-108.293 28.095c1 1.452 2.025 2.538 3.016 3.29-1.02-1.44-2.006-2.55-3.016-3.29m7.067 8.993c1.103 2.677.536 6.514 4.95 5.277-1.675-2.126-3.325-3.894-4.95-5.277m15.91 15.244c2.615 1.67 5.233 3.705 7.965 6.058a71 71 0 0 1-7.965-6.058m18.055 14.74c2.944 1.754 5.881 3.875 8.93 6.32a79 79 0 0 1-8.93-6.32m22.886 16.52c.118.085.24.163.36.244-.12-.082-.241-.159-.36-.244m32.094 15.687c1.026.692 2.016 1.075 2.906 1.139-1.047-.695-1.995-1.072-2.906-1.139m38.967 15.07c.986 4.15 3.242 4.085 5.89 2.043-2.067-1.023-3.981-1.718-5.89-2.043m8.049 3.002c2.063 2.732 11.343 5.233 14.83 4.037-5.07-1.696-9.978-3.045-14.83-4.037m18.013 4.994c2.625 1.34 4.513 4.902 7.83 2.05-2.733-1.022-5.318-1.702-7.83-2.05m33.998 6.989c5.682 4.164 11.737 4.108 17.776 2.027-6.083-1.047-11.96-1.72-17.776-2.027m441.563 1.529c-3.17-.03-5.896.036-8.514.467 3.178 1.57 6.245 2.727 8.514-.467m-239.467 2.535c-.737.036-1.396.237-1.953.582 1.067.086 1.954-.087 2.715-.562a5 5 0 0 0-.762-.02m-164.797 2.871" style="fill:#fff;fill-opacity:1"/></svg>