<svg xmlns="http://www.w3.org/2000/svg" viewBox="0 0 2000 1405" xml:space="preserve"><path fill="#fff" d="M583.584 1249.388c6.455-2.003 12.533-3.94 18.713-5.468 6.277-1.552 12.631-3.715 18.991-3.857 31.761-.707 63.534-.971 95.304-1.108 13.432-.058 26.866.798 40.3.794 5.37-.002 10.74-1.765 16.11-1.773 83.998-.12 167.996-.099 251.993-.042 4.269.003 8.531.781 12.806.927 12.299.418 24.603.68 36.903 1.035 22.707.654 45.415 1.251 68.117 2.024 15.377.524 30.745 1.309 46.117 1.971 15.57.671 31.16 1.027 46.7 2.12 8.945.63 17.77 2.918 26.716 3.613 11.945.928 24.123.879 34.251-6.704 3.63-2.717 6.113-7.368 8.24-11.58 2.42-4.792 5.117-9.997 5.458-15.17.74-11.237 6.146-22.15 2.576-33.671-.47-1.514-.85-3.197-1.784-4.403a3107 3107 0 0 0-25.103-31.947c-4.548-5.712-9.61-11.049-13.766-17.024-2.192-3.152-3.299-7.222-4.24-11.039-1.077-4.37-2.274-8.993-1.898-13.375.582-6.778 1.617-13.758 3.986-20.08 3.24-8.65 11.515-11.957 19.814-12.51 12.942-.863 25.985-.151 38.984-.252 11.742-.09 22.061 3.479 29.52 12.686 2.834 3.499 3.847 8.468 5.716 12.755 3.637 8.343 7.099 16.773 11.073 24.953 1.048 2.159 3.42 4.185 5.667 5.166 10.828 4.728 22.02 8.66 32.692 13.698 8.21 3.877 16.975 4.768 25.533 6.89 5.381 1.335 10.408 4.043 15.75 5.599 8.517 2.48 16.62 6.56 25.867 6.33 9.827-.243 19.665-.054 29.498-.054 7.535 0 15.078-.213 22.604.046 13.587.469 25.55-4.507 37.128-10.736 7.1-3.82 13.939-8.12 20.995-12.023 8.537-4.723 17.179-9.257 25.784-13.855.424-.227.93-.356 1.411-.411 14.682-1.683 29.395-2.925 44.18-1.963 4.892.319 9.864.832 14.563 2.118 2.846.778 5.529 2.894 7.777 4.962 4.394 4.043 9.554 2.612 13.987 1.545 15.305-3.681 24.83-14.148 31.439-28.035 2.937-6.172 7.25-11.68 10.819-17.562 4.794-7.905 9.221-16.045 14.292-23.764 3.093-4.71 6.776-9.149 10.79-13.103 3.686-3.628 7.87-6.985 12.377-9.486 6.125-3.398 12.619-6.275 19.217-8.645 11.389-4.09 22.121-9.172 29.916-18.71 3.586-4.388 8.752-4.395 13.22-6.318 2.327-1.001 5.128-2.353 7.346-1.866 5.189 1.138 10.762 2.368 15.093 5.214 11.343 7.453 22.027 15.903 33.138 23.722 4.23 2.977 8.778 5.58 13.415 7.883 5.992 2.975 12.518 1.38 16.046-4.307 5.348-8.62 10.342-17.479 15.09-26.445 4.312-8.145 1.988-15.163-3.685-22.177-5.105-6.313-10.538-13.18-12.852-20.716-2.669-8.687-3.736-18.454 1.392-27.354 3.592-6.236 6.634-12.816 10.585-18.805 1.916-2.904 5.12-5.172 8.146-7.088 9.54-6.043 17.873-13.318 23.566-23.12 1.73-2.98 1.604-6.982 3.004-10.223 3.55-8.215-1.062-15.477-2.706-22.89-2.14-9.647-8.86-17.164-15.215-24.448-7.593-8.704-13.765-18.168-18.132-28.828-.49-1.196-1.104-2.56-.96-3.763 1.109-9.303-1.56-18.218-4.589-26.514-3.151-8.633-8.438-16.67-13.8-24.255-4.769-6.746-10.427-13.066-16.586-18.574-7.161-6.404-15.054-12.096-23.153-17.28-2.48-1.586-6.761-.994-10.082-.495-6.685 1.006-11.597 5.549-16.749 9.5-2.574 1.974-5.762 3.44-7.694 5.903-4.353 5.55-8.902 11.198-11.877 17.51-3.435 7.29-8.946 11.73-15.846 14.407-5.522 2.142-12.452 1.486-17.245 4.486-7.694 4.815-16.487.251-23.817 4.55-.385.225-1.01.222-1.47.11-10.695-2.614-21.995-.837-32.545-5.629-7.794-3.54-16.525-5.045-24.874-7.326-4.563-1.247-9.154-2.51-13.813-3.255-9.047-1.447-18.127-3.217-27.24-3.546-6.764-.244-13.58 1.95-20.414 2.379-8.135.51-16.363.877-24.46.208-6.329-.523-12.015-7.46-12.807-13.596-.863-6.682 2.978-12.085 11.004-15.121 1.965-.744 4.154-.89 6.234-1.336 10.16-2.181 20.182-4.322 30.845-3.207 7.94.83 16.19-1.312 24.13-.488 6.244.647 12.074.414 17.91-1.34 3.096-.93 6.445-1.915 8.912-3.852 5.104-4.007 3.212-11.949-3.6-14.752-11.366-4.678-22.986-8.74-34.354-13.416-6.821-2.805-13.209-6.699-20.094-9.301-4.202-1.588-8.97-2.23-13.499-2.3-16.662-.26-33.336-.357-49.995-.022-13.212.266-26.415 1.809-39.613 1.705-7.58-.06-15.105-2.875-22.724-3.374-11.544-.755-19.757-7.528-27.905-14.317-3.124-2.603-5.106-6.683-7.29-10.282-4.215-6.947-8.505-13.876-12.217-21.094-5.493-10.677-10.488-21.61-15.734-32.414-6.05-12.462-11.145-25.535-18.518-37.161-6.33-9.982-13.468-19.743-23.417-27.096-12.998-9.606-25.174-20.318-38.017-30.145-7.425-5.682-15.447-10.588-23.235-15.79-10.433-6.97-20.94-13.826-31.334-20.852-5.082-3.437-10.268-6.814-14.902-10.805-10.941-9.424-19.157-21.119-26.59-33.393-3.71-6.128-7.654-12.122-11.144-18.372-5.437-9.74-10.957-19.468-15.665-29.563-2.057-4.411-1.5-10-3.355-14.556-3.033-7.447-2.514-15.176-1.54-22.442 1.498-11.185 4.818-22.144 7.656-33.124 1.257-4.862 3.118-9.581 4.912-14.287 1.135-2.977 2.357-5.996 4.048-8.676 10.302-16.321 20.663-32.607 31.187-48.786 5.064-7.787 11.07-15.016 15.533-23.113 1.68-3.048 1.251-8.275-.18-11.685-1.054-2.513-5.223-5.07-8.132-5.227-15.182-.82-30.102.828-45.101 4.108-12.45 2.721-25.338 2.04-37.573-3.833-8.247-3.958-17.22-6.402-25.853-9.56-5.773-2.11-11.5-4.345-17.297-6.386-1.355-.478-2.976-.178-4.356-.612-6.873-2.162-13.665-4.584-20.569-6.637-3.58-1.065-7.354-1.455-10.997-2.33-5.536-1.329-11.018-2.889-16.556-4.211-4.329-1.034-8.706-1.868-13.067-2.767-4.103-.845-8.343-1.263-12.293-2.566-9.18-3.028-11.638-1.607-16.552 7.084-5.678 10.042-10.17 20.957-20.514 27.885-6.301 4.22-16.881 5.348-24.048 2.842-7.91-2.765-10.922-9.225-14.724-15.32-4.172-6.688-11.737-8.655-17.583-13-6.472-4.81-13.033-9.599-20.015-13.595-6.415-3.671-13.393-6.385-20.212-9.314-5.084-2.184-10.293-4.08-15.474-6.032-12.266-4.62-24.23-5.42-35.753 2.374-5.102 3.452-9.984 2.191-12.808-3.134-2.563-4.833-5.201-9.328-4.25-15.644 1.152-7.66.93-15.7.053-23.433-.633-5.577-2.871-11.115-5.17-16.327-3.458-7.844-7.562-15.406-11.453-23.057-4.696-9.233-10.355-17.77-18.718-24.122-1.3-.989-3.48-.725-5.069-1.446-6.757-3.068-13.902-3.572-20.43-.61-8.49 3.853-16.756 8.456-24.45 13.716-4.705 3.216-8.172 8.253-12.162 12.503-7.092 7.553-16.49 9.19-26.118 10.178-7.195.739-14.452 2.202-21.595 1.8-9.176-.515-18.336-2.234-27.368-4.09-6.021-1.237-8.65-.15-7.853 5.954.9 6.898 2.642 13.805 4.986 20.362 2.2 6.157 6.206 11.67 8.397 17.83 1.745 4.907 5.913 5.868 9.466 7.89 6.961 3.961 11.463 9.574 12.97 17.492.093.487-.035 1.07.188 1.471 4.14 7.451.138 14.135-1.788 21.09-1.723 6.226-2.324 12.823-4.558 18.834-2.98 8.018-6.969 15.673-10.751 23.372-.73 1.487-2.408 2.591-3.818 3.646-11.006 8.236-23.995 12.342-36.622 17.06-4.501 1.681-9.716 1.348-14.515 2.36-6.483 1.366-12.85 3.274-19.322 4.698-4.412.971-8.981 1.254-13.37 2.303-7.29 1.743-14.485 3.877-21.732 5.803-7.788 2.071-15.578 4.139-23.39 6.125-7.899 2.008-15.752 4.318-23.76 5.74-6.834 1.215-13.74 1.983-20.86 1.159-6.283-.728-12.793-.364-19.09.42-2.028.252-4.662 3.062-5.356 5.233-2.178 6.814-3.563 13.88-5.257 20.849-.153.631-.178 1.72-.503 1.82-5.089 1.573-8.15 7.097-14.863 5.993-13.17-2.167-25.821 6.426-33.542 20.8-5.027 9.358-10.988 18.225-19.331 25.024-4.149 3.38-8.777 6.249-13.446 8.895-7.016 3.977-14.225 7.62-21.411 11.287-8.586 4.383-17.096 8.952-25.899 12.855-6.53 2.895-13.387 5.15-20.253 7.166-11.851 3.478-23.817 6.57-35.746 9.782-12.456 3.354-25.178 4.1-38.018 4.024-20.332-.122-40.68.446-60.993-.198-13.934-.442-27.823-2.405-41.724-3.764-9.792-.957-19.562-2.172-29.368-2.93-1.448-.112-3.684 1.29-4.46 2.628-3.642 6.272-1.984 12.196 1.364 18.228 7.446 13.414 15.837 26.522 21.356 40.72 4.546 11.694 10.946 23.782 7.14 37.455-.48 1.724.848 3.882.633 5.759-1.301 11.401-2.756 22.786-4.266 34.162-.774 5.822-1.64 11.638-2.703 17.413-1.062 5.769-2.51 11.466-3.625 17.226-1.212 6.259-2.168 12.567-3.362 18.83-.784 4.11-1.8 8.176-2.698 12.265-.77 3.501-1.197 7.117-2.341 10.49-2.913 8.59-2.273 18.122-8.027 26.069-2.75 3.8-3.146 9.239-4.963 13.794-5.277 13.233-10.637 26.435-16.17 39.563-2.075 4.922-4.51 9.722-7.144 14.373-5.95 10.507-11.919 21.017-18.32 31.25-2.386 3.816-5.784 7.09-9.095 10.216-7.136 6.738-14.135 13.713-21.897 19.67-8.023 6.157-17.236 10.768-25.242 16.945-4.574 3.53-8.636 8.364-11.416 13.44-5.043 9.211-8.185 19.138-7.756 30.027.426 10.816.169 21.663.071 32.495-.092 10.27 1.887 20.19 4.36 30.095 1.3 5.205 1.476 10.688 2.744 15.904 1.6 6.583 3.574 13.097 5.796 19.5 2.341 6.743 5.064 13.362 7.803 19.96 3.833 9.232 7.805 18.408 11.774 27.584 3.595 8.313 7.19 16.63 10.944 24.871 1.282 2.815 3.854 5.242 4.45 8.133 2.046 9.905 3.885 19.891 5.025 29.935 1.127 9.931 6.823 17.243 12.563 24.587 4.618 5.909 10.06 11.195 14.427 17.267 2.193 3.049 2.929 7.194 4.103 10.912 1.164 3.685 2.2 7.424 3.023 11.199 1.135 5.21 2.718 10.457 2.853 15.72.233 9.089-.592 18.2-.799 27.306-.155 6.83-1.167 13.915.267 20.432 1.563 7.101 5.96 13.108 13.412 16.269 16.706 7.086 31.323 17.376 44.828 29.463 9.047 8.097 12.431 19.785 19.556 28.97 5.784 7.459 12.787 13.973 19.261 20.895.219.233.544.457.848.505 6.73 1.055 13.468 2.063 20.197 3.132 1.767.28 3.5.777 5.263 1.092 1.926.345 3.954 1.106 5.79.8 8.694-1.456 16.93-4.223 24.848-8.284 7.504-3.85 15.238-7.564 23.285-9.93 5.062-1.488 10.926-.827 16.358-.334 7.552.686 10.388 6.78 11.928 12.954 4.727 18.952-1.185 34.995-16.757 45.96-6.428 4.526-14.069 8.871-22.708 10.09-6.314.892-12.417 3.204-18.672 4.633-3.819.872-7.738 1.32-11.625 1.87-5.831.825-11.677 1.544-17.509 2.36-4.478.626-8.98 1.157-13.41 2.043-5.753 1.152-11.416 2.756-17.17 3.902-5.92 1.18-11.92 1.951-17.853 3.07-7.207 1.358-14.382 2.887-21.568 4.355-4.21.86-8.4 1.831-12.625 2.602-8.99 1.64-17.982 3.267-27 4.74-9.348 1.525-18.76 2.68-28.083 4.345-6.096 1.088-12.077 2.815-18.119 4.212-1.428.33-2.905.442-4.345.73-6.173 1.236-12.303 3.221-18.52 3.537-5.485.278-9.287 3.362-13.773 5.41-6.232 2.844-9.327 10.354-9.681 16.95-.342 6.37 2.804 11.423 3.717 17.213.774 4.904 13.039 7.166 16.244 2.933 3.21-4.238 6.109-8.891 8.174-13.773 3.493-8.255 10.01-13.648 17.156-17.819 4.314-2.518 10.21-2.358 15.41-3.317 5.311-.979 10.654-1.787 15.959-2.795 5.872-1.114 11.709-2.415 17.577-3.552 7.84-1.519 15.697-2.954 23.545-4.437.801-.151 1.578-.449 2.383-.56 5.345-.742 10.694-1.452 16.041-2.172l16.84-2.267 3.088 14.206c-9.864 1.518-19.362 2.874-28.818 4.475-5.454.923-10.822 2.343-16.265 3.345-2.9.533-5.896.52-8.812.984-9.35 1.487-18.72 2.894-28.012 4.695-7.051 1.367-14.143 2.84-20.951 5.074-8.813 2.892-12.462 11.042-15.525 18.66-3.518 8.748-9.726 14-17.954 17.068-2.93 1.092-6.765.584-9.982-.124a47 47 0 0 1-11.707-4.295c-2.377-1.255-4.585-3.456-6.02-5.762-7.148-11.479-7.49-24.339-6.634-37.262.157-2.372 2.132-4.608 3.202-6.937 5.208-11.335 15.105-16.4 26.385-19.22 12.35-3.086 24.755-6.043 37.262-8.377 19.756-3.687 39.647-6.642 59.424-10.22 14.774-2.674 29.426-6.017 44.194-8.726 9.321-1.71 18.784-2.634 28.13-4.224 6.427-1.093 12.738-2.858 19.149-4.073 5.939-1.127 11.972-1.76 17.907-2.906 6.557-1.265 12.995-3.667 19.584-4.115 8.138-.554 14.473-4.981 21.578-7.789 6.82-2.695 17.288-20.314 13.28-28.258-2.488-4.93-4.348-6.741-9.379-4.608-10.25 4.348-20.224 9.352-30.48 13.685-4.598 1.942-9.576 3.973-14.43 4.097-8.007.204-16.091-.824-24.074-1.861-7.114-.925-14.16-2.448-21.183-3.959-2.2-.473-4.718-1.26-6.251-2.76-8.871-8.68-19.01-16.546-24.044-28.244-6.469-15.033-16.967-26.258-30.541-34.696-9.437-5.866-19.236-11.223-29.206-16.132-7.379-3.633-11.112-10.051-14.465-16.699-4.646-9.21-4.452-18.726-2.71-29.081 1.888-11.22 1.346-23.08.212-34.497-.782-7.874-3.612-15.82-6.964-23.07-2.43-5.254-6.703-9.98-11.059-13.952-7.93-7.23-11.509-17.145-17.187-25.742-.87-1.317-.213-3.574-.494-5.36-1.623-10.324-2.006-21.082-5.317-30.842-4.158-12.26-10.95-23.605-16.2-35.523-4.48-10.17-8.387-20.592-12.55-30.903-2.919-7.228-6.242-14.324-8.645-21.72-2.26-6.958-3.642-14.21-5.24-21.37-1.633-7.323-3.056-14.691-4.582-22.037-.1-.481-.397-.94-.414-1.417-.69-19.37-3.043-38.871-1.542-58.072 1.429-18.269 9.781-34.854 24.107-47.247a124.4 124.4 0 0 1 20.618-14.435c10.35-5.78 17.66-14.762 26.204-22.475 7.862-7.097 12.016-16.591 17.854-25.012 8.756-12.63 13.436-27.04 20.097-40.548 4.793-9.721 7.75-20.34 11.69-30.495 1.826-4.707 4.223-9.193 6.013-13.911 1.083-2.853 1.562-5.946 2.2-8.954a1549 1549 0 0 0 3.723-18.162c.767-3.84 1.328-7.726 2.218-11.536 2.152-9.214 4.67-18.348 6.594-27.607 1.163-5.6 1.324-11.4 2.242-17.061.914-5.633 2.096-11.23 3.361-16.795 4.219-18.555 5.684-37.172-1.674-55.18-4.583-11.215-10.66-21.822-16.08-32.694-4.113-8.251-8.766-16.282-12.203-24.804-2.527-6.264-.33-12.726 2.21-18.856 4.24-10.232 16.216-15.663 26.922-12.962 7.575 1.911 15.448 2.85 23.247 3.627 12.777 1.274 25.6 2.089 38.407 3.048 5.432.407 10.88 1.077 16.307.961 24.041-.512 48.095-.926 72.105-2.134 7.54-.38 15.048-2.812 22.411-4.871 8.918-2.495 17.792-5.259 26.456-8.513 9.92-3.726 19.906-7.506 29.292-12.366 13.85-7.17 27.212-15.284 40.73-23.085 1.546-.892 3.076-2.134 4.082-3.583 5.8-8.354 11.722-16.645 17.056-25.293 5.758-9.335 14.133-14.98 24.264-17.938 5.22-1.523 10.897-1.49 16.368-2.152 5.496-.665 5.193-5.986 5.378-8.91.541-8.515 3.934-15.459 9.187-21.657 1.44-1.7 4.048-2.845 6.314-3.321 4.795-1.01 9.708-1.807 14.593-1.946 4.745-.135 9.51.763 14.276 1.01 2.865.148 5.821.309 8.61-.21 9.93-1.85 19.916-3.565 29.67-6.133 10.432-2.748 20.599-6.492 30.94-9.61 3.428-1.035 7.044-1.438 10.56-2.2 13.395-2.905 26.671-6.722 40.215-8.461 9.68-1.243 18.574-4.466 27.298-7.89 10.322-4.05 19.07-10.6 21.775-22.788 2.143-9.66 4.786-19.26 8.002-28.614 2.601-7.564-1.15-14.795-6.632-16.759-11.964-4.285-15.968-14.415-20.408-24.366-3.274-7.338-6.325-14.871-8.454-22.599-2.473-8.978-2.29-18.354 1.124-27.085 2.45-6.263 9.13-6.248 14.503-6.267 7.862-.027 15.758 1.018 23.587 2.022 11.608 1.49 23.076 1.267 34.672-.53 8.262-1.282 13.195-6.31 18.256-12.157 6.466-7.47 14.27-13.4 23.668-17.026 3.358-1.296 6.39-3.44 9.75-4.73 8.742-3.358 17.288-4.246 27.028-2.501 9.899 1.773 17.334 6.302 23.871 12.728 4.464 4.387 7.89 10.036 10.99 15.563 5.591 9.96 10.953 20.086 15.72 30.46 3.617 7.872 6.313 16.209 6.387 25.079.06 7.262.012 14.526.012 21.893 6.342-1.34 12.166-2.588 18.001-3.781.966-.197 2.027-.367 2.968-.177 7.182 1.447 14.602 2.256 21.453 4.667 10.653 3.749 21.014 8.39 31.297 13.094 4.55 2.081 8.662 5.158 12.878 7.928 8.775 5.765 17.766 11.26 26.114 17.595 4.61 3.5 8.108 8.469 12.093 12.788 2.014 2.183 3.692 4.87 6.107 6.418 1.505.966 4.216.683 6.187.179 7.812-1.997 10.672-9.112 14.502-14.999 4.117-6.33 7.113-13.435 11.567-19.49 4.345-5.907 11.448-7.19 18.247-5.975 11.973 2.14 23.838 4.95 35.66 7.836 10.568 2.58 21.022 5.627 31.517 8.5 13.958 3.819 28.024 7.3 41.815 11.65 7.657 2.417 14.867 6.266 22.248 9.54 9.435 4.183 19.005 5.497 29.274 3.106 8.087-1.883 16.434-2.661 24.677-3.853 3.082-.446 6.19-.887 9.295-.948 3.831-.075 7.672.228 11.505.419.638.031 1.326.593 1.884.461 10.677-2.515 16.219 5.144 21.905 11.63 2.262 2.58 3.008 6.761 3.746 10.356 2.117 10.315-3.574 18.146-8.811 26.091-5.533 8.394-10.93 16.877-16.443 25.284-6.546 9.981-13.05 19.99-19.754 29.865-10.575 15.58-15.242 33.186-19.22 51.322-1.966 8.966-.83 17.347.54 25.773 1.686 10.367 6.655 19.766 12.027 28.713 8.297 13.82 17.049 27.369 25.656 41.002 5.738 9.088 13.389 16.313 22.272 22.245 7.941 5.303 15.98 10.461 23.987 15.664 9.042 5.873 18.447 11.258 27.066 17.696 13.037 9.738 25.537 20.196 38.253 30.365 5.795 4.634 11.918 8.935 17.234 14.068 5.157 4.98 10.105 10.42 14.01 16.4a313 313 0 0 1 17.136 29.706c6.141 12.13 11.095 24.86 17.221 36.999 5.49 10.876 12.213 21.128 17.755 31.98 4.37 8.558 11.502 13.284 19.887 16.65 3.535 1.419 7.286 2.675 11.04 3.093 9 1.003 18.32 3.151 27.043 1.807 20.415-3.146 40.796-.702 61.156-1.629 4.657-.212 9.36.297 13.993-.1 9.631-.824 18.249 2.275 26.957 5.77 13.344 5.356 27.04 9.861 40.262 15.487 6.258 2.662 12.097 6.653 17.538 10.811 7.858 6.005 7.743 28.954-4.51 33.47-4.319 1.592-8.851 3.422-13.34 3.576-13.663.469-27.359-.084-41.03.26-10.007.253-20.014 1.107-29.978 2.114-2.389.241-4.718 1.99-6.843 3.395-.704.466-1.276 2.492-.879 2.998 1.016 1.297 2.553 2.916 3.985 3.023 4.631.345 9.432.736 13.946-.097 12.822-2.363 25.553-3.768 38.613-1.852 8.416 1.234 17.046 1.01 25.46 2.256 6.345.94 12.493 3.194 18.738 4.83 10.81 2.834 21 7.668 32.534 8.223 9.596.462 18.945.275 28.215-2.2 6.153-1.643 12.899-2.282 18.24-5.353 4.174-2.398 7.28-7.487 9.644-12.015 4.281-8.201 9.976-14.92 17.311-20.404 2.887-2.159 5.601-4.55 8.515-6.668 8.526-6.198 17.62-9.373 28.642-8.853 12.618.595 19.812 9.572 28.863 15.677 13.04 8.795 22.753 20.95 31.224 33.966 5.963 9.161 11.258 18.79 12.953 29.933 1.13 7.427 1.763 15.105 4.228 22.103 2.267 6.437 6.05 12.617 10.3 18.016 7.505 9.531 16.137 18.317 20.46 29.866 3.893 10.407 6.526 21.022 5.546 32.562-1.753 20.617-15.712 32.375-30.464 43.268-8.153 6.02-13.6 14.114-16.505 22.639-3.218 9.446-1.735 19.978 6.201 28.288 6.123 6.41 11.021 14.034 12.803 22.68.944 4.58-.238 10.275-2.249 14.644-4.048 8.796-10.277 16.65-13.833 25.596-3.965 9.976-12.347 14.38-20.251 19.645-1.609 1.072-4.407 1.271-6.358.75-6.527-1.74-13.745-2.726-19.195-6.296-13.028-8.535-25.31-18.235-37.675-27.749-7.792-5.995-15.86-5.152-23.581 2.124-9.316 8.779-20.349 14.965-32.606 18.76-8.05 2.492-14.987 6.526-21.882 11.545-11.11 8.088-15.714 20.399-22.835 31.018-8.317 12.401-14.821 26.062-23.584 38.105-5.95 8.177-13.708 15.45-24.622 17.648-6.222 1.254-12.277 3.368-18.515 4.507-4.015.734-8.079.745-11.6-2.68-5.01-4.872-11.592-6.298-18.37-7.14-9.048-1.126-18.036-2.09-26.931.888-.61.204-1.326.196-1.98.137-12.675-1.134-22.357 5.932-32.437 11.86-7.93 4.665-15.71 9.59-23.725 14.1-4.42 2.486-9.092 4.608-13.83 6.425-4.056 1.556-8.315 2.701-12.575 3.585-22.288 4.623-44.89 3.05-67.38 2.849-6.726-.06-13.541-2.055-20.122-3.866-10.984-3.021-21.85-6.494-32.697-9.989-10.683-3.442-21.166-7.556-31.952-10.618-10.124-2.875-19.152-7.895-28.202-12.89-2.882-1.592-5.808-4.293-7.184-7.208-4.627-9.802-8.8-19.838-12.7-29.956-4.176-10.833-11.313-14.452-21.876-15.118-11.288-.71-22.674-.547-33.981-.006-6.173.295-11.279 4.864-12.069 11.607-.981 8.382-1.573 16.512 3.366 23.723 3.496 5.103 7.955 9.537 11.812 14.406 9.476 11.96 19.613 23.505 27.9 36.247 3.396 5.223 3.79 13.129 3.624 19.766-.238 9.44-1.794 18.924-3.623 28.225-2.224 11.308-6.036 22.164-14.26 30.735-9.71 10.12-22.262 13.791-35.746 13.987-8.844.128-18.236.439-26.445-2.225-13.49-4.378-26.916-1.935-40.333-2.528-23.024-1.018-46.077-1.375-69.114-2.116-17.875-.576-35.744-1.328-53.617-1.977-19.204-.697-38.485-.516-57.597-2.223-39.697-3.547-79.422-.998-119.123-1.68-16.093-.277-32.203.643-48.308.871-10.367.148-20.74-.09-31.107.06-12.137.176-24.27.828-36.405.855-54.7.119-109.402-.22-164.096.362-11.605.123-23.205 3.041-34.146 7.895-6.489 2.878-13.514 4.537-20.267 6.833-8.476 2.883-16.915 5.872-25.38 8.787-9.959 3.43-19.962 6.737-29.883 10.273-10.992 3.917-21.906 8.05-32.866 12.057-13.022 4.762-26.135 9.032-39.975 11.025-11.782 1.697-23.394 4.554-35.15 6.478-5.835.955-11.817 1.183-17.744 1.361-15.265.46-30.555.355-45.798 1.17-9.798.522-19.523 2.348-29.296 3.446-5.559.625-11.191.678-16.714 1.498-6.747 1.001-13.415 2.535-20.264 3.868l2.57 16.705-14.718 2.456-7.187-43.902 14.618-2.518 2.345 11.98c9.542-1.338 18.69-2.148 27.63-3.973 18.92-3.862 38.036-3.583 57.184-4.092 14.928-.397 29.806-2.523 44.715-3.781 5.753-.486 11.622-.164 17.272-1.157 8.147-1.431 16.191-3.544 24.19-5.697 10.844-2.92 21.7-5.854 32.37-9.339 9.712-3.17 19.12-7.258 28.773-10.626 10.397-3.628 20.953-6.798 31.379-10.344 6.279-2.136 12.419-4.677 18.665-6.914 6.949-2.49 13.95-4.832 20.917-7.275.445-.156.783-.618 1.504-1.183"/></svg>