<svg xmlns="http://www.w3.org/2000/svg" viewBox="0 0 2763 1000" xml:space="preserve"><path fill="#fff" d="M542.84 777.997c-12.47 3.077-24.708 4.859-37.13 3.726-10.024-.915-19.975-2.61-29.98-3.77-7.52-.872-15.123-1.13-22.602-2.242-7.499-1.113-14.89-2.944-22.329-4.463-.323-.066-.678-.286-.957-.21-6.561 1.787-12.536-1.242-18.767-2.21-12.947-2.01-25.9-3.995-38.885-5.746-9.596-1.294-19.255-2.12-28.867-3.308-8.13-1.004-16.225-2.273-24.345-3.345-14.471-1.908-28.963-3.665-43.421-5.663-8.88-1.227-17.697-2.9-26.572-4.157-7.72-1.093-15.484-1.876-23.226-2.811-8.803-1.064-17.606-2.116-26.403-3.227-6.993-.882-14.005-1.665-20.953-2.83-5.234-.877-10.377-2.296-15.566-3.45-.63-.14-1.293-.133-1.941-.18-6.818-.498-13.66-.79-20.45-1.535-9.948-1.09-19.84-2.723-29.796-3.702-7.236-.712-14.566-1.28-21.803-.909-6.148.315-12.706 1-18.188 3.49-5.088 2.312-10.396 6.426-13.108 11.174-4.64 8.123-8.424 17.042-7.764 26.976.962 14.473 9.483 30.511 25.888 33.963 11.554 2.43 22.955 1.955 34.47.652 5.548-.627 11.083-1.377 16.638-1.93 7.699-.767 15.418-1.324 23.113-2.119 4.562-.47 9.08-1.38 13.645-1.807 3.695-.345 7.484.093 11.135-.456 5.086-.765 10.081-2.134 15.12-3.225.96-.208 1.937-.442 2.91-.465 15.271-.358 30.55-.48 45.812-1.067 20.828-.8 41.637-2.126 62.466-2.877 11.152-.402 22.347-.454 33.493.023 13.834.591 27.636 1.923 41.456 2.874 6.096.42 12.218.53 18.3 1.085 4.063.371 8.089 1.213 12.108 1.964 11.798 2.204 23.608 4.358 35.366 6.763 5.05 1.032 9.974 3.724 14.97 3.759 11.082.078 21.268 4.372 32.071 5.624 5.958.69 11.722 2.967 17.61 4.374 7.936 1.896 15.984 3.367 23.847 5.519 12.386 3.388 24.666 7.163 36.976 10.827 11.225 3.341 22.532 6.449 33.612 10.222 9.998 3.405 19.742 7.557 29.588 11.407 7.917 3.096 15.812 6.246 23.727 9.345 7.296 2.857 14.59 5.722 21.914 8.503 6.865 2.605 13.863 4.885 20.627 7.723 4.886 2.05 9.432 4.895 14.225 7.185 9.799 4.684 19.721 9.11 29.48 13.873 9.284 4.53 18.32 9.573 27.655 13.985 10.631 5.025 21.524 9.491 32.211 14.402 9.157 4.207 18.668 3.876 27.206-.164 10.313-4.88 19.957-10.888 23.448-23.613 2.912-10.615 2.634-20.666.186-31.116-2.572-10.976-4.486-22.104-6.93-33.111-2.618-11.787-5.643-23.483-8.255-35.27-1.768-7.98-3.267-16.028-4.633-24.088-1.505-8.883-3.194-17.777-3.914-26.737-.58-7.209-.314-14.573.422-21.781 1.612-15.803 8.637-29.685 16.935-42.858 5.977-9.488 12.69-18.462 21.879-25.347 4.969-3.724 8.867-9.024 14.102-12.21 7.238-4.404 15.172-7.743 23.014-11.052 6.316-2.665 12.962-4.54 19.416-6.891 7.395-2.694 14.704-5.628 22.114-8.28 15.353-5.493 30.796-10.742 46.11-16.34 9.612-3.515 19.005-7.626 28.592-11.211 11.594-4.336 23.26-8.487 34.952-12.554 10.007-3.48 20.136-6.612 30.135-10.115 10.928-3.828 21.78-7.872 32.642-11.883 14.38-5.31 28.75-10.65 43.104-16.029 12.699-4.759 25.343-9.662 38.06-14.371 17.726-6.564 35.496-13.01 53.25-19.498 14.407-5.265 28.812-10.536 43.231-15.767 14.225-5.162 28.747-9.63 42.603-15.64 9.15-3.968 17.713-9.61 25.913-15.39 22.026-15.528 43.929-31.25 65.457-47.457 12.353-9.301 24.06-19.494 35.73-29.66 11.073-9.646 10.308-21.877 1.06-32.603-5.9-6.843-12.27-13.296-17.927-20.329-5.937-7.382-11.261-15.256-16.88-22.896-1.85-2.515-3.872-4.907-5.659-7.466-5.303-7.594-7.172-16.949-7.808-25.359-.925-12.236-1.862-25.515 5.087-36.82 5.477-8.907 13.268-15.717 21.89-21.91 10.923-7.846 23.964-9.04 35.957-13.424 2.49-.91 5.794.448 8.728.703 7.876.686 15.783 1.116 23.62 2.105 3.847.486 7.693 1.665 11.319 3.089 9.271 3.642 18.972 6.293 27.007 12.74 10.574 8.487 21.44 16.61 32.203 24.86 17.046 13.063 34.048 26.185 51.192 39.12 9.232 6.965 19.12 13.11 27.997 20.486 12.55 10.425 25.331 20.827 36.314 32.798 7.998 8.718 15.625 18.508 17.092 31.532.7 6.2 3.788 12.132 5.811 18.18.155.463.667.895.642 1.32-.793 13.49 2.459 27.167-2.086 40.505-1.573 4.615-2.938 9.416-3.487 14.236-.69 6.06-3.785 10.633-7.246 15.242-5.541 7.378-10.926 14.664-18.026 20.924-9.922 8.749-20.24 16.149-32.904 20.209-6.66 2.135-13.035 6.24-19.755 6.786-6.148.5-11.373 3.08-17.111 4.277-11.007 2.298-21.718 5.98-32.686 8.503-11.289 2.597-22.84 4.078-34.081 6.845-8.035 1.978-15.996 4.726-23.519 8.161-5.521 2.522-10.411 6.54-15.32 10.24-2.316 1.744-3.219 4.141-1.656 7.432 3.865 8.14 10.382 13.337 18.407 16.308 9.491 3.514 19.257 6.412 29.081 8.866 7.874 1.967 16.029 2.79 24.03 4.28 4.811.895 9.56 2.123 14.348 3.156 9.081 1.958 18.197 3.765 27.247 5.853 11.276 2.602 22.475 5.542 33.758 8.113 7.947 1.81 16.02 3.065 23.961 4.897 10.495 2.42 20.804 5.92 31.409 7.498 6.832 1.017 13.065 3.402 19.603 4.98 10.36 2.502 21.037 3.666 31.553 5.553a1381 1381 0 0 1 31.243 5.954c7.834 1.593 15.573 3.668 23.42 5.182 7.707 1.486 15.512 2.458 23.25 3.797 8.053 1.394 16.055 3.09 24.12 4.405 6.45 1.052 12.956 1.774 19.446 2.563 7.173.872 14.365 1.585 21.533 2.494 5.856.743 11.684 1.699 17.531 2.51 7.212 1 14.417 2.076 21.652 2.878 5.273.585 10.599.687 15.885 1.174 6.378.588 12.745 1.307 19.107 2.055 7.822.92 15.635 1.92 23.45 2.903 10.093 1.27 20.171 2.671 30.28 3.806 10.62 1.193 21.274 2.087 31.903 3.214 5.053.535 10.074 1.368 15.12 1.964 8.858 1.046 17.714 2.115 26.589 2.99 14.408 1.42 28.86 2.438 43.237 4.112 9.658 1.124 19.19 3.296 28.833 4.6 6.24.845 12.576.968 19.408 1.453l-5.114 35.955c-15.495-1.512-30.831-2.79-46.11-4.562-14.5-1.681-28.915-4.09-43.414-5.784-11.602-1.357-23.282-2.034-34.91-3.18-8.661-.854-17.301-1.933-25.94-2.99a3474 3474 0 0 1-30.872-3.924c-16.764-2.205-33.499-4.654-50.29-6.627-10.022-1.177-20.154-1.398-30.188-2.494-12.065-1.318-24.075-3.128-36.114-4.683-3.754-.485-7.54-.732-11.288-1.257-13.953-1.956-27.916-3.859-41.839-6.015a2021 2021 0 0 1-42.128-7.004c-10.292-1.818-20.567-3.772-30.778-5.998-17.379-3.788-34.676-7.948-52.055-11.735-10.536-2.297-21.181-4.09-31.738-6.296-5.744-1.2-11.38-2.904-17.111-4.173-7.662-1.698-15.388-3.106-23.05-4.804-6.212-1.378-12.344-3.12-18.558-4.487-8.783-1.932-17.634-3.555-26.41-5.512-11-2.453-21.932-5.21-32.934-7.653-11.502-2.554-23.108-4.662-34.558-7.421-5.652-1.362-11.134-3.557-16.55-5.73-6.141-2.462-12.34-4.926-18.129-8.09-12.522-6.847-19.98-18.28-25.392-30.906-6.087-14.2-3.648-32.65 8.615-42.896 6.716-5.61 12.776-12.28 20.187-16.71 7.56-4.518 16.216-7.561 24.747-10.016 11.748-3.38 23.825-5.624 35.77-8.313 11.804-2.657 23.662-5.087 35.417-7.94 11.59-2.814 23.422-5.132 34.528-9.314 12.56-4.728 24.317-11.28 34.014-21.174 8.868-9.049 11.796-20.223 13.116-32.057.66-5.926.643-12.043.01-17.976-1.577-14.794-6.035-28.264-17.07-39.28-18.261-18.228-39.507-32.637-59.822-48.244-17.372-13.345-34.932-26.445-52.407-39.657-9.592-7.252-18.654-15.402-28.948-21.46-7.138-4.201-15.922-5.69-24.067-8.061-3.75-1.092-7.707-1.694-11.61-2-11.338-.886-21.342 2.697-30.167 9.728-7.523 5.994-8.501 16.898-5.445 25.795 4.22 12.284 13.62 20.84 21.073 30.76 8.204 10.917 17.966 20.731 25.527 32.043 4.812 7.2 7.95 15.885 7.686 25.196-.24 8.403.995 17.057-3.554 24.722-4.091 6.893-7.879 14.224-13.235 20.041-6.58 7.146-14.51 13.091-22.11 19.242-8.702 7.044-17.65 13.789-26.552 20.584-12.022 9.176-24.336 17.987-36.097 27.483-14.4 11.626-30.245 20.908-46.531 29.404-9.066 4.73-18.776 8.295-28.377 11.904-12.535 4.712-25.32 8.76-37.87 13.435-14.912 5.555-29.633 11.626-44.546 17.178-10.122 3.767-20.49 6.866-30.644 10.553-11.674 4.24-23.195 8.898-34.85 13.191-10.922 4.023-21.979 7.68-32.888 11.735-9.928 3.69-19.68 7.854-29.617 11.517-9.06 3.34-18.28 6.24-27.4 9.42a2496 2496 0 0 0-28.731 10.201c-13.494 4.888-26.962 9.847-40.434 14.796-9.19 3.377-18.35 6.835-27.554 10.173-10.142 3.678-20.336 7.211-30.474 10.902-7.212 2.626-14.345 5.469-21.554 8.102-7.35 2.684-14.652 5.57-22.15 7.77-17.842 5.238-32.25 14.696-43.45 30.017-7.744 10.593-13.296 21.916-16.97 34.173-1.466 4.891-.9 10.654-.2 15.878 1.563 11.666 3.628 23.273 5.808 34.844 1.423 7.549 3.483 14.975 5.125 22.485 3.664 16.754 7.48 33.48 10.776 50.307 2.075 10.593 4.207 21.312 4.633 32.042.298 7.502-1.781 15.237-3.671 22.645-1.426 5.587-3.59 11.208-6.553 16.135-7.138 11.867-17.803 20.357-29.326 27.65-15.036 9.515-32.081 11.408-49.057 9.468-9.407-1.075-18.573-5.71-27.447-9.643-11.843-5.249-23.304-11.36-34.917-17.127-11.875-5.896-23.637-12.03-35.629-17.68-11.865-5.589-23.895-10.844-35.962-15.987-12.584-5.363-25.299-10.416-37.956-15.607-7.49-3.071-14.845-6.542-22.5-9.126-10.46-3.53-21.205-6.202-31.717-9.586-10.095-3.25-20.004-7.073-30.081-10.382-6.213-2.04-12.541-3.776-18.9-5.308-7.935-1.912-15.966-3.422-23.935-5.198-16.265-3.626-32.516-7.318-48.775-10.977-12.894-2.903-25.72-6.182-38.71-8.567-9.513-1.747-19.24-2.322-28.875-3.403-14.528-1.63-29.027-3.723-43.6-4.687-8.688-.575-17.494.619-26.244 1.064-.967.049-1.912.56-2.876.595-10.273.372-20.546.724-30.821 1.02-23.88.687-47.777 1.012-71.637 2.11-19.195.884-38.278 2.91-57.222 6.648-11.079 2.186-22.568 2.384-33.892 3.207-11.699.85-23.42 1.875-35.135 1.913-14.319.046-28.262-3.52-40.136-11.23-7.576-4.918-13.265-12.884-19.4-19.836-6.254-7.087-7.985-16.146-10.581-24.984-1.82-6.193-2.273-12.187-2.776-18.436-.642-7.983 1.052-15.59 3.551-22.806 3.035-8.763 6.675-17.583 11.666-25.341 8.877-13.8 21.418-23.11 37.877-26.911 15.533-3.588 31.08-3.786 46.76-1.932 16.463 1.947 32.938 3.822 49.36 6.071 12.004 1.644 23.904 4.028 35.899 5.743 11.374 1.626 22.83 2.677 34.217 4.228 11.848 1.613 23.641 3.626 35.485 5.27 9.916 1.376 19.884 2.372 29.804 3.718 12.013 1.63 24 3.456 35.998 5.191 8.756 1.266 17.508 2.556 26.27 3.775 12.509 1.74 25.026 3.412 37.536 5.135 11.692 1.61 23.372 3.308 35.072 4.856 11.385 1.506 22.79 2.86 34.183 4.298 7.002.884 13.983 1.99 21.005 2.652 9.194.867 18.43 2.04 27.63 1.901 11.142-.169 22.053-2.461 31.975-7.998 7.938-4.43 16.651-7.988 23.48-13.757 8.877-7.497 16.565-16.512 24.147-25.4 8.723-10.226 16.776-21.023 25.113-31.578 6.228-7.885 11.666-16.586 18.835-23.494 13.83-13.327 28.281-26.072 43.15-38.232 10.688-8.74 23.275-14.672 36.205-19.58 15.145-5.75 30.402-11.206 45.547-16.954 15.238-5.782 30.35-11.893 45.606-17.625 14.415-5.415 28.883-10.704 43.443-15.713 13.035-4.486 26.29-8.332 39.324-12.82 6.633-2.285 12.926-5.54 19.495-8.036 8.984-3.415 18.089-6.512 27.133-9.77 9.807-3.534 19.593-7.125 29.406-10.64 10.552-3.779 21.164-7.393 31.68-11.272 12.564-4.635 25.024-9.555 37.587-14.195 7.447-2.75 15.043-5.1 22.506-7.812 6.87-2.495 13.633-5.28 20.477-7.849 6.445-2.42 12.926-4.743 19.403-7.075 6.773-2.439 13.56-4.837 20.341-7.253 10.176-3.626 20.38-7.175 30.519-10.902 9.995-3.674 19.908-7.576 29.889-11.29 9.638-3.587 19.363-6.943 28.968-10.617 12.664-4.844 25.838-8.844 35.219-19.608 5.106-5.859 7.73-12.623 8.47-20.422.838-8.83-2.153-16.865-4.087-25.147-2.67-11.434-5.24-22.893-8.092-34.281-1.864-7.446-4.228-14.766-6.229-22.18a3107 3107 0 0 1-9.494-35.96c-3.087-12.012-6.553-23.959-8.911-36.117-2.646-13.637-4.296-27.471-6.259-41.237-.834-5.855-1.847-11.746-1.938-17.634-.294-19.131 3.936-37.055 12.845-54.283 12.303-23.79 31.459-39.136 55.994-47.857 10.696-3.803 21.906-6.901 33.737-6.327 19.866.964 39.758 1.423 59.639 2.08 10.606.35 21.228.43 31.817 1.064 12.17.73 24.295 2.337 36.47 2.826 12.48.501 25.001-.136 37.494.17 17.553.433 35.097 1.259 52.643 1.952 7.11.281 14.212.761 21.323.967 14.105.409 28.215.624 42.32 1.04a9114 9114 0 0 1 61.642 2.001c15.718.57 31.424 1.481 47.145 1.938 17.97.522 35.965.34 53.92 1.141 20.279.904 40.591 1.94 60.763 4.097 14.44 1.544 28.65 5.14 43 7.615 18.51 3.191 35.007 11.17 50.185 21.749 14.744 10.277 28.912 21.383 43.298 32.171 12.252 9.189 24.52 18.357 36.659 27.694 12.394 9.534 24.53 19.407 36.98 28.865 12.58 9.556 25.488 18.677 38.104 28.185 14.336 10.803 28.48 21.863 42.76 32.74 12.04 9.168 24.265 18.098 36.216 27.38 16.132 12.528 31.97 25.434 48.139 37.913 15.631 12.064 31.582 23.715 47.285 35.687 22.011 16.78 43.893 33.729 65.889 50.529 14.135 10.796 28.41 21.41 42.556 32.192 9.83 7.492 19.53 15.157 29.325 22.695 3.78 2.909 7.506 5.952 11.594 8.36 1.338.787 4.223.42 5.577-.557 5.33-3.849 9.978-8.739 15.568-12.097 4.369-2.626 9.687-4.727 14.701-5.017 12.336-.713 24.932-1.588 37.057.152 10.33 1.483 20.548 5.673 30.1 10.182 14.993 7.08 29.9 14.62 43.892 23.467 15.649 9.897 30.29 21.397 45.267 32.341 8.513 6.22 16.842 12.693 25.21 19.107 14.375 11.018 28.81 21.96 43.048 33.152 18.138 14.26 36.343 28.453 54.051 43.234 9.411 7.855 17.369 17.46 26.834 25.238 9.65 7.93 13.094 19.152 18.802 29.347 7.425 13.258 7.82 27.387 6.338 41.371-1.558 14.695-6.914 28.558-14.39 41.642-7.839 13.716-20.468 21.958-32.885 30.164-8.363 5.527-18.446 8.59-28.772 8.813-11.172.242-22.384.204-33.532-.477-9.485-.58-18.898-2.293-28.353-3.421-13.854-1.654-27.708-3.305-41.578-4.816-8.022-.874-16.107-1.213-24.103-2.26-10.384-1.358-20.698-3.236-31.06-4.776-3.742-.556-7.539-.74-11.303-1.166-14.355-1.628-28.696-3.4-43.066-4.899-14.404-1.501-28.857-2.541-43.248-4.153-13.36-1.496-26.662-3.52-39.999-5.232-7.657-.984-15.34-1.772-23.002-2.715-18.73-2.306-37.444-4.742-56.188-6.923-5.38-.626-10.838-.56-16.63-.828l-5.076 37.918-29.708-3.942 14.11-106.973 29.66 3.92-4.114 32.346c11.627 1.302 23.176 2.656 34.739 3.875 16.35 1.723 32.732 3.168 49.06 5.07 13.014 1.516 25.96 3.606 38.953 5.305 5.546.725 11.156.962 16.705 1.667 11.705 1.486 23.378 3.228 35.089 4.661 3.613.443 7.312.126 10.96.34 3.278.192 6.545.602 9.81.974 17.449 1.99 34.91 3.884 52.339 6.038 11.55 1.428 23.035 3.379 34.585 4.815 5.706.709 11.506.632 17.237 1.192 4.396.43 8.732 1.444 13.124 1.948 9.468 1.087 18.96 1.96 28.431 3.017 10.932 1.221 21.832 3.264 32.784 3.56 6.663.179 13.677-1.492 20.008-3.784 5.016-1.816 9.34-5.692 13.778-8.918 7.211-5.241 11.47-12.617 13.657-21.062 1.909-7.37 3.806-14.856 4.452-22.398.37-4.323-1.545-8.927-2.84-13.283-1.128-3.789-2.57-7.536-4.332-11.073-4.48-9.004-12.77-14.493-19.984-20.941-8.372-7.484-16.746-14.975-25.344-22.195-10.84-9.101-21.9-17.939-32.877-26.876-10.258-8.353-20.345-16.932-30.852-24.96-9.752-7.453-20.067-14.164-29.935-21.47-8.466-6.268-16.432-13.225-25.019-19.314-10.278-7.29-20.883-14.135-31.53-20.882-9.266-5.87-18.572-11.747-28.27-16.838-6.584-3.456-14.047-5.197-20.812-8.356-8.615-4.023-17.626-4.74-26.852-4.613-7.265.1-13.329 3.556-19.152 7.364-.93.608-.649 2.83-1.34 4.08-2.86 5.169-7.392 8.11-13.057 9.58-3.104.805-6.1 2.762-9.171 2.821-10.995.212-20.297-4.546-28.702-11.205-8.435-6.682-16.602-13.713-25.177-20.207-13.86-10.496-28.065-20.536-41.932-31.024-22.846-17.281-45.511-34.8-68.302-52.155-21.75-16.56-43.592-32.997-65.332-49.569-9.514-7.253-18.808-14.796-28.323-22.048-18.856-14.372-37.873-28.534-56.681-42.97-17.123-13.142-33.965-26.65-51.099-39.778-14.894-11.412-30.085-22.437-45.03-33.783-14.151-10.745-28.081-21.782-42.245-32.51-10.565-8.002-21.319-15.758-32.042-23.55-8.652-6.286-17.142-12.84-26.14-18.594-11.977-7.656-25.285-12.299-39.12-15.505-8.584-1.99-17.097-4.293-25.654-6.405-1.114-.275-2.299-.315-3.455-.352-23.26-.744-46.525-1.409-69.783-2.224-15.719-.551-31.425-1.466-47.145-1.936-17.268-.516-34.607.09-51.807-1.215-31.304-2.373-62.618-2.806-93.976-2.93-13.05-.05-26.089-1.471-39.145-1.842-20.248-.575-40.517-.523-60.759-1.239-13.504-.477-26.967-2.046-40.47-2.704-8.812-.429-17.669.12-26.491-.186-6.314-.22-12.595-1.483-18.907-1.638-6.614-.162-13.258.829-19.868.631-13.056-.39-26.122-2.053-39.138-1.656-9.824.3-19.42 3.005-28.46 7.836-8.768 4.685-15.98 10.589-21.507 18.77-6.86 10.155-10.88 21.323-13.187 33.331-2.151 11.193.075 21.925 2.002 32.775 2.113 11.906 3.802 23.896 6.28 35.723 1.703 8.127 4.597 15.998 6.662 24.058 1.931 7.54 3.322 15.217 5.228 22.764 1.797 7.118 4.155 14.097 5.91 21.225 2.534 10.297 4.573 20.717 7.145 31.004 2.415 9.66 5.415 19.173 7.844 28.829 2.357 9.367 5.727 18.763 3.91 28.574-1.682 9.09-3.76 18.044-7.392 26.772-7.038 16.915-20.704 26.857-35.445 35.557-7.642 4.51-16.367 7.239-24.714 10.484-9.835 3.825-19.767 7.404-29.7 10.967-9.622 3.452-19.351 6.607-28.936 10.157-7.478 2.769-14.772 6.031-22.212 8.91-6.264 2.422-12.596 4.679-18.942 6.88-10.33 3.585-20.737 6.951-31.037 10.62-12.422 4.423-24.757 9.09-37.146 13.608-12.24 4.463-24.502 8.862-36.75 13.302-10.995 3.986-22.04 7.842-32.96 12.022-13.061 4.999-25.961 10.417-39.034 15.381-6.25 2.374-12.83 3.873-19.101 6.199-15.51 5.753-30.872 11.907-46.402 17.604-10.17 3.731-20.57 6.827-30.79 10.429-9.049 3.19-17.992 6.682-26.98 10.048-6.866 2.572-13.74 5.122-20.587 7.743-7.455 2.853-14.83 5.926-22.338 8.63-10.159 3.659-20.503 6.817-30.598 10.638-9.308 3.523-18.593 7.228-27.512 11.618-7.75 3.814-15.07 8.547-22.388 13.176-3.318 2.098-6.298 4.79-9.217 7.448-15.808 14.398-31.027 29.218-43.409 46.938-10.27 14.697-21.454 28.902-33.499 42.178-15.628 17.225-33.718 31.583-56.08 39.581-4.457 1.594-8.858 3.34-13.678 5.156"/></svg>