<svg xmlns="http://www.w3.org/2000/svg" viewBox="0 0 2753 1000" xml:space="preserve"><path fill="#fff" d="M2684.327 769.178c-8.33 4.325-16.764 6.676-25.861 7.768-16.307 1.958-32.164-.43-48.118-3.016-5.363-.869-10.918-.494-16.317-1.207-7.375-.973-14.742-3.691-22.007-3.358-7.757.356-14.88-1.71-22.294-2.577-16.787-1.963-33.57-3.97-50.357-5.933-6.196-.724-12.39-1.5-18.603-2.026-5.908-.5-11.857-.532-17.756-1.1-3.558-.342-7.059-1.296-10.579-2.01-1.27-.257-2.506-.76-3.785-.904-17.674-1.999-35.344-4.048-53.035-5.889-11.62-1.208-23.3-1.875-34.903-3.203-9.59-1.098-19.094-2.934-28.667-4.214-8.046-1.076-16.14-1.798-24.207-2.722-14.022-1.606-28.026-3.394-42.07-4.78-3.975-.393-8.06.362-12.097.55-.608.03-1.271-.043-1.834-.261-8.631-3.356-17.6-4.436-26.817-4.605-5.051-.093-10.07-1.351-15.127-1.863-13.91-1.408-27.837-2.64-41.743-4.083-2.902-.301-5.741-1.21-9.252-1.98l-5.142 39.428-34.678-4.394 14.129-110.978 34.686 4.384-4.568 36.7c11.684 1.116 23.166 1.992 34.59 3.359 13.506 1.616 26.958 3.672 40.439 5.496 1.961.265 3.959.257 5.93.456 6.378.644 12.758 1.27 19.125 2.007 8.152.942 16.297 1.952 24.437 2.993 9.755 1.248 19.484 2.725 29.258 3.785 6.4.694 12.9.511 19.288 1.274 11.716 1.4 23.356 3.45 35.079 4.779 11.776 1.335 23.628 1.99 35.422 3.194 10.283 1.049 20.528 2.474 30.797 3.68 9.63 1.13 19.27 2.164 28.9 3.286a10231 10231 0 0 1 36.197 4.295c4.236.508 8.46 1.113 12.697 1.617 8.811 1.047 17.63 2.026 26.44 3.086 16.129 1.94 32.243 3.997 48.382 5.847 7.852.9 15.76 1.31 23.616 2.182 9.94 1.104 19.833 2.658 29.787 3.594 3.866.364 7.909-.056 11.754-.758 18.38-3.358 30.485-14.724 37.133-31.526 3.965-10.022 6.996-20.812 3.532-31.786-3.3-10.456-6.878-20.603-16.42-27.828-8.804-6.666-16.313-15.012-24.717-22.242-6.953-5.983-14.444-11.336-21.575-17.119-6.995-5.673-13.738-11.659-20.77-17.285-8.401-6.723-16.977-13.227-25.502-19.794-14.751-11.363-29.429-22.824-44.31-34.015-13.361-10.048-25.63-21.914-41.014-28.785-14.029-6.268-28.716-8.037-43.158.148-10.862 6.155-22.225 11.695-34.573 13.647-10.276 1.624-20.627.198-30.646-3.694-18.353-7.13-34.068-18.114-49.093-30.626-14.796-12.321-30.457-23.602-45.702-35.388-5.61-4.337-11.055-8.889-16.678-13.208-13.415-10.305-26.962-20.439-40.322-30.814-12.101-9.398-23.93-19.149-36.055-28.518-12.898-9.966-26.09-19.551-38.991-29.513-14.784-11.415-29.351-23.109-44.084-34.59-11.681-9.104-23.507-18.023-35.2-27.112-9.358-7.274-18.562-14.744-27.927-22.008-9.75-7.562-19.63-14.958-29.42-22.47-11.628-8.92-23.221-17.886-34.829-26.834-18.826-14.512-37.643-29.037-56.481-43.534-14.354-11.045-28.672-22.14-43.128-33.05-8.669-6.542-17.119-13.563-26.488-18.938a134.2 134.2 0 0 0-36.831-14.417c-12.956-2.972-26.064-4.632-39.221-6.454-19.545-2.707-38.99-1.988-58.489-2.554-19.383-.563-38.762-1.308-58.142-1.98-9.274-.323-18.546-.709-27.822-.986-12.605-.378-25.213-.684-37.82-1.01-25.88-.671-51.828-.4-77.624-2.243-30.822-2.2-61.625-2.634-92.478-2.855-13.219-.094-26.424-1.4-39.645-1.86-14.933-.52-29.882-.593-44.818-1.075-16.385-.529-32.873-.364-49.106-2.285-11.775-1.393-22.342 1.763-32.489 5.68-14 5.404-23.758 16.06-30.395 29.913-5.847 12.205-8.923 24.827-8.185 38.09.57 10.262 2.676 20.456 4.385 30.631 1.236 7.358 2.823 14.665 4.479 21.943 1.05 4.613 2.65 9.099 3.767 13.7 2.808 11.577 5.4 23.208 8.237 34.778 2.02 8.24 4.338 16.408 6.452 24.626 4.191 16.289 8.382 32.578 12.473 48.892 1.868 7.45 3.95 14.892 5.077 22.465.758 5.094.688 10.527-.179 15.609-3.284 19.261-10.85 35.8-26.857 48.685-9.453 7.61-20.06 11.803-30.573 16.653-10.055 4.64-20.426 8.65-30.832 12.46-17.97 6.58-36.108 12.693-54.11 19.185-15.663 5.65-31.2 11.647-46.856 17.316-13.193 4.778-26.522 9.177-39.702 13.987-9.418 3.437-18.634 7.427-28.041 10.896-9.474 3.493-19.134 6.48-28.6 9.991-11.964 4.439-23.748 9.365-35.73 13.749-13.36 4.886-26.895 9.288-40.278 14.113-9.803 3.534-19.453 7.493-29.228 11.11-9.154 3.386-18.388 6.552-27.574 9.85-9.712 3.488-19.403 7.031-29.112 10.523-12.566 4.519-25.182 8.901-37.696 13.558-6.703 2.494-13.18 5.594-19.862 8.148-10.564 4.037-21.242 7.773-31.823 11.766-15.097 5.696-30.34 10.757-43.805 20.372-16.138 11.524-30.568 24.864-43.646 39.48-10.5 11.734-18.855 25.356-28.662 37.745-13.772 17.4-28.246 34.193-46.587 47.123-12.605 8.885-26.432 15.672-41.159 19.57-10.695 2.831-21.592 6.048-33.39 3.975-12.274-2.157-24.951-1.898-37.371-3.372-12.024-1.427-23.928-3.839-35.918-5.583-8.926-1.298-17.926-2.09-26.858-3.353-6.963-.984-13.855-2.468-20.81-3.513-8.433-1.267-16.905-2.272-25.35-3.453-9.58-1.34-19.15-2.739-28.721-4.133-4.054-.59-8.092-1.29-12.15-1.848a6470 6470 0 0 0-35.077-4.726c-8.629-1.136-17.275-2.15-25.903-3.296-8.61-1.143-17.197-2.46-25.812-3.56-9.605-1.226-19.235-2.247-28.845-3.44-10.748-1.335-21.483-2.785-32.229-4.141-7.817-.986-15.666-1.75-23.462-2.884-10.043-1.46-19.997-3.922-30.082-4.616-12.32-.85-24.737-.267-37.11-.388-13.162-.13-21.66 7.427-26.045 18.46-3.856 9.705-7.93 19.74-2.7 31.296 2.51 5.55 4.498 11.166 8.662 15.573 7.923 8.384 18.441 10.126 29.252 10 7.386-.086 14.772-1.096 22.136-1.897 17.635-1.918 35.242-4.103 52.89-5.898 12.45-1.266 24.933-2.484 37.43-2.98 18.092-.719 36.358.577 54.284-1.395 31.658-3.483 63.32-2.429 94.993-2.607 6.206-.035 12.418 1.2 18.631 1.809 7.372.721 14.78 1.159 22.114 2.153 9.728 1.319 19.414 2.965 29.089 4.645 7.252 1.26 14.478 2.693 21.677 4.23 8.45 1.805 16.833 3.922 25.29 5.692 10.714 2.242 21.505 4.119 32.197 6.452 5.883 1.285 11.589 3.367 17.453 4.756 6.679 1.583 13.478 2.653 20.162 4.214 4.76 1.113 9.45 2.562 14.11 4.05a2903 2903 0 0 1 33.61 10.946c12.54 4.173 25.126 8.226 37.527 12.782 7.849 2.884 15.341 6.723 23.089 9.902 11.506 4.721 23.163 9.079 34.63 13.893 8.683 3.645 17.191 7.714 25.737 11.681a4743 4743 0 0 1 35.593 16.694c7.149 3.391 14.182 7.03 21.357 10.364 10.781 5.01 21.438 10.385 32.524 14.62 11.85 4.528 23.046 2.428 33.333-5.465 5.158-3.956 10.925-7.218 13.115-13.7 3.16-9.354 5.967-18.77 3.269-28.923-2.856-10.745-5.477-21.565-7.793-32.44-3.61-16.954-6.956-33.966-10.26-50.984-2.774-14.282-6.155-28.52-7.663-42.946-.889-8.495.656-17.451 2.315-25.965 4.57-23.456 16.636-42.96 33.605-59.46 6.017-5.851 12.322-11.6 19.262-16.252 6.086-4.078 13.115-6.873 19.964-9.653 7.083-2.874 14.492-4.93 21.682-7.556 9.483-3.463 18.85-7.243 28.34-10.685 15.234-5.525 30.567-10.777 45.785-16.347 13.793-5.048 27.454-10.46 41.24-15.528 8.338-3.066 16.872-5.6 25.197-8.699 13.103-4.875 26.05-10.174 39.171-14.998 7.158-2.631 14.626-4.417 21.801-7.008 10.31-3.724 20.425-7.981 30.72-11.745 14.893-5.444 29.95-10.443 44.794-16.012 18.18-6.82 36.127-14.261 54.332-21.009 17.617-6.53 35.479-12.398 53.147-18.795 9.76-3.534 19.237-7.868 29.05-11.235 5.367-1.841 11.152-2.493 16.775-3.545 4.185-.784 8.392-1.69 12.624-1.93 5.857-.334 11.753-.261 17.622-.069 17.714.582 35.575.125 53.082 2.374 12.331 1.585 24.437 5.938 35.543 12.558 12.82 7.641 25.126 15.947 34.304 27.701 5.66 7.25 9.719 15.83 13.96 24.088 6.251 12.172 6.59 25.814 9.024 38.946 1.42 7.666 2.601 15.508 7.092 22.275 3.574 5.386 9.537 6.793 14.963 7.8 11.103 2.058 22.434 2.882 33.67 4.234 2.274.273 4.536.658 6.81.94 8.31 1.03 16.621 2.04 24.933 3.053 13.195 1.607 26.382 3.283 39.588 4.793 10.296 1.177 20.622 2.09 30.924 3.223 10.608 1.166 21.2 2.476 31.803 3.685 7.025.801 14.06 1.498 21.084 2.308a6521 6521 0 0 1 30.812 3.654c9.132 1.098 18.26 2.245 27.394 3.332q20.535 2.446 41.076 4.834c9.306 1.081 18.625 2.06 27.926 3.187 10.097 1.223 20.163 2.711 30.271 3.816 11.122 1.215 22.286 2.031 33.414 3.196 10.288 1.076 20.552 2.393 30.829 3.584 7.021.814 14.053 1.54 21.069 2.4 14.982 1.836 29.955 3.753 44.936 5.596 3.754.461 7.528.749 11.29 1.15 6.866.734 13.73 1.503 20.596 2.239 4.243.455 8.489.877 13.3 1.373l-3.642 37.13c-13.208-6.532-27.263-1.593-40.267-6.512-5.305-2.006-11.755-.873-17.655-1.458-4.065-.402-8.058-1.504-12.121-1.94-10.3-1.108-20.63-1.925-30.928-3.042-5.365-.582-10.69-1.546-16.03-2.351-1.134-.172-2.252-.48-3.39-.6-9.937-1.034-19.882-1.982-29.812-3.074-8.153-.896-16.29-1.945-24.432-2.939-10.59-1.293-21.17-2.672-31.77-3.873-7.351-.832-14.745-1.29-22.09-2.16-8.587-1.018-17.143-2.3-25.71-3.48-.321-.045-.615-.305-.935-.336-10.636-1.06-21.284-2.014-31.91-3.171-14.032-1.528-28.044-3.237-42.071-4.815-4.244-.477-8.503-1.032-12.764-1.106-6.775-.118-13.316-.492-20.004-2.522-5.848-1.775-12.466-.85-18.686-1.593-11.389-1.36-22.726-3.148-34.102-4.614-9.444-1.216-18.908-3.025-28.374-3.098-8.985-.069-17.48-1.833-26.147-3.553-5.053-1.003-10.416-.342-15.608-.788-2.902-.25-5.71-1.456-8.613-1.844-10.73-1.436-21.6-2.106-32.19-4.207-11.505-2.282-22.983-5.778-31.523-14.385-6.706-6.758-11.845-14.722-13.772-24.51-3.046-15.47-5.942-31.02-10.134-46.196-2.729-9.878-7.649-19.118-16.465-25.497-6.476-4.685-12.329-10.524-19.356-14.071-7.02-3.544-15.04-5.41-22.823-7.075-20.697-4.426-41.756-2.173-62.584-1.654-9.695.242-19.987 2.259-29.113 7.593-5.045 2.95-11.2 3.99-16.836 5.945-10.429 3.615-20.891 7.141-31.247 10.955-6.285 2.315-12.296 5.389-18.61 7.609-9.635 3.387-19.488 6.151-29.13 9.516-9.2 3.21-18.231 6.9-27.368 10.293-13.28 4.931-26.615 9.72-39.879 14.696-9.543 3.58-18.966 7.48-28.521 11.025-9.274 3.441-18.646 6.614-27.976 9.9-15.26 5.375-30.561 10.632-45.766 16.158-9.617 3.495-19.025 7.567-28.645 11.054-9.66 3.502-19.533 6.414-29.188 9.925-9.854 3.583-19.496 7.746-29.342 11.354-12.001 4.398-24.168 8.345-36.16 12.768-4.94 1.822-9.495 4.684-14.431 6.52-6.316 2.35-12.726 4.687-19.298 6.06-12.665 2.646-21.872 10.379-29.752 19.744-5.578 6.631-10.416 13.99-14.843 21.463-7.85 13.252-11.728 27.308-6.97 42.813 1.086 3.538.748 7.506 1.128 11.27.18 1.785.428 3.572.783 5.33 1.03 5.1 2.06 10.2 3.217 15.271 2.457 10.778 5.105 21.514 7.463 32.313 1.686 7.723 2.937 15.54 4.55 23.28 1.553 7.447 3.544 14.807 4.95 22.278 2.83 15.04 3.416 30.006-.945 45.007-3.022 10.397-8.554 18.664-15.888 26.673-7.237 7.902-15.416 14.057-24.693 18.477-6.902 3.288-14.814 5.264-22.451 5.991-8.659.824-17.756.75-26.212-1.047-8.682-1.846-16.95-5.957-25.158-9.616-7.18-3.2-13.97-7.261-21.03-10.742-9.885-4.873-19.848-9.59-29.802-14.319a4133 4133 0 0 0-30.014-14.121c-8.393-3.906-16.727-7.963-25.27-11.512-9.003-3.74-18.269-6.841-27.335-10.435-8.552-3.39-16.891-7.336-25.516-10.517-7.79-2.873-15.89-4.891-23.76-7.562-7.834-2.66-15.448-5.999-23.345-8.435-12.14-3.745-24.438-6.977-36.67-10.42-6.845-1.928-13.649-4.018-20.551-5.707-5.537-1.355-11.214-2.128-16.795-3.319-7.179-1.532-14.31-3.29-21.486-4.832-8.28-1.779-16.593-3.402-24.88-5.14-12.47-2.617-24.878-5.569-37.417-7.79-6.137-1.087-12.523-.694-18.772-1.249-9.74-.865-19.464-1.929-29.186-2.983-5.383-.584-10.763-1.97-16.121-1.858-13.722.285-27.426 1.343-41.146 1.835-14.083.505-28.183.547-42.265 1.075-23.157.867-46.332 1.564-69.445 3.136-11.06.753-21.976 3.471-32.991 5.064-7.793 1.126-15.65 1.795-23.466 2.775-19.846 2.491-39.812 2.946-59.527.064-11.782-1.722-23.436-5.794-31.416-15.91-5.606-7.106-12.414-13.721-16.151-21.737-5.258-11.275-8.793-23.38-7.481-36.468 1.418-14.158 4.312-28.001 11.935-39.854 7.652-11.899 17.238-21.803 31.6-27.293 18.286-6.99 36.817-5.576 55.317-5.084 10.991.293 21.858 3.917 32.86 5.48 10.25 1.456 20.645 1.886 30.906 3.279 11.486 1.558 22.894 3.692 34.337 5.572 1.94.318 3.875.676 5.825.913 9.605 1.166 19.21 2.324 28.822 3.433 9.47 1.092 19.28.962 28.314 3.555 6.915 1.984 13.543 2.065 20.43 2.652 10.714.914 21.32 3.12 31.965 4.82 3.714.593 7.39 1.453 11.117 1.936 8.464 1.097 16.975 1.865 25.42 3.085 10.025 1.45 19.984 3.358 30.009 4.817 4.704.685 9.499.732 14.242 1.18 1.282.12 2.515.693 3.788.982 3.017.684 6.016 1.534 9.072 1.943 11.863 1.587 23.745 3.025 35.619 4.533.32.04.612.311.93.343 10.633 1.064 21.27 2.098 31.903 3.166 6.213.624 12.435 1.92 18.627 1.782 6.84-.153 13.929-.697 20.408-2.696 9.576-2.954 19.014-6.748 27.925-11.325 6.128-3.147 11.718-7.752 16.729-12.56 6.81-6.536 13.026-13.729 19.14-20.943 4.355-5.138 8.034-10.844 12.179-16.17 3.603-4.63 7.521-9.015 11.15-13.626 5.854-7.437 10.866-15.693 17.519-22.31 12.66-12.594 26-24.54 39.519-36.221 6.61-5.712 13.868-10.948 21.544-15.08 7.7-4.145 16.302-6.604 24.475-9.885 8.476-3.402 16.837-7.102 25.383-10.312 10.88-4.086 21.938-7.699 32.841-11.727 9.476-3.5 18.787-7.453 28.274-10.924 15.04-5.503 30.153-10.811 45.262-16.125 12.416-4.367 24.98-8.338 37.282-13 14.825-5.617 29.363-11.993 44.187-17.612 7.111-2.696 14.663-4.204 21.888-6.627 6.2-2.079 12.164-4.848 18.33-7.034 7.77-2.756 15.742-4.967 23.444-7.894 9.85-3.742 19.458-8.116 29.284-11.925 6.537-2.535 13.316-4.438 19.909-6.836 10.189-3.706 20.275-7.694 30.474-11.37 7.492-2.702 15.174-4.886 22.629-7.68 9.276-3.476 18.358-7.47 27.617-10.996 6.117-2.329 12.434-4.128 18.595-6.351 4.85-1.75 9.564-3.879 14.4-5.671 6.417-2.378 12.954-4.438 19.333-6.906 14.891-5.762 29.634-11.915 44.606-17.45 7.778-2.874 13.454-8.226 17.912-14.57 2.847-4.051 3.699-9.529 5.296-14.415.345-1.054-.113-2.344.076-3.48 1.488-8.938-1.836-17.246-3.462-25.743-1.53-8.004-3.587-15.916-5.637-23.81-2.527-9.728-5.41-19.363-7.898-29.1-1.574-6.155-2.484-12.482-4.103-18.623-1.773-6.728-4.238-13.274-5.992-20.007-1.397-5.366-1.952-10.949-3.289-16.335-1.757-7.082-4.164-14.006-5.848-21.104-3.698-15.582-6.455-31.337-6.762-47.402-.189-9.877-.393-19.779.123-29.632.241-4.614 1.834-9.258 3.394-13.684 5.337-15.14 12.343-29.537 23.59-41.134 8.222-8.479 17.693-15.645 28.72-20.538 15.373-6.823 31.225-10.629 48.182-10.03 18.762.665 37.552.513 56.316 1.135 22.662.752 45.313 1.878 67.962 2.98 7.483.363 14.935 1.399 22.419 1.699 14.498.582 29.01.849 43.515 1.267 10.94.315 21.88.685 32.82.99 24.38.682 48.762 1.32 73.141 2.016 9.61.274 19.218.576 28.82 1.009 12.885.581 25.763 1.322 38.645 1.945 2.56.124 5.13-.005 7.694.04 18.44.324 36.884.53 55.32 1.033 18.218.496 36.486.613 54.627 2.142 21.171 1.784 42.384 4.362 62.887 10.128 19.007 5.346 36.798 13.755 52.574 25.911 19.27 14.848 38.446 29.816 57.716 44.664 13.042 10.05 26.219 19.926 39.253 29.986 8.038 6.204 15.818 12.746 23.9 18.89 12.13 9.22 24.533 18.079 36.614 27.36 12.025 9.24 23.73 18.898 35.699 28.212 10.265 7.988 20.806 15.624 31.044 23.646 11.232 8.801 22.225 17.908 33.39 26.795 4.38 3.485 8.971 6.7 13.414 10.106 4.135 3.169 8.172 6.466 12.305 9.638 11.927 9.151 23.896 18.247 35.818 27.406a2469 2469 0 0 1 20.477 15.936c6.48 5.086 12.891 10.26 19.38 15.334 12.008 9.393 24.02 18.781 36.088 28.097 11.39 8.794 22.856 17.492 34.287 26.234 18.35 14.033 36.41 28.47 55.176 41.924 8.803 6.31 18.837 11.76 30.169 11.281 5.402-.228 10.848-2.972 15.98-5.241 9.086-4.017 17.925-8.588 26.927-12.8 1.268-.594 2.868-.646 4.318-.658 7.332-.062 14.673.19 21.997-.074 15.702-.564 28.48 7.132 41.193 14.639 8.238 4.864 16.03 10.545 23.713 16.274 13.983 10.427 27.706 21.202 41.597 31.754 11.792 8.96 23.805 17.635 35.46 26.767 8.815 6.906 17.153 14.415 25.824 21.506 9.644 7.886 19.676 15.315 29.077 23.475 9.041 7.848 17.199 16.716 26.274 24.52 11.996 10.315 16.675 24.495 21.773 38.541 4.954 13.652 3.515 27.184.465 41.154-2.69 12.324-7.45 23.684-14.131 33.852-4.933 7.507-12.684 13.275-19.621 19.31-3.81 3.314-8.534 5.578-13.24 8.224"/></svg>