<svg xmlns="http://www.w3.org/2000/svg" viewBox="0 0 1887 987" xml:space="preserve"><path fill="#fff" d="M1204.165 941.013v16.718h-19.493v-56.528h19.34c0 4.305 0 8.584.031 13.6.345.819.657.904.97.99 19.33.048 38.66-.004 57.988.187 10.268.101 20.53.758 30.798.922 10.67.17 21.346-.01 32.018.067 45.598.33 91.195.645 136.792 1.081 15.933.153 31.862.79 47.795.94 44.264.42 88.53.643 132.794 1.06 18.266.172 36.529.687 54.794.96 23.766.355 47.537 1.004 71.296.715 7.93-.096 15.728-2.69 23.064-6.502 10.651-5.536 19.783-12.921 27.469-21.892 6.046-7.058 9.044-15.936 11.072-24.96 2.651-11.803.91-23.516-1.355-35.163-1.827-9.399-3.575-18.817-5.653-28.16-1.566-7.046-3.676-13.968-5.399-20.98-1.614-6.571-2.975-13.205-4.56-19.784-2.119-8.788-4.465-17.522-6.492-26.33-1.666-7.245-2.845-14.602-4.541-21.838-1.799-7.673-4.117-15.225-5.911-22.899-2.504-10.706-4.311-21.59-7.208-32.183-2.459-8.99-8.318-16.079-14.691-22.87-8.236-8.776-18.781-13.658-29.544-17.6-9.794-3.588-20.368-5.036-30.584-7.484-10.96-2.627-21.885-5.402-32.86-7.964-16.05-3.747-32.127-7.38-48.201-11.024a6096 6096 0 0 0-33.956-7.585c-14.374-3.172-28.786-6.182-43.128-9.49-10.016-2.312-19.866-5.393-29.93-7.44a790 790 0 0 0-42.187-7.415c-9.764-1.439-17.715 3.538-24.467 9.746-4.918 4.523-8.673 10.3-13.023 15.454-8.964 10.621-2.315 30.484 6.654 36.013 21.874 13.484 43.409 27.517 65.249 41.055 15.19 9.417 30.83 18.116 45.883 27.74 3.57 2.282 5.513 7.049 8.343 10.562 7.617 9.458 9.546 21.324 10.03 32.37.409 9.313-3.86 19.1-7.218 28.25-6.064 16.526-19.297 25.305-35.375 30.782-7.944 2.706-15.716 1.915-23.76 1.1-6.931-.702-13.99-.032-20.982-.268-16.666-.562-33.472-.182-49.943-2.322-13.148-1.708-26.19-2.325-39.36-2.657-13.197-.332-26.38-1.253-39.567-1.93-12.86-.659-25.72-1.32-38.579-2.009-12.527-.671-25.055-1.337-37.577-2.082-15.799-.94-31.589-2.032-47.39-2.916-8.923-.498-17.867-.609-26.793-1.071-17.939-.93-35.872-1.963-53.806-2.988-10.695-.61-21.385-1.299-32.079-1.926-11.697-.686-23.46-.782-35.08-2.13-22.032-2.553-40.926-11.95-55.278-29.028-5.786-6.885-9.96-14.912-11.859-24.2-1.667-8.157-4.572-16.066-3.658-24.543.767-7.113 1.687-14.223 2.9-21.272 1.456-8.45 3.033-16.896 5.03-25.23 2.654-11.068 5.746-22.03 8.684-33.03 3.412-12.78 6.704-25.597 10.333-38.316 4.728-16.575 9.987-33.002 14.54-49.623 3.308-12.08 9.275-22.36 18.204-31.034 6.47-6.284 13.757-9.627 23.08-11.125 14.264-2.292 27.133 1.653 40.273 5.05 14.773 3.821 29.423 8.139 44.05 12.497 11.121 3.314 22.017 7.417 33.206 10.46 11.957 3.252 24.144 5.652 36.222 8.462 9.136 2.125 18.177 4.792 27.408 6.341 10.456 1.756 21.14 1.125 27.67-8.565 3.199-4.75 4.07-11.293 5.16-17.179 1.276-6.882-.116-13.61-3.97-19.576-1.014-1.569-2.633-2.834-4.179-3.957-9.489-6.893-20.265-10.872-31.428-14.157-7.5-2.207-14.733-5.306-22.152-7.81-12.15-4.098-24.366-8-36.531-12.055-10.833-3.612-21.625-7.35-32.451-10.98-14.022-4.703-28.098-9.243-42.079-14.061-12.002-4.137-23.855-8.706-35.862-12.83-11.257-3.866-22.722-7.138-33.93-11.134-20.44-7.287-40.753-14.926-61.127-22.398-12.482-4.578-25.003-9.05-37.46-13.693-15.024-5.6-30.074-11.14-44.973-17.058-16.868-6.7-33.611-13.72-50.355-20.729-19.839-8.305-39.612-16.766-59.428-25.126-14.307-6.036-28.706-11.86-42.94-18.061-18.496-8.06-36.81-16.539-55.316-24.573-13.798-5.99-27.815-11.476-41.669-17.343-12.68-5.37-25.241-11.023-37.913-16.416-10.896-4.637-21.924-8.965-32.802-13.642-12.484-5.368-24.828-11.06-37.303-16.447-12.217-5.276-24.554-10.276-36.783-15.525-15.29-6.564-30.476-13.368-45.793-19.865-16.194-6.87-32.547-13.366-48.721-20.281-10.738-4.59-21.188-9.854-31.938-14.415-14.282-6.06-28.817-11.526-43.081-17.626-13.666-5.845-27.062-12.318-40.693-18.246-12.338-5.365-24.988-10.028-37.214-15.627-11.235-5.146-23.365-6.142-35.1-8.996-15.969-3.883-32.196-5.127-48.509-5.921-6.425-.314-12.857-.578-19.268-1.09-5.196-.415-10.36-1.592-15.548-1.663-6.57-.091-13.3-.158-19.698 1.102-13.55 2.668-26.508 7.352-37.048 16.676-8.354 7.39-16.57 15.038-24.021 23.314-5.772 6.41-10.666 13.723-15.246 21.072-8.351 13.401-12.665 28.213-10.105 43.92 3.1 19.015 14.807 31.871 32.606 38.68 6.683 2.557 14.035 3.42 21.124 4.854 14.29 2.89 28.591 5.724 42.918 8.422 8.936 1.683 17.949 2.96 26.886 4.637 7.606 1.427 15.15 3.18 22.727 4.761 13.161 2.746 26.343 5.397 39.484 8.232 8.186 1.766 16.224 4.561 24.489 5.55 16.695 1.997 31.583 9.094 46.653 15.548 11.493 4.923 22.206 11.651 33.648 16.716 18.384 8.139 37.081 15.573 55.653 23.289 3.397 1.411 7.005 2.422 10.204 4.185 8.12 4.475 17.214 3.056 25.808 4.546a80.3 80.3 0 0 0 18.238 1.022c14.835-.863 29.635-1.13 44.374-4.53 15.958-3.683 32.567-4.452 48.696-7.518 15.179-2.886 30.195-.023 45.091.8 13.112.724 26.398 3.735 39.442 7.546 17.319 5.06 32.021 14.786 47.84 22.483 15.705 7.641 31.021 16.083 46.483 24.223 23.191 12.209 46.333 24.513 69.548 36.678 17.624 9.234 35.62 17.802 52.913 27.613 15.772 8.948 32.012 17.805 42.946 32.982 7.567 10.504 14.082 21.763 21.133 32.642 6.597 10.18 10.448 21.639 12.174 33.296 1.783 12.042 4.615 24.226 1.995 36.73-1.7 8.113-1.595 16.61-3.375 24.697-1.5 6.817-4.466 13.325-6.936 19.913-5.882 15.69-17.188 27.75-27.31 40.607-8.582 10.902-16.95 21.973-25.59 32.83-7.324 9.206-15.013 18.122-22.33 27.334-6.684 8.414-13.027 17.098-19.625 25.581-9.35 12.025-18.796 23.974-28.2 35.956-7.556 9.625-15.704 18.855-22.463 29.01-4.762 7.154-8.132 15.374-11.239 23.458-5.078 13.216-8.29 26.92-8.178 41.242.02 2.592-.804 5.18-.92 7.783-.737 16.68 5.484 30.532 16.437 42.946 11.337 12.848 26 18.802 42.166 19.525 24.494 1.096 49.074.206 73.617.332 8.092.042 16.18.813 24.273.905 15.347.175 30.697.042 46.045.142 42.096.274 84.19.646 126.287.89 19.558.113 39.116.02 58.875.02v25.12h-9.508c-26.333 0-52.666.108-78.998-.044-13.59-.08-27.175-.766-40.766-.927-35.092-.418-70.186-.712-105.28-1.017-8.833-.077-17.668.095-26.5-.034-17.587-.257-35.173-.932-52.759-.889-14.628.037-29.255-.895-43.034-5.402-9.132-2.987-18.467-7.831-25.463-14.282-10.046-9.264-18.713-20.15-23.682-33.548-3.558-9.595-6.743-19.29-6.654-29.408.101-11.435 1.328-22.924 2.968-34.259 1.19-8.232 3.153-16.51 6.043-24.296 2.956-7.964 7.61-15.281 11.26-23.005 8.717-18.45 23.407-32.495 35.51-48.44a2760 2760 0 0 1 34.477-44.458c10.027-12.666 20.455-25.015 30.518-37.653 9.767-12.264 19.265-24.741 28.942-37.077 3.96-5.048 8.65-9.621 11.975-15.044 3.653-5.957 6.416-12.522 9.037-19.035 6.765-16.81 6.989-34.545 5.827-52.183-.495-7.524-3.614-14.867-5.455-22.314-3.606-14.587-12.428-26.529-20.601-38.564-4.395-6.473-11.117-11.717-17.635-16.317-10.23-7.221-20.875-13.987-31.886-19.941-18.62-10.069-37.73-19.23-56.506-29.016-10.246-5.34-20.12-11.39-30.362-16.74-11.381-5.943-23.08-11.277-34.471-17.204-10.11-5.261-19.91-11.114-29.985-16.445-10.06-5.322-20.11-10.725-30.496-15.35-10.64-4.736-21.578-8.871-32.596-12.66-4.688-1.613-9.886-2.056-14.894-2.373-13.827-.877-27.684-2.027-41.515-1.86-9.53.114-19.06 2.07-28.543 3.518-10.25 1.566-20.448 3.486-30.664 5.275-3.651.64-7.35 1.123-10.925 2.065-16.03 4.227-32.331 1.503-48.477 1.66-9.477.092-19.11-1.836-28.428-3.943-6.67-1.507-12.953-4.77-19.375-7.334-13.801-5.508-27.782-10.626-41.31-16.744-12.162-5.5-23.72-12.322-35.731-18.181-7.903-3.855-16.11-7.095-24.228-10.499-5.571-2.336-11.15-4.693-16.864-6.634-3.495-1.186-7.256-1.587-10.891-2.366-13.874-2.974-27.722-6.073-41.626-8.9-10.915-2.22-21.92-3.996-32.846-6.171-17.724-3.53-35.386-7.381-53.133-10.786-9.069-1.74-18.276-2.752-27.402-4.207-3.009-.48-5.99-1.211-8.931-2.018-6.95-1.906-14.07-3.416-20.739-6.055-5.741-2.273-10.962-5.866-16.395-8.908-10.836-6.067-17.483-16.176-24.05-26.071-2.711-4.086-3.093-9.688-4.688-14.55-2.208-6.728-3.424-13.465-3.203-20.678.33-10.779 4.06-20.52 7.296-30.53 4.168-12.892 12.604-23.16 20.156-33.926 4.868-6.94 10.45-13.513 16.47-19.484 10-9.914 20.63-19.354 33.476-25.402 10.014-4.715 20.645-7.668 31.703-9.816 12.77-2.481 25.393-1.55 38.028-1.42 10.19.106 20.36 2.28 30.54 3.53.817.1 1.638.176 2.459.236 9.32.67 18.715.826 27.94 2.155 8.259 1.189 16.315 3.74 24.49 5.555 5.505 1.22 11.175 1.817 16.563 3.402 5.347 1.573 10.49 3.905 15.622 6.132 9.583 4.159 19.07 8.538 28.64 12.725 16.74 7.323 33.475 14.661 50.288 21.814 10.003 4.256 20.226 8 30.215 12.288 9.262 3.977 18.274 8.535 27.523 12.545 15.162 6.573 30.453 12.847 45.639 19.365 11.115 4.77 22.09 9.874 33.237 14.569 12.61 5.312 25.411 10.172 38 15.53 10.7 4.555 21.16 9.673 31.83 14.303 15.303 6.642 30.717 13.026 46.05 19.595 19.057 8.164 38.065 16.438 57.122 24.6 10.574 4.529 21.232 8.861 31.801 13.403 11.048 4.748 22.007 9.703 33.055 14.451 10.686 4.592 21.465 8.967 32.15 13.562 12.681 5.454 25.271 11.123 37.964 16.55 15.34 6.56 30.754 12.946 46.12 19.443 12.467 5.272 24.817 10.835 37.392 15.831 12.627 5.016 25.499 9.41 38.207 14.223 13.536 5.128 26.964 10.544 40.516 15.63 21.865 8.207 43.819 16.177 65.683 24.385 10.922 4.1 21.597 8.89 32.621 12.678 13.961 4.797 28.205 8.762 42.249 13.327 12.971 4.217 25.826 8.787 38.754 13.139 13.811 4.648 27.68 9.125 41.459 13.868 7.87 2.71 15.54 6.004 23.428 8.656 7.053 2.37 14.347 4.02 21.413 6.355 7.714 2.549 15.236 5.677 22.94 8.26 7.237 2.425 14.858 3.87 21.843 6.842 7.458 3.173 14.37 7.628 21.518 11.528 2.098 1.145 4.455 1.998 6.216 3.533 2.335 2.036 4.687 4.34 6.168 7.008 3.104 5.59 6.956 11.251 8.08 17.33 1.366 7.387.835 15.301.001 22.863-.692 6.28-2.392 12.63-4.766 18.496-3.106 7.676-8.049 13.911-15.661 18.365-8.94 5.23-18.651 7.353-28.451 8.513-5.704.675-11.784-1.628-17.668-2.73-10.334-1.938-20.732-3.633-30.947-6.078-10.722-2.566-21.253-5.925-31.883-8.881-9.76-2.715-19.582-5.208-29.3-8.06-15.528-4.56-30.94-9.522-46.507-13.943-7.415-2.106-15.003-3.906-22.635-4.873-11.425-1.446-19.637 4.65-23.473 14.557-5.361 13.841-8.98 28.356-13.375 42.573-1.875 6.063-4.014 12.052-5.692 18.168-1.657 6.042-2.74 12.24-4.34 18.299s-3.623 12.003-5.282 18.047c-1.996 7.276-3.86 14.591-5.682 21.914-3.63 14.598-7.69 29.114-10.61 43.855-1.925 9.723.298 19.344 3.366 28.88 4.938 15.346 16.481 23.722 30.142 29.568 5.93 2.538 12.848 3.101 19.399 3.775 7.867.81 15.82.787 23.737 1.112 16.338.672 32.68 1.248 49.013 2.036 10.173.491 20.329 1.348 30.498 1.955 17.752 1.06 35.507 2.076 53.263 3.065 12.35.688 24.703 1.312 37.056 1.942 13.342.682 26.686 1.31 40.026 2.014 11.843.625 23.68 1.373 35.524 1.977 14.172.722 28.35 1.3 42.522 2.03 11.506.592 23.003 1.36 34.508 1.971 13.505.716 27.019 1.283 40.522 2.034 10.501.584 21.043.934 31.47 2.2 6.02.731 11.368.643 16.967-2.118 10.629-5.24 16.998-13.057 19.693-24.848 2.452-10.729.847-20.229-5.352-28.783-2.725-3.76-6.918-6.671-10.902-9.264a1309 1309 0 0 0-36.523-22.928c-14.263-8.627-28.903-16.642-43.005-25.517-10.132-6.376-20.446-12.865-29.188-20.92-6.705-6.18-10.719-15.055-12.25-24.52-.62-3.83-2.384-7.824-1.776-11.432 1.325-7.856 2.699-16.062 6.108-23.135 6.7-13.897 17.874-24.402 30.969-32.21 7.285-4.344 15.154-8.062 24.53-7.767 10.538.33 20.78 1.349 31.006 3.984 7.8 2.01 15.974 2.523 23.838 4.327 13.782 3.16 27.425 6.918 41.181 10.197 10.188 2.428 20.492 4.37 30.691 6.753 11.575 2.704 23.064 5.777 34.642 8.465 10.036 2.33 20.17 4.232 30.212 6.536 7.34 1.684 14.573 3.828 21.903 5.562 10.823 2.56 21.703 4.876 32.53 7.418 7.511 1.763 15.129 3.27 22.417 5.726 8.604 2.898 17.019 6.441 25.31 10.162 11.62 5.213 19.976 14.338 27.59 24.217 1.99 2.58 3.945 5.189 5.979 7.735 5.464 6.841 5.646 15.496 7.889 23.401 3.334 11.754 6.146 23.659 9.013 35.54 4.417 18.307 8.674 36.653 13.036 54.974 2.643 11.1 5.47 22.156 8.007 33.278 3.084 13.516 6.097 27.052 8.873 40.633 2.931 14.344 3.256 29.033 1.772 43.39-.913 8.825-5.393 17.427-9.073 25.775-3.403 7.72-7.725 14.872-14.432 20.645-9.764 8.402-19.539 16.597-31.554 21.598-4.406 1.834-8.907 3.452-13.41 5.043-10.31 3.644-21.054 3.02-31.708 2.96-49.923-.282-99.846-.591-149.768-1.01-14.415-.12-28.825-.8-43.24-.935-44.42-.419-88.842-.643-133.262-1.06-16.423-.155-32.842-.794-49.265-.942-46.42-.418-92.843-.648-139.263-1.063-11.58-.104-23.158-.626-35.47-.955-.837.313-.94.626-1.042.94"/></svg>