<svg xmlns="http://www.w3.org/2000/svg" viewBox="0 0 2424 1000" xml:space="preserve"><path fill="#fff" d="M983.972 915.191c15.208 0 29.922.13 44.632-.036 15.486-.174 30.968-.893 46.453-.918 67.07-.106 134.14-.003 201.21-.09 10.44-.014 20.878-.705 31.32-.927 7.07-.15 14.145-.12 21.215-.01 18.108.28 36.214.914 54.32.908 18.94-.006 37.88-.713 56.82-.864 6.938-.055 13.882.921 20.82.886 45.906-.234 91.81-.67 137.715-.896 7.939-.039 15.88.863 23.821.872 7.44.008 14.878-.734 22.322-.859 3.267-.055 6.56.987 9.817.868 13.886-.509 27.757-1.552 41.645-1.831 9.429-.19 18.88.89 28.317.839 33.273-.183 66.546-.6 99.818-.944 31.273-.323 62.546-.667 93.819-.988 1.297-.013 2.595.117 4.534.211v34.397h-5.081c-67.998 0-135.996-.122-203.994.042-45.44.11-90.878.57-136.317.981-21.607.196-43.212.803-64.82.91-10.806.053-21.614-.742-32.424-.867-4.768-.055-9.544.88-14.317.89-40.54.077-81.079.013-121.618.088-4.441.008-8.97 1.352-13.305.825-15.718-1.912-31.45-.252-47.164-.731a1973 1973 0 0 0-50.802-.896c-9.457-.045-18.915.634-28.376.82-7.362.144-14.73.108-22.095.017-21.433-.264-42.866-.787-64.3-.8-8.035-.006-16.067 1.507-24.11 1.617-9.17.124-18.349-.635-27.527-.812-2.597-.05-5.206.874-7.81.875-110.33.047-220.66.076-330.99-.004-13.94-.01-27.878-.753-41.82-.892-5.603-.055-11.21.763-16.821.896-7.041.168-14.1.277-21.131-.029-6.48-.281-12.934-1.66-19.4-1.653-17.097.016-34.193.65-51.292.771-7.264.052-14.534-.854-21.797-.808-13.102.082-26.199.658-39.3.829-11.528.15-23.06.144-34.587.003-16.13-.198-32.259-.875-48.386-.835-38.29.094-76.578.569-114.867.708-9.978.037-19.96-.911-29.938-.857-25.937.14-51.873.892-77.808.843-43.273-.082-86.548-.428-129.815-1.105-6.924-.109-13.983-1.964-20.667-4.025-6.505-2.005-8.547-8.618-11.777-13.936-5.608-9.234-1.83-17.92 1.418-26.463 3.906-10.276 12.805-16.629 20.607-23.567 9.864-8.773 20.445-16.744 30.763-25.003 6.93-5.546 14.047-10.86 20.888-16.512 10.194-8.424 20.14-17.149 30.336-25.57 10.287-8.499 20.743-16.794 31.14-25.16 13.095-10.537 26.218-21.04 39.304-31.589 10.785-8.695 21.59-17.367 32.285-26.173 17.324-14.262 34.447-28.771 51.876-42.902 15.868-12.865 32.057-25.333 48.056-38.037 14.807-11.759 29.494-23.669 44.347-35.37 6.039-4.757 12.483-9 18.553-13.72 11.388-8.858 22.68-17.843 33.934-26.87 9.13-7.324 17.768-15.326 27.302-22.07 16.816-11.897 32.002-25.807 48.54-38.057 18.38-13.616 35.902-28.388 53.887-42.542 14.89-11.719 29.833-23.374 44.896-34.868 14.774-11.274 29.483-22.661 44.698-33.318 9.167-6.42 19.06-11.895 28.995-17.093 4.714-2.467 10.354-3.109 15.438-4.954 2.043-.741 3.558-2.891 5.59-3.72 11.054-4.505 22.277-8.6 33.284-13.212 15.022-6.293 29.845-13.059 44.86-19.369 14.099-5.924 28.416-11.332 42.492-17.308 16.531-7.018 32.96-14.283 49.328-21.674 9.763-4.409 19.259-9.405 28.994-13.879 8.745-4.018 17.658-7.672 26.488-11.508 8.407-3.653 17.178-6.681 25.073-11.227 5.552-3.197 10.208-8.186 14.716-12.9 5.648-5.903 11.283-11.963 15.916-18.653 5.033-7.267 8.861-15.363 13.302-23.048 4.358-7.54 8.944-14.95 13.216-22.54 5.731-10.18 11.206-20.504 16.882-30.716a5789 5789 0 0 1 22.729-40.53c8.045-14.204 15.912-28.52 24.389-42.464 5.531-9.099 11.864-17.727 18.101-26.377 9.136-12.668 21.893-20.06 36.526-24.846 9.699-3.174 19.39-6.632 29.688-5.558 13.195 1.376 26.65 2.795 37.862 10.82 5.739 4.106 10.824 9.22 15.768 14.302 2.278 2.341 3.663 5.622 5.188 8.613 5.869 11.514 11.787 23.008 17.39 34.653 6.289 13.07 12.227 26.31 18.372 39.45a3017 3017 0 0 0 14.18 29.937c4.015 8.346 9.05 16.326 12.02 25.02 3.652 10.688 9.902 19.89 14.622 29.924 6.491 13.799 12.198 27.966 18.703 41.758 5.458 11.575 11.778 22.74 17.327 34.275 3.252 6.76 5.595 13.954 8.63 20.827 1.759 3.98 4.162 7.671 6.132 11.565 5.302 10.477 10.69 20.916 15.74 31.515 6.24 13.095 11.999 26.422 18.296 39.489 4.788 9.933 10.22 19.553 15.12 29.434 3.041 6.13 5.5 12.547 8.44 18.73 4.227 8.89 8.794 17.618 12.965 26.534 5.875 12.559 11.388 25.288 17.307 37.826 4.27 9.044 9.098 17.824 13.402 26.853 4.314 9.05 8.186 18.31 12.442 27.389 3.16 6.74 6.673 13.314 9.942 20.005 4.045 8.28 8.557 16.392 11.8 24.98 2.243 5.94 6.742 8.532 11.621 10.914 9.026 4.405 18.426 2.595 27.828 1.164 8.598-1.309 17.278-2.077 25.918-3.113 2.275-.272 4.531-.706 6.807-.97a22333 22333 0 0 1 41.601-4.782c3.431-.392 6.864-.776 10.3-1.108 7.528-.726 15.073-1.29 22.585-2.147 13.037-1.488 26.042-3.278 39.087-4.692 9.031-.98 18.096-1.936 27.166-2.206 19.927-.593 39.868-.704 59.802-1.089 13.484-.26 26.965-.647 40.448-.987 12.94-.327 25.878-.816 38.82-.97 35.044-.418 70.089-.727 105.134-.988 4.316-.032 8.657.9 12.95.68 10.775-.555 21.518-1.724 32.294-2.252 9.71-.475 19.445-.377 29.166-.641 2.605-.07 5.198-.78 7.798-.79 19.832-.069 39.666.089 59.497-.078 15.15-.128 30.297-.599 45.444-.97 11.774-.288 23.545-.778 35.32-.965 26.105-.413 52.216-.544 78.317-1.097 10.37-.22 20.276 1.075 29.51 5.958 7.462 3.947 15.902 6.863 22.026 12.34 9.9 8.855 19.917 18.217 23.737 31.867 3.543 12.655 7.177 25.284 10.635 37.963 2.907 10.658 5.685 21.353 8.393 32.064 2.431 9.613 4.542 19.308 7.067 28.895 2.246 8.526 5.02 16.912 7.27 25.437 1.49 5.644 2.386 11.443 3.694 17.14 1.095 4.772 2.446 9.486 3.603 14.246 1.5 6.168 2.825 12.381 4.4 18.53 2.227 8.688 4.693 17.316 6.908 26.007 1.488 5.837 2.651 11.757 4.085 17.608a445 445 0 0 0 4.233 16.07c2.147 7.537 4.524 15.01 6.598 22.567.468 1.705.177 3.647.082 5.471-.196 3.79-1.484 7.842-.55 11.309 2.069 7.686-2.856 12.795-5.826 18.464-4.342 8.29-13.14 9.539-21.19 11.522-28.939 7.13-58.352 2.504-87.521 2.99-51.817.862-103.66.193-155.49.287-9.306.016-18.608.826-27.915.91-17.207.155-34.416.044-51.625.044h-40.447v33.014h-29.72l-1.917-95.552h30.044v28.921c7.225 0 13.664-.114 20.097.026 11.109.241 22.216.956 33.32.905 20.441-.094 40.88-.631 61.32-.917 7.378-.103 14.761.112 22.136-.05 8.486-.187 16.965-.867 25.449-.926 58.605-.405 117.21-.706 175.816-1.034 4.333-.025 8.666.03 13-.012 5.974-.057 7.628-1.722 6.416-7.5-1.934-9.221-4.343-18.341-6.471-27.522-1.55-6.686-2.77-13.454-4.49-20.094-3.356-12.964-7.158-25.815-10.402-38.805-3.123-12.507-5.695-25.151-8.675-37.696-1.211-5.1-2.995-10.063-4.28-15.148-3.282-12.992-6.385-26.029-9.653-39.024-1.675-6.66-3.702-13.235-5.3-19.912-3.002-12.545-5.698-25.162-8.722-37.7-5.071-21.027-16.383-36.748-37.797-43.671a5.6 5.6 0 0 0-1.462-.284c-8.106-.35-16.215-.997-24.319-.949-14.275.085-28.546.668-42.82.914-22.784.394-45.572.598-68.353 1.098-3.88.086-7.739 1.832-11.603 1.814-13.65-.065-27.296-.715-40.946-.81-4.569-.031-9.146.932-13.717 1.458-.804.093-1.598.39-2.397.392-13.705.034-27.41.036-41.116.046-.167 0-.333.01-.5.015-10.44.335-20.878.909-31.319.93-8.974.02-17.957-1.009-26.922-.845-23.385.426-46.76 1.378-70.143 1.883-22.978.497-45.962.766-68.944 1.02-35.305.39-70.63.101-105.909 1.274-16.338.543-32.584 3.86-48.873 5.908-7.628.959-15.26 1.888-22.89 2.833-13.346 1.654-26.684 3.374-40.04 4.943-12.238 1.438-24.5 2.673-36.743 4.07-11.074 1.263-22.111 2.908-33.21 3.877-17.75 1.549-35.277.499-50.47-10.057-9.98-6.935-16.035-17.036-20.626-28.413-5.373-13.315-12.148-26.065-18.343-39.047-4.09-8.57-8.282-17.09-12.333-25.676-7.489-15.873-14.816-31.824-22.38-47.661-9.412-19.71-19.027-39.323-28.497-59.006-7.02-14.592-13.94-29.233-20.92-43.844-7.34-15.36-14.756-30.683-22.029-46.075-7.058-14.937-13.916-29.97-20.994-44.899-2.32-4.894-5.252-9.5-7.562-14.398-5.636-11.952-10.957-24.053-16.628-35.989-4.061-8.548-8.653-16.845-12.703-25.4-5.01-10.582-9.498-21.413-14.592-31.954-5.245-10.855-11.023-21.45-16.405-32.241-1.827-3.662-2.911-7.696-4.77-11.338-2.571-5.038-5.911-9.7-8.284-14.818-4.346-9.374-7.952-19.093-12.36-28.435-7.131-15.106-14.266-30.24-22.277-44.881-2.246-4.103-7.112-7.565-11.567-9.52-14.334-6.288-28.79-4.192-42.303 2.56-9.19 4.59-15.248 12.859-20.3 21.794-2.629 4.649-5.915 8.927-8.934 13.351-.553.811-1.386 1.448-1.862 2.294-6.2 11.024-12.467 22.012-18.488 33.133-3.894 7.193-7.206 14.703-11.144 21.871-6.085 11.075-12.61 21.907-18.718 32.97-10.77 19.508-21.32 39.14-32.093 58.646-1.496 2.709-3.736 5.008-5.644 7.487-7.303 9.496-14.145 19.402-22.084 28.333-5.204 5.856-11.735 10.669-18.177 15.236-3.77 2.673-8.57 3.87-12.844 5.863a4943 4943 0 0 0-34.787 16.376c-6.183 2.943-12.216 6.212-18.463 9.005-12.814 5.73-25.706 11.284-38.605 16.82-9.809 4.21-19.73 8.163-29.5 12.458-6.736 2.96-13.204 6.54-19.973 9.414-5.402 2.295-11.143 3.778-16.617 5.918-7.902 3.09-15.663 6.54-23.55 9.668-10.78 4.276-21.711 8.184-32.415 12.64-9.907 4.124-19.556 8.866-29.406 13.132-5.205 2.254-11.007 3.38-15.827 6.223-12.944 7.633-25.562 15.824-38.19 23.978-6.637 4.285-13.208 8.715-19.484 13.504-12.514 9.547-24.706 19.517-37.214 29.073-14.258 10.894-28.865 21.336-43.044 32.331-12.722 9.866-25.042 20.25-37.592 30.341a3539 3539 0 0 1-30.194 24.011 11056 11056 0 0 1-45.003 35.19c-11.647 9.06-23.457 17.914-35.011 27.091-12.651 10.049-25.016 20.457-37.649 30.528-8.621 6.873-17.643 13.247-26.21 20.185-13.542 10.963-26.743 22.347-40.299 33.292-8.542 6.898-17.612 13.14-26.183 20.004-9.656 7.733-18.955 15.91-28.527 23.75-6.758 5.537-13.766 10.768-20.566 16.256-10.264 8.283-20.455 16.658-30.657 25.018-9.443 7.737-18.828 15.544-28.297 23.25-10.23 8.324-20.552 16.535-30.79 24.85a6899 6899 0 0 0-32.932 26.93c-11.592 9.534-23.14 19.122-34.706 28.69-4.153 3.434-8.3 6.875-12.152 11.594 7.25.324 14.5.686 21.752.956 3.539.132 7.084.123 10.626.126 14.5.013 29 .005 43.499.005h80.591c5.88 0 11.759-.034 17.638.006 47.939.324 95.877.709 143.817.973 22.38.124 44.76.11 67.14-.024 8.275-.05 16.549-.946 24.82-.89 20.774.14 41.545.702 62.32.904 16.377.158 32.756.032 49.135.032 10.543 0 21.087.09 31.63-.023 13.013-.14 25.991 1.466 39.076-.654 5.781-.936 12.028 1.498 18.073 1.565 8.839.1 17.688-.878 26.53-.834 42.106.211 84.211.75 126.318.908 44.853.167 89.708.037 135.057.037"/></svg>