<svg xmlns="http://www.w3.org/2000/svg" viewBox="0 0 2000 1630" xml:space="preserve"><path fill="#fff" d="M271.936 1501.447c-16.596 2.253-32.227-1.438-47.91-4.934-2.413-.538-5.4-.579-7.593.37-6 2.596-12.192 5.202-17.396 9.04-3.941 2.905-7.402 4.88-12.137 3.402-5.253-1.64-6.326-6.714-6.462-10.791-.4-12.017-6.998-19.447-16.05-26.054-5.662-4.134-11.338-8.84-15.39-14.456-6.9-9.562-16.824-13.373-27.028-17.278-6.418-2.457-12.705-5.252-19.074-7.838-7.229-2.936-9.004-10.191-12.658-15.934-5.293-8.319-10.374-16.774-15.657-25.1-4.39-6.917-8.794-13.833-13.485-20.545-2.166-3.099-5.405-5.46-7.507-8.59-5.838-8.698-4.054-17.636.414-27.597-3.655 1.821-6.556 3.06-9.247 4.652-5.576 3.3-12.478 1.301-14.437-4.9-1.566-4.959-2.522-10.208-2.926-15.392-.178-2.283.998-5.681 2.74-6.931 7.529-5.404 8.656-13.253 9.014-21.386.483-10.977 3.4-20.613 9.494-30.239 7.648-12.08 13.441-25.416 17.821-39.3 4.037-12.793 8.92-25.383 14.409-37.622 2.026-4.517 6.752-7.875 10.416-11.595 8.278-8.404 19.144-12.652 29.484-17.552 7.13-3.38 10.855-9.94 16.295-14.865 8.197-7.422 8.553-17.886 11.38-27.577 2.983-10.222 7.031-20.308 11.988-29.731 4.888-9.294 7.17-19.08 6.479-29.004-.826-11.84 5.014-20.484 10.451-29.672 2.184-3.69 4.14-7.517 6.352-11.19 15.42-25.61 30.992-51.13 46.29-76.814 10.876-18.26 21.306-36.784 32.109-55.087 11.114-18.83 22.432-37.541 33.676-56.295 6.022-10.044 12.017-20.106 18.13-30.095a11990 11990 0 0 1 30.56-49.602c10.472-16.922 20.939-33.848 31.514-50.706 11.299-18.012 22.71-35.955 34.096-53.913 8.187-12.913 16.53-25.728 24.592-38.72 8.021-12.928 15.33-26.318 23.759-38.969 11.1-16.66 20.503-34.393 33.74-49.736 13.978-16.2 26.425-33.713 39.836-50.415 17.552-21.86 35.504-43.396 53.067-65.247 10.422-12.966 20.316-26.356 30.652-39.393 8.913-11.242 18.152-22.224 27.18-33.376 8.401-10.38 16.696-20.846 25.071-31.248 9.51-11.812 19.114-23.55 28.573-35.402 9.246-11.584 18.294-23.326 27.552-34.901 9.374-11.721 18.858-23.354 28.366-34.968a6235 6235 0 0 1 32.11-38.94c7.607-9.14 15.411-18.115 23.027-27.248 8.978-10.767 17.814-21.65 26.773-32.432 7.493-9.018 15.096-17.944 22.612-26.942 7.823-9.364 15.584-18.78 23.402-28.149 7.296-8.744 14.52-17.555 21.985-26.154 6.195-7.135 9.83-7.13 16.655-.392 6.803 6.717 12.964 14.09 19.323 21.25 6.694 7.538 13.293 15.16 19.925 22.754 13.697 15.68 27.323 31.424 41.114 47.021 5.924 6.7 12.314 12.989 18.266 19.665 7.908 8.87 15.564 17.962 23.386 26.908 5.663 6.477 11.433 12.861 17.132 19.308 4.779 5.407 9.466 10.896 14.298 16.256 7.048 7.82 14.269 15.484 21.272 23.343 12.612 14.153 25.101 28.415 37.673 42.605 5.818 6.566 11.772 13.011 17.549 19.612 5.868 6.707 11.556 13.573 17.399 20.302 3.325 3.83 6.75 7.578 10.221 11.276 11.015 11.73 22.225 23.28 33.076 35.16 14.497 15.872 28.693 32.02 43.094 47.981 5.18 5.742 10.612 11.254 15.868 16.927 12.126 13.088 24.221 26.204 36.317 39.32a32506 32506 0 0 1 34.847 37.832c18.832 20.484 37.69 40.945 56.461 61.483 12.726 13.925 25.317 27.973 37.982 41.953 13.01 14.36 26.091 28.654 39.038 43.07 13.472 15 26.65 30.27 40.28 45.125 9.937 10.831 20.537 21.052 30.581 31.788 8.703 9.302 17.112 18.884 25.505 28.471 3.395 3.878 3.014 9.727-1.23 13.944-5.277 5.24-10.88 10.188-16.652 14.881-3.3 2.684-3.866 4.512-.654 7.813 8.968 9.214 17.633 18.726 26.369 28.165 4.376 4.729 8.648 9.556 13.317 14.726 6.567-5.189 12.921-9.86 18.865-15.007 5.572-4.823 11.698-5.258 16.63.194 8.49 9.385 16.536 19.171 24.908 28.665 6.787 7.696 13.814 15.178 20.672 22.812 8.02 8.928 15.97 17.918 24.135 27.088l19.303-16.72 13.143 15.044-54.724 47.656-13.15-15.006 19.793-17.383c-3.938-4.953-7.6-9.989-11.704-14.634-9.429-10.67-19.077-21.147-28.628-31.711-6.884-7.615-13.939-15.088-20.526-22.953-2.27-2.711-3.736-2.482-6.027-.6-5.093 4.185-10.195 8.365-15.398 12.413-6.674 5.193-13.146 3.94-18.527-2.329-9.484-11.048-19.449-21.683-29.221-32.483-5.546-6.128-11.085-12.264-16.679-18.348-1.986-2.16-4.212-4.103-6.182-6.277-4.85-5.355-4.209-12.27 1.23-16.925 5.152-4.409 10.077-9.082 15.158-13.575 2.33-2.06 3.2-3.792.632-6.593-7.374-8.04-14.385-16.413-21.69-24.52a13041 13041 0 0 0-48.047-52.997c-8.397-9.216-16.919-18.317-25.383-27.47-16.32-17.65-32.682-35.26-48.94-52.966-9.178-9.996-18.132-20.198-27.275-30.226-17.928-19.665-35.922-39.268-53.877-58.907a6219 6219 0 0 1-20.06-22.055c-9.328-10.304-18.543-20.712-27.98-30.915-7.57-8.184-15.485-16.05-23.087-24.204-6.65-7.133-13.05-14.497-19.614-21.71-3.858-4.24-7.858-8.35-11.722-12.584a3465 3465 0 0 1-21.346-23.577c-4.079-4.552-7.998-9.246-12.065-13.808-8.591-9.635-17.18-19.273-25.87-28.818-5.43-5.963-11.172-11.643-16.549-17.651-13.126-14.67-26.024-29.545-39.204-44.166-8.986-9.968-18.548-19.423-27.39-29.513-10.109-11.533-19.57-23.632-29.57-35.263-7.017-8.16-14.564-15.86-21.7-23.92-14.135-15.97-28.142-32.053-42.221-48.072-3.24-3.685-6.536-7.32-9.846-10.942-7.374-8.071-14.843-16.057-22.14-24.198-6.064-6.765-11.848-13.782-17.924-20.537-5.897-6.557-11.986-12.942-18.06-19.338-.61-.643-1.689-.842-2.835-1.38-12.744 15.183-25.382 30.2-37.976 45.252-15.143 18.1-30.233 36.245-45.376 54.346-15.566 18.608-31.224 37.138-46.735 55.792-12.332 14.831-24.612 29.708-36.716 44.725-15.782 19.58-31.387 39.304-47.033 58.993-16.602 20.894-33.143 41.836-49.75 62.725-13.13 16.516-26.245 33.045-39.503 49.458-16.063 19.886-32.386 39.564-48.378 59.507-12.052 15.033-23.825 30.292-35.602 45.543-10.773 13.95-21.802 27.733-31.934 42.14-8.043 11.437-14.851 23.739-22.298 35.6-10.431 16.612-20.98 33.15-31.416 49.76-9.208 14.652-18.288 29.384-27.506 44.03-7.811 12.41-15.713 24.763-23.622 37.11-8.07 12.598-16.436 25.012-24.244 37.768-10.747 17.558-21.043 35.392-31.624 53.052-8.714 14.543-17.703 28.923-26.299 43.535-5.426 9.223-10.18 18.841-15.566 28.089-3.641 6.251-8.076 12.038-11.776 18.259-7.876 13.236-15.392 26.687-23.265 39.926-8.725 14.673-17.766 29.16-26.52 43.816-10.555 17.669-20.93 35.445-31.445 53.137-1.68 2.825-4.355 5.221-5.399 8.223-1.634 4.698-2.444 9.714-3.27 14.65-.623 3.725-1.298 7.594-.933 11.298.66 6.71-2.033 12.185-4.857 17.864-3.435 6.907-6.991 13.845-9.458 21.121-3.724 10.986-6.208 22.393-9.93 33.38-1.462 4.315-4.46 8.296-7.418 11.885-9.757 11.837-21.412 21.227-35.574 27.582-5.645 2.534-10.631 6.56-15.856 10.002-5.768 3.798-6.531 10.453-8.782 16.16-3.96 10.04-7.63 20.2-11.197 30.39-5.361 15.315-13.365 29.236-21.89 42.935-1.388 2.233-2.247 5.343-2.022 7.932.705 8.124-1.792 15.575-4.686 22.757-1.29 3.2-5.044 5.4-7.65 8.082-1.81 1.863-3.569 3.775-5.351 5.665l1.502 1.804c2.305-1.23 4.739-2.272 6.886-3.734 3.728-2.537 8.05-4.245 11.97-2.306 4.408 2.18 6.539 6.664 6.203 11.917-.107 1.66.162 3.355-.047 4.995-1.1 8.61 1.207 15.697 6.923 22.63 7.187 8.717 13.02 18.568 19.241 28.06 5.784 8.824 11.151 17.924 17.054 26.666 1.533 2.271 4.128 4.235 6.67 5.343 9.504 4.14 19.32 7.58 28.742 11.885 3.91 1.787 7.372 4.821 10.615 7.755 10.407 9.415 20.83 18.834 30.792 28.71 3.662 3.63 6.492 8.317 8.87 12.949 1.624 3.164 3.024 3.252 5.762 1.954 3.268-1.548 6.768-2.605 10.032-4.16 8.312-3.962 15.992.28 23.917 1.577 7.598 1.244 15.206 2.504 22.858 3.285 1.595.163 3.955-1.328 5.026-2.759 10.455-13.972 20.806-28.024 30.974-42.207 3.736-5.21 6.677-10.99 10.391-16.218 3.91-5.503 13.408-7.99 19.378-5.24 8.688 4 17.883 7.342 25.69 12.679 7.15 4.888 13.23 11.638 18.906 18.312 7.344 8.636 13.664 18.135 20.708 27.038 8.61 10.88 21.285 15.01 33.656 19.556a79 79 0 0 1 4.908 2.01c15.263 6.806 28.65 2.693 40.659-7.473 6.777-5.737 13.2-11.945 19.343-18.361 4.994-5.216 11.106-6.84 17.839-8.338 12.483-2.775 22.127 2.996 31.268 9.61 7.094 5.131 13.003 11.869 19.821 17.422 5.732 4.668 11.92 8.803 18.078 12.916 11.087 7.405 24.205 8.273 36.668 11.434 9.001 2.283 17.621 6.23 26.212 9.9 4.33 1.85 8.197 4.767 12.308 7.143 7.277 4.207 10.8 11.502 14.633 18.367 1.858 3.328 4.418 4.712 7.474 4.257 11.552-1.721 19.838 4.643 28.258 10.776 8.25 6.008 16.65 11.846 24.52 18.324 4.475 3.684 8.27 8.3 11.89 12.878 2.33 2.947 4.288 3.858 7.238 1.257 8.207-7.235 18.657-10.29 28.086-15.258 3.985-2.099 7.266-5.59 10.726-8.61 4.44-3.876 8.16-9.06 13.232-11.61 7.26-3.646 10.764-10.071 14.864-16.042 6.993-10.184 13.133-20.95 20.026-31.207 2.259-3.361 5.312-7.46 8.776-8.413 4.178-1.15 9.2.549 13.815 1.275 4.03.634 7.977 1.845 12.016 2.359 1.636.208 3.543-.499 5.112-1.242 3.13-1.483 6.218-3.114 9.135-4.977 8.557-5.466 18.26-6.849 27.989-8.494 8.378-1.417 16.625-3.606 24.938-5.417 8.468-1.845 16.87-4.252 25.438-5.298 8.863-1.081 15.646-6.12 22.62-10.53 5.902-3.732 12.128-5.126 18.613-5.524 7.97-.489 15.651-1.596 22.958-4.93 5.608-2.56 11.237-1.485 15.007 2.778 4.666 5.276 9.6 5.038 15.616 3.929 14.26-2.63 19.804-.05 26.96 10.694 7.936 11.912 15.572 24.413 25.55 34.462 9.136 9.204 20.82 16.158 32.131 22.833 9.077 5.358 19.22 8.948 28.994 13.073 8.944 3.775 17.999 7.294 27.062 10.777 7.5 2.882 14.933 6.131 22.68 8.107 5.328 1.359 11.139 1.012 16.737 1.057 3.771.03 7.542-.75 11.322-.886 20.212-.725 40.447-1.002 60.632-2.175 10.57-.614 18.374-6.28 22.687-16.384 5.492-12.866 11.226-25.707 21.098-35.923 4.556-4.714 9.68-9.135 15.242-12.561 9.358-5.766 19.088-11.012 29.01-15.747 7.054-3.367 14.694-5.5 22.05-8.247 12.873-4.805 25.948-9.162 38.493-14.713 5.717-2.529 10.653-7.138 15.442-11.372 5.988-5.294 13.251-5.335 19.931-4.222 14.185 2.363 28.145 6.076 42.204 9.204 10.695 2.379 21.794 3.612 32.02 7.284 22.387 8.038 44.632 16.635 66.332 26.352 10.548 4.722 19.73 12.487 29.548 18.849 3.87 2.507 7.679 5.147 11.76 7.252.91.468 3.484-.643 4.217-1.742 5.914-8.873 11.339-18.077 17.378-26.86 5.127-7.455 10.96-14.42 16.324-21.718 6.465-8.797 14.919-15.128 24.364-20.322 14.139-7.775 28.463-15.24 42.311-23.504 9.158-5.465 17.672-12.023 26.38-18.222 16.763-11.933 33.252-24.264 50.246-35.855 15.06-10.273 30.756-19.61 45.984-29.647 16.772-11.054 33.308-22.466 49.998-33.645 3.249-2.176 6.732-4.002 11.152-6.604-4.29-3.834-7.935-7.272-11.77-10.485-11.119-9.316-22.355-18.494-33.43-27.862-1.445-1.222-2.272-3.209-3.285-4.902-9.205-15.39-21.535-28.311-32.735-42.154-7.36-9.097-13.776-19.269-18.84-29.812-3.813-7.936-.66-16.322 5.495-22.726 8.873-9.233 18.067-18.156 27.116-27.22 1.161-1.163 2.272-2.376 3.782-3.961-29.261-33.395-58.344-66.702-87.557-99.893-29.178-33.151-58.487-66.187-87.832-99.378l14.013-13.83c7.254 7.984 14.555 15.925 21.747 23.964a2594 2594 0 0 1 22.169 25.137c10.746 12.33 21.377 24.76 32.16 37.056 6.329 7.218 12.919 14.207 19.28 21.397 9.303 10.514 18.464 21.154 27.765 31.67 6.314 7.138 12.822 14.104 19.145 21.235 12.505 14.104 25.119 28.12 37.332 42.474 5.863 6.89 4.973 16.216-.783 21.397-10.28 9.252-19.736 19.422-29.517 29.228-5.875 5.89-5.176 5.554-1.435 12.787 8.48 16.393 21.596 29.027 33.173 42.932 2.52 3.027 4.928 6.276 6.706 9.77 5.92 11.637 16.613 18.452 26.056 26.567 9.656 8.298 19.457 16.457 28.677 25.22 6.563 6.237 5.275 15.252-.985 22.24-4.118 4.597-9.462 8.23-14.654 11.701-11.632 7.78-23.541 15.145-35.285 22.761-17.666 11.456-35.49 22.685-52.873 34.557-20.39 13.924-40.426 28.37-60.515 42.729-6.16 4.403-11.682 9.757-18.054 13.794-7.969 5.047-16.583 9.062-24.795 13.74-12.609 7.186-26.216 13.205-37.318 22.269-9.225 7.53-15.878 18.434-22.887 28.394-7.178 10.199-13.35 21.102-20.087 31.616-1.504 2.347-3.44 4.443-5.34 6.504-5.604 6.08-8.21 6.21-15.327 1.674-13.172-8.396-26.805-16.12-39.578-25.077-12.494-8.763-26.696-13.216-40.584-18.647-9.382-3.668-18.454-8.25-28.028-11.269-9.316-2.936-19.12-4.303-28.664-6.547-6.364-1.496-12.608-3.506-18.981-4.952-8.136-1.847-16.327-3.474-24.535-4.969-5.188-.944-10.085.31-13.575 4.326-5.03 5.788-11.487 8.987-18.43 11.616-11.273 4.268-22.502 8.654-33.761 12.96-7.979 3.051-16.182 5.605-23.924 9.166-17.079 7.856-33.44 16.956-43.498 33.788-3.443 5.762-6.21 12.028-8.534 18.34-4.238 11.513-12.19 19.307-22.716 25.027-4.235 2.302-8.164 3.348-13.31 3.055-8.989-.512-18.088.936-27.142 1.546-1.324.09-2.655.082-3.982.134-17.214.665-34.488.686-51.614 2.283-8.125.758-14.961-.838-22.225-3.772-13.82-5.58-27.931-10.434-41.904-15.639-9.815-3.656-19.826-6.905-29.313-11.28-5.43-2.505-9.922-6.996-14.954-10.42-7.72-5.252-15.87-9.937-23.2-15.677-4.614-3.612-8.43-8.44-11.96-13.2-7.23-9.753-13.54-20.238-21.345-29.48-1.952-2.313-8.549-2.359-12.29-1.174-8.536 2.704-15.42 1.524-21.682-4.83-1.066-1.082-3.274-1.79-4.785-1.56-9.212 1.405-18.392 3.04-27.541 4.808-2.537.49-5.401 1.121-7.32 2.671-9.86 7.964-21.02 12.312-33.49 14.392-11.93 1.99-23.626 5.336-35.502 7.695-5.937 1.178-12.19.903-18.034 2.356-5.122 1.274-10.077 3.669-14.736 6.24-7.087 3.91-13.683 8.915-22.486 7.58-4.375-.662-8.976-.73-13.05-2.223-4.378-1.605-6.132.563-8.007 3.49-8.355 13.036-16.646 26.115-25.114 39.078-1.112 1.704-2.902 3.236-4.726 4.158-9.954 5.032-17.03 13.402-24.853 20.921-1.651 1.587-3.365 3.513-5.416 4.215-15.222 5.205-28.374 13.965-41.111 23.461-6.648 4.957-12.038 3.712-16.313-5.575-5.08-11.035-12.816-19.265-22.631-25.945-6.532-4.445-13.143-8.799-19.427-13.577-4.067-3.093-8.268-4.543-13.338-4.05-2.972.288-5.996.005-8.995.063-4.68.09-8.357-1.584-10.627-5.84-1.791-3.357-4.039-6.562-5.253-10.12-2.8-8.205-9.188-12.268-16.34-16.026-15.79-8.298-33.512-9.93-50.148-15.22-6.883-2.19-12.968-6.784-19.598-9.899-10.586-4.974-18-13.606-26.293-21.38-5.17-4.849-11.7-8.379-17.96-11.893-4.82-2.705-10.244-1.265-14.337 2.727-9.83 9.589-19.312 19.622-31.468 26.4-4.795 2.674-9.696 6.332-14.853 6.935-10.638 1.244-21.582 1.668-31.93-2.51a2151 2151 0 0 1-33.574-13.866c-2.084-.883-4.34-2.072-5.731-3.765-8.692-10.571-16.955-21.498-25.772-31.96-6.299-7.475-12.712-15.026-20.097-21.349-4.422-3.785-10.757-5.41-16.374-7.649-.92-.366-3.077.757-3.814 1.795-6.542 9.216-12.745 18.675-19.347 27.847-5.673 7.882-11.706 15.507-17.643 23.197-3.125 4.048-6.384 7.993-9.906 12.217"/></svg>