<svg xmlns="http://www.w3.org/2000/svg" viewBox="0 0 2823 1000" xml:space="preserve"><path fill="#fff" d="M2583 723.796c-28.333 0-56.168-.203-83.998.09-12.883.136-25.75 1.424-38.636 1.82-5.587.172-11.2-.79-16.807-.879-10.207-.161-20.42.052-30.627-.098-6.816-.1-13.626-.571-20.44-.85-1.829-.076-3.664-.127-5.493-.07-9.981.308-19.963.967-29.942.918-17.64-.087-35.277-.856-52.916-.858-17.44-.001-34.88.82-52.321.855-13.607.028-27.216-.893-40.822-.856-19.274.051-38.547.648-57.822.877-3.269.039-6.56-.487-9.814-.95-5.372-.763-6.917 1.405-6.63 6.76.447 8.327-.09 16.705-.16 25.062-.046 5.57.096 11.143-.031 16.71-.098 4.258-.735 8.51-.706 12.762.268 38.607.742 77.213.9 115.82.055 13.44-.847 26.882-.844 40.322.003 7.387-10.691 15.71-18.45 15.612-13.498-.17-27-.173-40.498-.006-10.486.13-20.965.747-31.45.895-3.934.056-7.878-.89-11.817-.893-79.832-.057-159.665-.072-239.497 0-8.315.008-16.63.907-24.945.883-10.306-.03-20.613-.911-30.914-.822-7.864.067-15.772 1.976-23.57 1.518-64.347-3.78-128.739-.585-193.1-1.517-7.532-.109-15.09 1.805-22.628 1.75-9.543-.07-19.171-.592-28.592-2.034-9.449-1.447-17.347-9.642-17.298-19.914.18-37.999.072-75.999.072-113.998 0-10.047.034-20.095-.006-30.141-.323-81.274-.69-162.547-.936-243.82-.02-6.385.787-12.772 1.235-19.53h-842.12v-31.01h858.644c8.772 0 14.858 5.89 14.732 14.688-.146 10.274-.922 20.544-.878 30.814.071 16.485.65 32.968.898 49.453.133 8.876.023 17.756.023 26.634 0 10.02.118 20.04-.042 30.058-.101 6.317-.915 12.629-.877 18.94.057 9.284.716 18.564.883 27.85.164 9.14.034 18.287.034 27.43l.002 32.267v48.134c0 9.547.13 19.097-.035 28.641-.174 9.986-.793 19.965-.896 29.95-.053 5.102.825 10.21.886 15.319.142 11.92.052 23.844.037 35.766-.002 1.494.053 3.017-.206 4.476-.986 5.568.58 7.574 6.19 7.575 59.5.008 118.999.005 178.498.005 141.665 0 283.33.007 424.995-.04 3.758-.002 7.516-.598 11.938-.974v-5.715c0-65.666.018-131.332-.031-196.998-.005-5.642-1.067-11.34-.551-16.91.702-7.605 2.588-11.257 13.22-11.317 25.332-.143 50.666-.046 75.999-.046 46.906 0 93.811-.049 140.717.03 13.83.023 27.66.603 41.49.581 18.953-.03 37.905-.569 56.858-.581 95.842-.065 191.684-.03 287.525-.03 4.378 0 8.793.367 13.126-.07 6.94-.7 14.11-1.051 20.663-3.162 7.774-2.504 16.088-4.74 21.082-12.522 2.429-3.785 1.025-13.387-3.759-16.585-6.9-4.613-14.19-8.65-21.368-12.84-4.071-2.376-8.253-4.565-12.382-6.842-8.813-4.86-17.648-9.682-26.426-14.605-4.425-2.481-8.714-5.205-13.12-7.72-6.638-3.79-13.324-7.493-19.991-11.23-.432-.241-.891-.672-1.318-.649-12.493.688-24.979-1.71-37.545 1.93-10.952 3.173-17.846 11.303-26.239 17.665-5.326 4.037-10.424 8.373-15.643 12.552-3.437 2.753-6.928 5.44-10.357 8.202-5.268 4.242-10.166 9.072-15.874 12.594-3.68 2.27-8.466 3.312-12.869 3.733-8.56.817-17.206.694-25.8 1.224-2.22.137-4.345 1.634-6.576 1.84-5.95.553-11.942.639-17.903 1.1-11.988.924-23.954 2.168-35.952 2.923-14.032.884-28.082 1.581-42.135 2.005-17.8.537-35.79-.774-53.381 1.34-45.634 5.482-91.34 1.216-136.98 2.645-4.423.139-8.874-.602-13.311-.955-8.206-.652-16.401-1.677-24.619-1.91-19.6-.554-39.222-.464-58.815-1.182-10.315-.378-20.647-1.508-30.856-3.058-6.405-.973-12.56-3.504-18.892-5.069-7.067-1.746-14.25-3.027-21.305-4.813-5.881-1.489-11.954-2.766-17.4-5.3a173 173 0 0 1-22.648-12.703c-8.958-5.95-19.014-10.356-26.244-18.863-4.906-5.772-10.454-11.004-15.8-16.392-7.467-7.524-15.029-14.954-22.524-22.45-7.83-7.83-15.594-15.728-23.46-23.523-3.005-2.98-6.46-5.535-9.27-8.677-5.49-6.137-10.67-12.55-15.977-18.85-6.765-8.03-13.585-16.017-20.26-24.124-1.915-2.326-3.155-5.227-5.155-7.461-3.628-4.054-7.707-7.703-11.362-11.735-1.467-1.618-2.108-3.96-3.475-5.696-5.458-6.93-10.89-13.893-16.637-20.58-10.173-11.839-20.687-23.384-30.833-35.245-7.608-8.894-14.84-18.108-22.282-27.145a1785 1785 0 0 0-15.397-18.446c-7.31-8.638-15.62-16.62-21.716-26.038-4.69-7.245-11.184-12.481-16.315-19.067-6.8-8.727-13.19-17.781-20.161-26.365-4.82-5.935-11.245-9.59-18.86-11.338-27.388-6.288-55.142-2.708-82.678-2.743-269.497-.345-538.994-.207-808.491-.217-3.324 0-6.653-.045-9.97-.232-2.855-.162-6.938.51-8.29-1.065-3.006-3.501-5.71-7.215-5.681-12.92.322-65.164.205-130.33.204-195.496 0-8.278-.003-8.278-8.325-8.278H418.382c-8.112 0-9.586 1.458-9.586 9.49 0 62.499-.006 124.998.021 187.497.001 2.445.584 4.905.433 7.33-.41 6.575-5.47 10.28-14.413 10.634-6.323.25-12.664.05-18.997.05H239.08c-11.541 0-23.083.017-34.624-.013-2.889-.008-5.777-.161-8.665-.263-14.53-.516-22.266 11.856-33.457 17.674-2.87 1.492-5.565 3.353-8.23 5.202-3.91 2.713-7.646 5.681-11.6 8.326-3.25 2.175-6.811 3.89-10.046 6.085-2.888 1.96-5.406 4.469-8.32 6.382-1.08.709-2.82.41-4.26.572l1.856 1.19c-4 2.88-8.071 5.666-11.984 8.66-4.922 3.764-9.601 7.852-14.592 11.519-6.247 4.59-13.072 8.457-18.976 13.433-7.323 6.172-14.02 13.097-20.83 19.856-1.205 1.197-1.64 3.17-3.066 6.082 8.846 6.652 17.701 13.335 26.584 19.983 7.64 5.717 15.315 11.387 22.966 17.09 4.436 3.306 8.412 7.926 13.391 9.64 6.998 2.408 11.608 7.753 17.402 11.495 16.991 10.973 33.641 22.552 49.731 34.805 6.045 4.604 11.861 5.785 18.958 5.776 102.332-.127 204.665-.087 306.997-.087h6.171V468.21h35.576l-2.078 93.562h-34.628v-31.976h-61.303c-11.211 0-22.424.13-33.633-.038-10.61-.158-21.216-.949-31.821-.909-58.94.223-117.88.658-176.821.896-8.273.034-16.725.294-24.76-1.267-5.513-1.07-10.728-4.69-15.588-7.908-13.317-8.815-26.457-17.906-39.518-27.097-16.425-11.56-32.7-23.333-49.047-35.002-11.923-8.51-24.162-16.617-35.668-25.657-6.252-4.912-11.285-11.382-16.828-17.187-1.248-1.307-2.244-2.857-3.508-4.147-5.77-5.885-6.363-19.116-1.025-25.197 4.621-5.263 7.06-12.586 12.033-17.364 9.692-9.31 20.355-17.636 30.85-26.078 11.808-9.496 23.688-18.923 35.892-27.898 8.343-6.136 17.37-11.334 25.955-17.152 14.984-10.153 29.617-20.85 44.916-30.498 5.535-3.49 12.455-4.967 19.47-3.795 2.345.392 4.818.043 7.232-.007 3.715-.078 7.43-.272 11.145-.274 35.5-.022 71 .05 106.499-.059 8.681-.027 17.36-.882 26.04-.88 8.774 0 17.545.696 26.321.893 7.01.157 6.896.025 7.042-6.712.233-10.776.872-21.547.9-32.322.024-8.812-.768-17.624-.856-26.44-.05-4.935.913-9.881.861-14.817-.098-9.481-.827-18.958-.853-28.438-.021-7.945.835-15.892.842-23.839.007-7.648-.877-15.3-.822-22.945.064-8.763.716-17.522 1.143-26.281.218-4.455.427-8.913.773-13.36.775-9.946 7.839-16.643 16.98-17.652 9.527-1.052 19.194-1.037 28.804-1.116 18.545-.154 37.094-.045 55.64-.045 10.048 0 20.097-.125 30.142.038 9.814.159 19.624.92 29.433.87 17.978-.09 35.953-.733 53.931-.842 8.439-.052 16.88.83 25.322.861 6.773.026 13.549-.874 20.322-.854 7.983.022 15.965.861 23.947.852 8.65-.01 17.3-.851 25.949-.847 9.319.004 18.637.775 27.957.823 7.655.04 15.312-.495 22.968-.763 1.993-.07 3.987-.124 5.98-.132 4.88-.019 9.76-.006 14.639-.006 11.166 0 22.334-.117 33.499.044 6.777.097 13.592.25 20.312 1.041 11.617 1.368 18.371 9.604 18.534 22.98.565 46.502.218 93.015.218 139.524 0 16.116.162 32.235-.106 48.347-.073 4.375 1.461 5.147 5.425 5.142 88.332-.102 176.665-.108 264.997-.034 9.573.008 19.148.94 28.719.886 18.607-.104 37.213-.622 55.82-.926 4.876-.08 9.757.1 14.631-.026 9.986-.26 19.97-.967 29.953-.924 49.774.215 99.548.578 149.32.984 7.443.06 14.884.93 22.322.89 11.11-.06 22.213-.748 33.323-.889 13.21-.167 26.426.049 39.637-.085 4.943-.05 9.879-.842 14.82-.874 3.938-.026 7.875.809 11.818.875 8.71.145 17.426-.07 26.136.072 14.483.237 28.965.94 43.446.902 21.274-.058 42.547-.72 63.822-.866 8.104-.055 16.213.85 24.321.864 7.274.013 14.549-.874 21.822-.854 8.608.024 17.338-.184 25.785 1.16 7.615 1.21 14.923 4.364 22.356 6.693 2.81.88 5.548 2.016 8.392 2.75 8.797 2.271 13.018 9.695 18.34 15.935 9.204 10.788 17.96 22.037 27.95 32.049 6.86 6.874 13.451 13.664 18.17 22.182.78 1.409 2.235 2.432 3.307 3.693 5.523 6.499 11.018 13.02 16.532 19.526 5.606 6.614 11.154 13.278 16.847 19.816 9.84 11.3 19.76 22.445 28.244 34.933 7.662 11.277 16.994 21.428 25.685 31.998 11.202 13.624 22.441 27.22 33.775 40.735 9.551 11.389 18.713 23.172 29.014 33.85 20.772 21.53 42.441 42.196 63.26 63.684 10.428 10.764 23.053 17.914 35.938 24.854 6.301 3.394 12.628 7.009 19.365 9.263 11.245 3.763 22.8 6.62 34.278 9.66 11.595 3.071 23.447 3.183 35.384 3.28 17.416.143 34.825 1.198 52.237 1.87 8.44.325 16.878.77 25.322.973 16.982.41 33.972.529 50.95 1.08 11.528.373 23.043 1.84 34.557 1.762 8.994-.06 17.961-1.949 26.97-2.627 5.798-.437 11.653-.062 17.478-.212 10.106-.26 20.207-.735 30.314-.92 2.765-.052 5.57 1.042 8.308.866 12.831-.825 25.631-2.262 38.47-2.8 11.813-.493 23.702.488 35.485-.282 14.246-.931 28.402-3.157 42.623-4.555 7.396-.727 14.868-.667 22.27-1.344 8.667-.793 17.399-1.508 25.892-3.27 3.383-.702 6.333-3.959 9.259-6.326 16.285-13.173 32.459-26.485 48.795-39.595 2.222-1.782 5.01-3.38 7.757-3.898 14.121-2.671 27.669-9.009 42.568-6.864 8.773 1.263 18.048-1.467 26.362 3.54 8.06 4.852 16.251 9.483 24.338 14.29 9.322 5.541 18.49 11.347 27.909 16.713 12.783 7.283 25.558 14.62 38.68 21.254 11.097 5.61 18.231 14.522 22.787 25.479 5.654 13.598 4.675 26.742-5.282 38.444-3.062 3.598-6.161 7.184-8.943 10.995-4.1 5.618-10.312 7.65-16.358 9.652-7.899 2.613-16.028 4.541-24.088 6.648-1.726.45-3.583.561-5.38.562-54.141.028-108.282.023-162.924.023"/></svg>