<svg xmlns="http://www.w3.org/2000/svg" viewBox="0 0 2524 1000" xml:space="preserve"><path fill="#fff" d="M2492.802 775.744c-.665 8.519-.208 16.863-2.269 24.53-2.823 10.503-5.855 21.592-13.41 29.737-8.906 9.605-19.168 17.953-28.855 26.832-.846.775-1.971 1.309-2.646 2.198-4.201 5.537-10.278 8.156-16.393 10.73-14.399 6.06-28.647 12.525-43.274 17.973-6.49 2.416-13.72 2.944-20.66 4.02-13.118 2.033-26.253 3.976-39.416 5.684-6.048.784-12.18 1.28-18.273 1.27-9.274-.014-18.547-.823-27.821-.842-8.107-.016-16.252 1.243-24.313.776-12.621-.73-25.193-2.38-37.774-3.756-11.756-1.286-23.542-2.417-35.227-4.2-8.23-1.255-16.347-3.34-24.45-5.317-12.367-3.018-24.663-6.324-37.016-9.396-17.902-4.451-35.891-8.564-53.726-13.267-16.759-4.42-33.357-9.448-50.042-14.153-11.933-3.365-23.935-6.495-35.83-9.992-12.332-3.626-24.534-7.694-36.863-11.333-9.085-2.681-18.357-4.743-27.405-7.536-6.42-1.982-12.588-4.767-18.899-7.114-9.914-3.687-19.875-7.248-29.776-10.97-12.675-4.765-25.258-9.781-37.979-14.418-10.138-3.695-20.457-6.888-30.631-10.486-6.305-2.229-12.428-4.974-18.743-7.168-8.813-3.062-17.704-5.908-26.608-8.698-11.82-3.704-23.657-7.354-35.536-10.862-11.874-3.506-24.165-5.917-35.598-10.495-8.51-3.407-17.35-1.419-25.684-4.142-3.224-1.054-5.018 1.668-4.896 6.473.372 14.605.845 29.21.945 43.817.052 7.605-.887 15.215-.86 22.82.037 9.776.92 19.55.864 29.322a4283 4283 0 0 1-.996 71.914c-.281 12.517-7.096 18.958-19.089 18.999-66.831.225-133.664.217-200.496-.003-10.708-.035-17.72-8.791-17.84-20.824-.34-33.996-.034-67.998-.157-101.997-.057-15.477-.8-30.954-.703-46.428.058-9.385 1.257-18.758 1.663-28.149.13-3.023-.637-6.085-.977-8.99H603.025v-35.784c1.295-.11 2.552-.308 3.808-.308 274.996-.014 549.992-.005 824.987-.062 6.709-.001 12.503 2.415 16.637 7.108 2.527 2.868 4.152 7.568 4.168 11.453.254 60.165.177 120.33.178 180.497 0 6.984.005 6.99 6.942 6.99q74.317.003 148.636 0c7.773-.001 7.742-.113 7.864-7.714.08-4.944.945-9.884.893-14.82-.18-17.109-.692-34.213-.911-51.322-.152-11.876-.03-23.757-.03-35.635 0-18.214-.085-36.428.047-54.64.047-6.443.465-12.894 1.002-19.318.549-6.554 9.389-13.251 17.104-12.495 18.125 1.776 36.225 3.844 54.304 6.046 3.685.45 7.266 1.915 10.843 3.073 11.664 3.773 23.245 7.81 34.97 11.384 11.301 3.445 22.807 6.223 34.099 9.7 8.985 2.766 17.752 6.234 26.671 9.224 6.96 2.333 14.07 4.224 20.992 6.656 5.844 2.053 11.455 4.758 17.27 6.898 11.144 4.1 22.411 7.868 33.527 12.04 6.861 2.575 13.442 5.905 20.322 8.42 8.822 3.227 17.836 5.922 26.734 8.948 7.818 2.658 15.532 5.636 23.4 8.131 5.586 1.772 11.382 2.87 17.023 4.48 2.782.796 5.361 2.306 8.145 3.091 11.952 3.37 23.982 6.466 35.91 9.913 7.18 2.075 14.183 4.752 21.34 6.908 9.52 2.867 19.114 5.485 28.674 8.22 9.41 2.69 18.76 5.62 28.243 8.021 7.627 1.932 15.48 2.97 23.11 4.887 7.92 1.99 15.643 4.748 23.541 6.83 12.092 3.185 24.24 6.165 36.402 9.07 11.263 2.691 22.526 5.439 33.891 7.626 5.618 1.082 11.483.814 17.205 1.442 2.906.319 5.712 1.487 8.616 1.9 17.047 2.425 34.163 3.642 51.405 3.085 8.49-.275 16.998-.07 25.498-.043 14.867.048 29.6-1.088 44.049-4.844.473-.123 1.026-.262 1.467-.134 8.914 2.566 17.12-1.394 25.23-3.544 10.788-2.86 21.086-7.581 31.57-11.568 5.22-1.985 10.773-3.48 15.482-6.34 6.113-3.713 11.715-8.351 17.196-12.994 4.499-3.81 8.003-8.969 12.856-12.138 5.3-3.461 6.3-9 8.703-13.748 4.652-9.19 3.12-19.372 3.147-29.236.046-17.5.142-35-.026-52.498-.147-15.276-.825-30.547-.891-45.822-.043-9.816 1.009-19.643.825-29.451-.239-12.764-1.598-25.51-1.769-38.273-.17-12.766.568-25.543.816-38.317.042-2.122-.58-4.256-.548-6.379.054-3.587.678-7.18.55-10.752-.404-11.403-1.202-22.793-1.526-34.196-.164-5.78.507-11.579.552-17.371.096-12.332.03-24.666.03-37 0-8.38.02-16.76-.003-25.141-.33-114.605-.694-229.21-.902-343.815-.01-5.262-2.285-5.914-6.69-5.91-89.498.093-178.997.093-268.495.027-7.149-.005-14.299-.929-21.445-.886-11.108.066-22.213.826-33.32.869-12.996.05-25.992-.448-38.988-.492-3.022-.01-4.646 1.853-4.598 5.214.133 9.332.045 18.666.045 28v310.87c0 15.044.096 30.089-.045 45.132-.06 6.275-.48 12.558-1.002 18.815-.488 5.847-8.923 13.167-15.241 13.511-1.163.064-2.333.01-3.5.01H960.033c-56.739 0-113.477.002-170.216-.002-9.799 0-18.24-7.822-18.592-17.44-.439-11.937-.86-23.878-.985-35.82-.167-15.948-.142-31.9-.02-47.848.266-34.812.659-69.624.967-104.436.06-6.746-.698-7.451-7.463-7.452q-177.247-.005-354.495 0c-7.353.001-8.425 1.065-8.425 8.235-.001 59.5.02 118.999-.045 178.497-.004 4.106-.31 8.272-1.06 12.3-.871 4.687-10.073 10.955-15.483 10.958-26.5.017-53 .008-79.499.008-43.832 0-87.665-.019-131.498.043-2.934.004-5.885.508-8.797.977-10.02 1.611-20.366 2.238-29.942 5.276-9.726 3.084-19.01 8.029-27.868 13.217-5.67 3.321-11.56 7.719-14.952 13.136-5.173 8.26-11.4 15.776-14.453 25.776-3.66 11.988-4.537 23.785-4.028 35.87.233 5.528 2.31 10.98 3.59 16.457.148.628.818 1.194.814 1.787-.075 11.828 8.39 19.426 14.524 27.845 9.525 13.073 21.09 24.175 36.629 30.332 5.376 2.13 10.22 5.797 15.703 7.418 7.166 2.12 14.727 2.905 22.119 4.26.161.029.353-.048.496.011 11.84 4.855 24.149 1.12 36.216 1.87 9.674.6 19.417-.009 29.125.157 10.154.173 20.304.89 30.456.89 10.48-.001 20.958-.67 31.44-.85 2.929-.05 5.869.872 8.804.88 26.167.075 52.333.044 78.5.044h127.723v-36.06h37.737l-2.068 108.72h-36.624v-36.949c-10.723 0-21.399-.108-32.072.026-15.774.198-31.547.836-47.32.799-19.149-.046-38.297-.925-57.444-.87-58.273.164-116.546.717-174.82.839-11.044.023-22.23-.38-33.103-2.134-12.705-2.049-25.298-5.264-37.62-9.025-6.107-1.865-11.621-5.882-17.18-9.29-7.786-4.77-15.947-9.182-22.9-15-12.962-10.844-24.16-23.446-32.817-38.124-2.405-4.076-5.589-7.802-7.342-12.124-2.383-5.872-3.677-12.18-5.54-18.27-3.944-12.897-2.541-26.178-3.13-39.34-.46-10.298 2.84-19.715 4.79-29.521 3.282-16.504 13.392-29.019 22.953-41.782 3.732-4.982 10.223-7.796 14.66-12.371 8.17-8.424 18.913-12.272 28.888-17.508 4.197-2.203 8.411-4.684 12.924-5.918 15.234-4.168 30.823-6.452 46.61-7.072 19.877-.78 39.757-1.507 59.643-1.972 12.373-.29 24.76-.18 37.139-.013 9.147.123 18.292.944 27.434.891 17.842-.102 35.682-.616 53.523-.92 4.54-.078 9.089-.17 13.62.032 4.586.203 5.08-2.267 4.89-6.024-.29-5.708-.078-11.44-.146-17.161-.165-13.78-.416-27.56-.519-41.34-.02-2.75.673-5.502.681-8.254.063-20 .034-40 .034-60 0-17.898-.128-35.798.053-53.694.093-9.106 2.865-16.956 12.365-20.5 1.652-.617 3.482-.946 5.25-1.034 8.339-.415 16.683-.815 25.03-.972 2.93-.054 5.879.928 8.809.876 10.443-.183 20.881-.86 31.322-.868 9.774-.008 19.546.754 29.322.86 4.936.052 9.883-.926 14.819-.87 13.82.154 27.635.848 41.453.867 13.251.017 26.502-.626 39.755-.798 3.602-.047 7.217.868 10.818.81 10.276-.168 20.548-.856 30.822-.87 9.31-.011 18.62.843 27.931.854 8.645.01 17.291-.848 25.937-.85 8.65-.003 17.3.823 25.95.836 8.315.012 16.63-.72 24.947-.796 4.768-.044 9.546.875 14.313.817 9.609-.115 19.214-.865 28.82-.86 9.941.005 19.888.467 29.82.966 8.665.435 16.019 10 16.055 20.676.052 15.166-.104 30.334.052 45.498.115 11.144.709 22.281.87 33.425.168 11.537.206 23.08.05 34.617-.139 10.154-.887 20.303-.885 30.455.002 10.305.686 20.609.867 30.917.052 2.932-.773 5.87-.907 8.82-.293 6.462.822 7.55 7.34 7.55 55.332.005 110.664.003 165.997.003 14.666 0 29.334.126 43.999-.04 11.442-.131 22.883-.95 34.321-.895 25.775.125 51.548.884 77.32.862 31.108-.026 62.214-.712 93.322-.865 11.271-.055 22.545.775 33.82.896 15.377.167 30.757.042 46.135.042 13.38 0 26.76.12 40.138-.028 20.275-.226 40.547-.81 60.822-.904 10.984-.05 21.97.705 32.958.87 3.6.054 7.214-.915 10.818-.89 37.107.255 74.214.88 111.32.906 156.212.108 312.424.046 468.636.046 8.415 0 8.416-.003 8.416-8.184 0-21.666.101-43.333-.046-64.998-.067-9.983-.937-19.964-.886-29.943.095-18.483.73-36.963.895-55.447.167-18.712.037-37.427.037-56.14 0-26.047.08-52.093-.046-78.138-.041-8.475-.918-16.947-.882-25.419.05-11.94.805-23.877.856-35.817.037-8.437-1.005-16.886-.82-25.313.224-10.217.648-20.51 2.235-30.573.525-3.324 4.391-7.118 7.693-8.759 4.247-2.11 9.458-3.097 14.265-3.135 31.997-.258 63.998-.134 95.997-.134 96.536 0 193.071.03 289.607-.051 8.637-.007 17.195-.544 25.522 2.697 7.574 2.949 10.942 7.191 11.173 15.415.351 12.512.746 25.023.977 37.537.146 7.896.027 15.798.027 23.697 0 8.904-.022 17.809.004 26.713.328 111.272.64 222.545 1.036 333.817.037 10.274.924 20.548.889 30.82-.05 14.442-.736 28.88-.863 43.322-.056 6.27.856 12.546.889 18.822.117 22.375-.056 44.752.09 67.127.068 10.342.93 20.683.881 31.023-.085 18.103-.827 36.203-.853 54.305-.021 14.941.594 29.884.927 45.302"/></svg>