<svg xmlns="http://www.w3.org/2000/svg" viewBox="0 0 2677 1200" xml:space="preserve"><path fill="#fff" d="M247.001 1095.195h686.21v35.61h-5.999c-237.163 0-474.326.025-711.49-.133-6.735-.004-13.508-1.774-20.192-3.086-4.724-.927-9.34-2.425-13.974-3.77a21 21 0 0 1-4.41-1.843c-4.224-2.369-8.867-4.3-12.45-7.43-4.447-3.885-8.464-8.472-11.84-13.33-7.704-11.083-12.002-23.838-16.668-36.372-3.581-9.619-7.255-19.207-10.612-28.904-3.946-11.4-7.59-22.903-11.374-34.359-2.706-8.193-5.434-16.38-8.143-24.572-3.259-9.858-7.947-19.52-9.34-29.637-1.293-9.378-6.677-16.874-8.463-25.786-1.12-5.589-2.7-11.093-4.262-16.582-.778-2.736-1.995-5.344-2.981-8.022-2.806-7.62-5.79-15.183-8.347-22.886-3.981-11.99-7.836-24.029-11.43-36.14-3.163-10.656-5.914-21.434-8.788-32.174-.294-1.1-.24-2.308-.242-3.466-.018-8.865-.713-17.801.185-26.574.922-9.01 2.976-17.975 5.35-26.74 1.78-6.574 4.751-12.84 7.398-19.157.98-2.338 2.826-4.315 3.798-6.656 4.981-11.994 9.858-23.942 16.862-35.059 7.222-11.462 12.94-23.86 19.617-35.68 6.53-11.558 13.52-22.855 20.15-34.358 3.97-6.89 7.553-14.001 11.472-20.922 2.342-4.136 5.172-8 7.473-12.157 3.641-6.58 6.948-13.343 10.532-19.955 4.358-8.038 8.81-16.026 13.307-23.987 3.542-6.273 7.48-12.334 10.778-18.73 9.818-19.04 24.245-33.843 41.767-45.756 5.69-3.87 11.628-7.645 17.959-10.216 5.03-2.042 10.839-2.155 16.292-3.175 18.619-3.482 33.166 4.05 45.84 16.809 1.175 1.182 2.753 1.977 4.18 2.895 8.02 5.159 12.377 12.773 15.118 21.688 1.957 6.366 5.047 12.41 6.691 18.84 2.086 8.15 3.079 16.573 4.816 24.822 1.015 4.82 2.836 9.475 3.802 14.303 1.317 6.578 2.126 13.257 3.221 19.882 1.202 7.265 2.488 14.515 3.724 21.774.768 4.51 1.499 9.028 2.27 13.538.99 5.783 1.844 11.595 3.048 17.333 1.51 7.193 3.405 14.304 4.968 21.487 1.442 6.63 2.523 13.338 4.028 19.951 1.336 5.871 3.017 11.664 4.58 17.482 1.437 5.35 2.534 10.835 4.497 15.987 1.841 4.83 4.303 9.5 7.047 13.892 9.174 14.685 22.154 25.334 37.355 33.154 7.963 4.097 16.285 7.992 24.9 10.197 10.348 2.648 21.138 3.94 31.818 4.825 11.719.972 23.531 1.098 35.303 1.103 165.331.063 330.662.043 495.993.043h26.12c8.545 0 17.093.128 25.636-.04 7.277-.143 14.547-.867 21.822-.888 6.273-.017 12.544.738 18.822.89 6.942.167 13.894.134 20.838.013 8.753-.152 17.502-.68 26.253-.685 10.144-.006 20.287.443 30.432.545 2.432.025 4.87-.794 7.306-.797 36.174-.055 72.348-.038 108.523-.038 29.841 0 59.683-.096 89.523.045 12.442.06 24.883.947 37.322.896 45.273-.185 90.557-.18 135.81-1.289 9.502-.232 19.669.015 28.885-4.58 4.676-2.33 7.622-5.438 8.549-10.501.673-3.684 2.019-7.41 1.825-11.051-.405-7.587-5.023-12.664-11.774-15.632-10.41-4.578-20.972-8.809-31.392-13.364-6.065-2.651-11.927-5.768-17.986-8.437-2.928-1.29-6.118-1.976-9.155-3.035-9.147-3.193-18.338-6.274-27.397-9.703-8.983-3.4-17.789-7.262-26.739-10.752-12.25-4.777-25.188-8.238-36.65-14.443-9.164-4.962-19.389-6.523-28.425-11.861-7.935-4.689-17.682-6.227-26.468-9.58-12.172-4.644-24.141-9.82-36.293-14.518-12.14-4.695-24.446-8.961-36.59-13.646-9.108-3.513-18.038-7.487-27.116-11.082-8.598-3.406-17.32-6.496-25.92-9.895-5.694-2.25-11.146-5.156-16.922-7.138-9.367-3.215-18.924-5.873-28.375-8.847-3.854-1.213-7.552-3.086-11.478-3.876-9.662-1.943-19.414-3.442-29.134-5.095-2.263-.385-4.631-.387-6.798-1.06-7.77-2.408-15.459-.52-23.213-.043-10.422.64-20.923.264-31.303 1.244-9.052.854-17.982 2.99-26.969 4.541-1.937.335-3.885.617-5.833.886-7.929 1.098-15.88 2.048-23.783 3.312-6.855 1.095-13.696 2.351-20.465 3.883-6.67 1.51-13.186 3.725-19.879 5.095-3.408.698-7.196-.39-10.57.385-11.31 2.596-22.47 5.844-33.771 8.481-5.452 1.272-11.133 1.534-16.633 2.637-4.221.846-8.28 2.48-12.486 3.427-6.856 1.545-13.762 2.88-20.67 4.184a807 807 0 0 1-19.349 3.384c-5.164.845-10.42 1.237-15.515 2.367-10.062 2.232-20.048 4.809-30.053 7.294-6.007 1.493-11.97 3.163-17.995 4.58-1.933.454-4.008.557-6 .46-4.584-.223-8.279 1.786-12.4 3.469-5.612 2.291-12.12 2.356-18.225 3.482-6.575 1.213-13.106 2.676-19.695 3.803-11.874 2.03-23.353 6.755-35.868 4.6-3.441-.593-7.21 1.029-10.847 1.17-3.74.144-7.544-.722-11.247-.372-9.965.943-19.676-1.198-28.977-3.674-8.482-2.259-16.305-7.174-24.229-11.285-6.03-3.128-12.313-6.163-17.492-10.44-7.397-6.107-15.415-11.55-20.213-20.683-3.203-6.098-9.342-10.58-13.485-16.28-4.089-5.626-7.202-11.952-10.963-17.83-3.273-5.116-7.026-9.926-10.262-15.063-8.349-13.253-16.41-26.688-24.806-39.911-9.787-15.415-19.866-30.645-29.709-46.025-7.347-11.482-14.284-23.233-21.827-34.583-10.746-16.17-11.652-34.249-10.225-52.568.481-6.172 3.144-12.41 5.869-18.112 3.37-7.053 7.156-14.13 12.005-20.203 7.156-8.963 17-14.748 27.124-20.137 12.018-6.398 24.782-8.186 38.097-9.27 11.198-.913 21.844 1.074 32.68 2.696 9.087 1.36 18.244 2.242 27.334 3.577 10.69 1.57 21.327 3.492 32.012 5.094 9.402 1.41 18.85 2.507 28.256 3.893 11.336 1.67 22.643 3.543 33.974 5.247 6.627.997 13.28 1.824 19.917 2.75 11.85 1.652 23.717 3.192 35.54 5.02 10.66 1.648 21.248 3.769 31.91 5.406 11.017 1.691 22.098 2.959 33.125 4.585 8.905 1.313 17.756 2.987 26.66 4.3 5.182.763 10.439 1.007 15.627 1.73 2.574.358 5.036 1.593 7.609 1.865 5.32.56 10.736.375 16.015 1.16 9.37 1.392 18.658 3.34 28 4.939a1216 1216 0 0 0 24.728 3.96 4422 4422 0 0 0 40.325 5.879c10.367 1.457 20.764 2.706 31.132 4.153 11.51 1.607 22.996 3.377 34.504 4.995 9.884 1.39 19.795 2.585 29.673 4.013 9.074 1.312 18.115 2.847 27.178 4.232 4.212.644 8.452 1.104 12.66 1.765 3.208.504 6.392 1.168 9.575 1.815 1.602.325 3.161.991 4.77 1.127 12.63 1.064 25.29 1.813 37.896 3.094 16.933 1.72 33.884 3.743 50.893 2.742 7.386-.435 14.7-2.853 21.939-4.779 5.412-1.44 11.005-2.87 15.889-5.48a276 276 0 0 0 25.898-15.758c7.494-5.137 14.47-11.045 21.546-16.773 8.5-6.881 17.3-13.475 25.172-21.026 9.435-9.05 17.863-19.142 27.022-28.494 15.83-16.165 31.996-32.002 47.81-48.182 9.29-9.505 18.128-19.452 27.257-29.118 6.716-7.112 13.452-14.213 20.397-21.099 10.165-10.077 20.706-19.78 30.742-29.98 7.056-7.173 13.448-14.993 20.31-22.363 4.49-4.822 9.243-9.405 13.964-14.008 10.877-10.605 21.816-21.145 32.707-31.735 4.896-4.76 9.367-10.047 14.699-14.247 6.166-4.858 12.996-8.897 19.67-13.079 6.507-4.076 12.893-8.527 19.853-11.654 9.464-4.252 19.326-7.697 29.2-10.93 7.413-2.428 15.104-4.013 22.694-5.881 1.266-.312 2.647-.204 3.976-.205 19.5-.01 39.014-.456 58.493.178 10.067.328 20.136 2.228 30.083 4.073 7.399 1.373 14.853 3.174 21.805 5.971 4.745 1.91 8.761 5.741 12.938 8.93 9.985 7.62 18.671 16.57 24.779 27.564 3.977 7.16 7.482 14.63 7.737 23.273.115 3.876 2 7.69 2.997 11.554.36 1.398.66 2.86.668 4.295.054 10.833-.078 21.668.052 32.5.256 21.274.6 42.547.995 63.82.243 13.109.835 26.213.95 39.322.416 48.106.905 96.213.907 144.32 0 14.458 1.012 28.575 5.295 42.451 1.766 5.719 2.157 11.865 3.964 17.566 1.869 5.9 4.7 11.496 7.103 17.229 1.66 3.961 2.957 8.126 5.045 11.847 3.28 5.844 6.7 11.688 10.757 17.001 8.165 10.696 16.587 21.215 25.323 31.449 4.673 5.474 9.635 11.065 15.518 15.052 7.642 5.177 16.242 8.99 24.588 13.063 10.873 5.306 21.904 10.287 32.863 15.415 8.38 3.92 16.653 8.085 25.158 11.71 8.792 3.745 17.86 6.837 26.695 10.486 3.563 1.472 6.731 3.88 10.257 5.465 3.024 1.36 6.369 1.986 9.455 3.227 11.168 4.492 22.311 9.048 33.405 13.72 2.404 1.012 4.498 2.742 6.86 3.88 1.624.782 3.453 1.16 5.215 1.626.937.249 2.124.002 2.86.49 8.425 5.578 18.08 8.433 27.212 12.442 11.12 4.883 22.141 10.002 33.362 14.64 8.425 3.484 17.178 6.169 25.63 9.59 5.689 2.303 11.166 5.158 16.633 7.97 6.635 3.412 13.272 6.524 21.063 4.899a6.1 6.1 0 0 1 2.49.006c12.258 2.74 21.826-2.668 30.131-10.616 4.07-3.894 8.192-8.502 10.208-13.61 3.77-9.55 3.46-19.653 1.03-29.804-2.8-11.694-8.965-21.701-15.163-31.594-4.96-7.917-11.386-14.906-17.024-22.41-13.576-18.068-27.005-36.246-40.635-54.272-4.836-6.396-10.27-12.34-15.087-18.75-4.664-6.205-8.702-12.878-13.335-19.108-12.927-17.381-26.05-34.617-39.04-51.95-15.077-20.12-30.3-40.136-44.976-60.544-3.036-4.222-3.832-10.019-5.889-14.995-1.427-3.452-3.123-6.81-4.918-10.089-3.258-5.953-5.013-12.138-4.766-19.046.403-11.206-1.031-22.672.895-33.57 1.552-8.784 3.202-18.214 9.462-25.791 4.125-4.993 6.566-11.447 10.941-16.148 8.448-9.075 15.95-19.242 27.398-25.232 5.315-2.78 9.743-7.306 15.121-9.907 7.122-3.446 14.663-6.17 22.246-8.474 6.39-1.941 13.08-2.943 19.672-4.167 6.039-1.12 12.117-2.727 18.193-2.801 13.268-.162 26.595-.072 39.803 1.044 9.543.807 18.871 3.965 28.411 5.083 8.238.965 15.25 5.021 22.889 7.117 5.936 1.628 12.107 2.547 17.456 5.641 9.029 5.223 18.496 10.05 26.493 16.61 13.098 10.746 25.413 22.432 34.52 37.137 4.116 6.644 9.837 12.276 14.59 18.549 4.73 6.242 9.164 12.706 13.716 19.082 5.566 7.796 10.219 16.505 16.907 23.173 8.39 8.364 14.036 18.478 21.087 27.666 7.834 10.208 15.918 20.224 23.7 30.47 5.591 7.36 10.672 15.11 16.323 22.422 10.79 13.962 22.486 27.274 32.578 41.713 10.703 15.315 22.883 29.466 33.573 44.76 5.174 7.403 10.76 14.521 16.257 21.693 5.227 6.82 10.885 13.33 15.794 20.366 5.032 7.211 9.41 14.88 14.031 22.377 7.017 11.385 14.313 22.613 20.876 34.255 4.199 7.448 7.51 15.429 10.826 23.336 4.547 10.84 8.93 21.757 13.002 32.782 5.118 13.855 8.171 28.236 11.386 42.666 5.946 26.69 2.849 53.521 3.52 80.28.155 6.15-1.933 12.344-2.849 18.54-1.39 9.402-2.279 18.896-4.104 28.21-1.345 6.864-3.981 13.465-5.785 20.251-1.25 4.703-1.99 9.539-3.09 14.284-1.695 7.312-3.53 14.59-5.256 21.894-2.938 12.432-10.092 23.005-15.15 34.502-1.687 3.835-3.103 7.794-4.905 11.572-1.055 2.213-2.544 4.24-3.98 6.248-4.45 6.226-8.898 12.456-13.475 18.59-7.055 9.454-13.886 19.105-21.444 28.145-5.245 6.273-11.712 11.507-17.333 17.487-4.742 5.046-8.62 10.961-13.66 15.656-6.599 6.15-13.782 11.722-21.04 17.103-11.616 8.61-23.372 17.043-35.32 25.18-5.985 4.075-12.426 7.526-18.85 10.895-4.922 2.581-10.238 4.406-15.198 6.921-3.339 1.693-6.206 4.328-9.563 5.97-7.923 3.878-15.833 7.91-24.097 10.922-5.904 2.151-12.377 2.731-18.59 4.044q-8.022 1.695-16.028 3.464c-9.517 2.104-18.99 4.43-28.555 6.288-6.426 1.249-12.958 2.053-19.479 2.681-4.993.481-10.043.355-15.067.533-18.849.668-37.856.096-56.492 2.452-13.258 1.676-26.333 1.279-39.45 1.283-393.494.146-786.989.119-1180.483.119h-7.202v40.036h-30.652l2.939-111.743h29.577v36.097h5.196c387.995 0 775.99.049 1163.984-.086 33.047-.012 66.096-1.193 99.14-1.991 3.552-.086 7.069-1.3 10.619-1.89 2.586-.43 5.193-.754 7.801-1.019 6.554-.664 13.123-1.185 19.669-1.92 5.13-.577 10.262-1.23 15.342-2.138 5.302-.946 10.54-2.249 15.811-3.374 8.777-1.873 17.712-3.206 26.29-5.75 7.593-2.25 14.945-5.514 22.118-8.93 7.053-3.36 13.54-7.934 20.647-11.156 11.701-5.305 22.177-12.432 32.499-19.922 11.777-8.545 23.877-16.658 35.425-25.497 4.394-3.363 7.658-8.209 11.405-12.406 1.208-1.353 2.219-2.89 3.487-4.18 10.911-11.088 21.844-22.094 30.444-35.247 6.256-9.567 13.812-18.287 20.01-27.888 3.841-5.952 6.218-12.848 9.267-19.313 2.251-4.774 5.001-9.377 6.673-14.345 2.21-6.569 3.53-13.434 5.336-20.144 1.513-5.617 3.368-11.148 4.731-16.8 3.18-13.178 7.519-26.056 8.418-39.801.627-9.577 3.051-19.022 4.238-28.58.678-5.46.482-11.027.684-16.546.25-6.79.693-13.58.687-20.368-.003-4.086-.427-8.22-1.14-12.248-1.73-9.785-3.465-19.585-5.719-29.258-2.029-8.706-4.405-17.368-7.26-25.837-3.177-9.429-6.78-18.741-10.727-27.876-3.91-9.051-8.282-17.921-12.833-26.672-2.844-5.468-6.375-10.581-9.634-15.832-5.45-8.782-10.641-17.744-16.466-26.271-8.333-12.199-16.956-24.21-25.783-36.056-13.285-17.83-26.929-35.391-40.277-53.174-9.193-12.247-18.03-24.762-27.234-37.002-10.892-14.485-22.071-28.754-33.006-43.209-10.719-14.17-21.214-28.51-31.943-42.673-9.14-12.065-18.532-23.938-27.703-35.979-8.808-11.564-17.756-23.037-26.122-34.916-7.716-10.957-16.782-20.46-27.839-27.906-11.682-7.867-24.467-13.438-38.072-17.282-11.235-3.174-22.498-5.688-34.225-5.998-2.718-.072-5.381-1.668-8.114-1.832-8.958-.54-17.993-1.504-26.89-.843-7.369.547-14.6 3.096-21.861 4.886-4.734 1.167-9.352 2.88-14.128 3.787-9.547 1.814-17.307 7.021-24.153 13.284-8.517 7.79-17.367 15.49-23.016 25.856-2.248 4.124-4.643 8.417-5.617 12.925-1.437 6.649-2.15 13.55-2.266 20.36-.111 6.611.675 13.261 5.245 18.8 1.06 1.283 1.107 3.367 1.759 5.028 4.327 11.028 12.241 19.655 19.252 28.912 6.757 8.921 13.135 18.129 19.776 27.139 5.371 7.287 10.944 14.427 16.325 21.707 8.442 11.42 16.785 22.914 25.197 34.356 3.689 5.018 7.438 9.992 11.173 14.975 12.986 17.325 25.902 34.702 38.993 51.946 8.169 10.76 16.808 21.166 24.865 32.007 8.417 11.327 16.95 22.638 24.377 34.61 5.97 9.624 11.616 19.77 13.688 31.135 1.646 9.023 2.68 18.21 3.173 27.367.226 4.219-1.498 8.541-2.326 12.819-.217 1.12-.394 2.247-.59 3.37-1.062 6.07-1.158 12.544-3.482 18.084-1.99 4.745-6.22 8.737-10.017 12.498-6.023 5.965-12.378 11.618-18.875 17.068-2.283 1.915-5.259 3.327-8.151 4.134-10.65 2.972-20.409 9.287-32.27 7.796-13.972-1.757-27.851-2.568-41.01-9.113-14.93-7.426-30.8-12.948-46.192-19.46-10.974-4.64-21.789-9.66-32.761-14.304-10.931-4.628-22.032-8.856-32.943-13.529-8.681-3.718-17.108-8.029-25.79-11.744-13.026-5.574-26.209-10.779-39.262-16.289-8.833-3.728-17.5-7.854-26.35-11.539-8.544-3.558-17.335-6.535-25.82-10.222-7.175-3.119-14.13-6.77-21.072-10.396-12.91-6.744-25.863-13.428-38.537-20.596-4.306-2.435-8.177-5.92-11.634-9.515-6.724-6.993-13.226-14.228-19.411-21.7-4.182-5.054-7.632-10.709-11.469-16.052-5.318-7.406-11.024-14.561-15.916-22.237-2.864-4.493-4.615-9.73-6.61-14.735-4.232-10.615-8.708-21.16-12.283-31.999-2.33-7.064-3.265-14.59-4.8-21.914-.89-4.25-2.092-8.476-2.515-12.776-.751-7.643-1.253-15.328-1.44-23.006-.472-19.437-.848-38.878-1.018-58.32-.416-47.52-.643-95.042-1.048-142.562-.218-25.608-.074-51.238-1.165-76.813-.84-19.7-6.323-37.989-24.255-49.506-4.273-2.744-9.589-3.851-14.403-5.765-13.239-5.26-27.398-2.983-41.061-4.478-13.987-1.531-28.392.498-42.593 1.326a119 119 0 0 0-18.653 2.6c-3.408.753-6.408 3.183-9.745 4.455-13.782 5.254-26.779 12.015-38.472 20.969-7.411 5.675-14.382 11.978-21.18 18.391-11.912 11.237-23.68 22.636-35.25 34.224-13.768 13.79-27.286 27.833-40.871 41.805-9.058 9.315-18 18.741-27.074 28.04a9345 9345 0 0 1-37.387 38.067c-8.83 8.947-17.837 17.72-26.567 26.764-8.356 8.657-16.326 17.686-24.697 26.327-12.071 12.46-24.044 25.045-36.654 36.945-8.05 7.595-17.12 14.12-25.836 20.993-7.268 5.73-14.27 11.964-22.156 16.7-8.342 5.01-15.89 11.476-25.72 14.115-6.57 1.763-12.543 5.714-19.097 7.585-8.126 2.321-16.55 4.743-24.893 4.931-19.59.442-39.245.194-58.803-.97-12.865-.765-25.595-3.683-38.406-5.498-8.614-1.22-17.28-2.082-25.893-3.312-11.35-1.62-22.662-3.512-34.01-5.151-5.342-.772-10.732-1.212-16.096-1.832a75 75 0 0 1-4.834-.72c-4.012-.733-8-1.613-12.027-2.25-11.804-1.864-23.607-3.744-35.44-5.416-9.579-1.353-19.21-2.34-28.799-3.626-7.795-1.046-15.563-2.29-23.342-3.456-7.776-1.167-15.56-2.28-23.321-3.538-9.507-1.541-18.974-3.339-28.497-4.768-4.699-.704-9.502-.684-14.225-1.264-3.398-.418-6.723-1.403-10.113-1.93a5466 5466 0 0 0-38.86-5.872c-2.278-.337-4.606-.33-6.893-.62-9.093-1.146-18.199-2.21-27.26-3.564-10.843-1.622-21.625-3.65-32.472-5.24-9.74-1.427-19.54-2.434-29.298-3.746-7.136-.96-14.252-2.077-21.366-3.191-7.815-1.223-15.615-2.537-23.426-3.784a5781 5781 0 0 0-28.141-4.434c-3.732-.576-7.49-.986-11.22-1.571-12.281-1.928-24.532-4.073-36.841-5.802-9.435-1.326-18.945-2.101-28.412-3.21-10.919-1.278-21.797-3.253-32.749-3.783-7.855-.38-16.214-.21-23.607 2.094-10.279 3.202-20.567 8.057-25.81 18.417-3.327 6.577-6.121 13.806-7.217 21.037-1.48 9.775 3.198 18.358 8.487 26.46 5.272 8.076 10.19 16.384 15.3 24.567 3.223 5.163 6.512 10.286 9.778 15.423 5.04 7.93 10.097 15.85 15.124 23.788 7.659 12.096 15.332 24.183 22.933 36.316 4.764 7.603 9.15 15.456 14.163 22.889 8.531 12.652 17.43 25.057 26.16 37.577 3.845 5.513 7.492 11.1 13.635 14.577 6.224 3.522 11.926 8.026 18.305 11.2 6.19 3.08 12.78 5.776 19.497 7.288 11.566 2.603 23.184 3.814 35.208.923 10.305-2.478 21.125-2.73 31.636-4.46 7.394-1.215 14.627-3.378 21.977-4.896 7.206-1.488 14.516-2.487 21.695-4.082 7.468-1.66 14.787-3.99 22.258-5.631 7.656-1.682 15.42-2.863 23.13-4.306 5.131-.961 10.274-1.883 15.365-3.028 7.009-1.576 13.942-3.492 20.966-4.991 7.025-1.5 14.122-2.666 21.187-3.975 5.634-1.043 11.32-1.86 16.889-3.18 6.823-1.617 13.532-3.712 20.325-5.465 1.573-.406 3.325-.077 4.932-.4 8.492-1.706 16.95-3.586 25.447-5.264 8.374-1.654 16.806-3.022 25.168-4.731 7.997-1.634 15.889-3.818 23.916-5.262 8.542-1.537 17.219-2.314 25.783-3.743 10.299-1.718 20.522-3.887 30.816-5.63 4.37-.739 8.832-.987 13.263-1.288 15.482-1.053 30.963-2.67 46.456-2.804 9.765-.085 19.563 1.995 29.323 3.28 7.792 1.025 15.579 2.153 23.309 3.562 3.457.63 6.82 1.922 10.138 3.149 10.815 3.995 21.561 8.178 32.392 12.13 5.792 2.112 11.794 3.663 17.539 5.886 9.577 3.704 18.993 7.823 28.534 11.622 8.645 3.442 17.375 6.67 26.054 10.028 11.732 4.539 23.427 9.171 35.181 13.651 10.498 4.002 21.093 7.753 31.575 11.795 11.234 4.332 22.344 8.987 33.587 13.294 12.911 4.946 25.96 9.534 38.852 14.53 8.799 3.41 17.361 7.428 26.151 10.86 14.982 5.852 30.111 11.327 45.084 17.201 17.082 6.701 33.82 14.374 51.166 20.272 11.998 4.08 22.18 10.89 32.46 17.625 8.053 5.276 12.282 13.68 15.788 22.675 3.472 8.91 2.98 17.914 2.678 26.928-.308 9.203-2.435 18.046-8.54 25.52-1.218 1.491-.806 4.33-2.042 5.783-2.685 3.156-5.586 6.406-9.058 8.548-5.532 3.413-11.353 6.774-17.51 8.654-7.462 2.278-15.4 4.199-23.134 4.207-197.497.224-394.994.176-592.49.176-168.165 0-336.33.062-504.493-.187-8.131-.012-16.249-2.804-24.39-4.201-5.369-.922-10.897-1.19-16.123-2.604-6.573-1.778-12.99-4.229-19.326-6.763-5.553-2.22-11.151-4.53-16.288-7.55-12.779-7.513-24.385-16.404-34.306-27.705-9.053-10.311-16.224-21.569-21.466-34.09-1.517-3.623-1.392-7.9-2.548-11.718-1.96-6.47-4.622-12.733-6.462-19.232-1.777-6.273-2.923-12.728-4.282-19.116-1.87-8.784-3.815-17.555-5.48-26.38-2.304-12.216-4.302-24.49-6.574-36.714-1.585-8.525-3.472-16.993-5.106-25.51-1.695-8.83-3.194-17.698-4.876-26.532-1.948-10.233-3.312-20.648-6.218-30.609-2.542-8.714-5.787-17.6-14.43-22.734-3.51-2.086-6.743-5.028-10.528-6.184-8.766-2.675-16.051 1.948-23.514 5.824-9.624 4.998-16.036 13.496-23.267 20.968-3.912 4.043-5.815 10.013-8.693 15.074-4.106 7.22-8.291 14.396-12.414 21.607-3.793 6.634-7.53 13.299-11.323 19.932-7.802 13.645-15.704 27.232-23.41 40.93-5.034 8.946-9.676 18.113-14.72 27.053-4.461 7.91-9.36 15.571-13.842 23.469-6.775 11.94-13.617 23.855-19.95 36.03-7.285 14.006-14.207 28.209-20.93 42.494-1.778 3.775-2.45 8.127-3.264 12.287-1.44 7.362-3.779 14.814-3.563 22.164.242 8.216 2.895 16.364 4.522 24.537 1.123 5.638 2.27 11.272 3.449 16.9.23 1.096.466 2.265 1.023 3.209 6.468 10.95 8.675 23.425 12.702 35.247 3.637 10.677 7.441 21.297 10.98 32.006 2.817 8.53 5.244 17.187 8.032 25.727 2.616 8.01 5.576 15.906 8.203 23.912 2.38 7.253 4.459 14.605 6.773 21.881a3361 3361 0 0 0 10.51 32.519c3.771 11.456 7.482 22.936 11.529 34.295 2.492 6.994 5.602 13.766 8.363 20.667 2.312 5.777 4.458 11.621 6.791 17.39 2.502 6.185 7.302 10.504 12.724 13.89 2.558 1.598 6.024 1.857 9.132 2.434 6.365 1.18 12.735 2.755 19.158 3.087 8.47.439 16.993-.16 25.992-.313"/></svg>