<svg xmlns="http://www.w3.org/2000/svg" viewBox="0 0 2003 1000" xml:space="preserve"><path fill="#fff" d="M1452.28 813.467c7.745-2.337 15.135-4.452 22.524-6.57 2.492-.715 4.98-1.442 7.969-2.307l7.155 28.772c-13.43 3.635-26.614 7.074-39.72 10.786-12.085 3.423-24.034 7.326-36.137 10.673-12.105 3.346-24.378 6.08-36.485 9.418-14.483 3.994-28.831 8.48-43.308 12.5-13.15 3.653-26.437 6.817-39.584 10.484-9.125 2.546-18.067 5.746-27.178 8.344-7.21 2.056-14.6 3.474-21.827 5.476-12.543 3.475-24.979 7.342-37.538 10.755-18.126 4.927-36.36 9.456-54.476 14.423-11.814 3.238-23.458 7.092-35.252 10.408-9.586 2.695-19.31 4.894-28.92 7.51-9.46 2.575-18.848 5.415-28.277 8.109a2587 2587 0 0 1-20.773 5.848c-9.443 2.613-18.835 5.449-28.364 7.707-12.7 3.01-25.492 5.637-38.279 8.264a282 282 0 0 1-18.38 3.125c-8.124 1.116-16.267 2.21-24.438 2.85-11.516.899-23.08 2.03-34.597 1.796-7.682-.157-15.425-2.713-21.067-8.472-11.462-11.703-22.76-23.582-33.722-35.753-5.759-6.393-12.714-5.39-19.271-3.668-14.7 3.86-28.936 9.798-43.79 12.653-10.86 2.087-22.307 2.838-33.445-2.406-11.221-5.282-23.49-8.301-34.897-13.242-8.141-3.526-15.472-8.875-23.42-12.908-15.996-8.116-28.61-20.346-41.532-32.419-16.397-15.32-33.615-29.757-50.31-44.764-12.273-11.034-24.632-22.013-36.3-33.67-12.297-12.284-24.027-25.157-35.606-38.129-7.887-8.835-15.19-18.201-22.568-27.478-8.205-10.317-16.988-20.291-24.128-31.316-17.906-27.65-35.072-55.78-52.446-83.771-10.072-16.228-19.922-32.593-29.967-48.838-10.91-17.644-21.736-35.345-32.954-52.792-13.319-20.714-29.315-39.313-46.316-57.073-2.974-3.107-5.566-6.597-8.668-9.562-7.171-6.853-14.813-13.23-21.778-20.28-10.971-11.107-23.717-19.98-35.942-29.51-19.218-14.982-38.31-30.138-57.873-44.658-15.207-11.287-31.053-21.712-46.608-32.53-20.417-14.2-41.073-28.074-61.138-42.755-10.215-7.473-20.116-15.69-28.812-24.85-12.227-12.881-20.816-28.175-23.938-46.05-1.322-7.568-3.886-15.16-3.713-22.692.251-10.92 2.061-21.866 3.945-32.672 3.176-18.212 10.43-35.028 18.532-51.548 4.63-9.438 9.758-18.364 17.8-25.35a60 60 0 0 0 5.658-5.651c15.625-17.768 35.937-28.36 57.452-36.754 13.97-5.448 28.366-9.837 42.693-14.308 4.632-1.446 9.639-1.75 14.5-2.387 6.673-.874 13.352-1.926 20.061-2.268 17.195-.877 34.422-2.188 51.607-1.852 17.597.344 35.157 2.477 52.74 3.747 6.427.464 12.882.56 19.305 1.062 15.919 1.246 31.822 2.678 47.74 3.94 9.696.77 19.42 1.195 29.106 2.075 12.43 1.128 24.827 2.604 37.248 3.834 5.085.504 10.206.655 15.293 1.144 12.92 1.243 25.824 2.652 38.746 3.866 8.691.817 17.424 1.22 26.1 2.16 13.2 1.431 26.367 3.18 39.55 4.77 8.961 1.082 17.934 2.072 26.89 3.2 7.97 1.003 15.925 2.13 23.885 3.219 6.65.91 13.294 1.853 19.943 2.762 11.682 1.597 23.36 3.226 35.051 4.749 6.515.848 13.064 1.432 19.58 2.27 11.375 1.465 22.735 3.049 34.105 4.554 6.338.84 12.68 1.64 19.025 2.426 11.88 1.474 23.765 2.92 35.646 4.387 6.992.864 13.972 1.84 20.975 2.596a3671 3671 0 0 0 38.24 3.916c8.027.783 16.075 1.346 24.104 2.118 16.85 1.619 33.687 3.363 50.54 4.955 11.63 1.098 23.291 1.88 34.912 3.07 14.53 1.488 29.019 3.382 43.55 4.847 9.345.942 18.748 1.287 28.102 2.149 12.594 1.16 25.163 2.58 37.747 3.85 7.363.743 14.758 1.225 22.096 2.156 11.858 1.505 23.652 3.553 35.53 4.862 9.824 1.082 19.72 1.704 29.6 2.022 10.49.338 21.044.69 31.484-.098a202 202 0 0 0 30.505-4.696c13.183-3.072 26.155-7.087 39.147-10.932 13.942-4.125 27.76-8.67 41.712-12.757a1227 1227 0 0 1 37.794-10.401c15.004-3.88 30.04-7.66 45.156-11.075 6.672-1.507 13.586-1.913 20.365-2.985 14.192-2.243 27.89.83 41.004 5.293 10.938 3.722 21.264 9.416 31.558 14.813 12.38 6.49 22.7 15.89 32.282 25.853 11.54 12 19.887 25.98 23.534 42.606 1.724 7.858 4.798 15.517 3.702 23.682-1.587 11.818-2.227 23.867-6.335 35.195-4.016 11.077-8.505 21.982-12.788 32.96-1.484 3.805-2.783 7.696-4.495 11.395-9.671 20.89-23.623 39.088-36.825 57.72-12.347 17.427-27.925 31.912-44.435 45.244-4.656 3.76-11.444 4.773-17.018 7.526-9.056 4.474-18.918 3.945-28.476 4.77-9.098.785-18.35.655-27.476.041-10.45-.703-20.841-2.34-31.248-3.65a5898 5898 0 0 1-40.488-5.24 359 359 0 0 1-14.561-2.257c-8.69-1.52-17.355-3.172-26.04-4.717-10.941-1.945-21.87-3.969-32.843-5.718-11.967-1.907-23.993-3.447-35.965-5.322-8.56-1.341-17.065-3.039-25.614-4.455-9.52-1.577-19.083-2.906-28.592-4.552-6.599-1.141-13.11-2.794-19.708-3.935-12.249-2.118-24.539-3.99-36.8-6.038a2650 2650 0 0 1-30.465-5.267c-14.152-2.533-28.536-4.24-42.363-7.988-13.272-3.597-26.726-3.409-40.099-4.49-7.078-.57-14.337 1.576-21.544 2.029-10.625.668-20.649 3.992-30.18 8.02-7.064 2.987-13.6 7.988-19.322 13.237-14.26 13.083-22.795 29.946-30.456 47.51-4.92 11.277-6.946 22.492-7.002 34.728-.092 20.25 4.473 38.984 12.902 57.339 10.13 22.057 18.704 44.822 28.461 67.057 4.673 10.649 10.411 20.84 15.861 31.135 6.216 11.74 11.98 23.803 19.204 34.903 5.529 8.493 11.892 17.273 19.936 23.083 9.384 6.778 20.826 10.891 31.71 15.342 7.211 2.948 15.01 4.46 22.548 6.605.784.223 1.579.487 2.382.545 14.977 1.088 29.828.24 44.493-3.1 1.259-.286 2.445-1.023 3.582-1.692 16.037-9.435 32-18.93 45.211-32.369 15.156-15.417 30.675-30.478 45.792-45.931 12.847-13.132 25.398-26.554 37.98-39.94 7.15-7.604 14.402-15.144 21.061-23.166 7.664-9.234 17.641-14.692 28.355-19.247 11.294-4.803 22.416-10.069 33.911-14.328 13.831-5.124 27.759-9.488 43.008-9.419 24.703.112 49.412-1.125 74.118-1.79 12.475-.336 24.949-.808 37.426-.972 31.602-.417 63.207-.54 94.806-1.079 24.21-.413 48.412-1.34 72.62-1.917 8.402-.2 16.816.117 25.218-.06 28.372-.595 56.741-1.291 85.111-1.98 11.938-.29 23.872-.723 35.81-.977 18.268-.39 36.539-.683 54.809-1.015 18.436-.335 36.872-.663 55.308-1.001 17.937-.329 35.92.021 53.793-1.227 13.15-.918 24.802 2.984 35.747 8.743 10.099 5.314 20.294 11.467 28.38 19.366 15.046 14.698 25.283 32.77 33.097 52.538 4.638 11.734 6.528 23.727 6.935 35.708.396 11.614-1.999 23.464-4.305 34.983-1.65 8.237-4.072 16.715-8.131 23.978a182.4 182.4 0 0 1-20.282 29.145c-13.275 15.578-29.177 28.341-45.754 40.406-22.942 16.697-47.027 31.21-72.9 42.873-11.501 5.186-22.481 11.528-33.974 16.736-5.906 2.676-12.383 4.14-18.666 5.928-10.208 2.904-20.455 5.672-30.71 8.406-9.772 2.605-19.6 4.995-29.355 7.66-10.029 2.74-19.973 5.792-30 8.536-9.593 2.625-19.29 4.877-28.862 7.573-11.002 3.098-21.89 6.599-32.879 9.75-10.979 3.147-22.019 6.083-33.034 9.104-10.509 2.881-21.02 5.753-32.07 8.777l8.11 30.86-24.083 6.483-23.259-86.905 24.074-6.533 7.47 27.47c5.135-1.225 10.174-2.292 15.14-3.635 16.853-4.558 33.703-9.137 50.511-13.86 12.261-3.444 24.424-7.238 36.686-10.678 16.82-4.718 33.703-9.207 50.537-13.873 13.06-3.62 26.065-7.434 39.132-11.027 11.619-3.194 23.294-6.183 34.93-9.313 1.897-.51 3.821-1.09 5.564-1.97 20.672-10.441 41.474-20.64 61.896-31.551 11.669-6.235 23.203-12.967 33.893-20.722 12.374-8.978 23.984-19.063 35.504-29.148 12.484-10.93 22.362-24.178 29.4-39.107 3.268-6.93 4.815-15.031 5.477-22.745.906-10.564 2.08-21.312-.524-31.886-2.846-11.563-8.01-22.192-13.973-32.362-3.705-6.32-8.036-12.411-12.897-17.886-7.713-8.689-18.096-13.544-28.507-18.367-12.183-5.644-24.729-5.792-37.591-4.049-.655.09-1.332.019-1.999.028-22.769.333-45.538.66-68.308 1.002-21.635.325-43.274.517-64.904 1.059-11.383.285-22.745 1.456-34.128 1.75-13.029.339-26.073.048-39.108.213-18.937.24-37.873.635-56.809.978q-26.655.482-53.309 1.001c-16.27.318-32.54.647-48.809 1.003-14.069.308-28.136.701-42.206.984-18.602.374-37.207.638-55.809 1.024-12.604.262-25.205.702-37.81.974-17.602.38-35.21.515-52.806 1.082-8.718.28-17.626.336-26.061 2.224-9.475 2.12-18.659 5.833-27.7 9.513-10.703 4.355-21.548 8.67-31.505 14.432-6.645 3.845-12.104 9.928-17.636 15.466-8.801 8.81-17.2 18.022-25.806 27.028a58287 58287 0 0 1-66.092 69.087c-13.88 14.479-29.526 26.747-46.846 36.85-5.93 3.46-11.816 7.143-18.124 9.752-4.08 1.688-8.893 1.598-13.373 2.334-2.384.392-4.817.643-7.127 1.308-15.1 4.34-30.453 2.706-45.467.604-10.478-1.467-20.724-5.461-30.722-9.255-10.368-3.934-20.652-8.38-30.31-13.786-5.565-3.114-10.073-8.328-14.593-13.041-4.548-4.743-8.923-9.76-12.647-15.157-4.999-7.246-9.527-14.847-13.845-22.526-5.866-10.43-11.663-20.921-16.902-31.672-6.118-12.554-11.716-25.367-17.334-38.158-5.531-12.596-10.783-25.315-16.198-37.963-5.11-11.938-11.184-23.563-15.128-35.872-3.213-10.026-4.278-20.814-5.572-31.353-.77-6.277.03-12.732-.176-19.097-.438-13.477 1.002-26.549 7.2-38.79 5.986-11.82 11.23-24.069 17.938-35.458 10.48-17.79 25.58-31.434 42.941-42.282 5.857-3.66 13.063-5.296 19.803-7.366 6.148-1.89 12.428-3.901 18.775-4.477 15.389-1.395 30.744-4.575 46.336-1.716 4.352.799 8.901.481 13.287 1.153 8.078 1.237 16.108 2.789 24.146 4.28 13.624 2.526 27.224 5.182 40.86 7.64a2251 2251 0 0 0 37.237 6.382c10.17 1.658 20.39 3.021 30.562 4.668 7.424 1.202 14.798 2.709 22.213 3.978 11.928 2.042 23.881 3.94 35.804 6.01 10.952 1.902 21.846 4.147 32.821 5.886 16.004 2.536 32.087 4.572 48.08 7.17 12.256 1.99 24.383 4.786 36.645 6.732 11.006 1.747 22.13 2.732 33.177 4.234 5.801.788 11.616 1.68 17.31 3.017 16.434 3.858 33.085 1.154 49.617 1.871 2.733.119 5.574-.481 8.252-1.183 10.05-2.635 18.264-8.042 26.102-15.038 19.945-17.799 34.96-39.455 49.288-61.54 6.876-10.599 10.889-23.015 16.735-34.331 6.203-12.009 10.394-24.702 13.46-37.727 1.643-6.98 3.218-14.589 2.104-21.473-2.032-12.555-6.004-24.87-14.324-35.034-10.462-12.78-22.916-23.507-37.779-30.567-11.189-5.316-23.136-9.483-35.175-12.386-6.787-1.636-14.57-.41-21.677.828-11.527 2.007-22.936 4.83-34.269 7.789-9.32 2.433-18.426 5.676-27.685 8.36-13.643 3.954-27.364 7.638-41.002 11.607-12.71 3.7-25.304 7.812-38.05 11.384-10.05 2.817-20.242 5.143-30.396 7.586-7.777 1.87-15.584 3.617-23.395 5.341-1.751.387-3.573.63-5.363.636-16 .048-32.012.417-47.993-.12-9.311-.314-18.575-2.091-27.855-3.25-6.66-.833-13.307-1.772-19.968-2.592a4626 4626 0 0 0-27.866-3.32c-5.051-.59-10.102-1.195-15.164-1.677a9988 9988 0 0 0-42.238-3.92c-8.031-.731-16.076-1.324-24.103-2.108-16.352-1.598-32.69-3.328-49.043-4.913-8.192-.794-16.41-1.308-24.604-2.09-13.157-1.257-26.295-2.708-39.455-3.934-11.962-1.115-23.945-1.994-35.911-3.065-7.04-.63-14.068-1.39-21.092-2.172-7.984-.89-15.961-1.85-23.937-2.816-8.795-1.067-17.585-2.17-26.376-3.269-9.89-1.235-19.773-2.52-29.668-3.716-9.453-1.142-18.924-2.143-28.374-3.313-6.497-.805-12.971-1.79-19.455-2.697-11.617-1.627-23.226-3.316-34.853-4.867a2357 2357 0 0 0-32.704-4.117c-9.08-1.082-18.188-1.922-27.262-3.045-7.967-.985-15.895-2.282-23.857-3.315a2025 2025 0 0 0-29.78-3.64 3636 3636 0 0 0-35.239-3.848c-7.525-.79-15.055-1.563-22.599-2.143-14.132-1.087-28.301-1.767-42.403-3.147-6.353-.622-12.571-2.57-18.874-3.795-1.447-.28-2.994-.004-4.49-.08-11.09-.562-22.18-1.093-33.264-1.752-4.433-.264-8.843-.883-13.271-1.241-21.172-1.714-42.344-3.443-63.525-5.042-3.828-.29-7.705.139-11.55-.012-4.774-.186-9.535-.815-14.31-.93-17.265-.413-34.56-1.417-51.792-.784-13.213.486-26.462 2.504-39.478 4.983-8.57 1.633-16.867 5-25.084 8.122-11.214 4.26-22.464 8.547-33.279 13.704-11.7 5.58-22.766 12.307-30.946 22.897-2.474 3.202-6.69 5.261-8.558 8.688-6.372 11.686-12.542 23.535-17.87 35.724-6.137 14.042-8.816 29.154-9.965 44.33-.454 5.998 2.034 12.196 3.016 18.33 1.86 11.6 6.814 22.059 13.87 31.055 6.07 7.739 13.39 14.796 21.188 20.82 16.465 12.719 33.474 24.75 50.506 36.713 14.693 10.32 29.92 19.884 44.552 30.285 12.721 9.041 24.913 18.825 37.392 28.211 15.886 11.95 31.967 23.644 47.687 35.807 9.505 7.354 18.659 15.191 27.65 23.172 9.016 8.004 17.797 16.292 26.395 24.747 18.874 18.56 35.214 39.34 51.404 60.184 6.955 8.953 12.71 18.873 18.647 28.576 11.045 18.053 21.765 36.305 32.732 54.406 7.952 13.123 16.018 26.178 24.15 39.19 13.77 22.031 27.15 44.327 41.616 65.893 10.314 15.375 21.553 30.228 33.443 44.422 14.043 16.766 29.074 32.72 43.998 48.725 6.735 7.224 14.186 13.79 21.424 20.534 7.489 6.978 15.086 13.84 22.682 20.699a28050 28050 0 0 0 47.188 42.5c7.093 6.375 13.584 13.698 21.492 18.83 14.083 9.138 27.599 19.486 43.871 24.866 8.861 2.93 17.462 7.136 26.54 8.77 7.507 1.351 15.707.669 23.3-.735 9.587-1.772 18.87-5.187 28.28-7.901 2.467-.712 5.041-1.19 7.368-2.22 12.688-5.62 24.805-3.064 36.772 2.3.447.2.947.388 1.28.722 8.696 8.737 17.41 17.454 26.039 26.257 5.113 5.217 10.056 10.6 15.154 15.832.626.643 1.715 1.104 2.621 1.162 6.076.39 12.19 1.168 18.232.81 6.717-.399 13.363-1.93 20.055-2.86 7.629-1.062 15.323-1.724 22.902-3.058 13.344-2.35 26.73-4.618 39.899-7.763 16.632-3.972 33.095-8.672 49.57-13.278 11.797-3.298 23.461-7.074 35.248-10.418 9.416-2.67 18.949-4.925 28.388-7.52 9.14-2.513 18.206-5.3 27.341-7.833 23.15-6.42 46.342-12.693 69.478-19.164 13.37-3.74 26.624-7.89 40.004-11.59 9.746-2.694 19.645-4.833 29.418-7.439 8.842-2.358 17.584-5.087 26.407-7.52 12.912-3.558 25.885-6.894 38.777-10.52 12.43-3.495 24.756-7.355 37.19-10.836 12.57-3.518 25.248-6.655 37.819-10.17 9.434-2.639 18.761-5.656 28.167-8.397 1.718-.5 3.588-.48 5.743-.922"/></svg>