<svg xmlns="http://www.w3.org/2000/svg" viewBox="0 0 1983 1000" xml:space="preserve"><path fill="#fff" d="M548.703 799.294c-18.574-20.907-37.305-41.22-55.081-62.338-12.5-14.85-24.461-30.282-35.288-46.379-13.034-19.379-24.594-39.747-36.824-59.668-8.97-14.613-18.053-29.157-26.976-43.8-10.537-17.293-20.869-34.713-31.45-51.979-11.207-18.285-23.375-35.9-37.583-52.023-10.494-11.907-20.717-24.083-31.725-35.498-7.664-7.948-16.343-14.94-24.771-22.123-9.291-7.917-18.735-15.66-28.254-23.302a2266 2266 0 0 0-34.173-26.907c-10.687-8.247-21.323-16.59-32.366-24.343-17.892-12.563-36.17-24.575-54.149-37.017-12.556-8.689-24.606-18.133-37.387-26.467-15.185-9.902-28.131-22.404-41.69-34.2-2.511-2.184-4.025-5.575-5.798-8.529-2.362-3.936-4.278-8.157-6.83-11.957-5.208-7.756-7.038-16.504-8.282-25.507-1.231-8.907-4.21-17.932-3.495-26.666 1.128-13.777 3.914-27.564 7.493-40.948 2.92-10.916 7.53-21.477 12.3-31.775 4.845-10.462 9.919-20.908 18.904-28.859 7.957-7.04 14.59-15.874 23.281-21.726 20.881-14.057 43.73-24.05 67.959-31.557 15.136-4.69 30.487-6.01 45.803-8.488 22.938-3.712 46.083-1.922 69.128-1.854 14.156.041 28.307 1.842 42.463 2.819 14.817 1.022 29.656 1.784 44.45 3.062 16.22 1.401 32.39 3.369 48.601 4.885 9.526.89 19.108 1.19 28.63 2.105 11.279 1.086 22.513 2.615 33.781 3.819 5.085.543 10.214.67 15.307 1.15 13.264 1.25 26.518 2.606 39.779 3.889 7.538.73 15.096 1.266 22.619 2.123 10.764 1.228 21.51 2.625 32.253 4.036 6.823.896 13.614 2.031 20.438 2.915 11.235 1.454 22.492 2.742 33.728 4.198 6.501.842 12.97 1.93 19.468 2.806 12.52 1.689 25.037 3.404 37.577 4.924 12.23 1.483 24.499 2.645 36.73 4.118 10.426 1.256 20.82 2.784 31.236 4.136 7.65.992 15.314 1.868 22.966 2.843 8.462 1.079 16.91 2.273 25.377 3.3 5.552.672 11.13 1.125 16.695 1.695 12.594 1.29 25.179 2.668 37.781 3.86 8.862.84 17.762 1.29 26.619 2.17 15.045 1.496 30.066 3.235 45.105 4.79 7.863.815 15.748 1.428 23.618 2.184 17.03 1.637 34.051 3.391 51.091 4.93 9.527.86 19.097 1.252 28.625 2.105 8.175.733 16.317 1.833 24.476 2.75 6.697.752 13.408 1.393 20.095 2.227 9.761 1.217 19.488 2.727 29.264 3.81 11.121 1.23 22.262 2.435 33.428 3.073 8.638.494 17.347-.27 25.988.193 10.751.576 20.921-1.999 31.117-4.62 11.837-3.044 23.674-6.11 35.414-9.502 14.917-4.31 29.714-9.034 44.605-13.432 8.94-2.641 17.984-4.93 26.943-7.507 12.09-3.477 23.949-8.189 36.261-10.34 14.817-2.59 28.93-9.173 44.502-7.799 6.99.617 14.311-1.044 21.072.337 11.133 2.272 22.128 5.638 32.83 9.511 19.442 7.035 35.4 19.66 49.918 33.951 11.459 11.28 19.648 24.994 24.127 40.464 2.347 8.107 4.468 16.793 4.032 25.077-.736 14.009-2.45 28.15-7.533 41.465-3.73 9.772-8.599 19.15-11.781 29.08-4.272 13.33-11.285 25.174-18.738 36.684-8.402 12.974-17.205 25.88-27.364 37.476-12.176 13.9-25.59 26.8-39.283 39.238-4.348 3.95-11.457 4.72-17.025 7.502-7.546 3.77-15.642 3.827-23.64 3.972-15.208.276-30.46.59-45.629-.273-10.911-.62-21.72-3.097-32.566-4.794-14.235-2.227-28.453-4.56-42.694-6.738-11.995-1.835-24.042-3.346-36.015-5.305-11.781-1.927-23.48-4.354-35.252-6.346-10.016-1.695-20.096-3.009-30.126-4.628-8.241-1.331-16.445-2.897-24.676-4.298-11.297-1.924-22.605-3.778-33.905-5.684-10.332-1.743-20.654-3.542-30.989-5.266-11.631-1.94-23.282-3.767-34.905-5.75-7.26-1.24-14.49-2.667-21.728-4.033-8.672-1.636-17.347-3.262-26.007-4.96-5.615-1.1-11.207-2.322-16.81-3.489-.805-.168-1.608-.439-2.42-.476-7.939-.363-15.888-1.096-23.818-.938-17.845.356-35.476 3.06-51.847 10.164-11.111 4.822-20.222 13.276-27.596 22.93-5.756 7.535-11.348 15.5-15.253 24.075-6.962 15.284-14.132 30.374-13.403 48.34.821 20.261 4.373 39.296 12.869 57.801 10.475 22.819 19.259 46.412 29.66 69.268 7.059 15.514 15.64 30.336 23.543 45.467 2.88 5.514 5.153 11.468 8.763 16.454 9.84 13.59 19.395 27.666 36.27 33.813 12.29 4.478 24.26 10.247 36.897 13.224 9.799 2.308 20.41 1.585 30.65 1.438 5.83-.084 11.678-1.52 17.435-2.74 2.684-.568 5.399-1.717 7.707-3.21 11.477-7.424 23.283-14.456 34.074-22.79 8.9-6.873 16.63-15.284 24.717-23.18 5.185-5.064 10.08-10.426 15.097-15.662 22.814-23.81 45.638-47.61 68.425-71.445 3.203-3.35 6.477-6.679 9.28-10.352 5.451-7.146 13.219-10.715 21.031-14.217 13.325-5.973 26.388-12.805 40.2-17.328 11.203-3.668 22.314-8.136 34.823-7.977 20.868.264 41.756-1.116 62.638-1.733 13.604-.403 27.213-.688 40.82-1.01 14.44-.344 28.88-.672 43.32-1.003 14.607-.335 29.213-.725 43.82-.986 21.606-.387 43.214-.667 64.82-1.018 19.274-.314 38.551-.511 57.819-1.047 13.88-.386 27.743-1.32 41.62-1.853 6.03-.233 12.078-.035 18.117-.103 28.44-.318 56.88-.624 85.319-1.005 20.107-.27 40.214-.632 60.32-.995 16.607-.3 33.215-.604 49.82-1.02 6.777-.17 13.558-.496 20.32-1 20.308-1.513 37.632 6.295 54.57 16.365 13.032 7.749 22.91 18.662 31.014 30.752 9.383 13.997 17.277 29.334 21.008 45.89 3.405 15.107 4.106 30.707.696 46.181-1.408 6.393-1.579 13.12-3.516 19.32-3.637 11.64-8.79 22.637-16.833 32.087-4.056 4.766-7.434 10.128-11.642 14.743-5.671 6.22-11.413 12.511-17.9 17.825-12.552 10.283-25.015 20.9-38.667 29.56-19.16 12.154-39.276 22.82-59.172 33.782-9.298 5.123-18.785 10.086-28.64 13.97-11.865 4.675-24.139 8.37-36.37 12.043-15.039 4.516-30.181 8.7-45.346 12.78-9.939 2.673-20.037 4.753-29.988 7.388-6.785 1.796-13.406 4.206-20.158 6.138-9.416 2.696-18.892 5.184-28.333 7.793-9.137 2.525-18.26 5.1-27.395 7.634-7.71 2.137-15.43 4.237-23.141 6.368-9.577 2.646-19.15 5.307-29.157 8.081l7.967 29.832-24.07 6.559-22.261-81.932 24.061-6.587 7.005 25.279c8.255-2.458 16.296-4.917 24.377-7.238 6.747-1.937 13.536-3.729 20.313-5.558 9.935-2.68 19.868-5.368 29.817-7.997 12.784-3.379 25.609-6.606 38.364-10.089 6.615-1.806 13.079-4.159 19.681-6.014 6.437-1.81 12.992-3.198 19.444-4.957 6.776-1.848 13.467-4.013 20.241-5.87 16.15-4.425 32.465-8.304 48.437-13.29 9.096-2.84 17.777-7.153 26.412-11.288 10.06-4.818 19.95-10.009 29.76-15.325 11.292-6.12 22.581-12.278 33.575-18.911 20.694-12.488 39.656-27.347 56.994-44.14 5.23-5.066 9-11.638 13.433-17.524 1.458-1.935 2.746-4.024 4.379-5.798 5.428-5.898 7.623-13.36 9.168-20.777 2.067-9.921 3.838-20.057 4.114-30.145.191-7.01-1.36-14.475-3.89-21.062-4.26-11.095-9.164-22.093-15.16-32.334-8.785-15-22.408-24.724-38.573-30.902-.15-.057-.356.014-.49-.059-13.695-7.423-28.293-5.088-42.787-4.014-2.486.184-4.998.001-7.497.066-12.274.315-24.546.825-36.821.93-7.79.066-15.59-.768-23.375-.627-8.582.156-17.147 1.058-25.727 1.456-5.356.249-10.727.15-16.09.236-20.274.326-40.548.652-60.82 1-18.438.318-36.876.66-55.313.998-36.28.664-72.562 1.248-108.84 2.046-12.233.27-24.452 1.18-36.684 1.617-7.865.281-15.74.233-23.612.336-25.44.333-50.88.611-76.319 1.028-9.943.163-19.879.73-29.822.952-18.09.404-36.201.288-54.27 1.129-19.98.929-39.132 5.595-57.158 14.648-8.853 4.446-18.21 7.898-27.022 12.415-3.402 1.743-6.087 5.04-8.832 7.886-15.284 15.846-30.564 31.698-45.692 47.692-13.748 14.533-27.17 29.374-40.973 43.853-16.24 17.037-33.32 33.174-53.546 45.514-7.411 4.521-14.978 8.912-22.884 12.446-3.762 1.681-8.504 1.09-12.765 1.765-2.82.447-5.546 1.459-8.36 1.966-17.274 3.111-34.576 3.068-51.53-1.463-10.811-2.89-21.404-6.786-31.808-10.945-8.03-3.21-15.938-7.01-23.282-11.547-4.492-2.775-8.116-7.188-11.6-11.313-6.794-8.048-14.468-15.71-19.544-24.783-12.544-22.414-24.243-45.332-35.463-68.446-6.893-14.199-12.13-29.194-18.381-43.715-6.6-15.334-13.694-30.456-20.175-45.838-1.545-3.666-1.7-7.975-2.17-12.025-1.232-10.612-2.768-21.222-3.258-31.875-.397-8.643.166-17.388 1.065-26.008.424-4.076 2.3-8.123 4.093-11.91 5.996-12.666 11.954-25.365 18.49-37.755 6.86-13.004 16.684-24.05 27.879-33.167 7.926-6.454 16.1-13.161 26.667-16.339 13.576-4.083 26.93-8.455 41.26-8.778 9.541-.215 19.107-1.265 28.607-.807 10.128.488 20.241 1.999 30.269 3.63 12.964 2.11 25.843 4.75 38.749 7.219 11.398 2.18 22.743 4.67 34.184 6.59 10.505 1.764 21.124 2.838 31.66 4.432 6.826 1.033 13.583 2.525 20.392 3.684 10.652 1.815 21.338 3.43 31.977 5.317 4.762.844 9.418 2.268 14.17 3.188 3.581.693 7.245.957 10.86 1.488 9.57 1.406 19.156 2.71 28.686 4.343 4.596.786 9.08 2.223 13.618 3.354.63.157 1.278.361 1.916.355 14.821-.14 29.051 3.9 43.526 6.18 18.437 2.902 36.832 6.076 55.27 8.978 9.712 1.529 19.665 1.95 29.167 4.271 11.849 2.895 23.695 1.617 35.458 1.325 10.769-.268 22.31-2.223 30.794-8.778 11.284-8.72 21.682-19.05 30.702-30.12 12.027-14.762 22.645-30.711 33.275-46.549 3.834-5.711 5.998-12.554 8.84-18.918 3.716-8.318 7.95-16.47 10.854-25.069 3.139-9.292 5.053-19.003 7.383-28.56.58-2.378.908-4.858 1.004-7.305.681-17.393-5.34-32.705-16.282-45.7-13.027-15.474-29.527-26.53-48.427-33.928-10.718-4.195-21.563-8.023-33.274-6.912-7.467.709-14.872 2.205-22.259 3.594-7.538 1.418-15.109 2.807-22.507 4.798-11.507 3.096-22.863 6.754-34.316 10.058-13.508 3.896-27.094 7.53-40.568 11.537-11.388 3.387-22.579 7.453-34.017 10.647-10.205 2.85-20.624 4.93-30.956 7.321a2351 2351 0 0 1-22.946 5.21c-1.75.386-3.56.702-5.342.708-15.333.055-30.69.554-45.99-.164-9.182-.43-18.263-2.866-27.414-4.235-1.71-.256-3.58.597-5.304.377-10.063-1.286-20.092-2.84-30.158-4.104-8.64-1.085-17.307-1.979-25.975-2.825-13.917-1.36-27.843-2.62-41.767-3.903-7.872-.725-15.752-1.36-23.62-2.125-16.533-1.607-33.056-3.331-49.594-4.894-8.696-.822-17.428-1.263-26.119-2.126-15.194-1.51-30.365-3.257-45.554-4.82-7.86-.81-15.744-1.394-23.61-2.16-10.636-1.036-21.265-2.144-31.897-3.232-5.134-.525-10.265-1.09-15.4-1.61-7.2-.73-14.432-1.225-21.597-2.208-6.562-.9-13.027-2.51-19.586-3.443-5.438-.774-10.959-.939-16.428-1.513a2103 2103 0 0 1-28.898-3.227c-7.001-.834-13.986-1.809-20.973-2.761-11.351-1.547-22.691-3.178-34.049-4.676-8.957-1.181-17.944-2.128-26.897-3.336-16.72-2.256-33.397-4.83-50.14-6.885-13.546-1.662-27.175-2.63-40.743-4.134-13.378-1.482-26.712-3.367-40.09-4.848-8.349-.924-16.75-1.361-25.118-2.13-13.59-1.25-27.163-2.684-40.76-3.86-6.737-.583-13.523-.597-20.261-1.172-9.166-.783-18.305-1.873-27.46-2.796-4.263-.43-8.53-.85-12.804-1.145-19.752-1.364-39.605-1.913-59.214-4.392-7.95-1.005-15.82.267-23.365-.918-18.903-2.968-37.798-.987-56.673-1.644-2.752-.095-5.531.606-8.298.937-11.148 1.335-22.332 2.425-33.428 4.103-5.947.9-11.949 2.26-17.564 4.372-14.876 5.597-29.932 10.945-44.19 17.883-10.73 5.221-19.958 13.037-28.918 21.3-11.951 11.021-18.47 24.952-25.06 39.036-2.19 4.679-3.086 9.963-4.575 14.97a72 72 0 0 1-.574 1.862c-5.504 16.822-8.697 32.158-4.494 51.998 2.497 11.786 6.65 22.952 14.241 32.022 7.229 8.638 15.882 16.234 24.626 23.414 11.56 9.493 23.71 18.284 35.819 27.083 6.908 5.02 14.263 9.42 21.377 14.16 11.784 7.854 23.648 15.594 35.26 23.695 7.426 5.181 14.432 10.962 21.675 16.41 17.044 12.822 34.362 25.297 51.108 38.498 15.016 11.837 29.766 24.066 43.985 36.844 12.79 11.495 25.285 23.438 36.84 36.155 12.728 14.008 24.548 28.883 36.15 43.855 6.236 8.05 11.327 17.009 16.685 25.711 9.72 15.789 19.232 31.705 28.869 47.545 9.898 16.27 19.776 32.553 29.78 48.757 12.02 19.472 24.27 38.802 36.224 58.314 12.699 20.73 27.88 39.617 43.407 58.19 10.536 12.603 21.99 24.452 33.287 36.4 7.961 8.42 16.073 16.738 24.607 24.569 14.424 13.235 29.28 25.999 43.867 39.058 8.359 7.484 16.835 14.871 24.747 22.81 14.995 15.048 31.71 27.793 50.087 38.315 16.651 9.535 33.4 18.932 50.44 27.744 9.834 5.086 20.571 8.414 30.463 13.402 11.276 5.686 23.606 6.91 35.441 10.223 6.72 1.88 13.206 1.38 19.82 1.716 6.607.335 13.216.979 19.821.942 20.43-.115 40.881-.026 61.282-.946 11.36-.513 22.713-2.446 33.928-4.507 15.109-2.777 30.12-6.128 45.094-9.573 6.307-1.451 12.367-3.947 18.627-5.65 6.883-1.872 13.88-3.316 20.798-5.066 4.095-1.035 8.13-2.304 12.195-3.46 12.623-3.586 25.242-7.188 37.872-10.75 15.737-4.437 31.472-8.884 47.23-13.245 12.125-3.354 24.316-6.472 36.419-9.9 9.48-2.686 18.81-5.916 28.319-8.486 12.444-3.365 25.065-6.078 37.489-9.513 12.895-3.566 25.616-7.758 38.469-11.484 7.634-2.213 15.388-4.009 23.065-6.079 10.424-2.81 20.818-5.732 31.238-8.557 13.302-3.607 26.64-7.08 39.918-10.774 9.45-2.629 18.794-5.641 28.244-8.273 11.985-3.338 24.049-6.391 36.04-9.706 8.984-2.484 17.901-5.207 26.86-7.784 3.926-1.13 7.881-2.16 12.459-3.41l8.264 26.52c-4.476 1.463-8.72 2.993-13.046 4.234-10.342 2.967-20.692 5.918-31.097 8.652-11.442 3.005-22.976 5.658-34.418 8.66-7.125 1.87-14.149 4.126-21.23 6.17-7.676 2.215-15.373 4.362-23.05 6.582-12.037 3.48-24.035 7.104-36.107 10.464-9.594 2.67-19.292 4.963-28.908 7.557-8.319 2.245-16.579 4.706-24.878 7.022-10.69 2.984-21.409 5.867-32.087 8.89-12.525 3.547-24.979 7.353-37.54 10.768-18.138 4.93-36.383 9.471-54.508 14.448-11.834 3.25-23.49 7.143-35.312 10.439-9.747 2.718-19.668 4.806-29.423 7.498-9.592 2.646-19.03 5.847-28.61 8.54-12.76 3.587-25.584 6.954-38.399 10.348-10.542 2.791-21.024 5.898-31.69 8.109-11.69 2.423-23.564 3.963-35.354 5.917-38.584 6.397-77.493 3.416-116.274 3.842-6.468.07-13.044-1.475-19.418-2.938-10.164-2.332-20.702-4.052-30.186-8.121-19.153-8.219-37.93-17.407-56.437-27.011-17.077-8.863-33.845-18.391-50.267-28.415-8.932-5.451-17.24-12.11-25.167-18.987-16.748-14.531-33.079-29.544-49.543-44.4-7.872-7.104-15.661-14.3-23.483-21.459a18290 18290 0 0 1-24.02-22.019"/></svg>