<svg xmlns="http://www.w3.org/2000/svg" viewBox="0 0 2000 1561" xml:space="preserve"><path fill="#fff" d="M151.239 1331.734c6.42 11.121 11.907 22.44 18.997 32.645 10.793 15.534 22.89 30.153 34.072 45.426 10.104 13.802 19.703 27.974 29.563 41.957 6.924 9.82 13.905 19.6 20.877 29.385 3.024 4.244 6.032 8.5 9.159 12.667 1.674 2.231 3.504 3.124 6.128.818 6.15-5.406 12.328-10.813 18.823-15.79 13.317-10.209 25.993-21.267 40.949-29.276 15.498-8.299 30.66-17.228 45.921-25.967 6.985-4 13.73-8.436 20.818-12.237 4.587-2.46 9.58-4.173 14.422-6.14 11.761-4.777 23.524-9.55 35.319-14.244 12.331-4.908 24.748-9.601 37.037-14.61 9.65-3.934 19.09-8.383 28.754-12.282 11.235-4.533 22.693-8.517 33.905-13.105 12.282-5.025 24.349-10.575 36.596-15.689 7.717-3.222 15.631-5.972 23.391-9.097 15.646-6.3 31.21-12.804 46.877-19.048 12.925-5.152 25.987-9.963 38.925-15.084 15.808-6.257 31.515-12.771 47.336-18.996 8.041-3.163 16.298-5.777 24.346-8.923 11.262-4.403 22.385-9.162 33.633-13.601 12.373-4.884 24.896-9.394 37.191-14.463 3.871-1.596 7.777-3.914 10.696-6.862 8.811-8.9 17.209-18.212 25.647-27.473 8.691-9.539 17.021-19.415 25.921-28.75 7.05-7.395 15-13.93 22.034-21.338 6.195-6.526 11.677-13.73 17.471-20.637 5.95-7.094 10.69-16.16 18.177-20.744 7.757-4.751 13.512-10.985 19.672-16.993 8.166-7.965 15.177-17.124 23.419-25.002 16.398-15.676 33.313-30.81 49.984-46.2 9.626-8.888 19.276-17.753 28.762-26.789 11.102-10.575 21.828-21.552 33.096-31.944 15.283-14.095 30.927-27.8 46.58-41.82l22.937 24.452c-7.206 6.837-14.093 13.492-21.116 20-6.74 6.246-13.704 12.253-20.423 18.522-12.812 11.954-25.49 24.051-38.28 36.03a9084 9084 0 0 1-40.7 37.898c-12.107 11.2-24.599 22.003-36.355 33.556-10.762 10.576-20.75 21.938-31.113 32.922-11.715 12.42-23.544 24.734-35.179 37.229-9.81 10.535-19.321 21.35-29.145 31.872-5.912 6.333-12.242 12.272-18.255 18.513-13.591 14.107-26.603 28.822-40.866 42.208-6.665 6.255-15.378 10.63-23.721 14.716-9.541 4.673-19.649 8.221-29.61 11.995-10.787 4.086-21.743 7.725-32.526 11.822-12.715 4.832-25.292 10.024-37.983 14.92-16.375 6.319-32.899 12.261-49.176 18.817-12.01 4.838-23.597 10.726-35.61 15.556-15.902 6.394-32.1 12.052-48.048 18.334-10.17 4.006-20.067 8.695-30.183 12.843-7.847 3.218-15.888 5.96-23.76 9.119-7.532 3.02-14.906 6.435-22.442 9.444-11.666 4.657-23.499 8.905-35.1 13.713-15.071 6.246-29.936 12.99-44.988 19.285-7.515 3.143-15.393 5.431-22.848 8.7-9.666 4.237-19.267 8.71-28.548 13.726-13.864 7.493-27.425 15.547-41.114 23.365-9.509 5.43-19.08 10.755-28.485 16.36-3.087 1.84-5.863 4.27-8.562 6.676-7.54 6.725-14.539 14.142-22.554 20.228-8.59 6.52-17.758 12.49-27.339 17.403-4.885 2.506-11.148 2.336-16.606-1.029-3.966-2.446-9.14-3.498-12.238-6.672-6.838-7.01-13.001-14.744-18.895-22.593-7.511-10.004-14.455-20.434-21.698-30.642-8.286-11.678-16.65-23.303-24.949-34.972-7.116-10.006-14.067-20.13-21.321-30.034-5.451-7.443-11.809-14.268-16.795-21.993-7.867-12.187-14.568-25.127-22.43-37.318-6.7-10.389-7.78-22.184-9.31-33.699-2.424-18.257-3.337-36.709-5.276-55.037-1.258-11.891-3.353-23.691-4.789-35.566-.968-8.005-1.243-16.094-2.191-24.102-1.06-8.942-2.665-17.819-3.756-26.758-.44-3.614.152-7.35-.245-10.973-1.447-13.214-3.185-26.396-4.662-39.607-.623-5.573-.758-11.2-1.318-16.781-.457-4.56-1.34-9.078-1.814-13.637-1.12-10.792-2.093-21.6-3.158-32.399-.613-6.212-1.29-12.419-1.935-18.628-.034-.33-.074-.667-.05-.996 1.042-14.297-2.829-28.13-4.25-42.185-1.66-16.419-5.316-32.626-7.556-49-.855-6.252-.199-12.712-.214-19.077-.01-4.713-.194-9.437.048-14.138.73-14.162 3.55-27.676 10.348-40.457 5.023-9.445 8.405-19.753 12.693-29.601 2.756-6.33 5.864-12.506 8.749-18.781 5.35-11.633 10.63-23.299 15.98-34.932 4.515-9.818 9.175-19.57 13.613-29.424 4.908-10.893 9.618-21.874 14.45-32.802 5.17-11.698 10.327-23.403 15.589-35.06a22802 22802 0 0 1 29.181-64.33c5.581-12.264 11.252-24.488 16.844-36.748 5.86-12.848 11.61-25.747 17.527-38.569 6.294-13.638 12.83-27.165 19.07-40.829 4.342-9.509 8.253-19.214 12.553-28.743 4.527-10.03 9.323-19.939 13.937-29.93 5.184-11.228 10.298-22.488 15.438-33.736 2.02-4.418 4.373-8.722 5.963-13.29 2.254-6.48 4.408-13.063 5.76-19.772 1.84-9.14 3.384-18.4 4.152-27.682a626 626 0 0 0 2.032-40.896c.33-19.36.084-38.728.084-58.093 0-10.367-.222-20.74.048-31.1.5-19.218 1.201-38.433 1.988-57.642.396-9.644 1.405-19.266 1.676-28.91.182-6.446-.723-12.918-.655-19.373.144-13.474.219-26.97 1.053-40.411.836-13.453 1.876-26.973 4.233-40.213.957-5.38 5.049-10.578 8.735-15.01 6.32-7.6 15.047-8.77 24.687-8.558 24.155.532 48.33.306 72.496.139 23.608-.163 47.214-.732 70.822-.942 45.94-.407 91.88-.946 137.82-.91 22.049.018 44.173.3 66.124 2.128 26.155 2.178 52.288 2.58 78.482 2.908 15.16.19 30.322 1.62 45.446 2.922 16.042 1.38 32.033 3.327 48.058 4.915 11.14 1.103 22.408 1.348 33.425 3.16 21.816 3.588 43.803 1.723 65.64 3.11 27.49 1.749 54.944 2.807 82.48 2.86 14.049.027 28.095 1.225 42.143 1.884 14.38.675 28.762 1.32 43.142 2.01 13.428.643 26.848 1.447 40.28 1.963 20.21.777 40.433 1.245 60.641 2.065 20.994.851 41.974 2.043 62.966 2.944 25.315 1.086 50.64 1.93 75.954 3.052 19.161.85 38.307 2.048 57.466 2.944 16.709.782 33.436 1.195 50.139 2.074 14.5.764 28.975 1.994 43.467 2.934 6.767.44 13.543.794 20.32.996 24.046.718 48.1 1.19 72.14 2.07 20.83.762 41.644 1.956 62.466 2.948 21.151 1.008 42.381 1.19 63.434 3.216 24.15 2.323 48.283 2.663 72.483 2.885 20.052.184 40.105 1.046 60.14 1.963 15.003.687 30.002 1.692 44.959 3.036 8.466.76 17.052 1.731 25.213 3.962 12.534 3.425 20.51 11.57 25.12 24.35 3.939 10.922-.783 19.231-5.157 27.463-8.156 15.353-17.59 30.027-26.528 44.963-3.852 6.437-7.398 13.11-11.807 19.149-4.553 6.237-9.888 11.92-15.052 17.693-12.253 13.697-24.542 27.362-36.945 40.924-6.604 7.22-13.407 14.263-20.237 21.271-15.912 16.327-31.975 32.506-47.822 48.895-11.37 11.758-22.353 23.89-33.756 35.615a1898 1898 0 0 1-36.085 36.117c-19.06 18.571-38.334 36.922-57.473 55.411-11.316 10.931-22.488 22.012-33.832 32.913-12.626 12.133-25.511 24-38.024 36.247-8.691 8.506-16.838 17.565-25.417 26.19-16.191 16.276-32.48 32.456-48.803 48.602-12.005 11.876-24.225 23.536-36.18 35.463-40.64 40.546-81.169 81.201-121.819 121.736-10.96 10.929-22.28 21.497-33.29 32.378-14.082 13.915-27.952 28.043-42.033 41.959-14.542 14.37-29.23 28.593-43.843 42.891-1.172 1.147-2.256 2.382-2.748 2.904l27.244 29.963-21.637 18.89-80.655-77.671 22.67-19.79 26.667 25.613c1.165-1.046 2.285-1.964 3.306-2.983 10.33-10.308 20.643-20.633 30.962-30.952 11.843-11.845 24.438-23.044 35.324-35.712 11.289-13.135 25.688-22.747 37.173-35.585 10.293-11.506 21.341-22.352 32.31-33.235 22.198-22.026 44.65-43.796 66.84-65.829 18.665-18.531 37.27-37.127 55.61-55.98 22.79-23.425 47.19-45.26 68.608-70.058 4.976-5.762 11.78-9.915 17.525-15.05 5.378-4.807 10.522-9.883 15.677-14.933 11.569-11.334 23.063-22.744 34.62-34.09 13.065-12.827 26.117-25.668 39.266-38.408 12.282-11.9 24.857-23.502 36.993-35.547 17.241-17.113 34.2-34.512 51.279-51.789.351-.355.706-.707 1.054-1.066 11.463-11.795 22.933-23.584 34.386-35.388 22.37-23.057 45.08-45.798 66.978-69.294 15.311-16.426 30.076-33.442 43.99-51.06 8.12-10.281 14.112-22.247 21.007-33.49 4.053-6.608 8.024-13.267 11.973-19.938.975-1.648 1.723-3.43 2.828-5.662-5.973-.904-11.383-2.133-16.848-2.476-18.974-1.19-37.967-2.079-56.953-3.073-12.88-.675-25.76-1.378-38.643-1.99-15.046-.715-30.092-1.433-45.144-1.99-20.377-.753-40.766-1.238-61.14-2.053-21.493-.859-42.974-1.982-64.46-2.966-15.045-.688-30.1-1.18-45.134-2.049-13.334-.77-26.643-1.946-39.964-2.927-.995-.073-2 .006-3-.03-27.575-.995-55.153-1.918-82.723-3.04-9.891-.402-19.755-1.468-29.646-1.91-11.794-.528-23.607-.625-35.406-1.068-15.385-.578-30.763-1.312-46.144-1.98-7.607-.331-15.214-.667-22.821-.998-15.381-.668-30.864-.455-46.117-2.225-18.982-2.202-37.946-2.505-56.983-2.908-18.334-.387-36.644-1.91-54.968-2.85-8.602-.441-17.213-.701-25.82-1.013-18.715-.679-37.433-1.264-56.143-2.031-13.053-.535-26.092-1.428-39.145-1.938-12.601-.494-25.214-.668-37.82-1.042-21.549-.64-43.096-1.325-64.644-1.994-10.607-.33-21.247-.255-31.814-1.095-15.73-1.25-31.402-3.235-47.116-4.73-6.58-.626-13.22-.605-19.801-1.215-12.44-1.154-24.856-2.58-37.288-3.833-4.593-.462-9.206-.732-13.807-1.13-11.154-.965-22.305-1.969-33.461-2.915-1.655-.141-3.33-.05-4.994-.082-35.215-.665-70.432-1.222-105.642-2.059-12.39-.294-24.758-1.712-37.146-1.862-44.104-.534-88.212-.756-132.32-1.068-9.214-.065-18.43-.102-27.642.008-23.442.28-46.883.594-70.322 1.008-10.275.181-20.544.729-30.82.943a536 536 0 0 1-22.132-.013c-3.75-.077-5.561.644-5.772 5.178-.487 10.508-1.96 20.966-2.746 31.465-.216 2.898.937 5.882.853 8.81-.554 19.304-1.46 38.601-1.857 57.909-.173 8.43 1.008 16.889.822 25.318-.341 15.424-1.573 30.83-1.838 46.254-.56 32.603-.384 65.222-1.224 97.816-.393 15.285-1.893 30.6-3.913 45.766-1.589 11.933-4.72 23.663-7.208 35.474-3.8 18.031-13.324 33.689-20.844 50.178-4.09 8.97-8.066 17.993-12.19 26.948-4.674 10.146-9.512 20.218-14.178 30.368-6.993 15.214-13.855 30.49-20.856 45.7-4.725 10.268-9.75 20.4-14.355 30.721-5.12 11.477-9.756 23.169-14.897 34.635-4.072 9.083-8.644 17.94-12.892 26.946-4.873 10.33-9.662 20.7-14.435 31.075-7.193 15.635-14.398 31.265-21.491 46.945-5.938 13.125-11.672 26.342-17.59 39.476-9.1 20.197-18.475 40.272-27.36 60.563-5.903 13.48-10.997 27.314-16.763 40.857-2.808 6.596-6.81 12.703-9.38 19.374-2.437 6.325-4.306 13.004-5.372 19.695-2.44 15.319-.767 30.42 2.587 45.584 2.683 12.13 3.85 24.625 5.226 37.01 1.619 14.558 2.738 29.172 4.073 43.762 1.665 18.194 3.105 36.413 5.064 54.576 1.654 15.333 4.072 30.582 5.847 45.904 1.286 11.102 1.86 22.287 3.141 33.39 1.352 11.718 3.322 23.364 4.717 35.078.742 6.223.67 12.538 1.258 18.784 1.572 16.699 3.332 33.38 4.96 50.073 1.054 10.812 1.323 21.757 3.23 32.411 1.437 8.018 1.088 16.841 7.215 23.935"/></svg>