<svg xmlns="http://www.w3.org/2000/svg" viewBox="0 0 2000 1050" xml:space="preserve"><path fill="#fff" d="M567.696 856.44c13.387 5.9 26.42 11.654 39.506 17.28 15.38 6.611 30.86 12.995 46.202 19.696 14.136 6.176 28.082 12.788 42.228 18.94 14.276 6.21 28.738 11.99 43.038 18.145 12.15 5.23 24.153 10.801 36.28 16.084a4862 4862 0 0 0 45.713 19.624c10.305 4.363 20.581 8.834 31.085 12.671 5.003 1.828 10.475 2.487 15.79 3.326a894 894 0 0 0 28.241 3.989c6.853.858 13.735 1.715 20.627 1.984 14.43.563 28.888 1.245 43.31.886 9.128-.228 18.281-1.864 27.298-3.542 17.05-3.173 34.06-6.606 50.983-10.39 7.626-1.705 15.013-4.494 22.497-6.827 4.795-1.494 9.708-2.722 14.331-4.641 17.213-7.147 32.391-16.757 44.838-31.332 9.886-11.577 22.385-20.909 33.616-31.353 8.227-7.651 16.273-15.497 24.412-23.242a8527 8527 0 0 1 24.443-23.194c5.063-4.78 10.191-9.49 15.274-14.249 14.52-13.592 29.012-27.215 43.555-40.782 8.606-8.027 17.275-15.99 25.951-23.94 1.945-1.783 4.116-3.318 6.057-5.104 6.807-6.263 6.65-6.146 13.132.15 4.275 4.154 9.01 7.833 13.914 12.049-9.847 9.289-18.111 17.17-26.475 24.942-5.332 4.955-10.904 9.652-16.212 14.631a14823 14823 0 0 0-52.84 49.825c-8.828 8.364-17.461 16.935-26.334 25.25-4.941 4.631-10.444 8.676-15.252 13.433-9.15 9.051-17.74 18.674-27.008 27.6-11.462 11.04-23.372 21.616-35.103 32.378-.85.779-1.727 1.604-2.74 2.116-14.165 7.174-27.154 16.686-43.197 20.104-7.762 1.653-14.956 5.875-22.693 7.763-13.02 3.179-26.284 5.345-39.414 8.087-9.453 1.975-18.857 4.191-28.28 6.31-.795.178-1.566.573-2.363.618-12.408.7-24.843 2.193-37.222 1.82-16.616-.5-33.209-2.248-49.776-3.837-14.384-1.38-28.808-2.757-43.035-5.185-6.962-1.188-13.59-4.579-20.24-7.29-15.984-6.519-31.956-13.073-47.81-19.9-13.628-5.87-27.003-12.33-40.64-18.181-16.284-6.989-32.824-13.383-49.072-20.453-15.032-6.54-29.738-13.828-44.745-20.428-14.523-6.388-29.299-12.198-43.868-18.483-16.428-7.087-32.709-14.514-49.125-21.626-20.58-8.916-41.273-17.575-61.84-26.52-9.794-4.26-19.356-9.048-29.123-13.37-11.003-4.87-21.973-9.871-33.216-14.128-21.834-8.268-43.232-17.52-63.042-29.848-8.266-5.144-15.174-12.505-22.568-19.008-11.603-10.206-20.77-22.463-29.299-35.246-8.981-13.46-15.45-28.208-18.873-43.827-3.584-16.355-5.404-33.052-5.61-49.99-.21-17.276-2.47-34.524-3.71-51.793-.51-7.095-.533-14.226-1.078-21.318-1.212-15.77-2.678-31.52-3.906-47.29-.526-6.759-.56-13.556-1.09-20.314-1.226-15.604-2.666-31.191-3.926-46.792-.77-9.54-1.286-19.099-2.062-28.637-1.254-15.432-2.661-30.852-3.937-46.283-.449-5.43-.545-10.893-1.074-16.315-1.227-12.593-3.238-25.143-3.8-37.76-.828-18.607-8.063-35.07-16.59-50.856-11.5-21.295-27.888-38.258-49.03-50.639-19.284-11.293-38.102-23.384-57.143-35.095-14.546-8.945-29.186-17.74-43.654-26.809-7.953-4.985-15.652-10.375-23.436-15.626-10.75-7.25-21.1-15.193-32.313-21.634-11.302-6.49-16.315-24.23-8.235-36.844 8.057-12.58 19.422-17.824 33.647-19.037 10.963-.935 21.87-2.503 32.81-3.721 7.194-.801 14.405-1.444 21.601-2.22 14.872-1.604 29.736-3.282 44.61-4.865 7.364-.784 14.753-1.34 22.115-2.147 12.09-1.326 24.162-2.816 36.252-4.15 6.374-.704 12.774-1.162 19.151-1.843 18.31-1.956 36.604-4.052 54.923-5.913 6.244-.634 12.555-.583 18.813-1.105 14.769-1.231 29.522-2.655 44.287-3.93 8.707-.75 17.44-1.217 26.136-2.076 11.94-1.18 23.847-2.712 35.787-3.902 8.53-.85 17.1-1.286 25.635-2.09 8.999-.846 17.973-1.954 26.966-2.866 7.53-.763 15.076-1.371 22.608-2.115 9.492-.938 18.97-2.006 28.467-2.896 5.258-.493 10.556-.588 15.81-1.122 15.536-1.58 31.049-3.396 46.591-4.908 9.19-.895 18.48-.94 27.621-2.149 28.245-3.732 56.617-2.763 84.967-2.959 11.276-.078 22.547-.822 33.823-.922 46.605-.416 93.21-.919 139.816-.925 18.048-.003 36.097 1.185 54.143 1.904 15.217.607 30.428 1.38 45.646 1.966 11.3.435 22.637.304 33.905 1.13 10.796.793 21.514 2.598 32.287 3.763 8.024.868 16.082 1.417 24.123 2.124 15.096 1.327 30.168 3.073 45.291 3.889 15.58.84 31.21.699 46.814 1.134 21.05.587 42.099 1.247 63.144 2.006 15.219.548 30.44 1.15 45.643 2.023 13.001.746 25.965 2.191 38.97 2.803 10.021.471 20.092-.172 30.12.21 20.83.795 41.645 1.937 62.466 2.944 6.609.319 13.214.717 19.824.983 17.38.7 34.763 1.323 52.144 2.027 6.277.254 12.55.614 18.822.992 16.155.973 32.303 2.077 48.463 2.946 9.764.525 19.548.666 29.32 1.056q23.824.949 47.644 2.01c5.445.243 10.878.774 16.324.958 21.38.721 42.765 1.26 64.141 2.061 12.39.464 24.763 1.326 37.146 1.953 13.88.703 27.765 1.306 41.644 2.02 11.885.613 23.757 1.514 35.648 1.94 14.933.535 29.88.689 44.82 1.056 11.94.294 23.893.422 35.818 1.058 13.662.728 27.435 1.092 40.894 3.266 7.533 1.217 15.889.45 22.629 5.607 7.46 5.708 12.817 12.744 14.414 22.165 1.132 6.682-2.386 12.234-5.42 17.574-9.71 17.093-19.463 34.184-29.958 50.797-4.633 7.332-10.852 13.73-16.766 20.17-16.936 18.441-34.048 36.72-51.17 54.988-5.195 5.542-10.664 10.828-15.982 16.256-15.251 15.568-30.38 31.258-45.768 46.69-11.672 11.704-23.715 23.04-35.507 34.626-12.541 12.322-24.954 24.774-37.474 37.119-11.56 11.4-23.173 22.75-34.792 34.092-12.258 11.966-24.648 23.8-36.81 35.863-24.947 24.743-49.742 49.64-74.673 74.397-21.618 21.468-43.408 42.763-64.996 64.26-31.037 30.906-61.904 61.982-92.954 92.875-16.511 16.43-33.256 32.624-49.885 48.935-1.053 1.033-2.012 2.162-3.16 3.403l21.802 24.06-20.698 18.848-60.687-66.738 20.704-18.833 19.608 21.453c5.483-5.155 10.91-10.083 16.14-15.212 10.007-9.81 19.98-19.659 29.821-29.634 9.106-9.228 17.847-18.82 27.06-27.938 19.042-18.845 38.322-37.45 57.441-56.217 9.1-8.934 18.018-18.054 27.087-27.02 7.926-7.835 15.988-15.532 23.916-23.365 6.856-6.773 13.591-13.669 20.41-20.48 7.057-7.047 14.203-14.005 21.215-21.096 9.1-9.203 18.056-18.547 27.173-27.734 4.382-4.416 9.109-8.491 13.467-12.93 6.399-6.515 12.388-13.442 18.937-19.796 17.073-16.564 34.395-32.872 51.54-49.362 10.427-10.03 20.665-20.254 31.07-30.306 17.356-16.768 35.066-33.181 52.1-50.269 21.575-21.644 42.67-43.767 63.883-65.771 12.96-13.446 26.007-26.824 38.545-40.658 12.641-13.947 25.215-28.018 36.825-42.813 7.059-8.995 12.276-19.442 18.245-29.283 2.718-4.482 5.232-9.087 7.88-13.612 2.13-3.64 1.376-5.538-2.867-5.88-13.972-1.128-27.947-2.298-41.943-3.007-23.645-1.198-47.309-2.041-70.963-3.063-14.717-.635-29.43-1.316-44.145-1.994q-26.031-1.195-52.059-2.428c-10.645-.504-21.286-1.129-31.934-1.55-18.545-.735-37.097-1.302-55.641-2.038-14.719-.584-29.43-1.34-44.146-1.976-23.655-1.021-47.312-1.984-70.965-3.016-14.216-.62-28.43-1.302-42.643-1.994-20.157-.981-40.312-2.006-60.468-2.995-13.88-.681-27.76-1.404-41.644-1.983-17.711-.739-35.432-1.267-53.142-2.041-20.658-.904-41.305-2.085-61.966-2.945-19.542-.813-39.094-1.363-58.642-2.032-19.382-.664-38.766-1.264-58.144-2.022-14.053-.55-28.13-.923-42.137-2.09-13.74-1.143-27.388-3.343-41.108-4.786-9.182-.966-18.418-1.412-27.629-2.103-13.154-.986-26.307-1.99-39.462-2.962-1.326-.098-2.665-.007-3.998-.04-13.607-.328-27.215-.628-40.821-1.01-9.61-.27-19.214-.735-28.823-.97-28.88-.71-57.76-1.513-86.644-1.96-19.403-.3-38.814-.056-58.222-.056-29.499 0-58.998-.09-88.496.046-11.108.05-22.256.13-33.312 1.065-18.836 1.596-37.602 3.987-56.418 5.828-9.52.931-19.113 1.123-28.622 2.127-12.403 1.31-24.754 3.103-37.132 4.659-1.475.185-2.978.144-4.46.282-14.093 1.311-28.184 2.639-42.276 3.96-.165.016-.333.007-.5.018-10.542.671-21.107 1.1-31.622 2.072-15.221 1.407-30.4 3.264-45.609 4.813-8.195.834-16.422 1.353-24.622 2.15-9.163.89-18.302 2.024-27.468 2.882-8.695.814-17.422 1.297-26.117 2.124-12.604 1.198-25.189 2.608-37.789 3.858-4.759.472-9.546.668-14.306 1.132-12.93 1.26-25.85 2.63-38.78 3.887-7.87.765-15.769 1.244-23.622 2.133-12.562 1.421-25.096 3.075-37.642 4.636-.653.082-1.296.263-1.95.318-15.753 1.344-31.53 2.439-47.25 4.09-11.904 1.25-23.715 3.358-35.602 4.796-8.005.968-16.07 1.442-24.109 2.116-1.324.11-2.825-.257-3.949.25-1.869.842-3.5 2.214-5.23 3.363 1.252 1.534 2.234 3.458 3.798 4.54 14.595 10.094 29.014 20.482 44.017 29.941 27.579 17.389 55.547 34.159 83.295 51.28a2900 2900 0 0 1 43.007 27.056c2.598 1.666 4.653 4.189 6.917 6.358 14.105 13.512 26.064 28.616 34.47 46.372 3.994 8.439 8.978 16.537 11.883 25.329 2.904 8.786 4.224 18.186 5.425 27.423 1.74 13.372 2.782 26.837 4.051 40.27.45 4.763.669 9.547 1.036 14.32.656 8.543 1.31 17.088 2.028 25.627 1.297 15.43 2.664 30.854 3.951 46.284.426 5.1.69 10.214 1.042 15.32 1.33 19.26 2.6 38.526 4.022 57.78 1.238 16.768 2.697 33.52 3.967 50.287.761 10.04 1.421 20.09 1.996 30.144 1.056 18.482 1.404 37.03 3.219 55.434 1.345 13.642 3.178 27.531 7.267 40.532 4.935 15.69 13.876 29.629 24.94 42.152 8.837 10.004 17.452 20.17 29.126 26.942 12.166 7.056 24.248 14.428 37.017 20.234 24.112 10.961 48.683 20.914 73.075 31.257 16.732 7.095 33.514 14.075 50.217 21.24 7.99 3.427 15.85 7.163 24.1 10.962"/></svg>