<svg xmlns="http://www.w3.org/2000/svg" viewBox="0 0 2169 453" xml:space="preserve"><path fill="#fff" d="M1967.108 289.908c-.028-2.577-.134-4.745-.03-6.903.639-13.396.553-26.892 2.318-40.141.898-6.746 4.69-13.293 8.02-19.473 3.055-5.666 7.003-10.91 10.992-16 6.909-8.815 6.735-18.229 2.677-27.861-4.136-9.82-8.726-19.45-13.214-29.119-4.054-8.734-11.196-14.12-25.18-12.81-7.719.723-11.492 3.92-15.44 10.19-12.096 19.206-25.31 37.755-41.673 53.62-8.588 8.326-18.147 15.719-27.706 22.955-9.162 6.936-18.541 13.731-28.477 19.457-8.448 4.87-17.633 8.666-26.845 11.949-9.391 3.346-19.19 5.575-28.857 8.11-3.6.945-7.314 1.795-11.01 1.967-17.665.826-35.351 2.099-53.013 1.876-17.791-.224-35.014-4.57-51.855-10.4-17.956-6.219-35.86-12.712-54.138-17.83-10.672-2.989-20.765.822-29.604 7.746-11.529 9.032-20.153 20.093-24.117 34.266-1.647 5.89-2.495 12.102-2.9 18.221-.692 10.421-.935 20.883-1.006 31.33-.056 8.117.775 16.246.582 24.355-.167 7.052.156 14.607-2.273 20.973-2.303 6.037-7.356 11.122-14.349 13.676-11.957 4.367-23.173.127-34.508-2.21-17.91-3.691-35.721-7.868-53.56-11.9-26.172-5.918-52.33-11.904-78.499-17.83a20352 20352 0 0 0-58.243-13.103c-11.836-2.644-23.674-5.283-35.563-7.668-1.008-.202-3.144 1.306-3.496 2.418-1.548 4.898-2.634 9.942-4.047 15.57l-19.396-4.746 14.203-56.952 19.344 4.787c-.91 3.846-1.969 7.342-2.446 10.916-.151 1.127 1.04 3.342 1.98 3.57 14.142 3.43 28.318 6.734 42.54 9.824 19.448 4.225 38.975 8.094 58.405 12.397 16.564 3.669 33.012 7.862 49.565 11.58 12.007 2.698 24.133 4.863 36.15 7.515 13.6 3.002 27.12 6.358 40.71 9.406 5.356 1.202 10.806 1.986 16.87 3.079.392-4.26.955-7.661.977-11.065.113-17.54.052-35.08.12-52.62.08-21.022 5.533-40.655 18.291-57.326 10.196-13.321 22.872-24.01 39.396-29.801 13.992-4.904 27.549-3.36 40.892.708 16.792 5.117 33.087 11.848 49.83 17.149 9.978 3.16 20.294 5.84 30.656 7.052 11.835 1.384 23.928 1.657 35.839 1.047 18.17-.93 36.135-3.567 53.7-8.918 11.21-3.416 22.11-7.37 31.77-13.895 10.495-7.09 20.427-15.011 30.609-22.564 20.764-15.403 35.584-35.999 49.933-57.026 4.14-6.066 8.366-12.094 12.917-17.852 6.09-7.703 15.065-9.078 24.06-9.88 4.904-.438 9.897-.682 14.785-.26a39.1 39.1 0 0 1 11.608 2.87c9.57 4.02 17.917 9.716 22.513 19.528 6.316 13.485 13.614 26.64 18.51 40.63 6.119 17.476 4.957 34.512-8.569 49.294-9.559 10.447-15.147 22.855-14.961 37.444.155 12.142-.23 24.296.133 36.429.612 20.49 2.164 40.967 2.258 61.455.051 11.425 4.398 20.837 9.736 30.229.317.558.779 1.157 1.327 1.444 14.338 7.518 28.496 15.67 45.47 15.24 11.318-.286 21.302-4.864 31.16-9.918 11.947-6.125 22.26-14.412 29.022-25.856 8.073-13.66 13.872-28.437 12.028-44.924-1.246-11.137-3.991-21.877-8.903-32.07-8.77-18.197-17.351-36.487-25.878-54.801-13.495-28.984-26.887-58.016-40.308-87.035-7.655-16.554-15.568-32.997-22.823-49.724-5.322-12.27-15.567-19.989-24.81-28.642-4.16-3.895-9.254-6.775-13.765-10.317-11-8.635-24.427-10.708-37.425-13.658-8.677-1.97-17.613-3.512-26.475-3.766-10.546-.303-21.137.959-31.707 1.584-4.93.291-9.855.71-14.785 1.017-11.186.698-22.384 1.22-33.558 2.076-15.726 1.206-31.428 2.736-47.153 3.969-14.13 1.108-28.288 1.876-42.414 3.028-14.231 1.16-28.432 2.694-42.66 3.902-9.687.823-19.402 1.31-29.096 2.058-7.007.541-13.993 1.372-21.002 1.877-6.94.5-13.913.578-20.845 1.153-14.547 1.207-29.071 2.679-43.615 3.916-6.097.518-12.228.621-18.33 1.082-12.945.977-25.882 2.067-38.822 3.107-11.934.958-23.866 1.93-35.801 2.858-13.75 1.07-27.501 2.12-41.255 3.133-13.51.994-27.034 1.806-40.533 2.926-12.42 1.03-24.803 2.527-37.227 3.512-9.381.743-18.812.851-28.2 1.523-7.526.539-15.016 1.566-22.533 2.253-7.04.644-14.1 1.067-21.142 1.69-14.329 1.27-28.644 2.695-42.979 3.879-6.92.572-13.889.56-20.81 1.133-14.542 1.202-29.059 2.726-43.604 3.897-7.552.608-15.159.537-22.711 1.145-9.304.75-18.57 1.953-27.863 2.834-7.162.678-14.338 1.218-21.514 1.713-7.78.536-15.579.837-23.352 1.453-5.685.45-11.33 1.421-17.016 1.846-10.843.81-21.713 1.252-32.55 2.12-9.445.757-18.85 2.01-28.29 2.815-6.742.576-13.528.621-20.272 1.174-14.51 1.188-29.003 2.583-43.509 3.826-5.418.464-10.859.658-16.277 1.118-9.816.833-19.619 1.82-29.435 2.65-6.377.54-12.765.962-19.154 1.353-11.533.705-23.085 1.158-34.601 2.067-14.23 1.124-28.427 2.677-42.65 3.9-6.258.537-12.557.575-18.817 1.086-15.051 1.23-30.083 2.693-45.138 3.883-7.264.574-14.575.55-21.837 1.145-9.61.786-19.187 1.965-28.787 2.871-4.915.464-9.849.732-14.777 1.038-11.184.695-22.382 1.201-33.553 2.072-16.041 1.25-32.056 2.844-48.096 4.124-13.421 1.072-26.873 1.76-40.288 2.898-7.94.673-15.818 2.07-23.755 2.806-6.714.624-13.478.683-20.21 1.138-14.418.975-28.83 2.042-43.243 3.074-13.607.975-27.222 1.846-40.818 2.962-12.384 1.017-24.735 2.428-37.12 3.427-9.183.741-18.411.924-27.591 1.686-7.934.659-15.816 1.92-23.745 2.66-6.422.599-12.889.699-19.318 1.23-15.045 1.24-30.072 2.714-45.121 3.886-11.036.859-22.097 1.382-33.146 2.067-5.09.316-10.177.886-15.27.95-14.94.186-28.547-4.234-40.309-13.34-5.403-4.184-9.748-9.711-14.758-14.433-9.628-9.074-18.777-18.816-29.274-26.761-9.502-7.192-20.739-12.04-30.843-18.499-13.657-8.73-29.455-10.262-44.598-13.675-14.046-3.165-27.614-.592-38.855 9.2-7.244 6.31-8.516 14.853-8.48 24.138.056 14.516-.712 29.039-1.327 43.55-.347 8.204.543 16.254 3.701 23.759 4.096 9.733 10.43 9.248 19.375 6.078 8.054-2.854 15.839-6.778 24.1-8.654 10.125-2.3 20.597-3.198 30.964-4.268 11.88-1.227 23.793-2.354 35.72-2.824 10.233-.402 20.08 2.68 27.1 10.008 4.797 5.006 7.362 12.218 10.646 18.587 3.269 6.342 5.042 13.98 13.773 15.219 4.147.588 8.371.606 12.539 1.073 17.385 1.946 34.72 4.608 52.156 5.759 14.792.976 29.7.349 44.554.21 7.916-.073 15.83-.586 23.742-.955 6.26-.291 12.529-1.086 18.772-.906 9.893.285 19.768 1.209 29.653 1.843 5.59.359 11.183.944 16.776.968 15.326.065 29.918 4.384 44.742 7.37 17.615 3.549 35.184 7.342 52.844 10.651 10.546 1.976 21.188 3.913 31.864 4.536 6.166.36 12.54-1.693 18.725-3.082 10.213-2.293 20.41-4.71 30.49-7.521 4.313-1.203 8.407-3.344 12.44-5.377 15.03-7.577 29.895-15.486 45.009-22.888 14.97-7.332 29.935-14.771 45.363-21.025 7.204-2.92 15.443-3.914 23.304-4.457 19.312-1.334 38.151 2.484 56.886 6.688 25.42 5.705 50.834 11.446 76.265 17.105 22.628 5.036 45.28 9.969 67.915 14.973 18.01 3.981 36.011 8.005 54.018 12.005 14.376 3.193 28.743 6.427 43.133 9.556 25.507 5.548 51.047 10.942 76.537 16.568 21.155 4.67 42.242 9.65 63.387 14.37 20.702 4.621 41.44 9.077 62.158 13.624 8.995 1.974 18.002 3.909 26.933 6.14.825.207 1.818 2.58 1.585 3.71-1.409 6.83-3.151 13.59-4.973 21.166-5.624-1.09-11.275-2.064-16.872-3.29-22.439-4.914-44.875-9.841-67.284-14.888-21.131-4.759-42.212-9.74-63.343-14.498-15.941-3.59-31.943-6.913-47.889-10.483-26.192-5.866-52.362-11.831-78.54-17.763-20.824-4.718-41.632-9.505-62.47-14.16a20818 20818 0 0 0-85.791-18.985c-15.72-3.441-31.402-7.143-47.245-9.9-15.08-2.626-30.337-4.247-45.533-6.176-12.098-1.537-23.388 1.723-34.053 6.92-25.166 12.265-50.156 24.891-75.237 37.332-16.037 7.955-32.823 13.475-50.645 15.812-7.707 1.01-15.397 3.979-22.987 3.642-13.402-.594-26.797-2.59-40.054-4.829-14.668-2.477-29.192-5.82-43.752-8.91-12.02-2.552-23.91-5.876-36.028-7.763-10.794-1.68-21.809-2.254-32.748-2.588-11.171-.34-22.375.041-33.554.404-15.665.509-31.318 1.692-46.983 1.82-10.542.084-21.106-1.021-31.64-1.844-10.767-.84-21.513-1.948-32.262-3.01-13.054-1.29-26.166-2.216-39.132-4.125-10.207-1.503-17.965-7.693-23.164-16.452-3.535-5.956-6.129-12.482-9.004-18.816-2.728-6.01-7.422-8.336-13.78-7.81-16.998 1.403-34.156 1.83-50.937 4.563-11.772 1.916-23.23 6.463-34.475 10.757-18.792 7.177-38.46-2.703-46.204-20.798-6.947-16.235-6.191-32.788-5.112-49.714.763-11.954.73-24.015.131-35.982-.464-9.269 3.034-17.071 7.659-24.24 7.897-12.241 19.068-20.665 33.322-24.68 14.426-4.064 28.753-4.328 43.244-.055 6.662 1.965 13.773 2.424 20.407 4.456 7.64 2.34 15.102 5.39 22.413 8.646 6.03 2.685 11.81 5.97 17.546 9.264 6.697 3.846 13.723 7.364 19.712 12.145 9.684 7.73 18.806 16.197 27.842 24.697 5.979 5.624 10.75 12.721 17.264 17.529 5.21 3.846 12.127 6.939 18.477 7.336 11.14.698 22.43-.85 33.647-1.6 8.03-.537 16.046-1.3 24.068-1.97 11.924-.998 23.842-2.098 35.775-2.976 11.036-.813 22.102-1.237 33.132-2.11 14.725-1.166 29.425-2.63 44.141-3.9 5.086-.44 10.19-.681 15.284-1.017 15.46-1.018 30.925-1.967 46.378-3.079 12.29-.884 24.569-1.912 36.843-2.98 14.354-1.249 28.687-2.77 43.053-3.864 8.951-.68 17.972-.482 26.916-1.227 12.027-1.001 24.007-2.562 36.014-3.82 4.25-.445 8.516-.748 12.779-1.04 15.093-1.032 30.198-1.896 45.28-3.08 17.349-1.363 34.673-3.051 52.016-4.495 10.962-.913 21.946-1.554 32.907-2.471 10.25-.858 20.471-2.057 30.725-2.855 11.053-.86 22.14-1.284 33.193-2.158 14.85-1.174 29.676-2.66 44.522-3.89 9.677-.8 19.375-1.354 29.06-2.07 17.705-1.307 35.406-2.674 53.112-3.972 9.861-.723 19.74-1.243 29.593-2.059 13.687-1.132 27.35-2.546 41.038-3.669 11.026-.904 22.077-1.497 33.109-2.338 12.282-.936 24.55-2.058 36.833-2.985 14.157-1.069 28.326-1.967 42.484-3.024 12.45-.93 24.896-1.917 37.334-2.987 14.508-1.247 28.996-2.748 43.512-3.883 11.54-.903 23.123-1.267 34.666-2.145 15.553-1.183 31.085-2.64 46.628-3.962 15.544-1.322 31.087-2.672 46.638-3.908 6.26-.498 12.56-.541 18.813-1.113 13.05-1.192 26.067-2.747 39.122-3.866 8.82-.756 17.686-.941 26.521-1.524a7222 7222 0 0 0 52.096-3.606c12.456-.911 24.91-1.881 37.347-3.005 16.686-1.507 33.341-3.371 50.037-4.743 15.817-1.3 31.674-2.09 47.504-3.233 17.399-1.257 34.787-2.656 52.18-4.001 12.783-.99 25.573-1.903 38.346-3.013 13.909-1.21 27.79-2.75 41.704-3.878 11.197-.908 22.432-1.338 33.639-2.135 7.193-.511 14.364-1.33 21.549-1.962 11.582-1.017 23.171-1.965 34.753-2.994 10.582-.94 21.146-2.093 31.738-2.886 11.538-.863 23.09-1.654 34.651-2.04 10.163-.338 20.434-.906 30.498.144 11.734 1.223 23.34 3.882 34.922 6.305 13.728 2.87 26.576 8.112 37.863 16.524 7.247 5.402 13.9 11.593 20.985 17.22 18.184 14.443 26.036 35.385 35.25 55.502 5.595 12.218 11.319 24.377 17.011 36.551 14.405 30.809 28.87 61.59 43.22 92.424 7.032 15.112 14.432 30.092 20.563 45.569 3.525 8.897 5.225 18.593 7.084 28.06 4.7 23.924-3.343 45.19-15.051 65.298-4.751 8.158-11.323 15-18.585 21.405-11.766 10.378-25.34 17.554-39.68 22.49-20.01 6.89-40.444 5.614-59.885-3.513-8.731-4.099-17.834-7.885-25.577-13.466-6.845-4.934-10.248-13.235-14.19-20.858-6.495-12.562-6.11-26.05-6.752-39.402-.873-18.165-1.162-36.359-1.716-54.54-.056-1.84-.206-3.678-.33-5.93"/></svg>