<svg xmlns="http://www.w3.org/2000/svg" viewBox="0 0 2227 492" xml:space="preserve"><path fill="#fff" d="M2198.225 316.75c4.994 13.141 8.557 26.13 9.955 39.908 1.766 17.4-2.6 33.157-8.985 48.926a92.6 92.6 0 0 1-14.27 24.09c-1.907 2.334-3.72 4.98-6.161 6.606-11.842 7.89-23.747 15.705-35.903 23.098-7.51 4.568-16.202 5.564-24.82 6.606-16.466 1.993-31.983-2.71-47.37-7.085-13.082-3.72-23.078-12.152-31.904-22.887-9.337-11.356-12.67-24.514-15.382-38.011-1.165-5.799.124-12.18.807-18.24 1.06-9.407 2.272-18.815 3.93-28.132 2.675-15.025 5.797-29.97 8.674-44.959 3.46-18.026 6.986-36.04 10.243-54.103 1.843-10.223 4.13-20.496 4.559-30.815.604-14.574-2.666-28.324-12.869-39.803-4.591-5.165-8.701-10.61-15.512-13.012-11.428-4.03-24.588-.557-32.235 9.747-10.127 13.644-19.584 27.859-30.586 40.755-7.52 8.814-16.942 16.092-25.962 23.511-8.546 7.028-17.103 14.378-26.696 19.715-12.112 6.74-25.1 12.045-38.052 17.087-9.134 3.557-18.744 6.066-28.32 8.264-8.223 1.888-16.672 2.915-25.072 3.88-9.782 1.125-19.608 2.256-29.435 2.477-8.841.198-17.73-.609-26.561-1.382-8.462-.74-17.07-1.225-25.262-3.245-9.993-2.465-19.725-6.134-29.379-9.788-14.62-5.532-28.75-12.03-44.577-14.356-11.54-1.696-20.556 2.123-29.882 7.48-9.264 5.323-16.683 12.569-22.149 21.456-6.474 10.525-8.72 22.115-3.881 34.077 7.634 18.876 15.703 37.578 23.227 56.496 4.332 10.893 4.067 22.39-4.74 30.39-7.405 6.725-16.523 11.004-28.321 7.718-22.762-6.34-46.018-10.897-69.041-16.313-21.915-5.156-43.754-10.64-65.7-15.652-17.718-4.047-35.593-7.4-53.31-11.442-16.086-3.67-32.014-8.024-48.083-11.771-20.83-4.858-41.754-9.305-62.591-14.125-26.806-6.202-53.56-12.631-80.351-18.891-7.231-1.69-14.522-3.12-22.078-4.733l-5.148 19.127-19.364-4.916 16.236-61.988 19.356 5.026-4.444 17.368 403.963 93.406c-3.124-8.23-5.499-14.85-8.135-21.362-6.154-15.207-12.701-30.26-18.557-45.579-3.31-8.66-2.425-17.85-.63-26.762 1.146-5.694 2.437-11.548 4.914-16.733 2.696-5.643 6.47-10.891 10.42-15.791 11.387-14.13 25.788-24.448 42.792-30.572 7.205-2.595 14.877-3.292 23.001-2.789 14.326.887 27.529 4.825 40.566 10.09 9.622 3.887 19.092 8.171 28.82 11.764 11.576 4.275 23.725 5.97 36.02 6.56 7.598.366 15.257 1.386 22.788.808 15.56-1.195 31.203-2.43 46.537-5.184 18.239-3.275 36.085-8.882 52.216-18.12 11.969-6.854 23.066-15.339 34.074-23.725 7.253-5.525 14.17-11.697 20.308-18.426 7.255-7.953 13.64-16.72 20.15-25.324 4.418-5.838 7.908-12.431 12.682-17.933 9.69-11.166 22.106-17.372 37.067-18.166 14.111-.75 27.445 2.266 37.946 11.692 12.58 11.293 22.565 24.748 27.135 41.6 4.222 15.572 4.276 31.308 1.618 46.958-3.406 20.061-7.68 39.976-11.645 59.941-3.174 15.984-6.645 31.912-9.591 47.937-1.569 8.53-2.371 17.206-3.389 25.832-.693 5.88-1.72 11.798-1.597 17.678.194 9.295 3.2 17.898 8.402 25.703 9.441 14.168 24.28 17.55 39.61 19.656 6.378.876 12.89.922 19.348 1.052 9.216.184 16.848-4.575 24.565-8.652 11.54-6.097 21.304-14.36 27.953-25.788 8.748-15.035 14.122-31.315 11.598-48.659-1.659-11.403-5.406-22.788-9.968-33.432-14.587-34.034-29.927-67.747-45.11-101.524-6.466-14.387-13.331-28.595-19.893-42.94-7.286-15.93-14.444-31.917-21.636-47.89-4.763-10.58-12.946-18.401-21.346-25.922-5.59-5.003-11.876-9.218-17.708-13.962-9.097-7.4-19.441-12.488-30.661-15.336-10.444-2.651-21.127-4.574-31.815-5.984-8.018-1.057-16.243-1.412-24.317-.985-16.265.862-32.484 2.545-48.734 3.737-7.59.557-15.216.624-22.809 1.156-10.327.725-20.633 1.755-30.958 2.517-7.926.586-15.871.9-23.8 1.443-7.908.543-15.801 1.289-23.71 1.823-11.215.758-22.442 1.35-33.658 2.112-13.008.884-26.008 1.888-39.013 2.82-6.125.438-12.25.857-18.38 1.234-16.568 1.02-33.15 1.855-49.704 3.06-19.374 1.41-38.721 3.183-58.087 4.705-13.991 1.1-27.994 2.04-41.991 3.063-18.052 1.32-36.095 2.77-54.156 3.94-14.305.928-28.682.993-42.935 2.388-19.24 1.883-38.026-.302-56.812-4.054-27.469-5.487-54.975-10.79-82.49-16.046-16.357-3.124-30.277-11.147-43.385-20.939-3.916-2.925-7.859-5.819-11.856-8.632-4.843-3.409-14.874-.998-19.1 3.718-7.646 8.528-10.229 19.458-14.897 29.405-3.232 6.888-6.221 13.942-10.074 20.476-5.739 9.734-15.389 13.708-26.048 14.755-12.033 1.183-24.163 1.342-36.232 2.201-10.867.773-21.696 2.114-32.566 2.8-14.744.93-29.526 1.275-44.267 2.243-15.408 1.011-30.779 2.576-46.181 3.687-12.548.906-25.121 1.468-37.68 2.238-15.9.976-31.795 2.037-47.695 3.005-11.897.723-23.813 1.17-35.696 2.073-19.208 1.46-38.382 3.39-57.597 4.747-14.609 1.032-29.268 1.333-43.888 2.23-19.267 1.182-38.521 2.58-57.774 3.977-15.456 1.12-30.895 2.463-46.353 3.54-8.98.626-17.985.85-26.971 1.383-16.244.965-32.48 2.05-48.721 3.043-17.432 1.066-34.875 1.952-52.297 3.159-16.076 1.113-32.134 2.507-48.193 3.853-10.814.906-21.602 2.178-32.429 2.864-14.695.932-29.431 1.237-44.123 2.221-15.32 1.027-30.603 2.604-45.912 3.814-6.432.509-12.896.593-19.333 1.042-17.404 1.215-34.794 2.647-52.204 3.747-10.686.676-21.417.649-32.097 1.387-15.413 1.066-30.787 2.69-46.198 3.803-20.67 1.493-39.748-3.39-56.45-15.815-8.542-6.354-16.526-13.479-24.568-20.477-17.33-15.079-33.619-31.79-55.222-40.759-12.342-5.123-25.6-8.056-38.48-11.857-8.825-2.603-17.796-3.202-26.683-.467-13.269 4.082-22.155 12.932-24.79 26.522-1.373 7.077-.61 14.677-.086 21.99.994 13.846 2.52 27.655 3.804 41.481.468 5.036 2.385 6.278 6.798 3.808a3387 3387 0 0 0 41.543-23.652c9.202-5.324 19.251-8.166 29.623-9.239 10.305-1.065 19.168 3.992 28.24 8.293 15.735 7.462 22.573 21.5 28.833 36.315 3.668 8.68 7.65 17.251 12.007 25.602 1.078 2.065 3.994 3.986 6.356 4.431 14.11 2.658 28.227 5.635 42.487 7.039 20.794 2.047 41.695 3.186 62.578 4.09 17.947.777 35.93.754 53.9.923 4.452.042 8.943-1.044 13.36-.75 16.253 1.08 32.48 2.533 48.72 3.82 15.87 1.259 31.494 3.834 46.91 7.912 16.33 4.32 32.882 7.821 49.156 12.336 25.486 7.07 50.748 14.953 76.256 21.937 8.92 2.442 18.252 3.516 27.46 4.733 12.684 1.675 25.398 3.463 38.156 4.148 13.11.704 26.3-.078 36.077-10.843 6.999-7.707 10.47-17.082 11.856-27.32 2.153-15.917 10.054-28.106 24.202-35.823 7.374-4.022 15.074-7.466 22.735-10.93 1.863-.842 4.15-.975 6.251-1.021 16.414-.36 32.606.321 48.717 4.67 17.27 4.66 35.026 7.494 52.493 11.464 29.867 6.79 59.684 13.807 89.504 20.8 25.526 5.988 51.016 12.123 76.542 18.108 32.73 7.673 65.48 15.25 98.216 22.894 6.793 1.587 13.588 3.186 20.306 5.05 1.02.283 2.489 2.25 2.29 3.098-1.766 7.562-3.862 15.048-5.98 23.005-18.31-4.478-36.16-9.012-54.098-13.176-12.952-3.007-26.045-5.403-39.025-8.293-11.697-2.604-23.326-5.513-34.988-8.278-23.326-5.531-46.65-11.077-69.983-16.577a16830 16830 0 0 0-50.954-11.902c-23.02-5.35-45.89-11.53-69.116-15.748-19.185-3.484-37.982-10.316-57.997-8.416-12.51 1.188-30.117 9.918-32.975 24.166-1.274 6.35-1.69 13.074-4.126 18.952-7.995 19.293-19.753 34.282-42.056 39.275-15.083 3.375-29.697 3.896-44.762 1.698-17.615-2.57-35.344-4.41-52.903-7.296-7.419-1.22-14.508-4.38-21.788-6.516-20.785-6.099-41.536-12.327-62.41-18.108-13.873-3.843-27.858-7.37-41.936-10.366-12.875-2.74-25.902-4.844-38.933-6.739-13.587-1.976-27.22-4.03-40.904-4.81-11.431-.651-22.964.524-34.453.82-7.654.196-15.314.464-22.966.345-8.913-.138-17.824-.588-26.73-1.04-13.714-.695-27.459-1.11-41.125-2.365-18.747-1.72-37.67-2.93-56.067-6.61-13.704-2.74-27.607-7.284-33.53-23.08-4.481-11.948-10.259-23.412-15.557-35.047-2.934-6.445-8.11-10.728-14.097-14.251-9.907-5.828-19.332-4.54-28.99.93-16.512 9.354-33.163 18.471-49.91 27.396-15.684 8.358-30.322 1.07-35.68-14.315-3.104-8.91-4.065-18.67-5.185-28.144-1.655-13.999-3.171-28.062-3.646-42.136-.35-10.373 2.682-20.252 7.419-29.749 8.423-16.888 22.576-26.413 39.814-31.513 13.77-4.074 27.665-1.82 41.574 1.445 14.727 3.457 29.149 7.455 42.682 14.263 15.268 7.681 29.087 17.301 41.747 28.942 13.831 12.717 28.359 24.748 43.253 36.206 6.606 5.082 15.003 7.959 23.68 7.726 15.132-.407 30.254-1.25 45.375-2.015 11.103-.562 22.21-1.139 33.294-1.986 14.908-1.14 29.782-2.752 44.696-3.778 14.213-.977 28.472-1.261 42.686-2.217 15.74-1.059 31.447-2.6 47.179-3.799 6.958-.53 13.943-.709 20.913-1.1 17.827-1.002 35.655-1.984 53.477-3.075 8.856-.542 17.699-1.302 26.547-1.969 15.759-1.187 31.515-2.407 47.277-3.557 7.406-.54 14.82-.976 22.234-1.415 17.283-1.025 34.571-1.984 51.853-3.05 9.396-.578 18.788-1.251 28.172-2.004 15.578-1.25 31.141-2.693 46.725-3.863 7.782-.583 15.606-.592 23.393-1.123 18.058-1.23 36.104-2.648 54.16-3.933 6.11-.435 12.233-.71 18.351-1.041 12.525-.679 25.053-1.286 37.574-2.035 15.638-.935 31.278-1.87 46.902-3.014 15.375-1.126 30.719-2.699 46.099-3.732 14.522-.975 29.088-1.294 43.609-2.285 15.603-1.065 31.172-2.615 46.763-3.872 5.752-.463 11.522-.712 17.286-1.029 12.525-.688 25.057-1.267 37.576-2.059 14.825-.938 29.643-2.005 44.456-3.114 6.224-.466 12.438-1.74 18.64-1.638 7.172.117 8.842-5.37 10.98-9.88 6.08-12.827 10.628-26.474 17.624-38.746 6.217-10.906 16.341-17.98 29.331-20.68 15.585-3.24 27.39 3.86 38.995 12.432 14.215 10.501 29.287 18.646 47.384 20.92 13.303 1.67 26.312 5.572 39.524 8.097 17.81 3.404 35.66 6.632 53.55 9.58 16.857 2.779 33.593-.135 50.344-1.773 5.803-.568 11.64-.816 17.465-1.126 7.428-.395 14.872-.554 22.29-1.089 10.63-.766 21.238-1.852 31.866-2.662 7.113-.542 14.25-.756 21.365-1.27 10.818-.781 21.62-1.806 32.442-2.523 10.744-.713 21.517-1.02 32.256-1.793 9.301-.67 18.566-1.844 27.862-2.6 6.576-.536 13.187-.633 19.767-1.127 11.612-.872 23.208-1.947 34.818-2.84 6.129-.473 12.27-.783 18.41-1.094 7.762-.393 15.539-.573 23.292-1.098 9.833-.666 19.648-1.592 29.472-2.395 6.385-.521 12.766-1.117 19.158-1.514 12.077-.749 24.172-1.223 36.24-2.095 16.06-1.16 32.092-2.692 48.151-3.869 8.367-.613 16.77-.714 25.148-1.22 8.515-.513 17.008-1.49 25.527-1.804 8.34-.308 16.74-.538 25.04.117 9.483.748 19.008 1.942 28.298 3.946 22.82 4.924 43.38 14.568 60.743 30.572 6.138 5.658 13.484 10.145 18.98 16.321 6.64 7.46 13.013 15.579 17.523 24.421 8.887 17.423 16.436 35.529 24.489 53.374 11.98 26.548 23.89 53.127 35.885 79.668 7.001 15.492 14.126 30.929 21.16 46.407 2.942 6.473 5.79 12.988 8.906 19.807"/></svg>