<svg viewBox="0 0 1923 678" xml:space="preserve" xmlns="http://www.w3.org/2000/svg"><path d="M1568.504 43.883c-3.496-.111-7.012-.008-10.559.392.017.368.034.734.457 1.4 1.455.338 2.505.378 3.553.417 5.15.09 10.3.18 16.125.56 1.424.31 2.172.33 2.92.35 4.827.797 9.653 1.594 15.006 2.668.526.278.984.348.984.348.472.05 1.162.19 1.676.257a6.4 6.4 0 0 0-1.629.077c-.046-.333-.505-.404-.736-.414-3.975.91-7.818 1.742-11.332.287 3.48 1.432 7.214.544 10.806-.565-5.12-1.064-9.95-1.86-14.732-2.281-.792-.396-1.54-.416-2.662-.441-1.635.64-2.912 1.725-4.225 1.931 1.31-.207 2.548-1.31 3.55-2.223-5.452-.375-10.602-.465-15.73-.185-1.07-.409-2.119-.448-3.56-.51-.768.115-1.294.24-1.838.256.529-.028.985-.204 1.432-.555-.03-.642-.047-1.01-.377-1.435-.733-.007-1.152.045-1.551.373-.018.642-.055 1.007.053 1.61-.58-.215-1.012-.192-1.77-.14-.947.165-1.727.314-2.476.333a5.4 5.4 0 0 0 1.771-.346c-1.143-.039-1.905-.034-2.62.303-.788-.334-1.528-.338-2.636-.305-1.018.2-1.829.382-2.617.422.75-.041 1.416-.222 1.863-.422-1.16.007-1.933.051-2.636.412-.79-.34-1.51-.362-2.588-.348-.882.845-1.53 2.298-2.07 2.621.528-.325 1.09-1.779 1.289-2.634-2.495-.391-4.568-.732-6.975-1.035-.784.017-1.232-.003-1.84.24-1.06.676-1.961 1.09-2.67 1.81-1.563-.237-2.933-.168-4.715-.062-1.48.637-2.59 1.457-3.761 1.9 1.149-.44 2.158-1.25 2.892-1.896l.428-.053c2.222-.057 3.594-.127 4.965-.197.9-.414 1.801-.827 2.658-1.883-6.464-.356-12.958-.582-19.29.324-13.703 1.961-27.3 4.658-40.985 6.76-12.276 1.885-24.613 3.375-36.922 5.04-17.337 2.347-34.694 4.566-52.004 7.089-11.937 1.74-23.803 3.956-35.717 5.855-7.098 1.132-14.225 2.068-21.342 3.078a22272 22272 0 0 1-32.502 4.594c-8.145 1.144-16.287 2.307-24.441 3.387-6.335.839-12.703 1.448-19.026 2.367-7.582 1.102-15.119 2.523-22.7 3.63-11.323 1.655-22.673 3.108-33.999 4.74-6.972 1.003-13.907 2.276-20.883 3.251-7.938 1.11-15.912 1.953-23.855 3.033-11.043 1.502-22.082 3.043-33.102 4.703-10.786 1.626-21.53 3.536-32.324 5.106-8.46 1.23-16.975 2.071-25.451 3.197-9.563 1.27-19.103 2.715-28.664 3.994-8.11 1.085-16.237 2.041-24.356 3.057-5.358.67-10.73 1.254-16.072 2.04-10.818 1.59-21.608 3.37-32.431 4.923-10.205 1.463-20.452 2.64-30.655 4.115-10.492 1.518-20.938 3.355-31.433 4.852-10.528 1.5-21.104 2.664-31.635 4.14-10.834 1.52-21.631 3.306-32.461 4.852-12.125 1.73-24.275 3.275-36.4 5.004-3.375.481-6.68 1.44-10.05 1.982-7.573 1.218-15.18 2.223-22.745 3.492-3.76.631-7.453 1.655-11.176 2.5 2.654.024 5.317.19 7.959.026-2.642.164-5.305-.002-8.283.02-.756.102-1.188.16-1.62.216-1.856.408-3.71.816-6.138 1.014-1-.139-1.428-.07-1.856.002-.216.484-.431.97-.78 1.992.297.73.716 1.353 1.099 1.527-.39-.169-.843-.765-1.323-1.361-.517-.374-.946-.378-1.693-.346.747-.032 1.175-.028 1.826-.191.44-.652.654-1.137.471-1.727-2.156.199-3.91.502-5.461 1.074a10 10 0 0 0 1.54.538c.504.13 1.023.222 1.622.306-1.488 1.452-2.903 2.216-4.576 2.551 1.639-.333 2.973-1.089 4.258-2.514-.363-.084-.906-.244-1.305-.343-.57-.142-1.035-.24-1.863-.489-.96-.15-1.388-.079-1.922.354-7.393 1.693-14.682 3.024-21.89 4.73-.521-.388-.964-.4-1.735-.4-1.524 2.498-3.968 3.831-6.809 3.789 2.744.027 4.989-1.299 6.043-3.775l.346-.05 2.074.061c7.289-1.33 14.577-2.66 21.537-4.459-.66-.475-1-.528-1.326-.486-16.319 2.099-32.646 4.135-48.947 6.367-3.796.52-7.5 1.713-11.18 2.84.344.43.62.618.897.805 3.12-.212 6.241-.426 9.61-.532-3.288.123-6.428.407-9.509.91-.378-.567-.654-.754-1.316-1.134-.812-.137-1.237-.079-1.662-.022-.95.652-1.848 1.624-2.82 2.13.953-.512 1.772-1.508 2.382-2.253-2.554.08-4.686.188-6.789.498-7.277 1.074-14.53 2.317-21.818 3.31-10.579 1.443-21.186 2.663-31.766 4.097-6.464.875-12.883 2.091-19.35 2.945-13.817 1.824-27.681 3.312-41.472 5.312-13.532 1.964-26.983 4.483-40.504 6.53-2.333.353-4.891-.888-7.254-.61-9.4 1.107-18.769 2.505-28.142 3.832a3508 3508 0 0 0-24.686 3.58c-7.403 1.102-14.786 2.349-22.2 3.377-7.952 1.104-15.95 1.893-23.892 3.06-12.752 1.876-25.466 4.008-38.213 5.92-11.602 1.742-23.184 3.8-34.853 4.858-10.585.961-20.943 2.725-31.285 5.065-7.818 1.769-15.811 2.783-23.743 4.027a1009 1009 0 0 1-20.941 3.04c-10.703 1.45-21.432 2.712-32.121 4.253-10.042 1.448-20.019 3.36-30.074 4.69-9.967 1.318-20.065 1.727-29.98 3.318-18.308 2.937-36.425 7.491-54.823 9.232-8.024.76-11.548 5.715-15.035 10.055-6.42 7.99-7.537 18.034-5.219 28.26 1.299 5.729 1.206 11.476-1.71 16.79-6.263 11.41-12.633 22.762-18.948 34.143-2.984 5.378-5.942 10.77-8.912 16.157l.342.324c3.907-5.592 8.012-11.114 11.421-17.035-3.41 5.92-7.514 11.442-11.433 17.48-2.708 4.114-5.29 7.89-7.994 11.977-1.51 2.29-2.899 4.27-4.086 6.525-.928-.2-1.657-.122-2.987-.023-.795.295-.988.567-1.181.84.004.287-.004.697-.008 1.078-.013-.441-.087-.76-.35-1.073-3.056 2.617-5.768 5.228-8.132 7.864l-.37.23c-.781.344-.96.626-1.115 1.277-1.676 3.766-3.382 7.162-4.728 10.543-.268.011-.312.033-.325.038h-.001l-.002.001-.002-.001-.004-.002c-1.446 6.045-2.849 12.111-4.366 18.15 1.514-6.027 2.916-12.082 4.03-17.988l.021-.02c.207-.08.27-.125.287-.146l.004-.006.002-.002v-.01c1.704-3.396 3.407-6.79 4.752-10.465-2.8 3.167-5.056 6.765-7.724 10.026-6.397 7.815-7.072 17.315-5.207 26.105 1.88 8.863 6.777 17.09 10.394 25.576.244.572.748 1.21 1.293 1.451 8.562 3.805 16.926 8.242 25.8 11.09 7.37 2.365 15.32 3.039 23.061 4.104 8.55 1.176 17.157 1.945 25.739 2.892-1.842-.656-3.65-1.488-5.506-2.07 1.875.585 3.752 1.433 5.869 2.145 1.105.102 1.847.13 2.588.16 4.458.265 8.924.435 13.369.842-4.445-.407-8.911-.577-13.178-.48 2.128.64 4.067.904 6 1.204 8.957 1.39 17.911 2.788 26.801 3.856-.541-.38-1.075-.679-1.613-.98.654.347 1.19.584 1.976 1.054 1.169.435 1.907.47 2.897.21 1.709-.25 3.184-.334 4.623-.144 6.035.798 12.059 1.677 18.04 2.147 1.374.633 2.73.924 4.38 1.191-1.722-.292-3.115-.56-4.332-.812-6.029-.85-12.053-1.728-18.088-2.526-1.439-.19-2.913-.107-4.446.5 2.168 1.078 4.4 1.566 6.653 1.924 10.624 1.689 21.255 3.33 31.88 5.01 12.6 1.992 25.193 4.037 37.798 6 7.738 1.205 15.508 2.209 23.238 3.467 10.806 1.758 21.577 3.727 32.38 5.498 10.452 1.713 20.922 3.326 31.393 4.912 6.75 1.022 13.52 1.916 20.282 2.867-3.392-1.203-6.696-2.92-10.192-3.52 3.496.6 6.8 2.318 10.502 3.58.728.021 1.147-.019 1.565-.058.205-.472.411-.943.793-1.908-3.3-4.979-8.555-4.326-13.225-4.844 4.673.516 9.953-.155 13.45 4.695.491.366.933.386 1.708.414.884-.49 1.62-1.399 2.205-1.666-.575.268-1.257 1.177-1.87 1.674 4.417.969 8.84 1.914 13.247 2.928a591 591 0 0 0-13.582-2.936c-.775-.028-1.217-.047-1.885.08-.43.62-.637 1.092-.455 1.686 6.504 1.052 12.621 1.981 18.635 2.555-.723-.527-1.373-.923-2.031-1.176.675.256 1.387.663 2.353 1.234.862.444 1.3.473 1.996.201 3.18-.06 6.13 0 9.02.448-2.89-.448-5.839-.508-8.844-.082 2.16 1.088 4.393 1.58 6.649 1.922 17.928 2.711 35.881 5.26 53.785 8.123 19.645 3.14 39.223 6.708 58.873 9.818 20.316 3.216 40.701 5.98 61.021 9.172 21.106 3.315 42.165 6.937 63.27 10.258.775.122 1.83-1.53 2.754-2.356-11.147-1.694-22.295-3.386-33.973-5.383-.943-.305-1.357-.308-1.77-.31-5.35-.477-10.73-.742-16.044-1.477-8.835-1.221-17.628-2.744-27.12-4.44-2.41-.674-4.14-1.05-5.87-1.425-5.85-.745-11.715-1.378-17.542-2.268-5.672-.866-11.304-1.996-17.62-3.29-1.731-.31-2.795-.34-3.858-.37-5.739-.944-11.477-1.888-17.942-2.922-1.16-.12-1.595-.149-2.029-.18-3.086-.576-6.172-1.155-9.945-1.806q-.187-.053-.354-.105c1.241-1.179 2.929-1.664 4.702-1.46-1.664-.167-3.155.351-4.05 1.567 3.475.65 6.561 1.227 9.587 1.44.494.395.929.425 1.69.453.345-.27.388-.664.513-.848q.013-.02.027-.037a.2.2 0 0 0-.027.037c-.108.186-.054.593.213.937 6.138 1.037 11.877 1.98 17.564 2.538 1.115.415 2.178.445 3.64.48.851-.457 1.474-1.3 1.962-1.514-.473.222-1.006 1.103-1.295 1.795 5.917 1.29 11.55 2.42 17.222 3.285a209 209 0 0 0 17.47 1.91c1.801.734 3.53 1.11 5.651 1.505 1.081-2.46 2.457-2.964 4.637-2.573-2.168-.386-3.466.153-3.955 2.871 9.1 1.676 17.894 3.199 26.729 4.42 5.315.735 10.694 1 15.84 1.15.617.33 1.03.332 1.751.344.431-.208.663-.596.825-.699q.016-.011.033-.02l-.033.02c-.151.11-.312.539-.293 1.002 11.369 1.986 22.517 3.68 33.757 5.055.078-.759.06-1.2-.378-1.637-3.803-.56-7.172-1.21-10.567-1.662 3.395.451 6.763 1.103 10.73 1.305 2.21-9.774 3.833-19.19 5.456-28.604-2.821-.48-5.617-1.056-8.451-1.482 2.896.386 5.778.783 8.695 1.18.243-1.375.242-2.445.242-3.385-7.662-1.132-15.082-2.195-22.49-3.33-9.794-1.502-19.594-2.97-29.362-4.625-7.641-1.295-15.202-3.1-22.865-4.23-9.556-1.412-19.21-2.163-28.767-3.567-10.751-1.58-21.442-3.57-32.098-5.016 1.239.92 2.38 1.778 3.607 2.213-1.234-.436-2.416-1.302-3.998-2.29-1.513-.477-2.576-.512-3.638-.548-2.05.589-4.19 1.81-6.17 1.9 1.978-.095 4.097-1.357 5.986-2.263-7.832-1.76-15.452-3.347-23.135-4.508-10.8-1.632-21.67-2.794-32.468-4.438-13.493-2.053-26.931-4.449-40.41-6.59-11.404-1.81-22.838-3.429-34.247-5.204-12.21-1.901-24.41-3.885-36.613-5.834-10.266-1.64-20.536-3.26-30.797-4.936-5.926-.968-11.834-2.044-17.754-3.05-7.68-1.307-15.366-2.59-23.049-3.887-6.084-1.028-12.153-2.158-18.253-3.077-10.786-1.623-21.608-3.008-32.381-4.705-8.006-1.26-15.939-2.969-23.938-4.279-12.348-2.022-24.711-3.966-37.094-5.768-8.213-1.194-16.471-2.082-24.691-2.724.717.796 1.376 1.596 2.098 2.045-.74-.452-1.46-1.264-2.422-2.117-.783-.49-1.222-.525-1.662-.56-.214 4.908-3.525 2.525-5.73 2.214 2.203.306 5.495 2.648 5.556-2.572-4.402-1.033-8.631-1.707-12.813-2.04 1.784 1.548 3.812 3.918 5.383 4.526-1.58-.609-3.66-2.992-5.707-4.6-.813-.444-1.255-.473-1.697-.502-2.825 2.337-9.376 1.846-13.16-.37 3.776 2.196 10.293 2.617 12.988.011-5.315-.898-11.052-1.313-13.541-6.348-2.102-4.253 2.646-7.017 4.342-10.273-2.623-.308-4.64.33-6.022 1.586q-.23.21-.437.441.207-.232.437-.441c1.38-1.257 3.392-1.9 6.004-1.598.338.005.397.034.406.041v.002h.002c1.781-5.498 5.43-10.237 8.577-11.892-3.134 1.656-6.726 6.388-8.227 11.857 4.918-4.027 10.38-7.368 13.867-12.148 7.064-9.683 13.344-19.979 19.416-30.333a858 858 0 0 0 21.112-38.2c2.992-5.755 4.866-12.093 6.869-18.145l.357-.272c.805-1.079.921-1.986 1.037-2.894-.603-1.555-2.08-3.721-1.914-4.737-.162 1.014 1.346 3.165 2.28 4.551.43-4.344.655-8.509.525-12.662-.213-6.787-.31-6.776 6.414-7.217.808-.053 1.607-.246 2.41-.377 7.38-1.198 14.754-2.445 22.143-3.584 8.032-1.238 16.08-2.38 24.12-3.556 7.894-1.155 15.787-2.301 23.68-3.451 6.756-.985 13.51-1.982 20.268-2.95a5950 5950 0 0 1 21.773-3.07c8.391-1.17 16.797-2.242 25.172-3.51 6.73-1.018 13.396-2.479 20.141-3.36 10.194-1.33 20.443-2.23 30.646-3.493 8.698-1.077 17.363-2.4 26.041-3.627 6.613-.935 13.234-1.82 19.83-2.854 8.823-1.382 17.626-2.886 26.336-4.703.154.026.282.037.438.063 1.921.104 3.31-.342 4.732-.53 7.894-1.044 15.802-1.975 23.692-3.043 6.92-.936 13.82-2.029 20.736-3.002 8.058-1.133 16.13-2.164 24.184-3.326 8.042-1.16 16.064-2.463 24.105-3.63 6.929-1.007 13.875-1.897 20.809-2.866a4919 4919 0 0 0 22.246-3.162c8.04-1.16 16.084-2.293 24.111-3.537 6.887-1.067 13.733-2.427 20.635-3.375 7.427-1.02 14.914-1.588 22.346-2.58 7.711-1.03 15.377-2.41 23.082-3.494 10.48-1.475 20.99-2.75 31.47-4.227 10.762-1.517 21.503-3.17 32.252-4.771 7.715-1.149 15.433-2.28 23.141-3.473 7.352-1.137 14.671-2.518 22.047-3.467 7.452-.959 14.982-1.304 22.426-2.312 7.367-.998 14.645-2.644 22.004-3.719 8.22-1.2 16.508-1.935 24.728-3.133 12.703-1.85 25.357-4.037 38.063-5.87 14.808-2.138 29.646-4.066 44.476-6.052 10.58-1.416 21.175-2.738 31.752-4.175 11.45-1.557 22.884-3.23 34.334-4.792 6.756-.921 13.555-1.562 20.287-2.625 10.55-1.664 21.032-3.772 31.596-5.333 10.8-1.597 21.684-2.628 32.496-4.153 10.48-1.478 20.91-3.318 31.375-4.908 11.07-1.681 22.155-3.255 33.234-4.875 4.308-.63 8.617-1.246 12.922-1.893 5.125-.77 10.245-1.565 15.367-2.35 2.412-2.108 4.83-3.44 8.133-3.935-3.297.495-5.666 1.836-7.693 4.016 6.847-.914 13.245-1.962 19.662-2.89 9.963-1.442 19.939-2.802 29.805-4.565l.35.068c.867.394 1.305.345 1.743.295 1.53-4.034 5.08-3.382 8.094-3.516-3.008.135-6.514-.51-7.676 3.598a412 412 0 0 0 15.248-1.904c6.46-.936 12.911-1.95 19.149-3.233-1.412-1.302-2.722-1.588-3.988-1.443 1.333-.168 2.744.094 4.318 1.402.982.203 1.417.144 1.853.084 1.431-3.377 5.706-4.437 10.194-2.115.934.223 1.369.159 1.804.094.675-.125 1.352-.25 2.088-.317a9 9 0 0 0-1.75.407c1.457.028 2.591-.03 3.61-.424q.195.014.4.035c.655.37.869.318 1.082.264l.645-3.069c-.048.228-.347 1.647-.284 2.844 8.77-1.324 17.18-2.395 25.583-3.533a2043 2043 0 0 0 21.767-3.076c6.424-.94 12.829-2.028 19.26-2.914 8.363-1.153 16.762-2.056 25.113-3.284 7.864-1.155 15.686-2.593 23.451-4.242-.718-.43-1.427-.886-2.1-1.107.701.225 1.486.697 2.425 1.18.837.356 1.275.304 1.712.251 2.39-1.255 4.672-3.094 7.145-3.888-2.467.795-4.705 2.643-6.73 3.967 2.152-.24 3.881-.628 5.63-.86 4.361-.578 8.737-1.03 13.094-1.633 7.882-1.09 15.748-2.3 23.633-3.369 6.303-.854 12.635-1.488 18.934-2.369 8.192-1.145 16.365-2.426 24.543-3.674 3.934-.6 7.861-1.257 11.615-2.224-1.186-.695-2.273-1.503-3.28-1.623 1.012.119 2.136.923 3.62 1.574 1.288-.019 2.061-.324 2.834-.629.96-2.581 2.766-3.106 4.738-3.25-1.922.144-3.615.67-4.291 3.22 4.339-.372 8.247-.576 12.115-1.09 6.49-.86 12.953-1.92 19.346-3.29-2.418-.514-4.807-1.047-7.16-1.182 2.37.133 4.824.66 7.492 1.15.85.304 1.287.245 1.724.186 2.691-1.388 5.277-3.46 8.053-4.285-2.77.827-5.311 2.906-7.639 4.357 1.481-.247 2.527-.72 3.616-.863 10.327-1.357 20.66-2.659 30.933-4.342-1.118-.428-2.21-.782-3.283-.896 1.091.112 2.25.46 3.627.861 1.177.027 1.952-.277 2.727-.58l.224-3.346c-.072 1.08-.149 2.212.219 3.319 9.284-.074 18.126-.044 26.965-.194 5.39-.091 10.83-1.058 16.148-.562 7.865.733 15.634 2.468 23.457 3.683 14.817 2.302 29.654 4.498 43.416 11.147.322-1.636.176-2.646-.255-3.285.458.65.628 1.686.324 3.379-.122.416.04.56.06.576l.002.002c4.267-1.05 8.9-.034 12.248 2.277-3.313-2.26-7.898-3.205-12.053-1.996 5.616 3.313 11.036 6.343 16.659 9.027-.144-1.31-.598-2.537-1.29-3.648.722 1.142 1.2 2.408 1.36 3.762-.125.43.064.579.088.595l.002.002c4.95-1.817 8.007 1.936 11.5 4.094-3.493-2.158-6.548-5.912-11.317-3.818a460 460 0 0 0 11.457 8.588c3.86 2.802 7.758 5.553 11.653 7.95l.201.347c.669 1.138 1.261 1.614 1.853 2.09.679.387 1.358.774 2.053 1.247a11.5 11.5 0 0 0-1.943-.931c1.26 1.01 2.431 1.76 3.576 2.209q.22.197.443.414c1.045 1.455 1.962 2.256 2.88 3.056 3.02.203 5.064.955 6.617 2.895-1.543-1.857-3.576-2.521-6.577-2.54 3.344 4.118 6.648 7.88 9.961 11.253l.076.338c.33 1.146.63 1.6.928 2.052 1.503 2.403 3.005 4.806 4.477 7.282a192 192 0 0 0-4.44-6.914c2.528 4.523 5.022 8.717 7.737 12.734q.269.501.535 1.01c.091.958.392 1.422.693 1.887 1.156 1.881 2.312 3.764 3.436 5.72a112 112 0 0 0-3.405-5.35c1.905 3.593 3.78 6.853 5.877 9.932q.202.401.4.809c.092.958.395 1.422.696 1.887 2.08 2.81 4.507 5.43 6.184 8.464-1.677-3.034-4.104-5.654-6.153-8.093 9.404 17.91 18.72 35.48 28.184 52.97 2.36 4.36 5.186 8.467 7.818 12.3l.043.308c.318 1.147.618 1.599.918 2.053 1.531 1.967 3.29 3.802 4.551 5.93-1.262-2.128-3.02-3.961-4.518-5.557 3.38 6.816 6.615 13.32 10.114 19.681 2.076 3.775 4.566 7.322 6.89 10.578-.28-1.583-.353-2.986-.82-4.136.468 1.15.543 2.552.836 4.115-.004.3-.035.377-.047.394l-.002.002-.002.002c1.076 1.516 2.21 3 3.3 4.506-1.082-1.456-2.217-2.833-3.27-4.129 1.76 3.947 3.325 7.61 5.265 11.063 2.352 4.185 5 8.204 7.775 12.111l.235.555c.093.957.39 1.422.69 1.886 2.016 3.418 4.034 6.835 6.052 10.616 0 .318-.036.38-.045.39l-.002.002c1.158 1.887 2.315 3.773 3.442 5.735a111 111 0 0 0-3.41-5.364c1.903 3.592 3.78 6.85 5.876 9.93q.2.4.397.805c.094.957.394 1.42.695 1.885a282 282 0 0 1 3.18 5.488 121 121 0 0 0-3.147-5.117c1.849 3.485 3.67 6.66 5.5 9.51q.27.528.541 1.072c.326 1.14.627 1.594.928 2.047 1.101 1.211 2.463 2.282 3.36 3.603-.897-1.315-2.255-2.346-3.329-3.232 3.925 7.302 7.82 14.246 11.961 21.007l.317.735c.093.956.395 1.419.697 1.883.95 1.491 1.9 2.983 2.824 4.55a72 72 0 0 0-2.795-4.181c1.57 2.935 3.115 5.545 4.871 7.98q.202.405.4.82c.77 2.303 1.737 4.067 2.704 5.83.341.39.682.779 1.027 1.256a5.2 5.2 0 0 0-.998-.927c.612 1.014 1.199 1.761 1.795 2.217q.12.224.24.474c.662 1.793 1.296 2.89 1.928 3.985.25.279.497.557.723.9a2.3 2.3 0 0 0-.696-.59c.33.736.631 1.188 1.147 1.483q.066.176.125.375c.447 1.607 1.084 2.714 1.72 3.822a16 16 0 0 1 1.01 1.238 5 5 0 0 0-.984-.908c.603 1.003 1.186 1.742 1.777 2.197q.129.244.258.52c3.333 6.803 6.635 12.878 9.938 18.953.338.388.678.776 1.021 1.254q-.504-.59-.998-.924c.606 1.01 1.193 1.755 1.79 2.21q.122.235.247.497c.995 2.465 1.96 4.217 2.926 5.969.429.466.862.967 1.299 1.52-.435-.523-.86-.923-1.272-1.173.68 1.468 1.332 2.587 2.01 3.428a7.6 7.6 0 0 0 .049-1.191c5.792.379 6.012 4.38 5.93 9.01.306 1.2.624 1.98.958 3.08-.334-1.1-.651-1.88-1.312-2.669-1.03-.017-1.72-.027-2.484.346 1.544 4.81 3.165 9.235 5.05 13.445a93 93 0 0 0-.423-4.697c.186 1.605.35 3.27.472 5.04.09 1.327.396 2.098.703 2.868.18-.01.36-.02.967-.355.743-1.697 1.724-3.352 1.662-4.615.066 1.262-.885 2.917-1.394 4.607.15 1.113.46 1.909.795 3.027 3.376 3.242 5.696 6.426 2.396 11.145-.32.195-.333.666-.326.902.726 1.796 1.817 3.428 2.397 5.069-.58-1.629-1.67-3.216-2.39-4.832-.174 3.178-.349 6.357-.773 10.162a15 15 0 0 0-.33 2.85c-.009 1.25-.018 2.5-.14 3.859.079-1.287.008-2.52-.217-3.674-.363 2.05-.375 3.917-.045 5.695l-.068.383c-.466.853-.504 1.292-.54 1.733-.016.86-.03 1.72-.165 2.697.1-.903.043-1.756-.17-2.531-.356 1.4-.376 2.635-.067 3.796l.026-.1q-.046.209-.1.423c-.443.836-.48 1.275-.52 1.715-.058.649-.118 1.299-.53 2.318-.307.81-.26 1.25-.212 1.69.598.775 1.195 1.55 2.17 2.591 3.095-6.38 4.5-13.156 4.672-20.113-.17 6.975-1.576 13.815-4.668 20.453-1.33 2.424-2.183 4.825-3.289 7.103 1.106-2.278 1.96-4.679 2.912-7.369-.603-1.115-1.2-1.89-1.959-2.32-1.466 4.445-2.771 8.544-3.687 12.648.592-.486 1.141-.947 1.609-1.425-.465.48-1.006.945-1.588 1.437-.322.006-.384-.024-.394-.031l-.002-.002a32 32 0 0 1-.793 2.506c.283-.835.446-1.635.459-2.381-.696 1.397-1.058 2.67-1.074 3.861.055-.11.095-.215.146-.324-.084.19-.127.35-.223.549a1.38 1.38 0 0 0-.515.768c-.218.838-.435 1.677-.745 2.542.227-.83.359-1.636.4-2.406-.714 1.557-1.148 3.002-1.278 4.395q-.16.294-.34.595c-.8 1.1-.915 1.995-1.03 2.891-.203 3.84-1.505 7.013-3.527 9.818 1.942-2.776 3.162-5.917 3.195-9.695-3.736 5.643-7.15 11.166-10.216 16.672l-.41.322c-1.445 1.039-2.245 1.955-3.045 2.871-2.43 2.683-4.86 5.364-7.633 8.051-.301.004-.366-.036-.377-.047l-.002-.002c-.761 2.12-1.38 4.383-2.668 6.022 1.2-1.626 1.73-3.882 2.312-5.987-3.113 2.676-5.872 5.315-8.418 8.217.95.105 1.778.086 2.504-.035-.816.162-1.76.203-2.86.1-12.659 6.43-24.75 13.06-36.84 19.69-2.372 1.405-4.616 3.215-7.075 4.335 2.448-1.12 4.635-2.924 6.658-4.299-2.965.445-5.586.597-8.047 1.305-9.964 2.865-19.897 1.843-29.851.084-12.293-2.172-23.702-6.847-35.012-11.963-6.326-2.86-11.968-6.112-14.88-12.797-.293-.67-1.143-1.097-1.733-1.637a111 111 0 0 1-2.065-3.298 45 45 0 0 0 2.022 2.937c-1.225-2.226-2.415-4.157-3.606-5.783a51 51 0 0 1-.414-.822c-.327-1.134-.63-1.584-.931-2.035-.85-.86-1.7-1.72-3.133-2.735-.677.574-1.15 1.434-.98 2.008-.171-.575.287-1.447.716-2.213.498-.611.675-1.174 1.064-2.234-.093-1.27-.398-2.043-.705-2.815-2.708-.562-3.543-1.68-3.601-3.076.065 1.287.904 2.285 3.574 2.658-.665-3.143-1.301-5.867-2.225-8.357-.222 1.851-1.368 3.932-1.345 5.574-.017-1.747 1.1-3.902 1.293-5.943.163-1.343.094-2.083.023-2.823-1.032-2.35-2.662-4.646-3.224-7.04.564 2.388 2.202 4.635 3.318 6.607-.225-3.673-.598-6.906-.854-10.15-.707-8.986-1.207-17.99-2.078-26.96-1.528-15.739-3.225-31.463-4.959-47.181-.418-3.794-1.255-7.542-2.277-11.244-.355 1.87-.661 3.721-.687 5.539.023-1.834.322-3.748.644-5.867.359-.837.384-1.278.408-1.72-.19-.92-.38-1.84-.322-3.22.184-.894.12-1.33.055-1.766-.755-.836-1.999-1.64-2.477-2.494.482.842 1.739 1.577 2.563 2.055-.567-6.446-1.613-12.441-1.786-18.46-.31-10.839.145-21.697-.181-32.534-.249-8.27 2.522-15.713 5.931-22.8 3.328-6.919 7.91-13.233 11.565-19.817-3.235.025-4.8 1.53-5.867 3.455 1.08-1.967 2.664-3.545 5.959-3.674.467-.213.56-.674.56-.674-.947-4.355 3.507-11.095 8.447-12.469.486-1.107.522-1.852.56-2.597-.51-.825-1.495-1.732-1.64-2.494.15.76 1.174 1.647 1.996 2.324 1.454-6.722 2.55-13.273 3.254-19.787-.456.186-.906.342-1.261.506.398-.187.943-.385 1.574-.65.726-1.084.749-1.985.771-2.886-1.074-1.697-2.764-3.314-3.353-5.076.59 1.756 2.29 3.324 3.447 4.639-.87-15.753-3.639-30.531-12.947-43.229l-.168-.468c-.093-.973-.4-1.433-.71-1.893-.683-.536-1.483-1.001-2.18-1.53.682.488 1.46.86 2.073 1.188-4.444-8.25-8.782-16.159-13.328-23.707.034 1.032.022 2.02.106 2.924-.094-.921-.102-1.937-.172-3.035.132-.443-.055-.598-.078-.615l-.002-.002c-1.142-1.086-2.557-2.027-3.588-3.172 1.023 1.13 2.404 2.012 3.418 2.875-3.271-5.977-6.373-11.656-9.684-16.967 1.624 4.554 3.245 8.852 5.389 12.871-2.144-4.02-3.764-8.317-5.457-12.986.131-.454-.062-.608-.086-.625l-.002-.002c-1.277.453-2.135.471-2.61.06.454.33 1.267.24 2.46-.324-.836-1.166-1.522-2.068-2.489-2.754-.316.941-.445 1.696-.384 2.242-.099-.61.016-1.464.328-2.56-.41-1.322-1.044-2.108-1.676-2.895-1.304-.745-2.577-1.536-3.894-2.261 1.273.66 2.553 1.324 3.79 1.94-5.264-5-9.273-11.28-16.964-12.061 2.103 2.324 4.01 4.565 6.355 6.162-2.345-1.597-4.253-3.838-6.66-6.301-1.088-.838-1.872-1.165-2.656-1.492-2.431-.038-5.026.468-7.266-.205 2.24.673 4.834.167 7.12-.13-6.146-1.967-12.08-3.906-18.157-5.167-9.898-2.055-19.864-2.363-29.49.771 2.223.559 4.386 1.379 6.414 1.567-2.044-.186-4.27-.999-6.742-1.528-1.002-.19-1.436-.123-1.87-.056-.734.69-1.411 1.776-2.18 2.24.757-.466 1.37-1.566 1.776-2.317-1.796.251-3.177.645-4.584.891-6.391 1.12-12.156 3.57-16.845 8.18.533.317 1.01.616 1.35.648-.35-.028-.882-.317-1.67-.592-1.315.412-2.1 1.045-2.888 1.678.283 2.06-.158 3.495-1.228 4.465.996-.949 1.357-2.356.912-4.361-2.11 2.046-3.903 3.99-5.312 5.943q1.012-.1 1.863-.314-.949.253-2.108.379c-.794.33-.96.608-1.129.886-1.745 4.786-2.845 9.944-5.353 14.29 2.508-4.346 3.608-9.505 5.023-14.175-1.165 1.298-2.122 2.413-2.818 3.672-5.27 9.544-10.023 19.41-15.83 28.612-8.95 14.18-18.408 28.053-28.059 41.77-4.272 6.072-9.544 11.442-14.013 17.325 1.632-.689 3.394-1.249 4.902-1.998-1.519.758-3.308 1.337-4.998 2.067-.417-.119-.56.043-.576.064l-.002.002c2.229 3.827-.82 5.715-2.807 7.772 1.984-2.055 5.002-3.923 2.537-7.594-4.861 5.19-9.454 10.205-13.644 15.232a9.6 9.6 0 0 0 1.914.028c-.688.08-1.43.092-2.244.011-1.832 1.006-2.933 1.987-4.033 2.967.44.813 1.355 2.198 1.345 2.469.009-.27-.924-1.65-1.668-2.367-5.894 5.08-11.464 10.057-16.695 15.252.613.227 1.144.473 1.48.498-.344-.02-.908-.25-1.644-.42-.502-.141-.658.183-.658.183.14.246.387.49.447.737-.064-.244-.342-.47-.732-.57-4.163 3.51-8.04 6.854-11.569 10.24.474.083 1.005.057 1.569-.037-.668.131-1.3.167-1.868.08-1.103.292-1.557.582-2.011.873-1.087 1.891-1.796 4.26-3.172 5.787 1.371-1.525 2.044-3.88 2.842-5.674-9.019 8.212-19.1 14.28-29.694 19.396-8.119 3.921-16.641 7.006-24.728 10.768 2.553-.097 5.075-.076 7.44-.438-2.382.367-4.955.358-7.683.495-.498-.25-.974-.102-.974-.102-.143.288-.354.512-.82.75-.166.068-.221.024-.233.012l-.002-.002c-.388 3.717-2.68 4.346-5.139 4.676 2.415-.327 4.602-.956 4.745-4.637-5.452 1.697-10.508 3.353-15.352 5.271 1.819.257 3.732.806 5.25.59-1.528.218-3.492-.325-5.556-.547-.983.083-1.446.386-1.91.688-.859.971-1.58 2.389-2.518 3.101.926-.712 1.582-2.125 2.105-3.074-13.089 2.366-25.704 5.154-38.46 6.922-13.57 1.881-27.274 2.796-40.919 4.139-3.067.302-6.127.826-9.199.896-4.831.111-9.68.104-14.502-.185-5.183-.311-10.344-1.004-15.459-1.159.887.723 1.743 1.535 2.602 2.172-.91-.65-1.854-1.475-2.926-2.248-.817-.4-1.255-.353-1.693-.306-2.55.292-5.15 1.003-7.659.953 2.504.047 5.064-.684 7.295-1.133-.61-.392-.833-.754-1.105-.795-20.486-3.096-39.926-10.139-59.748-15.75-10.687-3.025-21.473-5.698-32.23-8.469-10.46-2.694-21.122-3.477-31.87-4.445-9.383-.845-17.371 1.67-25.484 4.65 5.095-.396 9.938-1.43 14.82-1.68-4.882.25-9.726 1.284-15.15 1.731-1.333.157-2.1.547-2.867.938-.479.86-.83 2.078-1.332 2.873-.134.211-.273.404-.434.539.162-.138.305-.323.434-.54.473-.793.741-2.01.964-2.855-8.546 4.207-16.976 7.986-24.797 12.762-3.857 2.355-6.6 6.532-9.644 10.164l-.34.098c-.96.098-1.416.413-1.873.728-.387.667-.774 1.336-1.248 2.022.395-.66.703-1.305.928-1.924-1.007 1.238-1.75 2.395-2.201 3.53q-.213.233-.448.472c-1.415.98-2.155 1.816-2.894 2.652 2.099.867 1.96 1.896 1.244 3.04.7-1.136.782-2.14-1.524-2.907-6.813 7.76-13.141 15.383-17.92 24.451-10.185 19.33-15.848 39.626-15.822 61.442.01 8.567.592 17.134.971 25.699.023.529.56 1.035 1.158 1.285.565-4.215 1.464-8.343 1.604-12.344-.138 4.019-1.028 8.21-1.559 12.672-.194 1.03-.133 1.464-.072 1.898.81 1.297 2.15 2.553 2.554 3.881-.405-1.322-1.754-2.525-2.644-3.42.245 11.337.59 22.213.91 33.09.078 2.65-.207 5.34.15 7.946 1.394 10.148 2.455 20.285 1.182 30.511.901.079 1.586.006 2.11-.177-.582.235-1.361.35-2.416.296-1.497.451-2.268.791-3.04 1.131-1.146.462-2.287 1.109-3.433 1.59 1.091-.489 2.119-1.168 3-1.676-10.833-1.586-21.238-3.053-31.631-4.597-7.555-1.123-15.095-2.346-22.613-3.176l-.45-.348c-1.072-.712-1.973-.745-2.873-.779-1.694 3.118-3.886 3.17-6.11 2.602 2.168.548 4.244.454 5.696-2.708-3.802-.455-7.215-.649-10.574-1.183-18.025-2.867-36.035-5.818-53.978-8.397 2.655 2.192 5.58 3.286 8.601 3.936-3.088-.659-6.123-1.772-8.968-4.014-1.184-.373-1.926-.325-2.67-.277-3.212 3.589-7.181 3.829-13.319-2.691-.805-.364-1.241-.311-1.678-.258-1.72 2.92-3.963 3.092-6.148 2.562 2.132.51 4.262.302 5.734-2.662-1.826-.432-3.224-.85-4.652-1.084-10.256-1.676-20.522-3.288-30.777-4.973-8.006-1.314-15.985-2.81-24.004-4.035-15.388-2.35-30.796-4.568-46.14-6.482 1.08 1.028 2.062 2.194 3.13 2.842-1.085-.65-2.128-1.83-3.453-2.916-.816-.385-1.254-.337-1.691-.287-.715.695-1.514 1.965-2.174 2.283.651-.32 1.395-1.604 1.765-2.383-1.48-.429-2.53-.903-3.625-1.064-13.332-1.968-26.67-3.889-39.941-5.481 1.9 1.148 3.691 2.435 5.576 3.111-1.895-.679-3.737-1.979-5.898-3.193-.832-.459-1.273-.495-1.715-.531-.583.766-1.114 2.069-1.742 2.357.627-.29 1.147-1.619 1.6-2.662-.72-.247-1.317-.065-1.872-.15-11.34-1.747-22.677-3.523-33.998-4.916.947.885 1.832 1.813 2.787 2.34-.972-.53-1.92-1.471-3.111-2.413-.778-.403-1.216-.356-1.654-.308-.329.776-.829 2.19-1.012 2.424.18-.235.649-1.665.644-2.606-4.748-.766-9.181-1.375-13.554-1.676a63 63 0 0 1-1.088-.49c.963-8.272 2.04-15.747 3.152-23.455l-29.394-4.738-14.106 83.861 29.22 4.842 5.015-23.672c-.001-.233.018-.576.029-.873.012.36.1.648.377.986 2.861.375 5.317.637 7.69.543-.557-.21-1.1-.344-1.651-.525.697.22 1.27.325 2.014.588 1.182.463 1.917.508 2.652.553 2.048-.3 4.094-.598 6.508-1.288-5.148-1.767-10.653-3.183-16.202-4.398 5.55 1.215 11.054 2.63 16.618 4.38 1.474.7 2.898 1.025 4.695 1.35.454-.401.673-1.115.775-1.29-.097.175-.272.888-.402 1.29 3.632.995 7.265 1.99 11.35 3.407 1.188.46 1.924.497 2.66.535.467-.181 1.076-.375 1.637-.565-.6.213-1.083.48-1.487.914 1.394.371 2.636.393 3.783.186-.416-.601-.738-.975-1.382-1.373-.228.056-.434.114-.633.176.248-.08.39-.15.681-.235.373-.034.473-.15.43-.535 3.718.098 7.482-.849 11.05-.361-3.568-.488-7.333.459-11.007.746 0 0-.1.114-.148.174.272.432.593.806 1.336 1.465.86.332 1.298.377 1.736.423 1.633.111 3.257.278 4.894.36-1.59-.028-3.179-.033-4.716.008 1.762.64 3.34.955 4.931 1.18 7.652 1.077 15.307 2.13 22.873 2.833-4.179-1.096-8.29-2.09-12.416-2.867 4.14.78 8.31 1.785 12.737 2.928.84.453 1.274.488 1.707.523 2.839.031 5.726-.258 8.506.164 4.825.733 9.584 1.907 14.826 3.317 1.19.46 1.926.494 2.662.531 1.095-.314 2.192-.628 3.586-1.342-1.077-.827-2.223-1.704-3.432-2.383 1.258.676 2.502 1.53 3.799 2.338.507.38.944.403 1.709.409a20.1 20.1 0 0 1 5.88-1.202 18.8 18.8 0 0 0-5.552 1.182c6.413 1.334 12.83 2.65 19.234 4.023a1059 1059 0 0 0-19.562-4.003c-.765-.006-1.201-.03-2.006-.01-1.464.36-2.56.673-3.486 1.357 1.757.642 3.34.954 4.933 1.18 7.653 1.085 15.307 2.149 22.866 2.861-.728-.526-1.386-.928-2.053-1.18.686.254 1.416.666 2.418 1.237 1.198.45 1.934.482 2.672.515 5.624.69 11.247 1.382 17.328 2.495 1.193.455 1.931.49 2.668.523.94.033 1.884.07 2.97.244.424.068.864.153 1.34.272.825.412 1.257.445 1.69.478.99.046 1.98.093 3.383.504 1.146.418 1.878.47 2.61.522.191-.273.38-.546.714-1.309-5.395-2.212-10.853-4.28-16.49-5.56 5.637 1.28 11.096 3.348 16.718 5.435.521.408.957.452 1.721.473 1.059-1.764 2.34-2.364 3.674-2.453-1.266.1-2.446.704-3.346 2.431 4.625 1.008 9.25 2.015 14.34 3.436 1.203.449 1.94.484 2.676.52.984.057 1.97.115 3.328.534.805.405 1.237.45 1.668.493 3.346.045 6.751-.298 10.03.199-3.279-.497-6.684-.155-9.87.162a246 246 0 0 0 17.887 3.578c12.034 1.935 24.071 3.858 36.138 5.564 6.927.98 13.916 1.526 20.768 1.909-.4-.53-.71-.957-1.037-1.135.339.179.704.614 1.402 1.191 1.21.455 1.944.493 2.68.532.673.059 1.347.117 2.41.515 1.126.379 1.86.42 2.596.46 2.782.248 5.564.497 8.49.894a64 64 0 0 0-8.31-.522c4.06.715 7.942 1.059 11.73 1.047l.377.067c.845.462 1.276.501 1.707.539.678.054 1.357.106 2.443.515 1.457.407 2.505.46 3.553.512.67.06 1.337.12 2.402.517 1.131.378 1.867.416 2.602.456.988.044 1.977.089 3.42.502 2.834.727 5.211 1.088 7.59 1.447.785-.317 1.569-.634 2.603-1.365-.95-.35-1.954-.614-2.935-.913 1.095.307 2.166.5 3.275.856.517.392.944.427 1.69.433 1.042-.535 1.945-1.49 2.697-1.757-.743.266-1.595 1.216-2.377 1.73.665.414 1.33.829 2.412 1.602 1.154.392 1.89.427 2.627.46.671.063 1.342.125 2.43.534 1.466.39 2.517.432 3.568.474.702.027 1.41.06 2.246.217-.756-.14-1.471-.105-2.11.117 1.07.353 2.005.371 2.885.082a6 6 0 0 0-.77-.199c.34.065.696.145 1.089.262.801.417 1.23.464 1.66.512.477-.315.955-.63 1.66-1.36-4.02-4.557-9.68-3.663-14.824-4.492 5.144.83 10.805-.066 15.125 4.428 2.45.715 4.827 1.08 7.61 1.414 1.256-1.152 2.507-1.797 3.724-1.928-1.112.154-2.237.788-3.32 1.899.358.411.716.822 1.447 1.58 1.107.391 1.842.437 2.576.482.99.04 1.98.08 3.35.49.813.298 1.248.225 1.695-.21-.995-1.924-2.152-3.197-3.383-3.823 1.319.63 2.567 1.929 3.703 3.908.752.486 1.194.524 1.635.56-.05-.194-.102-.388-.12-.884.018.496.07.691.218 1.205.722.372 1.347.423 1.923.164-.735-.765-1.42-1.218-2.14-1.37l.197-.192c.634.42 1.294.863 2.307 1.623 1.15.409 1.888.446 2.625.482.795-.113 1.653-.2 2.6-.248-.902.046-1.72.227-2.473.58 1.369.123 2.612-.087 3.66-.57a10 10 0 0 0-.79-.02c.37-.01.688-.042 1.112-.029.95.17 1.381.117 1.813.063 1.01-.286 2.022-.572 3.195-.791-1.075.215-2.03.533-2.81.9 1.814-.211 3.245-.532 4.466-1.137q-.27.024-.533.055.434-.058.902-.102c2.333-.398 4.087-1.034 5.842-1.67 2.56-1.369 5.122-2.738 7.89-4.14a128 128 0 0 0-7.486 4.148c4.673-.974 9.472-.97 11.221-5.992l.287-.139c1.472-1.013 2.29-1.924 3.108-2.835.223-.517.445-1.035.755-1.573a5 5 0 0 0-.437 1.48c.704-.956 1.137-1.834 1.277-2.683q.137-.165.291-.334c.757-.488.903-.83 1.026-1.514-1.375-.92-2.461-1.195-3.36-1.072.964-.17 2.142.082 3.66 1.028 1.13-.606 1.935-1.51 2.739-2.414-.09-.142-.18-.282-.36-.657.18.375.27.516.69.592.697-1.025 1.062-1.986 1.107-2.896-.843.723-1.364 1.395-1.797 2.302-.705-.91-1.285-1.768-1.603-2.547.31.716.857 1.5 1.514 2.313.522-.673 1.044-1.345 1.962-2.295.397-.277.528-.736.528-.736-.004-.766-.008-1.532-.457-2.666-2.552.264-3.624.976-3.795 1.955.141-1.067 1.196-1.883 3.74-2.336.416-.447.443-.882.453-1.645-.01.763-.036 1.198-.008 2.014.059 1.146.062 1.911.416 2.547.685-1.74 1.02-3.352 1.057-4.98-.692.017-1.085.053-1.465.417-2.628-1.885-2.63-1.883.535-7.289.38-.506.428-.93.446-1.672-.803-1.165-2.044-2.072-2.551-3.017.507.935 1.744 1.791 2.521 2.697.392-.993.783-1.987 1.563-3.4.337-1.135.287-1.848.236-2.563-.41-2.189-.82-4.38-1.01-7.197.248-1.38.275-2.13.301-2.88a29 29 0 0 1-.27-2.517c.064.868.252 1.66.6 2.383.105-1.374-.121-2.617-.613-3.658-.013.223-.008.432-.008.645-.01-.343-.044-.627-.035-1.02a16.4 16.4 0 0 0 .293-2.842c-.19-1.848-.382-3.696-.475-5.654.136 1.884.411 3.722.83 5.494.045-3.008-.252-5.863-.882-8.625q.004-.265.011-.535c.353-1.164.305-1.878.256-2.592-.242-1.102-.484-2.205-.685-3.43.22 1.139.492 2.15.799 3.038-.253-2.26-.61-4.163-1.14-5.698l-.04-.511c.179-1.289.128-1.877.078-2.465-.426-.165-.852-.33-1.812-.717-.561 1.123-.55 2.47-.622 3.812.072-1.342.06-2.69.387-4.076.637-.673.972-1.305 1.711-2.418.319-1.053.235-1.625.15-2.197-.515-.26-1.03-.52-1.681-1.105-.744-.713-1.82-1.182-2.22-1.657.396.465 1.45.882 2.083 1.33.178-.016.356-.031.846-.474.265-2.43.219-4.434-.201-6.557-.668-1.52-1.173-2.913-1.223-4.322a7.06 7.06 0 0 0 1.334 3.861c.774-8.758 1.37-17.18 1.248-25.592-.087-6.037-1.99-12.122-1.564-18.078.821-11.509 1.801-23.075 6.773-33.879 7.536-16.376 16.964-31.244 32.64-40.96 8.908-5.521 18.138-10.038 29.415-9.198 11.36.846 22.076 3.64 32.865 6.969 17.805 5.495 35.76 10.528 53.764 15.34 11.237 3.003 22.567 6.447 34.058 7.533 15.88 1.5 31.952.976 47.943 1.277 1.128.022 2.26-.327 3.395-.472 6.317-.81 12.618-1.781 18.955-2.366 7.235-.666 14.523-.78 21.748-1.521 5.419-.556 10.783-1.673 16.154-2.633 4.466-.798 8.97-1.492 13.344-2.658 8.589-2.29 17.161-4.687 25.61-7.44 3.232-1.053 6.106-3.202 8.96-5.037a3 3 0 0 0-.654-.404c-6.17 1.862-12.339 3.724-18.709 5.606 6.297-1.897 12.463-3.83 18.569-5.88.298.348.455.421 1.115.606 1.27-.26 2.038-.63 2.807-1 1.164-1.171 2.328-2.345 3.814-3.582.407-.748.459-1.926.67-2.256-.2.33-.173 1.491.04 2.178-.108.021-.21.055-.32.076-1.876 1.241-3.04 2.41-3.804 3.692 3.363-.635 6.57-.885 9.248-2.208 11.796-5.826 23.62-11.643 35.05-18.138 4.602-2.615 8.23-6.945 11.94-10.586l.063.002c.247.07.32.067.341.055l.002-.002.002-.002.002-.002v-.002l.002-.002v-.006l-.002-.002v-.002c3.401-3.467 6.67-7.08 10.237-10.367-3.567 3.288-6.835 6.9-9.871 10.383 7.98-6.007 15.66-11.95 23.191-18.077 5.528-4.498 10.613-9.578 16.36-13.761 4.317-3.144 8.576-6.09 11.033-10.979l.365-.21a14 14 0 0 0 1.67-1.026s-.285-.23-.315-.41c-.083-.806-.144-1.476-.013-2.159-.13.674-.055 1.28.12 1.602.172-.905.206-1.433-.046-1.914.467-.121.647-.195.904-.65-.812-1.69-1.676-2.467-2.68-2.16 1.03-.325 1.958.423 2.948 2.04.19.262.67.332 1.22.325 1.566-1.314 2.587-2.618 3.606-3.924.048.003.18-.044.209-.389.054-1.019.07-1.619.088-2.201q.12-.127.248-.258c-.263.786-.28 1.394-.047 2.557 8.369-8.923 16.793-18.16 24.492-27.967 4.703-5.99 8.293-12.857 12.383-19.33 0 0-.298-.285-.445-.428-2.411 2.567-4.773 5.198-6.915 8-5.084 6.654-10.062 13.39-15.556 20.48a204 204 0 0 0-3.174 2.884c-2.796 3.564-5.591 7.129-8.7 10.832a1.4 1.4 0 0 1-.322.11v-.007c.891-3.628 1.448-7.495 4.57-9.535-3.103 2.034-3.603 5.874-4.259 9.396 3.118-3.667 5.914-7.231 8.334-10.75 1.277-.877 2.178-1.71 3.236-2.806 2.757-4.88 5.245-9.563 7.985-14.092-2.74 4.53-5.23 9.212-7.514 13.703 5.336-6.825 10.316-13.56 15.4-20.215 2.142-2.802 4.504-5.435 6.899-8.478 1.37-2.122 2.61-3.908 3.984-6.024-.136.329.163.623.635.633 3.447-5.288 6.384-10.607 9.406-15.877 3.222-5.618 6.37-11.287 9.846-16.746 2.435-3.824 4.63-8.983 8.248-10.598 5.61-2.503 12.345-3.386 18.596-3.355 11.59.057 20.384 4.919 25.73 16.195 6.55 13.816 14.127 27.16 21.584 40.528 4.467 8.006 6.113 16.783 3.59 25.037-2.295 7.507-7.25 14.339-11.715 21.011-5.631 8.417-10.71 16.936-12.215 27.143a23 23 0 0 0 1.284-.088c3.364-8.077 7.005-15.861 11.697-23.137-4.643 7.297-8.16 15.123-11.106 23.344.735.44 1.303.623 2.147.596-1.664 6.43-3.013 12.66-4.504 18.857 1.49-6.196 2.84-12.427 4.229-18.648-.569-.183-1.137-.365-2.297-.754-.878-.194-1.164-.182-1.506.047-.086.52-.058.817.025 1.11a8.7 8.7 0 0 1-.203 1.456c.106-.488.092-.92.004-1.287-.388.928-.575 1.685-.363 2.293a4.6 4.6 0 0 0 .312-.82c-.086.32-.195.658-.371 1.052-.497.706-.477 1.026-.398 1.34a326 326 0 0 1-1.127 7.686c-.392 3.08-.627 5.515-.485 7.908-.457 3.375-.538 6.709-.613 10.498.588 1.523 1.611 2.703 1.844 3.826-.234-1.11-1.26-2.188-1.862-2.904.011 4.832.046 9.198.467 13.465-.116 1.514.156 2.926.422 4.703 1.602.463 2.064 1.036 1.764 1.73.243-.621-.285-1.045-1.994-1.168a8 8 0 0 0-.024.444q.002-.374.03-.809c-.04-1.974-.312-3.386-.584-4.799-.034-4.367-.07-8.734-.086-14.023.097-4.254.178-7.587.26-10.92.234-2.435.47-4.872.69-7.713-.18-.402-.35-.397-1.099-.174-.977 10.81-1.607 21.395-1.687 31.987-.06 7.77.46 15.556.988 23.316.422 6.197 1.353 12.356 1.863 18.549.56 6.782.661 13.608 1.383 20.369.988 9.253 2.673 18.436 3.502 27.7.787 8.792.546 17.676 1.322 26.47a589 589 0 0 0 3.969 33.646c.733 5.001 2.558 9.842 4.145 14.573-.306-6.379-.868-12.576-1.43-18.772-.965-4.188-2.007-8.36-2.852-12.572-.289-1.44-.084-2.979-.392-5.182l-.035-.431c.585.97 1.22 1.834 1.722 2.68-.466-.747-1.028-1.421-1.441-1.981.061 1.935-.143 3.474.146 4.914.845 4.212 1.887 8.386 3.14 12.363.275 6.407.837 12.601 1.196 19.303.178 1.27.56 2.034.942 2.797 2.409 3.435 5.1 6.707 7.166 10.338-2.066-3.63-4.757-6.904-7.264-9.979 2.854 5.962 5.614 11.674 8.797 17.14 6.608 11.35 13.959 22.04 26.728 27.456 4.773 2.024 9.535 4.108 14.155 6.455 19.335 9.823 40.072 13.866 61.5 14.38 6.255.151 12.58-1.687 18.837-2.816 5.586-1.007 11.635-1.242 16.58-3.658 13.455-6.573 26.796-13.541 39.464-21.498 7.778-4.886 14.402-11.693 21.222-17.988 4.535-4.185 8.929-8.665 12.645-13.572 13.16-17.384 21.168-37.258 26.107-58.284 2.155-9.176 2.708-18.76 3.537-28.199.31-3.524-.667-7.162-1.056-10.748-.595 1.12-1.19 2.241-1.813 4.092-.038 1.459-.046 2.187-.055 2.916.016.235.023.76.036 1.096-.023-.437-.1-.755-.317-1.04.289-.784.297-1.515.277-2.607-.544-2.671-1.06-4.98-1.228-7.351a172 172 0 0 0-1.936-15.477c.87 5.12 1.532 10.273 2.284 15.412.696.37 1.392.741 2.515.666.019-3.847-.39-7.247-.799-10.648a7 7 0 0 1-.566-.969c.18.294.404.525.654.672-.193-.739-.467-1.203-.945-1.526a6 6 0 0 1-.084-.416 187 187 0 0 0-4.959-17.773c-.47.014-.656.02-.828.377-1.433-2.79-3.537-5.18-4.426-7.768.888 2.583 2.991 4.936 4.41 7.418.188-.006.375-.014.8-.421-3.135-9.195-5.722-18.395-10.032-26.702-10.59-20.407-22.003-40.389-33.031-60.57-12.282-22.473-24.51-44.974-36.75-67.469-16.84-30.946-33.658-61.905-50.512-92.843-10.067-18.48-19.825-37.143-30.451-55.297-4.502-7.692-10.352-14.795-16.555-21.233-5.52-5.73-12.315-10.248-18.656-15.162-6.972-5.402-13.83-11.009-21.178-15.855-7.435-4.904-15.202-9.416-23.201-13.327-11.138-5.444-22.905-9.163-35.43-9.902 2.2 1.016 4.4 2.034 7.268 3.319 4.578 1.342 8.46 2.545 12.406 3.464-3.947-.919-7.828-2.122-12.168-3.213-3.68.128-7.202.485-10.398-.638 3.146 1.096 6.518.68 9.732.369-2.438-1.268-4.639-2.283-7.162-3.365-.762-.093-1.201-.12-1.84.125-1.762.154-3.325.038-4.846.287-1.082-.467-2.123-.569-3.556-.69-.896 1.692-1.633 2.002-2.297 1.694.55.192 1.097-.236 1.656-1.957-.2-.052-.384-.087-.574-.13.36.066.545.059.967.15 1.682.365 2.722.466 3.763.568 1.563.116 3.124.231 4.707-.278-3.317-1.267-6.652-1.925-9.994-2.549-10.328-1.926-20.624-4.184-31.111-4.517m323.123 416.174c.169 2.372.684 4.681 1.258 6.623.651-1.487 1.247-2.608 1.896-4.043.004-.736-.047-1.157-.408-1.555-1.007-.348-1.702-.72-2.746-1.025m-837.785 61.254c.652.585 1.166.845 1.572.851-.287-.577-.463-.9-.908-1.225-.445.015-.623.032-.664.374m2.088 51.048c-.018.743-.066 1.166.03 1.819.432.425.718.62 1.372.64.378-2.08.388-3.984.07-5.824-.719 1.059-1.11 2.053-1.472 3.365m-57.356 32.602c-2.782-.335-5.16-.698-7.838-.998-.777.379-1.254.693-1.548 1.379a63.7 63.7 0 0 0 10.876 1.103c-.369-.69-.728-1.102-1.49-1.484m-25.928-4.024c-.745-.006-1.17-.04-1.937-.017-1.125.373-1.91.688-2.52 1.38 2.41.404 4.643.43 6.825.155-.718-.716-1.383-1.13-2.368-1.518m-145.98-22.921c-.764-.021-1.2-.065-1.863.017-.418.398-.61.672-.623 1.313 5.748 1.04 11.32 1.712 16.79 2.027-4.725-1.364-9.351-2.372-14.304-3.357m-11.686-.815c-1.002-.154-1.953-.124-2.816.104 1.406.377 2.657.406 3.836.111a10 10 0 0 0-1.02-.215m-71.46-12.092c-2.78-.422-5.667-.133-8.332.21a35 35 0 0 0 6.43 1.423c5.48.7 10.97 1.329 16.364 1.623-4.877-1.35-9.637-2.523-14.462-3.256m-58.895-10.086c-1.797-.325-3.221-.65-5.06-.959-2.464.316-4.512.615-6.381 1.286 2.263.72 4.34 1.138 6.435 1.404 5.48.694 10.97 1.32 16.365 1.613-3.721-1.355-7.354-2.349-11.359-3.344m1174.416-90.289c-.007-.236.006-.708-.144-.947-.665-.427-1.18-.614-1.78-.351.216 4.163.52 7.874 1.115 11.328.468-3.437.641-6.615.809-10.03m-2.07-12.046c-.334-1.12-.644-1.915-1.223-2.704-.448.02-.627.029-.775.405.101 1.816.172 3.268.605 4.613.714-.735 1.065-1.365 1.393-2.315M1555.62 44.48c-7.193-.076-13.904.233-20.615.541 2.072.342 4.144.685 6.998 1.04 1.5.035 2.22.056 2.94.078a94 94 0 0 1 3.074-.13l2.972.01c.763-.005 1.527-.011 2.994-.003 1.138-.009 1.57-.031 2.004-.053.038-.366.076-.732-.367-1.483m-37.33 3.352c-5.529.726-10.851 1.512-16.045 2.45-9.303 1.063-18.357 2.431-27.418 3.757 9.06-1.326 18.115-2.695 27.172-4.045a1918 1918 0 0 1 16.291-2.162m-43.469 6.207c-6.965 1.02-13.938 1.986-21.347 3.012-2.34 3.637-5.682 3.97-8.97 4.088 3.234-.118 6.397-.456 8.077-4.067l.453-.064c7.85-.984 14.822-1.95 21.787-2.969m-30.343 4.211c-6.266.964-12.368 1.996-18.426 3.207-.514-.365-.94-.368-1.684-.346-1.719 2.734-3.764 3.348-5.926 3.24 2.018.077 3.835-.567 5.174-3.255l.326-.043c1.17.035 1.596.038 2.022.04 6.072-.948 12.145-1.896 18.514-2.843m-24.61 3.35c-3.048.455-5.908.971-8.654 1.632-1.032-.032-1.839.219-2.938.602-.467.581-.691 1.387-.945 1.656.236-.269.357-1.056.205-1.539-5.84.97-11.233 1.955-16.264 3.121-4.382.175-8.403.531-12.845.889-1.326 3.683-4.285 3.127-6.809 3.18 2.507-.056 5.381.465 6.14-3.407l.432-.04c4.68-.09 8.7-.447 12.72-.801 5.393-.987 10.786-1.973 16.92-3.075a41 41 0 0 0 3.16-.867c2.872-.454 5.744-.909 8.878-1.351m-57.135 8.3c-3.354.704-6.596 1.942-9.498 3.026-5.302.344-10.217.751-15.127 1.207-2.736.254-5.464.587-8.642.896-2.328 2.293-5.397 3.568-8.315 3.479 2.824.077 5.672-1.18 7.44-3.444l.49-.07c3.562-.274 6.291-.607 9.027-.861 4.91-.456 9.824-.864 14.737-1.291 3.292-1 6.534-2.238 9.888-2.942m-38.31 5.8c-2.536.454-4.959.973-7.352 1.652-1.13-.37-2.194-.364-3.656-.33-.242 1.843-.838 2.864-2.068 2.857 1.137-.007 1.57-.989 1.338-2.754q.185-.067.382-.133c1.81-.005 2.874-.01 3.938-.015 2.4-.429 4.8-.856 7.418-1.278m-13.442 2.118c-.691.388-1.286.822-1.806 1.354-.955-.243-1.689-.194-2.787-.11-.89.575-1.453 1.471-2.065 1.752.6-.281 1.073-1.179 1.246-1.767-.41-.001-.764-.011-1.158-.018.554.006.915-.012 1.524-.017a57 57 0 0 0 3.02-.133 28 28 0 0 1 2.026-1.06m206.14 4.903q.264.008.534.037a6 6 0 0 0-.535-.037m-268.733 3.3c-1.53.22-2.945 1.232-4.26 2.2-3.51.066-6.865.456-10.658.883-1.436 1.069-2.469 2.79-3.582 3.292 1.1-.503 2.035-2.226 2.687-3.31-5.729-.262-11.013-.534-15.36 3.12-.687-.281-1.12-.254-1.88-.2-2.235 1.832-4.529 2.529-6.889 2.504 2.258.012 4.344-.69 6.123-2.51.121-.01.203-.02.325-.03 1.2-.02 1.635-.045 2.07-.072 4.599-3.346 9.88-3.073 16.047-2.847 4.25-.373 7.607-.764 10.963-1.155 1.468-.643 2.884-1.656 4.414-1.875m-33.828 5.981c-4.151.33-7.864.693-11.495 1.422-.519-.385-.957-.404-1.722-.393-1.344.81-2.367 2.044-3.483 2.477 1.102-.432 2.04-1.658 2.725-2.469l.334-.039c1.19.02 1.627.04 2.064.059 3.61-.355 7.263-.709 11.577-1.057m-30.465 3.248c-.456.267-.781 1.136-.856 1.72-6.738.58-13.08 1.23-19.828 1.956-1.187 2.032-2.657 2.636-4.226 2.71 1.391-.1 2.596-.716 3.382-2.656.157-.028.25-.053.41-.082 7.183-.7 13.524-1.348 19.866-1.998.422-.523.79-1.384 1.252-1.65m-21.631 3.752c-3.442.619-6.472 1.261-9.293 2.186-.639-.26-1.075-.235-1.836-.184-3.571 1.014-6.754 2.396-10.072 2.918 3.318-.521 6.5-1.903 9.306-2.926l.327-.027c1.2-.016 1.636-.04 2.072-.065a315 315 0 0 1 9.496-1.902m-7.817 2.187c.204.017.408.05.612.075-.204-.025-.41-.058-.612-.075m-26.64 1.883c-8.725 1.298-17.354 3.23-25.76 5.184-1.317-.252-2.368-.204-3.812-.12-.92 2.402-2.19 3.362-4.16 3.575 1.919-.216 3.03-1.18 3.331-3.578l.395-.06a111 111 0 0 0 3.98-.114c8.671-1.657 17.301-3.59 26.026-4.887m-37.42 6.149c-5.617.922-11.042 1.912-16.332 3.049-.702-.267-1.138-.239-1.9-.174-.564.478-.85 1.217-1.176 1.478.31-.263.492-1.003.414-1.496-4.301.36-8.195.601-12.028 1.22a308 308 0 0 0-20.416 4.005c-.898-.29-1.64-.27-2.752-.221-2.458 2.444-4.095 3.62-5.47 3.568 1.273.008 2.7-1.17 4.672-3.582l.377-.039c1.533.004 2.275-.017 3.017-.037 6.855-1.243 13.696-2.582 20.572-3.693 3.833-.62 7.727-.861 12.354-1.256a31 31 0 0 0 2.07-.068c5.437-.92 10.874-1.842 16.598-2.754m-57.043 8.076c-1.97.255-3.763.585-5.549 1.125-3.387.274-6.763.923-10.56 1.601-.779.559-1.181 1.446-1.637 1.715.437-.266.742-1.133.77-1.703l.421-.053c4.243-.637 7.62-1.285 10.996-1.935 1.751-.253 3.501-.506 5.559-.75m187.748 6.139c-2.36.036-4.276 1.26-4.936 3.42 3.47-.554 6.562-1.185 9.487-2.149-1.56-.887-3.135-1.293-4.551-1.271m-14.77 2.835c-.244.09-.488.184-.734.262.245-.078.49-.172.734-.262M954 128.104c.002.415.026.852.365 1.609 5.457.117 10.605.247 15.631-.47-5.026.717-10.174.588-15.629.804-2.29.42-4.426.922-6.53 1.367 2.06-.478 4.109-1.094 6.167-1.734-.002-.778-.003-1.222-.39-1.524zm216.738 2.45q.015 0 .028.003zm1.39.106c.2.02.395.022.597.047-.2-.024-.397-.028-.596-.047m-237.868.258c-6.77.96-13.534 1.96-20.026 3.268-1.004-.25-1.733-.173-2.822-.034-3.685 4.827-8.904 3.952-13.607 4.399 4.692-.447 9.825.427 12.826-4.405a543 543 0 0 0-16.47 2.278c-3.065.47-6.112 1.058-9.093 1.965-.509-.356-.943-.339-1.703-.282-2.006 1.145-3.674 2.888-5.472 3.51 1.777-.62 3.355-2.35 4.707-3.51l.345-.058a44 44 0 0 0 2.05-.031c3.054-.535 6.1-1.123 9.165-1.594 5.344-.821 10.7-1.569 16.832-2.342 1.51-.07 2.239-.145 2.967-.22 6.767-.984 13.53-1.984 20.3-2.944m-60.71 8.967c-18.175 2.432-36.365 4.764-54.55 7.129 0 .44 0 .883.45 1.656 9.74-.928 19.02-2.278 28.325-3.422-9.305 1.144-18.585 2.493-28.326 3.752-3.255.574-6.056 1.184-8.873 1.7 2.817-.516 5.618-1.126 8.424-2.032 0-.772 0-1.212-.437-1.678 18.622-2.34 36.812-4.673 54.988-7.105m-72.706 9.71a58 58 0 0 0-3.676 1.262c-1.121-.038-1.81-.002-2.842.069-1.348.822-2.34 1.972-3.467 2.484 1.108-.508 2.008-1.642 2.67-2.437l.358-.053c1.471-.066 2.16-.101 2.85-.137 1.371-.377 2.736-.8 4.107-1.187m-14.112 2.378c-6.36.973-12.536 2-18.685 3.232-.785-.29-1.522-.207-2.627-.078-.974.73-1.593 1.845-2.307 2.213.702-.369 1.234-1.488 1.518-2.238l.369-.045a35 35 0 0 0 2.998-.223c6.141-.95 12.284-1.9 18.734-2.861m-39.066 4.2c-2.155.195-3.912.502-5.42 1.073 2.106-.144 3.96-.551 5.42-1.072m-43.998 7.42c-2.636.448-5.12.955-7.533 1.612-.587-.287-1.022-.244-1.781-.16-1.078 2.417-2.762 2.892-4.67 2.92 1.812-.034 3.299-.513 3.914-2.867l.34-.1c1.176-.038 1.61-.08 2.044-.123 2.488-.429 4.975-.859 7.686-1.281m-13.38 2.546a42 42 0 0 0-4.118 1.715c1.042-.01 2.076.085 3.043.101-.984-.017-2.01-.11-3.043-.101a20 20 0 0 0-1.846-.106c-3.224 2.677-6.503 2.897-9.869 1.975 3.333.907 6.498.637 9.28-2.221l.286-.002c.96.263 1.336.272 1.711.283a148 148 0 0 1 4.555-1.644m902.007 41.017c-1.889.232-2.876 1.275-2.906 3.76 6-1.101 11.857-1.887 17.654-1.906-5.837-.046-11.77.832-17.934 1.97l-1.832.206c-.34.36-.68.721-1.156 1.125.407-.382.68-.764.809-1.159-.865.578-1.393 1.187-1.61 1.778q-.126.09-.263.183c-1.388.757-2.201 1.336-3.014 1.914a8962 8962 0 0 1-16.8 30.106 98 98 0 0 0-1.608 2.767c-1.31 2.961-2.617 5.923-4.063 9.211 1.446-3.288 2.754-6.25 3.71-9.177.776-.785 1.2-1.535 1.677-2.608.257-2.48-.202-5.683.406-7.369-.597 1.672-.086 4.794-.068 6.854 5.772-10.057 11.258-19.921 16.351-29.8 1.207-.562 2.02-1.14 3.088-1.876.786-.777 1.316-1.397 2.194-1.983a10.3 10.3 0 0 0 1.767-.158c.548-2.549 1.668-3.606 3.598-3.838m17.125 1.918c3.53.143 7.045.517 10.547 1.533.408.446.778.518 1.43.606 1.348.398 2.415.78 3.513 1.54.58 1.21 1.128 2.041 1.936 3.032 3.408.204 5.567 1.555 7.271 3.813-1.686-2.23-3.777-3.489-6.912-3.332 3.088 4.658 6.246 8.89 9.016 13.363-2.77-4.474-5.928-8.705-9.276-13.524-.907-1.31-1.456-2.142-2.004-2.972-1-.423-1.998-.845-3.412-1.602-.783-.405-1.154-.479-1.523-.55-3.517-1.148-7.037-1.712-10.586-1.907m15.49 3.68c-1.098-.761-2.165-1.143-3.1-1.207 1.133.741 2.132 1.163 3.1 1.207M210.316 233.883c-6.543.885-13.085 1.779-19.998 2.836-1.063.551-1.956 1.166-2.824 1.636.773-.45 1.458-1.024 2.006-1.453-10.135 1.384-19.821 2.752-29.43 4.494-.518-.386-.96-.398-1.73-.392-.532.748-.812 2.007-1.086 2.4.253-.393.429-1.626.338-2.394l.326-.047c1.192.035 1.634.046 2.074.057 9.687-1.367 19.374-2.733 29.88-4.284 7.36-1.073 13.901-1.968 20.444-2.853m-23.279 4.715c-.041.02-.084.046-.125.064zm1559.631.625c.022.116.05.227.068.351-.018-.123-.046-.233-.068-.351M153.75 241.574c-2.667.446-5.171.949-7.584 1.596-.628-.258-1.06-.209-1.812-.104-.327.198-.352.44-.418.506.06-.067.024-.308-.332-.49-7.84 1.198-15.25 2.438-22.458 3.996-1.973.05-3.745.418-5.834.848-1.054.742-1.77 1.65-2.626 2.176.844-.525 1.48-1.43 1.884-2.133a36 36 0 0 0-5.226.576 39 39 0 0 1 5.543-.635c2.513-.413 4.285-.782 6.056-1.152 7.41-1.238 14.82-2.478 22.98-3.733 1.184-.064 1.614-.113 2.046-.162 2.516-.432 5.034-.864 7.781-1.289M109 248.623c-4.887.976-9.16 3.033-12.783 6.426-3.29 3.292-6.251 6.75-9.225 10.576.37 2.404.77 4.7.5 6.895.221-2.11-.272-4.244-.806-6.303-.767 4.09-1.24 7.957-1.649 11.478-.063.345-.023.816.012 1.05.615 1.123 1.42 2.122 2.023 3.12-.602-.923-1.42-1.751-2.033-2.443-.003 1.75-.187 3.245-.02 4.6-.169-1.36.011-2.888-.015-4.833.008-.679-.031-1.148-.031-1.148.472-3.866.945-7.734 1.724-12.193 3.268-4.05 6.23-7.506 9.19-10.963 3.833-3.246 8.136-5.262 13.113-6.262m1450.434 8.818c-1.239 1.788-2.477 3.574-3.7 5.838.016.478.312.763.625.627 1.434-2.048 2.554-3.96 3.524-6.021zM87.416 273.074a8.7 8.7 0 0 1-.506 1.803 8.3 8.3 0 0 0 .506-1.803m1572.33 5.815c1.7 10.854-.582 20.66-6.434 30.064-.28-.013-.316.02-.33.024h-.005l-.002-.002-.008-.006c-1.75 3.92-3.358 7.92-5.207 11.806 1.83-3.844 3.422-7.8 4.824-11.562l.078-.094c.232-.082.277-.14.281-.166v-.006l-.002-.006v-.002l-.002-.002v-.001c6.18-9.39 8.501-19.193 6.807-30.047M87.258 282.176c.166.301.328.603.431.91a5 5 0 0 0-.431-.91m1691.724 19.217c1.983 3.046 4 6.464 6.002 10.267-1.999-3.041-3.983-6.47-6.002-10.267m-258.11 4.54c-.22.418-.53.9-.774 1.337.21-.46.345-.895.382-1.327.21-.01.328-.009.391-.01m-2.636 3.901c-.433.553-.806 1.152-1.01 1.879.536.119.868.083 1.131.01-.287.1-.63.204-1.296.328-1.33-.293-2.186-.663-2.69-1.078.464.317 1.2.584 2.287.775a30 30 0 0 1 1.578-1.914m174.166 4.14c-4.863 1.009-9.318 7.75-8.005 12.055 3.034-4.05 5.706-8.051 8.005-12.054m-178.27 1.579a.85.85 0 0 0-.362.058 38 38 0 0 1-.807.342c-.035.528-.07 1.056-.211 2.14-.107.558.177.788.51.739a7.7 7.7 0 0 0 1.424-3.094c-.106-.11-.332-.178-.553-.185m-8.967 8.136c-1.629 1.237-3.02 2.785-5.024 4.512-5.47 4.093-10.53 7.748-15.36 11.684 4.83-3.936 9.89-7.591 15.01-11.678.762-1.366 1.473-2.527 2.172-3.812a79 79 0 0 0-1.662 3.498c1.845-1.418 3.236-2.967 4.863-4.204m126.796 22.997c-.86 2.585-1.458 4.93-1.803 7.28.42.005.588.001.926-.241.494-2.587.818-4.934.877-7.04M53.779 353.03a.5.5 0 0 0-.166.043c-2.77 4.047-5.226 7.951-7.683 11.856l.34.33a167 167 0 0 0 7.87-11.666c.01-.362-.137-.573-.36-.563m1331.955 6.076c-.45.244-.632.545-.587.788.503-.22.714-.442.587-.788m67.74 2.705h.014c-1.894.037-2.725 1.654-3.037 5.178l-.047.026c-.299-.013-.319.046-.314.072v.006l.002.002.002.002v.002c-2.738 2.263-5.226 4.998-8.16 6.888 2.928-1.89 5.376-4.627 7.79-6.898.255.006.3-.04.317-.053h.002l.002-.002h.006v.002l.012.012c.57-3.565 1.48-5.2 3.412-5.236m3.333.913c.629.13 1.169.138 1.804.142-.613.024-1.111.075-1.611.125a134 134 0 0 1-4.035 2.557c1.383-.885 2.651-1.801 3.842-2.824M45.648 364.98l-.062.008c-2.4 2.388-4.458 4.719-6.154 7.11 1.088-.015 1.815-.092 2.543-.168 1.388-1.98 2.775-3.96 4.171-6.36.008-.394-.19-.612-.498-.59m-7.652 9.684c.098.806.446 1.618.457 2.078-.013-.449-.366-1.204-.486-1.75-1.661 1.226-3.32 2.453-5.115 3.694a78 78 0 0 0 5.144-4.022m1073.229 4.414c.377 1.81.609 2.924 1.287 4.012 3.454-.03 6.46-.035 9.468-.041 1.415-.349 2.83-.698 4.582-1.434-.326-.759-.799-1.608-1.337-2.078.568.468 1.13 1.313 1.728 2.074.495.384.94.386 1.715.389.726-.386 1.381-1 1.945-1.414-.524.414-1.098 1.036-1.613 1.416.003.432.007.865.428 1.658 3.136.684 5.853 1.007 8.572 1.33.97.085 1.94.17 3.338.606 1.176.358 1.924.365 2.672.373.644.125 1.288.251 2.37.703 2.728.727 5.017 1.128 7.305 1.53.218-.045.436-.087.924-.518-6.29-6.63-15.11-5.614-23.011-7.506 7.9 1.892 16.722.876 23.343 7.47 1.699 1.068 3.338 1.783 5.055 2.823 2.36.797 4.639 1.27 7.31 1.771 1.09.312 2.022.706 3.047 1.024-.837-.23-1.69-.493-2.505-.672a63 63 0 0 0 4.203 1.533c-1.516-.51-2.89-.93-4.594-1.563-2.82-.823-5.102-1.296-7.383-1.77-.823-.262-1.698-.636-2.531-.921.83.242 1.654.465 2.453.598-1.717-1.04-3.356-1.755-5.326-2.436-.548.08-.766.122-.83.49-2.442-.726-4.732-1.125-7.422-1.572-.902-.177-1.453-.315-2.113-.658.658.342 1.184.46 1.675.332-.681-.406-1.326-.532-1.81-.404-.909-.261-1.656-.27-2.775-.319-1.244-.152-2.117-.264-3.192-.644-2.921-.593-5.64-.916-8.773-1.276-1.155-.068-2.167-.215-3.217-.296.945.025 1.876.024 2.799-.065-.006-.756-.008-1.188-.344-1.623-.776-.003-1.22-.005-2.053-.002-1.804.352-3.22.702-4.355 1.326-3.288-.27-6.294-.264-9.96.035-.813.223-1.238.27-1.84.397.46-.106.91-.206 1.393-.373-.02-1.382-.251-2.495-.628-4.305m26.978 6.182c1.075.38 1.946.492 2.762.295-1.026-.394-1.995-.48-2.762-.295m-6.988-5.043a2.3 2.3 0 0 0-.574.347c.2-.145.401-.284.574-.347m-21.565 3.715c-.403.076-.979.228-1.357.293-1.286.791-2.49 1.83-3.84 2.431 1.343-.603 2.498-1.65 3.393-2.506.674-.05 1.244-.125 1.804-.218m297.754 3.902h.002l-.023.031zm223.217 5.15c.028.73.192 1.36.525 1.92-.27.871-.235 1.614-.19 2.729.494.58 1.352.867 1.564 1.135-.213-.256-1.074-.461-1.7-.42l-.021-.371c.114-1.459.078-2.201.04-2.944-.098-.618-.199-1.237-.218-2.049m-457.967 1.348a48 48 0 0 0 4.32 1.16c1.493.707 2.898 1.077 4.667 1.467 4.656 1.09 8.948 2.16 13.322 3.578.755.44 1.43.53 2.443.65 4.721 1.356 9.103 2.68 13.563 4.352.51.383.945.417 1.705.453 6.996-1.25 13.478-.796 19.553 1.738-6.04-2.513-12.407-2.906-18.993-1.443 8.761 2.059 17.286 3.825 25.733 5.246.818.385 1.556.426 2.664.457 1.218-.72 2.224-2.036 3.07-2.283-.838.251-1.772 1.599-2.44 2.574 12.036 2.465 24.012 2.813 35.962 2.483-11.984.331-24.047-.014-36.33-2.473a13.7 13.7 0 0 0-2.844-.416c-8.527-1.764-17.054-3.529-26.14-5.588-.995-.33-1.429-.367-1.862-.402-4.339-1.334-8.678-2.668-13.498-4.365-1.156-.454-1.83-.543-2.504-.633-4.194-1.112-8.39-2.226-13.176-3.645-1.998-.675-3.402-1.042-4.806-1.41-1.387-.446-2.97-1.02-4.409-1.5M18.961 398.051c-2.003 4.366-1.841 9.321-2.352 13.982-.383.451-.402.87-.38 1.598 2.306.892 2.915 2.216 2.808 3.75.085-1.435-.545-2.564-2.838-3.035l-.056-.315c.065-1.13.084-1.546.103-1.963.77-4.687.681-9.653 2.715-14.017m1355.254.894a2 2 0 0 0-.229.106c.076-.038.153-.077.229-.106m-.3.139c-1.284.695-2.508 2.632-3.495 3.807l-.38.109c-1.391.14-2.061.21-2.731.28-2.99 1.032-5.908 2.558-8.983 3.015 3.075-.457 5.994-1.981 8.541-3.106 1.112.022 1.78-.049 2.783-.171 1.583-1.226 2.939-3.227 4.264-3.934m257.175 3.05c.272 3.033.646 5.917 1.185 8.72-.317.601-.307 1.041-.283 1.808 2.211 1.115 2.35 2.581 2.016 4.154.31-1.496.126-2.792-2.135-3.5l-.035-.334c.129-1.087.12-1.526.113-1.964-.304-2.88-.608-5.758-.861-8.883m-551.86 1.89c-3.66 5.016-8.242 9.36-12.738 14.316-.328.309-.44.685-.44.685-2.678 5.835-5.307 11.692-8.046 17.498 2.739-5.806 5.368-11.663 7.687-17.476.36-.022.47-.396.485-.592-.888-4.95 1.634-7.933 4.49-10.658-2.839 2.71-5.295 5.63-4.162 10.348 4.482-4.761 9.064-9.105 12.724-14.122m242.78 4.081c-2.54.05-4.825.389-5.649 3.77l-.363.045a41 41 0 0 0-2.992.1c-2.093.251-4.19.448-6.281.734a274 274 0 0 0 6.025-1.024c.985.242 1.715.194 2.809.102 1.426-3.356 3.868-3.68 6.45-3.727m310.13 7.393c.252 1.56.6 2.977 1.087 4.273-.299.69-.3 1.128-.297 1.893.546.647 1.45 1.015 1.752 1.42-.307-.388-1.23-.678-1.995-.83l-.025-.332c.265-1.023.267-1.46.268-1.897-.277-1.441-.555-2.884-.79-4.527m-1615.515.957c.382 1.619.842 3.062 1.463 4.393 1.31 3.658 2.944 7.09 4.752 10.834.657.943 1.212 1.83 1.814 2.709a30 30 0 0 0-1.582-1.995l-.215-.359c-1.825-4.1-3.46-7.53-5.093-10.96-.385-1.462-.77-2.924-1.139-4.622m1651.129 6.66c-.1 1.051.088 1.973.588 2.776.107-1.047-.095-1.977-.588-2.776m178.326.836c-.018.187-.037.373-.047 1.211 1.067 3.041 2.126 5.433 3.184 7.822.688.01 1.376.02 2.418-.382.425-4.623.204-8.623-5.555-8.65m-212.84 4.559a203 203 0 0 0 2.022 14.433c-.114 5.167.152 10.276.58 15.72 1.643 2.052 2.546 4.147 2.955 6.296-.403-1.967-1.265-3.816-2.8-5.514.64 5.837 1.289 11.226 2.013 16.2-.018 3.079.04 5.743.162 8.847.667.711 1.736 1.066 2.006 1.414-.27-.336-1.34-.594-2.018-.54.534 5.172 1.147 9.911 2.063 14.44-.118 3.493-.07 6.871.12 10.327-.214-3.553-.32-6.836-.425-10.117-.612-4.74-1.225-9.478-1.824-15.09-.045-3.538-.1-6.202-.159-8.867a1692 1692 0 0 0-2.101-16.948c-.42-5.892-.686-11.001-.951-16.109-.578-4.765-1.155-9.529-1.643-14.492M24.303 434.36q1.291 1.935 2.586 3.381c-.008.273.021.331.027.344h.002v.004h-.006c7.486 6.978 16.341 11.604 26.211 13.973-9.843-2.362-18.679-6.971-26.176-13.551l-.035-.055c.016-.243-.004-.319-.02-.342l-.001-.002-.002-.002-.002-.002-.002-.002h-.002l-.002-.002h-.004c-.84-1.185-1.68-2.368-2.574-3.744m1828.633 1.33c1.181 2.356 2.537 4.466 3.595 6.637-1.046-2.134-2.382-4.162-3.543-6.256zM32.74 446.256c3.558 2.28 7.26 4.06 11.06 5.488-3.8-1.433-7.503-3.21-11.06-5.488m1824.254 6.754c-.352.628-.702 1.256-1.47 2.416.282 2.874.981 5.216 1.681 7.558.514.188 1.028.376 2.012.608 3.45-4.48 1.13-7.662-2.223-10.582M54.18 454.78c8.126 1.844 16.509 2.703 24.797 3.701.5.421.932.48 1.691.561.903-.488 1.641-1.419 2.238-1.654-.583.244-1.237 1.215-1.64 1.953 4.319.773 8.406 1.07 12.402 1.84-3.996-.77-8.083-1.067-12.729-1.864-1.029-.357-1.462-.416-1.894-.474-8.33-1.188-16.725-2.173-24.865-4.063m67.078 7.88c.958.567 1.8 1.898 2.71 3.032.444.396.893.408 1.677.422 1.31-1.927 2.47-2.148 3.572-1.656-1.012-.424-2-.11-2.96 1.922.507.09.955.111 1.432.17-.619-.071-1.06-.065-1.767-.174-1.061-.277-1.51-.287-2.36-.291-1.51-.282-2.836-.65-4.119-.93 1.285.249 2.61.513 4.125.545-.584-1.14-1.364-2.472-2.31-3.04m19.611 2.661q.555-.01 1.102.057a9 9 0 0 0-1.102-.057m-1.12.084c-2.251.284-4.58 1.208-6.853 1.676.425.208.97.531 1.409.752-.53-.261-1.055-.521-1.631-.77 2.441-.456 4.812-1.376 7.074-1.658m-7.794 1.233c.039.25.293.354.512.398l-.46-.06c-.727-.045-1.66-.178-2.427-.239.813.024 1.601 0 2.375-.1m1759.455 4.402c.482.334.963.667 1.492.654.003-.14.001-.258 0-.379.008.286.023.345.026.803-.017 2.465-.012 4.16-.006 5.856.012.236.013.751.021 1.09-.02-.437-.091-.756-.31-1.044.283-1.743.277-3.438.246-5.556-.507-.757-.987-1.09-1.469-1.424m-1720.035.504c.168-.012.348.007.52.004-1.495.066-2.764.536-3.514 1.437 4.151.698 7.897 1.322 11.57 1.584 1.468.574 2.888.91 4.502 1.215a266 266 0 0 1-4.432-.853 763 763 0 0 0-12.022-1.93c-.177-.029-.237-.048-.404-.076.976-.819 2.302-1.275 3.781-1.38m17.965 2.607c-1.053.18-2.178 1.3-2.932 1.944 9.537 1.564 18.665 3.115 27.81 4.54 11.596 1.808 23.206 3.512 34.723 4.903.828.42 1.57.483 2.682.568.988-.42 1.746-1.256 2.373-1.396-.618.144-1.306 1.012-1.734 1.682 5.256.965 10.253 1.608 15.23 2.384-4.977-.776-9.974-1.42-15.601-2.408-1.38-.346-2.12-.41-2.862-.473-11.604-1.749-23.215-3.452-34.81-5.26-9.146-1.425-18.272-2.977-28.19-4.568l-.398-.07c1.438-.56 2.646-1.669 3.709-1.846m1702.082 4.887c.496.33.99.66 1.527.649.003-.118.002-.213.002-.317.004.263.015.309.014.711-.036 1.787-.046 2.838-.057 3.889-.101.569-.203 1.137-.57 2.297-.93 4.96-1.564 9.335-2.27 13.699.706-4.364 1.34-8.74 2.034-13.524.06-.669.117-1.169.232-1.627-.083.392-.07.747.033 1.038.338-.746.439-1.315.252-1.836.299-1.099.31-2.15.305-3.594-.512-.724-1.006-1.055-1.502-1.385m.984 5.494q-.013.045-.023.09c.009-.03.014-.06.023-.09m-36.763 7.557c-.345.716-.393 1.32-.16 1.88.339-.693.398-1.342.16-1.88M407.04 511.076c10.255 1.548 20.56 2.758 30.824 3.723.331.42.655.684 1.051.889-.437-.174-.734-.334-1.031-.493-10.283-1.361-20.59-2.571-30.844-4.119m266.174 7.838c2.912.953 5.824 1.977 8.746 2.758a108 108 0 0 1-8.746-2.758m1209.842 1.828-9.94 23.237c-.284.62-.57 1.24-.937 1.859.325-.609.533-1.192.627-1.725 3.622-7.88 6.936-15.626 10.25-23.37m-827.72 4.307c-.702.678-1.037 1.31-1.14 2.205.66.428 1.085.592 1.63.523.038-1.08-.042-1.927-.49-2.728m625.436 14.097c-.434.72-.611 1.282-.525 2.05 1.113 1.063 1.962 1.922 2.768 2.421-.692-1.783-1.338-3.205-2.243-4.47m150.85 2.834c-2.076 2.645-4.506 5.328-7.307 7.997 2.07-2.662 4.513-5.31 7.307-7.997m40.516 3.17c-.359.624-.606 1.214-.717 1.786l-.06.072c-.215-.005-.275.02-.288.04v.005l-.002.002v.008l.002.005v.002l.002.002v.002l.002.002h.002c-2.865 4.865-5.592 9.822-8.672 14.547 3.08-4.725 5.806-9.681 8.32-14.527.242-.013.28-.053.293-.065v-.002h.002v-.002h.004l.002.002.01.01c.339-.598.695-1.23 1.1-1.889m-995.116 4.446c5.815 6.445 9.782 6.203 12.63 2.437-4.468-1.045-8.572-1.911-12.63-2.437m-214.972 2.406c1.013.259 2.173.654 3.213.937-1.106-.263-2.21-.505-3.323-.666zm1204.135.375c-3.087 4.495-6.06 9.07-8.748 13.559q-.038.027-.075.056c-.217.023-.282.037-.299.045l-.002.002h-.001v.002h-.002v.002h.002v.002h.003a47 47 0 0 1-1.334 2.443q.634-1.21 1.01-2.316c-1.004 1.506-1.752 2.913-2.25 4.21q-.226.315-.478.641c-3.867 3.18-7.021 6.174-10.385 8.909 3.364-2.735 6.517-5.727 10.068-8.768 1.11-1.73 1.916-3.298 3.045-4.992.223-.087.261-.121.274-.129l.002-.002h.004l.01.006c3.065-4.551 6.052-9.151 9.156-13.67m-809.444 6.875c.136 2.445.546 4.634 1.065 6.41-.191-2.497-.49-4.581-1.065-6.41m-44.914 13.877c-.536.176-1.073.304-1.613.318.543-.014 1.083-.138 1.613-.318m43.8 1.13c-3.308 5.177-3.308 5.178-.694 6.735.395-.036.79-.073 1.546-.51.403-2.097.442-3.793.483-5.49-.286-.196-.572-.392-1.334-.734m-236.47 3.843a3.7 3.7 0 0 0-1.017.187c1.066.365 2 .392 2.886.11-.65-.223-1.278-.324-1.869-.297m25.994 4.011a3.6 3.6 0 0 0-1.011.174c1.063.375 1.997.412 2.877.143-.649-.228-1.278-.336-1.866-.317m983.34 9.145c-1.131.65-2.287 1.27-3.418 1.922-1.269 1.074-2.413 2.387-3.78 3.277 1.364-.894 2.49-2.238 3.599-3.557a30 30 0 0 0 3.6-1.642m-900.703 3.877a1.8 1.8 0 0 0-.678.152c.726.35 1.347.39 1.94.149-.437-.213-.865-.316-1.262-.301m19.008 2.99a1.8 1.8 0 0 0-.678.154c.73.344 1.346.384 1.94.14-.437-.21-.865-.31-1.262-.294m5.984 1.035a1.8 1.8 0 0 0-.674.153c.727.348 1.345.387 1.932.148-.438-.212-.863-.314-1.258-.3m5.729.963a3.8 3.8 0 0 0-1.367.186c1.068.361 2 .39 2.878.11a5.4 5.4 0 0 0-1.511-.296m20.28 3.01a1.8 1.8 0 0 0-.675.146c.726.352 1.343.397 1.932.16-.437-.214-.863-.318-1.258-.306m25.722 4a3.8 3.8 0 0 0-1.367.187c1.07.357 1.998.387 2.876.106a5.4 5.4 0 0 0-1.51-.293m790.539.27c-.506.555-.61 1.795-.637 2.652l-.365.177c-4.123 1.034-7.792 2.273-11.408 3.073 3.596-.8 7.194-2.04 11.033-3.07.673-1 .857-2.27 1.377-2.833" style="fill:#fff;fill-opacity:1"/></svg>