<svg xmlns="http://www.w3.org/2000/svg" viewBox="0 0 2866 1000" xml:space="preserve"><path fill="#fff" d="M191.36 63.597c-6.227-2.271-12.05-4.53-17.985-6.44-8.117-2.613-15.468-1.057-23.102 2.997-19.66 10.44-31.505 27.441-41.211 46.502-2.3 4.518-5.181 8.871-6.664 13.651-4.75 15.307-10.101 30.546-9.603 46.952.362 11.939-.189 23.983 1.237 35.791 1.582 13.103 4.114 26.111 11.168 37.902 6.204 10.37 10.422 21.977 17.027 32.047 6.256 9.54 14.23 18.012 21.907 26.54 6.14 6.822 12.854 13.142 19.517 19.472 10.697 10.162 23.215 17.403 36.452 23.93 11.373 5.608 23.65 6.107 35.423 9.255 2.518.673 5.012 1.718 7.568 1.906 4.35.319 8.74.054 13.113.104 27.774.32 55.55.58 83.32 1.07 4.893.086 9.768 1.175 14.654 1.78.821.102 1.656.135 2.485.137 5.045.012 10.09-.043 15.134.014 27.94.317 55.882.604 83.821 1.017 12.61.187 25.215.631 37.822.98 11.478.317 22.952.822 34.431.965 33.477.418 66.958.534 100.431 1.092 19.72.329 39.43 1.289 59.145 1.933 11.273.368 22.546.841 33.822.974 35.44.418 70.883.543 106.32 1.102 16.055.253 32.091 1.5 48.146 1.874 23.602.55 47.232.259 70.813 1.225 14.68.602 29.728-1.233 43.963 3.099 8.097 2.464 17.157 1.633 24.389 7.026 9.65 7.195 19.117 14.633 26.932 23.844 4.891 5.765 9.335 11.923 13.788 18.043 5.625 7.73 6.94 17.13 7.9 26.066 1.41 13.155 1.22 26.514 1.093 39.78-.034 3.52-2.062 7.144-3.638 10.501-3.652 7.773-4.752 16.446-10.399 23.618-10.02 12.727-22.48 21.434-37.335 27.499-21.132 8.628-43.169 8.483-65.34 7.979-7.377-.168-14.764.101-22.141-.066-5.945-.134-11.88-.875-17.823-.912-19.832-.12-39.667.084-59.499-.08-22.108-.183-44.214-.65-66.322-.954-5.712-.078-11.43.122-17.14-.036-17.226-.477-34.447-1.41-51.675-1.543-42.437-.33-84.878-.22-127.317-.465-27.941-.161-55.882-.58-83.821-.99-13.443-.199-26.88-.691-40.323-.957-6.21-.122-12.427.032-18.64-.03-31.607-.313-63.214-.66-94.821-.986-3.572-.036-7.146.044-10.718-.012-20.108-.317-40.214-.693-60.322-.975-7.546-.106-15.097.084-22.643-.038a5399 5399 0 0 1-49.32-1.015c-4.114-.104-8.212-.7-12.324-.95-9.51-.583-18.658 1.271-27.288 5.07-10.166 4.473-20.598 8.675-29.964 14.518-6.168 3.848-10.84 10.222-15.832 15.779-3.054 3.4-5.532 7.334-8.115 11.133-7.155 10.518-11.331 22.291-15.589 34.22-3.2 8.968-3.884 17.752-3.327 26.78.482 7.824 2.054 15.594 3.34 23.355 2.473 14.919 9.302 28.33 16.554 41.162 4.055 7.176 11.442 12.824 18.203 18.022 7.477 5.749 15.705 10.676 24.088 15.033 5.134 2.668 11.32 3.222 16.78 5.373 12.729 5.018 25.977 3.916 39.146 3.93 29.214.03 58.438.446 87.638-.208 11.56-.26 23.032-3.307 34.609-4.396 7.924-.745 15.988.08 23.94-.484 9.545-.677 17.984 2.212 26.403 6.152 8.524 3.988 17.454 7.115 25.928 11.196 11.355 5.468 22.42 11.534 33.65 17.262 9.597 4.895 19.267 9.647 28.876 14.519 4.39 2.225 8.676 4.653 13.07 6.87 13.232 6.675 26.231 13.902 39.83 19.73 10.269 4.4 21.197 7.458 32.057 10.23 10.123 2.585 20.516 4.183 30.85 5.847 3.903.628 8.02-.15 11.957.36 12.834 1.664 25.604 3.821 38.444 5.427 18.71 2.339 33.73 13.896 50.929 19.993 8.304 2.944 16.485 6.244 24.658 9.542 10.302 4.156 20.527 8.503 30.805 12.717 11.648 4.776 23.323 9.485 34.978 14.243 12.112 4.944 24.118 10.164 36.347 14.796 12.33 4.67 24.871 8.784 37.342 13.078.903.311 1.984.145 2.982.13 21.107-.326 42.215-.625 63.321-1.008 14.775-.268 29.547-.75 44.323-.966 27.772-.405 55.55-.527 83.32-1.076a1923 1923 0 0 0 58.139-2.05c6.845-.343 13.644-1.804 20.435-2.934 7.262-1.209 14.64-2.094 21.697-4.08 12.006-3.378 22.775-9.31 32.318-17.496 6.372-5.466 13.187-10.414 19.68-15.745 8.245-6.77 16.41-13.64 24.526-20.564 13.314-11.36 26.663-22.682 39.807-34.238 11.915-10.475 23.495-21.331 35.37-31.854 13.983-12.392 28.134-24.595 42.193-36.902 10.03-8.78 19.985-17.648 30.054-26.384 11.72-10.168 23.521-20.244 35.303-30.341 13.874-11.89 27.763-23.763 41.649-35.64 13.804-11.807 27.68-23.532 41.395-35.443 9.991-8.678 19.662-17.727 29.675-26.38 12.22-10.562 24.728-20.79 36.957-31.341 7.52-6.487 14.667-13.403 22.133-19.955 12.988-11.398 26.096-22.66 39.149-33.984 12.143-10.536 24.013-21.407 36.5-31.517 10.43-8.446 20.622-17.361 33.504-22.348 4.49-1.739 8.235-5.32 12.61-7.47 2.714-1.333 5.94-1.759 8.993-2.246 29.322-4.68 58.88-2.775 88.357-2.946 8.063-.047 16.132.901 24.48 1.41v39.105h-41.614c-14.879 0-29.768-.335-44.632.136-7.83.248-15.815 1.164-23.353 3.184-5.02 1.345-9.693 4.749-13.965 7.968-12.063 9.091-24.09 18.262-35.664 27.96-14.513 12.162-28.591 24.844-42.799 37.367-14.75 13-29.332 26.193-44.17 39.09-13.04 11.336-26.391 22.314-39.5 33.57-17.323 14.874-34.635 29.762-51.78 44.838-13.601 11.96-26.8 24.377-40.446 36.284-12.186 10.633-24.827 20.743-37.103 31.275-9.918 8.51-19.52 17.386-29.393 25.95-9.965 8.643-20.117 17.068-30.133 25.652-5.857 5.02-11.592 10.183-17.41 15.25-12.71 11.068-25.468 22.082-38.151 33.183-8.9 7.79-17.662 15.735-26.567 23.519-12.38 10.82-24.71 21.705-37.302 32.274-9.716 8.155-19.51 16.277-29.815 23.65-8.69 6.216-17.697 12.423-27.432 16.619-8.855 3.816-18.778 5.576-28.411 7.065-14.595 2.258-29.311 4.047-44.043 4.997-12.614.814-25.329-.086-37.987.248-10.388.275-20.752 1.63-31.138 1.806-10.308.174-20.632-.781-30.948-.763-8.26.015-16.519.721-24.775 1.18-1.794.1-3.571.652-5.36.669-37.94.371-75.88.704-113.82 1.022-9.516.08-18.242-3.076-26.956-6.473-10.196-3.975-20.543-7.56-30.776-11.445-6.414-2.435-12.724-5.145-19.106-7.667-7.208-2.848-14.465-5.573-21.663-8.446-6.506-2.597-12.942-5.37-19.444-7.978-12.58-5.046-25.235-9.911-37.764-15.08-8.923-3.682-17.668-7.796-26.537-11.612-8.877-3.82-17.935-7.24-26.687-11.322-12.863-6-26.45-8.095-40.436-9.053-14.116-.968-28.228-2.265-42.258-4.069-6.239-.802-12.24-3.333-18.406-4.844-6.34-1.554-12.984-2.175-19.075-4.37-8.71-3.14-17.068-7.276-25.521-11.108a512 512 0 0 1-18.15-8.633c-6.704-3.363-13.263-7.013-19.957-10.397-12.387-6.261-24.886-12.304-37.22-18.666-7.272-3.749-14.26-8.042-21.484-11.887-4.624-2.462-9.386-4.692-14.193-6.781a826 826 0 0 0-23.825-9.916c-1.94-.772-4.149-1.15-6.245-1.198-15.72-.37-31.294.436-46.805 3.692-6.587 1.383-13.702.257-20.577.258q-47 .003-94 .002c-7.043 0-14.134.506-21.11-.17-4.948-.48-9.756-2.504-14.599-3.933-14.974-4.42-29.36-10.467-42.443-18.85-14.229-9.118-27.924-19.52-37.852-33.295-6.472-8.98-10.347-19.858-15.167-29.989-1.677-3.525-2.51-7.443-4.053-11.041-3.388-7.9-4.578-16.27-6.475-24.552-2.55-11.132-2.2-22.28-3.207-33.36-.631-6.948 1.255-14.304 2.968-21.24 1.954-7.912 4.412-15.805 7.668-23.263 4.171-9.556 8.923-18.927 14.245-27.891 4.097-6.901 9.34-13.144 14.286-19.514 8.061-10.382 18.15-18.357 29.315-25.287 13.85-8.596 28.73-14.409 44.45-18.174 6.185-1.482 12.567-2.727 18.893-2.908 14.795-.422 29.612-.264 44.418-.099 15.776.176 31.547.801 47.323.933 50.148.418 100.3.535 150.447 1.094 29.218.325 58.43 1.275 87.644 1.936 15.107.342 30.213.827 45.322.971 43.606.419 87.214.642 130.82 1.056 19.11.181 38.215.67 57.323.967q34.91.545 69.822.994c6.545.085 13.094-.05 19.64.024 27.44.308 54.88.678 82.322.976 8.046.087 16.098-.116 24.142.048 8.944.182 17.88.694 26.823.95 12.419.357 24.295-2.51 34.897-8.62 5.125-2.952 9.713-8.015 12.741-13.18 6.27-10.693 9.228-22.398 6.252-35.04-.858-3.643-.622-7.53-1.077-11.283-1.19-9.814-6.87-16.832-14.335-22.726-4.91-3.878-9.287-8.806-14.772-11.479-5.741-2.798-12.489-4.67-18.855-4.848-28.928-.807-57.877-.818-86.816-1.234-11.983-.172-23.961-.63-35.941-.978-10.97-.318-21.935-.765-32.906-.974-21.44-.407-42.881-.67-64.321-1.027-18.485-.307-36.97-.619-55.453-1.01-11.943-.252-23.88-.73-35.823-.967-20.106-.398-40.214-.664-60.32-1.024a11036 11036 0 0 1-50.822-1.006c-12.109-.272-24.213-.786-36.323-.961-28.773-.415-57.548-.65-86.32-1.042-18.65-.253-37.302-.529-55.946-1.018-19.718-.518-39.428-1.347-59.145-1.939-6.042-.18-12.095.062-18.14-.045-16.109-.283-32.253-.099-48.309-1.186-9.898-.67-19.67-3.282-29.482-5.114-6.105-1.14-12.338-1.949-18.225-3.816-6.808-2.16-13.373-5.155-19.908-8.09-6.07-2.725-12.159-5.513-17.874-8.893-5.06-2.992-9.875-6.535-14.347-10.361-11.057-9.46-22.243-18.826-32.617-29.005-6.667-6.542-11.776-14.643-17.959-21.717-9.536-10.91-16.626-23.384-23.258-36.089-4.476-8.576-7.945-17.683-11.781-26.589-7.806-18.122-9.484-37.35-9.982-56.753-.209-8.161.323-16.352-.118-24.495-.663-12.25 1.94-23.817 5.683-35.338 1.948-5.995 2.783-12.342 4.477-18.43.864-3.106 2.288-6.117 3.85-8.955 6.165-11.207 11.723-22.854 18.948-33.346 8.457-12.283 17.72-24.287 30.022-33.095 7.718-5.527 16.06-10.327 24.555-14.587 12.636-6.336 26.294-4.972 39.323-2.07 11.213 2.497 22.174 6.718 32.735 11.346 6.954 3.047 13.754 7.357 19.298 12.524 11.984 11.17 24.088 22.357 32.88 36.508 6.576 10.584 13.46 20.98 20.338 31.372 8.726 13.18 16.602 27.098 26.697 39.145 8.175 9.755 19.65 16.094 31.985 20.644 10.283 3.794 20.673 3.83 31.26 3.825 86.333-.033 172.666-.019 259-.019h56.76c8.38 0 16.76.045 25.139-.007 52.107-.319 104.214-.737 156.322-.936 12.439-.048 24.88.815 37.322.872 8.439.04 16.88-.878 25.321-.885 84.547-.072 169.094-.044 253.641-.044h67.135c20.712 0 41.424.127 62.135-.04 15.942-.129 31.88-.841 47.822-.888 11.606-.034 23.213.78 34.822.859 6.938.047 13.883-.908 20.82-.86 11.776.08 23.547.732 35.323.865 4.936.055 9.883-.913 14.82-.865 8.442.082 16.878.738 25.322.891 9.21.168 18.424.08 27.636.032 61.941-.32 123.882-.633 185.822-1.033 6.776-.043 13.545-.777 20.323-.921a568 568 0 0 1 23.64-.007c9.654.196 19.302.809 28.956.898 5.437.05 10.879-.824 16.32-.847 4.605-.02 9.217.908 13.82.852 10.987-.134 21.97-.746 32.957-.868 4.936-.055 9.883.91 14.82.863 8.442-.082 16.88-.81 25.322-.886 16.88-.151 33.762.043 50.642-.09 6.275-.05 12.544-.758 18.822-.894 3.275-.071 6.562.46 9.845.697 1.49.108 2.982.229 4.473.232 9.548.02 19.095.01 28.642.01h50.547c12.873 0 25.747.09 38.62-.017 33.44-.281 66.88-.903 100.321-.937 118.406-.117 236.812-.046 355.218-.046 36.538 0 73.076.2 109.61-.1 14.149-.116 27.703 3.283 41.48 5.405 6.786 1.046 13.74 1.93 20.16 4.19 8.762 3.084 17.191 7.194 25.575 11.252 18.54 8.973 33.562 23.072 49.959 35.122 14.7 10.803 25.863 25.024 33.697 41.54 5.522 11.644 11.151 23.365 15.115 35.576 2.894 8.916 3.672 18.644 4.436 28.088.71 8.776.02 17.657.181 26.487.273 15.016-3.562 29.193-8.371 43.21-2.744 7.999-4.528 16.454-8.241 23.963-5.141 10.395-11.398 20.284-17.75 30.016-3.765 5.769-8.577 10.865-13.016 16.181-8.503 10.183-19.513 16.98-30.763 23.753-9.83 5.918-20.178 9.892-31.061 12.986-5.468 1.555-10.715 3.971-16.237 5.229-8.422 1.917-16.961 3.422-25.522 4.574-3.333.448-6.864-.862-10.296-.807-8.61.14-17.217.909-25.823.866-13.441-.067-26.88-.803-40.322-.885-25.372-.154-50.749.17-76.118-.134-12.928-.154-25.84-1.397-38.768-1.824-4.924-.162-9.888.954-14.815.812-5.229-.152-10.424-1.477-15.652-1.63-9.692-.283-19.399-.067-29.1-.097-5.05-.015-10.101-.158-15.152-.163-20.833-.02-41.668.121-62.5-.046-19.442-.157-38.882-.578-58.322-.984-10.276-.214-20.546-.713-30.822-.963-16.148-.392-32.296-.775-48.447-.995-29.645-.404-59.292-.646-88.937-1.057-5.61-.078-11.212-.853-16.822-.918-12.546-.145-25.096.072-37.642-.072-20.442-.235-40.882-.629-61.322-.977-18.608-.317-37.216-.618-55.821-1.013-11.484-.244-22.964-.656-34.446-.977-1.62-.045-3.24-.006-5.256-.006v39h-39.63V427.335h39.463v37.622c1.793.092 3.237.23 4.682.232 11.5.017 23.002-.12 34.5.043 13.442.19 26.881.904 40.322.903 19.974-.003 39.916.367 59.84 1.96 6.171.494 12.417.005 18.626.12 15.108.28 30.213.844 45.322.94 25.212.16 50.427-.076 75.639.086 16.308.106 32.614.608 48.921.963 14.275.31 28.547.758 42.822.974 26.82.405 53.64.658 80.46 1.03 20.641.286 41.282.631 61.922.999 16.44.292 32.88.698 49.322.982 21.606.373 43.215.627 64.82 1.038 6.987.133 13.968.845 20.951.847 6.98.003 13.968-.92 20.939-.773 10.735.224 21.455 1.387 32.188 1.484 20.146.183 40.32.42 60.435-.444 9.19-.394 18.368-2.962 27.383-5.221 16.061-4.026 31.452-9.798 44.148-20.93 10.179-8.926 18.86-19.157 24.664-31.509 4.241-9.026 8.75-18.01 11.942-27.42 3.132-9.238 5.15-18.916 6.888-28.54 1.106-6.131 1.395-12.553 1.004-18.78-.555-8.828-1.97-17.61-3.203-26.386-2.469-17.58-11.76-32.276-21.147-46.607-4.384-6.695-11.297-11.913-17.63-17.11-9.161-7.516-18.353-15.198-28.427-21.34-10.147-6.188-21.13-11.252-32.244-15.514-6.888-2.641-14.709-2.83-22.097-4.198-5.79-1.071-11.549-2.307-17.34-3.373-1.936-.357-3.927-.586-5.894-.588-31.333-.036-62.667-.025-94-.025h-63.595c-14.37 0-28.742-.13-43.11.039-12.277.143-24.548.86-36.823.888-10.106.023-20.213-.832-30.321-.882-27.367-.133-54.735-.158-82.101-.001-15.32.088-30.637.817-45.958.885-9.772.043-19.549-.923-29.32-.868-29.682.165-59.36.715-89.041.877-9.939.055-19.883-.932-29.821-.878-31.483.17-62.965.81-94.447.895-57.435.156-114.87.045-172.304.045h-99.14c-5.364 0-10.733-.128-16.093.033-6.445.193-12.882.887-19.323.892-6.273.006-12.549-.863-18.821-.84-7.609.026-15.217.905-22.822.85-16.973-.125-33.945-.908-50.916-.865-26.608.068-53.214.66-79.822.889-7.503.064-14.903-.49-22.492.748-6.546 1.068-13.503-.7-20.274-.644-16.951.14-33.899.757-50.85.87-8.146.054-16.293-.705-24.445-.875-2.938-.062-5.892.78-8.834.75-4.102-.043-8.203-.808-12.298-.756-13.92.177-27.836.652-41.756.837-3.435.046-6.882-.876-10.319-.84-23.108.24-46.214.666-69.322.93-10.872.124-21.748-.107-32.619.053-13.61.2-27.214.872-40.822.894-11.607.02-23.214-.827-34.822-.854-9.606-.022-19.213.803-28.821.855-6.772.036-13.55-.92-20.321-.864-17.442.144-34.88.712-52.323.903-14.71.162-29.424.034-44.136.034-9.043 0-18.088.125-27.128-.042-6.778-.124-13.549-.927-20.322-.914-149.978.275-299.955.657-449.933.938-57.37.108-114.746.428-172.105-.357-10.451-.143-21.387-3.929-31.103-8.263-10.924-4.873-20.863-12.054-30.96-18.645-7.72-5.04-13.095-12.428-18.083-20.081-8.173-12.542-16.45-25.016-24.694-37.512-8.24-12.493-15.46-25.847-25.04-37.214-9.07-10.764-18.157-22.49-33.118-27.114"/></svg>