<svg xmlns="http://www.w3.org/2000/svg" viewBox="0 0 1864 1217" xml:space="preserve"><path fill="#fff" d="M573.597 23.68c.803-.74 1.518-1.304 2.236-1.307 12.832-.055 25.846-1.402 38.456.273 19.225 2.553 38.368.978 57.529 1.344 37.461.715 74.935.823 112.404 1.153 37.94.334 75.883.576 113.823.97 21.765.225 43.526.768 65.29.996 36.013.377 72.027.723 108.041.864 15.802.062 31.607-.652 47.408-.585 19.882.084 39.76.745 59.642.913 49.473.416 98.947.638 148.42 1.052 22.11.185 44.215.733 66.324.955 40.106.403 80.214.663 120.32 1.054 4.257.041 8.506.63 12.765.831 7.136.338 14.276.746 21.416.81 15.332.136 30.666-.027 45.998.112 29.597.27 59.196.543 88.788 1.125 4.785.094 9.59 2.755 14.295 2.503 6.696-.359 12.463 2.18 17.367 5.357 11.384 7.375 21.437 16.354 28.21 28.625 6.131 11.109 8.442 23.16 9.327 35.413.691 9.559-.58 19.244-.594 28.874-.015 10.14 1.23 20.35.371 30.397-.528 6.179 1.543 11.116 3.68 16.154 3.17 7.477 10.066 10.48 17.45 12.53 9.524 2.643 19.168 4.96 28.483 8.213 11.083 3.87 19.964 11.104 28.351 19.36 7.74 7.619 11.586 17.333 16.67 26.38 1.657 2.949 1.933 7.025 1.815 10.552-.3 9.023-2.285 18.12-1.53 27.013.844 9.923-5.053 16.949-8.023 25.193-2.683 7.446-6.318 14.548-9.503 21.815-3.026 6.903-6.1 13.786-8.996 20.744-4.441 10.672-8.643 21.444-13.135 32.093-5.855 13.879-11.865 27.692-17.878 41.504-1.346 3.092-3.185 5.975-4.44 9.098-3.378 8.398-6.36 16.96-9.895 25.289-2.454 5.78-5.68 11.228-8.35 16.924a710 710 0 0 0-9.88 22.015c-2.798 6.536-5.256 13.217-8.02 19.77-2.807 6.653-5.855 13.205-8.705 19.841-3.17 7.38-6.187 14.826-9.357 22.205-3.621 8.432-7.428 16.784-10.989 25.241-3.915 9.3-7.603 18.695-11.463 28.018-2.946 7.114-5.987 14.188-9.019 21.266-2.961 6.912-5.882 13.843-8.971 20.698-3.82 8.476-8.072 16.767-11.633 25.348-4.782 11.521-8.973 23.286-13.648 34.854-1.559 3.858-4.02 7.342-5.735 11.148-6.465 14.357-12.932 28.716-19.123 43.193-3.871 9.053-7.013 18.42-10.91 27.462-4.904 11.383-10.434 22.496-15.34 33.879-4.12 9.558-7.633 19.377-11.596 29.005-4.415 10.725-9.545 21.187-13.384 32.107-2.474 7.037-3.848 14.635-4.512 22.088-.757 8.482-.576 17.11.006 25.62.264 3.87 2.23 7.715 3.868 11.373 1.712 3.823 3.508 7.762 6.071 11.017 4.565 5.797 9.718 11.133 14.658 16.633 4.914 5.473 9.98 10.749 16.831 13.915 6.617 3.058 13.17 6.253 19.74 9.411.73.35 1.604.693 2.044 1.304 5.19 7.206 12.099 13.816 15.003 21.865 3.818 10.583 3.49 22.151 1.393 33.699-1.64 9.028-8.513 14.5-11.955 22.16-.914 2.037-4.017 3.063-6.061 4.625a1464 1464 0 0 0-13.67 10.565c-6.191 4.847-12.405 9.668-18.518 14.614-9.288 7.517-18.424 15.225-27.772 22.666-4.706 3.746-9.906 6.874-14.58 10.655-6.978 5.646-13.512 11.847-20.56 17.398-7.913 6.232-16.213 11.972-24.301 17.985-10.242 7.613-20.124 15.765-30.766 22.766-7.268 4.781-14.575 5.832-23.8.926-12.895-6.857-20.393-18.036-29.245-28.377-3.461-4.043-7.578-7.685-10.268-12.185-3.27-5.47-5.731-11.518-7.839-17.562-2.247-6.444.295-12.273 3.097-18.254 6.39-13.646 11.881-27.71 18.18-41.401 4.627-10.06 5.528-20.686 2.084-30.588-4.563-13.12-12.342-24.71-23.65-33.477-7.338-5.69-14.649-11.427-21.747-17.41-8.24-6.946-16.403-14.003-24.245-21.389-2.88-2.713-4.944-6.384-7.03-9.83-3.162-5.222-6.915-10.335-8.783-16.03-2.481-7.565-4.112-15.58-4.823-23.517-1.388-15.512 1.073-30.798 5.351-45.686 1.163-4.049 4.419-7.461 6.469-11.296 5.959-11.149 14.864-19.072 25.893-25.075 6.129-3.335 12.121-7.185 17.43-11.682 4.484-3.798 7.89-8.867 11.78-13.366 1.5-1.733 3.2-3.324 4.487-5.2 1.872-2.728 3.269-5.788 5.194-8.472 5.36-7.472 8.814-15.599 11.96-24.345 4.67-12.983 3.89-25.436 1.148-38.079-2.475-11.407-6.544-22.674-14.036-31.636-6.065-7.254-14.145-12.753-23.875-15.137-6.58-1.613-12.899-4.333-19.505-5.777-7.018-1.535-14.278-1.924-21.358-3.223-7.7-1.412-15.449-2.846-22.93-5.092-8.326-2.5-16.38-5.91-24.534-8.975-.74-.278-1.405-.86-2-1.415-6.195-5.789-14.085-9.728-18.424-17.566-3.345-6.044-7.607-11.6-10.719-17.747-3.285-6.489-4.829-13.966-8.662-20.048-7.743-12.286-11.484-26.832-23.144-37.031-9.273-8.111-17.975-16.61-29.952-20.427-5.326-1.698-10.506-3.94-16.597-2.845-4.08.734-8.527-.902-12.774-.706-10.229.47-20.393 1.013-29.963 5.788-5.299 2.644-11.43 3.6-17.155 5.417-3.624 1.15-7.133 2.69-10.792 3.693-7.51 2.057-15.09 3.85-22.633 5.79-8.478 2.18-16.893 4.646-25.442 6.499-4.062.88-8.37.618-12.566.889-10.722.69-21.44 1.854-32.165 1.914-6.628.038-13.28-2.404-19.897-2.286-9.161.163-16.074-4.96-23.849-8.138-1.843-.753-4.14-.703-5.702-1.783-7.413-5.13-14.79-10.332-21.909-15.86-13.829-10.74-22.743-25.377-31.459-40.189-3.877-6.589-8.564-12.697-12.532-19.237-7.163-11.808-13.733-23.987-21.171-35.614-6.22-9.723-13.141-19.019-20.128-28.218-2.836-3.734-6.377-7.092-10.108-9.956-8.272-6.35-16.654-12.612-25.43-18.222-3.77-2.41-8.814-2.723-12.97-4.655-17.204-7.997-35.53-6.418-53.659-6.732-12.711-.22-25.421-.817-38.13-.79-32.47.065-64.939.516-97.408.543-14.94.012-29.88-.75-44.824-.913-37.94-.417-75.881-.64-113.82-1.054-16.32-.178-32.635-.765-48.955-.949-36.811-.414-73.69.53-110.413-1.452-24.713-1.334-49.357-.492-74.016-1.336-14.785-.506-29.583-.6-44.371-1.036-7.685-.226-15.452-.2-23.013-1.376-7.1-1.104-13.875-4.419-20.977-5.345-8.315-1.084-15.517-4.585-22.593-8.334-10.467-5.544-20.769-11.483-30.702-17.93-8.501-5.519-16.831-11.484-24.412-18.185-6.926-6.122-13.305-13.07-18.91-20.428-6.99-9.176-13.169-19.002-19.257-28.82-3.909-6.302-7.682-12.843-10.334-19.732-3.685-9.57-7.593-19.375-9.037-29.42-3.052-21.242-6.676-42.605-4.457-64.207.995-9.697 2.948-19.322 4.977-28.872.846-3.984 2.924-7.728 4.61-11.507 4.048-9.075 7.492-18.392 14.643-25.859 3.513-3.667 5.237-8.988 8.468-12.999 7.542-9.362 15.487-18.402 23.304-27.542 11.804-13.802 27.7-22.27 42.356-32.341 3.153-2.167 6.378-4.377 9.866-5.877 6.826-2.934 13.837-5.448 20.815-8.014 6.921-2.544 13.83-5.154 20.874-7.316 4.04-1.24 8.307-1.983 12.524-2.355 6.953-.615 13.944-.868 20.925-1.051 6.33-.166 12.666-.066 18.999-.03 57.811.325 115.623.607 173.434 1.025 20.275.146 40.55.601 60.823.982 14.442.272 28.883.658 43.324.983 1.616.036 3.233.005 5.244.005V5.256h19.851v60.56h-19.518V47.948h-5.201c-30.166-.027-60.332.055-90.497-.107-40.106-.216-80.212-.566-120.318-.971-19.597-.198-39.193-.61-58.787-1.01-8.61-.176-17.214-.771-25.823-.805-14.465-.056-28.573 2.875-42.232 7.155-8.359 2.62-15.903 7.73-24.08 11.069-13.942 5.693-25.682 14.634-36.494 24.696-9.162 8.527-18.59 17.232-25.675 27.408-8.515 12.23-18.578 23.71-23.146 38.544-2.8 9.094-5.632 17.993-5.974 27.635-.206 5.783-2.32 11.515-2.377 17.282-.057 5.762 1.319 11.548 2.182 17.306.68 4.535 1.515 9.047 2.322 13.562.604 3.382 1.996 6.799 1.78 10.119-.651 10.037 4.843 18.183 7.926 26.968 8.21 23.391 22.53 42.997 40.694 59.577 7.453 6.803 16.601 11.718 24.748 17.802 11.393 8.508 23.808 15.253 37.188 19.666 8.926 2.943 18.531 3.933 27.893 5.415 6.485 1.027 13.07 1.94 19.617 1.979 33.83.194 67.665-.096 101.495.17 16.496.129 32.986 1.085 49.478 1.694 7.763.287 15.523.865 23.287.926 52.605.415 105.21.674 157.815 1.106 15.765.129 31.524.764 47.289.959 30.938.381 61.877.723 92.817.864 13.802.062 27.612-.759 41.409-.555 28.386.42 56.789.82 85.133 2.253 6.645.336 13.771.846 20.407 4.079 7.021 3.42 15.183 4.474 22.266 7.8 6.701 3.147 12.937 7.52 18.862 12.033 9.486 7.225 18.934 14.595 27.628 22.726 4.583 4.286 7.602 10.27 11.206 15.57 2.723 4.004 5.23 8.156 7.875 12.216 4.784 7.341 9.654 14.628 14.383 22.004 3.049 4.756 5.923 9.624 8.856 14.454 6.672 10.986 13.025 22.183 20.116 32.891 3.981 6.012 8.914 11.466 13.888 16.727 5.389 5.698 10.746 11.738 17.171 16.063 7.764 5.227 16.314 9.38 26.13 10.276 6.462.59 12.765 2.832 19.227 3.562 4.181.472 8.523-.415 12.788-.752 9.445-.746 18.925-1.23 28.316-2.415 5.246-.662 10.34-2.522 15.506-3.827 9.55-2.412 19.213-4.449 28.625-7.31 11.687-3.554 23.389-7.251 34.657-11.918 7.286-3.017 14.452-4.203 22.145-3.852 11.744.536 23.646-.074 35.189 1.7 7.378 1.134 14.251 5.64 21.31 8.73 3.605 1.577 7.242 3.154 10.627 5.137 1.87 1.095 3.126 3.189 4.872 4.559 8.807 6.907 17.8 14.062 23.408 23.63a537 537 0 0 1 25.983 50.219c7.357 16.277 18.677 26.595 35.61 32.397 11.28 3.865 22.595 5.612 34.246 6.786 6.376.643 12.763 1.718 18.979 3.266 5.588 1.392 10.942 3.715 16.412 5.592 6.145 2.108 12.636 3.172 17.717 7.962 5.026 4.739 11.247 8.327 15.766 13.459 5.372 6.1 9.986 13.03 13.965 20.14 2.456 4.387 3.304 9.733 4.534 14.732 1.575 6.402 2.806 12.887 4.188 19.336 2.7 12.614 2.826 25.022-2.053 37.285-2.773 6.972-4.211 14.532-7.463 21.24-3.435 7.086-8.046 13.663-12.632 20.115-4.718 6.64-9.926 12.942-15.132 19.217-1.656 1.996-4.12 3.298-5.993 5.141-8.52 8.382-19.449 13.262-28.917 20.185-5.146 3.763-9.484 9.538-12.37 15.313-8.217 16.442-7.532 34.037-3.65 51.395 2.933 13.112 11.507 22.99 21.617 31.416 8.057 6.714 15.92 13.836 24.725 19.429 9.463 6.01 16.14 14.405 23.128 22.656 4.052 4.783 8.436 9.553 11.234 15.06 3.194 6.284 5.17 13.281 6.956 20.156 1.31 5.038 2.212 10.42 1.93 15.574-.339 6.2-1.908 12.373-3.331 18.467-2.467 10.567-5.585 20.847-11.912 29.992-3.048 4.405-4.97 9.603-7.287 14.496-3.966 8.373-3.033 12.07 3.82 19.843 4.955 5.622 9.303 11.779 14.2 17.457 3.488 4.044 7.438 7.689 11.663 12.003 11.513-9.409 22.404-18.444 33.46-27.272 3.73-2.977 7.963-5.313 11.795-8.17 1.903-1.42 3.284-3.525 5.138-5.028 8.678-7.041 17.35-14.097 26.205-20.913 5.175-3.983 10.84-7.33 16.018-11.307 11.223-8.62 22.245-17.5 33.41-26.197 6.17-4.806 12.741-9.134 18.623-14.262 6.75-5.885 10.858-12.818 11.097-22.695.286-11.809-4.643-18.983-14.48-23.967-5.626-2.85-11.361-5.538-16.74-8.804-4.187-2.542-8.146-5.594-11.766-8.902-5.754-5.256-11.579-10.548-16.548-16.513-4.206-5.048-7.246-11.067-10.793-16.662-2.359-3.723-4.977-7.317-6.948-11.235-1.22-2.427-1.741-5.32-2.056-8.063-.842-7.33-1.652-14.68-2-22.045-.31-6.524-.63-13.166.233-19.597 1.01-7.53 2.625-15.127 5.175-22.267 4.604-12.893 10.113-25.463 15.217-38.179 3.243-8.08 6.346-16.218 9.695-24.255 1.727-4.145 3.922-8.093 5.783-12.187 3.279-7.21 6.455-14.468 9.69-21.698 3.303-7.386 6.802-14.69 9.898-22.162 4.357-10.51 8.232-21.222 12.66-31.701 4.786-11.326 9.996-22.47 14.97-33.717 3.113-7.038 6.153-14.108 9.184-21.18 2.97-6.93 5.822-13.91 8.846-20.813 3.815-8.708 7.903-17.298 11.59-26.058 3.299-7.835 5.988-15.928 9.353-23.732 4.324-10.033 9.153-19.847 13.586-29.834 6.283-14.157 12.45-28.366 18.57-42.596 2.85-6.629 5.362-13.404 8.217-20.031 6.164-14.307 12.555-28.517 18.653-42.852 4.474-10.517 8.458-21.243 12.965-31.746 7.792-18.158 15.811-36.218 23.755-54.311 4.896-11.152 9.966-22.23 14.708-33.448 5.26-12.442 10.097-25.063 15.373-37.5 4.324-10.195 9.287-20.125 13.422-30.392 1.663-4.13 2.534-8.839 2.592-13.299.1-7.709 1.012-16.08-1.584-22.983-3.297-8.763-8.936-16.337-17.698-22.17-11.14-7.419-23.812-9.143-35.723-13.369-8.148-2.89-15.928-5.356-22.942-10.838-6.723-5.255-10.152-12.087-13.19-19.466-1.836-4.46-3.52-8.99-5.084-13.552-.514-1.5-.604-3.2-.607-4.81-.037-22-.023-43.999-.026-65.998-.001-9.666-2.053-19.047-8.417-26.283-7.222-8.213-15.014-15.61-27.47-16.515-47.201-3.432-94.445-.974-141.655-1.877-8.368-.16-16.718-1.437-25.084-1.54-20.848-.256-41.7-.026-62.55-.189-30.764-.239-61.525-.71-92.289-.971-46.27-.394-92.544-.583-138.814-1.102-12.368-.14-24.722-1.228-37.089-1.729-2.42-.098-4.87.762-7.303.747-39.607-.24-79.213-.627-118.82-.8-12.636-.056-25.273.534-37.91.581-5.274.02-10.548-.848-15.825-.895-14.875-.131-29.751.022-44.626-.058-56.44-.303-112.88-.6-169.32-1.017-20.108-.15-40.214-.77-60.323-.945-47.606-.415-95.214-.64-142.82-1.086-6.607-.062-13.208-.933-20.501-1.481 0-8.16 0-16.588.086-25.452"/></svg>