<svg xmlns="http://www.w3.org/2000/svg" viewBox="0 0 1960 1418" xml:space="preserve"><path fill="#fff" d="M1354.733 1126.955c-1.004 14.11-1.812 27.778-3.073 41.405-1.028 11.107-2.952 22.136-3.81 33.25-.649 8.386 3.951 15.392 7.744 22.472 4.26 7.953 8.464 16.013 8.05 25.334-.297 6.68-1.774 13.138-6.128 18.674-3.355 4.266-5.732 9.423-9.528 13.193-6.968 6.922-14.503 13.307-22.087 19.57-15.004 12.394-30.166 24.598-45.334 36.791-11.272 9.061-22.69 17.94-33.979 26.98-5.402 4.327-10.656 8.84-15.977 13.27-1.94 1.616-4.215 2.982-5.691 4.948-.846 1.126-.395 3.227-.527 4.89 1.638-.186 3.68.191 4.847-.648 7.084-5.094 14.007-10.414 20.909-15.755 9.901-7.662 19.745-15.399 29.604-23.116 14.653-11.469 29.279-22.972 43.953-34.413 9.222-7.19 18.542-14.255 27.764-21.446 13.382-10.434 26.709-20.938 40.07-31.399 11.797-9.237 23.61-18.452 35.413-27.682 11.23-8.784 22.44-17.593 33.685-26.357 8.053-6.276 16.158-12.484 24.224-18.743 11.19-8.683 22.357-17.395 33.549-26.075 10.531-8.17 21.088-16.308 31.623-24.473 16.093-12.474 32.195-24.936 48.258-37.448 10.9-8.49 21.806-16.974 32.576-25.626 5.769-4.634 9.223-10.745 9.347-18.273.118-7.188.975-14.646-3.113-21.128-3.164-5.014-7.6-8.407-13.193-11.118-12.857-6.23-24.595-14.144-35.021-24.297-11.436-11.135-19.342-24.39-26.338-38.307-2.19-4.358-2.391-9.763-3.253-14.732-2.352-13.551-1.372-27.063 2.129-40.211 2.663-10.003 6.415-19.743 10.103-29.439 4.351-11.44 9.06-22.747 13.794-34.036 3.862-9.211 8.01-18.302 11.99-27.463 6.656-15.32 13.271-30.657 19.92-45.98a38938 38938 0 0 1 19.51-44.88c6.72-15.44 13.537-30.838 20.165-46.317 10.517-24.562 20.888-49.187 31.365-73.766 9.299-21.814 18.59-43.632 28.012-65.393 8.794-20.313 17.805-40.531 26.626-60.833 5.81-13.373 11.418-26.834 17.18-40.228 7.006-16.281 14.116-32.518 21.112-48.804a8298 8298 0 0 0 19.328-45.397c5.636-13.336 10.22-27.243 17.176-39.844 3.72-6.739 8.89-14.082 18.177-15.904 15.461-3.033 31.03-3.83 46.743-4.163 7.708-.162 15.57-2.101 22.953-4.497 3.298-1.07 6.33-4.824 8.191-8.094 4.953-8.704 7.724-18.16 9.791-28.095 2.77-13.312 2.887-26.598 2.618-39.948-.365-18.1-7.093-33.993-18.797-47.643-8.683-10.127-17.41-20.294-26.947-29.593-14.097-13.746-30.458-24.535-48.161-33.169-10.423-5.083-20.837-10.261-31.586-14.571-8.101-3.249-16.646-5.519-25.143-7.62-10.102-2.5-20.326-4.564-30.57-6.41a192 192 0 0 0-21.018-2.613c-63.493-4.312-127.073-1.049-190.607-2.035-8.245-.127-16.498.155-24.74-.057-21.88-.564-43.751-1.685-65.632-1.872-36.997-.318-73.999-.086-110.999-.089-9.962 0-19.93.21-29.885-.082-13.874-.406-27.734-1.58-41.607-1.734-27.779-.31-55.563-.053-83.344-.204q-70.77-.383-141.54-1.006c-19.276-.17-38.548-.802-57.824-.942-57.607-.418-115.259.595-172.812-1.36-70.9-2.407-141.776-.92-212.657-1.726-4.745-.054-9.48-.902-14.532-1.412V28.103c4.431 0 8.712-.004 12.992 0 18.5.023 37.001-.07 55.5.103 20.608.191 41.214.694 61.823.936 33.604.395 67.209.73 100.814 1.016 44.406.378 88.814.64 133.22 1.039 28.269.253 56.536.729 84.804.988 40.615.373 81.231.59 121.846.97 28.114.262 56.226.757 84.34 1.023 39.61.374 79.222.644 118.833.933 10.04.074 20.083-.045 30.122.092 19.437.265 38.871.775 58.309.96 43.606.415 87.214.651 130.82 1.045 25.82.232 51.64.595 77.459.956 19.438.271 38.9.12 58.303 1.117 14.899.765 29.724 3.004 44.576 4.635 6.183.678 12.478.939 18.497 2.35 9.294 2.178 18.69 4.447 27.515 7.992 16.857 6.773 33.774 13.645 49.844 22.048 12.91 6.75 25.291 14.965 36.679 24.066 16.691 13.34 31.828 28.428 44.554 45.843 7.575 10.366 12.487 21.839 16.122 33.89 1.825 6.046 2.89 12.532 2.996 18.841.207 12.266.225 24.621-1.016 36.803-1.648 16.192-6.518 31.413-13.722 46.339-4.694 9.723-12.641 14.152-20.358 18.926-5.159 3.192-12.551 3.208-19.02 3.757-12.37 1.049-24.823 1.141-37.184 2.261-7.759.703-16.434.383-20.54 9.42a441 441 0 0 0-4.622 10.58c-10.166 24.022-20.227 48.09-30.508 72.062-6.102 14.231-12.592 28.296-18.818 42.475-7 15.94-13.94 31.907-20.829 47.896a12867 12867 0 0 0-26.128 61.023c-7.126 16.776-14.026 33.648-21.205 50.4-9.233 21.546-18.68 43-27.969 64.522-7.36 17.056-14.551 34.187-21.943 51.23-9.502 21.91-19.198 43.735-28.684 65.65-11.312 26.134-22.7 52.237-33.647 78.523-6.476 15.55-12.666 31.26-18.006 47.225-2.861 8.555-2.903 17.74-3.103 26.977-.412 18.984 9.467 32.61 20.565 45.78 8.68 10.3 19.546 18.207 32.11 23.345 11.992 4.904 20.06 13.848 25.613 24.997 2.169 4.355 3.05 9.782 3.017 14.71-.06 9.18-1.156 18.358-1.991 27.521-.124 1.36-1.105 2.676-1.81 3.946-6.11 11.01-16.099 18.078-25.744 25.57-15.978 12.41-31.724 25.117-47.653 37.591-14.698 11.511-29.524 22.857-44.262 34.316-14.857 11.55-29.663 23.166-44.514 34.725-12.143 9.452-24.33 18.847-36.477 28.295-11.877 9.237-23.711 18.53-35.594 27.76-8.656 6.723-17.405 13.327-26.034 20.083-12.631 9.89-25.146 19.926-37.796 29.79-11.816 9.214-23.783 18.233-35.611 27.432-13.691 10.648-27.296 21.407-40.951 32.101a10812 10812 0 0 1-27.873 21.746c-3.993 3.106-8.176 5.987-12.004 9.281-7.893 6.792-20.696 8.097-29.705 2.773-9.732-5.751-14.51-14.253-12.477-24.505 1.354-6.831 4.81-12.889 10.568-17.468 17.262-13.73 34.36-27.666 51.573-41.46 14.384-11.527 28.857-22.944 43.253-34.458 7.306-5.842 15.279-11.096 21.56-17.9 5.375-5.822 9.624-13.122 12.651-20.476 1.37-3.329-.854-8.607-2.468-12.587-2.666-6.57-6.694-12.605-9.166-19.232-2.987-8.009-4.302-16.217-2.573-25.11 2-10.285 2.31-20.9 3.353-31.372 1.338-13.412 2.748-26.818 3.99-40.24.821-8.854 1.353-17.735 2.103-26.596 1.291-15.26 2.677-30.513 3.973-45.773.738-8.703 1.233-17.43 2.091-26.12 1.533-15.524 3.273-31.027 4.891-46.542.377-3.606.629-7.226.915-10.84.69-8.709 1.325-17.421 2.057-26.126 1.248-14.823 4.475-29.025 10.218-42.943 4.984-12.079 11.136-23.021 21.017-31.372 6.151-5.198 13.341-9.206 20.228-13.485 13.679-8.5 22.999-20.878 31.746-34.038 9.351-14.068 14.471-29.2 13.7-46.067-.804-17.604-5.589-34.051-16.863-47.922-6.178-7.6-14.948-11.925-24.021-15.064-16.298-5.639-33.394-7.131-50.38-9.505-9.55-1.335-18.847-5.65-27.812-9.629-6.998-3.106-13.506-7.47-19.875-11.798-9.18-6.24-13.904-16.062-18.818-25.508-8.439-16.22-16.055-32.88-24.85-48.898-6.27-11.42-16.823-19.09-27.796-25.581-15.21-8.997-31.888-10.195-49.312-8.574-10.207.949-19.072 5.154-28.52 7.963-11.457 3.406-22.8 7.229-34.345 10.299-12.084 3.214-24.312 5.924-36.55 8.505-5.912 1.247-11.97 1.937-18 2.458-15.808 1.366-31.85 2.411-47.147-2.188-15.558-4.678-30.972-10.094-43.747-21.189-15.63-13.574-27.856-29.618-38.303-47.359-11.109-18.864-22.753-37.421-34.515-55.889-5.684-8.925-11.725-17.707-18.459-25.848-4.353-5.263-10.03-9.54-15.509-13.743-11.627-8.92-23.921-16.964-38.413-20.244-8.588-1.944-17.492-2.838-26.303-3.358-9.634-.57-19.326-.117-28.992-.191-41.275-.317-82.55-.61-123.824-1.026-16.944-.17-33.884-.714-50.828-.943-29.105-.393-58.211-.667-87.317-.999-29.846-.34-59.692-.67-89.538-1.04-24.272-.301-48.544-.718-72.817-.97-37.448-.387-74.9-.536-112.346-1.08-14.052-.204-28.13-.79-42.129-1.98-23.232-1.975-44.493-9.942-64.823-21.361-18.908-10.62-35.904-23.456-51.286-38.607-10.716-10.555-17.806-23.693-26.08-36.02-8.708-12.973-14.005-27.418-18.675-42.026-2.956-9.249-4.038-19.134-5.547-28.798-1.287-8.241-2.725-16.572-2.754-24.867-.036-10.55.835-21.162 2.165-31.64.956-7.536 2.387-15.271 5.241-22.249 4.433-10.836 9.385-21.665 15.714-31.466 7.688-11.906 16.416-23.287 25.805-33.913 14.166-16.032 30.412-29.96 49.2-40.387 9.945-5.519 20.8-9.367 31.018-14.428 14.19-7.028 29.871-7.564 44.94-10.566 6.64-1.324 13.846.221 20.796.412 4.862.133 9.726.158 14.59.266 12.607.28 25.213.786 37.821.834 38.553.146 77.106.117 115.66.162 15.499.019 31-.06 46.498.106 20.604.22 41.207.559 61.807 1.007 6.921.151 13.832.793 21.516 1.257V10.107h19.637v59.69h-20.062V48.733h-5.54c-39.166 0-78.333.059-117.5-.045-8.642-.023-17.28-.81-25.924-.911-13.71-.162-27.424.058-41.135-.065-29.775-.265-59.55-.596-89.323-1.013-7.778-.109-15.556-.52-23.323-.992-11.85-.718-23.064 2.714-34.561 4.596-13.754 2.252-26.016 8.072-38.381 13.613-7.254 3.25-13.575 8.56-20.372 12.853-11.466 7.245-20.368 17.326-29.786 26.828-9.799 9.887-17.982 20.983-25.4 32.787-6.294 10.02-11.643 20.38-15.097 31.643-1.425 4.648-2.154 9.574-2.642 14.43-.906 9.013-2.127 18.09-1.856 27.099.25 8.272 2.23 16.5 3.563 24.729.97 5.98 1.436 12.16 3.344 17.843 3.871 11.533 7.662 23.252 13.176 34.03 5.61 10.966 12.818 21.213 20.158 31.162 4.914 6.66 10.759 12.878 17.124 18.167 8.327 6.918 17.268 13.234 26.52 18.865 9.418 5.73 19.518 10.343 29.347 15.392 13.065 6.712 27.272 8.405 41.641 9.547 44.722 3.555 89.524 1.32 134.285 1.988 17.109.256 34.214.802 51.324.96 45.274.417 90.601-.554 135.81 1.348 54.902 2.31 109.779.952 164.659 1.753 10.555.154 21.092 1.73 31.645 1.829 28.544.268 57.101-.303 85.635.315 9.88.215 19.775 2.608 29.543 4.599 21.022 4.283 37.217 16.997 53.426 30.18 11.16 9.077 19.014 20.379 26.774 31.98 9.933 14.848 19.814 29.737 29.38 44.823 6.764 10.67 12.644 21.904 19.503 32.508 8.306 12.84 18.648 24.213 31.35 32.585 7.39 4.87 16.539 7.337 25.178 9.956 6.952 2.108 14.282 3.44 21.528 3.969 6.413.467 12.956-.486 19.413-1.108 7.671-.738 15.342-1.596 22.954-2.78 4.89-.761 9.686-2.155 14.502-3.357 4.283-1.07 8.542-2.237 12.797-3.413 8.254-2.28 16.578-4.348 24.726-6.963 10.162-3.263 20.111-7.187 30.28-10.425 4.483-1.427 9.254-2.431 13.94-2.651 15.056-.706 30.037-.327 44.649 4.28 15.92 5.018 29.042 14.175 40.316 26.254 3.8 4.073 8.423 7.626 11.296 12.268 5.836 9.43 10.846 19.381 15.993 29.224 6.131 11.724 12.165 23.503 18.018 35.368 3.575 7.247 10.445 10.56 16.874 13.962 6.673 3.53 13.967 6.144 21.265 8.16 6.59 1.822 13.548 2.316 20.35 3.359 9.894 1.517 19.969 2.009 29.462 5.715 7.598 2.967 15.59 5.064 22.908 8.584 16.856 8.108 27.399 22.656 34.55 39.05 3.357 7.692 6.629 16.294 5.78 25.595-.448 4.922 1.407 10.01 1.742 15.056.592 8.92-1.598 17.419-3.472 26.125-1.898 8.815-5.876 16.338-10.114 23.802-7.856 13.836-17.52 26.495-29.27 37.23-5.622 5.137-12.262 9.495-19.09 12.906-14.893 7.44-22.439 20.136-28.11 34.932-5.313 13.858-6.692 28.27-7.869 42.787-1.092 13.475-1.81 26.984-3.085 40.441-.943 9.954-2.551 19.843-3.788 29.77-.468 3.759-.746 7.541-1.075 11.315-.701 8.041-1.341 16.088-2.076 24.126-1.273 13.92-2.677 27.83-3.868 41.757-.563 6.588-.708 13.21-1.15 19.808-.164 2.423-.64 4.824-.974 7.694"/></svg>