<svg xmlns="http://www.w3.org/2000/svg" viewBox="0 0 1873 1230" xml:space="preserve"><path fill="#fff" d="M1529.419 967.398c-5.284-13.62-1.763-25.865 3.889-38.053 6.494-14.006 12.524-28.227 18.81-42.331 9.519-21.356 19.175-42.65 28.597-64.049 5.691-12.927 10.902-26.067 16.602-38.99 4.852-11 10.229-21.767 15.138-32.742 9.966-22.278 19.795-44.617 29.638-66.95 8.498-19.285 16.933-38.597 25.405-57.894 9.6-21.869 19.17-43.75 28.827-65.595 10.589-23.954 21.27-47.868 31.893-71.807 10.365-23.36 20.668-46.747 31.07-70.09 11.635-26.114 23.412-52.164 35.008-78.295 7.589-17.102 15.554-34.07 22.299-51.505 9.803-25.343.432-50.903-25.983-61.29-9.786-3.847-20.183-6.12-30.222-9.356-18.139-5.85-30.332-17.689-35.078-36.373-1.36-5.356-1.936-11.007-2.119-16.547-.543-16.442-.648-32.898-1.05-49.346-.222-9.114-.185-18.277-1.178-27.318-1.331-12.117-7.27-22.026-16.544-29.991-9.254-7.949-20.188-10.079-31.982-10.16-27.946-.195-55.892-.604-83.836-1.03-12.289-.187-24.572-.69-36.86-.936-19.483-.391-38.967-.708-58.451-1.017-22.291-.354-44.583-.648-66.874-1-17.276-.272-34.55-.832-51.826-.853-77.692-.095-155.383-.117-233.074.007-18.608.03-37.218.608-55.821 1.142-11.896.342-23.779 1.1-35.67 1.597-4.041.17-8.091.101-12.137.154-28.62.37-57.245.588-85.862 1.174-17.395.356-34.772 1.601-52.167 1.89-47.437.787-94.878 1.51-142.32 1.796-27.271.165-54.547-.723-81.822-.856-33.942-.165-67.886-.04-102.38-.04v-26.73c15.22 0 30.607-.008 45.994.002 8.833.006 17.666.045 26.499.061 15.666.028 31.333-.036 46.998.09 35.935.288 71.87.634 107.803 1.025 17.28.188 34.568.975 51.838.663 14.314-.258 28.595-2.12 42.912-2.558 16.189-.495 32.404-.01 48.603-.275 33.373-.547 66.743-1.25 100.112-2.003 25.71-.58 51.415-1.798 77.126-1.927 99.605-.5 199.212-.783 298.818-.916 31.11-.041 62.22.562 93.33 1.017 38.543.565 77.085 1.252 115.627 1.954 11.945.217 23.903.374 35.824 1.075 10.308.607 20.778 1.003 30.806 3.191 13.408 2.927 24.396 10.74 33.869 20.712 7.227 7.608 11.88 16.707 15 26.44 2.02 6.3 2.437 13.143 3.278 19.78.395 3.118.05 6.325.114 9.49.342 16.77.661 33.54 1.088 50.308.168 6.611.571 13.216.91 19.822.535 10.416 10.264 19.701 21.305 22.272 17.33 4.035 34.397 9.094 48.801 20.365 13.063 10.22 21.61 23.969 25.32 39.488 2.363 9.89.025 21.017-.839 31.537-1.193 14.535-9.385 26.66-14.766 39.72-6.092 14.785-12.956 29.252-19.465 43.866-8.128 18.25-16.3 36.48-24.333 54.771-7.783 17.722-15.281 35.57-23.154 53.251-6.217 13.963-12.918 27.71-19.209 41.642-5.634 12.476-10.978 25.083-16.49 37.615-7.788 17.707-15.637 35.387-23.416 53.099-6.618 15.068-13.098 30.196-19.777 45.237-7.466 16.818-15.078 33.572-22.645 50.345-7.968 17.664-16.082 35.264-23.904 52.992-8.6 19.488-16.797 39.152-25.425 58.626-11.51 25.981-23.33 51.825-34.892 77.782-7.553 16.954-15.35 33.824-22.117 51.092-3.275 8.356-4.46 10.886 7.883 16.376 19.825 8.817 39.651 17.634 59.349 26.73 12.603 5.82 25.155 11.803 37.392 18.347 8.81 4.711 13.244 13.505 15.94 22.529 2.116 7.08-.54 14.546-4.723 20.356-6.554 9.105-13.552 18.092-21.561 25.897-10.031 9.775-21.302 18.274-31.987 27.383-7.643 6.515-15.144 13.196-22.812 19.68-14.416 12.19-28.944 24.248-43.356 36.443-9.604 8.127-19.029 16.465-28.644 24.578-9.837 8.3-19.474 16.897-29.83 24.502-7.7 5.652-16.873 4.248-25.502 1.756-4.14-1.195-7.876-3.721-11.94-5.26-15.122-5.72-22.62-16.267-22.96-32.013-.087-3.998-.004-8-.02-11.999-.366-95.263-.71-190.526-1.135-285.79-.052-11.78-.692-23.556-.774-35.336-.142-20.383-.008-40.769-.093-61.152-.043-10.044-1.75-19.657-10.759-25.812-4.484-3.063-9.557-5.341-14.538-7.589-15.323-6.915-30.795-13.501-46.088-20.481-18.007-8.22-32.605-20.968-45.728-35.506-7.595-8.413-12.808-18.276-17.006-28.766-6.277-15.681-14.023-30.196-28.657-40.169-7.392-5.037-14.103-11.096-22.99-13.324-4.554-1.142-9.296-1.767-13.988-2.072-8.915-.579-17.855-.805-26.787-1.093-11.776-.38-23.554-.656-35.33-1.014-21.712-.658-43.44-1.02-65.129-2.134-13.928-.715-27.957-1.689-41.641-4.186a49.13 49.13 0 0 1-25.268-12.908c-6.3-6.043-12.72-12.016-19.554-17.43-6.348-5.03-8.136-12.444-11.426-19.084-7.522-15.184-14.147-30.87-22.558-45.535-5.81-10.13-15.848-16.945-26.52-21.495-20.63-8.797-41.612-16.776-62.525-24.894-14.47-5.616-29.127-10.753-43.597-16.37-14.128-5.483-28.023-11.578-42.218-16.875-8.585-3.204-17.539-5.427-26.34-8.042-6.646-1.974-13.256-4.12-19.994-5.71-3.81-.898-7.844-.865-11.782-1.183-8.869-.716-17.731-1.769-26.614-2.012-31.364-.859-62.734-1.498-94.104-2.101-39.201-.754-78.405-1.364-117.607-2.092-12.276-.227-24.547-.733-36.822-.942-24.268-.412-48.538-.666-72.806-1.06-15.946-.26-31.895-.508-47.833-1.043-8.212-.275-16.62-.198-24.56-1.976-18.144-4.061-31.187-15.146-37.011-32.882-4.68-14.254-7.523-29.106-11.336-43.652-1.966-7.5-4.418-14.874-6.376-22.377-1.714-6.568-3.07-13.231-4.54-19.862-1.72-7.77-3.221-15.591-5.127-23.314-2.09-8.473-4.694-16.82-6.784-25.294-2.86-11.596-5.247-23.312-8.33-34.845-.579-2.163-3.23-4.203-5.426-5.283-.839-.413-3.653 1.684-4.587 3.23-4.508 7.461-8.163 15.48-13.078 22.646-12.256 17.87-29.853 27.35-52.045 20.886-9.28-2.703-18.298-6.3-27.46-9.417a14.1 14.1 0 0 0-4.292-.738c-27.1-.357-54.2-.697-81.3-.966-13.274-.132-22.644-8.024-27.963-20.212-4.957-11.357-2.276-22.133-.325-32.934 1.91-10.578 3.62-21.32 8.651-31.218 8.819-17.345 18.957-33.754 32.17-48.087 8.435-9.15 16.54-18.809 26.075-26.688 11.24-9.287 23.154-18.297 36.08-24.857 13.852-7.03 29.038-11.682 43.997-16.19 8.969-2.702 18.582-3.989 27.971-4.39 12.22-.524 24.505.67 36.764.762 55.438.414 110.877.643 166.315 1.063 20.77.157 41.537.742 62.307.96 14.95.158 29.904.031 45.577.031V7.116h19.56v62.686h-20.061v-20.94c-1.72 0-3.474.003-5.228-.001-14.166-.033-28.333-.01-42.498-.111a79162 79162 0 0 1-130.757-1.028q-47.426-.421-94.851-1.03c-7.948-.102-15.892-.534-23.837-.85-11.434-.457-22.523 1.513-33.732 3.681-24.288 4.7-45.467 15.696-64.663 30.664-21.484 16.75-38.504 37.529-52.368 60.94-8.43 14.237-11.827 29.9-12.918 46.127-.56 8.346 1.32 9.944 9.4 9.969 10.056.031 20.115.19 30.169.036 8.437-.129 16.872-.563 25.302-.977 16.877-.83 32.832 2.743 48.287 9.395 4.265 1.835 9.018 2.658 13.623 3.554 9.743 1.895 15.565-4.207 20.344-11.124 5.541-8.02 9.82-16.94 15.612-24.753 6.468-8.724 15.354-12.996 26.77-11.282 12.69 1.906 22.173 7.638 26.45 20.201 1.887 5.542 3.327 11.241 4.834 16.905 3.707 13.931 7.511 27.84 10.94 41.842 2.671 10.91 4.662 21.986 7.268 32.913 3.435 14.403 7.182 28.732 10.783 43.095 3.045 12.14 5.703 24.39 9.215 36.393 3.418 11.679 11.563 16.886 25.043 17.485 28.243 1.253 56.555.893 84.836 1.348 36.23.583 72.458 1.301 108.687 1.995 14.444.276 28.886.678 43.33.958 20.01.389 40.02.759 60.032 1.06 25.037.378 50.084.367 75.107 1.155 10.811.34 21.57 2.276 32.356 3.457 7.036.77 14.146 1.103 21.099 2.33 7.852 1.387 15.77 2.956 23.3 5.507 17.389 5.891 34.597 12.322 51.808 18.726 16.608 6.18 33.174 12.48 49.67 18.95 15.878 6.227 31.63 12.775 47.464 19.116 8.917 3.571 18.148 6.467 26.778 10.622 16.325 7.86 31.117 18.128 40.02 34.397 8.417 15.383 16.165 31.203 23.065 47.32 3.729 8.71 10.197 14.58 16.544 20.658 6.994 6.696 15.277 11.64 25.277 12.844 7.307.88 14.581 2.388 21.908 2.693 16.446.685 32.917.712 49.374 1.157 22.396.607 44.797 1.148 67.178 2.12 12.508.543 25.048 1.403 37.438 3.109 5.902.812 12.013 3.063 17.12 6.161 17.956 10.892 34.706 23.41 45.357 42.133 4.312 7.579 7.697 15.712 11.147 23.747 4.594 10.7 11.774 19.487 19.844 27.605 12.959 13.035 28.882 21.616 45.38 29.117 13.857 6.3 28.031 11.895 41.95 18.063 8.552 3.79 14.314 10.75 19.96 18.02 6.756 8.703 7.633 18.831 7.716 28.905.615 74.105.886 148.212 1.283 222.318.282 52.791.593 105.582.887 158.373.032 5.714-.016 11.43.069 17.143.062 4.2 4.404 8.32 10.508 10.112.47.138 1.13-.096 1.471.156 6.985 5.147 12.195 1.632 17.654-3.073 20.128-17.349 40.41-34.521 60.698-51.684 23.036-19.488 46.07-38.98 69.245-58.302 11.007-9.177 20.631-19.579 29.164-31.035 3.163-4.248 3.002-6.544-1.787-9.317-6.626-3.836-13.588-7.12-20.524-10.39a4189 4189 0 0 0-46.876-21.776c-10.637-4.857-21.37-9.506-32.095-14.17-7.047-3.064-11.727-8.594-15.977-15.136"/></svg>