<svg xmlns="http://www.w3.org/2000/svg" viewBox="0 0 2054 2000" xml:space="preserve"><path fill="#fff" d="M959 1959.726c-24.667 0-48.833.092-73-.018-61.318-.279-122.636-.88-183.955-.936-152.213-.139-304.426.236-456.636-.386-19.993-.082-40.639-2.457-58.76-12.543-9.627-5.359-17.567-13.442-23.09-23.212-3.953-6.99-8.39-14.08-7.265-22.747 1.4-10.785 3.549-21.231 9.238-30.894 12.747-21.648 24.75-43.734 37.469-65.4 10.406-17.726 21.063-35.326 32.265-52.557 8.05-12.38 19.597-21.429 32.266-28.795 3.395-1.974 7.766-2.471 11.773-3.149 6.783-1.147 13.623-2.604 20.454-2.69 25.363-.316 50.732-.125 76.099-.125 8.207 0 16.417.118 24.622-.043 5.112-.101 10.216-.888 15.324-.884 5.275.004 10.545.788 15.824.883 8.875.16 17.757.156 26.633 0 4.945-.088 9.882-.903 14.824-.912 40.548-.079 81.096-.044 121.644-.05.829 0 1.657-.081 3.29-.166v-41.873h40.45l-1.897 126.612h-39.704v-44.115h-88.31c-61.547 0-123.095-.15-184.64.136-11.316.053-22.655 1.615-33.924 2.968-7.04.845-12.52 5.348-16.66 10.626-6.463 8.238-12.386 16.95-17.95 25.83-7.16 11.43-13.851 23.162-20.538 34.881-7.026 12.313-13.735 24.805-20.724 37.14-3.719 6.563-7.574 13.061-11.656 19.404-7.116 11.059-5.422 18.39 6.966 23.341 7.025 2.808 14.8 4.418 22.368 5.082 52.473 4.602 105.075 1.329 157.618 2.042 37.04.503 74.092.098 111.138.098 15.711 0 31.424-.127 47.134.04 12.353.132 24.702.715 37.055.93 8.864.154 17.733.03 26.6.03 9.368 0 18.739.114 28.105-.044 5.445-.092 10.88-.855 16.324-.91 13.677-.139 27.356-.082 41.034-.04 106.773.323 213.547.608 320.32 1.026 31.441.123 62.881.858 94.323.922 70.873.145 141.747.046 212.62.046 14.537 0 29.075-.045 43.611.007 88.774.319 177.548.627 266.321 1.031 11.776.054 23.548.684 35.324.939 6.032.13 12.071.107 18.105.007 17.275-.288 34.549-.914 51.823-.911 17.608.002 35.215.638 52.824.907 7.88.12 15.765-.03 23.647.028 42.274.315 84.55.541 126.82 1.108 6.997.093 15.634-6.457 18.995-12.762 4.164-7.814 4.827-15.87 4.817-24.453-.128-110.832.02-221.664-.13-332.496-.073-54.274-.845-108.547-.909-162.822-.144-122.88.04-245.762-.091-368.643-.046-43.108-.823-86.214-.91-129.322-.157-77.741-.044-155.483-.044-233.224 0-8.715.11-17.431-.024-26.144-.25-16.11-.945-32.217-.905-48.324.059-23.941.922-47.883.867-71.823-.162-71.274-.605-142.548-.938-213.821-.333-71.107-.651-142.215-1.041-213.321-.023-4.107-.424-8.245-1.089-12.296-.232-1.413-1.542-3.33-2.797-3.768-4.156-1.455-8.508-3.273-12.789-3.283-18.44-.044-36.883.456-55.322.86-10.11.22-20.215.71-30.325.963-15.606.39-31.218.587-46.822 1.04-19.552.566-39.096 1.406-58.649 1.947-17.104.473-34.215.681-51.322 1.033-15.275.313-30.55.643-45.823 1.002-12.942.304-25.882.693-38.824.985-16.274.368-32.549.687-48.824 1.005-12.398.241-22.513 5.673-31.118 14.097-20.805 20.366-41.378 40.969-62.217 61.3-12.66 12.352-25.683 24.332-38.465 36.56-10.716 10.252-21.41 20.53-31.935 30.976-6.243 6.196-11.978 12.903-18.224 19.097-21.743 21.563-43.53 43.083-65.462 64.455-11.22 10.934-22.955 21.34-34.137 32.311-11.8 11.578-23.124 23.638-34.824 35.32-14.785 14.76-29.655 29.44-44.66 43.98-7.042 6.822-13.881 14.112-21.895 19.612-10.675 7.326-22.616 9.748-35.423 4.214-8.524-3.684-13.767-10.897-20.176-16.86-7.484-6.965-14.763-14.158-21.97-21.411-7.953-8.007-15.65-16.268-23.606-24.272-4.001-4.026-8.302-7.759-12.532-11.552-.828-.743-1.953-1.153-3.418-1.988-10.092 10.457-20.05 20.896-30.144 31.205-10.743 10.972-21.724 21.713-32.397 32.753-11.139 11.522-22.021 23.292-33.044 34.927-2.47 2.607-5.067 5.092-7.59 7.649-24.913 25.24-49.948 50.36-74.682 75.774-13.701 14.077-26.772 28.766-40.373 42.943-7.265 7.573-15.244 14.458-22.56 21.985-11.453 11.782-22.58 23.88-33.922 35.772-4.6 4.823-9.434 9.42-14.107 14.176-17.337 17.642-34.72 35.24-51.948 52.989-10.684 11.006-21.012 22.358-31.698 33.361-11.331 11.668-23 23.008-34.332 34.675-10.988 11.313-21.623 22.968-32.619 34.272-12.062 12.4-24.46 24.475-36.527 36.872-11.183 11.489-22.058 23.276-33.19 34.816-8.24 8.543-16.704 16.868-25.013 25.345-13.914 14.196-27.853 28.37-41.651 42.678-13.09 13.572-25.924 27.39-39.037 40.939-9.171 9.476-18.682 18.623-27.936 28.02-15.352 15.59-30.697 31.188-45.899 46.923-12.219 12.648-24.178 25.546-36.335 38.254-10.18 10.642-20.476 21.171-30.722 31.75-18.213 18.805-36.42 37.616-54.643 56.412-11.375 11.733-22.725 23.49-34.174 35.151-10.808 11.01-21.848 21.794-32.565 32.891-8.017 8.302-15.53 17.09-23.553 25.384-5.65 5.84-11.943 11.051-17.663 16.827-13.931 14.066-27.721 28.272-41.516 42.472-7.409 7.626-14.815 15.26-21.973 23.118-1.486 1.632-1.869 4.268-2.76 6.441 2.087.646 4.164 1.811 6.261 1.85 10.497.191 20.999.131 31.498.08 65.774-.319 131.549-.607 197.322-1.025 18.942-.12 37.882-.646 56.824-.958 4.074-.067 8.15.005 12.226-.012 80.107-.33 160.217-.38 240.319-1.213 18.214-.19 36.417-2.94 54.595-4.803 13.753-1.408 26.982-5.064 40.095-9.503 8.763-2.966 18.162-4.007 27.064-6.628 5.972-1.759 11.615-4.683 17.333-7.246 10.755-4.82 21.674-9.34 32.128-14.751 12.246-6.338 24.174-13.317 36.042-20.351 8.608-5.102 17.185-10.349 25.25-16.248 9.958-7.283 19.469-15.191 28.989-23.052 7.643-6.31 15.362-12.6 22.396-19.558 5.843-5.78 10.89-12.398 16.023-18.857 9.534-11.995 19.147-23.944 28.16-36.326 3.617-4.968 5.784-11.002 8.525-16.593 3.028-6.176 6.278-12.271 8.859-18.634 4.043-9.97 7.833-20.057 11.3-30.24 2.895-8.498 5.645-17.098 7.61-25.843 2.725-12.133 8.088-23.521 8.705-36.318.42-8.72 3.666-17.264 4.992-25.987 2.194-14.437 4.123-28.927 5.655-43.448 1.073-10.167 1.333-20.422 1.885-30.641.182-3.365.132-6.741.208-10.112.329-14.774.3-29.57 1.16-44.314.405-6.951 2.452-13.818 3.888-20.695.968-4.63 1.362-9.608 3.406-13.742 8.018-16.22 17.5-31.337 34.907-39.336 2.24-1.03 4.5-2.215 6.393-3.766 7.874-6.452 17.528-7.838 26.99-9.779 15.733-3.227 30.672-8.128 43.638-18.193 4.049-3.142 9.247-4.789 13.873-7.208 3.515-1.838 7.098-3.601 10.403-5.775 7.633-5.022 16.628-4.991 25.066-6.615 7.238-1.393 14.84-1.16 22.282-1.177 40.332-.095 80.665-.045 120.998-.045 14.543 0 29.088.13 43.63-.035 15.807-.18 31.613-.583 47.418-.984 8.988-.228 17.97-.776 26.958-.915 3.6-.056 7.21.877 10.816.89 25.333.083 50.667.148 76-.001 12.275-.073 24.547-.757 36.824-.89 5.103-.057 10.216.896 15.322.861 7.11-.049 14.213-.787 21.324-.883 11.88-.16 23.764.085 35.643-.083 9.99-.141 19.976-.93 29.961-.889 14.941.06 29.88.78 44.82.886 22.833.163 45.667.001 68.5.07 6.145.019 10.938 2.777 14.446 7.872 7.378 10.715 10.996 22.143 10.993 35.552-.03 115.773.431 231.547.83 347.32.043 12.442.839 24.881.89 37.324.035 8.813.231 17.766-1.185 26.404-1.194 7.289-4.314 14.331-7.097 21.276-5.409 13.5-16.777 22.32-26.426 32.417-14.483 15.156-29.322 29.971-43.908 45.03-16.765 17.308-33.418 34.727-50.124 52.093-17.01 17.682-34.035 35.35-51.036 53.042-15.728 16.367-31.403 32.785-47.156 49.128-11.424 11.852-23.075 23.488-34.366 35.465-10.11 10.724-19.689 21.947-29.827 32.643-8.889 9.379-18.335 18.227-27.344 27.495-15.693 16.141-31.25 32.414-46.843 48.653-16.595 17.283-33.201 34.555-49.732 51.9-9.875 10.361-19.18 21.31-29.543 31.15-9.55 9.069-19.877 17.408-30.479 25.234-3.72 2.746-9.19 3.683-14.005 4.27-9.478 1.154-19.056 2.046-28.594 2.068-71.5.164-142.999.057-214.498.133-8.108.009-16.213.785-24.324.916a989 989 0 0 1-31.145-.003c-6.278-.097-12.553-.948-18.824-.892-16.11.143-32.217.929-48.323.875-49.775-.167-99.548-.809-149.323-.869-33.274-.04-66.548.597-99.823.927-1.825.018-3.651.002-5.861.002v-40.452h5.385c101.499 0 202.997.016 304.496-.043 5.985-.004 11.968-.792 17.956-.884 3.264-.05 6.54.894 9.81.883 85.607-.278 171.214-.516 256.82-1.075 12.452-.082 24.081-3.04 33.29-13.027 9.505-10.31 20.232-19.48 30.1-29.47 7.213-7.3 13.788-15.227 20.846-22.685a4655 4655 0 0 1 40.182-41.958c9.89-10.192 20.079-20.097 29.975-30.284 17.95-18.48 35.781-37.079 53.667-55.623 9.347-9.692 18.74-19.34 28.05-29.068 13.444-14.047 26.78-28.197 40.254-42.214 16.286-16.944 32.706-33.761 49-50.697 17.733-18.432 35.37-36.955 53.086-55.403 9.955-10.367 20.014-20.635 29.972-31 15.03-15.643 30.016-31.326 45.01-47.004 3.764-3.936 7.46-7.938 11.231-11.868 6.256-6.52 9.096-14.423 9.242-23.308.147-8.831.033-17.666.033-26.5 0-69.548.089-139.096-.046-208.644-.051-26.275-.757-52.548-.917-78.823-.167-27.543-.122-55.09.054-82.633.026-4.138-1.096-5.335-5.28-5.312-31.833.169-63.667-.016-95.499.137-16.609.08-33.217.934-49.823.886-28.609-.083-57.215-.672-85.824-.875-6.605-.046-13.218.937-19.822.881-17.943-.15-35.882-.69-53.824-.879-4.77-.05-9.545.843-14.323.897-12.21.137-24.422.045-36.633.045-12.882 0-25.766.122-38.647-.042-8.815-.112-17.626-.899-26.438-.884-9.988.018-19.975.846-29.964.88-34.166.12-68.335-.18-102.497.188-9.824.106-19.888.898-29.362 3.284-7.469 1.882-14.393 6.36-21.205 10.296-7.116 4.11-13.663 9.2-20.751 13.363-3.266 1.917-7.242 2.61-10.87 3.93-2.58.938-5.045 2.296-7.689 2.945-10.172 2.495-20.955 3.454-30.466 7.462-13.355 5.628-26.061 12.526-30.131 29.11-2.78 11.33-4.645 22.456-4.668 34.081-.035 17.442-.191 34.902-1.038 52.318-.804 16.565-1.7 33.082-5.46 49.467-3.619 15.767-4.895 32.062-7.52 48.072-.79 4.812-2.652 9.449-4.024 14.166-5.113 17.59-9.836 35.306-15.49 52.72-3.32 10.228-7.943 20.054-12.302 29.918-5.185 11.73-10.29 23.53-16.254 34.865-3.566 6.777-8.463 12.917-13.204 18.998-9.22 11.826-18.778 23.387-28.148 35.096-10.06 12.573-21.87 23.117-34.95 32.573-12.93 9.347-24.501 20.576-37.457 29.882-13.503 9.699-27.576 18.748-42.082 26.862-14.869 8.317-30.252 15.907-45.984 22.431-15.517 6.435-31.566 11.782-47.72 16.427-17.92 5.153-36.188 9.134-54.387 13.261-4.937 1.12-10.167.996-15.27 1.316-11.378.714-22.754 1.514-34.144 1.973-12.933.521-25.878.9-38.822 1.009-49.606.416-99.214.729-148.821 1.026-60.774.364-121.548.634-182.322 1.021-40.941.26-81.882.6-122.822 1.01-20.276.202-40.554 1.054-60.822.846-16.122-.165-29.848-5.081-39.487-19.872-7.025-10.779-5.434-21.48-3.407-32.345 1.802-9.658 6.508-17.909 14.103-25.053 15.072-14.181 29.211-29.362 43.587-44.273 11.415-11.842 22.479-24.024 33.939-35.821 11.319-11.653 23.067-22.89 34.39-34.539 10.241-10.538 20.14-21.407 30.237-32.087 3.114-3.294 6.394-6.43 9.577-9.66 21.956-22.28 43.924-44.546 65.851-66.854 15.41-15.677 30.898-31.28 46.097-47.158 14.221-14.858 27.928-30.21 42.209-45.009 9.344-9.683 19.522-18.559 28.944-28.171 14.518-14.81 28.791-29.861 43.007-44.962 10.042-10.667 19.746-21.652 29.735-32.37 7.531-8.08 15.09-16.152 22.97-23.886 10.728-10.529 21.905-20.6 32.625-31.135 4.883-4.8 9.027-10.345 13.715-15.356 2.586-2.764 5.767-4.967 8.399-7.694 14.29-14.81 28.443-29.752 42.742-44.553 10.868-11.25 21.992-22.253 32.79-33.568 6.197-6.492 11.856-13.495 17.974-20.067 4.94-5.307 10.245-10.272 15.316-15.46 9.735-9.96 20.447-18.898 29.397-29.713 6.648-8.032 14.54-15.037 21.908-22.47 8.141-8.212 16.267-16.439 24.493-24.565 6.803-6.72 13.895-13.15 20.578-19.984 7.876-8.055 15.384-16.469 23.184-24.6 3.198-3.333 6.926-6.16 10.093-9.52 6.93-7.352 13.505-15.04 20.5-22.327 8.064-8.399 16.585-16.359 24.62-24.783 15.984-16.76 31.573-33.9 47.708-50.51 11.648-11.991 24.054-23.243 35.87-35.076 13.473-13.49 26.728-27.197 39.96-40.925 10.606-11.004 20.911-22.3 31.576-33.248 12.97-13.311 26.228-26.342 39.262-39.591 7.988-8.12 15.333-16.934 23.806-24.495 8.64-7.71 26.187-12.3 37.804-4.836 3.273 2.102 7.51 2.766 10.635 5.02 4.343 3.13 8.136 7.053 12.02 10.786 10.977 10.552 21.985 21.076 32.777 31.815 7.484 7.446 14.659 15.205 21.902 22.89 1.248 1.323 2.148 2.973 3.537 4.935 2.281-2.078 3.603-3.217 4.853-4.43 12.229-11.873 24.558-23.646 36.63-35.677 9.355-9.326 18.188-19.18 27.613-28.434 9.647-9.473 19.847-18.38 29.59-27.759 8.886-8.555 17.432-17.462 26.22-26.122 18.314-18.05 36.707-36.02 55.028-54.065 7.637-7.523 15.05-15.274 22.778-22.7 11.128-10.694 22.528-21.104 33.659-31.795 7.516-7.218 14.768-14.711 22.139-22.082 19.671-19.672 39.286-39.402 59.037-58.995 11.281-11.191 22.112-22.98 34.366-33.01 13.571-11.107 29.02-19.264 47.463-19.174 11.5.056 23.001.132 34.5-.018 17.108-.223 34.22-.482 51.32-1.041 8.059-.264 16.083-1.604 24.14-1.847 11.038-.332 22.095.024 33.14-.106 21.776-.256 43.552-.532 65.324-1.008 24.551-.536 49.098-1.304 73.647-1.969 12.441-.337 24.883-.65 37.323-1.006 10.776-.308 21.55-.646 32.324-1 9.442-.31 18.912-.308 28.317-1.082 12.261-1.01 23.087 4.192 34.405 7.212 4.369 1.167 8.563 3.226 12.582 5.358 1.876.995 4.03 2.894 4.543 4.793 2.68 9.925 5.59 19.88 7.01 30.022 1.127 8.057.188 16.398.233 24.612.321 58.941.74 117.881.936 176.822.049 14.607-.831 29.215-.87 43.824-.03 11.148.783 22.297.883 33.449.162 17.88-.084 35.764.08 53.644.185 20.276.913 40.55.891 60.823-.025 24.275-.915 48.55-.873 72.823.217 125.44.671 250.88.933 376.32.386 185.439.55 370.878 1.143 556.317.098 30.541-1.195 61.07 1.45 91.675 1.672 19.353-.917 39.128-1.084 58.603-.782 91.43.064 182.877.703 274.315.052 7.485-1.856 13.986-4.084 20.8-3.703 11.326-10.103 20.988-17.228 30.315-5.494 7.192-14.196 8.354-21.694 11.777-7.62 3.478-15.733 3.119-23.85 3.075-21.5-.115-43-.106-64.499.007-5.61.03-11.22.973-16.823.896-31.564-.433-63.123-1.187-94.688-1.508-8.056-.082-16.124 1.47-24.186 1.47-15.774-.003-31.548-.812-47.323-.858-45.038-.13-90.076-.046-135.113-.046-23.049 0-46.098.079-69.145-.045-7.319-.04-14.633-.806-21.953-.882-4.437-.045-8.882.896-13.322.883q-137.66-.412-275.32-.964c-72.733-.292-145.465-.658-218.697-.992"/></svg>