<svg xmlns="http://www.w3.org/2000/svg" viewBox="0 0 1560 1315" xml:space="preserve"><path fill="#fff" d="M906.442 1215.546c-8.246 11.126-16.075 22.122-24.478 32.66-6.642 8.329-13.536 16.563-21.18 23.947-5.105 4.93-11.667 8.377-17.674 12.34-11.11 7.33-23.903 6.266-35.726 4.566-10.086-1.45-20.066-6.113-27.67-14.02-20.088-20.886-40.245-41.705-60.303-62.62a3562 3562 0 0 1-34.466-36.416c-10.034-10.763-19.832-21.746-29.826-32.547-11.322-12.235-22.751-24.37-34.127-36.556-12.035-12.893-23.982-25.87-36.119-38.667-10.393-10.959-20.624-22.115-31.619-32.447-10.779-10.13-22.246-19.56-33.759-28.866-9.03-7.3-20.05-6.606-30.362-4.56-12.741 2.526-25.283 6.336-37.65 10.391-10.567 3.466-20.708 8.212-31.142 12.114-10.937 4.092-21.998 7.852-33.004 11.76q-16.057 5.702-32.113 11.408c-.464.165-.92.46-1.39.481-15.205.697-30.529 2.83-45.587 1.632a237.7 237.7 0 0 1-45.383-8.09c-21.932-6.152-42.317-15-61.877-26.502-11.803-6.941-21.73-15.685-30.568-25.871-7.088-8.169-15.035-15.875-20.617-25-7.976-13.04-15.053-26.82-20.757-40.992-3.8-9.441-4.484-19.978-2.786-30.564 1.949-12.152 4.485-24.032 12.894-33.32 4.253-4.698 9.825-8.623 15.513-11.478 5.222-2.62 11.32-4.179 17.172-4.731 18.56-1.751 37.185-2.818 55.786-4.13 1.327-.093 2.666.005 3.998-.03 12.443-.328 24.888-.564 37.326-1.024 15.055-.557 30.104-1.289 45.153-1.978 14.05-.643 28.097-1.3 42.143-2.006a6141 6141 0 0 0 37.148-1.995c17.328-.977 34.652-2.023 51.98-2.99 12.714-.71 25.442-1.189 38.147-2.04 17.61-1.18 35.199-2.656 52.805-3.9 3.648-.257 7.339.108 10.995-.091 17.163-.935 34.32-1.98 51.481-2.958 6.606-.377 13.215-.726 19.826-1.006 24.157-1.022 48.318-1.959 72.472-3.032 12.222-.544 24.435-1.295 36.65-1.982 17.495-.984 34.986-2.023 52.481-2.988 12.88-.71 25.765-1.36 38.65-2.002 13.88-.691 27.766-1.291 41.644-2.03 10.887-.58 21.763-1.351 32.647-1.966a19428 19428 0 0 1 54.98-3.006c12.882-.69 25.766-1.342 38.65-2.001 13.214-.676 26.43-1.318 39.645-2.015 12.05-.635 24.1-1.311 36.148-1.989 17.66-.993 35.318-2.019 52.978-3.002 12.382-.69 24.777-1.198 37.15-2.027 17.94-1.203 35.86-2.713 53.802-3.894 5.477-.36 11.019.247 16.491-.141 10.675-.758 21.322-1.914 31.982-2.887 7.213-.659 14.452-1.088 21.637-1.971 12.82-1.576 20.112-9.213 24.22-21.257 4.262-12.495 1.594-23.95-3.294-35.302-3.041-7.065-10.046-7.659-16.312-8.284-16.728-1.667-33.506-2.853-50.276-4.059-7.76-.558-15.546-.783-23.324-1.044-21.05-.705-42.104-1.262-63.15-2.045-13.555-.504-27.098-1.311-40.648-1.966-14.05-.678-28.103-1.3-42.152-2.012-18.995-.963-37.984-2.042-56.98-2.974-15.214-.747-30.435-1.35-45.653-2.016-15.217-.667-30.444-1.163-45.647-2.068-8.876-.528-17.714-1.711-27.204-2.663l-1.81 22.821-19.912-1.333 4.986-71.965 20.02 1.359c-.467 6.454-.694 12.438-1.402 18.365-.482 4.034 1.276 5.293 4.879 5.381 11.943.293 23.887.567 35.826 1.008 15.72.581 31.437 1.265 47.151 1.999 12.554.586 25.099 1.356 37.651 1.97 21.158 1.036 42.32 1.994 63.479 3.022 12.886.626 25.766 1.384 38.654 1.972 16.048.733 32.102 1.315 48.15 2.03 13.72.612 27.436 1.303 41.152 1.99 19.66.985 39.34 1.723 58.972 3.114 10.135.717 20.397 1.76 30.224 4.187 13.923 3.438 23.876 12.323 29.223 25.93 4.978 12.667 7.573 25.855 5.87 39.332-.878 6.937-3.693 13.772-6.474 20.295-5.115 11.996-14.08 20.728-25.778 26.226-7.829 3.68-16.416 5.252-25.06 6.005-8.707.759-17.418 1.549-26.144 1.982-16.377.812-32.769 1.329-49.15 2.06a3739 3739 0 0 0-39.65 1.994c-17.16.95-34.315 2.02-51.476 2.984-12.715.713-25.445 1.189-38.15 2.04-17.61 1.18-35.204 2.62-52.806 3.924-1.492.11-3-.01-4.498.046-17.885.66-35.774 1.21-53.65 2.037-18.168.84-36.324 1.93-54.481 2.966-16.829.96-33.652 2.01-50.48 2.99-6.439.375-12.881.697-19.325.995-14.883.687-29.773 1.256-44.651 2.036-17.165.899-34.318 2.021-51.482 2.954-13.713.745-27.435 1.316-41.15 2.028-11.886.617-23.768 1.315-35.651 1.99-17.494.994-34.985 2.03-52.48 2.99-13.049.716-26.101 1.351-39.153 2.005-13.55.679-27.102 1.312-40.651 2.012-12.217.63-24.431 1.325-36.646 1.992-12.218.667-24.435 1.342-36.653 2-18.66 1.006-37.319 2.015-55.98 2.994-13.215.693-26.433 1.346-39.65 2.004-13.55.676-27.102 1.325-40.651 2.004-13.052.654-26.102 1.339-39.153 1.996-19.993 1.007-40 1.793-59.976 3.068-15.786 1.008-31.605 2.085-47.268 4.184-7.175.961-13.044 5.6-15.278 13.256-1.453 4.981-3.47 9.976-3.798 15.057-.32 4.961.026 10.588 2.099 14.966 6.704 14.163 13.896 28.145 21.817 41.658 3.437 5.864 9.316 10.247 13.734 15.594 13.162 15.932 30.736 25.365 48.91 34.125 15.902 7.665 32.827 12.58 49.925 15.436 16.207 2.707 33.086 3.088 49.536 2.152 15.17-.864 29.444-7.178 43.723-12.54 23.224-8.72 46.497-17.34 69.975-25.344 11.889-4.052 24.121-7.553 36.48-9.612 8.422-1.403 17.363-.266 26.017.429 15.097 1.211 25.498 11.47 36.075 20.556 12.931 11.11 25.31 22.935 37.226 35.136 12.698 13.003 24.5 26.876 36.84 40.236 8.785 9.512 17.863 18.754 26.715 28.206 11.199 11.958 22.31 23.999 33.441 36.02 7.978 8.615 15.844 17.336 23.913 25.866 10.347 10.937 20.902 21.678 31.268 32.597 15.242 16.057 30.29 32.3 45.646 48.247 5.577 5.793 11.151 12.002 17.867 16.196 11.804 7.372 24.258 5.905 34.898-2.707 6.973-5.645 12.909-12.692 18.755-19.581 8.086-9.531 16.237-19.103 23.295-29.389 9.449-13.772 16.589-28.88 22.447-44.562 3.479-9.31 7.604-18.405 10.6-27.862 2.99-9.444 4.63-19.309 7.421-28.826 3.006-10.25 4.318-20.613 3.878-31.232-.78-18.797-4.943-36.911-13.701-53.487-7.346-13.902-19.487-23.996-31.67-33.597-16.03-12.632-32.462-24.754-48.688-37.138-3.535-2.699-7.242-5.275-10.336-8.431-8.88-9.058-13.63-19.852-13.704-32.797-.047-8.312 4.496-14.01 9.835-19.057 7.143-6.752 16.384-8.638 25.952-8.932 22.521-.691 45.045-1.317 67.566-2.016 20.386-.632 40.77-1.295 61.153-2 18.053-.625 36.098-1.51 54.155-1.946 21.937-.531 43.882-.87 65.825-.978 10.773-.053 21.55.604 32.326.932 11.109.338 22.216.74 33.327.984 17.94.395 35.886.567 53.824 1.048 19.722.53 39.44 1.238 59.154 1.992 14.554.557 29.127.965 43.644 2.069 16.572 1.26 33.085 3.274 49.634 4.85 8.531.81 17.102 1.226 25.625 2.1 8.822.905 17.621 2.059 26.409 3.263 14.821 2.03 29.578-1.633 36.991-17.828 4.9-10.703 12.235-20.285 18.422-30.403 11.504-18.813 23.116-37.564 34.245-56.596 1.343-2.296 1.066-6.806-.325-9.213-5.571-9.641-11.797-18.912-17.93-28.221-12.95-19.655-25.9-39.31-39.021-58.85-18.526-27.586-37.242-55.045-55.808-82.605-8.16-12.113-16.078-24.388-24.23-36.506-15.367-22.843-30.83-45.622-46.242-68.435-7.805-11.554-15.044-23.541-23.524-34.575-9.598-12.49-18.123-26.26-32.012-34.719-7.803-4.752-15.851-9.732-24.473-12.383-19.023-5.847-38.57-8.57-58.465-3.876-14.991 3.538-29.846 7.827-42.65 16.483-8.939 6.044-16.479 14.123-24.91 20.964-7.776 6.308-15.465 12.91-23.993 18.057-11.118 6.71-22.835 12.53-34.66 17.933a133 133 0 0 1-24.548 8.401c-10.77 2.541-21.635 4.029-33 3.608-14.932-.552-29.117-3.427-43.124-8.053-11.313-3.737-22.99-6.685-33.788-11.568-9.464-4.28-18.438-10.104-26.706-16.449-9.538-7.32-18.852-15.262-26.784-24.241-6.402-7.247-10.927-16.258-15.679-24.822-3.539-6.38-6.702-13.105-8.962-20.026-2.936-8.99-4.865-18.313-7.129-27.517-3.785-15.394-5.545-31.026-6.128-46.876-.516-14.01-1.95-27.986-2.877-41.983-1.386-20.93-2.556-41.876-4.06-62.798-1.12-15.612-2.824-31.182-3.902-46.796-1.23-17.81-2.265-35.64-2.988-53.476-.638-15.763-.638-31.552-1.135-47.322-.107-3.381-.432-7.084-1.888-10.031-3.95-7.995-10.222-10.089-18.58-7.297-7.249 2.42-14.593 4.552-21.884 6.846-10.844 3.413-21.654 6.933-32.523 10.265-10.893 3.339-21.847 6.477-32.76 9.751-9.102 2.73-18.15 5.648-27.285 8.263-7.229 2.07-14.566 3.758-21.832 5.7-12.63 3.379-25.216 6.92-37.868 10.212-13.075 3.402-26.23 6.501-39.307 9.9-9.327 2.423-18.529 5.339-27.881 7.65-17.137 4.237-34.341 8.201-51.523 12.255-7.161 1.69-14.31 3.447-21.512 4.947-10.248 2.134-20.565 3.936-30.803 6.11-9.128 1.94-18.149 4.388-27.29 6.259-13.314 2.726-26.695 5.13-40.045 7.683-10.93 2.09-21.84 4.287-32.789 6.272-9.35 1.696-18.814 2.823-28.098 4.808-11.955 2.556-23.785 5.699-35.66 8.623-16.964 4.177-32.103 12.698-47.459 20.533-6.915 3.528-13.349 8.374-19.207 13.525-13.983 12.296-25.782 26.72-35.955 42.187-7.25 11.023-12.895 23.18-18.505 35.18-4.27 9.139-8.332 18.588-10.741 28.33-3.332 13.473-5.193 27.324-7.373 41.062-2.185 13.773-4.65 27.554-5.735 41.43-.77 9.839.052 19.89 1.044 29.759 2.018 20.065 11.954 37.082 21.72 54.155 5.356 9.362 9.977 19.142 15.173 28.599 2.05 3.73 4.679 7.158 7.19 10.617 5.732 7.898 9.233 16.898 10.243 26.35.54 5.06-2.25 10.455-3.44 15.721-3.32 14.702-14.152 23.051-25.875 30.626-1.03.666-2.365 1.01-3.603 1.183-14.61 2.029-26.999-3.687-39.104-10.916-11.507-6.872-23.028-13.827-35.06-19.681-12.076-5.875-34.172-.941-39.54 16.364-4.427 14.272-3.128 27.596 7.134 38.92 4.385 4.84 9.933 8.112 17.21 8.356 18.17.61 36.32 1.844 54.474 2.902 9.89.577 19.762 1.527 29.657 1.922 20.545.82 41.102 1.295 61.648 2.08 13.057.5 26.103 1.303 39.153 1.965 13.218.671 26.436 1.33 39.653 2.005 12.885.658 25.769 1.34 38.654 1.994 13.384.679 26.765 1.414 40.154 1.978 10.77.455 21.553.615 32.324 1.042 15.054.596 30.105 1.279 45.153 1.998 12.72.607 25.434 1.362 38.155 1.975 21.491 1.035 42.986 2.009 64.48 3.011 14.217.663 28.435 1.323 42.652 2 13.718.655 27.434 1.332 41.152 1.999 13.717.666 27.436 1.308 41.152 2.008 12.387.632 24.769 1.344 37.155 1.988 13.216.688 26.434 1.357 39.653 1.998 14.217.69 28.437 1.304 42.652 2.016 11.854.594 23.702 1.282 35.334 1.917v26.188c-7.246 0-13.851.186-20.443-.036-16.555-.558-33.105-1.252-49.653-1.983-13.387-.59-26.766-1.343-40.151-1.973-14.883-.7-29.77-1.3-44.65-2.024-12.388-.602-24.767-1.383-37.155-1.97-22.158-1.05-44.32-2.006-66.48-3.018-14.217-.65-28.433-1.348-42.651-1.991-15.216-.69-30.439-1.239-45.65-2.034-16.831-.881-33.647-2.083-50.48-2.94-16.043-.815-32.1-1.34-48.15-2.039-14.551-.632-29.102-1.264-43.648-2.008-18.328-.937-36.648-2.032-54.976-2.973-14.38-.738-28.766-1.383-43.153-2-16.548-.711-33.102-1.303-49.65-2.027-13.718-.6-27.431-1.333-41.148-1.98-14.55-.686-29.108-1.217-43.65-2.04-15.001-.848-30.02-1.631-44.971-3.06-14.467-1.384-25.938-8.377-35.487-19.488-5.04-5.864-8.99-12.145-11.212-19.213-3.467-11.025-5.49-22.42-1.928-33.958 1.975-6.396 3.192-13.24 6.351-19.006 4.515-8.237 10.684-15.057 19.36-20.03 13.753-7.882 28.474-8.48 43.135-6.867 7.197.792 14.05 5.833 20.783 9.463 12.144 6.548 23.998 13.634 36.133 20.2 8.095 4.379 15.311.04 18.983-8.627 4.173-9.85-.418-16.988-4.765-24.649-9.759-17.197-19.765-34.26-29.17-51.647-4.927-9.11-9.835-18.472-12.857-28.303-3.037-9.88-3.693-20.488-5.446-30.768-2.66-15.609.752-30.808 2.863-46.126 1.1-7.986 1.06-16.134 2.248-24.103 1.375-9.222 3.445-18.347 5.38-27.48 1.58-7.451 2.713-15.101 5.277-22.219 4.31-11.959 9.049-23.833 14.629-35.244 5.565-11.382 11.462-22.823 18.885-33.02 9.686-13.309 21.014-25.423 31.642-38.044 11.052-13.126 25.89-21.038 40.832-28.379 13.682-6.721 27.953-12.356 42.28-17.608 7.873-2.886 16.394-4.011 24.63-5.901 5.242-1.203 10.476-2.45 15.75-3.495 4.815-.956 9.673-1.712 14.524-2.476 10.85-1.71 21.75-3.148 32.552-5.116 9.916-1.806 19.713-4.254 29.599-6.238 5.44-1.092 11-1.598 16.427-2.744 9.243-1.952 18.4-4.314 27.638-6.29 7.973-1.706 16.049-2.934 24.007-4.701 8.774-1.948 17.441-4.371 26.2-6.396 7.16-1.655 14.432-2.833 21.568-4.578 8.386-2.05 16.657-4.562 25.015-6.73 7.125-1.85 14.305-3.489 21.457-5.239 9.743-2.384 19.507-4.691 29.218-7.203 13.61-3.52 27.206-7.101 40.758-10.837 12.669-3.492 25.241-7.33 37.915-10.8 7.08-1.938 14.373-3.13 21.41-5.2 13.154-3.869 26.19-8.14 39.279-12.232 8.244-2.578 16.485-5.169 24.746-7.694 11.498-3.516 22.923-7.323 34.553-10.333 7.247-1.876 14.825-3.517 22.234-3.433 8.32.094 14.882 5.51 20.626 11.23 2.771 2.76 4.811 6.247 7.242 9.357 4.343 5.557 5.61 12.084 5.698 18.858.152 11.664-.202 23.339.1 34.997.443 17.057.957 34.124 2.028 51.15 1.326 21.058 3.26 42.08 4.919 63.117 1.01 12.823 2.09 25.642 2.976 38.473 1.412 20.427 1.887 40.957 4.256 61.269 2.198 18.853 3.396 37.804 8.185 56.473 4.264 16.619 10.47 31.958 18.773 46.772 6.6 11.775 17.847 18.66 27.404 27.3 10.33 9.341 22.618 15.717 35.628 20.307 9.135 3.223 18.831 4.818 28.166 7.524 8.921 2.585 17.89 3.969 27.214 3.998 13.356.043 26.05-2.879 38.39-7.527 17.51-6.596 34.033-15.192 48.903-26.585 6.627-5.077 12.684-10.97 18.598-16.893 9.667-9.68 21.045-17.178 33.282-22.496 12.752-5.542 26.525-8.89 40.045-12.464 13.775-3.641 27.776-3.153 41.737-.318 9.458 1.92 19.24 2.662 28.408 5.467 7.328 2.242 14.244 6.328 20.808 10.45 8.201 5.149 16.195 10.764 23.62 16.967 4.732 3.952 8.578 9.107 12.28 14.122 9.556 12.942 19.051 25.941 28.131 39.219 13.5 19.742 26.602 39.757 39.912 59.63a17046 17046 0 0 0 35.115 52.234c10.49 15.538 21.136 30.973 31.547 46.565 7.384 11.057 14.383 22.37 21.752 33.437 7.984 11.989 16.222 23.808 24.306 35.73 11.608 17.122 23.64 33.982 34.573 51.526 5.73 9.196 11.746 18.953 9.918 30.789-.54 3.495-1.273 7.216-2.981 10.23-6.656 11.74-13.708 23.258-20.67 34.824-12.473 20.726-24.921 41.467-37.512 62.121-6.132 10.06-14.563 18.181-25.79 21.526-9.94 2.961-20.348 4.755-31.157 2.724-8.695-1.633-17.726-1.403-26.578-2.298-10.128-1.024-20.214-2.452-30.333-3.567-8.186-.902-16.379-1.885-24.596-2.32-11.427-.608-22.883-.656-34.321-1.091-15.387-.586-30.881-.373-46.126-2.199-23.066-2.762-46.126-1.112-69.175-1.8-19.054-.569-38.1-1.402-57.154-1.953-16.105-.465-32.218-.647-48.325-1.044-9.612-.238-19.22-.943-28.827-.91-12.943.043-25.886.556-38.826.943-8.778.262-17.55.706-26.328.974-22.883.698-45.768 1.325-68.652 2.018-21.051.638-42.106 1.218-63.149 2.071-5.056.205-10.152 1.06-15.073 2.26-2.62.638-3.852 2.563-2.93 6.105 1.857 7.124 7.302 10.92 12.437 14.94 10.444 8.174 21.2 15.948 31.77 23.963 8.78 6.657 17.633 13.23 26.174 20.183 12.947 10.542 24.13 22.807 31.517 37.848 4.13 8.411 7.028 17.531 9.598 26.582 4.457 15.693 6.56 31.841 5.91 48.148-.258 6.449-2.29 12.841-3.656 19.229-1.638 7.66-3.212 15.345-5.197 22.918-4.997 19.068-11.553 37.614-20.008 55.42-4.978 10.484-10.592 20.666-16.09 31.313"/></svg>