<svg viewBox="0 0 2323 1500" xml:space="preserve" xmlns="http://www.w3.org/2000/svg"><path d="M1299.36 49.191c-18.518-1.11-36.965.362-55.3 3.002-5.431.783-11.12 1.484-16.056 3.662-13.725 6.056-28.114 10.711-39.793 21.043-10.791 9.547-21.695 18.7-30.24 30.561-10.144 14.08-16.788 29.732-22.782 45.75-4.96 13.255-9.295 26.744-14.136 40.045-4.475 12.293-9.367 24.435-13.864 36.72-3.523 9.627-6.615 19.41-10.107 29.047-2.466 6.808-5.448 13.43-7.906 20.24-5.627 15.587-10.922 31.293-16.65 46.84-3.725 10.11-8.128 19.967-11.948 30.044-5.19 13.692-10.204 27.453-15.094 41.255-1.49 4.207-2.325 8.644-3.533 13.256l32.895 11.946c2.47-5.563 5.016-10.6 6.976-15.856 3.54-9.494 6.735-19.117 10.067-28.69 3.696-10.617 7.35-21.25 11.088-31.853q3.538-10.04 7.275-20.008c2.818-7.516 5.862-14.949 8.592-22.496 3.478-9.616 6.603-19.362 10.134-28.959 3.48-9.458 7.497-18.72 10.883-28.209 4.65-13.027 8.705-26.268 13.428-39.267 4.595-12.647 9.95-25.017 14.531-37.668 4.331-11.962 7.947-24.072 15-34.985 10.7-16.553 23.955-29.922 41.76-38.716 10.533-5.203 21.545-9.004 33.154-9.795 15.048-1.026 30.178-.844 45.274-1.118 1.44-.026 2.916.296 4.328.647 6.89 1.712 13.686 4.488 20.66 5.03 13.557 1.05 24.927 7.869 35.791 14.28 10.246 6.047 18.257 15.965 26.979 24.46 2.5 2.434 3.81 6.041 6.082 8.765 9.964 11.95 12.79 25.782 11.172 40.854-.226 2.098-.607 4.183-.952 6.267-1.291 7.812-2.864 15.59-3.824 23.442-.995 8.142-5.834 14.439-9.719 21.095-2.654 4.55-5.194 9.072-10.482 12.26-11.894 7.169-24.107 11.562-38.068 11.022-8.644-.335-14.736-5.401-18.692-11.885-5.23-8.576-8.632-18.253-13.021-27.36-6.307-13.085-13.407-25.601-25.951-33.959-3.234-2.154-6.047-5.7-9.547-6.537-7.582-1.811-15.465-2.911-23.258-3.12-7.15-.193-14.333 1.586-21.518 1.747-12.856.288-22.112 7.786-29.303 16.586-9.817 12.016-16.607 26.572-18.124 42.031-1.106 11.265-3.436 23.311 2.412 34.504 3.562 6.82 5.706 14.493 9.908 20.842 8.97 13.553 18.58 26.711 28.478 39.61 6.839 8.91 14.14 17.54 23.211 24.43 5.519 4.19 10.44 9.394 16.434 12.675 6.96 3.81 14.746 6.161 22.273 8.87 7.162 2.575 14.273 4.744 22.23 4.65 8.767-.105 17.549 1.76 26.34 2.587 2.08.196 4.247-.197 6.337-.545 10.398-1.73 20.765-3.663 31.181-5.277 8.869-1.374 17.812-2.259 26.68-3.637 10.584-1.644 21.108-3.677 31.685-5.367 10.463-1.671 20.972-3.054 31.44-4.695 10.76-1.687 21.486-3.584 32.242-5.291 8.67-1.376 17.37-2.574 26.047-3.91 10.929-1.683 21.85-3.42 32.771-5.149 8.19-1.296 16.385-2.553 24.557-3.949 9.432-1.611 18.818-3.501 28.268-4.998 8.058-1.276 16.207-1.993 24.265-3.27 11.229-1.778 22.398-3.912 33.616-5.761 4.351-.718 8.79-.91 13.144-1.621 10.41-1.703 20.766-3.744 31.193-5.32 8.56-1.295 17.645-.774 25.686-3.471 11.67-3.916 23.516-1.852 35.2-3.301 7.82-.97 16.055.684 24.02 1.773 10.617 1.453 21.237 3.111 31.7 5.393 11.17 2.436 22.16 5.695 33.226 8.605a4969 4969 0 0 1 22.44 5.94c4.83 1.295 9.612 2.782 14.473 3.951 6.579 1.582 13.267 2.73 19.808 4.447 8.884 2.333 17.63 5.19 26.518 7.508 5.926 1.546 12.05 2.322 17.988 3.828 14.346 3.64 28.603 7.633 42.957 11.237 10.198 2.56 20.545 4.53 30.736 7.113 9.478 2.402 18.811 5.365 28.256 7.902 12.292 3.302 24.632 6.42 36.948 9.631 4.22 1.1 8.43 2.228 12.638 3.373 12.233 3.328 24.538 6.424 36.666 10.098 7.646 2.316 10.862 12.701 6.164 17.506-4.012 4.103-8.887 8.06-14.148 10.109-13.048 5.08-26.514 9.094-39.852 13.414-10.252 3.32-20.507 6.665-30.877 9.582-4.98 1.401-10.318 1.499-15.343 2.777-12.98 3.303-25.944 6.452-39.495 5.725-.996-.053-2-.012-2.998.045-11.223.642-22.447 1.826-33.67 1.803-12.034-.025-24.065-1.229-36.101-1.834-20.786-1.046-41.568-2.529-62.367-2.905-24.493-.442-48.929-.869-73.387-2.908-24.377-2.032-48.905-2.275-73.371-3.185-12.76-.475-25.541-1.241-38.287-.897-17.294.467-34.567 1.816-51.84 2.914-4.391.28-8.82.729-13.113 1.647-7.092 1.516-13.996 4.227-21.143 5.097-15.938 1.942-30.366 8.56-44.781 14.586-10.808 4.519-20.82 11.539-30.178 18.754-8.9 6.863-16.6 15.315-24.625 23.274-6.843 6.786-13.677 13.619-20.012 20.87-10.06 11.517-19.617 23.457-26.287 37.39-3.063 6.398-6.496 12.652-9.06 19.244-1.445 3.713-1.401 7.991-2.139 11.996-1.495 8.114-3.417 16.17-4.506 24.336-1.084 8.134-1.348 16.379-2.004 24.572-.287 3.593-1.07 7.2-.885 10.764.306 5.865 1.152 11.707 1.887 17.544.916 7.273 1.727 14.57 3.008 21.782.986 5.553 2.548 11.012 4.006 16.472 1.039 3.89 1.835 7.959 3.603 11.518 4.92 9.903 9.871 19.836 15.592 29.285 6.854 11.32 14.583 22.108 21.809 33.207a1425 1425 0 0 1 17.808 28.014c5.532 8.945 10.788 18.059 16.264 27.039 5.526 9.061 11.496 17.867 16.672 27.12 4.925 8.806 8.435 18.443 13.732 26.991 6.208 10.016 9.437 21.157 11.034 32.2 2.406 16.644.614 33.732-3.295 50.062-2.736 11.427-8.079 22.31-12.989 33.103-2.443 5.373-5.936 10.56-9.992 14.85-10.372 10.973-23.982 17.473-36.844 24.91-4.4 2.544-9.145 4.767-14.011 6.174-14.483 4.186-29.434 3.075-44.262 3.1-5.163.008-10.368.338-15.48-.188-9.574-.984-19.094-2.492-28.637-3.771-7.278-.977-14.557-1.939-21.836-2.905-7.77-1.03-15.53-2.14-23.313-3.066-12.02-1.43-24.085-2.518-36.078-4.145-17.31-2.346-32.86.208-46.756 12.16-9.698 8.343-14.812 18.733-18.148 30.376-3.37 11.76-2.815 23.74-.262 35.61.843 3.922 2.216 7.727 3.293 11.6 1.46 5.25 2.54 10.631 4.373 15.745 3.622 10.102 7.805 20.003 11.461 30.093 3.347 9.239 5.937 18.763 9.524 27.9 4.898 12.481 10.238 24.8 15.76 37.02 2.69 5.955 5.583 11.947 12.025 15.18 3.287 1.65 6.16 4.106 9.338 6 2.619 1.561 5.298 3.716 8.144 4.074 11.22 1.411 22.503 2.914 33.785 3.117 35.765.647 71.542.55 107.309 1.09 20.366.308 40.722 1.288 61.082 1.983 8.602.293 17.2.663 25.803.935 22.029.698 44.059 1.38 66.09 2.03 12.432.366 24.87.583 37.3.998 18.026.6 36.044 1.387 54.07 1.968 13.602.44 27.211.61 40.813 1.028 19.692.605 39.38 1.385 59.072 1.98 14.597.441 29.198.71 43.797 1.05 13.768.323 27.54.496 41.301.999 13.034.476 26.05 1.51 39.084 1.92 26.024.82 52.055 1.528 78.088 1.996 16.661.3 33.34.402 49.992-.068 5.7-.161 11.408-2.097 16.994-3.645 7.684-2.129 12.386-8.384 17.627-13.74 4.736-4.84 8.09-11.027 8.81-17.453 1.06-9.436.764-19.119.044-28.62-.351-4.626-2.45-9.357-4.686-13.546-3.187-5.972-7.436-11.367-10.853-17.229-4.642-7.962-4.934-16.837-4.198-25.7.443-5.323.39-11.236 2.749-15.735 4.351-8.299 11.855-14.693 20.58-17.537 9.733-3.174 20.227-4.885 30.478-5.37 11.122-.526 22.348 1.062 33.523 1.801 2.27.15 4.64.271 6.756 1.006 12.295 4.269 25.098 7.26 36.055 14.889 5.15 3.585 11.268 5.912 16.008 9.92 6.876 5.813 13.002 12.538 19.225 19.086 1.713 1.803 2.812 4.276 3.888 6.583 4.437 9.516 9.647 18.647 10.14 29.684.3 6.714 3.296 13.321 3.485 20.022.345 12.243.08 24.573-1.06 36.761-.648 6.919-3.03 13.825-5.551 20.381-2.87 7.461-6.396 14.736-10.317 21.71-4.492 7.99-9.478 15.74-14.746 23.245-2.988 4.258-7.331 7.552-10.437 11.744-8.898 12.011-21.254 19.945-33.43 27.772-10.387 6.678-21.766 11.926-33.049 17.053-6.358 2.888-13.305 4.769-20.18 6.14-5.597 1.117-11.488.693-17.234 1.14-16.221 1.266-32.414 3.158-48.658 3.821-21.24.867-42.517.817-63.78 1.117-24.764.35-49.53.765-74.296.952-54.099.408-108.199.631-162.297 1.048-25.429.197-50.856.673-76.283 1.008-25.93.342-51.86.853-77.791.955-43.703.172-87.407-.008-131.11.137-18.27.06-36.54.548-54.808.889-16.264.303-32.526.678-48.79 1.013-16.097.332-32.194.814-48.294.94-21.332.166-42.666-.054-63.998.078-40.1.247-80.2.57-120.3.98-18.097.185-36.191.683-54.288.979-6.191.101-12.387-.068-18.578.033-17.267.282-34.532.829-51.8.938-66.599.42-133.198.654-199.798 1.078-22.764.145-45.527.605-68.289.988-15.765.266-31.527.792-47.293.95-40.436.402-80.874.68-121.31.976-51.095.374-102.19.67-153.284 1.107-14.597.125-29.191.836-43.789.912-30.697.16-61.394.015-92.092.135-8.268.033-16.532.791-24.8.834-23.5.122-47 .013-70.498.064-11.839.027-23.385-.666-34.186-6.634-5.969-3.299-7.305-6.656-2.096-11.243 4.612-4.059 9.572-7.976 14.971-10.835 12.063-6.389 24.378-12.338 36.824-17.948 6.734-3.034 13.802-5.631 20.983-7.28 7.755-1.783 15.972-1.569 23.715-3.39 18.692-4.396 37.822-3.992 56.732-5.462 15.749-1.225 31.558-1.3 47.355-3.055 19.331-2.147 38.885-2.255 58.338-3.334 10.37-.575 20.73-1.32 31.092-2.02 19.386-1.31 38.769-2.648 58.154-3.955 1.495-.1 3.011.063 4.498-.084 12.723-1.257 25.426-2.717 38.163-3.797 10.996-.932 22.037-1.333 33.043-2.173 15.723-1.201 31.41-3.037 47.152-3.762 14.407-.664 28.523-1.644 42.56-5.834 11.803-3.523 23.27-7.852 32.774-15.125 8.814-6.745 16.133-15.735 23.045-24.57 4.572-5.846 7.703-12.973 10.697-19.866 5.127-11.802 9.806-23.809 14.361-35.847 3.69-9.748 6.787-19.717 10.393-29.498 3.39-9.194 7.267-18.209 10.63-27.41 4.959-13.562 9.553-27.256 14.493-40.825 3.35-9.2 7.176-18.228 10.522-27.43 4.819-13.255 9.31-26.63 14.105-39.894 3.5-9.68 7.379-19.224 10.879-28.904 3.504-9.691 6.59-19.534 10.148-29.203 3.443-9.355 7.409-18.516 10.858-27.868 2.984-8.09 5.362-16.405 8.375-24.484 4.534-12.158 9.406-24.19 14.097-36.289 2.893-7.462 5.873-14.897 8.516-22.447 1.967-5.62 3.274-11.468 5.205-17.102 2.445-7.131 5.271-14.13 7.852-21.217 4.506-12.373 8.946-24.77 13.42-37.156q3.836-10.62 7.691-21.232c3.525-9.704 7.007-19.425 10.604-29.102 2.687-7.23 5.603-14.376 8.279-21.611 3.62-9.787 7.115-19.62 10.65-29.438 2.498-6.936 5.002-13.873 7.447-20.828 1.5-4.267 2.745-8.63 4.372-12.846 3.75-9.722 7.841-19.315 11.462-29.084 3.612-9.742 6.717-19.671 10.239-29.449 2.453-6.812 5.37-13.456 7.836-20.263 2.845-7.856 5.289-15.86 8.158-23.707 2.428-6.64 5.37-13.092 7.799-19.733 2.536-6.937 4.648-14.03 7.093-21.002 3.608-10.285 7.28-20.55 11.059-30.773 1.815-4.909 3.937-9.702 5.957-14.639 11.324 4.36 21.85 8.41 32.71 12.592 4.211-10.905 8.37-21.667 12.614-32.656l-101.93-39.358-12.595 32.658 35.816 13.883c-2.88 7.097-5.851 13.857-8.379 20.78-3.917 10.728-7.475 21.586-11.304 32.347-1.4 3.931-3.324 7.678-4.69 11.62-3.315 9.569-6.287 19.258-9.697 28.792-2.546 7.12-5.77 13.996-8.32 21.114-4.519 12.608-8.54 25.397-13.17 37.962-4.619 12.531-9.945 24.8-14.555 37.334-3.56 9.68-6.321 19.652-9.748 29.383-4.108 11.667-8.562 23.21-12.836 34.819-5.06 13.742-10.086 27.496-15.127 41.246-4.209 11.48-8.448 22.95-12.617 34.445-4.177 11.517-8.07 23.143-12.475 34.57-5.258 13.644-11.145 27.045-16.351 40.707-4.072 10.685-7.571 21.591-11.219 32.434-1.323 3.934-2.08 8.07-3.553 11.94-2.61 6.862-5.794 13.509-8.33 20.396-3.886 10.552-7.414 21.236-11.119 31.855-2.332 6.685-4.654 13.375-7.084 20.024-2.824 7.73-5.748 15.423-8.652 23.123-2.386 6.325-4.886 12.608-7.194 18.96-3.612 9.945-7.084 19.94-10.658 29.9-2.434 6.783-4.946 13.539-7.412 20.312-2.862 7.862-5.648 15.754-8.582 23.59-3.394 9.066-7.042 18.037-10.348 27.134-4.78 13.154-9.253 26.42-14.04 39.57-4.524 12.428-9.378 24.734-13.919 37.155-5.7 15.596-11.048 31.106-21.54 44.66-7.157 9.245-15.622 15.309-26.07 19.356-7.758 3.004-15.66 4.894-24.144 5.28-15.582.711-31.115 2.47-46.677 3.692-3.315.26-6.689-.154-9.994.16-19.92 1.897-39.817 4.018-59.743 5.85-10.003.92-20.06 1.283-30.076 2.082-15.4 1.23-30.777 2.763-46.183 3.898-16.114 1.188-32.249 2.056-48.375 3.065-15.966 1-31.934 2.01-47.9 2.998-16.301 1.009-32.603 1.98-48.903 3-15.766.986-31.555 1.728-47.287 3.11-13.6 1.193-27.269 2.362-40.332 6.867-2.89.996-5.759 2.045-8.655 3.021-7.33 2.472-14.863 4.469-21.955 7.498-6.948 2.968-13.47 6.945-20.15 10.531-15.169 8.143-30.447 16.133-41.418 30.074-6.248 7.94-11.02 15.972-8.912 27.051 1.467 7.71 5.442 13.801 9.271 20.098 2.044 3.36 4.635 7.19 7.956 8.828 11.701 5.77 22.383 14.911 36.86 12.816.413-.06.878.444 1.349.545 5.215 1.12 10.409 2.938 15.664 3.143 8.29.323 16.618-.558 24.935-.717 7.866-.15 15.739-.022 23.608-.025 14.682-.005 29.365.043 44.046-.069 3.43-.026 6.852-.84 10.284-.886 11.348-.152 22.699-.088 34.048-.186 1.913-.016 3.987-1.032 5.706-.56 9.272 2.543 18.511 1.843 27.888.775 5.434-.619 10.998-.113 16.502-.088 4.192.019 8.39.23 12.576.084 7.95-.275 15.887-.934 23.836-1.06 4.588-.073 9.19.9 13.78.85 10.615-.118 21.228-.536 31.84-.901 7.768-.268 15.53-.832 23.298-.907 4.93-.046 9.869.857 14.8.813 7.935-.07 15.867-.845 23.8-.822 10.126.029 20.25.753 30.377.8 7.123.034 14.25-.58 21.375-.869 8.78-.355 17.558-.699 26.34-1.002 10.429-.359 20.858-.812 31.29-.972 26.765-.412 53.531-.865 80.298-.973 43.71-.177 87.422-.044 131.132-.16 8.938-.024 17.873-.695 26.813-.848 24.264-.413 48.53-.672 72.795-1.062 15.602-.251 31.203-.819 46.806-.914 68.934-.421 137.87-.671 206.803-1.1 21.1-.131 42.195-.643 63.293-.967 21.617-.332 43.233-.86 64.852-.93 51.05-.163 102.1-.067 153.15-.177 8.109-.018 16.213-.694 24.324-.834 24.262-.418 48.527-.68 72.79-1.082 15.1-.25 30.196-.796 45.296-.938 42.604-.399 85.21-.655 127.815-.972 47.43-.354 94.864-.664 142.295-1.092 22.097-.2 44.19-.815 66.287-.918 36.498-.17 72.999-.078 109.498-.098 1.5 0 3.007.086 4.498-.035 15.736-1.277 31.473-2.551 47.203-3.902 11.633-1 23.137-1.661 34.502-5.664 16.994-5.986 33.31-13.42 48.432-22.81 14.029-8.713 27.99-17.945 38.912-30.987 8.811-10.522 19.005-19.915 25.783-32.049 6.748-12.08 14.112-23.907 19.69-36.516 3.18-7.189 6.521-14.624 6.7-23.218.245-11.73 2.535-23.403 3.448-35.139.405-5.218-.214-10.549-.719-15.795-.965-10.018-1.024-20.32-3.584-29.94-3.255-12.23-7.966-24.2-13.238-35.738-7.142-15.63-20.755-26.245-33.53-36.636-14.31-11.642-30.082-21.887-48.507-26.707-4.987-1.305-9.756-3.768-14.797-4.473-10.713-1.497-21.553-2.052-32.313-3.244-14.841-1.646-29.409-.559-44.174 1.867-14.736 2.421-27.492 8.72-38.982 17.283-6.907 5.148-11.943 12.855-17.592 19.604-1.494 1.784-2.545 4.175-3.113 6.459-3.543 14.247-2.832 28.807-3.26 43.322-.3 10.198 4.075 18.504 8.354 26.988 4.594 9.112 12.512 16.447 12.156 28.098-.237 7.75-4.083 13.632-12.028 13.48-30.534-.58-61.066-1.337-91.601-1.931-22.601-.44-45.205-.738-67.809-1.082-4.012-.061-8.039.165-12.035-.102-7.033-.47-14.036-1.583-21.07-1.777-19.767-.547-39.545-.712-59.316-1.135-6.27-.134-12.533-.652-18.801-.91-17.035-.702-34.066-1.46-51.106-2.008-23.861-.768-47.728-1.388-71.593-2.03-14.435-.387-28.87-.678-43.305-1.05-10.77-.277-21.543-.553-32.31-.937-17.533-.627-35.06-1.437-52.595-1.997-23.578-.752-47.16-1.353-70.742-1.992-13.77-.373-27.541-.895-41.314-.99-24.498-.17-48.997-.02-73.496-.121-4.096-.017-8.23-.387-12.278-1.025-7.086-1.12-12.522-4.598-15.345-11.579-3.112-7.694-6.654-15.22-9.555-22.99-4.727-12.662-9.166-25.435-13.582-38.21-5.633-16.297-11.387-32.557-16.57-48.997-2.93-9.291-1.284-18.42 3.931-26.705 6.238-9.909 16.24-9.492 25.889-8.467 18.036 1.916 35.994 4.553 54 6.77 9.43 1.16 18.916 1.9 28.336 3.133 11.155 1.46 22.242 4.385 33.402 4.625 16.49.353 33.106 1.997 49.551-1.66 9.295-2.068 18.85-2.752 27.371-7.801 13.472-7.984 27.414-15.195 40.688-23.485 6.202-3.873 12.397-8.695 16.7-14.494 12.496-16.835 22.334-35.552 27.585-55.715 4.165-15.994 4.99-32.954 6.262-49.564.617-8.068-.516-16.431-1.98-24.455-1.736-9.506-3.778-19.154-7.352-28.073-3.797-9.47-9.41-18.236-14.471-27.173-8.278-14.618-16.524-29.262-25.197-43.645-11.726-19.446-23.872-38.639-35.786-57.973-9.437-15.314-19.393-30.352-27.943-46.15-4.376-8.086-7.107-17.383-8.902-26.465-2.276-11.51-3.654-23.341-3.903-35.066-.21-9.935 1.521-19.944 2.778-29.871 1.601-12.652 2.78-25.323 8.814-37.084 7.126-13.892 15.978-26.43 26.555-37.797 5.287-5.682 11.325-10.703 16.297-16.633 11.607-13.844 24.9-25.475 41.37-33.088 8.91-4.118 17.91-8.18 27.188-11.324 8.083-2.74 16.519-4.883 24.969-6.006 18.814-2.5 37.698-4.754 56.627-5.994 9.777-.64 19.701 1.296 29.574 1.726 25.796 1.124 51.602 2.063 77.403 3.07 8.269.324 16.54.577 24.806.968 13.2.623 26.392 1.458 39.596 1.978 20.031.789 40.073 1.354 60.107 2.076 7.433.268 14.856.762 22.287 1.065 16.04.654 32.078 1.446 48.124 1.785 7.756.164 15.539-.435 23.294-.936 7.047-.455 14.103-1.02 21.1-1.947 8.392-1.112 16.74-2.576 25.08-4.043 8-1.407 16.075-2.593 23.916-4.642 8.882-2.322 17.545-5.481 26.295-8.303a3785 3785 0 0 0 21.588-7.035c5.002-1.647 10.016-3.266 14.973-5.041 4.692-1.681 9.637-2.995 13.898-5.461 7.284-4.218 14.087-9.262 21.154-13.862 7.934-5.163 12.207-12.65 12.854-21.838.561-7.985.95-16.171-.195-24.035-1.136-7.794-4.408-14.938-10.381-21.011-10.003-10.172-22.889-13.721-35.756-17.44-10.073-2.911-20.394-4.952-30.555-7.57-14.545-3.747-29.015-7.785-43.574-11.473-10.204-2.585-20.541-4.645-30.75-7.213-9.7-2.439-19.293-5.296-28.965-7.85-7.19-1.898-14.455-3.508-21.637-5.433-4.965-1.33-9.786-3.224-14.775-4.44-14.597-3.555-29.275-6.78-43.865-10.363-9.706-2.383-19.307-5.187-28.971-7.744-6.394-1.691-12.818-3.273-19.227-4.91-6.576-1.68-13.134-3.438-19.73-5.037-9.577-2.322-19.165-4.606-28.78-6.768-8.227-1.85-16.44-3.903-24.767-5.142-9.877-1.47-19.85-2.564-29.818-3.08-9.345-.485-18.752-.293-28.106.154-6.678.32-13.335 1.403-19.96 2.414-11.1 1.694-22.158 3.653-33.249 5.399-4.676.735-9.409 1.1-14.086 1.832-10.611 1.658-21.198 3.476-31.806 5.158-8.846 1.402-17.726 2.6-26.559 4.078-9.12 1.526-18.18 3.418-27.309 4.896-8.212 1.331-16.497 2.204-24.718 3.487-11.257 1.755-22.462 3.837-33.727 5.535-10.178 1.534-20.445 2.494-30.601 4.146-14.91 2.426-29.735 5.382-44.639 7.848-11.413 1.888-22.908 3.277-34.34 5.057-9.803 1.525-19.55 3.41-29.355 4.916-8.862 1.36-17.793 2.264-26.649 3.652-10.446 1.638-20.788 4.525-31.28 5.168-16.027.982-31.958-.305-47.448-5.672-12.838-4.448-23.557-11.701-32.467-21.687-4.917-5.511-9.234-11.558-13.799-17.381-9.374-11.96-19.283-23.566-25.344-37.746-1.319-3.086-3.254-6.155-3.59-9.37-1.135-10.882.42-21.396 5.907-31.128 4.497-7.977 9.956-14.19 20.33-13.043 2.965.327 6.08-.369 8.972.193 3.713.72 8.022 1.344 10.723 3.615 4.275 3.595 8.305 8.062 10.885 12.977 6.582 12.537 12.304 25.526 18.371 38.334.512.609 1.026 1.216 1.541 1.931a10 10 0 0 0-1.621-1.601c.83 1.354 1.728 2.425 2.65 3.195q.135.236.27.486c.314 1.118.612 1.578.91 2.038.85.563 1.699 1.127 2.568 1.779a22 22 0 0 0-2.46-1.46c1.563 1.323 3.036 2.379 4.486 3.138q.267.245.539.507c1.401 1.452 2.653 2.245 3.904 3.036.348.227.697.452 1.057.761a3 3 0 0 0-.983-.472c.644.707 1.224 1.162 1.815 1.336q.12.15.242.318c.666.763 1.243.912 1.82 1.062.815.464 1.633.962 2.455 1.506-.807-.517-1.593-.921-2.33-1.195 1.389 1.102 2.652 1.894 3.89 2.324-.093-.077-.185-.139-.278-.213.095.075.189.125.285.203.024.286.016.348.011.362v.004c.979.436 1.958.874 2.979 1.648.034.275.021.34.016.354l-.002.002v.002c.499.223.998.445 1.52.753a5 5 0 0 0-1.423-.439c.943.705 1.803 1.15 2.63 1.309q.184.157.374.337c1.084 1.107 2.005 1.563 2.926 2.02 1.062-.282 2.123-.772 3.186-.895-1.06.128-2.103.657-3.022 1.243 7.309 3.866 14.968 2.32 22.438 2.576 6.96.238 13.946.475 20.134-3.203-.679-.318-1.206-.536-1.697-.625.51.087 1.106.297 2.064.588 1.723-.056 2.813-.366 3.9-.676.982-.448 1.963-.896 3.024-1.309-.972.406-1.862.85-2.646 1.29 2.062-.649 3.77-1.278 5.267-2.16q.231-.064.467-.124c.982.178 1.416.116 1.85.055a314 314 0 0 1 6.385-3.201 105 105 0 0 0-6.012 3.289c3.818-1.733 7.32-3.54 10.5-5.37q.588-.26 1.193-.519c3.158-1.326 5.566-2.637 7.975-3.945 2.42-1.68 4.842-3.358 7.629-5.026.296.01.362.027.377.033l.002.002h.002c2.438-2.99 4.877-5.981 7.65-8.998.272-.02.335-.004.35.002h.002l.002.002c.389-.843.78-1.686 1.255-2.549a15.5 15.5 0 0 0-.927 2.44c1.003-1.545 1.738-3.001 2.185-4.426q.207-.283.434-.57c1.114-1.073 1.571-1.999 2.03-2.924.712-1.645 1.426-3.292 2.573-5.262.765-.8 1.094-1.274 1.424-1.75.574-1.183 1.148-2.366 1.813-3.576a32 32 0 0 0-1.479 3.469c1.323-2.139 2.372-4.19 3.133-6.203q.26-.388.541-.782c2.104-3.432 3.542-6.666 4.98-9.9.375-1.316.748-2.632 1.532-4.398.762-3.168 1.115-5.885 1.468-8.602.371-1.964.744-3.928 1.522-6.326.444-1.178.48-1.921.516-2.664.675-4.288 1.35-8.576 2.45-13.383.469-2.552.511-4.585.553-6.617-.294-1.05-.813-2.101-.933-3.15.126 1.045.686 2.073 1.305 2.937.534-3.626.932-7.049.802-10.451-.183-4.792-.757-9.57-1.457-14.082-.437 7.229-.63 14.186-.676 21.144.045-6.958.24-13.915.635-21.539.18-1.72.108-2.774.035-3.828-3.505-2.197-3.963-5.37-3.369-9.17.1-.642.165-1.262.32-1.941.191-1.022.13-1.456.07-1.89-.427-.872-.854-1.743-1.241-2.712.393.881.846 1.675 1.33 2.356-.536-1.741-1.154-3.15-2.018-4.37a20 20 0 0 1-.127-.472c-.15-1.636-.525-2.72-.9-3.807-.507-.603-1.014-1.206-1.526-1.916a10 10 0 0 0 1.604 1.586c-.828-1.348-1.723-2.417-2.639-3.187a20 20 0 0 1-.29-.524c-.99-1.79-1.95-2.9-2.91-4.008-.347-.385-.693-.77-1.044-1.246q.512.59 1.01.92c-.621-1.01-1.214-1.752-1.82-2.199a13 13 0 0 1-.245-.469c-1.334-2.464-2.631-4.228-3.93-5.992a19 19 0 0 1-1.16-1.392q.575.694 1.143 1.062c-.65-1.067-1.284-1.829-1.933-2.262a17 17 0 0 1-.21-.365c-1.688-2.797-3.259-4.92-4.83-7.047-.42-.439-.84-.879-1.236-1.385.388.422.804.781 1.215 1.057-.633-1.027-1.249-1.771-2.062-2.353a9 9 0 0 1-.239-.49c-3.433-3.963-7.07-7.39-10.707-10.817-1.64-1.111-3.28-2.222-4.955-3.668-.028-.272-.004-.345.006-.361l.002-.002v-.002a10 10 0 0 1-1.094-.813q.543.387 1.057.47c-.642-.72-1.25-1.148-1.84-1.29a9 9 0 0 1-.213-.272c-.385-.737-.673-.9-.96-1.062-.492-.226-.984-.452-1.497-.764a5 5 0 0 0 1.4.45c-.93-.712-1.78-1.164-2.6-1.33a10 10 0 0 1-.378-.35c-2.162-2.437-4.158-4.216-6.154-5.994-.286-.024-.508-.156-1.024-.715-1.138-.653-1.918-.987-2.697-1.32-1.196-.563-2.39-1.126-3.611-1.78a32 32 0 0 0 3.494 1.447c-2.168-1.316-4.239-2.357-6.28-3.1a32 32 0 0 1-.76-.517c-1.082-.798-1.98-.927-2.88-1.054-.561-.3-1.263-.74-1.856-1.07.602.316 1.187.572 1.748.751-1.382-1.025-2.657-1.733-3.888-2.119.623.47 1.235.854 1.834 1.19-.715-.405-1.328-.712-2.197-1.268-7.468-3.695-14.326-7.571-21.645-10.127-7.581-2.647-15.543-4.373-23.461-5.842-8.316-1.542-16.748-2.795-25.182-3.3m140.005 97.676c-.684 3.694-.206 6.875 3.457 8.785-.877-3.809-1.841-7.233-3.097-10.398q-.211.82-.36 1.613m-52.129-69.48a.5.5 0 0 0-.193.04c.212.432.435.565.783.329-.178-.26-.391-.373-.59-.37m12.813 11.926c1.66 1.468 3.302 2.58 4.844 3.37-1.687-1.456-3.276-2.592-4.844-3.37m42.348 102.74c-.32 4.137-.992 8.363-2.02 12.771.318-4.107.993-8.394 2.02-12.771m-2.967 15.982c-.706 2.034-1.076 3.996-1.102 5.81.708-2.06 1.072-3.969 1.102-5.81m-2.995 14.97c-.704 1.359-1.078 2.674-1.124 3.872.703-1.383 1.079-2.648 1.125-3.871m-11.974 23.01c-1.04 1.694-1.75 3.339-2.14 4.858 1.037-1.72 1.751-3.312 2.14-4.857m-7.781 13.02q-3.13 4.451-7.313 8.965c2.086-2.965 4.525-5.958 7.313-8.965m-8.034 8.961c-2.055 1.673-4.486 3.325-7.279 4.998 2.061-1.659 4.48-3.339 7.28-4.998m-91.562 12.328c1.036.775 1.967 1.24 2.865 1.352-1.012-.79-1.991-1.225-2.865-1.352" style="fill:#fff;fill-opacity:1"/></svg>