<svg viewBox="0 0 2782 1500" xml:space="preserve" xmlns="http://www.w3.org/2000/svg"><path d="M2117.957 24.39c-5.151.247-10.466 2.662-15.746 3.561-7.306 1.244-13.235 4.389-18.516 9.766-7.17 7.3-13.612 14.815-17.408 24.53-4.417 11.301-9.945 22.183-14.076 33.58-5.039 13.901-9.084 28.163-13.639 42.243-2.925 9.041-6.08 18.008-8.972 27.059-2.292 7.173-4.739 14.333-6.387 21.664-1.778 7.908-3.14 15.97-3.865 24.037-.543 6.044-.817 12.455.597 18.262 3.289 13.497 13.797 22.275 23.856 30.433 10.459 8.484 23.314 13.027 36.717 15.373 9.755 1.708 19.532 3.29 29.285 5.008 9.258 1.632 18.5 3.352 27.744 5.067 9.2 1.706 18.393 3.455 28.594 5.375-1.248 2.149-1.779 4.057-3.034 5.047-4.715 3.72-9.707 7.092-14.525 10.687a31564 31564 0 0 0-61.545 46.025c-7.4 5.55-14.713 11.213-22.066 16.825-1.67 2.848-3.206 5.856-5.56 8.033 2.275-2.158 3.726-5.161 5.206-7.99-4.776 3.704-9.197 7.364-13.219 11.039 1.47-.006 2.756-.214 3.895-.58-1.213.408-2.59.647-4.178.671-1.152.428-1.62.779-2.09 1.13-1.731 2.198-3.165 4.818-5.173 6.626 2.003-1.808 3.397-4.427 4.82-6.617-3.006 3.415-6.546 4.343-10.656 4.113-.035.858.056 1.55.24 2.1-.235-.61-.376-1.386-.363-2.38-.703-.836-1.291-.978-1.88-1.122-2.892 2.548-4.487-.001-6.171-1.674 1.684 1.673 3.28 4.221 6.056 1.352-2.47-2.342-4.976-4.213-7.156-6.406-15.28-15.38-30.492-30.827-45.738-45.873.693 1.57 1.263 3.16 1.91 4.634-.648-1.472-1.221-3.057-1.918-4.62.004-.321.023-.375.027-.384-2.19-.8-4.913-1.087-6.677-2.3 1.763 1.21 4.474 1.46 6.57 1.982-5.784-5.9-11.46-11.482-17.328-16.727.09 1.754.515 3.257 1.162 4.59a12.15 12.15 0 0 1-1.228-4.713c.125-.459-.114-.601-.114-.601-3.346 1.171-5.949 1.402-4.435-3.873.026-.299.068-.365.078-.377l.002-.002c-2.429-1.002-5.381-1.453-7.301-2.99 1.92 1.536 4.865 1.968 7.182 2.675-13.735-14.003-27.35-27.693-40.961-41.01.507 4.688 2.819 7.834 5.906 10.821-3.087-2.987-5.4-6.133-6.176-10.941-.737-.841-1.201-1.187-1.664-1.534a10 10 0 0 1-1.082-.836q.537.398 1.045.493c-.635-.734-1.238-1.174-1.818-1.329a9 9 0 0 1-.206-.271c-.284-.875-.559-1.04-.918-1.068-4.605 2.456-5.892-1.52-7.912-4.08 2.02 2.56 3.307 6.536 7.868 3.718-1.03-1.32-2.096-2.21-2.989-3.248-4.687-5.452-9.33-10.94-14.04-16.052-.94 2.04-.823 3.434-.022 4.683-.802-1.247-.925-2.633.002-4.656.028-.296.075-.36.086-.371v-.002l.002-.002c-2.99-.849-7.601.525-7.06-5.559.005-.328.019-.399.025-.414l.002-.002v-.002c-1.65-1.103-3.301-2.205-4.987-3.646-.029-.275-.009-.345 0-.361l.002-.002.002-.002a43 43 0 0 1-2.545-1.588c.84.555 1.66.986 2.43 1.273-1.377-1.11-2.638-1.904-3.873-2.338.174.146.346.269.52.403-.179-.135-.353-.236-.532-.381-.034-.299-.007-.36 0-.37v-.001c-3.19-.037-6.322-1.368-8.674-3.405 2.285 1.994 5.423 3.227 8.553 3.084-4.064-3.34-8.007-6.36-11.951-8.982.293 2.192 1.521 4.216 3.271 5.787-1.814-1.612-3.157-3.637-3.59-5.877-.754-.537-1.192-.588-1.63-.639-2.949 1.827-5.238 1.877-6-2.582-.013-.314.027-.383.037-.396l.002-.002c-1.963.178-3.85.19-5.457-.506 1.576.619 3.427.525 5.32.18-3.06-1.774-5.984-3.222-8.88-4.307q.083.242.175.469-.154-.358-.293-.754c-.735-.785-1.327-.921-1.918-1.059-2.51 1.436-4.725 2.136-5.389-2.46-1.11-.502-1.855-.538-2.6-.575-4.322 2.36-7.024-.627-10.367-3.42-1.52-.456-2.582-.5-3.644-.545-.322.246-.699.718-.984.817.282-.106.637-.625.816-1.164-9.17-4.076-18.636-2.525-27.895-2.418-4.992.058-9.964 1.79-14.695 3.056.722.35 1.307.654 1.814.69-.517-.035-1.159-.333-2.183-.654-4.699.128-8.777.512-12.855.896-.674.426-1.347.852-2.108 1.24a9 9 0 0 0 1.762-1.324c-1.402.543-2.484 1.163-3.387 2.023q-.212.076-.436.147c-.954-.16-1.392-.094-1.828-.03-.495.22-.988.44-1.582.624a4 4 0 0 0 1.245-.715c-1.11.195-1.893.479-2.497 1.006q-.204.032-.423.058c-1.634-.145-2.69-.072-3.745 0-.582 6.82-5.407 2.866-9.13 3.078-1.386-.198-2.126-.133-2.868-.068-2.197 2.816-4.618 4.817-8.086 5.066 3.456-.252 5.816-2.265 7.702-5.152-1.436.244-2.489.57-3.538.908-5.04 1.627-10.079 3.255-14.908 5.147q-.219.024-.441.04c-3.011-.15-5.37-.078-7.729-.007-.516 1.852-1.404 2.968-2.7 3.418 1.207-.45 2.01-1.595 2.337-3.504-2.463.887-4.562 1.86-6.435 3.113 1.364.532 2.543.724 3.513.551-1.063.193-2.363.011-3.918-.52-2.367.05-4.104.349-5.841.647.093 3.214-1.462 4.045-3.356 4.291 1.849-.248 3.298-1.08 2.953-4.267-4.132 1.011-7.863 2-11.35 3.271 1.357.463 2.601.99 3.778 1.16-1.194-.167-2.5-.688-4.106-1.123-1.006-.186-1.442-.124-1.877-.062.229 3.672-2.327 3.718-4.572 4.148 2.226-.433 4.704-.502 4.186-4.234-3.473.888-6.561 1.862-9.52 3.148.972.679 2.181 1.636 2.885 1.819-.714-.18-1.976-1.132-3.213-1.782-.893-.214-1.33-.153-1.766-.092-1.21.776-2.45 1.5-3.66 2.278a65 65 0 0 0 3.268-2.365c-3.811.878-7.229 1.846-10.512 3.123.785.83 1.76 1.963 2.244 2.191-.491-.226-1.516-1.356-2.615-2.156-1.245-.211-1.986-.148-2.726-.084-.627 2.127-1.878 2.996-3.569 3.226 1.598-.21 2.796-1.093 3.207-3.308-2.467.886-4.571 1.854-6.463 3.094 1.169.22 2.276.34 3.239.216-1.066.142-2.306.035-3.674-.177-2.676-.158-4.706-.082-6.735-.006-.965 1.364-1.76 2.944-2.904 4.084 1.14-1.14 1.894-2.72 2.545-4.08-2.47.989-4.579 1.976-6.682 3.306.804.441 1.829 1.02 2.616 1.252-.822-.233-1.948-.833-3.02-1.322-2.46-.04-4.511.337-6.56.71-1.273 1.336-2.373 3.468-3.815 4.01 1.44-.542 2.518-2.68 3.42-4.091-5.982 1.614-11.58 3.308-16.785 5.207l-.567.01c-2.233-.212-3.707-.146-5.181-.08-1.184.589-2.368 1.179-3.65 1.73a31 31 0 0 0 3.331-1.822c-2.35.838-4.413 1.76-6.265 2.93q-.34.11-.694.216c-3.025.133-5.408.511-7.793.89-.376 2.301-1.143 3.614-2.693 4.044 1.463-.428 2.134-1.77 2.31-4.125-3.138.891-5.894 1.866-8.435 3.12 2.716.99 4.632 1.358 5.95 1.05-1.41.318-3.429-.034-6.348-1.014-1.67-.177-2.725-.11-3.782-.043-2.238 2.91-4.514 5.362-8.172 5.383 3.645-.024 5.86-2.489 7.786-5.467-2.69.585-5.001 1.233-7.297 1.93-4.459 1.353-8.907 2.732-13.35 4.443.287 1.487.71 2.065 1.194 2.178-.58-.07-1.13-.642-1.586-2.246-1.461-.354-2.519-.298-3.577-.242-1.184.59-2.37 1.18-3.654 1.734a29 29 0 0 0 3.287-1.82c-2.34.84-4.349 1.76-6.162 2.916q-.357.117-.728.23c-2.677-.16-4.708-.087-6.739-.013-1.677 7.186-7.098 4.356-12.091 4.033-1.042-.198-1.477-.138-1.913-.076-1.463 1.243-2.785 3.122-4.363 3.855 1.572-.735 2.85-2.623 3.963-3.941-3.025.574-5.669 1.165-8.268 1.914-3.14.905-6.243 1.946-9.142 3.207 3.046-.05 6.024-.067 8.918-.36-2.926.297-5.992.323-9.33.399-2.013-.165-3.394-.09-4.774-.016-1.822 2.263-4.085 3.324-6.693 3.764 2.51-.433 4.705-1.52 6.309-3.861-4.144 1.19-7.902 2.478-11.428 4.044a28 28 0 0 0 3.36.026 32 32 0 0 1-3.757.012c-1.683-.174-2.739-.108-3.795-.04-.683 2.33-1.496 3.616-2.992 4.026 1.408-.408 2.125-1.723 2.612-4.108-3.137.89-5.893 1.863-8.44 3.114 2.591.941 4.37 1.322 5.629 1.045-1.35.288-3.23-.078-6.025-1.012-1.665-.176-2.724-.106-3.782-.037-1.377 3.582-3.756 5.257-7.261 5.137 3.499.118 5.839-1.567 6.884-5.223-3.814.897-7.277 1.8-10.673 2.908-1.085.354-1.994 1.25-2.772 2.16 1.328.114 2.567-.076 3.74-.086-1.194.012-2.502.212-4.093.135-1.653.173-2.74.56-3.827.947-.834.594-1.669 1.187-2.587 1.744a16 16 0 0 0 2.248-1.828c-1.689.845-3.074 1.763-4.28 2.91q-.269.125-.55.243c-1.313.065-2.09.36-2.87.654l1.268 3.197c-.57-1.436-.92-2.316-1.649-3.172-2.1.721-3.936 1.222-5.517 2.155-3.095 1.826-6.048 3.892-8.643 5.875l-.02.006c-.344-.016-.403-.011-.413-.008h-.002v.002c.382 2.502-.478 3.705-2.377 3.996-.63.096-1.374.094-2.225.004-.33-.011-.398-.024-.412-.028h-.004c.493 2.724-.347 4.265-1.902 5.285 1.484-.99 2.254-2.508 1.582-5.19-2.441 2.367-4.561 4.64-6.297 6.919 1.286-.328 2.53-.656 3.582-1.12-1.12.501-2.453.864-3.861 1.24-.812.69-.96 1.268-1.108 1.847-.043 3.041-.72 5.41-2.123 7.113 1.328-1.675 1.926-4.018 1.801-7.006-2.784 3.375-5.247 6.641-7.32 9.916q1.38-.221 2.502-.685-1.23.534-2.782.804c-.805.69-.943 1.27-1.082 1.85-.689 1.709 2.893 5.344-2.627 5.035-.288.002-.362-.026-.38-.037l-.002-.002h-.002c.12 5.98-3.27 10.747-5.248 16.145 1.974-5.396 5.326-10.15 4.918-16.014-3.03 5.401-5.728 10.672-8.13 15.994.924.724 1.55 1.394 2.466 2.377-.917-.983-1.542-1.654-2.547-2.031-.735 1.384-1.09 2.477-1.446 3.568.27 1.442 1.161 3.18.825 4.334.335-1.154-.578-2.884-1.164-4.215-3.794 7.034-7.248 13.948-10.399 20.903.542.226.86.415 1.262.619a8 8 0 0 0-1.586-.447c-1.78 2.907-2.74 5.785-4.131 8.435-2.165 4.123-3.952 8.735-7.086 12.002-8.54 8.904-19.809 8.624-30.746 6.768-5.371-.912-10.45-3.931-15.486-6.356-9.42-4.534-18.718-9.316-28.055-14.02-9.47-4.77-18.892-9.635-28.395-14.337-6.944-3.437-14.078-6.5-20.964-10.047-9.729-5.01-19.266-10.386-28.957-15.47-9.239-4.848-18.562-9.534-27.86-14.268-7.137-3.635-14.31-7.197-21.433-10.858-7.283-3.743-14.489-7.637-21.793-11.336-7.159-3.624-14.383-7.117-21.606-10.611-8.905-4.309-17.886-8.463-26.746-12.863-7.9-3.924-15.674-8.104-23.516-12.147-9.41-4.853-18.811-9.727-28.26-14.508-9.197-4.654-18.46-9.179-27.673-13.802a4294 4294 0 0 1-28.76-14.543c-7.03-3.594-13.975-7.355-21.018-10.922-9.172-4.647-18.436-9.11-27.601-13.772-13.073-6.648-26.065-13.458-39.14-20.1-12.015-6.101-24.115-12.032-36.14-18.115-6.892-3.486-13.674-7.191-20.566-10.68-12.036-6.09-24.142-12.047-36.174-18.148-6.558-3.325-12.966-6.952-19.546-10.232-10.319-5.144-20.786-9.988-31.075-15.19-8.21-4.15-16.177-8.776-24.38-12.94-5.582-2.832-11.53-4.956-17.051-7.892-6.689-3.556-12.916-7.997-19.67-11.406-12.026-6.07-24.214-11.838-36.5-17.365-6.989-3.144-14.185-5.955-21.512-8.176-5.719-1.734-11.766-2.429-17.697-3.406-12.045-1.986-24.05-4.468-36.18-5.61-15.655-1.473-31.282.205-46.771 2.866-2.739.47-5.706.34-8.2 1.375-10.213 4.233-20.725 8.03-30.304 13.443-14.493 8.19-28.782 16.862-40.578 29.02-14.055 14.484-28.703 28.4-42.524 43.1-5.022 5.34-8.762 12.022-12.408 18.476-2.413 4.27-3.59 9.233-5.367 13.869-2.612 6.814-5.856 13.458-5.06 21.11.15 1.45.039 3.023-.364 4.421-4.03 13.989.268 27.234 4.752 39.975 3.552 10.093 8.86 19.66 15.662 28.299 8.202 10.415 18.1 18.61 29.115 25.84 8.615 5.653 16.886 11.914 24.813 18.503 5.749 4.78 5.508 7.507.517 13.58-2.506 3.05-5.243 5.91-7.836 8.891-10.93 12.566-21.882 25.114-32.754 37.73-7.428 8.621-14.735 17.346-22.101 26.02-8.062 9.494-16.232 18.898-24.156 28.506-4.432 5.373-8.46 11.08-12.67 16.635.256 4.453-2.047 7.21-4.807 9.793 2.744-2.576 4.983-5.31 4.488-9.664-6.23 8.131-12.143 16.133-17.728 24.328l-.131.074c-.455-.12-.594.137-.594.137 1.265 2.6 1.158 4.444-2.806 4.386-.344.008-.417-.032-.43-.043l-.002-.002c.868 4.567-2.584 6.733-5.053 9.477 2.454-2.737 5.841-4.88 4.735-9.35-4.434 5.724-8.55 11.32-12.274 16.93 2.295.402 3.532-.404 4.317-1.58-.784 1.177-2.016 1.986-4.305 1.588-.333-.005-.387-.023-.395-.027.636 4.504-1.204 7.807-4.19 10.634 2.981-2.826 4.785-6.117 3.864-10.517-4.102 5.382-7.877 10.646-11.328 16.06 1.095-.184 2.119-.312 2.918-.677-.813.373-1.894.525-3.23.82-.78.89-.923 1.787-1.065 2.685 2.476 2.482 1.822 3.5-3.592 5.02-.295-.003-.358-.015-.37-.02h-.003c-.307 1.052.295 2.627-.166 3.623.415-.971-.267-2.532-.142-3.53-1.242 1.444-2.175 2.794-2.737 4.343 1.237.15 1.988.025 2.432-.274-.462.33-1.243.481-2.545.346-.485-.126-.617.106-.617.106.71 2.25.995 4.264-.115 5.533 1.068-1.237.718-3.213-.155-5.36-1.64 2.278-3.012 4.383-4.013 6.682 1.838-.016 3.058-.375 3.812-.978-.776.629-2.022 1.007-3.906 1.046-.435-.118-.57.048-.586.069l-.002.002c-.28.53-.621 1.1-1.05 1.724.418-.565.678-1.108.81-1.574-.752.862-1.263 1.575-1.406 2.28.187-.192.35-.384.498-.573-.204.289-.37.555-.653.893-3.753 4.99-7.214 9.512-10.166 14.344-6.263 10.253-11.96 20.862-18.455 30.96-6.162 9.58-13.253 18.559-19.568 28.045-9.846 14.791-19.537 29.69-29.004 44.725a1779 1779 0 0 0-26.68 43.758c-6.702 11.356-12.99 22.96-19.355 34.512-6.342 11.507-12.592 23.065-18.8 34.646-2.587 4.828-4.96 9.771-7.43 14.662 1.623 2.717 1.97 4.867-2.604 5.006-.337 0-.392-.017-.4-.021.504 2.032.681 3.891-.03 5.335.634-1.413.376-3.241-.297-5.21-1.786 2.71-3.247 5.294-4.336 7.884.885-.122 1.63-.315 2.254-.566-.69.298-1.527.53-2.537.683-.798.7-.942 1.29-1.084 1.88 1.018 1.383 1.508 2.52.762 3.109-.456.36-1.373.515-2.916.392-.473-.12-.602.135-.602.135-.08.359-.16.718-.31 1.094a2.6 2.6 0 0 0 .07-.936c-.429.745-.67 1.365-.645 1.938q-.126.165-.283.34c-1.136 1.083-1.612 2.003-2.088 2.923.483.393 1.373 1.022 1.555 1.24-.186-.216-1.111-.828-1.873-1.093-3.146 4.64-5.796 9.26-8.844 13.6-4.116 5.86-8.538 11.506-12.443 17.255 1.793-.881 3.517-1.61 4.974-2.57-1.456.96-3.175 1.692-4.95 2.584-.295.003-.373-.026-.391-.037l-.002-.002-.002-.002c.262 2.676-1.423 5.923-3.992 8.524 2.493-2.571 4.098-5.79 3.675-8.407-4.444 4.38-8.573 8.643-12.3 12.916 1.021-.057 2.065-.31 3.091-.715-1.115.458-2.257.753-3.384.834-1.487.696-2.278 1.282-3.069 1.87-.684 4.651-3.19 7.733-6.642 9.996 3.434-2.257 5.878-5.318 6.322-9.885-6.072 4.999-11.827 9.89-17.193 14.795l-.456.156c-1.828.992-2.932 1.958-4.037 2.924-.462 1.78-.89 3.596-2.027 4.787 1.062-1.18 1.403-2.989 1.674-4.75-2.47 2.014-4.587 3.992-6.299 5.984.89.119 1.646.111 2.291 0-.702.137-1.533.16-2.523.041-.636.027-1.077.192-1.077.192-1.777 3.646-3.791 7.153-7.261 9.26 3.465-2.107 5.442-5.615 6.92-9.266-5.927 4.014-11.51 8.035-16.74 12.242 2.243-.433 4.349-.829 6.318-1.453l-.002.002c-1.973.627-4.096 1.034-6.408 1.514-.418-.118-.564.026-.58.045l-.002.001c.578 1.699.487 2.751-.11 3.34.513-.568.527-1.578-.166-3.187-1.518 1.188-2.76 2.226-3.777 3.54.993.206 1.875.297 2.578.224-.77.102-1.751.02-2.883-.178-.992.068-1.457.37-1.922.67.58 4.886-2.862 6.053-6.244 7.636-.551.259-1.08.56-1.611.858a20 20 0 0 1 1.611-.858c3.27-1.55 6.756-2.675 5.881-7.601-3.078 2.974-5.804 5.913-8.186 8.828a11 11 0 0 0-.392.264c-1.115 1.061-1.59 1.964-2.063 2.867-.379.852-.757 1.706-1.23 2.578.393-.841.69-1.668.904-2.465-1.023 1.567-1.771 3.04-2.193 4.504q-.2.272-.42.549c-.833 1.05-.96 1.954-1.086 2.857.468 1.451 1.327 2.9 1.338 4.354-.01-1.455-.87-2.902-1.715-4.137-.437 5.026-.194 9.86-.617 14.637-.96 10.853 4.61 19.358 10.181 27.582 3.128 4.615 8.013 8.04 12.305 11.633-.468-1.484-.81-3.093-1.367-4.407.564 1.324.922 2.958 1.432 4.502-.126.435.032.58.052.596l.002.002c1.182.114 2.574-.108 3.592.268-1.015-.372-2.388-.12-3.426.023 1.69 1.82 3.023 3.636 4.782 4.816 3.36 2.256 6.962 4.15 10.386 5.938-.148-.883-.059-1.874-.224-2.482q-.021-.077-.047-.145l.002.002q.024.066.045.143c.173.62.109 1.664.353 2.757.79.673 1.374.814 1.96.953 4.198-2.897 5.397.554 6.974 3.627.026.284.012.35.006.364v.004h-.002v.002c2.045-.228 4.262-1.106 5.74.449-1.474-1.542-3.669-.605-5.62-.115 5.061 2.686 10 5.038 14.938 7.005.053-2.456-.96-3.486-2.414-3.963 1.486.48 2.586 1.526 2.803 4.045 1.449.515 2.508.564 3.566.612l8.657-.555c-3.213.206-5.936.38-8.52.889 2.379 1.107 4.621 1.88 6.902 2.351.16-.383.448-.886.623-1.246a7.8 7.8 0 0 0-.464 1.549c1.015.734 1.911.862 2.808.99 4.212-.14 9.325-2.77 11.362 4.442.76.482 1.2.516 1.64.548 1.725-.512 3.53-1.35 5.153-1.257-1.58-.01-3.344.914-4.987 1.6 3.052 1.122 5.937 1.902 8.82 2.28-.228-.75-.486-1.37-.771-1.876.355.577.678 1.304.967 2.209 1.738.837 3.278.94 4.818 1.044 2.675-1.87 4.342-1.18 5.444 2.432 1.79.494 3.17.539 4.552.584 2.263.27 4.54.478 6.803.746-2.24-.231-4.48-.334-6.645-.41 5.732 2.017 11.306 3.697 16.811 5.049-1.34-1.16-2.558-2.49-3.885-3.274 1.344.788 2.622 2.133 4.207 3.354.834.44 1.277.472 1.72.504 3.56-3.451 5.429-1.282 7.37 2.508 1.494.46 2.554.502 3.613.543 1.98.69 3.96 1.381 6.348 2.568 2.161.792 3.913 1.088 5.666 1.383 4.265.609 8.547 1.125 12.79 1.865a118 118 0 0 0-12.638-1.521c9.062 3.028 17.972 5.713 26.875 8.037-.624-2.346-1.85-3.45-3.347-4.026 1.553.582 2.874 1.7 3.668 4.106.767.478 1.208.515 1.648.55 2.995-2.24 4.553-.335 6.31 2.479.803.38 1.239.338 1.675.297l.257-2.11a9.3 9.3 0 0 0 .09 2.268c5.8 2.037 11.252 3.917 16.662 5.463-1.198-1.516-2.19-3.306-3.463-4.266 1.284.962 2.334 2.764 3.829 4.348 1.15.455 1.893.495 2.636.535 2.667-1.365 5.38-2.868 6.403 2.432 1.107.51 1.85.547 2.593.584.446.028.9.064 1.455.205-.486-.122-.943-.097-1.334.084.724.324 1.325.357 1.89.113a3 3 0 0 0-.507-.185c.252.066.519.147.826.27.797.404 1.237.447 1.676.49.778.218 1.587.475 2.446.794-.809-.274-1.59-.44-2.325-.463 1.378.699 2.634 1.067 3.846 1.108.13.061.23.087.365.154 1.818.79 3.243 1.095 4.668 1.4 3.654.374 7.423.31 10.932 1.231-3.51-.922-7.278-.856-10.78-.893 7.731 3.022 15.312 5.706 22.901 8.063.246-.998.431-1.564.568-1.996a6.9 6.9 0 0 0-.205 2.078c1.097.447 1.84.483 2.584.52 3.014-2.256 4.567-.342 6.309 2.503.81.455 1.248.488 1.687.522.764-.416 1.625-1.252 2.313-1.342-.685.096-1.528.968-2.14 1.674 5.404 2.02 10.637 3.707 15.82 5.047-1.25-1.36-2.321-2.773-3.641-3.57 1.324.798 2.431 2.223 3.96 3.652.81.464 1.248.5 1.686.535 2.496-.974 4.45-1.22 5.817-.687-1.323-.453-3.238-.123-5.656 1.023 2.717 1.122 5.274 1.905 7.748 2.428-.045-.883-.234-1.607-.555-2.172.398.632.649 1.461.744 2.492 2.769 1.647 5.194 2.942 7.773 3.734 7.834 2.407 15.763 4.5 23.586 6.94 9.357 2.917 18.651 6.039 27.955 9.12 7.949 2.634 15.863 5.371 23.815 7.993 4.28 1.411 8.608 2.679 12.916 4.006 7.846 2.417 15.725 4.737 23.531 7.277 5.342 1.739 10.536 3.934 15.883 5.655 7.645 2.46 15.398 4.583 23.053 7.015 9.193 2.92 18.322 6.04 27.496 9.022 7.313 2.377 14.675 4.61 21.974 7.029 7.79 2.583 15.502 5.407 23.305 7.947 8.555 2.786 17.19 5.327 25.766 8.05 11.465 3.638 22.903 7.367 34.363 11.023 7.84 2.5 15.71 4.902 23.543 7.421 8.725 2.807 17.422 5.703 26.135 8.55 8.555 2.794 17.132 5.52 25.666 8.38 10.343 3.466 20.595 7.207 30.986 10.52 10.704 3.412 21.56 6.34 32.29 9.677 16.533 5.142 33.047 10.353 49.507 15.725 10.835 3.536 21.539 7.47 32.344 11.1 5.043 1.693 10.204 3.03 15.281 4.627a1540 1540 0 0 1 21.57 6.953c4.868 1.61 9.661 3.441 14.54 5.015 11.311 3.65 22.687 7.104 33.976 10.82 11.776 3.878 23.428 8.138 35.232 11.922 13.76 4.412 27.676 8.332 41.43 12.758 11.745 3.78 23.336 8.039 35.035 11.965 12.65 4.245 25.308 8.47 38.032 12.486 14.6 4.61 29.302 8.89 43.91 13.479 13.334 4.188 26.713 8.281 39.865 12.994 13.412 4.806 26.636 10.162 39.824 15.565 14.094 5.774 28.53 10.812 40.496 20.912 8.99 7.588 19.285 13.73 27.729 21.84 11.38 10.928 21.561 23.107 32.216 34.787 10.144 11.119 20.37 22.168 30.305 33.472 6.71 7.634 12.627 15.95 21.035 21.998 5.194 3.736 9.809 8.3 15.114 11.85 4.493 3.005 9.507 5.301 14.463 7.53 8.608 3.87 17.141 8.103 26.103 10.923 6.445 2.028 13.519 2.542 20.344 2.773 10.85.368 21.928 1.181 32.54-.51 10.514-1.674 20.682-5.905 30.784-9.61 6.328-2.322 12.9-4.874 18.229-8.844 12.53-9.335 24.784-18.89 35-31.18 11.479-13.811 24.782-26.124 37.492-38.889 7.456-7.487 14.45-14.99 25.246-18.941 11.285-4.131 22.694-7.578 34.312-7.77 23.502-.387 47.038.93 70.55 1.803 4.491.167 8.941 1.515 13.407 2.332 8.294 1.518 16.557 3.229 24.885 4.524 10.157 1.578 20.38 2.734 30.553 4.212 12.736 1.851 25.396 4.774 38.19 5.526 13.697.805 27.533-.022 41.27-.79 12.925-.721 23.868-7.248 34.403-14.009 6.017-3.862 11.221-8.99 16.793-13.545 10.873-8.888 21.74-17.781 32.623-26.658 4.855-3.96 9.477-8.28 14.664-11.746 12.274-8.204 24.66-16.27 37.328-23.84 6.57-3.926 13.61-7.356 20.846-9.797 9.151-3.087 18.739-4.86 28.1-7.348 6.994-1.858 13.85-4.294 20.906-5.853 10.91-2.411 21.994-4.039 32.898-6.47 11.648-2.599 23.118-5.998 34.766-8.59 16.262-3.62 32.665-6.615 48.924-10.25 16.679-3.73 33.25-7.938 49.883-11.88 8.65-2.05 17.317-4.044 26.003-5.939 6.628-1.446 13.376-2.402 19.928-4.121 6.056-1.59 11.863-4.104 17.883-5.858 12.217-3.558 24.546-6.737 36.748-10.343 9.37-2.77 18.644-5.875 27.912-8.977 8.38-2.804 16.647-5.956 25.049-8.69 13.915-4.526 27.936-8.73 41.842-13.284 9-2.948 17.883-6.259 26.806-9.438 9.695-3.454 19.466-6.714 29.04-10.477 12.06-4.74 24.003-9.79 35.904-14.921 9.542-4.116 18.965-8.511 28.404-12.862 6.4-2.95 12.75-6.009 19.098-9.072 6.985-3.372 13.986-6.711 20.896-10.232 7.298-3.72 14.506-7.617 21.735-11.47 10.655-5.677 21.516-11.008 31.882-17.173 12.972-7.715 25.697-15.875 38.215-24.309 11.16-7.517 22.416-15.052 32.657-23.726 9.117-7.724 16.595-17.245 21.872-28.227 2.574-5.355 5.754-10.462 7.87-15.984 3.111-8.12 6.306-16.176 4.328-25.477-1.462-6.87-.907-14.142-1.764-21.173-.802-6.59-2.359-13.083-3.437-19.643-1.215-7.39-1.808-14.914-3.496-22.188-2.437-10.496-5.6-20.824-8.48-31.216a5982 5982 0 0 0-8.712-31.178c-1.36-4.808-2.988-9.542-4.244-14.375-2.475-9.526-4.622-19.14-7.195-28.639-2.442-9.011-5.401-17.883-7.867-26.888-2.606-9.513-4.707-19.165-7.38-28.657-2.655-9.434-5.874-18.708-8.617-28.119-3.77-12.94-7.288-25.955-10.984-38.918-2.605-9.137-5.403-18.22-7.976-27.367-3.01-10.696-5.838-21.443-8.807-32.15-1.328-4.79-2.945-9.5-4.188-14.309-2.258-8.743-4.13-17.59-6.543-26.287-2.62-9.442-5.858-18.713-8.488-28.152-2.596-9.318-4.583-18.805-7.19-28.12-1.849-6.608-4.283-13.053-6.527-19.78l-32.218 9.001a93 93 0 0 1-.747 2.156c.101 2.613.414 4.67.727 6.725 3.146.14 4.12 1.195 4.246 2.648-.135-1.352-1.119-2.294-4.228-2.265.996 3.13 1.974 5.878 3.244 8.346-.067-1.728.92-3.858.996-5.534-.07 1.765-1.044 3.972-.957 5.862-.186 1.041-.122 1.474-.057 1.908 1.28 1.343 3.104 2.51 3.936 4-.833-1.483-2.665-2.608-4.018-3.615 1.549 4.808 3.18 9.233 5.072 13.45-.013-1.607.025-3.2-.048-4.741.082 1.607.06 3.316.097 5.146.165 2.663.544 4.715.922 6.766 2.15.664 2.832 1.967 3.031 3.558-.198-1.5-.907-2.718-3.113-3.187.894 2.804 1.868 5.236 3.111 7.441-.032-1.215.115-2.489.057-3.644.067 1.253-.07 2.644-.023 4.04-.164 1.679-.09 2.733-.018 3.788 2.35.37 3.638 1.529 3.78 3.654-.144-2.117-1.441-3.23-3.864-3.264 1.567 5.704 3.315 10.988 4.848 16.334 2.41 8.413 4.675 16.868 7.295 25.047.202-1.821.477-3.558.353-5.162.126 1.62-.143 3.423-.324 5.533-.199 1.371-.134 2.113-.069 2.854 2.585 1.286 5.137 2.585 5.17 5.455-.037-2.858-2.602-4.098-5.26-5.074 2.901 10.545 5.875 20.714 8.887 30.87 1.968 6.636 4.057 13.234 5.971 19.884 2.385 8.282 4.644 16.602 7.252 24.644.082-2.784.383-5.587.38-8.27.008 2.726-.283 5.619-.347 8.598-.206 1.026-.15 1.461-.095 1.897.779.477 1.94.824 2.502 1.377-.564-.542-1.74-.826-2.594-.98.255 1.794.492 3.232.967 4.585 1.594 4.545 3.515 8.99 4.873 13.602 3.453 11.73 6.671 23.529 10.27 35.045l.08.474c-.194 1.025-.133 1.46-.071 1.895 2.605.784 4.289 2.01 4.217 4.476.068-2.454-1.63-3.619-4.309-4.087.587 2.696 1.197 5.027 1.957 7.308 2.142 6.432 4.337 12.846 6.752 19.08q.173.715.445 1.412c-.171 1.329-.102 2.067-.033 2.807 1.058 1.283 2.589 2.433 3.276 3.822-.689-1.384-2.23-2.49-3.37-3.431 1.943 7.595 3.867 14.835 6.045 21.996a318 318 0 0 0 6.787 19.845q.112.484.262.961c-.172 1.335-.105 2.073-.039 2.81 3.764 1.35 4.12 4.209 3.092 8.184.05 2.032.35 3.445.65 4.858 1.104.535 3.023 1.098 3.584 1.615-.563-.509-2.48-1.016-3.57-1.21 2.036 7.97 3.916 15.577 6.129 23.087 1.724 5.855 3.854 11.592 6.08 17.148q.043.258.084.52c-.168 1.687-.092 2.74-.016 3.795 2.45.622 4.756 1.168 4.617 3.723.135-2.543-2.184-3.03-4.704-3.344.587 2.15 1.35 3.893 1.923 5.697 2.298 7.233 4.538 14.484 7.075 21.498l.119.672c-.178 3.038-.104 5.396-.032 7.754 3.985 2.599 4.148 6.409 3.07 11.207-.192 2.384-.122 4.089-.054 5.793.256.967.51 1.934.709 3.05a12.7 12.7 0 0 0-.809-2.67c.194 1.811.488 3.24 1.05 4.444l-.024-.264q.034.308.06.633c-.17 1.334-.11 2.074-.048 2.813 2.16-.198 3.466.41 3.744 2.201-.282-1.779-1.601-2.322-3.834-1.795.891 4.48 1.872 8.553 3.156 12.344.426-3.23.448-6.182.703-9.115-.255 2.933-.276 5.887-.668 9.488-.208 1.396-.148 2.134-.088 2.875 4.43 3.692 6.415 10.019 5.682 15.892.722-5.843-1.285-12.076-5.774-15.49 3.46 10.834 2.456 20.746-2.94 30.416-1.923 3.448-2.854 7.45-3.858 11.2 3.01-3.844 5.66-7.675 8.238-11.553-2.578 3.878-5.228 7.708-8.225 11.56-.297.007-.364-.009-.379-.015h-.002l-.002-.002c.268 2.136-.305 3.717-1.431 5.004 1.05-1.259 1.543-2.81 1.111-4.885-2.09 2.696-3.862 5.273-5.287 7.834l-.307.156c-1.109.718-1.589 1.319-2.068 1.92-.552.73-1.104 1.46-1.758 2.164a11.5 11.5 0 0 0 1.463-2.092c-1.212 1.086-2.136 2.1-2.738 3.295l-.149.12c-.454-.121-.59.122-.59.122a28 28 0 0 1-1.224 1.608c.387-.506.707-.995.973-1.451-1.071 1.081-1.93 2.032-2.47 2.986q-.183.16-.382.322c-.802.333-.97.615-1.137.897-3.913 3.704-7.823 7.413-11.74 11.113 3.917-3.7 7.828-7.408 11.39-11.074-2.51 1.717-4.588 3.52-6.849 5.053-9.036 6.121-18.13 12.157-26.844 18.43a115 115 0 0 0 11.262-4.495 124 124 0 0 1-11.344 4.553c-.412-.137-.554-.012-.57.004l-.002.002c.798 1.852.8 2.905-.328 3.689 1.098-.773 1.032-1.791.03-3.53-2.245 1.233-4.272 2.18-6.116 3.405-4.321 2.87-8.555 5.872-12.625 9.076l-.36.088c-.968.093-1.432.4-1.896.705.76 1.602 1.392 2.804-.187 3.64 1.567-.833.883-2.017-.15-3.523a2462 2462 0 0 0-20.43 11.887c-4.912 2.883-9.817 5.78-14.362 8.69l-.822.357c-1.154.084-1.58.15-2.008.217-.773 1.084-1.35 2.485-2.28 3.322.926-.839 1.462-2.248 1.923-3.408-3.026 1.333-5.698 2.748-8.364 4.174-4.772 2.552-9.54 5.111-14.085 7.935 1.547-.095 3.095-.117 4.537-.332-1.476.222-3.103.255-4.838.377-.999.066-1.47.354-1.942.643-.757.954-1.346 2.212-2.234 2.931.883-.718 1.428-1.974 1.852-2.914-.88.046-1.452-.078-1.862.127-10.191 5.094-20.381 10.19-30.535 15.358-6.088 3.097-12.115 6.315-18.13 9.785-.133.016-.24.051-.374.066-.801-.206-1.235-.146-1.67-.086-1.08 2.346-2.403 4.019-4.707 4.73 2.285-.716 3.536-2.406 4.33-4.818-8.782 3.402-17.204 6.852-25.586 10.399-4.017 1.7-7.96 3.58-11.728 5.648l-.461.106c-.979-.186-1.414-.13-1.85-.073-1.159 1.233-2.177 2.653-3.512 3.653 1.334-1 2.354-2.42 3.143-3.736-2.51.903-4.654 1.888-6.793 2.878-4.292 1.986-8.582 3.976-12.66 6.237 3.123-.022 6.038-.265 8.934-.657a77 77 0 0 1-9.264.694c-.977-.175-1.411-.114-1.846-.053-.829.586-1.66 1.171-2.574 1.723.828-.56 1.58-1.174 2.234-1.813-1.685.837-3.07 1.752-4.279 2.895q-.29.132-.596.258c-1.299-.157-2.04-.086-2.779-.016-.019.544-.036 1.09-.05 1.809 0-.722-.042-1.283-.321-1.905-3.471 1.199-6.571 2.494-9.406 4.082-.122.01-.21.03-.332.04-1.028-.192-1.462-.127-1.897-.063-2.058 6.221-7.51 4.438-12.37 4.978 4.633-.617 10.26 1.368 11.993-5.066-4.458 1.553-8.54 3.194-12.39 5.117q-.182.025-.362.055c-.997-.18-1.432-.113-1.867-.047-.32.207-.64.415-1.039.59.323-.183.58-.42.74-.688-.765.188-1.244.47-1.58.967q-.168.039-.353.072c-.909-.135-1.342-.076-1.776-.017-.416 1.468-1.045 2.58-2.054 3.146.924-.57 1.464-1.71 1.703-3.226-2.13.897-3.907 1.873-5.47 3.123.89.36 1.656.519 2.311.506-.747.043-1.625-.094-2.681-.47-1.326-.17-2.064-.104-2.803-.038-.588 3.002-2.19 4.16-4.955 4.703 2.76-.543 4.319-1.711 4.578-4.79a110 110 0 0 0-9.017 2.897c-5.229 1.94-10.429 3.954-15.418 6.215.651.065 1.254.088 1.826.06-.63.036-1.338.025-2.197-.023-1.334-.173-2.075-.104-2.815-.035-.486.774-.842 1.916-1.404 2.479.551-.565.847-1.723 1.027-2.573-2.708.889-4.994 2.005-7.38 2.829-9.735 3.358-19.5 6.628-29.036 10.189l-.408.053c-1.327-.158-2.067-.095-2.805-.032-.342 1.809-1.033 3.03-2.26 3.485 1.146-.446 1.761-1.694 1.905-3.572-2.131.889-3.906 1.866-5.453 3.123 1.228.54 2.235.724 3.037.59-.886.161-2.005-.007-3.409-.551-1.336-.167-2.075-.096-2.814-.024-.472 2.98-1.733 4.581-4.627 4.844 2.888-.265 4.108-1.875 4.248-4.934-3.761.913-7.183 1.797-10.515 2.946-5.412 1.866-10.765 3.906-15.926 6.15 2.49-.185 4.93-.396 7.336-.682-2.456.293-4.992.515-7.666.721-.981-.178-1.415-.115-1.85-.053-2.273.837-4.547 1.672-6.936 2.46a88 88 0 0 0 6.543-2.557c-4.024 1.168-7.68 2.427-11.109 3.941l-.637.172c-.998-.183-1.432-.123-1.867-.064-.38.693-.647 1.75-1.092 2.236.434-.489.64-1.56.706-2.324-8.271 1.989-16.176 3.996-24.036 6.162-6.562 1.808-13.073 3.8-19.369 6 1.64.026 3.256 0 4.852-.092a73 73 0 0 1-5.266.127c-2.03-.174-3.407-.094-4.785-.016-1.844 3.053-4.354 4.324-7.426 4.71 3.05-.392 5.485-1.683 7.037-4.807-3.959.879-7.507 1.951-11.105 2.814-9.839 2.36-19.697 4.631-29.301 7.22-.137.008-.241.03-.379.036-1.358-.191-2.097-.132-2.836-.072-1.406 4.774-5.007 3.957-9.195 3.091-2.046-.19-3.425-.126-4.803-.064-.512 2.572-1.69 4.107-3.812 4.617 2.1-.515 3.205-2.07 3.427-4.703a1310 1310 0 0 0-30.425 6.938c-1.476.354-2.822 1.25-3.993 2.18 3.225-.163 6.572.007 9.68-.294-3.152.308-6.603.144-10.076.33-1.687-.178-2.741-.109-3.797-.04-3.976 4.378-9.207 4.481-15.12 4.013-1.02-.186-1.454-.128-1.888-.07-1.85 6.384-6.445 4.143-11.13 3.113-.993-.192-1.43-.134-1.866-.076-2.771 2.591-5.465 4.866-9.303 5.115 3.825-.252 6.457-2.541 8.907-5.209-7.813 1.88-15.228 3.853-22.4 6.11q.047-.004.095-.006-.245.02-.492.037c-1.696-.19-2.753-.129-3.809-.067-.878 2.435-2.392 3.431-4.435 3.559 1.95-.094 3.413-1.112 4.058-3.65-2.803.891-5.23 1.875-7.424 3.14 1.034.31 2.003.493 2.887.516-.995-.002-2.093-.165-3.312-.48-2.361-.17-4.062-.093-5.764-.016-.119 3.488-2.314 4.125-4.6 4.373 2.265-.253 4.385-.912 4.217-4.469-4.095.89-7.818 1.84-11.52 2.87-7.05 1.96-14.087 3.968-20.898 6.24 2.788-.183 5.677-.11 8.402-.34-2.777.238-5.772.17-8.775.37-1.345-.181-2.087-.112-2.828-.042-2.135 2.21-4.555 3.58-7.387 4.078 2.744-.49 5.09-1.89 6.996-4.176-4.479 1.194-8.568 2.486-12.406 4.063q2.9.558 5.381.119c-1.738.301-3.63.277-5.709-.088-1.013-.192-1.448-.131-1.883-.07-.684 2.394-1.58 4.19-3.967 4.316 2.374-.13 3.211-1.939 3.584-4.402-4.024 1.02-7.785 1.848-11.277 3.314-3.555 1.493-6.856 3.593-10.05 5.691q-.24.062-.483.121c-1.325-.139-2.061-.06-2.797.018-.434 4.738-4.685 5.104-7.795 6.55 3.105-1.446 7.317-1.813 7.445-6.558-9.743 5.245-19.31 10.219-28.482 15.834-8.618 5.276-16.82 11.23-24.844 16.91h-.004c-.362-.025-.361-.021-.361-.021.116 1.25.068 2.37-.541 3.119.536-.726.503-1.819.217-3.014-1.45 1.364-2.575 2.624-3.303 3.895.81.067 1.453.014 1.953-.135-.552.184-1.267.261-2.19.21-.936.254-1.109.527-1.154.882-1.252 5.728-6.176 8.528-9.976 12.142 3.8-3.614 8.723-6.413 9.619-12.113-5.253 4.112-10.149 8.197-14.66 12.487 1.6.039 3.327.339 4.406-.014l-.002.002c-1.082.355-2.82.063-4.494.074-.446-.135-.593.01-.61.03v.001l-.011 3.858a47 47 0 0 1-2.416-1.075c-.908.056-1.37.365-1.83.672-.698 5.748-7.358 11.887-14.162 12.498-.452-.14-.588.05-.588.05.583 1.453 1.104 2.814.113 3.716.97-.894.387-2.223-.416-3.559-12.629 9.386-23.6 20.701-38.717 25.524 1.674.328 3.277.378 4.819.23-1.649.172-3.38.133-5.215-.199-1.7-.185-2.756-.12-3.81-.057-.336 2.052-1.251 3.214-2.932 3.625 1.66-.416 2.493-1.597 2.503-3.714-5.13.25-9.833.84-14.539.863-5.032.024-10.068-.49-15.043-.395 1.098.984 2.146 2.183 3.21 2.807-1.091-.627-2.228-1.842-3.637-2.883-2.52-.489-4.552-.53-6.584-.57-5.57-.155-11.162-.082-16.703-.568 5.54.486 11.131.414 16.488.21-4.36-1.062-8.49-1.901-12.658-2.433-3.704-.473-7.451-.605-11.08-.533 1.688.81 3.308 1.696 4.939 2.246-1.666-.555-3.385-1.457-5.375-2.32-2.897-.476-5.259-.523-7.621-.569-.77.288-1.676.955-2.342.955.664-.005 1.55-.712 2.162-1.31-9.123-1.748-18.076-3.086-27.01-4.547-7.297-1.193-14.57-2.532-21.804-3.451.95 2.711 2.693 3.685 4.707 4.068-2.05-.387-3.889-1.377-5.125-4.149-2.176-.476-3.883-.516-5.59-.558-4.373 1.827-8.379 1.446-12.39-2.457-2.971-.437-5.426-.397-7.881-.36-1.952-.03-3.905-.062-5.975-.199 1.976.102 3.876.076 5.65-.043-3.32-.379-6.326-.522-9.213-.298l-.502-.067c-1.573-.486-2.635-.517-3.697-.549-3.99.259-8.004.912-11.963.668 3.96.244 7.973-.409 11.774-1.045-3.22-.765-6.24-1.367-9.282-1.492-5.167-.212-10.347-.124-15.255.135 2.326.543 4.57 1.098 6.787 1.549-2.29-.45-4.661-.988-7.254-1.52-8.078-.212-15.423-.157-22.768-.103-1.677 1.719-3.54 2.424-5.531 2.664 1.882-.257 3.615-1.013 5.092-2.758-4.82.575-9.2 1.245-13.307 2.217 2.672.298 5.321.816 7.74.593-2.523.206-5.25-.284-8.113-.566-1.389-.214-2.13-.153-2.873-.092-1.153.258-2.305.516-3.617.715a19 19 0 0 0 3.22-.814c-2.148.196-3.9.493-5.412 1.068q-.209.018-.425.033c-2.367-.174-4.069-.103-5.77-.031-1.029 2.92-2.505 4.894-6.426 2.596-2.197.013-3.879.232-5.56.453-.819 1.089-1.461 2.652-2.383 3.467.91-.815 1.493-2.379 2.01-3.467-.788.236-1.187.512-1.623.705-5.965 2.646-11.935 5.28-17.69 8.176l-.478.119c-.978-.156-1.41-.09-1.842-.024-.526 1.01-.821 2.431-1.523 3.13.697-.7.953-2.13 1.164-3.217-7.65 3.401-14.299 7.733-19.938 13.65-10.736 11.266-21.674 22.336-32.475 33.54-.969 1.006-1.545 2.392-1.904 3.618.838-.11 1.706-.11 2.45-.178-.741.07-1.604.072-2.432.188-.312-.005-.386-.029-.403-.037h-.002l-.002-.002c-.603 2.972-3.64 7.291-6.42 9.361 2.732-2.03 5.723-6.368 6.065-9.324-3.253 3.446-6.15 6.854-8.67 10.453.74 0 1.624-.404 2.54-1.072-.947.694-1.862 1.123-2.636 1.14-.443-.114-.578.055-.593.077l-.002.001c-1.555 2.691-2.754 5.73-4.64 8.096 1.882-2.364 3.051-5.384 4.37-7.93-4.177 4.521-8.084 8.877-11.58 13.245 1.084.34 1.923.342 2.598.127-.733.267-1.657.309-2.875-.024-1.157.443-1.625.795-2.092 1.147-1.107 1.257-2.213 2.514-3.682 3.754a3 3 0 0 1-.365-.028h-.002c-.634 3.083-1.864 5.36-3.713 6.754 1.768-1.38 2.91-3.653 3.358-6.726-3.452 2.671-6.55 5.314-9.428 8.234q1.64.152 3.017-.129-1.497.331-3.314.191c-.985.081-1.453.377-1.92.672-.439.954-1.588 2.064-2.908 3.153 1.254-1.079 2.236-2.187 2.541-3.125-7.814 3.05-15.252 6.096-22.713 9.084-2.608 1.044-5.273 1.945-7.658 3.203 1.162.063 2.285.137 3.361.125-1.14.019-2.376-.045-3.758-.094-1.705-.194-2.76-.127-3.816-.06-1.903 1.008-3.815 2.722-5.713 3.314 1.885-.595 3.734-2.326 5.309-3.41-8.209 3.066-16.24.746-24.159.758-3.876.005-8.009-.25-11.583-1.58-15.782-5.87-31.594-11.82-44.327-23.43-.099.543-.197 1.061-.173 1.396-.031-.342.052-.886.105-1.511.119-.437-.115-.567-.115-.567-.76-.187-1.518-.374-2.332-.902-.045-.276-.029-.342-.022-.358v-.004h.002v-.001c-.543-.42-1.085-.84-1.639-1.354a7.2 7.2 0 0 0 1.61 1.008c-.942-1.037-1.859-1.777-2.762-2.219q-.136-.162-.273-.336a4.6 4.6 0 0 0-.248-1.035c-2.376-.15-5.486.57-4.245-4.18.122-.449-.048-.591-.07-.607l-.002-.002c-3.005 1.188-5.451.02-6.931-1.705 1.47 1.703 3.877 2.805 6.761 1.43-4.153-4.95-8.082-9.674-12.15-14.274-1.524-1.723-3.37-3.158-5.06-4.369.308.946.518 1.762.855 2.43-.337-.667-.55-1.483-.863-2.42-.016-.302 0-.35.004-.358h.001c-.522-.546-1.04-1.177-1.562-1.744.513.513 1.024.993 1.531 1.405-1.35-1.774-2.67-3.21-4.012-4.276l-.002-.002.022-.369c-1.338-1.088-2.677-2.177-4.008-3.633.007-.322.025-.373.03-.38-3.603.984-4.266-2.028-5.922-4.083 1.656 2.05 2.315 5.024 5.89 3.73-2.678-3.124-5.322-5.897-7.953-8.325.335 1.433.657 2.522 1.281 3.789-.678-.01-1.39.284-1.7.31.302-.032.965-.355 1.396-.49-.321-1.088-.642-2.176-.989-3.592-.02-.265 0-.329.008-.344l.002-.002v-.002h.002c-.38-.431-.761-.864-1.166-1.414q.577.71 1.129 1.086c-.664-1.078-1.294-1.848-1.924-2.285q-.099-.166-.201-.345c-2.711-3.45-5.285-6.24-7.857-9.028-.747-.004-1.494-.01-2.588.328 3.765 5.594 7.868 10.855 12.043 16.057-4.175-5.202-8.278-10.462-12.416-16.066-.372-1.446-.719-2.538-1.06-3.971.003-.297.018-.346.023-.354h.002c-2.679-2.759-5.358-5.52-8.03-8.633.006-.287.026-.352.033-.367l.002-.002v-.002c-1.068-.515-2.272-.903-3.353-1.406 1.073.465 2.28.753 3.322 1.057-5.346-5.455-10.66-10.56-15.986-15.303 3.555 4.601 6.977 8.975 10.77 13.002-3.793-4.027-7.216-8.401-10.782-12.986 0-.282.023-.348.031-.364l.002-.002h.002v-.002c-2.405.053-4.87.198-5.039-3.605.005-.327.024-.38.03-.389-2.338-.626-5.317-.486-5.03-4.607.006-.306.018-.373.024-.387l.002-.002v-.002c-4.903.493-7.575-3.062-10.684-5.748 3.107 2.682 5.767 6.2 10.57 5.426-5.392-4.348-10.67-8.375-15.957-12.004 1.15 1.86 2.07 3.75 3.416 5h-.002c-1.35-1.251-2.293-3.15-3.64-5.09-.218-.487-.696-.582-.696-.582-.683-.394-1.365-.789-2.07-1.271.675.408 1.33.724 1.955.957-1.27-1.022-2.44-1.777-3.584-2.229q-.208-.183-.42-.384c-.737-.784-1.32-.929-1.904-1.075l-1.055.61c-.183-.486-.368-.971-.441-1.838.11-.381-.12-.514-.12-.514-.366-.09-.733-.178-1.12-.342.351.096.68.122.974.088-.754-.454-1.39-.704-1.976-.678a6 6 0 0 1-.332-.275c-1.094-1.122-2.01-1.592-2.926-2.062-1.548 1.098-2.535.975-3.303.232.732.669 1.687.716 3.174-.553-1.71-1.1-3.291-1.882-4.854-2.314.233.494.457.99.692 1.443-.284-.533-.557-1.133-.85-1.746-1.074-.78-1.97-.907-2.867-1.033-.637.236-1.413.805-1.932.758.518.044 1.283-.554 1.81-1.096-5.037-2.785-9.955-5.232-14.886-7.273.096.847.074 1.743.205 2.275-.14-.548-.146-1.507-.328-2.557-.697-.82-1.284-.955-1.873-1.09-2.413 1.172-4.605 1.894-6.621-.144 2.013 2.03 4.19 1.272 6.467-.197-5.398-2.36-10.643-4.38-15.836-6.053 1.413 1.366 2.692 2.536 4.164 3.361-1.472-.825-2.75-1.996-4.527-3.441-1.155-.474-1.896-.522-2.637-.57-3.706-.632-7.817.67-11.074-2.22 3.257 2.89 7.361 1.568 10.945 1.882-6.352-2.77-12.575-5.203-18.807-7.229l-.226-.328c-1.045-.842-1.942-.969-2.84-1.096-1.678-.503-3.357-1.006-5.182-1.693a28 28 0 0 0 5.035 1.365c-2.395-1.032-4.643-1.736-6.84-2.095q.322.14.641.273-.478-.194-.97-.408c-1.487-.783-2.592-1.086-3.698-1.389-2.007-.177-4.028-.29-6.037-.46 1.988.134 3.975.14 5.89.11a414 414 0 0 0-25.822-8.054c1.62 1.252 3.133 2.472 4.735 3.422-1.619-.954-3.195-2.19-5.057-3.504-.829-.45-1.267-.484-1.707-.518-2.798.93-5.916 2.976-7.392-2.475-1.113-.498-1.856-.531-2.598-.564-4.351-.84-9.143.717-13.127-2.369 3.983 3.085 8.766 1.508 12.97 2.035-8.398-3.028-16.642-5.722-24.84-8.078.951 1.794 1.672 3.45 3.37 3.816-1.72-.366-2.513-2.04-3.732-3.894-1.153-.452-1.895-.488-2.637-.526-1.299-.397-2.728-.93-4.05-1.353 1.315.382 2.625.747 3.896 1.021-3.401-1.34-6.648-2.35-9.823-3.029.485.193.954.327 1.436.506-.61-.22-1.126-.344-1.756-.586-.833-.45-1.272-.488-1.711-.527-1.64-.171-3.274-.386-4.918-.54 1.609.104 3.212.177 4.775.198-8.395-3.02-16.649-5.7-24.83-8.043 1.627 1.405 3.13 2.79 4.745 3.883-1.635-1.096-3.207-2.496-5.108-3.963-1.176-.463-1.918-.51-2.66-.557-2.992 2.198-4.54.276-6.354-2.49-1.157-.447-1.9-.485-2.642-.522-.887.144-1.868.578-2.684.497.813.076 1.776-.394 2.518-.83-1.386-.757-2.596-1.21-3.828-1.594-7.346-2.29-14.697-4.566-22.034-6.444.858 1.04 1.624 2.091 2.508 2.746-.9-.658-1.729-1.724-2.828-2.818-.77-.512-1.208-.551-1.644-.59-3.778 1.393-6.412-.622-9.358-3.404-1.172-.452-1.915-.491-2.658-.531-4.563-.758-9.141-1.437-13.682-2.313 4.54.877 9.119 1.554 13.528 1.973-8.398-3.032-16.641-5.723-24.83-8.059.519 1.715 1.25 2.903 2.314 3.621-1.12-.725-1.96-1.927-2.68-3.699-1.16-.47-1.904-.507-2.646-.543-3.163 2.13-5.142.336-7.307-2.504-.81-.447-1.248-.48-1.685-.513-5.65-.653-12.227 1.634-16.336-5.453-.796-.45-1.234-.484-1.672-.52-4.798 3.175-7.52-1.102-11.293-3.451-.837-.45-1.277-.485-1.717-.52-3.164 2.122-5.122.257-7.347-2.511-1.155-.457-1.896-.496-2.637-.536-4.23 2.04-7.587-.706-11.211-1.97 3.622 1.26 6.961 3.97 11.053 1.638-5.263-2.091-10.352-3.896-15.477-5.593-3.109-1.03-6.272-1.894-9.398-2.432-.078 1.76.45 2.52 1.26 2.9-.866-.383-1.49-1.154-1.58-2.976-.771-.51-1.21-.544-1.647-.578-4.52 2.978-7.037-.628-10.352-3.428-1.17-.46-1.91-.509-2.652-.559-4.084-.531-8.537.752-12.242-1.71 3.703 2.457 8.14 1.136 12.105 1.363-8.395-3.017-16.653-5.686-24.838-8.01 1.275 2.426 2.863 3.918 4.985 4.389-2.15-.474-3.817-1.984-5.348-4.47-1.179-.469-1.92-.515-2.662-.56-3.165 2.158-5.138.33-7.31-2.492-.81-.454-1.247-.491-1.684-.53-5.631-.7-12.23 1.665-16.328-5.452-.805-.442-1.245-.473-1.684-.506-3.07 1.862-5.55 1.746-7.303-2.498-.81-.471-1.247-.51-1.683-.549-1.043.094-2.127.345-3.172.445 1.025-.131 2.068-.479 3.002-.777-7.488-2.643-14.798-4.98-22.13-7.248-2.557-.792-5.166-1.416-7.675-1.78 1.548 1.252 2.957 2.592 4.488 3.497-1.547-.908-3.02-2.264-4.81-3.573-.837-.45-1.277-.487-1.715-.525-3.551 3.793-4.44-.046-6.363-2.49-1.147-.452-1.888-.492-2.63-.533-.782-.272-1.701-.683-2.509-.98.805.263 1.604.505 2.367.657-2.063-1.022-3.984-1.721-5.86-2.084.536.271 1.056.456 1.583.68-.667-.272-1.214-.421-1.945-.76-1.15-.456-1.888-.496-2.63-.535-5.559-.9-12.125 1.419-16.327-5.424-.807-.467-1.245-.503-1.682-.539-1.541.365-3.224 1.25-4.71 1.223 1.44-.053 3.086-1.027 4.546-1.563-2.72-1.117-5.274-1.896-7.83-2.263.223 1.05.516 1.839.861 2.418-.419-.635-.782-1.525-1.066-2.745-1.738-.84-3.273-.944-4.809-1.048-3.273 2.486-4.852-.584-7.29-2.51-.827-.442-1.264-.478-1.702-.514-6.049-.336-12.467.552-17.305-5.486-.822-.435-1.26-.47-1.697-.506-3.49 3.629-4.726.78-6.365-2.486-1.145-.456-1.886-.499-2.627-.541-1.719.926-3.208 1.045-4.557.482 1.305.483 2.756.282 4.393-.814-2.712-1.104-5.262-1.879-7.776-2.291q-.108-.156-.215-.319c-1.435-.787-2.648-.896-3.86-1.005-3.662-.312-7.445.415-10.954-1.04 3.504 1.444 7.266.664 10.805.696-7.98-2.778-15.814-5.218-23.612-7.276l-.369-.365c-1.435-.813-2.65-.924-3.865-1.033-3.172 2.145-5.135.302-7.305-2.514-.813-.444-1.251-.475-1.69-.506-2.651-.284-5.448-.061-8.097-.529 2.608.387 5.362.08 7.928.193-5.026-1.77-9.883-3.207-14.715-4.275q-.12-.16-.24-.326c-1.082-.8-1.981-.918-2.883-1.035-3.612 2.94-6.15 1.84-8.303-2.528-.81-.454-1.247-.49-1.683-.527-3.949 1.108-7.182-.135-10.35-3.43-1.175-.453-1.915-.496-2.656-.539-2.166-.184-4.344-.304-6.512-.48 2.146.14 4.29.156 6.363.142-8.397-3.029-16.647-5.719-24.884-8.04.777.95 1.481 1.928 2.242 2.724-.807-.808-1.607-1.794-2.606-2.8-1.118-.484-1.86-.523-2.601-.561-1.294-.394-2.718-.925-4.035-1.344 1.31.378 2.615.742 3.88 1.014-3.402-1.338-6.65-2.346-9.826-3.022.475.188.935.32 1.407.494-.6-.216-1.108-.336-1.727-.574-.83-.458-1.267-.503-1.705-.549-3.254-.615-6.68.213-9.902-1.023 3.217 1.226 6.624.343 9.77.674-8.396-3.017-16.658-5.684-24.913-7.98.313 1.869 1.06 2.926 2.102 3.536-1.105-.617-1.964-1.686-2.465-3.617-1.112-.492-1.852-.534-2.594-.576-2.992 2.206-4.53.235-6.36-2.49-1.152-.454-1.894-.491-2.636-.53-4.01-.42-8.195.382-11.938-1.72 3.741 2.097 7.91 1.257 11.786 1.386-8.4-3.03-16.645-5.727-24.842-8.082.746 1.915 1.54 3.298 3.045 3.787-1.532-.492-2.397-1.892-3.366-3.86-.806-.45-1.244-.483-1.681-.517-2.027.645-4.188.666-5.93.123 1.697.462 3.817.36 5.76-.455-3.053-1.114-5.938-1.897-8.955-2.357q.092.42.293.79a3.7 3.7 0 0 1-.48-1.104c-1.269-.747-2.482-.858-3.696-.967-4.186-.557-8.404-.95-12.547-1.735 4.143.785 8.361 1.18 12.4 1.397-8.397-3.028-16.646-5.718-24.841-8.049.786 2.542 2.048 3.849 4.144 4.303-2.11-.456-3.43-1.775-4.508-4.381-1.16-.475-1.902-.514-2.644-.553-3.165 2.142-5.294.854-7.303-2.508-.816-.449-1.255-.481-1.693-.513-4.715-.887-9.457-1.66-14.131-2.727 4.674 1.068 9.415 1.839 13.96 2.39-4.698-1.89-9.197-3.545-13.767-4.974a186 186 0 0 0-15.039-4.025c1.795 2.235 3.795 3.61 6.108 4.222-2.35-.617-4.429-2.013-6.428-4.304-.835-.467-1.272-.509-1.709-.551-1.93.275-4.069 1.163-5.834.953 1.764.205 3.886-.722 5.701-1.305-3.61-1.517-7.081-2.706-10.57-3.841-7.776-2.53-15.561-5.035-23.295-7.204.992 2.08 2.277 3.388 3.951 4.016-1.709-.632-3.074-1.96-4.271-4.094-.806-.46-1.242-.495-1.68-.53-3.51.357-7.057 1.624-10.287-.241 3.224 1.853 6.745.533 10.115-.104-4.888-1.801-9.617-3.219-14.318-4.726-7.863-2.521-15.707-5.099-23.498-7.285.965 1.467 1.683 3.108 2.755 3.896-1.078-.789-1.836-2.438-3.119-3.975-1.165-.486-1.907-.526-2.648-.566-3.158 2.15-5.295.869-7.315-2.484-.81-.454-1.246-.488-1.683-.522-4.415-.84-8.844-1.612-13.235-2.566 4.39.954 8.819 1.727 13.079 2.234-1.782-1.077-3.358-1.964-5.041-2.545a5175 5175 0 0 0-33.913-11.574c-7.3-2.463-14.629-4.839-21.89-6.887.948 2.696 2.656 3.841 4.635 4.453-2.068-.617-3.897-1.768-4.996-4.533-1.159-.49-1.9-.531-2.641-.574-2.652 1.254-5.4 2.788-6.352-2.477-.768-.491-1.203-.523-1.64-.556-3.667-.669-7.483-.907-10.969-2.104-5.76-1.977-11.307-4.573-17.338-7.32-.832-.447-1.27-.482-1.709-.518-3.258 2.456-4.858-.57-7.34-2.5-1.168-.45-1.91-.493-2.652-.537-1.885-.27-3.757-.596-5.647-.843 1.847.196 3.692.375 5.495.505-8.732-3.026-17.311-5.715-25.834-8.052 1.195 1.025 2.31 1.952 3.486 2.687-1.195-.739-2.38-1.68-3.85-2.763-1.161-.47-1.903-.512-2.644-.553-1.297-.393-2.726-.922-4.047-1.34 1.311.377 2.619.737 3.883 1.006-3.407-1.333-6.65-2.332-9.82-3 .476.188.938.319 1.411.494-.601-.216-1.112-.336-1.734-.574-.834-.446-1.273-.48-1.713-.514-.625.264-1.345.844-1.896.867.548-.03 1.255-.646 1.752-1.213-9.06-3.028-17.977-5.71-26.813-8.048 1.287 2.456 2.903 3.913 5.051 4.367-2.177-.456-3.877-1.932-5.44-4.45-1.525-.475-2.582-.525-3.64-.576-3.015 2.277-4.549.29-6.361-2.486-1.153-.45-1.896-.484-2.64-.518-4.481-.757-9.002-1.345-13.425-2.36 4.423 1.015 8.945 1.602 13.258 2.023-6.071-2.024-11.975-3.709-17.82-5.05.867.71 1.686 1.45 2.521 2.034-.88-.596-1.783-1.348-2.844-2.108-.816-.453-1.254-.488-1.693-.523-2.375 1.808-4.28 1.194-6.092-.709 1.81 1.898 3.699 2.476 5.947.375a35.5 35.5 0 0 0-6.865-2.242c-.006.226-.032.676.147.976-1.73-.711-3.417-1.348-5.106-2.03 1.645.607 3.287 1.168 4.928 1.73 0 0 .026-.45-.348-.766-3.155-1.215-5.997-2.167-8.785-2.812q-.47-.229-.943-.473c-1.096-.787-1.994-.904-2.89-1.022-3.436-.381-7.161-.047-10.243-1.298 3.082 1.251 6.809.917 10.09.957-6.723-2.92-13.373-5.316-19.838-8.131-5.157-2.246-10.43-4.509-15.047-7.65-7.325-4.984-14.42-10.401-18.908-18.434-1.754-3.14-1.286-5.52 1.508-7.696 1.813-1.412 3.477-3.015 5.045-4.77l.525-.308c.946-.088 1.415-.38 1.885-.674-.758-2.883 1.598-3.332 3.129-4.167-1.515.83-3.804 1.261-2.795 4.066 4.122-3.035 7.91-5.969 11.275-8.926-1.303-.08-2.46-.079-3.47.133 1.059-.23 2.29-.242 3.706-.178a3.8 3.8 0 0 0 1.108-.187c1.084-3.76 3.2-6.746 6.107-8.639-2.833 1.866-4.88 4.863-5.765 8.647 1.6-.961 2.917-1.861 4.103-2.913 2.908-2.577 5.754-5.223 8.219-7.851-1.729.1-3.341.496-4.799 1.152 1.534-.7 3.24-1.137 5.09-1.275 1.493-.7 2.288-1.29 3.084-1.877 2.108-3.433 3.245-7.96 9.129-7.54.474.13.6-.066.6-.066-.48-1.503-.396-2.556.2-3.261-.522.678-.537 1.688.06 3.103 1.52-1.515 2.781-2.87 3.644-4.246a10 10 0 0 0-1.744.149c.569-.12 1.23-.184 1.982-.2a3.8 3.8 0 0 0 1.092-.205c.655-.792 1.31-1.585 2.107-2.334a9.8 9.8 0 0 0-1.802 2.371c1.246-.989 2.19-2.016 2.812-3.228q.046-.036.094-.07c.386.118.528-.02.545-.038l.002-.002c.065-1.133-.213-2.88.078-3.609-.283.727.03 2.45.205 3.445 1.454-1.014 2.786-1.711 3.77-2.74 6.926-7.242 13.78-14.552 20.286-22.035-1.306.27-2.625.442-3.736.813 1.118-.377 2.455-.566 3.807-.875.414.123.547.007.562-.008v-.002c-1.125-2.585-1.005-4.464 2.907-4.42.323-.006.403.02.421.03l.002.001.002.002h.002c.688-1.146-.416-3.469-.013-4.832-.355 1.337.829 3.638.322 4.719 1.563-1.796 2.817-3.478 3.75-5.37-1.904-.5-2.977-.454-3.55-.087.587-.4 1.688-.473 3.663.017.435.14.567-.093.567-.093-1.453-4.822 2.264-7.302 4.533-10.434-2.265 3.13-5.952 5.592-4.256 10.264 4.445-6.983 8.697-13.746 12.764-20.618 7.688-12.99 15.274-26.042 22.558-39.046l.574-.657c.77-.737.904-1.323 1.04-1.91-.13-5.392 1.508-10.099 4.734-14.176-3.221 4.075-4.823 8.769-4.406 14.047 7.123-12.705 13.918-25.282 20.304-37.861a6.8 6.8 0 0 0-1.564.525 7.5 7.5 0 0 1 1.842-.652c.818-.71.95-1.298 1.084-1.885-2.062-2.842.348-3.75 2.543-5.207.41-.277.496-.756.496-.756-.005-4.652 1.392-8.555 3.662-12.062-2.192 3.47-3.508 7.343-3.334 11.931 4.07-6.981 7.818-13.833 11.197-20.687l.404-.363c.814-1.052.948-1.947 1.082-2.842.232-1.654.049-3.57.586-5.03-.53 1.458-.306 3.36-.254 4.915a544 544 0 0 0 11.616-18.149c2.998-4.887 5.873-9.85 8.468-14.736-.973.555-1.802.984-2.4 1.574.6-.593 1.437-1.048 2.477-1.799a1.26 1.26 0 0 0 .507-.728c.39-.686.779-1.372 1.256-2.078a11.7 11.7 0 0 0-.943 1.96c1.015-1.275 1.765-2.45 2.21-3.601q.187-.21.39-.426c.784-.733.928-1.32 1.072-1.906-1.104-1.951-.724-3.082.267-3.943-.914.83-1.216 1.935.057 3.832 1.424-2.01 2.533-3.91 3.299-5.8q.166-.095.328-.195c1.112-1.053 1.575-1.974 2.037-2.896.664-1.049 1.474-2.175 2.164-3.238-.651 1.052-1.29 2.103-1.834 3.127 2.04-2.716 3.751-5.322 5.102-7.914-.534.697-.976 1.387-1.461 2.082.535-.78.944-1.492 1.539-2.303.437-.233.52-.695.52-.695 1.094-2.528 2.104-5.1 3.3-7.579a59.5 59.5 0 0 0-2.98 7.446c.89-.73 1.563-1.26 2.017-1.936 10.36-15.409 20.697-30.833 30.72-46.433-.126.05-.247.102-.372.152.168-.07.303-.147.478-.219.421.112.55-.1.55-.1-.017-2.013 1.101-5.185 2.779-8.298-1.605 3.072-2.65 6.194-2.495 8.115a52 52 0 0 0 2.871-4.695c2.04-3.774 4.045-7.566 5.721-11.33q.173-.14.344-.268c.779-.731.924-1.318 1.066-1.906.229-.51.456-1.018.766-1.543a5.3 5.3 0 0 0-.457 1.441c.7-.94 1.145-1.798 1.316-2.644q.153-.178.325-.36c.756-.696.9-1.275 1.044-1.855 1.795-3.938 3.17-8.147 5.489-11.746-2.32 3.599-3.693 7.808-5.164 11.615 5.443-8.386 10.563-16.64 15.326-24.871-4.591 1.92-6.346 5.83-8.186 9.605 1.84-3.775 3.591-7.687 8.17-9.615.278-.028.346-.014.362-.008l.002.002h.001c2.097-3.33 4.195-6.658 6.635-10.008.28-.016.34-.009.352-.005h.004c-.007-.31-.132-.697-.026-.934-.105.237.038.617.352.828 5.116-7.034 9.906-13.962 14.342-20.867-6.963 5.36-10.235 13.097-14.67 19.994 4.435-6.897 7.705-14.634 14.652-20.004.273-.027.34-.012.356-.006l.002.002h.001c1.362-3.187 2.922-6.237 4.936-9.047-1.939 2.78-3.418 5.804-4.613 8.934 4.067-5.322 7.817-10.53 11.199-15.748q.191-.145.387-.29c.804-.699.951-1.284 1.1-1.868-1.217-1.81-1.752-3.265-.165-4.405-1.574 1.137-.989 2.576.487 4.297 2.4-2.987 4.49-5.872 6.23-8.734q.16-.106.326-.209c.769-.374.935-.655 1.102-.936.618-2.274-1.906-6.557 4.11-5.568.445.111.574-.024.589-.04l.002-.003c-.564-1.238-.773-2.3-.205-3.006-.523.676-.252 1.702.459 2.852.987-1.27 1.72-2.386 2.088-3.682-1.034.024-1.746.206-2.196.508.473-.328 1.215-.532 2.303-.58.445.101.582-.09.598-.115l.002-.002c.206-3.864 1.354-7.083 3.258-9.205-1.858 2.09-2.942 5.266-2.993 9.027 2.978-3.939 5.69-7.7 8.045-11.662a7.56 7.56 0 0 0-3.55 1.3 7.9 7.9 0 0 1 3.652-1.37c.458.13.582-.084.582-.084-1.278-5.25 3.226-8.005 5.312-11.704-2.086 3.699-6.59 6.455-5.043 11.526 1.35-1.562 2.429-2.95 3.514-4.33 4.16-5.293 8.32-10.584 12.197-16.02-1.102-.26-2.393-.775-2.933-.625.544-.152 1.865.353 3.207.518 1.035-.561 1.513-1.159 1.992-1.756.443-.973.888-1.946 1.666-2.961.272-.034.337-.017.352-.01h.002l.001.002c.22-2.319-.99-5.743 4.116-4.543.47.12.61-.08.627-.105l.002-.002a47 47 0 0 1 1.535-2.54 18 18 0 0 0-1.274 2.372c1.172-1.513 2.081-2.858 2.608-4.215-.064.077-.116.154-.178.23.063-.078.105-.157.17-.236.304.005.369.019.383.024h.002a54 54 0 0 1 1.804-2.6 21 21 0 0 0-1.482 2.5c1.328-1.565 2.385-3.047 3.143-4.504q.224-.245.464-.492c1.106-.73 1.58-1.33 2.055-1.93.385-.523.77-1.046 1.244-1.582a8 8 0 0 0-.94 1.502c1.02-.958 1.775-1.847 2.212-2.746q.18-.153.377-.309c.814-.68.97-1.267 1.127-1.853-.245-.729-.846-1.816-.856-2.309.017.491.662 1.563 1.188 2.198 4.113-4.7 7.894-9.289 11.302-13.885a228 228 0 0 0-12.43 11.48A236 236 0 0 1 461.64 386c.293 0 .36.017.375.023h.002v.002h.002c1.829-3.222 2.56-6.923 5.199-9.78-2.627 2.853-3.31 6.538-4.877 9.667 7.235-8.139 14.147-16.164 20.736-24.383-.92.452-1.812.902-2.633 1.405.837-.514 1.757-.982 2.729-1.467.394.121.533-.037.549-.057l.002-.002c-.546-1.334-.713-2.402-.307-3.094-.333.659-.1 1.686.566 2.942 1.174-1.205 2.09-2.259 2.778-3.586-1.162-.218-2.008-.203-2.576.004.621-.26 1.557-.315 2.875-.127 1.333-1.075 2.141-2.302 2.949-3.53-.197-2.482.11-4.535 1.326-6.355-1.186 1.81-1.408 3.839-1.002 6.25 3.519-3.66 6.816-7.13 9.875-10.799 2.425-2.908 4.558-6.059 6.441-9.115-1.137-.005-1.896.004-2.654.012 0 0 .004.015-.01.322-.094-.472-.208-.601-.322-.73q.16.18.317.363l-.038-.084c.812.12 1.57.112 2.946.039.785-.345.953-.623 1.12-.902.453-1.097-.297-3.16.143-4.305-.389 1.123.441 3.17.164 4.22 1.563-1.443 2.82-2.803 3.758-4.37-1.905-.729-2.948-.77-3.492-.42.563-.383 1.635-.37 3.613.35.439.138.57-.106.57-.106l-.343-5.688c.114 1.896.23 3.792.615 5.514 4.094-8.198 7.916-16.223 11.34-24.242-2.148-.113-2.812.683-3.113 1.812.305-1.17.98-2.068 3.187-2.219.422-1.785.371-3.158.32-4.53-3.06-.382-3.952-2.242-3.83-4.653-.12 2.403.784 4.215 3.924 4.2C526.33 286.473 520.461 277.897 513 270c.315 1.416.63 2.833 1.295 4.771 3.552 3.911 5.93 7.912 6.695 12.405-.763-4.466-3.135-8.387-6.654-12.041-.923-.808-1.718-1.634-2.566-2.42.734.673 1.476 1.335 2.216 1.898a193 193 0 0 0-1.047-4.86c-.34-.42-.62-.595-.9-.769-1.073.001-2.146.001-3.494.313.724.924 1.513 1.761 2.316 2.56-.886-.842-1.82-1.64-2.718-2.564-.368-.342-.608-.537-.852-.863.252.32.532.465 1.127.552 1.475.003 2.548.003 3.523-.312-1.709-1.774-3.32-3.233-4.945-4.291 0 1.469.013 2.536.133 3.822-2.17-2.05-4.168-3.962-6.313-5.691 2.145 1.73 4.145 3.64 6.207 5.472a62 62 0 0 0-.148-3.916c-2.345-2.505-4.582-4.297-6.818-6.09-.948-.485-1.895-.971-3.287-1.597-1.06.308-1.675.757-2.508 1.365a79 79 0 0 1 2.324-1.652c.26-.148.32-.507.125-.766-.195-.26-.664-.347-.664-.347-5.267-.093-11.915-4.292-13.037-8.604-.006-.303.018-.38.027-.398l.002-.002v-.002c-3.38-1.264-7.019-2.133-10.17-3.84 3.125 1.632 6.731 2.42 10.043 3.517-5.712-4.094-11.297-7.869-16.896-11.275q-.049-.13-.096-.262c-.338-.783-.621-.95-.904-1.119-1.437-.81-3.29-1.34-4.477-2.316 1.183.966 3.02 1.446 4.367 1.99-4.694-6.97-10.003-13.24-13.674-20.356-4.153-8.05-7.42-16.857-6.138-26.222 1.02-7.449 3.061-14.758 4.267-22.115-1.37.85-3.045 1.553-3.795 2.472.752-.928 2.44-1.68 3.873-2.793.49-.775.518-1.216.547-1.656-2.18-2.991-.265-4.546 2.508-6.305.457-.788.49-1.218.526-1.648.185-1.964-.187-4.267.751-5.807-.887 1.513-.437 3.788-.435 5.678 1.9-2.466 3.484-4.802 4.707-7.34-1.504-.03-2.551.216-3.273.654.746-.467 1.827-.738 3.392-.726.48.13.613-.115.613-.115.125-.442.248-.883.426-1.307-.11.39-.172.788-.183 1.152.436-.741.68-1.362.755-2.142a4 4 0 0 1 .35-.381c.993-.446 1.441-1.077 1.89-1.707-1.086-1.91-.759-3.036.17-3.885-.853.822-1.096 1.914.145 3.748 1.417-2.016 2.527-3.899 3.299-5.763q.139-.078.275-.159c.761-.377.93-.66 1.098-.943.421-.54.844-1.081 1.361-1.635a7.2 7.2 0 0 0-1.013 1.608c1.038-.937 1.778-1.85 2.22-2.75q.165-.138.342-.28c.759-.365.928-.647 1.098-.93.564-.699 1.126-1.397 1.777-2.105a17 17 0 0 0-1.467 2.014c1.337-1.27 2.406-2.462 3.153-3.656q.198-.173.41-.346c.789-.346.956-.63 1.123-.914.454-.649.907-1.297 1.678-1.977.257-.025.317-.016.33-.011l.002.001c.2-3.003-.26-6.546 5.125-5.566.44.125.578-.034.593-.055l.002-.002c-1.039-1.793-1.675-3.124-.414-4.005-1.237.872-.547 2.168.688 3.84 3.52-3.185 6.766-6.203 9.64-9.243-2.147 1.185-3.996 2.894-5.921 3.877 1.925-.984 3.771-2.693 5.912-3.883.293.013.356.026.369.032l.002.002h.002c3.237-8.57 10.06-13.069 18.605-16.034.312.013.38.03.395.037l.002.002h.002c-.107-1.904-.76-4.152.97-4.644-1.704.495-.986 2.736-.607 4.621 6.447-4.023 12.53-8.022 18.377-12.305-.83-.15-1.614-.211-2.365-.21a14.3 14.3 0 0 1 2.666.17c1.011-.046 1.484-.334 1.957-.622.701-1.162 1.168-2.82 2.056-3.592-.883.771-1.305 2.428-1.666 3.567 6.122-2.696 11.854-5.367 17.367-8.317-1.045-.104-2.014-.17-2.906-.06.914-.113 1.95-.054 3.237.025.986.183 1.424.122 1.86.06 6.472-4.86 13.845-5.21 22.153-4.032 1.738.195 2.794.126 3.85.056 1.1-1.056 2.235-2.716 3.33-3.658-1.06.951-2.102 2.636-2.92 3.75 4.495.025 8.58-.042 12.615-.469-.67-2.293-2.007-3.252-3.531-3.658 1.603.408 3.078 1.378 3.986 3.738 4.854.484 9.203.528 13.551.573 3.336-.694 6.678-1.426 9.97-1.159-3.226-.22-6.525.633-9.753 1.528 6.084 1.047 11.952 1.727 17.758 2.047-2.186-2.07-4.479-3.074-6.819-3.442 2.42.394 4.81 1.398 7.141 3.514.822.462 1.262.492 1.701.523 4.044-3.039 7.43-.282 11.15 1.162-3.717-1.44-7.083-4.157-10.955-.812a99 99 0 0 0 12.801 2.4c.01-.448.013-.628-.228-1.07 3.525-1.145 6.577-1.162 9.263.55-2.673-1.696-5.678-1.63-9.017-.288-.004.18-.009.36.191 1.156 3.508 1.343 6.874 1.868 10.1 2.852 3.32 1.011 6.503 2.471 9.736 3.359-.26-2.304-1.115-3.623-2.584-4.14 1.499.52 2.426 1.855 2.903 4.222.767.497 1.206.535 1.644.572.79-.29 1.72-.97 2.395-.941-.673-.025-1.59.689-2.254 1.277 7.385 4.082 14.637 7.813 21.87 11.58 11.538 6.009 23.028 12.113 34.608 18.04 7.45 3.812 15.057 7.316 22.537 11.07 7.2 3.613 14.3 7.426 21.496 11.048 6.743 3.395 13.554 6.655 20.338 9.579-.375-.776-.686-1.584-1.04-2.247.38.703.735 1.6 1.202 2.547 1.055.816 1.951.934 2.848 1.053 1.302.166 2.68.17 3.986.324-1.29-.12-2.64-.025-3.861.014 2.21 1.425 4.289 2.523 6.38 3.598 13.511 6.937 27.025 13.87 40.548 20.482.304-1.232.597-2.143.845-2.912-.248.77-.542 1.68-.527 2.996.748.443 1.186.481 1.625.518 2.78-2.154 3.475-.187 4.385 2.478 1.439.794 2.53 1.15 3.621 1.508 3.972 1 8.262 1.357 11.85 3.133-3.588-1.776-7.879-2.132-11.733-2.793 9.53 5.124 18.934 9.922 28.354 14.69 3.838 1.942 7.709 3.817 11.574 5.396.846-2.969-.553-3.922-2.254-4.526 1.719.607 3.182 1.576 2.574 4.61.748.448 1.184.488 1.621.527 2.764-2.159 3.498-.252 4.352 2.508 1.091.8 1.88 1.111 2.668 1.424 1.038.013 2.121-.112 3.16-.102-1.023.022-2.077.242-3.03.436 15.905 8.35 31.676 16.367 47.509 24.006-.472-1.17-.814-2.349-1.471-2.961.661.613 1.04 1.802 1.8 3.043.495.424.718.387.942.351l.256-2.672c-.075.783-.165 1.727.039 2.801.899.694 1.415 1.43 2.123 1.799 8.529 4.438 17.04 8.915 25.654 13.182 4.566 2.26 9.327 4.13 14.04 5.875.149-.37.427-.87.591-1.217-.19.468-.338.921-.459 1.488.68.697 1.268.819 1.854.941 2.268.124 4.853-.363 6.87.243-2.015-.602-4.586-.077-6.741.093a31 31 0 0 0 4.353 2.672c9.46 4.792 18.933 9.553 28.395 14.34q23.363 11.819 46.712 23.664c7.453 3.781 14.86 7.651 22.34 11.375 6.642 3.307 13.358 6.467 20.045 9.287l.137.278c.713.803 1.302.925 1.889 1.048 1.796.14 3.688-.007 5.4.381-1.71-.383-3.59-.197-5.271-.045a1090 1090 0 0 0 29.267 15.346c9.736 4.914 19.544 9.687 29.332 14.496 4.723 2.32 9.472 4.586 14.213 6.475l.174.289c.714.807 1.298.937 1.883 1.066.502-.256 1.092-.804 1.52-.808-.427.007-1.007.583-1.395 1.144 4.75 2.63 9.376 4.917 13.996 7.217 11.85 5.9 23.703 11.799 35.547 17.713 8.757 4.373 17.552 8.674 26.24 13.181 9.129 4.737 18.09 9.8 27.234 14.504 11.597 5.966 23.232 11.871 34.996 17.496 6.475 3.096 13.25 5.564 19.823 7.987-.344-.479-.636-.89-.944-1.194a2.3 2.3 0 0 0-.38-.308c.127.08.253.192.38.308.342.312.708.736 1.264 1.278.827.453 1.267.494 1.707.535 6.625.333 13.247.733 19.875.975-6.628-.242-13.25-.642-19.736-.62.663.737 1.156 1.395 1.715 1.455 4.068.441 8.146 1.003 12.228 1.069 7.152.115 14.676 1.272 21.371-.52 8.402-2.247 16.39-6.557 24.063-10.857 6.214-3.483 11.887-7.97 14.744-15.149 1.897-4.768 4.479-9.268 6.836-13.847 5.83-11.329 12.109-22.449 17.45-34.002 5.006-10.825 10.088-21.44 18.552-29.985-2.741.384-5.087 1.265-6.932 2.684 1.856-1.431 4.227-2.33 7.014-2.746.376.113.51-.025.525-.043v-.002c.352-2.683 1.895-4.312 3.742-5.646-1.815 1.317-3.284 2.905-3.459 5.474 1.457-1.005 2.549-1.998 3.819-2.644 6.359-3.237 12.765-6.382 18.949-9.827q.221-.028.443-.062c1.656.17 2.71.108 3.764.045 1.912-3.495 4.839-4.418 9.115-3.113 1.01.206 1.447.152 1.883.097 2.68-2.736 5.523-4.639 9.428-4.908-3.9.27-6.698 2.184-9.024 5.006 13.485-3.203 26.565-6.504 39.442-10.088-1.904-.24-3.664-.4-5.368-.246 1.708-.154 3.5.003 5.739.213 1.313.19 2.053.13 2.793.07 1.718-4 5.021-3.955 9.183-3.098 1.694.185 2.751.118 3.807.051 1.34-1.268 2.533-3.165 3.957-4.07-1.412.908-2.545 2.82-3.568 4.164 9.16-1.933 17.954-3.872 26.69-6.049 2.088-.52 3.98-1.832 5.735-3.06-.523-.29-.936-.51-1.295-.569.379.056.87.269 1.71.532 2.7-.061 4.757-.365 6.816-.67 1.035-2.625 2.736-3.469 4.783-3.635-1.953.152-3.569.99-4.389 3.619 3.466-1.002 6.538-1.986 9.358-3.254-1.713-.185-3.44-.483-4.961-.365 1.614-.13 3.444.16 5.332.334 1.363.192 2.102.132 2.842.072l-.965-4.092c3.593.245 7.074.482 11.144.977 1.331.188 2.074.119 2.815.049 2.088-1.52 4.008-3.705 6.234-4.678-2.221.974-4.1 3.169-5.851 4.766 2.641-.58 4.897-1.257 7.158-1.91 4.498-1.302 8.998-2.589 13.264-4.163-2.353.036-4.68.006-6.956.104 2.34-.104 4.784-.084 7.354-.135 1.689.185 2.744.12 3.8.057.812-1.972 2.062-2.951 3.682-3.295q.255-.055.524-.088c.084-.01.174-.012.26-.02-.087.007-.176.01-.26.02q-.268.032-.524.088c-1.527.34-2.696 1.343-3.302 3.383 2.8-.897 5.225-1.88 7.422-3.143-.968-.232-1.885-.367-2.73-.371.955-.015 1.999.104 3.144.34 2.02.171 3.4.094 4.779.017 2.32-4.517 6.007-5.1 10.392-4.468-4.282-.71-7.973-.115-10.011 4.562 4.473-1.199 8.564-2.493 12.379-4.082a35 35 0 0 0-1.733-.375c.688.116 1.344.18 2.063.342 1.043.199 1.478.137 1.914.074.67-3.943 3.57-4.314 6.347-4.713-2.758.402-5.58.794-5.955 4.801 3.936-.84 7.5-1.7 11.014-2.725a23.3 23.3 0 0 0 5.406-2.382c-2.218-.253-4.432-.74-6.396-.534 1.977-.21 4.254.271 6.79.49 1.676.156 2.733.075 3.788-.007.32-.204.64-.407 1.037-.578-.322.18-.577.414-.738.68.762-.183 1.24-.462 1.576-.954q.168-.038.353-.068c.91.138 1.346.079 1.782.021.878-2.23 2.328-2.99 4.072-3.203-1.648.212-3.008 1.002-3.684 3.291 3.142-.89 5.895-1.868 8.41-3.125-1.383-.081-2.79-.278-4.066-.222 1.379-.066 2.906.12 4.48.189 2.028.17 3.404.094 4.782.02 1.546-4.543 4.477-5.49 9.15-3.059.979.196 1.416.138 1.854.082 2.51-2.296 4.895-4.41 8.203-4.998-3.287.594-5.596 2.727-7.81 5.09 5.686-1.247 11.007-2.489 16.267-3.951 5.482-1.525 10.904-3.262 16.082-5.205l.42-.038c2.739-.1 4.799-.466 6.86-.834 2.097-4.214 5.499-5.305 11.206-3.138 1.653.189 2.71.117 3.768.045 1.492-2.592 7.322-4.871 11.473-5.227-4.145.357-9.93 2.646-11.067 5.31 16.15-3.04 31.895-5.073 47.621-.394-1.545-2.728-3.407-4.081-5.437-4.697 2.117.613 4.086 1.979 5.76 4.777.804.445 1.244.476 1.685.506 2.086-1.706 3.814-2.328 5.19-1.773-1.338-.475-3.024.23-5.026 2.113 2.717 1.124 5.27 1.909 7.828 2.299q-.31-1.267-.732-2.182.492 1.011.863 2.457c.714.796 1.301.922 1.889 1.049 1.197-.26 2.838-1.08 3.697-.912-.858-.164-2.484.694-3.568 1.246 4.951 3.198 9.821 5.988 14.58 8.955 2.842 1.772 5.51 3.821 8.261 5.38.044.101.097.19.14.292.69.797 1.267.945 1.845 1.094 2.126.514 4.494.759 6.14 1.94-1.621-1.103-3.988-1.259-6.097-1.583 2.688 2.79 5.334 5.223 7.992 7.248.186-1.652.026-2.894-.379-3.836.462 1.005.668 2.338.508 4.137 1.047 1.827 1.978 2.944 2.91 4.062 1.325 1.094 2.65 2.187 3.967 3.649-.006.3-.018.362-.022.375v.002l-.002.002c.522.547 1.039 1.173 1.559 1.742-.51-.514-1.02-.99-1.523-1.404 1.348 1.773 2.663 3.209 3.994 4.279q0 .003.004.006c-.018.368-.016.365-.016.365 2.37-.212 4.298.129 4.012 3.611a3 3 0 0 1-.026.395v.004c6.124.118 8.664 2.366 8.534 8.144-.128.44.042.584.064.6l.002.002c.809.596 1.62 1.19 2.402 1.883a17 17 0 0 0-2.246-1.614c1.264 1.302 2.373 2.337 3.664 3.034l.1.115c-.112.415.055.556.076.572l.002.002c1.931-.398 3.746-.029 5.33.908-1.554-.888-3.323-1.165-5.16-.64 6.612 6.976 13.054 13.683 19.71 20.068.54-1.672-.217-3.987-1.575-6.11 1.371 2.139 2.147 4.486 1.64 6.212-.14.396.03.538.051.554l.002.002c1.485-.393 3.143-1.089 4.144-.582-.97-.459-2.585.3-3.972.834 1.604 1.313 3.037 2.373 4.676 3.03.292-1.745.19-2.79-.166-3.372.385.601.511 1.674.236 3.48-.128.483.062.633.086.65l.002.001c3.572-1.34 5.186.783 6.709 2.899-1.512-2.098-3.096-4.16-6.551-2.616 1.242 1.685 2.204 3.204 3.428 4.47 10.307 10.657 20.586 21.343 31.037 31.859 4.838 4.867 10.037 9.375 15.264 13.675-.459-1.964-.693-4.005-1.606-5.367.914 1.363 1.155 3.413 1.672 5.451-.116.428.035.562.055.577l.002.001c1.991-.742 3.99-.352 5.636.915-1.616-1.185-3.566-1.501-5.478-.641 3.182 3.19 6.207 6.106 9.254 8.623a15 15 0 0 0-.076-.815q.08.563.12 1.155c.988 1.507 1.953 2.276 2.919 3.045 6.163.136 8.684 2.364 8.54 8.134-.118.441.051.582.073.598l.002.002c1.264.236 2.834.132 3.932.553-1.092-.412-2.633-.265-3.754-.287 3.367 3.486 6.202 7.193 9.82 9.824 7.256 5.275 14.941 9.962 22.465 14.572.249-.974.433-1.528.584-1.998a7.8 7.8 0 0 0-.264 2.084c.744.443 1.183.48 1.623.518 5.477-.199 10.956-.399 17.12-.328 1.74.19 2.794.113 3.849.035 1.041-1.067 1.983-2.776 3.105-3.328-1.117.553-2.017 2.27-2.738 3.416 7.794-2.725 14.774-6.208 19.266-12.815-2.3.935-4.884 1.563-6.934 2.524 2.05-.961 4.632-1.591 6.924-2.53.334.011.405.026.42.032l.002.002h.002c.297-2.668 1.82-4.998 4.23-6.633-2.335 1.625-3.773 3.949-3.877 6.601 4.127-3.011 7.9-5.992 11.268-8.994q-.998.062-1.934.229 1.044-.196 2.17-.272a4 4 0 0 0 1.098-.183l-.1-.518c.034.181.107.52.428.598 1.406-.874 2.504-1.824 3.434-2.996q.194-.079.396-.153c.945-.095 1.41-.398 1.875-.701.246-1.113.49-2.226.502-3.66-1.887.4-3.86.747-5.203 1.683 1.356-1.01 3.375-1.438 5.342-2.001.372.002.367-.01.373-.004.571-.53 1.25-1.058 1.843-1.588-.54.528-1.058 1.056-1.488 1.584h-.012c-.35-.002-.343.01-.482.328-.384 1.432-.63 2.545-.566 3.566a35 35 0 0 0 3.671-3.927l-.234-.243a46 46 0 0 1-1.76.217c.702-.085 1.255-.207 1.881-.504-.12.286.035.45.465.477a480 480 0 0 0 22.277-16.946c-1.748.51-3.418.828-4.828 1.436 1.41-.608 3.077-.926 4.823-1.437.395.022.402.03.402.03 3.412-2.682 6.824-5.365 10.615-8.029.38.02.385.03.385.03.538-1.18.897-2.507 1.586-3.565-.684 1.057-1.007 2.371-1.254 3.457 3.455-2.7 6.577-5.293 9.328-7.912-1.507-.194-2.64-.36-2.998-.412.358.053 1.492.219 3.234.363a4 4 0 0 0 1.063-.183q.128-1.957.258-3.912c-.086 1.304-.172 2.609.09 3.996 5.801-4.22 11.255-8.523 16.275-12.85-1.202.202-2.402.268-3.485.422 1.08-.155 2.278-.224 3.473-.43.37.014.429.034.438.04h.002c.479-1.023.757-2.29 1.33-3.198-.557.906-.772 2.171-.975 3.17 7.781-5.684 15.207-11.34 22.219-17.012-1.32-.078-2.443.02-3.455.301 1.062-.305 2.26-.427 3.697-.375.828-.338 1.002-.618 1.174-.898 2.427-2.008 4.853-4.016 7.637-6.018.29.005.355.022.369.027h.002v.002h.002c.261-3.249 1.438-5.825 3.601-7.718-2.088 1.862-3.186 4.413-3.275 7.607 4.106-3.71 7.885-7.31 11.275-10.926q-2.684.414-4.734 1.291 2.154-.942 5.015-1.412c.811-.691.95-1.279 1.09-1.867-.159-.726-.643-1.768-.588-2.287-.048.516.482 1.542.924 2.17 7.35-9.079 8.038-19.2 5.64-29.82-.25-1.112-1.287-2.046-2.224-2.86-.105 2.911.286 5.63.168 8.326.118-2.696-.273-5.414-.22-8.677-.171-1.641-.554-2.727-.936-3.813-2.485-.026-4.047-.889-3.264-4.207.128-.426-.054-.573-.078-.59l-.002-.002c-3.722.758-11.518-3.73-12.847-7.65-1.441-.51-2.5-.546-3.561-.582-3.828 1.795-7.226 1.529-10.371-2.5-1.503-.466-2.56-.503-3.62-.541-2.5 2.563-4.926.806-7.63.226 2.704.58 5.131 2.336 7.436-.576-7.542-1.656-14.886-2.972-22.233-4.27-9.54-1.684-19.085-3.351-28.535-4.685 1.775 1.248 3.417 2.69 5.158 3.547-1.762-.86-3.487-2.319-5.578-3.627-2.219-.466-3.926-.51-5.633-.557-4.203 2.308-7.651.671-11.379-2.498-2.2-.453-3.906-.492-5.613-.533-1.187.17-2.38.48-3.562.576 1.174-.109 2.337-.484 3.382-.923-5.813-1.59-11.446-2.833-17.273-3.723.427.77.863 1.641 1.353 2.334-.501-.706-.957-1.605-1.421-2.43.117-.42-.05-.556-.07-.572l-.003-.002c-3.11.656-6.305 1.816-8.666-.506 2.355 2.311 5.52 1.107 8.465.213-9.326-2.565-16.375-7.97-21.894-15.318-1.404-1.87-2.41-4.84-2.067-7.07 1.114-7.263 2.935-14.416 4.156-21.544-2.107 1.712-3.8 3.46-4.566 5.746.77-2.314 2.478-4.142 4.645-6.136.44-1.518.474-2.579.507-3.639-3.008-3.611-2.275-6.53 2.471-8.42.492-1.453.529-2.512.566-3.57-.669-1.639-.834-3.134-.363-4.502-.391 1.324-.144 2.778.694 4.334 1.106-2.717 1.884-5.267 2.296-7.78q.154-.1.317-.2c.792-1.439.904-2.651 1.015-3.864.734-4.01 1.38-8.038 2.243-12.02-.864 3.981-1.51 8.01-1.9 11.872 3.02-8.062 5.701-15.978 8.028-23.842-2.479 1.018-3.827 2.456-4.293 4.482.47-2.05 1.835-3.565 4.378-4.845.475-1.158.514-1.901.554-2.645-.996-3.165-.786-5.264.934-7.906-1.715 2.64-1.887 4.722-.596 7.754 3.11-8.394 5.883-16.634 8.656-24.875 2.245-6.67 4.489-13.343 6.387-19.969-2.011 3.457-4.12 6.786-5.764 10.256 1.648-3.486 3.774-6.876 5.848-10.574.469-.804.508-1.242.549-1.68-.338-3.008-.798-6.033 1.244-8.307-2.03 2.27-1.521 5.273-.916 8.168 3.144-5.845 5.356-11.97 8.945-17.14 3.561-5.131 6.564-11.947 14.492-11.764 6.042.14 12.137.48 18.084 1.475 5.48.916 10.795 2.823 16.141 3.949-1.048-2.83-2.799-4.077-4.94-4.522 2.177.448 4.02 1.712 5.329 4.602 1.49.47 2.548.512 3.607.556 3.603-2.031 6.409-.615 9.361 2.489 2.175.774 3.913 1.12 5.65 1.467.327-.246.72-.72 1.003-.815-.28.101-.653.622-.854 1.158 9.062 3.024 17.976 5.703 26.883 8.002-.298-2.618-1.38-3.854-3.215-4.24 1.854.388 3.009 1.64 3.604 4.322 1.456.502 2.518.542 3.578.582 3.168-2.133 5.296-.848 7.297 2.522.817.444 1.259.468 1.699.494 2.02.22 4.026.508 6.05.701-1.974-.14-3.953-.272-5.882-.36 9.735 3.03 19.303 5.719 28.816 8.038-1.153-1.028-2.22-1.977-3.361-2.692 1.16.719 2.296 1.683 3.725 2.772 1.158.492 1.9.535 2.642.578 1.68-.364 3.343-.67 4.907-.355-1.517-.232-3.139.157-4.731.691 3.06 1.107 5.941 1.876 8.783 2.273q.108.162.215.332c2.115.814 3.975.923 5.834 1.03 4.529.563 9.084.969 13.574 1.752-4.49-.783-9.045-1.189-13.42-1.41 9.066 3.015 17.978 5.69 26.838 8.005-.664-2.343-1.832-3.514-3.486-4.058 1.69.548 2.95 1.736 3.875 4.14 1.5.484 2.56.525 3.619.569 3.17-2.173 5.294-.864 7.303 2.5.814.453 1.253.486 1.691.52.34-.252.778-.757 1.043-.817-.262.066-.68.608-.861 1.152 6.475 2.106 12.765 3.896 19.066 5.639 4.592 1.27 9.2 2.48 13.723 3.379-2.087-2.005-4.253-3.544-6.71-4.24 2.492.7 4.739 2.26 7.032 4.318.841.447 1.282.479 1.723.51 1.6.167 3.196.368 4.799.52a80 80 0 0 0-4.655-.177 451 451 0 0 0 26.825 8.102c-1.556-1.432-2.954-2.991-4.52-4.062 1.582 1.075 3.044 2.649 4.842 4.14.823.432 1.265.461 1.705.49l2.309-2.646c1.545 1.579 3.092 3.159 5.001 5.158.804.453 1.243.485 1.682.518 4.394-2.568 6.77 1.462 10.293 3.443.837.446 1.28.477 1.72.51 2.49.203 5.324-.242 7.542.469-2.216-.707-5.037-.224-7.407-.133 7.323 3.876 14.622 7.207 21.67 11.004 10.902 5.872 21.632 12.062 32.635 17.746-.077-1.051-.172-2.343-.426-2.969l.002.002c.257.63.364 1.943.493 3.07-.125.444.051.584.074.6l.002.002c2.506-.612 4.36-.588 5.937.367-1.536-.88-3.34-.836-5.752-.096 3.535 2.495 6.885 4.718 10.246 6.565l.121.28c.694.803 1.279.953 1.862 1.103.873.545 1.753 1.201 2.627 1.765-.85-.51-1.702-1.02-2.528-1.437 2.362 1.79 4.624 3.252 6.868 4.365-.123-.094-.243-.164-.366-.256.124.093.246.153.37.248.017.277.01.336.007.348v.002c.82.477 1.643.988 2.471 1.549-.816-.536-1.614-.952-2.37-1.23 1.368 1.11 2.633 1.905 3.872 2.339-.13-.109-.258-.199-.387-.3.132.102.262.175.395.284.027.282.013.349.008.364v.002h-.002v.002c4.095.013 11.069 4.767 12.039 8.597-.01.311-.02.376-.024.389v.002h-.002v.002h5.026c0 1.237 0 2.27.064 3.9.258.896.532 1.067.885 1.108.656.45 1.313.9 2.004 1.666.028.256.017.316.012.33v.002l-.002.002c2.495-.237 4.587-.06 6.203 1.601-1.61-1.643-3.679-1.76-6.084-1.283 4.265 3.675 8.419 7.047 12.797 10.248q.205.284.398.58c.772 1.29 1.728 2.069 2.684 2.848a33 33 0 0 1 1.945 1.638c-.647-.572-1.287-1.013-1.91-1.293 1.013 1.122 1.993 1.899 2.959 2.329-.118-.132-.235-.242-.352-.364.121.124.24.216.362.348.019.269 0 .333-.006.348v.002h-.002v.001c.519.398 1.04.796 1.568 1.284a7.2 7.2 0 0 0-1.531-.94c.923 1.006 1.814 1.73 2.695 2.17q.17.205.34.43c.378 1.103.688 1.562.996 2.02 2.021.682 3.893 1.39 5.416 2.615-1.51-1.178-3.365-1.786-5.33-2.286 1.035 1.433 2.016 2.509 2.928 3.64 4.302 5.335 8.586 10.684 12.896 15.663l.096.295c.026.605.188 1.053.188 1.053l2.82-.184c-.842.055-1.83.12-2.824.535 2 3.652 4.311 6.807 5.953 10.28 5.393 11.408 10.544 22.931 16.101 34.363a55 55 0 0 0-.341-4.207 65 65 0 0 1 .378 4.537c-.222.812-.168 1.246-.113 1.682 1.827.348 3.07 1.044 3.518 2.297-.436-1.172-1.708-1.792-3.606-1.938.89 2.133 1.869 3.907 3.123 5.451.576-1.282.755-2.319.59-3.133.192.897.031 2.044-.545 3.502-.16 1.338-.09 2.075-.017 2.813 2.624 1.097 4.295 2.653 4.771 5.107-.481-2.433-2.172-3.916-4.863-4.728 1.91 7.299 3.778 14.262 5.957 21.127 1.763 5.557 3.901 10.995 6.154 16.265.014.132.04.234.053.368-.18.987-.116 1.423-.05 1.859.205.322.41.643.585 1.045a2 2 0 0 0-.684-.746c.187.767.467 1.249.961 1.584q.04.165.07.347c-.127.91-.068 1.344-.007 1.778 4.8.866 4.017 4.224 3.11 8.107-.19 1.017-.13 1.454-.067 1.889 2.136 1.242 3.504 2.798 4.267 4.69-.776-1.837-2.18-3.278-4.355-4.303 1.874 6.477 3.836 12.568 6.072 18.433q-.02-.33-.055-.658.058.506.094 1.027c-.17 1.335-.105 2.074-.04 2.813.614 1.402 1.227 2.804 1.8 4.312a37 37 0 0 0-1.893-3.931c.855 2.686 1.793 5.023 2.98 7.15q.1.335.194.68c.058 2.358.357 4.095.657 5.832 2.61-.321 3.606.595 4.01 2.863-.404-2.263-1.4-3.135-3.995-2.469 2.35 8.868 4.686 17.365 7.338 25.782q-.032.508-.07 1.021c-11.646 3.358-22.612 6.44-33.907 9.615l9.376 33.674 104.956-29.262c-3.22-11.51-6.281-22.438-9.425-33.673-10.959 3.023-21.368 5.803-31.713 8.81-2.762.803-4 .824-4.826-2.557-1.449-5.922-4.026-11.564-5.588-17.466-3.3-12.472-6.056-25.09-9.405-37.547-2.88-10.714-6.237-21.302-9.453-31.924-3.073-10.153-5.968-20.371-9.43-30.393-4.23-12.247-8.045-24.773-13.74-36.341-6.034-12.26-13.823-23.696-21.316-35.184-4.26-6.53-8.726-13.24-14.383-18.482-14.254-13.212-29.002-25.92-44.01-38.274-9.375-7.718-19.28-14.89-29.494-21.46-10.424-6.707-21.436-12.527-32.345-18.446-7.322-3.973-14.657-8.153-22.444-10.984-13.735-4.995-27.823-9.011-41.754-13.471-7.947-2.545-15.807-5.382-23.824-7.678-9.301-2.664-18.785-4.693-28.094-7.332-13.917-3.946-27.767-8.132-41.615-12.316-9.688-2.928-19.32-6.044-28.99-9.032-3.845-1.188-7.705-2.34-11.596-3.365-9.19-2.42-18.446-4.596-27.594-7.166-8.645-2.429-17.147-5.366-25.783-7.83-6.349-1.811-12.78-3.37-19.232-4.773-10.124-2.202-20.223-5.02-30.479-5.92a16 16 0 0 0-2.197-.04m358.055 165.62c-1.845 0-3.435 0-4.924.32 1.7 1.45 3.298 2.579 4.91 3.346.014-1.396.014-2.43.014-3.666m-113.7-64.674c-.77.882-1.539 1.765-2.164 2.984 2.393 1.037 4.64 1.735 6.844 2.094-1.589-1.92-3.134-3.499-4.68-5.078m-754.306 152.36c.4 1.692.683 2.891 1.353 4.175 3.47-.908 6.552-1.899 9.418-3.174-3.697-.52-7.178-.757-10.771-1.002M503.979 333.964l.017.03.002.001v.002h.006v-.002zM291.043 983.86c3.486 1.197 7.302 1.436 10.797 1.774-1.386-.744-2.596-1.174-3.817-1.569-8.022-2.596-16.047-5.185-23.998-7.445 5.71 2.667 11.258 5.263 17.018 7.24m981.906 329.735c.352-.204.704-.408 1.014-.856-.431-.542-.82-.839-1.387-.869.006.753.19 1.239.373 1.725m657.307 3.832c.003-1.287.007-2.572-.268-3.705-.851.853-1.424 1.552-1.85 2.568.805.59 1.461.863 2.118 1.137M164.719 771.094c.713-.558.155-1.682-1.053-3.018-.892 1.107-1.492 2.122-1.74 3.334 1.48.15 2.365.019 2.793-.316M1440.63 296.01c1.882-.287 2.678-1.473 2.054-3.903-1.78 1.357-3.24 2.62-4.287 3.9.857.093 1.605.098 2.233.003M569.898 67.148c-5.694-.18-10.972.95-15.494 4.67 7.495-1.2 14.547-2.502 21.315-4.101-1.978-.303-3.922-.509-5.82-.569m1587.885.028c-1.131-.062-2.33.295-3.615 1.183 3.07 1.034 5.968 1.731 8.809 2.075-1.608-1.893-3.308-3.156-5.194-3.258m45.41 12.86c-.906-.04-1.913.358-3.049 1.282 2.39 1.043 4.64 1.754 6.835 2.118-1.049-2.061-2.275-3.337-3.786-3.4m-1674.869.5c-.088.008-.179.01-.265.02.086-.01.178-.011.265-.02M512.63 92.991c-8.557 2.957-15.38 7.456-18.266 16 6.455-5.343 12.558-10.66 18.266-16m1777.332 12.041c-.846.034-1.779.444-2.818 1.305 2.393 1.034 4.64 1.74 6.836 2.098-1.107-2.16-2.403-3.468-4.018-3.403M481.32 118.334c-3.456.017-3.09 3.047-2.995 5.584 1.907-1.802 3.501-3.499 4.72-5.397a9 9 0 0 0-1.726-.187m-3.628 5.703c-.782.673-1.235 1.321-1.35 1.938.787-.676 1.232-1.318 1.35-1.938m1894.334 6.29c-.867 0-1.81.294-2.867 1.019 3.403 1.343 6.641 2.35 9.807 3.027-2.402-1.426-4.337-4.048-6.94-4.047M790.592 144.4c.63.108 1.24.254 1.797.516-.56-.263-1.168-.417-1.797-.516m-338.178 11.608c-2.692 1.445-4.609 2.998-2.101 5.853 1.03-2.056 1.737-3.977 2.101-5.853m384.674 12.187c-.503.02-1.142.357-1.973 1.125 1.387 1.017 2.655 1.729 3.918 2.088-.388-1.774-.838-3.257-1.945-3.213m1225.295 12.774c-4.669 1.5-5.404 4.418-2.055 7.879 1.037-2.729 1.735-5.306 2.055-7.88m396.705.37c4.045 3.106 7.974 5.89 11.92 8.284-.965-3.837-7.94-8.59-11.92-8.283M887.08 193.202c-.505.027-1.143.37-1.967 1.139 1.392 1.01 2.658 1.717 3.922 2.072-.38-1.805-.845-3.27-1.955-3.21m1589.91 2.162c.684.785 1.34 1.223 1.967 1.332-.684-.779-1.34-1.228-1.967-1.332m-1581.625 2.508a7 7 0 0 1 1.047.09 6 6 0 0 0-1.047-.09m1591.76 3.848c.072.116.154.229.23.344-.076-.115-.158-.227-.23-.344m.611.896c.072.097.16.19.235.285-.076-.096-.162-.187-.235-.285m-654.697 1.998c2.953 2.71 5.653 5.694 9.8 3-3.406-1.333-6.636-2.33-9.8-3m-73.396 3.54c-3.137.886-5.894 1.857-8.38 3.126 3.352-.178 8.177 3.776 8.38-3.127m86.335.452c.3 4.515 2.517 3.814 4.899 2.057-1.719-1.027-3.309-1.733-4.899-2.057m-109.583 7.512q.488.005.966.076a8 8 0 0 0-.966-.076m125.64 1.213c.747 4.488 3.036 4.437 5.856 2.277-2.037-1.11-3.946-1.888-5.856-2.277m645.824 4.611a8.3 8.3 0 0 1 1.916 2.545 8.1 8.1 0 0 0-1.916-2.545m-621.81 11.377c1.674 1.462 3.323 2.564 4.863 3.35-1.702-1.448-3.294-2.578-4.863-3.35m4.951 4.075c-.547 6.095 4.063 4.722 6.94 5.253-2.386-2.1-4.656-3.885-6.94-5.253m-119.625 2.214c-2.844-.102-4.818 1.336-5.984 4.291 3.803-.912 7.206-1.91 10.41-3.195q-2.488-1.027-4.426-1.096m310.236 1.457q.065.055.131.104-.067-.048-.13-.104m21.424 1.535c3.307 3.095 6.757 4.733 10.8 2.073-3.73-1.038-7.302-1.725-10.8-2.072m-1620.014 3.755c1.11 4.332 7.758 8.532 12.897 8.304-4.383-3.113-8.637-5.905-12.897-8.304m1235.493 6.027c-2.021.084-3.44 1.54-4.17 4.435 3.135-.887 5.892-1.864 8.44-3.12-1.629-.923-3.058-1.366-4.27-1.315m-1221.578 3.025c-.03.18-.09.538.093.826 1.132.774 2.08 1.259 2.979 1.397-1.047-1.032-2.045-1.717-3.072-2.223m1678.084.174c2.754 3.954 6.152 4.223 9.816 2.08-3.4-1.041-6.635-1.738-9.816-2.08m-625.37 2.6c-4.138 1.201-7.9 2.491-11.386 4.082 4.664.362 10.085 3.195 11.386-4.082m639.297.498c.942 3.83 8.739 8.319 12.297 7.285-4.205-2.74-8.248-5.204-12.297-7.285m12.606 8.263c-.849 3.208.714 4.07 3.224 3.776-.99-1.586-2.006-2.853-3.224-3.776m-325.422 6.352c1.346 1.447 2.604 2.584 3.873 3.346-1.312-1.47-2.638-2.562-3.873-3.346m9.58 8.828c-.496-.01-1.043.067-1.611.201 1.362 1.446 2.627 2.569 3.91 3.293.217-2.616-.812-3.461-2.3-3.494m2.31 4.24c2.766 2.922 5.497 5.491 8.432 7.692.197-5.678-2.341-7.927-8.431-7.692m-340.224 7.887c-2.005.13-3.608 1.07-4.444 3.625 3.138-.9 5.891-1.885 8.405-3.154-1.412-.333-2.758-.549-3.961-.471m358.32 5.527a9.3 9.3 0 0 1 2.26 2.008 9 9 0 0 0-2.26-2.008m-411.758 7.317c-2.25.08-3.961 1.287-5.011 3.754 3.137-.903 5.89-1.898 8.4-3.18-1.233-.416-2.366-.611-3.389-.574m466.63 2.224c-1.531 5.303 1.072 5.072 4.261 3.641-1.51-1.509-2.863-2.759-4.262-3.64m-476.706 1.48c-1.428.172-2.887.187-4.33.24 1.42-.061 2.852-.097 4.33-.24m-6.062.333-.155.023zm-.758.125-.121.027zm-1.46.43q-.095.04-.19.086c.063-.028.126-.06.19-.086m-.702.33c-.076.041-.148.094-.223.138.075-.044.147-.097.223-.138m-.653.408c-.11.079-.216.172-.324.26.108-.088.214-.182.324-.26m-.648.525c-.114.106-.223.23-.334.348.111-.118.22-.242.334-.348m-53.346 4.133c-1.118 1.712-1.91 3.302-2.322 4.902 5.543.322 1.96-3.314 2.322-4.902m768 3.922c-2.065 1.995-4.499 3.977-7.29 5.984 2.068-1.982 4.495-3.99 7.29-5.984m367.477 19.342c.899 2.802 1.883 5.23 3.156 7.404.945-3.554 1.73-6.913-3.156-7.404M491.986 346.79l-.037.047zm2071.729 8.36c.336.999.53 2.08.558 3.27q-.043-1.792-.558-3.27m-435.09 10.831c-3.046 2.676-6.477 5.329-10.264 8.004a124 124 0 0 1 10.264-8.004m-17.16 10.157c-4.926 3.468-9.634 7.249-14.426 10.908-.683 1.038-1.366 2.075-2.17 3.398.804-1.323 1.487-2.36 1.8-3.412 5.162-3.646 9.87-7.426 14.796-10.894m-123.453 11.226c2.771 2.922 5.506 5.488 8.435 7.684.211-5.672-2.308-7.9-8.435-7.684m98.87 9.387c-.695.438-1.36.937-2.017 1.484l-.033-.177c.661-.445 1.322-.891 2.05-1.307M434.427 416.293c-3.11-.165-2.17 2.707-2.067 4.705 1.575-1.436 2.812-2.835 3.662-4.435a8.3 8.3 0 0 0-1.595-.27m1613.29 4.424c-5.235.549-10.759.795-16.501.668 5.26-.573 10.736-.772 16.502-.668m-1616.034.336c-.795 1.003-1.238 1.977-1.366 2.863.783-1.022 1.25-1.958 1.366-2.863m-59.584 22.88c-.114.108-.223.219-.342.323.119-.104.228-.214.342-.322m-6.159 3.837c-1.172 1.51-2.085 2.852-2.576 4.2 3.994.075 4.1-1.77 2.576-4.2m31.252 14.591c-3.5.143-1.601 3.66-1.865 5.563 1.584-1.806 2.852-3.511 3.719-5.403-.743-.131-1.353-.18-1.854-.16m-7.318 9.668c-.053.037-.105.084-.158.12.053-.036.105-.083.158-.12M336.6 488.016c-1.443 1.678-2.53 3.326-3.245 4.982 5.422-1.515 6.076-2.531 3.245-4.982m2270.109 24.066c-.447.616-.584 1.269-.473 1.78.427-.677.605-1.21.473-1.78m-2248.045 4.943c-1.765 3.244-3.881 6.505-6.32 9.885a93 93 0 0 1 6.32-9.885M238.438 707.016c-2.115 1.226-4.526 2.136-2.131 4.867 1.043-1.712 1.753-3.314 2.13-4.867m-65.774 46.091c-1.113 1.702-1.899 3.29-2.289 4.887 4.585-.132 4.24-2.282 2.29-4.887m2504.625 8.05c.205 1.98.095 4.065.174 6.134-.085-2.043.03-4.131-.174-6.135m-2471.174.697c-1.968 2.434-3.844 4.901-5.482 7.515 1.633-2.606 3.49-5.074 5.482-7.515m2471.448 7.029q.011.108.025.217l-.026-.217m12.831 38.03c.224 2.157.11 4.43.206 6.692-.104-2.232.018-4.51-.206-6.693m.282 8.044.04.375q-.021-.187-.04-.375m-2519.053 5.064c-3.933-.056-4.051 1.823-2.65 4.225 1.207-1.527 2.138-2.874 2.65-4.225m2519.531 1.319c.896 2.8 1.882 5.228 3.15 7.422 1.06-3.59.704-6.447-3.15-7.422m-2558.147 36.16c-4.903.108-6.004 4.287-7.645 7.479 3.258-2.436 6.157-4.842 8.676-7.444a10 10 0 0 0-1.031-.035m2583.172 57.863c.882 3.811 1.86 7.222 3.135 10.38 1.11-4.373.946-8.18-3.135-10.38m-2532.17 33.213c1.448 2.701 2.98 4.689 5.861 2.084-2.058-1.027-3.982-1.727-5.861-2.084M92.94 950.06c-.764.007-1.685.387-2.834 1.295 2.37 1.445 4.623 2.56 6.852 3.312-1.127-2.22-2.064-4.627-4.018-4.607m38.76 16.445c-1.807.036-3.786.658-5.564.867 3.728 1.69 7.31 3.038 10.892 4.02-.964-4.012-3.004-4.933-5.328-4.887m133.319 7.098c2.117 1.851 3.718 4.877 6.84 2.084-2.392-1.03-4.648-1.723-6.84-2.084m-109.41 1.488q-1.058.02-2.495 1.25c1.72 1.007 3.319 1.697 4.914 2.025-.434-2.202-1.247-3.298-2.42-3.275m29.788 8.271c-.91-.022-1.971.56-3.252 1.98 2.391 1.035 4.634 1.733 6.833 2.093-.97-2.318-2.063-4.035-3.58-4.073m118.577 3.233c.631 5.193 3.377 3.657 5.888 2.076-2.06-1.04-3.98-1.751-5.888-2.076m-110.844 1.783c2.063 1.023 3.977 1.728 5.842 2.092-2.03-1.03-4.01-1.721-5.842-2.092m43.533 11.758c-.723-.027-1.551.327-2.533 1.209 2.058 1.022 3.977 1.719 5.851 2.074-.943-1.794-1.937-3.232-3.318-3.283m28.908 8.642c-1.035.038-2.26.79-3.443 1.584 2.06 1.02 3.98 1.713 5.898 2.018-.35-2.77-1.281-3.645-2.455-3.602m110.44 2.809c1.698 3.28 3.834 4.56 6.851 2.076-2.395-1.03-4.648-1.726-6.851-2.076m-63.338 13.545c-.723-.028-1.553.329-2.54 1.215 2.06 1.03 3.975 1.736 5.843 2.101-.933-1.816-1.923-3.264-3.303-3.316m7.699 2.567-.072.007zm172.648 21.859c1.687 3.29 3.818 4.577 6.838 2.105-2.394-1.037-4.645-1.744-6.838-2.105m77.985 25.035c1.465 2.65 3.002 4.62 5.861 2.086-2.058-1.027-3.983-1.727-5.861-2.086m12.64 7.197c.685.15 1.435.218 2.229.262-.791-.044-1.54-.112-2.229-.262m64.379 17.814c2.804 3.22 6.038 4.461 9.82 3.024-3.407-1.339-6.649-2.349-9.82-3.024m11.99 3.956c1.832 4.294 4.37 5.394 7.829 2.115-2.73-1.046-5.305-1.753-7.828-2.115m28 9.004c1.849 2.743 3.813 4.586 6.844 2.109-2.392-1.039-4.646-1.745-6.843-2.11M738 1128.586c1.277 3.19 2.513 6.038 5.87 2.082-2.06-1.025-3.985-1.721-5.87-2.082m8.021 2.99c4.518 5.964 10.935 5.076 16.823 5.078-5.735-2.023-11.31-3.713-16.823-5.078m19.006 6.002c2.118 1.85 3.696 4.92 6.836 2.098-2.39-1.034-4.645-1.73-6.836-2.098m1692.96 5.115c.092.337.179.493.265.604q-.115-.126-.225-.254.013.025.034.076c-3.07.382-6.14.865-9.678 1.147 3.375-.24 6.504-.756 9.625-1.278-.001 0-.01-.015-.022-.295m.04.35-.021-.037-.002-.002h-.002v-.002h-.006l-.002.002zm-1671.021 1.563c3.882 6.765 10.447 4.448 15.836 5.015-5.409-2.012-10.646-3.69-15.836-5.016M815 1153.59c1.561 2.363 2.449 6.202 5.87 2.08-2.059-1.023-3.985-1.716-5.87-2.08m32.97 12.742c.507.13 1.042.145 1.585.098-.546.034-1.08.032-1.584-.098m7.046.248c1.432 4.17 3.914 4.288 6.838 2.09-2.395-1.04-4.644-1.745-6.838-2.09m8.986 3.008c3.777 7.042 10.378 4.677 15.844 5.045-5.406-2.014-10.648-3.697-15.844-5.045m18.012 5.982c1.852 2.749 3.826 4.575 6.847 2.086-2.395-1.03-4.647-1.728-6.847-2.086m38.006 12.055c2.952 2.719 5.469 6.324 9.82 3.016-3.408-1.335-6.647-2.34-9.82-3.016m39.988 12.969c1.862 2.691 3.821 4.558 6.847 2.1-2.39-1.038-4.644-1.74-6.847-2.1m9.021 3.035c3.452 2.27 6.176 6.545 10.81 3.023-3.737-1.35-7.312-2.354-10.81-3.023m12.965 3.97c3.79 7.009 10.367 4.719 15.85 5.038-5.407-2.014-10.648-3.692-15.85-5.037m1222.649 5.53c-3.142.894-5.893 1.878-8.391 3.148 3.775.9 7.374 1.716 8.39-3.148m-1204.627.43c1.843 2.767 3.825 4.562 6.832 2.101-2.399-1.035-4.643-1.74-6.832-2.101m1151.625 11.617c-5.15 1.197-9.9 2.493-14.393 4.072 5.584.507 10.813.404 14.393-4.072m-1113.621.445c2.581 2.702 5.218 4.717 8.83 2.998-3.076-1.327-5.986-2.329-8.83-2.998m1096.613 3.508c-3.808.904-7.218 1.895-10.402 3.17 4.355 1.061 8.95 3.303 10.402-3.17m-1056.621 9.441c1.448 2.696 2.998 4.619 5.855 2.092-2.058-1.03-3.982-1.732-5.855-2.092m76.95 25.067c1.114 5.375 4.232 3.328 6.895 2.062-2.39-1.042-4.645-1.747-6.894-2.062m51.446 19.63q.088.075.178.145c-.06-.048-.12-.093-.178-.144m719.274 33.848c-4.916 4.108-9.502 8.125-13.735 12.346 6.706-.55 13.366-6.688 13.735-12.346M1297 1330.367c-.294 4.132 2.688 3.991 4.99 4.272-1.682-1.784-3.33-3.221-4.99-4.272m5.004 4.994c.161 3.816 2.624 3.671 4.99 3.264-1.685-1.453-3.33-2.552-4.99-3.264m330.693 3.801c-2.16.66-3.983 1.41-5.69 2.525 3.522 2.457 5 .484 5.69-2.525m99.334.457c3.59 3.83 7.595 4.209 11.787 2.031-4.08-1.045-7.98-1.738-11.787-2.03m-12.615 1.653c.272.08.542.17.813.257a3 3 0 0 1-.25.055 1.5 1.5 0 0 0-.563-.312m-.65.19c.116.039.24.07.361.102a4 4 0 0 1-.361-.101m-400.739 11.112c.316.284.683.516 1.073.723-.388-.213-.758-.44-1.073-.723m4.975 2.766c2.607 2.42 5.198 5.207 7.904 8.32a108 108 0 0 1-7.904-8.32m8 8.99c.335 1.443.683 2.535 1.402 3.639 1.12.015 1.867.02 2.518-.285-1.367-1.441-2.638-2.572-3.92-3.354m21.998 25.027c1.324 1.467 2.663 2.555 3.916 3.33-1.357-1.444-2.63-2.576-3.916-3.33m25.545 28.604c-1.31 4.65 1.803 3.93 4.209 3.764-1.317-1.593-2.665-2.868-4.21-3.764m7.764 8.342q-.122 0-.243.02c.803.545 1.563.733 2.166.677-.735-.444-1.352-.703-1.923-.697m133.414.933c-1.459 1.234-2.597 2.495-3.368 3.778 1.474-1.236 2.582-2.493 3.368-3.778m-19.391 16.512c-1.28.973-2.648 1.9-3.967 2.594a27.4 27.4 0 0 0 3.967-2.594" style="fill:#fff;fill-opacity:1"/></svg>