<svg xmlns="http://www.w3.org/2000/svg" viewBox="0 0 2431 1500" xml:space="preserve"><path fill="#fff" d="M1038.599 1123.28c13.388 5.587 26.48 10.837 39.441 16.389 8.776 3.758 17.637 7.46 25.963 12.082 6.939 3.852 13.444 8.65 19.617 13.674 7.479 6.086 14.364 12.897 21.583 19.309 10.678 9.484 16.584 22.326 24.058 34.055 9.2 14.44 18.208 29.003 27.327 43.495 7.79 12.38 15.491 24.818 23.467 37.077 9.253 14.225 18.803 28.256 28.15 42.42 11.572 17.533 22.89 35.237 34.685 52.618 4.65 6.851 10.284 13.036 15.482 19.514 5.203 6.483 10.194 13.157 15.713 19.36 3.75 4.216 7.79 8.506 12.52 11.443 7.86 4.882 16.149 9.247 24.676 12.833 10.735 4.515 21.548 6.567 33.474 2.017 6.988-2.666 14.405-4.276 20.775-8.436 6.331-4.135 12.798-8.156 18.656-12.904 14.765-11.969 25.814-27.403 38.037-41.743 6.228-7.308 12.879-14.254 19.246-21.446 9.58-10.82 18.996-21.787 28.635-32.554 9.999-11.168 20.18-22.172 30.282-33.249 7.177-7.87 14.4-15.697 21.517-23.62 10.994-12.237 21.826-24.622 32.896-36.79 9.419-10.351 19.162-20.408 28.604-30.74 7.904-8.649 15.245-17.838 23.453-26.18 8.208-8.34 16.925-16.235 25.891-23.763 10.096-8.476 20.555-16.545 31.168-24.369 7.246-5.342 14.91-10.148 22.597-14.851 8.742-5.349 17.549-10.644 26.653-15.328 5.488-2.823 11.574-4.501 17.433-6.575 4.078-1.443 8.169-2.917 12.356-3.97 11.068-2.786 22.207-5.284 33.287-8.02 10.44-2.578 20.794-5.51 31.268-7.93 13.817-3.192 27.71-6.055 41.58-9.023 8.04-1.72 16.136-3.202 24.132-5.106 5.762-1.372 11.35-3.466 17.107-4.866 6.4-1.557 12.925-2.6 19.358-4.033 10.208-2.27 20.428-4.506 30.563-7.072 13.376-3.386 26.696-6.996 39.998-10.662a1548 1548 0 0 0 32.398-9.337c6.919-2.07 13.76-4.4 20.623-6.657 7.306-2.402 14.579-4.905 21.896-7.272 9.908-3.207 19.83-6.371 29.772-9.468 7.31-2.277 14.75-4.172 21.975-6.683 8.004-2.781 15.844-6.037 23.733-9.145 15.921-6.272 31.908-12.392 47.702-18.972 6.623-2.758 12.77-6.64 19.233-9.81 12.383-6.072 24.91-11.854 37.236-18.039 8.756-4.393 17.42-9.006 25.87-13.956 12.084-7.08 23.992-14.466 35.865-21.897 8.848-5.539 18.076-10.68 26.103-17.256 6.882-5.638 13.035-12.556 18.082-19.89 2.899-4.214 3.661-10.322 4.134-15.687.87-9.875 1.396-19.855.976-29.745-.378-8.903-2.982-17.726-3.198-26.618-.227-9.33-4.256-17.565-5.779-26.474-.858-5.023-3.125-9.789-4.489-14.744-2.553-9.28-4.73-18.664-7.407-27.906-2.22-7.667-5.015-15.166-7.394-22.79-1.341-4.297-2.31-8.708-3.525-13.045-2.546-9.094-5.254-18.143-7.692-27.265-2.905-10.867-5.493-21.819-8.428-32.677-1.38-5.107-3.41-10.035-4.865-15.125-2.464-8.62-4.659-17.316-7.056-25.955-1.16-4.18-2.651-8.269-3.77-12.458-2.483-9.293-4.669-18.667-7.273-27.924-2.206-7.841-5.013-15.514-7.221-23.355-2.44-8.659-4.423-17.446-6.747-26.138-2.07-7.737-4.408-15.402-6.49-23.135-2.252-8.359-4.241-16.79-6.55-25.132-1.138-4.11-2.74-8.09-4.275-12.542l30.39-7.27c1.985 6.465 3.986 12.573 5.728 18.754 2.28 8.084 4.271 16.25 6.544 24.337 2.41 8.57 5.1 17.06 7.49 25.634 2.215 7.949 4.114 15.986 6.301 23.943 2.355 8.569 4.902 17.085 7.332 25.633 4.602 16.188 9.15 32.392 13.777 48.573 4.487 15.69 9.05 31.36 13.57 47.04 2.959 10.264 6.06 20.49 8.803 30.812 2.954 11.113 5.353 22.375 8.386 33.465 3.022 11.053 6.707 21.925 9.782 32.965 4.172 14.983 8.764 29.902 11.866 45.116 4.658 22.845 4.55 46.222 2.766 69.26-1.045 13.507-6.602 26.425-15.83 37.456-10.672 12.755-23.949 21.903-37.785 30.582-11.414 7.16-22.512 14.831-34.03 21.816-8.591 5.21-17.518 9.905-26.491 14.442-18.962 9.587-37.86 19.336-57.145 28.235-17.002 7.845-34.446 14.742-51.788 21.832a909 909 0 0 1-33.893 13.053c-8.96 3.252-18.095 6.018-27.157 8.989a32717 32717 0 0 1-30.42 9.952c-12.287 4.014-24.577 8.017-36.862 12.036-8.877 2.904-17.683 6.047-26.638 8.685-11.174 3.293-22.429 6.337-33.723 9.196-13.82 3.499-27.677 6.882-41.597 9.96-10.628 2.351-21.424 3.936-32.06 6.254-11.219 2.444-22.301 5.506-33.504 8.027-18.21 4.098-36.501 7.836-54.696 12-10.091 2.31-20.075 5.104-30.073 7.806-13.09 3.537-26.822 5.695-39.045 11.187-15.53 6.978-30.236 16.074-44.528 25.431-12.805 8.383-24.985 17.866-36.658 27.785-9.67 8.218-18.347 17.638-27.19 26.79-7.398 7.654-14.431 15.662-21.57 23.564-8.515 9.424-16.944 18.925-25.46 28.347-7.25 8.022-14.607 15.945-21.851 23.971-14.812 16.411-29.529 32.909-44.383 49.282-11.61 12.798-23.473 25.369-35.028 38.216-8.847 9.837-17.393 19.945-26.066 29.938-4.344 5.007-8.648 10.049-13.014 15.036-5.101 5.826-9.983 11.876-15.444 17.345-7.29 7.3-14.982 14.206-22.617 21.152-9.35 8.508-20.483 14.272-31.917 19.218-7.07 3.06-14.783 4.665-22.25 6.769-16.287 4.588-31.596.28-46.623-5.55-16.477-6.392-32.063-14.913-44.278-27.577-19.014-19.712-36.014-41.126-49.92-65-10.05-17.25-21.833-33.49-32.821-50.196-13.657-20.763-27.515-41.397-40.86-62.359-9.844-15.462-18.556-31.655-28.617-46.966-7.416-11.285-13.618-23.516-24.228-32.589-18.866-16.132-38.768-30.283-62.813-37.885-8.262-2.612-16.005-6.82-24.14-9.892-6.933-2.617-14.084-4.66-21.145-6.935-6.302-2.03-12.635-3.963-18.915-6.059-9.65-3.22-19.246-6.605-28.903-9.807-11.352-3.764-22.734-7.438-34.121-11.095-14.777-4.745-29.57-9.44-44.359-14.146-18.296-5.822-36.619-11.56-54.885-17.473-13.066-4.229-26.044-8.725-39.085-13.03-17.472-5.766-34.97-11.459-52.453-17.191-7.823-2.565-15.61-5.25-23.468-7.703-12.633-3.944-25.349-7.625-37.96-11.635-13.243-4.21-26.376-8.766-39.61-13.006-12.758-4.088-25.61-7.88-38.372-11.961-9.383-3-18.658-6.339-28.031-9.37-8.145-2.635-16.378-4.995-24.539-7.58-6.448-2.043-12.843-4.254-19.268-6.372-10.739-3.54-21.485-7.055-32.222-10.6-7.06-2.33-14.082-4.778-21.168-7.021-9.698-3.07-19.467-5.917-29.157-9.009-6.775-2.16-13.446-4.643-20.205-6.855-10.44-3.418-20.926-6.7-31.376-10.09a11687 11687 0 0 1-37.783-12.343 6312 6312 0 0 1-29.06-9.593c-9.955-3.319-19.961-6.502-29.823-10.081-16.363-5.938-32.733-11.88-48.904-18.313-16.507-6.565-32.83-13.606-49.135-20.663-11.076-4.794-22.183-9.589-32.92-15.08-13.568-6.938-27.14-14-40.014-22.116-9.562-6.028-18.074-13.742-26.945-20.84-13.366-10.694-23.6-24.102-32.343-38.632-7.508-12.475-13.526-25.666-17.16-39.87-2.364-9.249-5.425-18.333-7.458-27.647-1.703-7.8-2.48-15.811-3.458-23.755-.862-7.004-1.678-14.03-2.055-21.07-.304-5.67-.415-11.436.263-17.054 1.23-10.195 2.74-20.388 4.862-30.428 1.191-5.633 3.713-11.01 5.87-16.407 3.704-9.27 6.68-18.991 11.627-27.562 6.568-11.383 14.865-21.755 22.183-32.72 12.893-19.32 25.513-38.825 38.423-58.135 12.657-18.933 25.687-37.618 38.26-56.605 9.582-14.47 18.537-29.353 28.075-43.852 11.531-17.531 23.495-34.777 35.063-52.284 10.577-16.009 20.851-32.218 31.303-48.31 11.315-17.42 22.725-34.778 34.013-52.216 11.12-17.177 22.078-34.46 33.227-51.618 6.732-10.36 13.659-20.595 20.559-30.846 11.41-16.952 22.707-33.985 34.42-50.727 3.097-4.427 7.42-8.04 11.39-11.804 7.486-7.098 14.818-14.41 22.787-20.934 8.164-6.682 16.624-13.18 25.667-18.561 10.378-6.176 21.31-11.585 32.457-16.237 5.701-2.379 12.358-2.828 18.649-3.357 11.828-.995 23.745-2.332 35.548-1.805 10.673.477 21.28 3.06 31.846 5.079 7.142 1.365 14.432 2.665 21.175 5.247 9.629 3.688 18.934 8.291 28.165 12.927 11.444 5.747 22.591 12.081 34.006 17.887C655.8 77.184 676.8 87.505 697.66 98.101c26.557 13.49 52.996 27.215 79.562 40.688 20.188 10.238 40.527 20.178 60.74 30.367 18.132 9.14 36.18 18.449 54.273 27.665 18.28 9.31 36.497 18.744 54.877 27.852 15.777 7.817 31.825 15.086 47.602 22.903 13.355 6.618 26.465 13.73 39.737 20.52 15.065 7.706 30.678 13.755 47.768 15.062 9.026.69 18.047 1.638 27.087 1.909 13.541.405 26.516-3.446 39.539-6.401 15.159-3.44 30.137-7.67 45.214-11.475a5205 5205 0 0 1 43.384-10.76c13.073-3.18 26.206-6.118 39.26-9.376 13.04-3.253 25.985-6.886 39.024-10.14 12.574-3.136 25.226-5.955 37.824-8.995 14.967-3.61 29.935-7.222 44.86-10.998 10.19-2.577 20.286-5.517 30.46-8.154a8953 8953 0 0 1 53.21-13.592c11.768-2.973 23.57-5.81 35.346-8.75 14.935-3.727 29.843-7.565 44.793-11.226a3695 3695 0 0 1 45.377-10.818c9.649-2.234 19.392-4.06 29.03-6.338 8.962-2.118 17.806-4.74 26.768-6.868 9.313-2.21 18.711-4.06 28.058-6.134 4.42-.981 8.808-2.113 13.208-3.188 11.793-2.882 23.567-5.843 35.38-8.64 15.938-3.773 31.935-7.3 47.849-11.172 9.119-2.219 18.062-5.171 27.193-7.33 13.113-3.102 26.332-5.755 39.493-8.656 4.111-.907 8.182-1.997 12.272-3.001 15.887-3.904 31.756-7.88 47.666-11.685 10.727-2.566 21.539-4.778 32.262-7.361 9.443-2.276 18.75-5.15 28.235-7.212 13.014-2.831 26.12-5.262 39.225-7.648 12.608-2.294 23.928 1.571 33.61 9.203 4.25 3.349 7.147 8.711 9.916 13.581 7.66 13.472 14.884 27.191 22.396 40.749 1.41 2.544 3.211 4.913 5.09 7.148 2.845 3.386 6.465 4.832 10.73 2.863 7.47-3.449 14.786-7.24 22.315-10.55 9.148-4.021 17.946-8.593 28.131-10.404 11.25-2 20.417.569 28.508 7.969 13.79 12.614 27.99 24.86 40.905 38.326 7.808 8.14 14.334 17.824 19.97 27.655 7.227 12.603 13.54 25.815 19.176 39.215 3.923 9.33 6.011 19.428 8.976 29.166 2.732 8.971 5.69 17.876 8.275 26.889 3.035 10.586 5.73 21.269 8.652 31.887 2.914 10.59 5.925 21.152 8.963 31.972l31.404-7.95 7.45 29.058-94.957 24.253-7.421-29.042 33.334-8.608c-3.521-11.816-7.068-23.446-10.445-35.125-3.74-12.939-7.425-25.896-10.941-38.897-2.266-8.379-3.736-16.996-6.385-25.243-2.828-8.805-6.571-17.32-10.02-25.92-1.83-4.564-3.455-9.288-5.922-13.501-4.617-7.885-9.518-15.635-14.799-23.089-3.984-5.624-8.528-10.898-13.221-15.959-4.281-4.617-9.03-8.81-13.695-13.057-5.625-5.121-11.48-9.992-17.034-15.186-3.122-2.919-5.665-3.927-10.327-2.269-11.85 4.216-22.84 9.96-33.788 15.989-10.319 5.682-21.618 6.411-32.692 3.439-5.786-1.553-10.962-5.13-15.401-9.976-12.027-13.13-19.644-28.868-27.883-44.289-2.655-4.97-5.222-10.004-8.174-14.796-2.957-4.8-8.4-6.138-14.066-4.777-12.057 2.895-24.224 5.33-36.302 8.147-8.597 2.004-17.09 4.456-25.686 6.465-9.873 2.307-19.822 4.29-29.712 6.525-5.337 1.206-10.615 2.666-15.928 3.978-10.762 2.658-21.543 5.243-32.292 7.952-10.278 2.59-20.493 5.435-30.795 7.917-8.77 2.112-17.652 3.761-26.439 5.809-10.005 2.33-19.942 4.953-29.941 7.311-14.396 3.396-28.817 6.685-43.234 9.989-10.344 2.37-20.72 4.605-31.042 7.07-5.622 1.342-11.123 3.185-16.742 4.539-10.633 2.56-21.316 4.91-31.968 7.392-4.545 1.059-9.058 2.26-13.598 3.34-10.782 2.568-21.582 5.058-32.352 7.67-4.841 1.174-9.596 2.714-14.45 3.824-10.833 2.477-21.727 4.687-32.55 7.21-5.302 1.237-10.466 3.055-15.75 4.386-9.053 2.28-18.15 4.385-27.229 6.56-5.006 1.2-10.02 2.37-15.02 3.594-5.926 1.45-11.852 2.899-17.758 4.43-9.317 2.415-18.605 4.949-27.93 7.336-6.383 1.634-12.815 3.078-19.213 4.653-7.956 1.96-15.893 3.993-23.851 5.945-7.017 1.72-14.073 3.284-21.072 5.075-8.522 2.181-16.964 4.679-25.509 6.761-9.224 2.249-18.551 4.071-27.785 6.283-5.31 1.272-10.498 3.045-15.787 4.415-6.21 1.608-12.474 3.002-18.704 4.528-8.12 1.99-16.23 4.01-24.341 6.031-10.605 2.643-21.217 5.253-31.804 7.963-9.306 2.383-18.558 4.98-27.876 7.308-9.382 2.344-18.842 4.378-28.223 6.724-9.827 2.457-19.55 5.343-29.411 7.647-14.104 3.296-28.393 5.839-42.415 9.435-13.792 3.537-27.675 1.257-41.501 1.795-11.284.438-22.213-1.93-32.91-5.562-9.101-3.09-18.76-4.876-27.416-8.875-17.281-7.984-34.04-17.096-51.02-25.731-20.297-10.322-40.61-20.61-60.895-30.956-18.576-9.474-37.079-19.093-55.696-28.484-20.23-10.206-40.538-20.26-60.848-30.306-11.637-5.756-23.457-11.152-34.996-17.098-12.076-6.223-23.864-13.006-35.877-19.355-5.792-3.06-11.838-5.634-17.724-8.52-8.45-4.146-16.857-8.382-25.288-12.568-8.424-4.182-16.893-8.277-25.272-12.546-9.29-4.734-18.463-9.697-27.756-14.424-10.319-5.249-20.785-10.211-31.057-15.548-8.547-4.44-16.601-9.97-25.436-13.676-8.444-3.542-16.262-8.793-25.979-9.49-5.96-.427-11.769-2.913-17.654-4.442-.791-.206-1.63-.251-2.45-.319-8.34-.686-16.675-1.431-25.022-1.992-2.105-.142-4.266.207-6.374.514-7.704 1.122-15.397 2.314-23.091 3.499-1.42.218-2.912.307-4.223.828-13.378 5.315-26.156 11.9-37.52 20.7-8.091 6.265-15.362 13.608-22.843 20.637-5.334 5.011-11.11 9.774-15.448 15.576-8.21 10.982-15.531 22.628-23.215 34.003-9.055 13.405-18.206 26.747-27.122 40.244-6.66 10.084-12.905 20.441-19.536 30.545-7.964 12.137-16.292 24.036-24.181 36.22-7.173 11.077-13.79 22.516-20.982 33.58-7.67 11.804-15.847 23.277-23.583 35.039-8.502 12.926-16.686 26.06-25.134 39.023-8.35 12.81-16.92 25.474-25.273 38.281-7.817 11.986-15.332 24.17-23.249 36.09-6.073 9.143-12.743 17.89-18.813 27.036-4.967 7.481-9.263 15.406-14.177 22.925-6.266 9.59-12.924 18.922-19.284 28.451-5.555 8.324-10.823 16.84-16.41 25.14-10.026 14.898-20.739 29.367-30.091 44.671-5.099 8.344-8.073 18.001-11.848 27.131-2.017 4.88-4.508 9.759-5.388 14.878-3.185 18.541-4.33 37.176-.705 55.871 1.634 8.426 2.006 17.156 4.264 25.388 3.371 12.29 7.989 24.234 11.917 36.378 3.656 11.303 10.758 20.589 17.892 29.677 5.136 6.544 11.294 12.457 17.722 17.773 8.53 7.052 17.25 14.153 26.813 19.613 16.577 9.466 33.75 17.923 50.896 26.347 10.577 5.197 21.5 9.713 32.393 14.235 11.484 4.77 23.13 9.143 34.677 13.762 11.266 4.507 22.427 9.282 33.762 13.604 8.089 3.083 16.378 5.642 24.598 8.376 8.222 2.735 16.443 5.482 24.714 8.066 7.96 2.488 16.037 4.61 23.963 7.195 8.354 2.725 16.556 5.913 24.888 8.709 9.847 3.304 19.757 6.426 29.651 9.59a10846 10846 0 0 0 33.49 10.632c12.537 3.965 25.132 7.756 37.608 11.903 13.044 4.337 25.907 9.222 38.978 13.47 12.66 4.114 25.537 7.559 38.221 11.605 9.918 3.164 19.642 6.928 29.53 10.188 10.205 3.364 20.506 6.433 30.76 9.647 6.738 2.113 13.46 4.28 20.204 6.378 8.256 2.568 16.578 4.938 24.779 7.67 9.38 3.124 18.621 6.667 27.996 9.812 7.572 2.54 15.263 4.724 22.882 7.13 8.84 2.792 17.644 5.703 26.493 8.47 8.268 2.584 16.63 4.882 24.848 7.616 6.828 2.271 13.426 5.24 20.27 7.456 10.37 3.358 20.9 6.217 31.296 9.501 9 2.844 17.907 5.987 26.856 8.993 3.94 1.324 7.878 2.658 11.83 3.944 8.53 2.774 17.06 5.552 25.607 8.27 9.295 2.957 18.634 5.778 27.912 8.79 8.031 2.607 15.962 5.53 24.014 8.067 6.828 2.151 13.78 3.901 20.649 5.928 3.051.9 6.025 2.063 9.043 3.077 11.856 3.98 23.7 8 35.58 11.904 7.43 2.44 14.918 4.697 22.733 7.246"/></svg>