<svg xmlns="http://www.w3.org/2000/svg" viewBox="0 0 2815 1500" xml:space="preserve"><path fill="#fff" d="M2176.46 1256.264c-22.075 4.944-43.425 9.317-64.613 14.367-20.815 4.961-41.98 9.185-62.026 16.408-16.01 5.77-31.305 14.446-45.583 23.857-16.274 10.727-31.225 23.505-46.464 35.749-16.775 13.477-32.269 28.525-52.535 37.316-7.028 3.048-13.945 4.05-21.147 4.46-30.394 1.73-60.241-2.857-90.042-8.064-10.73-1.875-21.583-3.034-32.366-4.612-8.818-1.291-17.573-3.25-26.432-3.975-17.515-1.435-35.084-3.076-52.628-3.04-17.876.039-35.712 2.394-52.05 10.593-4.664 2.34-9.344 5.281-12.954 8.983-19.052 19.538-37.352 39.823-56.716 59.04-18.18 18.043-39.807 30.752-65.09 36.384-19.989 4.454-40.145 4.243-60.17.47-6.052-1.141-11.821-3.981-17.602-6.33-22.434-9.116-41.642-22.344-57.441-41.178-19.621-23.39-39.94-46.29-61.283-68.104-12.44-12.713-26.785-23.908-41.568-33.861-10.543-7.098-23.15-11.21-34.998-16.273-30.132-12.878-61.472-22.285-92.666-32.143-27.693-8.752-55.18-18.156-82.799-27.145-33.587-10.932-67.232-21.688-100.826-32.6-28.295-9.192-56.496-18.679-84.845-27.7-25.11-7.988-50.466-15.205-75.53-23.328-27.912-9.046-55.563-18.894-83.43-28.083-20.661-6.813-41.493-13.106-62.236-19.673-16.99-5.38-33.986-10.745-50.933-16.258-21.365-6.95-42.671-14.083-64.025-21.07-36.119-11.816-72.312-23.407-108.368-35.414-35.108-11.69-70.334-23.102-105.039-35.908-29.12-10.746-57.859-22.658-86.223-35.275-28.398-12.631-56.462-26.128-83.972-40.577-10.986-5.77-20.443-14.704-29.986-22.908-15.698-13.494-29.286-28.76-37.868-48.03-7.094-15.93-10.945-32.623-11.609-49.87-.726-18.874-.986-37.704 5.263-56.17 10.531-31.121 25.878-58.884 52.332-79.238 22.905-17.622 46.285-34.627 69.33-52.071 7.676-5.81 15.066-12.014 22.405-18.252 12.897-10.962 25.871-21.85 38.422-33.201 22.007-19.904 41.185-42.377 58.774-66.234 26.005-35.274 51.516-70.928 78.224-105.662 17.984-23.39 37.529-45.592 56.64-68.101 13.76-16.206 27.997-32.006 41.915-48.079 2.35-2.713 4.165-5.89 6.25-8.885-5.829-11.885-16.78-17.285-26.515-23.926-10.708-7.305-21.398-14.355-29.638-24.816-9.578-12.159-16.362-25.23-20.944-40.134-6.164-20.053-3.332-38.792 2.88-58.03 5.883-18.22 16.504-33.044 29.793-46.245 10.347-10.278 20.952-20.3 31.578-30.29 19.329-18.174 42.068-30.785 66.606-40.391 1.856-.727 3.757-1.553 5.705-1.8 22.988-2.913 45.915-7.31 69.215-2.726 14.26 2.805 28.81 4.514 42.76 8.403 10.104 2.817 19.64 8.006 29.076 12.828 34.516 17.64 68.808 35.719 103.33 53.347 36.004 18.385 72.185 36.427 108.275 54.645 27.808 14.038 55.585 28.137 83.394 42.173 36.944 18.648 73.943 37.187 110.852 55.904 59.73 30.289 119.38 60.737 179.118 91.01 26.313 13.334 52.828 26.272 79.112 39.663 8.837 4.502 17.969 4.972 27.193 2.994 7.294-1.564 13.078-5.473 16.576-12.9 8.443-17.922 17.038-35.807 26.48-53.215 10.3-18.986 23.951-34.284 45.083-42.83 17.024-6.885 34.726-10.206 52.225-14.752 16.92-4.396 33.873-8.683 50.871-12.767 14.122-3.393 28.367-6.273 42.493-9.65 16.368-3.914 32.638-8.236 49-12.175 18.947-4.561 37.96-8.851 56.924-13.35 16.052-3.808 32.053-7.834 48.115-11.603 20.329-4.77 40.844-9.184 61.81-7.444 9.346.775 18.9 3.454 27.567 7.134 23.812 10.111 44.44 24.557 61.038 45.037 11.03 13.61 24.184 25.513 36.548 38.023 29.136 29.48 58.367 58.864 87.56 88.286 8.744 8.811 12.223 8.614 21.953 1.04 18.34-14.274 37.001-28.138 55.598-42.08 17.53-13.143 35.186-26.116 52.688-39.295 2.735-2.06 4.947-4.814 8.475-8.314-4.307-1.11-6.783-1.91-9.32-2.375a23672 23672 0 0 0-63.354-11.512c-6.193-1.12-12.416-2.076-18.593-3.273-23.01-4.46-40.526-17.185-53.147-36.55-2.744-4.211-4.81-9.949-4.533-14.833.727-12.84 1.247-26.09 4.843-38.295 10.175-34.54 21.39-68.796 33.132-102.84 5.605-16.252 12.863-31.995 25.949-44.16 13.93-12.948 30.532-17.485 48.518-13.185 28.276 6.76 56.25 14.818 84.257 22.665 35.616 9.98 71.21 20.053 106.675 30.552 24.723 7.319 49.344 15.04 73.747 23.354 10.295 3.507 20.197 8.478 29.788 13.686 36.057 19.574 69.444 42.818 98.644 71.925 20.048 19.983 35.032 43.176 46.344 68.912 9.745 22.172 15.623 45.617 22.324 68.785 6.423 22.205 12.844 44.41 19.209 66.631.869 3.033 1.413 6.158 2.252 9.878l35.458-8.59c1.605 5.73 3.186 11.018 4.554 16.361 1.393 5.44 2.574 10.933 4.082 17.407l-104.684 26.206-8.588-33.79 33.007-8.552c0-1.978.296-3.357-.045-4.554a13657 13657 0 0 0-17.51-60.992c-4.593-15.863-9.258-31.706-13.89-47.558-7.708-26.385-18.898-51.145-37.175-71.874-10.499-11.908-22.158-22.96-34.282-33.233-25.718-21.792-54.598-39.042-84.902-53.45-15.72-7.473-32.962-11.878-49.725-16.987-26.827-8.178-53.822-15.806-80.755-23.635-16.544-4.809-33.098-9.58-49.658-14.331-17.123-4.912-34.2-9.997-51.409-14.59-11.788-3.148-23.761-5.612-35.662-8.333-8.054-1.842-14.266.84-18.802 7.718-8.083 12.255-13.999 25.52-18.586 39.42-7.362 22.304-15.15 44.478-21.942 66.954-3.81 12.608-5.952 25.717-8.895 38.59-1.17 5.122.824 9.126 4.326 12.562 7.032 6.898 15.42 11.826 24.987 13.624 30.238 5.682 60.592 10.742 90.867 16.232 5.489.995 10.967 2.476 16.19 4.427 21.057 7.87 23.316 34.924 10.868 50.255-4.166 5.132-8.875 10.061-14.132 14.029-23.312 17.596-46.977 34.722-70.388 52.188-17.808 13.285-35.08 27.316-53.25 40.077-11.994 8.424-25.735 10.317-39.69 4.28-8.944-3.868-16.24-10.014-23.097-16.961-30.354-30.76-61.068-61.162-91.387-91.956-13.502-13.713-26.044-28.375-39.626-42.004-14.709-14.762-31.66-26.1-52.452-30.863-12.019-2.754-23.991-.998-35.523 1.296-23.643 4.704-46.982 10.938-70.444 16.553-19.286 4.616-38.58 9.202-57.85 13.887-15.709 3.82-31.353 7.913-47.089 11.618-19.598 4.613-39.29 8.83-58.887 13.45-15.114 3.562-30.164 7.407-45.204 11.27-10.22 2.626-20.49 5.142-30.53 8.352-13.644 4.363-23.3 13.59-29.685 26.333-9.368 18.697-18.84 37.342-28.107 56.089-10.54 21.323-29.052 29.274-51.346 31.984-22.706 2.76-41.144-8.068-60.029-17.548-40.322-20.242-80.512-40.747-120.747-61.16-47.031-23.862-94.02-47.808-141.092-71.588-29.794-15.051-59.777-29.73-89.548-44.825-28.099-14.248-55.944-28.997-84.06-43.21-32.477-16.416-65.25-32.251-97.672-48.771-33.094-16.862-66.08-33.952-98.806-51.515-20.325-10.908-41.519-19.734-64.184-22.94-19.19-2.713-38.666-3.042-58.255 1.237-24.213 5.289-43.953 17.588-62.176 33.362-15.838 13.71-32.275 27.069-43.503 44.973-16.552 26.391-17.812 49.195-1.024 74.778 8.065 12.29 20.165 19.043 31.723 26.66 11.747 7.742 22.26 16.589 30.495 28.082 8.075 11.27 8.718 22.996 3.8 35.803-5.32 13.85-16.032 23.525-25.212 34.353-22.557 26.606-45.563 52.832-68.198 79.373-32.803 38.462-61.454 80.076-90.904 121.054-17.725 24.663-38.179 46.908-58.992 68.769-13.23 13.895-29.079 25.257-43.031 38.515-16.492 15.67-35.931 27.326-53.698 41.233-17.523 13.717-35.254 27.195-52.309 41.477-15.57 13.04-23.047 31.373-29.582 49.954-5.704 16.218-6.058 32.611-4.457 49.923 1.635 17.67 6.825 33.214 16.922 46.95 7.011 9.538 16.136 17.576 24.649 25.945 15.444 15.183 35.001 24.19 54.157 32.988 36.1 16.578 72.827 31.857 109.681 46.714 42.042 16.948 84.854 31.864 128.059 45.626 41.93 13.355 83.83 26.8 125.708 40.313 28.99 9.355 57.896 18.97 86.884 28.332 32.073 10.36 64.23 20.46 96.288 30.868 28.589 9.281 57.045 18.972 85.645 28.22 33.328 10.776 66.796 21.119 100.116 31.919 41.83 13.558 83.527 27.53 125.37 41.05 24.527 7.925 49.283 15.143 73.834 22.998 26.41 8.45 52.936 16.628 78.97 26.135 20.82 7.603 41.583 15.849 61.23 26.016 14.577 7.544 27.774 18.05 40.791 28.252 28.213 22.109 48.894 51.474 73.064 77.486 3.62 3.896 7.177 7.863 10.557 11.967 13.666 16.585 32.165 26.143 51.892 32.132 14.424 4.38 29.825 3.918 45.197-.011 22.602-5.777 39.678-18.934 55.022-35.537 16.673-18.042 33.654-35.804 50.676-53.52 8.773-9.131 20.474-13.59 31.977-17.66 26.347-9.324 53.924-11.097 81.452-9.282 27.021 1.782 54 4.91 80.519 11.058 7.708 1.788 15.735 2.212 23.621 3.216 17.723 2.256 35.401 5.677 53.186 6.38 16.924.668 33.16-2.637 46.848-15.05 17.702-16.053 36.039-31.544 55.194-45.812 14.309-10.657 30.203-19.237 45.651-28.3 18.488-10.844 39.116-15.749 59.75-20.546 25.76-5.988 51.455-12.264 77.241-18.14 21.277-4.85 42.68-9.143 63.964-13.967 21.587-4.892 42.958-10.847 64.673-15.043 28.02-5.414 54.84-14.858 82.03-22.99 28.822-8.619 56.976-19.49 85.85-27.91 36.953-10.774 72.483-25.303 107.377-41 50.196-22.582 99.631-46.949 145.251-78.26 11.533-7.916 23.825-14.882 32.555-26.055 9.044-11.573 16.747-24.01 16.41-39.542-.071-3.26-1.2-6.485-1.706-9.747-2.535-16.326-4.565-32.747-7.695-48.956-2-10.357-5.629-20.397-8.481-30.592-5.34-19.09-10.63-38.194-15.971-57.284-8.805-31.475-17.557-62.965-26.48-94.407-5.592-19.709-11.49-39.331-17.193-59.01-7.812-26.953-15.84-53.849-23.27-80.908-6.809-24.798-12.906-49.79-19.429-74.667-.823-3.138-2.333-6.096-3.925-10.157 11.766-4.387 23.243-6.84 35.18-9.34 3.147 9.733 6.436 18.946 9.09 28.34 3.675 13.003 6.686 26.193 10.314 39.211 7.095 25.458 14.387 50.862 21.661 76.27 6.176 21.572 12.576 43.08 18.63 64.685 6.684 23.846 13.037 47.785 19.625 71.659 9.564 34.66 18.621 69.475 29.053 103.872 5.902 19.46 8.757 39.295 11.72 59.222a521 521 0 0 0 4.045 23.416c3.338 17.057.071 32.677-8.576 47.74-4.61 8.033-8.856 16.112-14.765 23.38-8.723 10.73-19.317 19.093-30.757 26.518-14.483 9.398-28.806 19.106-43.757 27.708-20.979 12.07-42.34 23.499-63.79 34.718-15.501 8.107-31.075 16.246-47.214 22.924-31.478 13.025-63.208 25.49-95.156 37.317-23.853 8.83-48.119 16.588-72.373 24.28-25.491 8.084-51.298 15.174-76.766 23.327-33.406 10.693-67.884 16.75-101.965 24.537-16.733 3.823-33.476 7.6-51.012 11.672"/></svg>