<svg viewBox="0 0 2790 1500" xml:space="preserve" xmlns="http://www.w3.org/2000/svg"><path d="M2121.639 13.191c-2.328.212-4.349.244-6.149.891-6.01 2.16-13.198.689-18.205 5.928-7.52 7.869-16.994 14.163-20.078 25.56-1.925 7.115-4.105 14.161-5.799 21.2l-.342.347c-.802 1.099-.922 1.994-1.04 2.889 2.177 2.996.197 4.523-2.512 6.308-.447.81-.48 1.248-.512 1.686-.834 4.077-1.531 8.19-2.568 12.215 1.037-4.025 1.733-8.137 2.236-12.06-1.524 3.307-2.742 6.45-3.902 9.615-2.845 7.753-5.663 15.517-8.16 23.207 2.69-5.404 5.027-10.75 7.43-16.065-2.403 5.315-4.74 10.66-7.509 16.385-.447.828-.483 1.267-.521 1.705-.316 2.408.073 5.379-.818 7.326.886-1.946.46-4.9.484-7.185-3.035 6.394-5.736 12.646-8.074 18.84 4.262-.947 4.732-4.19 5.53-7.223-.805 3.057-1.284 6.372-5.605 7.543-.472.816-.508 1.253-.543 1.69-.11 3.015 3.195 7.286-3.421 8.302-.485.391-.52.555-.555.719-1.453 2.956.937 7.595-4.485 9.367-.842 1.424-1.159 2.526-1.474 3.629-.234.677-.467 1.355-.79 2.056a8.3 8.3 0 0 0 .466-1.94c-.727 1.25-1.184 2.402-1.35 3.532q-.157.24-.336.483c-.774 1.075-.901 1.968-1.03 2.861 2.103 2.836-.365 3.736-2.503 5.314-.45.802-.495 1.238-.54 1.674-.5 2.363-.385 5.232-1.39 7.182 1-1.949.848-4.802 1.059-7.049-3.02 8.061-5.705 15.99-8.022 23.86.745-.926 1.587-1.818 2.227-2.713-.651.954-1.504 1.953-2.303 3.119-.488 1.844-.532 3.223-.574 4.601.204 5.812.408 11.622.348 18.121-.203 1.742-.14 2.796-.079 3.85 1.196 1.383 3.09 2.678 3.883 4.111-.796-1.421-2.704-2.657-3.972-3.724 2.25 6.487 4.608 12.58 6.923 18.69 3.06 8.073 9.057 13.014 16.93 15.577-.317-1.062-.473-2.113-.861-2.787.397.686.583 1.79 1.031 3.08 1.06.817 1.952.94 2.844 1.06.622-.222 1.326-.726 1.885-.734-.558.013-1.248.555-1.764 1.075 6.526 3.115 12.851 6.106 19.371 8.582 3.68 1.397 7.684 1.943 11.482 2.504-1.496-1.199-2.886-2.613-4.38-3.09 1.5.478 2.929 1.9 4.744 3.162 1.164.481 1.905.52 2.646.558 2.019.052 4.046.046 6.065.096-1.992-.014-3.972.101-5.867.254 5.417 1.341 10.638 2.334 15.773 2.986-1.455-.936-2.819-1.97-4.23-2.548 1.432.582 2.874 1.63 4.636 2.625 1.872.465 3.252.513 4.631.562.325-.252.695-.725.99-.828-.292.112-.64.632-.834 1.178 4.746 1.266 9.35 2.108 13.92 3.117 7.67 1.692 15.316 3.492 22.924 4.9-1.083-2.263-2.547-3.482-4.38-4.035 1.877.557 3.444 1.791 4.798 4.113 2.171.468 3.877.512 5.582.555 3.754-1.449 7.386-2.315 10.373 2.494 1.503.467 2.56.505 3.617.543.825-.251 1.682-.739 2.49-.875-.8.15-1.624.7-2.298 1.223 2.584.806 4.978 1.256 7.369 1.726 6.164 1.214 12.326 2.436 18.42 3.319-1.649-1.088-3.195-2.272-4.82-3.01 1.642.742 3.25 1.94 5.142 3.082.83.44 1.267.47 1.705.502 1.442-.13 2.884-.189 4.326-.328a60 60 0 0 0-4.146.681c4.072 1.051 7.965 1.748 11.843 2.04-.53-1.1-1.054-2.47-1.574-2.967h.002c.532.501 1.115 1.898 1.95 3.129 3.128.854 5.864 1.14 8.601 1.427 3.702-2.435 6.353-.395 9.379 2.498 1.86.446 3.24.483 4.619.522.204-.197.451-.572.623-.635-.17.07-.397.482-.453.98a451 451 0 0 0 28.8 5.047c-3.088-2.32-6.399-3.463-9.804-4.076 3.506.62 6.951 1.778 10.225 4.15 2.2.45 3.907.485 5.613.52 3.951-.994 8.127-3.198 11.39 2.467 1.842.488 3.22.532 4.598.576.093-.112.203-.319.282-.36-.077.047-.167.291-.116.69 6.054 2.772 11.942 5.214 17.817 7.291-3.638-3.998-8.127-5.809-12.867-6.976 4.74 1.167 9.23 2.975 12.872 6.966.018.288.009.35.004.364l-.001.002c1.104 1.046 3.067 2.177 3.6 3.168-.533-.983-2.492-2.06-3.567-2.787.402 2.432 1.411 4.614 1.025 6.513-1.43 7.036-3.312 13.981-4.64 20.963q-.163.136-.334.276c-.83 1.046-.957 1.946-1.083 2.847-.082 2.41.718 5.915-.14 7.365.856-1.449.028-4.939-.188-7.205-1.99 3.824-3.233 7.758-5.388 11.104-8.945 13.882-18.202 27.564-27.27 41.367a478 478 0 0 0-12.662 20.352c.579-.282 1.173-.514 1.662-.772-.488.259-1.078.493-1.652.777-.28.016-.34.005-.354 0h-.004c-.527 1.092-1.087 2.163-1.595 3.266.45-1.065.884-2.134 1.265-3.16-1.28 1.397-2.296 2.645-3.168 3.986-4.522 6.959-9.008 13.94-13.115 20.928.728-.357 1.446-.66 2.064-.998-.616.339-1.331.646-2.054 1.006-.31-.006-.379-.02-.393-.026h-.002v-.002h-.002c-.456 1.021-.938 2.028-1.379 3.057.388-.995.747-1.989 1.051-2.941-5.775 8.168-10.909 16.456-16.744 24.218-7.848 10.44-15.8 20.87-24.56 30.53-5.065 5.584-17.904 10.298-25.934 3.275-1.674-1.464-4.09-2.082-6.21-2.701a20 20 0 0 1-.33-.344c-.694-.804-1.282-.943-1.868-1.082-.611.234-1.503.8-1.9.781.396.014 1.274-.587 1.78-1.105-3.748-2.874-7.38-5.43-11.185-7.68l-.18-.193c.109-.44-.152-.574-.152-.574-1.7-1.127-3.398-2.255-5.076-3.463a87 87 0 0 0 4.912 3.193c-2.85-2.235-5.542-4.216-8.406-5.887l-.301-.25c.117-.444-.123-.576-.123-.576-4.127.408-6.111-2.21-8.115-4.785 1.992 2.558 3.946 5.12 7.945 4.52-1.969-2.06-3.848-3.78-5.55-5.659-8.66-9.55-17.273-19.143-26.1-28.351.204.82.424 1.568.691 2.256a23 23 0 0 1-.76-2.371c.12-.455-.078-.6-.103-.616h-.002c-.387.133-.99.442-1.235.457.242-.022.824-.37 1.073-.736-4.389-5.04-8.623-9.819-12.862-14.246l-.443-.603c-.363-.76-.646-.913-.93-1.065l-3.107 1.17c1.036-.39 2.072-.78 3.021-1.482-1.358-1.451-2.63-2.59-4.226-3.706-.014-.106-.044-.194-.057-.302-.057-.778-.381-1.23-.705-1.682-.537-.378-1.075-.756-1.584-1.246a5 5 0 0 0 1.549.963c-.735-.9-1.433-1.522-2.305-1.82l-.082-.112c.108-.432-.107-.56-.107-.56-.641-.47-1.28-.964-1.918-1.502.616.507 1.217.921 1.77 1.244-1.175-1.18-2.2-2.102-3.243-2.635.068.074.135.134.203.205-.07-.072-.14-.12-.209-.195.009-.308.023-.374.028-.389v-.002l.001-.002c-2.485-.512-4.195-1.78-5.54-3.48 1.325 1.62 3.008 2.8 5.439 3.152-2.98-3.393-5.863-6.47-8.766-9.191l-.2-.444c-.327-1.123-.629-1.58-.93-2.035-2.681-.244-5.043-.643-6.46-2.738 1.412 2.076 3.755 2.414 6.356 2.416-4.03-4.467-7.956-8.61-11.9-12.46-.033.488-.048.682-.01 1.218-4.337-4.444-8.886-8.312-12.813-12.733-1.359-1.53-2.504-3.248-3.574-5.078 1.064 1.821 2.212 3.545 3.574 5.078 3.927 4.421 8.476 8.29 12.76 12.393.015-.195.03-.391.02-1.225-6.426-7.847-12.83-15.056-19.426-21.908 1.025 1.919 2.003 3.833 3.064 5.65-1.072-1.834-2.07-3.78-3.13-5.755.12-.436-.063-.578-.086-.594l-.002-.002c-1.454-1.177-2.907-2.354-4.377-3.89-.017-.36-.01-.366-.01-.366-4.939-.572-6.716-4.876-9.526-7.963 2.81 3.082 4.584 7.347 9.498 7.612-5.673-6.79-11.32-13.227-16.996-19.3-.532 1.629-.6 2.934-.183 4.024-.417-1.088-.351-2.392.178-4.013.018-.288.035-.352.04-.366l.003-.002c-1.015-.284-2.305-.279-3.053-.841.747.56 2.031.537 2.95.513-7.446-8.565-14.79-16.804-22.327-24.703.642 1.741 1.18 3.525 1.86 5.16-.69-1.654-1.247-3.474-1.929-5.29.121-.471-.144-.61-.144-.61-.922-.318-2.05-.418-2.813-.904.761.482 1.87.552 2.647.63a58 58 0 0 0-2.104-2.46c-4.363-4.836-8.73-9.668-13.123-14.14-.285 1.343-.41 2.384-.14 3.307-.27-.922-.15-1.96.132-3.296.018-.286.036-.348.042-.362l.002-.002v-.002c-2.446-1.479-5.28-2.588-7.409-4.369 2.13 1.777 4.96 2.847 7.383 4.02a434 434 0 0 0-12.562-14.602c-3.071-3.414-6.273-6.71-9.438-9.678.45 1.101.844 2.152 1.277 3.127-.434-.974-.83-2.02-1.285-3.115.01-.3.029-.368.035-.383l.002-.002v-.002c-3.874-3.164-8.04-6.036-11.552-9.562 3.511 3.526 7.678 6.398 11.525 9.213-4.01-4.913-7.98-9.487-11.98-14.035-6.752-7.678-13.523-15.338-20.487-22.649 1.528 3.173 2.93 6.32 4.766 9.092-1.838-2.776-3.25-5.938-4.832-9.191.126-.429-.045-.569-.067-.584l-.001-.002c-1.654-.165-3.587-1.336-5.217-2.942 1.597 1.528 3.477 2.617 5.05 2.662-2.86-3.513-5.553-6.745-8.529-9.75a4.2 4.2 0 0 0-.008 1.112 5 5 0 0 1-.04-1.444c-.39-1.024-1.015-1.488-1.64-1.95-4.225.758-5.035-3.01-7-5.61a2 2 0 0 1-.001-.348v-.002c-2.985-2.105-5.97-4.209-8.983-6.652-.023-.275-.014-.338-.01-.352l.003-.002v-.002c-3.365.151-5.413-1.5-7.227-3.601 1.763 2.064 3.803 3.618 7.113 3.28-3.725-3.027-7.336-5.73-10.906-8.1 1.11 1.26 2.071 2.671 3.084 3.968-1.065-1.335-2.107-2.744-3.309-4.049-.265-.41-.734-.503-.734-.503-4.944-2.076-10.063-3.82-14.768-6.342 4.704 2.522 9.825 4.267 14.637 6.017-8.073-4.343-16.014-8.36-23.908-12.03.994 3.728 3.856 4.306 6.553 5.032-2.719-.731-5.66-1.322-6.942-5.115-1.495-.47-2.555-.51-3.613-.55-2.987 2.187-4.557.31-6.36-2.493-1.15-.452-1.894-.486-2.636-.52-1.144.014-2.33.177-3.475.196 1.124-.05 2.267-.311 3.293-.535-2.493-1.078-4.756-2.121-7.125-2.504-16.1-2.605-31.958-.71-47.435 3.135 2.496-.022 4.94-.027 7.341-.122-2.469.101-5.03.119-7.753.157-2.062-.2-3.44-.14-4.817-.08-1.363 3.735-4.205 4.122-8.195 3.093-1.687-.179-2.742-.108-3.797-.039-1.115 1.044-2.091 2.6-3.314 3.244 1.217-.644 2.151-2.212 2.931-3.337-4.262.9-8.18 1.765-12.012 2.918-6.202 1.865-12.347 3.92-18.302 6.167-.182.017-.305.06-.49.075-1.33-.177-2.07-.107-2.81-.037a7 7 0 0 1-1.032.562 1.96 1.96 0 0 0 .734-.666c-.767.177-1.25.452-1.588.94a7 7 0 0 1-.396.076c-1.255-.13-1.993-.074-2.73-.016-2.038 4.371-5.756 3.93-10.114 3.084-1.018-.185-1.451-.126-1.885-.068-1.454 5.929-5.924 3.404-10.094 3.123-1.028-.21-1.464-.152-1.898-.094-2.45 2.397-4.968 4.35-8.478 4.756 3.504-.406 5.979-2.37 8.082-4.852-7.148 1.881-13.898 3.86-20.413 6.123q.247-.015.495-.037-.45.043-.909.074c-2.026-.182-3.402-.116-4.779-.048-.54 1.847-1.456 2.948-2.783 3.39 1.24-.441 2.075-1.574 2.424-3.486-2.464.894-4.566 1.884-6.446 3.154 1.156.421 2.184.606 3.065.535-.976.094-2.126-.08-3.463-.505-1.678-.184-2.734-.116-3.791-.05-1.053 1.989-2.432 3.225-4.14 3.958 1.656-.745 2.92-2.022 3.753-4.055-3.45.878-6.48 1.984-9.586 2.805-9.011 2.382-18.052 4.649-26.826 7.246 1.168.068 2.273.087 3.346.056-1.133.037-2.343.03-3.715-.021a11.2 11.2 0 0 0-2.842-.066c-.765 2.719-2.329 3.648-4.435 3.675 2.018.007 3.53-.939 4.06-3.767-2.803.895-5.232 1.884-7.418 3.156 1.071.327 2.086.551 3.008.602-1.026-.033-2.16-.238-3.404-.57-1.695-.185-2.75-.116-3.805-.048-1.68 3.808-4.582 4.893-8.68 4.84 4.098.053 7.001-1.032 8.297-4.933-4.096.895-7.82 1.849-11.521 2.88-7.048 1.965-14.083 3.974-20.881 6.252l-.403.036c-1.696-.183-2.752-.112-3.808-.04-1.71 1.524-3.407 3.084-5.504 3.872 2.008-.787 3.624-2.38 5.13-3.971-3.81 1.186-7.247 2.473-10.44 4.037 1.268.405 2.407.51 3.447.397-1.137.141-2.393.05-3.817-.362-1.35-.178-2.088-.113-2.826-.049-1.464 1.092-2.799 2.524-4.367 3.342 1.563-.819 2.854-2.261 3.973-3.433-2.867.582-5.335 1.263-7.809 1.927-8.61 2.312-17.223 4.618-25.586 7.215 2.888-.153 5.723-.301 8.514-.55-2.847.255-5.787.412-8.885.583-1.36-.194-2.099-.133-2.838-.072-.974 1.654-2.14 2.874-3.717 3.371 1.486-.492 2.573-1.742 3.34-3.465-2.803.897-5.228 1.887-7.428 3.162 1.2.457 2.254.607 3.176.502-1.02.13-2.196-.005-3.572-.468-1.68-.188-2.736-.122-3.793-.057-2.372 2.8-5.064 4.652-8.733 4.842 3.664-.191 6.313-2.054 8.346-4.942-3.787.888-7.171 1.932-10.59 2.852-8.636 2.324-17.287 4.593-25.691 7.162l-.537.082c-1.695-.185-2.749-.123-3.803-.062-.697 4.033-3.298 4.33-7.193 3.09-1.693-.18-2.746-.11-3.801-.04-1.144 1.19-2.119 2.961-3.396 3.692 1.271-.733 2.203-2.515 3.01-3.785-7.355 1.88-14.297 3.95-21.296 5.806-9.07 2.407-18.186 4.647-27.02 7.24-.145.018-.265.048-.411.065-1.026-.184-1.46-.125-1.893-.064-.437 3.09-2.423 3.563-5.24 3.89 2.817-.327 4.803-.801 4.848-3.982-11.863 2.97-23.335 6.03-34.805 9.092-.16.108-.32.216-.531.277.126-.083.196-.2.195-.328-.503.02-.725.082-.803.361a3 3 0 0 1-.304-.06 27.5 27.5 0 0 0-8.053 2.8l-.48.08c-2.372.108-4.1.477-5.827.844.165 2.127-.406 3.491-2.193 3.768 1.773-.28 2.283-1.66 1.795-3.856-3.814.903-7.23 1.893-10.364 3.184 2.565.421 4.857.453 7.13.685-2.273-.232-4.564-.263-7.456-.648-1.04-.207-1.473-.15-1.906-.094-1.507 1.143-2.888 2.852-4.494 3.547 1.6-.697 2.938-2.415 4.101-3.64-7.48 1.878-14.57 3.85-21.414 6.105 2.73-.244 5.41-.498 8.057-.82-2.706.33-5.48.593-8.383.855-1.005-.189-1.438-.13-1.87-.072-2.217 5.136-6.522 3.765-11.19 3.113-2.052-.19-3.426-.116-4.801-.045-1.414 1.263-2.75 3.3-4.21 4.123 1.449-.827 2.722-2.878 3.817-4.217-11.116 1.556-21.81 4.242-32.574 4.565-11.03.33-22.137-1.588-33.197-2.652-4.66-.449-9.288-1.23-13.875-1.506 1.216 1.396 2.308 3.21 3.537 3.861-1.237-.652-2.369-2.476-3.856-3.936-.81-.463-1.247-.498-1.683-.533-1.342.178-2.775.72-4.045.615 1.267.1 2.683-.478 3.89-.95-4.138-1.633-8.258-2.617-12.08-4.286-8.971-3.917-17.892-7.978-26.666-12.318-11.59-5.734-22.932-11.97-34.548-17.65-8.3-4.059-16.865-7.572-25.295-10.96l-.356-.375c-.729-.789-1.316-.925-1.904-1.062-1.318.113-2.87.688-4.004.441 1.133.243 2.67-.37 3.867-.773-11.126-5.774-22.166-11.118-33.088-16.692-9.483-4.84-18.766-10.07-28.26-14.89-11.804-5.995-23.757-11.695-35.601-17.613-11.351-5.672-22.647-11.461-33.975-16.864-.427 1.89-.162 3.125.881 3.776-1.071-.655-1.407-1.905-1.199-3.858-.748-.458-1.186-.5-1.623-.54-2.85 2.105-3.773-.29-5.215-2.522-.273-.407-.74-.49-.74-.49-3.72-1.34-7.438-2.689-11.162-4.014 3.724 1.325 7.442 2.674 11.025 3.687-5.71-3.1-11.285-5.875-16.865-8.248l-.174-.293c-.71-.814-1.293-.948-1.877-1.084-.48.251-1.107.8-1.476.825.368-.03.98-.616 1.345-1.159-16.057-8.36-31.986-16.387-47.914-24.03.56 1.409.883 3.016 1.625 3.722h-.002c-.747-.707-1.103-2.322-1.941-3.803-.753-.51-1.188-.556-1.623-.602-2.103 1.263-3.675 1.155-5.487.12 1.807 1.021 3.354 1.063 5.362-.452-1.329-1.103-2.468-2.01-3.748-2.623-5.4-2.581-10.914-4.935-16.256-7.63-11.334-5.72-22.585-11.6-33.871-17.415.006.747.012 1.495.38 2.657 7.044 3.8 13.742 7.148 20.4 10.578a1010 1010 0 0 0-20.39-10.207c-1.678-.769-3.002-1.492-4.38-2.569-.054-.35-.545-.399-.791-.412-.849-.278-1.62-.651-2.426-.941.725.227 1.451.474 2.17.639-.097-.665-.185-1.038-.635-1.512.362.1.533-.079.478-.498a141 141 0 0 0-14.816-7.133c2.02 1.713 3.997 3.09 5.975 4.467.442.284.886.57 1.338.957q-.677-.534-1.284-.64c-2.032-1.693-4.01-3.071-6.334-4.91-1.128-.792-1.91-1.12-2.693-1.448-.953.523-2.58 1.561-2.957 1.646.376-.087 1.995-1.156 2.846-1.992-2.239-1.456-4.35-2.594-6.493-3.672-7.139-3.59-14.29-7.158-21.435-10.347.4 1.073.654 2.249 1.137 2.818-.493-.57-.794-1.758-1.455-2.898-.759-.51-1.196-.554-1.633-.596-6.541-.252-11.683-3.324-16.367-8.416-.759-.494-1.197-.535-1.635-.576-.843-.393-1.687-.786-2.555-1.264a16.4 16.4 0 0 0 2.42.947c-1.56-1.005-3.01-1.748-4.432-2.207q-.283-.201-.572-.424c-1.082-.77-1.975-.898-2.869-1.025-.609.091-1.294.39-1.846.324.55.062 1.22-.275 1.723-.662-2.342-1.546-4.567-2.745-6.781-3.965-7.505-4.136-14.904-8.48-22.54-12.36-6.423-3.262-13.249-5.734-19.671-9-12.98-6.598-25.808-13.494-38.672-19.911l-.334-.393c-1.082-.793-1.98-.918-2.877-1.045-2.768 2.136-3.477.19-4.361-2.472-.759-.468-1.196-.504-1.635-.54-2.2-.058-4.671.493-6.604-.166 1.932.658 4.395.088 6.452-.158-3.291-1.81-6.387-3.395-9.577-4.761-6.077-2.604-12.21-5.083-18.267-7.268.422.78.728 1.512 1.152 1.959-.441-.45-.819-1.195-1.57-2.037-2.175-.472-3.88-.519-5.586-.567-1.03.16-2.101.577-3.084.426.983.15 2.053-.266 2.916-.767-7.737-2.018-15.307-3.693-22.791-5.03 2.726 1.908 5.448 3.47 8.424 4.202-3.015-.737-5.829-2.318-8.79-4.278-1.197-.444-1.944-.473-2.69-.502-7.053 3.348-13.634 2.23-20.409-2.508-4.88-.458-9.23-.5-13.578-.543-5.143.199-10.285.397-16.154.329-2.756-.196-4.786-.126-6.815-.055-2.033 4.422-7.433 5.888-13.273 3.135-1.965-.247-3.345-.183-4.725-.12-2.058 1.068-4.124 2.12-6.174 3.204 2.05-1.083 4.115-2.136 5.766-3.301-8.143 2.895-15.877 5.887-23.358 9.17 1.434.241 2.867.631 4.112.627-1.266.008-2.768-.375-4.414-.594-1.032.028-1.507.313-1.983.598 1.167 1.916.434 3.154-.941 3.576 1.363-.423 2.036-1.657.557-3.563-7.458 4.015-14.53 8.016-21.4 12.285.662.24 1.3.474 1.753.416-.463.06-1.153-.167-2.082-.373-.962-.148-1.395-.072-1.828.004-.882 1.397-1.491 3.191-2.588 4.274 1.092-1.083 1.665-2.878 2.252-4.29-3.047 2.019-5.781 4.022-8.461 6.096-2.787 2.158-5.52 4.385-7.906 6.602 4.807-2.617 9.362-5.082 13.613-7.992-4.25 2.91-8.807 5.375-13.6 8.004-.289-.008-.356-.03-.37-.037l-.003-.002v-.002h-.002c.154 3.238-.466 5.712-5.125 4.539-.494-.133-.626.101-.626.101.559 1.465.324 2.285-.313 2.825.55-.514.7-1.29.037-2.66-1.473 1.47-2.684 2.785-3.547 4.081q-.189.075-.373.159c-1.127.366-1.583.667-2.039.97-.37.56-.74 1.119-1.219 1.649a5.3 5.3 0 0 0 .94-1.58c-.89.779-1.503 1.491-1.79 2.377l-.097.076c-.4-.106-.542.05-.558.07l-.002.002c.758 1.694.972 2.89-.247 3.809 1.202-.911.934-2.076-.033-3.645-3.516 3.194-6.754 6.223-9.623 9.272 1.436-.819 2.73-1.786 4.01-2.664-1.28.878-2.573 1.846-4.008 2.666-.367-.018-.369-.022-.369-.022-1.794 4.087-3.674 8.094-7.215 10.662 3.515-2.564 5.327-6.548 6.893-10.562-4.432 4.368-8.543 8.637-12.278 12.922q-.007 0-.013.002c-.289-.016-.357-.01-.373-.006h-.002l-.002.002c-.243 3.29-1.715 5.45-3.682 7.21 1.906-1.718 3.257-3.877 3.36-7.115-4.346 4.375-8.37 8.654-12.045 12.938 2.802-2.101 6.175-3.578 8.638-5.78-2.528 2.244-5.882 3.821-8.728 6.092-.483.74-.525 1.172-.569 1.604-.313 1.49-.22 3.382-.767 4.64.537-1.255.393-3.13.443-4.523-1.626 1.771-2.848 3.496-4.244 5.066-8.424 9.48-12.812 20.968-16.03 32.844.95-.278 2.104-.566 2.747-.846-.663.294-1.892.624-3.063 1.03-.84 1.395-.948 2.61-1.056 3.826 2.73 4.02-.389 6.8-2.506 10.398-.447 3.213-.484 5.905-.522 8.596.195 7.144.391 14.288.325 22.094-.195 1.4-.13 2.137-.063 2.875 1.955.546 3.077 1.513 3.47 2.933.03.105.05.215.071.325-.02-.11-.04-.22-.07-.325-.387-1.333-1.537-2.222-3.563-2.568.89 2.466 1.871 4.568 3.131 6.441.486-1.301.675-2.442.535-3.392.162 1.043-.013 2.301-.498 3.789-.168 1.68-.094 2.735-.02 3.791 2.175 1.6 3.716 3.296 4.626 5.986-.911-2.685-2.464-4.338-4.723-5.615 1.86 4.39 4.291 8.254 5.682 12.461 3.78 11.436 11.893 19.8 19.605 28.275.099-.852.249-1.63.154-2.197.098.572-.04 1.363-.093 2.277-.129.407.002.545.02.561l.001.002c1.66-.622 3.049-.863 3.723-.035-.644-.788-2-.485-3.574.289 1.277 1.322 2.405 2.39 3.738 3.057.352-1.613.292-2.629-.06-3.202.376.6.457 1.642.128 3.303-.127.47.046.613.069.629h.002c4.774-1.378 6.857 2.627 9.798 4.908-2.939-2.277-5.002-6.252-9.63-4.635 5.559 4.166 10.993 8.001 16.334 11.963 10.295 7.638 22.54 12.919 29.847 25.067-1.273 2.06-2.648 4.58-4.306 6.898-2.448 3.422-5.096 6.7-7.297 10.018 4.819-.841 6.413-5.034 8.996-8.092-2.582 3.058-4.176 7.253-8.988 8.098-.288.02-.349.013-.362.01h-.002l-.002-.003c-.748 1.014-1.497 2.028-2.617 3.03 1.122-1 1.869-2.016 2.317-2.938-1.099 1.036-1.896 1.98-2.319 2.938-.366-.012-.371-.016-.371-.016-1.734 8.379-3.553 10.61-9.15 10.525-.475-.132-.602.084-.602.084.182 2.124-.305 3.873-1.17 5.409.812-1.5 1.2-3.207.904-5.235-4.176 4.853-8.087 9.531-11.603 14.227 2.25-1.298 4.157-2.545 5.95-3.942 1.9-1.48 3.65-3.06 4.708-4.976-1.106 1.927-2.823 3.507-4.709 4.976-1.792 1.397-3.7 2.644-5.941 3.948-.313-.01-.379-.023-.393-.028l-.002-.002h-.002c.11 1.205.086 2.306-.476 3.075.49-.742.436-1.821.166-2.98-1.42 1.375-2.528 2.658-3.242 3.956.908.062 1.597-.026 2.113-.228-.573.25-1.35.377-2.397.343-.84.683-1.005 1.266-1.168 1.848-.525 1.83-.584 4.091-1.476 5.58.887-1.489.907-3.747 1.123-5.549-2.57 2.329-4.986 4.467-6.955 6.96-3.06 3.872-5.816 7.986-8.344 11.986 4.855-4.243 9.544-8.296 13.738-12.809-4.194 4.513-8.884 8.566-13.726 12.816-.28.017-.342.004-.356-.001l-.002-.002h-.002c-2.065 4.167-3.959 8.466-7.05 11.908 3.042-3.423 4.86-7.722 6.693-11.873-4.585 5.432-8.812 10.83-12.713 16.408a19 19 0 0 0 1.9-1.037 19 19 0 0 1-2.01 1.105c-.434-.113-.568.108-.568.108.043 1.126.533 2.61.188 3.427.343-.816-.17-2.285-.455-3.26-2.96 3.196-5.814 6.098-8.301 9.284-2.74 3.51-5.142 7.28-7.322 10.945.76-.39 1.481-.732 2.125-1.105-.642.373-1.359.72-2.112 1.113-.312 0-.366-.019-.375-.023-.375 1.355.388 3.44-.236 4.677.581-1.21-.266-3.275-.076-4.568-1.577 1.796-2.84 3.482-3.711 5.365 1.865.342 2.895.155 3.44-.33-.564.513-1.618.724-3.538.4-.46-.118-.6.053-.615.075l-.002.002c-.515 1.372-.81 2.9-1.498 4.15.685-1.249.95-2.757 1.229-3.984-5.164 6.837-10.06 13.51-14.598 20.164l-.274.125c-.769.377-.94.658-1.109.94-1.546 3.85-2.66 7.953-4.744 11.486 2.083-3.533 3.198-7.637 4.412-11.385-1.294 1.406-2.268 2.702-3.217 4.015-9.748 13.492-19.797 26.778-29.158 40.534-11.056 16.247-21.186 33.14-34.351 47.783 1.677-.84 3.41-1.59 4.939-2.506-1.542.924-3.304 1.692-5.05 2.572-.418-.11-.564.076-.58.1l-.003.002c1.134 2.82 1.032 4.773-3.348 3.943-.46-.117-.6.03-.615.049l-.002.002c.98 5.141-1.551 7.99-7.886 8.424-.343-.01-.4-.026-.409-.03.365 3.136-.374 5.66-2.771 7.163 2.387-1.5 3.076-4.009 2.451-7.06-4.434 4.374-8.549 8.643-12.264 12.927.62.18 1.16.254 1.64.24a3.3 3.3 0 0 0 1.26-.277q.277-.123.52-.29.244-.167.461-.369v.002a4 4 0 0 1-.46.368q-.244.166-.52.289a3.3 3.3 0 0 1-1.262.277c-.478.014-1.019-.058-1.639-.238l-.404-.014c-.125 6.058-2.362 8.591-8.135 8.557-.428-.13-.564.02-.58.039l-.002.002c-.736 1.014-1.473 2.027-2.478 3.027a13.8 13.8 0 0 0 2.22-2.877c-1.177 1.184-2.098 2.218-2.63 3.272h-.002c-.39-.02-.391-.018-.391-.018-.215 2.335.926 5.726-4.117 4.539-.447-.12-.585.03-.6.049l-.002.002c-.281 1.754-.078 3.929-.644 5.437.558-1.503.312-3.649.373-5.261-6.989 6.954-13.706 13.732-20.06 20.714 1.677-.185 3.441-.159 4.753-.61l-.002.001c-1.316.455-3.098.44-4.844.674-.424-.13-.562.023-.578.043l-.002.002c.35 2.73-.602 5.624-2.318 7.96 1.638-2.302 2.515-5.141 2.047-7.782-3.853 4.183-7.434 8.191-10.797 12.472.61.057 1.22.034 1.82-.058a8.3 8.3 0 0 1-2.154.113c-1.002.419-1.452 1.058-1.902 1.695 2.093 3.377.734 4.25-3.123 3.53-.443-.119-.582.059-.598.082v.001c-1.345 2.194-2.309 4.785-4.102 6.514 1.793-1.73 2.756-4.318 3.815-6.338-8.844 7.731-17.517 15.161-25.918 22.887-5.522 5.078-10.466 10.565-18.024 13.12-5.898 1.992-11.17 5.769-16.937 8.25-8.231 3.54-16.657 6.625-24.78 10.171l-.415.072c-.988-.176-1.423-.115-1.858-.054-.639 1.904-1.698 2.976-3.207 3.343 1.421-.356 2.41-1.451 2.842-3.43-2.466.895-4.567 1.876-6.45 3.133 1.21.377 2.288.514 3.208.377-1.014.158-2.212.032-3.604-.343-1.669-.166-2.724-.088-3.779-.01-.683 3.444-2.795 4.269-6.23 4.89 3.435-.621 5.547-1.445 5.859-4.982-6.263 1.89-12.242 3.649-18.025 5.906-7.957 3.106-15.766 6.588-23.385 10.202a28 28 0 0 0 2.87-.15c-.97.107-2.02.16-3.212.183-1.372.04-2.15.34-2.926.638-.361 3.359-1.188 4.906-3.488 5.254 2.268-.35 3.015-1.892 3.127-5.228-2.785 1.68-5.208 3.334-7.262 5.02L78 672c-1.059 1.008-2.117 2.017-3.33 3.014 1.193-.997 2.186-2.001 2.99-2.993-1.765 1.336-3.194 2.651-4.262 3.987l-.025.02c-.302-.022-.355-.017-.363-.014h-.002c.163 4.362-3.728 5.304-6.188 7.453 2.456-2.147 6.31-3.08 5.858-7.358-8.835 5.895-15.925 13.113-21.076 22.004-4.91 8.474-9.605 17.096-13.883 25.9-2.642 5.437-4.328 11.338-6.094 16.98 1.316-.879 2.83-1.559 3.625-2.493-.798.944-2.322 1.673-3.703 2.813-.458.811-.489 1.251-.52 1.69 1.576 5.287 2.185 10.439-2.511 15.392-.463 2.188-.497 3.893-.532 5.6.265.578.711 1.159.877 1.737-.178-.57-.688-1.116-1.25-1.515-.422 10.904-.493 21.586-.484 32.267 0 .842.56 1.682 1.162 2.235.431-11.046.577-21.801.64-32.559-.063 10.758-.21 21.514-.609 32.985-.205 2.415-.139 4.117-.072 5.818 3.934 1.75 3.926 5.044 3.098 9.23-.182 2.702-.107 4.732-.032 6.762 2.657 1.126 4.209 2.754 4.69 5.23-.487-2.455-2.059-4.01-4.787-4.85.883 3.759 1.83 7.146 2.853 10.51 2.43 7.994 3.969 16.427 7.586 23.844C45.9 864.391 51.963 872.206 57.438 880c.946-2.138.736-3.63.015-4.84.74 1.23.976 2.756.053 4.955-.123.487.07.636.096.653l.002.002c2.178-1.27 3.328-.463 4.181.757-.837-1.187-1.947-1.916-4.01-.476 4.188 5.173 8.204 10.065 12.237 14.586-2.257-4.21-4.385-8.148-6.867-11.846 2.482 3.698 4.609 7.635 6.869 11.842-.014.367-.022.373-.022.373 2.684-.035 4.34 1.108 5.291 3.21-.947-2.084-2.585-3.166-5.193-2.894 2.034 2.106 3.97 3.894 5.92 5.31l.002-.001a6 6 0 0 1-.016.37c4.225.133 8.909 3.98 10.018 8.62a3 3 0 0 1-.024.383l-.002.002v.002c3.092 1.783 6.017 4.009 9.313 5.252-3.296-1.243-6.22-3.469-9.21-4.926 20.394 18.899 43.92 32.46 68.419 44.113q.29.242.584.49c.745.76 1.332.886 1.918 1.014 1.714.07 3.682-.336 5.197.108-1.514-.439-3.469.007-5.08.232 3.908 2.463 7.617 4.752 11.512 6.662 3.696 1.813 7.587 3.228 11.341 4.467-2.47-1.713-4.965-2.956-7.289-4.463 2.324 1.507 4.819 2.751 7.61 4.541.81.466 1.25.502 1.687.54 4.384.442 8.983-.093 12.889 2.392-3.904-2.48-8.488-1.908-12.733-2.065a506 506 0 0 0 20.823 8.01c4.32 1.558 8.711 2.92 13.027 4.037-1.006-1.837-1.976-3.436-3.605-3.875 1.656.44 2.697 2.058 3.925 3.951.803.447 1.242.484 1.68.52 1.533.233 3.05.528 4.59.736a132 132 0 0 0-4.438-.402c3.298 1.51 6.428 2.732 9.594 3.853 8.092 2.865 16.2 5.683 24.299 8.131-.293-1.049-.45-2.237-.822-2.726.381.49.584 1.69 1.142 2.808.763.507 1.202.545 1.641.582 3.512-.54 6.959-.935 9.941.975-2.978-1.898-6.403-1.452-9.798-.637 4.111 1.959 8.03 3.716 12.064 5.158 3.544 1.268 7.216 2.181 10.754 2.907-1.238-2.421-2.804-3.888-4.879-4.391 2.102.506 3.739 1.99 5.2 4.469.837.457 1.277.492 1.716.527 3.318.5 6.66.884 9.945 1.543a68 68 0 0 0-9.799-1.205c4.003 1.862 7.84 3.44 11.721 4.9 6.712 2.527 13.451 4.982 20.16 7.184-.088-1.305-.159-2.327-.16-2.342.001.015.071 1.037.48 2.424.78.396 1.22.426 1.66.457 2.578-1.132 4.94-1.655 7.268-.217-2.323-1.426-4.664-.851-7.127.557 9.724 4.045 19.307 7.75 28.89 11.09-.034-2.32-.754-3.413-2.32-3.809 1.583.399 2.363 1.507 2.64 3.89.76.48 1.2.511 1.638.544 3.088-.832 6.219-1.892 8.715.166-2.491-2.046-5.597-.936-8.547.164 4.212 1.788 8.24 3.293 12.303 4.695 7.514 2.592 15.049 5.124 22.527 7.322-.653-2.14-1.723-3.187-3.254-3.812 1.565.63 2.72 1.693 3.617 3.894 1.155.48 1.898.519 2.641.557 3.158-2.134 5.302-.88 7.309 2.498.808.458 1.247.493 1.685.527 5.201 1.046 10.414 2.03 15.594 3.172-5.18-1.142-10.393-2.127-15.422-2.84 9.741 3.337 19.31 6.342 28.8 9.002-1.252-2.378-2.794-3.779-4.86-4.302 2.092.527 3.706 1.947 5.183 4.384.841.455 1.283.486 1.725.516 3.138-2.061 5.283-.813 7.345 2.506 1.154.467 1.896.509 2.64.55 3.964.517 7.989.764 11.876 1.63-3.887-.866-7.912-1.113-11.723-1.295 5.266 2.082 10.364 3.869 15.493 5.562 3.106 1.026 6.262 1.909 9.388 2.46-.873-1.207-1.611-2.42-2.582-3.04.975.62 1.749 1.841 2.903 3.113.765.505 1.204.538 1.642.57 2.319.001 4.735-.421 6.936.089-2.2-.51-4.617-.088-6.77.248 8.798 3.111 17.42 5.925 26.069 8.646 4.242 1.335 8.54 2.498 12.81 3.352-.302-1.11-.471-2.413-.871-2.819.404.407.609 1.718 1.191 2.897.762.502 1.2.539 1.639.576 2.845-1.287 5.588-1.856 8.004.021-2.413-1.869-5.136-1.256-7.856.317a910 910 0 0 0 37.815 12.037c-1.73-1.258-3.328-2.58-5.033-3.5 1.722.923 3.382 2.26 5.353 3.58.842.459 1.282.496 1.721.533 3-2.246 4.514-.211 6.355 2.48 1.157.45 1.902.484 2.647.516 4.903.91 9.816 1.768 14.703 2.754-4.887-.986-9.802-1.844-14.549-2.42 8.087 3.08 15.973 5.965 23.965 8.518 4.888 1.561 9.94 2.612 14.914 3.496-.825-1.107-1.544-2.28-2.426-2.879.892.601 1.661 1.785 2.746 2.957.764.514 1.201.553 1.64.592 1.96.196 3.93.336 5.892.527-1.942-.156-3.883-.19-5.756-.18 5.229 2.091 10.305 3.88 15.418 5.56 3.135 1.03 6.325 1.894 9.478 2.462-1.532-1.266-2.99-2.476-4.545-3.414 1.572.942 3.091 2.165 4.868 3.49.773.475 1.213.501 1.654.528 3.168-2.126 5.136-.295 7.344 2.523 1.155.457 1.898.496 2.64.535 3.283.362 6.734.235 9.88.998-3.144-.758-6.576-.596-9.72-.672 9.738 3.335 19.316 6.344 28.817 9.014-5.958-2.925-11.714-5.88-17.77-7.957 6.056 2.077 11.811 5.033 18.09 8.039.837.457 1.276.495 1.715.533 3.077-1.857 5.29-.756 7.342 2.485.775.47 1.213.5 1.652.533 2.083.178 4.18.291 6.266.459-2.063-.133-4.122-.14-6.108-.125 8.399 3.03 16.64 5.728 24.875 8.039-1.09-1.416-2.015-2.917-3.23-3.697 1.22.781 2.185 2.289 3.596 3.771 1.113.497 1.855.534 2.597.57 1.764-1.077 3.28-1.29 4.63-.734-1.307-.478-2.786-.183-4.474 1.063 2.717 1.11 5.278 1.893 7.803 2.314l-.16-.277q.176.285.35.591c1.437.782 2.65.887 3.863.993 1.726.231 3.444.507 5.174.72-1.693-.163-3.38-.296-5.026-.377 8.396 3.026 16.643 5.708 24.885 8.024-1.386-1.259-2.693-2.47-4.11-3.399 1.436.934 2.813 2.16 4.473 3.483 1.112.492 1.856.532 2.6.574 3.156-2.104 5.306-.887 7.299 2.516.817.445 1.257.472 1.697.5 3.2-.694 6.185-.355 9.067.474-2.855-.786-5.798-1.014-8.895-.142 9.193 3.322 18.205 6.34 27.236 9.295a2940 2940 0 0 0 26.217 8.453c4.113 1.302 8.276 2.45 12.408 3.281-.8-1.154-1.474-2.383-2.34-3.04.876.659 1.6 1.9 2.66 3.116.768.498 1.206.532 1.645.565 3.97-1.982 6.902-.83 9.395 3.398 1.495.476 2.556.519 3.617.563 1.486.17 2.96.396 4.451.54a100 100 0 0 0-4.297-.197c7.681 2.784 15.209 5.228 22.736 7.284l.292.355c1.734.828 3.273.934 4.812 1.039 2.731-1.219 5.364-1.82 7.709-.203-2.34-1.605-4.95-.953-7.559.539 3.897 1.695 7.606 3.171 11.397 4.389 8.478 2.722 16.997 5.315 25.418 7.623-1.494-1.25-2.843-2.616-4.317-3.508 1.493.896 2.91 2.278 4.678 3.592 1.188.468 1.933.514 2.676.56 2.958-2.173 4.755-.96 6.353 2.467 1.155.473 1.897.515 2.64.557 3.493.265 7.057.191 10.462.888-3.405-.697-6.969-.623-10.307-.554a239 239 0 0 0 15 5.53 68 68 0 0 0 9.887 2.487c-1.088-1.411-2.012-2.91-3.226-3.685 1.218.776 2.178 2.281 3.546 3.761.763.495 1.204.527 1.643.559 4.707-1.609 9.691-.278 11.357 3.414.764.51 1.204.547 1.643.586 3.986.549 8.003.939 11.947 1.705-3.944-.766-7.962-1.156-11.802-1.365 8.396 3.02 16.646 5.701 24.845 8.039-1.975-1.681-3.773-3.274-5.855-4.287 2.082 1.013 3.88 2.607 6.178 4.367.813.454 1.253.486 1.693.517.92-.271 1.944-.91 2.781-.896-.835-.01-1.843.667-2.621 1.238 3.69 1.429 7.255 2.417 10.742 3.621 11.397 3.938 22.73 8.063 34.16 11.897 6.238 2.092 12.617 3.759 18.944 5.58 3.997 1.15 8.015 2.232 12.02 2.955-.734-1.062-1.367-2.221-2.135-2.889.784.67 1.48 1.843 2.455 2.965.764.5 1.205.533 1.644.567 3.715.608 7.435 1.193 11.14 1.857-3.705-.664-7.425-1.25-10.972-1.521 4.68 1.869 9.177 3.45 13.707 4.925 7.713 2.514 15.447 4.962 23.121 7.08-.961-.954-1.845-1.987-2.771-2.816.978.842 1.964 1.886 3.16 2.899 1.498.483 2.556.528 3.615.574 2.996-2.217 4.539-.274 6.31 2.49.81.448 1.25.482 1.688.516 5.355.9 10.731 1.691 16.055 2.748a186 186 0 0 0-15.883-2.416c1.242.685 2.306 1.063 3.385 1.388 7.825 2.361 15.652 4.71 23.46 6.678-1.102-1.214-2.087-2.364-3.259-3.055 1.177.693 2.198 1.858 3.59 3.188 1.456.812 2.564 1.104 3.672 1.398 2.797-.924 5.918-2.98 7.384 2.485 1.11.507 1.855.544 2.598.582 6.163-1.017 11.456.701 16.299 5.466.828.44 1.268.471 1.709.502 3.485-3.181 5.38-1.11 7.303 2.516.81.452 1.248.483 1.687.516 5.429-1.822 8.039-.974 9.446 3.39 1.443.496 2.5.548 3.558.6 1.983-.142 3.99-.532 5.941-.346-1.951-.186-3.958.204-5.794.686 7.395 3.022 14.645 5.704 21.892 8.006-.369-2.74-1.7-3.74-3.361-4.143 1.747.402 3.19 1.406 3.683 4.219.766.488 1.206.518 1.647.549.92 0 1.877-.122 2.797-.122.362 0 .723.005 1.066.065a5.3 5.3 0 0 0-1.066-.065c-.903.03-1.827.246-2.65.454 7.076 3.272 14.086 6.038 20.917 9.193 10.456 4.828 20.788 9.923 31.373 14.545-.085-1.421-.493-2.549-1.1-3.457.634.932 1.066 2.097 1.17 3.57-.121.444.077.584.102.6l.002.002c.763.177 1.526.354 2.336.885.048.354.043.355.043.355.355.25.712.498 1.094.848q-.546-.413-1.063-.508.958 1.108 1.834 1.324.115.139.235.295c.743.742 1.324.886 1.906 1.03.752.42 1.51.95 2.264 1.388-.728-.385-1.457-.77-2.16-1.063 2.03 1.452 3.957 2.578 5.87 3.354-.12-.088-.237-.147-.357-.233.121.086.24.135.361.223.015.276.008.335.004.348v.002h-.002v.002c1.288.551 2.546 1.16 3.84 1.699a100 100 0 0 0-3.724-1.363c3.47 2.922 6.826 5.506 10.37 7.713-.05-.956-.034-2.024-.183-2.78.156.764.16 1.856.254 2.866-.112.435.041.565.06.58l.003.001c.706.41 1.414.82 2.13 1.3a18 18 0 0 0-1.968-1.032c1.38 1.068 2.626 1.915 3.847 2.469q.222.195.446.404c.367.787.645.964.923 1.14 1.907-.157 3.567-.009 3.967 1.94-.397-1.937-2.044-2.04-3.877-1.629 1.369 1.436 2.649 2.56 3.94 3.287-.01.39-.014.397-.014.397.51.38 1.091.906 1.613 1.31-.512-.37-1.025-.73-1.513-1.004 1.38 1.35 2.662 2.39 3.945 3.07-.393-.398-.781-.702-1.172-1.04.472.395.88.656 1.39 1.13.218.452.678.557.678.557 2.492 1.014 5.163 1.85 6.567 4.06.647 1.019 1.027 2.327.994 4.081-.109.429.085.572.11.588l.001.002c.946.298 2.1.366 2.885.842-.783-.472-1.918-.511-2.715-.57 7.515 8.511 14.862 16.753 22.217 24.624-1.357-2.345-2.624-4.674-3.951-6.908 1.328 2.232 2.596 4.557 3.957 6.897-.002.29-.016.355-.022.369l-.002.002v.002c.401.26.8.517 1.18.834a4.8 4.8 0 0 0-1.095-.55c.636.692 1.203 1.145 1.95 1.438q.145.192.278.41c.44.969 1.07 1.425 1.701 1.881.843.152 1.948.025 2.54.442-.591-.416-1.69-.27-2.427-.118 6.376 7.428 12.64 14.53 18.924 21.3.887-1.564.958-2.786.576-3.842.413 1.103.378 2.407-.472 4.123.436 1.084.79 1.554 1.146 2.025.89.464 1.78.929 2.696 1.717.02.263.014.319.011.33v.002c1.76 1.135 3.805 1.992 5.229 3.455-1.424-1.463-3.47-2.32-5.197-3.106 7.024 8.764 13.51 17.676 22.982 23.29a35 35 0 0 0-1.342-2.2c.451.67.889 1.396 1.348 2.192-.004.293-.018.356-.022.369v.002c1.863.357 3.842.547 5.135 1.781-1.266-1.192-3.228-1.308-5.027-1.465 2.125 1.906 4.142 3.497 6.353 4.736-.087-1.21-.4-2.094-.867-2.746.492.677.828 1.59.936 2.85-.126.455.086.586.086.586 3.115 1.567 6.2 3.195 9.355 4.68-3.154-1.485-6.241-3.113-9.183-4.409 4.62 3.031 8.888 6.154 13.556 8.467 8.106 4.017 16.46 7.532 24.66 10.914-4.237-2.7-8.416-5.072-12.619-7.4 4.203 2.328 8.382 4.701 12.94 7.48.808.465 1.245.504 1.683.545 5.38.865 10.786 1.601 16.127 2.662-5.341-1.06-10.747-1.796-15.988-2.322 7.395 2.015 14.651 3.691 21.82 5.026-1.747-1.008-3.376-2.02-5.09-2.522 1.72.503 3.393 1.523 5.498 2.596 1.88.448 3.263.48 4.647.511 7.815-.545 15.646-.933 23.44-1.703-7.794.77-15.625 1.158-23.231 2.084 13.34.361 26.573 2.039 39.408-2.426 7.074-2.46 14.242-4.652 21.113-7.255-.503-.352-.832-.592-1.09-.596.261.003.625.24 1.428.557 1.371-.044 2.15-.34 2.928-.635 1.092-1.326 2.055-2.796 3.32-3.928-1.265 1.132-2.227 2.603-2.943 3.914 10.369-4.108 19.947-8.909 27.697-16.478-1.833.035-3.956-.263-5.242.215 1.289-.48 3.426-.191 5.336-.278.394.142.535-.013.55-.033l.003-.002c-.705-1.776-1.074-3.136-.092-4.002-.948.853-.515 2.173.369 3.828 3.457-2.804 6.645-5.44 9.64-8.32q.246-.112.497-.215c.98-.418 1.43-1.043 1.88-1.668.926-2.351 2.077-4.524 3.354-6.601a35.8 35.8 0 0 0-3.002 6.556c7.116-7.692 13.88-15.34 20.26-23.004-.751.343-1.44.656-2.059.992.619-.336 1.303-.65 2.051-.996.307.011.372.022.385.026h.002c.4-.5.868-.997 1.287-1.496-.365.477-.695.947-.975 1.406 1.43-1.366 2.548-2.641 3.293-3.932l.008-.008c.38.017.375.012.375.012 1.51-4.145 3.47-7.868 6.846-10.377-3.347 2.504-5.233 6.204-6.524 10.278 4.43-4.366 8.54-8.631 12.264-12.913l.02-.005c.298.017.365.008.38.003h.004v-.002h.002l4.291-9.027c-1.41 2.966-2.85 5.997-3.97 8.928 3.105-3.027 5.89-5.955 8.31-8.904h.01c.302.02.353.014.361.011h.002c.604-.8 1.208-1.6 1.936-2.367a11.6 11.6 0 0 0-1.639 2.291c1.233-1.11 2.17-2.144 2.774-3.357q.047-.04.095-.078c.4.111.54-.035.555-.053l.002-.002c-.739-1.983-1.22-3.704.209-4.817-1.41 1.105-.879 2.792.056 4.645 2.984-2.954 5.7-5.736 8.084-8.707a12 12 0 0 0-1.04.527c.366-.21.744-.412 1.14-.59.405.12.548-.041.564-.062l.002-.002c-.922-2.32-.444-3.633.575-4.545-.952.887-1.33 2.16-.303 4.375 5.605-6.903 14.344-7.782 20.736-12.52-1.997-.09-3.971-.323-5.756-.132 1.806-.195 3.849.031 6.082.097 1.031.193 1.465.129 1.897.065-.526-4.57 3.314-4.517 5.91-5.027-2.596.51-6.437.455-5.523 5.113 15.162-4.578 30.304-6.433 45.77-5.883 9.736.347 19.491.38 29.208 1.018 10.938.716 21.847 1.884 32.754 3.007 3.015.311 5.975 1.162 8.953 1.366-.955-1.116-1.845-2.421-2.83-2.965.998.544 1.951 1.864 3.238 3.045 1.794.515 3.173.55 4.553.588 2.34-.24 4.767-.943 7.035-.8-2.265-.139-4.669.605-6.834 1.153 2.932.763 5.664 1.167 8.395 1.584 3.818.584 7.633 1.178 11.351 1.414-4.04-1.625-7.91-3.28-11.949-4.033 4.04.753 7.909 2.408 12.34 4.111 1.55.467 2.611.503 3.672.54 2.019-.151 4.051-.534 6.053-.409-2.002-.125-4.034.258-5.873.772 2.402.776 4.615 1.25 6.85 1.593 10.871 1.671 21.736 3.39 32.628 4.92 5.768.81 11.586 1.267 17.328 1.524-.864-2.734-2.67-3.755-4.62-4.102 1.99.35 3.902 1.387 5.048 4.178 2.514.467 4.547.5 6.58.531 1.332-.255 2.665-.673 3.996-.85-1.322.192-2.618.68-3.783 1.23 8.917.438 17.621.553 26.324.515 1.822-.008 3.642-.583 5.176-1.201-9.047-.43-17.808-.612-26.568-.633 8.76.021 17.52.204 26.939.603 1.399.214 2.139.152 2.879.092 2.444-2.407 4.967-4.499 8.476-4.777-3.503.28-5.98 2.383-8.058 4.873 14.865-1.555 27.337-7.91 38.646-16.305-1.325-.033-2.555-.172-3.568.012 1.018-.188 2.267-.062 3.664-.078.457.128.603-.03.62-.051l.001-.002c-.823-3.12.46-4.828 2.274-6.127-1.782 1.284-2.989 2.954-1.99 5.965 3.854-3.19 7.424-6.217 10.603-9.262-1.486.268-2.88.338-4.04.701 1.16-.364 2.552-.436 4.03-.709.31.01.377.024.39.03l.003.002c-.027-2.487.602-4.318 4.135-3.563.417.128.556-.017.572-.035l.002-.002c-.777-1.832-.993-3.394.084-4.408-1.05 1.003-.774 2.526.191 4.234 3.516-2.875 6.755-5.577 9.758-8.559-.96-.556-1.732-.737-2.383-.673.727-.114 1.602.041 2.715.63 1.033-.384 1.498-1.007 1.963-1.63l-2.016-1.668c.801.662 1.409 1.165 2.34 1.549 9.56-7.8 18.795-15.478 27.7-23.348-2.68.799-5.064 1.98-7.266 3.4 2.228-1.442 4.643-2.645 7.361-3.463.4.12.546-.031.563-.05l.001-.002c-1.305-3.034-.133-4.495 1.584-5.555-1.684 1.045-2.777 2.47-1.296 5.395 3.519-2.864 6.752-5.567 9.593-8.282-.98.18-1.914.278-2.767.428.853-.15 1.786-.25 2.765-.43.39.011.391.016.391.016.075-1.862.418-3.4 1.402-4.219-.902.807-1.158 2.34-1.05 4.19 2.117-1.343 3.883-2.655 5.416-4.252-1.275-.479-2.28-.63-3.06-.518.847-.146 1.944-.014 3.362.47 1.003-.062 1.468-.363 1.934-.663.317-2.385 1.901-4.499 4.387-6.004-2.402 1.495-3.899 3.602-4.026 5.97 4.451-2.685 8.54-5.338 12.408-8.269q-1.208.037-2.34.201a22 22 0 0 1 2.641-.246c.994-.056 1.466-.345 1.938-.635.75-.582 1.5-1.164 2.328-1.72a20 20 0 0 0-1.99 1.699c1.722-.98 3.168-1.942 4.335-3.057q.346-.169.715-.33c.91.104 1.12-.022 1.328-.148-1.99-1.568-1.87-2.482-.943-3.145-.895.65-.95 1.53 1.184 3 7.735-3.84 15.234-7.54 22.52-11.508q.3-.09.605-.177c.988.187 1.426.12 1.863.056 1.03-3.01 3.018-4.239 5.9-4.681-2.877.443-4.824 1.683-5.523 4.779 3.56-.897 6.722-1.962 9.928-2.871 8.223-2.332 16.466-4.596 24.459-7.168l.44-.047c1.695.187 2.748.126 3.804.064.635-1.853 1.664-2.928 3.13-3.32-1.376.384-2.331 1.482-2.763 3.408 2.466-.895 4.567-1.877 6.45-3.136-1.176-.369-2.225-.505-3.124-.385.998-.144 2.171-.019 3.535.35 2.01.175 3.39.11 4.768.044.107-2.866 1.534-3.688 3.25-4.011-1.66.337-2.968 1.202-2.86 4.105 4.607-.903 8.84-1.834 13.034-2.91 7.543-1.935 15.063-3.956 22.351-6.229.138-.007.247-.03.385-.037 1.356.19 2.097.123 2.838.057 2.502-2.569 5.326-4.044 8.6-4.455 2.002-.252 4.17-.11 6.54.435 1.385.194 2.124.132 2.864.07 2-4.44 4.753-5.398 10.162-3.099.966.204 1.401.149 1.838.094 3.382-1.578 6.634-3.638 10.183-4.604-3.549.966-6.801 3.027-9.779 4.7 5.656-.915 10.946-1.77 16.143-3.008 2.26-.539 4.334-1.864 6.256-3.116-2.186.122-4.342.207-6.45.397 2.175-.197 4.45-.293 6.862-.434 2.027.177 3.404.107 4.78.037 1.169-2.125 2.719-3.275 4.724-3.564-1.913.272-3.392 1.45-4.338 3.66 3.137-.886 5.892-1.87 8.406-3.139-1.467-.495-2.799-.684-3.969-.538 1.268-.163 2.715.011 4.365.505 1.697.185 2.754.117 3.811.047 2.043-2.357 4.363-3.79 7-4.402-2.547.617-4.767 2.09-6.605 4.504 5.145-1.2 9.897-2.502 14.367-4.104-2.233-.642-4.317-.875-6.235-.672 2.004-.213 4.183.004 6.563.641 1.045.208 1.48.148 1.916.088 1.395-1.146 2.68-2.874 4.14-3.676-1.447.805-2.67 2.55-3.742 3.77 8.134-1.879 15.868-3.852 23.35-6.11.145-.01.263-.033.408-.043 1.367.199 2.108.143 2.848.086 1.927-4.639 5.75-3.925 10.187-3.11 2.049.186 3.427.114 4.805.04 1.022-3.011 2.988-4.257 5.877-4.678-2.883.422-4.808 1.678-5.494 4.77 4.262-.895 8.146-1.862 12.017-2.875 7.542-1.974 15.074-3.975 22.36-6.26l.388-.03c1.368.206 2.11.14 2.852.075.924-3.014 2.672-4.477 5.625-4.775-2.948.3-4.654 1.773-5.24 4.874 8.728-2.35 17.106-4.686 25.398-7.294 5.106-1.607 10.086-3.62 14.902-5.727l.53-.096c1.675.172 2.73.101 3.785.03.603-2.1 1.694-3.24 3.305-3.54-1.532.286-2.554 1.451-2.942 3.631 2.463-.893 4.563-1.88 6.438-3.146-1.301-.477-2.44-.656-3.389-.508 1.03-.165 2.264.002 3.719.479.993.194 1.431.136 1.869.078 1.68-2.023 3.301-4.1 5.785-4.713-2.463.62-4.01 2.717-5.4 4.812 9.794-3.193 19.205-6.485 28.386-10.05l.374-.053c.992.178 1.427.116 1.86.055.575-2.13 1.655-3.265 3.26-3.563-1.522.28-2.534 1.44-2.892 3.65 2.466-.896 4.565-1.878 6.436-3.14-1.304-.485-2.447-.677-3.399-.54 1.04-.156 2.294.022 3.772.507 1.34.174 2.078.103 2.818.03-.264-2.53.85-3.745 2.932-4.437-2.076.694-3.15 1.919-2.561 4.528 2.558-.881 4.687-2.021 6.941-2.793 9.837-3.37 19.707-6.632 29.325-10.213l.49-.1c1.009.187 1.444.13 1.879.07.835-1.136 1.506-2.851 2.435-3.656-.918.807-1.528 2.536-2.05 3.744 3.603-.916 6.876-1.776 10.029-2.959a172 172 0 0 0 14.303-6.107l.47-.088c1.332.169 2.07.1 2.809.031.636-.915 1.114-2.305 1.871-2.853-.751.55-1.188 1.95-1.492 2.943 6.645-1.986 13.01-3.811 19.154-6.203 7.535-2.933 14.89-6.328 22.102-9.8l.511-.128c.987.175 1.42.11 1.854.045.557-2.518 1.654-4.344 3.98-4.718-2.314.378-3.354 2.216-3.613 4.806 11.114-4.245 21.913-8.454 32.588-12.957 6.444-2.718 12.697-5.889 18.82-9.135l.371-.054c.983.189 1.42.133 1.856.078.634-.929 1.092-2.139 1.865-2.85-.767.713-1.184 1.933-1.5 2.94 4.937-2.19 9.551-4.385 14.068-6.768 5.536-2.92 10.99-5.995 16.28-9.271q.226-.061.46-.118c1.317-.078 2.088-.385 2.86-.693.62-1.044 1.036-2.49 1.773-3.305-.725.815-1.083 2.256-1.402 3.278 6.91-3.072 13.55-5.926 19.967-9.21 9.314-4.764 18.505-9.77 27.678-14.804a495 495 0 0 0 22.44-13.06l.62-.233c.994-.06 1.46-.362 1.926-.662-.307-3.973 2.384-4.084 5.848-4.088.82-.33.992-.608 1.164-.887 3.345-2.628 6.597-5.388 10.054-7.859-3.457 2.471-6.71 5.231-9.681 7.834 2.916-1.344 5.576-2.48 7.982-4.014 9.842-6.273 19.624-12.644 29.393-19.031 4.59-3.002 9.1-6.124 13.26-9.398-1.395.282-2.624.61-3.76 1.044 1.144-.44 2.398-.782 3.875-1.113.502.14.64-.09.64-.09l-.023-3.832c.653.277 1.309.552 2.412 1.084.906-.061 1.36-.378 1.816-.695.28-1.066.274-2.392.772-3.258-.493.865-.451 2.18-.441 3.162 2.91-2.068 5.868-3.701 7.998-6.078 5.755-6.423 11.16-13.162 16.312-19.785-1.366.857-2.7 1.651-3.945 2.486-1.246.835-2.402 1.71-3.418 2.727 1.016-1.017 2.173-1.891 3.418-2.727s2.576-1.63 3.94-2.49c.312.005.375.015.388.018h.004c.42-.824.986-1.775 1.437-2.625a26 26 0 0 0-1.113 2.506c1.351-2.057 2.38-3.995 3.063-5.883-.487.728-.88 1.441-1.28 2.154.459-.83.795-1.553 1.358-2.475.455-.81.486-1.25.517-1.691.826-4.403 1.536-8.834 2.541-13.195-1.005 4.361-1.715 8.792-2.203 13.039 3.548-9.679 8-18.846 8.72-29.084a16.1 16.1 0 0 0-.323-4.53c-2.426 4.619-4.661 8.997-4.418 14.057-.245-5.067 1.988-9.495 4.388-14.523.188-16.709.122-32.718.057-48.727-1.588.07-2.915-.099-3.475-1.271.566 1.145 1.915 1.226 3.569.861-.896-5.146-1.886-9.88-3.182-14.396-.416 4.033-.44 7.851-.662 11.66.221-3.809.246-7.628.635-11.993.225-.987.172-1.424.117-1.86-1.542-3.773-3.574-7.43-4.5-11.348.926 3.917 2.956 7.575 4.596 10.916-.24-3.18-.294-6-.971-8.66-1.45-5.694-3.221-11.305-5.139-16.727.164 2.941.28 5.84.573 8.674-.3-2.882-.427-5.884-.616-9.069.166-1.673.098-2.728.028-3.783-.626-1.255-1.251-2.51-1.832-3.865a28 28 0 0 0 1.927 3.5c-.85-2.378-1.789-4.417-2.98-6.254a32 32 0 0 1-.172-.533c.176-.976.112-1.412.049-1.848-2.12-2.24-4.004-4.482-4.657-7.432.66 2.929 2.564 5.094 4.755 7.038a168 168 0 0 0-2.893-10.961c-2.257-7.528-4.568-15.041-7.135-22.323l-.078-.498c.189-1.351.129-2.092.068-2.832-1.847-.628-2.918-1.65-3.318-3.103.392 1.364 1.486 2.311 3.402 2.736-.902-2.465-1.89-4.562-3.156-6.443-.352 1.146-.485 2.173-.377 3.058-.13-.981-.007-2.132.346-3.46-.052-2.356-.349-4.093-.647-5.83-2.698.194-3.528-1.08-3.953-3.257.424 2.172 1.253 3.401 3.936 2.858-.705-2.832-1.341-5.282-2.092-7.695-1.957-6.291-3.964-12.563-6.23-18.62-.01-.132-.034-.234-.044-.367.187-.994.123-1.43.06-1.867-1.785-1.87-3.25-3.858-3.936-6.234.684 2.283 2.18 4.188 4.03 5.843-1.2-4.144-2.496-7.898-4.075-11.408-.332 1.328-.422 2.557-.317 3.7-.127-1.242-.05-2.589.287-4.07.193-1.356.132-2.097.07-2.837-4.794-.867-3.983-4.242-3.109-8.11.198-1.015.136-1.449.073-1.884-1.105-1.246-2.748-2.352-3.428-3.709.682 1.351 2.334 2.415 3.521 3.324-1.875-6.459-3.846-12.535-6.097-18.375l-.047-.44c.184-1.69.114-2.745.045-3.802-2.13-.621-3.272-1.743-3.545-3.404-.17-1.031-.005-2.268.47-3.727.185-.993.121-1.43.057-1.867-2.488-2.027-4.117-4.351-4.582-7.195.453 2.757 2.112 5.008 4.678 6.808-1.206-4.474-2.509-8.562-4.108-12.38a13.8 13.8 0 0 0-.63 2.843 15 15 0 0 1 .601-3.174c.204-1.034.143-1.47.08-1.906-2.853-1.248-4.642-2.862-5.039-5.578.402 2.695 2.208 4.236 5.125 5.197-1.883-6.473-3.854-12.565-6.107-18.42q0 .023.002.045l-.032-.416c.192-1.35.13-2.09.067-2.83-1.848-.506-2.946-1.395-3.397-2.681.452 1.198 1.576 2.001 3.48 2.32-.896-2.464-1.878-4.566-3.14-6.44-.384 1.044-.577 1.981-.568 2.803-.033-.92.145-1.98.539-3.201.175-1.682.101-2.738.027-3.795-3.365-.425-4.589-2.143-4.8-5.1.213 2.952 1.447 4.628 4.894 4.725-.91-3.75-1.831-7.15-2.936-10.49-1.893-5.728-3.9-11.418-6.142-16.899-.013-.134-.04-.24-.053-.375.185-.993.122-1.427.059-1.863-2.235-2.127-3.592-4.553-4.088-7.39.488 2.748 1.875 5.101 4.185 6.997-1.206-4.478-2.509-8.565-4.093-12.398-.354 1.928-.387 3.725-.096 5.379-.302-1.74-.283-3.632.062-5.707.19-1.015.132-1.45.073-1.885-1.358-1.624-3.298-3.07-4.196-4.834.899 1.759 2.849 3.163 4.285 4.45-.914-4.104-1.777-7.867-2.957-11.528a227 227 0 0 0-6.173-16.89c-.19.67-.358 1.282-.436 1.849.071-.62.227-1.332.4-2.246.179-1.687.11-2.741.04-3.797-3.838-1.04-3.873-3.98-4.149-6.783.28 2.783.336 5.647 4.242 6.4-2.262-8.564-4.535-16.77-7.002-24.92a232 232 0 0 0-6.07-17.466l-.045-.364c.189-1.004.128-1.438.066-1.873-4.273-1.605-4.016-4.991-3.105-9.111.19-1.012.128-1.449.066-1.885-3-1.01-4.289-2.955-4.707-5.838.42 2.878 1.72 4.781 4.803 5.451-4.208-14.81-8.512-29.231-13.097-43.406a41 41 0 0 0 .007 3.34c-.06-1.124-.06-2.326-.04-3.668.188-1.011.129-1.446.07-1.88-3.442-.873-4.493-3.087-4.866-5.776.378 2.668 1.45 4.805 4.957 5.385-.973-4.608-1.933-8.856-3.156-13.028-.49-1.67-1.345-3.66-3.54-1.336.567 1.987 1.255 3.715 1.468 5.43-.219-1.715-.952-3.445-1.871-5.44-10.966 2.41-21.356 5.153-31.965 7.954 2.828 9.481 5.7 18.43 8.146 27.496 2.585 9.575 4.751 19.264 7.135 28.894.348 1.403.915 2.75 1.332 4.137 1.557 5.177 3.247 10.322 4.608 15.55 2.551 9.807 4.655 19.736 7.421 29.48 2.526 8.892 5.721 17.595 8.544 26.405 1.122 3.505 2.11 7.057 3.03 10.62 1.568 6.061 2.866 12.196 4.58 18.214 2.671 9.373 5.64 18.661 8.401 28.008 1.986 6.72 3.874 13.467 5.744 20.22 1.158 4.18 2.227 8.387 3.29 12.595 1.526 6.05 2.783 12.178 4.566 18.15 2.61 8.746 5.854 17.307 8.328 26.088 2.736 9.71 4.707 19.634 7.375 29.365 3.89 14.19 8.094 28.296 12.188 42.43 2.855 9.86 5.801 19.694 8.605 29.568 1.785 6.288 3.335 12.642 5.08 18.942 2.11 7.619 5.647 14.92 4.922 23.158-.079.897.566 1.833.713 2.777 1.093 7.052 2.756 14.083 3.072 21.172.519 11.644.52 23.341.025 34.986-.285 6.714-1.734 13.419-3.078 20.041-2.634 12.98-12.205 21.058-21.945 28.362-10.029 7.52-21.057 13.703-31.635 20.492-8.493 5.451-16.777 11.26-25.492 16.328-14.303 8.317-28.72 16.468-43.387 24.121-14.75 7.697-29.812 14.803-44.834 21.965-7.614 3.63-15.42 6.86-23.175 10.19a1488 1488 0 0 1-21.547 9.03c-9.743 4.003-19.531 7.894-29.268 11.91-5.482 2.262-10.803 4.953-16.375 6.95-5.24 1.879-10.754 2.98-16.078 4.64-7.772 2.425-15.466 5.094-23.225 7.561-4.887 1.554-9.893 2.752-14.736 4.426-7.815 2.7-15.497 5.785-23.318 8.469-5.29 1.815-10.763 3.082-16.074 4.838-7.893 2.609-15.648 5.65-23.585 8.107-7.97 2.467-16.082 4.482-24.154 6.615-3.886 1.027-7.914 1.589-11.709 2.866-5.577 1.876-10.931 4.425-16.517 6.271-4.418 1.46-9.013 2.44-13.582 3.371-5.707 1.163-11.531 1.784-17.188 3.133-7.13 1.7-14.092 4.112-21.217 5.842-14.076 3.417-28.203 6.63-42.338 9.8-2.993.672-6.167.54-9.154 1.23-6.566 1.515-13.02 3.532-19.607 4.942-6.333 1.357-12.847 1.895-19.153 3.346-11.711 2.695-23.294 5.944-35 8.668-7.232 1.683-14.673 2.49-21.869 4.297-7.372 1.852-14.472 4.79-21.847 6.621-8.75 2.173-17.73 3.418-26.495 5.54-8.531 2.064-16.962 4.589-25.353 7.183-5.333 1.648-10.817 3.223-15.701 5.828-11.734 6.256-23.356 12.777-34.633 19.814-7.937 4.953-15.342 10.793-22.783 16.498-5.486 4.207-10.588 8.91-15.965 13.262-6.211 5.029-12.61 9.824-18.793 14.887-8.085 6.621-15.83 13.679-24.104 20.049-9.583 7.377-21.328 8.817-32.832 9.865-5.722.521-11.63-1.236-17.474-1.744-6.397-.557-12.87-.476-19.213-1.36-11.706-1.63-23.337-3.793-35.008-5.677-13.9-2.245-27.808-4.436-41.715-6.639-7.184-1.138-14.342-2.53-21.566-3.305-8.978-.961-18.007-1.46-27.022-2.047-6.418-.417-12.874-1.168-19.267-.85a514 514 0 0 0-34.752 2.925c-7.32.865-14.698 2.153-21.727 4.308-7.09 2.174-13.873 5.457-20.615 8.627-4.718 2.219-9.82 4.33-13.559 7.78-8.482 7.828-16.247 16.435-24.27 24.76-9.971 10.348-20.183 20.483-29.79 31.161-12.21 13.572-25.074 26.226-42.74 32.313-9.371 3.229-19.02 6.813-28.745 7.535-10.25.762-21.144-.293-31.02-3.123-10.608-3.04-21.204-7.85-30.26-14.12-9.989-6.914-18.77-15.857-27.077-24.841-10.583-11.444-20.032-23.93-30.238-35.734-4.465-5.163-9.61-9.735-14.424-14.596-9.236-9.325-18-19.178-27.807-27.858-10.21-9.037-21.291-17.12-32.265-25.251-3.643-2.7-8.187-4.156-12.225-6.352-5.139-2.794-9.984-6.216-15.314-8.547-7.86-3.437-16.061-6.084-24.069-9.191-8.357-3.244-16.53-7.018-25.013-9.875-14.216-4.787-28.64-8.956-42.93-13.524-12.493-3.993-24.924-8.174-37.381-12.277-8.902-2.933-17.796-5.893-26.705-8.805-5.444-1.779-10.934-3.42-16.361-5.248-6.962-2.345-13.849-4.918-20.83-7.201-6.519-2.131-13.152-3.91-19.674-6.03-6.842-2.222-13.567-4.81-20.426-6.976-9.021-2.848-18.16-5.322-27.178-8.18-7.762-2.459-15.398-5.315-23.14-7.841-8.227-2.685-16.533-5.125-24.766-7.791-5.002-1.62-9.876-3.647-14.904-5.172-10.881-3.3-21.878-6.223-32.729-9.615-16.132-5.045-32.184-10.346-48.26-15.57-13.57-4.412-27.153-8.783-40.675-13.335-11.022-3.71-21.89-7.89-32.96-11.447-14.47-4.65-29.103-8.789-43.607-13.338-13.41-4.206-26.758-8.614-40.097-13.04-4.082-1.355-8.027-3.116-12.069-4.599-3.89-1.427-7.782-2.88-11.748-4.07-9.219-2.767-18.542-5.196-27.709-8.119-7.423-2.367-14.633-5.393-22.025-7.863-5.165-1.726-10.538-2.823-15.711-4.526-8.18-2.692-16.209-5.856-24.416-8.455-10.937-3.463-22.009-6.495-32.973-9.875-6.135-1.891-12.15-4.174-18.254-6.172-10.773-3.525-21.588-6.916-32.351-10.47-4.117-1.36-8.076-3.22-12.217-4.487-8.578-2.624-17.308-4.768-25.834-7.545-11.09-3.611-21.969-7.872-33.07-11.443-14.474-4.656-29.191-8.572-43.588-13.441-12.089-4.09-23.885-9.047-35.782-13.696-9.506-3.715-18.944-7.609-28.459-11.302-6.278-2.438-12.658-4.61-18.959-6.993-7.463-2.823-14.837-5.892-22.345-8.59-10.646-3.825-21.418-7.302-32.065-11.124-10.384-3.728-20.57-8.038-31.049-11.465-9.165-2.999-17.697-7.02-25.949-11.983-8.244-4.959-17.006-9.049-25.406-13.761-6.846-3.841-13.667-7.778-20.176-12.153-5.827-3.916-11.554-8.119-16.717-12.857-8.445-7.751-17.137-15.434-24.351-24.268-7.423-9.089-14.427-18.785-17.272-30.722-1.963-8.24-5.616-16.195-6.658-24.51-1.593-12.722-2.225-25.656-2.01-38.479.123-7.273 2.597-14.539 4.309-21.738.805-3.385 2.405-6.572 3.48-9.902 3.448-10.677 8.918-20.33 16.768-28.172 7.073-7.066 15.246-12.944 25.111-16.06 6.082-1.922 11.853-4.83 17.934-6.755 5.806-1.838 11.95-2.617 17.738-4.5 12.314-4.005 24.587-8.18 36.694-12.767 7.137-2.705 14.313-5.707 20.76-9.72 6.882-4.287 13.151-9.663 19.285-15.024 10.77-9.416 21.507-18.903 31.755-28.877 11.415-11.109 22.26-22.802 33.368-34.225 12.152-12.498 24.26-25.041 36.503-37.45 12.135-12.296 24.873-24.01 34.01-38.964 4.308-7.049 9.377-13.63 13.99-20.496 4.955-7.374 9.533-15.013 14.721-22.215 6.52-9.05 13.559-17.728 20.25-26.658 4.75-6.34 8.994-13.08 14-19.203 8.771-10.728 18.092-21.005 26.92-31.688 7.373-8.922 14.267-18.239 21.572-27.219 4.512-5.544 9.398-10.785 14.116-16.162 4.616-5.26 9.057-10.688 13.892-15.74 7.314-7.641 14.402-15.241 18.754-25.228 3.458-7.936 5.41-16.107 3.492-24.223-2.664-11.274-10.575-19.892-19.011-27.225-8.755-7.609-18.869-13.638-28.247-20.55-5.062-3.732-9.897-7.786-14.712-11.838-7.68-6.463-11.25-15.843-14.946-24.496-2.867-6.714-5.57-14.48-2.937-22.721 2.078-6.506.852-13.747 5.015-20.037 2.752-4.157 3.19-9.856 5.975-13.979 7.964-11.787 17.637-22.243 27.934-32.027 7.768-7.381 15.677-14.725 24.236-21.133 8.44-6.317 17.67-11.614 26.764-17.006 4.528-2.685 9.523-4.584 14.31-6.832 1.424-.668 2.798-1.647 4.297-1.912 7.649-1.352 15.313-2.648 23.008-3.703 5.008-.687 10.072-1.175 15.12-1.291 3.564-.082 7.14.654 10.718.937 2.144.17 4.328-.011 6.449.286 8.332 1.166 16.695 2.202 24.951 3.785 6.618 1.269 13.221 2.89 19.602 5.037 5.719 1.924 11.163 4.695 16.662 7.238 7.075 3.272 14.222 6.43 21.08 10.117 6.525 3.508 12.519 8.025 19.105 11.395 9.492 4.857 19.405 8.883 28.961 13.621 11.278 5.591 22.365 11.566 33.537 17.37 7.137 3.706 14.248 7.466 21.426 11.09 9.643 4.87 19.342 9.628 29.012 14.442 7.256 3.613 14.481 7.286 21.764 10.844 4.346 2.124 8.872 3.895 13.15 6.143 11.658 6.124 23.138 12.593 34.861 18.588 9.64 4.928 19.551 9.32 29.295 14.046 8.318 4.035 16.599 8.15 24.842 12.334 14.294 7.257 28.555 14.578 42.81 21.91 3.103 1.596 6.093 3.412 9.188 5.022 6.94 3.61 13.89 7.206 20.88 10.717 11.143 5.594 22.341 11.075 33.477 16.68 7.553 3.8 15.034 7.741 22.557 11.6 5.546 2.843 11.125 5.627 16.662 8.487 6.53 3.374 12.98 6.91 19.563 10.178 7.27 3.61 14.72 6.861 21.97 10.51 9.862 4.963 19.553 10.266 29.42 15.217 8.823 4.427 17.674 8.833 26.723 12.765 7.421 3.226 14.983 6.417 22.795 8.377 7.586 1.904 14.909 5.96 23.21 4.305.495-.098 1.104.672 1.71.8 3.469.738 6.995 2.158 10.426 1.97 19.22-1.059 38.622 2.885 57.718-2.725 7.87-2.312 16.322-2.56 24.362-4.395 9.825-2.24 19.477-5.232 29.238-7.77 10.27-2.669 20.568-5.22 30.871-7.757a1688 1688 0 0 1 23.227-5.531c5.96-1.379 11.998-2.45 17.908-4.012 6.33-1.672 12.525-3.85 18.828-5.633 4.16-1.177 8.395-2.093 12.615-3.045 6.587-1.485 13.213-2.803 19.778-4.379 5.927-1.422 11.762-3.233 17.697-4.62 6.558-1.534 13.228-2.6 19.77-4.2 7.465-1.826 14.819-4.109 22.267-6.014 4.682-1.197 9.499-1.879 14.168-3.119 10.517-2.793 20.943-5.93 31.475-8.664 10.85-2.817 21.796-5.269 32.673-7.988 7.119-1.78 14.16-3.87 21.29-5.598 5.804-1.407 11.75-2.257 17.523-3.77 6.272-1.642 12.337-4.11 18.639-5.599 10.054-2.376 20.306-3.937 30.335-6.404 10.347-2.545 20.5-5.868 30.791-8.654 13.622-3.688 27.295-7.189 40.95-10.752.631-.165 1.304-.17 1.959-.24 9.412-1.021 19.015-1.197 28.19-3.272 11.456-2.592 21.58 1.824 31.81 4.713 6.871 1.94 13.1 6.647 19.187 10.754 9.434 6.365 17.893 13.826 25.182 22.757 10.508 12.877 21.61 25.273 32.617 37.735 7.304 8.27 15.01 16.184 22.305 24.463 7.639 8.67 14.909 17.665 22.507 26.37 8.291 9.5 16.82 18.788 25.163 28.243 11.842 13.422 23.599 26.918 35.41 40.367 5.36 6.103 10.873 12.074 16.117 18.274 5.79 6.846 11.151 14.063 17.059 20.802 8.925 10.183 18.104 20.147 27.283 30.104 6.95 7.54 13.825 15.177 21.213 22.271 3.802 3.652 8.605 6.283 13.039 9.252 9.113 6.103 17.974 12.668 27.502 18.047 14.186 8.01 28.75 3.77 43.054-.4 3.009-.878 6.264-1.875 8.645-3.772 9.42-7.506 18.152-15.652 25.064-25.76 12.098-17.69 24.963-34.856 37.086-52.53 10.29-15.003 19.747-30.577 30.02-45.592 9.266-13.545 19.258-26.604 26.152-41.623 2.406-5.242 5.164-10.383 6.938-15.838 2.169-6.673 3.777-13.57 5.058-20.477 1.097-5.911 2.7-12.21 1.668-17.898-1.01-5.563-1.105-12.018-5.59-16.608-2.746-2.811-5.543-5.58-8.443-8.232-6.235-5.702-13.374-9.897-21.56-12.096a1096 1096 0 0 0-27.07-6.922c-5.008-1.209-10.083-2.168-15.161-3.045-9.253-1.597-18.566-2.864-27.787-4.625-5.99-1.144-11.81-3.168-17.795-4.345-6.814-1.341-13.789-1.88-20.582-3.3-13.058-2.73-26.002-6.006-39.063-8.722-8.218-1.71-16.637-2.475-24.834-4.268-12.056-2.637-24.01-5.749-35.974-8.792-4.46-1.135-8.745-3.108-13.25-3.891-10.854-1.886-18.758-10.585-17.282-21.432 1.064-7.814 2.613-15.737 6.432-23.01 4.121-7.846 7.712-15.98 11.317-24.085a1720 1720 0 0 0 14.64-33.88c2.653-6.326 5.02-12.777 7.38-19.222 2.798-7.647 5.499-15.33 8.151-23.03 2.692-7.81 5.586-15.573 7.81-23.519 2.023-7.231 12.088-13.906 19.235-12.449 8.37 1.706 16.844 2.894 25.233 4.514 8.034 1.55 16.13 2.965 23.998 5.158 11.696 3.26 23.147 7.395 34.828 10.717 16.514 4.696 33.168 8.898 49.713 13.49 10.502 2.915 20.91 6.165 31.367 9.244 9.508 2.8 19.035 5.535 28.531 8.375 4.106 1.228 8.115 2.783 12.237 3.95 6.446 1.823 13.03 3.187 19.408 5.214 7.308 2.323 14.434 5.215 21.676 7.754 6.756 2.37 13.716 4.234 20.298 7.004 5.908 2.486 11.557 5.677 17.086 8.951 15.059 8.917 30.471 17.352 44.848 27.273 15.464 10.673 29.957 22.688 43.744 35.624 11.282 10.583 20.308 22.755 28.412 35.564 8.364 13.22 15.209 27.297 18.793 42.871 2.204 9.575 6.324 18.698 9.393 28.086 3.218 9.845 6.432 19.701 9.228 29.67 2.514 8.96 4.256 18.137 6.705 27.117 3.38 12.394 7.104 24.694 10.735 37.22l-36.678 9.407 8.668 33.883 106.94-27.246-8.64-33.805-4.714 1.129-30.984 7.424c-1.776.28-2.445-.19-2.618-1.049.162.774.827 1.16 2.604.7-.662-1.48-1.31-2.612-2.227-3.55-.21.935-.471 1.904-.41 2.622-.08-.803.173-1.876.367-2.99.157-1.302.091-2.041.024-2.78-2.086-1.932-3.388-4.153-3.918-6.78.522 2.533 1.852 4.683 4.017 6.39-1.199-4.147-2.498-7.901-4.078-11.419q-.331 2.17-.095 4.086c-.176-1.373-.154-2.854.062-4.457.177-1.346.108-2.084.04-2.822-2.255.113-3.434-.445-3.854-3.178.42 2.733 1.599 3.29 3.94 2.797-.582-2.346-1.292-4.298-1.91-6.28-2.312-7.426-4.6-14.86-7.175-22.058-.015-.163-.046-.29-.06-.455.187-1.347.124-2.087.06-2.826-.607-1.213-1.216-2.426-1.783-3.74a28 28 0 0 0 1.879 3.375c-.846-2.357-1.78-4.378-2.961-6.203a32 32 0 0 1-.21-.655c.173-1.661.105-2.717.038-3.773-1.813-1.178-3.171-2.573-3.975-4.28.816 1.655 2.213 2.939 4.07 3.901-.896-3.564-1.874-6.753-2.88-9.934-2.275-7.188-4.564-14.373-7.117-21.337q-.048-.273-.1-.545c.182-1.336.123-2.074.064-2.813-1.95-.672-3.022-1.785-3.357-3.373.318 1.5 1.416 2.549 3.45 3.008-.89-2.47-1.871-4.574-3.128-6.46-.388 1.248-.517 2.354-.357 3.292-.18-1.031-.066-2.256.318-3.686.165-1.666.093-2.72.02-3.773-3.02-.468-4.26-1.857-4.733-4.691.475 2.827 1.727 4.178 4.827 4.322-.909-3.373-1.755-6.44-2.948-9.363a146 146 0 0 0-6.132-13.098 12 12 0 0 0 .05 1.855 18 18 0 0 1-.093-2.181c.156-.976.09-1.41.025-1.844-.794-.866-1.732-1.663-2.533-2.525.808.824 1.778 1.522 2.627 2.16-2.106-5.19-4.5-9.935-6.471-14.852-7.95-19.836-20.114-37.108-33.709-53.238-7.996-9.487-17.877-17.384-27.1-25.674.375.97.734 1.91 1.188 2.738-.462-.838-.84-1.802-1.252-2.828.117-.386-.032-.522-.05-.537l-.003-.002c-1.592.773-2.71.715-3.437-.11.71.786 1.785.77 3.267-.154-1.522-1.19-2.874-2.118-4.232-2.646.113.99.323 1.773.635 2.334-.315-.567-.526-1.341-.641-2.322 0-.315.013-.384.018-.399v-.002l.001-.002c-1.853-.918-3.82-1.663-5.542-2.783 1.722 1.12 3.688 1.864 5.431 2.463-8.06-6.578-15.881-13.01-23.998-19.045-7.554-5.616-15.177-11.212-23.209-16.094-12.147-7.382-24.58-14.312-37.086-21.074-5.299-2.865-11.093-4.815-16.611-6.84 3.268 2.099 6.534 3.774 9.697 5.625-3.163-1.851-6.428-3.527-10.017-5.703-.808-.459-1.245-.498-1.682-.537-3.945-.667-7.915-1.222-11.826-2.05a97 97 0 0 0 11.68 1.71c-8.065-3.016-15.985-5.693-23.854-8.017.922 2.165 2.143 3.485 3.834 4.091-1.727-.61-3.036-1.947-4.197-4.171-1.156-.474-1.898-.515-2.641-.555-2.523 1.044-4.997 1.979-7.123.293 2.121 1.674 4.57.686 6.963-.635-1.91-1.101-3.605-2.04-5.418-2.59-10.012-3.03-20.033-6.031-30.09-8.906-5.081-1.453-10.244-2.617-15.299-3.572 5.788 2.674 11.381 5.398 17.25 7.246-5.869-1.848-11.463-4.572-17.615-7.322-1.178-.458-1.918-.5-2.66-.541-4.248-.505-8.527-.831-12.733-1.577 4.206.746 8.485 1.07 12.573 1.237-5.356-2.067-10.513-3.927-15.76-5.48-3.982-1.18-8.078-1.97-12.111-2.56 1.655 1.272 3.237 2.493 4.912 3.432-1.692-.943-3.336-2.175-5.235-3.502-.772-.477-1.21-.509-1.648-.54-1.863 1.005-3.546 1.3-5.08.802 1.488.416 3.129.037 4.908-1.143-3.056-1.114-5.94-1.889-8.791-2.298q-.103-.159-.205-.325c-1.774-.79-3.308-.892-4.844-.992-4.476-.606-8.975-1.081-13.42-1.865 4.445.784 8.944 1.26 13.27 1.52-9.395-3.04-18.64-5.734-27.832-8.075 1.572 1.264 3.04 2.509 4.61 3.444-1.589-.939-3.127-2.198-4.976-3.52-1.16-.462-1.903-.494-2.646-.527-3.352 1.982-5.858.77-8.3-2.52-.813-.456-1.25-.493-1.686-.531-.355.26-.776.782-1.073.82.295-.04.703-.59.9-1.154-10.41-3.33-20.65-6.327-30.843-8.98 1.068 2.115 2.427 3.46 4.193 4.06-1.804-.604-3.256-1.966-4.582-4.14-1.494-.465-2.552-.506-3.61-.547-3.27 2.476-4.856-.576-7.337-2.508-1.174-.441-1.915-.477-2.658-.514-.195.19-.454.549-.608.629.15-.087.386-.493.44-.97-3.886-1.353-7.58-2.472-11.33-3.352-7.498-1.76-15.027-3.39-22.492-4.733 1.247 2.205 2.638 3.524 4.584 3.91-1.978-.388-3.453-1.724-4.95-3.982-1.156-.451-1.895-.49-2.636-.531-4.264-.175-8.54-.217-12.79-.578 4.25.36 8.525.402 12.598.228-4.746-1.258-9.267-2.479-13.867-2.99-4.943-.55-9.96-.434-14.742-.324 3.13.742 6.065 1.153 8.98 1.674-2.915-.52-5.85-.932-9.406-1.643-2.331-.182-4.034-.112-5.736-.041-.865 1.141-1.56 2.975-2.592 3.43 1.03-.456 1.702-2.294 2.184-3.532m593.537 721.444c.255 1.584 1.424 2.638 3.64 3.04-.89-2.462-1.876-4.562-3.14-6.437-.477 1.305-.653 2.446-.5 3.397m8.576 302.933c.007 1.278.016 2.555.266 3.692.825-.839 1.408-1.534 1.843-2.547-.8-.591-1.456-.868-2.109-1.145m-585.191 218.688c-3.18.399-5.931 1.906-8.202 4.556 5.149-1.198 9.897-2.497 14.372-4.085-2.203-.551-4.263-.71-6.17-.471m-841.057 109.832c-1.375-2.171-4.05-2.933-6.524-3.713 2.45 2.906 4.858 5.465 7.45 7.68.053-1.703-.301-2.98-.926-3.967M591.779 16.61c-4.918.567-10.06.766-15.494.666a117 117 0 0 1 15.494-.666m-23.152.551c-4.48.892-8.55 1.877-12.451 3.2 5.426 2.781 10.826 1.314 12.45-3.2m37.412.438c6.318 4.661 12.9 5.779 19.758 2.058a193 193 0 0 0-19.758-2.058m1590.984 8.986c2.117 1.857 3.704 4.91 6.838 2.098-2.39-1.033-4.648-1.73-6.838-2.098m43.995 12.977c2.121 3.217 4.627 4.429 7.824 2.109-2.73-1.044-5.305-1.75-7.824-2.11m-1553.057.035c.564 2.581 1.273 4.527 3.934 2.082-1.383-1.018-2.658-1.726-3.934-2.082M483.645 54.994c-1.91 1.43-3.482 2.836-4.674 4.445 4.544 1.244 5.164-1.23 4.674-4.445m1586.05 15.143c-1.035 2.055-1.74 3.98-2.107 5.857 2.634-1.464 4.614-2.99 2.107-5.857m-1276.734 23.5c4.365 5.006 9.507 8.077 15.92 8-5.393-3.009-10.657-5.688-15.92-8m19.139 11.826q.056.066.117.119h-.002a1 1 0 0 1-.115-.12m35.99 17.965c.667.685 1.284 1.086 1.86 1.199l.023.023c.019.21.038.28.05.303l.002.002.002.002.002.002.002.002.002.002h.004c1.922.372 3.843.743 6.096 1.207-2.253-.464-4.17-.826-5.95-.877-.109-.248-.156-.297-.165-.313l-.002-.001v-.006h.002l.002-.004c-.616-.428-1.247-.84-1.93-1.541m8.865 2.619-.258.266c.089.373.177.746.52 1.423.255.304.746.352.972.229.42-.397.613-.67.707-1.236-.683-.453-1.27-.612-1.94-.682m2.04.974c-.193.274-.385.548-.75 1.295 1.15 1.2 2.474 1.923 3.79 2.276-.015-1.119-.021-1.865-.19-2.912-1.057-.42-1.954-.539-2.85-.659m1185.657 7.112c-1.342 2.734-2.353 5.327-3.004 7.928 6.53-.78 3.223-5.054 3.004-7.928m-1629.037 7.672q-.004.015-.011.029.007-.015.011-.03m1625.05 1.326c-1.686 3.052-3.03 5.988-3.995 8.926 5.27-1.447 2.884-6.087 3.994-8.926M410.672 147.15c-1.037 3.395-1.734 6.64-2.094 9.805 2.045-3.157 5.165-5.935 2.094-9.805m1621.006 15.96c-1.03 1.716-1.731 3.323-2.1 4.884 2.063-1.258 4.532-2.159 2.1-4.885M407.623 166.2c-.737 2.743-1.549 5.303-1.396 7.807.285 4.684 1.13 9.335 2.043 13.709.105-7.436-.091-14.579-.647-21.516m562.402 19.031q.079.08.159.157-.08-.076-.159-.157m862.493 5.741c.568.162 1.168.211 1.775.2-.61-.002-1.21-.039-1.775-.2m-54.856.156c-2.803.897-5.232 1.886-7.426 3.156 3.594 1.06 6.438.672 7.426-3.156m-791.648.41c1.215 2.158 2.14 4.555 4.869 2.125-1.72-1.036-3.319-1.748-4.87-2.125m854.992.035c1.439 2.726 3.01 4.601 5.86 2.088-2.06-1.027-3.983-1.728-5.86-2.088m178.596 7.625c.563 5.6.768 11.412.673 17.516a152 152 0 0 1-.673-17.516m-292.955 4.914c-3.477.891-6.567 1.872-9.399 3.135 4.032.885 7.749 1.326 9.399-3.135m-11.999 3.014c-3.472.9-6.558 1.893-9.378 3.184 3.84.313 8.311 2.836 9.378-3.184m172.387 9.2c2.91 1.771 5.842 3.893 8.875 6.339a83 83 0 0 1-8.875-6.34m-225.281 7c-.922.373-1.932.618-3.055.728 1.13-.11 2.148-.345 3.055-.729m234.266.005c1.96 2.606 2.767 6.377 6.878 5.305-2.373-2.093-4.63-3.873-6.878-5.305m680.242 24.07c.201.308.44.596.693.873a8 8 0 0 1-.693-.873M1472.668 267.13c-2.467.893-4.57 1.877-6.429 3.144 3.5 1.277 6.1.978 6.43-3.144m677.142 13.779c-1.496.038-3.073.647-4.641 1.432 3.403 1.04 6.635 1.736 9.812 2.076-1.46-2.665-3.248-3.557-5.171-3.508m61.43 13.1c-.962.05-1.983.448-3.095 1.316 3.063 1.036 5.98 1.728 8.825 2.084-1.8-1.94-3.616-3.511-5.73-3.4m11.417 3.347h.008l-.025.004zm4.565.766c.585.064 1.181.088 1.771.135-.59-.047-1.185-.071-1.771-.135m365.89 1.812c.035.212.082.42.12.631-.038-.21-.085-.419-.12-.63m.442 2.3c.08.35.187.695.279 1.042-.092-.347-.2-.69-.28-1.043m-330.63.525c-1.873.02-3.862.908-5.751 1.584 3.737 1.039 7.304 1.723 10.812 2.037-1.428-2.796-3.187-3.642-5.06-3.621m331.233 1.713c.158.492.36.973.555 1.457-.195-.483-.397-.965-.555-1.457m-2122.484.62c-3.246 3.453-6.168 6.802-8.72 10.354 5.492.154 7.309-2.077 8.72-10.353m850.965.03c-3.815.9-7.229 1.889-10.377 3.172 4.255.684 8.562 2.054 10.377-3.172m700.381 62.229a27.7 27.7 0 0 0 4.208 3.617c-1.517-1.513-2.87-2.747-4.208-3.618M309.998 511.747c-1.306 1.28-2.364 2.406-3.016 3.723 4.294.896 4.398-1.056 3.016-3.723m-3.986 4.006c-2.856 2.854-5.444 5.543-7.63 8.25 6.345-.425 8.878-3.275 7.63-8.25m-21.332 21.355c-2.91 2.8-5.503 5.491-7.729 8.385 5.684.098 7.921-2.435 7.729-8.385m-11.993 11.971c-1.578 1.452-2.844 2.825-3.72 4.395 4.957 1.253 3.816-2.138 3.72-4.395m2392.012.172c-.944 3.79-1.203 7.177 3.158 8.396-.899-3.137-1.886-5.89-3.158-8.396m4.217 19.445c.439 2.719.957 5.396 1.644 8.03-.684-2.62-1.203-5.286-1.644-8.03M233.68 589.082c-1.228 1.118-2.165 2.145-2.73 3.37 3.755.79 5.114-.083 2.73-3.37m-75.676 54.941c-.288.123-.574.262-.863.373.289-.11.575-.25.863-.373m-3.592 1.198c-.474.13-.936.31-1.416.422.477-.112.943-.292 1.416-.422m2556.633 74.08q-.121 1.323.07 2.517c-.127-.792-.13-1.639-.07-2.517M30.665 743.184c-1.053 5.07-1.743 9.961-2.077 14.79 4.624-4.532 4.014-9.683 2.076-14.79m2688.997 6.54c.366 2.377.809 4.713 1.408 7.008-.596-2.28-1.04-4.601-1.408-7.007m5.024 13.534c-.905 3.536-1.717 6.912 3.166 7.404-.9-2.801-1.888-5.227-3.166-7.404M28.154 805.352c.896 3.14 1.886 5.89 3.162 8.406.858-3.751.865-7.046-3.162-8.406m47.948 96.97c3.367 3.11 6.628 5.9 9.906 8.305-1.105-4.645-5.787-8.492-9.906-8.305M251.15 991.52h.002l.02.023zm134.04 49.52c-.906-.034-1.911.367-3.038 1.292 2.397 1.034 4.64 1.736 6.834 2.09-1.053-2.063-2.287-3.328-3.797-3.383m39.996 13.007c-.907-.039-1.912.346-3.038 1.246 2.39 1.036 4.641 1.736 6.846 2.09-1.062-2.024-2.298-3.271-3.808-3.336m2245.42 20.937c-3.222-.067-5.913.046-5.254 3.996 2.12-1.339 3.89-2.658 5.254-3.996m-2128.14 17.149c-.671.027-1.436.38-2.333 1.185 2.056 1.024 3.982 1.72 5.861 2.075-1.016-1.798-2.048-3.32-3.527-3.26m77.237 25.025c-.767.034-1.61.383-2.557 1.15 2.39 1.041 4.639 1.75 6.838 2.116-1.267-1.885-2.592-3.34-4.28-3.266m41.45 13.026c-.912-.04-1.913.318-3.016 1.14 2.39 1.036 4.646 1.736 6.886 2.074-1.081-1.978-2.352-3.149-3.87-3.214m77.036 24.867c-.907-.033-1.915.366-3.044 1.28 2.392 1.04 4.639 1.749 6.832 2.112-1.044-2.082-2.275-3.337-3.788-3.392m18.034 5.517a54 54 0 0 1 3.922 1.834 52 52 0 0 0-3.922-1.834m59.25 19.612c-1.02.06-2.124.444-3.313 1.166 3.072 1.33 5.979 2.332 8.84 2.986-1.446-2.85-3.284-4.284-5.527-4.152m1556.056 17.383c-.333.045-.657.119-.986.177.329-.058.653-.132.986-.178m-2.187.402c-.365.088-.718.222-1.076.334.358-.112.71-.246 1.076-.334m-2.149.674c-.151.06-.299.133-.449.199.15-.066.298-.139.45-.2m-1.01.449c-.185.092-.366.202-.548.305.183-.103.363-.213.549-.305m-1.003.56c-.181.112-.358.242-.535.366.177-.124.354-.254.535-.366m-1469.28 6.344c-.796-.022-1.713.395-2.777 1.336 2.054 1.025 3.986 1.714 5.87 2.05-.773-2.091-1.765-3.349-3.093-3.386m37.528 12.451a10.9 10.9 0 0 0-4.264.893c3.736 1.353 7.307 2.372 10.873 3-.925-2.484-3.57-3.889-6.61-3.893m1316.982 12.643c-2.236 0-4.087.83-5.04 3.787 3.476-.898 6.553-1.889 9.372-3.17-1.509-.318-2.99-.617-4.332-.617m-97.408 21.389c-2.187.11-3.638 1.545-4.643 4.377 3.475-.896 6.557-1.882 9.438-3.159-1.905-.874-3.483-1.284-4.795-1.218m-55.676 12.89c-.896.124-1.868.153-2.764.295.91-.135 1.873-.172 2.764-.295m-1017.015.444.062.046zm10.156 3.347c-.674.033-1.44.39-2.332 1.184 2.06 1.028 3.979 1.73 5.85 2.09-.997-1.85-2.037-3.346-3.518-3.274m40.709 12.672c-1.252-.001-2.697.83-4.03 1.46 2.387 1.043 4.639 1.75 6.89 2.067-.552-2.692-1.609-3.525-2.86-3.527m10.346 4.082a17.4 17.4 0 0 0-4.372.44c5.4 2.017 10.644 3.7 15.823 5.052-3.39-3.515-7.216-5.36-11.451-5.492m16.835 4.594c-.906-.036-1.955.497-3.207 1.816 2.393 1.04 4.64 1.744 6.836 2.104-1-2.218-2.118-3.86-3.629-3.92m10.66 3.709c-1.282-.06-2.882.325-4.855 1.13 3.073 1.334 5.98 2.34 8.889 2.983-.636-2.677-1.895-4.013-4.033-4.113m20.213 8.09q.251.108.516.19.268.08.549.142.17.035.344.062-.173-.028-.344-.062a6 6 0 0 1-.549-.143 5 5 0 0 1-.516-.19m64.78 30.687q-.121.001-.235.014c.847.495 1.535.748 2.176.644-.708-.466-1.38-.66-1.941-.658m683.055 15.6q-.102.071-.208.133.107-.062.207-.133m-5.659 5.736c-1.994.085-2.355 1.668-2.068 3.666 1.577-1.109 2.83-2.19 3.723-3.472-.647-.154-1.195-.213-1.655-.194m-645.459 1.627c.09.443.116.98.065 1.625.051-.646.025-1.184-.065-1.625m328.61 20.567c-.51.315-1.092.583-1.674.851.58-.268 1.168-.539 1.674-.851m-269.301 47.763c.896.793 1.816 1.262 2.715 1.4-.912-.794-1.802-1.259-2.715-1.4m215.049 6.024c-2.448 1.995-4.454 4.3-6.114 6.832 1.706-2.523 3.676-4.847 6.114-6.832m-17.774 19.463c-.107.052-.213.122-.32.17.107-.048.214-.12.32-.17m-.963.414c-.092.031-.182.074-.275.101.092-.027.183-.07.275-.101" style="fill:#fff;fill-opacity:1"/></svg>