<svg viewBox="0 0 2414 1500" xml:space="preserve" xmlns="http://www.w3.org/2000/svg"><path d="M503.348 37.584c-7.596.517-15.117 3.3-22.655 3.23-15.038-.138-27.239 7.522-39.4 14.07-13.302 7.163-25.63 16.267-36.832 26.864-14.63 13.84-29.379 27.523-40.697 44.272-10.937 16.183-21.142 32.858-31.729 49.279a14247 14247 0 0 1-33.01 50.94c-7.783 11.96-15.677 23.846-23.457 35.808-6.004 9.232-11.796 18.605-17.882 27.783-9.77 14.734-19.873 29.25-29.526 44.059-10.245 15.717-19.895 31.824-30.23 47.48-13.32 20.177-27.182 39.994-40.586 60.115-13.287 19.945-26.268 40.092-39.434 60.118a11160 11160 0 0 1-32.982 49.892c-10.074 15.144-22.393 28.923-27.914 46.803-3.225 10.443-9.325 19.839-10.264 31.176-1.063 12.84-3.542 25.565-4.51 38.408-.459 6.092.996 12.365 1.875 18.514 1.957 13.687 3.013 27.63 6.479 40.937 3.17 12.17 6.983 24.275 12.195 35.98 7.216 16.208 16.133 31.269 28.383 43.743 11.137 11.34 23.75 21.409 36.598 30.832 9.165 6.722 19.675 11.672 29.8 17.006 13.621 7.175 27.295 14.289 41.24 20.796 10.037 4.684 20.569 8.302 30.856 12.454 12.093 4.88 24.108 9.954 36.252 14.7 11.541 4.512 23.166 8.822 34.828 13.01 8.926 3.206 17.937 6.18 26.967 9.083 9.67 3.107 19.46 5.847 29.1 9.043 12.524 4.152 24.901 8.751 37.435 12.875 13.161 4.329 26.456 8.246 39.647 12.49 9.506 3.058 18.906 6.452 28.41 9.521 10.263 3.315 20.6 6.395 30.888 9.637 7.689 2.423 15.338 4.971 23.022 7.41 8.874 2.817 17.78 5.534 26.648 8.37 7.82 2.5 15.603 5.115 23.41 7.655 9.035 2.94 18.078 5.853 27.118 8.774q11.26 3.639 22.527 7.264c9.2 2.958 18.423 5.845 27.598 8.878 12.99 4.295 25.9 8.838 38.931 13.006 10.133 3.242 20.466 5.861 30.586 9.139 15.464 5.008 30.785 10.461 46.237 15.51 15.465 5.053 31.046 9.753 46.523 14.771 18.856 6.115 37.662 12.384 56.478 18.62 9.937 3.292 19.818 6.75 29.782 9.958 11.332 3.65 22.733 7.084 34.093 10.645 9.985 3.13 19.958 6.302 29.932 9.465 9.066 2.875 18.143 5.714 27.186 8.66 7.447 2.426 14.859 4.96 22.271 7.49 7.306 2.495 14.65 4.89 21.871 7.613 7.369 2.78 14.512 6.174 21.924 8.82 12.762 4.558 25.313 9.62 36.268 17.667 15.042 11.049 30.819 21.377 40.558 38.185 4.857 8.383 10.414 16.357 15.451 24.639 6.383 10.495 12.23 21.329 18.897 31.635 11.61 17.947 23.771 35.537 35.514 53.4 11.911 18.121 23.436 36.498 35.431 54.563 9.33 14.052 18.346 28.422 28.908 41.517 12.934 16.036 25.09 32.855 43.707 43.705 14.19 8.27 28.345 16.075 44.61 18.686 8.454 1.357 17.17 4.071 25.84-.305 3.394-1.713 7.374-2.396 11.166-3.162 12.272-2.48 22.803-8.67 32.992-15.47 5.675-3.79 11.102-8 16.334-12.387 5.063-4.246 10.148-8.596 14.49-13.543 10.806-12.313 21.1-25.076 31.785-37.496 7.776-9.037 15.825-17.839 23.797-26.706a17259 17259 0 0 1 38.106-42.253c8.88-9.811 17.82-19.565 26.732-29.346q27.847-30.564 55.69-61.129c6.826-7.495 13.452-15.184 20.517-22.447 11.115-11.427 21.693-23.594 34.012-33.58 16.793-13.613 34.73-25.888 52.71-37.938 12.184-8.164 25.629-14.226 39.866-18.17 5.287-1.465 10.71-2.437 16.047-3.734 9.4-2.286 18.748-4.789 28.178-6.944 9.784-2.235 19.652-4.1 29.455-6.255 6.77-1.489 13.476-3.26 20.238-4.785 5.382-1.215 10.835-2.123 16.201-3.4 5.792-1.38 11.476-3.229 17.285-4.522 10.124-2.255 20.351-4.052 30.453-6.391 10.028-2.322 19.937-5.152 29.932-7.623 16.608-4.107 33.314-7.842 49.842-12.246 10.396-2.77 20.534-6.505 30.804-9.754 13.207-4.178 26.442-8.264 39.641-12.465a4528 4528 0 0 0 36.81-11.896c10.095-3.308 20.26-6.433 30.202-10.157 13.13-4.918 26.114-10.243 39.084-15.578 9.817-4.038 19.618-8.147 29.24-12.623 9.665-4.496 19.116-9.453 28.633-14.265 20.05-10.14 40.353-19.82 60.025-30.647 13.43-7.391 26-16.353 38.895-24.705 11.653-7.548 22.474-15.871 31.894-26.4 10.589-11.836 15.279-26.155 16.836-40.627 2.235-20.768 1.52-42.014-2.746-62.66-3.26-15.78-7.975-31.267-12.258-46.825-2.954-10.732-6.39-21.33-9.406-32.047-4.321-15.354-8.39-30.78-12.693-46.14-3.001-10.71-6.373-21.319-9.297-32.05-3.942-14.468-7.527-29.034-11.428-43.515-3.478-12.913-7.137-25.777-10.789-38.642a6404 6404 0 0 0-12.164-42.295c-3.16-10.847-6.584-21.619-9.615-32.5-4.806-17.254-9.338-34.583-14.069-51.858-3.279-11.975-6.744-23.899-10.037-35.87-2.184-7.942-4.028-15.979-6.355-23.876-2.316-7.858-5.34-15.514-7.528-23.404-4.002-14.444-7.525-29.02-11.42-43.494-3.467-12.887-6.706-25.865-10.878-38.527-5.288-16.048-10.12-32.451-17.512-47.545-9.179-18.744-20.505-36.462-36.23-50.848-9.427-8.624-18.347-17.801-27.721-26.484-4.295-3.978-8.898-7.728-13.776-10.954-16.038-10.605-31.971-21.426-48.543-31.146-8.64-5.068-18.335-8.598-27.912-11.729-9.326-3.048-19.026-5.206-28.716-6.816-8.564-1.422-17.34-2.075-26.026-2.103-8.523-.029-17.082.88-25.566 1.884-9.518 1.127-19.053 2.425-28.428 4.38-9.794 2.041-19.394 5.003-29.105 7.46-4.543 1.15-9.15 2.04-13.723 3.076q-16.08 3.644-32.154 7.31c-5.34 1.219-10.664 2.517-16.018 3.669-5.711 1.228-11.497 2.133-17.166 3.525-9.543 2.344-18.958 5.228-28.537 7.397-13.261 3.002-26.67 5.352-39.93 8.361-10.05 2.28-19.941 5.255-29.951 7.727-6.286 1.552-12.69 2.62-18.986 4.13-9.105 2.185-18.13 4.712-27.246 6.844-15.424 3.608-30.897 7-46.34 10.524a8339 8339 0 0 0-36.864 8.513c-4.083.951-8.126 2.088-12.22 2.987-13.415 2.945-26.873 5.697-40.26 8.763-9.743 2.232-19.397 4.853-29.096 7.282-7.665 1.92-15.354 3.747-23.002 5.732-7.655 1.987-15.222 4.333-22.92 6.13-8.802 2.057-17.767 3.434-26.548 5.567-9.086 2.207-17.976 5.211-27.059 7.43-13.347 3.26-26.83 5.96-40.176 9.226-10.638 2.604-21.155 5.698-32.101 8.676l6.902 30.807c2.75-1.039 4.904-2.118 7.188-2.666 8.348-2.005 16.782-3.662 25.103-5.77 13.03-3.3 25.948-7.055 39.002-10.257 12.446-3.054 25.055-5.442 37.498-8.506 9.882-2.434 19.582-5.596 29.436-8.157 8.934-2.321 17.968-4.254 26.953-6.382 9.786-2.319 19.56-4.686 29.35-6.989 4.56-1.072 9.152-2.01 13.716-3.066 10.59-2.449 21.169-4.94 31.756-7.398 5.204-1.21 10.406-2.426 15.625-3.565 10.16-2.217 20.353-4.283 30.49-6.598 8.826-2.015 17.576-4.36 26.39-6.425 10.738-2.516 21.524-4.816 32.257-7.35 8.98-2.12 17.892-4.527 26.873-6.645 6.317-1.49 12.727-2.589 19.047-4.072 9.466-2.222 18.856-4.778 28.34-6.924 17.27-3.907 34.629-7.437 51.87-11.466 13.876-3.243 27.585-7.198 41.456-10.461 17.841-4.198 35.767-8.04 53.666-11.996 10.922-2.414 21.802-5.094 32.812-7.02 8.842-1.547 17.828-2.616 26.791-3.031 10.519-.487 21.266-1.257 31.58.303 14.134 2.136 28.226 5.41 40.865 12.916 13.335 7.918 27.253 14.93 40.155 23.484 19.69 13.055 36.67 29.604 53.054 46.408 9.279 9.516 16.25 21.584 22.874 33.287 5.108 9.026 8.398 19.155 11.876 29.012 3.809 10.792 7.03 21.8 10.276 32.781 3.301 11.173 6.313 22.432 9.467 33.649 2.496 8.88 5.037 17.748 7.52 26.632 2.172 7.778 4.202 15.598 6.454 23.352 3.11 10.705 6.491 21.331 9.528 32.057 2.336 8.254 4.178 16.65 6.501 24.908 3.064 10.89 6.412 21.699 9.582 32.558 2.4 8.22 4.715 16.463 7.067 24.696.443 1.075.886 2.15 1.285 3.328a20.5 20.5 0 0 0-1.361-2.957c.552 2.08 1.177 3.808 2.052 5.334q.054.221.104.449c-.172.974-.111 1.409-.05 1.844.459 1.272.919 2.544 1.327 3.926a27 27 0 0 0-1.42-3.543c.557 2.409 1.201 4.454 2.112 6.279q.048.228.093.463c-.201.995-.146 1.433-.09 1.87.713.814 1.722 1.546 2.3 2.395-.582-.831-1.609-1.494-2.39-2.01.23 1.278.583 2.161.864 3.067 2.314 7.448 4.614 14.9 7.192 22.139l.109.55c-.192.986-.134 1.421-.076 1.858.877 2.593 1.756 5.185 2.582 7.904a106 106 0 0 0-2.68-7.504c1.188 4.388 2.47 8.394 4 12.176l.139.54c.083.998.384 1.463.685 1.929.263.605.525 1.209.756 1.89a9.4 9.4 0 0 0-.736-1.519c.334 1.42.649 2.486 1.217 3.346q.039.21.074.435c-.185 1.326-.13 2.068-.074 2.809.969.994 2.394 1.848 3.011 2.949-.618-1.096-2.053-1.906-3.101-2.553 2.575 8.806 5.242 17.215 8.195 25.389.375-.788.707-1.434.66-1.969.048.538-.284 1.212-.633 2.299-.203 1.003-.146 1.442-.09 1.879.693.99 1.643 1.9 2.137 2.953-.496-1.048-1.457-1.912-2.236-2.55 1.997 8.672 3.92 16.99 6.264 25.189 1.123 3.93 3.041 7.632 4.888 11.203.3-.9.616-1.72.649-2.436-.03.733-.341 1.617-.617 2.766-.201 1-.145 1.437-.088 1.873.144.034.386.04.449.1-.064-.058-.313-.03-.547.293 1.827 6.315 3.749 12.258 5.934 17.968l.205.815c-.175 1.35-.102 2.089-.03 2.828.405.662.81 1.324 1.18 2.074a9 9 0 0 0-1.271-1.74c.517 1.394 1.118 2.482 1.955 3.394q.081.24.156.495c-.16 1.296-.093 2.037-.027 2.777 1.733 1.019 2.975 2.253 3.414 3.94-.428-1.6-1.701-2.758-3.51-3.563.884 2.803 1.862 5.229 3.125 7.428.5-1.307.639-2.444.478-3.426.183 1.073.06 2.321-.441 3.797-.185 1.34-.122 2.081-.059 2.822.615 1.26 1.23 2.519 1.803 3.877a29 29 0 0 0-1.898-3.514c.838 2.38 1.765 4.421 2.933 6.266q.087.265.172.537c-.173.97-.119 1.405-.062 1.84.623 1.432 1.245 2.863 1.826 4.402a37 37 0 0 0-1.916-4.021c.856 2.706 1.795 5.058 2.984 7.195q.09.3.174.61c-.165 1.332-.095 2.07-.025 2.808.44 1.078.883 2.157 1.277 3.338a19.7 19.7 0 0 0-1.367-2.969c.537 2.08 1.16 3.81 2.04 5.336q.053.221.102.45c-.188.976-.131 1.413-.074 1.849.607 1.198 1.214 2.394 1.781 3.69a28.5 28.5 0 0 0-1.875-3.325c.856 2.342 1.796 4.353 2.977 6.166q.11.332.217.676c.133 2.335.513 4.064.892 5.793.43 1.055.859 2.11 1.246 3.27a20 20 0 0 0-1.334-2.901c.538 2.07 1.158 3.794 2.026 5.316q.059.254.115.516c-.173 1.319-.11 2.058-.047 2.797 3.535.967 4.318 3.316 3.065 7.133-.167.996-.102 1.431-.035 1.865 2.049 1.513 3.638 3.099 4.043 5.476-.41-2.356-2.017-3.868-4.13-5.091 1.56 5.471 3.204 10.556 5.135 15.408q.017.164.032.332c-.192 1.001-.129 1.437-.065 1.873.418.875.837 1.748 1.219 2.725a14 14 0 0 0-1.313-2.373c.526 1.74 1.14 3.15 1.989 4.38q.068.249.134.506c.182 2.303.567 4.034.952 5.764 4.535 2.45 3.654 6.853 4.17 11.166.056.473.162.94.261 1.408a14 14 0 0 1-.262-1.408c-.543-4.176.414-8.615-4.257-10.78.563 2.202 1.198 4.022 1.865 5.83.907 2.46 1.834 4.91 2.777 7.016q.1.374.229.743c.072 1.173.133 1.6.193 2.029.628 1.608 1.257 3.217 1.84 4.933a47 47 0 0 0-1.934-4.544c.865 3.02 1.817 5.68 3.022 8.128q.089.334.174.676c.133 2.342.516 4.074.9 5.805.426.873.852 1.747 1.236 2.715a14 14 0 0 0-1.32-2.362c.533 1.742 1.146 3.153 2 4.371l.12.448c-.17.962-.112 1.397-.053 1.832 4.558 2.407 4.07 6.414 3.076 11.183-.187 2.058-.115 3.434-.045 4.81 1.277 3.245 3.344 6.441 3.996 9.724-.653-3.277-2.733-6.427-4.092-9.317.886 8.676 2.36 16.922 2.74 25.22.722 15.753.535 31.5-5.322 46.4.89-.77 1.792-1.432 2.36-2.192-.572.77-1.489 1.478-2.438 2.418-.428.28-.518.754-.518.754-.382.67-.766 1.34-1.234 2.03.39-.66.697-1.303.922-1.915-1.003 1.257-1.748 2.419-2.197 3.553q-.206.23-.432.467c-3.464 3.06-6.26 5.966-9.057 8.87-2.754 2.357-5.508 4.712-8.625 7.048a3 3 0 0 1-.369-.032l-.002-.002c-.478.425-.992.848-1.555 1.27.536-.417.954-.836 1.229-1.246-1.113.674-1.9 1.325-2.33 1.998.09-.053.161-.106.246-.158-.086.054-.146.11-.236.164-.282-.012-.343-.028-.356-.034l-.002-.001h-.002c-.444.426-.887.853-1.398 1.253a7 7 0 0 0 1.072-1.23c-1.032.637-1.78 1.252-2.365 2.076a9 9 0 0 1-.461.23c-1.959.752-3.402 1.707-4.846 2.663-.798.614-1.596 1.229-2.465 1.814a20 20 0 0 0 2.116-1.79c-1.672.96-3.035 1.898-4.225 3.048q-.266.139-.543.271c-1.292.428-2.08 1.06-2.867 1.694-.559.51-1.117 1.021-1.77 1.537a11.6 11.6 0 0 0 1.434-1.516c-1.316.905-2.357 1.791-3.102 2.69q-.276.173-.578.347c-2.811 1.33-4.907 2.616-7.002 3.903-.44.427-.878.856-1.382 1.258a7 7 0 0 0 1.056-1.227c-1.026.645-1.769 1.265-2.35 2.086q-.223.12-.466.234c-1.963.75-3.41 1.701-4.856 2.655-.594.55-1.188 1.103-1.879 1.658a12 12 0 0 0 1.545-1.633c-1.358.944-2.424 1.867-3.172 2.807l-.39.244a4 4 0 0 0-1.059.178c-.431.332-.861.664-1.398 1 .46-.343.819-.7 1.078-1.084-1.043.522-1.808 1.118-2.28 1.74q-.192.09-.404.183c-1.106.32-1.57.623-2.033.926-.443.436-.884.87-1.396 1.276a6.6 6.6 0 0 0 1.07-1.252c-1.046.638-1.8 1.255-2.365 2.097a8 8 0 0 1-.403.196c-.977.07-1.445.366-1.914.662-1.482.953-2.964 1.905-4.52 2.83a73 73 0 0 0 4.155-2.801c-2.922 1.58-5.523 3.134-7.945 4.893q-.405.203-.819.402c-1.626.508-2.724 1.22-3.824 1.933-.527.397-1.094.792-1.719 1.186.609-.4 1.08-.815 1.395-1.271-1.128.554-1.932 1.196-2.396 1.855.132-.068.245-.137.369-.205-.126.07-.221.142-.356.213-.266-.007-.328-.026-.342-.033h-.002l-.002-.002a7.6 7.6 0 0 1-.88.718 2.3 2.3 0 0 0 .57-.687c-.724.334-1.17.639-1.461 1.146q-.183.07-.39.131c-1.618.432-2.728 1.06-3.837 1.686.155 4.323-3.395 2.865-6.1 3.351-1.307.158-2.08.529-2.85.9-.461.348-.922.696-1.493 1.048.503-.356.892-.729 1.17-1.13-1.077.532-1.864 1.137-2.342 1.766q-.148.072-.307.145a4 4 0 0 0-1.029.172c-1.056.626-2.113 1.252-3.26 1.838a22 22 0 0 0 2.909-1.92c-2.04.87-3.754 1.816-5.282 3q-.245.097-.498.191c-.97.068-1.44.362-1.91.656-.643.376-1.406.747-2.068 1.121.6-.365 1.204-.734 1.707-1.095-2.122 1.011-3.882 1.998-5.254 3.008.106-.05.186-.1.291-.15-.106.05-.177.103-.285.153a3 3 0 0 1-.387-.03l-.002-.003h-.002a8 8 0 0 1-.894.74c.26-.222.46-.471.58-.714-.728.339-1.171.655-1.463 1.177q-.18.07-.381.131c-1.607.433-2.717 1.062-3.828 1.692-1.149.772-2.297 1.544-3.52 2.287a41 41 0 0 0 3.155-2.266c-2.308 1.243-4.295 2.466-6.106 3.899q-.342.17-.697.336c-1.303.093-2.078.395-2.854.695-.647.38-1.416.754-2.084 1.133.606-.37 1.215-.739 1.721-1.102-2.122 1.018-3.882 2.004-5.254 3.012.167-.078.293-.158.455-.237-.164.08-.277.163-.445.243-.307-.012-.373-.028-.387-.034l-.002-.001h-.002c-.276.254-.552.51-.89.74a2.4 2.4 0 0 0 .578-.713c-.726.34-1.17.657-1.461 1.178a5 5 0 0 1-.381.13c-1.609.43-2.722 1.055-3.834 1.68a7.6 7.6 0 0 1-.898.705c.26-.212.464-.45.588-.683-.733.32-1.185.622-1.483 1.125q-.181.065-.387.12c-1.275.117-2.047.428-2.818.739-1.046 1-1.984 2.162-3.17 2.953 1.186-.79 2.124-1.951 2.791-2.926-2.135.705-3.938 1.285-5.64 2.08-3.357 1.568-6.657 3.255-9.8 5.149q.653.108 1.282.166c-.544-.034-1.066-.04-1.647-.12-2.29.516-4.033 1.24-5.777 1.964-1.624.809-3.248 1.618-4.973 2.384a50 50 0 0 0 4.602-2.472c-3.01 1.167-5.679 2.414-8.139 3.908q-.315.115-.636.226c-.985-.17-1.418-.104-1.852-.039-.6 2.55-2.056 3.52-3.824 3.985 1.683-.472 3.03-1.483 3.455-4.07-3.417 1.522-6.476 3.129-9.36 4.982q-.232.06-.46.13c-.941-.145-1.377-.079-1.811-.013-2.369 1.173-4.737 2.344-7.207 3.475a111 111 0 0 0 6.842-3.567c-4.269 1.782-8.203 3.645-11.928 5.752q-.433.173-.871.342c-1.338.077-2.109.388-2.88.7-1.326 1.867-2.884 3.202-4.77 3.939 1.79-.727 3.25-2.057 4.373-3.91-3.796 1.352-7.195 2.675-10.36 4.283.804.162 1.568.242 2.3.258a14.5 14.5 0 0 1-2.675-.217c-2.017.13-3.425.507-4.832.883-2.253 2.163-4.752 3.702-7.64 4.502 2.8-.797 5.221-2.36 7.257-4.582-4.807 1.559-9.23 3.198-13.412 5.117q1.875.156 3.586-.035a20.5 20.5 0 0 1-3.916.07c-1.005-.18-1.437-.116-1.87-.05-2.347.993-4.695 1.987-7.145 2.939a110 110 0 0 0 6.765-3.022c-4.276 1.495-8.206 3.065-11.926 4.885q-.436.144-.88.287c-2.005.138-3.411.52-4.817.902-.863.43-1.726.859-2.685 1.246a13.7 13.7 0 0 0 2.332-1.326c-1.742.54-3.15 1.156-4.354 2.018q-.219.06-.445.119c-.977-.171-1.412-.108-1.846-.045-.448 1.433-1.082 2.55-2.094 3.117.928-.57 1.474-1.718 1.744-3.203-2.131.878-3.914 1.841-5.48 3.074 1.07.45 1.96.597 2.691.496-.817.132-1.819.002-3.06-.455-1.325-.157-2.062-.084-2.799-.011-1.809 2.992-4.384 4.165-7.352 4.66-1.813.302-3.772.352-5.794.404-.981-.178-1.417-.116-1.852-.053-2.902 2.408-6.035 4.207-9.582 5.192 3.459-.982 6.517-2.808 9.201-5.284-5.808 1.872-11.237 3.836-16.418 6.079 1.34.063 2.631.016 3.877-.131a26 26 0 0 1-4.205.168c-1.01-.18-1.443-.118-1.877-.055-2.4 1.017-4.8 2.035-7.303 3.006 2.414-.977 4.731-2.02 6.924-3.09-4.3 1.504-8.25 3.085-11.988 4.92q-.383.128-.77.252c-.989-.187-1.423-.126-1.859-.066-3.367 2.71-6.982 4.692-11.078 5.609 4.006-.911 7.548-2.92 10.69-5.705-6.478 1.871-12.569 3.838-18.401 6.09 1.932.22 3.775.21 5.533-.004-1.85.232-3.797.255-5.861.039-1.021-.186-1.455-.124-1.889-.06-.68.413-1.36.828-2.125 1.206a9.4 9.4 0 0 0 1.79-1.29c-1.4.532-2.49 1.141-3.413 1.974q-.216.075-.443.146c-.937-.149-1.372-.09-1.807-.03-1.46.639-2.922 1.279-4.488 1.872a37 37 0 0 0 4.113-1.967c-2.714.864-5.077 1.817-7.228 3.024q-.266.079-.537.154c-.986-.178-1.42-.115-1.856-.053-1.098.725-2.15 1.636-3.242 2.38 1.047-.75 1.994-1.698 2.853-2.475-7.133 1.863-13.879 3.823-20.361 6.07l-.43.049c-1.715-.187-2.77-.122-3.824-.057-.167.377-.28.988-.484 1.211.195-.224.254-.846.09-1.293-2.192.55-3.956 1.315-5.795 1.79-4.18 1.077-8.395 2.018-12.36 3.286l-.629.104c-1.705-.193-2.761-.124-3.818-.055-1.846.63-3.693 1.259-5.658 1.84a60 60 0 0 0 5.273-1.932c-3.382.844-6.399 1.776-9.183 2.97l-.608.136c-1.35-.184-2.09-.12-2.828-.055-1.72 5.284-5.819 3.698-10.148 3.043-1.377-.186-2.113-.12-2.85-.057-.4.549-.722 1.423-1.18 1.723.452-.302.731-1.187.784-1.812-6.103 1.547-11.815 3.183-17.286 5.1l-.529.077c-2.033-.179-3.41-.108-4.787-.039-1.804 2.14-3.897 3.362-6.432 3.592 2.45-.209 4.472-1.464 6.041-3.684-3.811.873-7.233 1.838-10.394 3.088 1.223.404 2.371.605 3.445.625-1.165-.002-2.411-.18-3.773-.588-1.023-.188-1.457-.127-1.89-.066-2.275 3.72-5.666 4.195-10.161 3.04-1.364-.172-2.102-.102-2.84-.034-1.08.442-2.16.882-3.346 1.277 1.099-.401 2.1-.87 2.977-1.369-2.082.538-3.813 1.162-5.336 2.041q-.221.052-.447.102c-.98-.185-1.414-.13-1.85-.075-1.817.633-3.635 1.267-5.572 1.854a59 59 0 0 0 5.176-1.945c-3.37.861-6.366 1.81-9.135 3.02q-.337.079-.682.156c-2.025-.167-3.4-.088-4.775-.008-.09.266-.135.706-.258.843.117-.139.119-.589-.129-.937-7.38 1.829-14.385 3.75-21.13 5.943l-.647.13c-1.371-.174-2.109-.102-2.846-.03-.167.401-.268 1.07-.492 1.244.221-.174.288-.851.1-1.328-6.064 1.538-11.744 3.157-17.168 5.058l-.61.106c-1.712-.194-2.767-.127-3.822-.059-.091.266-.138.704-.264.842.12-.14.123-.586-.125-.931-7.072 1.844-13.764 3.777-20.207 5.98l-.535.113c-1.013-.175-1.446-.113-1.879-.052-.604.63-1.125 1.553-1.777 2.015.64-.465 1.098-1.402 1.38-2.103-5.115 1.549-9.84 3.185-14.333 5.097l-.448.073c-1.34-.174-2.075-.105-2.812-.036-1.826.99-3.652 1.98-5.574 2.932a67 67 0 0 0 5.207-3.021c-3.315 1.472-6.295 3.026-9.094 4.812q-.363.155-.732.307c-1.305.083-2.084.378-2.862.674-1.653.964-3.307 1.928-5.037 2.86a86 86 0 0 0 4.668-2.837c-3.253 1.593-6.178 3.164-8.912 4.959q-.415.189-.838.375c-1.991.729-3.437 1.683-4.883 2.637-.616.449-1.233.899-1.92 1.316.603-.41 1.135-.853 1.575-1.29-1.369.663-2.426 1.304-3.3 2.177q-.22.093-.452.181c-1.313.38-2.113.988-2.913 1.596-1.124.787-2.248 1.575-3.443 2.332a43 43 0 0 0 3.086-2.29c-2.298 1.286-4.28 2.537-6.078 4.009q-.324.166-.658.328c-1.31.4-2.102 1.025-2.893 1.65-.644.501-1.409.993-2.072 1.493.604-.49 1.213-.98 1.723-1.465-2.117 1.347-3.884 2.668-5.268 4.015.058-.036.1-.073.158-.109-.058.037-.096.075-.154.111-.378-.025-.383-.033-.383-.033-.48.427-.997.851-1.562 1.274.54-.418.96-.839 1.236-1.25-1.114.672-1.904 1.32-2.334 1.994.107-.062.195-.125.295-.188-.102.065-.175.131-.283.196-.282-.014-.345-.032-.358-.038h-.002v-.002h-.002c-1.964 1.572-3.928 3.145-5.99 4.721a148 148 0 0 0 5.633-4.697c-3.757 2.735-7.217 5.45-10.373 8.18q-.615.432-1.248.865c-1.46.67-2.236 1.308-3.01 1.947-.783.748-1.565 1.496-2.451 2.252a21 21 0 0 0 2.111-2.228c-1.668 1.266-3.035 2.512-4.08 3.775q-.215.154-.44.309c-.787.327-.965.606-1.144.884-.552.52-1.22 1.036-1.793 1.555.52-.513 1.034-1.024 1.451-1.533-1.786 1.34-3.231 2.658-4.31 3.996.16-.118.277-.239.431-.357-.155.12-.258.244-.42.365-.287-.01-.35-.027-.365-.034l-.002-.001h-.002c-2.422 2.007-4.846 4.015-7.627 6.023-.29 0-.36-.024-.377-.033l-.002-.002h-.001c-1.034 3.303-2.81 5.736-7.135 5.568-.418-.12-.553.045-.569.067v.002c.442 1.39.28 2.302-.283 2.943.486-.61.568-1.481.02-2.787-1.515 1.516-2.768 2.877-3.639 4.256.672-.128 1.312-.265 1.875-.444-.632.213-1.364.376-2.152.535-1.143.67-1.626 1.264-2.11 1.858-.457.452-.978.886-1.457 1.332.418-.432.797-.87 1.13-1.303-1.574 1.119-2.821 2.209-3.743 3.483l.172-.116q-.128.09-.26.178c-.388-.116-.522.034-.537.053l-.002.002a28 28 0 0 1-1.248 1.615c.394-.51.72-1.001.99-1.46-1.089 1.09-1.96 2.051-2.511 3.013q-.204.18-.426.361c-1.487 1.016-2.295 1.933-3.104 2.852-1.332 1.453-2.663 2.905-4.101 4.382a75 75 0 0 0 3.754-4.345c-2.589 2.492-4.878 4.952-6.866 7.398q-.372.348-.76.7c-3.447 3.381-6.243 6.615-9.037 9.847-.24.357-.48.714-.816 1.092q.39-.543.475-1.057c-.727.644-1.156 1.256-1.3 1.846a9 9 0 0 1-.3.238c-1.08.733-1.557 1.331-2.035 1.93.155 1.568.13 2.991-.57 3.95.626-.931.572-2.332.257-3.85-1.759 1.704-3.205 3.308-4.238 4.933 1.224.146 2.14.064 2.815-.191-.732.304-1.737.423-3.102.302-.86.677-1.02 1.263-1.18 1.848-.394.527-.787 1.054-1.265 1.588.407-.514.725-1.02.963-1.502-1.016.956-1.771 1.838-2.227 2.73q-.166.141-.346.284c-.766.34-.937.625-1.107.91-1.648 1.932-3.295 3.865-5.03 5.812a158 158 0 0 0 4.708-5.716c-3.186 3.407-6.095 6.733-8.711 10.04q-.438.454-.887.909c-.885.291-1.054.567-1.094.924-1.078 1.348-2.156 2.696-3.611 4.035l-.385-.01c-.814 1.243-1.663 2.459-2.457 3.717a263 263 0 0 0 2.137-3.61c-7.996 8.472-15.746 16.77-23.32 25.227-3.948 4.408-7.588 9.09-10.997 13.63 2.927-.83 5.016-2.493 6.807-4.46-1.79 1.97-3.874 3.637-6.799 4.47-.317.024-.37.016-.379.014h-.002a278 278 0 0 1-4.39 5.192 129 129 0 0 0 4.072-5.088c-2.849 3.093-5.428 6.098-7.717 9.084q-.435.454-.884.91c-1.1.723-1.579 1.324-2.057 1.926-.546.921-1.092 1.844-1.738 2.74a15 15 0 0 0 1.43-2.654c-1.213 1.405-2.128 2.727-2.716 4.224q-.076.083-.156.164c-.432-.11-.575.092-.592.117l-.002.002c1.808 3.643-1.284 5.158-3.166 6.881 1.879-1.72 4.941-3.218 2.903-6.713-5.416 5.638-10.676 11.01-15.678 16.612-2.984 3.342-5.564 7.046-7.978 10.572 2.564-1.98 4.886-3.841 6.976-5.934-2.09 2.093-4.412 3.953-6.959 5.948-.288.025-.347 0-.357-.006l-.002-.002c-.42.543-.84 1.087-1.36 1.652a7.3 7.3 0 0 0 1.016-1.613c-1.042.954-1.782 1.875-2.22 2.777q-.172.15-.358.301c-1.094.726-1.574 1.318-2.053 1.912.052 1.276.079 2.536-.476 3.483.482-.923.377-2.155.16-3.373-1.454 1.698-2.59 3.288-3.34 4.886a6.2 6.2 0 0 0 1.47-.222c-.467.154-1.031.256-1.71.296-.79.345-.952.622-1.116.9-1.298 1.517-2.598 3.034-4.025 4.513a50 50 0 0 0 3.709-4.405c-2.226 2.136-4.14 4.167-5.728 6.375l-.108.098c-.385-.112-.515.027-.53.045v.002a29 29 0 0 1-1.25 1.637c.397-.517.723-1.017.993-1.483-1.084 1.097-1.95 2.063-2.496 3.03q-.185.161-.385.326c-.81.342-.984.627-1.158.912-.325.832-.542 1.757-.863 2.591.287-.829.405-1.754.507-2.568-5.537 5.298-11.003 10.328-15.82 15.92-4.3 4.991-7.893 10.59-11.45 15.91l-.306.178c-.754.372-.92.65-1.086.928a10 10 0 0 1-.83 1.084q.397-.54.49-1.047c-.732.639-1.17 1.245-1.32 1.828a10 10 0 0 1-.299.234c-1.078.73-1.554 1.325-2.033 1.92-.572.856-1.145 1.711-1.805 2.584a21 21 0 0 0 1.485-2.482c-1.33 1.558-2.39 3.03-3.153 4.48q-.228.247-.474.498c-1.104.727-1.575 1.33-2.047 1.932-.579.86-1.158 1.72-1.822 2.594a22 22 0 0 0 1.504-2.489c-1.337 1.56-2.406 3.029-3.172 4.477q-.21.226-.434.455c-.762.375-.924.657-1.088.938-.38.514-.916 1.114-1.322 1.642.375-.523.738-1.045 1.014-1.543-1.346 1.39-2.383 2.678-3.059 3.969.414-.411.731-.818 1.08-1.227-.417.507-.691.935-1.203 1.495a9.3 9.3 0 0 0-1.52 1.646c-1.959 2.422-3.916 4.844-5.962 7.283a248 248 0 0 0 5.642-7.176c-3.766 4.316-7.264 8.543-10.47 12.746q-.566.63-1.145 1.26c-1.097.721-1.574 1.317-2.05 1.912-1.103 1.655-2.205 3.31-3.651 4.99-.28.022-.345.007-.36 0l-.002-.001h-.002c-.419.547-.837 1.095-1.353 1.658a7.2 7.2 0 0 0 1.008-1.625c-1.036.95-1.77 1.873-2.205 2.781a15 15 0 0 1-.332.275c-.757.377-.928.66-1.096.944-1.106 1.648-2.212 3.296-3.66 4.969-.3.022-.353.001-.362-.004v-.002h-.002c-1.575 3.205-2.65 6.924-7.603 7.04-.328-.008-.38-.021-.387-.025.282 2.078-.14 3.437-1.215 4.23 1.001-.771 1.341-2.103.891-4.128-2.1 1.708-3.878 3.313-5.246 4.934 1.248.091 2.306.028 3.148-.217-.9.276-2.033.36-3.392.289-.829.338-1.004.618-1.178.898-1.423 1.351-2.846 2.703-4.633 4.032-.363-.023-.367-.028-.367-.028-3.082 2.01-6.164 4.022-9.621 6.02-.305-.011-.37-.026-.385-.032l-.002-.002h-.002c-.62 1.959-1.762 3.048-3.258 3.645 1.409-.586 2.46-1.668 2.887-3.611-2.787 1.349-5.202 2.664-7.414 4.254.865.007 1.705-.023 2.492-.127-.876.125-1.824.168-2.82.171-.964-.164-1.397-.099-1.83-.033-1.228.597-2.455 1.195-3.781 1.752a29.5 29.5 0 0 0 3.422-1.841c-2.366.83-4.402 1.742-6.243 2.894q-.302.098-.615.193c-1.315-.169-2.052-.107-2.79-.047-2.129 2.59-7.554 3.981-12.942 4.016 5.294-.057 10.618-1.472 12.539-4.107-8.467 3.061-16.564 2.269-24.62.466 1.105 1.37 3.09 2.34 5.48 2.934-2.497-.603-4.59-1.599-5.8-3.012-.812-.471-1.252-.503-1.691-.535-.624.235-1.399.797-1.908.783.507.01 1.263-.59 1.744-1.117-1.088-.617-2.067-.786-2.928-1.201-6.329-3.05-12.634-6.148-18.9-8.889.389.758.667 1.493 1.054 1.95-.398-.46-.72-1.21-1.28-2.026-.275-.419-.749-.508-.749-.508-1.359-.721-2.719-1.442-4.094-2.252a48 48 0 0 0 3.965 1.928c-2.474-1.622-4.84-2.975-7.205-4.02a39 39 0 0 1-.822-.6c-1.372-1.472-2.624-2.263-3.875-3.056-3.396 1.403-3.415-1.302-4.01-3.642.005-.3.036-.356.043-.365l.002-.002a32 32 0 0 1-1.586-1.772q.784.856 1.555 1.44c-.93-1.32-1.835-2.362-2.756-3.1a19 19 0 0 1-.31-.504c-.335-1.123-.649-1.578-.962-2.031-1.855-2.078-3.709-4.156-5.58-6.348a149 149 0 0 0 5.563 5.988c-3.127-3.85-6.238-7.385-9.365-10.6q-.375-.471-.75-.954c-1.668-2.15-3.242-3.63-4.817-5.108-2.243-2.568-4.485-5.137-6.715-7.918a106 106 0 0 0 6.682 7.563c-2.686-3.442-5.338-6.53-8.014-9.252l-.007-.012c.024-.368.021-.365.021-.365-3.1.257-4.139-1.441-4.01-4.62.011-.334.026-.386.03-.394h.002c-2.348-3.09-4.696-6.182-7.032-9.63.01-.313.034-.367.04-.376h.001v-.002c-2.64-1.258-4.287-3.242-5.545-5.568 1.247 2.24 2.89 4.14 5.52 5.205-2.64-4.06-5.257-7.766-8.12-11.293l-.18-.465c-.437-1.285-1.068-2.074-1.7-2.861-.765-.964-1.53-1.928-2.27-2.963a32 32 0 0 0 2.24 2.613c-1.242-1.973-2.458-3.642-3.876-5.142q-.19-.33-.375-.672c-.77-1.963-1.736-3.403-2.701-4.844-.604-.629-1.206-1.258-1.782-1.955a14 14 0 0 0 1.758 1.621c-.939-1.35-1.856-2.41-2.976-3.3q-.149-.237-.292-.487c-.103-.95-.404-1.415-.705-1.88-.377-.423-.755-.844-1.142-1.368.375.452.75.797 1.115 1.041-.648-1.056-1.27-1.818-1.906-2.258a15 15 0 0 1-.172-.308c-.337-.768-.62-.938-.9-1.106a277 277 0 0 1-3.616-5.377 122 122 0 0 0 3.582 5.014c-2.122-3.441-4.217-6.584-6.322-9.418a107 107 0 0 1-.71-1.22c-1.34-2.479-2.644-4.236-3.948-5.993-.246-.275-.492-.549-.715-.887.215.257.455.456.69.577-.33-.728-.639-1.177-1.145-1.471a5 5 0 0 1-.13-.4c-1.771-3.287-3.729-6.054-5.686-8.823a17 17 0 0 1-1.047-1.281q.516.61 1.025.953c-.612-1.023-1.207-1.774-1.816-2.228q-.113-.21-.225-.444c-.67-1.448-1.314-2.22-1.957-2.992a159 159 0 0 1-2.904-4.28 58 58 0 0 0 2.877 3.92c-1.604-2.66-3.182-4.993-4.774-6.986l-.332-.57c-.68-1.477-1.265-2.283-1.851-3.09a25 25 0 0 1-1.303-1.615c.428.565.86 1.002 1.281 1.287-.67-1.12-1.319-1.91-1.988-2.344.09.157.182.29.273.432-.095-.145-.192-.256-.287-.414.006-.276.032-.344.041-.36l.002-.002v-.001h.002c-1.504-2.05-3.01-4.099-4.484-6.22a141 141 0 0 0 4.455 5.858c-2.511-3.851-4.997-7.386-7.692-10.752a95 95 0 0 1-.607-.988c-.093-.95-.39-1.417-.686-1.885-.42-.464-.838-.96-1.253-1.506.41.514.823.915 1.226 1.18-.681-1.108-1.337-1.889-2.016-2.314.022.035.044.062.065.097-.022-.035-.045-.057-.067-.093.022-.353.03-.358.03-.358-.588-.62-1.176-1.239-1.738-1.928a14 14 0 0 0 1.718 1.594c-.921-1.345-1.827-2.403-2.931-3.293a14 14 0 0 1-.315-.54c-.776-1.963-1.744-3.401-2.713-4.84-.426-.442-.853-.886-1.254-1.393a7 7 0 0 0 1.225 1.064c-.642-1.03-1.26-1.775-2.08-2.357a9 9 0 0 1-.23-.463c-.765-1.957-1.73-3.398-2.696-4.838-.51-.563-1.022-1.127-1.537-1.783a11.7 11.7 0 0 0 1.516 1.449c-.902-1.325-1.787-2.375-2.686-3.127q-.165-.27-.334-.564c-1-2.132-1.97-3.558-2.94-4.983-.42-.444-.842-.888-1.238-1.398a7 7 0 0 0 1.213 1.072c-.63-1.035-1.24-1.785-2.053-2.371a9 9 0 0 1-.226-.461c-.762-1.961-1.723-3.405-2.684-4.848a23 23 0 0 1-1.263-1.527c.416.524.833.931 1.244 1.197-.68-1.109-1.34-1.888-2.018-2.31.023.037.046.066.069.103-.024-.037-.048-.061-.07-.1.014-.352.02-.357.02-.357a52 52 0 0 1-1.587-2.332c.523.758 1.046 1.42 1.56 1.985-.925-1.646-1.825-2.998-2.742-4.04a29 29 0 0 1-.29-.572c-.323-1.129-.622-1.588-.923-2.047-.433-.451-.865-.901-1.271-1.418.396.438.823.808 1.242 1.092-.644-1.04-1.263-1.79-2.09-2.377a9 9 0 0 1-.207-.41c-.094-.946-.393-1.413-.691-1.879a254 254 0 0 1-3.483-5.43 97 97 0 0 0 3.455 5.067c-1.917-3.292-3.81-6.254-5.712-8.87l-.352-.622c-.333-.8-.607-.979-.88-1.157-.62-.813-1.24-1.626-1.829-2.511a20 20 0 0 0 1.807 2.158c-.957-1.684-1.895-3.051-3.043-4.246q-.13-.25-.254-.51c-.1-.951-.399-1.416-.697-1.883-.793-.986-1.586-1.973-2.35-3.03a32 32 0 0 0 2.322 2.68c-1.266-1.986-2.509-3.664-3.96-5.173a27 27 0 0 1-.337-.59c-.098-.946-.399-1.411-.699-1.877a23 23 0 0 1-1.244-1.524c.409.52.82.929 1.225 1.198-.67-1.112-1.323-1.897-1.999-2.326l.045.07c-.015-.026-.031-.042-.046-.068.022-.353.03-.356.03-.356a24 24 0 0 1-1.177-1.41q.584.707 1.16 1.08c-.674-1.104-1.33-1.88-2.008-2.303q0-.003-.004-.006c.021-.357.016-.353.016-.353a53 53 0 0 1-1.605-2.36q.796 1.154 1.58 2.01c-.93-1.652-1.837-3.005-2.758-4.047q-.14-.265-.281-.546c-.335-1.13-.636-1.595-.936-2.059-.396-.424-.785-.913-1.18-1.36q.584.59 1.163 1.026c-1.003-1.438-1.988-2.544-2.995-3.287l-.007-.012c.026-.368.017-.363.017-.363-2.288-.268-3.996-1.177-5.314-2.623 1.293 1.369 2.98 2.197 5.226 2.297-2.693-2.777-5.298-5.229-7.924-7.315q.128.4.266.783-.197-.524-.377-1.083c-1.351-1.8-2.612-2.931-3.873-4.063-.867-.58-1.735-1.16-2.617-1.826a21 21 0 0 0 2.516 1.506c-1.565-1.335-3.042-2.398-4.498-3.159q-.225-.207-.45-.425c-.381-.764-.664-.93-.945-1.098-.7-.552-1.4-1.104-2.115-1.748.69.569 1.37 1.043 2.027 1.436-1.277-1.323-2.477-2.374-3.687-3.106a21 21 0 0 1-.39-.45c-1.006-1.158-1.91-1.65-2.814-2.142-2.094-1.451-4.187-2.905-6.296-4.443a148 148 0 0 0 6.181 4.121c-3.723-2.869-7.347-5.465-10.947-7.756q-.504-.404-1.01-.818c-.388-.765-.67-.93-.951-1.094-1.855-1.143-3.712-2.286-5.578-3.611a42 42 0 0 0 5.475 3.283c-2.364-1.77-4.625-3.214-6.864-4.305q-.007-.004-.013-.01c-.02-.356-.026-.353-.026-.353-1.878-.903-3.756-1.806-5.652-2.797a85 85 0 0 0 5.527 2.461c-3.358-1.91-6.614-3.546-9.846-4.887a65 65 0 0 1-1.12-.695c-.72-.802-1.308-.956-1.895-1.11-5.347 1.986-8.168-1.5-11.322-5.47-.804-.451-1.24-.49-1.678-.53-2.57 1.034-4.46.329-6.2-.927 1.7 1.177 3.553 1.804 6.05.6-3.545-1.686-6.953-3.072-10.317-4.141q-.333-.247-.682-.47c-1.44-.792-2.65-.917-3.859-1.042-.334.252-.779.759-1.03.818.25-.064.68-.607.895-1.154-6.39-2.707-12.644-5.078-18.824-7.111 5.987 2.995 11.895 5.664 17.834 8.262-5.94-2.598-11.847-5.267-18.06-8.336a1.34 1.34 0 0 0-.77-.496 31 31 0 0 1-2.418-.758c.802.263 1.57.416 2.283.431-1.401-.69-2.668-1.054-3.851-1.076-.122-.056-.215-.077-.34-.139-1.518-.788-2.623-1.095-3.729-1.402-1.673-.394-3.345-.788-5.049-1.273 1.665.4 3.302.707 4.9.926-3.02-1.017-5.923-1.756-8.773-2.202q-.583-.221-1.175-.466c-2.12-1.135-4.005-1.58-5.891-2.024-5.262 1.68-9.076-1.224-13.293-4.494-.822-.461-1.259-.501-1.695-.543-5.161.438-10.039-.111-14.346-4.518-1.817-.82-3.242-1.132-4.666-1.445-4.938.642-9.295-.562-13.303-4.494-.811-.468-1.25-.506-1.687-.545-1.068.287-2.314 1.027-3.244.961.928.062 2.153-.716 3.062-1.295-4.867-1.701-9.565-3.094-14.213-4.152l-.738-.448c-1.448-.792-2.666-.9-3.883-1.007-5.05.99-9.037-1.349-13.281-4.528-.83-.449-1.268-.485-1.705-.521-.906.28-1.97.974-2.754.937.78.03 1.827-.697 2.582-1.27-4.844-1.696-9.53-3.088-14.162-4.15q-.397-.226-.797-.459c-1.447-.798-2.66-.916-3.873-1.035-3.38 1.1-10.492-1.124-13.31-4.474-.812-.469-1.25-.505-1.688-.543-1.67-.272-3.324-.604-4.998-.856 1.624.2 3.25.386 4.826.522-5.74-2.01-11.308-3.686-16.803-5.032.864.74 1.67 1.527 2.492 2.155-.868-.64-1.759-1.441-2.814-2.235-.835-.445-1.275-.479-1.715-.513-2.96.747-5.436-.07-7.857-1.338 2.36 1.233 4.814 1.948 7.709 1-4.396-1.7-8.641-3.061-12.819-4.084 1.364.81 2.68 1.699 4.012 2.48-1.414-.818-2.831-1.707-4.332-2.562-.827-.457-1.265-.493-1.703-.53-4.453 1.164-8.224-.074-11.88-2.673 3.515 2.602 7.32 3.803 11.71 2.341-4.739-1.694-9.307-3.057-13.82-4.07.414.38.836.73 1.257 1.074-.532-.412-1.07-.758-1.601-1.226-1.823-.81-3.247-1.118-4.672-1.426-5.053 1.025-9.033-1.356-13.338-4.484-1.168-.465-1.91-.512-2.65-.557-2.972 1.306-5.404.85-7.668-.338 2.22 1.106 4.61 1.48 7.498.004-4.591-1.715-9.022-3.115-13.406-4.186q-.283-.21-.569-.414c-1.44-.786-2.655-.904-3.869-1.021-5.092 1.15-8.945-1.658-13.305-4.479-.811-.471-1.249-.508-1.687-.545-1.289.01-2.633.186-3.924.202 1.27-.049 2.573-.323 3.752-.534-4.738-1.695-9.305-3.057-13.799-4.078 1.11.737 2.187 1.475 3.264 2.15-1.146-.707-2.324-1.484-3.608-2.302-1.843-.795-3.269-1.095-4.695-1.395-3.162 1.014-5.801.22-8.37-1.095 2.508 1.28 5.125 1.967 8.222.752-4.728-1.71-9.308-3.075-13.813-4.106 1.43.839 2.81 1.771 4.205 2.596-1.478-.86-2.96-1.79-4.525-2.672-.832-.452-1.268-.492-1.705-.531-1.161.117-2.468.603-3.516.433 1.046.166 2.335-.357 3.358-.765-5.404-2.005-10.65-3.679-15.819-5.018 4.05 2.14 7.971 4.08 12.03 5.668-4.059-1.589-7.98-3.528-12.35-5.748-.837-.45-1.277-.485-1.717-.521-4.943.674-9.246-.677-13.332-4.495-1.174-.455-1.917-.494-2.66-.535-.891.235-1.946.857-2.71.791.762.062 1.799-.598 2.548-1.127-4.4-1.701-8.639-3.068-12.799-4.093 3.353 1.97 6.581 3.717 9.943 5.146-3.362-1.428-6.588-3.175-10.287-5.295-1.85-.786-3.28-1.083-4.707-1.38-4.941.657-9.247-.677-13.322-4.522-1.176-.457-1.919-.496-2.66-.535-5.12 1.226-9.229-.764-13.332-4.555-1.83-.795-3.257-1.094-4.684-1.393-4.3-1.358-8.6-2.717-13.33-4.496-1.172-.466-1.913-.513-2.654-.56-1.933-.317-3.883-.577-5.817-.889 1.911.276 3.824.434 5.659.557-5.404-2.003-10.65-3.672-15.823-5.01 1.54 1.092 2.968 2.233 4.483 2.992-1.532-.763-3.022-1.919-4.803-3.072-.835-.447-1.275-.481-1.715-.516-4.298-1.365-8.596-2.731-13.328-4.511-1.175-.459-1.917-.502-2.658-.545-5.105 1.19-8.954-1.623-13.328-4.555-1.834-.792-3.263-1.082-4.692-1.371-5.02.894-9.034-1.356-13.279-4.53-.831-.444-1.27-.476-1.709-.507-3.361-.526-6.816-.721-10.062-1.649 3.246.928 6.7 1.124 9.898 1.31-10.03-3.444-19.895-6.552-29.715-9.298l-.262-.353c-1.776-.811-3.315-.923-4.853-1.036-2.395-.295-4.89-.257-7.164-.949 2.274.692 4.771.654 7.013.613-10.4-3.684-20.649-7.032-30.826-10.043 1.091.908 2.086 1.792 3.149 2.4-1.082-.612-2.145-1.509-3.51-2.48-1.177-.46-1.92-.503-2.662-.545-1.414-.234-2.817-.512-4.236-.724a85 85 0 0 0 4.084.389 621 621 0 0 0-30.829-10.047c3.498 2.008 6.85 3.887 10.385 5.308-3.536-1.42-6.887-3.3-10.707-5.388-.828-.437-1.269-.466-1.709-.495-1.434-.211-2.879-.38-4.314-.587 1.414.173 2.825.244 4.158.248a648 648 0 0 0-31.817-10.077c1.707 1.392 3.24 2.918 4.987 3.721-1.752-.804-3.32-2.338-5.307-3.8-.825-.443-1.264-.475-1.703-.507-3.389-.388-6.903-.34-10.14-1.261 3.237.921 6.75.872 9.98.92-10.013-3.434-19.867-6.529-29.686-9.25l-.3-.358c-1.427-.815-2.642-.93-3.858-1.047-2.466 1.032-4.579.78-6.56-.123 1.942.821 4.016.987 6.402-.22-3.944-1.422-7.738-2.52-11.496-3.262l-.451-.367c-1.084-.81-1.984-.939-2.883-1.067-3.029 1.049-5.688.819-8.176-.203 2.441.94 5.057 1.086 7.996-.135-4.979-1.757-9.784-3.187-14.54-4.273l-.427-.377c-1.785-.786-3.321-.893-4.857-.998-5.047 1.795-8.015-2.491-12.295-4.488-.825-.452-1.265-.484-1.703-.518-1.584.132-3.296.705-4.754.408 1.457.296 3.16-.297 4.584-.746-10.472-3.638-20.766-6.964-31.076-10.234-6.588-2.09-13.201-4.1-19.729-5.809 7.432 3.299 14.71 6.486 22.17 9.16-7.46-2.674-14.738-5.86-22.49-9.238-.834-.45-1.272-.487-1.711-.521-.815.275-1.788.962-2.455.847.667.114 1.63-.594 2.31-1.183-12.977-5.093-25.812-9.853-38.615-14.242q-.174-.183-.353-.377c-1.08-.814-1.977-.947-2.875-1.079-2.812 1.462-4.833.716-6.69-.658 1.814 1.292 3.794 1.958 6.524.324-3.816-1.665-7.485-3.033-11.112-4.093a10 10 0 0 0-.87-.52c-1.435-.794-2.647-.915-3.86-1.037-1.382-.362-2.779-.682-4.162-1.039 1.364.323 2.732.545 4.023.703-2.978-1.531-5.805-2.75-8.656-3.918-7.745-3.17-15.5-6.319-23.186-9.14.934 1.016 1.723 2.006 2.674 2.556-.956-.55-1.778-1.551-2.992-2.637-.82-.458-1.257-.502-1.693-.546-.996-.366-1.991-.733-3.338-1.489-.788-.432-1.224-.474-1.66-.517-2.82 2.102-3.784-.243-5.326-2.483-.802-.447-1.238-.482-1.674-.52-.333-.064-.665-.13-1.014-.269.321.067.628.059.906-.023-.633-.382-1.18-.528-1.709-.434a4 4 0 0 1-.295-.242c-.714-.731-1.301-.882-1.888-1.031-1.44.181-3.133.906-4.32.54 1.186.364 2.868-.379 4.156-.87-3.95-1.728-7.746-3.143-11.496-4.225l-.422-.365c-.757-.762-1.347-.892-1.936-1.024-2.52.857-4.47.27-6.248-.896 1.743 1.088 3.655 1.59 6.098.559-3.603-1.743-7.065-3.168-10.492-4.25a32 32 0 0 0-.438-.372c-.746-.777-1.33-.914-1.914-1.05-.596.255-1.503.823-1.895.873.39-.057 1.28-.67 1.78-1.207-5.717-3.372-11.318-6.41-16.871-9.104 2.448 4.483 6.996 5.622 10.957 7.592-3.979-1.979-8.59-3.141-11.262-7.72-1.138-.8-1.923-1.125-2.707-1.452-.512-.233-1.025-.468-1.557-.785a5.2 5.2 0 0 0 1.461.469c-.944-.71-1.807-1.154-2.654-1.325a10 10 0 0 1-.357-.318c-.724-.75-1.309-.897-1.893-1.043-1.19-.563-2.379-1.127-3.59-1.78a32 32 0 0 0 3.47 1.446c-2.151-1.313-4.205-2.35-6.236-3.097a31 31 0 0 1-.765-.526c-1.394-1.123-2.626-1.586-3.86-2.047-1.303-.53-3.039-.337-4.476-.758 1.408.342 3.117.067 4.365.432-2.376-1.774-4.643-3.221-6.924-4.273.035.779.157 1.407.346 1.912-.243-.569-.406-1.291-.465-2.211-1.023-1.166-1.944-1.639-2.863-2.11-1.017-.689-2.034-1.377-3.315-2.52-.721-.797-1.18-1.141-1.638-1.485-1.043-.743-2.086-1.486-3.143-2.313a36 36 0 0 0 3.035 1.994c-1.883-1.625-3.676-2.981-5.447-4.04a35 35 0 0 1-.55-.52c-.38-.764-.666-.929-.952-1.094-.972-.442-1.944-.886-2.955-1.666-.032-.275-.02-.336-.016-.35v-.002l.002-.002c-1.326-1.106-2.652-2.213-4.002-3.652-.019-.27-.003-.333.004-.348l.002-.002v-.002h.002c-3.134-3.18-6.269-6.361-9.386-9.765a168 168 0 0 0 9.35 9.418c-3.687-4.105-7.337-7.864-11.013-11.258l-.01-.01.026-.363c-2.34-3.091-4.68-6.184-7.01-9.639.009-.296.025-.358.03-.37v-.005h.002a25 25 0 0 1-1.307-1.613c.43.565.86 1 1.28 1.285-.675-1.116-1.323-1.903-1.987-2.334.087.149.174.274.262.41-.092-.139-.183-.244-.274-.394.004-.278.027-.345.035-.36l.002-.002.002-.001a23 23 0 0 1-1.263-1.499c.413.512.828.911 1.23 1.174-.688-1.103-1.343-1.882-2.021-2.302.02.035.043.063.064.097-.022-.035-.045-.057-.066-.094.022-.355.029-.359.029-.359a18 18 0 0 1-1.11-1.365q.549.67 1.09 1.037c-.627-1.056-1.238-1.821-1.865-2.272q-.084-.153-.168-.318a4 4 0 0 0-.183-1.043c-4.945-.848-3.563-4.96-4.31-8.408.793 3.314-.702 7.504 4.392 8.043-1.503-3.358-3.08-6.377-4.672-9.018a6 6 0 0 0-.227-.521c-.04-.64-.205-1.092-.205-1.092-.802-1.62-1.606-3.238-2.367-4.959a51 51 0 0 0 2.45 4.596c-1.165-3.013-2.405-5.69-3.886-8.15q-.114-.315-.224-.635c.164-.988.098-1.42.033-1.852-.411-.675-.821-1.35-1.197-2.107a9.4 9.4 0 0 0 1.28 1.771c-.531-1.395-1.139-2.483-1.968-3.404q-.076-.222-.148-.455c.155-.938.097-1.37.039-1.805-1.785-1.007-3.027-2.253-3.448-3.963.408 1.623 1.68 2.795 3.54 3.588-.89-2.804-1.871-5.235-3.131-7.432-.406 1.065-.576 2.016-.543 2.866-.058-.945.093-2.01.508-3.237.174-1.343.105-2.08.037-2.82-3.779-3.107-5.025-6.928-3.028-12.148.182-.988.125-1.423.067-1.858-3.185-1.81-4.776-4.115-2.112-8.213.191-1.3.127-2.041.063-2.783-.226-.51-.45-1.022-.637-1.635.192.527.447.97.738 1.297-.193-1.116-.486-1.902-1.021-2.51q-.03-.187-.057-.388c.147-1.29.085-2.03.022-2.77-.461-2.413-.923-4.826-1.326-7.306.424 2.378.909 4.687 1.42 6.882-.59-4.561-1.265-8.745-2.233-12.836q-.058-.552-.111-1.11c.355-1.527.304-2.577.254-3.628-1.667-1.485-2.081-3.072-1.854-4.783-.21 1.608.225 3.09 1.951 4.338.035-3.172-.027-5.898-.455-8.518-.586 1.192-1.113 2.366-1.375 3.49.273-1.22.82-2.502 1.444-3.853.39-1.206.348-1.94.306-2.676-.722-.45-2.021-1.032-2.365-1.394.346.353 1.659.878 2.465.965.694-5.501 1.29-10.573 1.537-15.565a152 152 0 0 0-4.086 14.424c1.111-4.813 2.451-9.573 4.16-14.787.463-1.184.502-1.925.541-2.666-2.4-5.958-.775-11.152 3.453-16.217a1.32 1.32 0 0 0 .536-.75c.349-.984.698-1.967 1.457-3.338.449-.826.489-1.264.529-1.703.279-.79.695-1.722 1-2.54-.272.818-.518 1.628-.674 2.403 1.022-2.058 1.717-3.98 2.088-5.845-.274.545-.464 1.072-.691 1.607.275-.673.431-1.224.773-1.965 1.107-2.164 1.807-3.912 2.508-5.66-1.422-2.618-.957-4.423.27-5.953-1.148 1.495-1.53 3.26.06 5.797 1.743-3.32 3.169-6.489 4.256-9.635a21 21 0 0 0 .343-.307c.784-.727.934-1.311 1.084-1.896.566-1.01 1.133-2.02 1.784-3.051a27 27 0 0 0-1.461 2.938c1.303-1.84 2.342-3.587 3.107-5.305q.257-.334.533-.672c1.104-1.07 1.573-1.99 2.041-2.91.388-.679.776-1.358 1.248-2.053a11.6 11.6 0 0 0-.93 1.955c.992-1.244 1.721-2.408 2.175-3.556q.204-.231.43-.467c1.098-1.05 1.56-1.972 2.02-2.895.721-1.316 1.442-2.631 2.616-4.295 1.112-1.451 1.773-2.556 2.432-3.66.469-.816.97-1.635 1.521-2.459-.524.81-.934 1.599-1.209 2.342 1.106-1.38 1.899-2.643 2.33-3.88-.085.102-.155.202-.236.304.082-.105.139-.206.224-.31.285-.027.35-.019.364-.014l.002.001c.432-.98.866-1.961 1.642-2.982.28-.032.34-.026.352-.023h.002l.002.002c.792-1.893 1.339-3.95 2.326-5.711-.983 1.759-1.492 3.803-1.996 5.595 4.61-6.787 8.913-13.467 12.89-20.125l.723-.865c.771-.727.912-1.311 1.053-1.894.225-.504.452-1.006.763-1.534a5 5 0 0 0-.453 1.428c.709-.953 1.156-1.817 1.313-2.639q.145-.173.31-.351c.78-.754.937-1.333 1.094-1.912.393-.68.785-1.36 1.264-2.057-.401.671-.715 1.33-.945 1.961 1-1.245 1.735-2.41 2.193-3.559q.202-.226.426-.459c1.096-1.056 1.556-1.977 2.017-2.898.57-1.017 1.14-2.033 1.795-3.068a27 27 0 0 0-1.469 2.959c1.317-1.845 2.364-3.6 3.13-5.332q.251-.324.523-.653c1.105-1.06 1.568-1.981 2.031-2.902-1.626-2.425-.844-3.504.578-4.328-1.354.79-2.083 1.841-.25 4.224 1.435-2.005 2.55-3.91 3.315-5.785q.156-.097.304-.2c.779-.742.923-1.323 1.069-1.905 1.258-2.054 2.517-4.108 3.865-6.184a126 126 0 0 0-3.537 6.072c2.536-3.67 4.8-7.25 6.771-10.802q.427-.59.871-1.186c1.433-1.411 2.21-2.664 2.987-3.916.41-.844.82-1.687 1.316-2.553a16 16 0 0 0-.988 2.446c1.022-1.537 1.774-2.985 2.254-4.4q.208-.283.435-.569c1.091-1.071 1.555-1.984 2.02-2.896.419-.751.947-1.513 1.385-2.266-.385.725-.77 1.453-1.063 2.15 1.446-2.04 2.569-3.964 3.344-5.857-.118.163-.2.321-.313.484.115-.165.182-.326.301-.492.273-.031.336-.02.35-.016h.002l.002.002c1.765-2.991 3.53-5.983 5.638-9 .279-.02.344-.009.358-.004l.002.002.002.002c.559-1.018 1.118-2.039 1.767-3.08a26 26 0 0 0-1.441 2.97c1.31-1.86 2.35-3.626 3.097-5.368q.255-.33.528-.664c5.08-6.8 9.521-13.409 13.89-20.065 14.808-22.557 29.546-45.16 44.397-67.69 11.454-17.375 23.168-34.58 34.53-52.017 13.7-21.027 27.122-42.239 40.724-63.332 6.776-10.508 13.691-20.927 20.531-31.394 7.554-11.56 15.061-23.15 22.65-34.688 7.95-12.085 16.021-24.09 23.95-36.19 9.23-14.084 17.744-28.687 30.34-40.247 6.396-5.871 12.315-12.307 19.023-17.785 8.554-6.986 17.345-13.802 26.66-19.704 11.101-7.032 23.577-10.982 36.629-12.85 5.347-.764 10.775-2.2 16.066-1.843 10.583.716 21.115 2.328 31.63 3.838 4.306.619 8.491 2.651 12.77 2.785 9.563.3 17.344 5.352 25.458 9.1 14.047 6.488 27.547 14.15 41.326 21.226 20.566 10.561 41.165 21.06 61.768 31.55 17.556 8.936 35.147 17.806 52.707 26.736 18.451 9.383 36.88 18.812 55.328 28.203 20.384 10.376 40.755 20.776 61.175 31.082 14.415 7.274 28.912 14.383 43.352 21.609a22616 22616 0 0 1 58.314 29.272c16.822 8.478 33.515 17.215 50.442 25.476 13.466 6.572 26.218 14.812 41.119 18.172 6.79 1.53 13.491 3.564 20.346 4.66 7.267 1.162 14.658 1.898 22.013 2.076 12.198.296 24.67 1.555 36.561-.408 19.316-3.189 38.284-8.531 57.344-13.191 17.624-4.31 35.158-8.99 52.765-13.37 17.262-4.293 34.568-8.414 52.047-12.658l8.309 33.309 29.076-7.127-24.266-98.975-29.105 7.178 8.44 34.73-5.29 1.62a7 7 0 0 1-.867.68c.247-.205.438-.433.557-.655-.726.316-1.178.61-1.475 1.1q-.21.075-.455.138c-2.298.115-4.03.426-5.76.737-.266 1.684-.928 2.515-1.883 2.828.857-.31 1.417-1.14 1.506-2.805-2.125.674-3.873 1.324-5.386 2.256 1.245.467 2.397.78 3.316.68-1.014.12-2.283-.186-3.726-.643-2.692.15-4.742.545-6.792.94-1.309.456-2.617.913-4.046 1.318a28 28 0 0 0 3.664-1.397c-2.438.543-4.502 1.161-6.338 2.05l-.412.08c-.997-.175-1.431-.109-1.866-.044-.948 2.296-2.47 3.262-4.48 3.416 1.92-.124 3.389-1.11 4.11-3.498-2.806.874-5.24 1.829-7.444 3.063 1.001.275 1.942.437 2.807.45-.97.007-2.031-.131-3.204-.41-1.681-.168-2.736-.1-3.79-.03-.653.394-1.304.787-2.043 1.15a9.4 9.4 0 0 0 1.707-1.232c-1.385.52-2.466 1.117-3.381 1.927q-.265.09-.55.174c-2.309.105-4.039.417-5.769.729-.182 1.446-.681 2.32-1.523 2.687.749-.358 1.158-1.226 1.162-2.662-1.789.67-3.217 1.313-4.424 2.232 1.019.464 1.889.676 2.58.612-.784.095-1.777-.105-2.992-.57-2.009-.165-3.384-.095-4.76-.024-3.482 2.733-7.284 4.472-11.486 5.352 4.103-.875 7.835-2.636 11.1-5.436-6.815 1.869-13.244 3.822-19.422 6.063 1.828.08 3.605.032 5.326-.153a39 39 0 0 1-5.72.19c-1.697-.18-2.75-.112-3.802-.045-.308.599-.52 1.548-.892 1.912.362-.367.525-1.327.506-1.99-5.107 1.544-9.833 3.164-14.327 5.062q-.255.043-.511.084c-2.706.061-4.763.364-6.82.668-1.229.473-2.458.946-3.743 1.375 1.194-.42 2.33-.888 3.354-1.348-2.407.66-4.442 1.292-6.426 2.235l-.465.107c-.81-.228-1.244-.168-1.68-.107-.83.418-1.661.837-2.591 1.219.836-.388 1.59-.832 2.236-1.301-1.724.54-3.118 1.157-4.314 2.02q-.275.076-.561.15c-3.67.483-6.719 1.198-9.766 1.914-.835.27-1.67.54-2.562.761a15 15 0 0 0 2.19-.847c-1.695.28-3.063.633-4.356 1.244q-.307.036-.627.06c-1.168-.32-1.905-.265-2.643-.21-1.297 1.315-2.609 2.599-4.27 3.216 1.565-.614 2.793-1.926 3.89-3.298-3.144.881-5.908 1.846-8.432 3.093 1.199.493 2.253.64 3.195.537-1.048.134-2.234.006-3.619-.498-2.362-.171-4.062-.1-5.762-.029-.32.214-.64.428-1.039.611a2 2 0 0 0 .733-.7c-.768.202-1.242.49-1.573.995q-.165.043-.35.078c-.907-.128-1.34-.07-1.773-.01-3.195.692-6.412 1.883-9.6 2.364-1.06.16-2.116.243-3.167.201 1.053.042 2.113-.04 3.168-.201 3.164-.486 6.293-1.694 9.15-2.451-6.336.16-12.23.695-18.11.57-5.174-.11-10.334-.956-15.4-1.117 3.547.683 7.063 1.407 10.57 1.998-3.578-.603-7.22-1.351-10.997-2.076-2.561-.477-4.592-.517-6.623-.557-2.722 1.05-5.857 1.2-8.776.5 2.873.612 5.961.373 8.588-.855-5.354-1.438-10.524-2.527-15.668-3.27a12 12 0 0 1-.299-.353c-2.418-1.122-4.638-1.556-6.857-1.99-1.51-.396-3.017-.792-4.549-1.276 1.497.403 2.97.712 4.402.934-2.728-1.019-5.337-1.76-7.896-2.21q-.498-.21-1.002-.443c-1.1-1.116-2.024-1.563-2.95-2.011-1.316.199-2.848.882-3.997.703 1.147.175 2.661-.546 3.853-1.034-6.047-3.11-11.952-5.888-17.861-8.279.155.716.225 1.437.38 1.947-.156-.51-.227-1.228-.386-1.937-.001-.308.01-.376.016-.39l.001-.003v-.002c-1.688-.736-3.376-1.473-5.091-2.298a66 66 0 0 0 4.96 1.962c-3.042-1.611-5.977-2.95-8.87-4.003a55 55 0 0 1-1.112-.65c-2.1-1.448-4-2.228-5.898-3.009-1.526.956-2.774 1.176-3.791.65.984.446 2.203.144 3.67-.984-2.038-1.12-3.955-1.904-5.875-2.314q.187.616.406 1.127a12 12 0 0 1-.547-1.444c-1.376-1.15-2.615-1.61-3.853-2.07-1.347.48-2.593.694-3.655.283 1.03.333 2.245.034 3.528-.615-2.04-1.115-3.953-1.899-5.866-2.307q.114.36.243.672a9 9 0 0 1-.37-.966c-1.047-1.13-1.968-1.588-2.888-2.045-1.785.221-3.582.475-5.182.037 1.562.356 3.32.017 5.03-.373-3.052-1.444-5.952-2.552-8.823-3.293q.104.257.213.494-.192-.38-.367-.815c-1.745-1.144-3.306-1.601-4.867-2.058-1.002-.394-2.005-.788-3.03-1.27.992.4 1.964.713 2.903.94-1.835-1.013-3.567-1.758-5.268-2.215q-.35-.216-.707-.455c-3.083-2.12-5.99-3.57-8.896-5.02-.324-.064-.646-.128-.99-.267.313.064.611.055.884-.026-.628-.382-1.17-.529-1.693-.437a5 5 0 0 1-.336-.281c-16.026-8.488-31.92-16.283-47.73-24.237-20.302-10.212-40.517-20.594-60.81-30.826-19.403-9.784-38.88-19.424-58.282-29.213-18.248-9.206-36.447-18.514-54.657-27.797-20.578-10.49-41.172-20.95-61.709-31.521-12.9-6.641-25.665-13.548-38.572-20.176-9.429-4.842-19.073-9.266-28.473-14.162-14.855-7.738-29.925-14.906-46.347-18.701-4.257-.984-8.608-1.58-12.934-2.24-6.287-.96-12.565-2.065-18.89-2.645-6.687-.613-13.466-1.285-20.13-.832m1561.34 989.344c2.88-.487 5.388-1.68 6.974-4.748-4.47 1.554-8.563 3.196-12.44 5.115 1.877-.037 3.738-.075 5.465-.367M173.67 473.033c-1.427 2.913-3.21 5.842-5.322 8.881a68.4 68.4 0 0 1 5.322-8.88m-27.541 41.35q-.441.255-.916.48c.313-.147.612-.317.916-.48m-32.463 49.662c-.785 1.015-1.218 1.995-1.344 2.867.77-1.04 1.234-1.97 1.344-2.867m-7.213 10.959c-1.04 1.356-1.76 2.672-2.162 3.883 1.04-1.378 1.761-2.65 2.162-3.883m-25.058 46.021c-.677 1.05-1.026 2.033-1.061 2.907.672-1.065 1.03-2.019 1.06-2.907m-1.99 3.995c-4.15 4.838-5.774 10.032-3.018 15.785 1.36-5.417 2.364-10.63 3.017-15.785m-2.721 74.175c-2.697 3.726-1.107 6.03 2.17 7.444-.567-2.808-1.226-5.218-2.17-7.444m2.046 10.028c-2.033 4.891-.784 8.71 3.082 11.427-.875-4.144-1.841-7.897-3.082-11.427m2254.426 8.101c.89 2.467 1.865 4.573 3.112 6.444 1.292-3.488.51-5.838-3.112-6.444m-2231.16 53.031c2.332 2.728 4.645 5.828 6.98 9.288-2.319-2.733-4.657-5.823-6.98-9.288m18.037 21.963c1.34 1.454 2.665 2.559 3.957 3.319-1.346-1.454-2.658-2.56-3.957-3.319m2235.108 1.037c.889 3.81 1.866 7.231 3.132 10.383 1.027-4.355 1.514-8.366-3.132-10.383m-2231.094 2.971c1.002.794 1.974 1.235 2.853 1.363-1.023-.78-1.953-1.247-2.853-1.363m11.91 9.254c1.013 1.025 2.03 1.715 2.957 2.104-1.045-1.013-1.999-1.727-2.957-2.104m82.049 43.984c1.223 2.163 2.185 4.507 4.869 2.088-1.729-1.018-3.321-1.72-4.87-2.088m6.984 3.004c1.028.675 2.023 1.04 2.91 1.094-1.053-.676-1.997-1.039-2.91-1.094m2117.645 42.442a86 86 0 0 1-8.28 7.006c2.397-2.34 5.162-4.654 8.28-7.006m-1967.61 12.582c3.961 1.916 6.929 6.204 11.836 4.07-4.06-1.695-7.981-3.051-11.836-4.07m1883.596 39.402c-2.116 1.022-3.868 2.016-5.41 3.274 2.377-.437 5.928 1.021 5.41-3.274m-1694.87 23.24c.038.027.077.048.114.073-.037-.025-.076-.046-.113-.073m30.278 8.362c3.924 3.095 7.94 5.346 12.817 4.107-4.392-1.71-8.64-3.076-12.817-4.107m1592.955 4.82c-.734.092-1.544.06-2.359.018.817.068 1.605.07 2.36-.018m-1574.96 1.152c4.03 2.783 7.88 5.596 12.83 4.07-4.4-1.697-8.646-3.06-12.83-4.07m16.005 5.03c4.179 1.024 8.427 2.382 12.82 4.086-4.153-1.021-8.45-2.386-12.82-4.086m1534.168 3.664c-1.314.341-2.792.415-4.25.607-.34.045-.671.12-1.006.186a13 13 0 0 1 1.006-.186c1.432-.203 2.941-.244 4.25-.607m-1500.17 7.347c4.183 1.02 8.435 2.376 12.827 4.075-4.159-1.018-8.459-2.378-12.827-4.075m17.996 5.955c3.759 3.644 7.869 5.632 12.829 4.075-4.402-1.696-8.645-3.059-12.829-4.075m16.008 5.024c3.713 3.764 8.022 5.096 12.817 4.096-4.394-1.706-8.642-3.068-12.817-4.096m33.996 11.012c3.723 3.739 8.026 5.088 12.823 4.072-4.395-1.698-8.643-3.053-12.823-4.072m67.985 22.007c4.04 2.739 7.896 5.547 12.838 4.057-4.397-1.697-8.646-3.053-12.838-4.057m1182.5 8.186c-2.412.607-4.862 1.068-7.399 1.457 2.507-.386 4.972-.846 7.399-1.457m-1148.489 2.805c3.944 3.046 7.925 5.427 12.83 4.064-4.396-1.693-8.646-3.047-12.83-4.064m1092.629 7.556c-3.478.878-6.572 1.845-9.394 3.098 3.96.69 8.06 2.276 9.394-3.098m-49.004 11.002c-3.478.878-6.569 1.847-9.402 3.092 4.126 1.195 7.517.718 9.402-3.092m-975.632 3.438c2.498 3.273 9.61 5.495 12.836 4.058-4.4-1.696-8.644-3.053-12.836-4.058m34.02 10.97c3.923 3.103 7.91 5.44 12.814 4.108-4.394-1.71-8.64-3.077-12.815-4.108m19.751 7.102c2.856 1.513 5.685 3.038 8.604 4.172-2.884-1.12-5.707-2.545-8.604-4.172m14.23 3.916c3.69 3.851 8.048 5.055 12.83 4.076-4.397-1.7-8.641-3.061-12.83-4.076m17.993 6.018c3.965 4.248 8.842 4.795 13.826 4.02-4.744-1.683-9.31-3.026-13.826-4.02m16.017 4.984c3.898 3.19 7.712 6.093 12.815 4.072-4.4-1.697-8.64-3.054-12.815-4.072m73.979 27c2.834 3.89 5.654 7.377 10.855 5.068-3.73-2.016-7.316-3.709-10.855-5.068m595.623 16.42c-2.068 1.98-4.49 3.988-7.29 5.984 2.062-1.993 4.498-3.975 7.29-5.984m-8.01 6c-2.58 1.784-4.804 3.529-6.68 5.465 4.23.232 6.003-2.202 6.68-5.465m-66.943 67.059c-1.433 1.368-2.554 2.648-3.299 3.943 1.455-1.334 2.533-2.683 3.299-3.944m-99.578 111.656c-.118.291-.238.58-.399.834.161-.258.29-.54.399-.834m-228.1 42.625c2.332 2.728 4.642 5.828 6.986 9.287a105 105 0 0 1-6.986-9.287m6.996 10.029c-.135 3.187.904 4.885 3.916 4.305-1.357-1.781-2.627-3.239-3.916-4.305m158.678 16.707c-1.448 1.697-2.574 3.3-3.342 4.885 1.46-1.671 2.562-3.326 3.342-4.885m-7.99 9.022c-1.452 1.69-2.583 3.284-3.356 4.863 1.464-1.663 2.571-3.311 3.356-4.863m-4.05 4.904c-2.78 2.352-5.214 4.667-7.265 6.998 4.963-.11 6.036-3.83 7.266-6.998m-115.624 7.316c.581 2.36.6 5.065 3.894 3.358-1.36-1.443-2.617-2.581-3.894-3.358m100.648 5.696c-1.78 1.343-3.22 2.66-4.295 4.002 1.79-1.328 3.211-2.678 4.295-4.002m-5.025 4.002c-2.716 1.986-5.799 3.995-9.266 5.986 2.71-2.001 5.805-3.98 9.266-5.986" style="fill:#fff;fill-opacity:1"/></svg>