<svg xmlns="http://www.w3.org/2000/svg" viewBox="0 0 2735 1500" xml:space="preserve"><path fill="#fff" d="M1659.976 1363.24c-10.663-.05-21.388-.837-31.972.046-11.4.952-22.676 2.784-33.912 5.896-17.665 4.892-28.427 17.959-40.434 29.844-6.006 5.944-11.987 11.926-17.72 18.13-6.89 7.458-13.158 15.52-20.35 22.662-5.65 5.612-12.428 10.07-18.467 15.313-9.845 8.549-21.488 13.924-33.598 17.808-10.52 3.373-21.558 5.826-32.54 6.863-10.458.988-21.154-.145-31.72-.777-11.783-.706-22.434-5.19-32.743-10.68-6.406-3.412-13.673-5.585-19.356-9.894-9.633-7.304-18.582-15.584-27.314-23.98-6.107-5.872-11.37-12.622-17.014-18.976-10.894-12.264-21.798-24.518-32.683-36.789-11.138-12.556-22.279-25.083-36.292-34.657-7.696-5.259-14.7-11.707-22.836-16.101-10.642-5.749-22.08-10.032-33.206-14.877-5.986-2.606-11.971-5.233-18.07-7.556-7.78-2.964-15.663-5.66-23.521-8.416a2958 2958 0 0 0-23.1-7.968 781 781 0 0 0-11.89-3.929c-12.474-4.036-24.925-8.146-37.444-12.041-5.172-1.61-10.569-2.504-15.725-4.153-7.163-2.291-14.161-5.09-21.293-7.484-8.674-2.914-17.42-5.61-26.12-8.448-4.74-1.546-9.42-3.284-14.18-4.768-9.001-2.808-18.085-5.357-27.05-8.274-7.46-2.427-14.748-5.379-22.203-7.821-7.777-2.549-15.71-4.623-23.49-7.165-8.514-2.782-16.878-6.027-25.405-8.765-8.106-2.604-16.387-4.662-24.5-7.242-7.762-2.468-15.366-5.431-23.117-7.937-8.713-2.816-17.548-5.256-26.265-8.06-7.186-2.31-14.239-5.038-21.423-7.355-9.274-2.992-18.66-5.641-27.925-8.659-8.061-2.625-15.958-5.764-24.044-8.304-10.84-3.405-21.841-6.298-32.68-9.704-7.629-2.397-15.064-5.403-22.66-7.913-5.63-1.862-11.394-3.313-17.069-5.045-3.647-1.113-7.24-2.402-10.856-3.617-9.223-3.1-18.44-6.22-27.672-9.298-8.187-2.732-16.388-5.42-24.584-8.126-3.95-1.304-7.872-2.7-11.858-3.886-5.05-1.503-10.197-2.685-15.22-4.268a2521 2521 0 0 1-36.641-11.843c-7.928-2.633-15.73-5.646-23.67-8.242-11.263-3.683-22.63-7.047-33.897-10.72-11.534-3.759-22.992-7.754-34.502-11.59-4.58-1.527-9.219-2.876-13.816-4.353-8.221-2.64-16.412-5.375-24.651-7.96-11.946-3.747-23.96-7.279-35.873-11.127-7.464-2.412-14.75-5.369-22.198-7.837-7.616-2.524-15.4-4.551-22.984-7.163-7.539-2.596-14.882-5.756-22.382-8.47-7.378-2.67-14.911-4.914-22.256-7.666-8.541-3.2-16.951-6.75-25.418-10.147-10.068-4.04-20.2-7.93-30.19-12.156-11.019-4.66-21.895-9.66-32.86-14.449-10.22-4.463-20.71-8.381-30.646-13.4-8.871-4.48-17.085-10.245-25.709-15.236-5.719-3.31-11.949-5.809-17.415-9.47-8.778-5.877-17.49-11.973-25.534-18.795-8.657-7.342-17.351-14.94-24.501-23.677-8.348-10.2-15.865-21.303-22.174-32.87-4.444-8.147-6.564-17.637-9.183-26.683-2.414-8.337-4.288-16.845-6.04-25.352-.787-3.814-.92-7.806-.96-11.72-.118-11.5-.792-23.065.207-34.478.731-8.351 3.473-16.585 5.855-24.714a144 144 0 0 1 7.05-18.944c1.906-4.205 4.403-8.333 7.427-11.807 14.205-16.318 28.247-32.886 46.206-45.341 11.427-7.924 23.503-14.929 34.758-23.078 13.76-9.962 27.02-20.62 40.39-31.112 8.862-6.953 17.653-14.004 26.263-21.264 7.42-6.258 14.635-12.77 21.763-19.36 6.3-5.826 12.302-11.97 18.529-17.876 12-11.382 21.874-24.537 31.79-37.676 4.128-5.47 8.869-10.485 12.877-16.035 7.099-9.83 13.874-19.894 20.741-29.89 6.726-9.789 13.259-19.713 20.127-29.4 8.29-11.693 16.578-23.406 25.358-34.729 9.01-11.62 18.65-22.75 27.946-34.15 7.261-8.906 14.365-17.941 21.641-26.836 3.631-4.44 7.478-8.703 11.248-13.028 8.992-10.316 18.02-20.6 26.983-30.942 3.68-4.245 7.386-8.484 10.763-12.964 1.543-2.047 1.555-3.969-.514-6.693-7.138-9.398-17.005-15.16-26.677-21.069-15.862-9.69-28.223-22.623-38.103-38.187-3.025-4.766-7.101-8.985-9.433-14.037-2.517-5.451-3.684-11.552-5.187-17.434-.92-3.602-1.988-7.343-1.88-10.989.165-5.496.872-11.064 2.134-16.416 1.46-6.194 3.122-12.5 5.867-18.193 3.89-8.07 8.205-16.097 13.474-23.314 17.314-23.714 39.737-42.701 60.426-63.233 10.969-10.887 23.163-20.74 36.888-28.404 5.631-3.144 10.554-7.544 16.13-10.808 3.265-1.912 7.117-2.952 10.82-3.96 8.675-2.36 17.337-4.916 26.16-6.533 7.356-1.347 14.937-1.457 22.415-2.14 7.533-.688 14.409 1.78 21.344 4.203 6.956 2.432 14.15 4.223 20.993 6.92 5.487 2.164 10.598 5.277 15.886 7.949 9.285 4.692 18.588 9.347 27.863 14.057 13.743 6.98 27.437 14.056 41.213 20.97 8.878 4.456 17.95 8.53 26.778 13.078 9.034 4.655 17.796 9.84 26.831 14.493 7.774 4.004 15.818 7.48 23.643 11.388 6.864 3.429 13.543 7.228 20.388 10.697 12.14 6.154 24.367 12.135 36.51 18.28 6.876 3.48 13.624 7.209 20.487 10.712 7.969 4.066 16 8.01 24.52 12.264l17.532-32.142 30.753 16.623-52.488 96.86-30.751-16.644c5.279-9.761 10.323-19.436 15.733-28.902 1.886-3.3 1.383-4.863-1.977-6.386-5.376-2.439-10.607-5.201-15.863-7.9-9.114-4.68-18.19-9.434-27.3-14.121-10.121-5.207-20.204-10.492-30.415-15.516-7.029-3.458-14.319-6.381-21.36-9.815-6.613-3.226-13.053-6.807-19.568-10.235-7.35-3.867-14.635-7.864-22.064-11.574-9.33-4.658-18.823-8.988-28.16-13.632-8.933-4.443-17.746-9.127-26.63-13.668-16.314-8.34-32.642-16.655-48.965-24.979-6.855-3.495-13.433-7.783-20.63-10.3-12.43-4.348-25.02-9.095-38.673-6.463-4.1.79-8.15 1.896-12.161 3.07-10.024 2.931-19.216 7.639-27.854 13.455-6.287 4.233-12.912 8.073-18.711 12.899-8.525 7.094-16.566 14.787-24.598 22.45-12.015 11.464-24.14 22.839-35.64 34.806-7.032 7.318-13.692 15.152-17.058 25.16-1.62 4.815-4.185 9.31-5.82 14.12-4.315 12.688.234 23.417 7.905 33.342 3.385 4.38 7.158 8.523 10.037 13.214 4.084 6.657 10.92 9.611 16.91 13.657 15.452 10.435 31.294 20.375 41.576 36.639 7.614 12.043 6.414 24.1.65 36.578-6.175 13.369-17.348 22.547-26.54 33.392-9.676 11.418-19.508 22.705-29.116 34.18-11.1 13.254-22.201 26.516-32.982 40.03-9.067 11.365-17.792 23.008-26.453 34.689a1590 1590 0 0 0-25.138 34.874c-5.284 7.544-9.971 15.508-15.26 23.049-5.632 8.03-11.547 15.87-17.537 23.639-8.952 11.611-18.076 23.09-27.129 34.623-.704.896-1.335 1.87-2.144 2.66-12.99 12.693-25.696 25.697-39.093 37.945-14.047 12.84-28.716 25.004-43.204 37.357-7.462 6.363-14.849 12.867-22.756 18.642-11.525 8.417-23.597 16.082-35.237 24.346-12.457 8.845-25.305 17.297-36.81 27.273-8.823 7.65-15.943 17.302-23.557 26.288-1.925 2.272-3.01 5.328-4.182 8.149-2.15 5.171-4.377 10.345-5.999 15.692-1.162 3.834-1.734 7.931-1.968 11.946-.549 9.408-1.268 18.858-.889 28.25.265 6.56 1.965 13.115 3.509 19.556 1.824 7.608 4.197 15.084 6.286 22.63 3.145 11.365 9.756 20.938 17.226 29.557 7.925 9.143 17.25 17.096 26.19 25.324 3.858 3.55 8.065 6.83 12.497 9.624 8.67 5.464 17.585 10.543 26.445 15.7 6.243 3.632 12.464 7.325 18.876 10.64 7.69 3.977 15.49 7.767 23.396 11.296 8.996 4.016 18.137 7.714 27.26 11.438 7.259 2.963 14.635 5.64 21.872 8.655 8.73 3.637 17.297 7.675 26.067 11.212 9.345 3.769 18.84 7.169 28.28 10.703 6.438 2.41 12.86 4.87 19.348 7.136 7.846 2.74 15.769 5.26 23.635 7.942 7.458 2.543 14.863 5.241 22.333 7.747 8.372 2.809 16.792 5.472 25.188 8.21 9.319 3.04 18.609 6.17 27.957 9.116 7.654 2.411 15.413 4.49 23.056 6.934 7.638 2.442 15.173 5.202 22.783 7.733 8.392 2.791 16.82 5.473 25.226 8.218 11.297 3.69 22.577 7.433 33.887 11.083 11.417 3.684 22.875 7.242 34.29 10.935 4.864 1.574 9.642 3.412 14.496 5.021 7.153 2.371 14.32 4.7 21.514 6.942 5.514 1.718 11.1 3.204 16.616 4.916 11.807 3.666 23.613 7.338 35.372 11.15 7.936 2.573 15.764 5.48 23.694 8.073 8.363 2.734 16.817 5.19 25.181 7.922 7.78 2.541 15.48 5.322 23.238 7.928 5.177 1.738 10.407 3.317 15.592 5.031 7.545 2.495 15.07 5.05 22.604 7.576 4.384 1.47 8.747 3.007 13.16 4.385 8.252 2.575 16.543 5.022 24.799 7.584 12.232 3.796 24.487 7.53 36.658 11.514 8.357 2.737 16.53 6.039 24.894 8.75 8.098 2.623 16.389 4.65 24.498 7.241 7.61 2.43 15.043 5.411 22.646 7.866 8.855 2.859 17.835 5.333 26.714 8.12 6.597 2.07 13.097 4.445 19.683 6.553 5.956 1.907 12.014 3.5 17.946 5.473 11.717 3.898 23.357 8.023 35.068 11.938 7.31 2.444 14.703 4.636 22.036 7.01 11.118 3.601 22.191 7.34 33.332 10.865 5.942 1.88 12.043 3.262 17.97 5.182 7.298 2.364 14.445 5.193 21.739 7.57 8.988 2.929 18.083 5.53 27.092 8.401 7.002 2.232 13.992 4.52 20.898 7.03 12.943 4.704 25.965 9.24 38.682 14.504 10.895 4.51 21.782 9.287 31.996 15.127 11.885 6.795 23.495 14.276 34.365 22.583 9.452 7.223 17.987 15.734 26.416 24.185 8.525 8.547 16.58 17.58 24.552 26.655 8.904 10.136 17.214 20.801 26.274 30.79 9.97 10.993 19.19 23.047 32.443 30.359 9.363 5.165 19.083 10.595 29.326 13.012 12.033 2.84 24.686 5.082 37.328.951 5.482-1.791 11.834-1.232 17.041-3.48a141.7 141.7 0 0 0 23.943-13.207c13.759-9.451 24.09-22.462 34.652-35.216 4.708-5.687 10.432-10.53 15.672-15.78 5.805-5.814 12-11.305 17.276-17.568 7.628-9.054 17.668-14.262 28.141-18.62 8.836-3.675 18.026-6.754 27.326-8.98 7.094-1.697 14.59-1.97 21.934-2.3 13.073-.588 26.18-1.267 39.245-.921 12.765.338 25.545 1.526 38.228 3.076 8.287 1.012 16.386 3.483 24.62 5.029 7.651 1.435 15.354 2.627 23.063 3.713 9.035 1.274 18.105 2.302 27.156 3.464q14.025 1.8 28.043 3.66c4.521.6 9.05 1.89 13.546 1.772 8.482-.223 17.304.013 25.305-2.297 7.184-2.074 13.95-6.657 20.029-11.28 12.9-9.814 25.282-20.313 37.778-30.65 7.25-5.998 14.039-12.582 21.529-18.25 6.945-5.257 14.353-9.982 21.904-14.342 11.829-6.829 23.72-13.635 36.039-19.5 6.729-3.203 14.371-4.513 21.634-6.565 10.507-2.97 20.996-6.028 31.584-8.682 7.044-1.764 14.253-2.862 21.378-4.31 4.73-.963 9.475-1.88 14.154-3.057 11.068-2.782 22.045-5.95 33.163-8.506 11.956-2.749 24.037-4.953 36.054-7.44 4.735-.982 9.48-1.954 14.159-3.168 6.673-1.732 13.218-4.003 19.944-5.465 10.89-2.366 21.915-4.108 32.821-6.406 8.504-1.791 16.912-4.042 25.37-6.061 9.706-2.318 19.505-4.297 29.108-6.983 12.055-3.373 23.949-7.325 35.917-11.009 5.371-1.653 10.802-3.123 16.123-4.92 11.19-3.781 22.273-7.883 33.5-11.545 8.367-2.73 16.9-4.944 25.339-7.454 4.318-1.284 8.597-2.7 12.885-4.082 11.307-3.643 22.685-7.09 33.893-11.016 9.982-3.497 19.78-7.522 29.651-11.332 9.963-3.846 19.978-7.564 29.852-11.626 6.219-2.559 12.2-5.692 18.325-8.485 6.988-3.187 14.061-6.186 21.016-9.442 7.543-3.532 15.007-7.235 22.478-10.919 9.433-4.651 18.895-9.248 28.24-14.072 9.815-5.067 19.615-10.182 29.22-15.63 10.097-5.724 19.842-12.068 29.946-17.777 11.862-6.702 21.266-16.31 31.273-25.261 8.373-7.492 14.504-16.43 18.822-26.696 3.97-9.44 9.133-18.623 11.384-28.466 1.874-8.192.316-17.176.2-25.809-.023-1.785-.443-3.562-.591-5.35-.418-5.043 1.242-10.424-2.842-14.87-.674-.735.004-2.6-.193-3.904-.968-6.409-1.706-12.875-3.124-19.187-1.656-7.368-3.88-14.611-5.95-21.882-3.649-12.81-7.421-25.586-11.045-38.403-3.707-13.11-7.208-26.279-10.972-39.371-2.746-9.55-5.887-18.985-8.64-28.533-2.584-8.965-4.756-18.05-7.365-27.007-1.694-5.818-4.073-11.44-5.72-17.27-1.398-4.949-2.029-10.11-3.294-15.104-1.181-4.664-2.828-9.208-4.132-13.843-2.003-7.114-3.857-14.27-5.83-21.393-2.309-8.332-4.591-16.672-7.041-24.962-3.547-12.002-7.38-23.92-10.82-35.952-3.488-12.198-6.75-24.463-9.926-36.747-4.185-16.184-7.934-32.484-12.352-48.602-3.56-12.99-7.998-25.737-11.743-38.68-2.947-10.182-5.328-20.527-8.15-30.747-2.864-10.373-5.934-20.69-8.962-31.017-3.871-13.2-7.97-26.337-11.632-39.595-2.733-9.892-4.758-19.979-7.423-29.892-2.034-7.565-4.662-14.968-6.874-22.488-2.77-9.411-5.264-18.905-8.107-28.294-1.941-6.411-4.484-12.642-6.394-19.062-4.946-16.622-11.947-32.412-21.952-46.449-8.368-11.739-17.723-23.006-28.02-33.07-9.696-9.477-21.114-17.213-31.928-25.514-7.469-5.734-14.795-11.823-22.896-16.527-17.099-9.928-34.455-19.47-52.136-28.31-7.656-3.827-16.391-5.481-24.608-8.207-4.727-1.569-9.366-3.41-14.104-4.943-5.495-1.776-11.039-3.408-16.592-4.996-9.584-2.74-19.197-5.375-28.785-8.102-5.546-1.578-11.068-3.238-16.595-4.882-12.293-3.656-24.544-7.46-36.886-10.945-9.13-2.578-18.43-4.557-27.555-7.153-8.79-2.502-17.4-5.637-26.187-8.157-9.738-2.793-19.573-5.257-29.393-7.757-4.836-1.23-9.806-1.971-14.59-3.368-10.987-3.209-21.119-1.822-31.674 2.861-12.066 5.353-22.066 12.721-29.067 23.678-9.429 14.758-13.7 30.528-10.773 48.56 2.464 15.184 13.153 23.535 22.949 32.764 6.307 5.942 14.19 10.374 22.998 11.343 6.859.754 13.9-.104 20.858-.332 1.613-.053 3.21-.625 4.823-.674 11.6-.355 23.21-.487 34.803-.983 10.853-.465 21.687-1.354 32.535-1.938 8.572-.462 17.236-1.643 25.71-.87 9.755.89 19.347 3.577 29.01 5.488 11.933 2.359 21.806 8.65 29.992 17.214 5.84 6.109 11.091 12.975 15.554 20.156 5.255 8.457 9.844 17.414 13.821 26.546 2.594 5.957 3.622 12.603 5.286 18.957 1.387 5.294 2.815 10.583 3.97 15.93.886 4.098 1.712 8.262 1.957 12.433.332 5.647-.26 11.353.155 16.99.823 11.206-2.078 21.774-6.309 31.736-3.386 7.975-8.804 15.092-13.369 22.56-7.893 12.916-15.78 25.836-23.753 38.702-6.187 9.986-12.6 19.833-18.73 29.851-6.45 10.537-12.587 21.263-19.04 31.797-6.208 10.133-12.744 20.064-18.952 30.196-6.454 10.534-12.585 21.265-19.044 31.796-8.524 13.897-17.31 27.634-25.84 41.528q-20.624 33.6-41.042 67.326c-9.417 15.554-18.504 31.31-28.054 46.78-6.39 10.35-13.48 20.265-19.993 30.542-7.08 11.171-13.842 22.544-20.767 33.814-6.024 9.803-12.185 19.523-18.095 29.394-5.862 9.79-11.271 19.855-17.27 29.557-7.725 12.495-15.968 24.669-23.738 37.137-4.93 7.912-9.254 16.202-14.125 24.154-6.108 9.97-12.549 19.737-18.751 29.652-5.128 8.196-10.13 16.47-15.163 24.724a3628 3628 0 0 0-11.25 18.591c-12.123 20.152-24.216 40.322-36.36 60.461-9.18 15.224-18.46 30.387-27.62 45.622-9.38 15.6-18.619 31.286-28.017 46.876-7.33 12.159-14.86 24.197-22.209 36.345-5.59 9.242-10.352 19.072-16.703 27.747-9.792 13.376-19.314 27.212-33.777 36.343-4.485 2.832-8.59 6.544-13.42 8.488-7.703 3.103-15.922 4.903-23.826 7.542-15.883 5.304-32.531 4.402-48.828 5.7-18.329 1.46-36.948 2.334-55.205.747-16.806-1.462-33.525-2.614-50.365-2.491-.662.005-1.455.136-1.967-.165-10.6-6.225-23.003-5.974-34.38-9.491-10.742-3.321-22.157-4.412-33-7.461-16.486-4.635-32.622-10.84-46.003-21.644-6.284-5.073-12.076-12.747-11.997-21.511.11-12.185 1.126-24.047 8.883-35.134 8.268-11.818 19.665-19.292 30.625-27.462 6.875-5.125 15.095-8.476 22.8-12.452 10.126-5.226 20.33-10.306 30.517-15.412 18.942-9.494 37.97-18.822 56.806-28.52 6.094-3.137 12.716-5.354 17.61-10.788 12.347-13.71 11.55-26.07-2.526-37.51-8.253-6.707-16.343-13.616-24.485-20.46-16.662-14.009-33.382-27.952-49.932-42.092-7.601-6.494-14.734-13.536-22.301-20.071-10.282-8.88-20.856-17.42-31.16-26.275-10.976-9.43-21.69-19.166-32.692-28.565-9.281-7.93-18.855-15.517-28.214-23.357-5.458-4.572-10.882-9.202-16.086-14.056-12.384-11.55-25.26-22.667-36.705-35.095-7.576-8.227-13.482-18.14-19.28-27.811-5.668-9.453-10.418-19.475-15.231-29.412-2.071-4.276-3.843-8.854-4.777-13.492-2.043-10.146-3.524-20.41-5.12-30.643-1.104-7.089-1.097-14.502-3.253-21.237-2.541-7.934.213-16.159-2.035-23.556-3.682-12.114-1.605-24.511-3.674-36.62-1.29-7.554-2.355-15.182-2.895-22.82-1.255-17.76-.895-35.736-3.563-53.262-2.028-13.326-.394-26.477-1.712-39.615-.53-5.273-2.62-10.371-3.498-15.633-.57-3.405-.164-6.964-.312-10.45-.41-9.708-2.489-19.106-8.268-26.969-3.008-4.092-7.566-7.135-11.701-10.288-7.2-5.488-14.191-11.45-22.038-15.843-11.763-6.585-24.245-11.875-36.313-17.93-6.917-3.47-13.53-7.544-20.441-11.029-11.567-5.833-23.31-11.316-34.889-17.124-11.166-5.6-22.189-11.489-33.334-17.133-9.135-4.625-18.382-9.026-27.533-13.62-7.606-3.817-15.133-7.794-22.716-11.658-9.415-4.798-18.858-9.544-28.28-14.327-9.565-4.855-19.098-9.77-28.684-14.581-11.02-5.53-22.117-10.91-33.118-16.477-7.295-3.693-14.435-7.689-21.726-11.388-7.143-3.625-14.397-7.029-21.585-10.564-3.293-1.619-6.545-3.32-10.307-5.234l17.108-31.532c6.927 3.326 13.83 6.5 20.607 9.925 11.484 5.806 22.897 11.754 34.323 17.674 9.563 4.955 19.04 10.08 28.67 14.9 9.703 4.856 19.613 9.297 29.312 14.16 13.452 6.744 26.727 13.84 40.195 20.551 15.93 7.938 32.055 15.489 47.962 23.472 11.013 5.527 21.73 11.642 32.707 17.243 15.81 8.068 31.76 15.858 47.6 23.868 8.59 4.344 16.81 9.524 25.657 13.23 18.666 7.822 34.539 19.903 49.339 33.072 9.932 8.838 16.793 20.317 19.907 34.19 3.057 13.62 4.326 27.243 5.85 41.009 1.948 17.59 2.505 35.134 2.986 52.772.384 14.037 2.504 28.024 3.777 42.04.727 8.008 1.135 16.047 1.986 24.04 1.189 11.17 2.724 22.302 3.985 33.465 1.083 9.585 1.69 19.233 3.04 28.777 2.382 16.813 2.345 34.085 8.14 50.266 2.74 7.65 6.517 15.026 10.613 22.067 5.69 9.783 10.995 20.153 18.496 28.431 11.273 12.443 24.168 23.444 36.635 34.769 9.468 8.6 19.294 16.811 29.052 25.087 12.143 10.296 24.443 20.407 36.552 30.742 6.808 5.81 13.253 12.045 20.061 17.854 14.785 12.616 29.757 25.012 44.537 37.633 10.662 9.105 21.07 18.507 31.716 27.632 13.097 11.227 25.983 22.744 39.6 33.31 11.188 8.68 18.879 19.534 23.05 32.687 1.73 5.454.83 11.712 1.363 17.582.865 9.51-3.84 17.48-7.125 25.784-1.21 3.062-3.716 5.706-5.973 8.236-2.99 3.353-6.126 6.631-9.547 9.53-4.06 3.442-8.158 7.082-12.824 9.517-11.815 6.166-24.02 11.581-35.952 17.53-12.947 6.453-25.706 13.283-38.658 19.726-7.302 3.632-15.225 6.155-22.165 10.343-12.854 7.758-26.495 14.482-37.364 25.153-2.23 2.19-3.501 5.363-5.184 8.101-2.352 3.828.24 6.735 2.856 8.028 7.722 3.814 15.648 7.387 23.812 10.092 10.485 3.473 21.212 6.294 31.963 8.857 7.843 1.87 15.973 2.526 23.838 4.322 22.18 5.067 44.703 4.665 67.223 5.075 8.76.16 17.471 2.2 26.244 2.782 4.86.323 9.807-.54 14.706-.969 6.518-.57 13.026-1.257 19.541-1.861 7.826-.725 15.772-.822 23.445-2.32 5.528-1.079 10.54-4.727 16.064-5.915 6.171-1.328 10.496-4.897 14.72-8.932 4.33-4.138 8.757-8.228 12.643-12.766 4.324-5.048 8.398-10.375 12.017-15.947 5.352-8.24 10.23-16.788 15.266-25.23a17380 17380 0 0 0 22.45-37.79c9.37-15.8 18.637-31.663 28.116-47.397 6.595-10.948 13.55-21.678 20.199-32.594 4.86-7.981 9.416-16.148 14.229-24.16 7.661-12.754 15.395-25.466 23.15-38.164a12733 12733 0 0 1 26.343-42.913c7.262-11.785 14.629-23.506 21.85-35.316 11.084-18.13 22.01-36.357 33.147-54.456 6.593-10.715 13.618-21.164 20.152-31.914 4.903-8.068 9.072-16.584 14.036-24.61 6.739-10.897 14.03-21.45 20.884-32.278 5.452-8.612 10.563-17.44 15.897-26.128 9.457-15.404 18.94-30.793 28.468-46.154 7.21-11.625 14.628-23.123 21.73-34.814 7.754-12.764 15.172-25.732 22.88-38.525a3374 3374 0 0 1 24.979-40.8c6.136-9.864 12.634-19.505 18.71-29.405 3.688-6.01 6.682-12.445 10.343-18.473 5.381-8.862 11.116-17.507 16.632-26.288 6.783-10.795 13.555-21.598 20.223-32.463 9.266-15.097 18.404-30.273 27.65-45.382 7.48-12.222 15.187-24.308 22.5-36.628 3.827-6.445 6.474-14.294 5.23-21.079-1.13-6.18-.135-12.197-1.304-18.142-1.459-7.417-2.452-15.015-4.83-22.14-3.128-9.376-6.479-18.91-11.424-27.39-6.446-11.051-13.59-21.602-27.492-25.737-9.18-2.73-18.414-3.723-27.66-4.399-7.75-.567-15.65 1.272-23.504 1.68-9.924.516-19.875.495-29.8 1.002-17.582.899-35.157 1.95-52.726 3.08-8.274.532-16.119-.762-23.533-4.502-5.583-2.816-11.404-5.257-16.684-8.561-12.267-7.677-22.528-17.62-31.076-29.303-2.194-2.999-4.13-6.19-6.39-9.137-7.595-9.902-7.007-21.99-8.778-33.362-1.872-12.033 1.204-23.908 3.168-35.663.912-5.462 4.29-10.703 7.297-15.582 5.618-9.112 11.23-18.333 17.926-26.636 4.031-4.998 10.079-8.381 15.266-12.43 8.586-6.703 18.536-10.476 28.67-14.234 9.228-3.423 18.517-5.575 28.116-4.515 8.286.916 16.415 3.343 24.58 5.244 8.937 2.08 17.905 4.076 26.732 6.563 8.796 2.478 17.386 5.68 26.153 8.27 9.235 2.73 18.595 5.036 27.86 7.667 7.842 2.226 15.613 4.701 23.443 6.974 6.006 1.743 12.077 3.262 18.076 5.028 5.235 1.541 10.372 3.42 15.62 4.915 9.744 2.777 19.541 5.371 29.31 8.067 3.868 1.067 7.763 2.065 11.568 3.33 12.143 4.034 24.237 8.218 36.376 12.267 5.642 1.881 11.5 3.203 16.982 5.456 8.297 3.408 16.536 7.057 24.465 11.239 11.218 5.916 22.295 12.143 33.114 18.758 6.345 3.88 12.135 8.688 18.065 13.222 11.765 8.997 23.559 17.963 35.12 27.217 4.008 3.209 7.258 7.347 11.036 10.866 13.414 12.495 24.732 26.672 33.55 42.71 5.595 10.176 10.745 20.625 15.537 31.203 4.353 9.61 8.551 19.371 11.728 29.41 4.014 12.686 6.804 25.753 10.363 38.59 1.618 5.836 4.01 11.457 5.693 17.279 1.653 5.722 2.663 11.63 4.293 17.36 2.677 9.412 5.747 18.711 8.428 28.122 2.336 8.199 4.39 16.479 6.517 24.736 1.4 5.438 2.566 10.94 4.088 16.343 2.878 10.218 5.936 20.385 8.922 30.573 2.886 9.84 5.85 19.66 8.643 29.527 2.542 8.983 4.817 18.043 7.361 27.026 3.587 12.66 7.457 25.242 10.94 37.93 3.533 12.87 6.566 25.878 10.165 38.729 1.902 6.793 4.772 13.31 6.785 20.078 2.196 7.38 3.876 14.911 5.832 22.364 2.12 8.077 4.194 16.169 6.48 24.2 2.988 10.501 6.32 20.906 9.212 31.433 2.417 8.795 4.197 17.766 6.657 26.548 2.595 9.264 5.818 18.351 8.477 27.598 2.669 9.278 4.924 18.674 7.47 27.988 1.563 5.721 3.394 11.369 4.993 17.08 1.73 6.181 3.228 12.428 5.01 18.593 2.717 9.407 5.723 18.732 8.357 28.162 2.38 8.521 4.332 17.162 6.655 25.7 1.47 5.408 3.49 10.67 4.882 16.095 2.2 8.578 4.415 17.176 6.024 25.877 3.34 18.058 6.688 36.2 4.926 54.673-.67 7.02-2.66 13.942-4.388 20.823-1.206 4.804-2.628 9.621-4.61 14.144-2.165 4.939-4.881 9.672-7.722 14.27-5.71 9.238-10.61 19.268-17.75 27.27-13.954 15.642-29.68 29.501-48.219 39.854-6.394 3.57-12.09 8.377-18.409 12.101-7.608 4.483-15.457 8.582-23.352 12.548-13.46 6.762-27.096 13.18-40.545 19.964-7.112 3.587-13.814 8.01-21.009 11.402-11.554 5.45-23.335 10.42-35.071 15.476-12.283 5.291-24.526 10.696-36.972 15.58-9.862 3.87-20.002 7.031-30.021 10.5-13.937 4.828-27.82 9.818-41.831 14.42-11.439 3.758-23.065 6.941-34.537 10.598-5.012 1.598-9.792 3.914-14.779 5.601-6.688 2.263-13.499 4.16-20.213 6.348-6.672 2.174-13.23 4.717-19.95 6.724-7.708 2.301-15.552 4.142-23.312 6.275-5.566 1.53-11.052 3.36-16.642 4.791-7.308 1.87-14.68 3.486-22.028 5.192-4.39 1.02-8.803 1.937-13.176 3.02-6.546 1.622-13.047 3.43-19.603 5.01-7.2 1.735-14.443 3.297-21.666 4.942-7.998 1.822-15.98 3.717-23.993 5.465-11.808 2.575-23.656 4.967-35.45 7.6-5.945 1.327-11.773 3.173-17.717 4.495-7.4 1.646-14.879 2.927-22.297 4.49-7.58 1.597-15.118 3.39-22.692 5.015-6.453 1.387-12.947 2.584-19.392 4.009-3.879.857-7.697 1.99-11.542 2.998-8.406 2.205-16.955 3.986-25.181 6.73-8.9 2.97-17.844 6.17-26.158 10.457-16.892 8.708-33.531 17.956-48.023 30.52-9.294 8.059-18.535 16.189-28.056 23.973-10.631 8.691-20.981 17.928-32.514 25.259-11.001 6.993-22.992 12.83-36.726 13.055-9.923.163-19.869 1.238-29.754.79-9.402-.425-18.737-2.313-28.105-3.532-8.564-1.115-17.12-2.305-25.703-3.26-7.647-.852-16.4.645-22.722-2.636-8.365-4.342-17.7-1.394-25.475-6.056-.768-.46-1.94-.279-2.928-.336-13.483-.774-26.966-1.539-40.633-2.96-.493-.733-.803-.812-1.112-.892"/></svg>