<svg xmlns="http://www.w3.org/2000/svg" viewBox="0 0 2735 1500" xml:space="preserve"><path fill="#fff" d="M1045.547 1231.705c4.85 1.42 9.363 2.556 13.792 3.96a5539 5539 0 0 1 44.48 14.28c12.37 4.036 24.775 7.993 37.025 12.376 14.623 5.232 29.007 11.138 43.66 16.282 15.934 5.595 31.425 12.166 45.544 21.395 19.888 13 38.154 28.127 54.173 45.71 13.895 15.251 26.993 31.228 40.815 46.549 11.601 12.858 21.844 27.38 37.238 36.105 9.994 5.664 20.54 11.696 31.56 13.825 10.828 2.091 22.171 4.184 34.002 1.216 10.831-2.718 21.793-4.965 31.672-9.995 6.997-3.562 13.528-8.589 19.21-14.06 9.1-8.763 17.256-18.5 25.946-27.698 4.643-4.914 9.638-9.494 14.352-14.342 7.785-8.007 15.466-16.115 23.2-24.171 8.327-8.674 19.512-12.463 30.101-17.063 6.437-2.797 13.4-4.66 20.307-6.023 7.965-1.574 16.105-2.522 24.214-3.043 11.061-.711 22.177-1.225 33.246-.939 7.936.205 15.829 1.896 23.751 2.837 1.809.214 3.683.269 5.488.061 9.669-1.112 18.75 2.141 28.076 3.606 13.953 2.192 27.935 4.204 41.897 6.35 12.016 1.846 24.004 3.883 36.036 5.614 5.19.747 10.463.922 15.696 1.38 3.906.342 7.805.966 11.715 1.035 10.162.18 20.211-.73 29.578-5.084 3.932-1.828 8.008-3.7 11.346-6.388 10.835-8.724 21.347-17.849 32.005-26.794 8.147-6.837 15.867-14.303 24.593-20.302 14.536-9.994 29.553-19.327 44.714-28.356 7.396-4.405 15.352-8.117 23.456-11.024 9.324-3.344 19.086-5.468 28.668-8.088 5.584-1.527 11.163-3.089 16.788-4.454 7.982-1.936 16.015-3.663 24.007-5.56 6.722-1.596 13.4-3.376 20.127-4.95 11.611-2.72 23.225-5.43 34.873-7.983 14.188-3.112 28.443-5.924 42.607-9.136 6.563-1.488 12.936-3.8 19.478-5.4 5.794-1.416 11.72-2.28 17.556-3.54 7.723-1.667 15.413-3.491 23.12-5.23 7.078-1.595 14.19-3.045 21.232-4.776 10.476-2.575 20.93-5.24 31.344-8.054 9.287-2.51 18.531-5.185 27.746-7.95 7.543-2.264 15.01-4.78 22.519-7.163 8.24-2.616 16.495-5.187 24.732-7.817 8.392-2.68 16.764-5.421 25.152-8.11 8.252-2.645 16.524-5.227 24.769-7.892 7.612-2.462 15.198-5.002 22.798-7.498 4.885-1.605 9.857-2.98 14.644-4.835 9.091-3.523 18.06-7.362 27.112-10.987 12.338-4.94 24.812-9.555 37.03-14.772 10.6-4.525 20.958-9.622 31.36-14.598 9.772-4.675 19.485-9.476 29.18-14.31 7.188-3.583 14.328-7.264 21.449-10.98 10.187-5.315 20.592-10.274 30.443-16.157 14.96-8.934 30.159-17.55 43.45-29.052 11.176-9.671 21.7-20.03 28.73-33.038 4.611-8.534 6.73-18.381 10.92-27.187 4.026-8.466 3.053-17.384 3.329-26.012.26-8.133-2.159-16.344-3.294-24.535-.582-4.202-.375-8.591-1.493-12.628-3.551-12.813-7.677-25.467-11.346-38.25-2.394-8.34-4.23-16.84-6.59-25.19-2.876-10.177-6.086-20.258-9.06-30.407-1.35-4.608-2.482-9.28-3.71-13.923-1.521-5.75-2.99-11.513-4.568-17.247-3.917-14.248-7.771-28.514-11.87-42.71-2.577-8.925-5.734-17.683-8.294-26.613-2.7-9.42-4.935-18.973-7.504-28.432-1.305-4.808-3.02-9.505-4.334-14.311-2.628-9.615-4.985-19.305-7.685-28.898-2.48-8.817-5.995-17.407-7.73-26.354-2.15-11.09-7.548-21.236-8.437-32.703-.386-4.984-3.198-9.738-4.52-14.7-2.566-9.62-4.683-19.36-7.308-28.962-2.7-9.878-5.787-19.651-8.972-30.37l35.315-9.886c2.475 8.278 4.807 15.622 6.854 23.044 2.603 9.44 4.86 18.974 7.476 28.41 2.872 10.364 5.96 20.668 8.992 30.987 3.114 10.595 6.447 21.13 9.372 31.777 3.579 13.03 6.621 26.208 10.288 39.212 3.66 12.977 7.945 25.776 11.686 38.731 2.633 9.116 4.674 18.402 7.238 27.54 2.73 9.73 5.895 19.338 8.627 29.067 2.527 9 4.679 18.106 7.093 27.14 4.057 15.181 8.049 30.384 12.338 45.501 3.63 12.793 7.73 25.451 11.446 38.22 1.71 5.874 2.93 11.887 4.502 17.803 1.316 4.955 3.026 9.811 4.192 14.797 1.763 7.539 3.187 15.156 4.79 22.733 3.368 15.932 3.571 32.09 2.85 48.227-.294 6.555-1.973 13.09-3.422 19.544-3.15 14.034-10.622 26.205-17.71 38.399-5.376 9.249-11.408 18.188-19.818 25.274-9.386 7.907-17.805 17.073-27.696 24.242-12.144 8.803-25.31 16.211-38.164 24.01-6.048 3.669-12.329 6.974-18.623 10.211-11.43 5.88-22.94 11.602-34.433 17.358-12.597 6.31-25.03 12.985-37.867 18.762-14.135 6.362-28.682 11.801-42.983 17.803-8.86 3.718-17.492 7.992-26.415 11.543-8.662 3.446-17.534 6.375-26.37 9.369-9.275 3.143-18.618 6.094-27.93 9.13-8.076 2.632-16.154 5.252-24.224 7.9-8.102 2.657-16.165 5.442-24.304 7.98-5.012 1.563-10.204 2.557-15.192 4.184-7.001 2.283-13.83 5.096-20.84 7.35-6.413 2.063-12.983 3.637-19.46 5.514a1589 1589 0 0 0-21.232 6.334c-6.908 2.106-13.716 4.592-20.705 6.37-11.71 2.98-23.512 5.604-35.305 8.247-16.674 3.735-33.4 7.237-50.055 11.056-11.921 2.735-23.71 6.062-35.652 8.692-10.885 2.396-21.944 4.001-32.84 6.348-8.642 1.86-17.112 4.507-25.737 6.457-10.401 2.351-20.921 4.178-31.318 6.543-5.457 1.24-10.734 3.254-16.145 4.724-5.59 1.518-11.358 2.453-16.845 4.262-10.002 3.296-20.364 6.059-29.649 10.844-13.999 7.215-27.41 15.652-40.657 24.21-6.951 4.492-13.056 10.305-19.48 15.597-11.658 9.605-23.626 18.873-34.796 29.018-10.567 9.598-22.34 16.966-35.745 21.325-7.15 2.325-14.915 3.54-22.444 3.752-12.735.358-25.56.142-38.243-.988-12.102-1.08-24.06-3.718-36.106-5.51-8.371-1.245-16.813-2.028-25.167-3.365-8.287-1.327-16.494-3.15-24.757-4.634-4.952-.89-9.923-1.949-14.925-2.243-19.92-1.17-39.886-3.199-59.776-2.682-13.775.358-27.699 3.45-41.098 7.033-10.465 2.799-18.79 10.009-26.173 18.286-8.027 9-17.12 17.038-25.482 25.75-9.112 9.494-17.44 19.788-26.99 28.801-10.219 9.648-21.427 17.991-34.434 24.153-11.804 5.591-24.028 9.905-36.562 12.094-11.334 1.98-23.278.823-34.934.457-6.476-.203-13.212-.708-19.299-2.7-9.04-2.96-17.662-7.245-26.36-11.19-4.93-2.236-9.905-4.544-14.408-7.505-5.044-3.316-9.622-7.352-14.325-11.17-14.47-11.743-25.255-26.908-37.638-40.592-7.721-8.532-15.622-16.902-23.355-25.424-6.71-7.396-13.028-15.166-20.025-22.273-5.113-5.192-11.023-9.606-16.621-14.315-14.128-11.881-29.772-21.235-46.941-28.028-15.775-6.241-31.384-12.95-47.37-18.59-15.068-5.317-30.56-9.423-45.812-14.232-7.968-2.512-15.802-5.443-23.727-8.091-10.956-3.66-21.936-7.246-32.914-10.838-5.353-1.752-10.71-3.491-16.088-5.16-10.696-3.318-21.438-6.488-32.1-9.909-5.474-1.756-10.766-4.074-16.231-5.86-7.636-2.497-15.37-4.692-23.037-7.094-11.038-3.458-22.051-6.994-33.079-10.484-9.03-2.857-18.097-5.596-27.088-8.569-7.922-2.619-15.719-5.618-23.647-8.217-11.254-3.69-22.609-7.07-33.86-10.765-8.201-2.694-16.265-5.805-24.464-8.507-7.942-2.618-15.987-4.92-23.968-7.42-8.092-2.536-16.148-5.185-24.242-7.712-9.026-2.817-18.119-5.427-27.105-8.363-7.464-2.439-14.782-5.32-22.227-7.82-7.44-2.498-14.976-4.714-22.44-7.147-8.985-2.93-17.895-6.093-26.915-8.911-11.184-3.495-22.474-6.648-33.664-10.122-7.519-2.335-14.914-5.065-22.42-7.443-6.241-1.977-12.61-3.555-18.837-5.572-6.993-2.265-13.846-4.96-20.839-7.226-12.366-4.009-24.795-7.824-37.19-11.744-3.213-1.016-6.39-2.146-9.599-3.175-16.662-5.343-33.365-10.562-49.982-16.042-10.96-3.614-21.728-7.812-32.709-11.355-11.627-3.752-23.463-6.853-35.1-10.574-15.146-4.843-30.16-10.094-45.28-15.022-10.5-3.423-21.197-6.275-31.594-9.98-9.42-3.355-18.49-7.674-27.829-11.274-7.157-2.76-14.533-4.946-21.732-7.601-5.825-2.149-11.522-4.645-17.295-6.937-12.832-5.094-25.725-10.036-38.496-15.275-8.152-3.345-16.136-7.1-24.186-10.691-10.497-4.682-21.119-9.11-31.429-14.172-6.926-3.402-13.331-7.847-20.103-11.584-8.87-4.895-18.1-9.175-26.735-14.444-5.802-3.54-10.982-8.167-16.184-12.607-8.592-7.333-17.103-14.773-25.419-22.418-9.701-8.918-16.17-20.347-23.479-31.116-7.536-11.104-10.136-24.032-14.086-36.531-6.167-19.515-7.667-39.445-6.815-59.67.631-14.97 2.403-29.692 9.71-43.263 2.637-4.898 3.775-10.601 6.391-15.514 2.329-4.372 5.47-8.41 8.755-12.155 7.26-8.276 14.307-16.855 22.412-24.245 10.939-9.973 21.96-20.319 34.512-27.914 10.043-6.076 19.982-12.363 29.628-18.964 10.74-7.349 20.466-16.17 30.725-24.235 7.924-6.23 16.13-12.11 23.946-18.47 6.458-5.253 12.755-10.748 18.726-16.545 12.918-12.541 25.993-24.963 38.21-38.168 8.952-9.676 16.92-20.314 24.822-30.9 10.081-13.503 19.687-27.363 29.437-41.111 8.91-12.563 17.66-25.24 26.63-37.76 8.673-12.106 17.286-24.27 26.398-36.042 7.088-9.159 14.988-17.685 22.372-26.62 7.107-8.6 13.918-17.446 21.04-26.033 5.784-6.973 11.834-13.724 17.769-20.57 8.954-10.332 18.053-20.543 26.812-31.037 5.148-6.168 3.133-6.67-1.864-10.917-8.031-6.825-16.525-13.233-25.413-18.893-13.739-8.749-25.149-19.725-33.652-33.462-5.015-8.101-10.159-16.308-11.69-26.149-.736-4.72-2.801-9.22-3.747-13.923-.737-3.664-1.077-7.51-.88-11.237.36-6.85 1.008-13.706 1.995-20.493.62-4.271 1.74-8.545 3.233-12.597 2.378-6.457 4.83-12.954 8.043-19.014 2.928-5.523 6.373-10.968 10.529-15.606 10.829-12.085 21.801-24.089 33.403-35.422 14.994-14.647 31.951-26.905 50.204-37.211 5.93-3.349 12.512-5.56 18.838-8.19 4.42-1.838 8.779-4.173 13.403-5.101 8.742-1.755 17.647-2.723 26.501-3.884 3.9-.512 7.88-1.223 11.756-.937 14.864 1.096 29.74 2.227 44.53 4.021 7.8.947 15.432 3.293 23.14 5.003 16.482 3.654 30.878 12.217 45.74 19.622 12.039 6 23.787 12.578 35.75 18.732A5027 5027 0 0 0 741.6 90.011c17.898 8.964 35.896 17.73 53.788 26.707 7.2 3.612 14.143 7.737 21.364 11.303 9.731 4.805 19.687 9.155 29.413 13.971 6.175 3.059 12.053 6.711 18.16 9.916 7.67 4.024 15.424 7.891 23.168 11.775 9.168 4.598 18.398 9.075 27.54 13.727 9.16 4.662 18.205 9.553 27.374 14.2 9.604 4.866 19.34 9.474 28.935 14.357 9.478 4.823 18.802 9.95 28.287 14.759 10.877 5.513 21.905 10.731 32.783 16.243 13.598 6.89 27.03 14.111 40.685 20.885 11.452 5.68 23.202 10.76 34.671 16.41 11.205 5.518 22.183 11.495 33.33 17.134 13.85 7.006 27.853 13.712 41.637 20.844 13.165 6.812 26.081 14.104 39.21 20.988 7.135 3.742 14.5 7.041 21.734 10.598 9.781 4.81 19.552 9.644 29.296 14.531 6.909 3.465 13.77 7.023 20.643 10.56 4.821 2.482 9.436 5.498 14.473 7.401 11.563 4.37 23.275 4.709 34.246-1.731 2.763-1.622 4.968-4.844 6.496-7.811 8.514-16.529 17.106-33.035 24.941-49.889 5.544-11.926 13.206-22.173 22.25-31.408 6.756-6.897 14.936-11.893 24.37-14.635 2.084-.605 3.864-2.234 5.942-2.887 9.608-3.018 19.21-6.084 28.935-8.684 6.84-1.828 13.899-2.814 20.809-4.4 6.583-1.512 13.083-3.387 19.65-4.972 11.25-2.716 22.535-5.29 33.788-7.998 11.419-2.748 22.822-5.562 34.221-8.39 12.644-3.136 25.262-6.38 37.918-9.468a4103 4103 0 0 1 42.277-10.086c10.512-2.446 21.076-4.665 31.598-7.073 12.865-2.945 25.727-5.914 38.557-9.01 5.775-1.392 11.41-3.406 17.218-4.606 5.55-1.146 11.394-1.036 16.844-2.478 11.937-3.16 24.042-1.995 36.01-1.583 5.801.2 11.373 4.25 17.269 5.22 5.971.981 10.787 4.067 16.139 6.197 10.976 4.368 20.019 11.604 29.27 18.58 8.881 6.698 16.79 14.345 22.852 23.777.704 1.096 1.85 1.908 2.793 2.85 16.892 16.9 33.847 33.737 50.659 50.716a4311 4311 0 0 1 42.303 43.293c10.164 10.557 19.973 21.454 30.124 32.023 7.616 7.93 15.157 16.006 23.45 23.185 4.4 3.808 10.15 6.278 15.609 8.6 14.591 6.206 29.851 4.55 45.102 3.372 16.416-1.268 28.83-10.046 40.216-20.726 8.248-7.736 16.05-15.949 24.05-23.949l26.72-26.72 24.5-24.497c8.48-8.48 17.02-16.898 25.416-25.459 6.023-6.14 12.178-12.2 17.626-18.829 2.647-3.22 4.335-7.511 5.502-11.59 1.286-4.495 1.65-9.286 2.108-13.977.95-9.731-2.911-17.84-10.223-23.708-8.763-7.031-19.036-10.7-30.562-10.53-13.675.203-27.37-.342-41.03.156-14.283.52-28.523 2.172-42.805 2.819-14.907.674-29.848 1.11-44.76.85-4.553-.08-9.155-2.57-13.57-4.362-15.85-6.428-29.391-16.303-40.237-29.399-6.832-8.25-13.483-17.01-18.179-26.544-3.079-6.252-3.079-14.265-3.466-21.542-.673-12.648-.725-25.39 2.96-37.69 1.543-5.154 3.69-10.218 6.242-14.957 3.814-7.083 8.003-13.991 12.435-20.709 9.284-14.073 23.318-23.003 37.77-30.029 12.549-6.101 26.235-11.86 41.099-9.64 8.29 1.238 16.497 3.118 24.675 5.002 9.368 2.158 18.733 4.391 27.967 7.054 8.774 2.53 17.307 5.896 26.075 8.453 9.413 2.744 19.024 4.807 28.461 7.477 8.66 2.45 17.181 5.382 25.801 7.975 9.988 3.005 20.002 5.92 30.03 8.786 14.364 4.104 28.792 7.985 43.11 12.244 7.82 2.325 15.427 5.358 23.203 7.846 10.857 3.475 21.856 6.521 32.644 10.192 4.781 1.627 9.324 4.105 13.751 6.594 14.184 7.974 28.705 15.465 42.267 24.4 15.293 10.074 30.178 20.916 44.316 32.549 11.248 9.256 22.13 19.368 31.308 30.621 10.325 12.66 20.632 25.632 27.126 41.045 3.295 7.822 8.142 15.002 11.282 22.874 4.03 10.104 7.25 20.55 10.447 30.963 2.973 9.686 5.477 19.517 8.15 29.294 4.666 17.065 9.265 34.147 13.978 51.199 1.197 4.333 2.778 8.558 4.071 12.867 1.706 5.68 3.3 11.395 5.042 17.435l35.06-9.297 9.155 33.659-104.973 28.257-9.066-33.758 33.752-9.198c-.707-2.946-1.381-5.998-2.175-9.02-3.023-11.516-5.943-23.063-9.18-34.52-2.533-8.97-5.606-17.787-8.202-26.741-2.717-9.376-5.043-18.865-7.743-28.246-2.045-7.102-4.25-14.167-6.676-21.147-2.58-7.426-5.551-14.715-8.266-22.095-4.413-11.998-10.127-23.298-18.152-33.298-7.566-9.43-14.487-19.596-23.216-27.821-12.257-11.55-25.804-21.755-39.04-32.23a159 159 0 0 0-18.421-12.585c-14.45-8.44-28.816-17.131-43.838-24.445-10.735-5.226-22.449-8.466-33.782-12.431-8.76-3.066-17.548-6.084-26.434-8.756-9.69-2.913-19.533-5.31-29.258-8.106-9.225-2.652-18.378-5.555-27.576-8.303-10.456-3.124-20.878-6.377-31.404-9.248-12.26-3.344-24.678-6.119-36.914-9.548-9.55-2.676-18.85-6.243-28.4-8.922-10.528-2.953-21.217-5.335-31.83-7.985-2.494-.623-4.932-1.602-7.459-1.936-6.145-.812-11.898.729-17.682 2.878-18.094 6.727-30.753 18.61-39.8 35.94-7.458 14.288-6.26 28.536-4.324 43.028.675 5.047 4.222 10.315 7.818 14.232 6.099 6.642 12.85 12.872 20.106 18.218 10.185 7.506 21.956 9.333 34.371 6.6.956-.21 1.984-.096 2.98-.124 10.768-.306 21.548-.392 32.302-.96 20.051-1.06 40.075-2.825 60.137-3.423 8.49-.253 17.183 1.054 25.533 2.833 8.107 1.728 16.408 3.992 23.67 7.827 6.895 3.642 12.684 9.473 18.692 14.652 2.294 1.976 3.63 5.026 5.776 7.22 7.84 8.014 10.499 17.988 11.196 28.72.857 13.208-.282 26.406-4.206 38.91-2.444 7.786-6.437 15.94-12.011 21.741-25.17 26.192-51.152 51.603-76.842 77.294-17.122 17.122-33.94 34.565-51.53 51.192-6.383 6.034-14.166 11.05-22.117 14.84-8.858 4.221-18.61 6.59-28.028 9.593-1.974.63-4.187.69-6.291.704-10.5.066-21.036.567-31.486-.15-7.505-.516-15.337-1.617-22.234-4.407-10.523-4.257-20.46-10.026-30.426-15.55-2.42-1.342-3.89-4.323-5.95-6.398-9.391-9.463-18.928-18.784-28.246-28.32-17.978-18.396-35.77-36.974-53.784-55.336-10.868-11.078-22.119-21.78-32.989-32.855-8.897-9.066-17.5-18.422-26.207-27.673-12.164-12.925-23.322-26.975-39.011-36.034-12.26-7.078-24.93-12.503-39.678-12.426-12.729.067-25.176 1.654-37.49 4.303-11.46 2.466-22.69 5.982-34.1 8.702-9.723 2.318-19.597 3.996-29.332 6.268-7.98 1.862-15.817 4.34-23.786 6.259-9.864 2.375-19.82 4.364-29.696 6.69-9.704 2.286-19.344 4.838-29.035 7.18-12.352 2.982-24.74 5.811-37.086 8.819-9.227 2.248-18.403 4.706-27.617 7.01-8.11 2.026-16.254 3.922-24.36 5.961-9.82 2.47-19.591 5.136-29.432 7.516-6.89 1.666-14.039 2.442-20.758 4.597-11.301 3.624-22.357 7.459-30.553 17.348-9.439 11.389-14.415 25-21.226 37.7-4.024 7.504-7.891 15.091-11.744 22.684-1.957 3.857-3.868 7.749-5.554 11.73-4.397 10.386-13.71 15.308-22.778 20.32-4.71 2.602-9.877 5.625-15.004 5.968-11.905.797-24.168 1.55-35.793-.487-9.21-1.615-17.785-7.205-26.466-11.394-9.46-4.566-18.673-9.644-28.078-14.33-9.449-4.708-19.054-9.103-28.492-13.833-7.354-3.686-14.524-7.738-21.836-11.512-9.36-4.831-18.78-9.545-28.173-14.311-9.588-4.866-19.145-9.793-28.771-14.58-7.19-3.575-14.519-6.869-21.692-10.474-6.883-3.46-13.627-7.198-20.466-10.75-9.15-4.75-18.312-9.482-27.508-14.145-9.744-4.94-19.547-9.766-29.3-14.687-9.428-4.757-18.823-9.579-28.238-14.36-9.562-4.856-19.117-9.724-28.7-14.537-9.015-4.528-18.116-8.887-27.086-13.503-19.69-10.135-39.264-20.496-58.998-30.545-11.526-5.869-23.334-11.183-34.89-16.995-7.433-3.738-14.54-8.125-21.976-11.855-6.886-3.454-14.085-6.276-21.017-9.642-7.222-3.507-14.266-7.379-21.43-11.006-12.112-6.132-24.28-12.153-36.38-18.305-11.035-5.61-21.991-11.371-33.02-16.994-18.793-9.581-37.68-18.983-56.405-28.694-13.974-7.248-27.583-15.215-41.682-22.2-10.204-5.056-20.672-9.897-31.504-13.303-23.532-7.4-48.04-8.296-72.265-5.926-9.76.956-19.888 3.037-29.718 7.578-12.877 5.95-24.893 12.876-35.893 21.348-10.516 8.099-19.787 17.835-29.45 27.015-4.926 4.68-9.743 9.517-14.204 14.636-8.807 10.104-14.696 21.98-17.628 34.898-2.204 9.71-3.23 20.06.885 29.615 5.891 13.68 12.901 26.434 26.095 35.157 13.742 9.084 28.044 17.531 39.367 30.01 9.478 10.445 14.735 22.17 12.163 36.14-1.098 5.96-4.264 11.767-7.475 17.043-3.264 5.365-7.532 10.177-11.73 14.903-9.894 11.138-20.22 21.898-29.967 33.16-7.832 9.048-15.017 18.653-22.588 27.93-8.647 10.597-17.648 20.913-26.048 31.699-9.578 12.296-18.706 24.944-27.946 37.5-6.445 8.759-12.826 17.567-19.091 26.454-4.757 6.748-9.161 13.744-13.945 20.471-7.354 10.342-14.746 20.664-22.41 30.776-6.575 8.675-13.531 17.062-20.365 25.538-3.077 3.817-5.992 7.819-9.456 11.258-13.359 13.265-26.54 26.744-40.494 39.364-13.578 12.282-27.997 23.637-42.09 35.349-9.424 7.833-18.652 15.942-28.473 23.248-7.894 5.873-16.716 10.481-24.825 16.085-14.255 9.851-29.7 18.149-41.072 31.81-6.284 7.549-13.402 14.41-19.588 22.032-2.502 3.084-3.523 7.37-5.21 11.114-1.966 4.359-4.607 8.556-5.712 13.124-1.41 5.821-2.24 11.955-2.138 17.934.216 12.678.652 25.406 2.08 37.99.786 6.92 4.146 13.507 5.665 20.394 1.79 8.118 4.709 15.647 9.424 22.447 6.906 9.96 13.81 19.917 23.434 27.608 10.879 8.694 21.081 18.364 32.591 26.102 11.178 7.515 23.541 13.31 35.567 19.504 10.282 5.295 20.732 10.286 31.277 15.036 8.772 3.951 17.816 7.294 26.692 11.02 11.39 4.78 22.648 9.88 34.118 14.454 9.673 3.856 19.606 7.057 29.357 10.726 12.052 4.535 23.942 9.516 36.075 13.816 11.33 4.016 22.892 7.382 34.344 11.057 4.289 1.376 8.552 2.83 12.835 4.225 9.003 2.93 18.026 5.796 27.012 8.775 11.547 3.827 23.03 7.847 34.608 11.578 8.228 2.652 16.628 4.776 24.84 7.474 10.99 3.61 21.813 7.73 32.817 11.29 11.617 3.76 23.4 7.007 35.04 10.698 7.65 2.425 15.136 5.367 22.767 7.856 14.667 4.783 29.4 9.366 44.08 14.112 11.275 3.646 22.505 7.434 33.768 11.122 8.078 2.646 16.181 5.215 24.265 7.847 8.828 2.874 17.62 5.864 26.476 8.653 11.304 3.558 22.704 6.817 33.971 10.487 8.191 2.668 16.164 6.006 24.361 8.653 8.236 2.659 16.676 4.678 24.937 7.262 7.803 2.442 15.464 5.336 23.235 7.884 11.45 3.755 22.95 7.359 34.415 11.066 11.46 3.706 22.89 7.508 34.363 11.176 8.414 2.69 16.913 5.116 25.305 7.869 10.535 3.454 20.97 7.212 31.506 10.662 5.947 1.948 12.065 3.377 18.01 5.334 7.452 2.454 14.756 5.363 22.216 7.793 8.834 2.878 17.781 5.407 26.651 8.176 7.2 2.248 14.367 4.605 21.536 6.954 8.094 2.652 16.185 5.314 24.254 8.04 6.37 2.152 12.704 4.408 19.43 6.78"/></svg>