<svg viewBox="0 0 2762 1500" xml:space="preserve" xmlns="http://www.w3.org/2000/svg"><path d="M568.908 12.105a78 78 0 0 0-7.328.573c-10.932 1.39-21.551 5.397-32.234 8.511-3.525 1.028-7.031 2.475-10.186 4.34-5.852 3.46-11.556 7.204-17.11 11.13-8.765 6.194-17.74 12.185-25.921 19.097-8.995 7.6-17.337 15.998-25.703 24.31-12.265 12.186-24.298 24.605-36.43 36.924a42 42 0 0 1-1.531 2.451c.527-.807.94-1.596 1.217-2.34-1.11 1.37-1.904 2.629-2.338 3.864.068-.082.123-.163.19-.244-.068.084-.113.166-.182.25-.286.023-.347.017-.36.013h-.002v-.002h-.002a42 42 0 0 1-1.508 2.428c.517-.8.922-1.582 1.194-2.32-1.108 1.37-1.9 2.636-2.332 3.875.076-.091.138-.18.21-.272-.073.093-.123.184-.2.278-.285.024-.347.015-.36.011h-.004a43 43 0 0 1-1.593 2.52c.556-.834.988-1.646 1.277-2.414-1.116 1.366-1.915 2.625-2.354 3.857.152-.18.281-.356.42-.535-.14.184-.246.364-.398.549-.276.033-.346.01-.363.002l-.002-.002h-.002c-.39.677-.782 1.355-1.258 2.05.4-.666.715-1.317.945-1.935-1.015 1.264-1.77 2.43-2.223 3.569q-.19.213-.398.43c-.781.722-.919 1.304-1.057 1.886-.493 1.632-.148 3.666-.511 5.426.284-1.725-.146-3.731.18-5.301-1.786 3.05-3.24 5.975-4.335 8.875.764-.13 1.393-.321 1.91-.563-.585.303-1.312.546-2.218.713-.793 1.077-.92 1.978-1.045 2.88 2.055 2.693 1.135 3.91-2.453 4.355-.487.764-.52 1.203-.553 1.642-.267.899-.675 1.94-.967 2.864.255-.918.493-1.83.639-2.702-1.027 2.401-1.725 4.64-2.078 6.825.221-.508.365-.999.554-1.5-.235.65-.35 1.178-.634 1.879-.775 2.17-1.124 3.909-1.473 5.646-.329 3.788-.727 7.572-.965 11.365.238-3.793.636-7.576.621-11.209-4.392 9.894-5.23 19.776-1.388 29.617.373-3.418.466-6.6.546-9.78-.08 3.18-.174 6.361-.51 10.109-.187 1.001-.126 1.437-.066 1.873.426 1.039.851 2.078 1.237 3.222a20 20 0 0 0-1.327-2.851c.54 2.061 1.161 3.777 2.028 5.293q.066.277.127.564c.14 2.669.515 4.723.888 6.778.409.478.816.956 1.194 1.511a6 6 0 0 0-1.272-1.187c.544 1.055 1.156 1.82 1.983 2.43q.101.215.195.447c.76 1.951 1.716 3.394 2.674 4.836.372.412.743.823 1.123 1.332a5.4 5.4 0 0 0-1.084-1.006c.65 1.044 1.265 1.8 1.89 2.238q.09.156.18.324c.334.773.617.94.9 1.108.7.906 1.398 1.811 2.1 2.812a30 30 0 0 0-2.062-2.46c1.233 1.939 2.434 3.585 3.648 4.913q.195.328.389.672c.33 1.143.636 1.599.941 2.055.407.27.814.54 1.198.867a4.6 4.6 0 0 0-1.127-.576c.63.706 1.2 1.166 1.96 1.46q.131.175.252.372c.108.951.405 1.416.704 1.883.356.252.713.505 1.086.851q-.543-.409-1.063-.502c.629.741 1.237 1.18 1.822 1.334q.1.127.203.268c.294.874.574 1.037.936 1.057.375.413.75.827 1.135 1.34q-.56-.659-1.1-1.012c.653 1.045 1.274 1.796 1.904 2.23q.089.154.178.319c.335.774.617.945.897 1.117.337.238.673.477 1.021.802q-.508-.367-.992-.459c.609.715 1.194 1.151 1.758 1.32q.12.162.242.346c.383 1.078.69 1.529.998 1.979 4.334.142 5.219 3.703 6.531 7.162-.12.42.037.555.057.57h.002c3.075 1.557 6.355 2.812 9.181 4.735 5.523 3.757 10.792 7.887 16.198 12.197.026.272.007.34 0 .356l-.002.001v.002c2.499.156 5.696-.986 6.02 3.606.01.324-.022.39-.03.402v.002a321 321 0 0 1 5.615 4.442 179 179 0 0 0-5.494-4.123c3.49 2.974 6.89 5.713 10.264 8.193q.83.748 1.666 1.533c1.038 3.45 2.003 6.183 2.969 8.914 1.664 3.001 2.083 5.296-3.116 4.547-.438-.121-.57.024-.586.043l-.002.002c.828 5.685-3.594 7.3-7.822 9.756-2.481 2.423-4.467 4.538-6.453 6.654-.403.686-.806 1.373-1.295 2.072.416-.677.74-1.338.977-1.972-1.027 1.25-1.785 2.416-2.243 3.558a16 16 0 0 1-.357.38c-.767.37-.932.65-1.096.929-.244.353-.49.707-.828 1.08q.393-.536.485-1.041c-.733.64-1.168 1.244-1.319 1.824a10 10 0 0 1-.302.235c-1.079.726-1.554 1.322-2.03 1.918-.228.497-.457.995-.771 1.513.237-.493.387-.97.453-1.422-.715.937-1.167 1.797-1.332 2.621a10 10 0 0 1-.338.368c-1.768 1.415-2.887 2.673-4.006 3.931-.524.659-1.198 1.39-1.75 2.06.518-.663 1.02-1.324 1.434-1.964-1.685 1.713-3.055 3.33-4.067 4.951.537-.53.979-1.058 1.446-1.586-.527.61-.921 1.155-1.536 1.807a1.07 1.07 0 0 0-.548.685 30 30 0 0 1-1.512 1.883c.524-.614.935-1.217 1.215-1.78-1.104 1.047-1.91 1.99-2.338 2.94.137-.122.25-.245.377-.367-.128.127-.22.253-.358.38-.314.003-.373-.025-.382-.032v-.002h-.002c-.558.841-1.115 1.682-1.76 2.543a22 22 0 0 0 1.443-2.434c-1.315 1.557-2.367 3.022-3.125 4.463a25 25 0 0 1-.523.553c-2.455 2.388-4.241 4.629-6.028 6.869-.115 1.085.203 2.482-.476 3.209a1 1 0 0 1-.106.1c-.435.368-1.202.513-2.554.26-.434-.12-.567.043-.582.064l-.002.002a19 19 0 0 1-.819 1.62 8 8 0 0 0 .557-1.454c-.77 1.072-1.326 2.01-1.586 2.912q-.164.192-.348.389c-1.118.743-1.587 1.353-2.056 1.962-.23.497-.46.995-.776 1.51.24-.492.39-.97.457-1.424-.712.925-1.162 1.78-1.328 2.6q-.15.169-.318.342c-1.102.728-1.58 1.326-2.057 1.922.053 1.684.226 3.44-.386 4.787.537-1.323.285-3.047.066-4.668-1.775 2.38-3.23 4.642-4.293 6.912a8.4 8.4 0 0 0 1.719-.246c-.55.16-1.199.267-1.965.312-.804.344-.97.628-1.137.912-.382.515-.93 1.13-1.34 1.66.383-.53.752-1.06 1.032-1.568-1.347 1.381-2.385 2.672-3.061 3.961.437-.432.776-.861 1.14-1.29-.441.539-.733.99-1.286 1.597-1.51 1.731-2.511 3.156-3.512 4.582l.709 3.67c-.281-1.455-.494-2.562-1.01-3.553-1.424 1.397-2.547 2.679-3.277 3.975-.384-.014-.389-.018-.389-.018-.438.975-.876 1.95-1.656 2.965-.278.032-.337.025-.35.021h-.004c-.392.673-.784 1.346-1.265 2.04q.603-1.002.947-1.94c-1.018 1.25-1.77 2.414-2.225 3.553q-.203.225-.425.455c-1.79 1.725-2.915 3.293-4.04 4.861a32 32 0 0 1-1.58 1.912c.545-.636.967-1.261 1.233-1.869-1.111 1.03-1.876 2.016-2.295 2.98.039-.035.07-.071.107-.107-.039.037-.063.073-.103.11-.342.023-.346.015-.346.015.482 2.262.079 3.935-1.016 5.229 1.017-1.263 1.34-2.909.694-5.112-2.112 2.706-3.903 5.294-5.324 7.854q.583-.19 1.119-.402-.673.278-1.424.527c-1.475 1.38-2.277 2.61-3.078 3.838-.385.673-.77 1.347-1.24 2.043.394-.662.702-1.305.931-1.914-1.013 1.276-1.769 2.444-2.222 3.582q-.203.229-.426.465c-2.46 2.732-4.246 5.286-6.033 7.841-.388.68-.777 1.359-1.25 2.057.398-.669.708-1.319.937-1.937-1.012 1.27-1.762 2.44-2.213 3.582a17 17 0 0 1-.4.433c-.785.725-.924 1.306-1.065 1.889-.68 1.016-1.363 2.032-2.517 3.328-.806.753-1.138 1.226-1.471 1.7-.562 1.012-1.126 2.025-1.777 3.056a26 26 0 0 0 1.449-2.95c-1.319 1.845-2.368 3.602-3.12 5.333q-.249.319-.519.642c-1.127 1.046-1.59 1.957-2.054 2.867-1.32 2.603.283 7.264-5.452 7.309-.463.227-.546.7-.546.7-.477.827-.988 1.66-1.55 2.497.537-.823.956-1.626 1.237-2.379-1.108 1.383-1.902 2.647-2.336 3.883.118-.141.215-.281.324-.422-.11.145-.19.286-.308.432-.28.03-.348.015-.364.008l-.002-.002h-.001c-.435.979-.87 1.958-1.641 2.984-.274.039-.339.026-.354.02h-.002v-.002h-.002c-.163 2.17 1.04 5.138-3.503 5.377-1.44 1.289-2.464 2.174-3.221 3.246-10.207 14.452-20 29.216-30.654 43.33-12.879 17.061-25.542 34.342-41.536 48.828-10.843 9.821-21.166 20.216-31.779 30.293-3.274 3.108-6.61 6.178-10.14 8.984-8.165 6.49-16.5 12.768-24.706 19.207-10.078 7.91-19.774 16.35-30.226 23.725-11.223 7.918-23.288 14.631-34.703 22.29-16.803 11.276-30.8 25.763-44.424 40.534-5.527 5.992-11.14 12.363-14.775 19.543-7.497 14.802-14.652 29.86-15.377 47.088-.791 18.775-2.75 37.543 2.193 56.059 3.44 12.887 5.7 26.306 10.92 38.441 5.026 11.686 12.132 22.887 20.232 32.732 9.042 10.99 19.98 20.49 30.578 30.1 6.797 6.163 14.126 11.902 21.852 16.836 8.403 5.367 17.563 9.545 26.353 14.314 7.217 3.917 14.285 8.116 21.586 11.864 6.55 3.362 13.292 6.364 20.018 9.37 8.954 4.003 17.95 7.917 26.977 11.75 6.64 2.82 13.346 5.481 20.046 8.157a1780 1780 0 0 0 20.112 7.897c8.685 3.346 17.397 6.626 26.092 9.949 5.227 1.998 10.431 4.05 15.666 6.03 5.825 2.201 11.674 4.339 17.507 6.519 10.221 3.818 20.37 7.848 30.678 11.412 8.982 3.104 18.173 5.597 27.217 8.529 7.328 2.376 14.54 5.113 21.869 7.486 8.575 2.777 17.249 5.25 25.83 8.008 7.975 2.564 15.849 5.443 23.832 7.979 7.814 2.482 15.747 4.595 23.563 7.072 9.072 2.876 18.061 6.01 27.111 8.96 8.413 2.743 16.877 5.331 25.281 8.098 6.73 2.216 13.367 4.718 20.114 6.88 9.04 2.897 18.187 5.472 27.216 8.404 7.317 2.376 14.485 5.207 21.8 7.591 5.962 1.945 12.095 3.364 18.058 5.31 10.568 3.446 21.027 7.229 31.6 10.663 12.253 3.98 24.597 7.679 36.867 11.611 7.36 2.36 14.625 5.013 21.982 7.383 5.809 1.871 11.725 3.41 17.533 5.282 6.723 2.167 13.338 4.67 20.078 6.78 5.376 1.684 10.958 2.724 16.287 4.528 10.787 3.652 21.4 7.822 32.202 11.424 13.3 4.435 26.72 8.508 40.09 12.734 3.534 1.118 7.059 2.27 10.613 3.323 8.19 2.424 16.452 4.618 24.578 7.238 8.413 2.712 16.664 5.928 25.053 8.72 11.772 3.92 23.62 7.618 35.412 11.48 7.493 2.453 14.907 5.151 22.423 7.528 10.902 3.448 21.888 6.635 32.795 10.065 8.153 2.563 16.232 5.358 24.358 8.008 9.34 3.045 18.71 5.996 28.037 9.08 6.71 2.218 13.33 4.71 20.06 6.857 8.74 2.788 17.58 5.264 26.323 8.043 11.285 3.588 22.511 7.359 33.773 11.02 11.769 3.825 23.667 7.285 35.291 11.507 11.912 4.327 23.561 9.378 35.32 14.124 8.921 3.6 18.404 6.25 26.616 11.062 11.78 6.905 23.021 14.899 33.761 23.357 8.958 7.055 17.174 15.143 25.147 23.33 7.891 8.104 15.029 16.94 22.568 25.391 9.852 11.042 20.053 21.786 29.594 33.088 11.965 14.174 24.986 26.933 42.158 34.613 10.7 4.785 21.246 10.434 32.467 13.412 20.801 5.522 42.142 5.023 62.951-.392 14.7-3.826 29.058-9.132 41.38-18.55 7.13-5.452 14.67-10.528 21.028-16.786 8.31-8.18 15.411-17.573 23.442-26.057 8.817-9.314 18.143-18.144 27.166-27.265 6.435-6.506 12.9-12.433 21.824-16.06 13.03-5.298 26.508-7.995 40.195-8.54 20.963-.834 42.003-.832 62.862 2.66 11.716 1.962 23.54 3.271 35.273 5.137 8.976 1.427 17.847 3.531 26.836 4.851 11.153 1.639 22.458 2.323 33.555 4.243 16.846 2.914 33.643 3.288 50.672 2.048 14.614-1.063 27.507-6.448 38.916-14.748 14.441-10.506 27.946-22.3 41.822-33.582 8.509-6.917 16.555-14.486 25.53-20.726 10.974-7.632 22.498-14.545 34.165-21.09 11.244-6.308 22.907-11.77 35.82-14.217 9.502-1.8 18.844-4.45 28.233-6.822 6.253-1.58 12.432-3.459 18.697-4.984 8.49-2.067 17.037-3.897 25.547-5.881 5.656-1.32 11.254-2.908 16.942-4.063 10.958-2.224 22.016-3.98 32.931-6.387 11.968-2.639 23.787-5.95 35.735-8.689 16.547-3.794 33.171-7.245 49.728-11 12.13-2.75 24.222-5.677 36.293-8.678 6.074-1.51 12.093-3.271 18.088-5.078 7.695-2.319 15.32-4.871 23.015-7.19 9.416-2.836 18.916-5.4 28.301-8.33 11.037-3.445 21.98-7.19 32.985-10.743 12.584-4.063 25.205-8.01 37.78-12.096 6.75-2.193 13.41-4.665 20.165-6.842 8.11-2.614 16.401-4.712 24.39-7.645 9.464-3.473 18.658-7.675 28.026-11.417 8.943-3.573 18.027-6.795 26.924-10.475 8.843-3.658 17.599-7.546 26.267-11.602 9.472-4.431 18.835-9.1 28.18-13.795 13.66-6.862 27.304-13.756 40.875-20.793 10.726-5.56 21.651-10.838 31.91-17.175 13.362-8.254 26.65-16.792 39.034-26.414 9.904-7.696 18.642-16.967 27.43-25.995 3.898-4.004 6.878-8.985 9.864-13.779 7.226-11.596 14.533-23.267 18.217-36.537 2.457-8.85 4.607-18.007 5.11-27.125.768-13.946.861-27.958-2.65-41.814-3.02-11.912-4.397-24.236-7.33-36.174-3.115-12.67-7.27-25.083-10.847-37.643-1.896-6.66-3.389-13.438-5.314-20.09-2.418-8.356-5.235-16.598-7.623-24.963-2.968-10.391-5.595-20.88-8.516-31.287-2.392-8.524-5.128-16.951-7.474-25.488-2.568-9.344-4.867-18.762-7.274-28.15-1.043-4.07-1.942-8.18-3.12-12.21-1.798-6.142-3.88-12.202-5.661-18.349-2.605-8.992-4.98-18.05-7.59-27.04-1.66-5.723-3.75-11.325-5.328-17.067-3.455-12.581-6.595-25.249-10.068-37.825-4.59-16.617-9.45-33.16-14.047-49.775-2.54-9.18-4.586-18.498-7.223-27.648-2.229-7.733-4.988-15.315-7.61-23.254l-33.779 10.424c1.955 7.499 3.641 14.509 5.62 21.435 2.608 9.13 5.69 18.129 8.115 27.305 2.475 9.365 4.041 18.976 6.646 28.3 4.805 17.195 10.294 34.197 15.09 51.393 4.422 15.856 8.137 31.909 12.48 47.787 4.153 15.177 8.728 30.237 13.092 45.356 4.743 16.426 9.447 32.862 14.19 49.289 1.652 5.722 3.455 11.402 5.025 17.146 1.45 5.3 2.477 10.72 4.063 15.975 1.572 5.212 3.958 10.188 5.375 15.433 3.578 13.252 6.6 26.654 10.258 39.881 2.566 9.28 5.89 18.35 8.72 27.56 1.231 4.008 2.442 8.084 3.016 12.218 1.279 9.214 1.71 18.56 3.297 27.713 2.31 13.321.554 26.268-4.094 38.521-3.854 10.16-9.289 19.827-14.895 29.19-10.229 17.084-26.127 28.506-42.072 39.603-8.575 5.968-17.73 11.14-26.838 16.295-12.34 6.983-24.735 13.902-37.382 20.303-13.788 6.978-27.863 13.394-41.866 19.943-13.38 6.258-26.733 12.588-40.279 18.47-8.506 3.694-17.407 6.47-26.018 9.934-9.365 3.768-18.49 8.154-27.927 11.72-8.713 3.29-17.69 5.886-26.575 8.712-4.248 1.351-8.57 2.47-12.828 3.791-7.703 2.39-15.413 4.767-23.066 7.31-8.384 2.787-16.68 5.837-25.064 8.622-8.241 2.737-16.543 5.291-24.82 7.916-7.507 2.38-14.992 4.833-22.534 7.095-9.526 2.858-19.07 5.671-28.664 8.29-9.966 2.72-19.984 5.247-30.01 7.738-7.683 1.908-15.403 3.67-23.125 5.42-6.948 1.574-13.906 3.111-20.885 4.54-6.034 1.237-12.162 2.061-18.144 3.5-6.565 1.58-12.948 3.926-19.522 5.46-13.706 3.197-27.48 6.107-41.238 9.08-11.234 2.427-22.518 4.627-33.719 7.199-12.098 2.778-24.104 5.955-36.187 8.8-10.542 2.483-21.318 4.143-31.658 7.264-12.13 3.66-23.9 8.507-35.827 12.838-.594.497-1.188.994-1.886 1.493a10 10 0 0 0 1.556-1.569c-1.338.818-2.404 1.698-3.175 2.6q-.27.152-.561.304c-1.457.317-2.218.622-2.979.924-.615.444-1.231.888-1.916 1.301.603-.403 1.135-.84 1.575-1.266-1.375.662-2.438 1.291-3.315 2.153q-.209.087-.43.17c-.969.072-1.436.37-1.902.67-.495.436-1.027.871-1.613 1.306.565-.43 1.002-.86 1.287-1.28-1.119.676-1.91 1.323-2.342 1.99.158-.093.29-.186.434-.278-.146.097-.257.194-.416.29-.277-.004-.344-.03-.36-.04l-.002-.002h-.001v-.002a49 49 0 0 1-2.26 1.553 18 18 0 0 0 1.904-1.526c-1.623.916-2.956 1.809-3.976 2.715q-.316.164-.655.326c-1.485.32-2.246.624-3.008.928-.448.434-.897.87-1.41 1.275a7 7 0 0 0 1.084-1.242c-1.036.648-1.787 1.267-2.369 2.094a9 9 0 0 1-.412.209c-.95.087-1.42.38-1.889.674.53 5.194-3.464 3.967-6.564 4.662 2.943-.743 7.066.633 6.205-4.635-2.715 1.646-5.087 3.267-7.074 4.899a4 4 0 0 0-.397.18c-.827.325-1 .606-1.174.886-.687 2.044-1.77 3.553-3.326 4.559 1.472-.997 2.466-2.497 2.967-4.524-3.127 2.02-5.894 4.005-8.256 6.012a15 15 0 0 0 1.26-.098q-.742.103-1.56.137c-1.166.319-1.623.62-2.08.92.693 4.166-2.057 4.183-5.409 4.293-.498.218-.603.682-.603.681-.41.38-.821.758-1.334 1.15.438-.376.771-.749 1.005-1.11-1.045.665-1.794 1.295-2.222 1.933q-.164.098-.34.195c-1.124.672-1.614 1.258-2.104 1.844-.45.66-.901 1.32-1.666 2.014-.255.028-.316.013-.33.006h-.002v-.002h-.002c-.545.516-1.207 1.03-1.773 1.547.512-.507 1.021-1.013 1.434-1.512-1.783 1.35-3.226 2.663-4.301 3.992.187-.139.325-.279.504-.418-.181.142-.302.286-.49.428-.288-.005-.353-.024-.368-.031l-.002-.002h-.002v-.002c-1.14 1.09-2.28 2.179-3.515 3.273a49 49 0 0 0 3.17-3.238c-2.29 1.869-4.282 3.707-5.955 5.556q-.3.234-.612.467c-.602.026-1.04.198-1.04.198-.728 2.048-1.769 3.773-3.28 5.062 1.455-1.279 2.397-3.018 2.94-5.068-2.927 2.336-5.515 4.677-7.745 7.218 1.136-.186 2.132-.506 3.004-.941-.904.455-1.93.8-3.113 1.008-.44-.125-.582.062-.598.086l-.002.002c.685 2.264.402 3.553-.47 4.3.79-.725.99-1.967.199-4.13-2.19 1.85-4.108 3.53-5.613 5.232 1.034-.04 2.05-.07 2.949-.19-.958.139-2.052.177-3.182.23a3.8 3.8 0 0 0-1.088.179c-.24.459-.482.917-.81 1.385a4.5 4.5 0 0 0 .482-1.403c-.716.81-1.176 1.632-1.371 2.44q-.18.176-.389.353c-1.76 1.04-2.857 2.012-3.953 2.985-.462.647-.923 1.295-1.687 1.984-.246.034-.317.003-.334-.01l-.002-.002-.002-.002c-.542.518-1.199 1.034-1.76 1.551.508-.506 1.013-1.014 1.422-1.512-1.778 1.358-3.22 2.676-4.291 4.012.21-.157.365-.315.564-.473-.201.161-.337.324-.548.485-.287-.006-.353-.029-.368-.037l-.002-.002h-.002v-.002c-.63.603-1.26 1.208-1.96 1.785a13.3 13.3 0 0 0 1.601-1.756c-1.357.937-2.4 1.85-3.277 2.967q-.25.155-.514.305c-1.958 1.1-3.405 2.39-4.851 3.681-.727 1.771-1.5 3.48-2.803 4.54 1.22-1.048 1.905-2.75 2.445-4.505-2.782 1.69-5.204 3.346-7.41 5.28 1.095.28 2.02.335 2.81.21-.863.159-1.885.124-3.11-.16-.989.062-1.46.352-1.93.641-.014 2.538-.853 3.591-2.174 3.9 1.225-.299 1.975-1.345 1.8-3.878-2.453 1.016-4.533 2.012-6.36 3.294 1.501.4 2.975.78 4.128.659-1.25.141-2.846-.234-4.555-.621-3.062.054-5.448.357-7.832.662-1.337 1.078-2.617 2.812-3.988 3.506 1.358-.695 2.574-2.424 3.572-3.487-2.95.31-5.488.867-8.02.84-6.527-.07-13.05-.398-19.519-.265 1.43.99 2.804 2.178 4.203 2.82-1.424-.65-2.88-1.879-4.591-2.998-5.176-.829-9.907-1.12-14.637-1.414-4.394 1.822-8.338.992-12.426-2.453-3.863-.483-7.215-.53-10.566-.575-.66-.037-1.318-.074-2.377-.47-1.146-.397-1.893-.435-2.639-.473-1.123-.136-2.412-.41-3.562-.568 1.147.11 2.29.21 3.388.209-3.042-.703-5.911-1.049-8.695-1.055-.18-.039-.31-.037-.492-.078-2.217-.46-3.923-.5-5.631-.537-1.683 2.416-3.586 2.074-5.502 1.45 1.893.585 3.742.812 5.303-1.818-5.08-1.033-9.961-1.698-14.756-2.02 1.448.948 2.863 2.15 4.246 2.67-1.403-.522-2.892-1.74-4.635-2.745-1.535-.46-2.595-.497-3.654-.535-3.027.318-6.055.814-9.082.814 3.027 0 6.053-.496 8.898-1.172-3.74-1.036-7.299-1.716-10.851-1.99.553 1.158 1.101 2.616 1.65 3.041-.557-.426-1.162-1.896-2.07-3.12-4.136-.837-7.846-1.194-11.555-1.55-1.38.97-2.632 1.27-3.812.918 1.133.269 2.35-.117 3.656-1.266-2.376-.796-4.595-1.245-6.764-1.336a15 15 0 0 1-.25-.36c-6.8-.81-13.31-.898-19.82-.987-5.003-.052-10.007-.201-15.008-.137 5.001-.064 10.005.084 14.799-.232-7.387-1.101-14.552-2.18-21.748-2.479-8.813-.366-17.671-.434-26.473.047-5.897.323-11.73 1.825-17.328 3.094.408.058.77.065 1.158.103-.577-.037-.948.003-1.613-.064-4.069-.181-7.417-.107-10.766-.031-1.215.596-2.43 1.193-3.748 1.752a29 29 0 0 0 3.377-1.844c-2.358.833-4.377 1.752-6.207 2.91q-.33.108-.67.21c-2.993.16-5.372.543-7.752.927-.685 4.068-3.28 4.367-7.129 3.076-1.005-.186-1.436-.125-1.869-.065-2.003 1.595-3.828 3.525-6.049 4.713 2.221-1.187 4.044-3.119 5.68-4.795-1.785.589-3.236 1.195-4.613 1.94-6.824 3.688-13.628 7.413-20.106 11.32.897-.202 1.718-.44 2.493-.709-.797.28-1.653.538-2.624.775-.464-.126-.601.137-.601.137.098.502.41 1.2.389 1.592.012-.387-.341-1.06-.659-1.43a7578 7578 0 0 0-39.675 39.588c-.985.99-1.55 2.396-1.95 3.592 3.375-2.22 6.542-4.252 9.346-6.697-2.804 2.445-5.973 4.476-9.326 6.71-.275.025-.345 0-.361-.01l-.002-.001h-.002c-.945 1.245-1.89 2.49-2.936 3.756a44 44 0 0 0 2.58-3.719c-1.947 2.163-3.596 4.292-4.947 6.406q-.324.343-.664.69c-2.785 2.71-4.908 5.28-7.03 7.851a24 24 0 0 1-1.345 1.625 7.3 7.3 0 0 0 .998-1.582c-1.043.952-1.787 1.867-2.232 2.766q-.194.166-.407.336c-3.098 2.478-5.54 4.812-7.98 7.146-.03.282-.16.5-.67.942-.275.285-.367.762-.367.762-.417.374-.832.748-1.35 1.136a5.6 5.6 0 0 0 1.025-1.09c-1.06.664-1.826 1.284-2.267 1.91q-.164.096-.34.194c-1.11.68-1.584 1.275-2.059 1.869-.798 1.582-1.616 3.139-2.88 4.28 1.177-1.131 1.904-2.68 2.513-4.243-2.804 2.017-5.242 3.998-7.293 5.992q.577 0 1.092-.06-.655.097-1.408.103c-1.478.66-2.253 1.29-3.028 1.92-.27.254-.542.509-.873.738a2.4 2.4 0 0 0 .563-.697c-.721.348-1.165.66-1.453 1.172a5 5 0 0 1-.375.129c-1.268.17-2.042.54-2.817.908-.879.802-1.74 1.629-2.623 2.426.847-.8 1.613-1.653 2.254-2.498-4.468 1.898-8.568 3.868-12.523 6.143 1.177.121 2.319.206 3.39.09-1.095.12-2.314.043-3.76-.05-1.253-.202-1.993-.142-2.734-.082-1.603.613-3.206 1.225-4.924 1.795a48 48 0 0 0 4.54-1.878c-3.032.846-5.706 1.772-8.159 2.95q-.338.087-.683.17c-2.02-.172-3.394-.105-4.77-.038-.917.814-1.815 2.173-2.744 2.677.917-.507 1.751-1.878 2.342-2.763-4.027.565-7.659 1.778-11.275 1.734-5.134-.063-10.256-1.052-15.325-1.287.814.84 1.584 1.825 2.36 2.256-.796-.432-1.644-1.433-2.793-2.332-3.858-.803-7.224-1.173-10.588-1.541-.332-.067-.663-.134-1.012-.276.323.07.631.063.914-.021-.63-.387-1.18-.534-1.71-.438a5 5 0 0 1-.294-.244c-.723-.72-1.313-.859-1.904-.996-.336.267-.805.81-1.027.842.22-.035.677-.606.877-1.18-4.393-2.038-8.636-3.739-12.829-5.088 3.99 2.338 7.921 4.34 11.891 6.262-3.97-1.921-7.901-3.924-12.219-6.402-1.48-.819-2.582-1.145-3.683-1.471-2.501 1.441-4.711 2.14-5.266-2.434a1.06 1.06 0 0 0-.707-.543c-.508-.226-1.016-.45-1.539-.76.499.237.977.386 1.426.452-.953-.707-1.811-1.156-2.633-1.317a9 9 0 0 1-.314-.283c-.401-.756-.69-.915-.977-1.074-.506-.23-1.013-.46-1.533-.773.498.241.98.391 1.433.458-.94-.712-1.796-1.163-2.619-1.326a9 9 0 0 1-.306-.28c-.389-.76-.672-.924-.954-1.089-.69-.402-1.38-.804-2.083-1.293a11.4 11.4 0 0 0 1.984.973c-1.257-1.025-2.43-1.78-3.576-2.235a15 15 0 0 1-.38-.355c-.378-.765-.66-.928-.94-1.092a10 10 0 0 1-1.073-.83q.534.394 1.037.487c-.637-.737-1.242-1.174-1.822-1.325a10 10 0 0 1-.26-.334c-3.396-3.758-6.629-6.883-9.861-10.008-.64-.666-1.278-1.447-1.918-2.132.628.63 1.257 1.259 1.877 1.79-1.69-2.116-3.342-3.889-5.01-5.294.156.198.313.351.469.543-.159-.193-.319-.33-.477-.53.008-.288.028-.354.035-.369v-.002h.002v-.002c-.355-.248-.71-.495-1.082-.835q.54.399 1.051.492c-.63-.734-1.235-1.17-1.818-1.323a9 9 0 0 1-.205-.271c-.372-.735-.65-.9-.928-1.065-.929-.973-1.858-1.946-2.797-3.021.926 1 1.85 1.892 2.762 2.678-1.585-1.996-3.138-3.688-4.7-5.055q-.186-.245-.372-.5c-.253-.915-.53-1.08-.891-1.102-1.357-1.418-2.714-2.835-4.059-4.617.013-.363.02-.369.02-.369a22 22 0 0 1-1.551-1.262 8.3 8.3 0 0 0 1.465.96c-.95-1.035-1.826-1.809-2.705-2.264q-.149-.18-.299-.377c-.68-1.124-1.279-1.596-1.877-2.069a10 10 0 0 1-.975-1.162c.296.4.624.689.942.868-.45-.898-.866-1.5-1.46-1.788.117.277.25.52.393.739a6 6 0 0 1-.457-.832c.107-.385-.052-.518-.072-.534l-.002-.001c-3.69.72-4.674-1.776-5.414-4.915.003-.312.034-.37.041-.38-3.148-.743-5.44-2.218-5.348-6.456-.733-.843-1.202-1.186-1.67-1.529-2.411.271-3.594-.641-4.36-2.056.737 1.337 1.896 2.169 4.26 1.732-2.032-2.456-3.965-4.587-5.911-6.334.474 1.192.772 2.5 1.203 3.625-.468-1.203-.799-2.61-1.33-3.943-1.932-2.506-3.76-4.3-5.569-6.114-10.956-10.985-21.447-22.493-32.994-32.818-11.473-10.259-23.716-19.747-37.945-26.191-11.512-5.214-22.975-10.533-34.496-15.725-3.507-1.58-7.11-2.968-10.713-4.32-9.636-3.617-19.235-7.344-28.967-10.686-7.604-2.612-15.417-4.616-23.08-7.066-9.057-2.896-18.027-6.06-27.082-8.963-7.786-2.497-15.692-4.63-23.443-7.227-7.13-2.388-14.074-5.333-21.197-7.744-6.08-2.058-12.343-3.57-18.448-5.562-10.417-3.4-20.721-7.15-31.168-10.453-11.51-3.64-23.136-6.912-34.691-10.413-3.987-1.208-7.917-2.609-11.863-3.947-4.578-1.552-9.128-3.191-13.723-4.69-8.883-2.896-17.815-5.647-26.68-8.599-7.038-2.344-13.958-5.045-21.017-7.32-9.179-2.959-18.467-5.576-27.662-8.485-7.653-2.42-15.211-5.135-22.86-7.568-10.713-3.408-21.485-6.633-32.205-10.02-8.297-2.621-16.554-5.368-24.828-8.064-9.182-2.992-18.378-5.942-27.537-9.002-6.7-2.238-13.302-4.783-20.037-6.906-8.58-2.705-17.319-4.92-25.87-7.71-14.159-4.619-28.207-9.578-42.333-14.302-9.916-3.316-19.882-6.481-29.827-9.713-3.378-1.098-6.745-2.237-10.14-3.28-9.048-2.777-18.154-5.378-27.154-8.302-10.573-3.435-21.025-7.235-31.59-10.693-8.729-2.858-17.576-5.353-26.313-8.186-7.65-2.48-15.178-5.333-22.836-7.785-7.785-2.493-15.685-4.632-23.496-7.05-6.163-1.91-12.263-4.018-18.398-6.018a9518 9518 0 0 0-22.535-7.307c-4.894-1.581-9.786-3.17-14.692-4.713-7.678-2.415-15.41-4.667-23.04-7.224-8.23-2.758-16.32-5.935-24.557-8.66-8.678-2.872-17.502-5.3-26.186-8.153-10.689-3.512-21.313-7.223-31.94-10.922-10.034-3.493-20.099-6.911-30.033-10.674-12.19-4.617-24.267-9.536-36.379-14.36-14.422-5.745-28.853-11.472-43.236-17.313-9.342-3.795-18.665-7.645-27.887-11.721a480 480 0 0 1-22.607-10.727c-6.596-3.337-13.03-7-19.486-10.605-8.48-4.734-17.52-8.74-25.23-14.514-13.335-9.985-26.99-19.834-37.417-33.12-5.814-7.41-12.12-14.733-16.285-23.056-4.32-8.633-6.644-18.337-9.234-27.74-2.148-7.795-4.536-15.792-4.83-23.773-.567-15.355-1.35-30.872 4.628-45.727 3.544-8.806 6.304-17.691 12.684-25.299 10.303-12.285 21.107-23.89 34.385-32.943 10.556-7.197 21.546-13.77 31.967-21.152 11.61-8.226 22.793-17.053 34.164-25.618 1.112-1.253 2.224-2.506 3.681-3.765.28-.005.356.025.373.037l.002.002.002.002c.583-.551 1.165-1.1 1.848-1.662a12 12 0 0 0-1.516 1.623c1.351-.964 2.41-1.893 3.147-2.832q.204-.136.422-.274c1.128-.667 1.606-1.264 2.086-1.861a24 24 0 0 1 1.398-1.188c-.467.39-.826.778-1.07 1.155 1.1-.692 1.874-1.35 2.29-2.02l.005-.002c.36.013.357.008.357.008-.105-1.172-.072-2.232.441-2.975-.427.723-.379 1.752-.115 2.868 1.46-1.36 2.595-2.613 3.328-3.877a6.5 6.5 0 0 0-1.422.004c.482-.083 1.059-.105 1.749-.055 1.829-1 2.933-1.96 4.037-2.922 1.09-1.017 2.18-2.034 3.627-3.045.312.006.363.023.37.027-.273-1.692.023-2.794.854-3.43-.754.62-.967 1.693-.533 3.329 1.782-1.37 3.243-2.636 4.29-3.922-.883-.095-1.652-.098-2.292.004.698-.125 1.544-.135 2.531-.047.656-.025 1.11-.203 1.11-.203.252-.482.504-.964.845-1.457q-.405.734-.521 1.47c.734-.83 1.196-1.674 1.375-2.5q.132-.134.277-.27c.572-.075 1.022-.25 1.022-.25.609-.689 1.219-1.377 1.935-2.079a14 14 0 0 0-1.613 2.1c1.37-1.16 2.457-2.34 3.223-3.53q.204-.165.422-.33c1.12-.68 1.6-1.276 2.078-1.87 1.42-1.355 2.84-2.709 4.623-4.05.293.01.353.022.365.026h.004c.364-.543.727-1.086 1.197-1.602a5.2 5.2 0 0 0-.92 1.54c.889-.767 1.503-1.47 1.791-2.345l.11-.082c.406.105.551-.062.568-.084v-.001c-.357-1.912.512-4 2.142-5.737-1.553 1.702-2.345 3.74-1.859 5.57 3.52-3.196 6.757-6.227 9.586-9.277a11.2 11.2 0 0 0-3.033.633 12.4 12.4 0 0 1 3.344-.746c2.166-1.36 3.614-2.625 5.062-3.889.774-.962 1.549-1.924 2.465-2.88a17.4 17.4 0 0 0-2.152 2.792c1.421-1.354 2.536-2.62 3.28-3.894l.026-.024c.289.01.354.003.37-.002h.003v-.002h.002c1.005-1.187 2.01-2.375 3.15-3.556a30 30 0 0 0-2.837 3.459c1.754-1.684 3.2-3.271 4.279-4.871l.035-.034c.287.015.353.009.367.004l.002-.002h.002v-.002c.395-.517.79-1.034 1.272-1.558a8 8 0 0 0-.967 1.482c1.03-.94 1.8-1.815 2.254-2.695q.168-.137.35-.275c.785-.335.951-.618 1.117-.9.424-.58.877-1.158 1.37-1.735a8.7 8.7 0 0 0-1.073 1.633c1.094-1.045 1.892-1.99 2.314-2.942l.375.01c.592-.678 1.294-1.352 1.9-2.03-.545.648-1.11 1.3-1.584 1.93 2.107-2.032 3.898-3.965 5.317-5.912-.018.017-.031.034-.049.051.018-.017.029-.034.047-.05h.002c.363.011.369.013.369.013.46-.61.952-1.219 1.494-1.828-.514.598-.916 1.186-1.191 1.742 1.106-1.025 1.911-1.964 2.341-2.914-.085.075-.154.151-.236.227.083-.078.138-.156.225-.233.296.004.361.017.375.022l.002.002c1.002-1.252 2.005-2.504 3.31-3.749-1.304 1.244-2.286 2.49-3 3.655 1.433-1.371 2.556-2.65 3.301-3.936l.377.01c.399-.673.796-1.347 1.281-2.037a11.5 11.5 0 0 0-.965 1.932c1.026-1.244 1.788-2.4 2.25-3.532q.19-.207.397-.418c1.108-.717 1.58-1.312 2.053-1.908.567-.858 1.134-1.716 1.789-2.594-.58.85-1.068 1.682-1.471 2.485 1.324-1.573 2.379-3.053 3.135-4.506q.229-.252.474-.506c.783-.722.928-1.3 1.073-1.879a39 39 0 0 1 1.552-2.535c-.544.833-.962 1.653-1.236 2.43 1.117-1.37 1.916-2.637 2.328-3.905-.145.17-.267.34-.4.51.133-.175.232-.348.377-.523.317-.012.381.022.392.03l.002.003c-.13-1.605-.07-3.063 1.14-3.72-1.18.651-1.168 2.083-.82 3.607 1.43-1.387 2.54-2.659 3.253-3.948v-.002c.397.015.398.018.398.018.225-.49.449-.982.76-1.494a5 5 0 0 0-.444 1.404c.708-.927 1.156-1.78 1.323-2.6q.168-.191.361-.388c2.78-3.077 4.894-5.99 7.008-8.903.514-1.39.865-2.92 1.36-4.328-.457 1.391-.714 2.9-1.038 4.221 4.029-4.72 7.736-9.33 11.082-13.937-3.161 2.303-6.323 4.295-8.637 7.01 2.314-2.715 5.475-4.707 8.778-7.321 1.494-1.762 2.487-3.208 3.48-4.654.445-.99.89-1.982 1.65-2.992.257-.017.315-.003.329.003l.002.002h.002c.221-.491.443-.983.75-1.496a5 5 0 0 0-.438 1.399c.704-.936 1.154-1.79 1.318-2.61q.168-.193.362-.392c2.31-2.201 4.116-4.125 5.562-6.29 7.099-10.62 13.773-21.543 21.213-31.915 12.805-17.852 25.917-35.488 39.195-52.99 7.359-9.7 15.337-18.929 22.999-28.399 5.714-7.064 11.369-14.176 17.05-21.266.433-.99.866-1.978 1.635-3.017.273-.04.342-.022.357-.014l.002.002h.002c-.24-2.417.722-3.885 2.164-5.053-1.368 1.145-2.249 2.587-1.843 4.948 2.388-2.65 4.47-5.2 6.213-7.73q.182-.12.36-.243c.764-.369.926-.651 1.09-.934.386-.52.77-1.042 1.245-1.578a8.3 8.3 0 0 0-.942 1.489c1.023-.968 1.783-1.858 2.223-2.747q.18-.153.375-.308c.807-.683.957-1.26 1.108-1.838.244-.357.489-.714.824-1.086q-.392.54-.483 1.047c.729-.639 1.165-1.244 1.315-1.826q.13-.104.273-.21c.738-.374.902-.654 1.067-.935-.172-2.024.082-3.692 1.455-4.512.714-.426 1.725-.628 3.148-.521.334 0 .395.027.404.033v.002h.002c.376-.51.897-1.092 1.297-1.613-.365.51-.723 1.02-.994 1.504 1.343-1.392 2.382-2.674 3.059-3.955-.412.41-.727.814-1.074 1.22.403-.49.673-.914 1.162-1.447.45-.226.547-.701.547-.701-.355-2.514.224-4.268 2.263-5.736-2.035 1.466-2.578 3.21-1.947 5.623 4.028-4.31 7.75-8.51 11.117-12.72q.246-.185.498-.368c2.147-2.024 3.604-3.917 5.063-5.809l-.27-3.691a264 264 0 0 0 4.19-.457c.803-.67.949-1.247 1.093-1.822.24-.355.479-.71.81-1.084q-.382.535-.47 1.035c.727-.649 1.162-1.253 1.309-1.836q.146-.123.312-.248c.755-.72.892-1.305 1.03-1.889.415-1.01.946-2.033 1.38-3.045-.381.98-.763 1.964-1.048 2.912 1.448-2.718 2.564-5.304 3.31-7.86-.134.247-.223.488-.351.733.128-.249.202-.492.336-.742.288-.032.357-.017.373-.01l.002.002h.001c.203-1.726.367-3.463.579-5.187a49 49 0 0 0-.235 5.054c1.7-3.73 3.055-7.328 4.01-10.921-1.116.644-2.382 1.188-2.945 1.886.565-.711 1.84-1.317 3.02-2.293.421-1.788.368-3.166.314-4.543-.472-.554-1.18-1.058-1.516-1.64.339.568 1.063 1.003 1.607 1.191.745-7.121-.618-13.244-4.863-18.166 1.005 5.8 1.967 11.197 3.09 16.559-1.123-5.362-2.084-10.758-3.207-16.87-1.346-2.192-2.582-3.658-3.818-5.124-1.018-1.095-2.036-2.19-3.055-3.631-.002-.303.034-.363.043-.373v-.002c-1.658-.627-3.71-.869-5.057-1.8 1.346.927 3.395 1.129 5.02 1.444-2.962-3.513-5.71-6.862-8.867-9.765-2.394-2.2-5.28-3.865-7.938-5.424l-.295-.377c-.731-.782-1.313-.937-1.894-1.092-.209.193-.55.563-.647.607v-.001c.097-.048.428-.445.535-.934-3.537-2.646-6.973-4.993-10.406-6.998q-.307-.276-.613-.559c-.71-.795-1.294-.937-1.88-1.078-.504-.239-1.01-.478-1.534-.8.497.247.982.408 1.44.486-.937-.721-1.795-1.179-2.632-1.364q-.18-.156-.363-.334c-1.055-1.077-1.966-1.537-2.877-1.998-.756-.417-1.523-.946-2.281-1.382.732.383 1.463.767 2.168 1.056-2.043-1.45-3.971-2.573-5.877-3.33.24.174.472.294.71.457-.242-.164-.478-.264-.722-.437-.028-.282-.01-.351-.002-.368l.002-.001v-.002c-.494-.393-.986-.853-1.48-1.264.468.356.932.683 1.379.957-1.379-1.423-2.653-2.54-3.936-3.281l-.008-.008c.01-.38.004-.377.004-.377a30 30 0 0 1-1.832-1.51c.6.52 1.19.928 1.748 1.207-1.02-1.11-1.956-1.919-2.904-2.353.088.101.177.183.265.279-.091-.097-.183-.165-.275-.268.002-.292.02-.358.027-.373l.002-.002.002-.002c-2.603-.532-4.385-1.783-5.662-3.587 1.247 1.724 3.004 2.896 5.557 3.26-2.71-3.438-5.316-6.545-7.938-9.27.27 1.235.595 2.395 1.014 3.45-.463-1.14-.83-2.407-1.144-3.776-2.702-4.623-5.97-8.257-7.71-12.516-2.332-5.711-5.612-12.271-4.662-17.81 1.605-9.351 5.235-18.713 9.772-27.122 7.843-14.538 20.3-25.54 31.766-37.2 3.74-3.806 7.893-7.207 11.664-10.985 4.65-4.66 8.572-10.203 13.732-14.162 14.445-11.084 29.274-21.678 44.162-32.166 3.74-2.635 8.14-4.507 12.473-6.082 4.818-1.752 10.156-2.192 14.822-4.225 8.426-3.671 17.565-3.537 25.402-1.312 13.652 3.875 26.822 9.857 39.67 16.046 18.542 8.933 36.594 18.88 54.9 28.305 6.139 3.16 12.469 5.946 18.618 9.086 7.608 3.885 15.073 8.053 22.687 11.926 7.32 3.722 14.783 7.158 22.123 10.838 9.33 4.676 18.585 9.504 27.903 14.207 9.551 4.82 19.157 9.531 28.703 14.363 6.909 3.497 13.724 7.182 20.642 10.658 9.876 4.962 19.842 9.746 29.706 14.73 6.575 3.324 12.985 6.976 19.568 10.284 9.615 4.831 19.367 9.39 28.97 14.244 7.36 3.72 14.507 7.865 21.883 11.55 9.327 4.66 18.877 8.876 28.17 13.598 9.128 4.639 17.975 9.828 27.092 14.489 9.454 4.833 19.16 9.172 28.62 13.996 15.463 7.887 30.734 16.154 46.238 23.959 15.713 7.91 31.7 15.278 47.402 23.209 15.302 7.729 30.32 16.018 45.605 23.783 12.63 6.416 25.521 12.317 38.196 18.648 10.654 5.323 21.128 11.006 31.746 16.403 9.724 4.942 19.537 9.71 29.306 14.564 7.202 3.578 14.485 7.004 21.57 10.797 8.647 4.627 17.35 9.215 25.606 14.483 6.874 4.385 13.843 9.047 19.45 14.86 4.498 4.665 8.108 10.883 10.124 17.06 2.283 6.99 1.95 14.787 3.46 22.087 3.016 14.595 3.07 29.394 3.82 44.157.293 5.765.65 11.529 1.086 17.285 1.29 17.05 2.561 34.101 3.982 51.14.886 10.624 2 21.229 3.066 31.836a6110 6110 0 0 0 3.934 38.098c.556 5.203 1.265 10.39 1.934 15.58 1.334 10.362 2.8 20.709 4.004 31.086 1.237 10.677 3.29 21.208 8.095 30.82 6.55 13.1 13.534 26.003 20.862 38.686 3.96 6.853 8.634 13.393 13.705 19.474 4.236 5.081 9.459 9.352 14.345 13.874 10.175 9.413 20.262 18.93 30.676 28.072 9.102 7.99 18.71 15.402 27.899 23.297 11.805 10.142 23.338 20.602 35.134 30.755 9.493 8.171 19.289 15.991 28.795 24.147 10.97 9.411 21.667 19.142 32.672 28.51 11.333 9.646 22.977 18.927 34.338 28.54a3861 3861 0 0 1 42.504 36.509c5.073 4.42 7.706 10.57 6.816 17.007-1.493 10.803-8.869 18.277-17.804 23.338-11.759 6.661-24.258 12.012-36.387 18.028-9.365 4.645-18.618 9.516-27.982 14.164-13.16 6.531-26.708 12.36-39.463 19.595-10.824 6.14-21.158 13.341-30.926 21.063-5.271 4.166-10.862 7.921-14.711 14.492-6.162 10.519-8.771 21.046-8.709 33.004.06 11.7 6.32 19.76 14.53 26.135 6.675 5.184 14.636 8.947 22.454 12.363 7.751 3.387 15.976 5.752 24.108 8.184 5.716 1.709 11.614 2.813 17.445 4.127 7.418 1.671 14.848 3.285 22.275 4.916 6.173 1.355 13.112 1.39 18.307 4.418 5.063 2.95 9.726 2.136 14.645 2.507 2.154.163 4.338-.089 6.496.047 15.279.963 30.546 2.123 45.832 2.944 27.527 1.477 54.922-1.25 82.338-3.034 3.352-.217 6.743-1 9.95-2.033 7.485-2.408 14.86-5.15 22.296-7.713 3.8-1.31 8.322-1.635 11.316-3.955 8.348-6.469 16.92-13.001 23.822-20.892 8.874-10.145 16.58-21.389 24.1-32.62 7.277-10.867 13.69-22.314 20.465-33.517 7.597-12.561 15.214-25.11 22.752-37.707 10.87-18.167 21.634-36.4 32.53-54.553 7.272-12.116 14.738-24.116 22.036-36.217 5.836-9.676 11.49-19.463 17.332-29.136 9.882-16.362 19.859-32.664 29.77-49.008 4.433-7.311 8.672-14.743 13.23-21.975 7.84-12.436 16.027-24.655 23.752-37.16 6.183-10.008 11.663-20.453 17.873-30.443 10.593-17.04 21.539-33.86 32.282-50.807 2.336-3.686 4.454-7.511 6.654-11.283 4.132-7.086 8.25-14.18 12.375-21.27l10.154-17.445c.388-.844.776-1.687 1.246-2.55a16.5 16.5 0 0 0-.931 2.41c1-1.571 1.743-3.025 2.197-4.438q.194-.273.406-.549c1.1-.752 1.57-1.357 2.041-1.963 2.102-3.96 4.098-7.983 6.33-11.869-2.232 3.886-4.228 7.907-5.996 11.766 4.34-6.163 8.491-12.134 12.309-18.313 2.925-4.734 5.428-9.728 7.78-14.56-1.26 1.052-2.445 1.956-3.273 3.056.83-1.104 2.025-2.032 3.358-3.285.42-.275.51-.752.51-.752 1.26-2.234 2.521-4.467 3.87-6.722a139 139 0 0 0-3.542 6.603c2.538-3.987 4.805-7.876 6.775-11.734q.418-.627.852-1.256c.777-.74.913-1.33 1.049-1.92.392-.861.783-1.722 1.263-2.6-.404.848-.714 1.68-.94 2.48 1.02-1.565 1.764-3.029 2.206-4.488q.187-.256.39-.517c.787-.707.93-1.292 1.075-1.877.236-.508.472-1.016.793-1.543-.246.5-.404.987-.479 1.447.715-.94 1.167-1.798 1.346-2.637a10 10 0 0 1 .322-.357c.754-.727.9-1.315 1.045-1.902.396-.837.792-1.674 1.271-2.53-.4.828-.714 1.638-.945 2.418.999-1.53 1.733-2.97 2.198-4.38q.212-.292.447-.588c1.095-1.054 1.556-1.965 2.015-2.875.216-.493.43-.985.729-1.498-.221.482-.36.946-.424 1.379.695-.95 1.143-1.802 1.307-2.618q.167-.196.36-.4c1.124-1.397 1.578-2.625 2.03-3.856 1.95-4.12 2.268-9.01 5.735-12.433-3.462 3.421-3.743 8.296-5.407 12.303 4.345-6.742 8.36-13.353 12.014-19.961-1.388 1.606-2.323 3.584-3.555 5.039 1.237-1.466 2.19-3.491 3.645-5.272.452-.235.549-.719.549-.719-.332-3.036.456-5.401 1.994-7.384-1.46 1.952-2.166 4.287-1.662 7.263 2.76-4.023 5.193-7.926 7.254-11.837l.318-.188c.798-.702.934-1.29 1.072-1.879.24-.5.478-1 .801-1.52a5.3 5.3 0 0 0-.488 1.422c.722-.932 1.186-1.785 1.377-2.619q.166-.189.357-.384c1.094-1.398 1.55-2.64 2.006-3.883.426-1.004.853-2.008 1.621-3.012.278 0 .343.02.358.027h.002v.002h.001c.675-1.675.655-3.751 1.278-5.525-.546 1.743-.443 3.789-.95 5.402 2.111-3.047 3.894-5.972 5.28-8.904a7.6 7.6 0 0 0-1.588.45 8.2 8.2 0 0 1 1.87-.571c.816-.703.953-1.293 1.091-1.881-2.115-2.843.29-3.763 2.545-5.254a12.7 12.7 0 0 0 1.474-1.703c.431-.984.86-1.969 1.635-2.998.28-.037.338-.035.35-.033h.004c.74-1.367 1.48-2.733 2.308-4.12a48 48 0 0 0-1.982 3.997c1.625-2.466 2.977-4.83 4.035-7.166q.285-.402.586-.807c.783-.734.926-1.322 1.068-1.91.403-.683.805-1.366 1.293-2.07-.413.675-.74 1.332-.98 1.96 1.016-1.258 1.767-2.423 2.234-3.562q.188-.213.393-.43c.75-.738.89-1.321 1.03-1.906-.224-.587-.744-1.32-.776-1.812.041.49.606 1.206 1.107 1.697 2.794-4.365 5.255-8.616 7.315-12.873-.863.088-1.757.037-2.29.168.547-.14 1.502-.115 2.569-.293.819-.706.956-1.294 1.094-1.881.231-.506.463-1.012.777-1.535a5.2 5.2 0 0 0-.465 1.433c.706-.939 1.154-1.793 1.33-2.63q.154-.18.328-.362c.752-.709.893-1.29 1.034-1.873-.068-2.497.649-4.544 1.91-6.344-1.181 1.77-1.817 3.784-1.584 6.215 2.406-3.661 4.495-7.198 6.248-10.703q.191-.141.387-.281c1.107-1.073 1.564-1.998 2.021-2.924.404-.846.806-1.694 1.295-2.56a16 16 0 0 0-.975 2.435c1.022-1.551 1.777-3 2.248-4.42q.195-.267.409-.539c.765-.735.908-1.322 1.05-1.908.227-.501.454-1.003.764-1.524-.232.493-.384.97-.453 1.422.7-.938 1.143-1.792 1.316-2.629q.166-.194.356-.394c1.442-1.725 2.246-3.295 3.049-4.865-1.094-1.462-1.332-2.465-.807-3.123-.451.624-.139 1.599 1.111 3.001 1.082-1.38 1.86-2.638 2.25-3.91-1.183.014-2.104.146-2.713.42.665-.324 1.683-.499 3.022-.562.83-1.019.965-1.91 1.1-2.8.695-1.32 1.388-2.64 2.505-4.237.422-.278.502-.745.502-.745.354-2.233 1-4.3 2.108-6.17-1.028 1.837-1.593 3.87-1.785 6.038 2.412-3.682 4.51-7.235 6.267-10.752q.188-.13.383-.258c1.45-1.747 2.235-3.33 3.02-4.914.703-1.317 1.407-2.635 2.513-4.217.403-.264.49-.73.49-.73-.066-3.626 1.258-6.446 3.194-8.977-1.854 2.499-3.095 5.286-2.863 8.848 3.349-5.243 6.387-10.364 9.095-15.448q.278-.28.553-.566c2.46-3.415 4.245-6.66 6.031-9.906.448-.986.897-1.97 1.657-2.983.252-.021.315-.002.33.006l.001.002h.002c.218-.492.435-.983.737-1.496-.224.484-.365.95-.428 1.389.698-.941 1.146-1.795 1.307-2.614q.167-.194.361-.396c1.125-1.415 1.576-2.663 2.027-3.91.344-.84.713-1.668 1.043-2.516a29 29 0 0 0-.716 2.4c4.023-6.05 7.72-11.985 11.039-17.921-1.018.157-2.085.12-2.518.425.435-.31 1.516-.306 2.652-.728.845-1.088 1.176-1.873 1.506-2.658-2.206-2.794-.256-3.494 2.492-4.305a10 10 0 0 0 1.494-1.66c.768-1.65 1.537-3.298 2.643-4.996.275-.04.34-.026.356-.02v.002h.004c.566-1.027 1.133-2.054 1.789-3.101a27 27 0 0 0-1.465 2.988c1.32-1.867 2.37-3.637 3.12-5.38q.237-.308.491-.618c.786-.735.93-1.322 1.074-1.91.707-1.317 1.414-2.633 2.524-4.213.402-.263.474-.73.474-.73.385-.849.77-1.697 1.24-2.565-.394.836-.699 1.65-.921 2.43 1.009-1.574 1.754-3.035 2.195-4.463q.192-.267.402-.537c.794-.724.936-1.302 1.078-1.88.558-1.015 1.115-2.032 1.76-3.066a27 27 0 0 0-1.435 2.95c1.31-1.858 2.354-3.62 3.103-5.358q.253-.327.526-.658c1.108-1.067 1.556-1.996 2.004-2.926-3.02-4.294 2.836-4.3 3.675-6.945.28-.04.34-.035.354-.031v.002h.002c.564-1.029 1.13-2.056 1.783-3.104a26 26 0 0 0-1.455 2.996c1.317-1.864 2.36-3.637 3.103-5.383q.236-.306.489-.617c.787-.733.926-1.322 1.066-1.912.237-.505.475-1.01.795-1.533a5.2 5.2 0 0 0-.483 1.431c.716-.937 1.173-1.79 1.358-2.625a10 10 0 0 1 .326-.357c.747-.714.884-1.296 1.022-1.879.696-1.32 1.39-2.64 2.511-4.232.425-.271.504-.735.504-.735-.316-4.835 1.747-8.66 5.487-12.343.45-.836.487-1.276.525-1.715-.737-2.208-1.656-4.453-1.098-6.518-.529 1.983.491 4.213 1.448 6.338 1.028-3.406 1.708-6.63 2.02-9.803-1.724.798-2.71 1.73-3.206 2.744.517-1.12 1.542-2.178 3.387-3.132.702-12.422.86-24.402.966-36.383.004-.408-.5-.822-.767-1.233-3.458-.954-4.08-2.82-3.932-5.011-.148 2.103.503 3.874 4.016 4.62-.895-3.808-1.874-7.226-3.15-10.366-.017 1.684-.601 3.52-.813 5.191.208-1.758.774-3.682.775-5.52.2-1.04.137-1.475.075-1.91-2.948-1.084-4.248-2.775-4.176-5.771-.07 2.989 1.24 4.638 4.26 5.383-.578-2.84-1.176-5.31-1.916-7.737-.911-2.988-1.942-5.941-3.2-8.685q.023.375.059.75a24 24 0 0 1-.1-1.139c-.141-2.343-.52-4.072-.9-5.803a49 49 0 0 1-1.539-2.48 15 15 0 0 0 1.62 2.135c-.828-1.67-1.723-3.044-2.641-4.102q-.133-.281-.264-.58c-.076-1.122-.14-1.547-.205-1.97-.609-.857-1.219-1.714-1.79-2.655.577.86 1.213 1.64 1.874 2.314-.853-1.705-1.782-3.101-2.944-4.316q-.109-.237-.215-.484c-.076-.963-.378-1.428-.68-1.893-1.146-.701-2.582-1.188-3.493-2.064.911.87 2.346 1.316 3.47 1.691-.737-1.928-1.336-3.549-2.185-5.025-1.863-3.24-3.853-6.407-6.072-9.37-.136 1.376-.34 2.716-.157 3.872-.185-1.169.01-2.563.11-4.172-.061-1.004-.357-1.472-.653-1.94-2.014-2.424-4.028-4.848-6.035-7.63.007-.314.03-.367.035-.376h.002c-1.016-1.09-2.032-2.18-3.039-3.627.008-.288.027-.353.033-.367l.002-.002v-.002c-.65-.456-1.3-.913-1.988-1.677-.032-.27-.005-.323.002-.332h.002v-.002a10 10 0 0 1-.947-1.143c.287.392.605.677.914.854-.44-.889-.844-1.488-1.426-1.774q.137.33.303.606a6 6 0 0 1-.37-.72c.11-.425-.117-.558-.117-.558-1.996.278-3.293-.368-4.318-1.445.994 1.006 2.247 1.576 4.158 1.176-2.46-2.13-4.766-4.003-7.052-5.541a19 19 0 0 0-.23-.346c-.38-.757-.666-.92-.95-1.084-.493-.224-.986-.45-1.5-.76.488.232.96.379 1.406.444-.931-.707-1.786-1.156-2.605-1.32a10 10 0 0 1-.38-.35c-1.411-1.45-2.665-2.244-3.92-3.035-.816-.081-1.673-.036-2.458-.213.784.172 1.626.09 2.334-.123-1.294-1.104-2.37-2.136-3.65-2.592-4.98-1.773-10.021-3.37-15.02-4.69l-.324-.357c-1.074-.782-1.979-.902-2.883-1.022-5.956 2.23-11.696 1.401-14.399-2.462-3.37-.774-6.269-1.417-9.154-1.362-12.478.241-24.952.686-37.428 1.057-.864.866-1.722 2.23-2.588 3.004.831-.783 1.587-2.17 2.137-3.094-13.148.608-25.846 1.3-38.54 2.04-.363.02-.696.529-.755 1.114 12.191.436 24.094.681 35.992.532-11.898.149-23.8-.096-36.453-.496-4.763-.204-8.777-.137-12.79-.07-.43.45-.834 1.189-1.28 1.48.432-.294.764-1.047.828-1.575-3.094-.078-5.818-.471-8.369.024-9.877 1.917-19.554 1.948-28.97-1.381a79 79 0 0 0-1.35-.768c-1.744-1.143-3.313-1.589-4.883-2.035-.5-.23-1.002-.462-1.522-.775a5.3 5.3 0 0 0 1.418.467c-.936-.708-1.787-1.161-2.62-1.342a10 10 0 0 1-.386-.35c-1.149-1.407-2.152-2.183-3.156-2.957-3.59-1.132-8.67-.172-8.746-6.63.007-.326.023-.399.03-.415v-.002h.001v-.002c-2.373.22-4.338-.073-4.029-3.597.005-.336.03-.395.035-.405h.002v-.001c-.752-.203-1.861.088-2.644-.106.77.109 1.874-.268 2.611-.238-1.005-1.115-1.977-1.885-3.225-2.44-.243.808-.314 1.386-.26 1.793-.107-.463-.063-1.146.198-2.144-1.751-3.33-3.715-6.094-5.678-8.858-1.985-.184-2.968-.922-3.406-2.01.434.987 1.418 1.62 3.383 1.635-1.016-2.454-2.009-4.533-3.283-6.38-.235 1.246-.452 2.471-.381 3.51-.095-1.146.12-2.515.347-3.977.275-11.052.3-21.405.326-31.758-3.302-4.59 1.38-6.234 3.631-8.955.284-.042.345-.037.358-.033l.002.002h.002c.736-2.005 1.473-4.008 2.6-6.016.316-.003.382.007.396.012l.002.002h.002c.62-2.755-.01-6.217 4.453-7.28.457-.226.549-.707.549-.707.677-1.018 1.355-2.036 2.48-3.277.448-.223.533-.688.533-.688.162-1.942.79-3.48 1.856-4.66-.981 1.158-1.527 2.66-1.543 4.537 2.413-2.386 4.519-4.652 6.445-7.17q.184-.045.373-.085c2.286-1.167 4.051-2.546 5.815-3.924-.279-2.766.675-3.99 2.224-4.551-1.467.55-2.347 1.774-1.883 4.553 2.457-1.59 4.57-3.18 6.473-5.034-1.149.024-2.32.02-3.351.176 1.118-.178 2.403-.184 3.705-.224 1.653-.162 2.744-.539 3.834-.914.827-.582 1.654-1.162 2.568-1.71a16 16 0 0 0-2.23 1.794c1.688-.833 3.076-1.738 4.283-2.87q.287-.129.588-.252c1.653-.078 2.744-.382 3.835-.685 1.295-1.01 2.52-2.525 3.844-3.328-1.302.803-2.451 2.312-3.445 3.297 3.344-.707 6.308-2.002 9.23-1.912 4.41.135 8.79 1.203 13.15 1.527l.37.36c2.437.827 4.632.927 6.826 1.029 3.319-1.93 5.796-.608 8.389 2.48 2.846.787 5.231 1.143 7.617 1.5 1.044.238 2.13.52 3.275.863-1.09-.316-2.146-.503-3.136-.527 1.722.701 3.304 1.067 4.824 1.107-.239-.098-.471-.174-.707-.26.35.119.658.195 1.031.338.826.438 1.265.472 1.705.506 1.402-1.69 2.534-2.078 3.526-1.6-.95-.395-2.044.076-3.368 1.938 2.055.774 3.95 1.21 5.852 1.28a19 19 0 0 0-.354-.715q.27.496.536 1.056c1.72.817 3.264.926 4.808 1.035 2.94-1.428 5.733-2.335 7.38 2.553 2.123.83 3.876 1.123 5.63 1.416 3-2.215 4.54-.272 6.37 2.506 1.5.453 2.562.487 3.624.522 6.528-.305 12.9-.06 18.324 5.484 1.184.446 1.928.481 2.674.516 3.167-2.214 5.287-.89 7.371 2.474 1.5.47 2.562.515 3.621.559.897.265 1.941.672 2.864.963-.918-.254-1.83-.492-2.702-.637 2.4 1.024 4.638 1.722 6.82 2.072-.54-.236-1.063-.39-1.597-.59.69.247 1.248.37 1.994.67 4.026 1.422 7.603 2.408 11.174 3.41 8.859 2.488 17.735 4.913 26.566 7.493 9.422 2.751 18.802 5.65 28.2 8.486 9.843 2.972 19.709 5.873 29.521 8.945 7.058 2.21 13.91 5.245 21.09 6.854 12.097 2.71 23.246 7.728 33.857 13.666 15.723 8.798 31.345 17.935 46.149 28.172 14.476 10.01 28.137 21.265 41.666 32.56 11.94 9.969 21.465 22.274 30.1 35.145 4.58 6.826 8.873 13.975 12.232 21.457 4.01 8.935 6.909 18.374 10.24 27.611 2.023 5.608 4.133 11.193 5.89 16.885 3.99 12.92 7.85 25.88 11.626 38.863 1.351 4.65 2.267 9.424 3.447 14.125 1.495 5.955 2.905 11.937 4.635 17.824 1.576 5.366 3.682 10.575 5.275 15.936 1.836 6.176 3.01 12.57 5.155 18.627 1.463 4.134.812 5.734-3.526 6.902-10.541 2.84-20.94 6.21-31.646 9.442l10.054 33.486 107.961-32.3-10.125-33.518c-11.578 3.47-22.4 6.702-33.21 9.97-1.944.588-3.936 1.445-4.708-1.435-3.38-12.606-6.72-25.223-10.07-37.836-1.74-6.548-3.432-13.109-5.22-19.643-1.447-5.285-2.977-10.547-4.522-15.804-1.718-5.843-3.559-11.65-5.227-17.506-1.409-4.945-2.49-9.986-4-14.897-1.847-6.005-3.827-11.98-6.043-17.86-4.527-12.01-8.556-24.28-14.08-35.825-6.01-12.562-12.642-24.924-21.88-35.627-5.063-5.865-9.338-12.443-14.659-18.043-15.308-16.112-32.358-30.28-50.29-43.381-7.218-5.272-14.357-10.69-21.884-15.488-7.041-4.49-14.493-8.35-21.863-12.303-8.807-4.723-17.593-9.519-26.63-13.768-6.55-3.079-13.42-5.535-20.28-7.877-7.894-2.694-15.938-4.946-23.91-7.412-8.78-2.715-17.524-5.55-26.336-8.156-8.974-2.654-18.02-5.06-27.018-7.635-8.84-2.53-17.653-5.157-26.488-7.707-8.518-2.458-17.052-4.86-25.572-7.31-5.852-1.683-11.716-3.333-17.534-5.13-4.893-1.51-9.683-3.363-14.6-4.786-5.426-1.571-11.002-2.635-16.411-4.258-9.25-2.776-18.328-6.165-27.65-8.65-10.297-2.746-20.727-5.104-31.215-6.977-6.693-1.196-13.84-2.598-20.358-1.461-14.291 2.493-28.16 7.02-40.332 15.363-6.233 4.273-12.63 8.529-18.023 13.752-8.562 8.293-14.817 18.284-20.514 28.906-6.227 11.612-9.732 23.647-10.127 36.454-.302 9.812 1.27 19.673 1.832 29.523.541 9.498 4.562 17.355 10.853 24.234 2.908-.254 4.042.978 4.682 2.678-.636-1.645-1.772-2.765-4.64-2.326 2.026 2.788 4.011 5.224 6.013 7.275-.538-1.344-.741-2.908-1.137-4.252.396 1.359.609 2.903 1.149 4.233-.004.32-.034.379-.041.388h-.002v.002c1.019 1.09 2.037 2.178 3.047 3.621-.008.31-.03.363-.035.372.564.419 1.128.84 1.67 1.318a11 11 0 0 0-1.59-1.014c.931.999 1.796 1.746 2.845 2.324a9 9 0 0 1 .375.504c.776 1.302 1.754 2.076 2.733 2.848 1.878-.05 3.504-.159 4.807 1.336-1.3-1.483-2.912-1.326-4.711-1.014 4.44 3.919 8.783 7.513 13.322 10.748-.383-1.157-.744-2.267-1.297-3.14.558.88.932 2.013 1.367 3.254-.123.473.115.6.115.6 1.138.741 2.276 1.482 3.647 2.685.234.46.719.543.719.543 2.803.943 5.6 1.908 8.414 2.822-2.814-.914-5.61-1.879-8.28-2.494 5.73 3.022 11.324 5.716 16.924 8.027-1.501-1.705-2.885-3.222-4.556-4.285 1.671 1.063 3.056 2.58 4.877 4.375.754.51 1.194.547 1.634.584 1.322.466 2.644.932 4.11 1.563a22 22 0 0 0-3.952-1.243c2.064 1.03 3.97 1.74 5.825 2.11l-.37-.184q.391.187.797.393c1.076.769 1.673 1.185 2.268 1.183 15.435-.03 30.868-.107 46.303-.173.309-.195.618-.39 1.008-.555-.31.175-.553.4-.71.656.759-.176 1.235-.446 1.57-.93a6 6 0 0 1 .429-.08c1.599.135 2.656.077 3.713.018 1.217-.7 2.412-1.798 3.64-2.315-1.208.521-2.32 1.636-3.19 2.403 6.49-.573 12.528-1.235 18.282-2.201-4.851-.41-9.431-.758-13.975-.487 4.544-.271 9.124.077 14.424.455 3.427.208 6.12.143 8.813.077.901-.121 1.997-.173 2.916-.288-.834.127-1.71.238-2.479.385 3.404-.19 6.381-.483 9.102-1.039.258-.013.428-.057.693-.068 6.42.19 12.096.12 17.772.049 1.801-1.096 3.518-2.781 5.388-3.397-1.864.617-3.534 2.313-4.95 3.488 7.495.032 14.553-.028 21.604-.494-.936-1.128-1.825-2.476-2.783-3 .97.526 1.928 1.887 3.22 3.08 2.802.528 5.164.569 7.526.61.457.027.921.063 1.499.21a7 7 0 0 1 .833.268c.802.394 1.244.429 1.686.463 1.143-.94 2.118-1.24 2.969-.889-.812-.273-1.756.111-2.834 1.223 1.707.788 3.282 1.242 4.824 1.338a9 9 0 0 0-.44-.979q.321.558.618 1.3c1.427.791 2.643.903 3.861 1.015 4.143-.485 6.62-.006 8.55 2.318-1.903-2.28-4.348-2.687-8.41-1.992 3.798 2.91 7.456 5.494 11.298 7.746-.723-2.048-1.435-3.644-2.227-4.855.813 1.238 1.543 2.866 2.291 4.963-.11.41.07.548.094.564l.002.002a38 38 0 0 1 1.996 1.578 14.4 14.4 0 0 0-1.838-1.326c1.176 1.184 2.193 2.116 3.227 2.656-.152-.167-.304-.308-.456-.46.158.154.316.27.473.437.002.322-.035.384-.045.394h-.002v.002c4.53.462 7.76 4.685 7.067 9.614-.015.289-.026.349-.03.36l-.002.003c.335.386.67.772 1.006 1.244a5.3 5.3 0 0 0-.974-.918c.6 1.008 1.178 1.756 1.763 2.217q.12.231.24.49c.325 1.458.635 2.215.944 2.973.417.434.835.87 1.226 1.369a7 7 0 0 0-1.191-1.043c.635 1.024 1.24 1.769 2.043 2.35q.12.227.23.476c.08 1.3.377 2.08.672 2.857 1.084.72 2.75 1.255 3.385 2.118-.635-.857-2.297-1.352-3.348-1.748 1.13 2.658 2.38 4.888 3.28 7.25 1.654 4.338 3.112 8.751 4.9 12.93l.133.628c.155 3.012.535 5.393.916 7.774 4.323 1.62 2.832 5.476 3.06 9.222-.162 2.02-.089 3.397-.015 4.774 1.008 1.707 2.758 3.454 3.322 5.138-.567-1.672-2.33-3.356-3.414-4.734-.038 7.155.016 13.905.418 20.576 2.145-1.466 3.112-3.166 3.486-4.976-.371 1.903-1.352 3.73-3.564 5.367-.467 1.527-.509 2.586-.55 3.644.06 1.152.474 2.46.273 3.494.195-1.031-.26-2.32-.612-3.322-.841 1.67-1.177 3.251-1.875 4.65-3.203 6.42-6.51 12.79-9.392 19.182.735-.157 1.496-.226 2.011-.388-.538.175-1.367.273-2.29.511-.806.706-.945 1.293-1.085 1.881 1.573 2.704 1.986 4.89-2.613 4.996-.302.005-.381-.025-.4-.037l-.002-.002-.002-.002h-.002c-.386.682-.772 1.363-1.244 2.065.397-.672.705-1.326.931-1.948-1.006 1.272-1.751 2.445-2.195 3.588a17 17 0 0 1-.394.434c-.785.735-.927 1.323-1.069 1.91-.144.651-.288 1.302-.713 1.977-.228.02-.287 0-.3-.008l-.003-.002h-.001c.082 2.324.29 4.723-3.498 5.367-.83 1.094-1.152 1.883-1.473 2.67 1.963 2.669 1.024 3.881-2.479 4.262-.454.226-.543.7-.543.7-.379 1.557-.34 3.337-.9 4.864.484-1.495.363-3.246.574-4.738-1.79 2.712-3.253 5.298-4.342 7.855q.665-.15 1.192-.369a8 8 0 0 1-1.473.492c-.796.74-.937 1.328-1.078 1.916 2.044 2.684 1.159 3.921-2.508 4.36-1.828 2.434-3.143 4.543-4.459 6.652-.234.508-.468 1.015-.785 1.541q.363-.752.473-1.441c-.71.94-1.16 1.798-1.338 2.636a10 10 0 0 1-.324.36c-.756.721-.903 1.307-1.05 1.892.158 1.717.044 3.272-.697 4.524.662-1.22.697-2.748.374-4.408-1.762 2.378-3.2 4.64-4.262 6.916a8.4 8.4 0 0 0 1.594-.506 9.5 9.5 0 0 1-1.907.648c-.822 1.03-.956 1.93-1.091 2.828 1.123 1.536 1.303 2.552.687 3.194.546-.612.288-1.6-1.004-3.084-1.104 1.37-1.893 2.632-2.295 3.902 1.178-.015 2.107-.142 2.72-.418-.666.318-1.68.483-2.995.541-.81.69-.957 1.266-1.106 1.842-.392.842-.785 1.682-1.265 2.545q.6-1.253.937-2.434c-1.007 1.547-1.747 3-2.199 4.418q-.206.286-.434.576c-1.115 1.081-1.578 2.002-2.039 2.924 1.284 1.632 1.255 2.656.506 3.416.675-.724.63-1.718-.826-3.29-1.112 1.706-1.903 3.288-2.33 4.843.781-.268 1.537-.534 2.15-.846-.684.361-1.544.674-2.46 1.004-1.803 2.412-2.931 4.64-4.06 6.867 3.476 5.293-2.028 5.726-4.624 7.965-.277.04-.34.028-.356.022l-.002-.002h-.004c-.218.496-.436.992-.738 1.508a5 5 0 0 0 .43-1.403c-.698.942-1.142 1.797-1.3 2.62a10 10 0 0 1-.345.376c-1.113 1.074-1.57 1.998-2.029 2.922-.428.887-.964 1.787-1.41 2.676.394-.859.786-1.717 1.086-2.543-1.45 2.372-2.577 4.611-3.361 6.822.155-.25.264-.492.412-.74-.149.253-.241.498-.397.752-.265.033-.327.018-.342.012h-.002v-.002h-.001c.033 1.343.63 2.986.378 4.238.174-1.224-.506-2.842-.707-4.129-1.442 2.044-2.557 3.979-3.287 5.93 1.194.074 2.055-.022 2.666-.242-.659.272-1.606.409-2.953.353-.818.685-.964 1.274-1.11 1.865.86 1.417 1.358 2.674.964 3.59.32-.884-.259-2.113-1.287-3.47-1.118 1.702-1.912 3.286-2.305 4.873 1.165-.03 2.016-.188 2.603-.452-.635.313-1.57.515-2.879.58-.816.71-.958 1.295-1.101 1.88a10 10 0 0 1-.768 1.052c.24-.338.398-.666.479-.975-.71.646-1.17 1.224-1.342 1.809q-.15.12-.318.244c-.757.695-.896 1.287-1.035 1.877-.906 2.827-1.405 5.896-2.655 8.516 1.245-2.618 1.708-5.672 2.33-8.38-4.027 6.393-7.729 12.647-11.07 18.893 2.253-2.338 4.547-4.523 6.428-6.925-1.888 2.419-4.21 4.667-6.577 7.25-1.688 1.89-3.01 3.361-4.02 5.02-7.132 11.686-14.18 23.422-21.294 35.118-5.808 9.55-11.704 19.045-17.502 28.6-7.87 12.971-15.565 26.05-23.559 38.945-7.495 12.09-15.377 23.941-22.914 36.006-8.39 13.433-16.564 27.002-24.869 40.488-11.361 18.451-22.81 36.847-34.125 55.327-11.302 18.459-22.484 36.994-33.72 55.494-9.145 15.056-18.286 30.114-27.444 45.162a7619 7619 0 0 1-15.886 25.99c-6.353 10.345-12.754 20.661-19.098 31.012-6.322 10.313-12.531 20.695-18.92 30.967-4.876 7.838-10.159 15.429-14.897 23.347-6.835 11.426-13.251 23.103-20.013 34.574-6.058 10.277-12.39 20.391-18.514 30.63-8.798 14.707-17.455 29.501-26.3 44.181-4.5 7.466-9.459 14.659-13.893 22.162-6.79 11.489-12.893 23.402-20.043 34.654-8.728 13.734-17.618 27.455-27.645 40.237-5.882 7.499-13.155 15.302-21.55 19.053-8.756 3.91-18.214 7.795-28.682 8.066-15.567.403-31.072 2.826-46.643 3.572-7.475.358-15.026-1.39-22.564-1.777-16.013-.824-32.058-2.184-48.057-1.83-16.673.369-32.075-5.514-48.17-7.844-11.426-1.654-22.55-5.457-33.77-8.45-4.192-1.118-8.513-2.18-12.343-4.122-4.97-2.521-9.509-5.896-14.232-8.903l-3.657-1.597c1.22.532 2.438 1.064 3.655 1.246-.005-1.803-.009-3.253-.366-4.658a25 25 0 0 0-1.677 1.627c.562-.63 1.02-1.172 1.757-1.95.47-.808.507-1.249.542-1.69.063-.326.127-.653.265-.995-.063.315-.054.616.027.89.379-.625.525-1.166.436-1.691q.12-.154.27-.314c3.073-2.704 5.535-5.279 7.998-7.854.235-.337.471-.673.793-1.02q-.36.504-.452.981c.71-.611 1.145-1.192 1.317-1.752q.163-.121.35-.246c1.081-.374 1.531-.678 1.982-.982a111 111 0 0 1 3.285-3.043 48 48 0 0 0-2.937 3.011c2.207-1.794 4.138-3.564 5.775-5.342q.441-.334.906-.67c1.462-.333 2.217-.644 2.973-.955.444-.422.887-.844 1.396-1.24a7 7 0 0 0-1.07 1.213c1.034-.633 1.784-1.243 2.37-2.057q.216-.114.452-.22c1.277-.185 2.045-.577 2.813-.969-.537-4.39 2.587-3.739 5.941-3.887 1.855-.685 2.975-1.265 4.096-1.845 1.121-2.459 2.952-3.766 5.115-4.633-2.079.856-3.824 2.16-4.748 4.61 3.764-1.995 7.167-3.965 10.363-6.2q.184-.044.367-.092c.976-.076 1.44-.378 1.905-.678.78-.807 1.488-1.75 2.262-2.568-.73.812-1.337 1.757-1.89 2.541 5.065-2.637 9.766-5.246 14.264-8.113l.502-.158c1.32-.084 2.096-.382 2.872-.68.784-.807 1.495-1.766 2.271-2.588-.733.816-1.34 1.776-1.896 2.56 5.384-2.661 10.404-5.296 15.228-8.181l.506-.149c1.3-.154 2.072-.525 2.846-.896a31 31 0 0 1 1.906-1.506 10 10 0 0 0-1.574 1.584c1.343-.82 2.41-1.705 3.18-2.611q.255-.145.53-.291c1.105-.08 1.53-.144 1.956-.207.346-1.307.71-2.588 1.607-3.207-.824.614-1.107 1.927-1.267 3.293 1.79-.888 3.241-1.86 4.48-3.104-1.042-.486-1.834-.625-2.441-.517.673-.144 1.558-.025 2.746.47.98-.077 1.443-.38 1.908-.681.83-2.476 2.458-3.566 4.422-4.174-1.876.598-3.414 1.68-4.047 4.146 3.435-1.66 6.5-3.294 9.361-5.183l.389-.08c.968.145 1.402.072 1.836-.002.06-1.183.21-2.267.826-2.881-.539.61-.608 1.704-.5 2.902 1.451-.906 2.577-1.834 3.502-3.03-.835-.313-1.486-.42-1.988-.366.572-.091 1.323-.002 2.316.326 1.302-.147 2.078-.52 2.852-.893 2.037-2.919 4.597-4.92 7.629-6.228-2.947 1.307-5.43 3.333-7.266 6.308 5.13-2.567 9.896-5.215 14.455-8.123q-.498.054-.988.121.648-.096 1.316-.168c1.308-.156 2.08-.528 2.854-.9.092-1.163.212-2.296.828-2.936-.54.64-.579 1.803-.5 3.016 1.455-.892 2.584-1.862 3.51-3.103-.876-.349-1.544-.465-2.05-.405.578-.101 1.352-.007 2.4.358 1.984-.746 3.418-1.717 4.85-2.688.44-.4.908-.798 1.419-1.195-.475.392-.843.78-1.092 1.158 1.102-.69 1.879-1.342 2.299-2.01h.002c.359.015.357.012.357.012.035-2.503-.294-5.294 4.143-4.545.421.125.555-.01.57-.027v-.002c-.157-1.982.548-4.018 1.861-5.713-1.24 1.654-1.875 3.643-1.593 5.541 2.861-3.194 5.456-6.218 7.66-9.25a9.2 9.2 0 0 0-2.6.834 10.4 10.4 0 0 1 2.914-.994c1.828-2.711 2.95-5.272 4.072-7.834.115-2.072.068-4.208.653-6.156-.504 1.91-.375 4.011-.325 6.013 1.784-3.71 3.239-7.278 4.325-10.816q.158-.09.324-.176c.799-1.427.904-2.647 1.01-3.87-.477-.263-1.323-.539-1.526-.794.208.252 1.097.503 1.909.586a208 208 0 0 0-.747-21.611c-.66 7.093-.99 14.001-1.207 20.914.218-6.913.548-13.822 1.176-21.303.014-1.982-.292-3.392-.597-4.803-2.24-.817-3.195-2.336-3.754-4.176.55 1.746 1.498 3.175 3.728 3.801-1.636-3.385-3.247-6.413-4.877-9.062q-.074-.288-.158-.575c-1.316-3.183-2.617-5.59-3.916-7.998-2.906.418-4.152-1.007-5.121-2.904-.48-.94-.93-1.991-1.444-2.996.533.98.951 2.048 1.444 2.996.947 1.823 2.183 3.186 5.088 2.555-2.312-2.41-4.592-4.485-6.85-6.211a11 11 0 0 0-.225-.37c-.715-1.11-1.31-1.587-1.906-2.064-.697-.556-1.393-1.112-2.105-1.76.686.574 1.36 1.054 2.008 1.452-1.283-1.332-2.48-2.396-3.676-3.137a22 22 0 0 1-.379-.44c-.687-.81-1.263-.964-1.84-1.119-3.032.057-6.342.514-6.045-4.595.006-.34.033-.4.04-.409v-.001a43 43 0 0 1-2.536-1.586c.838.554 1.658.984 2.434 1.27-1.37-1.114-2.638-1.91-3.883-2.343.171.144.341.266.512.399-.176-.133-.347-.233-.524-.377-.03-.3-.003-.358.004-.367l.002-.002c-.731-.544-1.464-1.088-2.17-1.733.686.595 1.4 1.073 2.084 1.442-1.1-1.206-2.118-2.128-3.31-2.721l-.12-.145c.115-.458-.129-.591-.129-.591-.37-.224-.74-.447-1.119-.737.345.224.673.386.971.498-.773-.748-1.422-1.298-2.068-1.54a9 9 0 0 1-.297-.364c-1.011-1.156-1.924-1.63-2.836-2.102-.55-.406-1.1-.812-1.66-1.316.546.43 1.09.752 1.62.975-.956-1.042-1.88-1.786-2.808-2.205a13 13 0 0 1-.264-.329c-.333-.787-.612-.955-.89-1.125-.699-.553-1.398-1.106-2.111-1.75.687.57 1.362 1.047 2.011 1.442-1.286-1.33-2.487-2.39-3.69-3.129q-.188-.214-.38-.441c-.682-.813-1.26-.965-1.838-1.118-.658-.448-1.316-.896-2.006-1.664-.025-.26-.017-.317-.013-.33l.002-.002v-.002a38 38 0 0 1-2.45-1.48c.803.51 1.594.905 2.346 1.168-1.37-1.107-2.637-1.9-3.912-2.309.081.07.163.124.244.19-.083-.067-.167-.11-.25-.18.002-.305.016-.37.022-.385v-.004c-.853-.567-1.706-1.136-2.575-1.79a21 21 0 0 0 2.475 1.47c-1.556-1.323-3.027-2.378-4.475-3.137a25 25 0 0 1-.505-.482c-.714-1.11-1.308-1.586-1.903-2.063-2.66-.482-6.069.106-6.045-4.601.006-.336.022-.387.026-.395-3.011-2.421-6.022-4.844-9.026-7.627.006-.293.02-.356.024-.369l.002-.002v-.002c-.977-.44-1.953-.88-2.973-1.654-.036-.272-.021-.337-.014-.352h.002v-.003c-.655-.448-1.31-.896-2-1.66-.025-.24-.021-.307-.017-.325l.002-.006c-4.573.813-6.694-2.637-9.153-5.287 2.456 2.642 4.561 6.044 9.035 4.957-4.793-4.25-9.466-8.172-14.328-11.76-.722 1.456-.665 2.43-.228 3.116-.466-.703-.552-1.707.156-3.221.109-.413-.081-.546-.105-.56l-.002-.003c-.69-.4-1.378-.8-2.08-1.271.664.403 1.307.734 1.912 1.008-1.37-1.06-2.605-1.903-3.807-2.457a18 18 0 0 1-.484-.442c-.714-1.122-1.304-1.604-1.893-2.086a22 22 0 0 1-1.572-1.238 8.3 8.3 0 0 0 1.478.938c-.972-1.026-1.863-1.792-2.754-2.235a15 15 0 0 1-.328-.396c-1.128-1.469-2.13-2.256-3.13-3.043-.274-.022-.485-.148-.922-.653-.454-.305-.62-.336-.786-.367-2.954.016-5.012-1.15-6.716-2.896 1.672 1.667 3.699 2.755 6.591 2.576-3.668-3.079-7.215-5.846-10.74-8.27l-.256-.388c-1.715-1.783-3.276-2.911-4.838-4.04-1.666.133-3.175.062-3.798-1.277.62 1.317 2.12 1.311 3.75.936-1.367-1.446-2.686-2.55-4.02-3.252-.084.978.007 1.703.23 2.23-.223-.532-.32-1.247-.238-2.218.006-.316.023-.386.03-.4l.001-.003v-.002c-2.187.028-4.462.182-5.675-1.257a3.3 3.3 0 0 1-.551-.99c-.268-.72-.394-1.653-.313-2.895.125-.438-.051-.576-.074-.592l-.002-.002a12 12 0 0 1-1.142-.752c.353.23.688.396.994.51-.786-.76-1.447-1.312-2.104-1.55a10 10 0 0 1-.297-.358c-1.36-1.493-2.598-2.299-3.837-3.106-.69-.403-1.379-.808-2.08-1.297.679.417 1.343.742 1.978.979-1.256-1.028-2.427-1.787-3.572-2.244a16 16 0 0 1-.375-.356c-.29-.907-.568-1.07-.93-1.092a10 10 0 0 1-1.092-.832q.543.399 1.053.489c-.642-.732-1.25-1.167-1.832-1.315a9 9 0 0 1-.211-.267c-.396-.732-.68-.894-.965-1.055-2.626 1.481-4.183 1.113-3.986-2.65-.007-.307.034-.377.045-.39l.002-.001c-2.66.196-4.342-.827-5.676-2.395 1.303 1.49 2.956 2.435 5.556 2.079-3.012-2.732-5.909-5.155-8.816-7.221l-.254-.41c-2.697-2.803-5.27-4.914-7.844-7.024a43 43 0 0 1-2.501-1.57c.825.545 1.635.969 2.4 1.252-1.367-1.116-2.632-1.913-3.875-2.348.164.139.326.255.49.383-.168-.13-.334-.224-.504-.363-.027-.28-.008-.35 0-.365l.002-.002.002-.002c-1.62.15-3.065.075-3.715-1.149.645 1.193 2.063 1.199 3.604.828-1.384-1.427-2.657-2.534-3.944-3.244l.002-.008c.017-.403.006-.396.006-.396-.698-.398-1.398-.798-2.107-1.287a11 11 0 0 0 2.01.967c-1.26-1.04-2.437-1.805-3.61-2.24q-.175-.162-.351-.337c-.365-.786-.652-.946-.938-1.107-.67-.398-1.338-.795-2.027-1.281q.996.61 1.933.96c-1.237-1.025-2.395-1.783-3.529-2.245a16 16 0 0 1-.447-.428c-1.726-2.116-3.309-3.568-4.89-5.022-2.637.015-4.707-.744-6.364-2.168 1.632 1.35 3.67 2.027 6.242 1.848-3.37-2.766-6.62-5.213-9.851-7.309l-.106-.267c-.377-.765-.662-.928-.947-1.092-2.176.13-4.24.107-4.319-3.482-.726-.847-1.19-1.188-1.654-1.53a10 10 0 0 1-1.09-.84q.543.404 1.053.497c-.64-.736-1.246-1.172-1.826-1.323a9 9 0 0 1-.21-.27c-.4-.727-.69-.886-.978-1.044l-4.617.545c1.755-.207 3.186-.376 4.518-.864-1.686-1.463-3.272-2.607-4.871-3.353.106 1.644.226 2.89.353 4.215-.127-1.325-.246-2.57-.484-4.526-3.387-3.442-6.849-5.978-9.889-8.945-10.432-10.18-20.722-20.503-31.04-30.799-.676-.674-1.196-1.535-1.675-2.373-4.868-8.509-9.888-16.938-14.506-25.582-3.246-6.078-6.473-12.263-8.76-18.736-4.207-11.911-5.197-24.432-6.294-36.984-1.306-14.935-3.958-29.748-5.742-44.647a1855 1855 0 0 1-5.034-46.883c-1.523-16.195-2.923-32.41-3.949-48.642-1.27-20.11-2.05-40.252-3.16-60.373-.28-5.07-.672-10.179-1.617-15.155-1.479-7.782-3.817-15.405-5.168-23.205-2.138-12.339-9.1-22.295-17.717-30.09-15.156-13.71-31.6-25.917-50.623-34.384-15.148-6.743-29.668-14.892-44.482-22.387-11.43-5.782-22.898-11.485-34.319-17.283a9510 9510 0 0 1-42.105-21.514c-9.594-4.931-19.12-9.995-28.723-14.906-7.32-3.744-14.677-7.423-22.09-10.98-6.388-3.067-12.983-5.714-19.299-8.917-9.606-4.87-18.993-10.174-28.58-15.086s-19.321-9.54-28.963-14.35c-13.275-6.623-26.55-13.251-39.777-19.972-9.881-5.02-19.657-10.25-29.535-15.275-9.153-4.657-18.401-9.122-27.566-13.754-9.655-4.88-19.262-9.856-28.89-14.79-7.016-3.595-14.007-7.244-21.058-10.773-9.025-4.517-18.11-8.912-27.146-13.408-9.93-4.941-19.865-9.88-29.74-14.93-7.296-3.73-14.494-7.65-21.747-11.466-6.538-3.441-13.032-6.971-19.648-10.256-10.042-4.986-20.228-9.69-30.25-14.715-7.208-3.615-14.192-7.675-21.38-11.33-9.18-4.668-18.509-9.043-27.696-13.695-15.08-7.636-30.077-15.431-45.149-23.083-9.86-5.006-19.8-9.857-29.685-14.816-4.868-2.442-9.505-5.48-14.576-7.355-10.278-3.802-20.578-8.01-31.25-10.137-7.181-1.431-14.745-2.177-22.147-1.942m963.889 847.631a3.1 3.1 0 0 0 .55.99c1.184 1.404 3.446 1.175 5.577.936-2.124-1.909-4.147-3.494-6.371-4.717-.094 1.187.001 2.097.244 2.791m700.684-647.47c-.503-.133-.975-.11-1.376.078.723.32 1.324.352 1.887.107a3 3 0 0 0-.512-.185M486.744 322.342c.109 1.477.188 2.585.58 3.6 1.443-1.372 2.575-2.65 3.328-3.946-1.563.105-2.746.227-3.908.346m-24.275 28.18c-1.345.81-1.518 2.458-1.14 4.412 1.777-1.704 3.241-3.307 4.306-4.922-1.436-.111-2.462.085-3.166.51m-46.069 4.744q.058-.048.106-.1c.642-.7.25-2.086.182-3.12-1.236 1.134-2.179 2.177-2.75 3.413 1.304.273 2.05.152 2.462-.193m13.371-96.8c-2.826-1.922-6.105-3.177-9.007-4.462 8.52 5.857 16.867 11.444 25.193 16.678-5.394-4.328-10.663-8.458-16.186-12.215m1708.67-198.245c-1.013-.059-2.103.286-3.287 1.136 2.732 1.028 5.302 1.719 7.82 2.061-1.365-1.88-2.844-3.1-4.533-3.197m34.239 8.713c-1.095.043-2.315.65-3.535 1.421 2.393 1.037 4.635 1.74 6.867 2.063-.725-2.661-1.924-3.54-3.332-3.484m11.79 4.2c-.673.033-1.439.39-2.335 1.184 2.052 1.032 3.973 1.735 5.845 2.098-.989-1.856-2.026-3.353-3.51-3.281m12.442 3.975c-1.572-.017-3.162.09-4.754.252 6.065 2.028 11.967 3.712 17.797 5.063-3.794-4.099-8.328-5.263-13.043-5.315m-125.508 4.864c-1.036 1.021-1.713 2.04-2.095 2.953 1.015-1.056 1.735-2.007 2.095-2.953m144.782.045c-.905-.033-1.911.378-3.043 1.334 2.393 1.025 4.64 1.716 6.834 2.06-1.06-2.053-2.284-3.34-3.791-3.394m-147.813 3.947c-4.372.835-3.741 4.298-4.03 6.94 1.688-2.389 3.042-4.664 4.03-6.94m-4.754 7.045c-1.135 2.002-1.87 4.005-2.267 5.892 1.114-2.042 1.89-3.965 2.267-5.892m-2.959 6.047c-2.261 2.715-6.943 4.36-3.308 8.808 1.444-3.045 2.555-5.95 3.308-8.808M394.654 147.096c-1.018 1.382-1.727 2.657-2.062 3.927 3.507-.123 4.428-1.34 2.062-3.927m1674.352 12.273c-.32 3.54 1.644 3.834 3.912 3.291-1.37-1.446-2.632-2.568-3.912-3.29m3.994 4.02c.068 6.47 5.146 5.51 8.725 6.3-2.911-2.465-5.81-4.589-8.725-6.3m159.031 13.207c2.28 3.785 8.02 4.616 13.787 2.025-4.74-1.04-9.292-1.72-13.787-2.025m-193.037 1.761c1.018 1.447 2.003 2.56 3.006 3.303-1-1.458-2.02-2.547-3.006-3.303m62.379 3.286c.149.06.298.112.447.168-.149-.057-.298-.107-.447-.168m1.4.505c.293.09.586.157.88.227-.294-.07-.587-.135-.88-.227m-41.007 17.881c1.192 1.074 2.228 1.898 3.26 2.35a13 13 0 0 0-3.26-2.35m223.283 3.258c.675.785 1.326 1.24 1.947 1.354-.677-.79-1.324-1.236-1.947-1.354m1.949 2.055c.998 1.459 2.015 2.55 3.002 3.306-1.014-1.447-2-2.561-3.002-3.306m3.004 4.002c2.001 2.064 3.985 4.5 5.998 7.29-1.986-2.07-4-4.494-5.998-7.29m-30.02 19.043c2.358 3.446 4.684 6.536 7.032 9.263.698-4.935-2.534-9.158-7.032-9.263M414.096 246.324c2.122 2.585 4.15 4.846 6.37 6.748-1.247-3.368-2.13-6.931-6.37-6.748m77.922 18c1.005 1.464 2.021 2.558 3.007 3.285-1.02-1.463-2.007-2.558-3.007-3.285m-43.106 6.778c-.927-.018-1.935.183-2.828.246 2.04 1.448 3.963 2.572 5.889 3.302-.193-2.884-1.515-3.519-3.06-3.548m1833.217 8.255c.888 3.141 1.856 5.9 3.102 8.428-.19-3.333 1.304-7.19-3.102-8.428M466.669 294.09c-1.24 1.462-2.174 2.826-2.724 4.385 5.115.814 4.698-1.482 2.725-4.385m1822.017 4.406c.056.258.083.514.07.768-.04.75 0 1.522.066 2.304-.067-.782-.105-1.553-.066-2.304a3 3 0 0 0-.07-.768m-1825.684.266c-2.767 3.207-5.263 6.238-7.406 9.27 4.083-2.149 8.505-3.762 7.406-9.27m1854.049 26.38q-.022.057-.041.112l.04-.111m.389 8.907c-3.662 3.362-5.727 7.186-5.083 11.879 2.024-4.08 3.722-8.016 5.082-11.88M475.632 337.05c-.089.07-.175.148-.264.217.089-.068.175-.148.264-.217m1796.025 7.062c-1.12 1.698-1.914 3.277-2.31 4.864 4.624-.093 4.209-2.278 2.31-4.864m39.791 2.912c-1.041 1.37-1.738 2.69-2.119 3.893 1.031-1.393 1.748-2.667 2.12-3.893m-46.754 8.069c-.442.692-.586 1.288-.431 1.87.442-.664.586-1.315.431-1.87m-1.035 1.98c-1.35 1.727-2.381 3.344-3.043 4.955 3.653-.342 3.442-2.741 3.043-4.955m36.965 7.094c-.978 2.526-6.616 2.594-3.318 6.703 1.43-2.327 2.545-4.537 3.318-6.703m-41.934.932c-1.026 1.378-1.738 2.656-2.08 3.935 3.42-.153 4.359-1.366 2.08-3.935m-1813.007 6.96c-.789 1.027-1.22 2.017-1.348 2.89.772-1.054 1.237-1.99 1.348-2.89m1803.955 8.036c-1.02 1.385-1.722 2.66-2.051 3.93 3.527-.12 4.411-1.357 2.05-3.93m-1861.955 6.996c-.777 1.029-1.24 1.962-1.352 2.863.79-1.008 1.228-1.983 1.352-2.863m1898.79.926c-1.029 1.357-1.735 2.675-2.126 3.88 1.027-1.38 1.737-2.652 2.127-3.88m-7.796 12.04c-1.123 1.688-1.891 3.338-2.332 4.874 1.113-1.714 1.9-3.313 2.332-4.873m-4.264 6.919c-2.635.539-4.587 1.239-2.066 3.933 1.016-1.38 1.717-2.66 2.066-3.933m-1920.727 25.09c-1.02 1.053-1.74 2.007-2.103 2.954 1.04-1.022 1.721-2.038 2.103-2.955m1863.954.038c-1.774 2.705-3.224 5.29-4.317 7.836 2.612-2.23 8.116-2.661 4.317-7.836m37.066 6.934c-.777 1.001-1.226 1.985-1.365 2.867.77-1.03 1.232-1.956 1.365-2.867m-1911.086 6.947c-2.036 2.376-3.717 4.708-5.016 7.04 5.655.18 4.052-4.48 5.016-7.04m-8.951 12.092c-.772 1.042-1.236 1.973-1.348 2.865.787-1.017 1.222-1.996 1.348-2.865m-2.006 3.004c-1.354 1.724-2.392 3.337-3.039 4.95 4.394.079 3.191-2.892 3.04-4.95m1903.785 7.932c-1.024 1.358-1.727 2.674-2.111 3.888 1.024-1.379 1.728-2.654 2.111-3.888m-13.002 21.015c-1.038 1.375-1.733 2.695-2.11 3.903 1.031-1.395 1.742-2.675 2.11-3.903m-1887.748 29c-.773 1.003-1.22 1.991-1.357 2.875.766-1.033 1.227-1.96 1.357-2.875m1856.256 18.348h.002l-.023.027zm-15.295 28.672c-.78 1.026-1.21 2.01-1.326 2.892.77-1.046 1.222-1.99 1.326-2.892m-3.228 4.969c-2.143 1.219-4.547 2.14-2.104 4.87 1.031-1.713 1.733-3.314 2.104-4.87m-9.76 15.992c-.783.994-1.208 1.998-1.322 2.904.768-1.03 1.223-1.963 1.322-2.904M245.645 618.99c-1.79 1.337-3.21 2.693-4.291 4.012 1.779-1.354 3.219-2.675 4.29-4.012M225.655 636c-1.459 1.003-2.548 2.022-3.305 3 1.446-1.02 2.559-2.004 3.304-3m-20.975 17.023c-1.482 1.244-2.595 2.496-3.385 3.76 1.466-1.243 2.61-2.496 3.385-3.76M1459.957 794.64c-.19 3.466 1.875 3.488 3.959 3.048-1.378-1.35-2.666-2.39-3.959-3.048m54.07 46.683c-.214 3.792 1.341 4.162 3.858 2.34-1.356-1.133-2.602-1.926-3.858-2.34m46.207 38.084a.5.5 0 0 0-.185.041c.202.412.413.538.752.309-.169-.249-.374-.355-.567-.35m27.805 24.903c.684.775 1.34 1.222 1.959 1.328-.687-.78-1.337-1.218-1.959-1.328m2.016 2.01c1.01.791 1.986 1.23 2.863 1.357-1.032-.779-1.964-1.243-2.863-1.358m2.943 2.035c2.946 2.082 5.879 4.536 8.916 7.312a93 93 0 0 1-8.916-7.312m9 8.019c-.03 4.716 3.377 4.129 5.928 4.293-2.045-1.774-3.98-3.23-5.928-4.293m17.04 13.938c.683.777 1.341 1.224 1.962 1.33-.688-.783-1.338-1.22-1.963-1.33m24.966 22.06c-.307 5.126 3.003 4.67 5.996 4.258-2.019-1.79-3.999-3.227-5.996-4.258m10.633 96c-2.852.024-2.57 2.426-2.33 4.54 1.58-1.46 2.851-2.83 3.754-4.395a7.5 7.5 0 0 0-1.424-.145m-74.028 40.397c-1.913.69-3.787 1.441-5.601 2.32a56 56 0 0 1 5.601-2.32m-18.521 9.025c-1.759.683-3.479 1.427-5.135 2.291a49 49 0 0 1 5.135-2.291m-28.725 15.176c-2.118.032-3.71.486-3.049 3.775 2.13-1.25 3.913-2.496 5.28-3.758-.76.007-1.524-.028-2.23-.017m403.274 174.029c-2.024 1.369-3.7 2.706-4.967 4.041 3.26.11 6.01.091 4.967-4.041m-11 8.99c-.785.689-1.226 1.341-1.338 1.969.78-.684 1.23-1.345 1.338-1.969m-36.99 31.018c-.796.674-1.248 1.315-1.372 1.933.792-.67 1.253-1.317 1.371-1.933m-287.979 10.137c-2.47.89-4.576 1.86-6.437 3.117 3.52 1.33 6.115 1.031 6.437-3.117m152.594 6.392c.713.073 1.439.303 2.166.545-.73-.249-1.455-.472-2.166-.545m27.398 1.858a1.9 1.9 0 0 0-.658.162c.695.314 1.354.353 1.893.1-.452-.2-.856-.287-1.235-.262m12.373 1.2c3.637 3.371 7.582 4.202 11.793 2.026-4.073-1.031-7.963-1.71-11.793-2.025m-470.072 25.048c-.364 4.118 1.928 5.591 5.049 5.984-1.7-2.355-3.37-4.36-5.05-5.984m5.049 6.697c.727 3.158 1.71 5.655 5.236 4.672-1.85-1.858-3.534-3.454-5.236-4.672m11.98 13.021c1.342 1.786 2.7 3.205 4.018 4.284-1.36-1.776-2.682-3.214-4.018-4.284m159.762 30.815c-.344.237-.43.534-.326.773.423-.214.556-.432.326-.773m-115.777 12.43c.326 4.494 2.536 3.797 4.922 2.025-1.72-1.023-3.322-1.715-4.922-2.025" style="fill:#fff;fill-opacity:1"/></svg>