<svg xmlns="http://www.w3.org/2000/svg" viewBox="0 0 2429 1500" xml:space="preserve"><path fill="#fff" d="M1649.045 1183.094c18.3-17.988 38.443-33.356 58.982-48.004 13.7-9.77 29.054-17.281 43.92-25.337 14.94-8.095 31.618-10.926 47.95-14.717 14.167-3.289 28.287-6.777 42.464-10.017 17.838-4.078 35.727-7.93 53.567-11.998 14.65-3.34 29.236-6.959 43.895-10.26 13.429-3.026 26.965-5.583 40.36-8.747 8.624-2.037 17.066-4.834 25.608-7.223 10.558-2.953 21.194-5.641 31.686-8.81 9.1-2.75 18.03-6.058 27.061-9.038a21794 21794 0 0 1 55.152-18.102c12.085-3.953 24.316-7.505 36.237-11.9 10.352-3.818 20.34-8.613 30.526-12.89 6.242-2.622 12.633-4.9 18.812-7.656a1177 1177 0 0 0 31.101-14.4c12.777-6.151 25.466-12.486 38.154-18.82 19.67-9.821 38.252-21.449 56.648-33.467 11.91-7.782 24.289-14.758 34.11-25.33 5.897-6.348 8.76-14.145 9.61-22.346 1.074-10.351 1.372-20.854 1.047-31.261-.417-13.35-1.698-26.647-5.66-39.584-2.5-8.162-3.95-16.64-6.296-24.855-3.312-11.6-7.234-23.026-10.488-34.64-3.087-11.013-5.466-22.223-8.496-33.253-2.904-10.566-6.298-20.997-9.376-31.516-2.58-8.817-4.917-17.704-7.538-26.508-3.202-10.758-6.803-21.401-9.826-32.208-2.39-8.543-3.974-17.31-6.276-25.881-2.047-7.626-4.726-15.08-6.875-22.681-2.495-8.829-4.635-17.758-7.088-26.599-1.506-5.431-3.524-10.725-4.937-16.178-2.878-11.109-5.256-22.35-8.3-33.412-3.027-11.001-6.617-21.847-10.164-33.426l29.771-7.886c1.294 4.627 2.48 8.973 3.725 13.302 4.486 15.6 8.99 31.193 13.493 46.787 3.652 12.64 7.463 25.237 10.914 37.932 2.108 7.756 3.444 15.72 5.54 23.48 2.007 7.432 4.657 14.687 6.821 22.08 2.482 8.478 4.7 17.034 7.106 25.535 2.187 7.725 4.573 15.394 6.688 23.137 2.534 9.281 4.753 18.65 7.336 27.916 2.072 7.432 4.574 14.743 6.713 22.158 1.56 5.409 2.763 10.92 4.27 16.345 1.197 4.317 2.721 8.544 3.909 12.863 2.424 8.818 4.706 17.675 7.074 26.509.997 3.721 1.995 7.445 3.109 11.133 1.9 6.297 4.159 12.499 5.788 18.863 3.041 11.886 5.453 23.881 7.634 35.988 3.069 17.037 1.914 33.897 2.39 50.832.272 9.683-3 18.731-6.245 27.718-6.485 17.96-20.165 29.587-35.462 39.47-20.19 13.045-40.456 26.028-61.256 38.058-14.924 8.631-30.791 15.628-46.21 23.41-9.559 4.824-18.901 10.114-28.641 14.532-9.622 4.365-19.651 7.821-29.447 11.811-12.788 5.209-25.47 10.678-38.3 15.776-5.945 2.363-12.116 4.168-18.215 6.132a4736 4736 0 0 1-30.3 9.623c-14.39 4.529-28.832 8.898-43.167 13.592-6.819 2.233-13.34 5.389-20.183 7.533-7.819 2.45-15.875 4.132-23.772 6.345-7.874 2.207-15.601 4.975-23.534 6.92-9.54 2.341-19.27 3.895-28.839 6.127-7.188 1.677-14.187 4.174-21.386 5.789-8.97 2.011-18.115 3.253-27.086 5.263-10.675 2.391-21.201 5.444-31.873 7.85-14.15 3.19-28.386 5.997-42.568 9.048-3.927.844-7.791 1.98-11.688 2.966-9.207 2.33-18.391 4.755-27.632 6.944-9.087 2.152-18.397 3.522-27.304 6.233-8.227 2.505-16.287 5.855-24.003 9.674-19.187 9.495-36.733 21.622-53.36 35.046-11.621 9.382-23.536 18.506-34.312 28.799-10.507 10.035-19.716 21.426-29.524 32.194-10.633 11.673-21.323 23.294-31.946 34.976-9.869 10.85-19.64 21.789-29.534 32.615-7.983 8.736-16.212 17.25-24.102 26.068-8.568 9.577-16.84 19.419-25.3 29.095-5.08 5.813-10.237 11.559-15.417 17.283-7.612 8.413-15.4 16.67-22.887 25.193-10.466 11.912-20.306 24.403-31.198 35.903-9.354 9.875-19.162 19.564-29.985 27.722-8.438 6.36-18.465 10.912-28.305 15.022-8.692 3.631-18.037 5.808-27.234 8.053-2.835.693-6.123-.663-9.216-.8-10.808-.48-21.006-3.864-30.947-7.486-7.296-2.658-13.955-7.207-20.657-11.308-5.626-3.444-11.709-6.69-16.171-11.375-10.02-10.522-19.276-21.785-28.612-32.94-5.217-6.235-10.278-12.648-14.866-19.352-7.741-11.313-15.024-22.938-22.548-34.4-9.113-13.88-18.39-27.655-27.39-41.609-11.628-18.027-23.071-36.173-34.555-54.293-6.893-10.876-13.668-21.827-20.574-32.693-5.462-8.593-11.945-16.672-16.356-25.764-6.358-13.102-17.844-20.947-28.392-29.452-11.462-9.24-24.179-17.075-38.067-22.56-13.396-5.29-26.734-10.743-40.258-15.688-11.726-4.287-23.63-8.105-35.541-11.864-10.405-3.283-20.964-6.076-31.387-9.304-10.712-3.317-21.337-6.915-32.01-10.36-12.045-3.89-24.131-7.651-36.142-11.64-15.503-5.148-30.927-10.533-46.425-15.692-14.315-4.766-28.647-9.488-43.042-14.004-9.5-2.98-19.189-5.357-28.676-8.373-9.914-3.152-19.648-6.866-29.535-10.11-9.41-3.088-18.968-5.729-28.365-8.855-10.187-3.388-20.244-7.162-30.396-10.659-3.61-1.243-7.344-2.118-10.997-3.241a2273 2273 0 0 1-21.95-6.851 5376 5376 0 0 1-28.431-9.162c-7.795-2.53-15.573-5.114-23.367-7.648-9.613-3.127-19.237-6.217-28.85-9.342-7.63-2.48-15.242-5.017-22.877-7.48-9.902-3.194-19.824-6.325-29.728-9.513-6.881-2.215-13.726-4.545-20.624-6.707-7.958-2.494-15.994-4.747-23.928-7.312-8.825-2.853-17.536-6.061-26.367-8.895-10.86-3.486-21.832-6.624-32.683-10.137-9.75-3.156-19.377-6.694-29.105-9.923a8033 8033 0 0 0-50.823-16.669c-11.902-3.863-23.933-7.345-35.733-11.492-8.442-2.967-16.546-6.882-24.892-10.14-8.666-3.382-17.487-6.368-26.155-9.746-6.67-2.6-13.177-5.613-19.811-8.309-13.007-5.285-26.198-10.147-39.028-15.829-8.05-3.565-15.578-8.31-23.344-12.517-11.291-6.118-22.748-11.954-33.81-18.462-5.429-3.194-10.233-7.503-15.128-11.54-5.364-4.423-10.58-9.033-15.732-13.704-15.327-13.896-27.046-30.506-34.983-49.494-5.43-12.99-10.387-26.338-13.793-39.966-3.052-12.21-3.659-25.028-5.422-37.566-.495-3.524-1.702-6.996-1.817-10.517-.244-7.484-.17-14.992.142-22.476.168-4.044 1.518-8.049 1.606-12.087.302-13.902 5.897-26.283 10.149-39.17 6.87-20.827 20.38-37.472 32.319-55.179 8.664-12.85 17.1-25.856 25.612-38.808 13.033-19.828 25.99-39.707 39.082-59.496 12.202-18.442 24.583-36.765 36.804-55.193 10.238-15.439 20.358-30.956 30.534-46.435 7.716-11.737 15.48-23.442 23.147-35.21 10.486-16.096 20.852-32.272 31.363-48.352 7.788-11.914 15.776-23.696 23.58-35.599 9.349-14.26 18.593-28.587 27.889-42.882 9.31-14.317 18.509-28.708 27.978-42.92 7.972-11.963 16.008-23.902 24.53-35.474 3.71-5.037 8.598-9.24 13.144-13.622 8.551-8.241 16.753-16.952 26.012-24.322 9.437-7.511 19.658-14.192 30.131-20.198 7.442-4.268 15.703-7.353 23.92-9.943 5.649-1.78 11.83-2.02 17.808-2.572 9.314-.858 18.708-2.335 27.975-1.83 11.304.618 22.524 2.938 33.756 4.672 5.909.913 11.935 1.604 17.605 3.37 7.044 2.192 13.877 5.164 20.61 8.219 7.117 3.229 14.034 6.907 20.996 10.47 8.01 4.101 15.965 8.308 23.96 12.439 8.152 4.212 16.332 8.373 24.486 12.584 9.807 5.065 19.59 10.173 29.398 15.237 6.257 3.23 12.549 6.393 18.807 9.621 8.925 4.605 17.78 9.351 26.766 13.833 9.163 4.57 18.495 8.802 27.671 13.347 15.316 7.584 30.613 15.207 45.832 22.982 19.242 9.83 38.335 19.955 57.614 29.71 13.277 6.718 26.833 12.885 40.13 19.565 8.293 4.167 16.244 9.013 24.518 13.22 9.254 4.706 18.768 8.897 28.045 13.558 16.349 8.215 32.577 16.669 48.905 24.925 12.875 6.51 25.517 13.626 38.834 19.072 11.236 4.595 22.751 9.02 35.408 9.068 9.515.036 19.052 1.963 28.532 1.647 8.696-.29 17.383-2.178 25.974-3.867 10.259-2.016 20.41-4.573 30.61-6.89 10.351-2.352 20.739-4.557 31.042-7.104 5.142-1.27 10.061-3.44 15.203-4.71 9.214-2.276 18.533-4.122 27.782-6.261 4.226-.978 8.387-2.235 12.581-3.35 16.935-4.499 33.84-9.111 50.818-13.44 9.04-2.304 18.238-3.981 27.306-6.181 9.213-2.235 18.326-4.884 27.536-7.135 12.51-3.058 25.1-5.79 37.598-8.892 8.88-2.203 17.646-4.868 26.504-7.168 5.455-1.416 10.991-2.518 16.484-3.79 4.386-1.017 8.786-1.985 13.136-3.138 6.685-1.773 13.319-3.74 20.001-5.526 9.297-2.484 18.57-5.086 27.941-7.251 9.892-2.286 19.98-3.756 29.815-6.247 9.945-2.52 19.67-5.897 29.515-8.818 14.942-4.432 29.937-8.69 44.847-13.225 10.14-3.085 20.127-6.68 30.27-9.757 13.83-4.195 27.762-8.047 41.613-12.175 11.24-3.35 22.374-7.056 33.644-10.298 11.738-3.377 23.608-6.295 35.373-9.581 13.767-3.846 27.491-7.844 41.217-11.835 6.904-2.007 13.771-4.138 20.651-6.226 4.736-1.437 5.71-4.746 4.993-9.748-1.853-12.913-5.873-25.717-4.056-38.908 1.216-8.826 4.634-16.253 12.683-22.128 9.671-7.058 20.027-10.174 31.337-9.876 6.969.184 13.92 2.576 20.796 4.311 7.739 1.952 15.408 4.194 23.06 6.468 8.624 2.562 17.183 5.342 25.796 7.94 3.68 1.111 7.438 1.962 11.14 3.002 9.439 2.652 18.84 5.44 28.304 7.995 9.156 2.471 18.407 4.595 27.553 7.101 9.756 2.673 19.377 5.853 29.168 8.377 10.77 2.776 21.737 4.797 32.489 7.635 8.691 2.295 17.295 5.026 25.748 8.088 9.183 3.326 18.433 6.688 27.146 11.049 16.993 8.505 33.336 18.088 48.917 29.155 10.03 7.124 18.971 15.24 27.97 23.431 4.641 4.226 9.144 8.606 13.819 12.795 11.821 10.593 21.74 22.921 29.926 36.32 6.987 11.439 12.78 23.772 17.705 36.26 5.284 13.403 9.11 27.398 13.254 41.23 4.195 14.007 8.03 28.122 11.967 42.205 3.457 12.365 6.838 24.752 10.43 37.777l32.764-8.504 7.688 28.946-91.951 24.277-7.675-28.949 29.237-7.854c-1.944-7.531-3.731-14.903-5.762-22.207-2.417-8.69-5.119-17.298-7.56-25.98-2.928-10.408-5.534-20.908-8.609-31.27-2.928-9.87-6.472-19.556-9.407-29.423-5.066-17.029-12.244-33.075-23.249-47.029-7.739-9.813-16.07-19.277-25.017-27.993-13.966-13.602-28.299-27.068-45.142-37.03-15.415-9.116-31.398-17.447-47.74-24.761-11.252-5.036-23.434-8.154-35.4-11.395-15.418-4.177-31.103-7.369-46.546-11.46-11.843-3.139-23.441-7.189-35.238-10.513s-23.752-6.087-35.554-9.396c-10.984-3.08-21.8-6.764-32.796-9.8-12.902-3.563-25.826-7.16-38.919-9.885-8.562-1.782-12.896 4.133-11.264 12.78a381 381 0 0 1 4.564 31.396c1.828 17.666-10.997 29.388-23.743 33.484-13.621 4.378-27.459 8.082-41.195 12.105-11.288 3.306-22.524 6.795-33.859 9.931-11.518 3.187-23.176 5.874-34.684 9.098-7.429 2.082-14.664 4.844-22.047 7.102-7.862 2.404-15.822 4.485-23.691 6.867-9.398 2.844-18.732 5.895-28.115 8.787-11.102 3.421-22.235 6.736-33.337 10.157-13.407 4.13-26.764 8.428-40.208 12.433-5.104 1.52-10.414 2.342-15.59 3.636-6.731 1.683-13.433 3.485-20.13 5.299-10.285 2.785-20.503 5.83-30.845 8.38-9.58 2.36-19.316 4.081-28.923 6.337-8.162 1.916-16.214 4.297-24.36 6.285-9.571 2.335-19.214 4.378-28.781 6.727-5.16 1.267-10.19 3.059-15.345 4.349-9.247 2.314-18.581 4.285-27.81 6.666-9.522 2.456-18.928 5.365-28.449 7.827-9.693 2.507-19.49 4.607-29.195 7.072-16.277 4.135-32.484 8.543-48.783 12.587-8.471 2.102-17.135 3.431-25.604 5.544-9.378 2.34-18.576 5.4-27.955 7.74-13.017 3.245-26.138 6.07-39.197 9.15-9.12 2.152-18.149 4.75-27.335 6.56-9.412 1.853-18.922 3.52-28.468 4.283-8.972.717-18.047.203-27.076.13-14.124-.115-27.538-3.626-41.146-7.255-17.609-4.695-32.544-14.537-48.633-22.127-15.612-7.365-30.937-15.345-46.313-23.2-19.339-9.88-38.544-20.022-57.918-29.83-13.53-6.85-27.334-13.157-40.858-20.018-22.79-11.562-45.412-23.457-68.191-35.042-12.323-6.267-24.843-12.145-37.24-18.267-15.741-7.775-31.485-15.544-47.159-23.452a6538 6538 0 0 1-54.538-27.834c-21.192-10.944-42.373-21.913-63.449-33.078-15.365-8.14-31.788-12.665-48.893-14.882-7.81-1.012-15.721-2.07-23.552-1.856-8.273.227-16.571 1.58-24.74 3.083-19.678 3.619-36.214 13.565-50.89 26.718-10.823 9.7-22.07 19.121-31.618 29.993-8.846 10.073-15.87 21.785-23.37 32.992-11.62 17.36-22.994 34.885-34.412 52.378a15614 15614 0 0 0-34.244 52.734c-11.094 17.148-22.105 34.35-33.207 51.493-12.952 20.003-25.856 40.039-38.982 59.928-11.622 17.61-23.573 35.003-35.279 52.56-9.252 13.877-18.339 27.864-27.523 41.788-13.657 20.707-27.311 41.416-41.012 62.094-14.27 21.539-29.26 42.638-42.653 64.707-8.436 13.9-14.77 29.176-16.274 45.79-.934 10.316-2.162 20.698-1.845 31.007.303 9.895 2.063 19.8 3.853 29.579 1.92 10.49 3.63 21.195 7.235 31.153 4.307 11.894 9.873 23.462 16.067 34.513 9.752 17.398 24.702 30.233 40.843 41.368 11.306 7.8 23.493 14.377 35.564 20.994 10.335 5.666 20.89 11.002 31.664 15.771 11.766 5.21 23.915 9.55 35.86 14.364 10.59 4.269 21.066 8.827 31.706 12.964 10.812 4.203 21.738 8.118 32.66 12.03 11.654 4.173 23.317 8.33 35.059 12.246 12.23 4.078 24.575 7.81 36.838 11.79 7.975 2.59 15.866 5.437 23.844 8.013 8.586 2.773 17.25 5.3 25.842 8.053a3476 3476 0 0 1 34.482 11.261c11.154 3.704 22.224 7.668 33.425 11.222 12.594 3.997 25.359 7.46 37.929 11.528 13.03 4.216 25.883 8.976 38.876 13.31 9.026 3.01 18.172 5.66 27.24 8.549 10.42 3.318 20.818 6.709 31.218 10.092 10.102 3.287 20.187 6.623 30.291 9.903 12.406 4.027 24.825 8.016 37.236 12.029 10.267 3.32 20.527 6.657 30.795 9.974 9.65 3.117 19.3 6.236 28.963 9.318 9.205 2.936 18.444 5.767 27.633 8.751 7.974 2.59 15.865 5.439 23.856 7.974 9.826 3.117 19.74 5.958 29.574 9.05 6.454 2.03 12.821 4.335 19.252 6.441 9.785 3.206 19.603 6.31 29.384 9.526 7.962 2.618 15.86 5.433 23.844 7.983 7.668 2.449 15.437 4.58 23.11 7.015 8.573 2.721 17.087 5.63 25.629 8.452 9.625 3.179 19.251 6.35 28.877 9.527 8.264 2.728 16.528 5.46 24.792 8.187 8.87 2.928 17.862 5.532 26.586 8.844 20.608 7.824 41.555 15.085 60.261 27.008 17.454 11.125 33.085 24.639 46.928 40.044 3.745 4.168 6.269 9.445 9.288 14.254 6.617 10.542 13.255 21.074 19.77 31.68 6.595 10.738 12.799 21.724 19.63 32.307 10.016 15.52 20.478 30.754 30.676 46.159 8.853 13.375 17.583 26.832 26.405 40.228 8.554 12.989 17.034 26.029 25.797 38.875 3.34 4.896 7.331 9.355 11.112 13.943 6.272 7.612 12.176 15.598 19.078 22.594 4.694 4.758 10.731 8.237 16.35 12.018a109 109 0 0 0 12.123 7.056c9.584 4.78 19.835 8.761 30.466 6.518 9.798-2.069 19.45-5.795 28.509-10.159 11.09-5.342 20.544-13.524 28.754-22.583 13.485-14.878 26.101-30.54 39.162-45.805 7.054-8.243 14.138-16.467 21.445-24.484 10.952-12.017 22.164-23.798 33.168-35.768 7.231-7.868 14.255-15.926 21.437-23.84a17346 17346 0 0 1 41.26-45.303c14.802-16.194 29.667-32.332 44.465-48.53 4.875-5.336 9.627-10.783 14.795-16.231"/></svg>