<svg xmlns="http://www.w3.org/2000/svg" viewBox="0 0 2437 1500" xml:space="preserve"><path fill="#fff" d="M1108.286 1184.706c-10.403-7.196-19.56-15.507-31.429-19.963-12.432-4.668-24.334-10.73-36.67-15.68-8.035-3.223-16.426-5.561-24.665-8.273-11.444-3.766-22.906-7.475-34.34-11.272-11.122-3.693-22.173-7.606-33.337-11.168-12.396-3.955-24.935-7.469-37.32-11.459-13.147-4.236-26.158-8.892-39.282-13.201-9.295-3.052-18.695-5.78-28.019-8.745-8.272-2.632-16.5-5.407-24.755-8.096a8138 8138 0 0 0-27.419-8.885c-10.076-3.244-20.167-6.44-30.242-9.689-7.475-2.41-14.95-4.825-22.397-7.32-6.678-2.238-13.282-4.705-19.988-6.857-7.785-2.498-15.65-4.743-23.469-7.136-3.073-.941-6.12-1.971-9.168-2.992-12.754-4.268-25.486-8.606-38.261-12.81-14.176-4.665-28.361-9.306-42.597-13.783-12.541-3.944-25.217-7.464-37.725-11.507-13.085-4.23-26.01-8.952-39.064-13.283-9.118-3.025-18.345-5.718-27.503-8.624-8.414-2.67-16.798-5.435-25.201-8.142-9.164-2.952-18.358-5.811-27.492-8.85-7.434-2.472-14.748-5.31-22.208-7.693-9.178-2.933-18.481-5.472-27.677-8.352-8.14-2.55-16.188-5.386-24.309-8-9.457-3.042-18.951-5.971-28.425-8.966-6.736-2.13-13.514-4.14-20.183-6.464-9.648-3.362-19.232-6.91-28.81-10.467-10.644-3.953-21.246-8.017-31.875-12.011-8.12-3.052-16.342-5.85-24.356-9.157-11.068-4.567-21.96-9.562-32.973-14.265-6.747-2.88-13.69-5.324-20.352-8.382a492 492 0 0 1-25.025-12.35c-10.055-5.325-20.098-10.713-29.816-16.617A181 181 0 0 1 111.7 819.94c-7.405-6.029-14.152-12.856-21.363-19.131-8.924-7.767-14.886-17.804-20.531-27.825-6.1-10.829-11.397-22.226-15.838-33.837-3.308-8.65-4.786-18.014-6.909-27.1-1.32-5.651-2.418-11.36-3.44-17.074-.971-5.43-1.75-10.896-2.544-16.356-.726-4.996-2.024-10.024-1.892-15.006.274-10.347 1.151-20.69 2.13-31.002.551-5.802 1.46-11.62 2.837-17.28 1.17-4.812 3.164-9.435 4.934-14.088 2.601-6.84 4.85-13.872 8.123-20.383 3.898-7.753 8.432-15.23 13.2-22.493 10.215-15.562 20.797-30.883 31.157-46.351 12.693-18.952 25.402-37.893 37.936-56.95 11.014-16.747 21.628-33.757 32.73-50.444 9.587-14.407 19.753-28.428 29.394-42.8 6.665-9.936 12.759-20.252 19.306-30.269 12.185-18.642 24.629-37.116 36.749-55.8 10.288-15.86 20.094-32.033 30.439-47.855 11.585-17.718 23.648-35.123 35.286-52.807 6.992-10.625 13.392-21.64 20.374-32.273 10.07-15.333 19.47-31.25 30.954-45.465 9.831-12.17 22.299-22.19 33.4-33.36 10.92-10.988 24.436-18.279 37.194-26.65 1.958-1.284 4.428-1.767 6.612-2.732 10.615-4.689 20.704-9.86 33.125-10.07 8.432-.143 17.048-3.294 25.754-2.424 13.448 1.343 26.895 2.895 40.238 5.016 8.576 1.364 17.239 3.153 25.363 6.121 9.258 3.382 18.044 8.118 26.882 12.571 11.19 5.639 22.206 11.622 33.332 17.388 14.122 7.32 28.232 14.662 42.435 21.82 9.592 4.833 19.365 9.305 29.003 14.048 11.481 5.65 22.96 11.31 34.34 17.16 11.976 6.158 23.739 12.734 35.765 18.79 17.02 8.569 34.275 16.671 51.281 25.267 15.933 8.052 31.602 16.624 47.519 24.71 13.54 6.877 27.328 13.266 40.887 20.106 8.542 4.308 16.737 9.309 25.314 13.539 15.53 7.659 31.31 14.81 46.83 22.487 11.693 5.783 23.064 12.212 34.723 18.066 9.991 5.018 19.841 10.7 30.393 14.11 10.205 3.296 20.472 7.298 31.737 6.897 6.652-.236 13.427 2.08 20.029 1.606 10.499-.752 20.91-2.808 31.337-4.444 6.243-.98 12.481-2.054 18.657-3.383 4.546-.977 8.96-2.55 13.481-3.659 10.163-2.493 20.362-4.834 30.532-7.297 4.38-1.06 8.707-2.332 13.083-3.403 10.485-2.567 21.032-4.893 31.467-7.647 12.589-3.323 25.038-7.181 37.643-10.442 9.515-2.46 19.214-4.204 28.768-6.527 9.375-2.28 18.645-4.995 28.009-7.327 9.4-2.34 18.88-4.365 28.288-6.673 8.292-2.033 16.51-4.369 24.805-6.384 9.536-2.316 19.132-4.384 28.681-6.648 4.065-.964 8.074-2.165 12.113-3.24 16.942-4.509 33.842-9.18 50.846-13.443 8.589-2.153 17.397-3.416 26.042-5.368 4.217-.952 8.23-2.782 12.432-3.832 12.503-3.12 25.047-6.076 37.586-9.048 7.22-1.71 14.457-3.352 21.697-4.981 14.956-3.366 29.933-6.643 44.873-10.079 6.589-1.515 13.085-3.429 19.666-4.981 10.195-2.405 20.458-4.53 30.637-7 13.151-3.194 26.208-6.78 39.381-9.878 10.998-2.587 22.102-4.718 33.16-7.047 6.485-1.366 13.002-2.592 19.445-4.127 5.63-1.342 11.141-3.19 16.774-4.52 6.895-1.63 13.903-2.786 20.788-4.452 9.69-2.345 19.305-4.994 28.963-7.468a662 662 0 0 1 14.07-3.42c8.471-1.973 16.93-4.01 25.44-5.815 13.41-2.845 26.888-5.375 40.272-8.334 5.634-1.246 11.051-3.441 16.657-4.85 5.93-1.489 12-2.415 17.95-3.839 9.565-2.289 19-5.19 28.638-7.079 9.547-1.87 19.249-3.089 28.936-4.073 9.983-1.014 20.037-2.025 30.046-1.906 13.186.155 26.4.965 39.078 5.436 8.446 2.98 17.213 5.116 25.505 8.452 14.95 6.016 29.147 13.514 42.162 23.182 9.621 7.147 19.675 13.713 29.286 20.873 4.648 3.462 8.754 7.659 13.046 11.587 16.761 15.343 33.328 30.832 45.468 50.383 9.306 14.987 17.072 30.645 22.38 47.497 3.27 10.38 6.918 20.647 9.91 31.103 3.32 11.596 5.9 23.402 9.157 35.016 2.246 8.008 5.325 15.78 7.61 23.778 2.48 8.674 4.47 17.488 6.747 26.532l31.377-9.052c2.778 9.49 5.52 18.855 8.422 28.773l-93.925 27.284-8.46-28.752 32.357-9.502c-2.056-8.01-3.936-15.827-6.078-23.571-3.238-11.702-6.608-23.367-10.016-35.02-2.77-9.473-5.737-18.888-8.509-28.36-2.907-9.938-5.191-20.089-8.661-29.82-3.35-9.397-7.286-18.69-11.995-27.476-8.972-16.74-21.097-31.113-34.83-44.254-20.666-19.775-43.155-37.148-67.832-51.504-16.251-9.454-33.638-17.037-52.354-19.617-14.89-2.052-30.13-3.064-45.158-.304-12.904 2.37-25.743 5.118-38.558 7.936-16.14 3.55-32.226 7.346-48.337 11.027-11.53 2.635-23.058 5.277-34.595 7.877-18.024 4.062-36.076 8-54.077 12.163-13.735 3.177-27.401 6.653-41.113 9.936-12.6 3.018-25.22 5.962-37.834 8.927-15.76 3.703-31.512 7.437-47.285 11.08-15.797 3.647-31.603 7.258-47.43 10.772-9.978 2.215-20.042 4.051-29.996 6.366-14.185 3.298-28.276 7.004-42.46 10.308-17.225 4.012-34.547 7.612-51.748 11.722-13.064 3.122-25.997 6.792-39.002 10.165a8246 8246 0 0 1-45.111 11.593c-14.598 3.699-29.195 7.404-43.838 10.914-12.132 2.909-24.38 5.339-36.486 8.345-13.037 3.237-25.935 7.024-38.955 10.331-9.41 2.391-18.942 4.302-28.379 6.593-8.177 1.985-16.284 4.256-24.446 6.307-13.036 3.276-26.094 6.461-39.137 9.712-5.655 1.41-11.282 2.935-16.942 4.323-17.294 4.243-34.607 8.411-51.896 12.676-9.746 2.404-19.399 5.223-29.203 7.355-16.906 3.676-33.917 6.134-51.334 3.715-9.897-1.374-19.998-1.463-29.806-3.24-8.206-1.488-16.453-3.82-24.093-7.135-14.773-6.412-29.239-13.564-43.631-20.808-17.188-8.652-34.104-17.841-51.255-26.569-11.763-5.986-23.77-11.49-35.586-17.377-13.294-6.625-26.498-13.43-39.735-20.172-18.863-9.608-37.7-19.267-56.584-28.833-19.057-9.653-38.169-19.2-57.239-28.828a23644 23644 0 0 1-50.53-25.609c-22.492-11.423-45.002-22.811-67.45-34.32-13.93-7.142-27.645-14.712-41.67-21.658-11.422-5.657-22.81-11.767-34.863-15.66-11.645-3.76-23.707-6.998-36.29-7.051-5.533-.024-11.058-1.623-16.593-1.661-4.689-.033-9.432.925-14.07 1.85-7.578 1.511-15.361 2.608-22.567 5.229-10.94 3.978-21.321 9.384-30.517 16.714-5.127 4.088-10.085 8.388-15.168 12.532-21.289 17.359-37.073 39.133-51.204 62.439-9.184 15.144-19.674 29.492-29.446 44.284-6.897 10.44-13.576 21.025-20.345 31.55-11.136 17.314-22.217 34.664-33.411 51.94-11.215 17.308-22.517 34.558-33.82 51.808-13.538 20.66-27.063 41.33-40.694 61.93-15.158 22.909-30.449 45.73-45.647 68.614-12.5 18.822-24.934 37.689-37.427 56.515-14.452 21.777-29.105 43.422-43.344 65.337-8.362 12.869-14.015 27.266-17.244 42.038-2.817 12.894-3.418 26.52-3.099 39.775.269 11.144 2.88 22.303 5.174 33.306 2.373 11.383 4.763 22.895 8.73 33.774 3.564 9.776 8.852 19.016 14.132 28.053 9.809 16.787 23.981 29.62 39.945 40.249 12.527 8.34 25.538 16.1 38.934 22.944 15.148 7.74 30.862 14.409 46.52 21.1 17.092 7.306 34.286 14.406 51.648 21.042 18.368 7.02 36.97 13.433 55.501 20.02 9.891 3.516 19.811 6.962 29.79 10.22 12.427 4.059 24.957 7.805 37.392 11.842 13.22 4.293 26.346 8.872 39.577 13.129 9.693 3.119 19.53 5.787 29.224 8.9 9.54 3.061 18.95 6.521 28.473 9.634 7.833 2.56 15.789 4.749 23.619 7.319 9.51 3.121 18.919 6.555 28.424 9.693 7.665 2.531 15.427 4.769 23.113 7.237 11.857 3.808 23.69 7.692 35.526 11.563 10.57 3.456 21.121 6.967 31.697 10.403 10.448 3.393 20.92 6.71 31.375 10.082 12.295 3.965 24.582 7.954 36.874 11.93 10.143 3.282 20.27 6.612 30.435 9.824 13.101 4.14 26.262 8.094 39.344 12.295 9.538 3.064 18.95 6.52 28.488 9.581 13.22 4.243 26.521 8.233 39.758 12.424 6.321 2.001 12.575 4.217 18.86 6.333 10.1 3.4 20.173 6.882 30.308 10.174 10.005 3.25 20.081 6.28 30.11 9.456 13.711 4.342 27.448 8.606 41.099 13.128 18.558 6.149 37.03 12.559 55.571 18.76 9.324 3.117 18.856 5.655 28.05 9.104 13.714 5.146 27.413 10.424 40.746 16.466 13.471 6.105 25.68 14.467 37.126 23.865q8.061 6.62 16.004 13.382c9.298 7.915 15.832 17.964 22.142 28.268a4942 4942 0 0 0 38.907 62.461 3346 3346 0 0 0 34.096 52.78c11.667 17.69 24.03 34.932 35.331 52.848 8.573 13.592 17.873 26.499 28.458 38.575 6.208 7.084 11.363 15.109 17.743 22.017 3.557 3.852 8.445 6.655 13.102 9.273 7.166 4.03 14.381 8.24 22.068 11.003 9.076 3.26 18.173 4.949 28.453 1.97 11.752-3.406 22.45-8.22 32.432-14.911 4.128-2.766 8.093-5.994 11.463-9.632 11.976-12.927 23.697-26.093 35.45-39.225a2397 2397 0 0 0 22.89-25.948c7.698-8.854 15.118-17.955 22.972-26.665 5.618-6.229 11.932-11.826 17.609-18.007 6.385-6.952 12.28-14.353 18.609-21.36 9.195-10.179 18.678-20.098 27.872-30.28 9.816-10.87 19.406-21.945 29.16-32.872 4.185-4.689 8.558-9.208 12.805-13.842 10.65-11.619 20.846-23.695 32.04-34.764 10.406-10.29 21.509-19.964 32.955-29.094 13.885-11.077 27.949-22.083 42.872-31.66 13.565-8.703 28.109-16.05 42.764-22.819 7.819-3.61 16.782-4.755 25.239-6.972 10.483-2.749 20.925-5.68 31.478-8.13 17.699-4.112 35.5-7.784 53.204-11.871 14.513-3.35 28.902-7.242 43.432-10.515 13.603-3.063 27.36-5.446 40.972-8.473 10.097-2.245 20.075-5.028 30.1-7.596 10.97-2.81 21.992-5.44 32.882-8.536 8.69-2.47 17.186-5.614 25.818-8.296 12.651-3.932 25.387-7.595 38.011-11.609 9.863-3.135 19.577-6.738 29.423-9.931 9.672-3.137 19.512-5.774 29.122-9.085 8.395-2.892 16.594-6.363 24.843-9.67 17.668-7.085 35.488-13.826 52.908-21.479 13.616-5.981 26.628-13.322 40.075-19.706 23.713-11.258 46.688-23.848 68.701-38.116 12.549-8.133 24.976-16.54 36.802-25.673 8.054-6.221 12.989-15.298 13.953-25.487 1.852-19.569 1.923-39.065-1.416-58.697-2.52-14.823-7.148-28.865-11.286-43.159-4.14-14.297-7.296-28.877-11.324-43.21-4.271-15.195-9.2-30.204-13.577-45.372-3.045-10.554-5.414-21.304-8.496-31.846-3.487-11.924-7.62-23.659-11.114-35.58-2.226-7.594-3.604-15.433-5.719-23.064-2.414-8.713-5.369-17.275-7.826-25.976-3.161-11.198-6.05-22.472-9.077-33.707-5.13-19.044-10.29-38.081-15.41-57.129-1.458-5.429-2.823-10.883-4.297-16.58l29.39-8.52c1.043 2.962 2.264 5.893 3.111 8.928 4.415 15.804 8.737 31.634 13.086 47.457 3.327 12.107 6.6 24.228 9.986 36.319 1.95 6.964 4.12 13.867 6.114 20.82a8730 8730 0 0 1 10.825 38.104c3.75 13.302 7.504 26.603 11.172 39.927 2.69 9.77 5.107 19.615 7.89 29.356 4.42 15.476 9.182 30.855 13.533 46.35 3.086 10.99 5.583 22.144 8.617 33.15 3.118 11.309 6.324 22.606 9.944 33.762 3.726 11.477 4.793 23.404 7.064 35.131 3.36 17.352 1.66 34.716 1.43 52.013-.106 8.05-3.935 16.127-6.514 24.05-4.77 14.65-15.554 24.669-27.55 33.227-13.32 9.502-26.997 18.57-41 27.03-15.555 9.396-31.47 18.242-47.564 26.687-18.905 9.921-38.059 19.39-57.329 28.584-9.51 4.538-19.52 8.027-29.309 11.98-12.24 4.942-24.401 10.093-36.756 14.727-7.651 2.87-15.633 4.844-23.406 7.403-9.765 3.217-19.443 6.7-29.206 9.923-10.385 3.43-20.857 6.596-31.233 10.05-9.568 3.186-18.983 6.846-28.604 9.85-10.585 3.303-21.319 6.13-32.006 9.097-8.05 2.235-16.096 4.497-24.206 6.495-6.894 1.698-13.884 3.006-20.819 4.547-4.234.94-8.445 1.989-12.664 2.999-9.732 2.329-19.436 4.782-29.201 6.964-11.016 2.462-22.124 4.52-33.123 7.053-10.65 2.452-21.164 5.501-31.826 7.896-14.347 3.223-28.812 5.922-43.163 9.127-10.843 2.422-21.606 5.215-32.372 7.97-11.345 2.901-22.496 6.285-33.017 11.657-19.523 9.97-37.422 22.433-54.587 35.875-12.824 10.043-25.486 20.503-36.912 32.07-14.709 14.888-28.05 31.123-42.103 46.666-6.148 6.8-12.749 13.191-18.881 20.005-12.912 14.346-25.6 28.894-38.483 43.266-5.488 6.122-11.334 11.921-16.843 18.025-14.307 15.855-28.51 31.804-42.77 47.702-6.272 6.993-12.709 13.843-18.847 20.951-8.988 10.41-17.469 21.273-26.748 31.41-7.068 7.721-15.238 14.421-22.56 21.926-8.314 8.522-18.417 14.262-28.76 19.732-9.585 5.069-20.08 7.514-30.31 10.804-10.866 3.494-21.395 1.054-31.665-1.322-9.11-2.109-18.07-5.753-26.419-10.036-8.998-4.617-17.636-10.217-25.624-16.427-5.894-4.582-10.724-10.634-15.613-16.383-7.229-8.5-14.352-17.119-21.027-26.055-5.592-7.486-10.483-15.497-15.674-23.281-2.066-3.1-4.094-6.223-6.159-9.323-11.55-17.339-23.223-34.598-34.628-52.032-10.529-16.094-20.76-32.382-31.148-48.567-6.626-10.323-13.42-20.54-19.922-30.938-8.44-13.496-15.934-27.655-25.242-40.51-6.06-8.368-14.621-14.924-22.071-22.283-.694-.686-1.456-1.304-2.442-2.21"/></svg>