<svg xmlns="http://www.w3.org/2000/svg" viewBox="0 0 1886 1000" xml:space="preserve"><path fill="#fff" d="M119.58 829.564c-9.592 14.737-19.37 28.938-28.207 43.7-4.754 7.943-9.592 16.517-11.332 25.405-2.112 10.789-1.311 22.213-1.163 33.354.09 6.845.95 13.743 2.191 20.484.614 3.337 2.223 7.07 4.62 9.284 1.459 1.347 5.92 1.145 7.908-.123 4.686-2.989 8.888-6.832 12.952-10.683 22.06-20.903 44.159-41.769 65.954-62.947 11.325-11.005 22.677-22.095 32.903-34.096 15.73-18.461 31.054-37.33 45.49-56.812 10.125-13.662 19.008-28.334 27.43-43.133 4.94-8.68 8.068-18.425 11.7-27.812 6.298-16.278 12.7-32.53 18.415-49.016 5.57-16.069 10.932-32.26 15.247-48.695 3-11.431 1.684-23.17-1.06-34.82-5.711-24.257-16.822-46.468-25.461-69.612-5.197-13.92-11.193-27.631-15.158-41.9-5.192-18.685-5.388-38.017 1.648-56.25 2.874-7.447 9.553-13.615 15.151-19.774 6.56-7.216 15.089-11.77 24.26-14.96a36.2 36.2 0 0 1 8.488-1.84c14.03-1.295 28.012-1.803 42.071.462 8.919 1.437 18.05 1.533 27.078 2.313 14.747 1.275 29.487 2.615 44.23 3.932 7.7.687 15.447 1.044 23.085 2.152 11.955 1.733 23.976 3.377 35.714 6.144 17.026 4.014 34.263 7.63 50.028 15.737 11.47 5.898 22.49 12.83 29.267 23.964 4.798 7.886 8.222 16.885 10.747 25.815 4.287 15.16 7.686 30.595 10.885 46.033 2.808 13.554 4.72 27.29 7.222 40.91 3.238 17.634 6.082 35.37 10.163 52.814 5.13 21.926 14.078 41.79 32.808 56.175 11.674 8.965 23.422 17.38 37.98 20.736 9.184 2.117 18.475 3.779 27.73 5.575 4 .776 8.036 1.357 12.05 2.058 10.915 1.906 21.803 3.977 32.746 5.704 12.125 1.914 24.31 3.447 36.449 5.28 11.298 1.706 22.558 3.662 33.856 5.374 10.818 1.639 21.68 3 32.49 4.684 8.21 1.28 16.346 3.038 24.56 4.283 7.13 1.081 14.33 1.69 21.487 2.6 8.447 1.073 16.879 2.269 25.323 3.365 7.147.928 14.304 1.775 21.453 2.683 7.971 1.013 15.944 2.02 23.908 3.092 9.405 1.265 18.809 2.54 28.198 3.913 12.77 1.868 25.528 3.827 38.289 5.76 11.473 1.738 22.97 3.34 34.41 5.277 14.802 2.504 29.596 5.086 44.32 8.005 10.975 2.176 21.82 5.005 32.748 7.423a2728 2728 0 0 0 34.874 7.469c12.892 2.676 25.795 5.3 38.716 7.826 16.001 3.129 32.056 5.988 48.03 9.246 9.203 1.877 18.33 4.17 27.425 6.53 13.035 3.384 26.121 6.64 38.985 10.603 18.711 5.765 37.436 11.589 55.805 18.34 24.736 9.092 49.2 18.938 73.666 28.749 18.05 7.238 35.841 15.123 53.888 22.372 15.162 6.09 30.628 11.426 45.77 17.565 12.414 5.033 24.497 10.875 36.82 16.142 12.608 5.388 25.337 10.495 37.999 15.758 8.81 3.661 17.519 7.579 26.413 11.02 13.266 5.134 26.48 10.512 40.047 14.726 11.276 3.502 22.918 6.59 34.606 7.737 7.834.77 16.022-2.242 24.07-3.438 12.596-1.874 22.866-8.903 33.604-14.932 16.616-9.33 26.877-23.905 33.896-41.1 7.441-18.232 7.7-36.718.278-54.897-4.416-10.814-13.43-17.723-23.398-23.374-23.83-13.512-47.667-27.01-71.434-40.632a5870 5870 0 0 1-54.68-31.735c-27.716-16.284-55.496-32.465-82.992-49.115-20.984-12.708-41.406-26.345-62.385-39.063-16.834-10.206-31.345-23.283-45.849-36.274a968 968 0 0 1-48.91-46.977c-18.033-18.589-34.404-38.647-49.858-59.497-13.362-18.03-28.062-35.061-41.663-52.92-14.172-18.609-33.521-28.686-55.048-35.936-16.642-5.605-33.631-8.49-51.094-7.764-9.141.38-18.257 1.916-27.328 3.294-16.708 2.537-31.548 10.426-46.846 16.92-18.193 7.723-36.251 15.76-54.38 23.635-22.273 9.677-44.534 19.387-66.847 28.972-25.161 10.81-50.411 21.412-75.549 32.276-11.289 4.879-22.263 10.503-33.631 15.178a309 309 0 0 1-29.66 10.481c-10.587 3.137-21.397 5.566-32.19 7.928-4.153.91-8.544 1.186-12.806 1.058-16.047-.48-32.353.32-48.054-2.349-15.374-2.613-30.172-8.732-45.144-13.558-16.97-5.47-32.21-14.56-47.223-23.86-15.771-9.769-30.998-20.188-42.715-35.226-8.919-11.45-19.436-21.647-29.15-32.485-16.58-18.503-33.068-37.088-49.636-55.603-6.722-7.511-13.566-14.914-20.328-22.39-15.85-17.522-32.054-34.746-47.346-52.743-6.106-7.186-12.945-14.085-15.743-23.935-2.778-9.78-4.947-19.338-2.778-29.43.473-2.201 1.14-4.455 2.21-6.416 5.382-9.876 12.712-18.187 21.263-25.412 9.28-7.843 18.834-15.369 27.977-23.365 5.49-4.802 10.625-10.055 15.557-15.438 5.963-6.509 7.807-15.035 8.743-23.288 1.03-9.084 1.008-18.46 0-27.547-.777-6.99-3.256-13.68-8.992-19.073-14.152-13.3-31.091-22.189-47.603-31.864-10.806-6.332-21.26-13.266-31.842-19.977-16.062-10.186-32.243-20.4-51.172-24.165-12.979-2.581-26.107-4.23-39.568-1.05-8.397 1.985-17.353 1.535-26.038 2.39-11.921 1.173-23.818 2.589-35.733 3.826-10.31 1.07-20.664 1.787-30.94 3.11-13.282 1.709-26.604 3.367-39.728 5.962-14.164 2.8-28.21 6.323-42.144 10.132-18.466 5.048-36.336 11.556-53.49 20.408-15.997 8.257-31.035 17.858-45.31 28.589-9.725 7.311-18.713 15.75-27.274 24.43-14.497 14.7-25.51 32.014-34.49 50.51-5.698 11.74-10.823 23.801-15.458 36.002-4.177 10.996-7.574 22.31-10.832 33.621-1.39 4.824-1.655 9.99-2.241 15.022-.779 6.683-1.541 13.377-2.004 20.087-.808 11.699-2.156 23.438-1.79 35.115.26 8.32 2.315 16.754 4.699 24.803 4.928 16.643 10.726 33.027 15.946 49.586 3.893 12.352 7.383 24.83 11.155 37.22 3.731 12.257 7.49 24.508 11.472 36.685.892 2.73.014 3.447-2.316 4.183-6.645 2.098-13.224 4.403-20.535 6.864-1.86-6.094-3.65-12.04-5.49-17.97-3.419-11.017-6.913-22.012-10.293-33.042-4.604-15.026-9.018-30.112-13.732-45.103-2.722-8.653-6.195-17.077-8.75-25.775-3.028-10.304-6.424-20.664-7.787-31.241-1.058-8.214.744-16.8 1.304-25.217.405-6.097.577-12.226 1.348-18.278 1.82-14.299 2.635-28.9 6.263-42.75 4.537-17.32 11.363-34.054 17.421-50.962 9.664-26.973 25.757-50.269 43.12-72.61 6.053-7.788 14.638-13.593 21.976-20.403 12.843-11.92 27.212-21.808 42.062-30.936 9.356-5.751 19.52-10.171 29.002-15.733 13.816-8.103 29.25-11.54 44.332-15.851 16.404-4.689 32.991-8.865 49.686-12.37 11.35-2.384 23.02-3.239 34.55-4.758 9.742-1.284 19.475-2.665 29.238-3.77 8.183-.928 16.414-1.42 24.606-2.284 11.266-1.188 22.486-3.176 33.776-3.68 15.536-.693 31.12-.218 46.68-.43 15.885-.217 29.973 6.335 43.863 12.495 11.068 4.908 21.052 12.262 31.511 18.541 17.44 10.47 35.222 20.422 52.201 31.594 13.422 8.831 28.084 16.781 36.538 31.303 5.262 9.038 7.943 19.308 8.722 29.741 1.403 18.782-.722 37.37-9.152 54.277-4.055 8.132-10.784 15.27-17.434 21.684-8.85 8.534-18.836 15.885-28.27 23.82-5.04 4.24-9.884 8.71-14.929 12.943-5.912 4.96-8.732 17.522-6.188 24.82 3.238 9.288 9.874 16.142 16.065 23.153 19.342 21.905 39.173 43.377 58.755 65.07 14.518 16.081 28.97 32.221 43.405 48.378 15.953 17.858 31.32 36.284 48.006 53.426 7.985 8.203 18.11 14.5 27.823 20.803 18.758 12.175 38.854 21.98 60.094 28.868 12.973 4.207 26.374 7.637 40.352 7.356 11.722-.237 23.488.49 35.167-.263 7.04-.454 13.985-2.78 20.913-4.507 25.362-6.32 48.658-17.971 72.486-28.25 17.107-7.379 34.247-14.683 51.355-22.062 19.647-8.474 39.27-17.002 58.91-25.49 15.046-6.503 30.128-12.922 45.146-19.488 12.299-5.377 24.415-11.188 36.816-16.312 13.434-5.551 27.263-10.158 40.624-15.87 11.177-4.778 23.007-4.395 34.613-5.85 5.234-.656 10.545-.77 15.826-.969 14.41-.543 28.517 1.614 42.515 4.822 17.891 4.1 34.001 12.547 50.161 20.758 4.22 2.144 7.65 5.922 11.28 9.133 15.101 13.36 26.607 29.797 38.867 45.59 10.856 13.986 21.418 28.222 32.743 41.82 13.491 16.2 27.577 31.909 41.553 47.699 16.342 18.461 35.262 34.16 53.81 50.296 18.301 15.92 38.32 29.357 58.81 42.082 24.465 15.194 49.39 29.648 74.149 44.369 14.857 8.834 29.736 17.634 44.674 26.329 19.362 11.27 38.786 22.433 58.197 33.618 15.675 9.032 31.36 18.05 47.064 27.032 7.718 4.415 15.656 8.468 23.203 13.155 13.869 8.613 25.595 19.22 29.936 35.825 2.337 8.938 5.91 17.907 6.166 26.94.277 9.78.603 20.033-3.441 29.592-3.78 8.934-6.76 18.222-10.822 27.018-7.732 16.746-20.79 28.73-36.012 38.641-12.051 7.847-25.051 13.798-38.543 18.474-6.243 2.164-13.17 2.34-19.78 3.462-14.098 2.391-27.81-1.075-41.543-3.127-6.652-.994-13.085-3.75-19.484-6.074-13.129-4.767-26.29-9.483-39.211-14.772-14.249-5.831-28.219-12.34-42.357-18.444-13.688-5.91-27.357-11.873-41.171-17.477-33.506-13.593-67.067-27.052-100.653-40.448-26.832-10.702-53.647-21.457-80.636-31.752-16.515-6.3-33.156-12.4-50.076-17.472-23.168-6.944-46.564-13.195-70.044-19.009-12.007-2.973-24.457-4.112-36.624-6.501-16.63-3.266-33.17-6.988-49.77-10.41-11.006-2.269-22.08-4.22-33.071-6.56-11.636-2.477-23.174-5.416-34.82-7.836-9.266-1.926-18.642-3.315-27.948-5.05-11.383-2.121-22.715-4.535-34.126-6.486-10.169-1.739-20.42-2.994-30.627-4.513-5.985-.892-11.953-1.895-17.932-2.825-6.784-1.055-13.554-2.227-20.362-3.092-12.22-1.554-24.47-2.888-36.7-4.367-18.468-2.235-36.968-4.249-55.383-6.859-15.69-2.224-31.257-5.304-46.92-7.73-12.483-1.933-25.043-3.36-37.545-5.18-11.015-1.603-21.99-3.48-32.994-5.163-10.836-1.656-21.7-3.126-32.526-4.847-10.65-1.694-21.27-3.582-31.897-5.42-10.457-1.807-20.953-3.438-31.342-5.578-5.529-1.14-10.842-3.29-16.3-4.813-16.379-4.574-29.04-15.037-41.691-25.71-9.412-7.94-17.502-17.013-23.375-27.672-8.028-14.57-13.152-30.345-16.4-46.693-1.907-9.591-4.026-19.142-5.798-28.757-2.516-13.66-4.738-27.376-7.207-41.046-1.536-8.506-3.33-16.966-4.943-25.459-1.764-9.289-3.36-18.61-5.192-27.886-4.868-24.645-18.955-41.04-43.46-47.77-14.111-3.876-28.181-8.124-42.526-10.863-13.97-2.667-28.244-3.85-42.426-5.269-15.908-1.591-31.863-2.708-47.797-4.044-13.135-1.101-26.26-2.963-39.404-3.103-10.682-.113-22.073-2.37-31.967 3.325-10.453 6.018-18.636 14.218-20.686 27.113-1.982 12.468-.905 24.758 2.384 36.677 2.479 8.982 6.781 17.455 10.176 26.192 7.938 20.432 15.39 41.064 23.868 61.268 5.886 14.03 7.476 28.616 8.772 43.448.957 10.95-1.306 21.469-4.465 31.643-6.641 21.387-13.69 42.67-21.379 63.702-6.97 19.07-14.008 38.235-22.85 56.469-9.798 20.208-22.302 38.955-36.175 56.785-13.243 17.02-26.052 34.355-41.037 49.935-13.82 14.369-27.16 29.226-41.437 43.123-22.478 21.88-45.399 43.314-68.472 64.569-9.698 8.934-21.4 13.283-34.762 9.828-9.25-2.393-15.234-9.157-18.281-17.694-3.372-9.444-5.98-19.284-7.665-29.165-1.19-6.969-.098-14.302-.356-21.46-.596-16.48 1.292-32.403 9.955-46.874 8.52-14.233 16.7-28.697 25.832-42.53 13.527-20.494 27.72-40.55 41.723-60.727 3.916-5.642 8.546-10.814 12.174-16.623 6.827-10.933 8.196-22.99 5.145-35.365-4.361-17.688-8.835-35.361-13.834-52.878-4.365-15.295-9.637-30.328-14.29-45.544-3.743-12.236-7.05-24.605-10.758-36.853-2.492-8.23-5.345-16.35-8.125-24.79l-23.68 8.114-8.296-23.558 72.92-25.347 8.29 23.555-25.274 8.91c2.532 8.472 4.948 16.813 7.523 25.105 3.414 10.997 7.05 21.925 10.414 32.936 4.541 14.866 9.073 29.74 13.315 44.693 4.155 14.646 8.193 29.337 11.806 44.124 2.624 10.736 5.495 21.582 6.35 32.527.712 9.1-1.353 18.263-5.024 27.095-5.165 12.43-14.153 22.153-21.435 33.069-9.14 13.699-18.643 27.155-28.197 41.018"/></svg>