<svg viewBox="0 0 1912 1174" xml:space="preserve" xmlns="http://www.w3.org/2000/svg"><path d="M1614.658 18.613c-2.278.027-4.44.353-6.318 1.174-10.91 4.77-18.709 13.804-19.092 26.322-.482 15.734.1 31.53.926 47.264.832 15.882 2.376 31.735 3.94 47.568.386 3.928 1.311 8.161 3.263 11.51 5.609 9.618 11.83 18.882 17.887 28.237 7.888 12.18 15.66 24.442 23.834 36.43 7.076 10.376 13.319 21.077 18.545 32.573 4.957 10.904 4.409 21.905 2.95 32.868-1.373 10.339-8.134 18.704-13.902 27.062-7.103 10.291-16.722 18.365-27.496 24.563-8.68 4.994-18.109 8.696-27.257 12.859-5.365 2.44-10.66 5.281-16.293 6.816-6.536 1.781-13.392 2.45-20.141 3.381-9.837 1.357-19.68 3.323-29.56 3.598-20.148.559-40.323.134-60.487.193-2.715.008-5.43.68-8.143.664-3.76-.022-7.538-.747-11.277-.556-8.182.418-16.339 1.719-24.514 1.783-29.66.234-59.324.106-88.986.117-4.666.002-9.346-.204-13.996.078-7.66.466-15.291 1.647-22.951 1.83-22.585.537-45.176.776-67.766 1.04-10.178.118-20.367-.23-30.537.07-15.175.449-30.338 1.299-45.508 1.95-15.845.682-31.69 1.328-47.537 1.993-15.844.664-31.685 1.361-47.531 1.99-17.84.708-35.683 1.366-53.525 2.024-9.603.355-19.211.572-28.81 1.015-12.352.572-24.69 1.562-37.048 1.912-17.31.49-34.597.027-51.93 1.801-16.892 1.728-33.96.386-51.03 1.871-25.049 2.18-50.322 1.727-75.499 2.461-6.597.193-13.19.57-19.78.963-10.175.61-20.339 1.51-30.52 1.9-6.75.26-12.555-3.127-13.395-7.625-1.07-5.713-1.61-11.524-2.38-17.294-.109-.658-.219-1.316-.276-2.04a8.5 8.5 0 0 0 .365 1.641c.03-1.437-.024-2.498-.381-3.482q.015-.253.043-.52c.35-2.873.302-5.236.254-7.6-.367-.181-1.007-.369-1.194-.548.19.17.84.294 1.282.086.028-8.05-.028-15.652-.451-23.139l.056-.752c.405-2.578.358-4.611.309-6.646-.13-.743-.193-1.643-.317-2.4a40 40 0 0 0 .403 2.028c-.211-2.805-.51-5.24-1.106-7.416l.014.14c-.012-.174-.05-.287-.06-.464.282-1.014.318-1.447.353-1.879-.074-.821-.07-1.86-.131-2.716.11.875.261 1.725.484 2.537.118-2.413-.118-4.645-.648-6.627-.018.454.027.858.03 1.295-.014-.612-.094-1.038-.083-1.717.275-2.373.307-4.074.34-5.774-.085-1.331-.082-2.884-.148-4.263.114 1.391.265 2.755.517 4.062h.002c.122-3.418-.125-6.636-.676-9.582-.02.713.03 1.368.036 2.059-.014-.846-.097-1.514-.084-2.424a15.4 15.4 0 0 0 .351-2.852c-.074-.825-.07-1.86-.13-2.72a18 18 0 0 0 .486 2.54c.117-2.41-.12-4.64-.653-6.62-.017.429.028.81.03 1.224-.012-.578-.09-.983-.079-1.619.28-1.698.313-2.75.346-3.805 0-1.482 0-2.965.12-4.574a19.8 19.8 0 0 0 .245 4.381c.358-2.39.358-4.59.004-6.695q.03-.212.065-.426c.382-1.206.333-1.95.281-2.693-1.78-1.28-2.22-2.683-1.969-4.233-.242 1.44.215 2.745 2.055 3.791.03-2.824-.025-5.21-.442-7.494-.743 1.248-1.39 2.474-1.603 3.617.224-1.254.893-2.605 1.678-4.064.385-3.571.335-6.593.285-9.617-.112-.67-.224-1.34-.281-2.063.077.63.212 1.2.369 1.664.029-1.43-.025-2.488-.377-3.469q.015-.206.037-.42c.35-.836.302-1.274.254-1.714-1.488-1.023-2.05-2.142-1.977-3.377-.05 1.135.535 2.143 2.065 2.943.03-2.488-.028-4.544-.442-6.504-.741.99-1.292 1.954-1.515 2.852.232-.985.806-2.04 1.59-3.176.382-.86.333-1.298.283-1.738-1.706-1.884-2.205-3.844-2.06-5.897-.122 1.95.4 3.792 2.144 5.442.028-4.163-.027-7.87-.46-11.467-.54 1.366-1.052 2.72-1.37 4.04.33-1.41.869-2.864 1.445-4.366.397-.874.345-1.311.295-1.75-.257-.74-.515-1.481-.72-2.35a7.7 7.7 0 0 0 .802 1.978c-.21-1.47-.505-2.57-1.072-3.47l.021.197q-.04-.273-.072-.564a16.4 16.4 0 0 0 .318-2.786c-.16-.588-.323-1.174-.293-2.347-.148-8.173-.474-15.76-.843-23.346-.038-.802-.342-1.589-.489-2.389-1.49-8.107-2.729-16.27-4.535-24.306-1.396-6.214-2.817-12.58-5.437-18.326-4.312-9.453-8.963-18.88-14.66-27.536-5.85-8.885-12.1-18.02-20.046-24.877-9.528-8.22-19.67-15.92-31.888-20.845-16.642-6.711-32.766-14.396-50.77-17.192-12.063-1.872-23.795-4.77-36.308-3.043-10.275 1.42-20.844.584-31.246 1.28-11.616.776-21.466 6.917-24.55 19.148-.62 2.458-1.129 5.032-2.277 7.248-1.392 2.688-3.022 5.61-7.056 4.547-2.796-.736-5.603-1.47-8.442-2.006-6.344-1.194-12.744-2.099-19.06-3.422-8.161-1.71-16.204-4.037-24.404-5.507-9.58-1.718-19.514-1.912-28.85-4.422-8.115-2.182-15.813-2.842-24.078-1.787-10.458 1.336-18.505 11.334-19.613 19.628-1.52 11.388-1.787 22.98-1.997 34.497-.177 9.742.778 19.501.721 29.251-.119 20.427-.77 40.852-.824 61.278-.037 13.914.642 27.829.84 41.746.058 4.069-.607 8.146-.627 12.22-.018 3.442.663 6.888.597 10.325-.13 6.77-.97 13.546-.783 20.299.314 11.362 1.26 22.702 1.828 34.058.437 8.753.73 17.516 1.034 26.276.689 19.885 1.685 39.768 1.92 59.66.257 21.792 1.052 43.654-2.94 65.27-1.694 9.171-2.823 18.534-5.539 27.404-2.124 6.937-5.836 13.531-9.684 19.757-4.446 7.194-9.769 13.851-14.793 20.68-7.66 10.412-17.277 18.682-28.535 24.92-9.754 5.404-19.57 10.767-29.707 15.387-8.244 3.758-16.972 6.474-25.543 9.488-7.234 2.543-14.604 4.699-21.814 7.303-7.613 2.749-15.133 5.767-22.649 8.777-7.109 2.848-14.2 5.745-21.224 8.795-5.107 2.22-10.194 4.532-15.104 7.15-7.815 4.166-15.752 8.204-23.115 13.084-5.919 3.924-10.774 9.43-16.613 13.5-12.808 8.927-22.61 20.733-31.617 33.096-4.716 6.471-7.582 14.331-11.002 21.695-3.201 6.896-6.418 13.827-8.934 20.987-3.965 11.28-7.376 22.758-10.969 34.168-1.775 5.637-3.665 11.252-5.076 16.982-1.386 5.626-2.05 11.426-3.36 17.074-1.733 7.481-3.911 14.86-5.665 22.336-1.62 6.901-3.003 13.86-4.36 20.819-1.014 5.2-3.793 10.239-.763 15.797 1.435 2.632 2.44 5.735 2.72 8.712.866 9.18 8.275 13.054 14.713 16.268 6.554 3.272 14.475 4.764 21.895 5.148 15.789.818 29.764 6.741 43.4 13.674 13.055 6.637 25.653 14.167 38.528 21.164a1132 1132 0 0 0 27.384 14.371c8.378 4.26 16.972 8.105 25.29 12.477 8.857 4.657 17.52 9.685 26.236 14.61 11.186 6.32 22.266 12.832 33.529 19.01 9.55 5.238 19.286 10.144 28.963 15.152 14.516 7.51 29.016 15.052 43.592 22.447 11.727 5.95 23.47 11.879 35.357 17.496 16.72 7.9 33.543 15.585 50.393 23.205 9.71 4.39 19.526 8.556 29.363 12.658 7.335 3.06 14.753 5.926 22.19 8.735 4.946 1.869 9.963 3.563 14.994 5.195 7.41 2.404 14.855 4.703 22.298 7.008 11.927 3.692 23.78 7.664 35.825 10.927 9.617 2.606 19.52 4.131 29.209 6.5 10.862 2.655 21.588 5.86 32.437 8.57 13.852 3.463 27.78 6.617 41.648 10.016 4.802 1.176 9.478 2.88 14.293 3.985 4.405 1.01 9.04 1.125 13.362 2.365 7.947 2.28 15.736 5.1 24.191 4.7.648-.03 1.312.133 1.96.251 6.82 1.245 13.596 2.825 20.464 3.674 10.391 1.283 20.899 1.674 31.258 3.144 14.437 2.05 28.835 4.174 43.465 3.934.667-.011 1.338-.034 2 .031 13.345 1.314 26.67 2.91 40.04 3.877 10.398.752 20.848.896 31.278.998a2592 2592 0 0 0 49.02.034c21.596-.197 43.187-.719 64.783-.905 18.33-.159 36.662-.017 54.994-.049 26.659-.045 53.318-.126 79.978-.191.692-.24 1.383-.48 2.198-.678-.714.2-1.336.467-1.83.764 1.465-.21 2.565-.503 3.463-1.068q.228-.03.472-.055c5.006.257 9.348.29 13.69.322.555-.11 1.174-.2 1.884-.258-.653.06-1.238.24-1.761.569 1.058.102 1.994-.105 2.75-.578-.17-.014-.329-.01-.49-.01.314-.014.568-.049.953-.04 15.573-.11 30.502-.53 45.433-.702 4.58-.053 9.168.872 13.748.822 8.577-.093 17.149-.8 25.725-.846 31.255-.167 62.51-.166 93.765-.228.726-.52 1.452-1.434 2.176-1.655-.718.222-1.392 1.145-1.713 1.743 4.558.091 8.66.218 12.75.066a90 90 0 0 0 11.547-1.193 376 376 0 0 0-22.273-.665c7.33.006 14.658.209 22.738.612 14.344-.066 27.938-.638 41.535-.668 51.493-.115 102.988-.053 154.48-.063 6.536-.002 13.081.203 19.6-.127 6.69-.338 13.349-1.723 20.028-1.777 59.078-.47 118.159-.69 177.238-1.113 18.59-.133 37.198-.274 55.762-1.166 9.247-.444 17.67-2.962 21.707-13.483 2.592-6.754 3.866-13.319 3.4-20.32-.899-13.546 7.067-21.46 17.44-27.826 4.188-2.57 8.869-4.175 12.125-8.324 5.875-7.486 9.484-15.655 9.431-25.272-.32-58.254-.71-116.507-.94-174.762-.136-34.662-.02-69.324-.019-103.986.001-5.18-.111-10.366.047-15.54.17-5.602.886-11.196.842-16.79-.071-9.091-.862-18.18-.817-27.268.08-16.076.761-32.147.807-48.222.032-11.582-.745-23.163-.84-34.748-.418-50.583-.348-101.174-1.181-151.75-.63-38.25 3.017-76.625-2.887-114.735-.854-5.519-1.674-11.138-3.432-16.402-2.769-8.292-5.727-16.625-9.687-24.389-5.23-10.252-10.905-20.388-17.471-29.82-9.647-13.858-20.33-26.99-30.424-40.543-8.297-11.14-16.316-22.484-24.576-33.652-4.048-5.473-8.362-10.75-12.713-16.317 4.653-3.568 9.089-6.75 13.219-10.289 1.008-.863 1.887-3.487 1.34-4.287-3.233-4.726-6.906-9.153-10.494-13.763l-52.823 40.56 12.346 15.8 16.256-12.472c1.724 2.09 3.178 3.743 4.51 5.488 4.656 6.1 9.268 12.23 13.898 18.35a25 25 0 0 1 1.375 1.64c-.451-.581-.902-1.026-1.336-1.314.697 1.112 1.356 1.898 2.031 2.32-.115-.19-.231-.357-.347-.527.121.174.243.311.365.504 0 .297-.038.357-.047.367l-.002.002c.372.417.743.835 1.12 1.348q-.555-.66-1.096-1.02v.002c.639 1.047 1.255 1.806 1.884 2.25q.086.154.172.319a3.8 3.8 0 0 0 .19 1.037c.8.738 1.6 1.478 2.402 2.31a23 23 0 0 0-2.422-1.98c1.396 1.619 2.809 2.976 4.229 4.045q.281.358.564.744c7.16 10.74 14.194 20.823 21.46 30.74 9.618 13.132 20.31 25.581 28.845 39.373 6.31 10.201 11.703 21.682 14.281 33.307 3.443 15.522 4.982 31.72 5.182 47.654.466 37.233-.427 74.482-.602 111.725-.044 9.26.779 18.524.805 27.787.1 35.473.067 70.947-.006 106.42-.008 3.582-.942 7.165-.89 10.74.096 6.749.856 13.492.884 20.238.15 35.97.16 71.939.217 107.909 1.825 1.302 2.256 2.734 1.975 4.312-.223 1.246-.889 2.585-1.668 4.021-.382 1.553-.339 2.608-.293 3.665 1.58 1.091 2.105 2.295 1.941 3.644.153-1.244-.39-2.349-2.031-3.21-.03 2.493.03 4.553.447 6.515.595-.803 1.068-1.586 1.344-2.332-.282.856-.763 1.764-1.41 2.742-.378 1.885-.335 3.263-.29 4.64.117.84.233 1.678.293 2.585a14.4 14.4 0 0 0-.382-2.17c-.03 1.771.025 3.15.396 4.443q-.015.252-.037.516c-.363 1.87-.318 3.248-.272 4.627.521 1.032 1.433 2.065 1.657 3.1-.225-1.029-1.147-2.01-1.746-2.638-.031 25.503.028 50.543.466 75.467.54-.86 1.033-1.654 1.249-2.433-.218.8-.725 1.673-1.317 2.843-.4 1.903-.352 3.282-.306 4.66.458 3.497.919 6.993 1.119 11.159-.287 1.732-.316 2.793-.344 3.853.303.518.854 1.037.92 1.553-.067-.515-.642-1.022-1.303-1.342-.433 11.076-.498 21.94-.492 32.807 0 .669.57 1.337 1.182 1.72.427-11.216.56-22.15.62-33.081-.06 10.932-.193 21.865-.578 33.455-.293 1.4-.321 2.143-.35 2.888.344 2.375.972 4.75.976 7.125-.005-2.376-.634-4.749-1.329-6.955-.42 2.498-.61 4.831-.533 7.156.242 7.234.583 14.466 1.196 21.413.416-6.897.646-13.545.666-20.178-.02 6.634-.248 13.312-.624 20.62-.294 3.09-.322 5.454-.351 7.82.205 7.151.41 14.302.35 22.134-.295 1.743-.322 2.804-.35 3.865.2 4.82.399 9.638.348 15.205-.29 5.428-.328 10.111-.366 14.791-.049.971-.098 1.942-.53 3.36-1.046 2.028-1.278 4.144-2.452 5.08-2.732 2.18-5.917 3.799-8.924 5.633-10.109 6.163-17.751 14.607-22.955 25.2-3.84 7.815-4.259 16.235-4.082 24.774.158 7.596-.354 7.964-7.666 7.977-29.77.053-59.539.118-89.309.178-.917.264-1.835.527-2.896.742a12.6 12.6 0 0 0 2.51-.83c-1.81.226-3.235.539-4.438 1.132-.148.017-.295.035-.45.05-3.693-.263-6.717-.294-9.741-.325-.554.11-1.17.2-1.877.256.65-.06 1.235-.236 1.76-.566-1.048-.104-1.978.105-2.733.576.162.013.311.008.465.01-.308.012-.556.045-.932.035-18.55.104-36.457.599-54.367.707-26.794.16-53.59.026-80.385.062-16.305.022-32.61.126-48.916.193-.51.423-1.022 1.108-1.533 1.444.484-.342.901-1.048 1.07-1.535-5.216-.097-9.972-.22-14.722-.069-3.625.115-7.24.578-10.57 1.19 8.083.434 15.878.607 23.673.615a542 542 0 0 1-24.138-.566c-10.095-.19-19.438-.12-28.778-.053-.302.196-.603.392-.988.562a1.95 1.95 0 0 0 .686-.658c-.759.188-1.235.463-1.569.951q-.23.056-.5.098c-64.79.156-128.968.499-193.146.848-1.161.006-2.324.102-3.485.156-.697.476-1.394 1.287-2.091 1.574.683-.29 1.308-1.117 1.629-1.668-6.868-.095-13.273-.191-19.674-.058-2.975.063-5.941.574-8.623 1.189a534 534 0 0 0 17.855.576 658 658 0 0 1-18.309-.527c-4.082-.28-7.421-.3-10.761-.32-.183.01-.368.023-1.293.05-32.79.336-64.837.746-96.885.953-28.948.188-57.898.155-86.848.22-.75.513-1.5 1.414-2.25 1.632.745-.22 1.444-1.13 1.79-1.725-3.903-.085-7.347-.19-10.78-.043-4.274.182-8.538.573-12.521 1.182a340 340 0 0 0 17.15.615c-5.645-.058-11.384-.249-17.613-.564-26.313.065-51.874.648-77.434.635-25.118-.014-50.235-.634-75.353-.987-1.738-.004-3.476-.008-5.38-.138 1.799.092 3.536.017 5.182-.23-2.735-.37-5.276-.372-7.716-.014q-.244-.031-.49-.067c-19.354-1.118-38.142-1.802-56.93-2.492-.66-.023-1.325-.031-1.977-.121-11.9-1.62-23.797-3.263-35.697-4.873-7.261-.983-14.546-1.806-21.79-2.899-8.178-1.235-16.328-2.66-24.48-4.064-9.385-1.616-18.774-3.224-28.134-4.98-6.586-1.237-13.166-2.551-19.672-4.143-4.12-1.008-8.1-2.587-12.143-3.91-.282-.03-.505-.16-1.143-.657-1.857-.318-3.242-.366-4.628-.414-.486-.057-.973-.116-1.487-.255.476.059.932.036 1.354-.067-.93-.395-1.756-.536-2.545-.41a7 7 0 0 1-.47-.277c-1.769-.777-3.309-.89-4.849-1.004a55 55 0 0 1-3.544-.918c1.186.36 2.328.562 3.388.588-1.732-.689-3.31-1.05-4.82-1.088.382.154.759.286 1.133.408-.51-.155-.977-.276-1.547-.48-6.305-1.716-12.134-3.002-17.947-4.362-13.667-3.197-27.348-6.347-40.983-9.68-7.976-1.949-15.87-4.225-23.808-6.332-9.15-2.428-18.396-4.536-27.43-7.334-8.087-2.503-15.906-5.86-23.91-8.65-11.637-4.056-23.464-7.597-34.963-12.002-9.84-3.769-19.337-8.434-28.977-12.72-12.982-5.773-26.01-11.445-38.918-17.381-9.76-4.489-19.395-9.25-29.023-14.018a4011 4011 0 0 1-40.688-20.406c-8.596-4.38-17.078-8.99-25.613-13.49-10.515-5.546-21.1-10.96-31.533-16.657-18.446-10.068-36.767-20.363-55.203-30.451-11.146-6.099-22.393-12.014-33.623-17.959a6229 6229 0 0 0-37.407-19.67c-11.113-5.787-22.126-11.798-33.459-17.123-13.31-6.255-27.448-9.557-42.208-10.26-7.073-.336-12.85-6.026-11.86-11.28.773-4.11 2.018-8.13 3.002-12.202 1.974-8.162 4.028-16.31 5.826-24.51 1.211-5.523 1.707-11.213 3.112-16.678 2.399-9.327 5.223-18.547 7.937-27.79 3.066-10.44 5.755-21.021 9.451-31.235 3.31-9.147 7.707-17.905 11.748-26.78 1.644-3.608 2.982-7.645 5.559-10.488 8.138-8.978 16.429-17.884 25.346-26.074 11.566-10.622 24.398-19.653 38.949-25.86 9.402-4.008 19.014-7.516 28.482-11.374 6.828-2.782 13.435-6.168 20.385-8.582 11.82-4.104 24.206-6.778 35.68-11.645 17.587-7.46 35.539-14.448 51.492-25.222 8.569-5.786 17.177-11.814 24.557-18.979 7.124-6.915 12.442-15.651 19.01-23.191 8.26-9.484 13.454-20.735 18.068-32.067 3.426-8.415 4.947-17.72 6.463-26.771 2.023-12.067 4.317-24.252 4.539-36.422.439-24.077-.465-48.18-.815-72.272-.003-.164-.046-.329-.072-.494-.263-.933-.527-1.867-.738-2.949.21.978.501 1.845.828 2.563-.217-1.811-.525-3.236-1.11-4.44l.02.211q-.038-.315-.068-.65c.262-3.024.293-5.386.324-7.748-.16-.584-.318-1.17-.285-2.36-.794-20.18-2.517-39.75-2.631-59.33-.366-63.407-.174-126.816-.106-190.224.008-7.416.623-14.831.881-22.248.144-4.136 1.677-6.586 6.31-5.926 7.583 1.079 15.174 2.09 22.762 3.13.648.05 1.297.101 1.977.237a6.4 6.4 0 0 0-1.82.101c1.23.394 2.335.523 3.396.377q.297.124.608.282c3.448 1.135 6.64 1.573 9.834 2.013.65.062 1.304.124 2.414.54 6.062 1.303 11.682 2.149 17.26 3.224 14.447 2.787 28.81 6.091 43.335 8.37 9.113 1.428 18.228-4.798 21.95-13.47 1.272-2.962 2.986-5.88 3.511-8.986 1.251-7.397 5.41-10.082 12.518-8.992.54-.245 1.079-.49 1.726-.688-.565.199-1.04.473-1.384.784 1.13-.201 1.918-.498 2.53-1.055a10 10 0 0 1 .327-.05c.937.156 1.37.101 1.805.046 1.398-.28 2.796-.56 4.383-.777a29 29 0 0 0-3.97.867c2.488-.215 4.562-.52 6.386-1.113a29 29 0 0 0-.963.074 43 43 0 0 1 1.427-.121c10.393.277 20.07.312 29.746.347.657.052 1.314.105 2.422.518 3.627.926 6.828 1.383 9.977 2.074 16.415 3.602 31.867 9.996 46.967 17.106 12.01 5.657 22.821 13.33 30.697 24.29 12.224 17.01 22.72 34.825 25.135 56.298 1.362 12.104 3.636 24.117 4.7 36.242.746 8.469.136 17.057.136 25.591 0 44.284-.1 88.566.127 132.848.029 5.757 1.668 11.517 2.681 17.254.53 3.005.777 6.228 2.084 8.899 6.105 12.466 15.394 20.633 30.08 20.863 5.153-.203 10.308-.408 16.202-.352 13.086-.126 25.432-.513 37.779-.9.958-.136 2.117-.203 3.096-.332a61 61 0 0 0-2.657.428c3.497-.216 6.553-.527 9.338-1.14l-.203.018c.249-.015.413-.059.668-.072 14.413-.132 28.09-.51 41.766-.89.834-.135 1.858-.202 2.71-.33a49 49 0 0 0-2.277.42c3.1-.227 5.775-.545 8.2-1.141.218-.015.358-.058.581-.07 17.4-.47 34.092-1.194 50.784-1.917.917-.252 1.836-.505 2.9-.709-.958.205-1.81.485-2.516.801 1.811-.207 3.238-.506 4.442-1.084l-.115.01q.282-.03.58-.057c18.36-.16 36.034-.553 53.707-.945 1.937-.386 3.949-.746 6.384-.967-2.257.17-4.307.566-5.97 1.059 2.48-.212 4.546-.517 6.367-1.104.175-.014.304-.042.484-.054 14.388-.145 28.063-.53 41.737-.912 1.172-.28 2.345-.56 3.693-.782a19.4 19.4 0 0 0-3.293.871c2.148-.223 3.896-.535 5.406-1.134q-.3.022-.593.052.508-.057 1.054-.101c16.707-.148 32.717-.534 48.727-.918 1.187-.281 2.375-.561 3.744-.781a19.4 19.4 0 0 0-3.342.87c2.15-.218 3.898-.527 5.41-1.122q-.398.03-.783.072.596-.072 1.246-.125c16.04-.16 31.386-.55 46.729-.942.767-.268 1.535-.538 2.435-.75-.813.21-1.518.506-2.068.842 1.47-.21 2.573-.515 3.476-1.093q-.151.016-.3.037.302-.048.627-.086c.962.173 1.397.12 1.832.066 1.626-1.545 3.374-1.976 5.22-1.978-1.73.02-3.346.5-4.767 2.072 4.5-.21 8.548-.514 12.31-1.121-2.433-.127-4.859-.878-7.107-.947 2.367.083 4.894.8 7.572.902 13.422-.135 26.098-.527 38.77-.918.942-.132 2.083-.197 3.045-.322a62 62 0 0 0-2.606.412c3.498-.213 6.554-.515 9.338-1.117l-.24.02c.261-.017.435-.062.703-.075 13.123-.077 25.508-.484 37.898-.694 10.953-.185 21.91-.151 32.866-.214 1.753-.415 3.542-.816 5.806-1.034.134-.012.232-.039.37-.05 1.35.262 2.094.29 2.837.32.891-.177 1.782-.354 3.315-.31 14.71-.1 28.777-.58 42.847-.704 22.606-.198 45.216-.16 67.823-.222.326-.093.653-.187 1.04-.237-.294.07-.54.185-.7.325.782.029 1.24-.03 1.648-.352q.224.015.476.049c4.178.3 7.857.256 11.536.21.695-.477 1.386-1.285 2.084-1.575-.684.293-1.303 1.115-1.623 1.668 5.834-.222 11.207-.538 16.296-1.159-4.92-.439-9.557-.66-14.19-.617 4.633-.044 9.27.18 14.655.568 3.9.255 7.05.32 10.198.237 9.53-.254 19.057-.567 28.587-.856.583-.157 1.166-.313 2.221-.275.907.222 1.342.248 1.777.275 1.852-.189 3.704-.378 6.17-.324 1.353.192 2.094.142 2.834.092 1.07-1.59 2.25-2.137 3.582-1.994-1.223-.135-2.306.43-3.15 2.08 2.49.029 4.548-.03 6.506-.447-1.121-.858-2.205-1.463-3.2-1.62 1.108.163 2.322.788 3.665 1.688 14.57.357 28.58.289 42.59.22.696-.474 1.392-1.277 2.09-1.564-.684.29-1.307 1.107-1.628 1.65v.003c6.168-.213 11.872-.514 17.292-1.122-5.25-.446-10.217-.666-15.182-.636 4.965-.031 9.932.19 15.615.595 2.747.286 4.775.306 6.805.325.178-.01.355-.02 1.234-.045 2.725-.073 4.75-.13 6.776-.188.694-.478 1.385-1.283 2.082-1.572-.683.292-1.302 1.111-1.621 1.658 5.832-.217 11.204-.52 16.29-1.13-4.918-.445-9.554-.674-14.187-.635 4.633-.04 9.268.19 14.652.593 16.005-1.408 31.284-2.9 46.5-4.873 4.381-.569 8.677-2.272 12.844-3.89 7.311-2.841 14.694-5.622 21.682-9.149 9.98-5.038 21.076-7.907 29.662-15.74 5.897-5.38 12.823-9.67 18.451-15.29 4.781-4.772 8.516-10.642 12.441-16.218 8.566-12.172 15.748-24.92 15.27-40.523.008-2.08.016-4.162.139-6.383a46 46 0 0 0 .191 6.244c.365-3.353.408-6.57.09-9.68l.062-.545c-.544-7.438-.753-14.554-2.673-21.175-4.666-16.092-13.274-30.27-22.76-44.002-12.523-18.126-24.754-36.46-36.819-54.897-2.21-3.379-3.022-7.675-4.48-11.547-.213-.302-.426-.603-.613-.986.193.297.434.531.699.678-.215-.756-.51-1.223-1.024-1.551a6 6 0 0 1-.109-.47c-.205-5.607-.598-10.636-.992-15.665-.208-.313-.416-.626-.596-1.021.186.313.424.56.692.715-.197-.766-.481-1.24-.989-1.575a6 6 0 0 1-.09-.42c.129-1.593.068-2.649.01-3.703-.13-.845-.194-1.89-.318-2.756a49 49 0 0 0 .414 2.325c-.207-3.117-.511-5.808-1.096-8.243-.013-.216-.054-.352-.066-.574-.135-12.406-.521-24.08-.906-35.754-.139-.873-.207-1.912-.338-2.802a50 50 0 0 0 .427 2.369c-.223-3.16-.533-5.886-1.142-8.346l.025.275c-.015-.221-.059-.375-.072-.601.283-1.03.314-1.47.344-1.908.001-1.671.002-3.341.1-5.094a36 36 0 0 0 .234 4.947h.002c.342-2.918.38-5.701.086-8.39q.049-.368.107-.743c1.828-3.244 3.578-3.815 5.57-1.195a4686 4686 0 0 1 20.97 27.824c7.8 10.413 15.46 20.935 23.366 31.266 10.724 14.014 21.693 27.84 32.426 41.848 6.69 8.73 13.134 17.647 19.87 26.722l20.093-15.392c-3.306-4.792-6.166-9.314-9.4-13.553-8.752-11.47-17.728-22.77-26.49-34.234-7.559-9.887-14.906-19.936-22.417-29.86-11.174-14.764-22.432-29.462-33.61-44.224-5.187-6.851-9.379-15.14-18.726-16.899-3.66-.688-7.779-1.469-11.576-1.424m-385.877 371.16c-2.094.154-3.95.593-5.406 1.123 2.149-.219 3.896-.528 5.406-1.123m617.366 400.518c.272-1.474-.175-2.808-2.06-3.871-.023 2.828.037 5.215.458 7.5.744-1.253 1.39-2.483 1.601-3.629M547.748 68.215q-.348.015-.656.152c.72.34 1.328.38 1.898.139-.435-.208-.855-.307-1.242-.291M404.74 89.227a1.7 1.7 0 0 0-.656.142v.002c.718.351 1.33.397 1.895.164-.437-.214-.853-.318-1.239-.308m287.092 115.89c-.08.73.08 1.319.53 1.81.095-.714-.097-1.335-.53-1.81m-329.02 156.006c-.079.723.082 1.307.528 1.797.095-.71-.096-1.323-.527-1.797M1504.769 386c-.445-.006-.623.004-.733.27.378.084.69-.086.733-.27m-78.989.783c-2.096-.094-3.949.095-5.62.623 2.073.113 3.97-.113 5.62-.623m-8.17.03c-.606-.016-1.105.153-1.525.533.717.09 1.328-.096 1.793-.516a3 3 0 0 0-.268-.017m-183.54 2.949c-.737.036-1.384.226-1.964.592 1.048.103 1.978-.107 2.73-.579a6 6 0 0 0-.767-.013m-516.337 19.984c-4.918.558-10.12.81-15.535.684 4.942-.583 10.096-.788 15.535-.684M1846.12 801.721c-.041.282-.135.575-.232.87q.166-.445.232-.87m-2.02 99.703c.548 3.05 1.006 6.545 1.16 10.316-.617-3.107-.933-6.488-1.16-10.316m.483 115.773a100 100 0 0 0 .676 14.533c.106-5.102-.096-9.923-.676-14.533m.037 29.92c-.367 1.058-.406 1.981-.133 2.84.361-1.033.411-2.003.133-2.84m-1203.377 51.274a.5.5 0 0 0-.187.044c.23.418.453.549.785.315h.002c-.187-.258-.403-.367-.6-.36m571.457 26.31c-.257.02-.445.152-.476.293.46.007.645-.006.754-.273a1 1 0 0 0-.278-.02" style="fill:#fff;fill-opacity:1"/></svg>