<svg xmlns="http://www.w3.org/2000/svg" viewBox="0 0 2515 696" xml:space="preserve"><path fill="#fff" d="M2061.506 636.271c6.11-.875 11.764-1.773 17.43-2.593 8.089-1.17 16.216-2.11 24.274-3.466 9.925-1.67 19.773-3.794 29.695-5.483 7.894-1.344 16.164-1.35 23.687-3.758 7.05-2.257 14.471-.302 21.455-3.966 5.126-2.69 11.707-2.631 17.651-3.732 9.309-1.722 18.694-3.092 27.926-5.154 11.648-2.601 23.124-5.98 34.77-8.59 10.65-2.388 21.467-4.022 32.133-6.341 5.317-1.156 10.392-3.411 15.702-4.61a182 182 0 0 1 19.123-3.254c8.18-.946 16.423-2.01 24.628-1.926 12.468.128 24.93 1.133 37.384 1.942 1.72.111 3.353 1.288 5.062 1.867 15.502 5.25 31.366 8.562 47.806 7.99 10.09-.35 20.165-1.214 30.238-1.975 4.334-.327 13.414-8.802 12.39-12.54-.82-2.994-4.032-6.084-6.972-7.561-3.842-1.93-8.409-2.737-12.757-3.269-8.104-.992-16.263-1.769-24.42-2.04a1820 1820 0 0 0-50.919-1c-9.638-.049-19.28.859-28.92.86-9.985 0-19.972-.869-29.957-.83-14.939.059-29.875.705-44.815.863-12.917.137-25.611-.997-37.966-5.55-5.675-2.092-12.062-2.187-18.068-3.458-5.084-1.077-10.108-2.464-15.117-3.861-4.51-1.259-8.955-2.742-13.44-4.084-5.41-1.618-10.839-3.166-16.246-4.789-7.833-2.351-15.664-4.708-23.476-7.125-10.595-3.277-21.137-6.728-31.767-9.886-7.628-2.266-15.433-3.949-23.027-6.315-5.935-1.85-11.688-4.298-17.483-6.576-5.994-2.356-11.922-4.878-17.913-7.237-8.592-3.384-17.186-6.766-25.833-10-9.27-3.47-18.764-6.387-27.87-10.233-11.742-4.96-23.155-10.69-34.786-15.917-7.075-3.18-14.356-5.901-21.43-9.083-5.644-2.54-11.075-5.547-16.671-8.198-9.898-4.69-19.889-9.18-29.765-13.912-10.031-4.807-20.051-9.65-29.933-14.755-15.02-7.761-30.05-15.52-44.816-23.748-9.818-5.471-19.222-11.694-28.738-17.699-13.4-8.455-27.637-15.917-39.788-25.906-8.823-7.254-15.14-17.704-21.939-27.184-2.023-2.821-2.527-7.162-2.64-10.84-.309-9.93-2.15-19.882 1.6-29.769 1.978-5.218 2.058-11.13 3.313-16.655 1.622-7.145-4.828-8.28-8.452-10.878-5.637-4.041-12.116-6.907-18.223-10.297-9.164-5.087-18.265-10.29-27.487-15.269-8.8-4.75-17.682-9.352-26.602-13.874-7.35-3.727-14.907-7.052-22.178-10.92-4.656-2.476-8.758-6.024-13.476-8.344-4.843-2.38-10.238-3.613-15.205-5.776-7.225-3.147-14.218-6.824-21.426-10.013-15.824-7.003-31.702-13.884-47.592-20.734-13.015-5.61-25.999-11.306-39.159-16.557-5.912-2.359-12.338-3.406-18.316-5.625-6.659-2.471-12.954-5.929-19.624-8.36-9.498-3.463-19.17-6.457-28.811-9.513-11.265-3.57-22.54-7.119-33.886-10.411-4.314-1.252-8.882-1.601-13.26-2.666-3.595-.874-7.065-2.249-10.616-3.314-11.536-3.462-23.013-7.153-34.655-10.215-6.45-1.696-13.196-2.255-19.789-3.435-5.312-.95-10.625-1.936-15.885-3.136-7.303-1.666-14.5-3.84-21.846-5.265-10.85-2.106-21.933-3.173-32.636-5.82-5.407-1.337-10.663-2.354-16.198-3.02-10.513-1.268-20.865-3.843-31.31-5.727-15.118-2.727-30.196-5.797-45.41-7.828-12.886-1.72-25.946-2.108-38.917-3.213-5.893-.502-11.75-1.422-17.64-1.946-5.46-.485-10.96-.53-16.415-1.065-7.676-.753-15.325-1.78-22.986-2.692-.657-.078-1.315-.276-1.966-.251-7.815.3-15.626.759-23.442.901-4.158.076-8.325-.567-12.487-.55-4.256.016-8.638-.122-12.737.809-7.566 1.719-14.98 4.12-22.431 6.326-18.039 5.34-28.839 18.934-37.778 34.176-2.444 4.166-3.026 9.654-3.584 14.635-.59 5.267-.673 10.719-.013 15.97 1.15 9.142-1.211 17.895-3.619 26.242-1.793 6.216-6.662 11.861-11.131 16.9-4.371 4.927-9.368 9.131-15.879 12.016-8.851 3.92-17.579 2.824-26.264 1.94-9.051-.92-17.972-3.357-26.874-5.453-9.315-2.193-18.518-4.86-27.813-7.146-5.82-1.43-11.749-2.415-17.574-3.826-5.813-1.407-11.527-3.225-17.342-4.624-5.31-1.277-10.717-2.151-16.046-3.358-5.532-1.253-11.023-2.687-16.53-4.052-7.393-1.834-14.794-3.636-22.173-5.528-10.547-2.706-20.969-6.053-31.646-8.047-8.622-1.61-17.534-1.731-26.332-2.302-4.149-.27-8.353-.322-12.49.026-4.71.397-9.375 1.327-14.05 2.08-.96.155-1.884.814-2.818.8-11.333-.172-21.896 3-32.062 7.58-12.5 5.63-25.142 11.041-37.187 17.54-5.824 3.142-10.473 8.495-15.567 12.947-12.947 11.316-25.52 23.091-38.916 33.844-5.614 4.507-12.889 6.977-19.481 10.226-11.135 5.486-22.394 10.723-33.474 16.316-8.27 4.174-16.25 8.923-24.53 13.077-6.234 3.128-12.832 5.527-19.1 8.594-10.382 5.078-20.582 10.527-30.945 15.646-11.895 5.877-24.582 8.743-37.725 6.996-4.523-.6-8.663-4.251-12.926-6.601-8.54-4.708-17.324-8.629-24.795-15.532-7.2-6.654-21.512-4.375-30.584 2.1-8.77 6.26-18.003 11.871-26.847 18.035-6.841 4.768-13.296 10.09-20.102 14.91-7.425 5.26-15.297 9.906-22.549 15.383-15.745 11.892-31.31 24.03-46.772 36.288-10.159 8.052-20.051 16.443-29.985 24.776-5.347 4.486-10.145 9.732-15.865 13.65-13.676 9.37-22.8 22.866-32.943 35.385-4.519 5.578-7.586 12.341-11.233 18.612-8.452 14.53-17.077 28.965-25.21 43.672-6.644 12.016-11.668 25.045-19.254 36.393-8.176 12.23-8.535 25.343-7.172 38.541 1.085 10.507 7.048 19.499 16.263 25.388 2.017 1.289 5.321.856 8.014.746 10.694-.438 19.986-3.21 25.737-13.6 4.608-8.324 9.486-16.699 15.547-23.964 6.557-7.859 11.871-17.3 22.815-20.813 8.32-2.67 16.125-1.167 23.988 1.023 6.792 1.891 13.474 4.19 20.161 6.436 6.277 2.11 12.511 4.349 18.74 6.598 9.466 3.42 18.91 6.9 28.367 10.348 6.893 2.514 13.752 5.13 20.697 7.494 6.818 2.32 13.746 4.316 20.583 6.584 2.609.865 5.068 2.168 7.646 3.137 11.813 4.44 23.548 9.118 35.504 13.135 7.25 2.436 14.853 3.814 22.294 5.682 7.27 1.826 14.503 3.824 21.821 5.43 2.872.63 5.959.205 8.9.606 3.88.528 7.712 1.402 11.566 2.115 1.602.296 3.2.692 4.817.815 7.018.533 14.043.982 21.162 1.469v26.3c-6.975-.794-13.564-1.505-20.141-2.307-3.718-.453-7.42-1.05-11.126-1.594-11.754-1.726-23.541-3.259-35.244-5.279-5.373-.928-10.653-2.597-15.85-4.312a4400 4400 0 0 1-51.78-17.425c-9.87-3.393-19.607-7.171-29.457-10.625-15.022-5.268-30.136-10.28-45.123-15.645-9.086-3.252-17.929-7.185-27.027-10.396-6.216-2.193-12.603-4.27-19.083-5.145-2.386-.322-6.102 2.35-7.766 4.685-8.64 12.129-16.497 24.819-25.249 36.86-6.599 9.08-16.094 14.694-27.194 15.91-9.245 1.012-18.693.337-28.043.1-2.327-.06-4.764-1.025-6.91-2.07-10.595-5.157-17.855-13.366-23.376-23.827-5.607-10.623-7.123-22.09-9.052-33.512-.609-3.602.268-7.545.921-11.251 2.418-13.709 8.798-25.857 15.306-37.936C51.411 489.67 60.144 473 69.35 456.593c6.321-11.267 13.257-22.19 20.006-33.213 8.483-13.854 18.006-26.973 29.789-38.19 8.404-8 17.443-15.339 26.31-22.842 6.988-5.914 14.137-11.64 21.232-17.427 9.759-7.96 19.551-15.88 29.298-23.854 6.84-5.597 13.363-11.624 20.504-16.803 10.623-7.704 21.724-14.746 32.517-22.22 14.019-9.707 28.083-19.359 41.853-29.411 12.896-9.415 26.53-17.011 42.992-15.285 6.971.732 14.56 2.996 20.228 6.929 7.745 5.374 15.92 9.908 23.74 15.03 11.204 7.338 21.24 3.673 31.42-1.07 10.195-4.749 20.09-10.139 30.164-15.15A8777 8777 0 0 1 483.98 221.1c13.994-6.861 28.22-13.285 41.945-20.645 6.67-3.576 12.851-8.38 18.5-13.467 8.67-7.807 16.27-16.827 25.123-24.399 6.57-5.619 14.234-10.047 21.724-14.477 8.454-5.001 16.973-10.085 25.989-13.89 9.126-3.85 18.84-6.372 28.4-9.111a259 259 0 0 1 22.13-5.297c6.552-1.267 13.208-2.13 19.858-2.728 14.93-1.343 29.413 2.06 43.876 4.92 11.561 2.288 22.949 5.446 34.44 8.106 13.235 3.064 26.545 5.816 39.737 9.053 13.61 3.34 27.074 7.28 40.686 10.613 9.742 2.385 19.641 4.12 29.437 6.296 7.715 1.712 15.354 3.767 23.076 5.442 3.66.793 7.437 1.037 11.157 1.557 10.851 1.517 19.698-9.553 20.043-17.923.34-8.256.45-16.526.995-24.767.43-6.515.131-13.466 2.375-19.382 3.286-8.662 8.111-16.855 13.131-24.703 3.501-5.475 8.49-9.986 12.703-15.02 7.379-8.817 17.536-13.614 27.632-17.958 11.916-5.126 24.29-8.88 37.753-8.463 10.176.315 20.436-1.949 30.604-1.574 17.412.642 34.78 2.459 52.167 3.763 4.925.37 9.873.507 14.78 1.04 14.137 1.532 28.254 3.26 42.39 4.809 4.907.537 9.875.555 14.764 1.197 9.374 1.231 18.724 2.668 28.062 4.154 7.366 1.173 14.692 2.59 22.049 3.82 6.42 1.075 12.88 1.915 19.282 3.083 10.203 1.861 20.394 3.799 30.548 5.905 11.55 2.397 23.034 5.105 34.582 7.51 10.963 2.283 22.023 4.12 32.944 6.582 8.817 1.987 17.495 4.594 26.226 6.963 4.494 1.22 8.97 2.509 13.448 3.784 9.274 2.64 18.54 5.305 27.818 7.933 10.706 3.033 21.521 5.722 32.106 9.129 14.255 4.588 28.386 9.579 42.476 14.66 13.791 4.973 27.54 10.084 41.166 15.492 12.414 4.926 24.676 10.243 36.936 15.546 16.278 7.042 32.535 14.137 48.713 21.403 11.109 4.989 22.073 10.299 33.095 15.48 10.31 4.846 20.804 9.346 30.871 14.653 14.982 7.898 29.685 16.328 44.46 24.613 12.406 6.956 24.864 13.83 37.074 21.117 8.981 5.361 15.249 13.645 16.238 23.842.637 6.568-2.693 13.508-4.17 20.297-2.244 10.309-3.815 20.76-1.114 31.119.93 3.566 3.723 6.834 6.218 9.769 8.092 9.514 18.03 16.818 28.715 23.183 9.57 5.702 18.944 11.74 28.613 17.267 15.245 8.712 30.478 17.478 46.058 25.56 17.947 9.31 36.185 18.072 54.45 26.749 13.656 6.488 27.589 12.39 41.33 18.701 6.168 2.833 12.037 6.335 18.271 8.995 15.09 6.438 30.278 12.647 45.492 18.787 17.483 7.056 34.968 14.12 52.587 20.825 9.784 3.723 19.813 6.815 29.788 10.018a1568 1568 0 0 0 32.797 10.15c8.194 2.435 16.527 4.404 24.699 6.904 10.288 3.148 20.385 6.944 30.732 9.866 9.79 2.765 19.798 4.758 29.708 7.099 5.19 1.226 10.366 2.505 15.564 3.693 3.62.828 7.237 1.73 10.904 2.264 5.664.823 11.357 1.696 17.062 1.921 5.434.216 10.9-.367 16.351-.607 1.324-.058 2.645-.208 3.968-.213 8.994-.032 17.99.073 26.98-.074 15.265-.249 30.527-.626 45.789-.997 11.266-.273 22.546-1.153 33.79-.813 17.64.534 35.341 1.134 52.85 3.148 10.065 1.157 20.32 3.719 29.19 9.358 10.919 6.94 16.17 19.946 13.764 32.4-1.65 8.54-4.539 16.225-11.016 22.467-7.369 7.1-16.334 11.36-26.065 12.058-17.187 1.233-34.581 2.164-51.705.84-12.38-.956-24.44-5.853-36.689-8.805-3.773-.91-7.682-1.577-11.55-1.7-8.158-.26-16.365.392-24.489-.196-15.03-1.088-29.103 3.206-43.402 6.556-11.652 2.73-23.426 4.936-35.084 7.638-8.965 2.078-17.779 4.824-26.763 6.806-11.869 2.62-23.835 4.8-35.766 7.135a1011 1011 0 0 1-16.749 3.144c-14.854 2.648-29.716 5.254-44.574 7.88-9.896 1.75-19.78 3.57-29.689 5.246-11.707 1.98-23.44 3.804-35.15 5.765-9.45 1.583-18.859 3.43-28.33 4.862-10.166 1.538-20.398 2.622-30.572 4.102-9.502 1.383-18.954 3.101-28.45 4.53-8.389 1.262-16.812 2.294-25.212 3.49-12.095 1.72-24.18 3.517-36.274 5.244-6.62.945-13.225 2.158-19.881 2.633-9.41.671-18.86 1.059-28.293 1.07-58.664.074-117.329.125-175.993-.051-41.433-.125-82.866-.566-124.299-.975-20.096-.199-40.19-.76-60.286-.964-40.263-.409-80.528-.64-120.792-1.032-24.443-.239-48.885-.623-73.327-.98-20.93-.305-41.856-.777-62.785-.976-43.096-.41-86.194-.652-129.29-1.052-6.434-.06-12.86-.8-19.295-.868-14.508-.153-29.02.026-43.527-.13-21.265-.23-42.527-.63-63.79-.968-11.72-.186-23.072-9.349-27.72-22.236-1.856-5.145-4.258-10.124-5.718-15.371-.986-3.547-3.224-4.104-6.096-4.378-.33-.032-.666-.003-1-.005-54.596-.342-109.192-.629-163.788-1.054-19.766-.154-39.53-.617-59.294-.976-16.264-.295-32.525-.786-48.79-.943-43.096-.419-86.194-.649-129.29-1.068-18.599-.18-37.196-.568-55.79-1.024-5.414-.133-10.815-.825-16.756-1.304l-2.156 26.56-27.85-2.193 6.022-78.993 27.847 2.194-1.948 28.148c41.738 0 83.096-.244 124.449.085 28.051.222 56.095 1.315 84.145 1.88 10.542.213 21.093-.034 31.638.047 39.814.303 79.627.66 119.44.981 5.715.046 11.441-.229 17.14.06 9.214.467 18.403 1.718 27.615 1.856 19.696.295 39.4.01 59.1.135 6.65.043 13.503-.305 19.895 1.146 9.875 2.241 16.547 8.97 20.016 18.593 2.016 5.591 3.884 11.236 5.82 16.856 1.19 3.45 3.28 5.518 7.26 5.402a308 308 0 0 1 16.454-.017c9.987.246 19.968.81 29.954.9 5.476.051 10.96-.906 16.436-.856 9.808.09 19.611.852 29.417.858 9.48.005 18.957-.665 28.438-.888 4.364-.102 8.739.116 13.106.26 5.988.199 11.98.364 17.961.717 53.717 3.177 107.5 1.437 161.248 2.204 9.082.13 18.162.737 27.242.713 8.32-.023 16.64-.859 24.96-.86 8.348 0 16.694.724 25.046.88 9.042.167 18.098-.196 27.133.12 7.936.276 15.842 1.448 23.778 1.705 6.674.216 13.372-.445 20.06-.468 4.09-.014 8.182.656 12.273.659 68.164.044 136.328-.03 204.492.077 16.108.026 32.215.6 48.322.962 13.441.301 26.88.77 40.323.959 11.541.162 23.088-.08 34.63.06 19.941.241 39.883.955 59.82.825 8.5-.055 16.988-1.735 25.48-2.681.163-.018.326-.15.476-.131 11.805 1.511 23.13-2.41 34.747-3.105 4.166-.25 8.273-1.366 12.432-1.877 3.955-.486 7.977-.476 11.91-1.073 12.092-1.837 23.996-4.55 36.328-5.236 9.385-.522 18.647-3.276 27.962-5.044.155-.03.284-.213.437-.234 8.72-1.163 17.448-2.268 26.16-3.493 3.701-.521 7.367-1.293 11.502-1.963"/></svg>