<svg viewBox="0 0 2516 695" xml:space="preserve" xmlns="http://www.w3.org/2000/svg"><path d="M1071.32 31.121c-13.169-.165-26.344-.197-39.511.022-3.275.054-6.53 1.249-9.528 2.224 1.903.404 3.54.59 5.176.592-1.637-.001-3.273-.187-5.57-.56-1.71-.218-2.76-.161-3.809-.104-3.957 1.146-7.852 2.627-11.883 3.379 4.03-.752 7.926-2.233 11.442-3.494-15.002.36-27.974 6.055-40.574 12.578-4.69 2.427-8.721 6.122-12.694 9.232l-.008.004c-.36.006-.36.01-.36.01-.804.94-1.608 1.88-2.517 2.838a25 25 0 0 0 2.172-2.81c-1.674 1.581-3.042 3.14-4.1 4.697q-.206.187-.421.376c-.762.366-.945.64-1.127.913-.259.364-.515.727-.873 1.113q.432-.558.533-1.1c-.747.63-1.188 1.248-1.334 1.846q-.118.097-.248.195c-.837.326-1.013.6-1.078.944a10 10 0 0 1-.836 1.12q.409-.558.496-1.103c-.733.636-1.16 1.255-1.295 1.867q-.121.1-.256.202c-.74.381-.918.66-1.096.939-.763 1.254-1.526 2.508-2.382 3.78a39 39 0 0 0 2.05-3.694c-1.637 2.193-2.986 4.311-4.033 6.418q-.23.29-.472.584c-.773.393-.956.678-1.137.963-2.442 4.764-4.9 9.518-7.32 14.293-1.612 3.178-3.17 6.385-5.157 10.027-.438 1.498-.47 2.548-.504 3.598.29 1.709.906 3.436.81 5.123.096-1.687-.521-3.415-1.17-4.942-1.128 12.858-1.6 25.564-2.835 38.194-.39 3.997-2.794 7.803-4.326 11.678-.392.99-.956 1.913-1.129 2.869q-.15.108-.305.214c-1.457 1.042-2.272 1.973-3.086 2.903-2.887 1.128-5.71 2.717-8.658 3.426 2.942-.709 5.718-2.298 8.229-3.424-6.177.407-11.926.813-17.578 1.572 1.459.529 2.925 1.185 4.355 1.633-1.477-.456-3.034-1.13-4.674-1.695-.843-.449-1.274-.48-1.705-.512-.511.264-1.101.822-1.545.834.442-.015 1.016-.603 1.362-1.186-2.578-.836-4.981-1.276-7.364-1.814-5.182-1.17-10.354-2.39-15.46-3.244 7.15 2.324 14.227 4.327 21.33 6.23-7.103-1.903-14.18-3.905-21.692-6.297-1.164-.455-1.897-.5-2.63-.543-3.955 2.42-6.759-.698-10.32-2.466-.823-.434-1.257-.462-1.689-.49-.197.187-.433.54-.605.62.168-.088.382-.485.44-.964-6.747-1.704-13.325-3.062-19.833-4.07 6.481 1.926 12.887 3.51 19.305 5.05-6.418-1.54-12.826-3.124-19.666-5.127-1.165-.472-1.896-.52-2.629-.568-1.282-.267-2.695-.667-4-.957 1.292.245 2.58.478 3.822.615-3.416-1.029-6.655-1.716-9.816-2.063.223.068.438.105.66.17-.344-.096-.627-.13-.978-.234-.83-.44-1.26-.476-1.692-.512-1.181-.278-2.518-.689-3.728-.992 1.205.264 2.402.506 3.556.654-3.079-1.037-5.987-1.736-8.82-2.097.605.205 1.19.338 1.787.517-.753-.217-1.379-.325-2.176-.58-1.517-.431-2.569-.462-3.62-.494-1.164-.265-2.468-.666-3.657-.955 1.179.246 2.354.477 3.484.613-3.083-1.019-5.995-1.698-8.843-2.037.357.12.702.189 1.058.299-.498-.148-.904-.206-1.42-.371-1.158-.452-1.892-.492-2.627-.531-5.993-1.347-11.986-2.693-18.342-4.471-.793-.47-1.222-.507-1.652-.545-4.165 2.05-7.593.232-11.361-2.488-1.17-.439-1.906-.47-2.64-.502-.492.252-1.06.78-1.493.824.43-.049.98-.616 1.316-1.166a31 31 0 0 0-5.359-1.746c-5.505-1.26-11.022-2.467-16.453-3.352 6.822 2.331 13.557 4.342 20.32 6.252-6.763-1.91-13.498-3.921-20.638-6.314-.83-.44-1.26-.473-1.692-.506-1.298-.273-2.728-.68-4.05-.977 1.313.253 2.621.492 3.888.633-3.412-1.035-6.66-1.728-9.832-2.08.282.086.553.135.834.217-.405-.113-.74-.157-1.154-.28-.829-.43-1.258-.46-1.69-.49-.48.26-1.005.776-1.45.844.443-.073.948-.628 1.282-1.201a427 427 0 0 0-28.797-4.106c9.172 2.019 18.243 3.705 27.329 5.307-9.086-1.602-18.156-3.288-27.647-5.367-.848-.441-1.281-.473-1.713-.504-1.433.08-3.112.07-4.596.13 1.5-.11 2.973-.254 4.387-.495-3.733-.123-7.256.119-10.498.652.43.011.82-.02 1.242-.017-.6 0-1.045.057-1.675.046-2.738-.207-4.76-.152-6.782-.097-1.215.387-2.44.735-3.65 1.144a90 90 0 0 0 3.224-1.256c-10.496 1.886-20.568 3.884-30.373 6.155 1.88.225 3.572.427 5.172.213-1.602.214-3.32.016-5.494-.17-1.017-.169-1.445-.106-1.873-.043-.861.422-1.722.843-2.68 1.226a13.7 13.7 0 0 0 2.329-1.328c-1.736.532-3.148 1.155-4.38 2.024q-.264.074-.54.144c-1.63-.175-2.678-.119-3.727-.06-2.901 1.232-5.803 2.465-8.812 3.654a145 145 0 0 0 8.431-3.768c-4.968 1.804-9.583 3.715-14.006 5.858l-.808.281c-.948-.15-1.376-.087-1.803-.025-3.402 1.617-6.804 3.235-10.353 4.836a170 170 0 0 0 9.984-4.938 185 185 0 0 0-14.133 6.766l-.176.074c-.278-.033-.355-.03-.377-.024l-.002.002h-.004v.002h-.001v.002c-.255.595-.375 1.439-.706 1.893.319-.454.379-1.297.327-1.875-3.29 1.342-6.366 2.395-9.08 4.045-6.273 3.813-12.37 7.916-18.165 11.933l-.019.01c-.377-.034-.373-.03-.373-.03-.985.792-1.969 1.583-3.07 2.384a27 27 0 0 0 2.718-2.373c-1.987 1.298-3.653 2.588-4.98 3.906q-.206.13-.42.262c-.82.319-1.026.589-1.23.859-.635.605-1.269 1.21-1.975 1.789a14 14 0 0 0 1.639-1.787c-1.355.931-2.416 1.86-3.315 2.994q-.255.159-.525.313c-1.885.957-3.337 2.015-4.616 3.253-9.084 8.802-18.134 17.64-27.195 26.467-.439.39-.879.78-1.431 1.182q.724-.586 1.103-1.184c-1.065.63-1.824 1.264-2.258 1.928q-.136.078-.281.156c-.774.331-.962.609-1.148.885-.43.394-.862.787-1.403 1.191q.707-.59 1.074-1.185c-1.053.644-1.8 1.284-2.226 1.951q-.139.081-.285.162c-.78.325-.974.594-1.168.863-1.111.687-2.241 1.339-3.342 2.045a183 183 0 0 0 2.967-2.04c-7.971 3.943-15.582 7.882-22.994 12.064l-.735.295c-1.309.407-2.104 1.018-2.9 1.629-2.118 1.178-4.237 2.356-6.442 3.504a120 120 0 0 0 6.059-3.508c-3.928 1.891-7.509 3.787-10.908 5.894q-.426.195-.86.389c-1.295.128-2.063.443-2.832.758-.65.447-1.3.893-2.025 1.308.644-.41 1.212-.858 1.682-1.306-1.39.64-2.465 1.28-3.366 2.136q-.204.084-.418.165c-.945.095-1.411.392-1.877.689-.654.449-1.31.897-2.039 1.314.649-.411 1.223-.86 1.696-1.31-1.394.641-2.47 1.278-3.375 2.139q-.2.083-.41.162c-.942.1-1.407.397-1.872.695-.658.456-1.314.913-2.052 1.336a10.7 10.7 0 0 0 1.709-1.332c-1.408.64-2.493 1.275-3.389 2.154q-.188.077-.385.15c-.954.097-1.415.4-1.877.702-1.184.687-2.37 1.374-3.675 2.047a27.4 27.4 0 0 0 3.312-2.043c-2.085.975-3.819 1.947-5.19 2.953l-.081.037c-.27-.033-.345-.028-.366-.022l-.002.002h-.002v.002h-.002v.002c-1.572.837-3.145 1.675-4.8 2.475a63 63 0 0 0 4.416-2.469c-3.004 1.295-5.654 2.586-8.11 4.111q-.3.12-.605.239c-.968.07-1.434.364-1.9.656-2.615 1.93-5.013 4.299-7.881 5.717 2.868-1.418 5.267-3.787 7.502-5.713-4.858 2.223-9.341 4.434-13.813 6.664-10.668 5.32-21.257 10.805-32.023 15.92-6.653 3.16-14.034 6.56-21.127 3.967-8.127-2.971-16.224-7.177-22.961-12.563-15.695-12.547-32.434-17.142-51.518-9.836-4.958 1.898-9.398 5.144-13.693 7.81l-.102.034c-.267-.028-.346-.02-.369-.01l-.006.002v.002h-.002v.002l-.002.002v.002c-.431.387-.862.774-1.402 1.17q.704-.58 1.074-1.16c-1.06.638-1.817 1.266-2.252 1.924q-.141.081-.293.164c-.774.33-.957.608-1.14.886-3.373 2.456-6.745 4.91-10.237 7.352a254 254 0 0 0 9.873-7.342c-5.345 3.605-10.339 7.198-14.966 10.826l-.28.186c-.251-.032-.336-.025-.363-.016l-.006.002-.002.002-.002.002h-.002v.006c-1.407 1-2.815 2-4.35 3.01a52 52 0 0 0 3.989-3.004c-2.655 1.61-4.974 3.216-6.947 4.853l-.477.28c-.817.33-1.012.61-1.207.89-.837.761-1.674 1.522-2.672 2.266.98-.745 1.754-1.507 2.336-2.272-1.447.971-2.561 1.95-3.32 2.961l-.016.01a3 3 0 0 0-.353-.03h-.004v.003c-.535.484-1.07.969-1.735 1.441.638-.474 1.102-.957 1.403-1.437-1.092.662-1.861 1.32-2.283 2.004l-.026.015c-.252-.024-.324-.02-.344-.015l-.002.001h-.003v.002h-.002v.002c-1.749 1.297-3.496 2.592-5.348 3.873a73 73 0 0 0 4.988-3.857c-3.022 1.96-5.703 3.903-8.035 5.879l-.217.137c-.25-.035-.329-.022-.353-.008l-.006.004-.002.002v.002l-.002.002v.007c-.426.392-.852.782-1.387 1.182q.696-.586 1.059-1.182c-1.047.638-1.79 1.275-2.213 1.946a14 14 0 0 1-.295.166c-.785.326-.98.603-1.174.88-.44.392-.883.784-1.437 1.186.485-.39.853-.789 1.107-1.187-1.069.632-1.829 1.267-2.263 1.931q-.137.078-.282.157c-.773.327-.96.598-1.146.87-.499.458-.998.917-1.606 1.362.574-.447.997-.903 1.276-1.356-1.075.66-1.834 1.315-2.254 1.995l-.049.027c-.247-.028-.32-.018-.34-.008l-.002.002-.002.002h-.002v.002l-.002.002v.004c-4.933 3.93-9.746 8.024-14.845 11.724 5.1-3.7 9.912-7.795 14.482-11.709-8.428 5.646-16.494 11.277-24.191 16.934l-.088.041c-.266-.026-.34-.019-.36-.012l-.002.002h-.002l-.002.002h-.001v.002c-.43.391-.86.784-1.399 1.186q.702-.587 1.07-1.172c-1.057.645-1.809 1.277-2.238 1.94q-.14.081-.289.163c-.774.336-.957.617-1.14.897-2.117 1.837-4.235 3.674-6.475 5.498a99 99 0 0 0 6.119-5.488c-3.397 2.624-6.45 5.24-9.148 7.88l-.137.104c-.263-.027-.335-.018-.354-.01h-.002l-.002.002v.002h-.002v.004c-.98.955-1.96 1.909-3.048 2.873a32 32 0 0 0 2.705-2.857c-1.985 1.589-3.662 3.163-5.014 4.767q-.228.175-.463.35c-.793.335-.98.616-1.168.898-1.774 1.549-3.549 3.098-5.44 4.657a95 95 0 0 0 5.087-4.659c-3.265 2.529-6.21 5.06-8.827 7.62q-.318.24-.644.482c-.799.328-.993.603-1.188.877-1.126 2.296-2.428 4.392-4.373 5.902 1.873-1.494 3.094-3.597 4.018-5.9-3.434 2.666-6.513 5.33-9.215 8.031a11.8 11.8 0 0 0 2.309-.545 13 13 0 0 1-2.553.631c-.808.324-.997.599-1.188.875-.265.386-.556.773-.89 1.158q.45-.576.55-1.146c-.781.656-1.226 1.301-1.343 1.949l-.004.004c-.333-.004-.33.004-.33.004-.426.395-.851.79-1.387 1.197q.697-.593 1.057-1.187c-1.052.652-1.798 1.295-2.217 1.964q-.139.082-.287.164c-.78.335-.967.613-1.152.89-3.007 2.683-6.012 5.367-9.163 8.05a188 188 0 0 0 8.81-8.043q-6.625 5.447-12.204 10.88l-.098.08c-.273-.002-.334.007-.347.013l-.002.002h-.002v.002c-.42.393-.84.786-1.366 1.189.455-.39.8-.784 1.038-1.174-1.044.653-1.784 1.29-2.204 1.96a14 14 0 0 1-.294.17c-.783.326-.973.602-1.163.88-.303.453-.606.907-1.021 1.355q.577-.676.682-1.343c-.761.652-1.194 1.292-1.309 1.935l-.025.024c-.23-.01-.298.004-.317.015l-.002.002h-.002l-.002.002v.006c-1.743 1.524-3.486 3.05-5.345 4.588a98 98 0 0 0 4.992-4.574c-3.254 2.531-6.19 5.051-8.803 7.597q-.349.265-.705.53c-1.142.662-1.65 1.25-2.154 1.84-.936.9-1.872 1.8-2.92 2.685a21 21 0 0 0 2.58-2.674c-1.733 1.314-3.14 2.618-4.197 3.951l-.088.065c-.254-.032-.327-.021-.348-.01l-.002.002h-.002l-.002.002v.002l-.002.002v.002l.002.002c-1.764 1.544-3.53 3.086-5.414 4.646a97 97 0 0 0 5.059-4.636c-3.264 2.54-6.206 5.071-8.823 7.63q-.332.253-.671.506c-1.139.682-1.642 1.281-2.145 1.88-.603.79-1.205 1.578-1.93 2.331a11 11 0 0 0 1.625-2.289c-1.235 1.085-2.171 2.125-2.777 3.354l-.105.086c-.402-.122-.53.04-.545.06l-.002.002c-1.272 1.682-2.544 3.363-3.93 5.043a74 74 0 0 0 3.654-4.889c-2.167 2.492-4.063 4.833-5.617 7.17l-.053.059c-.269-.003-.328.006-.341.012l-.002.002h-.002v.002c-.962 1.354-1.925 2.708-3.004 4.06a30 30 0 0 0 2.65-4.039c-1.74 1.975-3.14 3.93-4.201 5.877l-.084.092c-.248-.005-.317.014-.336.027l-.002.002-.002.002-.002.002v.006c-1.479 2.134-2.956 4.27-4.525 6.42a139 139 0 0 0 4.195-6.326c-2.872 3.72-5.46 7.361-7.754 10.994q-.39.488-.793.978c-.764.384-.941.668-1.119.953-1.27 2.254-2.54 4.508-3.902 6.782a129 129 0 0 0 3.562-6.704c-2.519 3.95-4.757 7.835-6.71 11.702q-.43.644-.878 1.29c-1.112 1.05-1.584 1.96-2.056 2.872-.68 1.77-1.142 3.664-2.076 5.287.934-1.623 1.398-3.518 1.746-5.182-5.909 8.235-12.198 15.973-14.305 25.82l-.041.063c-.247 0-.318.023-.338.037l-.002.002-.002.002v.002h-.002v.008c-1.608 4.069-2.894 8.306-4.908 12.164 2.014-3.858 3.3-8.096 4.566-12.08-4.765 8.653-9.191 17.224-13.27 25.775l-.058.082c-.25.006-.319.021-.338.03l-.002.001-.002.002h-.001v.004c-.565 1.294-1.153 2.575-1.704 3.875.499-1.274.96-2.547 1.364-3.785-6.172 10.571-12.206 20.947-17.76 31.572-3.271 6.259-5.779 12.914-8.285 19.338.578-.386 1.1-.712 1.496-1.068-.404.39-.934.79-1.567 1.385-.453.8-.492 1.231-.53 1.662 1.542 2.8 1.03 5.282.017 7.773.985-2.423 1.395-4.88-.363-7.603-1.032 4.415-1.718 8.66-2.061 12.81.593-1.42 1.343-2.8 1.982-4.177-.671 1.473-1.414 2.96-2.043 4.54-.435 1.192-.466 1.926-.498 2.66.07.806.059 1.817.116 2.655a18 18 0 0 0-.471-2.48c-.12 2.383.115 4.594.635 6.556.008-.21-.018-.392-.014-.597 0 .366.052.6.043.99-.19 1.689-.128 2.737-.064 3.785 3.251 3.61 4.285 7.802 3.048 13.123-.189 1.025-.134 1.456-.078 1.885 1.035 2.083 2.069 4.165 3.063 6.351a78 78 0 0 0-3.168-5.978c1.502 3.669 3.103 6.993 4.94 10.137q.135.344.27.695c.42 1.625 1.041 2.734 1.665 3.842 2.04 2.794 4.081 5.588 6.119 8.502a174 174 0 0 0-6.111-8.135c2.942 4.377 5.878 8.4 8.81 12.078l.137.207c-.005.246.009.32.02.342l.001.002.002.002.002.002v.002h.006c.909.526 1.817 1.052 2.729 1.7-.907-.619-1.797-1.074-2.645-1.376 1.338 1.09 2.594 1.865 3.83 2.297l.04.035c.005.255.022.324.032.342l.002.002v.002h.002v.002h.004c4.035 1.914 8.03 3.914 12.117 5.708 2.168.952 4.494 1.547 7.159 2.723.841.452 1.273.484 1.705.516 6.802-.212 13.604-.424 21.011-.354 1.035.229 1.465.177 1.895.123 2.905-1.248 5.81-2.497 8.83-3.699a138 138 0 0 0-8.418 3.81c6.04.342 10.516-2.185 14.35-6.035l.449-.156c2.364-.81 4.47-1.532 5.93-2.93 2.818-2.697 5.272-5.774 7.876-8.695l-1.542-.818c.514.272 1.029.545 1.84.746.737-.71 1.177-1.349 1.269-2.035-.635.198-1.182.41-1.686.627a24 24 0 0 1 1.96-.75c.776-.646.93-1.216 1.083-1.787.236-.537.473-1.074.8-1.625a5.2 5.2 0 0 0-.475 1.537c.739-.96 1.198-1.842 1.355-2.756q.149-.173.316-.348c1.125-1.02 1.613-1.94 2.1-2.861 0 0-.181-.251-.228-.426.048.174.246.422.537.36.461-.634.644-1.206.564-1.647q.135-.104.295-.22c5.641-7.482 10.905-14.52 15.645-21.895 2.655-4.133 5.865-6.09 10.625-5.14 3.919.78 7.784 1.833 11.62 2.415-3.947-1.808-7.853-3.237-11.734-4.734 3.88 1.497 7.787 2.925 12.053 4.806.804.456 1.236.49 1.67.522 1.177-.072 2.471-.474 3.559-.295-1.086-.174-2.363.263-3.407.625 3.342 1.539 6.52 2.778 9.723 3.95 11.567 4.231 23.122 8.497 34.719 12.646 15.372 5.499 30.793 10.858 46.166 16.357 8.926 3.193 17.768 6.626 26.703 9.795 9.482 3.364 18.947 6.816 28.574 9.719 7.89 2.38 16.006 4.01 23.953 5.629-5.771-2.292-11.44-4.35-17.183-6.168 5.744 1.817 11.412 3.875 17.503 6.236.825.438 1.262.467 1.698.494 4.751-2.094 8.957-.77 13.379 2.48 1.512.447 2.568.475 3.625.503 1.067-.178 2.163-.52 3.23-.696.633-.104 1.259-.165 1.856-.062 3.96.685 7.838 1.843 12.248 3.236 1.554.455 2.61.483 3.668.512 3.334-.127 6.698-.591 9.998-.309 6.684.573 13.334 1.55 20.548 1.961 1.169-8.623 1.788-16.845 2.397-24.931-1.833-.089-3.086-.07-4.32-.221a6989 6989 0 0 1-33.72-4.164c-8.46-1.072-17.163-1.298-25.314-3.526-17.171-4.692-34.13-10.21-51.027-15.84-16.867-5.618-33.59-11.674-50.3-17.75-11.765-4.277-23.354-9.035-35.112-13.331-6.671-2.438-13.515-4.41-20.3-6.53-11.016-3.44-21.887-7.53-33.108-10.072-15.95-3.613-25.03 1.192-34.143 13.129-7.722 10.115-14.673 20.863-21.357 31.707-3.677 5.965-8.235 10.907-14.858 12.031-6.226 1.057-12.958.603-19.236-.506-6.836-1.207-9.223-7.703-12.275-13.148-5.883-10.495-5.553-22.084-3.346-32.873 1.788-8.741 7.258-16.814 11.57-24.932 5.854-11.019 12.242-21.752 18.239-32.697 3.028-5.528 5.637-11.285 8.554-16.877 2.488-4.768 4.86-9.633 7.781-14.13 7.44-11.454 14.724-23.053 22.91-33.962 5.848-7.791 12.661-14.98 19.762-21.676 8.27-7.797 17.351-14.727 26.022-22.103 5.402-4.596 10.574-9.469 16.068-13.95 6.68-5.448 13.662-10.525 20.383-15.925 7.588-6.097 14.79-12.7 22.596-18.494 10.93-8.115 22.253-15.698 33.424-23.487a4618 4618 0 0 1 22.414-15.533c9.02-6.21 18.416-11.938 27.013-18.685 11.853-9.302 24.341-8.32 31.453-2.34 7.61 6.399 16.232 10.483 24.688 15.123 4.39 2.41 8.724 5.631 13.46 6.557 9.887 1.93 19.943.03 29.165-3.41 10.524-3.927 20.474-9.437 30.557-14.49 6.736-3.378 13.158-7.381 19.916-10.712 10.794-5.32 21.767-10.28 32.63-15.46 6.585-3.141 13.126-6.37 19.649-9.637 10.124-5.07 20.584-9.6 30.232-15.46 13.729-8.336 24.983-19.794 36.442-30.99 6.885-6.727 14.312-13.332 22.584-18.105 12.085-6.974 24.98-12.647 37.861-18.096 6.97-2.948 14.517-4.872 21.992-6.195 9.36-1.657 19.095-1.41 28.342-3.455 12.413-2.745 23.88 1.867 35.703 3.191 9.96 1.116 19.636 4.698 29.46 7.1 6.973 1.705 14.006 3.172 20.972 4.91 9.146 2.282 18.204 4.926 27.386 7.045 10.146 2.34 20.46 3.967 30.569 6.441 13.308 3.258 26.428 7.285 39.742 10.516 9.677 2.348 19.47 4.475 29.334 5.726 10.198 1.294 20.447 1.231 29.67-4.86 15.789-10.43 24.414-24.78 24.635-43.878.075-6.498-.041-13 .021-19.498.2-20.8 12.114-35.016 27.46-46.66 9.733-7.386 21.577-10.924 33.632-12.57 8.916-1.218 18.004-1.301 27.025-1.588 5.335-.17 10.686.31 16.032.38 4.215.056 8.453-.345 12.646-.054 7.218.501 14.397 1.528 21.613 2.074 14.643 1.108 29.356 1.54 43.936 3.172 19.224 2.152 38.384 4.974 57.508 7.916 15.17 2.334 30.24 5.317 45.369 7.936 4.336.75 8.737 1.125 13.072 1.88 3.017.526 5.955 1.487 8.961 2.098 2.078.422 4.243.434 6.313.883 6.053 1.313 12.05 2.905 18.125 4.105 6.741 1.333 13.594 2.12 20.308 3.567 10.693 2.305 21.328 4.882 31.953 7.488 14.123 3.464 28.246 6.937 42.305 10.648 11.09 2.928 22.084 6.217 33.117 9.354 8.152 2.318 16.409 4.327 24.424 7.049 11.766 3.995 23.317 8.614 35.033 12.76 11.177 3.954 22.61 7.232 33.637 11.554 12.993 5.093 25.673 10.984 38.486 16.535 12.614 5.465 25.24 10.903 37.83 16.418 13.416 5.877 26.853 11.708 40.174 17.793 10.064 4.598 20.032 9.423 29.908 14.412 8.347 4.217 16.457 8.896 24.752 13.217 7.661 3.99 15.618 7.445 23.11 11.723 14.408 8.227 28.438 17.125 42.935 25.185 4.353 2.42 4.108 5.526 3.453 8.96-.788 4.137-2.898 8.077-3.334 12.218-1.086 10.327-2.337 20.75-1.947 31.074.217 5.723 2.827 11.758 5.713 16.891 5.742 10.213 13.143 19.13 23.248 25.658 7.734 4.996 14.714 11.179 22.52 16.045 12.3 7.668 24.898 14.88 37.578 21.91 16.555 9.18 33.185 18.244 50.023 26.891 13.887 7.131 28.11 13.612 42.21 20.328 13.432 6.4 26.793 12.968 40.378 19.03 15.235 6.797 30.685 13.11 46.041 19.636 7 2.975 13.942 6.098 21.01 8.902 9.57 3.798 19.255 7.306 28.855 11.032 6.474 2.513 12.83 5.34 19.338 7.756 9.517 3.53 19.075 6.969 28.711 10.158 7.601 2.515 15.36 4.551 23.024 6.88 7.523 2.287 15.013 4.68 22.519 7.02 7.442 2.32 14.866 4.697 22.334 6.93 7.458 2.23 14.96 4.312 22.443 6.455 3.088.884 6.178 1.752 9.266 2.633 5.755 1.64 11.472 3.435 17.273 4.89 7.252 1.82 14.537 3.545 21.874 4.971 8.015 1.559 16.091 3.754 24.17 3.885 29.065.469 58.141.266 87.214.139 9.654-.043 19.307-.887 28.96-.881 10.107.006 20.21.736 30.32.896 18.115.287 36.213-1.026 54.025 4.764 9.984 3.245 9.927 8.517 5.193 15.11-3.592 5.003-9.187 6.003-14.87 6.081-13.784.189-27.603.802-41.34.045-7.868-.433-15.748-2.74-23.366-5.053-10.13-3.074-20.451-5.216-30.914-5.214-15.044.002-30.105.926-45.125 1.947-6.096.414-12.163 1.87-18.139 3.295-9.794 2.335-19.47 5.167-29.257 7.533-7.434 1.796-14.97 3.173-22.452 4.773-4.952 1.06-9.889 2.185-14.834 3.278-6.389 1.412-12.805 2.71-19.16 4.263-5.863 1.434-11.631 3.258-17.492 4.702-8.71 2.144-17.498 3.974-26.17 6.257-1.673.44-3.22 2.146-4.373 3.621-2.713 3.47-5.15 7.155-7.703 10.75-2.102 2.961-5.012 2.632-8.07 2.102-7.42-1.286-14.823-3.175-22.297-3.555-20.704-1.052-41.364.15-61.918 2.903-2.919.39-5.795 1.079-8.707 1.529-9.712 1.502-19.423 3.026-29.152 4.41-6.979.993-13.991 1.743-20.981 2.66-8.28 1.088-16.561 2.173-24.824 3.381-8.66 1.266-17.297 2.669-25.942 4.03-1.771.278-3.522.7-5.298.939-8.447 1.133-17.122 1.37-25.303 3.508-17.428 4.552-35.045 2.484-52.506 2.111-11.633-.248-23.211-3.563-34.787-5.658-5.146-.931-10.254-2.12-15.326-3.403-5.488-1.386-10.857-3.28-16.38-4.486-10.38-2.266-20.89-3.948-31.24-6.34-9.613-2.222-19.038-5.25-28.632-7.568-12.063-2.913-24.201-5.518-36.33-8.148-7.026-1.524-14.135-2.679-21.137-4.295-5.823-1.345-11.502-3.309-17.324-4.657-6.044-1.399-12.21-2.27-18.274-3.59-6.208-1.35-12.334-3.074-18.54-4.435-7.515-1.648-15.08-3.069-22.616-4.621-7.017-1.446-13.997-3.97-21.043-4.162-10.35-.281-20.818.562-31.096 1.955-6.328.857-12.87 2.747-18.47 5.752-8.221 4.412-15.97 9.866-23.385 15.57-6.608 5.084-13.186 10.52-18.545 16.846-10.753 12.69-25.116 18.257-40.488 18.332-70.97.347-141.947-.323-212.92-.735-13.681-.079-27.359-.67-41.04-.955-17.977-.373-35.956-.911-53.935-.962-47.329-.136-94.657-.09-141.986.013-5.401.012-8.847-1.938-10.426-7.174s-3.455-10.388-4.95-15.648c-2.688-9.463-15.364-19.237-25.21-19.238-15.204-.002-30.413.26-45.61-.07-16.22-.353-32.426-1.41-48.646-1.89-17.309-.51-34.626-.773-51.941-1.015-10.042-.14-20.088.03-30.131-.035-47.982-.312-95.964-.64-143.946-1.03-2.609-.02-5.212-.895-7.822-.92-41.437-.39-82.874-.725-124.312-1.027-11.279-.082-22.558-.013-34.176-.013l1.457-26.385-27.879-1.742c-1.678 27.766-3.338 55.251-5.016 82.998l27.967 1.74 1.631-28.67c-.019-2.076.837-2.832 1.994-3.088-1.087.253-1.813.99-1.543 2.985 17.713.18 34.974.56 52.237.728 40.579.396 81.16 1.078 121.736.77 10.925-.083 21.678 2.011 32.75.718 9.96-1.163 20.222.47 30.351.504 25.14.085 50.278-.039 75.295-.45-.892-.516-1.71-.955-2.52-1.16.83.207 1.725.657 2.923 1.218 1.88.394 3.237.356 4.591.318.944-.426 1.895-1.149 2.834-1.441-.92.298-1.792 1.042-2.396 1.552 2.71.336 4.986.783 7.254.746 7.788-.126 15.574-.42 23.072-.945a575 575 0 0 0-27.101-1.484c8.94.274 17.874.766 27.568 1.46 7.118.288 13.48.303 19.842.319 1.733-.305 3.465-.871 5.199-.875-1.734.004-3.466.571-4.977 1.246 13.153.758 26.08 1.273 39.012 1.469 5.266.08 10.543-.776 15.815-.774 5.438.003 10.873.656 16.316.809 14.43.405 28.862.725 43.295.998 2.676.05 3.655.887 4.629 3.738 2.767 8.104 5.633 16.368 9.93 23.71 6.678 11.41 18.588 14.31 30.65 14.433 41.143.416 82.29.235 123.437.283 1.333.002 2.666-.006 3.998.014 12.262.184 24.525.371 36.676.181a21 21 0 0 0-1.875-.689c.705.203 1.456.45 2.332.764 23.194.73 45.819 1.01 68.446 1.289.923-.34 1.844-.831 2.767-1.18-.87.362-1.675.9-2.31 1.322 12.189.1 23.92.057 35.654.014-.002-.391-.003-.783-.477-1.484a722 722 0 0 0-31.132-.254c10.218-.136 20.44-.063 31.128-.041 1.773.051 3.078.087 4.51.41 6.558.454 12.989.621 20.13 1.123 3.764.342 6.818.347 9.872.353 1.342-.284 2.683-.77 4.025-.898-1.34.133-2.662.665-3.855 1.303 11.046.43 21.922.456 32.799.482-.003-.412-.006-.825-.486-1.549-9.612-.311-18.75-.355-27.883-.267 9.134-.088 18.271-.043 27.873-.043 1.236.24 2.292.529 3.365.888a9.5 9.5 0 0 0-2.889-.578c.014.724.017 1.137.426 1.635 1.498.003 2.591-.082 3.729-.512-.31-.161-.624-.3-.938-.425.448.159.878.283 1.365.496 2.409.449 4.434.48 6.46.513a6.4 6.4 0 0 1 1.122-.256 2.06 2.06 0 0 0-1.043.551c.676.1 1.271-.095 1.77-.562a2.4 2.4 0 0 0-.42-.02c.26-.017.544-.022.89 0 33.24.223 65.912.194 98.585.164 4.783-1.216 9.519-2.687 14.36-3.603-4.841.916-9.576 2.387-13.929 3.715 6.218-.773 12.025-1.538 17.784-2.577 4.29-.773 8.976-1.044 12.687-3.03 10.417-5.578 21.553-10.005 29.418-19.768 5.173-6.422 11.77-11.698 17.363-17.516-.741.279-1.439.512-2.068.78.67-.287 1.45-.552 2.338-.891 1.127-.674 1.62-1.266 2.113-1.858 1.047-3.311 3.131-5.265 6.082-6.277-2.928 1.013-4.942 2.965-5.726 6.267 3.448-2.334 6.541-4.659 9.248-7.013h.01c.39.033.382.023.382.023.826-.937 1.516-2.295 2.42-2.988-.892.693-1.524 2.048-2.045 2.967 3.822-1.346 7.268-2.674 10.717-3.992 2.59-.99 5.185-1.972 7.563-3.217l.53-.104c2.005.165 3.373.096 4.741.026 1.507-.479 3.054-1.41 4.531-1.54-1.47.132-2.967 1.075-4.076 1.655 4.393.375 8.336.576 12.268.904 7.484.625 14.961 1.324 22.343 1.64-.577-.575-1.062-1.042-1.568-1.195.512.154 1.04.628 1.957 1.262 1.537.457 2.586.496 3.637.535 3.965-2.511 6.82.384 10.392 2.448 1.511.457 2.56.507 3.608.556.767-.243 1.592-.774 2.314-.797-.72.027-1.53.595-2.172 1.137 6.071 1.7 12 3.06 17.866 4.049-.505-.76-.909-1.501-1.397-1.844.498.344.952 1.096 1.715 1.91.812.472 1.242.508 1.674.543 1.405.266 2.954.67 4.385.96-1.424-.246-2.843-.48-4.221-.616 3.743 1.038 7.323 1.732 10.826 2.074-.291-.081-.573-.126-.863-.203.43.11.786.148 1.226.268 1.175.456 1.91.496 2.645.535 1.291.266 2.736.667 4.054.957-1.31-.247-2.618-.48-3.878-.615 3.417 1.023 6.66 1.704 9.826 2.043-.38-.115-.747-.181-1.125-.287.53.142.963.198 1.512.357 1.512.45 2.563.488 3.613.527 3.947-2.406 6.745.753 10.39 2.457 1.514.446 2.564.486 3.614.526 1.976.371 3.952.743 6.314 1.517.817.441 1.249.479 1.68.518 1.408.265 2.947.666 4.379.955-1.419-.242-2.833-.471-4.201-.604 3.75 1.03 7.322 1.711 10.81 2.047-.065-.018-.128-.027-.193-.045.18.048.329.062.511.112.834.443 1.266.476 1.698.51 1.287.268 2.72.672 4.033.964-1.306-.248-2.606-.483-3.863-.62 3.414 1.03 6.658 1.719 9.824 2.064-.293-.09-.576-.139-.867-.223.432.12.783.163 1.226.293 1.173.46 1.908.508 2.64.555 1.175.267 2.51.668 3.714.96-1.2-.252-2.395-.484-3.545-.624 3.082 1.015 5.996 1.694 8.836 2.035-.574-.191-1.128-.312-1.696-.479.73.206 1.33.303 2.102.545 1.851.453 3.222.501 4.592.549 1.16.27 2.452.672 3.637.965-1.176-.25-2.347-.485-3.475-.625 3.078 1.026 5.995 1.712 8.832 2.062-.303-.101-.593-.16-.895-.255.427.129.774.18 1.213.322.83.433 1.263.463 1.696.494 1.413.269 2.96.672 4.396.965-1.429-.246-2.853-.48-4.236-.615 3.743 1.035 7.328 1.722 10.826 2.066-.078-.022-.153-.033-.23-.055.194.052.352.068.548.121.836.437 1.267.465 1.7.493.675-.267 1.44-.87 2.03-.813-.59-.055-1.345.568-1.87 1.168 6.738 1.727 13.317 3.099 19.81 4.121-5.994-2.009-11.89-3.708-17.824-5.27 5.934 1.562 11.83 3.262 18.143 5.335.836.446 1.269.48 1.7.513 1.412.266 2.968.67 4.405.96-1.426-.245-2.849-.475-4.225-.608 3.75 1.034 7.322 1.715 10.815 2.05-.175-.048-.345-.073-.52-.12.312.08.565.105.881.19 1.175.452 1.911.487 2.647.522 1.288.267 2.724.67 4.039.961-1.308-.248-2.611-.481-3.87-.619 3.416 1.026 6.661 1.71 9.821 2.053-.354-.107-.695-.17-1.047-.27.495.135.898.188 1.408.336 1.182.444 1.917.48 2.653.514 1.292.269 2.733.673 4.052.967-1.314-.25-2.622-.484-3.888-.621 3.412 1.028 6.66 1.71 9.824 2.052-.302-.091-.592-.142-.893-.228.442.121.8.166 1.254.299 1.182.448 1.918.486 2.653.523.918-.194 1.891-.665 2.767-.65-.874-.01-1.83.498-2.613 1 4.387 1.446 8.571 2.818 12.863 3.58 8.315 1.476 16.689 2.61 24.936 3.527-.715-.595-1.328-1.025-1.971-1.23.649.205 1.3.643 2.334 1.295 1.202.456 1.938.49 2.674.523 5.352.095 10.708.327 16.058.258-5.35.069-10.705-.164-15.859.103 6.39 1.108 12.586 2.526 18.77 2.47 15.527-.143 31.125 1.503 46.572-1.813 7.98-1.714 16.138-2.59 24.191-3.983 2.769-.479 5.461-1.375 7.936-2.375.132-.01.233-.032.367-.04 1.014.215 1.446.163 1.877.11 3.93-1.13 7.805-2.55 11.805-3.326-4 .777-7.875 2.196-11.358 3.444 6.277-.56 12.146-.998 17.922-1.983 5.947-1.013 11.803-2.558 17.436-4.158-1.049-.287-1.968-.54-2.825-.58.874.038 1.855.284 3.149.545 1.018.2 1.447.147 1.877.096 3.146-1.995 6.47-3.121 10.119-3.434.972-.083 1.99-.067 3.012-.035-1.023-.045-2.033-.05-3.012.035-3.535.305-6.782 1.463-9.676 3.541 5.835-.892 11.225-1.891 16.338-3.182-.457-.082-.902-.13-1.352-.189.604.066 1.171.058 1.793.16 3.074.215 5.428.167 7.782.12 2.015-.8 3.976-1.971 6.033-2.483-2.05.514-3.961 1.699-5.584 2.596 15.992-1.664 31.547-3.348 47.07-5.284 3.565-.444 7.021-1.755 10.252-2.968-2.744-.178-5.33-.33-7.847-.18 2.53-.152 5.18-.003 8.244.156 1.72.224 2.771.17 3.822.117 2.45-.797 4.879-2.108 7.346-2.502-2.46.396-4.84 1.719-6.895 2.62 8.332-.208 16.21-.749 24.092-.795 7.539-.045 15.08.425 22.531.326-2.376-1.036-4.661-1.73-6.947-2.424-1.104.01-2.208.02-4.186-.006-9.762-.008-18.66-.196-27.535.17 8.875-.366 17.772-.178 27.123-.234 1.343-.164 2.427-.312 3.477-.315a10.2 10.2 0 0 0-2.604.35c1.516.054 2.62.045 3.65-.299 2.36 1.028 4.647 1.72 7.385 2.822 1.19.438 1.925.469 2.66.498 1.395.14 2.946.418 4.368.582-1.414-.113-2.824-.215-4.188-.215 3.692.714 7.21 1.062 10.639 1.075.194.035.347.035.543.072 1.528.46 2.577.502 3.627.545.886.01 1.772.021 2.773.15-.926-.096-1.804-.035-2.6.19 1.42.343 2.666.347 3.848.029q.157.033.317.07c.813.423 1.246.454 1.677.485 2.982-.792 6.548-.873 9.051-2.246-2.5 1.378-6.05 1.5-8.883 2.62 6.867 1.396 12.547-.461 16.754-5.87 2.793-3.59 5.25-7.442 7.967-11.094.923-1.241 2.012-2.88 3.32-3.229 10.79-2.88 21.668-5.425 32.48-8.224a334 334 0 0 0 20.974-6.188l.388-.05c.989.193 1.416.137 1.846.082.098-.266.156-.707.285-.84-.124.135-.135.588.125.953 8.072-1.856 15.743-3.822 23.164-6.06l.567-.108c1.007.195 1.439.143 1.869.092.313-.442.567-1.156.924-1.391-.352.237-.562.963-.522 1.5 7.103-1.564 13.808-3.235 20.276-5.191l.454-.067c.996.208 1.426.153 1.856.098 2.182-.68 4.364-1.359 6.676-1.98a70 70 0 0 0-6.274 2.095c3.755-.86 7.12-1.83 10.26-3.068l.498-.106c.984.187 1.415.13 1.844.074 1.7-.652 3.399-1.303 5.213-1.906a46 46 0 0 0-4.824 2.018c3.063-.858 5.759-1.82 8.238-3.037q.266-.071.537-.139c.98.186 1.408.132 1.838.078 1.771-.904 3.542-1.809 5.68-2.754.886-.442 1.453-.847 2.125-1.05-.629.19-1.13.558-1.409.95q-.194.06-.42.12c-2.434.926-4.204 1.83-5.556 2.845 6.162-.88 11.905-1.872 17.373-3.164-3.414-.382-6.553-.464-9.692-.546-.27.156-.54.31-.925.47.329-.185.576-.409.771-.717 3.293.328 6.431.412 10.31.766 5.438.291 10.133.31 14.829.328.998-.076 2.23-.065 3.273-.125-1.059.109-2.097.246-3.08.479 2.724.116 5.256-.12 7.524-.639-.211-.007-.396.016-.604.012.382 0 .63-.048 1.033-.04 2.414.275 4.135.294 5.856.311 3.099-.235 6.356-1.145 9.332-.855-2.973-.284-6.207.666-9.123 1.218 10.987.285 20.794 4.554 30.998 7.106 7.18 1.796 14.546 2.846 21.728 3.842-.736-.599-1.394-1.061-2.068-1.36.694.302 1.43.776 2.47 1.426 15.208.407 29.911.36 44.616.313 2.271-1.03 4.472-2.588 6.799-3.21-2.322.624-4.48 2.195-6.432 3.333 4.798-.838 9.327-1.486 13.645-2.82 13.781-4.26 24.354-12.4 28.146-26.833 1.644-6.257 2.133-13.141 1.531-19.59-.862-9.236-6.114-17.021-14.164-21.162-7.822-4.023-16.756-5.918-25.267-8.537-1.967-.605-4.199-.349-6.235-.144 3.775 1.656 7.496 2.911 11.17 4.293-3.674-1.382-7.395-2.637-11.558-4.36-1.514-.445-2.565-.48-3.616-.515-1.648.282-3.306.817-4.949.908 1.64-.096 3.276-.673 4.752-1.291-5.293-.78-10.383-1.366-15.486-1.535-13.595-.452-27.197-1.029-40.795-.996-20.167.048-40.333.656-60.5.851-5.252.051-10.523-.935-15.764-.77-13.024.413-26.03 1.428-39.054 1.774-7.073.188-14.17-.497-21.163-.402 2.534.518 5.044 1.078 7.543 1.51-2.551-.44-5.154-1.02-7.86-1.57-.846-.477-1.28-.506-1.712-.536-.93.268-1.94.876-2.81.881.868-.01 1.857-.656 2.636-1.22-2.658-1.1-5.119-1.957-7.633-2.606-15.944-4.116-31.91-8.146-47.841-12.317-2.168-.567-4.106-1.977-6.262-2.629-8.042-2.43-16.087-4.877-24.215-6.994-8.265-2.152-16.628-3.923-24.88-5.517 1.283.69 2.531 1.344 3.782 1.918-1.308-.586-2.656-1.25-4.144-1.985-1.163-.453-1.899-.496-2.633-.539-.924-.28-1.977-.693-2.926-.998.944.268 1.881.515 2.78.67-2.406-1.03-4.664-1.73-6.858-2.103.519.224 1.018.371 1.53.564-.638-.232-1.168-.353-1.848-.629-.815-.427-1.246-.462-1.678-.498-1.037-.27-2.202-.674-3.262-.969 1.053.254 2.1.49 3.108.635-2.742-1.024-5.332-1.712-7.852-2.07.371.14.728.224 1.096.351-.494-.164-.898-.234-1.412-.42-.818-.437-1.25-.475-1.682-.513-.921-.274-1.965-.683-2.91-.983.94.26 1.874.502 2.772.649-2.405-1.024-4.671-1.713-6.883-2.07.44.189.865.308 1.3.474-.56-.206-1.023-.304-1.617-.545-.8-.44-1.231-.481-1.662-.521-2.08-.282-4.241-.33-6.285-.723 2.037.377 4.17.36 6.14.377-4.716-1.788-9.285-3.242-13.863-4.67-3.013-.94-6.038-1.841-8.988-2.426 4.994 2.336 9.849 4.544 14.873 6.25-5.024-1.706-9.877-3.914-15.19-6.316-.819-.44-1.25-.48-1.68-.52-.377.215-.856.686-1.136.657.28.028.75-.463.99-.987-11.407-4.686-22.67-9.041-33.869-13.06 2.86 1.653 5.609 3.087 8.463 4.261-2.854-1.174-5.602-2.609-8.779-4.332-.811-.444-1.243-.483-1.674-.521-2.349-.635-4.757-1.105-7.035-1.934 2.278.83 4.686 1.299 6.887 1.604-11.409-4.689-22.667-9.047-33.885-13.059.535.801.96 1.539 1.518 1.887-.563-.349-1.022-1.095-1.834-1.959-.789-.46-1.22-.5-1.65-.541-.611-.254-1.33-.635-1.958-.908a16 16 0 0 0 1.824.588c-1.736-1.02-3.338-1.72-4.912-2.094.517.31 1.02.533 1.53.783-.627-.298-1.152-.478-1.846-.855-.774-.446-1.203-.493-1.633-.54-2.604-.86-5.298-1.516-7.797-2.615 2.5 1.1 5.193 1.756 7.682 2.29-4.215-2.965-8.11-7.313-12.465-7.84-6.382-.773-11.51-3.687-17.016-6.06-9.097-3.924-18.09-8.094-27.097-11.866q-.712-.403-1.426-.81c-.734-.771-1.311-.915-1.889-1.06-1.72-.629-3.416-1.31-5.15-1.908 1.686.537 3.38 1.073 5.025 1.573-1.07-.962-1.958-1.713-2.974-2.194-16.501-7.8-33.058-15.484-49.518-23.369-10.631-5.092-21.109-10.504-31.69-15.703-6.256-3.075-12.572-6.031-18.843-8.728l-.922-.59c-.4-.76-.68-.936-.959-1.114-5.55-2.65-11.421-4.787-16.59-8.042 5.169 3.255 11.041 5.394 16.502 7.707-6.406-4.284-12.72-8.237-19.04-12.176-13.617-8.484-27.59-16.451-40.757-25.58-13.35-9.256-23.954-20.7-21.15-39.047.096-.629-.138-1.308-.567-1.871-.75 2.036-1.628 4.022-1.955 5.986.329-1.98 1.221-4.033 2.022-6.375.449-1.532.483-2.584.517-3.635-.24-1.774-.998-3.68-.732-5.326-.264 1.645.514 3.54 1.08 5.147 1.776-5.092 3.5-9.942 4.537-14.936.801-3.857.743-7.894.758-11.656-2.342 7.16-4.522 14.09-6.309 21.119 1.787-7.03 3.966-13.96 6.29-21.488.242-1.3.195-2.035.148-2.772-.595-.56-1.512-1.037-1.863-1.66.353.617 1.28 1.053 1.972 1.273-1.802-8.35-5.006-15.452-12.662-19.22l-.318-.387c-1.373-1.442-2.611-2.239-3.85-3.035-.462-.093-.925-.185-1.379-.377.449.161.885.187 1.276.076-.695-.426-1.29-.563-1.895-.414l-.02-.014c.017-.2.005-.262-.005-.28l-.002-.003-.002-.002-.002-.002h-.002v-.002h-.004v.002h-.002c-1.23-.586-2.458-1.172-3.713-1.853a31 31 0 0 0 3.621 1.51c-2.17-1.34-4.263-2.388-6.328-3.131a33 33 0 0 1-.656-.446c-.738-.775-1.311-.926-1.885-1.076-2.316-1.125-4.634-2.25-6.965-3.539a58 58 0 0 0 6.856 3.203c-3.026-1.78-5.943-3.227-8.826-4.334l-.028-.015a3 3 0 0 0-.039-.342h-.002c-1.323-.687-2.647-1.375-4.244-2.48a1.35 1.35 0 0 0-.738-.532c-2.931-1.535-5.862-3.071-8.797-4.748a111 111 0 0 0 8.678 4.416c-4.02-2.42-7.92-4.511-11.805-6.26l-.074-.045c-.008-.269-.02-.328-.026-.341v-.004h-.002c-.871-.388-1.744-.778-2.634-1.258.864.403 1.715.71 2.54.926-1.564-1.01-3.05-1.74-4.527-2.16q-.252-.182-.508-.38c-.705-.8-1.282-.955-1.859-1.11-4.172-1.784-8.38-3.485-12.492-5.397a151 151 0 0 0 12.361 5.07c-5.402-3.022-10.67-5.717-15.892-8.082 1.052 1.085 1.973 2.115 3.054 2.76-1.086-.646-2.042-1.691-3.363-2.893-1.46-1.13-2.562-1.798-3.666-2.465-2.635-.85-5.422-1.392-7.88-2.601 2.458 1.209 5.246 1.752 7.745 2.275-10.426-5.935-20.572-11.839-31.062-17.049-6.694-3.324-13.898-5.622-20.809-8.046.425.56.781.996 1.172 1.3-.406-.31-.822-.771-1.478-1.43-1.48-1.111-2.587-1.76-3.696-2.41-.418-.04-.838-.081-1.332-.218.436.094.852.068 1.221-.088-.727-.355-1.345-.403-1.945-.172l.095.045a7 7 0 0 1-.402-.178c-1.427-1.073-2.53-1.735-3.635-2.398-2.842-.815-5.822-1.318-8.504-2.496 2.682 1.178 5.662 1.681 8.371 2.164-7.044-3.439-13.968-6.522-20.867-9.657-11.65-5.293-23.232-10.737-34.941-15.896-10.04-4.424-20.195-8.595-30.342-12.772-7.562-3.112-15.194-6.054-22.752-8.724.757.824 1.428 1.555 2.184 2.033-.768-.48-1.496-1.221-2.545-2.105-1.136-.466-1.868-.512-2.602-.557-.79-.278-1.703-.688-2.515-.99.806.266 1.608.512 2.373.668-2.072-1.024-4.002-1.724-5.88-2.1.496.249.974.417 1.462.627-.612-.254-1.117-.392-1.778-.7-.796-.446-1.225-.495-1.654-.544-.086.11-.206.308-.27.357.061-.056.163-.3.14-.695-8.049-3.173-15.987-6.058-23.89-8.637q-1.062-.46-2.128-.931c-1.085-.793-1.971-.929-2.858-1.065-2.841-.67-5.785-1.062-8.502-2.068-4.884-1.809-9.633-3.985-14.822-6.408-.815-.444-1.245-.487-1.676-.53-1.882-.557-3.764-1.113-5.674-1.761a66 66 0 0 0 5.53 1.421c-3.368-1.3-6.618-2.323-9.83-3.048q-.586-.248-1.176-.516c-1.083-.799-1.969-.938-2.854-1.076-1.176-.275-2.507-.683-3.713-.983 1.202.26 2.397.502 3.55.649-3.08-1.031-5.993-1.728-8.833-2.086.574.194 1.128.318 1.696.488-.723-.208-1.321-.31-2.085-.553-1.51-.45-2.558-.499-3.607-.548-.913-.27-1.952-.672-2.889-.965.93.254 1.854.491 2.74.636-2.408-1.013-4.669-1.7-6.872-2.054.432.185.85.3 1.279.463-.555-.202-1.011-.298-1.598-.534-.806-.437-1.237-.475-1.668-.513-1.047-.274-2.238-.682-3.312-.98 1.07.26 2.136.5 3.162.646-2.742-1.024-5.333-1.715-7.854-2.072.519.195 1.019.32 1.532.492-.657-.21-1.197-.314-1.893-.56-1.164-.45-1.896-.501-2.629-.552-4.985-1.34-9.969-2.682-15.332-4.443-.809-.461-1.241-.502-1.672-.543-1.04-.274-2.209-.682-3.273-.98 1.053.256 2.102.496 3.107.642-2.746-1.03-5.324-1.723-7.836-2.084.389.147.762.238 1.147.371-.512-.17-.932-.246-1.465-.44-.815-.438-1.246-.475-1.678-.51-1.176-.277-2.5-.685-3.703-.985 1.197.26 2.389.5 3.537.648-3.078-1.03-5.991-1.725-8.826-2.088.506.171.993.277 1.494.43-.646-.189-1.18-.277-1.857-.494-1.177-.433-1.912-.47-2.647-.506-3.02-.63-6.067-1.155-9.056-1.908-6.623-1.668-13.217-3.45-20.235-5.592-.843-.438-1.274-.468-1.705-.498-1.406-.268-2.94-.67-4.369-.961 1.415.245 2.826.48 4.191.617-3.75-1.038-7.322-1.732-10.82-2.082.12.034.234.052.354.084-.237-.063-.433-.083-.672-.148-.825-.444-1.256-.477-1.688-.51-4.745 2.098-8.795-.174-13.351-2.469-1.18-.451-1.914-.492-2.649-.533-1.416-.27-2.982-.673-4.426-.967 1.437.25 2.87.484 4.256.623-3.746-1.033-7.323-1.723-10.81-2.07.305.085.6.133.904.213-.446-.113-.811-.155-1.268-.278-1.187-.443-1.92-.48-2.656-.517-1.533-.265-3.203-.664-4.76-.953 1.547.242 3.091.473 4.59.607-4.08-1.032-7.99-1.719-11.808-2.058.086.021.168.033.254.054-.203-.049-.37-.064-.575-.115-.845-.435-1.278-.463-1.71-.49-.195.188-.422.538-.594.62.168-.089.375-.486.431-.972a280 280 0 0 0-22.81-4.125c7.484 1.944 14.883 3.55 22.29 5.114-7.407-1.564-14.807-3.17-22.653-5.178-1.183-.442-1.918-.479-2.653-.514-4.788 2.334-8.885.303-13.392-2.457-1.511-.448-2.562-.488-3.612-.527-2.835 1.456-5.386.84-7.945-.19 2.49 1.012 4.993 1.528 7.758-.158-4.422-1.026-8.656-1.704-12.803-2.037 1.5.547 2.952 1.297 4.4 1.93-1.569-.671-3.114-1.404-4.818-1.992-2.2-.46-3.895-.511-5.59-.563-4.288-.678-8.575-1.357-13.33-2.455-1.201-.459-1.937-.496-2.672-.535-.322.241-.687.695-.98.795.29-.107.634-.609.818-1.147-8.411-1.701-16.66-3.051-24.82-4.047 8.005 1.989 15.92 3.634 23.847 5.211-7.927-1.577-15.842-3.223-24.289-5.273-3.21-.467-5.89-.517-8.57-.567-4.884-.519-9.767-1.037-14.893-1.753 4.989.686 9.902 1.15 14.688 1.396-6.428-1.025-12.65-1.694-18.773-2.006l.65.104-1.07-.168c-2.214-.468-3.908-.515-5.604-.56-5.116-.118-10.242-.097-15.346-.423 5.104.326 10.228.305 15.133.055-7.094-1.04-13.975-1.711-20.758-2.03 1.315.623 2.573 1.252 3.829 1.632-1.291-.383-2.648-1.027-4.264-1.694-2.89-.45-5.245-.482-7.6-.514-2.069.001-4.134-.055-6.205-.025 2.02-.082 4.035-.19 5.996-.344a472 472 0 0 0-31.646-2.011c-.177-.032-.325-.037-.502-.069-1.898-.47-3.27-.51-4.643-.549-3.202.291-6.404.815-9.607.834 3.203-.019 6.405-.543 9.402-1.207-4.624-.791-9.039-1.515-13.463-1.57m295.616 48.012a63 63 0 0 0 8.902 1.572c-3.687-1.56-7.148-3.092-10.768-3.94-5.994-1.402-12.09-2.363-18.05-3.163 6.7 2.081 13.293 3.863 19.916 5.53m111.556 33.834c2.717 1.006 5.66 1.398 8.34 1.734-3.54-1.69-6.878-3.165-10.309-4.373a130 130 0 0 0-12.535-3.705c4.872 2.358 9.62 4.535 14.504 6.344M1289.033 679.34c-1.432-.323-2.736-.359-4.037-.1.006.686.008 1.077.402 1.555 1.467.115 2.539.144 3.635-.164.058-.558.093-.781 0-1.291m-899.017-53.727c-3.3-.282-6.663.182-9.805.668a521 521 0 0 0 27.684 3.543c.93.095 2-1.2 2.564-1.85-7.107-.81-13.759-1.788-20.443-2.36m-25.914-3.44c-.602-.103-1.228-.061-1.856.063-1.047.208-2.1.648-3.047 1.041 5.745 1.038 11.306 1.73 16.76 2.065-4.019-1.325-7.897-2.483-11.857-3.168M61.15 611.688c-4.087-1.794-8.082-3.794-12.02-5.378 5.564 4.932 11.19 9.16 18.86 8.037-2.346-1.111-4.672-1.707-6.84-2.659M938.727 89.385c2.42-4.775 4.878-9.53 6.982-14.219-2.146 2.558-4.376 4.84-5.67 7.568-2.523 5.32-4.522 10.886-6.4 16.29 1.92-3.255 3.476-6.46 5.088-9.64m274.296-41.735c4.14.329 8.385 1.014 12.8 2.045-4.119-.332-8.408-1.01-12.8-2.045m35.967 5.995c4.119 2.693 8.216 4.725 12.813 2.042-4.423-1.027-8.654-1.707-12.813-2.042m70.014 13.996c4.195 2.228 8.242 4.5 12.8 2.05-4.42-1.032-8.651-1.713-12.8-2.05m80.975 20.013c4.866 1 9.796 2.344 14.87 4.03a130 130 0 0 1-14.87-4.03M771.993 129.62c3.407 2.655 6.834 4.475 10.807 2.076-3.755-1.037-7.318-1.728-10.807-2.076m12.969 3.04c5.866.992 11.78 2.344 17.86 4.048a173 173 0 0 1-17.86-4.049m80.03 18.97c3.242 1.702 6.047 4.82 9.833 2.059-3.414-1.028-6.661-1.713-9.834-2.06m872.98 78.975c1.37 1.028 2.694 1.716 3.918 2.082-1.388-1.022-2.677-1.723-3.918-2.082m34.937 25.888c.075.12.161.235.235.356-.073-.12-.16-.236-.235-.356M31.543 529.51a3.4 3.4 0 0 1-.402.44c.154-.14.291-.285.402-.44m-5.344 30.816c.87 4.494 1.856 8.58 3.123 12.393 1.276-4.998.243-9.19-3.123-12.393m102.983 25.428c-.188.22-.329.438-.461.707q.089-.207.175-.414.121-.135.286-.293M90.702 614.6c-7.084-.099-13.887.114-20.51.691 7.12 2.104 13.989 1.776 20.51-.691m256.491 4.44c-1.62-.044-3.281.343-4.992 1.259 4.416 1.034 8.64 1.717 12.799 2.056-2.52-1.984-5.106-3.245-7.807-3.316m1273.305 6.052c-1.042-.028-2.138.303-3.326 1.195 3.414 1.02 6.666 1.696 9.844 2.033-2.19-1.37-4.225-3.167-6.518-3.228m61.977 14.123c-1.035-.068-2.123.213-3.307 1.072 3.412 1.023 6.666 1.704 9.844 2.047-2.24-1.125-4.261-2.97-6.537-3.12m10.693 4.055c2.073.707 3.992 1.074 5.842 1.107-2.045-.705-4.02-1.077-5.842-1.107m-404.006 36.359c-.035.222-.07.444.096 1.371 2.644.759 5.096.967 7.53.832 4.062-.226 8.112-.672 11.915-1.365-6.682-.507-13.111-.672-19.54-.838" style="fill:#fff;fill-opacity:1"/></svg>