<svg viewBox="0 0 2893 781" xml:space="preserve" xmlns="http://www.w3.org/2000/svg"><path d="M1222.522 13.166c-14.298-.353-28.62-.41-42.913.021-6.556.199-13.07 1.852-19.32 3.145 4.096.44 7.911.579 11.725.719a7 7 0 0 1 .89-.537 2.1 2.1 0 0 0-.72.756c-3.983-.358-7.797-.498-12.317-.905-2.402-.206-4.1-.146-5.795-.086-1.103.995-2.062 2.399-3.275 3.078 1.207-.681 2.122-2.097 2.879-3.187-10.936 3.48-21.53 6.924-31.983 10.752-3.06 1.12-5.735 3.297-8.58 5.01l-.353.12a9 9 0 0 0-.703.216c-.648.537-1.297 1.075-2.059 1.617.692-.546 1.269-1.112 1.732-1.707-1.388.835-2.482 1.751-3.261 2.695q-.177.103-.362.207c-.59.026-1.05.188-1.05.188-1.82 1.6-3.64 3.2-5.678 5.293.77.277 1.772.482 2.652.335-.895.157-1.962-.012-2.97-.152-.1-.308-.543-.46-.995-.478-.637.27-.823.56-1.01.85-.448 5.267-4.006 7.833-8.728 9.78-.266.086-.325.089-.338.086h-.002v-.002h-.002c.025.1.062.295.094.454-.06-.214-.158-.327-.44-.428-1.119 1.009-1.891 1.992-2.335 2.967 1.175-.676 2.02-1.342 2.834-2.256.452.67 1.238 1.459 1.394 1.683-.156-.22-.937-.98-1.361-1.433-.847.665-1.693 1.33-2.856 2.013-.256.015-.316.002-.33-.003l-.002-.002h-.002c-.239.36-.478.72-.814 1.103q.391-.549.479-1.066c-.725.648-1.15 1.263-1.288 1.857a10 10 0 0 1-.298.24c-.75.732-.899 1.314-1.047 1.895.304.465.607.93 1.285 1.662.814-.646 1.538-1.355 2.277-2.055-.767.779-1.41 1.567-2.254 2.35-1.123.543-2.035 1.07-3.058 1.592a13 13 0 0 0 2.685-1.86c-.328-.76-.631-1.224-1.254-1.586-1.1 1.367-1.885 2.63-2.345 3.891l-.014.008c-.252-.004-.306.004-.318.01l-.002.002h-.002v.002c-.695 1.735-1.391 3.47-2.159 5.56-.093 2.79-.906 5.057-2.203 7.018 1.225-1.877 1.933-3.99 1.858-6.49-2.697 4.073-5.119 7.973-7.188 11.849-2.011 4.103-3.67 8.182-5.406 12.617 3.219 2.298 1.179 4.749.45 7.196.725-2.441 2.725-4.85-.788-6.811-.605.048-.952.07-1.369.457-.102 1.11-.134 1.854.105 2.818.693 1.75 1.113 3.28 1.836 4.584-.3 1.23-.297 2.233-.293 3.614-.5 1.328-1.002 2.444-1.666 3.517.646-1.048 1.087-2.073 1.346-3.045-1.032 1.442-1.74 2.786-2.068 4.11-.309 1.041-.405 2.072-.438 3.27.01-1.27.033-2.258.057-3.247.708-1.345 1.415-2.691 2.445-4.51.32-1.476.317-2.48.315-3.484-.421-1.53-.842-3.058-1.899-4.615-1.29 3.668-2.07 7.346-2.55 11.064-.317 2.453-.818 5.142-.163 7.414a483 483 0 0 0 8.274 25.889c3.838 10.96 3.725 13.805-6.996 21.16-7.73 5.303-16.39 3.748-24.444 2.443-11.813-1.913-23.323-5.635-35.029-8.29-12.688-2.879-25.492-5.25-38.174-8.151-13.12-3-26.157-6.361-39.226-9.584-11.353-2.8-22.69-5.668-34.053-8.428-6.615-1.606-13.304-2.912-19.893-4.615-10.2-2.636-20.243-5.964-30.537-8.123-9.57-2.007-19.713-1.751-29.004-4.512-12.523-3.72-24.99-3.086-37.56-2.523-4.562.204-9.058 1.876-13.323 3.182 2.745.395 5.228.489 7.711.582.841-.318 1.683-.637 2.676-.979-.909.373-1.714.769-2.437 1.266-2.721-.382-5.205-.473-8.274-.834-1.016-.222-1.448-.176-1.879-.13-1.492.598-3.001 1.143-4.486 1.766a197 197 0 0 0 4.072-1.875c-1.868.095-3.35.181-4.77.524-7.257 1.752-14.568 3.34-21.732 5.422-9.62 2.796-19.223 5.723-28.646 9.113-6.207 2.233-12.253 5.066-18.07 8.191-8.091 4.348-15.9 9.22-23.456 14.067 1.328-.01 2.564.073 3.596-.143-1.038.22-2.293.149-3.697.205-.447-.128-.59.043-.606.065l-.002.002c-.292.873-.368 2.034-.787 2.74.41-.702.44-1.84.493-2.592-4.839 3.526-9.381 6.905-13.563 10.307 1.079-.042 1.796-.11 2.729-.432a18.5 18.5 0 0 1-1.582 2.96c.52-.833.98-1.726 1.367-2.702-.718.066-1.435.131-2.83.293-2.485 1.672-4.292 3.248-6.1 4.824-.453.653-.908 1.306-1.68 1.983-.258.02-.316.01-.328.005h-.002c-.253.795-.508 1.59-.873 2.702-.111.316-.063.369.3.347-.333.306-.287.7-.386.908.094-.208.006-.6.022-.886 0 0-.048-.053-.07-.08-.459.003-.893.035-1.96.185-5.094 4.694-9.558 9.266-14.021 13.84-.8.922-1.6 1.845-2.502 2.783a25 25 0 0 0 2.154-2.758c-1.67 1.565-3.036 3.108-4.1 4.641q-.222.2-.454.4c-.76.367-.935.642-1.11.916-.003.442-.007.883.338 1.665 7.454-6.641 14.564-13.62 21.647-20.624-7.083 7.004-14.192 13.982-21.666 20.954-.78.23-1.388.466-2.141.724a6 6 0 0 0 1.793-1.064c.024-.772.026-1.214-.316-1.63-1.11 1.006-1.88 1.985-2.332 2.974l-.319.095c-1.415.69-2.201 1.313-2.988 1.936-1.387 2.298-3.008 4.278-5.057 5.765 1.964-1.484 3.493-3.458 4.7-5.742-4.297 2.772-8.24 5.52-11.829 8.487q-.18.022-.363.042c-.936.058-1.21.343-1.484.627-.229.864-.244 2.163-.608 2.75.354-.587.322-1.878.264-2.687-8.75 4.314-17.145 8.587-25.564 12.81-14.357 7.203-28.679 14.477-43.11 21.528-12.216 5.968-24.588 11.616-36.85 17.492-13.885 6.654-27.55 13.805-41.66 19.938-6.71 2.916-14.137 4.045-21.107-.772-2.876-1.987-6.36-3.073-9.459-4.764-4.688-2.557-9.789-4.685-13.805-8.074-7.247-6.117-15.09-11.113-24.197-13.29-15.666-3.748-30.902-.722-44.389 7.34-14.596 8.727-28.227 19.08-42.181 28.864-9.18 6.437-18.187 13.121-26.89 19.737.926-.296 1.795-.547 2.595-.834-.838.302-1.778.576-2.838.918-.8.324-.978.605-1.156.886-1.224 1.303-2.263 2.899-3.625 3.979 1.357-1.08 2.356-2.674 3.26-3.963-3.922 2.27-7.648 4.298-11.003 6.822-15.226 11.456-30.436 22.939-45.478 34.635-10.446 8.122-20.69 16.512-30.863 24.975-4.31 3.585-8.208 7.664-11.938 11.513l-.01.004c-.36.004-.355.012-.355.012-1.301 1.4-2.56 2.85-3.852 4.263 1.247-1.403 2.404-2.857 3.498-4.236-5.193 3.941-10.091 7.784-14.841 11.803-1.784 1.508-3.223 3.425-4.461 5.158 4.506-3.204 8.785-6.26 12.761-9.67-3.976 3.41-8.255 6.467-12.757 9.674-.353 0-.358-.008-.358-.008-2.192 2.331-4.09 5.06-6.625 6.924 2.535-1.864 4.433-4.594 6.268-6.908-10.336 8.763-20.63 17.185-30.157 26.398-4.574 4.425-7.701 10.346-11.134 15.588.714-.49 1.387-.944 1.99-1.418-.602.474-1.275.93-1.988 1.42-.348.004-.352.002-.352.002-3.214 5.31-6.422 10.622-9.64 15.93 3.218-5.308 6.427-10.62 9.285-15.908-1.009.48-1.866.8-2.282 1.418-6.719 9.986-13.429 19.979-20.037 30.039-3.375 5.138-6.811 10.268-9.742 15.662-3.909 7.193-7.186 14.727-11.039 21.953-4.64 8.701-9.687 17.185-14.396 25.85-6.407 11.786-12.69 23.639-18.971 35.494-5.75 10.853-10.126 22.275-10.994 34.566-1.2 16.976 2.043 33.262 10.033 48.404 8.455 16.024 19.525 28.086 39.092 31.028 14.22 2.138 27.797 1.897 40.722-3.793 7.161-3.153 14.28-7.755 19.58-13.422 6.003-6.418 9.62-14.996 14.873-22.2a337 337 0 0 1 19.682-24.484c1.508-1.708 5.603-2.657 7.848-1.928 10.242 3.33 20.11 7.827 30.386 11.03 7.676 2.392 15.769 3.45 23.586 4.75-.392-.416-.739-.767-1.084-1.004.385.242.817.6 1.448 1.066 1.188.445 1.924.476 2.66.508 3.643-.6 7.286-1.2 11.365-1.797 4.912-.033 9.385-.072 14.342-.05-4.957-.022-9.432.018-13.758.427 2.528.857 5.018 1.635 7.39 1.725-2.486-.101-5.079-.874-7.825-1.73-4.229.224-7.873.825-11.327 1.788 2.77.774 5.34 1.4 7.938 1.56 16.24 1.006 32.052-.676 47.392-6.66 7.742-3.019 16.289-2.127 23.592.772 6.929 2.75 13.017 7.938 19.026 12.63 18.153 14.172 38.176 24.999 59.265 34 15.218 6.494 31.494 9.015 47.553 12.204 7.049 1.4 14.339 1.615 21.53 2.26 6.744.605 13.501 1.074 20.157 1.254q.344.04.69.07c1.202.455 1.942.487 2.68.518 2.699-.315 5.396-.63 8.533-.951 1.41-.212 2.382-.415 3.394-.282.485.353.93.368 1.705.389 1.636.084 2.94.162 4.293.586 3.221.736 6.413 1.278 9.756 1.967-3.28-.659-6.493-1.14-9.705-1.621-1.175-.137-2.35-.274-4.101-.674-1.02-.28-1.463-.295-1.907-.31-.75 0-1.498.002-3.06-.022-3.511.289-6.21.603-8.727 1.293 10.394 1.061 20.606 1.748 30.658 2.027l.237.057c.673.495.965.463 1.25.365 4.238-.248 8.475-.497 13.183-.754.702-1.466 1.412-2.127 2.182-2.078-.622.018-1.082.69-1.312 2.098 1.466.016 2.534.003 3.544-.356 9.334.063 18.61-.478 27.885-.443-9.275-.035-18.552.506-27.828.79-1.067.012-2.133.023-4.07.016-5.108.23-9.347.479-13.281.995 5.34.807 10.37 1.76 15.412 1.82 37.116.447 74.235.788 111.353.986 8.933.048 17.866-.693 26.803-.842 9.363-.156 18.733-.101 28.098-.025 34.616.28 69.232.625 103.85.906 9.218.075 18.436.005 27.655.004 7.582 0 15.165.106 22.745-.015 14.765-.238 29.529-.763 44.294-.848 8.099-.047 16.198.689 24.301.812 3.43.053 6.874-.87 10.303-.818 10.629.16 21.253.828 31.879.818 11.467-.01 22.932-.747 34.4-.84 19.658-.159 39.32-.048 58.979-.082 9.367-.015 18.37.523 27.605 3.68 13.845 4.733 26.27 10.953 36.44 21.559 12.79 13.34 27.173 23.976 45.467 29.064 10.22 2.843 20.321 4.872 30.902 4.696 6.704-.112 13.413-.1 20.117.003 18.434.285 36.864.708 55.299.954 10.696.142 21.396.052 32.094.06 32.654.024 65.308.048 97.962.055 1.823 0 3.646-.16 5.354-.62-1.487-.495-2.911-.92-4.32-1.115 1.432.198 2.94.635 4.74 1.174 2.237.457 3.939.48 5.64.502 1.71-.33 3.42-.934 5.133-.949 10.956-.096 21.913-.062 33.334-.102 1.291-.5 2.294-1.296 3.239-1.623-.907.33-1.75 1.133-2.305 1.657 25.84.081 51.209.1 76.49-.28 1.474.418 2.86.437 4.662.46 2.594-.196 4.77-.394 7.198-.296 2.281.295 4.314.295 6.783.295 6.713.029 12.991.055 19.373.47 3.083.422 6.062.452 9.04.497-2.978-.045-5.96-.073-8.939-.11-6.142-.098-12.285-.197-19.17-.577-2.774-.28-4.807-.279-6.84-.278-1.92.157-3.912.285-6.31.256 2.241.05 4.272-.111 6.063-.553-2.413-.097-4.576.101-6.477.557-.163-.003-.285.01-.453.004-2.07-.286-3.456-.307-4.842-.326-25.369-.02-50.738-.038-77.04-.09-11.892-.024-22.85-.057-33.806.039-1.713.015-3.422.618-4.933 1.336 42.383.811 84.568 1.196 126.752 1.69 8.923.104 17.84.847 26.761.869 26.106.064 52.212-.088 78.155-.573-1.157-.57-2.201-1.01-3.23-1.166 1.04.157 2.147.607 3.636 1.227 19.591.44 38.614.403 57.637.365 1.048-.484 2.081-1.298 3.14-1.53-1.052.235-2.035 1.06-2.68 1.643 17.797.094 35.161.66 52.454-.21 7.763-.391 15.286-4.327 23.092-5.45 11.113-1.598 18.847-6.764 23.437-17.107 4.055-9.137 8.11-18.18 7.504-28.494-.142-2.412-.897-4.877-.58-7.21.94-6.91 4.291-11.99 11.441-13.663q-1.994-.693-3.718-.641c1.253-.061 2.638.135 4.166.605 3.387.197 6.07.144 8.754.092 1.891-2.174 3.962-3.384 6.388-2.875-2.405-.497-4.402.753-6.004 3.072 7.801 1.134 15.26 1.82 22.623 3.073 8.602 1.463 17.194 3.13 25.659 5.234 10.478 2.605 20.773 5.935 31.238 8.602 8.312 2.118 16.744 3.78 25.15 5.511a249 249 0 0 0 17.994 3.03c-3.115-1.346-6.137-2.384-9.181-3.348 3.044.964 6.065 2.002 9.545 3.408 1.185.435 1.923.468 2.66.502.929-.258 1.924-.84 2.803-.85-.877.016-1.853.637-2.63 1.204 6.184 1.716 12.22 2.976 18.196 4.472 6.447 1.614 12.82 3.527 19.26 5.17 11.636 2.97 23.276 5.923 34.957 8.71 6.448 1.537 12.982 2.721 19.404 3.722-6.264-2.575-12.343-5.23-18.678-6.924 6.335 1.694 12.415 4.349 19.041 6.99 1.172.445 1.908.48 2.645.516 2.08-.194 4.213-.743 6.25-.647-2.035-.09-4.149.494-6.086.99 11.88 3.345 23.568 6.46 35.324 9.296 5.46 1.316 11.048 2.092 16.5 2.773-.467-.22-.92-.398-1.383-.607.606.26 1.107.393 1.744.673 1.178.442 1.916.476 2.653.51.84-.276 1.774-.924 2.525-.844-.75-.078-1.675.59-2.365 1.186 10.239 2.776 20.257 5.507 30.416 7.535 6.045 1.207 12.31 1.313 18.375 1.559l.328.058c.855.438 1.289.462 1.723.487 1.72-.326 3.442-.65 5.564-.992 1.22-.414 2.092-.814 3.08-.977-.939.155-1.733.527-2.27.94q-.225.039-.476.078c-2.456.3-4.178.626-5.715 1.318 9.034 1.124 17.885 2.503 26.735 2.504 15.978 0 31.926.975 47.898-2.545 14.795-3.261 30.097-4.162 45.12-6.475 13.042-2.008 26.01-4.516 38.992-6.908.579-.107.965-1.256.994-1.89-5.993.39-11.573.485-17.073 1.199-4.343.563-8.586 1.888-12.875 2.875-2.063.417-4.126.834-6.437 1.271 2.227-.456 4.318-.959 6.385-1.629 4.34-.63 8.584-1.954 12.927-2.517 5.5-.714 11.08-.809 17.07-1.637-1.32-10.353-3.087-20.24-4.798-29.815-12.07 2.28-23.286 4.67-34.598 6.448-9.239 1.452-18.63 1.912-27.885 3.285-11.317 1.679-22.535 4.021-33.85 5.728-4.745.717-9.63.795-14.445.721-12.247-.187-24.77.845-36.654-1.4-10.568-1.996-21.541-.8-31.867-5.032-6.224-2.55-13.323-2.923-19.99-4.445-6.47-1.477-12.876-3.226-19.334-4.756-6.846-1.621-13.734-3.063-20.576-4.697-7.122-1.701-14.193-3.616-21.319-5.295-6.676-1.572-13.436-2.8-20.086-4.47-6.604-1.66-13.06-3.922-19.683-5.493-10.81-2.565-21.735-4.641-32.547-7.199-7.159-1.694-14.149-4.104-21.31-5.78-15.434-3.609-30.96-6.828-46.391-10.445-11.446-2.682-22.768-5.892-34.211-8.584-10.715-2.52-21.514-4.681-32.285-6.955-.96-.202-1.99-.1-2.989-.088-10.224.121-20.387-.436-30.521 2.602-4.445 1.332-9.383.84-13.274 4.256-2.717 2.386-5.821 4.334-8.517 6.742-1.824 1.629-3.788 3.476-4.733 5.643-3.158 7.242-7.614 14.115-6.87 22.615.32 3.674.81 7.599-.112 11.053-1.276 4.777-2.628 10.823-6.111 13.392-4.27 3.148-10.716 4.148-16.323 4.516-13.404.879-26.868.915-40.31 1.148-8.378.145-16.761.148-25.139 0-12.977-.228-25.951-.867-38.928-.9-10.313-.027-20.627.794-30.943.855-6.812.041-13.627-.758-20.445-.886-8.877-.167-17.76.017-26.639-.051-40.641-.31-81.282-.602-121.922-1.02-13.993-.144-27.983-.637-41.974-.968-14.108-.335-28.213-.923-42.32-.956-50.831-.116-101.663.079-152.493-.134-12.814-.054-25.638 1.316-38.43-2.662-9.498-2.955-17.969-7.194-25.363-13.454-8.416-7.124-14.949-16.334-24.894-21.843-5.737-3.178-10.707-7.819-16.573-10.664-5.382-2.611-11.594-3.447-17.279-5.512-9.874-3.587-19.879-5.039-30.463-4.926-36.291.387-72.591.149-108.887.149-75.83 0-151.661.49-227.486-.137-75.818-.627-151.698 3.081-227.45-2.865-1.81-.142-3.629-.229-5.427-.47-13.65-1.824-27.259-4.639-40.959-5.189-9.05-.363-17.69-2.077-26.234-4.132-8.782-2.113-17.218-5.785-25.666-9.127-7.664-3.032-15.352-6.133-22.653-9.928-12.106-6.294-23.268-14.072-33.273-23.426-11.308-10.571-24.65-15.74-40.191-15.805-10.666-.044-20.797 1.471-30.641 5.87-8.882 3.968-18.57 4.316-28.176 4.142-2.411-.043-4.813-.877-7.207-1.41-2.075-.462-4.12-1.063-6.197-1.514-6.843-1.485-13.91-2.309-20.488-4.558-7.497-2.564-14.609-6.29-21.805-9.686-9.173-4.33-18.872-2.417-28.39-2.568-.995-.016-2.143.926-2.987 1.683a2597 2597 0 0 0-21.5 19.51c-1.329 1.22-2.637 2.543-3.625 4.037-6.447 9.754-12.892 19.512-19.158 29.381-4.314 6.794-10.273 11.161-18.14 12.485-4.212.708-8.596.869-12.866.626-7.787-.441-13.672-4.391-17.676-11.048-6.128-10.189-9.085-21.123-7.758-33.094.4-3.61-.612-7.707.754-10.82 5.112-11.654 10.626-23.16 16.578-34.41 8.667-16.38 17.878-32.471 26.787-48.723 3.624-6.61 6.789-13.483 10.66-19.938 4.378-7.298 9.225-14.322 14.032-21.353 5.939-8.688 11.01-18.286 18.306-25.658 13.318-13.457 27.839-25.75 42.166-38.172 9.378-8.13 19.38-15.535 28.956-23.444 13.052-10.78 25.708-22.058 39.015-32.51 11.089-8.709 22.84-16.575 34.354-24.738a2543 2543 0 0 1 27.822-19.435c12.14-8.366 24.267-16.756 36.549-24.91 4.601-3.056 9.39-7.11 14.5-7.834 9.116-1.291 17.945-.93 26.36 6.058 9.423 7.827 20.998 13.084 31.73 19.299 2.459 1.424 5.234 2.896 7.972 3.145 15.189 1.376 30.118-.443 43.938-6.94 18.668-8.776 36.939-18.397 55.388-27.637 9.81-4.912 19.617-9.823 29.461-14.664 7.08-3.48 14.292-6.697 21.307-10.298 8.767-4.502 17.084-10.028 26.147-13.776 17.508-7.241 31.643-18.906 44.66-32.117 12.957-13.152 26.426-25.505 42.59-34.748 12.86-7.354 26.158-13.666 40.156-18.422 7.222-2.454 14.602-4.598 22.062-6.16 8.162-1.71 16.466-3.26 24.766-3.654 10.56-.502 21.235-.358 31.758.617 8.07.748 16.002 3.116 23.953 4.95 4.918 1.136 9.713 2.815 14.639 3.907 11.131 2.47 22.337 4.603 33.458 7.113 7.176 1.62 14.251 3.685 21.38 5.516 4.58 1.177 9.15 2.418 13.773 3.406 7.173 1.534 14.456 2.601 21.568 4.368 10.467 2.599 20.81 5.692 31.235 8.466 4.531 1.206 9.116 2.227 13.709 3.182 7.51 1.562 15.1 2.77 22.552 4.562 6.181 1.487 12.1 4.317 18.332 5.278 11.247 1.734 22.325 4.206 34.037 3.502 11.2-.673 20.429-5.134 29.047-11.043 5.364-3.678 9.562-9.19 13.842-14.252 2.101-2.486 3.74-5.676 4.588-8.817.764-2.827-.492-6.205.285-9.025 2.76-10.015-1.757-18.427-5.037-27.254-3.372-9.074-6.825-18.424-2.2-28.047 3.456-7.187 6.83-14.63 11.63-20.896 5.098-6.657 10.444-13.611 18.554-17.235 7.607-3.398 15.221-6.786 22.918-9.972 9.675-4.004 19.889-5.613 30.282-5.733 15.83-.183 31.663-.05 47.496-.039 1.495.001 3 .018 4.484.178 8.493.913 16.972 1.98 25.477 2.764 3.8.35 7.672-.072 11.476.261 9.17.803 18.32 1.819 27.475 2.797 9.974 1.066 19.95 2.117 29.91 3.303a1704 1704 0 0 1 28.805 3.705c8.76 1.195 17.533 2.352 26.244 3.854 8.693 1.498 17.285 3.596 25.98 5.08 9.204 1.57 18.526 2.462 27.707 4.144 8.008 1.467 15.86 3.767 23.836 5.428 8.004 1.666 16.102 2.871 24.112 4.512 7.858 1.61 15.654 3.526 23.482 5.283 5.566 1.249 11.122 2.56 16.719 3.656 8.196 1.605 16.516 2.664 24.617 4.64 11.43 2.79 22.728 6.13 34.041 9.38 6.25 1.795 12.374 4.032 18.633 5.795 5.587 1.573 11.337 2.567 16.912 4.175 9.916 2.86 19.814 5.812 29.611 9.051 17.368 5.742 34.702 11.599 51.963 17.652 13.068 4.584 26.034 9.466 38.986 14.37 9.214 3.487 18.357 7.164 27.477 10.892 4.308 1.761 8.45 3.92 12.728 5.76 8.09 3.479 16.23 6.839 24.336 10.281a3870 3870 0 0 1 21.461 9.201c10.135 4.377 20.348 8.584 30.36 13.227 9.105 4.222 18.005 8.892 26.96 13.432 16.342 8.283 32.744 16.447 48.956 24.978 13.405 7.054 26.569 14.564 39.842 21.87 10.555 5.809 21.04 11.756 31.695 17.376 8.856 4.671 10.357 8.114 6.787 17.387-.473 1.229-1.062 2.467-1.227 3.75-1.508 11.762-3.908 23.39-3.218 35.424.588 10.265 2.112 19.781 7.838 28.81 7.86 12.398 17.572 22.724 29.59 30.922 8.375 5.714 16.986 11.082 25.54 16.53 12.048 7.672 23.927 15.644 36.272 22.808 13.351 7.747 27.127 14.765 40.775 21.994 6.765 3.583 13.621 7 20.5 10.36 7.92 3.867 15.93 7.547 23.864 11.384 9.979 4.827 19.89 9.799 29.892 14.575 5.87 2.802 11.885 5.298 17.795 8.019 10.06 4.632 20.092 9.327 30.13 14.006a3969 3969 0 0 1 18.626 8.725c5.793 2.736 11.452 5.8 17.377 8.208 10.55 4.29 21.31 8.069 31.889 12.292 13.674 5.458 27.23 11.212 40.89 16.707 7.688 3.092 15.463 5.974 23.235 8.855 7.499 2.78 14.959 5.718 22.593 8.074 8.236 2.542 16.702 4.325 24.98 6.739 10.211 2.976 20.329 6.273 30.493 9.41 4.511 1.392 9.07 2.635 13.55 4.119 8.629 2.858 17.146 6.074 25.84 8.703 8.893 2.688 17.959 4.793 26.92 7.258 6.773 1.863 13.435 4.172 20.264 5.781 10.933 2.576 21.908 5.052 32.969 6.973 8.707 1.512 17.561 2.893 26.365 2.996 30.707.36 61.42.218 92.131.092 9.98-.041 19.958-.911 29.936-.881 13.108.039 26.212.708 39.322.892 11.634.164 23.273-.035 34.908.08 3.104.031 6.252.388 9.295 1.01 7.52 1.537 15.117 2.908 22.424 5.18 3.33 1.035 7.573 3.326 6.77 7.926-.949 5.422-3.814 9.653-9.169 12.562-7.15 3.885-14.841 3.28-22.224 3.58-12.573.513-25.236-.01-37.801-.924-7.765-.564-15.97-1.367-22.994-4.365-10.706-4.569-21.98-6.725-33.008-7.082-21.163-.685-42.4.937-63.606 1.654-.943.032-1.854.657-2.808.885a13750 13750 0 0 1-38.13 9.074c-5.233 1.236-10.487 2.377-15.722 3.598-7.627 1.78-15.219 3.72-22.877 5.357-8.462 1.81-17.008 3.228-25.466 5.051-6.854 1.477-13.581 3.551-20.455 4.908-8.334 1.646-16.786 2.691-25.145 4.221-11.898 2.178-23.736 4.695-35.644 6.809-7.59 1.347-15.287 2.066-22.887 3.357-10.312 1.751-20.555 3.911-30.87 5.649-8.717 1.468-17.505 2.518-26.242 3.877-7.23 1.124-14.431 2.43-21.902 3.699l-6.096-31.547-29.4 5.549 18.203 96.959 29.393-5.53-6.186-34.103c2.445-1.173 4.798-2.902 7.315-3.639-2.51.736-4.817 2.458-6.885 3.574 2.4-.236 4.39-.28 6.336-.603 10.931-1.816 21.873-3.594 32.77-5.604 5.828-1.075 11.575-2.588 17.097-4.205l.385-.039c1.367.22 2.102.173 2.838.125 3.23-.71 6.462-1.42 9.843-2.062-3.277.649-6.427 1.39-9.402 2.174 5.416-.885 10.404-1.878 15.143-3.163l.584-.087c1.359.226 2.094.177 2.83.128 3.612-1.214 7.14-2.892 10.851-3.562-3.71.67-7.239 2.347-10.408 3.674 10.917-1.551 21.416-3.07 31.858-4.912 14.436-2.548 28.872-5.133 43.228-8.09 13.048-2.688 25.96-6.036 38.986-8.838 16.688-3.59 33.443-6.865 50.14-10.41 4.517-.959 8.931-2.4 13.142-3.912l.34-.043c1.005.206 1.434.156 1.865.107 2.147-.686 4.295-1.373 6.568-2.002a70 70 0 0 0-6.16 2.108c3.745-.881 7.099-1.864 10.224-3.123q.255-.056.514-.11c.989.205 1.42.15 1.85.098 2.555-1.273 4.996-2.899 7.683-3.758-2.687.86-5.13 2.486-7.29 3.87 1.223.074 2.134.25 2.872-.028 10.996-4.146 22.385-5.927 34.102-5.881 9.655.038 19.318.279 28.96-.049 12.53-.426 23.706 5.109 35.59 7.483 8.387 1.675 16.637 4.887 25.06 5.343 16.099.872 32.279.273 48.425.27 3.495 0 7.119.527 10.463-.201 15.74-3.428 29.76-10.109 38.728-24.162 2.466-3.865 2.854-9.057 3.819-13.547-1.556 2.457-2.884 4.763-3.889 7.2 1.005-2.437 2.334-4.742 3.947-7.415.473-.61.443-.905.348-1.194-.137-6.688-.276-13.377-.14-20.673.218-1.039.164-1.47.11-1.9-2.763-3.13-5.916-6.001-8.206-9.446 2.29 3.445 5.443 6.316 8.314 9.08-4.21-9.486-9.61-17.205-19.703-21.246-10.135-4.059-20.28-7.415-31.137-7.795 7.9 2.687 15.869 4.658 23.524 7.48-7.655-2.822-15.624-4.792-23.912-7.548-1.508-.451-2.559-.491-3.61-.53-2.688.335-5.377.669-8.502 1.022-1.592 1.677-3.156 2.232-4.722 2.125 1.413.068 2.717-.506 3.834-2.154-3.168-.054-5.882-.059-8.514.322-1.468-.401-2.854-.416-4.656-.436-3.035-.037-5.653-.07-8.375-.467-1.796-.403-3.49-.442-5.606-.46-.741.529-1.06 1.038-1.379 1.546.319-.508.638-1.017.612-1.545-.075.002-.134.005-.203.006.246-.009.267-.018.625-.027 2.46.038 4.154.078 5.847.117 1.043.038 2.327.174 3.42.233-1.134-.017-2.24.008-3.316.13 2.722.397 5.34.43 7.672.186-.499-.066-.945-.072-1.426-.12.656.06 1.122.042 1.842.126 2.088.296 3.475.31 4.861.324 2.714.006 5.428.012 9.031.047 3.578-.305 6.267-.64 8.756-1.357-3.997-.478-7.796-.522-11.592-.676-13.426-.547-26.853-1.133-40.293-1.352.265.743.519 1.546.809 1.795-.3-.249-.615-1.062-1.268-1.86-12.103-.375-23.76-.335-35.418-.294-2 3.935-5.694 2.477-8.777 2.607 3.083-.13 6.776 1.329 8.385-2.72-18.491.211-36.588.614-54.688.808-4.598.05-9.22-.968-13.804-.793-9.71.371-19.403 1.752-29.1 1.729-16.914-.04-33.898.424-50.42-4.742-8.812-2.756-17.915-4.608-26.92-6.721-5.513-1.294-11.103-2.252-16.633-3.48-2.04-.454-4.027-1.185-5.998-1.9-5.177-1.875-10.265-4.027-15.511-5.679-10.346-3.258-20.73-6.411-31.18-9.316-12.184-3.387-24.506-6.273-36.668-9.733-9.358-2.662-18.578-5.825-27.828-8.857-9.07-2.973-18.183-5.846-27.13-9.164-8.479-3.145-16.719-6.93-25.15-10.215-8.122-3.164-16.37-6.006-24.533-9.066-6.965-2.611-13.958-5.17-20.812-8.051-6.225-2.617-12.308-5.579-18.4-8.5-4.957-2.377-9.718-5.195-14.78-7.303-4.266-1.777-9.077-2.308-13.236-4.265-19.043-8.963-37.9-18.324-56.908-27.36-11.518-5.475-23.27-10.454-34.772-15.96-8.906-4.265-17.56-9.05-26.373-13.514-12.229-6.195-24.662-12.007-36.701-18.547-9.26-5.032-18.008-10.999-27.055-16.432-10.7-6.426-21.63-12.48-32.177-19.145-12.273-7.755-24.45-15.692-33.29-27.689-4.448-6.036-7.957-11.961-7.804-20.035.216-11.454 1.71-22.408 5.937-33.147 2.728-6.929 3.454-14.766.733-21.687-3.999-10.17-10.68-18.29-20.881-23.688-14.282-7.555-27.9-16.354-41.973-24.32-16.096-9.111-32.222-18.194-48.633-26.717-11.51-5.978-23.554-10.924-35.297-16.465-12.17-5.742-24.192-11.803-36.412-17.439-15.276-7.046-30.656-13.867-46.049-20.656-11.559-5.099-23.179-10.058-34.826-14.953-6.86-2.884-13.797-5.6-20.754-8.245-5.754-2.187-11.622-4.078-17.377-6.265-2.562-.974-4.883-2.602-7.462-3.508-10.053-3.531-20.195-6.806-30.246-10.338-13.891-4.88-27.69-10.03-41.614-14.812-5.647-1.94-11.562-3.089-17.289-4.817-8.694-2.623-17.268-5.653-26.004-8.123-13.26-3.748-26.622-7.129-39.924-10.73-10.021-2.714-19.933-5.885-30.043-8.207-13.17-3.027-26.506-5.329-39.736-8.11-8.752-1.84-17.411-4.128-26.17-5.933-8.922-1.84-17.908-3.363-26.877-4.971-9.644-1.73-19.303-3.385-28.95-5.092-8.342-1.476-16.678-2.98-25.017-4.47-7.99-1.43-15.982-2.857-23.968-3.917 1.382 1.174 2.68 2.474 4.123 3.006-1.448-.532-2.785-1.84-4.485-3.072-1.102-.474-1.837-.512-2.572-.55-2.057.33-4.116.66-6.592 1.005-1.661-.085-2.928-.184-4.244-.588 1.316.404 2.564.495 3.608.313-1.409-.42-2.6-.55-3.723-.35-7.42-1.01-14.775-1.688-22.59-2.375-1.696-.1-2.963-.195-4.273-.588 1.31.393 2.554.476 3.59.295-1.414-.414-2.606-.541-3.731-.338-1.123-.368-2.18-.405-3.635-.443-1.032-.065-1.839-.13-2.615-.328.745.184 1.437.197 2.01.062-1.082-.382-1.955-.502-2.77-.304-3.366-1.005-6.676-1.692-10.474-2.809-2.515-.462-4.541-.495-6.567-.527-2.706.326-5.411.652-8.556.97-1.668-.104-2.929-.202-4.23-.597 1.3.395 2.536.481 3.57.302-1.411-.42-2.6-.553-3.727-.351-2.045-1.027-4.027-1.719-6.453-2.824-1.497-.45-2.55-.483-3.602-.518-5.69.338-11.379.677-17.537 1.016-3.428 1.388-6.446 1.321-9.32.107 2.832 1.193 5.702 1.197 8.588-.416-1.515-.286-2.963-.483-4.414-.681 1.635.23 3.06.37 4.882.68 6.421-.03 12.111-.368 17.588-1.083-5.3-.552-10.392-.628-15.472-.93-6.467-.384-12.923-.951-19.33-1.072 1.704.707 3.355 1.046 5.007 1.385 1.701.206 3.663.523 5.428.756a64 64 0 0 0-5.348-.389c-1.73-.705-3.384-1.045-5.507-1.82-2.169-.477-3.866-.516-5.563-.557-4.027.338-8.054.675-12.543 1.008-3.069-.07-5.677-.135-8.385-.564-1.804-.396-3.51-.428-5.64-.465-1.724-.087-3.021-.168-4.389-.578-4.739-.348-9.409-.365-14.54-.354-2.304.515-4.145 1-6.24 1.213-1.322-.27-2.39-.268-3.86-.27-1.687.08-3.243.065-4.834.122a53 53 0 0 0 4-.41c.205.003.35-.02.558-.014 1.746.303 2.815.302 3.885.3a99 99 0 0 1 3.566-.636c-1.244.228-2.334.509-3.314.908a22.2 22.2 0 0 0 5.248-1.184l.584-.074c5.538.033 10.208.053 14.877.07 1.192.114 2.383.228 4.23.627 2.36.318 4.065.348 5.77.38 1.026.043 2.301.192 3.379.257-1.12-.024-2.215-.007-3.28.108 2.708.429 5.316.494 7.659.257-.566-.083-1.08-.096-1.625-.154.736.07 1.267.053 2.086.158 4.754-.031 8.78-.368 12.597-1.078-8.227-1.112-16.231-2.296-24.261-2.494m-6.485 2.268c1.368.41 2.665.492 3.735.293-1.421-.394-2.613-.51-3.735-.293M491.941 697.67c-1.354-.424-2.656-.502-3.716-.322 1.418.394 2.592.531 3.716.322m-5.998-.975a5.4 5.4 0 0 0-2.582.307c1.124.032 1.874.031 2.582-.307m690.842-680.89q.21-.004.502.027c1.21.184 1.961.176 2.713.168 1.313-.073 2.844-.049 4.193-.105-1.333.1-2.66.207-3.908.396-1.036-.282-1.79-.276-2.918-.277-.533-.01-.708-.01-1.113-.024.405.014.569.01.656-.168a1 1 0 0 0-.125-.017m-.36.03c-.113.036-.19.095-.204.155-.684.015-1.111.042-1.858.108-.678.374-1.168.723-1.691.972.457-.23.813-.545 1.02-.88q.169-.06.365-.12c1.052-.038 1.48-.067 1.908-.095.137-.053.275-.107.46-.14m-26.165 3.767c-9.149 3.182-18.387 6.104-27.92 9.28-1.817 1.554-3.148 3.19-4.834 4.274 1.686-1.083 3.016-2.72 4.142-4.097a207 207 0 0 0-4.914 1.625c1.612-.564 3.32-1.152 5.24-1.793 9.9-3.185 19.137-6.107 28.286-9.29m141.724.013c2.037 1.045 4.019 1.737 6 2.428 1.19.134 2.379.267 4.229.695 3.366-.031 6.072-.356 8.592-1.047-6.416-1.052-12.646-1.741-18.82-2.076m26.002 3.028c3.37 1.057 6.679 1.744 9.989 2.431.872.12 1.744.24 3.222.625 1.664.301 2.722.336 3.78.371 1.19.13 2.38.259 4.255.68 8.038.971 15.393 1.651 22.746 2.33 1.191.13 2.38.26 4.207.664 2.694-.055 4.752-.385 6.62-1.074-7.53-1.14-14.876-1.868-22.207-2.723-4.219-.492-8.4-1.309-12.621-1.77-6.673-.727-13.366-1.278-19.99-1.534M1106.711 35.18a44.3 44.3 0 0 0-6.399 4.99c.206.114.65.266.967.082 2.137-1.784 3.956-3.385 5.432-5.072m-7.986 5.988a135 135 0 0 0-8.409 9.72c4.733-1.939 8.292-4.506 8.409-9.72m-18.037 20.95c-2.947 3.422-6.232 6.423-8.04 10.144-3.256 6.702-5.628 13.836-8.369 20.789.348-.022.695-.045 1.38-.451 1.994-4.462 3.652-8.54 5.31-12.618 2.422-3.901 4.844-7.802 7.613-12.23 1.041-2.262 1.737-3.997 2.105-5.635M774.17 112.151l.322.016c-.3 1.876-1.05 2.641-2.08 2.781.891-.156 1.414-.899 1.3-2.658zm288.855 1.434c.954 1.205 1.886 2.022 2.803 3.162-.793-.985-1.596-1.718-2.394-2.207a13 13 0 0 1-.409-.629zm650.182 1.56c4.58 1.68 9.171 3.323 13.758 4.983.944.397 1.887.793 3.344 1.43.927.265 1.342.292 1.757.318 1.505.52 3.01 1.042 5.079 1.834 1.656.62 2.75.968 3.843 1.316.897.486 1.793.972 3.237 1.729 1.042.37 1.667.534 2.359.74-.64-.168-1.341-.305-2.197-.478-.776-.245-1.431-.486-2.034-.788.527.26 1.031.426 1.487.516-1.058-.746-1.956-1.234-2.844-1.37-1.102-.698-2.194-1.047-3.637-1.403a36 36 0 0 1-2.931-.817c.829.26 1.627.442 2.367.547-1.72-.783-3.224-1.306-4.707-1.478-.437-.375-.851-.4-1.578-.414-1.003-.245-1.83-.496-2.647-.893.79.383 1.518.59 2.135.654-1.144-.649-2.089-1.046-2.955-1.103-4.665-2-9.257-3.642-13.836-5.323m-648.732.698q.704.621 1.416.982c-.102 7.892 2.128 14.765 5.462 21.467-3.334-6.702-5.566-13.575-5.48-21.11-.465-.415-.93-.832-1.398-1.34m710.664 22.85c2.245.88 4.553 1.595 6.834 2.386 3.543 1.77 7.086 3.541 11.22 5.59 3.995 1.633 7.397 2.988 10.8 4.344 3.867 1.785 7.737 3.57 12.187 5.63 2.001.956 3.421 1.637 4.841 2.317l2.47 1.553c1.166.32 1.865.347 2.566.375 1.19.514 2.382 1.03 4.1 1.812 1.31.592 2.093.913 2.876 1.237a2791 2791 0 0 1 13.155 5.72c12.561 5.924 24.53 11.58 36.513 17.205-11.983-5.625-23.951-11.282-36.3-16.94-2.728.441-4.993-.043-7.028-1.028 1.934.919 4.025 1.312 6.44.748-4.402-2.08-8.591-3.892-12.743-5.352-.82-.676-1.603-1-2.722-1.328-1.299-.372-2.388-.739-3.442-1.274 1.034.525 2.034.847 2.914 1.006-1.381-.777-2.572-1.292-3.744-1.468-.719-.366-1.42-.393-2.47-.42a9 9 0 0 1-1.206-.536q.391.188.739.243c-.784-.713-1.451-1.133-2.08-1.211-1.459-1.023-2.878-1.703-4.664-2.395-2.242.297-4.213.109-5.983-.488 1.653.522 3.45.613 5.4.213-4.082-2.05-7.951-3.835-11.81-5.248-3.412-1.728-6.814-3.082-10.6-4.446-2.327.452-4.225.141-5.875-.648 1.541.711 3.261.93 5.284.371-3.752-2.04-7.294-3.812-10.82-5.219-2.297-1.154-4.607-1.87-6.852-2.75m-699.87 12.181c.198 3.669-3.027 5.82-5.152 8.754-.47 2.17-2.164 4.271-4.267 5.764 1.997-1.44 3.53-3.426 3.767-5.407-4.107 2.34-7.865 4.632-11.582 7.258-10.867 3.43-21.046.073-31.396-2.824 10.35 2.897 20.529 6.254 31.353 2.49 3.76-2.293 7.52-4.585 11.778-7.234 2.429-2.976 5.693-5.131 5.5-8.801m-434.61 15.149c-.785.674-1.233 1.32-1.351 1.95.78-.67 1.236-1.323 1.351-1.95m417.766 1.346q.21.056.43.094a6 6 0 0 0-.43-.094m-419.781.647c-1.112 1.016-1.88 2-2.32 3.004.762-.012 1.197-.042 1.767-.362.388-1.084.642-1.88.553-2.642m-283.272 83.992c-4.28 1.825-8.132 3.639-12.187 5.191-3.808 1.656-7.5 3.46-11.25 5.416 3.819-2.014 7.432-3.848 11.044-5.681a338 338 0 0 1 6.397-2.715 92 92 0 0 0-6.191 2.98c3.644-1.395 7.122-3.001 10.316-4.607q.762-.288 1.555-.578.166-.005.316-.006m-27.236 12.637c-.523 1.857-2.009 3.832-3.934 5.502 1.808-1.592 3.13-3.427 3.43-5.07-4.419 3.061-8.539 5.95-12.453 9.118-7.178 4.522-14.162 9.307-21.121 14.125 6.96-4.818 13.942-9.603 20.916-14.402 4.119-2.89 8.239-5.779 12.867-9.113zm144.088 4.545c-2.622 1.38-5.24 2.762-8.082 4.41q-.81.392-1.612.777l1.002-.486c-5.111 2.023-9.836 4.021-14.35 6.29-1.204.032-2.431-.003-3.537.153 1.085-.182 2.25-.228 3.327-.424a2784 2784 0 0 0 14.78-6.285c3.23-1.673 5.85-3.056 8.472-4.435m-153.582 4.3c-.13.047-.257.079-.385.121.128-.042.256-.074.385-.12m2275.033 325.846c8.339 3.237 16.765 3.142 25.267 3.783.687.362 1.373.723 2.504 1.393 1.139.283 1.834.26 2.528.236.46-.144.92-.288 1.53-.426-.54.17-.984.394-1.368.725-.857-.275-1.55-.25-2.592-.234-.794-.269-1.39-.535-1.967-.934.554.382 1.066.588 1.524.625-.784-.662-1.472-1.024-2.092-1.066-8.57-.961-16.995-.865-25.334-4.102m186.203 3.195c4.02.272 8.05.4 12.076.565.236-.016.763-.033 1.104-.05-.443.033-.764.113-1.047.337-4.085-.452-8.114-.58-12.133-.852m-60.27.477c-6.88.013-13.76.017-21.103.053-.582.414-.815 1.108-.994 1.273.166-.165.295-.86.058-1.28-7.191.004-13.91.04-20.511.458-16.441-.069-32.764.243-49.553.562-1.058.33-1.842.65-2.635.838a5 5 0 0 0 1.74-.799q.264-.042.563-.082c17.122-.275 33.444-.587 49.767-.898 6.72-.037 13.44-.076 21.094-.108 7.816-.001 14.694-.004 21.574-.017m166.032 32.29c-.17 6.973-.033 13.66.365 20.075 3.508-7.022 1.128-13.68-.365-20.074M249.717 637.11q.486.048.96.11c1.335.172 2.597.408 3.803.556-1.261-.157-2.543-.41-3.802-.556q-.24-.028-.48-.05c-1.837 1.393-3.718 1.965-5.659 2.073 1.818-.127 3.558-.734 5.178-2.133m5.722.741c.3.022.607.06.899.062-.296-.002-.599-.04-.899-.062m1.776.03c-.14.012-.281.013-.422.018.14-.005.283-.006.422-.017m153.096 49.198c4.3.947 8.581 1.975 13.287 2.967 1.977-1.191 3.74-1.649 5.351-1.303-1.497-.294-3.042.207-4.59 1.46 3.109.708 5.871 1.26 8.59 1.433 5.305.902 10.756 2.53 15.873 2.25-5.116.285-10.56-1.3-15.828-1.871-2.763-.552-5.526-1.104-9.05-1.813-5.052-1.148-9.334-2.176-13.633-3.123m46.435 6.59c4.292.721 8.254 2.72 12.695 3.496-4.353-.703-8.33-2.761-12.695-3.496m1345.172 3.064c-1.628 2.547-2.601 5.514-3.865 8.293-.292 6.713-.584 13.426-.94 20.952l-.12.341c-.496-.587-1.31-.883-1.458-1.136.155.255 1.03.496 1.574.39.36-7.122.653-13.835.541-20.47 1.668-2.857 2.64-5.823 4.268-8.37M617.625 699.05c-1.215.003-2.429.666-3.334 1.3.716.297 1.26.496 1.76.577-.52-.08-1.145-.28-2.182-.586-2.12-.34-3.986-.664-5.762-.881 1.737.188 3.52.425 5.454.604 1.635-.347 2.85-1.01 4.064-1.014m226.475.01c-2.374.004-4.746.658-6.809 1.293 5.08.395 9.853.677 14.62.587 4.372-.081 8.738-.562 12.821-1.18 11.296.313 22.306.314 33.784.315 4.625-.206 8.782-.414 13.22-.312 4.96.31 9.638.309 14.782.31.886-.29 1.417-.807 1.902-.93-.473.128-.92.675-1.129 1.21 9.72.399 19.13.58 28.541.597 2.061.004 4.124-.568 5.9-1.187 1.665.313 3.044.313 4.836.314 1.769-.086 3.402-.066 5.077-.13-1.433.098-2.854.21-4.2.39-.21-.003-.36.018-.574.014-2.094-.276-3.474-.276-4.853-.276-2.062.307-4.125.88-6.186.875a764 764 0 0 1-29.006-.597c-5.451-.28-10.13-.28-14.808-.28-4.143.185-8.286.369-13.2.278-11.781-.276-22.79-.278-33.8-.278-4.37.305-8.735.786-13.108.867-4.766.09-9.54-.19-15.045-.587-2.44-.277-4.143-.276-5.847-.276-.953.068-2.147.05-3.141.102.994-.097 1.975-.209 2.883-.403 1.962.3 3.666.3 5.797.301 2.798-.357 5.17-1.013 7.543-1.017m-65.682.086c-.473.127-.917.675-1.125 1.209 9.056.393 17.8.578 26.547.58 2.392 0 4.785-.556 6.892-1.17 3.967.312 7.65.31 11.791.31 1.288-.086 2.403-.067 3.577-.129-.931.094-1.847.202-2.698.375-.228-.004-.363.026-.6.02-4.42-.265-8.102-.265-11.784-.264-2.393.302-4.786.858-7.178.858a646 646 0 0 1-27.016-.582c-16.453-.278-32.13-.28-47.806-.28-6.14.185-12.28.372-19.123.28-1.763-.277-2.82-.277-3.877-.276-1.041.115-2.082.231-3.334.262 1.154-.045 2.189-.224 3.11-.547 1.281.284 2.338.282 3.792.281 6.551-.208 12.707-.416 19.146-.312 15.962.313 31.64.314 47.784.316.888-.291 1.418-.809 1.902-.931m-94.686.617c5.663.306 11.043.301 16.836.304a70 70 0 0 1 3.362-.252c-.99.072-1.9.238-2.705.514l.314.012q-.352-.005-.73-.022c-6.035-.255-11.413-.249-16.791-.242-1.086.266-2.17.731-3.256.846 1.082-.119 2.135-.62 2.97-1.16m295.006 0c27.623.305 54.966.302 82.778.306 1.086.083 1.908.162 2.677.381-.735-.205-1.424-.234-1.996-.123 1.068.407 1.922.562 2.744.387 5.41 2.004 10.825 3.561 16.147 5.39-5.322-1.829-10.739-3.386-16.115-5.058-.855-.157-1.71-.313-3.245-.727-28.024-.254-55.368-.25-82.712-.248-1.494.073-3.225.054-4.762.11 1.53-.101 3.047-.217 4.484-.418m174.752 54.41c5.308 1.943 11.07 2.648 17.063 3.902 1.725-.31 3.12-.86 4.476-.996-1.345.14-2.66.722-3.738 1.28.843.301 1.513.508 2.139.593-.648-.084-1.398-.292-2.569-.6-6.302-1.53-12.063-2.236-17.37-4.18m1115.28.385c-.286.325-.468 1.606-.393 2.351l-.416.074c-11.317 1.389-21.827 2.658-32.314 4.082 10.487-1.424 20.997-2.693 31.918-4.062.633-.797.903-2.117 1.204-2.445m-493.973 1.078c-6.752.878-13.198 4.109-19.777 6.312-7.701.352-15.403.703-24.04 1.045-11.777.346-22.618.652-33.455 1.123 10.837-.47 21.68-.777 32.987-1.156 1.247-.583 2.114-1.53 2.978-1.799-.85.27-1.614 1.218-2.043 1.809 8.17-.318 15.87-.671 23.494-1.385 6.657-1.842 13.104-5.07 19.856-5.95m-536.881 2.959c3.445.422 6.799.45 10.61.486.925.064 1.535.124 2.12.344-.568-.213-1.088-.239-1.482-.104.75.336 1.319.44 1.838.26 1.046.324 2.042.396 3.039.404-.997-.008-1.994-.08-2.99-.123-.568-.102-1.137-.204-2.344-.547-3.993-.268-7.347-.297-10.701-.326-21.32.008-42.64.018-63.961.006 21.32.012 42.641 0 63.871-.4m898.467 3.623c3.115 1.014 6.167 2.514 9.533 3.158-3.313-.574-6.37-2.119-9.533-3.158m91.781.656c-3.364.727-6.753 1.343-10.13 2.006-.869-.073-1.738-.147-3.134-.447-.913-.243-1.298-.256-1.683-.27-.84.504-1.677 1.357-2.518 1.662.826-.308 1.587-1.17 2.03-1.719-17.977-.016-35.465.024-52.795.438.894.657 1.666 1.277 2.425 1.424-.763-.147-1.573-.766-2.765-1.42-1.179-.356-1.86-.34-2.54-.326-.476.155-.953.309-1.583.459.561-.178 1.02-.408 1.41-.75.854.277 1.534.262 2.555.244 17.829-.044 35.316-.085 53.293-.069a29 29 0 0 0 1.931.102c.959.01 1.756.02 2.537.164-.754-.131-1.448-.096-2.008.065 1.107.297 1.975.37 2.78.125 3.441-.345 6.83-.961 10.195-1.688" style="fill:#fff;fill-opacity:1"/></svg>