<svg viewBox="0 0 2515 696" xml:space="preserve" xmlns="http://www.w3.org/2000/svg"><path d="M1057.547 32.227c-9.567-.193-19.16.378-28.725.912-3.63.202-7.213 1.226-10.537 2.175 2.743.405 5.204.596 7.666.6-2.462-.004-4.924-.194-8.11-.57-3.08-.204-5.436-.136-7.794-.069-1.39.887-2.687 2.058-4.15 2.725 1.458-.668 2.71-1.849 3.753-2.822-3.019.575-5.744.988-8.246 1.97-7.189 2.824-14.287 5.876-21.033 8.864 8.562-2.55 16.76-5.042 24.887-7.758-8.126 2.716-16.326 5.21-24.88 7.766-.307-.015-.372-.03-.386-.036l-.002-.002h-.002c-1 .63-1.999 1.258-3.074 1.856A28 28 0 0 0 979.625 46c-2.02.965-3.708 1.913-5.217 3.084q-.257.112-.521.22c-.957.094-1.422.395-1.887.696-.53.379-1.179.75-1.729 1.127.491-.37.986-.738 1.381-1.104-1.783 1.007-3.217 1.992-4.285 3h-.002c-.36-.023-.367-.027-.367-.027-.415.376-.832.752-1.352 1.139.446-.373.786-.747 1.026-1.114-1.053.645-1.811 1.267-2.246 1.91q-.164.096-.342.192c-1.121.666-1.605 1.263-2.09 1.861a10 10 0 0 1-.818 1.075q.387-.534.478-1.041c-.73.634-1.164 1.24-1.312 1.828a10 10 0 0 1-.338.263c-4.093 4.068-7.546 7.98-11 11.891-.397.68-.793 1.358-1.275 2.057.405-.67.723-1.326.958-1.953-1.008 1.25-1.751 2.415-2.216 3.56q-.203.228-.426.461c-1.44 1.388-2.245 2.628-3.049 3.867-.376.885-.774 1.758-1.137 2.65.311-.86.59-1.717.813-2.533-9.452 10.698-11.815 23.68-13.055 36.862 1.176-2.284 2.809-4.538 3.127-6.73-.32 2.199-1.96 4.504-3.201 7.19-.457 9.882-.496 19.225-.535 28.569.659 1.991.43 4.229-.617 6.38.965-2.114 1.109-4.309.279-6.214-2.092 4.023-3.852 7.883-5.264 11.729q-.165.11-.334.22c-1.79 1.388-2.929 2.64-4.068 3.893-1.357.813-2.682 2.134-4.057 2.658 1.362-.524 2.619-1.843 3.623-2.645-10.62 2.2-20.512.61-30.326-2.248-1.363-.397-2.856-.352-4.197-.162 4.456 2.015 8.995 3.367 13.596 4.243-4.662-.885-9.296-2.259-13.918-4.315-.853-.452-1.292-.483-1.73-.514-3.082-.356-6.252-.369-9.227-1.136-6.936-1.79-13.777-3.941-21.125-6.362-1.528-.448-2.586-.482-3.645-.515-3.747 2.72-6.07-.778-9.365-2.455-1.52-.462-2.576-.508-3.633-.555-1.355.14-2.785.63-4.053.36 1.268.27 2.698-.22 3.887-.704-10.07-2.693-19.974-5.042-29.803-7.047 1.72 1 3.35 1.984 5.035 2.672-1.702-.692-3.394-1.693-5.355-2.754-.834-.458-1.272-.49-1.711-.525-3.911 2.29-7.06.854-10.387-2.45-1.855-.464-3.234-.509-4.613-.554-3.238 2.46-4.853-.559-7.393-2.455-1.85-.448-3.23-.49-4.609-.531-1.766-.243-3.52-.546-5.293-.756 1.725.157 3.452.304 5.13.412-9.506-2.773-18.839-5.252-28.202-7.61a119 119 0 0 0-12.612-2.447c2.624 1.353 5.118 2.578 7.747 3.326-2.63-.748-5.124-1.972-8.067-3.404-.826-.457-1.263-.49-1.701-.523-1.286.29-2.644.98-3.86.877 1.216.101 2.563-.609 3.673-1.23-5.745-1.034-11.303-1.713-16.754-2.03 4.345 1.345 8.562 2.464 12.841 3.228-4.279-.764-8.496-1.882-13.232-3.298-1.554-.47-2.61-.51-3.668-.547-1.29.286-2.662.985-3.87.863 1.208.12 2.569-.6 3.684-1.219-5.077-1.028-9.97-1.7-14.76-2.015 3.676 1.334 7.217 2.473 10.839 3.197-3.622-.724-7.162-1.863-11.198-3.268-1.192-.382-1.92-.335-2.648-.289-.2.354-.377.952-.594 1.147.207-.198.323-.81.139-1.252-7.805.873-15.154 1.854-22.242 3.123-.175.01-.321.031-.496.04-2.055-.195-3.43-.127-4.807-.06-1.796.622-3.592 1.243-5.504 1.819a59 59 0 0 0 5.117-1.916c-3.352.85-6.345 1.79-9.11 2.988q-.351.083-.712.164c-2.697.134-4.749.522-6.799.91-1.024.422-2.047.845-3.174 1.227 1.03-.39 1.975-.837 2.805-1.31-2.056.539-3.77 1.157-5.281 2.023q-.288.067-.586.13c-2.003-.172-3.378-.1-4.754-.027-1.025 3.432-3.355 4.261-7.115 3.057-1 .06-1.467.359-1.934.658-1.685.794-3.37 1.59-5.133 2.352a87 87 0 0 0 4.752-2.327c-3.305 1.282-6.261 2.541-9.025 4.026q-.356.127-.719.252c-.963-.157-1.397-.094-1.83-.032-.855.587-1.709 1.174-2.649 1.727a16.5 16.5 0 0 0 2.311-1.82c-1.698.828-3.093 1.74-4.324 2.869a20 20 0 0 1-.555.242c-1.62.437-2.721 1.081-3.822 1.725-.659.38-1.439.752-2.117 1.13.618-.371 1.237-.744 1.754-1.113-2.126 1-3.887 1.982-5.27 2.987.05-.024.089-.047.139-.07-.051.023-.085.048-.137.071-.376-.02-.379-.029-.379-.029-1.888 1.165-3.776 2.332-5.738 3.465 1.875-1.126 3.67-2.29 5.36-3.447-3.572 1.904-6.806 3.792-9.864 5.892q-.426.216-.858.428c-.954.094-1.419.397-1.882.701-.446.426-.891.853-1.407 1.248a6.6 6.6 0 0 0 1.08-1.232c-1.05.62-1.812 1.227-2.386 2.058a8 8 0 0 1-.422.2c-1.312.408-2.101 1.038-2.89 1.67-.473.425-.978.85-1.534 1.271.527-.416.939-.834 1.21-1.238-1.11.683-1.895 1.333-2.321 2.006.068-.041.123-.083.19-.123-.068.042-.113.085-.182.127a2.5 2.5 0 0 1-.358-.03l-.002-.002a36 36 0 0 1-1.922 1.692 12 12 0 0 0 1.588-1.666c-1.38.96-2.458 1.896-3.205 2.847q-.201.135-.416.27c-1.795 1.018-2.921 1.935-4.047 2.851a23 23 0 0 1-1.531 1.266c.526-.415.936-.83 1.207-1.232-1.11.68-1.897 1.328-2.324 2 .078-.046.14-.093.215-.139-.076.048-.128.097-.207.145-.285-.016-.345-.03-.358-.036h-.002c-.457.65-.915 1.3-1.681 1.983-.27.03-.323.005-.332-.002v-.002h-.002c-4.438 4.663-8.876 9.327-13.645 14.014-.268.019-.334-.002-.35-.01h-.001l-.002-.002c-1.85 1.828-3.7 3.656-5.659 5.5a137 137 0 0 0 5.31-5.465c-3.505 3.133-6.709 6.235-9.599 9.352q-.465.402-.941.806c-2.14 1.358-3.608 2.615-5.076 3.871a32 32 0 0 1-1.78 1.559 11.3 11.3 0 0 0 1.446-1.547c-1.317.906-2.356 1.802-3.098 2.717q-.264.165-.55.332c-2.48 1.32-4.259 2.608-6.036 3.896-3.742 2.018-7.485 4.036-11.611 6.034a6 6 0 0 1-.385-.024 7.6 7.6 0 0 1-.918.736c.27-.22.48-.471.606-.716-.737.33-1.188.644-1.483 1.164q-.16.06-.34.113c-.931.104-1.398.403-1.865.701-.62.444-1.243.885-1.934 1.297a11 11 0 0 0 1.59-1.275c-1.375.653-2.438 1.286-3.316 2.146q-.212.086-.434.168c-.968.072-1.435.373-1.902.672-.623.442-1.247.884-1.941 1.295a11 11 0 0 0 1.597-1.272c-1.378.65-2.445 1.279-3.324 2.135q-.21.087-.43.168c-.969.078-1.436.378-1.902.678-.628.44-1.255.879-1.955 1.287a11 11 0 0 0 1.615-1.264c-1.386.643-2.46 1.265-3.344 2.117q-.204.084-.42.163c-.968.084-1.435.385-1.9.687-.278.253-.555.506-.896.734.26-.22.461-.47.584-.712-.73.334-1.176.648-1.471 1.168q-.18.069-.381.128c-1.607.436-2.718 1.07-3.828 1.702-.28.248-.56.495-.902.718.263-.216.465-.462.59-.703-.733.325-1.182.636-1.48 1.149q-.179.066-.382.123c-1.608.438-2.717 1.073-3.826 1.709-1.336.776-2.672 1.554-4.18 2.318 1.49-.764 2.758-1.536 3.817-2.297-2.112 1-3.863 1.98-5.239 2.987l-.021.01c-.383-.03-.377-.022-.377-.022-.988.617-1.976 1.234-3.04 1.82a28 28 0 0 0 2.677-1.803c-2.016.956-3.705 1.896-5.215 3.055q-.278.121-.565.236c-1.283.172-2.053.551-2.822.93-1.828 1.004-3.655 2.008-5.574 2.973a69 69 0 0 0 5.21-3.053c-3.312 1.498-6.293 3.069-9.087 4.867q-.342.148-.69.293c-.966.08-1.434.375-1.902.67-1.933 1.426-3.703 3.19-5.828 4.219 2.125-1.03 3.895-2.792 5.451-4.2-6.311 2.788-12.312 5.425-18.158 8.37-3.929 1.979-7.637 4.392-11.06 6.635l-.014.003c-.389-.024-.387-.017-.387-.017-3.29 2.096-6.433 4.493-9.908 6.217 3.475-1.724 6.617-4.12 9.529-6.192-8.307 3.933-16.248 7.842-23.998 11.996l-.8.272c-1.303-.153-2.041-.087-2.778-.02-2.488 2.8-5.648 3.318-9.158 2.604 3.464.699 6.52.154 8.744-2.701-5.842 1.69-10.817.85-15.754-2.069-7.173-4.24-14.569-8.106-21.854-11.779.851 1.044 1.629 2.125 2.446 3.088-.817-.961-1.596-2.039-2.45-3.078-.016-.279-.009-.339-.005-.352v-.002l.002-.002c-.693-.396-1.386-.791-2.092-1.273.683.41 1.35.727 1.988.957-1.262-1.015-2.436-1.762-3.59-2.207a16 16 0 0 1-.38-.354c-.38-.771-.663-.94-.946-1.109-5.297-2.022-10.594-4.046-16.426-6.479-5.531-.358-10.528-.305-15.525-.253-1.685.643-3.372 1.287-5.17 1.882a47 47 0 0 0 4.781-1.982c-3.057.855-5.747 1.805-8.228 3.01q-.275.073-.555.142c-1.328.073-2.098.38-2.87.69-2.1 1.573-4.09 3.33-6.325 4.683-4.236 2.566-8.612 4.9-13.305 7.319-.305-.011-.37-.025-.383-.03l-.002-.002h-.002a23 23 0 0 1-1.5 1.245c.511-.41.91-.818 1.174-1.215-1.106.681-1.887 1.333-2.31 2.004.025-.016.045-.032.07-.047-.026.016-.042.033-.068.049a5 5 0 0 1-.356-.022c-3.052 2.26-6.105 4.518-9.316 6.766a179 179 0 0 0 8.959-6.735c-4.424 3-8.494 5.966-12.196 8.955l-.066.045a3 3 0 0 0-.367-.015h-.004c-1.111.982-2.222 1.966-3.67 2.968-.274.017-.338.003-.352-.003l-.002-.002h-.002v-.002c-1.352.962-2.704 1.924-4.17 2.894a57 57 0 0 0 3.813-2.86c-2.633 1.613-4.942 3.194-6.906 4.8l-.541.316c-.81.323-.993.603-1.176.883-.417.377-.832.753-1.357 1.144.448-.376.79-.755 1.029-1.129-1.052.644-1.803 1.273-2.235 1.922q-.172.1-.359.203c-1.462.673-2.273 1.258-3.084 1.844-1.857 1.485-3.714 2.97-5.642 4.426a121 121 0 0 0 5.285-4.4c-3.519 2.485-6.729 4.95-9.77 7.615q-.499.336-1.008.668c-1.282.447-2.063 1.091-2.845 1.734-.449.393-.926.782-1.446 1.17.484-.385.862-.774 1.118-1.158-1.113.66-1.9 1.306-2.33 1.978l-.003.002c-.355-.025-.353-.023-.353-.023-4.087 3.01-8.176 6.02-12.633 9.014-.37-.017-.375-.024-.375-.024-4.422 3.348-8.842 6.695-13.629 10.026-.364-.018-.37-.026-.37-.026-.601.56-1.2 1.123-1.903 1.692.63-.557 1.15-1.115 1.568-1.663-1.365.956-2.432 1.886-3.174 2.834q-.18.12-.369.239c-.78.33-.952.612-1.123.894-.968.931-1.935 1.863-3.006 2.803a33 33 0 0 0 2.664-2.771c-1.984 1.581-3.667 3.135-5.027 4.705a40 40 0 0 1-.498.373c-.784.33-.958.608-1.133.886-1.348 1.301-2.697 2.602-4.215 3.891a35 35 0 0 0 3.871-3.863c-2.1 1.677-3.861 3.326-5.26 4.998l-.02.015c-.37-.025-.364-.015-.364-.015-1.43 1.343-2.858 2.686-4.647 4.01a3 3 0 0 1-.365-.032h-.002v-.002h-.002c-.785.745-1.57 1.49-2.498 2.223.905-.733 1.622-1.472 2.164-2.2-1.424 1.009-2.518 1.994-3.256 3.005l-.027.02c-.28-.025-.343-.022-.357-.018h-.002l-.002.002c-.098.657 0 1.574-.21 2.087.2-.51.048-1.411-.124-1.994-5.965 4.902-11.61 9.717-16.91 14.547l-.643.438c-.782.334-.955.615-1.127.896-2.308 1.97-4.615 3.94-7.14 5.897a83 83 0 0 0 6.785-5.87c-3.113 2.343-5.872 4.66-8.264 6.995l-.01.007c-.37-.02-.367-.017-.367-.017-1.385 3.124-3.435 5.515-5.957 7.492 2.447-1.954 4.415-4.322 5.629-7.392-4.744 4.008-9.164 7.918-13.223 11.847l-.322.149c-.784.335-.956.618-1.129.9-.788.747-1.577 1.494-2.469 2.25a21 21 0 0 0 2.13-2.225c-1.68 1.266-3.054 2.507-4.106 3.768q-.212.151-.434.305c-.78.334-.95.617-1.121.9-1.426 1.347-2.852 2.694-4.639 4.022-.36-.02-.367-.03-.367-.03-.79.747-1.58 1.496-2.473 2.252.82-.744 1.53-1.49 2.133-2.224-1.68 1.267-3.057 2.512-4.111 3.77q-.21.15-.43.3c-.779.335-.95.613-1.12.892a33 33 0 0 1-1.65 1.946c.577-.647 1.021-1.288 1.303-1.914-1.124 1.008-1.903 1.986-2.335 2.953.143-.128.266-.255.398-.383-.134.132-.236.262-.38.395-.268.018-.333 0-.349-.008l-.001-.002h-.002c-2.431 2.67-4.863 5.34-7.635 8.021-.278.01-.336.001-.348-.002h-.004c-.968 1.281-1.937 2.56-3.004 3.858a43 43 0 0 0 2.65-3.824c-1.96 2.181-3.615 4.334-4.97 6.474q-.27.289-.553.578c-.761.383-.931.672-1.1.96-.232.507-.464 1.015-.783 1.538q.37-.755.467-1.457c-.716.93-1.167 1.792-1.326 2.625q-.132.15-.277.301c-.76.386-.93.668-1.098.95-.747 1.99-1.197 4.178-2.172 6.017.971-1.838 1.385-4.013 1.846-5.914-3.425 4.088-6.918 7.832-9.549 12.107a1413 1413 0 0 0-22.49 37.91c-3.509 6.121-6.428 12.58-9.264 18.858l-.012.01a3 3 0 0 0-.343.033h-.004v.002c-.393.886-.935 1.879-1.354 2.783.379-.902.744-1.803 1.016-2.674-1.367 2.38-2.396 4.652-3.08 6.871.149-.256.25-.504.39-.76-.194.364-.292.66-.503 1.036-.794.805-1.128 1.283-1.463 1.761-2.257 5.035-4.328 10.163-6.807 15.086 2.479-4.923 4.55-10.051 6.463-14.982-4.294 7.09-8.504 13.943-12.133 21.092-4.986 9.823-9.532 19.87-13.918 29.777.913-.788 1.689-1.473 2.203-2.273-.515.804-1.3 1.526-2.283 2.593-.467.802-.504 1.239-.541 1.676 2.255 4.762-.054 8.798-2.469 13.356-.448 1.53-.479 2.59-.51 3.648.189 1.84.378 3.68.311 6.154-.19 1.689-.127 2.744-.062 3.8 3.593 3.514 4.176 7.825 3.056 13.11-.193 1.026-.133 1.46-.072 1.893 1.23 2.478 2.462 4.956 3.648 7.54a111 111 0 0 0-3.74-7.163c1.815 4.32 3.716 8.289 5.861 12.057q.144.351.286.709c.098.97.413 1.426.728 1.882.39.55.774 1.177 1.162 1.748a17 17 0 0 0-1.142-1.398c.994 1.784 1.968 3.221 2.968 4.28q.002.002.002.005c-.026.382-.021.38-.021.38 1.351 1.677 2.702 3.355 4.04 5.224a46 46 0 0 0-4.013-4.87c1.672 2.446 3.317 4.537 4.985 6.264l.007.014c-.024.368-.017.367-.017.367 1.061.348 2.229.525 3.209 1.004-.979-.474-2.135-.617-3.111-.678 5.855 4.912 11.022 10.5 18.876 11.074a331 331 0 0 0-15.359-10.171c5.142 3.208 10.205 6.544 15.682 10.248.825.441 1.264.47 1.703.5 1.211-.277 2.42-.75 3.633-.875-1.21.13-2.397.644-3.434 1.24 9.162.438 18.165 1.04 27.07.357 4.314-.33 8.444-3.046 12.264-4.715l.053-.01c.306.022.377.012.392.007h.002v-.002h.002c.28-.251.561-.503.905-.729a2.3 2.3 0 0 0-.59.711c.731-.328 1.178-.64 1.476-1.158q.181-.068.385-.127c1.93-.842 3.362-1.884 4.795-2.926 1.599-1.138 3.198-2.276 5.213-3.289.39.117.522-.037.537-.057v-.002a316 316 0 0 1 3.719-5.976 180 180 0 0 0-3.446 5.805c2.571-3.784 4.92-7.426 6.989-11.045q.462-.646.943-1.295c.786-.714.939-1.296 1.092-1.877.907-1.53 1.815-3.058 2.808-4.608a68 68 0 0 0-2.482 4.496c1.908-2.75 3.549-5.408 4.91-8.037a57 57 0 0 1 .719-.953c1.111-1.062 1.581-1.974 2.05-2.885.562-1.011 1.123-2.023 1.77-3.054a27 27 0 0 0-1.447 2.937c1.306-1.85 2.348-3.604 3.105-5.328q.254-.33.528-.664c1.113-1.062 1.58-1.975 2.047-2.889.805-1.238 1.609-2.475 2.562-3.716a22.6 22.6 0 0 0-2.246 3.607c1.422-1.706 2.53-3.303 3.285-4.887l.02-.021c.296-.007.347-.018.355-.022v-.002h.002c.113-2.554 1.555-4.649 3.56-5.867-1.91 1.213-3.254 3.272-3.23 5.766 3.453-4.54 7.618-5.792 12.649-4.514-1.087-1.189-2.364-1.907-3.68-2.23 1.426.314 2.826 1.056 4.043 2.31 1.183.468 1.924.503 2.666.54 3.25-2.447 4.873.522 7.305 2.486.823.436 1.26.466 1.699.496 3.262-2.442 4.85.605 7.297 2.511.823.44 1.262.473 1.699.508.997.265 2.095.664 3.11.951-1.002-.241-2.002-.476-2.964-.617 2.71 1.026 5.273 1.721 7.758 2.086.103.038.186.049.29.088.31.413.79.506.79.506 3.617 1.447 8.513-.604 11.338 4.443.806.463 1.244.495 1.682.526.903.273 1.932.682 2.857.98-.919-.258-1.833-.499-2.709-.646 2.397 1.03 4.647 1.727 6.834 2.093-.38-.165-.746-.267-1.123-.416.504.19.911.276 1.442.494.817.448 1.254.487 1.691.526.787.275 1.7.684 2.51.984-.806-.264-1.607-.507-2.371-.66 2.063 1.016 3.988 1.706 5.855 2.074-.471-.235-.924-.391-1.388-.591.59.244 1.07.374 1.709.67.816.43 1.254.46 1.693.49 3.81.793 7.742 1.23 11.408 2.457-3.666-1.226-7.597-1.663-11.254-2.12 3.07 1.281 6.018 2.142 8.899 3.184 9.342 3.378 18.66 6.823 27.923 9.906-1.875-1.371-3.594-2.64-5.513-3.404 1.92.764 3.638 2.031 5.834 3.48.822.448 1.261.485 1.699.52.78.273 1.685.68 2.488.979-.798-.262-1.592-.503-2.35-.655 2.063 1.018 3.987 1.71 5.854 2.078-.446-.223-.875-.37-1.314-.562.565.237 1.023.358 1.633.643.813.441 1.251.478 1.689.515 3.005.676 6.127 1.03 8.99 2.09 6.706 2.48 13.287 5.3 20.307 8.396.826.448 1.265.478 1.703.51 1.798.31 3.611.563 5.412.864-1.778-.266-3.558-.416-5.258-.526 3.666 1.545 7.143 2.864 10.694 3.936 7.378 2.228 14.795 4.326 22.125 6.132-1.108-.83-2.132-1.596-3.205-2.136 1.09.544 2.177 1.324 3.527 2.213.832.451 1.27.482 1.709.513 1.16.27 2.478.677 3.666.971-1.184-.253-2.362-.49-3.496-.63 3.07 1.027 5.97 1.714 8.8 2.064-.46-.156-.904-.25-1.36-.391.618.182 1.119.26 1.769.469 1.857.453 3.237.49 4.617.529 1.283.262 2.729.664 4.041.951-1.306-.243-2.609-.472-3.865-.603 3.407 1.019 6.64 1.69 9.8 2.02-.364-.11-.716-.174-1.08-.276.529.142.953.195 1.5.353 2.197.46 3.903.498 5.61.536 1.343-.16 2.744-.646 4.017-.418 3.634.648 7.217 1.588 11.358 2.851 2.9.484 5.261.529 7.623.574 2.329.25 4.658.5 7.133.9a45.6 45.6 0 0 0-6.95-.542c3.397.705 6.611 1.054 9.74 1.052l.348.073c.85.455 1.29.486 1.73.517 1.568-.35 3.135-.699 5.22-1.48 1.12-8.189 1.724-15.946 2.359-24.096-2.913-.412-5.479-.821-8.057-1.13-5.851-.703-11.701-1.43-17.566-2.005-4.922-.482-9.988-.196-14.772-1.246-10.185-2.235-20.258-5.015-30.324-7.763-9.93-2.712-19.87-5.423-29.664-8.577-7.973-2.566-15.73-5.806-23.596-8.707-3.64-1.342-7.358-2.482-10.962-3.914-3.693-1.466-7.208-3.405-10.944-4.734-8.981-3.196-18.076-6.074-27.068-9.24-6.037-2.126-11.912-4.717-17.977-6.754-6.917-2.324-14.127-3.844-20.918-6.467-11.807-4.56-23.33-9.367-36.199-10.953-10.821-1.334-19.567 1.33-26.02 9.338-7.88 9.779-14.525 20.544-21.915 30.73-4.627 6.377-7.602 14.541-16.55 16.614-3.186.738-6.486 1.018-9.64 1.863-10.494 2.81-18.75-4.598-22.869-12.092-3.717-6.763-5.12-13.858-5.625-21.144-.383-5.527-.692-11.812 1.482-16.622 6.695-14.807 14.32-29.218 22.102-43.502 9.034-16.583 18.607-32.872 27.96-49.28 10.72-18.806 22.86-36.563 39.259-50.946 8.437-7.4 17.418-14.177 26.006-21.41 5.066-4.268 9.634-9.139 14.8-13.272 7.617-6.093 15.69-11.615 23.34-17.668 8.043-6.363 15.587-13.371 23.778-19.529 7.886-5.93 16.4-11.018 24.492-16.684 9.604-6.724 19.004-13.742 28.584-20.502 9.674-6.826 19.332-13.69 29.273-20.113 3.141-2.03 7.1-3.476 10.807-3.808 7.843-.704 14.527.988 21.191 6.857 7.62 6.711 17.571 10.828 26.674 15.771 2.885 1.567 6.243 2.836 9.475 3.092 14.792 1.173 28.465-3.082 41.427-9.758 11.905-6.13 23.536-12.795 35.46-18.888 8.377-4.281 17.034-8.017 25.583-11.96 7.752-3.574 15.635-6.881 23.264-10.7 9.921-4.967 19.55-10.523 29.484-15.461 11.77-5.85 22.398-13.496 31.018-23.116 9.244-10.316 19.373-19.498 30.68-27.115 9.254-6.234 19.777-10.594 29.789-15.687 15.554-7.913 32.823-9.568 49.545-12.973 7.683-1.564 15.842-.735 23.78-1.107 7.804-.366 14.923 3.114 22.798 3.51 9.368.47 18.55 4.465 27.832 6.867a2657 2657 0 0 0 25.64 6.482 9392 9392 0 0 0 35.85 8.81c4.54 1.108 9.078 2.24 13.652 3.186 5.76 1.19 11.622 1.929 17.319 3.352 9.39 2.346 18.624 5.321 28.031 7.59 9.364 2.258 18.783 4.623 28.318 5.755 11.557 1.373 23.29 1.416 33.149-6.498 3.555-2.854 7.322-5.742 9.96-9.367 3.824-5.253 8.398-10.851 9.618-16.912 2.052-10.197 1.758-20.873 2.373-31.352.253-4.305-.647-8.922.603-12.884 6.729-21.316 19.77-37.29 41.202-45.194 7.298-2.691 14.964-4.473 22.566-6.216 3.976-.912 8.171-1.026 12.28-1.166 5.572-.191 11.156-.095 16.734-.051 2.148.017 4.292.283 6.441.34 2.922.077 5.846.096 8.77.074 1.967-.015 3.958-.382 5.896-.182 8 .828 15.971 1.97 23.98 2.676 4.664.411 9.413-.1 14.065.375 5.693.582 11.295 2.054 16.988 2.627 14.904 1.5 29.889 2.304 44.742 4.172 15.21 1.912 30.3 4.782 45.45 7.178 2.917.46 5.917.456 8.804 1.039 7.15 1.442 14.216 3.32 21.391 4.607 7.383 1.325 14.856 2.157 22.287 3.219.32.045.61.28.93.35 7.003 1.505 14.01 2.99 21.014 4.497 7.017 1.511 14.042 2.99 21.043 4.579 6.188 1.404 12.314 3.092 18.525 4.378 7.47 1.548 15.08 2.48 22.486 4.272 7.779 1.882 15.258 5.298 23.106 6.512 8.167 1.263 15.302 6.755 23.965 5.44 4.56 4.422 11.078 3.436 16.437 5.886 4.2 1.92 9.231 1.94 13.764 3.25 5.761 1.664 11.386 3.796 17.082 5.693 8.338 2.778 16.778 5.28 25 8.365 6.497 2.44 12.63 5.846 19.11 8.342 8.724 3.361 17.727 6.007 26.429 9.422 10.283 4.036 20.376 8.561 30.547 12.883 7.667 3.258 15.338 6.502 22.986 9.805 5.524 2.385 10.982 4.929 16.523 7.273 11.33 4.793 22.782 9.308 34.008 14.328 4.8 2.146 9.04 5.516 13.752 7.895 9.281 4.684 18.736 9.022 28.078 13.586 7.074 3.455 14.194 6.838 21.096 10.615 8.846 4.84 17.444 10.132 26.238 15.068 10.5 5.894 21.105 11.6 31.645 17.424 4.514 2.494 8.839 5.363 7.506 11.488-1.35 6.202-3.93 12.212-4.633 18.457-.974 8.665-1.112 17.485-.78 26.207.164 4.276 1.3 9.042 3.545 12.612 6.743 10.722 13.83 21.233 24.917 28.336 13.459 8.622 26.445 17.992 39.97 26.506 11.452 7.208 23.239 13.92 35.137 20.373 12.266 6.652 24.805 12.808 37.307 19.02 5.903 2.932 12.066 5.344 17.988 8.241 8.578 4.198 16.953 8.818 25.584 12.9 11.195 5.296 22.588 10.173 33.838 15.356 9.65 4.446 19.184 9.14 28.832 13.588 4.783 2.205 9.709 4.1 14.566 6.145 3.755 1.58 7.457 3.299 11.27 4.72 3.623 1.35 7.46 2.15 11.029 3.62 13.06 5.375 26.01 11.022 39.082 16.372 5.666 2.32 11.569 4.05 17.283 6.258 6.368 2.462 12.515 5.553 18.99 7.658 7.507 2.44 15.34 3.861 22.899 6.157 16.904 5.133 33.708 10.594 50.592 15.797 7.266 2.239 14.625 4.179 21.947 6.236 3.568 1.002 7.158 1.93 10.723 2.945 5.748 1.636 11.431 3.545 17.242 4.912 5.812 1.368 11.835 1.871 17.61 3.362 10.391 2.682 20.398 6.025 31.624 5.1 11.505-.95 23.19.47 34.799.55 5.936.04 11.88-.89 17.816-.842 10.488.084 20.973.797 31.46.834 7.804.028 15.612-.917 23.415-.861 18.143.13 36.289.445 54.422 1.006 8.156.252 16.317 1.033 24.418 2.039 4.466.554 8.907 1.793 13.184 3.24 3.676 1.244 6.391 3.994 5.916 8.207-.607 5.378-7.522 11.572-12.889 11.97-9.578.712-19.153 1.691-28.746 1.932-14.493.364-28.747-1.392-42.467-6.466-3.515-1.3-7.08-2.981-10.728-3.317-11.093-1.019-22.23-1.796-33.363-2.052-14.121-.326-28.159.408-41.83 4.79-5.227 1.676-10.843 2.128-16.27 3.196a4004 4004 0 0 0-24.799 4.976c-.632.129-1.198.556-1.828.717-6.894 1.76-13.766 3.624-20.701 5.201-7.156 1.627-14.382 2.944-21.567 4.444-5.551 1.159-11.068 2.49-16.634 3.568-7.365 1.428-14.81 2.473-22.133 4.08-6.146 1.349-12.1 3.594-18.262 4.836-5.595 1.128-11.365 1.366-17.04 2.125-10.223 1.368-20.448 2.719-30.64 4.29-9.2 1.417-18.353 3.128-27.53 4.69-9.035 1.539-18.074 3.054-27.11 4.579-6.767 1.142-13.519 2.38-20.303 3.4-8.53 1.284-17.11 2.234-25.623 3.613-10.147 1.645-20.22 3.746-30.37 5.37-11.957 1.913-23.96 3.537-35.946 5.261-2.603.374-5.243.516-7.829.973-8.793 1.552-17.521 4.11-26.367 4.6-14.122.78-28.319.222-42.484.189-1.478-.003-2.97-.195-4.43-.447-4.658-.807-9.3-1.706-13.955-2.53-6.71-1.187-13.695-1.56-20.05-3.76-4.934-1.707-10.057-1.46-15.128-3.767-7.61-3.461-16.634-3.815-25.058-5.484-6.847-1.357-13.745-2.496-20.528-4.121-5.518-1.323-10.847-3.424-16.351-4.817-7.372-1.865-14.82-3.446-22.26-5.03-6.703-1.426-13.453-2.63-20.158-4.046a479 479 0 0 1-15.615-3.598c-5.653-1.393-11.236-3.078-16.916-4.336-5.72-1.265-11.573-1.944-17.272-3.283-5.626-1.322-11.069-3.438-16.707-4.695-11.318-2.525-22.722-4.672-34.078-7.031-7.818-1.624-15.593-3.461-23.436-4.946-2.412-.456-4.992-.178-7.484-.04-4.278.235-8.56.514-12.818.978-5.708.622-11.433 1.231-17.078 2.246-3.5.629-7.312 1.306-10.207 3.168-8.062 5.185-16.033 10.618-23.454 16.67-8.191 6.68-15.44 14.522-23.662 21.16-5.602 4.523-11.73 9.517-18.42 11.285-8.344 2.206-16.997 4.51-26.14 3.633-9.031-.867-18.213-.314-27.324-.158-11.819.202-23.633.734-35.452.922-8.538.135-17.083.027-25.623-.13-10.324-.188-20.643-.683-30.968-.798q-53.666-.602-107.332-.977c-4.104-.028-8.452 1.623-12.266.721-6.565-1.552-12.978-.726-19.48-.875-12.615-.288-25.209-1.441-37.823-1.738-7.956-.188-15.933.786-23.9.77-8.608-.019-17.213-.832-25.82-.84-8.985-.01-17.968.606-26.956.794-5.044.106-10.096-.167-15.144-.15-7.238.024-14.476.265-21.713.22-10.318-.062-20.637-.539-30.95-.37-6.225.101-10.118-1.894-12.038-7.565-1.691-4.993-3-10.14-5.032-14.988-3.852-9.192-9.614-17.014-20.039-18.895-6.817-1.23-13.93-1.043-20.914-1.09-19.199-.127-38.402.17-57.597-.132-9.545-.15-19.068-1.384-28.614-1.86-5.7-.284-11.425-.011-17.138-.056-40.643-.322-81.285-.68-121.928-.983-11.044-.082-22.09.106-33.133-.039-17.774-.233-35.547-.647-53.32-.97-18.773-.343-37.544-.87-56.318-.96-33.042-.157-66.085-.043-99.127-.043h-13.473l1.344-22.312-27.88-1.877-5.027 76.98 27.967 1.87c.205-3.51.301-6.489.567-9.453.587-6.573 1.26-13.14 1.898-19.708 1.169-.522 2.335-1.436 3.506-1.662-1.164.227-2.28 1.15-3.04 1.729 11.72.399 22.973.943 34.227 1.017 18.799.125 37.6-.05 56.284-.476-.666-.399-1.291-.751-1.903-.992.672.247 1.415.613 2.364 1.058 9.587.48 18.597.517 27.607.555 1.728-.323 3.456-.922 5.186-.926-1.73.004-3.457.604-4.965 1.3 45.149.768 90.078 1.125 135.006 1.593 9.119.095 18.232.799 27.351.879 13.823.12 27.65-.06 41.358-.489-1.03-.609-1.964-1.115-2.899-1.26.94.145 1.914.66 3.258 1.327 1.202.399 1.928.356 2.654.312.196-.353.399-.967.592-1.148-.184.184-.322.813-.129 1.256 7.116.037 13.778-.032 20.324-.465l.659.055c19.586.482 38.594.521 57.603.56 1.338-.254 2.677-.668 4.016-.846-1.33.193-2.629.676-3.797 1.221 28.176.767 56.136 1.132 84.094 1.592 2.463.04 4.917.641 7.337.674l.364.322c.484 1.47.86 2.235 1.234 3 .442.87.883 1.741 1.281 2.707a13.4 13.4 0 0 0-1.373-2.351c.55 1.738 1.184 3.143 2.075 4.353q.063.219.123.447c-.183.967-.12 1.403-.059 1.838 1.188 2.345 2.376 4.687 3.572 7.18a106 106 0 0 0-3.668-6.813 121 121 0 0 0 5.592 10.957l.27.608c.03.618.187 1.072.187 1.072.702 1.093 1.412 2.313 2.115 3.438-.723-1.092-1.451-2.134-2.2-3.077 1.55 2.81 3.187 5.26 4.81 7.342-.251-.445-.503-.823-.754-1.25.255.434.505.788.762 1.238.017.288.005.352 0 .366v.002l-.002.002c2.146 1.125 4.294 2.25 6.462 3.474a93 93 0 0 0-6.427-3.105c3.675 2.241 7.32 4.174 10.947 5.81q.565.36 1.135.737c.729.774 1.318.911 1.908 1.048 2.056-.307 4.115-.9 6.168-.876-2.053-.023-4.111.57-5.979 1.24 8.085.766 15.975 1.341 23.875 1.537 17.888.443 35.78.875 53.67.984 21.77.133 43.542-.07 65.198-.506-.552-.552-1.02-1.018-1.485-1.18.477.163 1.016.64 1.946 1.249 15.92.485 31.264.526 46.607.566 1.84-.188 3.68-.376 6.225-.312 6.06.274 11.417.296 16.773.318 1.365-.287 2.728-.79 4.094-.914-1.362.13-2.702.675-3.875 1.289 38.233.773 76.248 1.127 114.261 1.6 9.75.12 19.494.85 29.243.888 22.442.089 44.884-.075 67.21-.511-1.179-.603-2.262-1.102-3.345-1.243 1.09.142 2.224.648 3.807 1.31 12.236.397 23.895.351 35.554.304 3.023-.688 6.045-1.377 9.223-2.002-3.076.63-6.024 1.347-8.807 2.105 5.085-.86 9.765-1.822 14.184-3.064l.554-.086c1.375.196 2.112.133 2.85.072.53-.498.995-1.213 1.563-1.588-.555.378-.955 1.109-1.15 1.686 6.118-1.87 11.83-3.837 17.341-6.057l.396-.088c.968-.096 1.433-.398 1.897-.701.614-.43 1.228-.86 1.916-1.264-.602.394-1.133.82-1.574 1.24 1.379-.64 2.447-1.26 3.328-2.107q.234-.096.482-.185c2.318-.755 4.084-1.718 5.85-2.68 3.59-3.76 7.047-7.658 10.81-11.234-3.763 3.576-7.22 7.475-10.453 11.214 7.299-6.548 14.255-13.077 20.86-19.632l.67-.489c1.134-.66 1.627-1.25 2.12-1.842.23-.333.46-.666.778-1.011q-.35.502-.435.984 1.049-.905 1.296-1.756.184-.136.397-.277c3.436-2.712 6.197-5.334 8.957-7.957a18 18 0 0 1 1.355-1.147c-.447.376-.788.752-1.029 1.12 1.05-.646 1.805-1.268 2.24-1.913q.15-.086.309-.171c.775-.328.949-.61 1.123-.893.282-.254.565-.506.91-.734-.267.22-.473.47-.598.714.735-.332 1.185-.646 1.479-1.166q.169-.065.357-.12c1.27-.442 2.058-1.074 2.846-1.706 2.514-1.56 4.877-3.51 7.586-4.576-2.709 1.067-5.072 3.015-7.205 4.559 5.786-2.006 11.192-3.994 16.373-6.26l.416-.045c1.675.177 2.73.11 3.783.043.698-.24 1.395-.482 2.207-.678a7.4 7.4 0 0 0-1.841.782c1.455-.205 2.554-.51 3.458-1.077q.217-.027.446-.05c2.004.257 3.395.279 4.787.3 1.962.007 3.924.013 6.047.147a33 33 0 0 0-5.848.224c3.063.375 5.928.382 8.69.03l.486.058c2.902.472 5.262.515 7.621.557 4.29.673 8.58 1.345 13.352 2.44 1.536.462 2.593.503 3.65.544 1.2-.225 2.483-.808 3.621-.76-1.135-.043-2.4.58-3.453 1.11 5.485 1.755 10.772 3.295 16.129 4.53 4.878 1.123 9.832 1.913 14.681 2.5-1.033-.879-1.953-1.71-2.97-2.114 1.022.405 1.982 1.245 3.334 2.19 1.174.472 1.916.517 2.656.562 3.896-2.195 6.917-.124 10.377 2.45 1.512.454 2.57.49 3.627.526 1.402.266 2.951.67 4.379.96-1.42-.245-2.837-.478-4.21-.614 3.74 1.032 7.308 1.72 10.792 2.063-.2-.056-.391-.086-.59-.139.338.087.611.116.955.209 1.19.457 1.93.498 2.67.54 6.297 1.347 12.595 2.695 19.334 4.464 1.183.46 1.925.499 2.666.537 1.281.264 2.707.665 4.014.953-1.297-.242-2.59-.472-3.836-.603 3.41 1.023 6.64 1.697 9.799 2.029-.195-.059-.381-.09-.575-.147.332.093.599.124.938.223 1.179.458 1.921.497 2.662.537 1.157.264 2.465.666 3.648.955-1.178-.246-2.353-.477-3.484-.613 3.072 1.02 5.98 1.696 8.818 2.033-.353-.118-.693-.186-1.044-.295.504.15.909.207 1.433.375 1.515.462 2.572.505 3.629.547 1.395.263 2.939.663 4.36.95-1.415-.242-2.827-.474-4.194-.608 3.738 1.03 7.309 1.717 10.789 2.053-.19-.053-.374-.082-.564-.133.329.085.594.112.93.203 1.196.462 1.935.503 2.675.545 1.149.264 2.43.663 3.602.951-1.165-.244-2.326-.475-3.446-.611 3.07 1.021 5.984 1.704 8.819 2.045-.214-.072-.418-.112-.631-.18.336.104.607.14.951.252.838.448 1.275.482 1.713.516 1.643.17 3.276.398 4.924.543a121 121 0 0 0-4.756-.192c6.736 1.711 13.304 3.07 19.79 4.082-1.948-.949-3.817-1.902-5.724-2.539 1.926.641 3.858 1.607 6.045 2.61.84.451 1.278.485 1.715.519 1.287.264 2.726.668 4.041.957-1.307-.245-2.61-.476-3.87-.61 3.409 1.024 6.644 1.7 9.81 2.034-.331-.1-.65-.157-.979-.25.482.131.872.18 1.37.324 1.515.462 2.572.505 3.628.547 1.167.266 2.485.67 3.68.96-1.189-.248-2.371-.48-3.51-.616 3.075 1.018 5.979 1.693 8.816 2.029-.408-.137-.803-.217-1.209-.342.56.164 1.014.232 1.598.418 1.513.455 2.572.495 3.629.535 1.378.26 2.89.657 4.29.94-1.39-.236-2.78-.464-4.124-.594 3.719 1.025 7.272 1.705 10.736 2.04.134.035.241.044.375.081.848.46 1.286.494 1.723.53 1.038.228 2.115.5 3.248.83-1.078-.302-2.123-.477-3.104-.497 1.73.692 3.316 1.051 4.848 1.082-.214-.086-.424-.152-.637-.228.326.11.612.175.957.307.812.44 1.25.474 1.688.51 4.124-1.904 7.597-.366 11.293 2.486.83.456 1.266.492 1.703.527 3.901-2.206 6.919-.125 10.373 2.463 1.512.46 2.568.501 3.625.543 5.291.67 10.583 1.341 16.393 2.44 2.549.466 4.58.505 6.611.544 1.352-.282 2.707-.793 4.057-.9-1.347.112-2.68.663-3.866 1.262 3.58.779 6.965 1.522 10.358 1.558 12.908.139 25.82.165 38.726-.045 2.917-.047 5.814-1.217 8.465-2.166-2.842-.105-5.43.285-8.014.242 2.583.043 5.173-.346 8.428-.275 2.045.198 3.42.132 4.795.068 2.742-.673 5.483-1.345 8.371-1.96a122 122 0 0 0-7.959 2.062c4.736-.864 9.075-1.824 13.162-3.065l.614-.103c1.707.2 2.761.143 3.816.086 2.915-1.048 5.755-2.579 8.76-3.043-3.005.464-5.846 1.995-8.338 3.143 5.675-.672 10.942-1.352 16.174-2.239a126 126 0 0 0 13.178-2.957c-3.856.242-7.644.51-11.391.87 3.795-.366 7.678-.642 11.72-.901 1.024.217 1.458.163 1.893.11 2.978-1.73 6.047-3.055 9.447-3.473-3.3.41-6.285 1.77-9.013 3.576 5.49-.89 10.55-1.882 15.34-3.172-2.225-.553-4.323-.652-6.307-.408 2.081-.254 4.288-.17 6.678.377 1.376.205 2.114.143 2.853.082 2.531-.67 5.063-1.34 7.73-1.953a103 103 0 0 0-7.316 2.054c4.4-.863 8.4-1.825 12.162-3.062l.592-.106c1.356.199 2.095.14 2.834.08 5.651-3.971 12.094-3.565 19.102-3.078 1.034.211 1.468.156 1.902.102 4.52-4.106 9.977-3.868 16.098-3.086 1.034.195 1.467.136 1.9.078 2.753-.996 5.435-2.379 8.276-2.908-2.84.53-5.523 1.912-7.86 3.006 5.813-.738 11.231-1.453 16.598-2.451 3.033-.565 5.98-1.586 8.72-2.694.161-.013.29-.041.452-.055 1.701.2 2.755.14 3.81.079 2.98-.682 5.962-1.363 9.094-1.985-3.025.626-5.93 1.338-8.67 2.088 5.075-.864 9.74-1.83 14.156-3.074l.608-.096c1.704.196 2.76.133 3.814.07 2.48-.653 4.96-1.306 7.58-1.908a103 103 0 0 0-7.166 2.014c4.386-.856 8.374-1.812 12.123-3.04l.688-.122c2.374.185 4.073.12 5.773.053 2.507-1.85 5.171-3.071 8.186-3.428 1.85-.22 3.832-.114 5.996.377 1.715.2 2.77.141 3.824.084 3.392-.73 6.782-1.457 10.34-2.115a167 167 0 0 0-9.918 2.212c5.447-.88 10.479-1.856 15.248-3.115l.438-.066c1.024.195 1.459.138 1.892.082 2.762-.946 5.462-2.179 8.297-2.776-2.835.597-5.536 1.83-7.883 2.874 2.47-.246 4.544-.5 6.574-.95 5.652-1.253 11.282-2.592 16.686-4.177.161-.017.291-.05.453-.067 1.004.202 1.439.15 1.873.096 2.491-.663 4.981-1.325 7.608-1.934a104 104 0 0 0-7.188 2.032c4.388-.87 8.374-1.834 12.123-3.067q.323-.06.65-.117c1.694.186 2.747.118 3.801.05 1.835-.63 3.67-1.261 5.627-1.845a59 59 0 0 0-5.24 1.945c3.376-.848 6.388-1.79 9.168-2.994q.323-.074.65-.146c1.69.179 2.742.11 3.795.04 1.42-2.03 3.173-3 5.195-3.343-1.934.347-3.59 1.354-4.806 3.443 3.813-.872 7.238-1.845 10.408-3.103q-.78-.172-1.533-.287c.616.079 1.21.122 1.86.25 1.014.187 1.447.128 1.88.07 1.525-.82 2.977-1.988 4.56-2.535-1.578.548-2.984 1.726-4.156 2.63 7.15-1.553 13.895-3.202 20.41-5.14l.37-.039c1.338.192 2.078.135 2.816.076 2.086-.65 4.17-1.299 6.385-1.898a72 72 0 0 0-5.979 1.998c3.726-.856 7.066-1.807 10.182-3.024q.31-.067.627-.132c1.677.173 2.729.105 3.781.037 1.827-.628 3.655-1.255 5.6-1.836a59 59 0 0 0-5.213 1.935c3.366-.847 6.37-1.79 9.152-2.99q.334-.077.674-.152c1.68.18 2.734.112 3.787.043 1.423-2.008 3.17-2.992 5.184-3.348-1.926.36-3.573 1.38-4.791 3.445 3.814-.874 7.235-1.847 10.402-3.105-1.693-.388-3.298-.584-4.767-.455 1.554-.138 3.253.042 5.095.42 1.016.19 1.448.13 1.881.072.915-.683 1.742-1.695 2.742-2.059-.998.364-1.802 1.38-2.345 2.153 5.79-1.552 11.187-3.196 16.369-5.12l.388-.062c.977.184 1.41.127 1.844.068 2.6-.642 5.203-1.285 7.943-1.877-2.629.6-5.15 1.27-7.53 1.975 4.688-.86 8.988-1.811 13.036-3.039l.803-.135c14.752.29 28.774.316 42.797.342 4.878.789 9.87 1.16 14.613 2.445-4.743-1.285-9.736-1.655-14.445-2.095 4.306 1.2 8.48 1.91 12.574 2.931 11.25 2.808 22.383 7.699 33.719 8.196 18.828.825 38.1 3.045 56.576-2.76 6.012-1.89 11.221-6.33 16.43-9.662q.214-.1.435-.2c1.472-1.008 2.283-1.934 3.094-2.86.567-.856 1.134-1.712 1.791-2.585a21 21 0 0 0-1.467 2.492c1.323-1.55 2.373-3.025 3.127-4.484q.24-.26.498-.523c1.117-1.055 1.58-1.977 2.041-2.897.271-1.155.678-2.443.973-3.623-.252 1.173-.488 2.34-.629 3.469 1.035-3.066 1.727-5.978 2.078-8.809-.1.293-.157.574-.25.865.129-.417.178-.756.319-1.185.444-.84.48-1.278.513-1.715-.194-5.142-.388-10.285-.318-16.084.198-1.394.132-2.128.066-2.865-.905-.813-2.011-1.498-2.761-2.41.751.908 1.867 1.551 2.853 2.054-4.346-8.86-9.817-16.245-19.805-18.33.246.484.46.972.684 1.37-.25-.442-.509-1.023-.84-1.672-1.081-.787-1.98-.904-2.879-1.022-5.958-1.363-11.915-2.726-18.345-4.508-1.528-.46-2.585-.501-3.641-.543-2.537.185-5.078.458-7.615.662 2.508-.242 4.993-.634 7.396-1.035-4.338-.455-8.463-.438-12.578-.636-10.755-.52-21.505-1.135-32.144-1.34.782.539 1.485.981 2.189 1.181-.722-.201-1.504-.654-2.65-1.248-12.233-.393-23.893-.35-35.553-.304-1.032.342-2.06.833-3.092 1.193.976-.37 1.885-.896 2.63-1.299-16.026.222-31.592.599-47.16.828-2.58.038-5.182-.92-7.751-.816-12.833.514-25.654 1.363-38.488 1.805-4.73.162-9.488-.47-14.126-.37.99.534 1.918 1.022 2.832 1.239-.935-.22-1.938-.72-3.224-1.305-1.557-.47-2.613-.506-3.67-.541-.684-.02-1.377-.05-2.213-.2.743.131 1.446.094 2.069-.124-1.067-.343-1.99-.36-2.862-.073q.381.124.752.192a12 12 0 0 1-1.158-.268c-1.834-.43-3.21-.48-4.588-.529-1.17-.268-2.498-.673-3.697-.967 1.199.253 2.392.487 3.545.625-3.07-1.018-5.986-1.695-8.82-2.033.467.156.917.25 1.38.39-.619-.179-1.12-.256-1.77-.462-1.526-.457-2.582-.502-3.638-.547a35 35 0 0 1-2.738-.87c.91.331 1.79.52 2.61.548-1.393-.688-2.658-1.055-3.886-1.092.265.134.526.246.787.355-.368-.143-.7-.247-1.105-.431-.792-.449-1.228-.49-1.664-.532-1.07.257-2.25.9-3.236.858.984.036 2.142-.647 3.046-1.211-2.863-.994-5.527-1.68-8.212-2.268-4.877-1.067-9.766-2.075-14.565-2.756 6.49 2.32 12.87 4.37 19.32 6.172-6.45-1.801-12.83-3.85-19.64-6.242-.844-.46-1.28-.498-1.717-.535-1.272.145-2.66.677-3.822.45 1.16.226 2.539-.326 3.652-.792-6.115-2.28-12.028-4.329-18.015-6.127a278 278 0 0 0-18.801-4.916c1.082.902 2.068 1.798 3.127 2.395-1.075-.6-2.123-1.51-3.448-2.467-.825-.445-1.263-.479-1.7-.512-5.624-1.366-11.248-2.733-17.276-4.515-.842-.452-1.278-.488-1.715-.524-1.148-.265-2.428-.667-3.6-.957 1.164.246 2.322.48 3.44.617-3.07-1.025-5.98-1.711-8.809-2.056.229.077.447.12.674.193-.352-.109-.635-.148-.996-.266-.838-.45-1.274-.485-1.711-.523-.915-.274-1.96-.683-2.898-.982.935.26 1.864.501 2.755.65-2.397-1.02-4.652-1.71-6.84-2.072.452.194.885.318 1.33.488-.573-.21-1.043-.313-1.652-.56-.824-.44-1.26-.477-1.697-.514a38 38 0 0 1-2.793-.918c.933.351 1.831.557 2.664.595-1.392-.69-2.655-1.06-3.867-1.117.288.145.572.27.855.387-.389-.151-.744-.267-1.175-.463-.807-.428-1.242-.467-1.678-.508-.914.272-1.987.951-2.78.908.79.039 1.845-.68 2.61-1.251-5.741-2.021-11.313-3.699-16.814-5.036 4.663 2.33 9.219 4.412 13.882 6.221-4.663-1.81-9.22-3.89-14.246-6.297-1.174-.454-1.917-.49-2.658-.527-.908-.27-1.94-.676-2.871-.97.925.255 1.845.493 2.729.638-2.399-1.02-4.654-1.71-6.85-2.067.394.17.774.275 1.164.426-.518-.192-.939-.28-1.485-.502-.814-.444-1.25-.481-1.687-.52-.8-.278-1.74-.693-2.568-.997.827.272 1.645.517 2.43.672-2.064-1.013-3.99-1.7-5.862-2.065.572.284 1.126.484 1.688.717-.7-.281-1.276-.444-2.047-.795-1.147-.453-1.88-.505-2.614-.557a22 22 0 0 1-1.978-.838c.662.312 1.292.494 1.871.524-1.06-.685-2.012-1.054-2.899-1.094.166.11.327.196.489.29-.266-.142-.495-.236-.793-.417-1.156-.77-1.94-1.082-2.727-1.394-3.969-1.372-7.939-2.744-12.293-4.53-.82-.458-1.254-.501-1.69-.545-.515-.097-1.03-.196-1.548-.433.513.222 1.01.269 1.443.139-.702-.421-1.3-.55-1.892-.383l-.004-.004a2 2 0 0 0-.012-.291v-.002h-.002v-.002c-.977-.355-1.953-.71-3.306-1.473-.813-.443-1.25-.479-1.688-.515-.927-.26-1.853-.517-2.91-.942.972.38 1.911.585 2.78.621-1.393-.695-2.654-1.07-3.876-1.117q.311.16.62.297a20 20 0 0 1-.962-.45c-2.804-1.454-5.23-2.427-7.654-3.4-1.01-.223-2.02-.448-3.057-.76.998.23 1.97.37 2.903.419-1.846-.709-3.567-1.141-5.25-1.288q-.354-.16-.715-.341c-1.087-.786-1.984-.914-2.879-1.043-.393-.038-.783-.075-1.248-.202.409.08.793.05 1.135-.095-.719-.349-1.324-.4-1.903-.174a7 7 0 0 1-.324-.148c-1.783-1.09-3.217-1.75-4.652-2.409-3.26 2.497-4.86-.563-7.309-2.47-.82-.448-1.255-.491-1.691-.534-.328-.064-.656-.127-1.006-.267.319.065.624.055.902-.027-.633-.384-1.18-.527-1.715-.432a5 5 0 0 1-.347-.285c-3.065-1.736-5.953-2.85-8.84-3.965-2.29-.648-4.7-1.033-6.846-2-4.1-1.849-8.05-4.028-12.453-6.479-.827-.443-1.264-.48-1.701-.517-.331-.065-.663-.128-1.014-.268.32.065.628.055.909-.027-.634-.384-1.183-.528-1.721-.434a5 5 0 0 1-.336-.277c-1.711-1.08-3.267-1.545-4.822-2.01-6.644-2.778-13.338-5.446-19.909-8.389 6.571 2.943 13.265 5.61 19.79 8.055-9.396-4.682-18.671-9.03-27.887-13.049 2.048 1.428 3.998 2.816 6.031 3.952-2.05-1.14-4.06-2.544-6.35-4.032-.813-.457-1.248-.503-1.683-.55-.508-.225-1.017-.45-1.547-.758.5.232.984.38 1.441.447-.95-.694-1.81-1.13-2.656-1.295q-.194-.16-.392-.342c-1.06-.771-1.954-.913-2.846-1.056-1.372-.568-2.743-1.136-4.137-1.791a40 40 0 0 0 4.016 1.455c-2.458-1.308-4.816-2.34-7.14-3.082q-.415-.24-.833-.497c-.743-.77-1.33-.91-1.916-1.048-2.817 2.096-3.74-.365-5.334-2.479-.79-.451-1.226-.492-1.662-.533-.601-.25-1.313-.629-1.932-.898.615.234 1.22.437 1.803.578-1.727-1.017-3.324-1.711-4.889-2.08.496.297.978.508 1.465.75-.607-.292-1.11-.462-1.783-.829-.788-.45-1.223-.496-1.658-.54-1.03-.426-2.067-.942-3.098-1.387 1.003.392 2 .761 2.97 1.054-2.71-1.437-5.293-2.543-7.847-3.298h-.002L1923 418c-2.078-.915-4.156-1.83-6.254-2.836a93 93 0 0 0 6.139 2.494c-3.678-1.926-7.262-3.568-10.82-4.906a72 72 0 0 1-1.167-.666c-.73-.789-1.315-.928-1.902-1.068-2.79 1.477-4.2-.37-5.766-1.989 1.556 1.593 2.936 3.366 5.627 1.66-2.678-1.423-5.22-2.527-7.736-3.29l-.1-.04c-.016-.269-.029-.33-.035-.343l-.002-.002v-.002h-.002c-2.077-.918-4.154-1.836-6.252-2.846a92 92 0 0 0 6.145 2.502c-3.67-1.93-7.252-3.576-10.81-4.918a72 72 0 0 1-1.167-.666c-.726-.792-1.313-.934-1.9-1.076-.5-.059-1-.118-1.52-.258.487.062.955.04 1.387-.064-.936-.396-1.765-.532-2.568-.407a6 6 0 0 1-.404-.242c-1.065-1.084-1.984-1.543-2.9-2.004-1.877-.68-3.772-1.386-5.98-2.467-.113-.055-.208-.086-.323-.144-2.487-1.453-4.588-2.44-6.688-3.428-.879-.419-1.766-.95-2.647-1.387.852.384 1.704.768 2.528 1.059-2.372-1.443-4.625-2.56-6.856-3.33.062.038.122.064.184.101-.062-.037-.123-.059-.186-.097-.025-.34-.017-.346-.017-.346-.859-.392-1.717-.783-2.598-1.264a15.3 15.3 0 0 0 2.494.936c-1.558-1.003-3.03-1.732-4.47-2.168a19 19 0 0 1-.536-.396c-.738-.777-1.322-.922-1.906-1.067-.33-.077-.66-.154-1.008-.306.32.078.628.08.91.007-.624-.405-1.17-.568-1.705-.492a5 5 0 0 1-.3-.264c-1.048-1.057-1.969-1.519-2.889-1.982-3.31-1.692-6.621-3.383-10.22-5.486-.29-.412-.758-.522-.758-.522-3.999-2.355-7.998-4.71-12.264-7.482-.269-.417-.744-.514-.744-.514-2.229-1.252-4.457-2.505-6.71-3.848a140 140 0 0 0 6.59 3.522c-3.982-2.525-7.867-4.779-11.726-6.742q-.647-.43-1.299-.877c-1.73-1.458-3.286-2.261-4.842-3.063-5.327-3.433-10.656-6.865-16.005-10.642-.019-.28-.013-.338-.01-.35v-.002l.002-.002c-.679-.388-1.357-.776-2.057-1.254.67.4 1.326.711 1.953.938-1.258-1.013-2.428-1.76-3.576-2.205q-.224-.198-.451-.416c-2.73-3.128-5.3-5.594-7.871-8.059-2.596-1.182-5.132-3.905-6.918-7.113 1.778 3.118 4.307 5.754 6.89 6.758-3.39-5.577-8.103-10.054-9.277-16.395a10.5 10.5 0 0 0-.049 2.348 12 12 0 0 1 .012-2.717c.192-1.35.136-2.09.08-2.828-.499-1.745-1.387-3.506-1.553-5.238.167 1.726 1.067 3.436 1.653 4.793.35-4.516.603-8.585.498-12.559-.834 1.99-1.718 3.903-2.047 5.824.33-1.932 1.224-3.905 2.117-6.244.474-2.22.52-3.924.566-5.627.167-2.283.048-4.632.563-6.834-.515 2.202-.396 4.551-.217 6.674 1.85-5.29 3.452-10.392 4.84-15.553 2.236-8.312-.056-15.641-5.428-22.096a9 9 0 0 0-.014.553c-.015-.283-.044-.526-.044-.87-.452-1.284-1.104-2.06-1.756-2.837a42 42 0 0 1-2.42-1.572c.8.54 1.588.964 2.344 1.248-1.331-1.126-2.586-1.926-3.823-2.373.092.08.184.144.276.22-.095-.077-.187-.13-.282-.21-.018-.28-.008-.343-.003-.356v-.004a10 10 0 0 1-1.098-.824q.546.397 1.066.484c-.637-.727-1.245-1.158-1.84-1.3a9 9 0 0 1-.207-.266c-.378-.74-.66-.91-.941-1.08-.768-.273-1.536-.547-2.29-.889.724.261 1.47.453 2.187.555-1.244-.713-2.4-1.147-3.745-1.4a10 10 0 0 1-.537-.377c-1.465-1.304-3.04-2.094-4.615-2.885-.844-.395-1.688-.79-2.55-1.27.834.4 1.653.715 2.443.944-1.536-.996-2.985-1.728-4.409-2.188q-.29-.21-.586-.441c-1.062-1.094-1.984-1.556-2.906-2.016-1.54-.747-3.081-1.494-4.642-2.328a58 58 0 0 0 4.51 2c-2.768-1.629-5.427-2.987-8.055-4.053q-.45-.284-.903-.584c-.734-.774-1.32-.918-1.904-1.062-2.073-1.091-4.145-2.184-6.238-3.363a110 110 0 0 0 6.12 3.03c-3.682-2.228-7.266-4.182-10.827-5.843a84 84 0 0 1-1.16-.752c-.732-.766-1.316-.901-1.903-1.035-.332-.074-.664-.147-1.012-.297.322.075.63.075.915-.002-.626-.402-1.174-.563-1.711-.48a5 5 0 0 1-.3-.262c-1.044-1.05-1.968-1.5-2.894-1.951-.477-.103-.954-.207-1.43-.424.471.194.925.235 1.327.125-.695-.436-1.288-.581-1.877-.436l-.012-.007c.003-.213-.009-.272-.016-.288v-.001l-.002-.002v-.002h-.001a22 22 0 0 1-2.012-.893c.676.34 1.32.538 1.92.574-1.036-.695-1.98-1.073-2.863-1.123.194.132.384.241.574.35-.267-.144-.506-.246-.801-.43-.29-.408-.758-.512-.758-.512-1.207-.562-2.416-1.125-3.644-1.777a33 33 0 0 0 3.523 1.45c-2.178-1.313-4.255-2.353-6.307-3.09a31 31 0 0 1-.71-.481c-.735-.78-1.32-.918-1.905-1.057-.328-.072-.657-.144-1.002-.29.317.071.622.069.9-.007-.624-.395-1.168-.554-1.7-.474a5 5 0 0 1-.323-.28c-1.383-1.069-2.626-1.524-3.869-1.978-4.38-1.92-8.843-3.673-13.123-5.795 4.28 2.122 8.744 3.874 12.998 5.465-.726-.903-1.235-1.65-1.941-2.022-9.118-4.803-18.176-9.733-27.438-14.244-4.993-2.431-10.347-4.12-15.469-5.808 2.071 1.362 4.073 2.385 6.073 3.412-2-1.027-4.001-2.052-6.305-3.494-.303-.418-.787-.516-.787-.516-1-.385-2.002-.77-3.028-1.244.993.391 1.965.694 2.905.91-1.836-.997-3.573-1.725-5.27-2.166q-.358-.219-.724-.463c-2.1-1.46-4.008-2.24-5.916-3.021-6.174-2.44-12.371-4.822-18.508-7.352 6.137 2.53 12.333 4.912 18.4 7.008-1.765-1.296-3.345-2.44-5.097-3.166-6.224-2.576-12.506-5.01-18.721-7.139q-.003 0-.004-.004c-.045-.36-.049-.357-.049-.357-4.995-2.074-9.99-4.147-14.998-6.375a265 265 0 0 0 14.877 6.033c-6.674-3.092-13.227-5.846-19.742-8.25l-.102-.047c-.024-.272-.039-.335-.045-.35v-.001h-.002v-.002c-.971-.356-1.942-.711-3.293-1.475-.816-.447-1.255-.489-1.693-.53-4.82-1.736-9.693-3.338-14.437-5.26 4.744 1.922 9.618 3.526 14.306 4.921-7.207-3.369-14.288-6.411-21.336-9.105q-.326-.242-.658-.493c-1.089-.794-1.983-.921-2.877-1.048-.334-.07-.67-.142-1.02-.288.324.073.634.07.917-.01-.633-.393-1.181-.545-1.715-.456a5 5 0 0 1-.293-.245c-.714-.725-1.298-.871-1.885-1.017a7.6 7.6 0 0 1-1.363-.233c.451.111.877.094 1.252-.068-.717-.35-1.325-.4-1.9-.17q.111.055.222.1c-.147-.054-.293-.106-.455-.18-.265-.36-.748-.457-.748-.457-.6-.248-1.322-.626-1.942-.894a15 15 0 0 0 1.825.57c-1.725-1.01-3.331-1.694-4.877-2.043.482.286.945.484 1.416.717-.594-.284-1.075-.443-1.737-.801-.817-.463-1.254-.509-1.691-.555-1.352-.557-2.705-1.113-4.086-1.76a39 39 0 0 0 3.963 1.424c-2.446-1.294-4.791-2.315-7.1-3.052q-.46-.265-.927-.553c-1.424-.803-2.636-.934-3.848-1.065-.623-.26-1.365-.65-2.008-.933.644.25 1.277.464 1.887.611-1.724-1.01-3.326-1.698-4.877-2.068.53.314 1.042.542 1.56.795-.638-.303-1.166-.49-1.88-.875-.81-.435-1.248-.472-1.686-.51-1.88-.557-3.76-1.115-5.662-1.762a66 66 0 0 0 5.51 1.422c-3.37-1.31-6.614-2.34-9.825-3.064a50 50 0 0 1-1.119-.495c-.74-.794-1.325-.931-1.912-1.068-4.05-1.031-8.123-1.982-12.133-3.15a115 115 0 0 0 11.977 2.81c-5.063-2.039-9.971-3.738-14.81-5.101.57.583 1.087 1.155 1.62 1.595-.574-.45-1.172-1.035-1.94-1.671-.829-.449-1.266-.485-1.704-.522-.8-.277-1.74-.69-2.566-.994.826.271 1.643.515 2.425.67-2.062-1.011-3.987-1.699-5.855-2.063.575.286 1.132.487 1.697.721-.703-.282-1.282-.446-2.058-.799-1.158-.454-1.897-.508-2.637-.56a23 23 0 0 1-1.96-.838c.649.303 1.274.488 1.85.527-1.052-.681-1.996-1.05-2.906-1.111.134.088.265.156.397.234-.25-.135-.46-.221-.739-.39-1.799-.782-3.221-1.098-4.644-1.415-1.45-.28-2.966-.396-4.383-.755 1.411.344 2.904.397 4.25.414-6.393-2.692-12.653-5.043-18.844-7.057 4.492 2.326 8.868 4.427 13.358 6.25-4.49-1.823-8.867-3.923-13.68-6.324-.83-.445-1.267-.48-1.705-.514-.877-.236-1.754-.472-2.74-.85.91.33 1.788.507 2.605.534-1.393-.683-2.653-1.049-3.879-1.084q.147.074.293.142a19 19 0 0 1-.634-.3c-1.803-.795-3.229-1.1-4.655-1.407-.897-.252-1.793-.505-2.808-.91.936.358 1.84.555 2.675.594-1.39-.697-2.647-1.076-3.865-1.127q.233.12.463.227a20 20 0 0 1-.805-.385c-1.805-.794-3.23-1.102-4.656-1.41a52 52 0 0 1-3.266-.862c1.086.314 2.137.501 3.122.53-1.728-.7-3.312-1.069-4.832-1.116.244.1.483.18.724.266-.354-.12-.666-.196-1.045-.34-.822-.426-1.262-.457-1.701-.488-3.664 2.302-6.275.064-9.297-2.483-.825-.452-1.263-.49-1.701-.527-3.14 2.135-5.119.286-7.37-2.45-1.147-.458-1.89-.496-2.634-.532-.988-.22-1.976-.442-2.994-.748.975.223 1.924.362 2.832.416-1.832-.699-3.534-1.134-5.191-1.291q-.392-.176-.793-.38c-1.776-.784-3.315-.886-4.856-.988-3.432 2.37-5.507-.492-8.346-2.468-1.169-.45-1.914-.485-2.658-.52-.5-.066-1.002-.132-1.523-.28.488.072.958.058 1.39-.04-.938-.41-1.768-.558-2.568-.442a6 6 0 0 1-.385-.232c-.735-.747-1.322-.886-1.908-1.025-3.576 1.917-6.41.584-9.36-2.473-1.15-.472-1.892-.512-2.634-.553-2.317 1.577-4.367 1.624-6.34-1.54-1.812-.83-3.236-1.15-4.658-1.47-.92-.27-1.996-.676-2.945-.972.95.261 1.892.498 2.796.644-2.4-1.008-4.651-1.688-6.843-2.037.59.251 1.162.42 1.744.631-.74-.257-1.344-.394-2.15-.71-1.845-.454-3.226-.496-4.606-.538-1.438-.151-2.87-.344-4.312-.473 1.4.08 2.794.127 4.14.125a158 158 0 0 0-13.431-3.39c-6.8-1.397-13.63-2.656-20.374-3.621.649.683 1.219 1.352 1.83 1.72-.63-.372-1.268-1.055-2.19-1.802-1.178-.474-1.92-.515-2.663-.555-4.185 2.265-7.459-.326-11.334-2.467-1.181-.461-1.924-.5-2.666-.539-4.159 2.114-7.763 1.268-11.367-2.459-1.519-.452-2.578-.487-3.637-.521-3.968 2.52-6.733-.716-10.396-2.477-2.538-.45-4.571-.488-6.604-.527-.085.104-.193.293-.266.351v-.002c.068-.068.149-.311.096-.699-7.403-1.7-14.635-3.053-21.799-4.06 2.43 1.962 5.06 2.857 7.77 3.31-2.795-.46-5.542-1.375-8.135-3.387-1.176-.458-1.918-.496-2.66-.535-2.637 1.125-5.123 1.275-7.576.615 2.375.625 4.833.362 7.379-.972-4.416-1.025-8.634-1.691-12.78-2.014 1.751 1.476 3.55 2.5 5.397 2.986-1.942-.522-3.861-1.54-5.815-3.064-2.196-.461-3.902-.5-5.607-.54-3.915 2.318-6.957.35-10.402-2.439-2.191-.46-3.897-.505-5.602-.548-4.246 2.575-7.446-.388-11.375-2.47-1.865-.447-3.245-.483-4.627-.519-1.228-.132-2.617-.403-3.871-.558 1.247.106 2.492.205 3.69.205-3.344-.697-6.51-1.044-9.59-1.057-.21-.041-.37-.04-.582-.084-1.88-.468-3.259-.504-4.639-.54-5.79-.098-11.586-.065-17.365-.368 5.779.303 11.575.27 17.146 0-7.754-1.037-15.288-1.707-22.724-2.02 1.684.82 3.274 1.677 4.884 1.944-1.615-.268-3.246-1.132-5.25-2.016-1.207-.464-1.95-.497-2.693-.531-7.877 2.19-15.449.972-23.342-2.469-1.54-.462-2.598-.5-3.656-.537-3.86.33-7.768 1.194-11.574.873 3.806.321 7.712-.543 11.353-1.246a471 471 0 0 0-31.613-1.96c-.192-.038-.356-.049-.549-.087-3.238-.485-5.93-.528-8.621-.57-3.37.31-6.736.872-10.107.89 3.37-.018 6.739-.58 9.894-1.263-9.22-1.09-18.22-2.225-27.238-2.406m817.467 362.34c2.033 1.037 4.007 1.751 5.843 2.14-2.058-1.038-3.982-1.75-5.843-2.14m137.138 65.439c2.147.967 4.556 1.352 6.701 1.666-1.308-.84-2.468-1.353-3.634-1.854-5.089-2.186-10.179-4.369-15.2-6.218 4.082 2.377 8.033 4.557 12.133 6.406m121.983 188.29c-2.914.347-5.5 1.6-7.772 3.53 4.821-.875 9.228-1.853 13.371-3.12-1.985-.497-3.85-.617-5.6-.41M364.023 623.562c-1.273-.228-2.674.259-3.836.771 5.075 1.023 9.969 1.692 14.758 2.002-3.705-1.185-7.288-2.125-10.922-2.773m-91.033-25.477c-2.863-1.06-5.985-1.414-8.861-1.752 1.997 1.216 3.8 2.292 5.746 2.94 7.699 2.563 15.442 4.992 23.102 7.132-6.7-3.02-13.281-5.84-19.987-8.32m29.69-352.389c2.234-1.353 4.226-3.109 5.947-4.658-7.899 2.228-13.945 6.81-19.26 11.97 4.702-2.411 9.077-4.746 13.313-7.312m570.088-88.806c2.975.767 6.145.78 9.068.79a510 510 0 0 0-29.803-7.08c6.958 2.347 13.8 4.5 20.735 6.29m257.28-118.282c7.503 3.369 15.075 4.585 22.735 2.022a250 250 0 0 0-22.734-2.022m68.981 8.014c3.521 2.007 6.722 4.972 10.785 2.047-3.742-1.028-7.302-1.707-10.785-2.047m16.987 3.024c3.026 2.709 6.068 4.675 9.802 2.01-3.41-1.016-6.64-1.681-9.802-2.01m53.687 10.736h.004l-.008.002zm7.326.232c3.234 1.688 6 4.925 9.793 2.06-3.405-1.028-6.636-1.713-9.793-2.06m13.994 3.002c3.214 3.65 6.82 4.497 10.795 2.033-3.743-1.024-7.303-1.7-10.795-2.033m14.006 3c3.512 2.062 6.786 4.655 10.787 2.041-3.743-1.027-7.303-1.706-10.787-2.04m64.975 14.994c1.63 3.008 3.68 2.96 5.83 1.047-2.071-.69-3.974-1.043-5.83-1.047m8.996 2.016c2.586 2.977 5.42 4.31 8.822 2.045-3.072-1.03-5.97-1.714-8.822-2.045m17.012 5.014c2.474 1.894 4.55 4.755 7.824 2.049-2.734-1.02-5.31-1.701-7.824-2.05m21.982 5.99c1.887 2.654 3.867 4.503 6.854 2.037-2.4-1.014-4.648-1.696-6.854-2.037m9.028 2.975c2.701 2.468 5.313 4.706 8.8 2.058-3.073-1.029-5.97-1.712-8.8-2.058m76.04 26.898.061.043zm-865.374.695c-2.467.885-4.574 1.86-6.45 3.11 3.456 1.24 5.786.412 6.45-3.11m143.326 8.424c2.132 1.819 3.748 4.84 6.838 2.049-2.4-1.012-4.651-1.695-6.838-2.049m12.006 3.014c2.92 3.222 6.068 4.659 9.796 2.021-3.41-1.017-6.638-1.689-9.796-2.021m763.273 8.03.166.058c-.053-.017-.11-.04-.166-.059m-717.272 2.972c2.908 1.597 5.23 5.096 8.807 2.033-3.073-1.018-5.977-1.693-8.807-2.033m749.989 10.978c1.03.683 2.003 1.04 2.883 1.076-1.042-.68-1.993-1.041-2.883-1.076M568.65 162.01c-.788.673-1.237 1.319-1.359 1.943.785-.67 1.242-1.32 1.36-1.943m-2.023 1.99a264 264 0 0 1-13.314 13.965c4.09-4.635 8.528-9.281 13.314-13.965m-40.01 35.016a153 153 0 0 1-11.236 6.002c3.363-2.006 7.111-3.99 11.236-6.002M337.03 237.598c5.196 1.68 10.468 3.698 15.854 6.06-5.183-1.678-10.48-3.7-15.854-6.06m1433.727 19.63c.007.08.007.164.017.24-.01-.068-.009-.166-.017-.24M272.652 264.04c-1.463.999-2.57 1.97-3.328 2.932 1.462-.994 2.573-1.975 3.328-2.932m-36.013 24.99a180 180 0 0 1-12.274 8.985c3.722-2.999 7.817-5.978 12.274-8.985m-13.008 8.99a212 212 0 0 1-13.27 9.997c4.057-3.337 8.482-6.653 13.27-9.996m-31.965 25.016c-1.786 1.335-3.232 2.646-4.312 3.98 1.794-1.318 3.222-2.662 4.312-3.98m1599.361 21.3c5.245 3.1 10.507 6.552 15.885 10.327a243 243 0 0 1-15.885-10.326m34.961 22.253c3.91 2.023 7.859 4.385 11.92 7.074a129 129 0 0 1-11.92-7.074M133.66 371.025c-1.782 1.342-3.225 2.655-4.303 3.99 1.792-1.324 3.217-2.671 4.303-3.99m1705.348 3.569c3.212 1.36 6.484 3.05 9.875 5.072-3.194-1.36-6.503-3.05-9.875-5.072m-1719.38 8.404c-2.082 2.637-4.514 5.309-7.294 7.986 2.083-2.645 4.515-5.3 7.295-7.986m1820.353 42.615c1.273 2.036 2.198 4.498 4.89 2.078-1.725-1.018-3.324-1.714-4.89-2.078m92.035 41.977c2.129 1.833 3.727 4.894 6.84 2.066-2.4-1.02-4.652-1.708-6.84-2.066m36.988 14.021c1.033.685 2.01 1.04 2.89 1.077-1.046-.682-1.996-1.044-2.89-1.077m7.012 2.994c3.853 1.031 7.772 2.398 11.832 4.108-3.83-1.03-7.798-2.4-11.832-4.108m84.023 27.983c5.5 1.024 11.082 2.393 16.809 4.103a163 163 0 0 1-16.809-4.103M27.65 534.178c-1.032 4.408-1.714 8.637-2.05 12.785 2.345-4.167 4.654-8.203 2.05-12.785m2437.384 9.426c5.829 1.014 11.738 2.376 17.803 4.085a178 178 0 0 1-17.803-4.085M24.676 551.172c-.115 2.055.113 3.94.625 5.588.095-2.077-.094-3.919-.625-5.588m137.785 7.017c-.68.024-1.435.35-2.305 1.131 2.402 1.023 4.648 1.715 6.828 2.078-1.517-1.355-2.783-3.27-4.523-3.209m9.004 3c-.68.016-1.434.336-2.309 1.116 2.4 1.032 4.645 1.732 6.824 2.103-1.527-1.316-2.778-3.259-4.515-3.219m-146.295.172c.877 4.485 1.852 8.563 3.117 12.377 1.158-4.957.573-9.27-3.117-12.377m161.951 6.989c3.733 1.687 7.33 3.03 10.88 4.021-2.504-4.968-7.4-2.917-10.88-4.021m2318.588 2.935c.547 4.905.791 10.096.658 15.5-.572-4.93-.766-10.07-.658-15.5M116.08 603.521c-1.923.952-3.522 2.09-4.787 3.313 1.926-.985 3.519-2.055 4.787-3.313m1448.824 20.774c-.178.029-.349.074-.525.105.177-.031.345-.076.525-.105m-1164.832 3.63c-1.932.363-3.499.712-4.902 1.403 1.968.055 4.675 2.391 4.902-1.402m1826.678 3.307c.403.022.854.122 1.273.172-1.083-.157-2.122-.217-3.1-.13a13 13 0 0 1 1.827-.042m-572.272 2.957c-1.05.021-2.145.365-3.31 1.159 3.407 1.02 6.647 1.695 9.82 2.029-2.11-1.717-4.2-3.233-6.51-3.188m-685.328 1.063c.075.025.149.045.223.074-.074-.029-.148-.05-.223-.074m710.014 6.098c6.133.996 12.43 2.344 18.807 4.037-6.161-.999-12.402-2.342-18.807-4.037m370.24 20.884c-3.373.1-6.467.99-9.031 3.618 5.488-.886 10.558-1.868 15.354-3.143-2.173-.308-4.298-.534-6.323-.475m-16.63 3.15c-4.875-.142-9.477.394-13.393 3.448 6.491-.882 12.553-1.866 18.344-3.146-1.67-.13-3.327-.254-4.952-.301m-208.018 7.874c-1.151.042-2.336.376-3.567 1.082 3.744 1.037 7.302 1.721 10.788 2.058-2.321-1.909-4.689-3.233-7.221-3.14m12.728 2.924c-1.048.02-2.141.368-3.304 1.166 3.41 1.026 6.64 1.703 9.804 2.039-2.107-1.728-4.193-3.252-6.5-3.205m-640.724 3.529c-2.079-.094-3.918.095-5.584.623 2.057.113 3.94-.114 5.584-.623" style="fill:#fff;fill-opacity:1"/></svg>