<svg xmlns="http://www.w3.org/2000/svg" viewBox="0 0 2496 698" xml:space="preserve"><path fill="#fff" d="M2042.775 632.91c10.917-1.85 21.359-3.793 31.837-5.52 7.91-1.304 15.876-2.27 23.799-3.498 6.623-1.027 13.216-2.246 19.831-3.325 9.676-1.578 19.364-3.087 29.04-4.664 5.97-.972 11.95-1.9 17.885-3.052 11.543-2.24 23.113-4.387 34.574-7 20.84-4.752 41.608-9.818 62.407-14.75 12.708-3.014 25.354-6.338 38.147-8.932 9.443-1.914 19.045-3.567 28.64-4.028 7.114-.341 14.43.92 21.48 2.343 17.357 3.506 34.396 8.836 52.475 7.499 6.133-.454 12.384.44 18.476-.23 5.113-.563 10.281-2.002 15.042-3.977 4.69-1.946 6.598-6.805 5.395-11.644-.29-1.165-1.596-2.552-2.744-2.954-9.61-3.36-19.246-6.164-29.69-6.233-14.874-.098-29.745-1.786-44.613-1.713-21.206.106-42.403 1.362-63.61 1.8-14.699.304-29.415.306-44.11-.09-4.636-.124-9.256-1.856-13.831-3.053-9.462-2.474-18.872-5.146-28.335-7.617-8.2-2.14-16.512-3.877-24.65-6.223-11.252-3.244-22.38-6.919-33.576-10.358-9.358-2.875-18.781-5.544-28.101-8.538-17.238-5.536-34.569-10.836-51.588-16.989-18.639-6.739-36.973-14.32-55.431-21.555-12.598-4.938-25.366-9.496-37.726-14.974-15.323-6.792-30.27-14.43-45.441-21.57-12.407-5.838-25.007-11.272-37.335-17.267-12.6-6.128-25.03-12.618-37.435-19.137-14.357-7.544-28.765-15.013-42.85-23.04-11.23-6.4-22.192-13.313-32.93-20.508-9.662-6.472-19.44-12.989-28.07-20.71-6.423-5.745-11.526-13.159-16.367-20.398-2.451-3.665-4.077-8.554-4.226-12.952-.341-10.077.071-20.226.939-30.28.485-5.624 2.688-11.08 3.734-16.683.582-3.116.173-5.744-3.476-7.776-20.614-11.483-40.807-23.737-61.562-34.952-15.652-8.458-31.945-15.73-47.93-23.575-7.148-3.508-14.129-7.378-21.387-10.633-9.521-4.27-19.299-7.967-28.86-12.15-9.126-3.991-18.029-8.495-27.187-12.405-12.666-5.408-25.441-10.566-38.24-15.656-13.442-5.345-26.913-10.63-40.47-15.674-13.937-5.184-27.874-10.42-42.036-14.926-10.705-3.405-21.826-5.476-32.652-8.53-17.7-4.996-35.217-10.665-52.994-15.36-11.667-3.08-23.677-4.85-35.494-7.387-11.632-2.497-23.177-5.41-34.835-7.775-7.037-1.428-14.25-1.97-21.32-3.255-7.045-1.28-13.996-3.074-21.019-4.49-6.245-1.26-12.52-2.383-18.803-3.44a2012 2012 0 0 0-26.648-4.278c-8.404-1.297-16.802-2.67-25.24-3.697-12.056-1.467-24.137-2.738-36.223-3.922-8.685-.85-17.405-1.346-26.097-2.14-9.647-.881-19.28-1.932-28.921-2.877-1.321-.13-2.66-.098-3.991-.099-12.5-.006-25.001.121-37.498-.039-12.484-.16-24.23 2.978-35.83 7.174-20.912 7.563-33.532 22.7-40.07 43.456-.534 1.695-.879 3.521-.903 5.292-.1 7.332-.172 14.669-.016 21.998.391 18.353-7.614 32.853-21.392 44.009-5.34 4.323-12.106 6.943-19.64 7.241-13.706.541-26.759-2.15-39.865-5.671-13.38-3.595-27.013-6.232-40.486-9.489-12.977-3.136-25.85-6.71-38.846-9.76-13.969-3.278-28.046-6.096-42.043-9.26-8.753-1.978-17.51-3.994-26.153-6.4-15.444-4.297-31.336-6.377-47.014-4.225-17.712 2.431-35.751 4.785-52.1 13.121-10.888 5.551-22.489 10.111-32.389 17.079-10.212 7.187-18.759 16.746-28.02 25.28-10.78 9.934-21.794 19.406-35.358 25.641-12.506 5.75-24.583 12.429-36.9 18.596-11.11 5.561-22.315 10.933-33.431 16.48-12.815 6.397-25.58 12.893-38.366 19.35-13.989 7.065-28.62 11.827-44.457 9.897-4.393-.536-8.518-3.654-12.655-5.801-6.813-3.537-13.624-7.097-20.253-10.96-2.665-1.553-4.625-4.314-7.29-5.866-10.338-6.023-19.731-3.092-28.847 3.266-13.465 9.392-27.212 18.384-40.624 27.85-17.068 12.045-34.326 23.879-50.758 36.752-17.617 13.801-34.316 28.769-51.524 43.097-7.876 6.558-16.183 12.602-23.991 19.236-15.792 13.418-27.241 30.345-37.556 48.051-9.191 15.778-18.006 31.775-26.93 47.707C70.64 500.949 63.6 512.492 57.79 524.62c-4.413 9.212-7.686 18.777-6.078 29.825 1.009 6.93 3.133 12.985 5.89 19.162 4.804 10.761 16.173 12.309 24.673 10.912 11.136-1.83 16.606-10.081 22.127-18.77 6.517-10.254 13.318-20.425 20.984-29.826 8.496-10.42 20.747-12.378 32.947-9.31 13.653 3.432 26.818 8.788 40.228 13.209 6.57 2.166 13.301 3.869 19.806 6.207 11.324 4.072 22.482 8.607 33.799 12.7 11.688 4.226 23.52 8.055 35.22 12.25 8.644 3.101 17.066 6.85 25.789 9.688 8.671 2.821 17.55 5.051 26.422 7.194 8.567 2.069 17.2 3.915 25.878 5.447 6.768 1.194 13.64 1.83 20.48 2.582 7.812.86 15.642 1.572 22.798 2.282 0 8.908.067 17.515-.039 26.119-.035 2.846-2.063 2.783-4.275 2.503-12.781-1.617-25.595-2.992-38.353-4.765-7.37-1.025-14.79-2.151-21.953-4.094-18.494-5.016-36.868-10.477-55.269-15.832-7.401-2.153-14.88-4.143-22.088-6.838-9.026-3.375-17.7-7.69-26.724-11.074-12.337-4.628-24.889-8.679-37.293-13.132-11.329-4.067-22.526-8.505-33.896-12.451-5.467-1.897-11.133-3.478-16.839-4.3-2.29-.33-5.939 1.044-7.248 2.874-8.787 12.282-17.085 24.912-25.61 37.382-1.281 1.873-2.643 3.895-4.449 5.162-3.955 2.778-8.064 5.426-12.385 7.575-11.452 5.693-23.415 6.486-36.097 4.665-9.614-1.38-17.014-5.915-23.924-11.91-2.387-2.07-4.428-4.675-6.165-7.338-7.444-11.413-11.897-23.848-13.321-37.512-1.685-16.17 2.909-30.583 10.652-44.427 9.497-16.978 19.532-33.718 27.913-51.24 8.217-17.178 18.07-33.297 28.531-49.039 11.682-17.58 25.726-33.137 42.738-45.996 10.973-8.294 21.095-17.707 31.71-26.484a2358 2358 0 0 1 31.228-25.345c9.568-7.641 19.097-15.348 28.947-22.613 8.62-6.357 17.686-12.107 26.511-18.188 10.28-7.083 20.447-14.336 30.789-21.328 9.905-6.696 19.27-14.79 31.205-17.42 15.915-3.509 30.772-1.457 44.36 9.213 7.817 6.14 17.192 10.575 26.404 14.52 3.658 1.565 9.345.97 13.129-.77 18.08-8.317 35.786-17.448 53.702-26.13 16.222-7.86 32.752-15.109 48.756-23.383 12.852-6.644 25.228-14.243 37.578-21.807 3.456-2.117 6.228-5.462 9.042-8.497 14.044-15.145 29.426-28.699 48.062-37.856 13.51-6.638 27.057-14.06 41.453-17.81 16.022-4.171 32.29-8.382 49.242-9.03 8.648-.33 16.767.345 25.108 2.13 8.71 1.863 17.687 2.474 26.414 4.276 11.2 2.312 22.283 5.201 33.387 7.96 12.504 3.107 24.926 6.563 37.475 9.47 14.64 3.393 29.399 6.27 44.065 9.549 6.462 1.445 12.773 3.57 19.242 4.97 11.533 2.493 23.082 4.989 34.72 6.892 12.443 2.034 17.685-6.806 19.505-16.028 1.453-7.359 1.186-15.118 1.159-22.698-.067-18.625 5.847-34.588 17.407-49.524 11.116-14.363 24.39-24.979 40.931-31.537 10.038-3.98 20.502-6.232 31.475-7.573 15.096-1.845 30.074-1.458 45.082-1.374 10.436.058 20.858 1.863 31.297 2.765 5.612.485 11.254.622 16.87 1.072 16.038 1.287 32.102 2.348 48.093 4.079 14.566 1.576 29.1 3.606 43.552 6.008 13.082 2.174 26.01 5.247 39.054 7.675 7.19 1.339 14.51 1.971 21.708 3.278 6.97 1.265 13.84 3.073 20.787 4.484 7.78 1.58 15.627 2.842 23.391 4.493 11.22 2.385 22.4 4.968 33.584 7.517 12.263 2.793 24.564 5.444 36.75 8.545 7.322 1.863 14.44 4.515 21.675 6.728 11.069 3.386 21.985 7.589 33.288 9.811 13.386 2.632 25.799 8.01 38.75 11.804 8.876 2.601 17.204 7.022 25.919 10.25 10.956 4.057 22.178 7.412 33.056 11.659 9.434 3.683 18.515 8.263 27.812 12.31 12.66 5.512 25.468 10.688 38.04 16.39 12.978 5.886 25.681 12.377 38.64 18.31 6.372 2.918 13.27 4.725 19.536 7.83 10.623 5.262 20.96 11.105 31.37 16.792 19.55 10.68 39.175 21.232 58.543 32.233 7.627 4.332 15.525 8.82 21.756 14.837 10.323 9.966 11.956 21.08 6.732 34.343-4.18 10.614-4.681 21.557-3.513 32.45.453 4.22 4.237 8.302 7.078 12.006 7.687 10.021 18.235 16.66 28.773 23.187 11.972 7.415 23.899 14.945 36.214 21.758 16.616 9.191 33.54 17.831 50.416 26.546 11.952 6.172 24.021 12.12 36.08 18.085 10.462 5.176 20.93 10.344 31.491 15.314 11.656 5.486 23.31 11.006 35.188 15.978 5.09 2.13 10.503 3.06 15.676 5.658 13.195 6.626 27.089 11.868 40.735 17.588 6.922 2.901 13.874 5.74 20.883 8.422 7.801 2.984 15.635 5.901 23.542 8.588 13.396 4.552 26.786 9.147 40.324 13.246 8.903 2.696 18.103 4.398 27.093 6.83 8.37 2.266 16.673 4.8 24.943 7.413 9.04 2.856 17.939 6.18 27.03 8.857 10.484 3.088 21.018 6.133 31.704 8.367 8.408 1.757 17.06 2.449 25.638 3.254 6.788.637 13.637 1.135 20.44.958 8.709-.225 17.39-1.346 26.098-1.759 3.413-.162 6.882.926 10.3.792 10.886-.428 21.76-1.627 32.64-1.645 10.38-.017 20.753 1.262 31.142 1.62 8.656.296 17.399-.603 25.98.256 12.675 1.27 25.16 3.6 36.777 9.607 16.007 8.278 20.474 26.903 15.667 40.646-4.404 12.585-11.932 21.808-24.346 26.132-7.979 2.78-16.531 5.128-24.887 5.342-14.57.374-29.3-.14-43.75-1.975-14.28-1.813-28.264-5.89-42.454-8.577-3.086-.585-6.535.275-9.74.88-10.63 2.01-21.262 4.043-31.827 6.369-17.032 3.748-34.029 7.66-51.005 11.653-10.21 2.402-20.285 5.41-30.543 7.564-11.733 2.463-23.61 4.239-35.41 6.391-8.93 1.63-17.827 3.441-26.76 5.06-7.67 1.39-15.368 2.637-23.059 3.92a3676 3676 0 0 1-24.48 4.028c-8.497 1.36-17.022 2.562-25.507 4.003-9.742 1.654-19.433 3.62-29.185 5.21-6.915 1.129-13.91 1.76-20.843 2.787-10.588 1.567-21.155 3.278-31.729 4.939-8.513 1.337-17.011 2.771-25.537 4.018-11.603 1.697-23.21 3.375-34.844 4.84-9.739 1.225-19.495 2.65-29.283 3.076-22.845.993-45.711 1.608-68.575 2.043-14.656.279-29.323.062-43.983-.108-21.109-.243-42.215-.66-63.323-.97-4.88-.07-9.76.012-14.64-.013-63.273-.328-126.546-.624-189.819-1.022-14.604-.092-29.206-.569-43.81-.82-20.936-.358-41.873-.647-62.809-1.014-16.761-.293-33.52-.874-50.281-.947-34.68-.149-69.361.066-104.04-.097-14.775-.07-29.544-.861-44.32-1.063-28.773-.392-57.55-.612-86.325-.882-41.813-.393-83.645-.188-125.427-1.529-11.479-.368-23.226-4.483-28.002-17.8-2.545-7.097-5.753-13.967-8.916-20.822-.573-1.242-2.352-2.688-3.621-2.733-14.6-.519-29.212-.73-43.816-1.146-5.774-.165-11.538-.87-17.309-.897-4.767-.022-9.54.909-14.307.873-31.09-.234-62.18-.606-93.27-.953-28.608-.319-57.214-.758-85.821-.942-9.45-.06-18.921 1.006-28.35.67-11.806-.42-23.579-1.762-35.368-2.68-1.325-.103-2.665-.042-3.998-.042l-73.997-.002h-84.11c-.237 6.835-.575 14.568-.753 22.305-.154 6.692-.07 6.616-6.599 6.287-6.153-.31-12.316-.54-18.476-.59-3.001-.023-3.997-1.044-3.876-4.147a9430 9430 0 0 0 2.714-77.407c.107-3.435 1.17-4.628 4.723-4.355 6.47.497 12.981.738 19.47.65 4.069-.055 4.983 1.444 4.793 5.323-.363 7.427-.105 14.884-.105 22.756h4.523c35.994 0 71.987-.1 107.98.045 16.103.065 32.205.598 48.306.963 13.103.296 26.203.855 39.307.957 53.266.416 106.535.596 159.8 1.113 12.374.12 24.73 1.514 37.107 1.807 14.23.336 28.475.104 42.713.114 9.204.005 18.41-.15 27.61.049 7.266.156 14.853-.46 21.704 1.425 9.751 2.683 16.528 9.88 20.243 19.474 1.765 4.558 3.679 9.163 4.579 13.925 1.255 6.64 6.046 7.815 11.23 8.01 5.247.199 10.527-.709 15.798-.787 3.095-.046 6.2.855 9.301.862 30.998.07 61.998-.08 92.996.085 21.77.116 43.537.633 65.305.95 3.866.056 7.735-.064 11.6.02 20.249.436 40.495 1.175 60.745 1.321 50.275.363 100.553.395 150.83.702 17.971.11 35.94.64 53.911.962 19.269.345 38.536.731 57.806.978 10.613.136 21.23-.026 31.844.033 56.8.316 113.602.607 170.402 1.025 15.936.117 31.87.736 47.806.945 31.1.408 62.204 1.005 93.303.866 12.434-.056 24.871-1.729 37.285-2.898 8.144-.767 16.282-1.734 24.36-3.01 7.888-1.244 15.667-3.16 23.546-4.475 8.07-1.347 16.203-2.317 24.307-3.463 10.051-1.422 20.103-2.843 30.15-4.292 2.903-.419 5.782-1.02 8.691-1.389 6.485-.822 12.982-1.55 19.933-2.317"/></svg>