<svg xmlns="http://www.w3.org/2000/svg" viewBox="0 0 2522 688" xml:space="preserve"><path fill="#fff" d="M456.071 625.998c.482-18.482.954-36.466 1.436-54.828h27.613v25.091h5.419c33.166 0 66.332-.094 99.497.046 13.514.057 27.026.584 40.537.969 9.323.265 18.641.874 27.965.948 51.474.41 102.95.555 154.423 1.112 19.72.214 39.432 1.288 59.148 1.945 2.295.076 4.596-.05 6.893-.014 20.44.323 40.935 1.683 61.302.612 12.305-.647 23.287 3.187 34.436 6.106 7.279 1.905 13.685 7.748 20.026 12.444 5.018 3.716 9.168 8.58 14.013 12.558 6.85 5.624 15.106 8.053 23.742 9.205 6.17.823 12.371 1.95 18.563 1.978 39.331.18 78.664.005 117.996.137 14.109.047 28.216.598 42.323.963 11.442.296 22.881.89 34.324.953 74.772.407 149.546.996 224.317.763 13.114-.04 25.7-4.87 35.802-14.316 9.397-8.788 18.644-17.775 28.519-25.999 6.027-5.02 12.636-10.051 19.854-12.745 8.566-3.197 18.039-4.064 27.18-5.574 3.406-.563 6.984-.068 10.484-.095 11.074-.085 21.815 1.83 32.56 4.479 10.936 2.696 22.134 4.316 33.182 6.578 5.434 1.113 10.774 2.672 16.182 3.923 7.478 1.73 15.002 3.264 22.464 5.062 5.233 1.261 10.357 2.98 15.597 4.21 6.033 1.414 12.157 2.429 18.207 3.774 7.64 1.699 15.227 3.64 22.87 5.323 9.02 1.986 18.123 3.618 27.1 5.77 6.125 1.468 12.046 3.773 18.155 5.322 5.707 1.448 11.569 2.274 17.313 3.592 6.335 1.453 12.587 3.266 18.924 4.714 5.418 1.238 10.885 2.291 16.363 3.232 10.617 1.822 21.241 3.618 31.896 5.195 4.066.601 8.223.743 12.342.795 8.998.113 18.058.68 26.984-.13 10.903-.99 21.698-3.189 32.535-4.89 8.244-1.295 16.478-2.648 24.723-3.94 8.74-1.369 17.484-2.702 26.23-4.038 2.265-.346 4.548-.584 6.805-.98 4.014-.705 8.018-1.477 12.018-2.258.794-.155 1.569-.722 2.33-.681 5.856.314 11.286-1.228 16.946-2.634 8.372-2.08 17.223-2.157 25.81-3.474 8.227-1.262 16.376-3.034 24.566-4.549 2.74-.507 5.492-.97 8.252-1.357 12.163-1.7 24.359-3.187 36.487-5.1 9.694-1.53 19.31-3.56 28.956-5.386.479-.09.92-.477 1.39-.503 13.927-.782 27.261-4.521 40.711-7.836 6.75-1.664 13.825-1.96 20.677-3.273 7.36-1.41 14.613-3.375 21.947-4.94 11.338-2.42 22.764-4.454 34.043-7.113 13.457-3.174 26.752-7.031 40.214-10.18 4.757-1.112 9.797-1.376 14.71-1.389 14.103-.036 28.21.186 42.31.469 3.103.062 6.249.551 9.274 1.268 5.463 1.295 10.835 2.967 16.273 4.372 4.892 1.264 9.797 3.257 14.74 3.4 15.535.45 31.092.116 46.638.22 6.098.04 11.865-.434 16.153-5.57 6.527-7.82 4.61-13.194-5.165-16.076-13.251-3.907-26.647-5.172-40.45-5.046-39.495.361-78.996.084-118.495.172-6.109.013-12.218.934-18.323.886-10.61-.085-21.237-.305-31.815-1.058-5.172-.368-10.278-1.947-15.365-3.181-7.404-1.797-14.771-3.747-22.14-5.686a3889 3889 0 0 1-28.247-7.53c-7.825-2.121-15.69-4.134-23.425-6.551-7.485-2.34-14.768-5.322-22.25-7.675-7.34-2.309-14.852-4.063-22.224-6.277-7.625-2.29-15.156-4.896-22.76-7.26-5.614-1.747-11.392-3.022-16.893-5.058-7.777-2.877-15.313-6.396-23.046-9.399-12.432-4.827-24.97-9.38-37.408-14.19-12.407-4.8-24.827-9.581-37.083-14.745-6.723-2.832-13.044-6.602-19.68-9.66-13.308-6.133-26.776-11.923-40.048-18.133-10.728-5.019-21.235-10.506-31.894-15.674-10.454-5.07-21.132-9.698-31.43-15.06-14.376-7.485-28.552-15.36-42.692-23.285-9.11-5.105-18.167-10.342-26.947-15.987-9.883-6.354-19.274-13.474-29.161-19.822-11.614-7.458-19.227-18.368-26.353-29.656-1.902-3.014-2.63-7.024-3.046-10.673-1.194-10.47-2.483-20.906 1.2-31.348 1.973-5.597 2.663-11.684 3.562-17.606.459-3.02-.6-5.065-3.942-6.893-10.697-5.852-20.886-12.623-31.39-18.839a409 409 0 0 0-20.418-11.278c-6.531-3.377-13.285-6.32-19.873-9.59-13.226-6.566-26.612-12.85-39.553-19.942-15.825-8.67-32.43-15.484-49.05-22.348-5.45-2.25-10.553-5.326-15.961-7.69-9.53-4.165-19.174-8.068-28.766-12.09-10.562-4.428-21.011-9.151-31.71-13.222-10.98-4.178-22.243-7.606-33.301-11.587-6.745-2.427-13.252-5.525-20.022-7.873-7.554-2.62-15.29-4.714-22.936-7.071a3462 3462 0 0 1-24.674-7.688c-3.207-1.014-6.31-2.404-9.561-3.227-8.493-2.147-17.096-3.87-25.55-6.15-8.329-2.247-16.455-5.254-24.807-7.394-6.295-1.614-12.815-2.34-19.218-3.549a729 729 0 0 1-17.766-3.56c-8.15-1.75-16.282-3.589-24.412-5.431-6.515-1.477-13.016-3.014-19.522-4.531-.321-.075-.618-.282-.94-.326-7.765-1.055-15.569-1.885-23.29-3.202-6.912-1.178-13.715-2.988-20.603-4.326-3.695-.718-7.483-.947-11.205-1.542-14.541-2.326-29.02-5.137-43.624-6.953-15.022-1.868-30.16-2.814-45.251-4.11-12.15-1.044-24.317-1.884-36.453-3.057-6.358-.615-12.648-1.918-19.003-2.572-2.542-.261-5.182.632-7.769.581-9.99-.197-20.05-1.439-29.944-.61-9.319.78-18.476 3.605-27.675 5.661-8.433 1.886-16.251 5.212-23.045 10.657-12.13 9.721-21.547 21.739-24.753 36.949-1.918 9.1-.025 18.945-.573 28.413-.495 8.575-1.748 16.753-6.947 24.56-6.461 9.7-13.147 18.545-24.594 21.924-5.463 1.613-11.465 1.68-17.242 1.892-12.662.465-24.474-4.314-36.7-6.551-11.491-2.104-22.83-5.093-34.178-7.923-9.719-2.423-19.304-5.391-29.045-7.716-9.788-2.336-19.728-4.03-29.536-6.286-5.4-1.242-10.641-3.16-16.002-4.59-4.568-1.219-9.216-2.136-13.81-3.262-8.026-1.966-15.962-4.408-24.075-5.875-8.527-1.541-17.196-2.719-25.842-3.054-9.677-.376-19.573-1.333-28.879 2.82-.28.124-.66.039-.993.03-11.537-.28-21.956 4.086-32.709 7.424-13.59 4.22-25.728 11.3-37.743 18.418-7.987 4.732-15.258 11.073-21.831 17.704-11.345 11.445-22.28 23.3-36.544 31.19-9.765 5.402-19.87 10.19-29.828 15.242-7.176 3.64-14.29 7.412-21.562 10.852-10.296 4.872-20.797 9.317-31.047 14.282-7.225 3.498-14.163 7.586-21.258 11.357-7.324 3.893-14.406 8.436-22.09 11.41-11.796 4.566-24.147 7.945-36.963 5.897-4.216-.674-8.11-3.657-12.037-5.794-7.457-4.058-15.779-7.2-21.983-12.705-6.65-5.9-13.518-7.812-21.713-7.214-1.859.136-3.926.622-5.45 1.625-10.176 6.69-20.267 13.511-30.315 20.392-15.456 10.584-31.122 20.887-46.203 31.983-15.156 11.15-29.763 23.05-44.5 34.762-11.193 8.895-22.242 17.972-33.298 27.04-8.029 6.584-16.24 12.984-23.878 20-13.927 12.791-24.93 27.96-34.384 44.279-7.452 12.863-15.018 25.663-22.266 38.64-4.706 8.425-8.862 17.156-13.397 25.68-3.752 7.051-7.517 14.107-11.602 20.968-6.102 10.245-7.892 20.955-6.802 32.932.756 8.314 3.761 15.05 7.873 21.775 2.689 4.399 6.427 6.757 11.586 7.834 9.017 1.881 17.479.554 24.447-4.998 4.221-3.363 6.864-8.745 10.092-13.308 7.302-10.324 13.92-21.21 21.99-30.887 5.71-6.846 13.532-10.044 23.501-9.61 14.431.63 26.928 6.48 40.001 11.101 9.456 3.342 19.116 6.106 28.573 9.444 15.49 5.465 30.874 11.228 46.33 16.788 10.64 3.827 21.297 7.605 31.997 11.257 12.979 4.43 25.93 8.976 39.056 12.93 6.372 1.92 13.116 2.607 19.692 3.85 8.654 1.635 17.28 3.442 25.973 4.831 4.71.753 9.534.786 14.305 1.157 5.418.42 10.834.856 16.204 1.282 0 7.985.163 15.92-.221 23.827-.045.91-3.252 2.558-4.806 2.364-16.663-2.075-33.349-4.092-49.903-6.869-11.95-2.005-23.813-4.75-35.529-7.865-11.189-2.976-22.23-6.592-33.171-10.4-19.925-6.935-39.744-14.177-59.576-21.378-11.778-4.276-23.418-8.944-35.261-13.026-13.056-4.501-26.268-8.548-39.422-12.762-4.505-1.443-8.12-.503-10.92 3.666-7.149 10.647-14.883 20.921-21.629 31.812-8.207 13.25-19.88 20.012-35.06 22.156-8.958 1.265-17.699 1.016-26.339-1.154-11.73-2.947-20.25-10.44-25.912-20.838a110 110 0 0 1-8.415-19.96c-4.269-13.793-4.215-28.018.505-41.516 3.576-10.227 9.125-19.81 14.26-29.434 7.678-14.392 15.8-28.547 23.662-42.841 5.115-9.3 9.577-19.007 15.283-27.923 7.52-11.752 15.754-23.07 24.086-34.272 8.916-11.99 20.47-21.277 32.134-30.494 11.511-9.098 22.26-19.157 33.698-28.351 20.49-16.471 40.902-33.075 61.996-48.75 18.753-13.934 38.178-27.004 57.732-39.805 8.027-5.254 16.855-9.693 25.89-12.89 10.586-3.744 21.659-3.294 31.715 2.654 6.798 4.02 13.214 8.682 19.935 12.84 3.279 2.029 7.088 3.232 10.268 5.383 9.364 6.337 18.473 3.928 27.456-.52 14.243-7.051 28.308-14.464 42.559-21.499 12.206-6.025 24.603-11.663 36.851-17.605 10.406-5.047 20.797-10.136 31.047-15.49 6.867-3.587 14.065-6.928 20.064-11.7 9.439-7.507 17.902-16.23 26.952-24.241 6.304-5.582 12.444-11.538 19.46-16.088 14.158-9.18 29.057-16.884 44.985-22.973 14.226-5.439 28.93-8.208 43.58-11.242 14.963-3.1 30.132-3.516 45.371.267 14.153 3.512 28.69 5.442 42.956 8.541 10.873 2.362 21.546 5.621 32.376 8.199 16.98 4.041 34.034 7.771 51.024 11.777 9.735 2.296 19.305 5.424 29.127 7.194 13.558 2.444 26.506 8.009 40.584 7.789 10.453-.163 19.545-9.187 19.65-19.869.07-7.166-.312-14.354.13-21.493.413-6.653 1.218-13.347 2.618-19.858 2.218-10.312 8.016-18.87 14.259-27.23 7.231-9.684 14.895-18.88 25.69-24.675 15.239-8.18 30.88-14.975 48.781-15.069 14.19-.074 28.392-1.962 42.555-1.623 14.743.354 29.443 2.449 44.168 3.71 5.254.45 10.546.502 15.786 1.058 14.152 1.502 28.283 3.192 42.426 4.771 4.08.456 8.198.633 12.26 1.211 13.538 1.928 27.081 3.835 40.58 6.02a2170 2170 0 0 1 46.556 8.058c6.964 1.284 13.786 3.324 20.731 4.731 15.586 3.158 31.262 5.887 46.8 9.26 13.421 2.912 26.718 6.408 40.04 9.765 11.893 2.997 23.79 5.995 35.6 9.302 8.542 2.392 16.933 5.32 25.408 7.957 7.372 2.294 14.825 4.342 22.137 6.81 11.305 3.817 22.507 7.937 33.777 11.856 7.258 2.524 14.66 4.663 21.82 7.43 12.586 4.863 25.12 9.883 37.526 15.187a3416 3416 0 0 1 56.232 24.645c14.705 6.601 29.26 13.536 43.86 20.369 10.34 4.84 20.827 9.41 30.924 14.72 14.223 7.48 28.12 15.58 42.206 23.325 9.03 4.965 18.33 9.463 27.175 14.732 7.77 4.63 15.424 9.606 22.475 15.248 5.59 4.473 10.78 18.668 7.106 27.309-4.03 9.48-5.31 19.714-5.786 30.021-.429 9.263 3.559 16.39 9.387 23.291 9.961 11.795 23.364 18.806 35.929 26.89 13.465 8.664 27.418 16.616 41.476 24.298 12.352 6.75 25.18 12.624 37.726 19.024 10.07 5.136 19.957 10.635 30.073 15.677 6.632 3.306 13.55 6.038 20.3 9.11 13.187 6 26.35 12.051 39.516 18.092 15.152 6.951 30.14 14.289 45.493 20.758 13.312 5.609 27.076 10.137 40.564 15.338 8.89 3.429 17.492 7.664 26.5 10.727 17.673 6.01 35.496 11.599 53.343 17.08 10.636 3.266 21.491 5.814 32.147 9.02 10.278 3.092 20.34 6.916 30.657 9.86 9.629 2.746 19.47 4.754 29.215 7.094 7.53 1.809 14.968 4.415 22.604 5.273 13.831 1.552 27.62 4.241 41.753 1.974 6.34-1.017 12.974-.138 19.472-.242 19.264-.308 38.528-.63 57.79-1.044 8.3-.179 16.614-1.098 24.89-.806 19.14.678 38.328 1.216 57.36 3.157 10.148 1.034 20.558 3.461 29.471 9.038 8.556 5.354 14.81 12.55 14.42 23.662-.24 6.868.161 13.644-2.696 20.315-3.887 9.076-10.376 15.277-18.991 19.383-10.026 4.777-20.72 6.536-31.817 6.174-5.827-.19-11.677-.268-17.496.011-13.576.65-26.735-1.354-39.495-5.88-19.988-7.091-40.733-6.996-61.406-5.885-8.594.461-17.03 3.637-25.565 5.454-10.14 2.16-20.316 4.144-30.46 6.286-4.112.87-8.163 2.034-12.27 2.93a13512 13512 0 0 1-50.83 10.983c-12.66 2.709-25.274 5.693-38.02 7.918-13.958 2.437-28.056 4.066-42.07 6.198-7.55 1.149-15.045 2.655-22.577 3.926-10.102 1.704-20.216 3.336-30.325 5-8.18 1.347-16.358 2.72-24.544 4.039-10.433 1.681-20.889 3.23-31.307 5-15.073 2.562-30.09 5.464-45.19 7.856-12.564 1.991-25.23 3.325-37.815 5.199-9.322 1.387-18.534 3.658-27.89 4.63-7.582.788-15.35.779-22.955.151-14.663-1.209-29.396-2.377-43.868-4.896-19.117-3.327-38.03-7.85-56.996-12.018-16.12-3.542-32.221-7.177-48.272-11.017-14.295-3.42-28.453-7.424-42.774-10.724-21.313-4.91-42.714-9.444-64.083-14.11-12.323-2.69-24.552-6.12-37.015-7.764-13.113-1.731-26.302-2.892-39.62 1.073-10.436 3.107-18.72 8.84-26.402 15.925-8.777 8.093-16.579 17.478-26.19 24.37-11.44 8.206-24.67 12.52-39.075 14.821-14.548 2.324-28.916 2.401-43.392 2.378-24.934-.04-49.867-.566-74.8-.908-23.428-.322-46.856-.784-70.285-.986-47.598-.41-95.197-.65-142.795-1.05-7.6-.065-15.196-.791-22.797-.866-15.515-.152-31.033.045-46.548-.123-9.613-.104-19.225-.948-28.832-.862-13.721.123-27.223-1.303-39.702-7.02-7.54-3.453-14.49-8.386-21.276-13.25-7.158-5.133-13.141-12.334-20.867-16.127-7.784-3.822-16.984-5.554-25.737-6.39-9.32-.891-18.843.645-28.275.595-39.266-.204-78.532-.554-117.796-.96-18.769-.195-37.534-.634-56.301-.97-18.097-.323-36.193-.776-54.291-.96-41.097-.418-82.197-.65-123.294-1.072-17.599-.18-35.197-.552-52.79-1.022-7.756-.207-15.5-.874-24.122-1.384v30.325h-27.988c0-8.734 0-17.005.01-25.775"/></svg>