<svg xmlns="http://www.w3.org/2000/svg" viewBox="0 0 2521 689" xml:space="preserve"><path fill="#fff" d="M888 615.97c-145.997 0-291.494.142-436.99-.216-14.942-.037-29.874-3.092-44.816-4.693-4.244-.455-8.54-.497-12.755-1.118-9.126-1.344-18.23-2.854-27.313-4.465-5.714-1.014-11.415-2.172-17.043-3.58-3.068-.768-5.973-2.188-8.949-3.323-16.603-6.33-31.863-15.247-46.645-24.924-6.954-4.553-12.726-10.988-19.852-15.178-4.878-2.868-10.729-4.201-17.174-2.853-13.552 2.835-26.525 9.217-40.918 7.333-8.863-1.16-17.722-2.362-26.583-3.545-10.986-1.467-20.77-6.003-30.504-11.105-8.324-4.362-11.328-2.743-18.169 4.718-10.197 11.121-17.453 24.196-25.876 36.517-2.876 4.207-8.686 6.472-13.28 9.432-13.138 8.467-27.852 7.274-41.844 4.603-11.306-2.159-20.507-9.83-26.054-20.347-3.557-6.744-6.79-13.93-8.51-21.306-2.343-10.04-3.324-20.032-1.226-30.859 2.729-14.08 9.733-25.713 16.025-37.872 8.108-15.67 16.695-31.097 25.331-46.486 5.985-10.664 11.848-21.466 18.763-31.52 8.77-12.75 18.005-25.274 28.083-36.998 6.937-8.07 15.478-14.811 23.612-21.786 8.29-7.11 17.011-13.717 25.45-20.657 10.105-8.309 19.937-16.956 30.203-25.058a1132 1132 0 0 1 36.902-27.946c12.158-8.814 24.688-17.115 37.006-25.711 9.865-6.884 19.305-14.453 29.57-20.666 12.597-7.624 26.143-13.426 41.417-9.219 8.782 2.419 15.79 8.269 23.344 13.21 8.478 5.548 17.219 12.174 27.843 12.374 5.623.106 11.64-2.324 16.9-4.826 14.145-6.726 27.884-14.3 41.959-21.179 16.575-8.1 33.499-15.497 49.972-23.793 20.53-10.34 41.507-19.991 57.075-38.06 5.972-6.93 13.017-13.241 20.524-18.469 9.99-6.955 20.641-13.099 31.504-18.615 9.945-5.05 20.412-9.178 30.915-12.978 5.686-2.057 11.922-2.602 17.918-3.786 8.232-1.625 16.492-3.109 24.702-4.836 9.815-2.066 19.452-1.29 29.185.79 8.072 1.724 16.381 2.353 24.44 4.127 9.713 2.138 19.244 5.09 28.91 7.461 5.634 1.383 11.395 2.248 17.069 3.481 5.018 1.09 9.987 2.405 14.992 3.557 6.573 1.513 13.174 2.91 19.738 4.46 4.374 1.032 8.7 2.268 13.059 3.368 14.005 3.535 28.012 7.061 42.025 10.567 7.785 1.948 15.501 4.346 23.397 5.623 6.96 1.126 14.171 1.669 21.19 1.211 8.452-.55 17.788-10.012 18.353-18.478.47-7.033-.505-14.16-.78-21.246-.102-2.663-.481-5.424.045-7.98 1.391-6.751 3.061-13.457 4.92-20.096.893-3.188 1.992-6.501 3.809-9.215 7.845-11.714 15.794-23.427 27.587-31.696 10.762-7.546 22.653-12.711 35.334-16.086 22.38-5.957 45.265-3.815 67.96-3.816 12.268-.001 24.537 1.8 36.802 2.825 15.668 1.309 31.36 2.397 46.99 4.059 15.708 1.67 31.416 3.542 47.009 6.045 12.868 2.066 25.528 5.394 38.355 7.757 7.807 1.437 15.8 1.848 23.629 3.194 6.946 1.195 13.758 3.153 20.67 4.571 6.17 1.266 12.414 2.162 18.591 3.393 5.524 1.1 10.985 2.51 16.502 3.649 8.85 1.828 17.76 3.379 26.573 5.361 8.318 1.871 16.547 4.137 24.809 6.25 6.05 1.549 12.119 3.036 18.129 4.73 5.517 1.553 10.969 3.342 16.447 5.034 9.336 2.883 18.629 5.913 28.017 8.614 8.002 2.303 16.248 3.818 24.138 6.432 8.936 2.96 17.551 6.872 26.386 10.154 8.246 3.064 16.61 5.807 24.894 8.767 3.321 1.187 6.557 2.611 9.853 3.87 11.616 4.433 23.32 8.648 34.838 13.32 9.186 3.725 18.165 7.966 27.212 12.032 9.907 4.453 19.818 8.898 29.668 13.474 12.016 5.582 23.952 11.336 35.958 16.939 7.86 3.668 15.843 7.07 23.655 10.833 5.765 2.777 11.346 5.936 17.003 8.936 10.682 5.667 21.44 11.198 32.02 17.048 15.187 8.397 30.648 16.402 45.215 25.781 9.6 6.181 16.217 15.375 14.826 27.993-.368 3.342-1.357 6.614-2.045 9.921-1.643 7.892-4.201 15.732-4.657 23.693-.471 8.219 1.884 15.993 7.681 22.812 9.184 10.8 20.58 18.428 32.561 25.489a6046 6046 0 0 1 37.36 22.214c6.344 3.8 12.459 8.01 18.955 11.519 8.566 4.627 17.389 8.784 26.133 13.077a2888 2888 0 0 0 26.272 12.729c9.334 4.466 18.71 8.843 28.053 13.288 11.124 5.292 22.179 10.735 33.368 15.886 8.437 3.885 17.055 7.376 25.56 11.113 8.035 3.531 15.999 7.225 24.05 10.715 5.838 2.53 11.748 4.898 17.664 7.243 9.028 3.58 18.072 7.123 27.142 10.597 10.797 4.137 21.503 8.56 32.475 12.172 12.627 4.158 25.532 7.46 38.258 11.329 13.63 4.143 27.184 8.534 40.784 12.778 9.488 2.96 18.915 6.168 28.52 8.688 9.656 2.534 19.514 4.288 29.254 6.514 4.677 1.068 9.233 2.718 13.939 3.605 8.75 1.65 17.527 3.703 26.37 4.186 12.943.709 25.955.314 38.934.147 13.425-.173 26.845-.633 40.267-.97 13.423-.339 26.85-1.043 40.268-.913 11.492.112 22.97 1.278 34.463 1.778 6.146.267 12.332.462 18.46.068 11.68-.751 22.485 3.113 33.242 6.417 8.907 2.736 14.99 9.768 19.479 17.937.076.138.142.313.13.465-.673 8.618 1.871 17.267-1.692 25.933-3.526 8.575-8.995 14.878-16.943 19.213-9.318 5.083-19.398 7.108-29.951 7.07-7.667-.027-15.345-.275-22.997.052-16.066.685-31.206-3.432-46.387-7.923-5.999-1.775-12.386-2.708-18.647-3.021-9.808-.492-19.667.1-29.49-.197-10.43-.315-20.233 2-30.199 4.859-11.273 3.233-23.02 4.782-34.518 7.27-14.804 3.202-29.562 6.616-44.344 9.925-8.778 1.966-17.522 4.12-26.355 5.801-11.92 2.268-23.92 4.116-35.87 6.233-7.794 1.38-15.547 2.99-23.342 4.366-7.338 1.295-14.704 2.433-22.063 3.612-10.877 1.742-21.76 3.446-32.636 5.19-7.785 1.248-15.563 2.534-23.422 3.815l6.252 30.13-27.345 5.795-17.237-81.952 27.342-5.816 5.715 26.523c9.674-1.738 19.062-3.598 28.51-5.08 12.312-1.93 24.69-3.438 37.005-5.355 10.032-1.562 20.007-3.484 30.015-5.198 7.566-1.295 15.176-2.351 22.71-3.807 8.183-1.582 16.28-3.613 24.453-5.25 14.898-2.985 29.865-5.628 44.724-8.79 10.373-2.207 20.585-5.157 30.922-7.548 5.88-1.36 11.884-2.17 17.797-3.398 4.476-.93 9.354-1.29 13.241-3.398 7.033-3.816 14.601-2.492 21.836-3.331 10.833-1.257 21.876-1.51 32.786-1.078 11.92.47 23.746 2.048 35.012 6.837 5.178 2.2 11.023 3.452 16.654 3.84 12.073.833 24.257 1.628 36.29.837 6.487-.427 13.469.676 19.803-3.295 4.256-2.668 6.83-6.126 7.543-10.496.706-4.338-3.17-6.22-6.73-7.336-15.967-5.004-32.39-5.447-48.97-5.17-12.598.21-25.215-.886-37.82-.832-39.487.169-78.974.865-118.458.72-7.853-.028-15.711-2.8-23.538-4.444-6.379-1.34-12.722-2.85-19.066-4.348-5.398-1.275-10.81-2.513-16.153-3.992-11.918-3.3-23.855-6.551-35.675-10.178-10.32-3.167-20.443-6.977-30.743-10.216-10.618-3.339-21.396-6.17-32.01-9.521-10.294-3.25-20.566-6.616-30.673-10.4-16.965-6.352-33.836-12.963-50.66-19.68-13.395-5.348-26.8-10.707-39.953-16.61-27.469-12.33-54.905-24.75-82.102-37.663-18.284-8.681-36.328-17.917-54.125-27.558-18.3-9.913-36.338-20.342-54.167-31.08-10.706-6.448-20.884-13.791-31.135-20.967-10.698-7.49-18.374-17.762-24.806-28.901-1.809-3.135-2.56-7.16-2.832-10.849-.786-10.64-1.8-21.333 1.086-31.883 1.336-4.883 2.682-9.784 3.579-14.757.579-3.209.593-6.183-3.287-8.368-20.686-11.65-41.021-23.927-61.802-35.4-11.875-6.556-24.373-11.98-36.577-17.944-8.657-4.23-17.226-8.648-25.95-12.731-11.744-5.496-23.574-10.81-35.414-16.096-17.168-7.666-34.32-15.373-51.593-22.794-8.603-3.695-17.426-6.894-26.217-10.133-11.766-4.336-23.604-8.478-35.399-12.734-12.195-4.4-24.24-9.274-36.606-13.128-10.886-3.393-22.168-5.494-33.184-8.5-5.295-1.446-10.296-3.952-15.574-5.476-11.47-3.312-22.97-6.568-34.58-9.335-8.897-2.12-18.012-3.305-26.972-5.18-12.15-2.543-24.21-5.508-36.37-7.995-10.713-2.19-21.531-3.86-32.26-5.975-7.365-1.451-14.616-3.489-21.992-4.866-8.515-1.59-17.124-2.668-25.67-4.102-15.491-2.598-30.935-5.493-46.46-7.864-7.635-1.166-15.4-1.517-23.117-2.097-18.422-1.384-36.85-2.695-55.277-4.018-9.543-.685-19.08-1.632-28.637-1.92-11.143-.334-22.4-.98-33.427.2-9.28.994-18.39 4.113-27.417 6.82-17.237 5.167-28.093 17.787-36.354 32.861-4.756 8.678-5.59 18.01-4.605 28.118 1.186 12.161 2.171 24.824-4.93 36.131-6.384 10.168-14.992 17.441-26.264 21.833-13.14 5.12-26.219 3.558-39.331.447-11.14-2.644-22.16-5.798-33.317-8.36-14.177-3.255-28.485-5.943-42.647-9.256-9.214-2.155-18.21-5.232-27.411-7.453-10.004-2.414-20.177-4.12-30.19-6.495-9.682-2.296-19.13-5.782-28.903-7.44-17.656-2.997-35.456-6.585-53.321-.891-.622.198-1.285.394-1.926.385-14.19-.202-26.933 5.308-39.863 10.073-15.63 5.76-29.701 14.397-42.737 24.536-6.945 5.402-12.715 12.308-19.066 18.483-9.351 9.093-19.275 17.392-31.021 23.36-12.122 6.16-23.964 12.877-36.154 18.894-13.906 6.864-28.15 13.042-42.082 19.858-12.199 5.969-24.186 12.371-36.23 18.652-13.802 7.197-28.339 11.846-43.976 9.893-5.155-.644-9.94-4.4-14.848-6.826-8.666-4.284-16.704-9.36-24.532-15.218-7.974-5.968-17.929-5.855-26.801.29-13.392 9.278-26.756 18.595-40.162 27.852-15.109 10.432-30.452 20.538-45.303 31.325-9.046 6.57-17.355 14.155-25.994 21.285-10.31 8.509-20.623 17.013-30.928 25.529-6.991 5.777-14.045 11.483-20.93 17.386-4.855 4.161-9.75 8.337-14.131 12.975-6.076 6.432-12.33 12.857-17.35 20.089-8.047 11.592-15.539 23.617-22.553 35.866-12.215 21.334-23.991 42.921-35.72 64.527-3.264 6.01-7.29 12.244-8.19 18.76-1.58 11.436-2.43 23.065 4.032 34.158 3.839 6.59 7.989 11.246 15.403 13.243 8.895 2.397 22.397-2.644 27.349-10.014 7.354-10.945 14.726-21.938 22.968-32.206 4.541-5.658 10.657-10.164 16.51-14.598 2.266-1.716 5.795-2.575 8.703-2.479 8.504.283 17.18.747 24.93 4.671 9.972 5.05 19.81 9.99 31.377 10.285 6.216.159 12.402 1.306 18.614 1.865 6.925.624 13.007-2.285 19.464-4.216 11.617-3.474 23.378-5.125 35.933-2.333 12.116 2.695 19.889 10.915 29.06 17.616 7.033 5.139 13.847 10.887 21.584 14.682 12.335 6.051 25.126 11.405 38.17 15.695 8.447 2.778 17.665 3.31 26.58 4.534 11.874 1.63 23.791 2.94 35.687 4.413 3.91.484 7.795 1.213 11.716 1.543 9.368.787 18.75 1.992 28.128 2 154.496.123 308.993.112 463.489.03 9.684-.006 18.101 4.183 26.896 7.063 14.832 4.856 26.455 14.505 37.31 25.466 7.627 7.703 16.588 13.08 27.596 16.037 7.796 2.094 15.276 2.433 22.974 2.444 61.165.085 122.33-.022 183.496.093 16.441.031 32.88.687 49.323.94 25.52.39 51.041.626 76.56 1.042 9.888.162 19.768.793 29.655.904 4.768.054 9.548-.92 14.317-.867 11.47.124 22.551-2.429 33.774-4.193 22.187-3.487 40.874-15.972 61.484-23.51 15.54-5.684 30.426-13.14 45.69-19.604 9-3.811 17.903-8.375 27.323-10.549 13.877-3.202 28.062-5.68 42.417-.946 5.986 1.975 12.542 2.145 18.738 3.575 10.813 2.494 21.518 5.453 32.323 7.986 13.528 3.173 27.14 5.989 40.663 9.186 14.159 3.349 28.227 7.08 42.387 10.427 8.746 2.068 17.632 3.544 26.37 5.642 5.843 1.403 11.49 3.61 17.31 5.13 5.67 1.48 11.45 2.542 17.181 3.79 5.42 1.18 10.848 2.324 16.256 3.555 6.34 1.443 12.664 2.95 18.989 4.456 6.98 1.663 13.903 3.617 20.943 4.964 6.909 1.322 13.905 2.483 20.912 2.925 11.25.709 22.545 1.14 33.81.953 6.15-.101 12.254-1.886 18.416-2.594 5.767-.663 11.588-.84 17.373-1.367 2.292-.21 4.553-.77 6.824-1.195 12.288-2.303 24.575-4.614 37.574-7.055l4.728 25.817c-8.98 1.436-17.873 2.812-26.75 4.29-11.18 1.861-22.34 3.85-33.524 5.688-3.545.582-7.132 1.107-10.715 1.229-13.086.443-26.198 1.277-39.262.839-9.204-.309-18.357-2.367-27.512-3.778-8.003-1.233-16.053-2.31-23.943-4.077-9.864-2.208-19.55-5.193-29.38-7.565-5.798-1.4-11.745-2.17-17.589-3.396-4.725-.992-9.396-2.246-14.093-3.376-6.395-1.539-12.81-3-19.184-4.624-5.758-1.467-11.436-3.26-17.213-4.644-10.631-2.545-21.322-4.843-31.964-7.343-10.184-2.392-20.319-4.997-30.512-7.35-12.862-2.97-25.785-5.676-38.634-8.703-6.096-1.436-12.04-3.513-18.126-5.006-6.1-1.495-12.24-3.289-18.451-3.752-8.629-.644-17.353-.428-26.012-.033-3.071.14-6.145 1.702-9.088 2.925-10.772 4.48-21.48 9.11-32.228 13.647-16.06 6.782-32.155 13.477-48.19 20.316-12.361 5.273-24.497 11.12-37.043 15.897-6.09 2.319-12.86 2.951-19.373 4.037-34.6 5.768-69.485 2.668-104.232 2.85-56.253.294-112.513-.443-168.77-.86-15.593-.115-31.182-.714-46.775-.948-26.422-.396-52.845-.738-79.27-.99-20.334-.192-37.642-8.147-52.002-21.81-11.234-10.689-22.365-20.543-37.863-24.87-8.042-2.246-15.695-4.836-24.226-4.435-9.458.445-18.954.1-28.933.099"/></svg>